<svg xmlns="http://www.w3.org/2000/svg" viewBox="0 0 1400 800" width="1400" height="800">
  <!-- ============================================================
       GENERATED BY: /wireframe skill
       SOURCE: features/foundation/002-cookie-consent/spec.md
       DATE: 2026-01-01
       THEME: Light (UX/Frontend) - v3 True Parchment
       DO NOT MANUALLY EDIT - Regenerate with /wireframe command
       ============================================================ -->
  <defs>
    <linearGradient id="bgGrad" x1="0%" y1="0%" x2="100%" y2="100%">
      <stop offset="0%" style="stop-color:#c7ddf5"/>
      <stop offset="100%" style="stop-color:#b8d4f0"/>
    </linearGradient>
    <linearGradient id="accentGrad" x1="0%" y1="0%" x2="100%" y2="0%">
      <stop offset="0%" style="stop-color:#8b5cf6"/>
      <stop offset="100%" style="stop-color:#d946ef"/>
    </linearGradient>
    <style>
      .heading-lg { fill: #1a1a2e; font-family: system-ui, sans-serif; font-size: 24px; font-weight: 800; }
      .heading { fill: #1a1a2e; font-family: system-ui, sans-serif; font-size: 16px; font-weight: 700; }
      .heading-sm { fill: #1a1a2e; font-family: system-ui, sans-serif; font-size: 14px; font-weight: 700; }
      .text-md { fill: #2d3748; font-family: system-ui, sans-serif; font-size: 14px; font-weight: 500; }
      .text-sm { fill: #374151; font-family: system-ui, sans-serif; font-size: 12px; font-weight: 500; }
      .text-muted { fill: #4b5563; font-family: system-ui, sans-serif; font-size: 11px; font-weight: 500; }
      .annotation { fill: #6d28d9; font-family: monospace; font-size: 12px; font-weight: 600; }
      .label-desktop { fill: #8b5cf6; font-family: monospace; font-size: 13px; font-weight: bold; }
      .label-mobile { fill: #d946ef; font-family: monospace; font-size: 13px; font-weight: bold; }
    </style>
  </defs>

  <!-- Background -->
  <rect width="1400" height="800" fill="url(#bgGrad)"/>

  <!-- Dot grid pattern -->
  <g opacity="0.35">
    <pattern id="dots" width="30" height="30" patternUnits="userSpaceOnUse">
      <circle cx="15" cy="15" r="1" fill="#6b8cba"/>
    </pattern>
    <rect width="1400" height="800" fill="url(#dots)"/>
  </g>

  <!-- Accent line top -->
  <rect x="0" y="0" width="1400" height="3" fill="url(#accentGrad)"/>

  <!-- Title -->
  <text x="700" y="28" text-anchor="middle" font-family="system-ui, sans-serif" font-size="14" font-weight="600" fill="#4b5563" letter-spacing="1">COOKIE CONSENT MODAL - FIRST VISIT</text>

  <!-- DESKTOP SECTION -->
  <text x="40" y="52" class="label-desktop">DESKTOP</text>

  <g id="desktop-view">
    <!-- Page background (dimmed) -->
    <rect x="40" y="60" width="900" height="680" rx="8" fill="#e8d4b8" stroke="#b8a080" stroke-width="1"/>

    <!-- Dimmed overlay -->
    <rect x="40" y="60" width="900" height="680" rx="8" fill="rgba(0,0,0,0.5)"/>

    <!-- Modal -->
    <rect x="140" y="100" width="700" height="600" rx="12" fill="#f5f0e6" stroke="#b8a080" stroke-width="2"/>

    <!-- Modal Header -->
    <rect x="140" y="100" width="700" height="60" rx="12" fill="#e8d4b8"/>
    <rect x="140" y="148" width="700" height="12" fill="#e8d4b8"/>
    <text x="490" y="138" text-anchor="middle" class="heading">🍪 Cookie Preferences</text>

    <!-- Description -->
    <text x="170" y="190" class="text-md">We use cookies to enhance your experience. You can customize your</text>
    <text x="170" y="210" class="text-md">preferences below. Your choices are saved and can be changed anytime.</text>

    <!-- Main Action Buttons - NO DARK PATTERNS (equal styling) -->
    <text x="170" y="250" class="heading-sm">Quick Actions</text>

    <rect x="170" y="265" width="200" height="44" rx="6" fill="#e8d4b8" stroke="#b8a080" stroke-width="2"/>
    <text x="270" y="293" text-anchor="middle" class="text-md">Accept All</text>

    <rect x="390" y="265" width="200" height="44" rx="6" fill="#e8d4b8" stroke="#b8a080" stroke-width="2"/>
    <text x="490" y="293" text-anchor="middle" class="text-md">Reject All</text>

    <rect x="610" y="265" width="200" height="44" rx="6" fill="#e8d4b8" stroke="#b8a080" stroke-width="2"/>
    <text x="710" y="293" text-anchor="middle" class="text-md">Manage Preferences</text>

    <!-- Annotation: No dark patterns -->
    <rect x="860" y="250" width="140" height="60" rx="4" fill="#e8d4b8" stroke="#8b5cf6" stroke-width="1"/>
    <text x="930" y="272" text-anchor="middle" class="annotation">No dark patterns</text>
    <text x="930" y="290" text-anchor="middle" class="text-muted">Equal button styling</text>
    <text x="930" y="305" text-anchor="middle" class="text-muted">FR-004</text>

    <!-- Divider -->
    <line x1="170" y1="330" x2="810" y2="330" stroke="#b8a080" stroke-width="1"/>

    <!-- Cookie Categories -->
    <text x="170" y="360" class="heading-sm">Cookie Categories</text>

    <!-- Category 1: Necessary (Always On) -->
    <rect x="170" y="375" width="620" height="70" rx="6" fill="#f5f0e6" stroke="#22c55e" stroke-width="2"/>
    <text x="190" y="400" class="heading-sm">Necessary Cookies</text>
    <text x="190" y="420" class="text-sm">Required for core functionality. Cannot be disabled.</text>
    <text x="190" y="438" class="text-muted">Session, security, accessibility preferences</text>
    <!-- Toggle (disabled, always on) -->
    <rect x="720" y="395" width="50" height="26" rx="13" fill="#22c55e"/>
    <circle cx="757" cy="408" r="10" fill="#fff"/>
    <text x="730" y="438" text-anchor="middle" class="text-muted">Always On</text>

    <!-- Category 2: Functional -->
    <rect x="170" y="455" width="620" height="70" rx="6" fill="#f5f0e6" stroke="#b8a080" stroke-width="1"/>
    <text x="190" y="480" class="heading-sm">Functional Cookies</text>
    <text x="190" y="500" class="text-sm">Enhanced features like preferences and personalization.</text>
    <text x="190" y="518" class="text-muted">Language, theme, remembered choices</text>
    <!-- Toggle (off) -->
    <rect x="720" y="475" width="50" height="26" rx="13" fill="#dcc8a8" stroke="#b8a080"/>
    <circle cx="733" cy="488" r="10" fill="#fff"/>

    <!-- Category 3: Analytics -->
    <rect x="170" y="535" width="620" height="70" rx="6" fill="#f5f0e6" stroke="#b8a080" stroke-width="1"/>
    <text x="190" y="560" class="heading-sm">Analytics Cookies</text>
    <text x="190" y="580" class="text-sm">Help us understand how visitors use our site.</text>
    <text x="190" y="598" class="text-muted">Page views, session duration, anonymous usage data</text>
    <!-- Toggle (off) -->
    <rect x="720" y="555" width="50" height="26" rx="13" fill="#dcc8a8" stroke="#b8a080"/>
    <circle cx="733" cy="568" r="10" fill="#fff"/>

    <!-- Category 4: Marketing -->
    <rect x="170" y="615" width="620" height="70" rx="6" fill="#f5f0e6" stroke="#b8a080" stroke-width="1"/>
    <text x="190" y="640" class="heading-sm">Marketing Cookies</text>
    <text x="190" y="660" class="text-sm">Used for targeted advertising and remarketing.</text>
    <text x="190" y="678" class="text-muted">Ad personalization, cross-site tracking</text>
    <!-- Toggle (off) -->
    <rect x="720" y="635" width="50" height="26" rx="13" fill="#dcc8a8" stroke="#b8a080"/>
    <circle cx="733" cy="648" r="10" fill="#fff"/>

    <!-- Annotation: 4 categories -->
    <rect x="860" y="375" width="130" height="80" rx="4" fill="#e8d4b8" stroke="#8b5cf6" stroke-width="1"/>
    <text x="925" y="397" text-anchor="middle" class="annotation">4 Categories</text>
    <text x="925" y="415" text-anchor="middle" class="text-muted">• Necessary ✓</text>
    <text x="925" y="430" text-anchor="middle" class="text-muted">• Functional</text>
    <text x="925" y="445" text-anchor="middle" class="text-muted">• Analytics</text>

    <!-- Annotation: Granular control -->
    <rect x="860" y="480" width="130" height="50" rx="4" fill="#e8d4b8" stroke="#8b5cf6" stroke-width="1"/>
    <text x="925" y="502" text-anchor="middle" class="annotation">Granular Control</text>
    <text x="925" y="520" text-anchor="middle" class="text-muted">FR-005, FR-006</text>
  </g>

  <!-- MOBILE SECTION -->
  <text x="980" y="52" class="label-mobile">MOBILE</text>

  <g id="mobile-view" transform="translate(980, 60)">
    <!-- Phone frame -->
    <rect x="0" y="0" width="360" height="700" rx="24" fill="#c8b898" stroke="#a08860" stroke-width="2"/>
    <rect x="10" y="10" width="340" height="680" rx="16" fill="#e8d4b8"/>

    <!-- Status bar -->
    <rect x="10" y="10" width="340" height="28" rx="16" fill="#dcc8a8"/>
    <text x="30" y="28" class="text-sm">9:41</text>
    <text x="310" y="28" text-anchor="end" class="text-sm">100%</text>

    <!-- Dimmed page content -->
    <rect x="10" y="38" width="340" height="652" rx="8" fill="rgba(0,0,0,0.5)"/>

    <!-- Modal (full-screen on mobile) -->
    <rect x="20" y="60" width="320" height="620" rx="12" fill="#f5f0e6" stroke="#b8a080" stroke-width="2"/>

    <!-- Modal Header -->
    <rect x="20" y="60" width="320" height="50" rx="12" fill="#e8d4b8"/>
    <rect x="20" y="98" width="320" height="12" fill="#e8d4b8"/>
    <text x="180" y="92" text-anchor="middle" class="heading-sm">🍪 Cookie Preferences</text>

    <!-- Description -->
    <text x="35" y="135" class="text-sm">We use cookies to enhance your</text>
    <text x="35" y="150" class="text-sm">experience. Customize below.</text>

    <!-- Action Buttons (stacked on mobile) -->
    <rect x="35" y="170" width="130" height="36" rx="6" fill="#e8d4b8" stroke="#b8a080"/>
    <text x="100" y="193" text-anchor="middle" class="text-sm">Accept All</text>

    <rect x="175" y="170" width="130" height="36" rx="6" fill="#e8d4b8" stroke="#b8a080"/>
    <text x="240" y="193" text-anchor="middle" class="text-sm">Reject All</text>

    <!-- Divider -->
    <line x1="35" y1="225" x2="305" y2="225" stroke="#b8a080" stroke-width="1"/>

    <!-- Category 1: Necessary -->
    <rect x="35" y="240" width="270" height="55" rx="6" fill="#f5f0e6" stroke="#22c55e" stroke-width="2"/>
    <text x="50" y="260" class="heading-sm">Necessary</text>
    <text x="50" y="280" class="text-muted">Required for core functionality</text>
    <rect x="255" y="252" width="40" height="22" rx="11" fill="#22c55e"/>
    <circle cx="285" cy="263" r="8" fill="#fff"/>

    <!-- Category 2: Functional -->
    <rect x="35" y="305" width="270" height="55" rx="6" fill="#f5f0e6" stroke="#b8a080"/>
    <text x="50" y="325" class="heading-sm">Functional</text>
    <text x="50" y="345" class="text-muted">Enhanced features, preferences</text>
    <rect x="255" y="317" width="40" height="22" rx="11" fill="#dcc8a8" stroke="#b8a080"/>
    <circle cx="265" cy="328" r="8" fill="#fff"/>

    <!-- Category 3: Analytics -->
    <rect x="35" y="370" width="270" height="55" rx="6" fill="#f5f0e6" stroke="#b8a080"/>
    <text x="50" y="390" class="heading-sm">Analytics</text>
    <text x="50" y="410" class="text-muted">Usage data, page views</text>
    <rect x="255" y="382" width="40" height="22" rx="11" fill="#dcc8a8" stroke="#b8a080"/>
    <circle cx="265" cy="393" r="8" fill="#fff"/>

    <!-- Category 4: Marketing -->
    <rect x="35" y="435" width="270" height="55" rx="6" fill="#f5f0e6" stroke="#b8a080"/>
    <text x="50" y="455" class="heading-sm">Marketing</text>
    <text x="50" y="475" class="text-muted">Targeted advertising</text>
    <rect x="255" y="447" width="40" height="22" rx="11" fill="#dcc8a8" stroke="#b8a080"/>
    <circle cx="265" cy="458" r="8" fill="#fff"/>

    <!-- Save Button -->
    <rect x="35" y="510" width="270" height="44" rx="6" fill="#8b5cf6"/>
    <text x="170" y="538" text-anchor="middle" fill="#fff" font-family="system-ui" font-size="14" font-weight="600">Save Preferences</text>

    <!-- Privacy Policy Link -->
    <text x="170" y="580" text-anchor="middle" class="annotation">View Privacy Policy</text>

    <!-- Consent Version -->
    <text x="170" y="620" text-anchor="middle" class="text-muted">Consent Version: 1.0.0</text>
    <text x="170" y="638" text-anchor="middle" class="text-muted">Last updated: Jan 2026</text>
  </g>

  <!-- Footer -->
  <text x="700" y="780" text-anchor="middle" class="text-muted">Cookie Consent Modal • Feature 002 • ScriptHammer</text>

  <!-- Leader lines -->
  <g id="leader-lines">
    <line x1="810" y1="285" x2="860" y2="280" stroke="#8b5cf6" stroke-width="1" stroke-dasharray="4,2"/>
    <line x1="790" y1="410" x2="860" y2="410" stroke="#8b5cf6" stroke-width="1" stroke-dasharray="4,2"/>
    <line x1="770" y1="510" x2="860" y2="505" stroke="#8b5cf6" stroke-width="1" stroke-dasharray="4,2"/>
  </g>
</svg>
