<svg xmlns="http://www.w3.org/2000/svg" viewBox="0 0 1920 1080" width="1920" height="1080">
  <!-- ============================================================
       GENERATED BY: /wireframe skill
       SOURCE: features/foundation/002-cookie-consent/spec.md
       DATE: 2026-01-10
       THEME: Light (UX/Frontend) - v3 True Parchment
       DO NOT MANUALLY EDIT - Regenerate with /wireframe command
       ============================================================ -->
  <defs>
    <linearGradient id="bgGrad" x1="0%" y1="0%" x2="100%" y2="100%">
      <stop offset="0%" style="stop-color:#c7ddf5"/>
      <stop offset="100%" style="stop-color:#b8d4f0"/>
    </linearGradient>
    <linearGradient id="accentGrad" x1="0%" y1="0%" x2="100%" y2="0%">
      <stop offset="0%" style="stop-color:#8b5cf6"/>
      <stop offset="100%" style="stop-color:#d946ef"/>
    </linearGradient>
    <style>
      .heading-lg { fill: #1a1a2e; font-family: system-ui, sans-serif; font-size: 28px; font-weight: 800; }
      .heading { fill: #1a1a2e; font-family: system-ui, sans-serif; font-size: 20px; font-weight: 700; }
      .heading-sm { fill: #1a1a2e; font-family: system-ui, sans-serif; font-size: 16px; font-weight: 600; }
      .text-md { fill: #2d3748; font-family: system-ui, sans-serif; font-size: 16px; font-weight: 500; }
      .text-sm { fill: #374151; font-family: system-ui, sans-serif; font-size: 14px; font-weight: 500; }
      .text-muted { fill: #4b5563; font-family: system-ui, sans-serif; font-size: 13px; font-weight: 500; }
      .annotation { fill: #6d28d9; font-family: system-ui, sans-serif; font-size: 14px; font-weight: 700; }
      .label-desktop { fill: #8b5cf6; font-family: system-ui, sans-serif; font-size: 15px; font-weight: bold; }
      .label-mobile { fill: #d946ef; font-family: system-ui, sans-serif; font-size: 15px; font-weight: bold; }
      .legend-header { fill: #6d28d9; font-family: system-ui, sans-serif; font-size: 15px; font-weight: bold; }
      .legend-text { fill: #374151; font-family: system-ui, sans-serif; font-size: 14px; }
      .tag-base { font-family: system-ui, sans-serif; font-size: 14px; font-weight: bold; }
      .fr-tag { fill: #2563eb; }
      .sc-tag { fill: #ea580c; }
      .us-tag { fill: #0891b2; font-family: system-ui, sans-serif; font-size: 14px; font-weight: bold; }
      .us-narrative { fill: #374151; font-family: system-ui, sans-serif; font-size: 14px; }
      .us-acceptance { fill: #4b5563; font-family: system-ui, sans-serif; font-size: 11px; }
      .badge { fill: #fff; font-family: system-ui, sans-serif; font-size: 11px; font-weight: bold; }
      .toggle-on { fill: #22c55e; }
      .toggle-off { fill: #64748b; }
      .toggle-always-on { fill: #22c55e; }
      .toggle-thumb { fill: #ffffff; }
      .annotation-bg { fill: #ede9fe; stroke: #c4b5fd; stroke-width: 1; }
    </style>
  </defs>

  <!-- Background -->
  <rect width="1920" height="1080" fill="url(#bgGrad)"/>
  <g opacity="0.35">
    <pattern id="dots" width="30" height="30" patternUnits="userSpaceOnUse">
      <circle cx="15" cy="15" r="1" fill="#6b8cba"/>
    </pattern>
    <rect width="1920" height="1080" fill="url(#dots)"/>
  </g>
  <rect x="0" y="0" width="1920" height="3" fill="url(#accentGrad)"/>

  <!-- Title -->
  <text x="700" y="28" text-anchor="middle" font-family="system-ui, sans-serif" font-size="18" font-weight="700" fill="#4b5563" letter-spacing="1">COOKIE CONSENT &amp; GDPR COMPLIANCE - Modal Flow</text>

  <!-- DESKTOP SECTION -->
  <text x="40" y="52" class="label-desktop">DESKTOP (16:9) - Consent Flow States</text>
  <g id="desktop-view">
    <rect x="40" y="60" width="1366" height="768" rx="8" fill="#e8d4b8" stroke="#b8a080"/>

    <!-- Desktop Header -->
    <g transform="translate(50, 70)">
      <rect width="1346" height="50" rx="0" fill="#dcc8a8" stroke="#b8a080"/>
      <rect x="15" y="10" width="30" height="30" rx="4" fill="#8b5cf6"/>
      <text x="55" y="32" fill="#1a1a2e" font-family="system-ui, sans-serif" font-size="16px" font-weight="700">ScriptHammer</text>
      <g transform="translate(550, 3)">
        <rect x="80" width="90" height="44" rx="4" fill="#8b5cf6"/>
        <text x="125" y="28" text-anchor="middle" fill="#fff" font-family="system-ui, sans-serif" font-size="14px" font-weight="600">Features</text>
      </g>
    </g>

    <!-- STATE 1: Initial Modal -->
    <g transform="translate(60, 140)">
      <text x="0" y="0" class="heading-sm">STATE 1: First Visit</text>

      <!-- Modal -->
      <rect x="0" y="15" width="380" height="360" rx="8" fill="#dcc8a8" stroke="#b8a080" stroke-width="2"/>
      <text x="20" y="50" class="heading">Cookie Preferences</text>
      <text x="20" y="75" class="text-sm">We use cookies to enhance your experience.</text>
      <text x="20" y="95" class="text-sm">Please choose your preferences below.</text>

      <!-- FR-001 annotation -->
      <g transform="translate(10, 110)">
        <rect width="220" height="28" rx="4" class="annotation-bg"/>
        <a href="https://github.com/TortoiseWolfe/ScriptHammer/blob/main/features/foundation/002-cookie-consent/spec.md#functional-requirements" target="_blank">
          <rect x="5" y="4" width="55" height="20" rx="3" fill="#2563eb"/>
          <text x="32" y="18" class="badge" text-anchor="middle">FR-001</text>
        </a>
        <text x="68" y="18" class="text-sm">Show on first visit</text>
      </g>

      <!-- FR-002 annotation -->
      <g transform="translate(10, 145)">
        <rect width="200" height="28" rx="4" class="annotation-bg"/>
        <a href="https://github.com/TortoiseWolfe/ScriptHammer/blob/main/features/foundation/002-cookie-consent/spec.md#functional-requirements" target="_blank">
          <rect x="5" y="4" width="55" height="20" rx="3" fill="#2563eb"/>
          <text x="32" y="18" class="badge" text-anchor="middle">FR-002</text>
        </a>
        <text x="68" y="18" class="text-sm">3 equal options</text>
      </g>

      <!-- Buttons (44px height for touch) -->
      <rect x="20" y="185" width="340" height="44" rx="6" fill="#8b5cf6"/>
      <text x="190" y="213" text-anchor="middle" fill="#fff" font-family="system-ui, sans-serif" font-size="14px" font-weight="600">Accept All</text>

      <rect x="20" y="240" width="340" height="44" rx="6" fill="transparent" stroke="#8b5cf6" stroke-width="2"/>
      <text x="190" y="268" text-anchor="middle" fill="#8b5cf6" font-family="system-ui, sans-serif" font-size="14px" font-weight="600">Reject All</text>

      <rect x="20" y="295" width="340" height="44" rx="6" fill="transparent" stroke="#b8a080" stroke-width="2"/>
      <text x="190" y="323" text-anchor="middle" fill="#374151" font-family="system-ui, sans-serif" font-size="14px" font-weight="600">Manage Preferences</text>

      <!-- FR-004 annotation -->
      <g transform="translate(10, 345)">
        <rect width="185" height="28" rx="4" class="annotation-bg"/>
        <a href="https://github.com/TortoiseWolfe/ScriptHammer/blob/main/features/foundation/002-cookie-consent/spec.md#functional-requirements" target="_blank">
          <rect x="5" y="4" width="55" height="20" rx="3" fill="#2563eb"/>
          <text x="32" y="18" class="badge" text-anchor="middle">FR-004</text>
        </a>
        <text x="68" y="18" class="text-sm">No dark patterns</text>
      </g>
    </g>

    <!-- Flow Arrow 1→2 -->
    <g transform="translate(450, 300)">
      <path d="M0,0 L60,0" stroke="#8b5cf6" stroke-width="2" fill="none" marker-end="url(#arrow1)"/>
      <text x="30" y="-8" text-anchor="middle" class="text-muted">Manage</text>
    </g>
    <defs>
      <marker id="arrow1" markerWidth="10" markerHeight="7" refX="9" refY="3.5" orient="auto">
        <polygon points="0 0, 10 3.5, 0 7" fill="#8b5cf6"/>
      </marker>
    </defs>

    <!-- STATE 2: Preferences Panel -->
    <g transform="translate(520, 140)">
      <text x="0" y="0" class="heading-sm">STATE 2: Manage Preferences</text>

      <rect x="0" y="15" width="380" height="440" rx="8" fill="#dcc8a8" stroke="#b8a080" stroke-width="2"/>
      <text x="20" y="50" class="heading">Cookie Categories</text>

      <!-- FR-005 annotation -->
      <g transform="translate(10, 60)">
        <rect width="180" height="28" rx="4" class="annotation-bg"/>
        <a href="https://github.com/TortoiseWolfe/ScriptHammer/blob/main/features/foundation/002-cookie-consent/spec.md#functional-requirements" target="_blank">
          <rect x="5" y="4" width="55" height="20" rx="3" fill="#2563eb"/>
          <text x="32" y="18" class="badge" text-anchor="middle">FR-005</text>
        </a>
        <text x="68" y="18" class="text-sm">4 categories</text>
      </g>

      <!-- FR-008 annotation (aligned with FR-005) -->
      <g transform="translate(200, 60)">
        <rect width="170" height="28" rx="4" class="annotation-bg"/>
        <a href="https://github.com/TortoiseWolfe/ScriptHammer/blob/main/features/foundation/002-cookie-consent/spec.md#functional-requirements" target="_blank">
          <rect x="5" y="4" width="55" height="20" rx="3" fill="#2563eb"/>
          <text x="32" y="18" class="badge" text-anchor="middle">FR-008</text>
        </a>
        <text x="68" y="18" class="text-sm">Necessary locked</text>
      </g>

      <!-- Category: Necessary (always on) -->
      <g transform="translate(20, 100)">
        <rect width="340" height="60" rx="6" fill="#f5f0e6" stroke="#b8a080"/>
        <text x="15" y="25" class="text-md" font-weight="600">Necessary</text>
        <text x="15" y="45" class="text-muted">Required for basic site function</text>
        <g transform="translate(290, 15)">
          <rect x="0" y="0" width="40" height="24" rx="12" class="toggle-always-on"/>
          <circle cx="28" cy="12" r="9" class="toggle-thumb"/>
        </g>
      </g>

      <!-- Category: Functional -->
      <g transform="translate(20, 170)">
        <rect width="340" height="60" rx="6" fill="#f5f0e6" stroke="#b8a080"/>
        <text x="15" y="25" class="text-md" font-weight="600">Functional</text>
        <text x="15" y="45" class="text-muted">Enhanced features &amp; preferences</text>
        <g transform="translate(290, 15)">
          <rect x="0" y="0" width="40" height="24" rx="12" class="toggle-off"/>
          <circle cx="12" cy="12" r="9" class="toggle-thumb"/>
        </g>
      </g>

      <!-- Category: Analytics -->
      <g transform="translate(20, 240)">
        <rect width="340" height="60" rx="6" fill="#f5f0e6" stroke="#b8a080"/>
        <text x="15" y="25" class="text-md" font-weight="600">Analytics</text>
        <text x="15" y="45" class="text-muted">Usage statistics &amp; improvements</text>
        <g transform="translate(290, 15)">
          <rect x="0" y="0" width="40" height="24" rx="12" class="toggle-off"/>
          <circle cx="12" cy="12" r="9" class="toggle-thumb"/>
        </g>
      </g>

      <!-- Category: Marketing -->
      <g transform="translate(20, 310)">
        <rect width="340" height="60" rx="6" fill="#f5f0e6" stroke="#b8a080"/>
        <text x="15" y="25" class="text-md" font-weight="600">Marketing</text>
        <text x="15" y="45" class="text-muted">Personalized ads &amp; tracking</text>
        <g transform="translate(290, 15)">
          <rect x="0" y="0" width="40" height="24" rx="12" class="toggle-off"/>
          <circle cx="12" cy="12" r="9" class="toggle-thumb"/>
        </g>
      </g>

      <!-- Save button -->
      <rect x="20" y="385" width="340" height="44" rx="6" fill="#8b5cf6"/>
      <text x="190" y="413" text-anchor="middle" fill="#fff" font-family="system-ui, sans-serif" font-size="14px" font-weight="600">Save Preferences</text>
    </g>

    <!-- Flow Arrow 2→3 -->
    <g transform="translate(910, 350)">
      <path d="M0,0 L60,0" stroke="#8b5cf6" stroke-width="2" fill="none" marker-end="url(#arrow1)"/>
      <text x="30" y="-8" text-anchor="middle" class="text-muted">Save</text>
    </g>

    <!-- STATE 3: Confirmation -->
    <g transform="translate(980, 140)">
      <text x="0" y="0" class="heading-sm">STATE 3: Confirmed</text>

      <rect x="0" y="15" width="380" height="200" rx="8" fill="#dcc8a8" stroke="#b8a080" stroke-width="2"/>

      <!-- Success icon -->
      <circle cx="190" cy="75" r="30" fill="#22c55e"/>
      <text x="190" y="85" text-anchor="middle" fill="#fff" font-size="28">✓</text>

      <text x="190" y="130" text-anchor="middle" class="heading">Preferences Saved</text>
      <text x="190" y="155" text-anchor="middle" class="text-sm">Your choices have been recorded.</text>

      <!-- SC-002 annotation -->
      <g transform="translate(80, 170)">
        <rect width="230" height="28" rx="4" class="annotation-bg"/>
        <a href="https://github.com/TortoiseWolfe/ScriptHammer/blob/main/features/foundation/002-cookie-consent/spec.md#success-criteria-mandatory" target="_blank">
          <rect x="5" y="4" width="55" height="20" rx="3" fill="#ea580c"/>
          <text x="32" y="18" class="badge" text-anchor="middle">SC-002</text>
        </a>
        <text x="68" y="18" class="text-sm">100% blocked until consent</text>
      </g>
    </g>

    <!-- Accessibility annotations -->
    <g transform="translate(980, 380)">
      <rect x="0" y="0" width="380" height="100" rx="8" fill="#dcc8a8" stroke="#b8a080"/>
      <text x="15" y="25" class="heading-sm">Accessibility (WCAG AA)</text>

      <g transform="translate(15, 40)">
        <a href="https://github.com/TortoiseWolfe/ScriptHammer/blob/main/features/foundation/002-cookie-consent/spec.md#functional-requirements" target="_blank">
          <rect x="0" y="0" width="55" height="20" rx="3" fill="#2563eb"/>
          <text x="27" y="14" class="badge" text-anchor="middle">FR-022</text>
        </a>
        <text x="65" y="14" class="text-sm">Keyboard navigable</text>
      </g>

      <g transform="translate(15, 65)">
        <a href="https://github.com/TortoiseWolfe/ScriptHammer/blob/main/features/foundation/002-cookie-consent/spec.md#functional-requirements" target="_blank">
          <rect x="0" y="0" width="55" height="20" rx="3" fill="#2563eb"/>
          <text x="27" y="14" class="badge" text-anchor="middle">FR-024</text>
        </a>
        <text x="65" y="14" class="text-sm">Focus trap while open</text>
      </g>

      <g transform="translate(200, 40)">
        <a href="https://github.com/TortoiseWolfe/ScriptHammer/blob/main/features/foundation/002-cookie-consent/spec.md#functional-requirements" target="_blank">
          <rect x="0" y="0" width="55" height="20" rx="3" fill="#2563eb"/>
          <text x="27" y="14" class="badge" text-anchor="middle">FR-023</text>
        </a>
        <text x="65" y="14" class="text-sm">Screen reader</text>
      </g>

      <g transform="translate(200, 65)">
        <a href="https://github.com/TortoiseWolfe/ScriptHammer/blob/main/features/foundation/002-cookie-consent/spec.md#success-criteria-mandatory" target="_blank">
          <rect x="0" y="0" width="55" height="20" rx="3" fill="#ea580c"/>
          <text x="27" y="14" class="badge" text-anchor="middle">SC-006</text>
        </a>
        <text x="65" y="14" class="text-sm">WCAG AA audit</text>
      </g>
    </g>

    <!-- Performance metrics -->
    <g transform="translate(980, 500)">
      <rect x="0" y="0" width="380" height="80" rx="8" fill="#dcc8a8" stroke="#b8a080"/>
      <text x="15" y="25" class="heading-sm">Performance</text>

      <g transform="translate(15, 40)">
        <a href="https://github.com/TortoiseWolfe/ScriptHammer/blob/main/features/foundation/002-cookie-consent/spec.md#success-criteria-mandatory" target="_blank">
          <rect x="0" y="0" width="55" height="20" rx="3" fill="#ea580c"/>
          <text x="27" y="14" class="badge" text-anchor="middle">SC-001</text>
        </a>
        <text x="65" y="14" class="text-sm">Modal appears &lt;500ms</text>
      </g>

      <g transform="translate(200, 40)">
        <a href="https://github.com/TortoiseWolfe/ScriptHammer/blob/main/features/foundation/002-cookie-consent/spec.md#success-criteria-mandatory" target="_blank">
          <rect x="0" y="0" width="55" height="20" rx="3" fill="#ea580c"/>
          <text x="27" y="14" class="badge" text-anchor="middle">SC-007</text>
        </a>
        <text x="65" y="14" class="text-sm">Load impact &lt;50ms</text>
      </g>
    </g>
  </g>

  <!-- MOBILE SECTION -->
  <text x="1500" y="52" class="label-mobile">MOBILE</text>
  <g id="mobile-view" transform="translate(1500, 60)">
    <rect x="0" y="0" width="360" height="700" rx="24" fill="#c8b898" stroke="#a08860" stroke-width="2"/>
    <rect x="10" y="10" width="340" height="680" rx="16" fill="#e8d4b8"/>

    <!-- Mobile Header -->
    <g transform="translate(10, 10)">
      <rect width="340" height="28" rx="16" fill="#dcc8a8"/>
      <text x="20" y="18" fill="#374151" font-family="system-ui, sans-serif" font-size="14px" font-weight="500">9:41</text>
      <g transform="translate(260, 4)">
        <g transform="scale(0.667)">
          <path fill="#1a1a2e" d="M5.636 4.575a.75.75 0 0 1 0 1.061 9 9 0 0 0 0 12.728.75.75 0 1 1-1.06 1.06c-4.101-4.1-4.101-10.748 0-14.849a.75.75 0 0 1 1.06 0Zm12.728 0a.75.75 0 0 1 1.06 0c4.101 4.1 4.101 10.75 0 14.85a.75.75 0 1 1-1.06-1.061 9 9 0 0 0 0-12.728.75.75 0 0 1 0-1.06Z"/>
        </g>
        <g transform="translate(20, 0) scale(0.667)">
          <path fill="#1a1a2e" fill-rule="evenodd" clip-rule="evenodd" d="M.75 9.75a3 3 0 0 1 3-3h15a3 3 0 0 1 3 3v.038c.856.173 1.5.93 1.5 1.837v.75c0 .907-.644 1.664-1.5 1.838v.037a3 3 0 0 1-3 3h-15a3 3 0 0 1-3-3v-4.5Z"/>
        </g>
      </g>
    </g>

    <!-- Mobile Header Bar -->
    <g transform="translate(10, 38)">
      <rect width="340" height="50" rx="0" fill="#dcc8a8" stroke="#b8a080"/>
      <rect x="3" y="3" width="44" height="44" rx="4" fill="transparent"/>
      <g transform="translate(13, 13)">
        <path fill="#2d3748" fill-rule="evenodd" clip-rule="evenodd" d="M3 6.75A.75.75 0 0 1 3.75 6h16.5a.75.75 0 0 1 0 1.5H3.75A.75.75 0 0 1 3 6.75ZM3 12a.75.75 0 0 1 .75-.75h16.5a.75.75 0 0 1 0 1.5H3.75A.75.75 0 0 1 3 12Zm0 5.25a.75.75 0 0 1 .75-.75h16.5a.75.75 0 0 1 0 1.5H3.75a.75.75 0 0 1-.75-.75Z"/>
      </g>
      <rect x="55" y="10" width="24" height="24" rx="4" fill="#8b5cf6"/>
      <text x="85" y="30" fill="#374151" font-family="system-ui, sans-serif" font-size="14px" font-weight="500">ScriptHammer</text>
    </g>

    <!-- Mobile Modal (STATE 1) -->
    <g transform="translate(20, 110)">
      <rect x="0" y="0" width="320" height="380" rx="8" fill="#dcc8a8" stroke="#b8a080" stroke-width="2"/>
      <text x="15" y="35" class="heading">Cookie Preferences</text>
      <text x="15" y="60" class="text-sm">We use cookies to enhance</text>
      <text x="15" y="80" class="text-sm">your experience.</text>

      <!-- Mobile buttons (stacked, 44px height) -->
      <rect x="15" y="100" width="290" height="44" rx="6" fill="#8b5cf6"/>
      <text x="160" y="128" text-anchor="middle" fill="#fff" font-family="system-ui, sans-serif" font-size="14px" font-weight="600">Accept All</text>

      <rect x="15" y="155" width="290" height="44" rx="6" fill="transparent" stroke="#8b5cf6" stroke-width="2"/>
      <text x="160" y="183" text-anchor="middle" fill="#8b5cf6" font-family="system-ui, sans-serif" font-size="14px" font-weight="600">Reject All</text>

      <rect x="15" y="210" width="290" height="44" rx="6" fill="transparent" stroke="#b8a080" stroke-width="2"/>
      <text x="160" y="238" text-anchor="middle" fill="#374151" font-family="system-ui, sans-serif" font-size="14px" font-weight="600">Manage Preferences</text>

      <!-- Mobile requirement badges -->
      <g transform="translate(15, 270)">
        <text x="0" y="12" class="text-muted">Requirements:</text>
        <g transform="translate(0, 20)">
          <a href="https://github.com/TortoiseWolfe/ScriptHammer/blob/main/features/foundation/002-cookie-consent/spec.md#functional-requirements" target="_blank">
            <rect x="0" y="0" width="50" height="18" rx="3" fill="#2563eb"/>
            <text x="25" y="13" class="badge" text-anchor="middle" font-size="10">FR-001</text>
          </a>
          <a href="https://github.com/TortoiseWolfe/ScriptHammer/blob/main/features/foundation/002-cookie-consent/spec.md#functional-requirements" target="_blank">
            <rect x="55" y="0" width="50" height="18" rx="3" fill="#2563eb"/>
            <text x="80" y="13" class="badge" text-anchor="middle" font-size="10">FR-002</text>
          </a>
          <a href="https://github.com/TortoiseWolfe/ScriptHammer/blob/main/features/foundation/002-cookie-consent/spec.md#functional-requirements" target="_blank">
            <rect x="110" y="0" width="50" height="18" rx="3" fill="#2563eb"/>
            <text x="135" y="13" class="badge" text-anchor="middle" font-size="10">FR-005</text>
          </a>
        </g>
        <g transform="translate(0, 45)">
          <a href="https://github.com/TortoiseWolfe/ScriptHammer/blob/main/features/foundation/002-cookie-consent/spec.md#success-criteria-mandatory" target="_blank">
            <rect x="0" y="0" width="50" height="18" rx="3" fill="#ea580c"/>
            <text x="25" y="13" class="badge" text-anchor="middle" font-size="10">SC-001</text>
          </a>
          <a href="https://github.com/TortoiseWolfe/ScriptHammer/blob/main/features/foundation/002-cookie-consent/spec.md#success-criteria-mandatory" target="_blank">
            <rect x="55" y="0" width="50" height="18" rx="3" fill="#ea580c"/>
            <text x="80" y="13" class="badge" text-anchor="middle" font-size="10">SC-002</text>
          </a>
        </g>
      </g>
    </g>

    <!-- Mobile Bottom Nav -->
    <g transform="translate(10, 634)">
      <path d="M 0 0 L 340 0 L 340 40 A 16 16 0 0 1 324 56 L 16 56 A 16 16 0 0 1 0 40 Z" fill="#dcc8a8" stroke="#b8a080"/>
      <!-- Home -->
      <g transform="translate(0, 0)">
        <path d="M 0 0 L 85 0 L 85 56 L 16 56 A 16 16 0 0 1 0 40 L 0 0 Z" fill="transparent"/>
        <g transform="translate(30, 6)">
          <path fill="#1a1a2e" d="M11.47 3.841a.75.75 0 0 1 1.06 0l8.69 8.69a.75.75 0 1 0 1.06-1.061l-8.689-8.69a2.25 2.25 0 0 0-3.182 0l-8.69 8.69a.75.75 0 1 0 1.061 1.06l8.69-8.689Z"/>
          <path fill="#1a1a2e" d="m12 5.432 8.159 8.159c.03.03.06.058.091.086v6.198c0 1.035-.84 1.875-1.875 1.875H15a.75.75 0 0 1-.75-.75v-4.5a.75.75 0 0 0-.75-.75h-3a.75.75 0 0 0-.75.75V21a.75.75 0 0 1-.75.75H5.625a1.875 1.875 0 0 1-1.875-1.875v-6.198a2.29 2.29 0 0 0 .091-.086L12 5.432Z"/>
        </g>
        <text x="42" y="44" text-anchor="middle" fill="#4b5563" font-family="system-ui, sans-serif" font-size="11px">Home</text>
      </g>
      <!-- Features (active) -->
      <g transform="translate(85, 0)">
        <rect width="85" height="56" fill="#8b5cf6"/>
        <g transform="translate(30, 6)">
          <path fill="#fff" d="M14.6152 1.59492C14.9164 1.76287 15.0643 2.1146 14.9736 2.44734L12.9819 9.75H20.25C20.5486 9.75 20.8188 9.92718 20.9378 10.2011C21.0569 10.475 21.0021 10.7934 20.7983 11.0117L10.2983 22.2617C10.063 22.5139 9.68601 22.573 9.38478 22.4051C9.08354 22.2371 8.93567 21.8854 9.02641 21.5527L11.018 14.25H3.74999C3.45134 14.25 3.18115 14.0728 3.06213 13.7989C2.9431 13.525 2.99792 13.2066 3.20169 12.9883L13.7017 1.73826C13.937 1.48613 14.314 1.42698 14.6152 1.59492Z"/>
        </g>
        <text x="42" y="44" text-anchor="middle" fill="#fff" font-family="system-ui, sans-serif" font-size="11px" font-weight="600">Features</text>
      </g>
      <!-- Docs -->
      <g transform="translate(170, 0)">
        <rect width="85" height="56" fill="transparent"/>
        <g transform="translate(30, 6)">
          <path fill="#1a1a2e" d="M5.625 1.5C4.58947 1.5 3.75 2.33947 3.75 3.375V20.625C3.75 21.6605 4.58947 22.5 5.625 22.5H18.375C19.4105 22.5 20.25 21.6605 20.25 20.625V12.75C20.25 10.6789 18.5711 9 16.5 9H14.625C13.5895 9 12.75 8.16053 12.75 7.125V5.25C12.75 3.17893 11.0711 1.5 9 1.5H5.625Z"/>
        </g>
        <text x="42" y="44" text-anchor="middle" fill="#4b5563" font-family="system-ui, sans-serif" font-size="11px">Docs</text>
      </g>
      <!-- Account -->
      <g transform="translate(255, 0)">
        <path d="M 0 0 L 85 0 L 85 40 A 16 16 0 0 1 69 56 L 0 56 L 0 0 Z" fill="transparent"/>
        <g transform="translate(30, 6)">
          <path fill="#1a1a2e" fill-rule="evenodd" clip-rule="evenodd" d="M7.5 6a4.5 4.5 0 1 1 9 0 4.5 4.5 0 0 1-9 0ZM3.751 20.105a8.25 8.25 0 0 1 16.498 0 .75.75 0 0 1-.437.695A18.683 18.683 0 0 1 12 22.5c-2.786 0-5.433-.608-7.812-1.7a.75.75 0 0 1-.437-.695Z"/>
        </g>
        <text x="42" y="44" text-anchor="middle" fill="#4b5563" font-family="system-ui, sans-serif" font-size="11px">Account</text>
      </g>
    </g>
  </g>

  <!-- USER STORIES SECTION -->
  <g transform="translate(40, 600)">
    <text x="0" y="0" class="label-desktop">USER STORIES</text>

    <!-- Row 1 -->
    <a href="https://github.com/TortoiseWolfe/ScriptHammer/blob/main/features/foundation/002-cookie-consent/spec.md#user-story-1---first-visit-consent-priority-p0" target="_blank">
      <g transform="translate(0, 15)">
        <rect width="440" height="95" rx="6" fill="#dcc8a8" stroke="#b8a080"/>
        <rect x="8" y="8" width="35" height="18" rx="4" fill="#dc2626"/>
        <text x="25" y="21" fill="#fff" font-family="system-ui, sans-serif" font-size="10" font-weight="bold" text-anchor="middle">P0</text>
        <text x="50" y="21" class="us-tag">US-1: First Visit Consent</text>
        <text x="12" y="42" class="us-narrative">As a first-time visitor, I need to be informed about cookie</text>
        <text x="12" y="58" class="us-narrative">usage and make a choice before any non-essential cookies</text>
        <text x="12" y="74" class="us-narrative">are set so that my privacy preferences are respected.</text>
        <text x="12" y="88" class="us-acceptance">✓ Consent modal appears before any tracking occurs</text>
      </g>
    </a>

    <a href="https://github.com/TortoiseWolfe/ScriptHammer/blob/main/features/foundation/002-cookie-consent/spec.md#user-story-2---granular-cookie-control-priority-p0" target="_blank">
      <g transform="translate(450, 15)">
        <rect width="440" height="95" rx="6" fill="#dcc8a8" stroke="#b8a080"/>
        <rect x="8" y="8" width="35" height="18" rx="4" fill="#dc2626"/>
        <text x="25" y="21" fill="#fff" font-family="system-ui, sans-serif" font-size="10" font-weight="bold" text-anchor="middle">P0</text>
        <text x="50" y="21" class="us-tag">US-2: Granular Cookie Control</text>
        <text x="12" y="42" class="us-narrative">As a privacy-conscious user, I need to control exactly which</text>
        <text x="12" y="58" class="us-narrative">types of cookies are used so that I can allow functional</text>
        <text x="12" y="74" class="us-narrative">features while blocking tracking.</text>
        <text x="12" y="88" class="us-acceptance">✓ Four distinct categories with individual toggles</text>
      </g>
    </a>

    <a href="https://github.com/TortoiseWolfe/ScriptHammer/blob/main/features/foundation/002-cookie-consent/spec.md#user-story-3---preference-persistence-priority-p1" target="_blank">
      <g transform="translate(900, 15)">
        <rect width="440" height="95" rx="6" fill="#dcc8a8" stroke="#b8a080"/>
        <rect x="8" y="8" width="35" height="18" rx="4" fill="#f59e0b"/>
        <text x="25" y="21" fill="#000" font-family="system-ui, sans-serif" font-size="10" font-weight="bold" text-anchor="middle">P1</text>
        <text x="50" y="21" class="us-tag">US-3: Preference Persistence</text>
        <text x="12" y="42" class="us-narrative">As a returning user, I need my cookie preferences to be</text>
        <text x="12" y="58" class="us-narrative">remembered so that I don't have to re-configure them</text>
        <text x="12" y="74" class="us-narrative">on every visit.</text>
        <text x="12" y="88" class="us-acceptance">✓ Preferences persist across browser sessions</text>
      </g>
    </a>

    <!-- Row 2 -->
    <a href="https://github.com/TortoiseWolfe/ScriptHammer/blob/main/features/foundation/002-cookie-consent/spec.md#user-story-4---update-preferences-anytime-priority-p1" target="_blank">
      <g transform="translate(0, 120)">
        <rect width="440" height="95" rx="6" fill="#dcc8a8" stroke="#b8a080"/>
        <rect x="8" y="8" width="35" height="18" rx="4" fill="#f59e0b"/>
        <text x="25" y="21" fill="#000" font-family="system-ui, sans-serif" font-size="10" font-weight="bold" text-anchor="middle">P1</text>
        <text x="50" y="21" class="us-tag">US-4: Update Preferences Anytime</text>
        <text x="12" y="42" class="us-narrative">As a user who changed my mind about tracking, I need to</text>
        <text x="12" y="58" class="us-narrative">access and modify my cookie preferences at any time so</text>
        <text x="12" y="74" class="us-narrative">that I maintain control over my privacy.</text>
        <text x="12" y="88" class="us-acceptance">✓ Privacy settings accessible from footer link</text>
      </g>
    </a>

    <a href="https://github.com/TortoiseWolfe/ScriptHammer/blob/main/features/foundation/002-cookie-consent/spec.md#user-story-5---data-export-priority-p2" target="_blank">
      <g transform="translate(450, 120)">
        <rect width="440" height="95" rx="6" fill="#dcc8a8" stroke="#b8a080"/>
        <rect x="8" y="8" width="35" height="18" rx="4" fill="#3b82f6"/>
        <text x="25" y="21" fill="#fff" font-family="system-ui, sans-serif" font-size="10" font-weight="bold" text-anchor="middle">P2</text>
        <text x="50" y="21" class="us-tag">US-5: Data Export</text>
        <text x="12" y="42" class="us-narrative">As a user exercising my GDPR rights, I need to export all</text>
        <text x="12" y="58" class="us-narrative">data the application has stored about me so that I can</text>
        <text x="12" y="74" class="us-narrative">see exactly what information has been collected.</text>
        <text x="12" y="88" class="us-acceptance">✓ Export completes within 5 seconds</text>
      </g>
    </a>

    <a href="https://github.com/TortoiseWolfe/ScriptHammer/blob/main/features/foundation/002-cookie-consent/spec.md#user-story-6---data-deletion-request-priority-p2" target="_blank">
      <g transform="translate(900, 120)">
        <rect width="440" height="95" rx="6" fill="#dcc8a8" stroke="#b8a080"/>
        <rect x="8" y="8" width="35" height="18" rx="4" fill="#3b82f6"/>
        <text x="25" y="21" fill="#fff" font-family="system-ui, sans-serif" font-size="10" font-weight="bold" text-anchor="middle">P2</text>
        <text x="50" y="21" class="us-tag">US-6: Data Deletion Request</text>
        <text x="12" y="42" class="us-narrative">As a user exercising my GDPR rights, I need to request</text>
        <text x="12" y="58" class="us-narrative">deletion of my data so that I can exercise my "right to</text>
        <text x="12" y="74" class="us-narrative">be forgotten."</text>
        <text x="12" y="88" class="us-acceptance">✓ All locally stored data is removed on confirmation</text>
      </g>
    </a>
  </g>

  <!-- REQUIREMENTS KEY -->
  <g id="requirements-legend" transform="translate(40, 920)">
    <rect width="1840" height="70" rx="6" fill="#dcc8a8" stroke="#b8a080"/>
    <text x="20" y="18" class="legend-header">REQUIREMENTS KEY</text>

    <!-- Row 1: FR codes -->
    <g transform="translate(20, 38)">
      <a href="https://github.com/TortoiseWolfe/ScriptHammer/blob/main/features/foundation/002-cookie-consent/spec.md#functional-requirements" target="_blank">
        <rect x="0" y="-12" width="55" height="20" rx="3" fill="#2563eb"/>
        <text x="27" y="2" class="badge" text-anchor="middle">FR-001</text>
      </a>
      <text x="60" y="2" class="legend-text">Display consent modal on first visit before non-essential cookies set</text>

      <a href="https://github.com/TortoiseWolfe/ScriptHammer/blob/main/features/foundation/002-cookie-consent/spec.md#functional-requirements" target="_blank">
        <rect x="520" y="-12" width="55" height="20" rx="3" fill="#2563eb"/>
        <text x="547" y="2" class="badge" text-anchor="middle">FR-002</text>
      </a>
      <text x="580" y="2" class="legend-text">Accept All, Reject All, and Manage Preferences options</text>

      <a href="https://github.com/TortoiseWolfe/ScriptHammer/blob/main/features/foundation/002-cookie-consent/spec.md#functional-requirements" target="_blank">
        <rect x="950" y="-12" width="55" height="20" rx="3" fill="#2563eb"/>
        <text x="977" y="2" class="badge" text-anchor="middle">FR-005</text>
      </a>
      <text x="1010" y="2" class="legend-text">Four cookie categories: Necessary, Functional, Analytics, Marketing</text>

      <a href="https://github.com/TortoiseWolfe/ScriptHammer/blob/main/features/foundation/002-cookie-consent/spec.md#functional-requirements" target="_blank">
        <rect x="1450" y="-12" width="55" height="20" rx="3" fill="#2563eb"/>
        <text x="1477" y="2" class="badge" text-anchor="middle">FR-004</text>
      </a>
      <text x="1510" y="2" class="legend-text">No dark patterns (no pre-checked boxes)</text>
    </g>

    <!-- Row 2: SC codes -->
    <g transform="translate(20, 60)">
      <a href="https://github.com/TortoiseWolfe/ScriptHammer/blob/main/features/foundation/002-cookie-consent/spec.md#success-criteria-mandatory" target="_blank">
        <rect x="0" y="-12" width="55" height="20" rx="3" fill="#ea580c"/>
        <text x="27" y="2" class="badge" text-anchor="middle">SC-001</text>
      </a>
      <text x="60" y="2" class="legend-text">Consent modal appears within 500ms of first page load</text>

      <a href="https://github.com/TortoiseWolfe/ScriptHammer/blob/main/features/foundation/002-cookie-consent/spec.md#success-criteria-mandatory" target="_blank">
        <rect x="520" y="-12" width="55" height="20" rx="3" fill="#ea580c"/>
        <text x="547" y="2" class="badge" text-anchor="middle">SC-002</text>
      </a>
      <text x="580" y="2" class="legend-text">100% of non-essential cookies blocked until explicit consent</text>

      <a href="https://github.com/TortoiseWolfe/ScriptHammer/blob/main/features/foundation/002-cookie-consent/spec.md#success-criteria-mandatory" target="_blank">
        <rect x="950" y="-12" width="55" height="20" rx="3" fill="#ea580c"/>
        <text x="977" y="2" class="badge" text-anchor="middle">SC-006</text>
      </a>
      <text x="1010" y="2" class="legend-text">Consent system passes WCAG AA accessibility audit</text>

      <a href="https://github.com/TortoiseWolfe/ScriptHammer/blob/main/features/foundation/002-cookie-consent/spec.md#success-criteria-mandatory" target="_blank">
        <rect x="1450" y="-12" width="55" height="20" rx="3" fill="#ea580c"/>
        <text x="1477" y="2" class="badge" text-anchor="middle">SC-007</text>
      </a>
      <text x="1510" y="2" class="legend-text">Consent mechanism adds &lt;50ms to load</text>
    </g>
  </g>

  <!-- Footer -->
  <text x="60" y="1050" text-anchor="start" class="text-muted">002:01 | Cookie Consent Modal Flow | ScriptHammer</text>
</svg>
