<svg xmlns="http://www.w3.org/2000/svg" viewBox="0 0 1400 800" width="1400" height="800">
  <!-- ============================================================
       GENERATED BY: /wireframe skill
       SOURCE: features/foundation/002-cookie-consent/spec.md
       DATE: 2025-12-31
       THEME: Light (UX/Frontend)
       DO NOT MANUALLY EDIT - Regenerate with /wireframe command
       ============================================================ -->
  <defs>
    <linearGradient id="bgGrad" x1="0%" y1="0%" x2="100%" y2="100%">
      <stop offset="0%" style="stop-color:#ffffff"/>
      <stop offset="100%" style="stop-color:#f0f4f8"/>
    </linearGradient>
    <linearGradient id="accentGrad" x1="0%" y1="0%" x2="100%" y2="0%">
      <stop offset="0%" style="stop-color:#8b5cf6"/>
      <stop offset="100%" style="stop-color:#d946ef"/>
    </linearGradient>
    <style>
      .heading-lg { fill: #1f2937; font-family: system-ui, sans-serif; font-size: 20px; font-weight: bold; }
      .heading { fill: #1f2937; font-family: system-ui, sans-serif; font-size: 14px; font-weight: bold; }
      .heading-sm { fill: #1f2937; font-family: system-ui, sans-serif; font-size: 12px; font-weight: bold; }
      .text-md { fill: #374151; font-family: system-ui, sans-serif; font-size: 12px; }
      .text-sm { fill: #6b7280; font-family: system-ui, sans-serif; font-size: 10px; }
      .text-muted { fill: #9ca3af; font-family: system-ui, sans-serif; font-size: 10px; }
      .annotation { fill: #8b5cf6; font-family: monospace; font-size: 10px; }
      .label-desktop { fill: #8b5cf6; font-family: monospace; font-size: 11px; font-weight: bold; }
      .label-mobile { fill: #d946ef; font-family: monospace; font-size: 11px; font-weight: bold; }
      .code { fill: #6366f1; font-family: monospace; font-size: 10px; }
      .btn-text { fill: #ffffff; font-family: system-ui, sans-serif; font-size: 12px; font-weight: 600; }
      .btn-text-dark { fill: #374151; font-family: system-ui, sans-serif; font-size: 12px; font-weight: 600; }
    </style>
  </defs>

  <!-- Background -->
  <rect width="1400" height="800" fill="url(#bgGrad)"/>

  <!-- Dot grid pattern -->
  <g opacity="0.4">
    <pattern id="dots" width="30" height="30" patternUnits="userSpaceOnUse">
      <circle cx="15" cy="15" r="1" fill="#a5b4fc"/>
    </pattern>
    <rect width="1400" height="800" fill="url(#dots)"/>
  </g>

  <!-- Accent line top -->
  <rect x="0" y="0" width="1400" height="3" fill="url(#accentGrad)"/>

  <!-- Title -->
  <text x="700" y="28" text-anchor="middle" font-family="system-ui, sans-serif" font-size="14" font-weight="600" fill="#9ca3af" letter-spacing="1">COOKIE CONSENT MODAL - FIRST VISIT</text>

  <!-- DESKTOP SECTION -->
  <text x="40" y="52" class="label-desktop">DESKTOP</text>

  <!-- Desktop: Page with Overlay -->
  <g id="desktop-view">
    <!-- Background page (dimmed) -->
    <rect x="40" y="60" width="900" height="680" rx="8" fill="#f3f4f6" stroke="#e5e7eb"/>
    <rect x="40" y="60" width="900" height="680" rx="8" fill="#000000" opacity="0.4"/>

    <!-- Sample page content behind (very faded) -->
    <g opacity="0.3">
      <rect x="60" y="80" width="200" height="40" rx="4" fill="#e5e7eb"/>
      <rect x="60" y="140" width="860" height="200" rx="4" fill="#e5e7eb"/>
      <rect x="60" y="360" width="400" height="100" rx="4" fill="#e5e7eb"/>
      <rect x="480" y="360" width="440" height="100" rx="4" fill="#e5e7eb"/>
    </g>

    <!-- Consent Modal (Desktop) -->
    <g id="consent-modal-desktop" transform="translate(140, 150)">
      <rect x="0" y="0" width="700" height="440" rx="16" fill="#ffffff" stroke="#e5e7eb" stroke-width="2"/>

      <!-- Modal shadow effect -->
      <rect x="4" y="4" width="700" height="440" rx="16" fill="none" stroke="#000" stroke-width="1" opacity="0.1"/>

      <!-- Header -->
      <rect x="0" y="0" width="700" height="60" rx="16" fill="#ffffff"/>
      <rect x="0" y="44" width="700" height="16" fill="#ffffff"/>
      <line x1="0" y1="60" x2="700" y2="60" stroke="#e5e7eb"/>

      <!-- Cookie icon -->
      <circle cx="35" cy="30" r="18" fill="#fef3c7"/>
      <text x="35" y="36" text-anchor="middle" font-size="20">&#127850;</text>

      <text x="65" y="28" class="heading-lg">We Value Your Privacy</text>
      <text x="65" y="46" class="text-sm">This site uses cookies to enhance your experience</text>

      <!-- Main content -->
      <g transform="translate(30, 80)">
        <text x="0" y="0" class="text-md">We use cookies to personalize content, provide social media features, and analyze</text>
        <text x="0" y="18" class="text-md">our traffic. You can choose which categories of cookies you allow. Click "Manage</text>
        <text x="0" y="36" class="text-md">Preferences" to customize your settings or use the quick options below.</text>

        <!-- Cookie Categories Summary -->
        <g transform="translate(0, 60)">
          <text x="0" y="0" class="heading-sm">Cookie Categories:</text>

          <!-- Category pills -->
          <g transform="translate(0, 15)">
            <!-- Necessary -->
            <rect x="0" y="0" width="100" height="26" rx="13" fill="#dcfce7" stroke="#22c55e"/>
            <text x="50" y="17" text-anchor="middle" class="text-sm" fill="#166534">Necessary</text>
            <text x="105" y="17" class="text-muted">Always on</text>

            <!-- Functional -->
            <rect x="180" y="0" width="90" height="26" rx="13" fill="#f3f4f6" stroke="#d1d5db"/>
            <text x="225" y="17" text-anchor="middle" class="text-sm" fill="#374151">Functional</text>

            <!-- Analytics -->
            <rect x="285" y="0" width="80" height="26" rx="13" fill="#f3f4f6" stroke="#d1d5db"/>
            <text x="325" y="17" text-anchor="middle" class="text-sm" fill="#374151">Analytics</text>

            <!-- Marketing -->
            <rect x="380" y="0" width="85" height="26" rx="13" fill="#f3f4f6" stroke="#d1d5db"/>
            <text x="422" y="17" text-anchor="middle" class="text-sm" fill="#374151">Marketing</text>
          </g>
        </g>

        <!-- Privacy Link -->
        <g transform="translate(0, 130)">
          <text x="0" y="0" class="text-sm">For more information, see our </text>
          <text x="168" y="0" class="text-sm" fill="#8b5cf6" text-decoration="underline">Privacy Policy</text>
          <text x="252" y="0" class="text-sm"> and </text>
          <text x="275" y="0" class="text-sm" fill="#8b5cf6" text-decoration="underline">Cookie Policy</text>
        </g>
      </g>

      <!-- Buttons - FR-004: No dark patterns, equal button styling -->
      <g transform="translate(30, 310)">
        <!-- Reject All button -->
        <rect x="0" y="0" width="200" height="44" rx="8" fill="#ffffff" stroke="#d1d5db" stroke-width="2"/>
        <text x="100" y="27" text-anchor="middle" class="btn-text-dark">Reject All</text>

        <!-- Manage Preferences button -->
        <rect x="220" y="0" width="200" height="44" rx="8" fill="#ffffff" stroke="#d1d5db" stroke-width="2"/>
        <text x="320" y="27" text-anchor="middle" class="btn-text-dark">Manage Preferences</text>

        <!-- Accept All button -->
        <rect x="440" y="0" width="200" height="44" rx="8" fill="#8b5cf6"/>
        <text x="540" y="27" text-anchor="middle" class="btn-text">Accept All</text>
      </g>

      <!-- Accessibility note -->
      <g transform="translate(30, 380)">
        <rect x="0" y="0" width="640" height="40" rx="6" fill="#f3f4f6"/>
        <text x="15" y="16" class="text-sm" fill="#6b7280">Keyboard: Tab to navigate, Enter to select, Escape to close</text>
        <text x="15" y="32" class="text-sm" fill="#6b7280">Screen reader: All elements have accessible labels (FR-022, FR-023)</text>
      </g>
    </g>
  </g>

  <!-- MOBILE SECTION -->
  <text x="980" y="52" class="label-mobile">MOBILE</text>

  <!-- Mobile Phone Frame -->
  <g id="mobile-view" transform="translate(980, 60)">
    <rect x="0" y="0" width="360" height="700" rx="24" fill="#f3f4f6" stroke="#e5e7eb" stroke-width="2"/>

    <!-- Status bar -->
    <rect x="10" y="10" width="340" height="28" rx="14" fill="#ffffff"/>
    <text x="30" y="28" class="text-sm">9:41</text>
    <text x="310" y="28" text-anchor="end" class="text-sm">100%</text>

    <!-- Dimmed background -->
    <rect x="10" y="38" width="340" height="652" rx="16" fill="#000000" opacity="0.4"/>

    <!-- Sample content behind (very faded) -->
    <g opacity="0.2">
      <rect x="20" y="50" width="320" height="40" rx="4" fill="#e5e7eb"/>
      <rect x="20" y="100" width="320" height="120" rx="4" fill="#e5e7eb"/>
    </g>

    <!-- Mobile Consent Modal - Bottom Sheet Style -->
    <g id="consent-modal-mobile" transform="translate(10, 280)">
      <rect x="0" y="0" width="340" height="400" rx="16" fill="#ffffff"/>

      <!-- Drag handle -->
      <rect x="145" y="8" width="50" height="4" rx="2" fill="#d1d5db"/>

      <!-- Cookie icon and title -->
      <g transform="translate(20, 30)">
        <circle cx="18" cy="18" r="16" fill="#fef3c7"/>
        <text x="18" y="24" text-anchor="middle" font-size="18">&#127850;</text>
        <text x="45" y="16" class="heading" fill="#1f2937">We Value Your Privacy</text>
        <text x="45" y="32" class="text-sm">Cookies enhance your experience</text>
      </g>

      <!-- Content -->
      <g transform="translate(20, 80)">
        <text x="0" y="0" class="text-sm" fill="#6b7280">We use cookies for personalization,</text>
        <text x="0" y="16" class="text-sm" fill="#6b7280">social features, and analytics.</text>

        <!-- Category badges -->
        <g transform="translate(0, 35)">
          <rect x="0" y="0" width="75" height="22" rx="11" fill="#dcfce7" stroke="#22c55e"/>
          <text x="37" y="15" text-anchor="middle" class="text-sm" fill="#166534">Necessary</text>

          <rect x="85" y="0" width="70" height="22" rx="11" fill="#f3f4f6" stroke="#d1d5db"/>
          <text x="120" y="15" text-anchor="middle" class="text-sm" fill="#374151">Functional</text>

          <rect x="165" y="0" width="65" height="22" rx="11" fill="#f3f4f6" stroke="#d1d5db"/>
          <text x="197" y="15" text-anchor="middle" class="text-sm" fill="#374151">Analytics</text>

          <rect x="240" y="0" width="60" height="22" rx="11" fill="#f3f4f6" stroke="#d1d5db"/>
          <text x="270" y="15" text-anchor="middle" class="text-sm" fill="#374151">Marketing</text>
        </g>
      </g>

      <!-- Mobile Buttons - Stacked for touch -->
      <g transform="translate(20, 175)">
        <!-- Accept All -->
        <rect x="0" y="0" width="300" height="48" rx="8" fill="#8b5cf6"/>
        <text x="150" y="30" text-anchor="middle" class="btn-text">Accept All</text>

        <!-- Reject All -->
        <rect x="0" y="58" width="300" height="48" rx="8" fill="#ffffff" stroke="#d1d5db" stroke-width="2"/>
        <text x="150" y="88" text-anchor="middle" class="btn-text-dark">Reject All</text>

        <!-- Manage Preferences -->
        <rect x="0" y="116" width="300" height="48" rx="8" fill="#ffffff" stroke="#d1d5db" stroke-width="2"/>
        <text x="150" y="146" text-anchor="middle" class="btn-text-dark">Manage Preferences</text>
      </g>

      <!-- Links -->
      <g transform="translate(20, 365)">
        <text x="75" y="0" text-anchor="middle" class="text-sm" fill="#8b5cf6">Privacy Policy</text>
        <text x="150" y="0" text-anchor="middle" class="text-sm" fill="#9ca3af">|</text>
        <text x="225" y="0" text-anchor="middle" class="text-sm" fill="#8b5cf6">Cookie Policy</text>
      </g>
    </g>
  </g>

  <!-- Annotations -->
  <g id="annotations">
    <!-- FR-001 annotation -->
    <g transform="translate(40, 620)">
      <rect x="0" y="0" width="200" height="55" rx="6" fill="#ffffff" stroke="#8b5cf6"/>
      <text x="100" y="18" text-anchor="middle" class="annotation">FR-001</text>
      <text x="100" y="34" text-anchor="middle" class="text-sm">Modal appears on first</text>
      <text x="100" y="48" text-anchor="middle" class="text-sm">visit before cookies set</text>
    </g>

    <!-- FR-002 annotation -->
    <g transform="translate(260, 620)">
      <rect x="0" y="0" width="200" height="55" rx="6" fill="#ffffff" stroke="#8b5cf6"/>
      <text x="100" y="18" text-anchor="middle" class="annotation">FR-002</text>
      <text x="100" y="34" text-anchor="middle" class="text-sm">3 options: Accept All,</text>
      <text x="100" y="48" text-anchor="middle" class="text-sm">Reject All, Manage Prefs</text>
    </g>

    <!-- FR-004 annotation -->
    <g transform="translate(480, 620)">
      <rect x="0" y="0" width="200" height="55" rx="6" fill="#ffffff" stroke="#8b5cf6"/>
      <text x="100" y="18" text-anchor="middle" class="annotation">FR-004: No Dark Patterns</text>
      <text x="100" y="34" text-anchor="middle" class="text-sm">Equal button styling,</text>
      <text x="100" y="48" text-anchor="middle" class="text-sm">clear language, no tricks</text>
    </g>

    <!-- SC-001 annotation -->
    <g transform="translate(700, 620)">
      <rect x="0" y="0" width="200" height="55" rx="6" fill="#ffffff" stroke="#22c55e"/>
      <text x="100" y="18" text-anchor="middle" class="text-sm" fill="#22c55e">SC-001: &lt;500ms load</text>
      <text x="100" y="34" text-anchor="middle" class="text-sm">Modal appears instantly</text>
      <text x="100" y="48" text-anchor="middle" class="text-sm">on first page load</text>
    </g>
  </g>

  <!-- Compliance badges -->
  <g transform="translate(40, 720)">
    <rect x="0" y="0" width="100" height="40" rx="6" fill="#ffffff" stroke="#22c55e"/>
    <text x="50" y="18" text-anchor="middle" class="heading-sm" fill="#22c55e">GDPR</text>
    <text x="50" y="32" text-anchor="middle" class="text-muted">Compliant</text>

    <rect x="120" y="0" width="100" height="40" rx="6" fill="#ffffff" stroke="#22c55e"/>
    <text x="170" y="18" text-anchor="middle" class="heading-sm" fill="#22c55e">ePrivacy</text>
    <text x="170" y="32" text-anchor="middle" class="text-muted">Directive</text>

    <rect x="240" y="0" width="100" height="40" rx="6" fill="#ffffff" stroke="#22c55e"/>
    <text x="290" y="18" text-anchor="middle" class="heading-sm" fill="#22c55e">UK PECR</text>
    <text x="290" y="32" text-anchor="middle" class="text-muted">Compliant</text>

    <rect x="360" y="0" width="100" height="40" rx="6" fill="#ffffff" stroke="#8b5cf6"/>
    <text x="410" y="18" text-anchor="middle" class="heading-sm" fill="#8b5cf6">WCAG AA</text>
    <text x="410" y="32" text-anchor="middle" class="text-muted">SC-006</text>
  </g>

  <!-- Feature reference -->
  <text x="1360" y="780" text-anchor="end" class="text-muted">002-cookie-consent | 01 of 02</text>
</svg>
