<?xml version="1.0" encoding="UTF-8"?>
<!-- GENERATED BY: /wireframe v4 (Template Injection)
     SOURCE: features/foundation/002-cookie-consent/spec.md
     DATE: 2026-01-11
     THEME: Light
     VALIDATOR: v2.1
     TEMPLATE STANDARD: 1280x720 desktop (16:9), 360x720 mobile
     COVERAGE: 24/24 FRs, 8/8 SCs
     ============================================================ -->
<svg xmlns="http://www.w3.org/2000/svg" xmlns:xlink="http://www.w3.org/1999/xlink" viewBox="0 0 1920 1080" width="1920" height="1080">
  <defs>
    <linearGradient id="bg" x1="0%" y1="0%" x2="0%" y2="100%">
      <stop offset="0%" stop-color="#c7ddf5"/>
      <stop offset="100%" stop-color="#b8d4f0"/>
    </linearGradient>
  </defs>

  <!-- Background -->
  <rect width="1920" height="1080" fill="url(#bg)"/>

  <!-- Title -->
  <text x="40" y="40" fill="#374151" font-family="system-ui, sans-serif" font-size="22" font-weight="bold">
    002-cookie-consent | Page 1 of 1
  </text>

  <!-- ==================== DESKTOP MOCKUP (1280x720 - 16:9) ==================== -->
  <g id="desktop" transform="translate(40, 60)">
    <!-- Browser frame -->
    <rect width="1280" height="720" rx="8" fill="#e8d4b8" stroke="#b8a080" stroke-width="2"/>

    <!-- INJECTED: includes/header-desktop.svg#desktop-header (1280px wide) -->
    <g id="desktop-header" transform="translate(0, 0)">
      <!-- Header background - rounded TOP corners only -->
      <path d="M 8 0 L 1272 0 A 8 8 0 0 1 1280 8 L 1280 50 L 0 50 L 0 8 A 8 8 0 0 1 8 0 Z" fill="#dcc8a8" stroke="#b8a080"/>

      <!-- Logo (left) - ScriptHammer brand -->
      <rect x="15" y="10" width="30" height="30" rx="4" fill="#8b5cf6"/>
      <text x="55" y="32" fill="#1a1a2e" font-family="system-ui, sans-serif" font-size="16" font-weight="700">ScriptHammer</text>

      <!-- Navigation items (center) - 44px touch targets -->
      <g id="nav-items" transform="translate(440, 3)">
        <g id="nav-home">
          <rect x="0" width="70" height="44" rx="4" fill="transparent"/>
          <text x="35" y="28" text-anchor="middle" fill="#374151" font-family="system-ui, sans-serif" font-size="14" font-weight="500">Home</text>
        </g>
        <g id="nav-features">
          <rect x="80" width="90" height="44" rx="4" fill="transparent"/>
          <text x="125" y="28" text-anchor="middle" fill="#374151" font-family="system-ui, sans-serif" font-size="14" font-weight="500">Features</text>
        </g>
        <g id="nav-docs">
          <rect x="180" width="70" height="44" rx="4" fill="transparent"/>
          <text x="215" y="28" text-anchor="middle" fill="#374151" font-family="system-ui, sans-serif" font-size="14" font-weight="500">Docs</text>
        </g>
        <g id="nav-account">
          <rect x="260" width="80" height="44" rx="4" fill="transparent"/>
          <text x="300" y="28" text-anchor="middle" fill="#374151" font-family="system-ui, sans-serif" font-size="14" font-weight="500">Account</text>
        </g>
      </g>

      <!-- Header right side: Accessibility + Settings + Avatar -->
      <g transform="translate(1100, 3)">
        <!-- Accessibility icon (eye) - 44px tap target -->
        <rect x="0" y="0" width="44" height="44" rx="4" fill="transparent"/>
        <g transform="translate(10, 10)">
          <path fill="#1a1a2e" d="M12 15a3 3 0 1 0 0-6 3 3 0 0 0 0 6Z"/>
          <path fill="#1a1a2e" fill-rule="evenodd" clip-rule="evenodd" d="M1.323 11.447C2.811 6.976 7.028 3.75 12.001 3.75c4.97 0 9.185 3.223 10.675 7.69.12.362.12.752 0 1.113-1.487 4.471-5.705 7.697-10.677 7.697-4.97 0-9.186-3.223-10.675-7.69a1.762 1.762 0 0 1 0-1.113ZM17.25 12a5.25 5.25 0 1 1-10.5 0 5.25 5.25 0 0 1 10.5 0Z"/>
        </g>
        <!-- Settings gear (cog) - 44px tap target -->
        <rect x="54" y="0" width="44" height="44" rx="4" fill="transparent"/>
        <g transform="translate(64, 10)">
          <path fill="#1a1a2e" fill-rule="evenodd" clip-rule="evenodd" d="M11.0779 2.25C10.1613 2.25 9.37909 2.91265 9.22841 3.81675L9.04974 4.88873C9.02959 5.00964 8.93542 5.1498 8.75311 5.23747C8.40905 5.40292 8.07967 5.5938 7.7674 5.8076C7.60091 5.92159 7.43259 5.9332 7.31769 5.89015L6.29851 5.50833C5.44019 5.18678 4.4752 5.53289 4.01692 6.32666L3.09493 7.92358C2.63665 8.71736 2.8194 9.72611 3.52704 10.3087L4.36756 11.0006C4.46219 11.0785 4.53629 11.2298 4.52119 11.4307C4.50706 11.6188 4.49988 11.8086 4.49988 12C4.49988 12.1915 4.50707 12.3814 4.52121 12.5695C4.53632 12.7704 4.46221 12.9217 4.36758 12.9996L3.52704 13.6916C2.8194 14.2741 2.63665 15.2829 3.09493 16.0767L4.01692 17.6736C4.4752 18.4674 5.44019 18.8135 6.29851 18.4919L7.31791 18.11C7.43281 18.067 7.60113 18.0786 7.76761 18.1925C8.07982 18.4063 8.40913 18.5971 8.75311 18.7625C8.93542 18.8502 9.02959 18.9904 9.04974 19.1113L9.22841 20.1832C9.37909 21.0874 10.1613 21.75 11.0779 21.75H12.9219C13.8384 21.75 14.6207 21.0874 14.7713 20.1832L14.95 19.1113C14.9702 18.9904 15.0643 18.8502 15.2466 18.7625C15.5907 18.5971 15.9201 18.4062 16.2324 18.1924C16.3988 18.0784 16.5672 18.0668 16.6821 18.1098L17.7012 18.4917C18.5596 18.8132 19.5246 18.4671 19.9828 17.6733L20.9048 16.0764C21.3631 15.2826 21.1804 14.2739 20.4727 13.6913L19.6322 12.9994C19.5376 12.9215 19.4635 12.7702 19.4786 12.5693C19.4927 12.3812 19.4999 12.1914 19.4999 12C19.4999 11.8085 19.4927 11.6186 19.4785 11.4305C19.4634 11.2296 19.5375 11.0783 19.6322 11.0004L20.4727 10.3084C21.1804 9.72587 21.3631 8.71711 20.9048 7.92334L19.9828 6.32642C19.5246 5.53264 18.5596 5.18654 17.7012 5.50809L16.6818 5.89C16.5669 5.93304 16.3986 5.92144 16.2321 5.80746C15.9199 5.59371 15.5906 5.40289 15.2466 5.23747C15.0643 5.1498 14.9702 5.00964 14.95 4.88873L14.7713 3.81675C14.6207 2.91265 13.8384 2.25 12.9219 2.25H11.0779ZM12 15.75C14.0711 15.75 15.75 14.0711 15.75 12C15.75 9.92893 14.0711 8.25 12 8.25C9.92893 8.25 8.25 9.92893 8.25 12C8.25 14.0711 9.92893 15.75 12 15.75Z"/>
        </g>
        <!-- User avatar -->
        <circle cx="130" cy="22" r="16" fill="#8b5cf6"/>
        <text x="130" y="27" text-anchor="middle" fill="#fff" font-family="system-ui, sans-serif" font-size="14">U</text>
      </g>
    </g>

    <!-- Main content area (dimmed by overlay) -->
    <rect x="24" y="70" width="1232" height="550" rx="8" fill="#f5f0e6" opacity="0.5"/>
    <text x="640" y="350" fill="#6b7280" font-family="system-ui, sans-serif" font-size="18" text-anchor="middle" opacity="0.5">Main Application Content</text>

    <!-- Modal overlay -->
    <rect x="0" y="50" width="1280" height="590" fill="#000" opacity="0.4"/>

    <!-- Consent Modal (centered in 1280px desktop) -->
    <g transform="translate(340, 90)">
      <rect width="600" height="440" rx="12" fill="#e8d4b8" stroke="#b8a080" stroke-width="2"/>

      <!-- Modal header -->
      <text x="300" y="44" fill="#374151" font-family="system-ui, sans-serif" font-size="24" font-weight="bold" text-anchor="middle">Cookie Preferences</text>

      <!-- Description -->
      <text x="40" y="88" fill="#4b5563" font-family="system-ui, sans-serif" font-size="16">We use cookies to enhance your experience.</text>
      <text x="40" y="112" fill="#4b5563" font-family="system-ui, sans-serif" font-size="16">Please choose your preferences below.</text>

      <!-- Callout 1 on modal -->
      <g transform="translate(-30, 30)">
        <circle r="18" fill="#dc2626"/>
        <text y="6" fill="#fff" font-size="18" font-weight="bold" text-anchor="middle">1</text>
      </g>

      <!-- Three buttons row -->
      <g transform="translate(40, 140)">
        <!-- Accept All -->
        <rect width="160" height="52" rx="8" fill="#22c55e"/>
        <text x="80" y="33" fill="#fff" font-family="system-ui, sans-serif" font-size="16" font-weight="bold" text-anchor="middle">Accept All</text>

        <!-- Reject All -->
        <rect x="180" width="160" height="52" rx="8" fill="#6b7280"/>
        <text x="260" y="33" fill="#fff" font-family="system-ui, sans-serif" font-size="16" font-weight="bold" text-anchor="middle">Reject All</text>

        <!-- Manage Preferences -->
        <rect x="360" width="160" height="52" rx="8" fill="#8b5cf6"/>
        <text x="440" y="33" fill="#fff" font-family="system-ui, sans-serif" font-size="16" font-weight="bold" text-anchor="middle">Manage</text>

        <!-- Callout 2 on buttons -->
        <g transform="translate(545, 26)">
          <circle r="18" fill="#dc2626"/>
          <text y="6" fill="#fff" font-size="18" font-weight="bold" text-anchor="middle">2</text>
        </g>
      </g>

      <!-- Category toggles section -->
      <g transform="translate(40, 210)">
        <text x="0" y="0" fill="#374151" font-family="system-ui, sans-serif" font-size="18" font-weight="bold">Cookie Categories</text>

        <!-- Necessary (locked ON) -->
        <g transform="translate(0, 30)">
          <text x="0" y="18" fill="#374151" font-family="system-ui, sans-serif" font-size="16" font-weight="bold">Necessary</text>
          <text x="0" y="40" fill="#6b7280" font-family="system-ui, sans-serif" font-size="14">Required for site to function</text>
          <rect x="420" y="6" width="52" height="28" rx="14" fill="#22c55e"/>
          <circle cx="458" cy="20" r="11" fill="#fff"/>
          <text x="480" y="24" fill="#6b7280" font-family="system-ui, sans-serif" font-size="14">Locked</text>
        </g>

        <!-- Functional -->
        <g transform="translate(0, 80)">
          <text x="0" y="18" fill="#374151" font-family="system-ui, sans-serif" font-size="16" font-weight="bold">Functional</text>
          <text x="0" y="40" fill="#6b7280" font-family="system-ui, sans-serif" font-size="14">Enhanced features, preferences</text>
          <rect x="420" y="6" width="52" height="28" rx="14" fill="#6b7280"/>
          <circle cx="434" cy="20" r="11" fill="#fff"/>
        </g>

        <!-- Analytics -->
        <g transform="translate(0, 130)">
          <text x="0" y="18" fill="#374151" font-family="system-ui, sans-serif" font-size="16" font-weight="bold">Analytics</text>
          <text x="0" y="40" fill="#6b7280" font-family="system-ui, sans-serif" font-size="14">Usage data, performance metrics</text>
          <rect x="420" y="6" width="52" height="28" rx="14" fill="#6b7280"/>
          <circle cx="434" cy="20" r="11" fill="#fff"/>
        </g>

        <!-- Marketing -->
        <g transform="translate(0, 180)">
          <text x="0" y="18" fill="#374151" font-family="system-ui, sans-serif" font-size="16" font-weight="bold">Marketing</text>
          <text x="0" y="40" fill="#6b7280" font-family="system-ui, sans-serif" font-size="14">Personalized ads, tracking</text>
          <rect x="420" y="6" width="52" height="28" rx="14" fill="#6b7280"/>
          <circle cx="434" cy="20" r="11" fill="#fff"/>
        </g>

        <!-- Callout 3 on toggles -->
        <g transform="translate(-30, 110)">
          <circle r="18" fill="#dc2626"/>
          <text y="6" fill="#fff" font-size="18" font-weight="bold" text-anchor="middle">3</text>
        </g>
      </g>
    </g>

    <!-- INJECTED: includes/footer-desktop.svg#site-footer (1280px wide) -->
    <g id="site-footer" transform="translate(0, 640)">
      <!-- Footer background - rounded BOTTOM corners only -->
      <path d="M 0 0 L 1280 0 L 1280 72 A 8 8 0 0 1 1272 80 L 8 80 A 8 8 0 0 1 0 72 Z" fill="#dcc8a8" stroke="#b8a080"/>

      <!-- Left section: Brand + tagline -->
      <g transform="translate(20, 20)">
        <rect x="0" y="0" width="24" height="24" rx="4" fill="#8b5cf6"/>
        <text x="34" y="18" fill="#1a1a2e" font-family="system-ui, sans-serif" font-size="14" font-weight="700">ScriptHammer</text>
        <text x="0" y="45" fill="#4b5563" font-family="system-ui, sans-serif" font-size="14">Product planning template</text>
      </g>

      <!-- Center section: Navigation links -->
      <g transform="translate(440, 25)">
        <text x="0" y="0" fill="#374151" font-family="system-ui, sans-serif" font-size="14" font-weight="500">Features</text>
        <text x="80" y="0" fill="#374151" font-family="system-ui, sans-serif" font-size="14" font-weight="500">Documentation</text>
        <text x="200" y="0" fill="#374151" font-family="system-ui, sans-serif" font-size="14" font-weight="500">GitHub</text>
        <text x="270" y="0" fill="#8b5cf6" font-family="system-ui, sans-serif" font-size="14" font-weight="500" text-decoration="underline">Privacy</text>
        <text x="330" y="0" fill="#374151" font-family="system-ui, sans-serif" font-size="14" font-weight="500">Terms</text>
        <text x="0" y="25" fill="#4b5563" font-family="system-ui, sans-serif" font-size="14">Built with Next.js 15, Supabase, and Tailwind CSS</text>
      </g>

      <!-- Right section: Copyright -->
      <g transform="translate(1260, 30)">
        <text x="0" y="0" fill="#4b5563" font-family="system-ui, sans-serif" font-size="14" text-anchor="end">ScriptHammer 2026</text>
        <text x="0" y="20" fill="#4b5563" font-family="system-ui, sans-serif" font-size="14" text-anchor="end">MIT License</text>
      </g>

      <!-- Callout 4 on footer privacy link -->
      <g transform="translate(750, 15)">
        <circle r="18" fill="#dc2626"/>
        <text y="6" fill="#fff" font-size="18" font-weight="bold" text-anchor="middle">4</text>
      </g>
    </g>
  </g>

  <!-- ==================== MOBILE MOCKUP (360x720) ==================== -->
  <g id="mobile" transform="translate(1360, 60)">
    <!-- Phone frame (LIGHT color - passes MOB-001) -->
    <rect width="360" height="720" rx="24" fill="#e8d4b8" stroke="#b8a080" stroke-width="2"/>

    <!-- INJECTED: includes/header-mobile.svg#mobile-header-group (360px wide) -->
    <g id="mobile-header-group" transform="translate(0, 0)">
      <!-- STATUS BAR (iOS-style) - rounded TOP corners only -->
      <g id="status-bar">
        <path d="M 24 0 L 336 0 A 24 24 0 0 1 360 24 L 360 28 L 0 28 L 0 24 A 24 24 0 0 1 24 0 Z" fill="#dcc8a8"/>
        <text x="20" y="18" fill="#374151" font-family="system-ui, sans-serif" font-size="14" font-weight="500">9:41</text>
        <g transform="translate(280, 4)">
          <!-- Signal icon (inline) -->
          <g transform="translate(0, 0) scale(0.667)">
            <path fill="#1a1a2e" d="M5.636 4.575a.75.75 0 0 1 0 1.061 9 9 0 0 0 0 12.728.75.75 0 1 1-1.06 1.06c-4.101-4.1-4.101-10.748 0-14.849a.75.75 0 0 1 1.06 0Zm12.728 0a.75.75 0 0 1 1.06 0c4.101 4.1 4.101 10.75 0 14.85a.75.75 0 1 1-1.06-1.061 9 9 0 0 0 0-12.728.75.75 0 0 1 0-1.06ZM7.757 6.697a.75.75 0 0 1 0 1.06 6 6 0 0 0 0 8.486.75.75 0 0 1-1.06 1.06 7.5 7.5 0 0 1 0-10.606.75.75 0 0 1 1.06 0Zm8.486 0a.75.75 0 0 1 1.06 0 7.5 7.5 0 0 1 0 10.606.75.75 0 0 1-1.06-1.06 6 6 0 0 0 0-8.486.75.75 0 0 1 0-1.06ZM9.879 8.818a.75.75 0 0 1 0 1.06 3 3 0 0 0 0 4.243.75.75 0 1 1-1.061 1.061 4.5 4.5 0 0 1 0-6.364.75.75 0 0 1 1.06 0Zm4.242 0a.75.75 0 0 1 1.061 0 4.5 4.5 0 0 1 0 6.364.75.75 0 0 1-1.06-1.06 3 3 0 0 0 0-4.243.75.75 0 0 1 0-1.061ZM10.875 12a1.125 1.125 0 1 1 2.25 0 1.125 1.125 0 0 1-2.25 0Z"/>
          </g>
          <!-- Battery icon (inline) -->
          <g transform="translate(20, 0) scale(0.667)">
            <path fill="#1a1a2e" fill-rule="evenodd" clip-rule="evenodd" d="M.75 9.75a3 3 0 0 1 3-3h15a3 3 0 0 1 3 3v.038c.856.173 1.5.93 1.5 1.837v.75c0 .907-.644 1.664-1.5 1.838v.037a3 3 0 0 1-3 3h-15a3 3 0 0 1-3-3v-4.5Zm3-1.5a1.5 1.5 0 0 0-1.5 1.5v4.5a1.5 1.5 0 0 0 1.5 1.5h15a1.5 1.5 0 0 0 1.5-1.5v-4.5a1.5 1.5 0 0 0-1.5-1.5h-15Z"/>
            <path fill="#1a1a2e" d="M3 10.5a.75.75 0 0 1 .75-.75h13.5a.75.75 0 0 1 .75.75v3a.75.75 0 0 1-.75.75H3.75a.75.75 0 0 1-.75-.75v-3Z"/>
          </g>
        </g>
      </g>

      <!-- HEADER BAR -->
      <g id="mobile-header" transform="translate(0, 28)">
        <!-- Header background - full width, no corner rounding (middle of mobile frame) -->
        <rect width="360" height="50" rx="0" fill="#dcc8a8" stroke="#b8a080"/>

        <!-- Hamburger menu (left) - 44px tap target -->
        <rect x="3" y="3" width="44" height="44" rx="4" fill="transparent"/>
        <g transform="translate(13, 13)">
          <path fill="#2d3748" fill-rule="evenodd" clip-rule="evenodd" d="M3 6.75A.75.75 0 0 1 3.75 6h16.5a.75.75 0 0 1 0 1.5H3.75A.75.75 0 0 1 3 6.75ZM3 12a.75.75 0 0 1 .75-.75h16.5a.75.75 0 0 1 0 1.5H3.75A.75.75 0 0 1 3 12Zm0 5.25a.75.75 0 0 1 .75-.75h16.5a.75.75 0 0 1 0 1.5H3.75a.75.75 0 0 1-.75-.75Z"/>
        </g>

        <!-- Logo (left of center) -->
        <rect x="55" y="10" width="24" height="24" rx="4" fill="#8b5cf6"/>
        <text x="85" y="30" fill="#374151" font-family="system-ui, sans-serif" font-size="14" font-weight="500">ScriptHammer</text>

        <!-- Header right side: Accessibility + Settings + Avatar -->
        <g transform="translate(220, 3)">
          <!-- Accessibility icon (eye) - 44px tap target -->
          <rect x="0" y="0" width="44" height="44" rx="4" fill="transparent"/>
          <g transform="translate(10, 10)">
            <path fill="#1a1a2e" d="M12 15a3 3 0 1 0 0-6 3 3 0 0 0 0 6Z"/>
            <path fill="#1a1a2e" fill-rule="evenodd" clip-rule="evenodd" d="M1.323 11.447C2.811 6.976 7.028 3.75 12.001 3.75c4.97 0 9.185 3.223 10.675 7.69.12.362.12.752 0 1.113-1.487 4.471-5.705 7.697-10.677 7.697-4.97 0-9.186-3.223-10.675-7.69a1.762 1.762 0 0 1 0-1.113ZM17.25 12a5.25 5.25 0 1 1-10.5 0 5.25 5.25 0 0 1 10.5 0Z"/>
          </g>
          <!-- Settings gear (cog) - 44px tap target -->
          <rect x="44" y="0" width="44" height="44" rx="4" fill="transparent"/>
          <g transform="translate(54, 10)">
            <path fill="#1a1a2e" fill-rule="evenodd" clip-rule="evenodd" d="M11.0779 2.25C10.1613 2.25 9.37909 2.91265 9.22841 3.81675L9.04974 4.88873C9.02959 5.00964 8.93542 5.1498 8.75311 5.23747C8.40905 5.40292 8.07967 5.5938 7.7674 5.8076C7.60091 5.92159 7.43259 5.9332 7.31769 5.89015L6.29851 5.50833C5.44019 5.18678 4.4752 5.53289 4.01692 6.32666L3.09493 7.92358C2.63665 8.71736 2.8194 9.72611 3.52704 10.3087L4.36756 11.0006C4.46219 11.0785 4.53629 11.2298 4.52119 11.4307C4.50706 11.6188 4.49988 11.8086 4.49988 12C4.49988 12.1915 4.50707 12.3814 4.52121 12.5695C4.53632 12.7704 4.46221 12.9217 4.36758 12.9996L3.52704 13.6916C2.8194 14.2741 2.63665 15.2829 3.09493 16.0767L4.01692 17.6736C4.4752 18.4674 5.44019 18.8135 6.29851 18.4919L7.31791 18.11C7.43281 18.067 7.60113 18.0786 7.76761 18.1925C8.07982 18.4063 8.40913 18.5971 8.75311 18.7625C8.93542 18.8502 9.02959 18.9904 9.04974 19.1113L9.22841 20.1832C9.37909 21.0874 10.1613 21.75 11.0779 21.75H12.9219C13.8384 21.75 14.6207 21.0874 14.7713 20.1832L14.95 19.1113C14.9702 18.9904 15.0643 18.8502 15.2466 18.7625C15.5907 18.5971 15.9201 18.4062 16.2324 18.1924C16.3988 18.0784 16.5672 18.0668 16.6821 18.1098L17.7012 18.4917C18.5596 18.8132 19.5246 18.4671 19.9828 17.6733L20.9048 16.0764C21.3631 15.2826 21.1804 14.2739 20.4727 13.6913L19.6322 12.9994C19.5376 12.9215 19.4635 12.7702 19.4786 12.5693C19.4927 12.3812 19.4999 12.1914 19.4999 12C19.4999 11.8085 19.4927 11.6186 19.4785 11.4305C19.4634 11.2296 19.5375 11.0783 19.6322 11.0004L20.4727 10.3084C21.1804 9.72587 21.3631 8.71711 20.9048 7.92334L19.9828 6.32642C19.5246 5.53264 18.5596 5.18654 17.7012 5.50809L16.6818 5.89C16.5669 5.93304 16.3986 5.92144 16.2321 5.80746C15.9199 5.59371 15.5906 5.40289 15.2466 5.23747C15.0643 5.1498 14.9702 5.00964 14.95 4.88873L14.7713 3.81675C14.6207 2.91265 13.8384 2.25 12.9219 2.25H11.0779ZM12 15.75C14.0711 15.75 15.75 14.0711 15.75 12C15.75 9.92893 14.0711 8.25 12 8.25C9.92893 8.25 8.25 9.92893 8.25 12C8.25 14.0711 9.92893 15.75 12 15.75Z"/>
          </g>
          <!-- Avatar -->
          <circle cx="110" cy="22" r="14" fill="#8b5cf6"/>
          <text x="110" y="27" text-anchor="middle" fill="#fff" font-family="system-ui, sans-serif" font-size="14">U</text>
        </g>
      </g>
    </g>

    <!-- Main content (dimmed) -->
    <rect x="16" y="96" width="328" height="520" rx="8" fill="#f5f0e6" opacity="0.5"/>

    <!-- Overlay -->
    <rect x="0" y="78" width="360" height="586" fill="#000" opacity="0.4"/>

    <!-- Mobile Consent Modal -->
    <g transform="translate(20, 110)">
      <rect width="320" height="420" rx="12" fill="#e8d4b8" stroke="#b8a080" stroke-width="2"/>

      <text x="160" y="36" fill="#374151" font-family="system-ui, sans-serif" font-size="20" font-weight="bold" text-anchor="middle">Cookie Preferences</text>

      <text x="20" y="70" fill="#4b5563" font-family="system-ui, sans-serif" font-size="14">We use cookies to enhance your</text>
      <text x="20" y="90" fill="#4b5563" font-family="system-ui, sans-serif" font-size="14">experience. Choose your preferences.</text>

      <!-- Callout 1 -->
      <g transform="translate(-10, 30)">
        <circle r="16" fill="#dc2626"/>
        <text y="5" fill="#fff" font-size="16" font-weight="bold" text-anchor="middle">1</text>
      </g>

      <!-- Buttons (stacked on mobile) -->
      <g transform="translate(20, 110)">
        <rect width="280" height="48" rx="8" fill="#22c55e"/>
        <text x="140" y="31" fill="#fff" font-family="system-ui, sans-serif" font-size="16" font-weight="bold" text-anchor="middle">Accept All</text>

        <rect y="58" width="280" height="48" rx="8" fill="#6b7280"/>
        <text x="140" y="89" fill="#fff" font-family="system-ui, sans-serif" font-size="16" font-weight="bold" text-anchor="middle">Reject All</text>

        <rect y="116" width="280" height="48" rx="8" fill="#8b5cf6"/>
        <text x="140" y="147" fill="#fff" font-family="system-ui, sans-serif" font-size="16" font-weight="bold" text-anchor="middle">Manage Preferences</text>

        <!-- Callout 2 -->
        <g transform="translate(296, 90)">
          <circle r="16" fill="#dc2626"/>
          <text y="5" fill="#fff" font-size="16" font-weight="bold" text-anchor="middle">2</text>
        </g>
      </g>

      <!-- Categories preview -->
      <g transform="translate(20, 290)">
        <text x="0" y="0" fill="#374151" font-family="system-ui, sans-serif" font-size="16" font-weight="bold">4 Cookie Categories:</text>
        <text x="0" y="24" fill="#6b7280" font-family="system-ui, sans-serif" font-size="14">Necessary (locked), Functional,</text>
        <text x="0" y="44" fill="#6b7280" font-family="system-ui, sans-serif" font-size="14">Analytics, Marketing</text>

        <!-- Callout 3 -->
        <g transform="translate(-10, 20)">
          <circle r="16" fill="#dc2626"/>
          <text y="5" fill="#fff" font-size="16" font-weight="bold" text-anchor="middle">3</text>
        </g>
      </g>

      <text x="160" y="400" fill="#8b5cf6" font-family="system-ui, sans-serif" font-size="14" text-anchor="middle" text-decoration="underline">Privacy Policy</text>
    </g>

    <!-- INJECTED: includes/footer-mobile.svg#mobile-bottom-nav (360px wide) -->
    <g id="mobile-bottom-nav" transform="translate(0, 664)">
      <!-- Background - rounded BOTTOM corners only -->
      <path d="M 0 0 L 360 0 L 360 32 A 24 24 0 0 1 336 56 L 24 56 A 24 24 0 0 1 0 32 Z" fill="#dcc8a8" stroke="#b8a080"/>

      <!-- Home tab (inactive by default) - bottom-left corner rounded -->
      <g id="tab-home" transform="translate(0, 0)">
        <path d="M 0 0 L 90 0 L 90 56 L 24 56 A 24 24 0 0 1 0 32 L 0 0 Z" fill="transparent"/>
        <g transform="translate(33, 6)">
          <path fill="#1a1a2e" d="M11.47 3.841a.75.75 0 0 1 1.06 0l8.69 8.69a.75.75 0 1 0 1.06-1.061l-8.689-8.69a2.25 2.25 0 0 0-3.182 0l-8.69 8.69a.75.75 0 1 0 1.061 1.06l8.69-8.689Z"/>
          <path fill="#1a1a2e" d="m12 5.432 8.159 8.159c.03.03.06.058.091.086v6.198c0 1.035-.84 1.875-1.875 1.875H15a.75.75 0 0 1-.75-.75v-4.5a.75.75 0 0 0-.75-.75h-3a.75.75 0 0 0-.75.75V21a.75.75 0 0 1-.75.75H5.625a1.875 1.875 0 0 1-1.875-1.875v-6.198a2.29 2.29 0 0 0 .091-.086L12 5.432Z"/>
        </g>
        <text x="45" y="44" text-anchor="middle" fill="#4b5563" font-family="system-ui, sans-serif" font-size="14">Home</text>
      </g>

      <!-- Features tab (inactive by default) -->
      <g id="tab-features" transform="translate(90, 0)">
        <rect width="90" height="56" fill="transparent"/>
        <g transform="translate(33, 6)">
          <path fill="#1a1a2e" d="M14.6152 1.59492C14.9164 1.76287 15.0643 2.1146 14.9736 2.44734L12.9819 9.75H20.25C20.5486 9.75 20.8188 9.92718 20.9378 10.2011C21.0569 10.475 21.0021 10.7934 20.7983 11.0117L10.2983 22.2617C10.063 22.5139 9.68601 22.573 9.38478 22.4051C9.08354 22.2371 8.93567 21.8854 9.02641 21.5527L11.018 14.25H3.74999C3.45134 14.25 3.18115 14.0728 3.06213 13.7989C2.9431 13.525 2.99792 13.2066 3.20169 12.9883L13.7017 1.73826C13.937 1.48613 14.314 1.42698 14.6152 1.59492Z"/>
        </g>
        <text x="45" y="44" text-anchor="middle" fill="#4b5563" font-family="system-ui, sans-serif" font-size="14">Features</text>
      </g>

      <!-- Docs tab (inactive by default) -->
      <g id="tab-docs" transform="translate(180, 0)">
        <rect width="90" height="56" fill="transparent"/>
        <g transform="translate(33, 6)">
          <path fill="#1a1a2e" d="M5.625 1.5C4.58947 1.5 3.75 2.33947 3.75 3.375V20.625C3.75 21.6605 4.58947 22.5 5.625 22.5H18.375C19.4105 22.5 20.25 21.6605 20.25 20.625V12.75C20.25 10.6789 18.5711 9 16.5 9H14.625C13.5895 9 12.75 8.16053 12.75 7.125V5.25C12.75 3.17893 11.0711 1.5 9 1.5H5.625ZM7.5 15C7.5 14.5858 7.83579 14.25 8.25 14.25H15.75C16.1642 14.25 16.5 14.5858 16.5 15C16.5 15.4142 16.1642 15.75 15.75 15.75H8.25C7.83579 15.75 7.5 15.4142 7.5 15ZM8.25 17.25C7.83579 17.25 7.5 17.5858 7.5 18C7.5 18.4142 7.83579 18.75 8.25 18.75H12C12.4142 18.75 12.75 18.4142 12.75 18C12.75 17.5858 12.4142 17.25 12 17.25H8.25Z"/>
          <path fill="#1a1a2e" d="M12.9712 1.8159C13.768 2.73648 14.25 3.93695 14.25 5.25V7.125C14.25 7.33211 14.4179 7.5 14.625 7.5H16.5C17.8131 7.5 19.0135 7.98204 19.9341 8.77881C19.0462 5.37988 16.3701 2.70377 12.9712 1.8159Z"/>
        </g>
        <text x="45" y="44" text-anchor="middle" fill="#4b5563" font-family="system-ui, sans-serif" font-size="14">Docs</text>
      </g>

      <!-- Account tab (inactive by default) - bottom-right corner rounded -->
      <g id="tab-account" transform="translate(270, 0)">
        <path d="M 0 0 L 90 0 L 90 32 A 24 24 0 0 1 66 56 L 0 56 L 0 0 Z" fill="transparent"/>
        <g transform="translate(33, 6)">
          <path fill="#1a1a2e" fill-rule="evenodd" clip-rule="evenodd" d="M7.5 6a4.5 4.5 0 1 1 9 0 4.5 4.5 0 0 1-9 0ZM3.751 20.105a8.25 8.25 0 0 1 16.498 0 .75.75 0 0 1-.437.695A18.683 18.683 0 0 1 12 22.5c-2.786 0-5.433-.608-7.812-1.7a.75.75 0 0 1-.437-.695Z"/>
        </g>
        <text x="45" y="44" text-anchor="middle" fill="#4b5563" font-family="system-ui, sans-serif" font-size="14">Account</text>
      </g>

      <!-- Callout 4 on footer (positioned outside to avoid blocking nav) -->
      <g transform="translate(376, 28)">
        <circle r="16" fill="#dc2626"/>
        <text y="5" fill="#fff" font-size="16" font-weight="bold" text-anchor="middle">4</text>
      </g>
    </g>
  </g>

  <!-- ==================== ANNOTATION PANEL (y=800) ==================== -->
  <g id="annotations" transform="translate(40, 800)">
    <rect width="1840" height="250" rx="8" fill="#dcc8a8" stroke="#b8a080" stroke-width="2"/>

    <!-- Row 1: Numbered callouts -->

    <!-- Annotation 1: Consent Modal -->
    <g transform="translate(20, 20)">
      <circle cx="16" cy="16" r="16" fill="#dc2626"/>
      <text x="16" y="21" fill="#fff" font-size="16" font-weight="bold" text-anchor="middle">1</text>

      <text x="44" y="16" fill="#374151" font-family="system-ui, sans-serif" font-size="16" font-weight="bold">Consent Modal</text>
      <text x="44" y="36" fill="#4b5563" font-family="system-ui, sans-serif" font-size="14">First visit blocking modal, no tracking until consent.</text>

      <a href="#FR-001"><rect x="44" y="46" width="54" height="22" rx="4" fill="#2563eb"/><text x="71" y="62" fill="#fff" font-family="system-ui, sans-serif" font-size="11" text-anchor="middle">FR-001</text></a>
      <a href="#FR-003"><rect x="104" y="46" width="54" height="22" rx="4" fill="#2563eb"/><text x="131" y="62" fill="#fff" font-family="system-ui, sans-serif" font-size="11" text-anchor="middle">FR-003</text></a>
      <a href="#SC-001"><rect x="164" y="46" width="54" height="22" rx="4" fill="#ea580c"/><text x="191" y="62" fill="#fff" font-family="system-ui, sans-serif" font-size="11" text-anchor="middle">SC-001</text></a>
      <a href="#SC-002"><rect x="224" y="46" width="54" height="22" rx="4" fill="#ea580c"/><text x="251" y="62" fill="#fff" font-family="system-ui, sans-serif" font-size="11" text-anchor="middle">SC-002</text></a>
    </g>

    <!-- Annotation 2: Three Equal Options -->
    <g transform="translate(320, 20)">
      <circle cx="16" cy="16" r="16" fill="#dc2626"/>
      <text x="16" y="21" fill="#fff" font-size="16" font-weight="bold" text-anchor="middle">2</text>

      <text x="44" y="16" fill="#374151" font-family="system-ui, sans-serif" font-size="16" font-weight="bold">Three Equal Options</text>
      <text x="44" y="36" fill="#4b5563" font-family="system-ui, sans-serif" font-size="14">Accept/Reject/Manage - no dark patterns.</text>

      <a href="#FR-002"><rect x="44" y="46" width="54" height="22" rx="4" fill="#2563eb"/><text x="71" y="62" fill="#fff" font-family="system-ui, sans-serif" font-size="11" text-anchor="middle">FR-002</text></a>
      <a href="#FR-004"><rect x="104" y="46" width="54" height="22" rx="4" fill="#2563eb"/><text x="131" y="62" fill="#fff" font-family="system-ui, sans-serif" font-size="11" text-anchor="middle">FR-004</text></a>
    </g>

    <!-- Annotation 3: Category Toggles -->
    <g transform="translate(600, 20)">
      <circle cx="16" cy="16" r="16" fill="#dc2626"/>
      <text x="16" y="21" fill="#fff" font-size="16" font-weight="bold" text-anchor="middle">3</text>

      <text x="44" y="16" fill="#374151" font-family="system-ui, sans-serif" font-size="16" font-weight="bold">Category Toggles</text>
      <text x="44" y="36" fill="#4b5563" font-family="system-ui, sans-serif" font-size="14">Necessary (locked), Functional, Analytics, Marketing.</text>

      <a href="#FR-005"><rect x="44" y="46" width="54" height="22" rx="4" fill="#2563eb"/><text x="71" y="62" fill="#fff" font-family="system-ui, sans-serif" font-size="11" text-anchor="middle">FR-005</text></a>
      <a href="#FR-006"><rect x="104" y="46" width="54" height="22" rx="4" fill="#2563eb"/><text x="131" y="62" fill="#fff" font-family="system-ui, sans-serif" font-size="11" text-anchor="middle">FR-006</text></a>
      <a href="#FR-007"><rect x="164" y="46" width="54" height="22" rx="4" fill="#2563eb"/><text x="191" y="62" fill="#fff" font-family="system-ui, sans-serif" font-size="11" text-anchor="middle">FR-007</text></a>
      <a href="#FR-008"><rect x="224" y="46" width="54" height="22" rx="4" fill="#2563eb"/><text x="251" y="62" fill="#fff" font-family="system-ui, sans-serif" font-size="11" text-anchor="middle">FR-008</text></a>
    </g>

    <!-- Annotation 4: Privacy Settings -->
    <g transform="translate(940, 20)">
      <circle cx="16" cy="16" r="16" fill="#dc2626"/>
      <text x="16" y="21" fill="#fff" font-size="16" font-weight="bold" text-anchor="middle">4</text>

      <text x="44" y="16" fill="#374151" font-family="system-ui, sans-serif" font-size="16" font-weight="bold">Privacy Settings</text>
      <text x="44" y="36" fill="#4b5563" font-family="system-ui, sans-serif" font-size="14">Footer link, accessible within 2 clicks.</text>

      <a href="#FR-010"><rect x="44" y="46" width="54" height="22" rx="4" fill="#2563eb"/><text x="71" y="62" fill="#fff" font-family="system-ui, sans-serif" font-size="11" text-anchor="middle">FR-010</text></a>
      <a href="#FR-011"><rect x="104" y="46" width="54" height="22" rx="4" fill="#2563eb"/><text x="131" y="62" fill="#fff" font-family="system-ui, sans-serif" font-size="11" text-anchor="middle">FR-011</text></a>
      <a href="#SC-004"><rect x="164" y="46" width="54" height="22" rx="4" fill="#ea580c"/><text x="191" y="62" fill="#fff" font-family="system-ui, sans-serif" font-size="11" text-anchor="middle">SC-004</text></a>
    </g>

    <!-- Row 2: Cross-cutting concerns -->

    <!-- Annotation 5: Accessibility -->
    <g transform="translate(20, 95)">
      <text x="0" y="16" fill="#374151" font-family="system-ui, sans-serif" font-size="16" font-weight="bold">Accessibility</text>
      <text x="0" y="36" fill="#4b5563" font-family="system-ui, sans-serif" font-size="14">Keyboard nav, screen reader, focus trap.</text>

      <a href="#FR-022"><rect x="0" y="46" width="54" height="22" rx="4" fill="#2563eb"/><text x="27" y="62" fill="#fff" font-family="system-ui, sans-serif" font-size="11" text-anchor="middle">FR-022</text></a>
      <a href="#FR-023"><rect x="60" y="46" width="54" height="22" rx="4" fill="#2563eb"/><text x="87" y="62" fill="#fff" font-family="system-ui, sans-serif" font-size="11" text-anchor="middle">FR-023</text></a>
      <a href="#FR-024"><rect x="120" y="46" width="54" height="22" rx="4" fill="#2563eb"/><text x="147" y="62" fill="#fff" font-family="system-ui, sans-serif" font-size="11" text-anchor="middle">FR-024</text></a>
      <a href="#SC-006"><rect x="180" y="46" width="54" height="22" rx="4" fill="#ea580c"/><text x="207" y="62" fill="#fff" font-family="system-ui, sans-serif" font-size="11" text-anchor="middle">SC-006</text></a>
    </g>

    <!-- Annotation 6: Preference Persistence -->
    <g transform="translate(300, 95)">
      <text x="0" y="16" fill="#374151" font-family="system-ui, sans-serif" font-size="16" font-weight="bold">Preference Persistence</text>
      <text x="0" y="36" fill="#4b5563" font-family="system-ui, sans-serif" font-size="14">Saved across sessions, immediate effect.</text>

      <a href="#FR-009"><rect x="0" y="46" width="54" height="22" rx="4" fill="#2563eb"/><text x="27" y="62" fill="#fff" font-family="system-ui, sans-serif" font-size="11" text-anchor="middle">FR-009</text></a>
      <a href="#FR-012"><rect x="60" y="46" width="54" height="22" rx="4" fill="#2563eb"/><text x="87" y="62" fill="#fff" font-family="system-ui, sans-serif" font-size="11" text-anchor="middle">FR-012</text></a>
      <a href="#SC-003"><rect x="120" y="46" width="54" height="22" rx="4" fill="#ea580c"/><text x="147" y="62" fill="#fff" font-family="system-ui, sans-serif" font-size="11" text-anchor="middle">SC-003</text></a>
    </g>

    <!-- Annotation 7: Consent Versioning -->
    <g transform="translate(580, 95)">
      <text x="0" y="16" fill="#374151" font-family="system-ui, sans-serif" font-size="16" font-weight="bold">Consent Versioning</text>
      <text x="0" y="36" fill="#4b5563" font-family="system-ui, sans-serif" font-size="14">Version tracking, re-prompt on changes, audit timestamps.</text>

      <a href="#FR-013"><rect x="0" y="46" width="54" height="22" rx="4" fill="#2563eb"/><text x="27" y="62" fill="#fff" font-family="system-ui, sans-serif" font-size="11" text-anchor="middle">FR-013</text></a>
      <a href="#FR-014"><rect x="60" y="46" width="54" height="22" rx="4" fill="#2563eb"/><text x="87" y="62" fill="#fff" font-family="system-ui, sans-serif" font-size="11" text-anchor="middle">FR-014</text></a>
      <a href="#FR-015"><rect x="120" y="46" width="54" height="22" rx="4" fill="#2563eb"/><text x="147" y="62" fill="#fff" font-family="system-ui, sans-serif" font-size="11" text-anchor="middle">FR-015</text></a>
      <a href="#SC-008"><rect x="180" y="46" width="54" height="22" rx="4" fill="#ea580c"/><text x="207" y="62" fill="#fff" font-family="system-ui, sans-serif" font-size="11" text-anchor="middle">SC-008</text></a>
    </g>

    <!-- Annotation 8: Data Rights and Integration -->
    <g transform="translate(920, 95)">
      <text x="0" y="16" fill="#374151" font-family="system-ui, sans-serif" font-size="16" font-weight="bold">Data Rights and Integration</text>
      <text x="0" y="36" fill="#4b5563" font-family="system-ui, sans-serif" font-size="14">Export, deletion, conditional loading, third-party consent.</text>

      <a href="#FR-016"><rect x="0" y="46" width="54" height="22" rx="4" fill="#2563eb"/><text x="27" y="62" fill="#fff" font-family="system-ui, sans-serif" font-size="11" text-anchor="middle">FR-016</text></a>
      <a href="#FR-017"><rect x="60" y="46" width="54" height="22" rx="4" fill="#2563eb"/><text x="87" y="62" fill="#fff" font-family="system-ui, sans-serif" font-size="11" text-anchor="middle">FR-017</text></a>
      <a href="#FR-018"><rect x="120" y="46" width="54" height="22" rx="4" fill="#2563eb"/><text x="147" y="62" fill="#fff" font-family="system-ui, sans-serif" font-size="11" text-anchor="middle">FR-018</text></a>
      <a href="#FR-019"><rect x="180" y="46" width="54" height="22" rx="4" fill="#2563eb"/><text x="207" y="62" fill="#fff" font-family="system-ui, sans-serif" font-size="11" text-anchor="middle">FR-019</text></a>
      <a href="#FR-020"><rect x="240" y="46" width="54" height="22" rx="4" fill="#2563eb"/><text x="267" y="62" fill="#fff" font-family="system-ui, sans-serif" font-size="11" text-anchor="middle">FR-020</text></a>
      <a href="#FR-021"><rect x="300" y="46" width="54" height="22" rx="4" fill="#2563eb"/><text x="327" y="62" fill="#fff" font-family="system-ui, sans-serif" font-size="11" text-anchor="middle">FR-021</text></a>
      <a href="#SC-005"><rect x="360" y="46" width="54" height="22" rx="4" fill="#ea580c"/><text x="387" y="62" fill="#fff" font-family="system-ui, sans-serif" font-size="11" text-anchor="middle">SC-005</text></a>
      <a href="#SC-007"><rect x="420" y="46" width="54" height="22" rx="4" fill="#ea580c"/><text x="447" y="62" fill="#fff" font-family="system-ui, sans-serif" font-size="11" text-anchor="middle">SC-007</text></a>
    </g>

    <!-- Legend -->
    <g transform="translate(20, 175)">
      <text x="0" y="18" fill="#6b7280" font-family="system-ui, sans-serif" font-size="14">Legend:</text>
      <rect x="70" y="4" width="40" height="22" rx="4" fill="#2563eb"/>
      <text x="90" y="20" fill="#fff" font-family="system-ui, sans-serif" font-size="14" text-anchor="middle">FR</text>
      <text x="120" y="20" fill="#6b7280" font-family="system-ui, sans-serif" font-size="14">= Functional Requirement</text>

      <rect x="320" y="4" width="40" height="22" rx="4" fill="#ea580c"/>
      <text x="340" y="20" fill="#fff" font-family="system-ui, sans-serif" font-size="14" text-anchor="middle">SC</text>
      <text x="370" y="20" fill="#6b7280" font-family="system-ui, sans-serif" font-size="14">= Success Criteria</text>

      <rect x="560" y="4" width="40" height="22" rx="4" fill="#0891b2"/>
      <text x="580" y="20" fill="#fff" font-family="system-ui, sans-serif" font-size="14" text-anchor="middle">US</text>
      <text x="610" y="20" fill="#6b7280" font-family="system-ui, sans-serif" font-size="14">= User Story</text>

      <text x="780" y="20" fill="#6b7280" font-family="system-ui, sans-serif" font-size="14">Coverage: 24/24 FRs, 8/8 SCs</text>
    </g>
  </g>

  <!-- Footer Signature -->
  <text x="40" y="1065" fill="#4b5563" font-family="system-ui, sans-serif" font-size="14">
    002:01 | Cookie Consent - Consent Modal Flow | ScriptHammer
  </text>
</svg>
