<svg xmlns="http://www.w3.org/2000/svg" viewBox="0 0 1400 800" width="1400" height="800">
  <!-- ============================================================
       GENERATED BY: /wireframe skill
       SOURCE: features/foundation/002-cookie-consent/spec.md
       DATE: 2026-01-01
       THEME: Light (UX/Frontend) - v3 True Parchment
       REGENERATED WITH FEEDBACK: features/foundation/002-cookie-consent/WIREFRAME_ISSUES.md
       DO NOT MANUALLY EDIT - Regenerate with /wireframe command
       ============================================================ -->
  <defs>
    <linearGradient id="bgGrad" x1="0%" y1="0%" x2="100%" y2="100%">
      <stop offset="0%" style="stop-color:#c7ddf5"/>
      <stop offset="100%" style="stop-color:#b8d4f0"/>
    </linearGradient>
    <linearGradient id="accentGrad" x1="0%" y1="0%" x2="100%" y2="0%">
      <stop offset="0%" style="stop-color:#8b5cf6"/>
      <stop offset="100%" style="stop-color:#d946ef"/>
    </linearGradient>
    <style>
      .heading-lg { fill: #1a1a2e; font-family: system-ui, sans-serif; font-size: 24px; font-weight: 800; }
      .heading { fill: #1a1a2e; font-family: system-ui, sans-serif; font-size: 16px; font-weight: 700; }
      .heading-sm { fill: #1a1a2e; font-family: system-ui, sans-serif; font-size: 14px; font-weight: 700; }
      .text-md { fill: #2d3748; font-family: system-ui, sans-serif; font-size: 14px; font-weight: 500; }
      .text-sm { fill: #374151; font-family: system-ui, sans-serif; font-size: 12px; font-weight: 500; }
      .text-muted { fill: #374151; font-family: system-ui, sans-serif; font-size: 11px; font-weight: 500; }
      .annotation { fill: #6d28d9; font-family: monospace; font-size: 12px; font-weight: 600; }
      .label-desktop { fill: #8b5cf6; font-family: monospace; font-size: 13px; font-weight: bold; }
      .label-mobile { fill: #d946ef; font-family: monospace; font-size: 13px; font-weight: bold; }
    </style>
  </defs>

  <!-- Background -->
  <rect width="1400" height="800" fill="url(#bgGrad)"/>

  <!-- Dot grid pattern -->
  <g opacity="0.35">
    <pattern id="dots" width="30" height="30" patternUnits="userSpaceOnUse">
      <circle cx="15" cy="15" r="1" fill="#6b8cba"/>
    </pattern>
    <rect width="1400" height="800" fill="url(#dots)"/>
  </g>

  <!-- Accent line top -->
  <rect x="0" y="0" width="1400" height="3" fill="url(#accentGrad)"/>

  <!-- Title -->
  <text x="700" y="28" text-anchor="middle" font-family="system-ui, sans-serif" font-size="14" font-weight="600" fill="#374151" letter-spacing="1">PRIVACY SETTINGS PAGE - PREFERENCE MANAGEMENT</text>

  <!-- DESKTOP SECTION -->
  <text x="40" y="52" class="label-desktop">DESKTOP</text>

  <g id="desktop-view">
    <!-- Sidebar -->
    <rect x="40" y="60" width="200" height="680" rx="8" fill="#e8d4b8" stroke="#b8a080" stroke-width="1"/>

    <!-- Logo -->
    <rect x="55" y="75" width="170" height="40" rx="6" fill="#dcc8a8"/>
    <text x="140" y="100" text-anchor="middle" class="heading-sm">ScriptHammer</text>

    <!-- Nav items - normalized 35px spacing -->
    <text x="70" y="145" class="text-sm">Dashboard</text>
    <text x="70" y="180" class="text-sm">Profile</text>
    <text x="70" y="215" class="text-sm">Settings</text>

    <rect x="55" y="240" width="170" height="44" rx="6" fill="#8b5cf6"/>
    <text x="140" y="268" text-anchor="middle" fill="#fff" font-family="system-ui" font-size="13" font-weight="600">Privacy</text>

    <text x="70" y="315" class="text-sm">Notifications</text>
    <text x="70" y="350" class="text-sm">Account</text>

    <!-- Footer link annotation -->
    <rect x="55" y="680" width="170" height="45" rx="6" fill="#dcc8a8"/>
    <text x="140" y="700" text-anchor="middle" class="text-muted">Privacy Settings</text>
    <text x="140" y="715" text-anchor="middle" class="text-muted">(Footer link FR-011)</text>

    <!-- Main Content Area -->
    <rect x="250" y="60" width="440" height="680" rx="8" fill="#e8d4b8" stroke="#b8a080" stroke-width="1"/>

    <!-- Page Header -->
    <text x="270" y="95" class="heading-lg">Privacy Settings</text>
    <text x="270" y="120" class="text-md">Manage your cookie preferences and data rights</text>

    <!-- Current Consent Status -->
    <text x="270" y="155" class="heading-sm">Current Consent Status</text>

    <rect x="270" y="170" width="400" height="130" rx="6" fill="#f5f0e6" stroke="#b8a080"/>

    <!-- Status Table Header -->
    <rect x="270" y="170" width="400" height="28" rx="6" fill="#dcc8a8"/>
    <text x="290" y="189" class="text-muted">CATEGORY</text>
    <text x="480" y="189" class="text-muted">STATUS</text>
    <text x="580" y="189" class="text-muted">ACTION</text>

    <!-- Necessary -->
    <text x="290" y="220" class="text-sm">Necessary</text>
    <rect x="470" y="205" width="60" height="22" rx="4" fill="#22c55e"/>
    <text x="500" y="220" text-anchor="middle" fill="#fff" font-size="10">Enabled</text>
    <text x="590" y="220" class="text-muted">Required</text>

    <!-- Functional -->
    <text x="290" y="250" class="text-sm">Functional</text>
    <rect x="470" y="235" width="60" height="22" rx="4" fill="#22c55e"/>
    <text x="500" y="250" text-anchor="middle" fill="#fff" font-size="10">Enabled</text>
    <rect x="565" y="238" width="40" height="20" rx="10" fill="#22c55e"/>
    <circle cx="595" cy="248" r="7" fill="#fff"/>

    <!-- Analytics -->
    <text x="290" y="280" class="text-sm">Analytics</text>
    <rect x="470" y="265" width="60" height="22" rx="4" fill="#ef4444"/>
    <text x="500" y="280" text-anchor="middle" fill="#fff" font-size="10">Disabled</text>
    <rect x="565" y="268" width="40" height="20" rx="10" fill="#dcc8a8" stroke="#b8a080"/>
    <circle cx="575" cy="278" r="7" fill="#fff"/>

    <!-- Marketing -->
    <text x="290" y="310" class="text-sm">Marketing</text>
    <rect x="470" y="295" width="60" height="22" rx="4" fill="#ef4444"/>
    <text x="500" y="310" text-anchor="middle" fill="#fff" font-size="10">Disabled</text>
    <rect x="565" y="298" width="40" height="20" rx="10" fill="#dcc8a8" stroke="#b8a080"/>
    <circle cx="575" cy="308" r="7" fill="#fff"/>

    <!-- Save Button - 44px -->
    <rect x="510" y="340" width="140" height="44" rx="6" fill="#8b5cf6"/>
    <text x="580" y="368" text-anchor="middle" fill="#fff" font-size="12" font-weight="600">Save Changes</text>

    <!-- Consent History -->
    <text x="270" y="415" class="heading-sm">Consent History</text>

    <rect x="270" y="430" width="400" height="70" rx="6" fill="#f5f0e6" stroke="#b8a080"/>
    <text x="290" y="455" class="text-sm">Last updated: January 1, 2026 at 10:30 AM</text>
    <text x="290" y="475" class="text-sm">Consent version: 1.0.0</text>
    <text x="290" y="492" class="text-muted">You will be re-prompted if the privacy policy changes.</text>

    <!-- GDPR Data Rights Section -->
    <text x="270" y="530" class="heading-sm">Your Data Rights (GDPR)</text>

    <!-- Data Export - 44px button height -->
    <rect x="270" y="545" width="195" height="100" rx="6" fill="#f5f0e6" stroke="#b8a080"/>
    <text x="290" y="570" class="heading-sm">Data Export</text>
    <text x="290" y="588" class="text-muted">Download all your data</text>
    <rect x="285" y="598" width="165" height="44" rx="4" fill="#e8d4b8" stroke="#b8a080"/>
    <text x="367" y="626" text-anchor="middle" class="text-sm">Export Data</text>

    <!-- Data Deletion - 44px button height -->
    <rect x="475" y="545" width="195" height="100" rx="6" fill="#f5f0e6" stroke="#ef4444"/>
    <text x="495" y="570" class="heading-sm">Data Deletion</text>
    <text x="495" y="588" class="text-muted">Request data removal</text>
    <rect x="490" y="598" width="165" height="44" rx="4" fill="#fee2e2" stroke="#ef4444"/>
    <text x="572" y="626" text-anchor="middle" class="text-sm" fill="#ef4444">Delete Data</text>

    <!-- Info box -->
    <rect x="270" y="660" width="400" height="65" rx="6" fill="#dcc8a8" stroke="#b8a080"/>
    <text x="290" y="682" class="text-sm">Data export includes: consent history, preferences,</text>
    <text x="290" y="700" class="text-sm">and any locally stored information. Completes in &lt;5s.</text>
    <text x="290" y="717" class="text-muted">FR-016, FR-017, FR-018 | SC-005</text>

    <!-- Detail Panel -->
    <rect x="700" y="60" width="240" height="680" rx="8" fill="#e8d4b8" stroke="#b8a080" stroke-width="1"/>

    <text x="720" y="95" class="heading-sm">Quick Actions</text>

    <!-- Reset to Defaults - 44px -->
    <rect x="715" y="110" width="210" height="44" rx="6" fill="#f5f0e6" stroke="#b8a080"/>
    <text x="820" y="138" text-anchor="middle" class="text-sm">Reset to Defaults</text>

    <!-- Accept All - 44px -->
    <rect x="715" y="165" width="210" height="44" rx="6" fill="#f5f0e6" stroke="#b8a080"/>
    <text x="820" y="193" text-anchor="middle" class="text-sm">Accept All Cookies</text>

    <!-- Reject All - 44px -->
    <rect x="715" y="220" width="210" height="44" rx="6" fill="#f5f0e6" stroke="#b8a080"/>
    <text x="820" y="248" text-anchor="middle" class="text-sm">Reject All Optional</text>

    <!-- Divider -->
    <line x1="715" y1="285" x2="925" y2="285" stroke="#b8a080" stroke-width="1"/>

    <!-- FR Annotations for Consent History -->
    <text x="720" y="315" class="heading-sm">Consent Management</text>

    <rect x="715" y="330" width="210" height="80" rx="6" fill="#f5f0e6" stroke="#8b5cf6"/>
    <text x="820" y="355" text-anchor="middle" class="annotation">Persistence</text>
    <text x="820" y="375" text-anchor="middle" class="text-muted">FR-009: Cross-session</text>
    <text x="820" y="392" text-anchor="middle" class="text-muted">FR-012: Immediate effect</text>
    <text x="820" y="406" text-anchor="middle" class="text-muted">FR-013-015: Versioning</text>

    <!-- Legal Links -->
    <text x="720" y="445" class="heading-sm">Legal</text>

    <text x="720" y="475" class="annotation">Privacy Policy</text>
    <text x="720" y="500" class="annotation">Cookie Policy</text>
    <text x="720" y="525" class="annotation">Terms of Service</text>

    <!-- Divider -->
    <line x1="715" y1="550" x2="925" y2="550" stroke="#b8a080" stroke-width="1"/>

    <!-- About Cookies -->
    <text x="720" y="580" class="heading-sm">About Cookies</text>

    <text x="720" y="610" class="text-sm">Necessary: Required for</text>
    <text x="720" y="625" class="text-sm">the site to function.</text>

    <text x="720" y="655" class="text-sm">Functional: Remember</text>
    <text x="720" y="670" class="text-sm">your preferences.</text>

    <text x="720" y="700" class="text-sm">Questions? Contact our</text>
    <text x="720" y="715" class="text-sm">Data Protection Officer</text>
  </g>

  <!-- MOBILE SECTION -->
  <text x="980" y="52" class="label-mobile">MOBILE</text>

  <g id="mobile-view" transform="translate(980, 60)">
    <!-- Phone frame -->
    <rect x="0" y="0" width="360" height="700" rx="24" fill="#c8b898" stroke="#a08860" stroke-width="2"/>
    <rect x="10" y="10" width="340" height="680" rx="16" fill="#e8d4b8"/>

    <!-- Status bar -->
    <rect x="10" y="10" width="340" height="28" rx="16" fill="#dcc8a8"/>
    <text x="30" y="28" class="text-sm">9:41</text>
    <text x="310" y="28" text-anchor="end" class="text-sm">100%</text>

    <!-- Header -->
    <rect x="10" y="38" width="340" height="50" fill="#8b5cf6"/>
    <text x="30" y="58" fill="rgba(255,255,255,0.8)" font-size="16">←</text>
    <text x="60" y="68" fill="#fff" font-family="system-ui" font-size="16" font-weight="700">Privacy Settings</text>

    <!-- Content -->
    <text x="25" y="110" class="heading-sm">Cookie Preferences</text>

    <!-- Necessary -->
    <rect x="25" y="125" width="310" height="50" rx="6" fill="#f5f0e6" stroke="#22c55e"/>
    <text x="40" y="147" class="text-sm" font-weight="600">Necessary</text>
    <text x="40" y="165" class="text-muted">Required</text>
    <rect x="275" y="138" width="44" height="24" rx="12" fill="#22c55e"/>
    <circle cx="307" cy="150" r="9" fill="#fff"/>

    <!-- Functional -->
    <rect x="25" y="185" width="310" height="50" rx="6" fill="#f5f0e6" stroke="#b8a080"/>
    <text x="40" y="207" class="text-sm" font-weight="600">Functional</text>
    <text x="40" y="225" class="text-muted">Preferences</text>
    <rect x="275" y="198" width="44" height="24" rx="12" fill="#22c55e"/>
    <circle cx="307" cy="210" r="9" fill="#fff"/>

    <!-- Analytics -->
    <rect x="25" y="245" width="310" height="50" rx="6" fill="#f5f0e6" stroke="#b8a080"/>
    <text x="40" y="267" class="text-sm" font-weight="600">Analytics</text>
    <text x="40" y="285" class="text-muted">Usage data</text>
    <rect x="275" y="258" width="44" height="24" rx="12" fill="#dcc8a8" stroke="#b8a080"/>
    <circle cx="287" cy="270" r="9" fill="#fff"/>

    <!-- Marketing -->
    <rect x="25" y="305" width="310" height="50" rx="6" fill="#f5f0e6" stroke="#b8a080"/>
    <text x="40" y="327" class="text-sm" font-weight="600">Marketing</text>
    <text x="40" y="345" class="text-muted">Advertising</text>
    <rect x="275" y="318" width="44" height="24" rx="12" fill="#dcc8a8" stroke="#b8a080"/>
    <circle cx="287" cy="330" r="9" fill="#fff"/>

    <!-- Save Button - 44px -->
    <rect x="25" y="370" width="310" height="44" rx="6" fill="#8b5cf6"/>
    <text x="180" y="398" text-anchor="middle" fill="#fff" font-size="14" font-weight="600">Save Preferences</text>

    <!-- Divider -->
    <line x1="25" y1="430" x2="335" y2="430" stroke="#b8a080" stroke-width="1"/>

    <!-- Data Rights -->
    <text x="25" y="455" class="heading-sm">Your Data Rights</text>

    <!-- Export - 44px button -->
    <rect x="25" y="470" width="150" height="80" rx="6" fill="#f5f0e6" stroke="#b8a080"/>
    <text x="100" y="495" text-anchor="middle" class="text-sm" font-weight="600">Export</text>
    <rect x="35" y="505" width="130" height="44" rx="4" fill="#e8d4b8" stroke="#b8a080"/>
    <text x="100" y="533" text-anchor="middle" class="text-muted">Download</text>

    <!-- Delete - 44px button -->
    <rect x="185" y="470" width="150" height="80" rx="6" fill="#f5f0e6" stroke="#ef4444"/>
    <text x="260" y="495" text-anchor="middle" class="text-sm" font-weight="600">Delete</text>
    <rect x="195" y="505" width="130" height="44" rx="4" fill="#fee2e2" stroke="#ef4444"/>
    <text x="260" y="533" text-anchor="middle" class="text-muted" fill="#ef4444">Request</text>

    <!-- Consent Info -->
    <rect x="25" y="565" width="310" height="55" rx="6" fill="#dcc8a8"/>
    <text x="40" y="588" class="text-muted">Consent v1.0.0 • Updated Jan 1, 2026</text>
    <text x="40" y="608" class="text-muted">FR-009, FR-012-015 | SC-004</text>

    <!-- Footer Links -->
    <text x="180" y="645" text-anchor="middle" class="annotation">Privacy Policy</text>
    <text x="180" y="665" text-anchor="middle" class="text-muted">Cookie Policy • Terms</text>
  </g>

  <!-- Footer -->
  <text x="700" y="780" text-anchor="middle" class="text-muted">Privacy Settings Page • Feature 002 • ScriptHammer</text>
</svg>
