<svg xmlns="http://www.w3.org/2000/svg" viewBox="0 0 1400 800" width="1400" height="800">
  <!-- ============================================================
       GENERATED BY: /wireframe skill
       SOURCE: features/foundation/002-cookie-consent/spec.md
       DATE: 2026-01-04
       THEME: Light (UX/Frontend) - v3 True Parchment
       REGENERATED WITH FEEDBACK: 02-privacy-settings.issues.md (Pass 3)
       DO NOT MANUALLY EDIT - Regenerate with /wireframe command
       ============================================================ -->
  <defs>
    <linearGradient id="bgGrad" x1="0%" y1="0%" x2="100%" y2="100%">
      <stop offset="0%" style="stop-color:#c7ddf5"/>
      <stop offset="100%" style="stop-color:#b8d4f0"/>
    </linearGradient>
    <linearGradient id="accentGrad" x1="0%" y1="0%" x2="100%" y2="0%">
      <stop offset="0%" style="stop-color:#8b5cf6"/>
      <stop offset="100%" style="stop-color:#d946ef"/>
    </linearGradient>
    <style>
      .heading-lg { fill: #1a1a2e; font-family: system-ui, sans-serif; font-size: 28px; font-weight: 800; }
      .heading { fill: #1a1a2e; font-family: system-ui, sans-serif; font-size: 20px; font-weight: 700; }
      .text-md { fill: #2d3748; font-family: system-ui, sans-serif; font-size: 16px; font-weight: 500; }
      .text-sm { fill: #374151; font-family: system-ui, sans-serif; font-size: 14px; font-weight: 500; }
      .text-muted { fill: #4b5563; font-family: system-ui, sans-serif; font-size: 13px; font-weight: 500; }
      .label-desktop { fill: #8b5cf6; font-family: system-ui, sans-serif; font-size: 15px; font-weight: bold; }
      .label-mobile { fill: #d946ef; font-family: system-ui, sans-serif; font-size: 15px; font-weight: bold; }
      .legend-header { fill: #6d28d9; font-family: system-ui, sans-serif; font-size: 15px; font-weight: bold; }
      .legend-text { fill: #374151; font-family: system-ui, sans-serif; font-size: 13px; }
      .tag-base { font-family: system-ui, sans-serif; font-size: 14px; font-weight: bold; }
      .fr-tag { fill: #2563eb; }
      .sc-tag { fill: #ea580c; }
      .btn-primary { fill: #8b5cf6; }
      .btn-secondary { fill: #e8d4b8; stroke: #8b5cf6; stroke-width: 2; }
      .btn-danger { fill: #ef4444; }
      .btn-text { fill: #ffffff; font-family: system-ui, sans-serif; font-size: 14px; font-weight: 600; }
      .btn-text-dark { fill: #1a1a2e; font-family: system-ui, sans-serif; font-size: 14px; font-weight: 600; }
      .toggle-on { fill: #22c55e; }
      .toggle-off { fill: #64748b; }
      .toggle-disabled { fill: #9ca3af; }
      .toggle-thumb { fill: #ffffff; }
      .status-enabled { fill: #22c55e; }
      .status-disabled { fill: #94a3b8; }
    </style>
  </defs>

  <!-- Background -->
  <rect width="1400" height="800" fill="url(#bgGrad)"/>

  <!-- Dot grid pattern -->
  <g opacity="0.35">
    <pattern id="dots" width="30" height="30" patternUnits="userSpaceOnUse">
      <circle cx="15" cy="15" r="1" fill="#6b8cba"/>
    </pattern>
    <rect width="1400" height="800" fill="url(#dots)"/>
  </g>

  <!-- Accent line top -->
  <rect x="0" y="0" width="1400" height="3" fill="url(#accentGrad)"/>

  <!-- Title -->
  <text x="700" y="28" text-anchor="middle" font-family="system-ui, sans-serif" font-size="18" font-weight="700" fill="#4b5563" letter-spacing="1">PRIVACY SETTINGS PAGE</text>

  <!-- DESKTOP SECTION -->
  <text x="40" y="52" class="label-desktop">DESKTOP</text>
  <g id="desktop-view">
    <!-- Page container: y=60, h=615 → ends at y=675, gives 15px gap to legend at y=690 -->
    <rect x="40" y="60" width="900" height="615" rx="8" fill="#e8d4b8" stroke="#b8a080"/>

    <!-- Navigation breadcrumb -->
    <g transform="translate(60, 82)">
      <text class="text-sm" fill="#8b5cf6">Home</text>
      <text x="45" class="text-sm">/</text>
      <text x="55" class="text-sm" fill="#8b5cf6">Settings</text>
      <text x="115" class="text-sm">/</text>
      <text x="125" class="text-sm">Privacy</text>
    </g>

    <!-- SC-004 annotation (top right) -->
    <g transform="translate(755, 68)">
      <rect width="165" height="32" rx="4" fill="#dcc8a8" stroke="#ea580c" stroke-width="1"/>
      <text x="82" y="21" text-anchor="middle" class="tag-base sc-tag">SC-004: 2 clicks</text>
    </g>

    <!-- Page header -->
    <text x="60" y="125" class="heading-lg">Privacy Settings</text>
    <text x="60" y="148" class="text-md">Manage your cookie preferences and exercise your data rights.</text>

    <!-- Cookie Preferences Section: y=165, h=185 -->
    <g transform="translate(60, 165)">
      <rect x="0" y="0" width="860" height="185" rx="8" fill="#f5f0e6" stroke="#b8a080"/>

      <!-- Section header -->
      <text x="20" y="26" class="heading">Your Cookie Preferences</text>

      <!-- Consent metadata box (top right) -->
      <g transform="translate(600, 6)">
        <rect x="0" y="0" width="240" height="48" rx="6" fill="#dcc8a8"/>
        <text x="120" y="19" text-anchor="middle" class="text-sm">Consent Version: v1.0.0</text>
        <text x="120" y="38" text-anchor="middle" class="text-muted">Last updated: Jan 4, 2026</text>
      </g>

      <!-- Category toggles 2x2 grid -->
      <!-- Row 1: y=48 -->
      <g transform="translate(20, 48)">
        <!-- Necessary -->
        <rect x="0" y="0" width="400" height="58" rx="6" fill="#e8d4b8" stroke="#b8a080"/>
        <text x="15" y="22" class="text-sm" font-weight="700">Necessary Cookies</text>
        <text x="15" y="42" class="text-muted">Required for site function</text>
        <g transform="translate(320, 15)">
          <rect x="0" y="0" width="60" height="28" rx="14" class="toggle-disabled"/>
          <circle cx="45" cy="14" r="11" class="toggle-thumb"/>
        </g>
        <text x="335" y="4" class="text-muted" font-size="11">Always On</text>

        <!-- Functional -->
        <rect x="420" y="0" width="400" height="58" rx="6" fill="#f5f0e6" stroke="#b8a080"/>
        <text x="435" y="22" class="text-sm" font-weight="700">Functional Cookies</text>
        <text x="435" y="42" class="text-muted">Personalization features</text>
        <g transform="translate(740, 15)">
          <rect x="-6" y="-10" width="72" height="48" rx="6" fill="transparent"/>
          <rect x="0" y="0" width="60" height="28" rx="14" class="toggle-on"/>
          <circle cx="45" cy="14" r="11" class="toggle-thumb"/>
        </g>
      </g>

      <!-- Row 2: y=116 (48 + 58 + 10 gap) -->
      <g transform="translate(20, 116)">
        <!-- Analytics -->
        <rect x="0" y="0" width="400" height="58" rx="6" fill="#f5f0e6" stroke="#b8a080"/>
        <text x="15" y="22" class="text-sm" font-weight="700">Analytics Cookies</text>
        <text x="15" y="42" class="text-muted">Usage and performance data</text>
        <g transform="translate(320, 15)">
          <rect x="-6" y="-10" width="72" height="48" rx="6" fill="transparent"/>
          <rect x="0" y="0" width="60" height="28" rx="14" class="toggle-off"/>
          <circle cx="15" cy="14" r="11" class="toggle-thumb"/>
        </g>

        <!-- Marketing -->
        <rect x="420" y="0" width="400" height="58" rx="6" fill="#f5f0e6" stroke="#b8a080"/>
        <text x="435" y="22" class="text-sm" font-weight="700">Marketing Cookies</text>
        <text x="435" y="42" class="text-muted">Advertising and campaigns</text>
        <g transform="translate(740, 15)">
          <rect x="-6" y="-10" width="72" height="48" rx="6" fill="transparent"/>
          <rect x="0" y="0" width="60" height="28" rx="14" class="toggle-off"/>
          <circle cx="15" cy="14" r="11" class="toggle-thumb"/>
        </g>
      </g>
    </g>

    <!-- FR annotations between sections (nudged 3px down off container) -->
    <g transform="translate(60, 363)">
      <text class="tag-base fr-tag">FR-012: Changes take effect immediately</text>
      <text x="350" class="tag-base fr-tag">FR-013, FR-015: Version + timestamp</text>
    </g>

    <!-- Data Rights Section: y=385, h=195 -->
    <g transform="translate(60, 385)">
      <rect x="0" y="0" width="860" height="195" rx="8" fill="#f5f0e6" stroke="#b8a080"/>

      <!-- Section header -->
      <text x="20" y="26" class="heading">Your Data Rights (GDPR)</text>
      <text x="20" y="48" class="text-sm">Exercise your rights under the General Data Protection Regulation.</text>

      <!-- Data Export card: 130px height, button below text -->
      <g transform="translate(20, 65)">
        <rect x="0" y="0" width="400" height="120" rx="6" fill="#e8d4b8" stroke="#b8a080"/>
        <text x="15" y="22" class="text-md" font-weight="700">📥 Export Your Data</text>
        <text x="15" y="44" class="text-sm">Download all data we have stored about you.</text>
        <text x="15" y="64" class="text-muted">Format: JSON file • Completes in &lt;5 seconds</text>
        <!-- Button moved down: y=72, h=44 → ends at 116 < 120 ✓ -->
        <rect x="240" y="72" width="145" height="44" rx="6" class="btn-primary"/>
        <text x="312" y="100" text-anchor="middle" class="btn-text">Export Data</text>
      </g>

      <!-- Data Deletion card: 130px height, button below text -->
      <g transform="translate(440, 65)">
        <rect x="0" y="0" width="400" height="120" rx="6" fill="#fef2f2" stroke="#fca5a5"/>
        <text x="15" y="22" class="text-md" font-weight="700">🗑️ Delete Your Data</text>
        <text x="15" y="44" class="text-sm">Permanently remove all your data.</text>
        <text x="15" y="64" class="text-muted">Warning: This action cannot be undone</text>
        <!-- Button moved down: y=72, h=44 → ends at 116 < 120 ✓ -->
        <rect x="220" y="72" width="165" height="44" rx="6" class="btn-danger"/>
        <text x="302" y="100" text-anchor="middle" class="btn-text">Request Deletion</text>
      </g>
    </g>

    <!-- FR annotations below data rights section (nudged 3px down off container) -->
    <g transform="translate(60, 593)">
      <text class="tag-base fr-tag">FR-016</text>
      <text x="65" class="tag-base sc-tag">SC-005: &lt;5sec</text>
      <text x="200" class="tag-base fr-tag">FR-017: Data deletion</text>
    </g>

    <!-- Back button: y=620, h=44 → ends at 664 < 675 (container end) ✓ -->
    <g transform="translate(720, 620)">
      <rect x="0" y="0" width="180" height="44" rx="6" class="btn-secondary"/>
      <text x="90" y="28" text-anchor="middle" class="btn-text-dark">← Back to App</text>
    </g>
  </g>

  <!-- MOBILE SECTION -->
  <text x="980" y="52" class="label-mobile">MOBILE</text>
  <g id="mobile-view" transform="translate(980, 60)">
    <!-- Phone frame: 360x700 -->
    <rect x="0" y="0" width="360" height="700" rx="24" fill="#c8b898" stroke="#a08860" stroke-width="2"/>
    <!-- Screen area -->
    <rect x="10" y="10" width="340" height="680" rx="16" fill="#e8d4b8"/>
    <!-- Status bar -->
    <rect x="10" y="10" width="340" height="28" rx="16" fill="#dcc8a8"/>
    <text x="30" y="28" class="text-sm">9:41</text>
    <text x="310" y="28" text-anchor="end" class="text-sm">5G 📶</text>

    <!-- Page content -->
    <g transform="translate(20, 48)">
      <!-- Header with back arrow (44px tap target) -->
      <g transform="translate(0, 0)">
        <rect x="0" y="0" width="44" height="44" rx="6" fill="transparent"/>
        <text x="22" y="30" text-anchor="middle" class="text-md" font-size="20">←</text>
      </g>
      <text x="54" y="30" class="heading">Privacy Settings</text>

      <!-- Consent version badge -->
      <rect x="0" y="52" width="320" height="28" rx="6" fill="#dcc8a8"/>
      <text x="160" y="71" text-anchor="middle" class="text-muted">v1.0.0 • Updated Jan 4, 2026</text>

      <!-- Category toggles (stacked) - 48px each -->
      <g transform="translate(0, 90)">
        <!-- Necessary -->
        <rect x="0" y="0" width="320" height="48" rx="6" fill="#dcc8a8" stroke="#b8a080"/>
        <text x="15" y="20" class="text-sm" font-weight="700">Necessary</text>
        <text x="15" y="38" class="text-muted">Always on</text>
        <g transform="translate(255, 10)">
          <rect x="0" y="0" width="48" height="28" rx="14" class="toggle-disabled"/>
          <circle cx="36" cy="14" r="10" class="toggle-thumb"/>
        </g>

        <!-- Functional: y=56 -->
        <rect x="0" y="56" width="320" height="48" rx="6" fill="#f5f0e6" stroke="#b8a080"/>
        <text x="15" y="76" class="text-sm" font-weight="700">Functional</text>
        <text x="15" y="94" class="text-muted">Enabled</text>
        <g transform="translate(255, 66)">
          <rect x="-6" y="-10" width="60" height="48" rx="6" fill="transparent"/>
          <rect x="0" y="0" width="48" height="28" rx="14" class="toggle-on"/>
          <circle cx="36" cy="14" r="10" class="toggle-thumb"/>
        </g>

        <!-- Analytics: y=112 -->
        <rect x="0" y="112" width="320" height="48" rx="6" fill="#f5f0e6" stroke="#b8a080"/>
        <text x="15" y="132" class="text-sm" font-weight="700">Analytics</text>
        <text x="15" y="150" class="text-muted">Disabled</text>
        <g transform="translate(255, 122)">
          <rect x="-6" y="-10" width="60" height="48" rx="6" fill="transparent"/>
          <rect x="0" y="0" width="48" height="28" rx="14" class="toggle-off"/>
          <circle cx="12" cy="14" r="10" class="toggle-thumb"/>
        </g>

        <!-- Marketing: y=168 -->
        <rect x="0" y="168" width="320" height="48" rx="6" fill="#f5f0e6" stroke="#b8a080"/>
        <text x="15" y="188" class="text-sm" font-weight="700">Marketing</text>
        <text x="15" y="206" class="text-muted">Disabled</text>
        <g transform="translate(255, 178)">
          <rect x="-6" y="-10" width="60" height="48" rx="6" fill="transparent"/>
          <rect x="0" y="0" width="48" height="28" rx="14" class="toggle-off"/>
          <circle cx="12" cy="14" r="10" class="toggle-thumb"/>
        </g>
      </g>

      <!-- Data Rights section -->
      <text x="0" y="320" class="text-md" font-weight="700">Your Data Rights</text>

      <!-- Export card: h=70, button inside at right -->
      <rect x="0" y="335" width="320" height="70" rx="6" fill="#f5f0e6" stroke="#b8a080"/>
      <text x="15" y="358" class="text-sm" font-weight="600">📥 Export Data</text>
      <text x="15" y="378" class="text-muted">Download your data (JSON)</text>
      <!-- Button: 44px height, positioned at right side -->
      <rect x="220" y="348" width="85" height="44" rx="6" class="btn-primary"/>
      <text x="262" y="376" text-anchor="middle" class="btn-text" font-size="13">Export</text>

      <!-- Delete card: h=70, button inside at right -->
      <rect x="0" y="415" width="320" height="70" rx="6" fill="#fef2f2" stroke="#fca5a5"/>
      <text x="15" y="438" class="text-sm" font-weight="600">🗑️ Delete Data</text>
      <text x="15" y="458" class="text-muted">Remove all your data</text>
      <!-- Button: 44px height -->
      <rect x="220" y="428" width="85" height="44" rx="6" class="btn-danger"/>
      <text x="262" y="456" text-anchor="middle" class="btn-text" font-size="13">Delete</text>

      <!-- Back button: 44px height -->
      <rect x="0" y="500" width="320" height="44" rx="6" class="btn-secondary"/>
      <text x="160" y="528" text-anchor="middle" class="btn-text-dark">← Back to App</text>

      <!-- Footer link indicator -->
      <g transform="translate(0, 560)">
        <rect x="0" y="0" width="320" height="30" rx="6" fill="#dcc8a8" stroke="#b8a080" stroke-dasharray="4,2"/>
        <text x="160" y="20" text-anchor="middle" class="text-muted">Link in footer: "Privacy Settings"</text>
      </g>
    </g>
  </g>

  <!-- Requirements Legend: y=690, h=75 → ends at 765 < 780 ✓ -->
  <g id="requirements-legend" transform="translate(40, 690)">
    <rect width="900" height="75" rx="6" fill="#dcc8a8" stroke="#b8a080"/>
    <text x="20" y="18" class="legend-header">REQUIREMENTS KEY</text>
    <!-- Row 1: FR codes with adequate spacing -->
    <g transform="translate(20, 38)">
      <text x="0" class="tag-base fr-tag">FR-012:</text>
      <text x="55" class="legend-text">Immediate effect</text>
      <text x="195" class="tag-base fr-tag">FR-013:</text>
      <text x="250" class="legend-text">Version tracking</text>
      <text x="390" class="tag-base fr-tag">FR-015:</text>
      <text x="445" class="legend-text">Consent timestamp</text>
      <text x="590" class="tag-base fr-tag">FR-016:</text>
      <text x="645" class="legend-text">Data export</text>
      <text x="760" class="tag-base fr-tag">FR-017:</text>
      <text x="815" class="legend-text">Deletion</text>
    </g>
    <!-- Row 2: SC codes -->
    <g transform="translate(20, 60)">
      <text x="0" class="tag-base sc-tag">SC-004:</text>
      <text x="55" class="legend-text">2 clicks to access</text>
      <text x="195" class="tag-base sc-tag">SC-005:</text>
      <text x="250" class="legend-text">Export &lt;5 seconds</text>
    </g>
  </g>

  <!-- Footer: y=780, x=60, left-aligned -->
  <text x="60" y="780" text-anchor="start" class="text-muted">002:02 | Privacy Settings | ScriptHammer</text>
</svg>
