<svg xmlns="http://www.w3.org/2000/svg" viewBox="0 0 1400 800" width="1400" height="800">
  <!-- ============================================================
       GENERATED BY: /wireframe skill
       SOURCE: features/foundation/002-cookie-consent/spec.md
       DATE: 2026-01-01
       THEME: Light (UX/Frontend) - v3 True Parchment
       REGENERATED WITH FEEDBACK: features/foundation/002-cookie-consent/WIREFRAME_ISSUES.md
       FIX: Mobile position corrected to x=980 (was x=770)
       DO NOT MANUALLY EDIT - Regenerate with /wireframe command
       ============================================================ -->
  <defs>
    <linearGradient id="bgGrad" x1="0%" y1="0%" x2="100%" y2="100%">
      <stop offset="0%" style="stop-color:#c7ddf5"/>
      <stop offset="100%" style="stop-color:#b8d4f0"/>
    </linearGradient>
    <linearGradient id="accentGrad" x1="0%" y1="0%" x2="100%" y2="0%">
      <stop offset="0%" style="stop-color:#8b5cf6"/>
      <stop offset="100%" style="stop-color:#d946ef"/>
    </linearGradient>
    <style>
      .heading-lg { fill: #1a1a2e; font-family: system-ui, sans-serif; font-size: 24px; font-weight: 800; }
      .heading { fill: #1a1a2e; font-family: system-ui, sans-serif; font-size: 16px; font-weight: 700; }
      .heading-sm { fill: #1a1a2e; font-family: system-ui, sans-serif; font-size: 14px; font-weight: 700; }
      .text-md { fill: #2d3748; font-family: system-ui, sans-serif; font-size: 14px; font-weight: 500; }
      .text-sm { fill: #374151; font-family: system-ui, sans-serif; font-size: 12px; font-weight: 500; }
      .text-muted { fill: #374151; font-family: system-ui, sans-serif; font-size: 11px; font-weight: 500; }
      .annotation { fill: #6d28d9; font-family: monospace; font-size: 12px; font-weight: 600; }
      .label-desktop { fill: #8b5cf6; font-family: monospace; font-size: 13px; font-weight: bold; }
      .label-mobile { fill: #d946ef; font-family: monospace; font-size: 13px; font-weight: bold; }
    </style>
  </defs>

  <!-- Background -->
  <rect width="1400" height="800" fill="url(#bgGrad)"/>

  <!-- Dot grid pattern -->
  <g opacity="0.35">
    <pattern id="dots" width="30" height="30" patternUnits="userSpaceOnUse">
      <circle cx="15" cy="15" r="1" fill="#6b8cba"/>
    </pattern>
    <rect width="1400" height="800" fill="url(#dots)"/>
  </g>

  <!-- Accent line top -->
  <rect x="0" y="0" width="1400" height="3" fill="url(#accentGrad)"/>

  <!-- Title -->
  <text x="700" y="28" text-anchor="middle" font-family="system-ui, sans-serif" font-size="14" font-weight="600" fill="#374151" letter-spacing="1">PRIVACY SETTINGS PAGE - GDPR RIGHTS MANAGEMENT</text>

  <!-- DESKTOP SECTION -->
  <text x="40" y="52" class="label-desktop">DESKTOP</text>

  <g id="desktop-view">
    <!-- Page background -->
    <rect x="40" y="60" width="560" height="700" rx="8" fill="#e8d4b8" stroke="#b8a080" stroke-width="1"/>

    <!-- Header with back link -->
    <rect x="40" y="60" width="560" height="50" rx="8" fill="#dcc8a8"/>
    <rect x="40" y="98" width="560" height="12" fill="#dcc8a8"/>
    <text x="60" y="92" class="text-md" fill="#8b5cf6">← Back to App</text>
    <text x="320" y="92" text-anchor="middle" class="heading">Privacy Settings</text>

    <!-- Current Consent Status Section -->
    <text x="60" y="140" class="heading-sm">Your Cookie Preferences</text>
    <text x="60" y="160" class="text-muted">Last updated: January 1, 2026 at 9:41 AM</text>

    <!-- Category Status Cards (compact) -->
    <g id="consent-status">
      <!-- Necessary - ON -->
      <rect x="60" y="175" width="250" height="44" rx="6" fill="#f5f0e6" stroke="#22c55e" stroke-width="2"/>
      <text x="80" y="202" class="text-md">Necessary</text>
      <rect x="260" y="187" width="40" height="20" rx="10" fill="#22c55e"/>
      <circle cx="290" cy="197" r="7" fill="#fff"/>

      <!-- Functional - OFF -->
      <rect x="320" y="175" width="250" height="44" rx="6" fill="#f5f0e6" stroke="#b8a080" stroke-width="1"/>
      <text x="340" y="202" class="text-md">Functional</text>
      <rect x="520" y="187" width="40" height="20" rx="10" fill="#dcc8a8" stroke="#b8a080"/>
      <circle cx="530" cy="197" r="7" fill="#fff"/>

      <!-- Analytics - OFF -->
      <rect x="60" y="229" width="250" height="44" rx="6" fill="#f5f0e6" stroke="#b8a080" stroke-width="1"/>
      <text x="80" y="256" class="text-md">Analytics</text>
      <rect x="260" y="241" width="40" height="20" rx="10" fill="#dcc8a8" stroke="#b8a080"/>
      <circle cx="270" cy="251" r="7" fill="#fff"/>

      <!-- Marketing - OFF -->
      <rect x="320" y="229" width="250" height="44" rx="6" fill="#f5f0e6" stroke="#b8a080" stroke-width="1"/>
      <text x="340" y="256" class="text-md">Marketing</text>
      <rect x="520" y="241" width="40" height="20" rx="10" fill="#dcc8a8" stroke="#b8a080"/>
      <circle cx="530" cy="251" r="7" fill="#fff"/>
    </g>

    <!-- Edit Preferences Button - 44px -->
    <rect x="60" y="290" width="200" height="44" rx="6" fill="#8b5cf6"/>
    <text x="160" y="318" text-anchor="middle" fill="#fff" font-family="system-ui" font-size="14" font-weight="600">Edit Preferences</text>

    <!-- Divider -->
    <line x1="60" y1="355" x2="580" y2="355" stroke="#b8a080" stroke-width="1"/>

    <!-- Your Data Section (GDPR Rights) -->
    <text x="60" y="385" class="heading-sm">Your Data Rights (GDPR)</text>

    <!-- Data Export Card -->
    <rect x="60" y="400" width="510" height="90" rx="6" fill="#f5f0e6" stroke="#b8a080" stroke-width="1"/>
    <text x="80" y="425" class="text-md" font-weight="600">Export My Data</text>
    <text x="80" y="445" class="text-sm">Download all data we have stored about you (consent history,</text>
    <text x="80" y="460" class="text-sm">preferences, locally persisted information) as a JSON file.</text>
    <rect x="420" y="415" width="130" height="44" rx="6" fill="#e8d4b8" stroke="#b8a080" stroke-width="2"/>
    <text x="485" y="443" text-anchor="middle" class="text-md">Download</text>

    <!-- Data Deletion Card -->
    <rect x="60" y="505" width="510" height="90" rx="6" fill="#f5f0e6" stroke="#ef4444" stroke-width="1"/>
    <text x="80" y="530" class="text-md" font-weight="600">Request Data Deletion</text>
    <text x="80" y="550" class="text-sm">Permanently delete all your data. This action cannot be undone.</text>
    <text x="80" y="565" class="text-sm">You will be treated as a first-time visitor after deletion.</text>
    <rect x="420" y="520" width="130" height="44" rx="6" fill="#fef2f2" stroke="#ef4444" stroke-width="2"/>
    <text x="485" y="548" text-anchor="middle" fill="#ef4444" font-family="system-ui" font-size="14" font-weight="600">Delete All</text>

    <!-- Divider -->
    <line x1="60" y1="615" x2="580" y2="615" stroke="#b8a080" stroke-width="1"/>

    <!-- Consent History Section -->
    <text x="60" y="645" class="heading-sm">Consent History</text>

    <rect x="60" y="660" width="510" height="80" rx="6" fill="#f5f0e6" stroke="#b8a080" stroke-width="1"/>
    <text x="80" y="685" class="text-sm">v1.0.0 - Initial consent given</text>
    <text x="460" y="685" text-anchor="end" class="text-muted">Jan 1, 2026 9:41 AM</text>
    <line x1="80" y1="700" x2="550" y2="700" stroke="#b8a080" stroke-width="1" stroke-dasharray="2,2"/>
    <text x="80" y="720" class="text-muted">Only necessary cookies accepted</text>
  </g>

  <!-- ANNOTATIONS (in the gap between desktop and mobile) -->
  <g id="annotations">
    <!-- FR-010 annotation -->
    <rect x="620" y="60" width="130" height="55" rx="4" fill="#e8d4b8" stroke="#8b5cf6" stroke-width="1"/>
    <text x="685" y="82" text-anchor="middle" class="annotation">Privacy Page</text>
    <text x="685" y="98" text-anchor="middle" class="text-muted">FR-010: Settings</text>
    <text x="685" y="110" text-anchor="middle" class="text-muted">accessible anytime</text>

    <!-- FR-011 annotation -->
    <rect x="620" y="130" width="130" height="55" rx="4" fill="#e8d4b8" stroke="#8b5cf6" stroke-width="1"/>
    <text x="685" y="152" text-anchor="middle" class="annotation">Footer Link</text>
    <text x="685" y="168" text-anchor="middle" class="text-muted">FR-011: Persistent</text>
    <text x="685" y="180" text-anchor="middle" class="text-muted">privacy link</text>

    <!-- FR-012 annotation -->
    <rect x="620" y="200" width="130" height="55" rx="4" fill="#e8d4b8" stroke="#8b5cf6" stroke-width="1"/>
    <text x="685" y="222" text-anchor="middle" class="annotation">Edit Anytime</text>
    <text x="685" y="238" text-anchor="middle" class="text-muted">FR-012: Immediate</text>
    <text x="685" y="250" text-anchor="middle" class="text-muted">effect on change</text>

    <!-- FR-016/018 annotation -->
    <rect x="620" y="400" width="130" height="70" rx="4" fill="#e8d4b8" stroke="#8b5cf6" stroke-width="1"/>
    <text x="685" y="422" text-anchor="middle" class="annotation">Data Export</text>
    <text x="685" y="438" text-anchor="middle" class="text-muted">FR-016: Right of</text>
    <text x="685" y="453" text-anchor="middle" class="text-muted">Access (download)</text>
    <text x="685" y="465" text-anchor="middle" class="text-muted">FR-018: All data</text>

    <!-- FR-017 annotation -->
    <rect x="620" y="505" width="130" height="55" rx="4" fill="#e8d4b8" stroke="#8b5cf6" stroke-width="1"/>
    <text x="685" y="527" text-anchor="middle" class="annotation">Data Deletion</text>
    <text x="685" y="543" text-anchor="middle" class="text-muted">FR-017: Right to</text>
    <text x="685" y="555" text-anchor="middle" class="text-muted">be Forgotten</text>

    <!-- FR-013-015 annotation -->
    <rect x="620" y="645" width="130" height="55" rx="4" fill="#e8d4b8" stroke="#8b5cf6" stroke-width="1"/>
    <text x="685" y="667" text-anchor="middle" class="annotation">Consent Audit</text>
    <text x="685" y="683" text-anchor="middle" class="text-muted">FR-013-015:</text>
    <text x="685" y="695" text-anchor="middle" class="text-muted">Version tracking</text>
  </g>

  <!-- MOBILE SECTION - FIXED: x=980 to match 01-consent-modal.svg -->
  <text x="980" y="52" class="label-mobile">MOBILE</text>

  <g id="mobile-view" transform="translate(980, 60)">
    <!-- Phone frame -->
    <rect x="0" y="0" width="360" height="700" rx="24" fill="#c8b898" stroke="#a08860" stroke-width="2"/>
    <rect x="10" y="10" width="340" height="680" rx="16" fill="#e8d4b8"/>

    <!-- Status bar -->
    <rect x="10" y="10" width="340" height="28" rx="16" fill="#dcc8a8"/>
    <text x="30" y="28" class="text-sm">9:41</text>
    <text x="310" y="28" text-anchor="end" class="text-sm">100%</text>

    <!-- Header -->
    <rect x="10" y="38" width="340" height="44" fill="#dcc8a8"/>
    <text x="30" y="66" class="text-md" fill="#8b5cf6">← Back</text>
    <text x="180" y="66" text-anchor="middle" class="heading-sm">Privacy Settings</text>

    <!-- Content area -->
    <rect x="10" y="82" width="340" height="608" rx="8" fill="#e8d4b8"/>

    <!-- Consent Status Section -->
    <text x="25" y="108" class="heading-sm">Your Preferences</text>

    <!-- Compact category toggles (stacked, 44px each) -->
    <rect x="25" y="118" width="300" height="44" rx="6" fill="#f5f0e6" stroke="#22c55e" stroke-width="2"/>
    <text x="45" y="145" class="text-md">Necessary</text>
    <rect x="275" y="130" width="36" height="18" rx="9" fill="#22c55e"/>
    <circle cx="302" cy="139" r="6" fill="#fff"/>

    <rect x="25" y="170" width="300" height="44" rx="6" fill="#f5f0e6" stroke="#b8a080"/>
    <text x="45" y="197" class="text-md">Functional</text>
    <rect x="275" y="182" width="36" height="18" rx="9" fill="#dcc8a8" stroke="#b8a080"/>
    <circle cx="284" cy="191" r="6" fill="#fff"/>

    <rect x="25" y="222" width="300" height="44" rx="6" fill="#f5f0e6" stroke="#b8a080"/>
    <text x="45" y="249" class="text-md">Analytics</text>
    <rect x="275" y="234" width="36" height="18" rx="9" fill="#dcc8a8" stroke="#b8a080"/>
    <circle cx="284" cy="243" r="6" fill="#fff"/>

    <rect x="25" y="274" width="300" height="44" rx="6" fill="#f5f0e6" stroke="#b8a080"/>
    <text x="45" y="301" class="text-md">Marketing</text>
    <rect x="275" y="286" width="36" height="18" rx="9" fill="#dcc8a8" stroke="#b8a080"/>
    <circle cx="284" cy="295" r="6" fill="#fff"/>

    <!-- Edit button - 44px -->
    <rect x="25" y="330" width="300" height="44" rx="6" fill="#8b5cf6"/>
    <text x="175" y="358" text-anchor="middle" fill="#fff" font-family="system-ui" font-size="14" font-weight="600">Edit Preferences</text>

    <!-- Divider -->
    <line x1="25" y1="390" x2="325" y2="390" stroke="#b8a080" stroke-width="1"/>

    <!-- Your Data Section -->
    <text x="25" y="415" class="heading-sm">Your Data Rights</text>

    <!-- Export Button - 44px -->
    <rect x="25" y="430" width="300" height="44" rx="6" fill="#e8d4b8" stroke="#b8a080" stroke-width="2"/>
    <text x="175" y="458" text-anchor="middle" class="text-md">Export My Data</text>

    <!-- Delete Button - 44px -->
    <rect x="25" y="486" width="300" height="44" rx="6" fill="#fef2f2" stroke="#ef4444" stroke-width="2"/>
    <text x="175" y="514" text-anchor="middle" fill="#ef4444" font-family="system-ui" font-size="14" font-weight="600">Request Deletion</text>

    <!-- Divider -->
    <line x1="25" y1="550" x2="325" y2="550" stroke="#b8a080" stroke-width="1"/>

    <!-- Consent History -->
    <text x="25" y="575" class="heading-sm">Consent History</text>

    <rect x="25" y="588" width="300" height="55" rx="6" fill="#f5f0e6" stroke="#b8a080"/>
    <text x="40" y="608" class="text-sm">v1.0.0 - Initial consent</text>
    <text x="40" y="625" class="text-muted">Jan 1, 2026 • Necessary only</text>

    <!-- Footer info -->
    <text x="175" y="665" text-anchor="middle" class="text-muted">Consent v1.0.0 • FR-010-018</text>
  </g>

  <!-- Footer -->
  <text x="60" y="780" text-anchor="start" class="text-muted">Privacy Settings • Feature 002 • ScriptHammer</text>

  <!-- Leader lines -->
  <g id="leader-lines">
    <line x1="600" y1="85" x2="620" y2="85" stroke="#8b5cf6" stroke-width="1" stroke-dasharray="4,2"/>
    <line x1="270" y1="310" x2="620" y2="225" stroke="#8b5cf6" stroke-width="1" stroke-dasharray="4,2"/>
    <line x1="550" y1="450" x2="620" y2="435" stroke="#8b5cf6" stroke-width="1" stroke-dasharray="4,2"/>
    <line x1="550" y1="545" x2="620" y2="530" stroke="#8b5cf6" stroke-width="1" stroke-dasharray="4,2"/>
    <line x1="550" y1="700" x2="620" y2="670" stroke="#8b5cf6" stroke-width="1" stroke-dasharray="4,2"/>
  </g>
</svg>
