<svg xmlns="http://www.w3.org/2000/svg" viewBox="0 0 1400 800" width="1400" height="800">
  <!-- ============================================================
       GENERATED BY: /wireframe skill
       SOURCE: features/foundation/002-cookie-consent/spec.md
       DATE: 2025-12-31
       THEME: Light (UX/Frontend)
       DO NOT MANUALLY EDIT - Regenerate with /wireframe command
       ============================================================ -->
  <defs>
    <linearGradient id="bgGrad" x1="0%" y1="0%" x2="100%" y2="100%">
      <stop offset="0%" style="stop-color:#ffffff"/>
      <stop offset="100%" style="stop-color:#f0f4f8"/>
    </linearGradient>
    <linearGradient id="accentGrad" x1="0%" y1="0%" x2="100%" y2="0%">
      <stop offset="0%" style="stop-color:#8b5cf6"/>
      <stop offset="100%" style="stop-color:#d946ef"/>
    </linearGradient>
    <style>
      .heading-lg { fill: #1f2937; font-family: system-ui, sans-serif; font-size: 20px; font-weight: bold; }
      .heading { fill: #1f2937; font-family: system-ui, sans-serif; font-size: 14px; font-weight: bold; }
      .heading-sm { fill: #1f2937; font-family: system-ui, sans-serif; font-size: 12px; font-weight: bold; }
      .text-md { fill: #374151; font-family: system-ui, sans-serif; font-size: 12px; }
      .text-sm { fill: #6b7280; font-family: system-ui, sans-serif; font-size: 10px; }
      .text-muted { fill: #9ca3af; font-family: system-ui, sans-serif; font-size: 10px; }
      .annotation { fill: #8b5cf6; font-family: monospace; font-size: 10px; }
      .label-desktop { fill: #8b5cf6; font-family: monospace; font-size: 11px; font-weight: bold; }
      .label-mobile { fill: #d946ef; font-family: monospace; font-size: 11px; font-weight: bold; }
      .btn-text { fill: #ffffff; font-family: system-ui, sans-serif; font-size: 12px; font-weight: 600; }
      .btn-text-dark { fill: #374151; font-family: system-ui, sans-serif; font-size: 12px; font-weight: 600; }
    </style>
  </defs>

  <!-- Background -->
  <rect width="1400" height="800" fill="url(#bgGrad)"/>

  <!-- Dot grid pattern -->
  <g opacity="0.4">
    <pattern id="dots" width="30" height="30" patternUnits="userSpaceOnUse">
      <circle cx="15" cy="15" r="1" fill="#a5b4fc"/>
    </pattern>
    <rect width="1400" height="800" fill="url(#dots)"/>
  </g>

  <!-- Accent line top -->
  <rect x="0" y="0" width="1400" height="3" fill="url(#accentGrad)"/>

  <!-- Title -->
  <text x="700" y="28" text-anchor="middle" font-family="system-ui, sans-serif" font-size="14" font-weight="600" fill="#9ca3af" letter-spacing="1">PRIVACY SETTINGS PAGE - GDPR DATA RIGHTS</text>

  <!-- DESKTOP SECTION -->
  <text x="40" y="52" class="label-desktop">DESKTOP</text>

  <g id="desktop-view">
    <!-- Page container -->
    <rect x="40" y="60" width="900" height="680" rx="8" fill="#ffffff" stroke="#e5e7eb"/>

    <!-- Header -->
    <rect x="40" y="60" width="900" height="60" rx="8" fill="#f9fafb"/>
    <rect x="40" y="112" width="900" height="8" fill="#f9fafb"/>
    <line x1="40" y1="120" x2="940" y2="120" stroke="#e5e7eb"/>

    <!-- Back link -->
    <text x="60" y="95" class="text-sm" fill="#8b5cf6">← Back to Settings</text>

    <!-- Page title -->
    <text x="490" y="90" text-anchor="middle" class="heading-lg">Privacy Settings</text>
    <text x="490" y="108" text-anchor="middle" class="text-sm">Manage your cookie preferences and data rights</text>

    <!-- Main Content Area -->
    <g transform="translate(60, 140)">
      <!-- Cookie Preferences Section -->
      <g id="cookie-prefs">
        <text x="0" y="0" class="heading">Cookie Preferences</text>
        <text x="0" y="18" class="text-sm">Control which cookies are used on this site (FR-006)</text>

        <!-- Cookie Category Cards -->
        <g transform="translate(0, 35)">
          <!-- Necessary Cookies (Always On) -->
          <rect x="0" y="0" width="400" height="90" rx="8" fill="#f0fdf4" stroke="#22c55e"/>
          <text x="15" y="25" class="heading-sm">Necessary Cookies</text>
          <rect x="330" y="10" width="55" height="26" rx="13" fill="#22c55e"/>
          <text x="357" y="27" text-anchor="middle" class="text-sm" fill="#ffffff">ON</text>
          <text x="15" y="45" class="text-sm">Required for the website to function. Cannot be disabled.</text>
          <text x="15" y="60" class="text-muted">Session management, security tokens, preferences storage</text>
          <text x="15" y="78" class="text-muted" fill="#22c55e">FR-008: Cannot be disabled</text>

          <!-- Functional Cookies -->
          <rect x="420" y="0" width="400" height="90" rx="8" fill="#ffffff" stroke="#d1d5db"/>
          <text x="435" y="25" class="heading-sm">Functional Cookies</text>
          <!-- Toggle (off state) -->
          <rect x="750" y="10" width="55" height="26" rx="13" fill="#e5e7eb"/>
          <circle cx="772" cy="23" r="10" fill="#ffffff"/>
          <text x="435" y="45" class="text-sm">Enable enhanced features and personalization.</text>
          <text x="435" y="60" class="text-muted">Theme preferences, language settings, saved forms</text>
        </g>

        <!-- Second row -->
        <g transform="translate(0, 140)">
          <!-- Analytics Cookies -->
          <rect x="0" y="0" width="400" height="90" rx="8" fill="#ffffff" stroke="#d1d5db"/>
          <text x="15" y="25" class="heading-sm">Analytics Cookies</text>
          <!-- Toggle (on state) -->
          <rect x="330" y="10" width="55" height="26" rx="13" fill="#8b5cf6"/>
          <circle cx="372" cy="23" r="10" fill="#ffffff"/>
          <text x="15" y="45" class="text-sm">Help us understand how visitors use the site.</text>
          <text x="15" y="60" class="text-muted">Page views, session duration, bounce rate</text>

          <!-- Marketing Cookies -->
          <rect x="420" y="0" width="400" height="90" rx="8" fill="#ffffff" stroke="#d1d5db"/>
          <text x="435" y="25" class="heading-sm">Marketing Cookies</text>
          <!-- Toggle (off state) -->
          <rect x="750" y="10" width="55" height="26" rx="13" fill="#e5e7eb"/>
          <circle cx="772" cy="23" r="10" fill="#ffffff"/>
          <text x="435" y="45" class="text-sm">Used to deliver relevant advertisements.</text>
          <text x="435" y="60" class="text-muted">Ad targeting, retargeting, social media tracking</text>
        </g>

        <!-- Save button -->
        <g transform="translate(0, 250)">
          <rect x="0" y="0" width="150" height="40" rx="6" fill="#8b5cf6"/>
          <text x="75" y="25" text-anchor="middle" class="btn-text">Save Preferences</text>

          <text x="170" y="25" class="text-sm" fill="#22c55e">✓ Changes saved</text>
        </g>
      </g>

      <!-- Consent Version Info -->
      <g transform="translate(0, 320)">
        <rect x="0" y="0" width="820" height="50" rx="6" fill="#fef3c7" stroke="#f59e0b"/>
        <text x="15" y="20" class="text-sm" fill="#92400e">Consent Version: v2.1 (updated 2025-12-15)</text>
        <text x="15" y="38" class="text-sm" fill="#92400e">Your consent was recorded on 2025-12-20 at 14:32:45 UTC (FR-015)</text>
      </g>

      <!-- Data Rights Section -->
      <g transform="translate(0, 390)">
        <text x="0" y="0" class="heading">Your Data Rights (GDPR)</text>
        <text x="0" y="18" class="text-sm">Exercise your rights under GDPR Articles 15-20</text>

        <!-- Data Export -->
        <g transform="translate(0, 40)">
          <rect x="0" y="0" width="400" height="100" rx="8" fill="#ffffff" stroke="#e5e7eb"/>
          <text x="15" y="25" class="heading-sm">Export Your Data</text>
          <text x="15" y="45" class="text-sm">Download all data we have stored about you</text>
          <text x="15" y="60" class="text-muted">FR-016, FR-018: Includes consent history,</text>
          <text x="15" y="75" class="text-muted">preferences, and locally stored data</text>
          <rect x="280" y="55" width="105" height="32" rx="6" fill="#ffffff" stroke="#8b5cf6"/>
          <text x="332" y="76" text-anchor="middle" class="btn-text-dark" fill="#8b5cf6">Export Data</text>
        </g>

        <!-- Data Deletion -->
        <g transform="translate(420, 40)">
          <rect x="0" y="0" width="400" height="100" rx="8" fill="#ffffff" stroke="#e5e7eb"/>
          <text x="15" y="25" class="heading-sm">Delete Your Data</text>
          <text x="15" y="45" class="text-sm">Request erasure of all your data</text>
          <text x="15" y="60" class="text-muted">FR-017: Right to be forgotten</text>
          <text x="15" y="75" class="text-muted">You will be treated as a new visitor</text>
          <rect x="255" y="55" width="130" height="32" rx="6" fill="#ffffff" stroke="#ef4444"/>
          <text x="320" y="76" text-anchor="middle" class="text-sm" fill="#ef4444">Request Deletion</text>
        </g>
      </g>
    </g>

    <!-- Footer link indicator -->
    <g transform="translate(60, 700)">
      <rect x="0" y="0" width="820" height="30" rx="4" fill="#f3f4f6"/>
      <text x="410" y="20" text-anchor="middle" class="text-sm">This page is accessible via: Footer → "Privacy Settings" (FR-011, SC-004: within 2 clicks)</text>
    </g>
  </g>

  <!-- MOBILE SECTION -->
  <text x="980" y="52" class="label-mobile">MOBILE</text>

  <g id="mobile-view" transform="translate(980, 60)">
    <rect x="0" y="0" width="360" height="700" rx="24" fill="#ffffff" stroke="#e5e7eb" stroke-width="2"/>

    <!-- Status bar -->
    <rect x="10" y="10" width="340" height="28" rx="14" fill="#f9fafb"/>
    <text x="30" y="28" class="text-sm">9:41</text>
    <text x="310" y="28" text-anchor="end" class="text-sm">100%</text>

    <!-- Header -->
    <g transform="translate(10, 48)">
      <text x="15" y="20" class="text-sm" fill="#8b5cf6">← Back</text>
      <text x="170" y="20" text-anchor="middle" class="heading">Privacy Settings</text>
    </g>

    <!-- Scrollable content -->
    <g transform="translate(20, 85)">
      <!-- Cookie Preferences -->
      <text x="0" y="0" class="heading-sm">Cookie Preferences</text>

      <!-- Category cards (stacked) -->
      <g transform="translate(0, 20)">
        <!-- Necessary -->
        <rect x="0" y="0" width="320" height="65" rx="6" fill="#f0fdf4" stroke="#22c55e"/>
        <text x="10" y="20" class="heading-sm">Necessary</text>
        <rect x="260" y="8" width="48" height="22" rx="11" fill="#22c55e"/>
        <text x="284" y="23" text-anchor="middle" class="text-sm" fill="#fff">ON</text>
        <text x="10" y="40" class="text-sm">Required for core functionality</text>
        <text x="10" y="55" class="text-muted" fill="#22c55e">Cannot disable</text>

        <!-- Functional -->
        <rect x="0" y="75" width="320" height="65" rx="6" fill="#ffffff" stroke="#d1d5db"/>
        <text x="10" y="95" class="heading-sm">Functional</text>
        <rect x="260" y="83" width="48" height="22" rx="11" fill="#e5e7eb"/>
        <circle cx="278" cy="94" r="8" fill="#fff"/>
        <text x="10" y="115" class="text-sm">Enhanced features</text>
        <text x="10" y="130" class="text-muted">Themes, language, forms</text>

        <!-- Analytics -->
        <rect x="0" y="150" width="320" height="65" rx="6" fill="#ffffff" stroke="#d1d5db"/>
        <text x="10" y="170" class="heading-sm">Analytics</text>
        <rect x="260" y="158" width="48" height="22" rx="11" fill="#8b5cf6"/>
        <circle cx="294" cy="169" r="8" fill="#fff"/>
        <text x="10" y="190" class="text-sm">Usage statistics</text>
        <text x="10" y="205" class="text-muted">Page views, sessions</text>

        <!-- Marketing -->
        <rect x="0" y="225" width="320" height="65" rx="6" fill="#ffffff" stroke="#d1d5db"/>
        <text x="10" y="245" class="heading-sm">Marketing</text>
        <rect x="260" y="233" width="48" height="22" rx="11" fill="#e5e7eb"/>
        <circle cx="278" cy="244" r="8" fill="#fff"/>
        <text x="10" y="265" class="text-sm">Advertising cookies</text>
        <text x="10" y="280" class="text-muted">Ad targeting, retargeting</text>
      </g>

      <!-- Save button -->
      <rect x="0" y="310" width="320" height="44" rx="8" fill="#8b5cf6"/>
      <text x="160" y="338" text-anchor="middle" class="btn-text">Save Preferences</text>

      <!-- Data Rights -->
      <text x="0" y="385" class="heading-sm">Your Data Rights</text>

      <g transform="translate(0, 405)">
        <rect x="0" y="0" width="320" height="50" rx="6" fill="#ffffff" stroke="#e5e7eb"/>
        <text x="15" y="22" class="text-sm">Export Your Data</text>
        <text x="15" y="38" class="text-muted">Download all stored data</text>
        <text x="270" y="30" text-anchor="middle" class="text-sm" fill="#8b5cf6">Export →</text>

        <rect x="0" y="60" width="320" height="50" rx="6" fill="#ffffff" stroke="#e5e7eb"/>
        <text x="15" y="82" class="text-sm">Delete Your Data</text>
        <text x="15" y="98" class="text-muted">Request data erasure</text>
        <text x="270" y="90" text-anchor="middle" class="text-sm" fill="#ef4444">Delete →</text>
      </g>

      <!-- Consent info -->
      <g transform="translate(0, 530)">
        <rect x="0" y="0" width="320" height="40" rx="4" fill="#fef3c7"/>
        <text x="160" y="16" text-anchor="middle" class="text-sm" fill="#92400e">Consent v2.1</text>
        <text x="160" y="32" text-anchor="middle" class="text-muted" fill="#92400e">Recorded: 2025-12-20</text>
      </g>
    </g>
  </g>

  <!-- Annotations -->
  <g id="annotations" transform="translate(40, 720)">
    <rect x="0" y="0" width="180" height="45" rx="6" fill="#ffffff" stroke="#8b5cf6"/>
    <text x="90" y="16" text-anchor="middle" class="annotation">FR-010, FR-011</text>
    <text x="90" y="32" text-anchor="middle" class="text-sm">Accessible settings page</text>

    <rect x="200" y="0" width="180" height="45" rx="6" fill="#ffffff" stroke="#8b5cf6"/>
    <text x="290" y="16" text-anchor="middle" class="annotation">FR-012</text>
    <text x="290" y="32" text-anchor="middle" class="text-sm">Immediate effect on save</text>

    <rect x="400" y="0" width="180" height="45" rx="6" fill="#ffffff" stroke="#8b5cf6"/>
    <text x="490" y="16" text-anchor="middle" class="annotation">FR-013, FR-014</text>
    <text x="490" y="32" text-anchor="middle" class="text-sm">Consent versioning</text>

    <rect x="600" y="0" width="180" height="45" rx="6" fill="#ffffff" stroke="#22c55e"/>
    <text x="690" y="16" text-anchor="middle" class="text-sm" fill="#22c55e">SC-005</text>
    <text x="690" y="32" text-anchor="middle" class="text-sm">Export &lt;5 seconds</text>
  </g>

  <!-- Feature reference -->
  <text x="1360" y="780" text-anchor="end" class="text-muted">002-cookie-consent | 02 of 02</text>
</svg>
