<svg xmlns="http://www.w3.org/2000/svg" viewBox="0 0 1920 1080" width="1920" height="1080">
  <!-- ============================================================
       GENERATED BY: /wireframe skill
       SOURCE: features/foundation/002-cookie-consent/spec.md
       DATE: 2026-01-10
       THEME: Light (UX/Frontend) - v3 True Parchment
       DO NOT MANUALLY EDIT - Regenerate with /wireframe command
       ============================================================ -->
  <defs>
    <linearGradient id="bgGrad" x1="0%" y1="0%" x2="100%" y2="100%">
      <stop offset="0%" style="stop-color:#c7ddf5"/>
      <stop offset="100%" style="stop-color:#b8d4f0"/>
    </linearGradient>
    <linearGradient id="accentGrad" x1="0%" y1="0%" x2="100%" y2="0%">
      <stop offset="0%" style="stop-color:#8b5cf6"/>
      <stop offset="100%" style="stop-color:#d946ef"/>
    </linearGradient>
    <style>
      .heading-lg { fill: #1a1a2e; font-family: system-ui, sans-serif; font-size: 28px; font-weight: 800; }
      .heading { fill: #1a1a2e; font-family: system-ui, sans-serif; font-size: 20px; font-weight: 700; }
      .heading-sm { fill: #1a1a2e; font-family: system-ui, sans-serif; font-size: 16px; font-weight: 600; }
      .text-md { fill: #2d3748; font-family: system-ui, sans-serif; font-size: 16px; font-weight: 500; }
      .text-sm { fill: #374151; font-family: system-ui, sans-serif; font-size: 14px; font-weight: 500; }
      .text-muted { fill: #4b5563; font-family: system-ui, sans-serif; font-size: 13px; font-weight: 500; }
      .annotation { fill: #6d28d9; font-family: system-ui, sans-serif; font-size: 14px; font-weight: 700; }
      .label-desktop { fill: #8b5cf6; font-family: system-ui, sans-serif; font-size: 15px; font-weight: bold; }
      .label-mobile { fill: #d946ef; font-family: system-ui, sans-serif; font-size: 15px; font-weight: bold; }
      .legend-header { fill: #6d28d9; font-family: system-ui, sans-serif; font-size: 15px; font-weight: bold; }
      .legend-text { fill: #374151; font-family: system-ui, sans-serif; font-size: 14px; }
      .tag-base { font-family: system-ui, sans-serif; font-size: 14px; font-weight: bold; }
      .fr-tag { fill: #2563eb; }
      .sc-tag { fill: #ea580c; }
      .badge { fill: #fff; font-family: system-ui, sans-serif; font-size: 11px; font-weight: bold; }
      .toggle-on { fill: #22c55e; }
      .toggle-off { fill: #64748b; }
      .toggle-always-on { fill: #22c55e; }
      .toggle-thumb { fill: #ffffff; }
      .annotation-bg { fill: #ede9fe; stroke: #c4b5fd; stroke-width: 1; }
    </style>
  </defs>

  <!-- Background -->
  <rect width="1920" height="1080" fill="url(#bgGrad)"/>
  <g opacity="0.35">
    <pattern id="dots" width="30" height="30" patternUnits="userSpaceOnUse">
      <circle cx="15" cy="15" r="1" fill="#6b8cba"/>
    </pattern>
    <rect width="1920" height="1080" fill="url(#dots)"/>
  </g>
  <rect x="0" y="0" width="1920" height="3" fill="url(#accentGrad)"/>

  <!-- Title -->
  <text x="700" y="28" text-anchor="middle" font-family="system-ui, sans-serif" font-size="18" font-weight="700" fill="#4b5563" letter-spacing="1">COOKIE CONSENT &amp; GDPR COMPLIANCE - Privacy Settings &amp; Data Rights</text>

  <!-- DESKTOP SECTION -->
  <text x="40" y="52" class="label-desktop">DESKTOP (16:9) - Privacy Settings Page</text>
  <g id="desktop-view">
    <rect x="40" y="60" width="1366" height="768" rx="8" fill="#e8d4b8" stroke="#b8a080"/>

    <!-- Desktop Header -->
    <g transform="translate(50, 70)">
      <rect width="1346" height="50" rx="0" fill="#dcc8a8" stroke="#b8a080"/>
      <rect x="15" y="10" width="30" height="30" rx="4" fill="#8b5cf6"/>
      <text x="55" y="32" fill="#1a1a2e" font-family="system-ui, sans-serif" font-size="16px" font-weight="700">ScriptHammer</text>
      <g transform="translate(550, 3)">
        <rect x="260" width="80" height="44" rx="4" fill="#8b5cf6"/>
        <text x="300" y="28" text-anchor="middle" fill="#fff" font-family="system-ui, sans-serif" font-size="14px" font-weight="600">Account</text>
      </g>
    </g>

    <!-- Page Title -->
    <g transform="translate(60, 140)">
      <text x="0" y="0" class="heading-lg">Privacy Settings</text>

      <!-- FR-010 annotation -->
      <g transform="translate(250, -20)">
        <rect width="260" height="28" rx="4" class="annotation-bg"/>
        <a href="https://github.com/TortoiseWolfe/ScriptHammer/blob/main/features/foundation/002-cookie-consent/spec.md#functional-requirements" target="_blank">
          <rect x="5" y="4" width="55" height="20" rx="3" fill="#2563eb"/>
          <text x="32" y="18" class="badge" text-anchor="middle">FR-010</text>
        </a>
        <text x="68" y="18" class="text-sm">Accessible privacy settings page</text>
      </g>

      <text x="0" y="30" class="text-md">Manage your cookie preferences and exercise your data rights.</text>
    </g>

    <!-- COOKIE PREFERENCES SECTION -->
    <g transform="translate(60, 200)">
      <text x="0" y="0" class="heading">Cookie Preferences</text>

      <!-- FR-012 annotation -->
      <g transform="translate(230, -15)">
        <rect width="210" height="26" rx="4" class="annotation-bg"/>
        <a href="https://github.com/TortoiseWolfe/ScriptHammer/blob/main/features/foundation/002-cookie-consent/spec.md#functional-requirements" target="_blank">
          <rect x="5" y="3" width="55" height="20" rx="3" fill="#2563eb"/>
          <text x="32" y="17" class="badge" text-anchor="middle">FR-012</text>
        </a>
        <text x="68" y="17" class="text-sm">Immediate effect</text>
      </g>

      <!-- Category: Necessary -->
      <g transform="translate(0, 20)">
        <rect width="620" height="80" rx="8" fill="#dcc8a8" stroke="#b8a080"/>
        <text x="20" y="30" class="heading-sm">Necessary Cookies</text>
        <text x="20" y="52" class="text-sm">Required for basic site functionality. These cannot be disabled.</text>
        <text x="20" y="70" class="text-muted">Session management, security tokens, preferences storage</text>
        <g transform="translate(560, 25)">
          <rect x="0" y="0" width="44" height="26" rx="13" class="toggle-always-on"/>
          <circle cx="31" cy="13" r="10" class="toggle-thumb"/>
        </g>
      </g>

      <!-- Category: Functional -->
      <g transform="translate(0, 110)">
        <rect width="620" height="80" rx="8" fill="#dcc8a8" stroke="#b8a080"/>
        <text x="20" y="30" class="heading-sm">Functional Cookies</text>
        <text x="20" y="52" class="text-sm">Enhanced features and personalized experience.</text>
        <text x="20" y="70" class="text-muted">Language preferences, theme settings, saved form data</text>
        <g transform="translate(560, 25)">
          <rect x="0" y="0" width="44" height="26" rx="13" class="toggle-on"/>
          <circle cx="31" cy="13" r="10" class="toggle-thumb"/>
        </g>
        <!-- FR-006 -->
        <a href="https://github.com/TortoiseWolfe/ScriptHammer/blob/main/features/foundation/002-cookie-consent/spec.md#functional-requirements" target="_blank">
          <rect x="475" y="55" width="55" height="18" rx="3" fill="#2563eb"/>
          <text x="502" y="68" class="badge" text-anchor="middle" font-size="10">FR-006</text>
        </a>
      </g>

      <!-- Category: Analytics -->
      <g transform="translate(0, 200)">
        <rect width="620" height="80" rx="8" fill="#dcc8a8" stroke="#b8a080"/>
        <text x="20" y="30" class="heading-sm">Analytics Cookies</text>
        <text x="20" y="52" class="text-sm">Help us understand how visitors use the site.</text>
        <text x="20" y="70" class="text-muted">Page views, navigation paths, feature usage statistics</text>
        <g transform="translate(560, 25)">
          <rect x="0" y="0" width="44" height="26" rx="13" class="toggle-off"/>
          <circle cx="13" cy="13" r="10" class="toggle-thumb"/>
        </g>
        <!-- FR-019 -->
        <a href="https://github.com/TortoiseWolfe/ScriptHammer/blob/main/features/foundation/002-cookie-consent/spec.md#functional-requirements" target="_blank">
          <rect x="475" y="55" width="55" height="18" rx="3" fill="#2563eb"/>
          <text x="502" y="68" class="badge" text-anchor="middle" font-size="10">FR-019</text>
        </a>
      </g>

      <!-- Category: Marketing -->
      <g transform="translate(0, 290)">
        <rect width="620" height="80" rx="8" fill="#dcc8a8" stroke="#b8a080"/>
        <text x="20" y="30" class="heading-sm">Marketing Cookies</text>
        <text x="20" y="52" class="text-sm">Used for personalized advertising and tracking.</text>
        <text x="20" y="70" class="text-muted">Ad targeting, cross-site tracking, social media integration</text>
        <g transform="translate(560, 25)">
          <rect x="0" y="0" width="44" height="26" rx="13" class="toggle-off"/>
          <circle cx="13" cy="13" r="10" class="toggle-thumb"/>
        </g>
        <!-- FR-020 -->
        <a href="https://github.com/TortoiseWolfe/ScriptHammer/blob/main/features/foundation/002-cookie-consent/spec.md#functional-requirements" target="_blank">
          <rect x="475" y="55" width="55" height="18" rx="3" fill="#2563eb"/>
          <text x="502" y="68" class="badge" text-anchor="middle" font-size="10">FR-020</text>
        </a>
      </g>

      <!-- Save button -->
      <rect x="0" y="385" width="200" height="44" rx="6" fill="#8b5cf6"/>
      <text x="100" y="413" text-anchor="middle" fill="#fff" font-family="system-ui, sans-serif" font-size="14px" font-weight="600">Save Preferences</text>

      <!-- Reset button -->
      <rect x="220" y="385" width="160" height="44" rx="6" fill="transparent" stroke="#b8a080" stroke-width="2"/>
      <text x="300" y="413" text-anchor="middle" fill="#374151" font-family="system-ui, sans-serif" font-size="14px" font-weight="600">Reset to Default</text>
    </g>

    <!-- DATA RIGHTS SECTION -->
    <g transform="translate(720, 200)">
      <text x="0" y="0" class="heading">Your Data Rights (GDPR)</text>

      <!-- Consent History -->
      <g transform="translate(0, 25)">
        <rect width="620" height="100" rx="8" fill="#dcc8a8" stroke="#b8a080"/>
        <text x="20" y="30" class="heading-sm">Consent History</text>
        <text x="20" y="52" class="text-sm">Your consent was last updated on January 10, 2026</text>
        <text x="20" y="72" class="text-muted">Version: 1.0 | All preferences saved to local storage</text>

        <!-- FR-015 + FR-009 -->
        <g transform="translate(400, 15)">
          <a href="https://github.com/TortoiseWolfe/ScriptHammer/blob/main/features/foundation/002-cookie-consent/spec.md#functional-requirements" target="_blank">
            <rect x="0" y="0" width="55" height="18" rx="3" fill="#2563eb"/>
            <text x="27" y="13" class="badge" text-anchor="middle" font-size="10">FR-015</text>
          </a>
          <a href="https://github.com/TortoiseWolfe/ScriptHammer/blob/main/features/foundation/002-cookie-consent/spec.md#functional-requirements" target="_blank">
            <rect x="60" y="0" width="55" height="18" rx="3" fill="#2563eb"/>
            <text x="87" y="13" class="badge" text-anchor="middle" font-size="10">FR-009</text>
          </a>
        </g>

        <!-- SC-003 -->
        <g transform="translate(400, 55)">
          <a href="https://github.com/TortoiseWolfe/ScriptHammer/blob/main/features/foundation/002-cookie-consent/spec.md#success-criteria-mandatory" target="_blank">
            <rect x="0" y="0" width="55" height="18" rx="3" fill="#ea580c"/>
            <text x="27" y="13" class="badge" text-anchor="middle" font-size="10">SC-003</text>
          </a>
          <text x="65" y="13" class="text-muted">Zero data loss</text>
        </g>
      </g>

      <!-- Data Export -->
      <g transform="translate(0, 145)">
        <rect width="620" height="130" rx="8" fill="#dcc8a8" stroke="#b8a080"/>
        <text x="20" y="30" class="heading-sm">Export Your Data</text>
        <text x="20" y="52" class="text-sm">Download all data we have stored about you. Includes:</text>
        <text x="20" y="72" class="text-muted">• Consent preferences and history</text>
        <text x="20" y="90" class="text-muted">• Locally persisted settings and form data</text>

        <!-- Export button -->
        <rect x="20" y="100" width="180" height="44" rx="6" fill="#22c55e"/>
        <text x="110" y="128" text-anchor="middle" fill="#fff" font-family="system-ui, sans-serif" font-size="14px" font-weight="600">Export My Data</text>

        <!-- FR-016 + FR-018 -->
        <g transform="translate(400, 15)">
          <a href="https://github.com/TortoiseWolfe/ScriptHammer/blob/main/features/foundation/002-cookie-consent/spec.md#functional-requirements" target="_blank">
            <rect x="0" y="0" width="55" height="18" rx="3" fill="#2563eb"/>
            <text x="27" y="13" class="badge" text-anchor="middle" font-size="10">FR-016</text>
          </a>
          <a href="https://github.com/TortoiseWolfe/ScriptHammer/blob/main/features/foundation/002-cookie-consent/spec.md#functional-requirements" target="_blank">
            <rect x="60" y="0" width="55" height="18" rx="3" fill="#2563eb"/>
            <text x="87" y="13" class="badge" text-anchor="middle" font-size="10">FR-018</text>
          </a>
        </g>

        <!-- SC-005 -->
        <g transform="translate(400, 55)">
          <a href="https://github.com/TortoiseWolfe/ScriptHammer/blob/main/features/foundation/002-cookie-consent/spec.md#success-criteria-mandatory" target="_blank">
            <rect x="0" y="0" width="55" height="18" rx="3" fill="#ea580c"/>
            <text x="27" y="13" class="badge" text-anchor="middle" font-size="10">SC-005</text>
          </a>
          <text x="65" y="13" class="text-muted">Completes in &lt;5s</text>
        </g>
      </g>

      <!-- Data Deletion -->
      <g transform="translate(0, 295)">
        <rect width="620" height="130" rx="8" fill="#dcc8a8" stroke="#b8a080"/>
        <text x="20" y="30" class="heading-sm">Delete Your Data</text>
        <text x="20" y="52" class="text-sm">Remove all locally stored data. This action:</text>
        <text x="20" y="72" class="text-muted">• Clears all preferences and consent history</text>
        <text x="20" y="90" class="text-muted">• Treats you as a first-time visitor on next visit</text>

        <!-- Delete button -->
        <rect x="20" y="100" width="180" height="44" rx="6" fill="#dc2626"/>
        <text x="110" y="128" text-anchor="middle" fill="#fff" font-family="system-ui, sans-serif" font-size="14px" font-weight="600">Delete All Data</text>

        <!-- FR-017 -->
        <g transform="translate(400, 15)">
          <a href="https://github.com/TortoiseWolfe/ScriptHammer/blob/main/features/foundation/002-cookie-consent/spec.md#functional-requirements" target="_blank">
            <rect x="0" y="0" width="55" height="18" rx="3" fill="#2563eb"/>
            <text x="27" y="13" class="badge" text-anchor="middle" font-size="10">FR-017</text>
          </a>
          <text x="65" y="13" class="text-muted">Right to erasure</text>
        </g>
      </g>
    </g>

    <!-- Consent Versioning Info -->
    <g transform="translate(60, 660)">
      <rect width="1280" height="60" rx="8" fill="#dcc8a8" stroke="#b8a080"/>
      <text x="20" y="25" class="heading-sm">Consent Versioning</text>
      <text x="20" y="45" class="text-sm">When our privacy policy changes, you will be prompted to review and update your preferences.</text>

      <g transform="translate(900, 10)">
        <a href="https://github.com/TortoiseWolfe/ScriptHammer/blob/main/features/foundation/002-cookie-consent/spec.md#functional-requirements" target="_blank">
          <rect x="0" y="0" width="55" height="18" rx="3" fill="#2563eb"/>
          <text x="27" y="13" class="badge" text-anchor="middle" font-size="10">FR-013</text>
        </a>
        <a href="https://github.com/TortoiseWolfe/ScriptHammer/blob/main/features/foundation/002-cookie-consent/spec.md#functional-requirements" target="_blank">
          <rect x="60" y="0" width="55" height="18" rx="3" fill="#2563eb"/>
          <text x="87" y="13" class="badge" text-anchor="middle" font-size="10">FR-014</text>
        </a>
        <a href="https://github.com/TortoiseWolfe/ScriptHammer/blob/main/features/foundation/002-cookie-consent/spec.md#success-criteria-mandatory" target="_blank">
          <rect x="120" y="0" width="55" height="18" rx="3" fill="#ea580c"/>
          <text x="147" y="13" class="badge" text-anchor="middle" font-size="10">SC-008</text>
        </a>
      </g>
    </g>

    <!-- Footer link indicator -->
    <g transform="translate(60, 740)">
      <rect width="400" height="40" rx="6" fill="#f5f0e6" stroke="#b8a080"/>
      <text x="20" y="26" class="text-sm">🔗 This page is always accessible via the footer "Privacy Settings" link</text>

      <a href="https://github.com/TortoiseWolfe/ScriptHammer/blob/main/features/foundation/002-cookie-consent/spec.md#functional-requirements" target="_blank">
        <rect x="320" y="10" width="55" height="20" rx="3" fill="#2563eb"/>
        <text x="347" y="24" class="badge" text-anchor="middle">FR-011</text>
      </a>
    </g>

    <!-- SC-004 indicator -->
    <g transform="translate(480, 740)">
      <rect width="300" height="40" rx="6" fill="#f5f0e6" stroke="#b8a080"/>
      <a href="https://github.com/TortoiseWolfe/ScriptHammer/blob/main/features/foundation/002-cookie-consent/spec.md#success-criteria-mandatory" target="_blank">
        <rect x="15" y="10" width="55" height="20" rx="3" fill="#ea580c"/>
        <text x="42" y="24" class="badge" text-anchor="middle">SC-004</text>
      </a>
      <text x="80" y="26" class="text-sm">Accessible within 2 clicks from any page</text>
    </g>
  </g>

  <!-- MOBILE SECTION -->
  <text x="1500" y="52" class="label-mobile">MOBILE</text>
  <g id="mobile-view" transform="translate(1500, 60)">
    <rect x="0" y="0" width="360" height="700" rx="24" fill="#c8b898" stroke="#a08860" stroke-width="2"/>
    <rect x="10" y="10" width="340" height="680" rx="16" fill="#e8d4b8"/>

    <!-- Mobile Header -->
    <g transform="translate(10, 10)">
      <rect width="340" height="28" rx="16" fill="#dcc8a8"/>
      <text x="20" y="18" fill="#374151" font-family="system-ui, sans-serif" font-size="14px" font-weight="500">9:41</text>
      <g transform="translate(260, 4)">
        <g transform="scale(0.667)">
          <path fill="#1a1a2e" d="M5.636 4.575a.75.75 0 0 1 0 1.061 9 9 0 0 0 0 12.728.75.75 0 1 1-1.06 1.06c-4.101-4.1-4.101-10.748 0-14.849a.75.75 0 0 1 1.06 0Z"/>
        </g>
        <g transform="translate(20, 0) scale(0.667)">
          <path fill="#1a1a2e" fill-rule="evenodd" clip-rule="evenodd" d="M.75 9.75a3 3 0 0 1 3-3h15a3 3 0 0 1 3 3v.038c.856.173 1.5.93 1.5 1.837v.75c0 .907-.644 1.664-1.5 1.838v.037a3 3 0 0 1-3 3h-15a3 3 0 0 1-3-3v-4.5Z"/>
        </g>
      </g>
    </g>

    <!-- Mobile Header Bar -->
    <g transform="translate(10, 38)">
      <rect width="340" height="50" rx="0" fill="#dcc8a8" stroke="#b8a080"/>
      <rect x="3" y="3" width="44" height="44" rx="4" fill="transparent"/>
      <g transform="translate(13, 13)">
        <path fill="#2d3748" fill-rule="evenodd" clip-rule="evenodd" d="M3 6.75A.75.75 0 0 1 3.75 6h16.5a.75.75 0 0 1 0 1.5H3.75A.75.75 0 0 1 3 6.75ZM3 12a.75.75 0 0 1 .75-.75h16.5a.75.75 0 0 1 0 1.5H3.75A.75.75 0 0 1 3 12Zm0 5.25a.75.75 0 0 1 .75-.75h16.5a.75.75 0 0 1 0 1.5H3.75a.75.75 0 0 1-.75-.75Z"/>
      </g>
      <text x="60" y="32" fill="#374151" font-family="system-ui, sans-serif" font-size="16px" font-weight="600">Privacy Settings</text>
    </g>

    <!-- Mobile Content Area -->
    <g transform="translate(20, 100)">
      <!-- Cookie Categories (compact) -->
      <text x="0" y="15" class="heading-sm">Cookie Preferences</text>

      <!-- Necessary -->
      <g transform="translate(0, 25)">
        <rect width="300" height="50" rx="6" fill="#dcc8a8" stroke="#b8a080"/>
        <text x="12" y="22" class="text-sm" font-weight="600">Necessary</text>
        <text x="12" y="40" class="text-muted" font-size="11">Required - cannot be disabled</text>
        <g transform="translate(250, 12)">
          <rect width="40" height="24" rx="12" class="toggle-always-on"/>
          <circle cx="28" cy="12" r="9" class="toggle-thumb"/>
        </g>
      </g>

      <!-- Functional -->
      <g transform="translate(0, 82)">
        <rect width="300" height="50" rx="6" fill="#dcc8a8" stroke="#b8a080"/>
        <text x="12" y="22" class="text-sm" font-weight="600">Functional</text>
        <text x="12" y="40" class="text-muted" font-size="11">Enhanced features</text>
        <g transform="translate(250, 12)">
          <rect width="40" height="24" rx="12" class="toggle-on"/>
          <circle cx="28" cy="12" r="9" class="toggle-thumb"/>
        </g>
      </g>

      <!-- Analytics -->
      <g transform="translate(0, 139)">
        <rect width="300" height="50" rx="6" fill="#dcc8a8" stroke="#b8a080"/>
        <text x="12" y="22" class="text-sm" font-weight="600">Analytics</text>
        <text x="12" y="40" class="text-muted" font-size="11">Usage statistics</text>
        <g transform="translate(250, 12)">
          <rect width="40" height="24" rx="12" class="toggle-off"/>
          <circle cx="12" cy="12" r="9" class="toggle-thumb"/>
        </g>
      </g>

      <!-- Marketing -->
      <g transform="translate(0, 196)">
        <rect width="300" height="50" rx="6" fill="#dcc8a8" stroke="#b8a080"/>
        <text x="12" y="22" class="text-sm" font-weight="600">Marketing</text>
        <text x="12" y="40" class="text-muted" font-size="11">Personalized ads</text>
        <g transform="translate(250, 12)">
          <rect width="40" height="24" rx="12" class="toggle-off"/>
          <circle cx="12" cy="12" r="9" class="toggle-thumb"/>
        </g>
      </g>

      <!-- Save button -->
      <rect x="0" y="260" width="300" height="44" rx="6" fill="#8b5cf6"/>
      <text x="150" y="288" text-anchor="middle" fill="#fff" font-family="system-ui, sans-serif" font-size="14px" font-weight="600">Save Preferences</text>

      <!-- Data Rights section -->
      <text x="0" y="330" class="heading-sm">Your Data Rights</text>

      <!-- Export button -->
      <rect x="0" y="345" width="145" height="44" rx="6" fill="#22c55e"/>
      <text x="72" y="373" text-anchor="middle" fill="#fff" font-family="system-ui, sans-serif" font-size="12px" font-weight="600">Export Data</text>

      <!-- Delete button -->
      <rect x="155" y="345" width="145" height="44" rx="6" fill="#dc2626"/>
      <text x="227" y="373" text-anchor="middle" fill="#fff" font-family="system-ui, sans-serif" font-size="12px" font-weight="600">Delete Data</text>

      <!-- Mobile requirement badges -->
      <g transform="translate(0, 405)">
        <text x="0" y="12" class="text-muted">Requirements:</text>
        <g transform="translate(0, 20)">
          <a href="https://github.com/TortoiseWolfe/ScriptHammer/blob/main/features/foundation/002-cookie-consent/spec.md#functional-requirements" target="_blank">
            <rect x="0" y="0" width="48" height="16" rx="3" fill="#2563eb"/>
            <text x="24" y="12" class="badge" text-anchor="middle" font-size="9">FR-010</text>
          </a>
          <a href="https://github.com/TortoiseWolfe/ScriptHammer/blob/main/features/foundation/002-cookie-consent/spec.md#functional-requirements" target="_blank">
            <rect x="52" y="0" width="48" height="16" rx="3" fill="#2563eb"/>
            <text x="76" y="12" class="badge" text-anchor="middle" font-size="9">FR-016</text>
          </a>
          <a href="https://github.com/TortoiseWolfe/ScriptHammer/blob/main/features/foundation/002-cookie-consent/spec.md#functional-requirements" target="_blank">
            <rect x="104" y="0" width="48" height="16" rx="3" fill="#2563eb"/>
            <text x="128" y="12" class="badge" text-anchor="middle" font-size="9">FR-017</text>
          </a>
        </g>
        <g transform="translate(0, 42)">
          <a href="https://github.com/TortoiseWolfe/ScriptHammer/blob/main/features/foundation/002-cookie-consent/spec.md#success-criteria-mandatory" target="_blank">
            <rect x="0" y="0" width="48" height="16" rx="3" fill="#ea580c"/>
            <text x="24" y="12" class="badge" text-anchor="middle" font-size="9">SC-004</text>
          </a>
          <a href="https://github.com/TortoiseWolfe/ScriptHammer/blob/main/features/foundation/002-cookie-consent/spec.md#success-criteria-mandatory" target="_blank">
            <rect x="52" y="0" width="48" height="16" rx="3" fill="#ea580c"/>
            <text x="76" y="12" class="badge" text-anchor="middle" font-size="9">SC-005</text>
          </a>
        </g>
      </g>
    </g>

    <!-- Mobile Bottom Nav -->
    <g transform="translate(10, 634)">
      <path d="M 0 0 L 340 0 L 340 40 A 16 16 0 0 1 324 56 L 16 56 A 16 16 0 0 1 0 40 Z" fill="#dcc8a8" stroke="#b8a080"/>
      <!-- Home -->
      <g transform="translate(0, 0)">
        <path d="M 0 0 L 85 0 L 85 56 L 16 56 A 16 16 0 0 1 0 40 L 0 0 Z" fill="transparent"/>
        <g transform="translate(30, 6)">
          <path fill="#1a1a2e" d="M11.47 3.841a.75.75 0 0 1 1.06 0l8.69 8.69a.75.75 0 1 0 1.06-1.061l-8.689-8.69a2.25 2.25 0 0 0-3.182 0l-8.69 8.69a.75.75 0 1 0 1.061 1.06l8.69-8.689Z"/>
          <path fill="#1a1a2e" d="m12 5.432 8.159 8.159c.03.03.06.058.091.086v6.198c0 1.035-.84 1.875-1.875 1.875H15a.75.75 0 0 1-.75-.75v-4.5a.75.75 0 0 0-.75-.75h-3a.75.75 0 0 0-.75.75V21a.75.75 0 0 1-.75.75H5.625a1.875 1.875 0 0 1-1.875-1.875v-6.198a2.29 2.29 0 0 0 .091-.086L12 5.432Z"/>
        </g>
        <text x="42" y="44" text-anchor="middle" fill="#4b5563" font-family="system-ui, sans-serif" font-size="11px">Home</text>
      </g>
      <!-- Features -->
      <g transform="translate(85, 0)">
        <rect width="85" height="56" fill="transparent"/>
        <g transform="translate(30, 6)">
          <path fill="#1a1a2e" d="M14.6152 1.59492C14.9164 1.76287 15.0643 2.1146 14.9736 2.44734L12.9819 9.75H20.25C20.5486 9.75 20.8188 9.92718 20.9378 10.2011C21.0569 10.475 21.0021 10.7934 20.7983 11.0117L10.2983 22.2617C10.063 22.5139 9.68601 22.573 9.38478 22.4051C9.08354 22.2371 8.93567 21.8854 9.02641 21.5527L11.018 14.25H3.74999C3.45134 14.25 3.18115 14.0728 3.06213 13.7989C2.9431 13.525 2.99792 13.2066 3.20169 12.9883L13.7017 1.73826C13.937 1.48613 14.314 1.42698 14.6152 1.59492Z"/>
        </g>
        <text x="42" y="44" text-anchor="middle" fill="#4b5563" font-family="system-ui, sans-serif" font-size="11px">Features</text>
      </g>
      <!-- Docs -->
      <g transform="translate(170, 0)">
        <rect width="85" height="56" fill="transparent"/>
        <g transform="translate(30, 6)">
          <path fill="#1a1a2e" d="M5.625 1.5C4.58947 1.5 3.75 2.33947 3.75 3.375V20.625C3.75 21.6605 4.58947 22.5 5.625 22.5H18.375C19.4105 22.5 20.25 21.6605 20.25 20.625V12.75C20.25 10.6789 18.5711 9 16.5 9H14.625C13.5895 9 12.75 8.16053 12.75 7.125V5.25C12.75 3.17893 11.0711 1.5 9 1.5H5.625Z"/>
        </g>
        <text x="42" y="44" text-anchor="middle" fill="#4b5563" font-family="system-ui, sans-serif" font-size="11px">Docs</text>
      </g>
      <!-- Account (active) -->
      <g transform="translate(255, 0)">
        <path d="M 0 0 L 85 0 L 85 40 A 16 16 0 0 1 69 56 L 0 56 L 0 0 Z" fill="#8b5cf6"/>
        <g transform="translate(30, 6)">
          <path fill="#fff" fill-rule="evenodd" clip-rule="evenodd" d="M7.5 6a4.5 4.5 0 1 1 9 0 4.5 4.5 0 0 1-9 0ZM3.751 20.105a8.25 8.25 0 0 1 16.498 0 .75.75 0 0 1-.437.695A18.683 18.683 0 0 1 12 22.5c-2.786 0-5.433-.608-7.812-1.7a.75.75 0 0 1-.437-.695Z"/>
        </g>
        <text x="42" y="44" text-anchor="middle" fill="#fff" font-family="system-ui, sans-serif" font-size="11px" font-weight="600">Account</text>
      </g>
    </g>
  </g>

  <!-- REQUIREMENTS KEY -->
  <g id="requirements-legend" transform="translate(40, 920)">
    <rect width="1840" height="70" rx="6" fill="#dcc8a8" stroke="#b8a080"/>
    <text x="20" y="18" class="legend-header">REQUIREMENTS KEY</text>

    <!-- Row 1: FR codes -->
    <g transform="translate(20, 38)">
      <a href="https://github.com/TortoiseWolfe/ScriptHammer/blob/main/features/foundation/002-cookie-consent/spec.md#functional-requirements" target="_blank">
        <rect x="0" y="-12" width="55" height="20" rx="3" fill="#2563eb"/>
        <text x="27" y="2" class="badge" text-anchor="middle">FR-010</text>
      </a>
      <text x="60" y="2" class="legend-text">Provide accessible privacy settings page for preference management</text>

      <a href="https://github.com/TortoiseWolfe/ScriptHammer/blob/main/features/foundation/002-cookie-consent/spec.md#functional-requirements" target="_blank">
        <rect x="540" y="-12" width="55" height="20" rx="3" fill="#2563eb"/>
        <text x="567" y="2" class="badge" text-anchor="middle">FR-016</text>
      </a>
      <text x="600" y="2" class="legend-text">Provide data export functionality (GDPR Right of Access)</text>

      <a href="https://github.com/TortoiseWolfe/ScriptHammer/blob/main/features/foundation/002-cookie-consent/spec.md#functional-requirements" target="_blank">
        <rect x="1000" y="-12" width="55" height="20" rx="3" fill="#2563eb"/>
        <text x="1027" y="2" class="badge" text-anchor="middle">FR-017</text>
      </a>
      <text x="1060" y="2" class="legend-text">Provide data deletion request functionality (Right to Erasure)</text>

      <a href="https://github.com/TortoiseWolfe/ScriptHammer/blob/main/features/foundation/002-cookie-consent/spec.md#functional-requirements" target="_blank">
        <rect x="1480" y="-12" width="55" height="20" rx="3" fill="#2563eb"/>
        <text x="1507" y="2" class="badge" text-anchor="middle">FR-011</text>
      </a>
      <text x="1540" y="2" class="legend-text">Persistent footer link</text>
    </g>

    <!-- Row 2: SC codes -->
    <g transform="translate(20, 60)">
      <a href="https://github.com/TortoiseWolfe/ScriptHammer/blob/main/features/foundation/002-cookie-consent/spec.md#success-criteria-mandatory" target="_blank">
        <rect x="0" y="-12" width="55" height="20" rx="3" fill="#ea580c"/>
        <text x="27" y="2" class="badge" text-anchor="middle">SC-003</text>
      </a>
      <text x="60" y="2" class="legend-text">User preferences persist with zero data loss across browser sessions</text>

      <a href="https://github.com/TortoiseWolfe/ScriptHammer/blob/main/features/foundation/002-cookie-consent/spec.md#success-criteria-mandatory" target="_blank">
        <rect x="540" y="-12" width="55" height="20" rx="3" fill="#ea580c"/>
        <text x="567" y="2" class="badge" text-anchor="middle">SC-004</text>
      </a>
      <text x="600" y="2" class="legend-text">Privacy settings accessible within 2 clicks from any page</text>

      <a href="https://github.com/TortoiseWolfe/ScriptHammer/blob/main/features/foundation/002-cookie-consent/spec.md#success-criteria-mandatory" target="_blank">
        <rect x="1000" y="-12" width="55" height="20" rx="3" fill="#ea580c"/>
        <text x="1027" y="2" class="badge" text-anchor="middle">SC-005</text>
      </a>
      <text x="1060" y="2" class="legend-text">Data export completes within 5 seconds for typical data volumes</text>

      <a href="https://github.com/TortoiseWolfe/ScriptHammer/blob/main/features/foundation/002-cookie-consent/spec.md#success-criteria-mandatory" target="_blank">
        <rect x="1480" y="-12" width="55" height="20" rx="3" fill="#ea580c"/>
        <text x="1507" y="2" class="badge" text-anchor="middle">SC-008</text>
      </a>
      <text x="1540" y="2" class="legend-text">No data corruption</text>
    </g>
  </g>

  <!-- Footer -->
  <text x="60" y="1050" text-anchor="start" class="text-muted">002:02 | Privacy Settings &amp; Data Rights | ScriptHammer</text>
</svg>
