<svg xmlns="http://www.w3.org/2000/svg" viewBox="0 0 1400 800" width="1400" height="800">
  <!-- ============================================================
       GENERATED BY: /wireframe skill
       SOURCE: features/foundation/002-cookie-consent/spec.md
       DATE: 2026-01-01
       THEME: Light (UX/Frontend) - v3 True Parchment
       DO NOT MANUALLY EDIT - Regenerate with /wireframe command
       ============================================================ -->
  <defs>
    <linearGradient id="bgGrad" x1="0%" y1="0%" x2="100%" y2="100%">
      <stop offset="0%" style="stop-color:#c7ddf5"/>
      <stop offset="100%" style="stop-color:#b8d4f0"/>
    </linearGradient>
    <linearGradient id="accentGrad" x1="0%" y1="0%" x2="100%" y2="0%">
      <stop offset="0%" style="stop-color:#8b5cf6"/>
      <stop offset="100%" style="stop-color:#d946ef"/>
    </linearGradient>
    <style>
      .heading-lg { fill: #1a1a2e; font-family: system-ui, sans-serif; font-size: 24px; font-weight: 800; }
      .heading { fill: #1a1a2e; font-family: system-ui, sans-serif; font-size: 16px; font-weight: 700; }
      .heading-sm { fill: #1a1a2e; font-family: system-ui, sans-serif; font-size: 14px; font-weight: 700; }
      .text-md { fill: #2d3748; font-family: system-ui, sans-serif; font-size: 14px; font-weight: 500; }
      .text-sm { fill: #4a5568; font-family: system-ui, sans-serif; font-size: 12px; font-weight: 500; }
      .text-muted { fill: #5a6577; font-family: system-ui, sans-serif; font-size: 11px; font-weight: 500; }
      .annotation { fill: #8b5cf6; font-family: monospace; font-size: 12px; font-weight: 600; }
      .label-desktop { fill: #8b5cf6; font-family: monospace; font-size: 13px; font-weight: bold; }
      .label-mobile { fill: #d946ef; font-family: monospace; font-size: 13px; font-weight: bold; }
    </style>
  </defs>

  <!-- Background -->
  <rect width="1400" height="800" fill="url(#bgGrad)"/>

  <!-- Dot grid pattern -->
  <g opacity="0.35">
    <pattern id="dots" width="30" height="30" patternUnits="userSpaceOnUse">
      <circle cx="15" cy="15" r="1" fill="#6b8cba"/>
    </pattern>
    <rect width="1400" height="800" fill="url(#dots)"/>
  </g>

  <!-- Accent line top -->
  <rect x="0" y="0" width="1400" height="3" fill="url(#accentGrad)"/>

  <!-- Title -->
  <text x="700" y="28" text-anchor="middle" font-family="system-ui, sans-serif" font-size="14" font-weight="600" fill="#5a6577" letter-spacing="1">PRIVACY SETTINGS PAGE - PREFERENCE MANAGEMENT</text>

  <!-- DESKTOP SECTION -->
  <text x="40" y="52" class="label-desktop">DESKTOP</text>

  <g id="desktop-view">
    <!-- Sidebar -->
    <rect x="40" y="60" width="200" height="680" rx="8" fill="#e8d4b8" stroke="#b8a080" stroke-width="1"/>

    <!-- Logo -->
    <rect x="55" y="75" width="170" height="40" rx="6" fill="#dcc8a8"/>
    <text x="140" y="100" text-anchor="middle" class="heading-sm">ScriptHammer</text>

    <!-- Nav items -->
    <text x="70" y="145" class="text-sm">Dashboard</text>
    <text x="70" y="175" class="text-sm">Profile</text>
    <text x="70" y="205" class="text-sm">Settings</text>

    <rect x="55" y="225" width="170" height="36" rx="6" fill="#8b5cf6"/>
    <text x="140" y="248" text-anchor="middle" fill="#fff" font-family="system-ui" font-size="13" font-weight="600">Privacy</text>

    <text x="70" y="290" class="text-sm">Notifications</text>
    <text x="70" y="320" class="text-sm">Account</text>

    <!-- Footer link annotation -->
    <rect x="55" y="680" width="170" height="45" rx="6" fill="#dcc8a8"/>
    <text x="140" y="700" text-anchor="middle" class="text-muted">🔒 Privacy Settings</text>
    <text x="140" y="715" text-anchor="middle" class="text-muted">(Footer link)</text>

    <!-- Main Content Area -->
    <rect x="250" y="60" width="440" height="680" rx="8" fill="#e8d4b8" stroke="#b8a080" stroke-width="1"/>

    <!-- Page Header -->
    <text x="270" y="95" class="heading-lg">Privacy Settings</text>
    <text x="270" y="120" class="text-md">Manage your cookie preferences and data rights</text>

    <!-- Current Consent Status -->
    <text x="270" y="160" class="heading-sm">Current Consent Status</text>

    <rect x="270" y="175" width="400" height="130" rx="6" fill="#f5f0e6" stroke="#b8a080"/>

    <!-- Status Table Header -->
    <rect x="270" y="175" width="400" height="28" rx="6" fill="#dcc8a8"/>
    <text x="290" y="194" class="text-muted">CATEGORY</text>
    <text x="480" y="194" class="text-muted">STATUS</text>
    <text x="580" y="194" class="text-muted">ACTION</text>

    <!-- Necessary -->
    <text x="290" y="225" class="text-sm">Necessary</text>
    <rect x="470" y="210" width="60" height="22" rx="4" fill="#22c55e"/>
    <text x="500" y="225" text-anchor="middle" fill="#fff" font-size="10">Enabled</text>
    <text x="590" y="225" class="text-muted">Required</text>

    <!-- Functional -->
    <text x="290" y="255" class="text-sm">Functional</text>
    <rect x="470" y="240" width="60" height="22" rx="4" fill="#22c55e"/>
    <text x="500" y="255" text-anchor="middle" fill="#fff" font-size="10">Enabled</text>
    <rect x="565" y="243" width="40" height="20" rx="10" fill="#22c55e"/>
    <circle cx="595" cy="253" r="7" fill="#fff"/>

    <!-- Analytics -->
    <text x="290" y="285" class="text-sm">Analytics</text>
    <rect x="470" y="270" width="60" height="22" rx="4" fill="#ef4444"/>
    <text x="500" y="285" text-anchor="middle" fill="#fff" font-size="10">Disabled</text>
    <rect x="565" y="273" width="40" height="20" rx="10" fill="#dcc8a8" stroke="#b8a080"/>
    <circle cx="575" cy="283" r="7" fill="#fff"/>

    <!-- Marketing -->
    <text x="290" y="315" class="text-sm">Marketing</text>
    <rect x="470" y="300" width="60" height="22" rx="4" fill="#ef4444"/>
    <text x="500" y="315" text-anchor="middle" fill="#fff" font-size="10">Disabled</text>
    <rect x="565" y="303" width="40" height="20" rx="10" fill="#dcc8a8" stroke="#b8a080"/>
    <circle cx="575" cy="313" r="7" fill="#fff"/>

    <!-- Save Button -->
    <rect x="510" y="340" width="140" height="36" rx="6" fill="#8b5cf6"/>
    <text x="580" y="363" text-anchor="middle" fill="#fff" font-size="12" font-weight="600">Save Changes</text>

    <!-- Consent History -->
    <text x="270" y="410" class="heading-sm">Consent History</text>

    <rect x="270" y="425" width="400" height="80" rx="6" fill="#f5f0e6" stroke="#b8a080"/>
    <text x="290" y="450" class="text-sm">Last updated: January 1, 2026 at 10:30 AM</text>
    <text x="290" y="470" class="text-sm">Consent version: 1.0.0</text>
    <text x="290" y="490" class="text-muted">You will be re-prompted if the privacy policy changes.</text>

    <!-- GDPR Data Rights Section -->
    <text x="270" y="535" class="heading-sm">Your Data Rights (GDPR)</text>

    <!-- Data Export -->
    <rect x="270" y="550" width="195" height="90" rx="6" fill="#f5f0e6" stroke="#b8a080"/>
    <text x="290" y="575" class="heading-sm">📥 Data Export</text>
    <text x="290" y="595" class="text-muted">Download all your data</text>
    <rect x="285" y="605" width="120" height="28" rx="4" fill="#e8d4b8" stroke="#b8a080"/>
    <text x="345" y="623" text-anchor="middle" class="text-sm">Export Data</text>

    <!-- Data Deletion -->
    <rect x="475" y="550" width="195" height="90" rx="6" fill="#f5f0e6" stroke="#ef4444"/>
    <text x="495" y="575" class="heading-sm">🗑️ Data Deletion</text>
    <text x="495" y="595" class="text-muted">Request data removal</text>
    <rect x="490" y="605" width="120" height="28" rx="4" fill="#fee2e2" stroke="#ef4444"/>
    <text x="550" y="623" text-anchor="middle" class="text-sm" fill="#ef4444">Delete Data</text>

    <!-- Info box -->
    <rect x="270" y="655" width="400" height="70" rx="6" fill="#dcc8a8" stroke="#b8a080"/>
    <text x="290" y="680" class="text-sm">ℹ️ Data export includes: consent history, preferences,</text>
    <text x="290" y="698" class="text-sm">and any locally stored information. Completes in &lt;5s.</text>
    <text x="290" y="716" class="text-muted">FR-016, FR-017, FR-018</text>

    <!-- Detail Panel -->
    <rect x="700" y="60" width="240" height="680" rx="8" fill="#e8d4b8" stroke="#b8a080" stroke-width="1"/>

    <text x="720" y="95" class="heading-sm">Quick Actions</text>

    <!-- Reset to Defaults -->
    <rect x="715" y="110" width="210" height="44" rx="6" fill="#f5f0e6" stroke="#b8a080"/>
    <text x="820" y="137" text-anchor="middle" class="text-sm">↺ Reset to Defaults</text>

    <!-- Accept All -->
    <rect x="715" y="165" width="210" height="44" rx="6" fill="#f5f0e6" stroke="#b8a080"/>
    <text x="820" y="192" text-anchor="middle" class="text-sm">✓ Accept All Cookies</text>

    <!-- Reject All -->
    <rect x="715" y="220" width="210" height="44" rx="6" fill="#f5f0e6" stroke="#b8a080"/>
    <text x="820" y="247" text-anchor="middle" class="text-sm">✕ Reject All Optional</text>

    <!-- Divider -->
    <line x1="715" y1="290" x2="925" y2="290" stroke="#b8a080" stroke-width="1"/>

    <!-- Info Section -->
    <text x="720" y="320" class="heading-sm">About Cookies</text>

    <text x="720" y="350" class="text-sm">Necessary cookies are</text>
    <text x="720" y="368" class="text-sm">required for the site to</text>
    <text x="720" y="386" class="text-sm">function properly.</text>

    <text x="720" y="420" class="text-sm">Functional cookies</text>
    <text x="720" y="438" class="text-sm">remember your choices.</text>

    <text x="720" y="472" class="text-sm">Analytics cookies help</text>
    <text x="720" y="490" class="text-sm">us improve the site.</text>

    <text x="720" y="524" class="text-sm">Marketing cookies are</text>
    <text x="720" y="542" class="text-sm">used for advertising.</text>

    <!-- Divider -->
    <line x1="715" y1="570" x2="925" y2="570" stroke="#b8a080" stroke-width="1"/>

    <!-- Legal Links -->
    <text x="720" y="600" class="heading-sm">Legal</text>

    <text x="720" y="630" class="annotation">Privacy Policy →</text>
    <text x="720" y="655" class="annotation">Cookie Policy →</text>
    <text x="720" y="680" class="annotation">Terms of Service →</text>

    <text x="720" y="720" class="text-muted">Questions? Contact our</text>
    <text x="720" y="735" class="text-muted">Data Protection Officer</text>
  </g>

  <!-- MOBILE SECTION -->
  <text x="980" y="52" class="label-mobile">MOBILE</text>

  <g id="mobile-view" transform="translate(980, 60)">
    <!-- Phone frame -->
    <rect x="0" y="0" width="360" height="700" rx="24" fill="#c8b898" stroke="#a08860" stroke-width="2"/>
    <rect x="10" y="10" width="340" height="680" rx="16" fill="#e8d4b8"/>

    <!-- Status bar -->
    <rect x="10" y="10" width="340" height="28" rx="16" fill="#dcc8a8"/>
    <text x="30" y="28" class="text-sm">9:41</text>
    <text x="310" y="28" text-anchor="end" class="text-sm">100%</text>

    <!-- Header -->
    <rect x="10" y="38" width="340" height="50" fill="#8b5cf6"/>
    <text x="25" y="55" fill="rgba(255,255,255,0.8)" font-size="12">←</text>
    <text x="60" y="68" fill="#fff" font-family="system-ui" font-size="16" font-weight="700">Privacy Settings</text>

    <!-- Content -->
    <text x="25" y="115" class="heading-sm">Cookie Preferences</text>

    <!-- Necessary -->
    <rect x="25" y="130" width="310" height="50" rx="6" fill="#f5f0e6" stroke="#22c55e"/>
    <text x="40" y="152" class="text-sm" font-weight="600">Necessary</text>
    <text x="40" y="170" class="text-muted">Required</text>
    <rect x="275" y="143" width="44" height="24" rx="12" fill="#22c55e"/>
    <circle cx="307" cy="155" r="9" fill="#fff"/>

    <!-- Functional -->
    <rect x="25" y="190" width="310" height="50" rx="6" fill="#f5f0e6" stroke="#b8a080"/>
    <text x="40" y="212" class="text-sm" font-weight="600">Functional</text>
    <text x="40" y="230" class="text-muted">Preferences</text>
    <rect x="275" y="203" width="44" height="24" rx="12" fill="#22c55e"/>
    <circle cx="307" cy="215" r="9" fill="#fff"/>

    <!-- Analytics -->
    <rect x="25" y="250" width="310" height="50" rx="6" fill="#f5f0e6" stroke="#b8a080"/>
    <text x="40" y="272" class="text-sm" font-weight="600">Analytics</text>
    <text x="40" y="290" class="text-muted">Usage data</text>
    <rect x="275" y="263" width="44" height="24" rx="12" fill="#dcc8a8" stroke="#b8a080"/>
    <circle cx="287" cy="275" r="9" fill="#fff"/>

    <!-- Marketing -->
    <rect x="25" y="310" width="310" height="50" rx="6" fill="#f5f0e6" stroke="#b8a080"/>
    <text x="40" y="332" class="text-sm" font-weight="600">Marketing</text>
    <text x="40" y="350" class="text-muted">Advertising</text>
    <rect x="275" y="323" width="44" height="24" rx="12" fill="#dcc8a8" stroke="#b8a080"/>
    <circle cx="287" cy="335" r="9" fill="#fff"/>

    <!-- Save Button -->
    <rect x="25" y="375" width="310" height="44" rx="6" fill="#8b5cf6"/>
    <text x="180" y="402" text-anchor="middle" fill="#fff" font-size="14" font-weight="600">Save Preferences</text>

    <!-- Divider -->
    <line x1="25" y1="440" x2="335" y2="440" stroke="#b8a080" stroke-width="1"/>

    <!-- Data Rights -->
    <text x="25" y="470" class="heading-sm">Your Data Rights</text>

    <!-- Export -->
    <rect x="25" y="485" width="150" height="70" rx="6" fill="#f5f0e6" stroke="#b8a080"/>
    <text x="100" y="510" text-anchor="middle" class="text-sm" font-weight="600">📥 Export</text>
    <rect x="40" y="520" width="120" height="28" rx="4" fill="#e8d4b8" stroke="#b8a080"/>
    <text x="100" y="539" text-anchor="middle" class="text-muted">Download</text>

    <!-- Delete -->
    <rect x="185" y="485" width="150" height="70" rx="6" fill="#f5f0e6" stroke="#ef4444"/>
    <text x="260" y="510" text-anchor="middle" class="text-sm" font-weight="600">🗑️ Delete</text>
    <rect x="200" y="520" width="120" height="28" rx="4" fill="#fee2e2" stroke="#ef4444"/>
    <text x="260" y="539" text-anchor="middle" class="text-muted" fill="#ef4444">Request</text>

    <!-- Consent Info -->
    <rect x="25" y="570" width="310" height="60" rx="6" fill="#dcc8a8"/>
    <text x="40" y="595" class="text-muted">Consent v1.0.0</text>
    <text x="40" y="615" class="text-muted">Updated: Jan 1, 2026</text>

    <!-- Footer Links -->
    <text x="180" y="655" text-anchor="middle" class="annotation">Privacy Policy</text>
    <text x="180" y="675" text-anchor="middle" class="text-muted">Cookie Policy • Terms</text>
  </g>

  <!-- Footer -->
  <text x="700" y="780" text-anchor="middle" class="text-muted">Privacy Settings Page • Feature 002 • ScriptHammer</text>
</svg>
