<svg xmlns="http://www.w3.org/2000/svg" viewBox="0 0 1400 800" width="1400" height="800">
  <!-- ============================================================
       GENERATED BY: /wireframe skill
       SOURCE: features/code-quality/045-disqus-theme/spec.md
       DATE: 2025-12-31
       DO NOT MANUALLY EDIT - Regenerate with /wireframe command
       ============================================================ -->
  <defs>
    <linearGradient id="bgGrad" x1="0%" y1="0%" x2="100%" y2="100%">
      <stop offset="0%" style="stop-color:#0f172a"/>
      <stop offset="100%" style="stop-color:#1e293b"/>
    </linearGradient>
    <linearGradient id="accentGrad" x1="0%" y1="0%" x2="100%" y2="0%">
      <stop offset="0%" style="stop-color:#8b5cf6"/>
      <stop offset="100%" style="stop-color:#d946ef"/>
    </linearGradient>
    <style>
      .heading-lg { fill: #ffffff; font-family: system-ui, sans-serif; font-size: 20px; font-weight: bold; }
      .heading { fill: #ffffff; font-family: system-ui, sans-serif; font-size: 14px; font-weight: bold; }
      .text-md { fill: #cbd5e1; font-family: system-ui, sans-serif; font-size: 12px; }
      .text-sm { fill: #94a3b8; font-family: system-ui, sans-serif; font-size: 10px; }
      .text-muted { fill: #64748b; font-family: system-ui, sans-serif; font-size: 10px; }
      .annotation { fill: #8b5cf6; font-family: monospace; font-size: 10px; }
      .label-light { fill: #fbbf24; font-family: monospace; font-size: 11px; font-weight: bold; }
      .label-dark { fill: #8b5cf6; font-family: monospace; font-size: 11px; font-weight: bold; }
    </style>
  </defs>

  <!-- Background -->
  <rect width="1400" height="800" fill="url(#bgGrad)"/>

  <!-- Dot grid pattern -->
  <g opacity="0.05">
    <pattern id="dots" width="30" height="30" patternUnits="userSpaceOnUse">
      <circle cx="15" cy="15" r="1" fill="#fff"/>
    </pattern>
    <rect width="1400" height="800" fill="url(#dots)"/>
  </g>

  <!-- Accent line top -->
  <rect x="0" y="0" width="1400" height="3" fill="url(#accentGrad)"/>

  <!-- Title -->
  <text x="700" y="32" text-anchor="middle" class="heading-lg">DISQUS THEME MAPPING SYSTEM</text>
  <text x="700" y="52" text-anchor="middle" class="text-muted">32 DaisyUI Themes → Disqus Color Schemes</text>

  <!-- LIGHT THEMES SECTION -->
  <text x="60" y="90" class="label-light">LIGHT THEMES (16)</text>

  <!-- Light themes grid (4 columns x 4 rows) -->
  <g id="light-themes">
    <!-- Row 1 -->
    <g transform="translate(60, 100)">
      <rect width="150" height="44" rx="6" fill="#faf7f5" stroke="#475569"/>
      <text x="10" y="18" font-family="system-ui" font-size="11" fill="#1f2937" font-weight="bold">light</text>
      <rect x="10" y="26" width="16" height="12" rx="2" fill="#570df8"/>
      <text x="32" y="36" font-family="system-ui" font-size="9" fill="#64748b">primary</text>
      <circle cx="135" cy="22" r="8" fill="#fbbf24" stroke="#d97706"/>
    </g>
    <g transform="translate(220, 100)">
      <rect width="150" height="44" rx="6" fill="#faf7f5" stroke="#475569"/>
      <text x="10" y="18" font-family="system-ui" font-size="11" fill="#1f2937" font-weight="bold">cupcake</text>
      <rect x="10" y="26" width="16" height="12" rx="2" fill="#65c3c8"/>
      <text x="32" y="36" font-family="system-ui" font-size="9" fill="#64748b">teal</text>
      <circle cx="135" cy="22" r="8" fill="#fbbf24" stroke="#d97706"/>
    </g>
    <g transform="translate(380, 100)">
      <rect width="150" height="44" rx="6" fill="#f2f7ff" stroke="#475569"/>
      <text x="10" y="18" font-family="system-ui" font-size="11" fill="#1f2937" font-weight="bold">bumblebee</text>
      <rect x="10" y="26" width="16" height="12" rx="2" fill="#f9d72f"/>
      <text x="32" y="36" font-family="system-ui" font-size="9" fill="#64748b">yellow</text>
      <circle cx="135" cy="22" r="8" fill="#fbbf24" stroke="#d97706"/>
    </g>
    <g transform="translate(540, 100)">
      <rect width="150" height="44" rx="6" fill="#f0fdf4" stroke="#475569"/>
      <text x="10" y="18" font-family="system-ui" font-size="11" fill="#1f2937" font-weight="bold">emerald</text>
      <rect x="10" y="26" width="16" height="12" rx="2" fill="#66cc8a"/>
      <text x="32" y="36" font-family="system-ui" font-size="9" fill="#64748b">green</text>
      <circle cx="135" cy="22" r="8" fill="#fbbf24" stroke="#d97706"/>
    </g>

    <!-- Row 2 -->
    <g transform="translate(60, 154)">
      <rect width="150" height="44" rx="6" fill="#e9e7e7" stroke="#475569"/>
      <text x="10" y="18" font-family="system-ui" font-size="11" fill="#1f2937" font-weight="bold">corporate</text>
      <rect x="10" y="26" width="16" height="12" rx="2" fill="#4b6bfb"/>
      <text x="32" y="36" font-family="system-ui" font-size="9" fill="#64748b">blue</text>
      <circle cx="135" cy="22" r="8" fill="#fbbf24" stroke="#d97706"/>
    </g>
    <g transform="translate(220, 154)">
      <rect width="150" height="44" rx="6" fill="#fff7ed" stroke="#475569"/>
      <text x="10" y="18" font-family="system-ui" font-size="11" fill="#1f2937" font-weight="bold">retro</text>
      <rect x="10" y="26" width="16" height="12" rx="2" fill="#ef9995"/>
      <text x="32" y="36" font-family="system-ui" font-size="9" fill="#64748b">peach</text>
      <circle cx="135" cy="22" r="8" fill="#fbbf24" stroke="#d97706"/>
    </g>
    <g transform="translate(380, 154)">
      <rect width="150" height="44" rx="6" fill="#f5f5f4" stroke="#475569"/>
      <text x="10" y="18" font-family="system-ui" font-size="11" fill="#1f2937" font-weight="bold">cyberpunk</text>
      <rect x="10" y="26" width="16" height="12" rx="2" fill="#ff7598"/>
      <text x="32" y="36" font-family="system-ui" font-size="9" fill="#64748b">pink</text>
      <circle cx="135" cy="22" r="8" fill="#fbbf24" stroke="#d97706"/>
    </g>
    <g transform="translate(540, 154)">
      <rect width="150" height="44" rx="6" fill="#fdf4ff" stroke="#475569"/>
      <text x="10" y="18" font-family="system-ui" font-size="11" fill="#1f2937" font-weight="bold">valentine</text>
      <rect x="10" y="26" width="16" height="12" rx="2" fill="#e96d7b"/>
      <text x="32" y="36" font-family="system-ui" font-size="9" fill="#64748b">rose</text>
      <circle cx="135" cy="22" r="8" fill="#fbbf24" stroke="#d97706"/>
    </g>

    <!-- Row 3 -->
    <g transform="translate(60, 208)">
      <rect width="150" height="44" rx="6" fill="#fff" stroke="#475569"/>
      <text x="10" y="18" font-family="system-ui" font-size="11" fill="#1f2937" font-weight="bold">garden</text>
      <rect x="10" y="26" width="16" height="12" rx="2" fill="#5c7f67"/>
      <text x="32" y="36" font-family="system-ui" font-size="9" fill="#64748b">sage</text>
      <circle cx="135" cy="22" r="8" fill="#fbbf24" stroke="#d97706"/>
    </g>
    <g transform="translate(220, 208)">
      <rect width="150" height="44" rx="6" fill="#f2f2f2" stroke="#475569"/>
      <text x="10" y="18" font-family="system-ui" font-size="11" fill="#1f2937" font-weight="bold">lofi</text>
      <rect x="10" y="26" width="16" height="12" rx="2" fill="#0d0d0d"/>
      <text x="32" y="36" font-family="system-ui" font-size="9" fill="#64748b">black</text>
      <circle cx="135" cy="22" r="8" fill="#fbbf24" stroke="#d97706"/>
    </g>
    <g transform="translate(380, 208)">
      <rect width="150" height="44" rx="6" fill="#fef3c7" stroke="#475569"/>
      <text x="10" y="18" font-family="system-ui" font-size="11" fill="#1f2937" font-weight="bold">pastel</text>
      <rect x="10" y="26" width="16" height="12" rx="2" fill="#d1c1d7"/>
      <text x="32" y="36" font-family="system-ui" font-size="9" fill="#64748b">lavender</text>
      <circle cx="135" cy="22" r="8" fill="#fbbf24" stroke="#d97706"/>
    </g>
    <g transform="translate(540, 208)">
      <rect width="150" height="44" rx="6" fill="#fffbeb" stroke="#475569"/>
      <text x="10" y="18" font-family="system-ui" font-size="11" fill="#1f2937" font-weight="bold">fantasy</text>
      <rect x="10" y="26" width="16" height="12" rx="2" fill="#6e0b75"/>
      <text x="32" y="36" font-family="system-ui" font-size="9" fill="#64748b">purple</text>
      <circle cx="135" cy="22" r="8" fill="#fbbf24" stroke="#d97706"/>
    </g>

    <!-- Row 4 -->
    <g transform="translate(60, 262)">
      <rect width="150" height="44" rx="6" fill="#f5f5f5" stroke="#475569"/>
      <text x="10" y="18" font-family="system-ui" font-size="11" fill="#1f2937" font-weight="bold">wireframe</text>
      <rect x="10" y="26" width="16" height="12" rx="2" fill="#b8b8b8"/>
      <text x="32" y="36" font-family="system-ui" font-size="9" fill="#64748b">gray</text>
      <circle cx="135" cy="22" r="8" fill="#fbbf24" stroke="#d97706"/>
    </g>
    <g transform="translate(220, 262)">
      <rect width="150" height="44" rx="6" fill="#faf3e0" stroke="#475569"/>
      <text x="10" y="18" font-family="system-ui" font-size="11" fill="#1f2937" font-weight="bold">cmyk</text>
      <rect x="10" y="26" width="16" height="12" rx="2" fill="#45AEEE"/>
      <text x="32" y="36" font-family="system-ui" font-size="9" fill="#64748b">cyan</text>
      <circle cx="135" cy="22" r="8" fill="#fbbf24" stroke="#d97706"/>
    </g>
    <g transform="translate(380, 262)">
      <rect width="150" height="44" rx="6" fill="#e5dada" stroke="#475569"/>
      <text x="10" y="18" font-family="system-ui" font-size="11" fill="#1f2937" font-weight="bold">autumn</text>
      <rect x="10" y="26" width="16" height="12" rx="2" fill="#8C0327"/>
      <text x="32" y="36" font-family="system-ui" font-size="9" fill="#64748b">maroon</text>
      <circle cx="135" cy="22" r="8" fill="#fbbf24" stroke="#d97706"/>
    </g>
    <g transform="translate(540, 262)">
      <rect width="150" height="44" rx="6" fill="#ebf0f0" stroke="#475569"/>
      <text x="10" y="18" font-family="system-ui" font-size="11" fill="#1f2937" font-weight="bold">acid</text>
      <rect x="10" y="26" width="16" height="12" rx="2" fill="#FF00F4"/>
      <text x="32" y="36" font-family="system-ui" font-size="9" fill="#64748b">magenta</text>
      <circle cx="135" cy="22" r="8" fill="#fbbf24" stroke="#d97706"/>
    </g>
  </g>

  <!-- DARK THEMES SECTION -->
  <text x="60" y="340" class="label-dark">DARK THEMES (16)</text>

  <!-- Dark themes grid (4 columns x 4 rows) -->
  <g id="dark-themes">
    <!-- Row 1 -->
    <g transform="translate(60, 350)">
      <rect width="150" height="44" rx="6" fill="#1d232a" stroke="#475569"/>
      <text x="10" y="18" font-family="system-ui" font-size="11" fill="#ffffff" font-weight="bold">dark</text>
      <rect x="10" y="26" width="16" height="12" rx="2" fill="#661AE6"/>
      <text x="32" y="36" font-family="system-ui" font-size="9" fill="#94a3b8">violet</text>
      <circle cx="135" cy="22" r="8" fill="#8b5cf6" stroke="#7c3aed"/>
    </g>
    <g transform="translate(220, 350)">
      <rect width="150" height="44" rx="6" fill="#212121" stroke="#475569"/>
      <text x="10" y="18" font-family="system-ui" font-size="11" fill="#ffffff" font-weight="bold">synthwave</text>
      <rect x="10" y="26" width="16" height="12" rx="2" fill="#e779c1"/>
      <text x="32" y="36" font-family="system-ui" font-size="9" fill="#94a3b8">pink</text>
      <circle cx="135" cy="22" r="8" fill="#8b5cf6" stroke="#7c3aed"/>
    </g>
    <g transform="translate(380, 350)">
      <rect width="150" height="44" rx="6" fill="#1a103d" stroke="#475569"/>
      <text x="10" y="18" font-family="system-ui" font-size="11" fill="#ffffff" font-weight="bold">halloween</text>
      <rect x="10" y="26" width="16" height="12" rx="2" fill="#f28c18"/>
      <text x="32" y="36" font-family="system-ui" font-size="9" fill="#94a3b8">orange</text>
      <circle cx="135" cy="22" r="8" fill="#8b5cf6" stroke="#7c3aed"/>
    </g>
    <g transform="translate(540, 350)">
      <rect width="150" height="44" rx="6" fill="#171212" stroke="#475569"/>
      <text x="10" y="18" font-family="system-ui" font-size="11" fill="#ffffff" font-weight="bold">forest</text>
      <rect x="10" y="26" width="16" height="12" rx="2" fill="#1eb854"/>
      <text x="32" y="36" font-family="system-ui" font-size="9" fill="#94a3b8">green</text>
      <circle cx="135" cy="22" r="8" fill="#8b5cf6" stroke="#7c3aed"/>
    </g>

    <!-- Row 2 -->
    <g transform="translate(60, 404)">
      <rect width="150" height="44" rx="6" fill="#09090b" stroke="#475569"/>
      <text x="10" y="18" font-family="system-ui" font-size="11" fill="#ffffff" font-weight="bold">black</text>
      <rect x="10" y="26" width="16" height="12" rx="2" fill="#343232"/>
      <text x="32" y="36" font-family="system-ui" font-size="9" fill="#94a3b8">charcoal</text>
      <circle cx="135" cy="22" r="8" fill="#8b5cf6" stroke="#7c3aed"/>
    </g>
    <g transform="translate(220, 404)">
      <rect width="150" height="44" rx="6" fill="#202020" stroke="#475569"/>
      <text x="10" y="18" font-family="system-ui" font-size="11" fill="#ffffff" font-weight="bold">luxury</text>
      <rect x="10" y="26" width="16" height="12" rx="2" fill="#ffffff"/>
      <text x="32" y="36" font-family="system-ui" font-size="9" fill="#94a3b8">white</text>
      <circle cx="135" cy="22" r="8" fill="#8b5cf6" stroke="#7c3aed"/>
    </g>
    <g transform="translate(380, 404)">
      <rect width="150" height="44" rx="6" fill="#0f1729" stroke="#475569"/>
      <text x="10" y="18" font-family="system-ui" font-size="11" fill="#ffffff" font-weight="bold">dracula</text>
      <rect x="10" y="26" width="16" height="12" rx="2" fill="#ff79c6"/>
      <text x="32" y="36" font-family="system-ui" font-size="9" fill="#94a3b8">pink</text>
      <circle cx="135" cy="22" r="8" fill="#8b5cf6" stroke="#7c3aed"/>
    </g>
    <g transform="translate(540, 404)">
      <rect width="150" height="44" rx="6" fill="#191D24" stroke="#475569"/>
      <text x="10" y="18" font-family="system-ui" font-size="11" fill="#ffffff" font-weight="bold">business</text>
      <rect x="10" y="26" width="16" height="12" rx="2" fill="#1C4E80"/>
      <text x="32" y="36" font-family="system-ui" font-size="9" fill="#94a3b8">navy</text>
      <circle cx="135" cy="22" r="8" fill="#8b5cf6" stroke="#7c3aed"/>
    </g>

    <!-- Row 3 -->
    <g transform="translate(60, 458)">
      <rect width="150" height="44" rx="6" fill="#272935" stroke="#475569"/>
      <text x="10" y="18" font-family="system-ui" font-size="11" fill="#ffffff" font-weight="bold">night</text>
      <rect x="10" y="26" width="16" height="12" rx="2" fill="#38bdf8"/>
      <text x="32" y="36" font-family="system-ui" font-size="9" fill="#94a3b8">sky</text>
      <circle cx="135" cy="22" r="8" fill="#8b5cf6" stroke="#7c3aed"/>
    </g>
    <g transform="translate(220, 458)">
      <rect width="150" height="44" rx="6" fill="#1a1a2e" stroke="#475569"/>
      <text x="10" y="18" font-family="system-ui" font-size="11" fill="#ffffff" font-weight="bold">coffee</text>
      <rect x="10" y="26" width="16" height="12" rx="2" fill="#DB924B"/>
      <text x="32" y="36" font-family="system-ui" font-size="9" fill="#94a3b8">caramel</text>
      <circle cx="135" cy="22" r="8" fill="#8b5cf6" stroke="#7c3aed"/>
    </g>
    <g transform="translate(380, 458)">
      <rect width="150" height="44" rx="6" fill="#0D0D0D" stroke="#475569"/>
      <text x="10" y="18" font-family="system-ui" font-size="11" fill="#ffffff" font-weight="bold">winter</text>
      <rect x="10" y="26" width="16" height="12" rx="2" fill="#047AFF"/>
      <text x="32" y="36" font-family="system-ui" font-size="9" fill="#94a3b8">blue</text>
      <circle cx="135" cy="22" r="8" fill="#8b5cf6" stroke="#7c3aed"/>
    </g>
    <g transform="translate(540, 458)">
      <rect width="150" height="44" rx="6" fill="#1a1919" stroke="#475569"/>
      <text x="10" y="18" font-family="system-ui" font-size="11" fill="#ffffff" font-weight="bold">dim</text>
      <rect x="10" y="26" width="16" height="12" rx="2" fill="#9FE88D"/>
      <text x="32" y="36" font-family="system-ui" font-size="9" fill="#94a3b8">lime</text>
      <circle cx="135" cy="22" r="8" fill="#8b5cf6" stroke="#7c3aed"/>
    </g>

    <!-- Row 4 -->
    <g transform="translate(60, 512)">
      <rect width="150" height="44" rx="6" fill="#2a323c" stroke="#475569"/>
      <text x="10" y="18" font-family="system-ui" font-size="11" fill="#ffffff" font-weight="bold">nord</text>
      <rect x="10" y="26" width="16" height="12" rx="2" fill="#5E81AC"/>
      <text x="32" y="36" font-family="system-ui" font-size="9" fill="#94a3b8">frost</text>
      <circle cx="135" cy="22" r="8" fill="#8b5cf6" stroke="#7c3aed"/>
    </g>
    <g transform="translate(220, 512)">
      <rect width="150" height="44" rx="6" fill="#0a0a0f" stroke="#475569"/>
      <text x="10" y="18" font-family="system-ui" font-size="11" fill="#ffffff" font-weight="bold">sunset</text>
      <rect x="10" y="26" width="16" height="12" rx="2" fill="#FF865B"/>
      <text x="32" y="36" font-family="system-ui" font-size="9" fill="#94a3b8">coral</text>
      <circle cx="135" cy="22" r="8" fill="#8b5cf6" stroke="#7c3aed"/>
    </g>
    <g transform="translate(380, 512)">
      <rect width="150" height="44" rx="6" fill="#1f1f1f" stroke="#475569"/>
      <text x="10" y="18" font-family="system-ui" font-size="11" fill="#ffffff" font-weight="bold">aqua</text>
      <rect x="10" y="26" width="16" height="12" rx="2" fill="#09ecf3"/>
      <text x="32" y="36" font-family="system-ui" font-size="9" fill="#94a3b8">cyan</text>
      <circle cx="135" cy="22" r="8" fill="#8b5cf6" stroke="#7c3aed"/>
    </g>
    <g transform="translate(540, 512)">
      <rect width="150" height="44" rx="6" fill="#181830" stroke="#475569"/>
      <text x="10" y="18" font-family="system-ui" font-size="11" fill="#ffffff" font-weight="bold">lemonade</text>
      <rect x="10" y="26" width="16" height="12" rx="2" fill="#519903"/>
      <text x="32" y="36" font-family="system-ui" font-size="9" fill="#64748b">lime</text>
      <circle cx="135" cy="22" r="8" fill="#8b5cf6" stroke="#7c3aed"/>
    </g>
  </g>

  <!-- MAPPING FLOW SECTION -->
  <g id="mapping-flow" transform="translate(720, 90)">
    <text x="0" y="0" class="heading">THEME → DISQUS MAPPING</text>

    <!-- Mapping Flow Diagram -->
    <rect x="0" y="20" width="280" height="220" rx="8" fill="#1e293b" stroke="#475569"/>

    <!-- Step 1: Detect Theme -->
    <rect x="20" y="40" width="240" height="50" rx="6" fill="#334155" stroke="#8b5cf6"/>
    <text x="140" y="58" text-anchor="middle" class="text-md">1. Detect Active Theme</text>
    <text x="140" y="74" text-anchor="middle" class="text-sm">document.documentElement.dataset.theme</text>

    <!-- Arrow -->
    <path d="M140 90 L140 105" stroke="#8b5cf6" stroke-width="2" fill="none" marker-end="url(#arrowhead)"/>

    <!-- Step 2: Lookup Mapping -->
    <rect x="20" y="110" width="240" height="50" rx="6" fill="#334155" stroke="#8b5cf6"/>
    <text x="140" y="128" text-anchor="middle" class="text-md">2. Lookup Theme Mapping</text>
    <text x="140" y="144" text-anchor="middle" class="text-sm">themeConfig[themeName]</text>

    <!-- Arrow -->
    <path d="M140 160 L140 175" stroke="#8b5cf6" stroke-width="2" fill="none"/>

    <!-- Step 3: Configure Disqus -->
    <rect x="20" y="180" width="240" height="50" rx="6" fill="#334155" stroke="#d946ef"/>
    <text x="140" y="198" text-anchor="middle" class="text-md">3. Configure Disqus</text>
    <text x="140" y="214" text-anchor="middle" class="text-sm">DISQUS.reset({ colorScheme, accent })</text>

    <!-- Output Box -->
    <rect x="0" y="260" width="280" height="100" rx="8" fill="#1e293b" stroke="#22c55e"/>
    <text x="140" y="285" text-anchor="middle" class="heading" fill="#22c55e">DISQUS CONFIG OUTPUT</text>
    <text x="20" y="308" class="text-sm">colorScheme: "light" | "dark"</text>
    <text x="20" y="326" class="text-sm">background: #hex (optional)</text>
    <text x="20" y="344" class="text-sm">accentColor: #hex (optional)</text>
  </g>

  <!-- FALLBACK LOGIC -->
  <g id="fallback" transform="translate(1020, 90)">
    <text x="0" y="0" class="heading">FALLBACK LOGIC</text>

    <rect x="0" y="20" width="320" height="170" rx="8" fill="#1e293b" stroke="#475569"/>

    <!-- Decision Tree -->
    <text x="20" y="50" class="text-md" fill="#fbbf24">if (themeConfig[theme]) {</text>
    <text x="30" y="70" class="text-sm">  return themeConfig[theme];</text>
    <text x="20" y="95" class="text-md" fill="#fbbf24">} else {</text>
    <text x="30" y="115" class="text-sm">  // Detect brightness from CSS</text>
    <text x="30" y="135" class="text-sm">  const bgLum = getLuminance(bgColor);</text>
    <text x="30" y="155" class="text-sm">  return bgLum > 0.5 ? "light" : "dark";</text>
    <text x="20" y="175" class="text-md" fill="#fbbf24">}</text>
  </g>

  <!-- Legend -->
  <g id="legend" transform="translate(1020, 290)">
    <text x="0" y="0" class="heading">LEGEND</text>

    <rect x="0" y="15" width="320" height="80" rx="8" fill="#1e293b" stroke="#475569"/>

    <circle cx="25" cy="40" r="10" fill="#fbbf24" stroke="#d97706"/>
    <text x="45" y="44" class="text-md">Light scheme → Disqus light mode</text>

    <circle cx="25" cy="70" r="10" fill="#8b5cf6" stroke="#7c3aed"/>
    <text x="45" y="74" class="text-md">Dark scheme → Disqus dark mode</text>
  </g>

  <!-- Requirements Met -->
  <g id="requirements" transform="translate(720, 420)">
    <text x="0" y="0" class="heading">REQUIREMENTS MET</text>

    <rect x="0" y="15" width="620" height="130" rx="8" fill="#1e293b" stroke="#22c55e"/>

    <text x="20" y="45" class="text-md" fill="#22c55e">✓ FR-001: All 32 DaisyUI themes mapped</text>
    <text x="20" y="65" class="text-md" fill="#22c55e">✓ FR-003: Light/dark scheme determined per theme</text>
    <text x="20" y="85" class="text-md" fill="#22c55e">✓ FR-004: Accent color extracted from theme primary</text>
    <text x="20" y="105" class="text-md" fill="#22c55e">✓ FR-005: Fallback uses luminance detection</text>
    <text x="20" y="125" class="text-md" fill="#22c55e">✓ NFR-004: Theme detection &lt; 10ms (simple lookup)</text>

    <text x="340" y="45" class="text-md" fill="#22c55e">✓ FR-006: colorScheme parameter set</text>
    <text x="340" y="65" class="text-md" fill="#22c55e">✓ FR-007: Background color configured</text>
    <text x="340" y="85" class="text-md" fill="#22c55e">✓ FR-008: Accent color configured</text>
    <text x="340" y="105" class="text-md" fill="#22c55e">✓ SC-001: All 32 themes have mappings</text>
    <text x="340" y="125" class="text-md" fill="#22c55e">✓ SC-003: WCAG AA contrast maintained</text>
  </g>

  <!-- Data Structure Example -->
  <g id="data-structure" transform="translate(720, 580)">
    <text x="0" y="0" class="heading">CONFIG DATA STRUCTURE</text>

    <rect x="0" y="15" width="620" height="170" rx="8" fill="#1e293b" stroke="#475569"/>

    <text x="20" y="45" class="annotation">const themeConfig: Record&lt;string, DisqusConfig&gt; = {</text>
    <text x="30" y="65" class="text-sm" fill="#fbbf24">  "light":     { scheme: "light", accent: "#570df8" },</text>
    <text x="30" y="85" class="text-sm" fill="#fbbf24">  "cupcake":   { scheme: "light", accent: "#65c3c8" },</text>
    <text x="30" y="105" class="text-sm" fill="#8b5cf6">  "dark":      { scheme: "dark",  accent: "#661AE6" },</text>
    <text x="30" y="125" class="text-sm" fill="#8b5cf6">  "synthwave": { scheme: "dark",  accent: "#e779c1" },</text>
    <text x="30" y="145" class="text-muted">  // ... 28 more themes</text>
    <text x="20" y="165" class="annotation">};</text>
  </g>

  <!-- Arrowhead marker -->
  <defs>
    <marker id="arrowhead" markerWidth="10" markerHeight="7" refX="9" refY="3.5" orient="auto">
      <polygon points="0 0, 10 3.5, 0 7" fill="#8b5cf6"/>
    </marker>
  </defs>
</svg>
