<svg xmlns="http://www.w3.org/2000/svg" viewBox="0 0 1400 800" width="1400" height="800">
  <!-- ============================================================
       GENERATED BY: /wireframe skill
       SOURCE: features/code-quality/045-disqus-theme/spec.md
       DATE: 2026-01-01
       THEME: Light (UX/Frontend) - v3 True Parchment
       DO NOT MANUALLY EDIT - Regenerate with /wireframe command
       ============================================================ -->
  <defs>
    <linearGradient id="bgGrad" x1="0%" y1="0%" x2="100%" y2="100%">
      <stop offset="0%" style="stop-color:#c7ddf5"/>
      <stop offset="100%" style="stop-color:#b8d4f0"/>
    </linearGradient>
    <linearGradient id="accentGrad" x1="0%" y1="0%" x2="100%" y2="0%">
      <stop offset="0%" style="stop-color:#8b5cf6"/>
      <stop offset="100%" style="stop-color:#d946ef"/>
    </linearGradient>
    <style>
      .heading-lg { fill: #1a1a2e; font-family: system-ui, sans-serif; font-size: 24px; font-weight: 800; }
      .heading { fill: #1a1a2e; font-family: system-ui, sans-serif; font-size: 16px; font-weight: 700; }
      .text-md { fill: #2d3748; font-family: system-ui, sans-serif; font-size: 14px; font-weight: 500; }
      .text-sm { fill: #374151; font-family: system-ui, sans-serif; font-size: 12px; font-weight: 500; }
      .text-muted { fill: #4b5563; font-family: system-ui, sans-serif; font-size: 11px; font-weight: 500; }
      .annotation { fill: #6d28d9; font-family: monospace; font-size: 12px; font-weight: 600; }
      .label-desktop { fill: #8b5cf6; font-family: monospace; font-size: 13px; font-weight: bold; }
      .label-mobile { fill: #d946ef; font-family: monospace; font-size: 13px; font-weight: bold; }
    </style>
  </defs>

  <!-- Background -->
  <rect width="1400" height="800" fill="url(#bgGrad)"/>

  <!-- Dot grid pattern -->
  <g opacity="0.35">
    <pattern id="dots" width="30" height="30" patternUnits="userSpaceOnUse">
      <circle cx="15" cy="15" r="1" fill="#6b8cba"/>
    </pattern>
    <rect width="1400" height="800" fill="url(#dots)"/>
  </g>

  <!-- Accent line top -->
  <rect x="0" y="0" width="1400" height="3" fill="url(#accentGrad)"/>

  <!-- Title -->
  <text x="700" y="28" text-anchor="middle" font-family="system-ui, sans-serif" font-size="14" font-weight="600" fill="#4b5563" letter-spacing="1">DISQUS THEME MAPPING - 32 DAISYUI THEMES</text>

  <!-- ==================== LIGHT THEMES SECTION ==================== -->
  <g transform="translate(40, 50)">
    <text x="0" y="0" class="heading-lg">☀️ Light Themes (16)</text>

    <!-- Light themes grid - 4 columns x 4 rows -->
    <g transform="translate(0, 20)">
      <!-- Row 1 -->
      <g transform="translate(0, 0)">
        <rect x="0" y="0" width="160" height="75" rx="8" fill="#ffffff" stroke="#e5e7eb"/>
        <rect x="0" y="0" width="160" height="20" rx="8" fill="#570df8"/>
        <rect x="0" y="12" width="160" height="8" fill="#570df8"/>
        <text x="80" y="14" text-anchor="middle" fill="#fff" font-size="10" font-weight="600">light</text>
        <text x="10" y="45" class="text-sm">Disqus: light</text>
        <text x="10" y="60" class="text-muted">Accent: #570df8</text>
        <circle cx="145" cy="52" r="10" fill="#570df8"/>
      </g>

      <g transform="translate(170, 0)">
        <rect x="0" y="0" width="160" height="75" rx="8" fill="#faf7f5" stroke="#e5e7eb"/>
        <rect x="0" y="0" width="160" height="20" rx="8" fill="#65c3c8"/>
        <rect x="0" y="12" width="160" height="8" fill="#65c3c8"/>
        <text x="80" y="14" text-anchor="middle" fill="#fff" font-size="10" font-weight="600">cupcake</text>
        <text x="10" y="45" class="text-sm">Disqus: light</text>
        <text x="10" y="60" class="text-muted">Accent: #65c3c8</text>
        <circle cx="145" cy="52" r="10" fill="#65c3c8"/>
      </g>

      <g transform="translate(340, 0)">
        <rect x="0" y="0" width="160" height="75" rx="8" fill="#f5f5f4" stroke="#e5e7eb"/>
        <rect x="0" y="0" width="160" height="20" rx="8" fill="#e96d7b"/>
        <rect x="0" y="12" width="160" height="8" fill="#e96d7b"/>
        <text x="80" y="14" text-anchor="middle" fill="#fff" font-size="10" font-weight="600">bumblebee</text>
        <text x="10" y="45" class="text-sm">Disqus: light</text>
        <text x="10" y="60" class="text-muted">Accent: #e96d7b</text>
        <circle cx="145" cy="52" r="10" fill="#e96d7b"/>
      </g>

      <g transform="translate(510, 0)">
        <rect x="0" y="0" width="160" height="75" rx="8" fill="#f2f7ff" stroke="#e5e7eb"/>
        <rect x="0" y="0" width="160" height="20" rx="8" fill="#0d9488"/>
        <rect x="0" y="12" width="160" height="8" fill="#0d9488"/>
        <text x="80" y="14" text-anchor="middle" fill="#fff" font-size="10" font-weight="600">emerald</text>
        <text x="10" y="45" class="text-sm">Disqus: light</text>
        <text x="10" y="60" class="text-muted">Accent: #0d9488</text>
        <circle cx="145" cy="52" r="10" fill="#0d9488"/>
      </g>

      <!-- Row 2 -->
      <g transform="translate(0, 85)">
        <rect x="0" y="0" width="160" height="75" rx="8" fill="#ffffff" stroke="#e5e7eb"/>
        <rect x="0" y="0" width="160" height="20" rx="8" fill="#661ae6"/>
        <rect x="0" y="12" width="160" height="8" fill="#661ae6"/>
        <text x="80" y="14" text-anchor="middle" fill="#fff" font-size="10" font-weight="600">corporate</text>
        <text x="10" y="45" class="text-sm">Disqus: light</text>
        <text x="10" y="60" class="text-muted">Accent: #661ae6</text>
        <circle cx="145" cy="52" r="10" fill="#661ae6"/>
      </g>

      <g transform="translate(170, 85)">
        <rect x="0" y="0" width="160" height="75" rx="8" fill="#ffffff" stroke="#e5e7eb"/>
        <rect x="0" y="0" width="160" height="20" rx="8" fill="#057aff"/>
        <rect x="0" y="12" width="160" height="8" fill="#057aff"/>
        <text x="80" y="14" text-anchor="middle" fill="#fff" font-size="10" font-weight="600">garden</text>
        <text x="10" y="45" class="text-sm">Disqus: light</text>
        <text x="10" y="60" class="text-muted">Accent: #057aff</text>
        <circle cx="145" cy="52" r="10" fill="#057aff"/>
      </g>

      <g transform="translate(340, 85)">
        <rect x="0" y="0" width="160" height="75" rx="8" fill="#f5f5f4" stroke="#e5e7eb"/>
        <rect x="0" y="0" width="160" height="20" rx="8" fill="#d4a373"/>
        <rect x="0" y="12" width="160" height="8" fill="#d4a373"/>
        <text x="80" y="14" text-anchor="middle" fill="#fff" font-size="10" font-weight="600">lofi</text>
        <text x="10" y="45" class="text-sm">Disqus: light</text>
        <text x="10" y="60" class="text-muted">Accent: #d4a373</text>
        <circle cx="145" cy="52" r="10" fill="#d4a373"/>
      </g>

      <g transform="translate(510, 85)">
        <rect x="0" y="0" width="160" height="75" rx="8" fill="#fff7ed" stroke="#e5e7eb"/>
        <rect x="0" y="0" width="160" height="20" rx="8" fill="#ff865b"/>
        <rect x="0" y="12" width="160" height="8" fill="#ff865b"/>
        <text x="80" y="14" text-anchor="middle" fill="#fff" font-size="10" font-weight="600">pastel</text>
        <text x="10" y="45" class="text-sm">Disqus: light</text>
        <text x="10" y="60" class="text-muted">Accent: #ff865b</text>
        <circle cx="145" cy="52" r="10" fill="#ff865b"/>
      </g>

      <!-- Row 3 -->
      <g transform="translate(0, 170)">
        <rect x="0" y="0" width="160" height="75" rx="8" fill="#fff1f2" stroke="#e5e7eb"/>
        <rect x="0" y="0" width="160" height="20" rx="8" fill="#f472b6"/>
        <rect x="0" y="12" width="160" height="8" fill="#f472b6"/>
        <text x="80" y="14" text-anchor="middle" fill="#fff" font-size="10" font-weight="600">fantasy</text>
        <text x="10" y="45" class="text-sm">Disqus: light</text>
        <text x="10" y="60" class="text-muted">Accent: #f472b6</text>
        <circle cx="145" cy="52" r="10" fill="#f472b6"/>
      </g>

      <g transform="translate(170, 170)">
        <rect x="0" y="0" width="160" height="75" rx="8" fill="#fffbeb" stroke="#e5e7eb"/>
        <rect x="0" y="0" width="160" height="20" rx="8" fill="#e76f51"/>
        <rect x="0" y="12" width="160" height="8" fill="#e76f51"/>
        <text x="80" y="14" text-anchor="middle" fill="#fff" font-size="10" font-weight="600">wireframe</text>
        <text x="10" y="45" class="text-sm">Disqus: light</text>
        <text x="10" y="60" class="text-muted">Accent: #e76f51</text>
        <circle cx="145" cy="52" r="10" fill="#e76f51"/>
      </g>

      <g transform="translate(340, 170)">
        <rect x="0" y="0" width="160" height="75" rx="8" fill="#fafafa" stroke="#e5e7eb"/>
        <rect x="0" y="0" width="160" height="20" rx="8" fill="#6419e6"/>
        <rect x="0" y="12" width="160" height="8" fill="#6419e6"/>
        <text x="80" y="14" text-anchor="middle" fill="#fff" font-size="10" font-weight="600">cmyk</text>
        <text x="10" y="45" class="text-sm">Disqus: light</text>
        <text x="10" y="60" class="text-muted">Accent: #6419e6</text>
        <circle cx="145" cy="52" r="10" fill="#6419e6"/>
      </g>

      <g transform="translate(510, 170)">
        <rect x="0" y="0" width="160" height="75" rx="8" fill="#eff6ff" stroke="#e5e7eb"/>
        <rect x="0" y="0" width="160" height="20" rx="8" fill="#36d399"/>
        <rect x="0" y="12" width="160" height="8" fill="#36d399"/>
        <text x="80" y="14" text-anchor="middle" fill="#fff" font-size="10" font-weight="600">autumn</text>
        <text x="10" y="45" class="text-sm">Disqus: light</text>
        <text x="10" y="60" class="text-muted">Accent: #36d399</text>
        <circle cx="145" cy="52" r="10" fill="#36d399"/>
      </g>

      <!-- Row 4 -->
      <g transform="translate(0, 255)">
        <rect x="0" y="0" width="160" height="75" rx="8" fill="#f8fafc" stroke="#e5e7eb"/>
        <rect x="0" y="0" width="160" height="20" rx="8" fill="#3b82f6"/>
        <rect x="0" y="12" width="160" height="8" fill="#3b82f6"/>
        <text x="80" y="14" text-anchor="middle" fill="#fff" font-size="10" font-weight="600">acid</text>
        <text x="10" y="45" class="text-sm">Disqus: light</text>
        <text x="10" y="60" class="text-muted">Accent: #3b82f6</text>
        <circle cx="145" cy="52" r="10" fill="#3b82f6"/>
      </g>

      <g transform="translate(170, 255)">
        <rect x="0" y="0" width="160" height="75" rx="8" fill="#fef3c7" stroke="#e5e7eb"/>
        <rect x="0" y="0" width="160" height="20" rx="8" fill="#8b5cf6"/>
        <rect x="0" y="12" width="160" height="8" fill="#8b5cf6"/>
        <text x="80" y="14" text-anchor="middle" fill="#fff" font-size="10" font-weight="600">lemonade</text>
        <text x="10" y="45" class="text-sm">Disqus: light</text>
        <text x="10" y="60" class="text-muted">Accent: #8b5cf6</text>
        <circle cx="145" cy="52" r="10" fill="#8b5cf6"/>
      </g>

      <g transform="translate(340, 255)">
        <rect x="0" y="0" width="160" height="75" rx="8" fill="#f5f5f5" stroke="#e5e7eb"/>
        <rect x="0" y="0" width="160" height="20" rx="8" fill="#6b7280"/>
        <rect x="0" y="12" width="160" height="8" fill="#6b7280"/>
        <text x="80" y="14" text-anchor="middle" fill="#fff" font-size="10" font-weight="600">winter</text>
        <text x="10" y="45" class="text-sm">Disqus: light</text>
        <text x="10" y="60" class="text-muted">Accent: #6b7280</text>
        <circle cx="145" cy="52" r="10" fill="#6b7280"/>
      </g>

      <g transform="translate(510, 255)">
        <rect x="0" y="0" width="160" height="75" rx="8" fill="#fefce8" stroke="#e5e7eb"/>
        <rect x="0" y="0" width="160" height="20" rx="8" fill="#14b8a6"/>
        <rect x="0" y="12" width="160" height="8" fill="#14b8a6"/>
        <text x="80" y="14" text-anchor="middle" fill="#fff" font-size="10" font-weight="600">nord</text>
        <text x="10" y="45" class="text-sm">Disqus: light</text>
        <text x="10" y="60" class="text-muted">Accent: #14b8a6</text>
        <circle cx="145" cy="52" r="10" fill="#14b8a6"/>
      </g>
    </g>
  </g>

  <!-- ==================== DARK THEMES SECTION ==================== -->
  <g transform="translate(720, 50)">
    <text x="0" y="0" class="heading-lg">🌙 Dark Themes (16)</text>

    <!-- Dark themes grid - 4 columns x 4 rows -->
    <g transform="translate(0, 20)">
      <!-- Row 1 -->
      <g transform="translate(0, 0)">
        <rect x="0" y="0" width="160" height="75" rx="8" fill="#1d232a" stroke="#374151"/>
        <rect x="0" y="0" width="160" height="20" rx="8" fill="#661ae6"/>
        <rect x="0" y="12" width="160" height="8" fill="#661ae6"/>
        <text x="80" y="14" text-anchor="middle" fill="#fff" font-size="10" font-weight="600">dark</text>
        <text x="10" y="45" fill="#e5e7eb" font-size="12">Disqus: dark</text>
        <text x="10" y="60" fill="#9ca3af" font-size="11">Accent: #661ae6</text>
        <circle cx="145" cy="52" r="10" fill="#661ae6"/>
      </g>

      <g transform="translate(170, 0)">
        <rect x="0" y="0" width="160" height="75" rx="8" fill="#1f2937" stroke="#374151"/>
        <rect x="0" y="0" width="160" height="20" rx="8" fill="#641ae6"/>
        <rect x="0" y="12" width="160" height="8" fill="#641ae6"/>
        <text x="80" y="14" text-anchor="middle" fill="#fff" font-size="10" font-weight="600">synthwave</text>
        <text x="10" y="45" fill="#e5e7eb" font-size="12">Disqus: dark</text>
        <text x="10" y="60" fill="#9ca3af" font-size="11">Accent: #641ae6</text>
        <circle cx="145" cy="52" r="10" fill="#641ae6"/>
      </g>

      <g transform="translate(340, 0)">
        <rect x="0" y="0" width="160" height="75" rx="8" fill="#171212" stroke="#374151"/>
        <rect x="0" y="0" width="160" height="20" rx="8" fill="#ff7598"/>
        <rect x="0" y="12" width="160" height="8" fill="#ff7598"/>
        <text x="80" y="14" text-anchor="middle" fill="#fff" font-size="10" font-weight="600">valentine</text>
        <text x="10" y="45" fill="#e5e7eb" font-size="12">Disqus: dark</text>
        <text x="10" y="60" fill="#9ca3af" font-size="11">Accent: #ff7598</text>
        <circle cx="145" cy="52" r="10" fill="#ff7598"/>
      </g>

      <g transform="translate(510, 0)">
        <rect x="0" y="0" width="160" height="75" rx="8" fill="#000000" stroke="#374151"/>
        <rect x="0" y="0" width="160" height="20" rx="8" fill="#ffffff"/>
        <rect x="0" y="12" width="160" height="8" fill="#ffffff"/>
        <text x="80" y="14" text-anchor="middle" fill="#000" font-size="10" font-weight="600">halloween</text>
        <text x="10" y="45" fill="#e5e7eb" font-size="12">Disqus: dark</text>
        <text x="10" y="60" fill="#9ca3af" font-size="11">Accent: #f28c18</text>
        <circle cx="145" cy="52" r="10" fill="#f28c18"/>
      </g>

      <!-- Row 2 -->
      <g transform="translate(0, 85)">
        <rect x="0" y="0" width="160" height="75" rx="8" fill="#130f40" stroke="#374151"/>
        <rect x="0" y="0" width="160" height="20" rx="8" fill="#f000b8"/>
        <rect x="0" y="12" width="160" height="8" fill="#f000b8"/>
        <text x="80" y="14" text-anchor="middle" fill="#fff" font-size="10" font-weight="600">forest</text>
        <text x="10" y="45" fill="#e5e7eb" font-size="12">Disqus: dark</text>
        <text x="10" y="60" fill="#9ca3af" font-size="11">Accent: #f000b8</text>
        <circle cx="145" cy="52" r="10" fill="#f000b8"/>
      </g>

      <g transform="translate(170, 85)">
        <rect x="0" y="0" width="160" height="75" rx="8" fill="#170000" stroke="#374151"/>
        <rect x="0" y="0" width="160" height="20" rx="8" fill="#ff5861"/>
        <rect x="0" y="12" width="160" height="8" fill="#ff5861"/>
        <text x="80" y="14" text-anchor="middle" fill="#fff" font-size="10" font-weight="600">aqua</text>
        <text x="10" y="45" fill="#e5e7eb" font-size="12">Disqus: dark</text>
        <text x="10" y="60" fill="#9ca3af" font-size="11">Accent: #ff5861</text>
        <circle cx="145" cy="52" r="10" fill="#ff5861"/>
      </g>

      <g transform="translate(340, 85)">
        <rect x="0" y="0" width="160" height="75" rx="8" fill="#000" stroke="#374151"/>
        <rect x="0" y="0" width="160" height="20" rx="8" fill="#ffffff"/>
        <rect x="0" y="12" width="160" height="8" fill="#ffffff"/>
        <text x="80" y="14" text-anchor="middle" fill="#000" font-size="10" font-weight="600">black</text>
        <text x="10" y="45" fill="#e5e7eb" font-size="12">Disqus: dark</text>
        <text x="10" y="60" fill="#9ca3af" font-size="11">Accent: #ffffff</text>
        <circle cx="145" cy="52" r="10" fill="#ffffff" stroke="#374151"/>
      </g>

      <g transform="translate(510, 85)">
        <rect x="0" y="0" width="160" height="75" rx="8" fill="#181a2a" stroke="#374151"/>
        <rect x="0" y="0" width="160" height="20" rx="8" fill="#66cc8a"/>
        <rect x="0" y="12" width="160" height="8" fill="#66cc8a"/>
        <text x="80" y="14" text-anchor="middle" fill="#fff" font-size="10" font-weight="600">luxury</text>
        <text x="10" y="45" fill="#e5e7eb" font-size="12">Disqus: dark</text>
        <text x="10" y="60" fill="#9ca3af" font-size="11">Accent: #66cc8a</text>
        <circle cx="145" cy="52" r="10" fill="#66cc8a"/>
      </g>

      <!-- Row 3 -->
      <g transform="translate(0, 170)">
        <rect x="0" y="0" width="160" height="75" rx="8" fill="#1e1e2e" stroke="#374151"/>
        <rect x="0" y="0" width="160" height="20" rx="8" fill="#a6e3a1"/>
        <rect x="0" y="12" width="160" height="8" fill="#a6e3a1"/>
        <text x="80" y="14" text-anchor="middle" fill="#1e1e2e" font-size="10" font-weight="600">dracula</text>
        <text x="10" y="45" fill="#e5e7eb" font-size="12">Disqus: dark</text>
        <text x="10" y="60" fill="#9ca3af" font-size="11">Accent: #a6e3a1</text>
        <circle cx="145" cy="52" r="10" fill="#a6e3a1"/>
      </g>

      <g transform="translate(170, 170)">
        <rect x="0" y="0" width="160" height="75" rx="8" fill="#09090b" stroke="#374151"/>
        <rect x="0" y="0" width="160" height="20" rx="8" fill="#f5a524"/>
        <rect x="0" y="12" width="160" height="8" fill="#f5a524"/>
        <text x="80" y="14" text-anchor="middle" fill="#000" font-size="10" font-weight="600">business</text>
        <text x="10" y="45" fill="#e5e7eb" font-size="12">Disqus: dark</text>
        <text x="10" y="60" fill="#9ca3af" font-size="11">Accent: #f5a524</text>
        <circle cx="145" cy="52" r="10" fill="#f5a524"/>
      </g>

      <g transform="translate(340, 170)">
        <rect x="0" y="0" width="160" height="75" rx="8" fill="#212121" stroke="#374151"/>
        <rect x="0" y="0" width="160" height="20" rx="8" fill="#00d7c0"/>
        <rect x="0" y="12" width="160" height="8" fill="#00d7c0"/>
        <text x="80" y="14" text-anchor="middle" fill="#fff" font-size="10" font-weight="600">night</text>
        <text x="10" y="45" fill="#e5e7eb" font-size="12">Disqus: dark</text>
        <text x="10" y="60" fill="#9ca3af" font-size="11">Accent: #00d7c0</text>
        <circle cx="145" cy="52" r="10" fill="#00d7c0"/>
      </g>

      <g transform="translate(510, 170)">
        <rect x="0" y="0" width="160" height="75" rx="8" fill="#2a303c" stroke="#374151"/>
        <rect x="0" y="0" width="160" height="20" rx="8" fill="#22d3ee"/>
        <rect x="0" y="12" width="160" height="8" fill="#22d3ee"/>
        <text x="80" y="14" text-anchor="middle" fill="#000" font-size="10" font-weight="600">coffee</text>
        <text x="10" y="45" fill="#e5e7eb" font-size="12">Disqus: dark</text>
        <text x="10" y="60" fill="#9ca3af" font-size="11">Accent: #22d3ee</text>
        <circle cx="145" cy="52" r="10" fill="#22d3ee"/>
      </g>

      <!-- Row 4 -->
      <g transform="translate(0, 255)">
        <rect x="0" y="0" width="160" height="75" rx="8" fill="#282a36" stroke="#374151"/>
        <rect x="0" y="0" width="160" height="20" rx="8" fill="#8be9fd"/>
        <rect x="0" y="12" width="160" height="8" fill="#8be9fd"/>
        <text x="80" y="14" text-anchor="middle" fill="#282a36" font-size="10" font-weight="600">dim</text>
        <text x="10" y="45" fill="#e5e7eb" font-size="12">Disqus: dark</text>
        <text x="10" y="60" fill="#9ca3af" font-size="11">Accent: #8be9fd</text>
        <circle cx="145" cy="52" r="10" fill="#8be9fd"/>
      </g>

      <g transform="translate(170, 255)">
        <rect x="0" y="0" width="160" height="75" rx="8" fill="#0d0d0d" stroke="#374151"/>
        <rect x="0" y="0" width="160" height="20" rx="8" fill="#10b981"/>
        <rect x="0" y="12" width="160" height="8" fill="#10b981"/>
        <text x="80" y="14" text-anchor="middle" fill="#fff" font-size="10" font-weight="600">sunset</text>
        <text x="10" y="45" fill="#e5e7eb" font-size="12">Disqus: dark</text>
        <text x="10" y="60" fill="#9ca3af" font-size="11">Accent: #10b981</text>
        <circle cx="145" cy="52" r="10" fill="#10b981"/>
      </g>

      <g transform="translate(340, 255)">
        <rect x="0" y="0" width="160" height="75" rx="8" fill="#2d3436" stroke="#374151"/>
        <rect x="0" y="0" width="160" height="20" rx="8" fill="#a855f7"/>
        <rect x="0" y="12" width="160" height="8" fill="#a855f7"/>
        <text x="80" y="14" text-anchor="middle" fill="#fff" font-size="10" font-weight="600">retro</text>
        <text x="10" y="45" fill="#e5e7eb" font-size="12">Disqus: dark</text>
        <text x="10" y="60" fill="#9ca3af" font-size="11">Accent: #a855f7</text>
        <circle cx="145" cy="52" r="10" fill="#a855f7"/>
      </g>

      <g transform="translate(510, 255)">
        <rect x="0" y="0" width="160" height="75" rx="8" fill="#1a1a2e" stroke="#374151"/>
        <rect x="0" y="0" width="160" height="20" rx="8" fill="#f97316"/>
        <rect x="0" y="12" width="160" height="8" fill="#f97316"/>
        <text x="80" y="14" text-anchor="middle" fill="#fff" font-size="10" font-weight="600">cyberpunk</text>
        <text x="10" y="45" fill="#e5e7eb" font-size="12">Disqus: dark</text>
        <text x="10" y="60" fill="#9ca3af" font-size="11">Accent: #f97316</text>
        <circle cx="145" cy="52" r="10" fill="#f97316"/>
      </g>
    </g>
  </g>

  <!-- ==================== MAPPING EXPLANATION ==================== -->
  <g transform="translate(40, 420)">
    <rect x="0" y="0" width="640" height="140" rx="8" fill="#e8d4b8" stroke="#b8a080"/>
    <text x="320" y="25" text-anchor="middle" class="heading">FR-001-005: Theme Mapping Logic</text>

    <g transform="translate(20, 45)">
      <text x="0" y="0" class="text-md">1. Detect theme from data-theme attribute</text>
      <text x="0" y="20" class="text-md">2. Determine light/dark scheme (FR-003)</text>
      <text x="0" y="40" class="text-md">3. Extract primary color for accent (FR-004)</text>
      <text x="0" y="60" class="text-md">4. Apply Disqus colorScheme parameter (FR-006)</text>
      <text x="0" y="80" class="text-md">5. Unmapped theme → fallback based on brightness (FR-005)</text>
    </g>

    <g transform="translate(350, 45)">
      <rect x="0" y="0" width="270" height="85" rx="6" fill="#f5f0e6"/>
      <text x="10" y="20" class="annotation">document.documentElement</text>
      <text x="10" y="40" class="text-muted">.getAttribute('data-theme')</text>
      <text x="10" y="60" class="text-muted">→ 'cupcake' | 'dark' | ...</text>
      <text x="10" y="80" class="text-muted">→ Disqus.config({ colorScheme })</text>
    </g>
  </g>

  <!-- ==================== DISQUS PREVIEW ==================== -->
  <g transform="translate(700, 420)">
    <rect x="0" y="0" width="330" height="140" rx="8" fill="#e8d4b8" stroke="#b8a080"/>
    <text x="165" y="25" text-anchor="middle" class="heading">Disqus Comment Preview</text>

    <!-- Light Disqus example -->
    <g transform="translate(15, 40)">
      <rect x="0" y="0" width="145" height="90" rx="4" fill="#ffffff" stroke="#e5e7eb"/>
      <text x="72" y="15" text-anchor="middle" class="text-muted">Light Scheme</text>
      <circle cx="20" cy="40" r="12" fill="#e5e7eb"/>
      <rect x="40" y="32" width="80" height="8" rx="2" fill="#1a1a2e"/>
      <rect x="40" y="45" width="95" height="6" rx="2" fill="#6b7280"/>
      <rect x="40" y="55" width="60" height="6" rx="2" fill="#6b7280"/>
      <rect x="10" y="70" width="50" height="14" rx="3" fill="#570df8"/>
      <text x="35" y="81" text-anchor="middle" fill="#fff" font-size="8">Reply</text>
    </g>

    <!-- Dark Disqus example -->
    <g transform="translate(170, 40)">
      <rect x="0" y="0" width="145" height="90" rx="4" fill="#1d232a" stroke="#374151"/>
      <text x="72" y="15" text-anchor="middle" fill="#9ca3af" font-size="11">Dark Scheme</text>
      <circle cx="20" cy="40" r="12" fill="#374151"/>
      <rect x="40" y="32" width="80" height="8" rx="2" fill="#ffffff"/>
      <rect x="40" y="45" width="95" height="6" rx="2" fill="#9ca3af"/>
      <rect x="40" y="55" width="60" height="6" rx="2" fill="#9ca3af"/>
      <rect x="10" y="70" width="50" height="14" rx="3" fill="#661ae6"/>
      <text x="35" y="81" text-anchor="middle" fill="#fff" font-size="8">Reply</text>
    </g>
  </g>

  <!-- ==================== SUCCESS CRITERIA ==================== -->
  <g transform="translate(1050, 420)">
    <rect x="0" y="0" width="310" height="140" rx="8" fill="#dcfce7" stroke="#22c55e"/>
    <text x="155" y="25" text-anchor="middle" class="heading" fill="#166534">✓ Success Criteria</text>

    <g transform="translate(15, 45)">
      <text x="0" y="0" class="text-sm" fill="#166534">SC-001: 32 themes mapped ✓</text>
      <text x="0" y="18" class="text-sm" fill="#166534">SC-002: Updates &lt;500ms ✓</text>
      <text x="0" y="36" class="text-sm" fill="#166534">SC-003: WCAG AA contrast ✓</text>
      <text x="0" y="54" class="text-sm" fill="#166534">SC-004: Zero CLS ✓</text>
      <text x="0" y="72" class="text-sm" fill="#166534">SC-005: System pref detected ✓</text>
      <text x="0" y="90" class="text-sm" fill="#166534">NFR-002: 4.5:1 contrast ✓</text>
    </g>
  </g>

  <!-- Annotations -->
  <g transform="translate(40, 580)">
    <rect x="0" y="0" width="400" height="50" rx="4" fill="#e8d4b8" stroke="#8b5cf6" stroke-width="1"/>
    <text x="10" y="20" class="annotation">Theme: data-theme="cupcake"</text>
    <text x="10" y="38" class="text-muted">→ Disqus: colorScheme="light", accent="#65c3c8"</text>
  </g>

  <g transform="translate(460, 580)">
    <rect x="0" y="0" width="400" height="50" rx="4" fill="#e8d4b8" stroke="#8b5cf6" stroke-width="1"/>
    <text x="10" y="20" class="annotation">Theme: data-theme="dracula"</text>
    <text x="10" y="38" class="text-muted">→ Disqus: colorScheme="dark", accent="#a6e3a1"</text>
  </g>

  <g transform="translate(880, 580)">
    <rect x="0" y="0" width="480" height="50" rx="4" fill="#fef9c3" stroke="#eab308" stroke-width="1"/>
    <text x="10" y="20" class="annotation" fill="#854d0e">Edge case: Unmapped theme</text>
    <text x="10" y="38" fill="#854d0e" font-size="11">→ Fallback: analyze background brightness → light or dark</text>
  </g>
</svg>