<svg xmlns="http://www.w3.org/2000/svg" viewBox="0 0 1400 800" width="1400" height="800">
  <!-- ============================================================
       GENERATED BY: /wireframe skill
       SOURCE: features/code-quality/045-disqus-theme/spec.md
       DATE: 2026-01-01
       THEME: Light (UX/Frontend) - v3 True Parchment
       DO NOT MANUALLY EDIT - Regenerate with /wireframe command
       ============================================================ -->
  <defs>
    <linearGradient id="bgGrad" x1="0%" y1="0%" x2="100%" y2="100%">
      <stop offset="0%" style="stop-color:#c7ddf5"/>
      <stop offset="100%" style="stop-color:#b8d4f0"/>
    </linearGradient>
    <linearGradient id="accentGrad" x1="0%" y1="0%" x2="100%" y2="0%">
      <stop offset="0%" style="stop-color:#8b5cf6"/>
      <stop offset="100%" style="stop-color:#d946ef"/>
    </linearGradient>
    <style>
      .heading-lg { fill: #1a1a2e; font-family: system-ui, sans-serif; font-size: 24px; font-weight: 800; }
      .heading { fill: #1a1a2e; font-family: system-ui, sans-serif; font-size: 16px; font-weight: 700; }
      .text-md { fill: #2d3748; font-family: system-ui, sans-serif; font-size: 14px; font-weight: 500; }
      .text-sm { fill: #374151; font-family: system-ui, sans-serif; font-size: 12px; font-weight: 500; }
      .text-muted { fill: #4b5563; font-family: system-ui, sans-serif; font-size: 11px; font-weight: 500; }
      .annotation { fill: #6d28d9; font-family: monospace; font-size: 12px; font-weight: 600; }
      .label-desktop { fill: #8b5cf6; font-family: monospace; font-size: 13px; font-weight: bold; }
      .label-mobile { fill: #d946ef; font-family: monospace; font-size: 13px; font-weight: bold; }
    </style>
  </defs>

  <!-- Background -->
  <rect width="1400" height="800" fill="url(#bgGrad)"/>

  <!-- Dot grid pattern -->
  <g opacity="0.35">
    <pattern id="dots" width="30" height="30" patternUnits="userSpaceOnUse">
      <circle cx="15" cy="15" r="1" fill="#6b8cba"/>
    </pattern>
    <rect width="1400" height="800" fill="url(#dots)"/>
  </g>

  <!-- Accent line top -->
  <rect x="0" y="0" width="1400" height="3" fill="url(#accentGrad)"/>

  <!-- Title -->
  <text x="700" y="28" text-anchor="middle" font-family="system-ui, sans-serif" font-size="14" font-weight="600" fill="#4b5563" letter-spacing="1">DISQUS CONSENT PLACEHOLDER STATES</text>

  <!-- ==================== STATE 1: NOT ASKED ==================== -->
  <g transform="translate(40, 50)">
    <text x="0" y="0" class="heading-lg">State 1: Consent Not Asked</text>

    <!-- Blog post context -->
    <rect x="0" y="20" width="420" height="320" rx="8" fill="#e8d4b8" stroke="#b8a080"/>

    <!-- Post content placeholder -->
    <rect x="15" y="35" width="390" height="100" rx="4" fill="#dcc8a8"/>
    <text x="210" y="75" text-anchor="middle" class="text-muted">Blog Post Content</text>
    <rect x="30" y="95" width="250" height="6" rx="2" fill="#c0b090"/>
    <rect x="30" y="108" width="350" height="6" rx="2" fill="#c0b090"/>
    <rect x="30" y="121" width="200" height="6" rx="2" fill="#c0b090"/>

    <!-- Comments section header -->
    <text x="15" y="160" class="heading">💬 Comments</text>
    <line x1="15" y1="170" x2="405" y2="170" stroke="#b8a080"/>

    <!-- Consent prompt placeholder -->
    <rect x="15" y="185" width="390" height="140" rx="8" fill="#f5f0e6" stroke="#8b5cf6" stroke-width="2" stroke-dasharray="8,4"/>

    <g transform="translate(210, 220)">
      <circle cx="0" cy="0" r="25" fill="#8b5cf6" opacity="0.2"/>
      <text x="0" y="8" text-anchor="middle" font-size="28">💬</text>
    </g>

    <text x="210" y="260" text-anchor="middle" class="heading">Join the Discussion</text>
    <text x="210" y="280" text-anchor="middle" class="text-sm">Enable comments to see what others are saying</text>

    <rect x="145" y="295" width="130" height="36" rx="6" fill="#8b5cf6"/>
    <text x="210" y="318" text-anchor="middle" fill="#fff" font-size="14" font-weight="600">Enable Comments</text>

    <!-- FR label -->
    <rect x="15" y="335" width="150" height="20" rx="4" fill="#8b5cf6" opacity="0.2"/>
    <text x="90" y="349" text-anchor="middle" class="annotation">FR-016, FR-017</text>
  </g>

  <!-- ==================== STATE 2: DENIED ==================== -->
  <g transform="translate(490, 50)">
    <text x="0" y="0" class="heading-lg">State 2: Consent Denied</text>

    <!-- Blog post context -->
    <rect x="0" y="20" width="420" height="320" rx="8" fill="#e8d4b8" stroke="#b8a080"/>

    <!-- Post content placeholder -->
    <rect x="15" y="35" width="390" height="100" rx="4" fill="#dcc8a8"/>
    <text x="210" y="75" text-anchor="middle" class="text-muted">Blog Post Content</text>
    <rect x="30" y="95" width="250" height="6" rx="2" fill="#c0b090"/>
    <rect x="30" y="108" width="350" height="6" rx="2" fill="#c0b090"/>
    <rect x="30" y="121" width="200" height="6" rx="2" fill="#c0b090"/>

    <!-- Comments section header -->
    <text x="15" y="160" class="heading">💬 Comments</text>
    <line x1="15" y1="170" x2="405" y2="170" stroke="#b8a080"/>

    <!-- Denied placeholder -->
    <rect x="15" y="185" width="390" height="140" rx="8" fill="#f5f5f5" stroke="#9ca3af" stroke-dasharray="8,4"/>

    <g transform="translate(210, 220)">
      <circle cx="0" cy="0" r="25" fill="#9ca3af" opacity="0.2"/>
      <text x="0" y="8" text-anchor="middle" font-size="28">🔒</text>
    </g>

    <text x="210" y="260" text-anchor="middle" class="heading" fill="#6b7280">Comments Disabled</text>
    <text x="210" y="280" text-anchor="middle" class="text-sm" fill="#6b7280">Third-party comments require consent</text>

    <rect x="130" y="295" width="160" height="32" rx="6" fill="none" stroke="#6b7280" stroke-width="2"/>
    <text x="210" y="316" text-anchor="middle" fill="#6b7280" font-size="12" font-weight="600">Change Privacy Settings</text>

    <!-- FR label -->
    <rect x="15" y="335" width="150" height="20" rx="4" fill="#9ca3af" opacity="0.2"/>
    <text x="90" y="349" text-anchor="middle" class="text-muted">FR-015, FR-016</text>
  </g>

  <!-- ==================== STATE 3: GRANTED - LOADING ==================== -->
  <g transform="translate(940, 50)">
    <text x="0" y="0" class="heading-lg">State 3: Loading Disqus</text>

    <!-- Blog post context -->
    <rect x="0" y="20" width="420" height="320" rx="8" fill="#e8d4b8" stroke="#b8a080"/>

    <!-- Post content placeholder -->
    <rect x="15" y="35" width="390" height="100" rx="4" fill="#dcc8a8"/>
    <text x="210" y="75" text-anchor="middle" class="text-muted">Blog Post Content</text>
    <rect x="30" y="95" width="250" height="6" rx="2" fill="#c0b090"/>
    <rect x="30" y="108" width="350" height="6" rx="2" fill="#c0b090"/>
    <rect x="30" y="121" width="200" height="6" rx="2" fill="#c0b090"/>

    <!-- Comments section header -->
    <text x="15" y="160" class="heading">💬 Comments</text>
    <line x1="15" y1="170" x2="405" y2="170" stroke="#b8a080"/>

    <!-- Loading state -->
    <rect x="15" y="185" width="390" height="140" rx="8" fill="#f5f0e6"/>

    <!-- Skeleton loading -->
    <g transform="translate(30, 200)">
      <circle cx="20" cy="20" r="20" fill="#dcc8a8"/>
      <rect x="50" y="5" width="150" height="12" rx="4" fill="#dcc8a8"/>
      <rect x="50" y="25" width="300" height="10" rx="4" fill="#e0d4c4"/>
    </g>

    <g transform="translate(30, 255)">
      <circle cx="20" cy="20" r="20" fill="#dcc8a8"/>
      <rect x="50" y="5" width="120" height="12" rx="4" fill="#dcc8a8"/>
      <rect x="50" y="25" width="250" height="10" rx="4" fill="#e0d4c4"/>
    </g>

    <!-- Loading spinner -->
    <g transform="translate(365, 250)">
      <circle cx="0" cy="0" r="15" fill="none" stroke="#dcc8a8" stroke-width="3"/>
      <path d="M 0 -15 A 15 15 0 0 1 15 0" fill="none" stroke="#8b5cf6" stroke-width="3" stroke-linecap="round"/>
    </g>

    <!-- FR label -->
    <rect x="15" y="335" width="150" height="20" rx="4" fill="#22c55e" opacity="0.2"/>
    <text x="90" y="349" text-anchor="middle" class="annotation" fill="#166534">FR-018, NFR-007</text>
  </g>

  <!-- ==================== STATE 4: GRANTED - LOADED ==================== -->
  <g transform="translate(40, 420)">
    <text x="0" y="0" class="heading-lg">State 4: Disqus Loaded</text>

    <!-- Blog post context -->
    <rect x="0" y="20" width="420" height="320" rx="8" fill="#e8d4b8" stroke="#b8a080"/>

    <!-- Post content placeholder -->
    <rect x="15" y="35" width="390" height="60" rx="4" fill="#dcc8a8"/>
    <text x="210" y="70" text-anchor="middle" class="text-muted">Blog Post Content</text>

    <!-- Comments section header -->
    <text x="15" y="120" class="heading">💬 Comments (3)</text>
    <line x1="15" y1="130" x2="405" y2="130" stroke="#b8a080"/>

    <!-- Disqus embed (themed light) -->
    <rect x="15" y="145" width="390" height="180" rx="8" fill="#ffffff" stroke="#e5e7eb"/>

    <!-- Comment 1 -->
    <g transform="translate(30, 160)">
      <circle cx="15" cy="15" r="15" fill="#e5e7eb"/>
      <text x="40" y="12" class="text-sm" fill="#1a1a2e" font-weight="600">Jane Developer</text>
      <text x="40" y="26" class="text-muted">Great article! Very helpful.</text>
      <rect x="40" y="35" width="50" height="18" rx="4" fill="#8b5cf6"/>
      <text x="65" y="48" text-anchor="middle" fill="#fff" font-size="10">Reply</text>
    </g>

    <!-- Comment 2 -->
    <g transform="translate(30, 220)">
      <circle cx="15" cy="15" r="15" fill="#e5e7eb"/>
      <text x="40" y="12" class="text-sm" fill="#1a1a2e" font-weight="600">Bob Coder</text>
      <text x="40" y="26" class="text-muted">Thanks for sharing!</text>
    </g>

    <!-- Comment input -->
    <g transform="translate(30, 275)">
      <rect x="0" y="0" width="360" height="36" rx="6" fill="#f5f5f5" stroke="#e5e7eb"/>
      <text x="15" y="22" fill="#9ca3af" font-size="12">Add a comment...</text>
    </g>

    <!-- Disqus branding -->
    <text x="370" y="318" class="text-muted" font-size="9">Powered by Disqus</text>

    <!-- Theme indicator -->
    <rect x="15" y="335" width="80" height="20" rx="4" fill="#22c55e" opacity="0.2"/>
    <text x="55" y="349" text-anchor="middle" class="text-sm" fill="#166534">✓ Themed</text>
    <text x="110" y="349" class="text-muted">colorScheme: light</text>
  </g>

  <!-- ==================== STATE 5: REVOKED ==================== -->
  <g transform="translate(490, 420)">
    <text x="0" y="0" class="heading-lg">State 5: Consent Revoked</text>

    <!-- Blog post context -->
    <rect x="0" y="20" width="420" height="320" rx="8" fill="#e8d4b8" stroke="#b8a080"/>

    <!-- Post content placeholder -->
    <rect x="15" y="35" width="390" height="100" rx="4" fill="#dcc8a8"/>
    <text x="210" y="75" text-anchor="middle" class="text-muted">Blog Post Content</text>
    <rect x="30" y="95" width="250" height="6" rx="2" fill="#c0b090"/>
    <rect x="30" y="108" width="350" height="6" rx="2" fill="#c0b090"/>
    <rect x="30" y="121" width="200" height="6" rx="2" fill="#c0b090"/>

    <!-- Comments section header -->
    <text x="15" y="160" class="heading">💬 Comments</text>
    <line x1="15" y1="170" x2="405" y2="170" stroke="#b8a080"/>

    <!-- Revoked placeholder -->
    <rect x="15" y="185" width="390" height="140" rx="8" fill="#fef2f2" stroke="#ef4444" stroke-dasharray="8,4"/>

    <g transform="translate(210, 220)">
      <circle cx="0" cy="0" r="25" fill="#ef4444" opacity="0.2"/>
      <text x="0" y="8" text-anchor="middle" font-size="28">🚫</text>
    </g>

    <text x="210" y="260" text-anchor="middle" class="heading" fill="#991b1b">Comments Unloaded</text>
    <text x="210" y="280" text-anchor="middle" class="text-sm" fill="#991b1b">You revoked third-party consent</text>

    <rect x="140" y="295" width="140" height="32" rx="6" fill="#ef4444"/>
    <text x="210" y="316" text-anchor="middle" fill="#fff" font-size="12" font-weight="600">Re-enable Comments</text>

    <!-- FR label -->
    <rect x="15" y="335" width="150" height="20" rx="4" fill="#ef4444" opacity="0.2"/>
    <text x="90" y="349" text-anchor="middle" class="annotation" fill="#991b1b">FR-019</text>
  </g>

  <!-- ==================== STATE 6: ERROR ==================== -->
  <g transform="translate(940, 420)">
    <text x="0" y="0" class="heading-lg">State 6: Load Failed</text>

    <!-- Blog post context -->
    <rect x="0" y="20" width="420" height="320" rx="8" fill="#e8d4b8" stroke="#b8a080"/>

    <!-- Post content placeholder -->
    <rect x="15" y="35" width="390" height="100" rx="4" fill="#dcc8a8"/>
    <text x="210" y="75" text-anchor="middle" class="text-muted">Blog Post Content</text>
    <rect x="30" y="95" width="250" height="6" rx="2" fill="#c0b090"/>
    <rect x="30" y="108" width="350" height="6" rx="2" fill="#c0b090"/>
    <rect x="30" y="121" width="200" height="6" rx="2" fill="#c0b090"/>

    <!-- Comments section header -->
    <text x="15" y="160" class="heading">💬 Comments</text>
    <line x1="15" y1="170" x2="405" y2="170" stroke="#b8a080"/>

    <!-- Error placeholder -->
    <rect x="15" y="185" width="390" height="140" rx="8" fill="#fef9c3" stroke="#eab308"/>

    <g transform="translate(210, 220)">
      <circle cx="0" cy="0" r="25" fill="#eab308" opacity="0.2"/>
      <text x="0" y="8" text-anchor="middle" font-size="28">⚠️</text>
    </g>

    <text x="210" y="260" text-anchor="middle" class="heading" fill="#854d0e">Comments Unavailable</text>
    <text x="210" y="280" text-anchor="middle" class="text-sm" fill="#854d0e">Disqus could not be loaded. Try again later.</text>

    <rect x="160" y="295" width="100" height="32" rx="6" fill="#eab308"/>
    <text x="210" y="316" text-anchor="middle" fill="#1a1a2e" font-size="12" font-weight="600">Retry</text>

    <!-- FR label -->
    <rect x="15" y="335" width="150" height="20" rx="4" fill="#eab308" opacity="0.2"/>
    <text x="90" y="349" text-anchor="middle" class="annotation" fill="#854d0e">FR-021, FR-022</text>
  </g>

  <!-- ==================== CONSENT FLOW SUMMARY ==================== -->
  <g transform="translate(40, 760)">
    <rect x="0" y="0" width="1320" height="35" rx="6" fill="#e8d4b8" stroke="#b8a080"/>

    <text x="20" y="22" class="heading">Consent Flow:</text>

    <g transform="translate(140, 0)">
      <rect x="0" y="8" width="100" height="20" rx="10" fill="#8b5cf6" opacity="0.2"/>
      <text x="50" y="22" text-anchor="middle" class="text-sm" fill="#6d28d9">Not Asked</text>
    </g>

    <text x="255" y="22" fill="#8b5cf6" font-size="18">→</text>

    <g transform="translate(280, 0)">
      <rect x="0" y="8" width="80" height="20" rx="10" fill="#22c55e" opacity="0.2"/>
      <text x="40" y="22" text-anchor="middle" class="text-sm" fill="#166534">Granted</text>
    </g>

    <text x="375" y="22" fill="#22c55e" font-size="18">→</text>

    <g transform="translate(400, 0)">
      <rect x="0" y="8" width="80" height="20" rx="10" fill="#8b5cf6" opacity="0.2"/>
      <text x="40" y="22" text-anchor="middle" class="text-sm" fill="#6d28d9">Loading</text>
    </g>

    <text x="495" y="22" fill="#8b5cf6" font-size="18">→</text>

    <g transform="translate(520, 0)">
      <rect x="0" y="8" width="80" height="20" rx="10" fill="#22c55e"/>
      <text x="40" y="22" text-anchor="middle" class="text-sm" fill="#fff">Loaded</text>
    </g>

    <text x="650" y="22" class="text-muted">|</text>

    <g transform="translate(680, 0)">
      <rect x="0" y="8" width="80" height="20" rx="10" fill="#9ca3af" opacity="0.3"/>
      <text x="40" y="22" text-anchor="middle" class="text-sm" fill="#6b7280">Denied</text>
    </g>

    <text x="790" y="22" class="text-muted">|</text>

    <g transform="translate(820, 0)">
      <rect x="0" y="8" width="80" height="20" rx="10" fill="#ef4444" opacity="0.2"/>
      <text x="40" y="22" text-anchor="middle" class="text-sm" fill="#991b1b">Revoked</text>
    </g>

    <text x="930" y="22" class="text-muted">|</text>

    <g transform="translate(960, 0)">
      <rect x="0" y="8" width="80" height="20" rx="10" fill="#eab308" opacity="0.2"/>
      <text x="40" y="22" text-anchor="middle" class="text-sm" fill="#854d0e">Error</text>
    </g>

    <text x="1080" y="22" class="text-muted">|</text>

    <text x="1100" y="22" class="text-sm">NFR-008: No load without consent</text>
  </g>
</svg>