<svg xmlns="http://www.w3.org/2000/svg" viewBox="0 0 1400 800" width="1400" height="800">
  <!-- ============================================================
       GENERATED BY: /wireframe skill
       SOURCE: features/code-quality/045-disqus-theme/spec.md
       DATE: 2025-12-31
       DO NOT MANUALLY EDIT - Regenerate with /wireframe command
       ============================================================ -->
  <defs>
    <linearGradient id="bgGrad" x1="0%" y1="0%" x2="100%" y2="100%">
      <stop offset="0%" style="stop-color:#0f172a"/>
      <stop offset="100%" style="stop-color:#1e293b"/>
    </linearGradient>
    <linearGradient id="accentGrad" x1="0%" y1="0%" x2="100%" y2="0%">
      <stop offset="0%" style="stop-color:#8b5cf6"/>
      <stop offset="100%" style="stop-color:#d946ef"/>
    </linearGradient>
    <style>
      .heading-lg { fill: #ffffff; font-family: system-ui, sans-serif; font-size: 20px; font-weight: bold; }
      .heading { fill: #ffffff; font-family: system-ui, sans-serif; font-size: 14px; font-weight: bold; }
      .text-md { fill: #cbd5e1; font-family: system-ui, sans-serif; font-size: 12px; }
      .text-sm { fill: #94a3b8; font-family: system-ui, sans-serif; font-size: 10px; }
      .text-muted { fill: #64748b; font-family: system-ui, sans-serif; font-size: 10px; }
      .annotation { fill: #8b5cf6; font-family: monospace; font-size: 10px; }
      .label-flow { fill: #d946ef; font-family: monospace; font-size: 11px; font-weight: bold; }
    </style>
  </defs>

  <!-- Background -->
  <rect width="1400" height="800" fill="url(#bgGrad)"/>

  <!-- Dot grid pattern -->
  <g opacity="0.05">
    <pattern id="dots" width="30" height="30" patternUnits="userSpaceOnUse">
      <circle cx="15" cy="15" r="1" fill="#fff"/>
    </pattern>
    <rect width="1400" height="800" fill="url(#dots)"/>
  </g>

  <!-- Accent line top -->
  <rect x="0" y="0" width="1400" height="3" fill="url(#accentGrad)"/>

  <!-- Title -->
  <text x="700" y="32" text-anchor="middle" class="heading-lg">DYNAMIC THEME UPDATE FLOW</text>
  <text x="700" y="52" text-anchor="middle" class="text-muted">Theme Change Detection, Debouncing, and Disqus Reload (FR-010 to FR-014)</text>

  <!-- TRIGGER SOURCES -->
  <g id="triggers" transform="translate(40, 80)">
    <text x="0" y="0" class="label-flow">THEME CHANGE TRIGGERS</text>

    <rect x="0" y="15" width="260" height="200" rx="8" fill="#1e293b" stroke="#475569"/>

    <!-- Trigger 1: User Toggle -->
    <g transform="translate(20, 40)">
      <rect width="220" height="50" rx="6" fill="#334155" stroke="#8b5cf6"/>
      <circle cx="25" cy="25" r="12" fill="#8b5cf6"/>
      <text x="22" y="30" font-family="system-ui" font-size="14" fill="#fff">1</text>
      <text x="50" y="22" class="heading">User Theme Toggle</text>
      <text x="50" y="38" class="text-sm">data-theme attribute change</text>
    </g>

    <!-- Trigger 2: System Preference -->
    <g transform="translate(20, 100)">
      <rect width="220" height="50" rx="6" fill="#334155" stroke="#d946ef"/>
      <circle cx="25" cy="25" r="12" fill="#d946ef"/>
      <text x="22" y="30" font-family="system-ui" font-size="14" fill="#fff">2</text>
      <text x="50" y="22" class="heading">System Preference</text>
      <text x="50" y="38" class="text-sm">prefers-color-scheme change</text>
    </g>

    <!-- Trigger 3: URL Parameter -->
    <g transform="translate(20, 160)">
      <rect width="220" height="50" rx="6" fill="#334155" stroke="#22c55e"/>
      <circle cx="25" cy="25" r="12" fill="#22c55e"/>
      <text x="22" y="30" font-family="system-ui" font-size="14" fill="#fff">3</text>
      <text x="50" y="22" class="heading">URL Parameter</text>
      <text x="50" y="38" class="text-sm">?theme=dark in URL</text>
    </g>
  </g>

  <!-- DETECTION LAYER -->
  <g id="detection" transform="translate(320, 80)">
    <text x="0" y="0" class="label-flow">DETECTION (FR-010)</text>

    <rect x="0" y="15" width="280" height="200" rx="8" fill="#1e293b" stroke="#8b5cf6"/>

    <!-- MutationObserver -->
    <rect x="15" y="35" width="250" height="70" rx="6" fill="#334155"/>
    <text x="140" y="55" text-anchor="middle" class="heading">MutationObserver</text>
    <text x="25" y="75" class="annotation">observer.observe(document.documentElement, {</text>
    <text x="35" y="90" class="text-sm">attributes: true, attributeFilter: ['data-theme']</text>

    <!-- Media Query Listener -->
    <rect x="15" y="115" width="250" height="50" rx="6" fill="#334155"/>
    <text x="140" y="135" text-anchor="middle" class="heading">MediaQueryListener</text>
    <text x="25" y="152" class="annotation">matchMedia('(prefers-color-scheme: dark)')</text>

    <!-- Theme Change Event -->
    <rect x="15" y="175" width="250" height="35" rx="6" fill="#8b5cf6"/>
    <text x="140" y="198" text-anchor="middle" font-family="system-ui" font-size="12" fill="#fff" font-weight="bold">Emit: THEME_CHANGE Event</text>
  </g>

  <!-- DEBOUNCE LAYER -->
  <g id="debounce" transform="translate(620, 80)">
    <text x="0" y="0" class="label-flow">DEBOUNCE (FR-012)</text>

    <rect x="0" y="15" width="240" height="200" rx="8" fill="#1e293b" stroke="#eab308"/>

    <!-- Debounce Logic -->
    <text x="120" y="45" text-anchor="middle" class="heading" fill="#eab308">Rapid Change Protection</text>

    <!-- Timeline visualization -->
    <rect x="20" y="60" width="200" height="40" rx="4" fill="#334155"/>
    <line x1="30" y1="80" x2="210" y2="80" stroke="#475569" stroke-width="2"/>

    <!-- Change events -->
    <circle cx="50" cy="80" r="6" fill="#ef4444"/>
    <circle cx="80" cy="80" r="6" fill="#ef4444"/>
    <circle cx="100" cy="80" r="6" fill="#ef4444"/>
    <circle cx="180" cy="80" r="6" fill="#22c55e"/>

    <text x="50" y="68" text-anchor="middle" class="text-muted">×</text>
    <text x="80" y="68" text-anchor="middle" class="text-muted">×</text>
    <text x="100" y="68" text-anchor="middle" class="text-muted">×</text>
    <text x="180" y="68" text-anchor="middle" class="text-muted">✓</text>

    <!-- Debounce timer -->
    <rect x="20" y="110" width="200" height="45" rx="4" fill="#334155"/>
    <text x="30" y="130" class="annotation">debounceTime: 300ms</text>
    <text x="30" y="148" class="text-sm">Only final state is applied</text>

    <!-- Output -->
    <rect x="20" y="165" width="200" height="40" rx="6" fill="#22c55e"/>
    <text x="120" y="190" text-anchor="middle" font-family="system-ui" font-size="11" fill="#fff" font-weight="bold">Debounced Theme: dark</text>
  </g>

  <!-- DISQUS RELOAD -->
  <g id="reload" transform="translate(880, 80)">
    <text x="0" y="0" class="label-flow">DISQUS RELOAD (FR-011)</text>

    <rect x="0" y="15" width="260" height="200" rx="8" fill="#1e293b" stroke="#22c55e"/>

    <!-- Step 1 -->
    <g transform="translate(15, 35)">
      <rect width="230" height="45" rx="6" fill="#334155" stroke="#8b5cf6"/>
      <circle cx="20" cy="22" r="14" fill="#8b5cf6"/>
      <text x="17" y="27" font-family="system-ui" font-size="12" fill="#fff">1</text>
      <text x="45" y="20" class="text-md">Get theme config</text>
      <text x="45" y="36" class="text-sm">themeConfig[newTheme]</text>
    </g>

    <!-- Step 2 -->
    <g transform="translate(15, 90)">
      <rect width="230" height="45" rx="6" fill="#334155" stroke="#d946ef"/>
      <circle cx="20" cy="22" r="14" fill="#d946ef"/>
      <text x="17" y="27" font-family="system-ui" font-size="12" fill="#fff">2</text>
      <text x="45" y="20" class="text-md">Reset Disqus</text>
      <text x="45" y="36" class="annotation">DISQUS.reset({ reload: true })</text>
    </g>

    <!-- Step 3 -->
    <g transform="translate(15, 145)">
      <rect width="230" height="55" rx="6" fill="#334155" stroke="#22c55e"/>
      <circle cx="20" cy="27" r="14" fill="#22c55e"/>
      <text x="17" y="32" font-family="system-ui" font-size="12" fill="#fff">3</text>
      <text x="45" y="22" class="text-md">Apply new config</text>
      <text x="45" y="38" class="text-sm">colorScheme: dark</text>
      <text x="45" y="52" class="text-sm">accent: #661AE6</text>
    </g>
  </g>

  <!-- FLOW ARROWS -->
  <g id="flow-arrows">
    <!-- Triggers to Detection -->
    <path d="M300 180 L315 180" stroke="#8b5cf6" stroke-width="2" fill="none" marker-end="url(#arrowhead-violet)"/>

    <!-- Detection to Debounce -->
    <path d="M600 180 L615 180" stroke="#eab308" stroke-width="2" fill="none" marker-end="url(#arrowhead-yellow)"/>

    <!-- Debounce to Reload -->
    <path d="M860 180 L875 180" stroke="#22c55e" stroke-width="2" fill="none" marker-end="url(#arrowhead-green)"/>
  </g>

  <!-- VISUAL TRANSITION TIMELINE -->
  <g id="timeline" transform="translate(40, 310)">
    <text x="0" y="0" class="label-flow">VISUAL TRANSITION TIMELINE (FR-013, NFR-001)</text>

    <rect x="0" y="15" width="1100" height="160" rx="8" fill="#1e293b" stroke="#475569"/>

    <!-- Timeline axis -->
    <line x1="40" y1="100" x2="1060" y2="100" stroke="#475569" stroke-width="2"/>

    <!-- Time markers -->
    <text x="40" y="130" text-anchor="middle" class="text-muted">0ms</text>
    <text x="200" y="130" text-anchor="middle" class="text-muted">50ms</text>
    <text x="400" y="130" text-anchor="middle" class="text-muted">100ms</text>
    <text x="600" y="130" text-anchor="middle" class="text-muted">300ms</text>
    <text x="800" y="130" text-anchor="middle" class="text-muted">500ms</text>
    <text x="1000" y="130" text-anchor="middle" class="text-muted">Done</text>

    <!-- Event 1: Theme Change Detected -->
    <g transform="translate(40, 50)">
      <rect width="150" height="35" rx="4" fill="#8b5cf6"/>
      <text x="75" y="22" text-anchor="middle" class="text-sm" fill="#fff">Theme Change</text>
      <line x1="0" y1="35" x2="0" y2="50" stroke="#8b5cf6" stroke-width="2"/>
    </g>

    <!-- Event 2: Debounce Wait -->
    <g transform="translate(200, 50)">
      <rect width="380" height="35" rx="4" fill="#eab308" opacity="0.3" stroke="#eab308" stroke-dasharray="4,2"/>
      <text x="190" y="22" text-anchor="middle" class="text-sm" fill="#eab308">Debounce Wait (300ms)</text>
    </g>

    <!-- Event 3: Disqus Fade Out -->
    <g transform="translate(600, 50)">
      <rect width="80" height="35" rx="4" fill="#ef4444" opacity="0.5"/>
      <text x="40" y="22" text-anchor="middle" class="text-sm" fill="#fff">Fade</text>
      <line x1="0" y1="35" x2="0" y2="50" stroke="#ef4444" stroke-width="2"/>
    </g>

    <!-- Event 4: Reset & Reload -->
    <g transform="translate(700, 50)">
      <rect width="80" height="35" rx="4" fill="#d946ef"/>
      <text x="40" y="22" text-anchor="middle" class="text-sm" fill="#fff">Reset</text>
    </g>

    <!-- Event 5: Fade In -->
    <g transform="translate(800, 50)">
      <rect width="100" height="35" rx="4" fill="#22c55e"/>
      <text x="50" y="22" text-anchor="middle" class="text-sm" fill="#fff">Fade In</text>
      <line x1="100" y1="35" x2="100" y2="50" stroke="#22c55e" stroke-width="2"/>
    </g>

    <!-- Event 6: Complete -->
    <g transform="translate(920, 50)">
      <rect width="100" height="35" rx="4" fill="#22c55e" stroke="#22c55e" stroke-width="2"/>
      <text x="50" y="22" text-anchor="middle" class="text-sm" fill="#fff">Complete</text>
    </g>

    <!-- Performance note -->
    <text x="550" y="155" text-anchor="middle" class="annotation">Total time: ~500ms (NFR-005: MUST complete within 500ms)</text>
  </g>

  <!-- EDGE CASES -->
  <g id="edge-cases" transform="translate(40, 500)">
    <text x="0" y="0" class="heading">EDGE CASES HANDLED</text>

    <rect x="0" y="15" width="400" height="250" rx="8" fill="#1e293b" stroke="#eab308"/>

    <!-- Edge Case 1 -->
    <g transform="translate(15, 35)">
      <rect width="370" height="50" rx="6" fill="#334155"/>
      <text x="15" y="20" class="text-md" fill="#eab308">Theme changed while Disqus loading</text>
      <text x="15" y="38" class="text-sm">→ Abort current load, restart with new theme</text>
    </g>

    <!-- Edge Case 2 -->
    <g transform="translate(15, 95)">
      <rect width="370" height="50" rx="6" fill="#334155"/>
      <text x="15" y="20" class="text-md" fill="#eab308">Theme changed while user typing comment</text>
      <text x="15" y="38" class="text-sm">→ Preserve draft, apply theme after submit/blur</text>
    </g>

    <!-- Edge Case 3 -->
    <g transform="translate(15, 155)">
      <rect width="370" height="50" rx="6" fill="#334155"/>
      <text x="15" y="20" class="text-md" fill="#eab308">System theme change while tab hidden</text>
      <text x="15" y="38" class="text-sm">→ Apply on visibility change (document.visibilityState)</text>
    </g>

    <!-- Edge Case 4 -->
    <g transform="translate(15, 215)">
      <rect width="370" height="35" rx="6" fill="#334155"/>
      <text x="15" y="22" class="text-md" fill="#eab308">Theme attribute removed from document</text>
      <text x="280" y="22" class="text-sm">→ Fallback to system</text>
    </g>
  </g>

  <!-- PERFORMANCE METRICS -->
  <g id="performance" transform="translate(460, 500)">
    <text x="0" y="0" class="heading">PERFORMANCE REQUIREMENTS</text>

    <rect x="0" y="15" width="340" height="250" rx="8" fill="#1e293b" stroke="#22c55e"/>

    <text x="20" y="50" class="text-md" fill="#22c55e">✓ NFR-004: Theme detection &lt; 10ms</text>
    <rect x="230" y="38" width="90" height="18" rx="4" fill="#22c55e" opacity="0.2"/>
    <text x="275" y="51" text-anchor="middle" class="text-sm" fill="#22c55e">PASS</text>

    <text x="20" y="85" class="text-md" fill="#22c55e">✓ NFR-005: Disqus reload &lt; 500ms</text>
    <rect x="230" y="73" width="90" height="18" rx="4" fill="#22c55e" opacity="0.2"/>
    <text x="275" y="86" text-anchor="middle" class="text-sm" fill="#22c55e">PASS</text>

    <text x="20" y="120" class="text-md" fill="#22c55e">✓ NFR-006: Zero CLS during change</text>
    <rect x="230" y="108" width="90" height="18" rx="4" fill="#22c55e" opacity="0.2"/>
    <text x="275" y="121" text-anchor="middle" class="text-sm" fill="#22c55e">PASS</text>

    <text x="20" y="155" class="text-md" fill="#22c55e">✓ NFR-007: Lazy-load Disqus script</text>
    <rect x="230" y="143" width="90" height="18" rx="4" fill="#22c55e" opacity="0.2"/>
    <text x="275" y="156" text-anchor="middle" class="text-sm" fill="#22c55e">PASS</text>

    <!-- CLS Prevention -->
    <rect x="15" y="175" width="310" height="80" rx="6" fill="#334155"/>
    <text x="170" y="198" text-anchor="middle" class="heading">CLS Prevention Strategy</text>
    <text x="25" y="220" class="text-sm">• Reserve height with min-height: 400px</text>
    <text x="25" y="238" class="text-sm">• Fade transition instead of abrupt swap</text>
  </g>

  <!-- OBSERVER CODE SAMPLE -->
  <g id="code-sample" transform="translate(820, 500)">
    <text x="0" y="0" class="heading">IMPLEMENTATION PATTERN</text>

    <rect x="0" y="15" width="520" height="250" rx="8" fill="#1e293b" stroke="#475569"/>

    <text x="20" y="45" class="annotation">// Theme observer setup</text>
    <text x="20" y="65" class="text-sm" fill="#d946ef">const</text>
    <text x="55" y="65" class="text-sm"> observer = </text>
    <text x="120" y="65" class="text-sm" fill="#d946ef">new</text>
    <text x="145" y="65" class="text-sm" fill="#fbbf24"> MutationObserver</text>
    <text x="270" y="65" class="text-sm">((mutations) =&gt; {</text>

    <text x="30" y="85" class="text-sm" fill="#d946ef">  const</text>
    <text x="70" y="85" class="text-sm"> theme = mutations[0]?.target.dataset.theme;</text>

    <text x="30" y="105" class="text-sm">  debounce(() =&gt; updateDisqusTheme(theme), 300);</text>

    <text x="20" y="125" class="text-sm">});</text>

    <text x="20" y="155" class="annotation">// System preference listener</text>
    <text x="20" y="175" class="text-sm">matchMedia(</text>
    <text x="92" y="175" class="text-sm" fill="#22c55e">'(prefers-color-scheme: dark)'</text>
    <text x="290" y="175" class="text-sm">)</text>

    <text x="30" y="195" class="text-sm">.addEventListener(</text>
    <text x="145" y="195" class="text-sm" fill="#22c55e">'change'</text>
    <text x="200" y="195" class="text-sm">, (e) =&gt; {</text>

    <text x="40" y="215" class="text-sm" fill="#d946ef">    if</text>
    <text x="60" y="215" class="text-sm"> (followSystem) updateDisqusTheme(</text>

    <text x="50" y="235" class="text-sm">      e.matches ? </text>
    <text x="160" y="235" class="text-sm" fill="#22c55e">'dark'</text>
    <text x="200" y="235" class="text-sm"> : </text>
    <text x="215" y="235" class="text-sm" fill="#fbbf24">'light'</text>
    <text x="255" y="235" class="text-sm">);</text>

    <text x="30" y="255" class="text-sm">  });</text>
  </g>

  <!-- Arrow markers -->
  <defs>
    <marker id="arrowhead-violet" markerWidth="10" markerHeight="7" refX="9" refY="3.5" orient="auto">
      <polygon points="0 0, 10 3.5, 0 7" fill="#8b5cf6"/>
    </marker>
    <marker id="arrowhead-yellow" markerWidth="10" markerHeight="7" refX="9" refY="3.5" orient="auto">
      <polygon points="0 0, 10 3.5, 0 7" fill="#eab308"/>
    </marker>
    <marker id="arrowhead-green" markerWidth="10" markerHeight="7" refX="9" refY="3.5" orient="auto">
      <polygon points="0 0, 10 3.5, 0 7" fill="#22c55e"/>
    </marker>
  </defs>
</svg>
