<svg xmlns="http://www.w3.org/2000/svg" viewBox="0 0 1400 800" width="1400" height="800">
  <!-- ============================================================
       GENERATED BY: /wireframe skill
       SOURCE: features/code-quality/045-disqus-theme/spec.md
       DATE: 2026-01-01
       THEME: Dark (Backend/Architecture)
       DO NOT MANUALLY EDIT - Regenerate with /wireframe command
       ============================================================ -->
  <defs>
    <linearGradient id="bgGrad" x1="0%" y1="0%" x2="100%" y2="100%">
      <stop offset="0%" style="stop-color:#0f172a"/>
      <stop offset="100%" style="stop-color:#1e293b"/>
    </linearGradient>
    <linearGradient id="accentGrad" x1="0%" y1="0%" x2="100%" y2="0%">
      <stop offset="0%" style="stop-color:#8b5cf6"/>
      <stop offset="100%" style="stop-color:#d946ef"/>
    </linearGradient>
    <linearGradient id="disqusGrad" x1="0%" y1="0%" x2="100%" y2="100%">
      <stop offset="0%" style="stop-color:#2e9fff"/>
      <stop offset="100%" style="stop-color:#1a73e8"/>
    </linearGradient>
    <style>
      .heading-lg { fill: #ffffff; font-family: system-ui, sans-serif; font-size: 20px; font-weight: bold; }
      .heading { fill: #ffffff; font-family: system-ui, sans-serif; font-size: 14px; font-weight: bold; }
      .text-md { fill: #cbd5e1; font-family: system-ui, sans-serif; font-size: 12px; }
      .text-sm { fill: #94a3b8; font-family: system-ui, sans-serif; font-size: 10px; }
      .text-muted { fill: #8494a8; font-family: system-ui, sans-serif; font-size: 10px; }
      .annotation { fill: #8b5cf6; font-family: monospace; font-size: 10px; }
      .code { fill: #22c55e; font-family: monospace; font-size: 10px; }
    </style>
    <marker id="arrowhead" markerWidth="10" markerHeight="7" refX="9" refY="3.5" orient="auto">
      <polygon points="0 0, 10 3.5, 0 7" fill="#8b5cf6"/>
    </marker>
    <marker id="arrowhead-green" markerWidth="10" markerHeight="7" refX="9" refY="3.5" orient="auto">
      <polygon points="0 0, 10 3.5, 0 7" fill="#22c55e"/>
    </marker>
    <marker id="arrowhead-yellow" markerWidth="10" markerHeight="7" refX="9" refY="3.5" orient="auto">
      <polygon points="0 0, 10 3.5, 0 7" fill="#eab308"/>
    </marker>
    <marker id="arrowhead-blue" markerWidth="10" markerHeight="7" refX="9" refY="3.5" orient="auto">
      <polygon points="0 0, 10 3.5, 0 7" fill="#2e9fff"/>
    </marker>
  </defs>

  <!-- Background -->
  <rect width="1400" height="800" fill="url(#bgGrad)"/>

  <!-- Dot grid pattern -->
  <g opacity="0.05">
    <pattern id="dots" width="30" height="30" patternUnits="userSpaceOnUse">
      <circle cx="15" cy="15" r="1" fill="#fff"/>
    </pattern>
    <rect width="1400" height="800" fill="url(#dots)"/>
  </g>

  <!-- Accent line top -->
  <rect x="0" y="0" width="1400" height="3" fill="url(#accentGrad)"/>

  <!-- Title -->
  <text x="700" y="28" text-anchor="middle" font-family="system-ui, sans-serif" font-size="14" font-weight="600" fill="#8494a8" letter-spacing="1">DISQUS THEME INTEGRATION ARCHITECTURE</text>

  <!-- ==================== THEME DETECTION LAYER ==================== -->
  <g transform="translate(40, 50)">
    <text x="0" y="0" class="heading-lg">Theme Detection</text>

    <rect x="0" y="20" width="320" height="180" rx="8" fill="#1e293b" stroke="#8b5cf6"/>
    <text x="160" y="45" text-anchor="middle" class="heading" fill="#8b5cf6">ThemeDetector</text>

    <g transform="translate(15, 60)">
      <rect x="0" y="0" width="290" height="130" rx="4" fill="#334155"/>

      <text x="10" y="20" class="code">// FR-002: Extract theme</text>
      <text x="10" y="38" class="code">const theme = document</text>
      <text x="10" y="53" class="code">  .documentElement</text>
      <text x="10" y="68" class="code">  .getAttribute('data-theme');</text>

      <text x="10" y="90" class="code">// FR-014: System preference</text>
      <text x="10" y="108" class="code">matchMedia('(prefers-color-scheme: dark)')</text>
      <text x="10" y="123" class="code">  .addEventListener('change', handleChange);</text>
    </g>
  </g>

  <!-- ==================== THEME MAPPING SERVICE ==================== -->
  <g transform="translate(380, 50)">
    <text x="0" y="0" class="heading-lg">Theme Mapping</text>

    <rect x="0" y="20" width="340" height="180" rx="8" fill="#1e293b" stroke="#22c55e"/>
    <text x="170" y="45" text-anchor="middle" class="heading" fill="#22c55e">ThemeMappingService</text>

    <g transform="translate(15, 60)">
      <rect x="0" y="0" width="310" height="130" rx="4" fill="#334155"/>

      <text x="10" y="20" class="code">// FR-001: 32 theme mappings</text>
      <text x="10" y="38" class="text-sm">const THEME_MAP = {</text>
      <text x="20" y="53" class="text-sm">'light': { scheme: 'light', accent: '#570df8' },</text>
      <text x="20" y="68" class="text-sm">'dark': { scheme: 'dark', accent: '#661ae6' },</text>
      <text x="20" y="83" class="text-sm">'cupcake': { scheme: 'light', accent: '#65c3c8' },</text>
      <text x="20" y="98" class="text-sm">... // 29 more themes</text>
      <text x="10" y="113" class="text-sm">};</text>
      <text x="10" y="128" class="text-muted">FR-003: Determine light/dark | FR-004: Extract accent</text>
    </g>
  </g>

  <!-- ==================== CONSENT MANAGER ==================== -->
  <g transform="translate(740, 50)">
    <text x="0" y="0" class="heading-lg">Consent Integration</text>

    <rect x="0" y="20" width="280" height="180" rx="8" fill="#1e293b" stroke="#eab308"/>
    <text x="140" y="45" text-anchor="middle" class="heading" fill="#eab308">ConsentManager</text>

    <g transform="translate(15, 60)">
      <rect x="0" y="0" width="250" height="130" rx="4" fill="#334155"/>

      <text x="10" y="20" class="code">// FR-015, NFR-008</text>
      <text x="10" y="38" class="text-md" fill="#fff">Consent States:</text>
      <text x="10" y="56" class="text-sm">• NOT_ASKED → Show prompt</text>
      <text x="10" y="71" class="text-sm">• DENIED → Show disabled message</text>
      <text x="10" y="86" class="text-sm">• GRANTED → Load Disqus</text>
      <text x="10" y="101" class="text-sm">• REVOKED → Unload Disqus (FR-019)</text>

      <text x="10" y="123" class="annotation">Syncs with 002-cookie-consent</text>
    </g>
  </g>

  <!-- ==================== DISQUS LOADER ==================== -->
  <g transform="translate(1040, 50)">
    <text x="0" y="0" class="heading-lg">Disqus Loader</text>

    <rect x="0" y="20" width="320" height="180" rx="8" fill="url(#disqusGrad)"/>
    <text x="160" y="45" text-anchor="middle" class="heading">DisqusLoader</text>

    <g transform="translate(15, 60)">
      <rect x="0" y="0" width="290" height="130" rx="4" fill="#1a1a2e" opacity="0.8"/>

      <text x="10" y="20" class="code">// FR-006: Configure colorScheme</text>
      <text x="10" y="38" class="text-sm" fill="#fff">DISQUS.reset({</text>
      <text x="20" y="53" class="text-sm" fill="#fff">reload: true,</text>
      <text x="20" y="68" class="text-sm" fill="#fff">config: function() {</text>
      <text x="30" y="83" class="text-sm" fill="#fff">this.page.colorScheme = 'light';</text>
      <text x="20" y="98" class="text-sm" fill="#fff">}</text>
      <text x="10" y="113" class="text-sm" fill="#fff">});</text>
      <text x="10" y="128" class="text-muted">NFR-007: Lazy loaded</text>
    </g>
  </g>

  <!-- ==================== DYNAMIC UPDATE FLOW ==================== -->
  <g transform="translate(40, 260)">
    <text x="0" y="0" class="heading-lg">Dynamic Update Flow (FR-010-013)</text>

    <rect x="0" y="20" width="680" height="200" rx="8" fill="#1e293b" stroke="#d946ef"/>

    <!-- Step 1: Theme Change Event -->
    <g transform="translate(20, 45)">
      <rect x="0" y="0" width="140" height="80" rx="6" fill="#334155"/>
      <circle cx="70" cy="25" r="15" fill="#8b5cf6"/>
      <text x="70" y="30" text-anchor="middle" fill="#fff" font-size="14" font-weight="bold">1</text>
      <text x="70" y="55" text-anchor="middle" class="text-md" fill="#fff">Theme Change</text>
      <text x="70" y="70" text-anchor="middle" class="text-muted">data-theme updated</text>
    </g>

    <!-- Arrow 1→2 -->
    <line x1="160" y1="85" x2="180" y2="85" stroke="#8b5cf6" stroke-width="2" marker-end="url(#arrowhead)"/>

    <!-- Step 2: Debounce -->
    <g transform="translate(180, 45)">
      <rect x="0" y="0" width="140" height="80" rx="6" fill="#334155"/>
      <circle cx="70" cy="25" r="15" fill="#eab308"/>
      <text x="70" y="30" text-anchor="middle" fill="#1a1a2e" font-size="14" font-weight="bold">2</text>
      <text x="70" y="55" text-anchor="middle" class="text-md" fill="#fff">Debounce</text>
      <text x="70" y="70" text-anchor="middle" class="text-muted">300ms (FR-012)</text>
    </g>

    <!-- Arrow 2→3 -->
    <line x1="320" y1="85" x2="340" y2="85" stroke="#eab308" stroke-width="2" marker-end="url(#arrowhead-yellow)"/>

    <!-- Step 3: Map Theme -->
    <g transform="translate(340, 45)">
      <rect x="0" y="0" width="140" height="80" rx="6" fill="#334155"/>
      <circle cx="70" cy="25" r="15" fill="#22c55e"/>
      <text x="70" y="30" text-anchor="middle" fill="#fff" font-size="14" font-weight="bold">3</text>
      <text x="70" y="55" text-anchor="middle" class="text-md" fill="#fff">Map Theme</text>
      <text x="70" y="70" text-anchor="middle" class="text-muted">→ Disqus config</text>
    </g>

    <!-- Arrow 3→4 -->
    <line x1="480" y1="85" x2="500" y2="85" stroke="#22c55e" stroke-width="2" marker-end="url(#arrowhead-green)"/>

    <!-- Step 4: Reload Disqus -->
    <g transform="translate(500, 45)">
      <rect x="0" y="0" width="160" height="80" rx="6" fill="#334155" stroke="#2e9fff"/>
      <circle cx="80" cy="25" r="15" fill="#2e9fff"/>
      <text x="80" y="30" text-anchor="middle" fill="#fff" font-size="14" font-weight="bold">4</text>
      <text x="80" y="55" text-anchor="middle" class="text-md" fill="#fff">Reload Disqus</text>
      <text x="80" y="70" text-anchor="middle" class="text-muted">DISQUS.reset()</text>
    </g>

    <!-- Performance metrics -->
    <g transform="translate(20, 140)">
      <rect x="0" y="0" width="640" height="60" rx="4" fill="#334155"/>
      <text x="10" y="20" class="heading" fill="#d946ef">Performance Requirements</text>
      <text x="10" y="40" class="text-sm">NFR-004: Theme detection &lt;10ms</text>
      <text x="200" y="40" class="text-sm">NFR-005: Reload &lt;500ms</text>
      <text x="360" y="40" class="text-sm">NFR-006: Zero CLS</text>
      <text x="500" y="40" class="text-sm">NFR-001: No flash</text>
    </g>
  </g>

  <!-- ==================== MUTATION OBSERVER ==================== -->
  <g transform="translate(740, 260)">
    <text x="0" y="0" class="heading-lg">MutationObserver (FR-010)</text>

    <rect x="0" y="20" width="300" height="200" rx="8" fill="#1e293b" stroke="#8b5cf6"/>

    <g transform="translate(15, 45)">
      <rect x="0" y="0" width="270" height="160" rx="4" fill="#334155"/>

      <text x="10" y="20" class="code">// Watch for theme changes</text>
      <text x="10" y="38" class="text-sm" fill="#fff">const observer = new MutationObserver(</text>
      <text x="20" y="53" class="text-sm" fill="#fff">(mutations) => {</text>
      <text x="30" y="68" class="text-sm" fill="#fff">if (themeChanged(mutations)) {</text>
      <text x="40" y="83" class="text-sm" fill="#fff">debounce(updateDisqusTheme);</text>
      <text x="30" y="98" class="text-sm" fill="#fff">}</text>
      <text x="20" y="113" class="text-sm" fill="#fff">}</text>
      <text x="10" y="128" class="text-sm" fill="#fff">);</text>

      <text x="10" y="150" class="text-muted">Observes: document.documentElement</text>
    </g>
  </g>

  <!-- ==================== FALLBACK HANDLER ==================== -->
  <g transform="translate(1060, 260)">
    <text x="0" y="0" class="heading-lg">Fallback Handler</text>

    <rect x="0" y="20" width="300" height="200" rx="8" fill="#1e293b" stroke="#ef4444"/>

    <g transform="translate(15, 45)">
      <rect x="0" y="0" width="270" height="160" rx="4" fill="#334155"/>

      <text x="10" y="20" class="heading" fill="#ef4444">Edge Cases</text>

      <text x="10" y="45" class="text-sm">FR-005: Unmapped theme</text>
      <text x="10" y="60" class="text-muted">→ Analyze brightness → light/dark</text>

      <text x="10" y="85" class="text-sm">FR-021: Disqus load failed</text>
      <text x="10" y="100" class="text-muted">→ Show error placeholder</text>

      <text x="10" y="125" class="text-sm">FR-023: Contrast issue</text>
      <text x="10" y="140" class="text-muted">→ Use high-contrast fallback</text>

      <text x="10" y="160" class="annotation">NFR-002: WCAG AA required</text>
    </g>
  </g>

  <!-- ==================== INTEGRATION FLOW DIAGRAM ==================== -->
  <g transform="translate(40, 480)">
    <text x="0" y="0" class="heading-lg">Component Integration Flow</text>

    <rect x="0" y="20" width="600" height="260" rx="8" fill="#1e293b" stroke="#475569"/>

    <!-- DaisyUI Theme -->
    <g transform="translate(30, 50)">
      <rect x="0" y="0" width="120" height="60" rx="6" fill="#8b5cf6"/>
      <text x="60" y="25" text-anchor="middle" fill="#fff" font-weight="bold">DaisyUI</text>
      <text x="60" y="45" text-anchor="middle" fill="#fff" font-size="11">32 Themes</text>
    </g>

    <!-- Arrow -->
    <line x1="150" y1="80" x2="180" y2="80" stroke="#8b5cf6" stroke-width="2" marker-end="url(#arrowhead)"/>

    <!-- Theme Detector -->
    <g transform="translate(180, 50)">
      <rect x="0" y="0" width="120" height="60" rx="6" fill="#334155" stroke="#8b5cf6"/>
      <text x="60" y="25" text-anchor="middle" class="text-md" fill="#fff">Theme</text>
      <text x="60" y="45" text-anchor="middle" class="text-md" fill="#fff">Detector</text>
    </g>

    <!-- Arrow -->
    <line x1="300" y1="80" x2="330" y2="80" stroke="#8b5cf6" stroke-width="2" marker-end="url(#arrowhead)"/>

    <!-- Mapper -->
    <g transform="translate(330, 50)">
      <rect x="0" y="0" width="120" height="60" rx="6" fill="#334155" stroke="#22c55e"/>
      <text x="60" y="25" text-anchor="middle" class="text-md" fill="#fff">Theme</text>
      <text x="60" y="45" text-anchor="middle" class="text-md" fill="#fff">Mapper</text>
    </g>

    <!-- Arrow down -->
    <line x1="390" y1="110" x2="390" y2="140" stroke="#22c55e" stroke-width="2" marker-end="url(#arrowhead-green)"/>

    <!-- Consent Gate -->
    <g transform="translate(180, 140)">
      <rect x="0" y="0" width="120" height="60" rx="6" fill="#334155" stroke="#eab308"/>
      <text x="60" y="25" text-anchor="middle" class="text-md" fill="#fff">Consent</text>
      <text x="60" y="45" text-anchor="middle" class="text-md" fill="#fff">Gate</text>
    </g>

    <!-- Arrow from mapper to consent -->
    <line x1="330" y1="170" x2="300" y2="170" stroke="#eab308" stroke-width="2" marker-end="url(#arrowhead-yellow)"/>

    <!-- Arrow from consent to Disqus -->
    <line x1="300" y1="200" x2="330" y2="200" stroke="#22c55e" stroke-width="2" stroke-dasharray="5,3"/>
    <text x="265" y="215" class="text-muted">if granted</text>

    <!-- Disqus Loader -->
    <g transform="translate(330, 140)">
      <rect x="0" y="0" width="120" height="60" rx="6" fill="url(#disqusGrad)"/>
      <text x="60" y="25" text-anchor="middle" fill="#fff" font-weight="bold">Disqus</text>
      <text x="60" y="45" text-anchor="middle" fill="#fff" font-size="11">Loader</text>
    </g>

    <!-- Arrow to iframe -->
    <line x1="450" y1="170" x2="480" y2="170" stroke="#2e9fff" stroke-width="2" marker-end="url(#arrowhead-blue)"/>

    <!-- Disqus iframe -->
    <g transform="translate(480, 140)">
      <rect x="0" y="0" width="100" height="60" rx="6" fill="#1a1a2e" stroke="#2e9fff"/>
      <text x="50" y="25" text-anchor="middle" class="text-md" fill="#fff">Disqus</text>
      <text x="50" y="45" text-anchor="middle" class="text-md" fill="#fff">iframe</text>
    </g>

    <!-- Cookie Consent dependency -->
    <g transform="translate(30, 140)">
      <rect x="0" y="0" width="120" height="60" rx="6" fill="#334155" stroke="#475569" stroke-dasharray="5,3"/>
      <text x="60" y="25" text-anchor="middle" class="text-muted">002-Cookie</text>
      <text x="60" y="45" text-anchor="middle" class="text-muted">Consent</text>
    </g>

    <!-- Arrow from cookie to consent gate -->
    <line x1="150" y1="170" x2="180" y2="170" stroke="#475569" stroke-width="1" stroke-dasharray="5,3"/>

    <!-- Legend -->
    <g transform="translate(30, 220)">
      <text x="0" y="0" class="text-muted">Dependencies:</text>
      <text x="0" y="18" class="text-sm">• 002-cookie-consent (consent state)</text>
      <text x="200" y="18" class="text-sm">• 019-google-analytics (consent framework)</text>
    </g>
  </g>

  <!-- ==================== SUCCESS CRITERIA ==================== -->
  <g transform="translate(660, 480)">
    <text x="0" y="0" class="heading-lg">Success Criteria</text>

    <rect x="0" y="20" width="350" height="260" rx="8" fill="#1e293b" stroke="#22c55e"/>

    <g transform="translate(15, 45)">
      <text x="0" y="0" class="text-md" fill="#22c55e">✓ SC-001: All 32 themes mapped</text>
      <text x="0" y="22" class="text-md" fill="#22c55e">✓ SC-002: Updates within 500ms</text>
      <text x="0" y="44" class="text-md" fill="#22c55e">✓ SC-003: WCAG AA contrast (4.5:1)</text>
      <text x="0" y="66" class="text-md" fill="#22c55e">✓ SC-004: Zero CLS on theme change</text>
      <text x="0" y="88" class="text-md" fill="#22c55e">✓ SC-005: System preference detected</text>
      <text x="0" y="110" class="text-md" fill="#22c55e">✓ SC-006: No Disqus before consent</text>
      <text x="0" y="132" class="text-md" fill="#22c55e">✓ SC-007: Clear enable path</text>
      <text x="0" y="154" class="text-md" fill="#22c55e">✓ SC-008: Graceful fallback on error</text>
    </g>

    <g transform="translate(15, 210)">
      <rect x="0" y="0" width="320" height="55" rx="4" fill="#334155"/>
      <text x="10" y="20" class="text-md" fill="#fff">Test Coverage:</text>
      <text x="10" y="40" class="text-sm">32 theme mappings × 2 states (consent)</text>
      <text x="10" y="55" class="text-muted">= 64 test scenarios minimum</text>
    </g>
  </g>

  <!-- ==================== NFR REQUIREMENTS ==================== -->
  <g transform="translate(1030, 480)">
    <text x="0" y="0" class="heading-lg">Non-Functional Requirements</text>

    <rect x="0" y="20" width="330" height="260" rx="8" fill="#1e293b" stroke="#d946ef"/>

    <g transform="translate(15, 45)">
      <text x="0" y="0" class="heading" fill="#d946ef">Visual Quality</text>
      <text x="0" y="20" class="text-sm">NFR-001: No jarring flash</text>
      <text x="0" y="35" class="text-sm">NFR-002: WCAG AA contrast</text>
      <text x="0" y="50" class="text-sm">NFR-003: Cross-browser consistent</text>

      <text x="0" y="80" class="heading" fill="#d946ef">Performance</text>
      <text x="0" y="100" class="text-sm">NFR-004: Detection &lt;10ms</text>
      <text x="0" y="115" class="text-sm">NFR-005: Reload &lt;500ms</text>
      <text x="0" y="130" class="text-sm">NFR-006: Zero CLS impact</text>
      <text x="0" y="145" class="text-sm">NFR-007: Lazy-loaded script</text>

      <text x="0" y="175" class="heading" fill="#d946ef">Privacy</text>
      <text x="0" y="195" class="text-sm">NFR-008: No load without consent</text>
      <text x="0" y="210" class="text-sm">NFR-009: Persistent preference</text>
      <text x="0" y="225" class="text-sm">NFR-010: Consent manager sync</text>
    </g>
  </g>
</svg>