<svg xmlns="http://www.w3.org/2000/svg" viewBox="0 0 1400 800" width="1400" height="800">
  <!-- ============================================================
       GENERATED BY: /wireframe skill
       SOURCE: features/auth-oauth/014-admin-welcome-email-gate/spec.md
       DATE: 2025-12-31
       DO NOT MANUALLY EDIT - Regenerate with /wireframe command
       ============================================================ -->
  <defs>
    <linearGradient id="bgGrad" x1="0%" y1="0%" x2="100%" y2="100%">
      <stop offset="0%" style="stop-color:#0f172a"/>
      <stop offset="100%" style="stop-color:#1e293b"/>
    </linearGradient>
    <linearGradient id="accentGrad" x1="0%" y1="0%" x2="100%" y2="0%">
      <stop offset="0%" style="stop-color:#8b5cf6"/>
      <stop offset="100%" style="stop-color:#d946ef"/>
    </linearGradient>
    <linearGradient id="lockGrad" x1="0%" y1="0%" x2="0%" y2="100%">
      <stop offset="0%" style="stop-color:#eab308"/>
      <stop offset="100%" style="stop-color:#ca8a04"/>
    </linearGradient>
    <style>
      .heading-lg { fill: #ffffff; font-family: system-ui, sans-serif; font-size: 20px; font-weight: bold; }
      .heading { fill: #ffffff; font-family: system-ui, sans-serif; font-size: 14px; font-weight: bold; }
      .text-md { fill: #cbd5e1; font-family: system-ui, sans-serif; font-size: 12px; }
      .text-sm { fill: #94a3b8; font-family: system-ui, sans-serif; font-size: 10px; }
      .text-muted { fill: #64748b; font-family: system-ui, sans-serif; font-size: 10px; }
      .annotation { fill: #8b5cf6; font-family: monospace; font-size: 10px; }
      .label-desktop { fill: #8b5cf6; font-family: monospace; font-size: 11px; font-weight: bold; }
      .label-mobile { fill: #d946ef; font-family: monospace; font-size: 11px; font-weight: bold; }
    </style>
  </defs>

  <!-- Background -->
  <rect width="1400" height="800" fill="url(#bgGrad)"/>

  <!-- Dot grid pattern -->
  <g opacity="0.05">
    <pattern id="dots" width="30" height="30" patternUnits="userSpaceOnUse">
      <circle cx="15" cy="15" r="1" fill="#fff"/>
    </pattern>
    <rect width="1400" height="800" fill="url(#dots)"/>
  </g>

  <!-- Accent line top -->
  <rect x="0" y="0" width="1400" height="3" fill="url(#accentGrad)"/>

  <!-- Title -->
  <text x="700" y="28" text-anchor="middle" font-family="system-ui, sans-serif" font-size="14" font-weight="600" fill="#64748b" letter-spacing="1">EMAIL VERIFICATION GATE</text>

  <!-- DESKTOP SECTION -->
  <text x="40" y="52" class="label-desktop">DESKTOP</text>
  <g id="desktop-view">
    <!-- Desktop container -->
    <rect x="40" y="60" width="900" height="680" rx="8" fill="#0f172a" stroke="#334155" stroke-width="1"/>

    <!-- Header bar -->
    <rect x="40" y="60" width="900" height="50" rx="8" fill="#1e293b"/>
    <rect x="40" y="102" width="900" height="8" fill="#1e293b"/>
    <!-- Logo -->
    <circle cx="75" cy="85" r="14" fill="#8b5cf6"/>
    <text x="75" y="90" text-anchor="middle" font-family="system-ui, sans-serif" font-size="12" font-weight="bold" fill="#fff">S</text>
    <text x="100" y="90" font-family="system-ui, sans-serif" font-size="14" font-weight="bold" fill="#fff">ScriptHammer</text>
    <!-- User info -->
    <text x="860" y="85" text-anchor="end" class="text-sm">j***@email.com</text>
    <circle cx="890" cy="85" r="14" fill="#334155"/>
    <text x="890" y="90" text-anchor="middle" class="text-sm">JD</text>

    <!-- Sidebar (grayed out/locked) -->
    <rect x="50" y="120" width="180" height="610" rx="6" fill="#1e293b" opacity="0.5"/>
    <!-- Lock overlay on sidebar -->
    <rect x="50" y="120" width="180" height="610" rx="6" fill="#0f172a" opacity="0.7"/>
    <!-- Sidebar items (dimmed) -->
    <rect x="60" y="135" width="160" height="36" rx="4" fill="#334155" opacity="0.3"/>
    <text x="100" y="158" class="text-muted" opacity="0.5">Dashboard</text>
    <rect x="60" y="180" width="160" height="36" rx="4" fill="#8b5cf6" opacity="0.2"/>
    <text x="100" y="203" fill="#8b5cf6" font-family="system-ui, sans-serif" font-size="11" opacity="0.5">Messages</text>
    <!-- Lock icon on sidebar -->
    <g transform="translate(130, 280)">
      <rect x="-12" y="0" width="24" height="18" rx="3" fill="#475569"/>
      <path d="M-6 0 L-6 -8 A6 6 0 0 1 6 -8 L6 0" fill="none" stroke="#475569" stroke-width="3"/>
      <circle cx="0" cy="9" r="2" fill="#64748b"/>
    </g>
    <text x="130" y="320" text-anchor="middle" class="text-muted">Locked</text>

    <!-- Main content area - Verification Gate Card -->
    <rect x="250" y="180" width="500" height="420" rx="12" fill="#1e293b" stroke="#475569" stroke-width="1"/>

    <!-- Warning/Lock Icon -->
    <g transform="translate(500, 230)">
      <circle cx="0" cy="0" r="36" fill="#eab308" opacity="0.15"/>
      <rect x="-16" y="-4" width="32" height="24" rx="4" fill="url(#lockGrad)"/>
      <path d="M-10 -4 L-10 -14 A10 10 0 0 1 10 -14 L10 -4" fill="none" stroke="url(#lockGrad)" stroke-width="4"/>
      <circle cx="0" cy="8" r="4" fill="#1e293b"/>
      <rect x="-2" y="6" width="4" height="8" fill="#1e293b"/>
    </g>

    <!-- Gate content -->
    <text x="500" y="300" text-anchor="middle" class="heading-lg">Email Verification Required</text>
    <text x="500" y="325" text-anchor="middle" class="text-md">Please verify your email to access messaging features.</text>
    <text x="500" y="345" text-anchor="middle" class="text-sm">We sent a verification link to:</text>

    <!-- Email display -->
    <rect x="350" y="360" width="300" height="36" rx="6" fill="#334155"/>
    <text x="500" y="383" text-anchor="middle" font-family="monospace" font-size="13" fill="#cbd5e1">j***@email.com</text>

    <!-- Primary CTA - Resend -->
    <rect x="350" y="420" width="300" height="44" rx="6" fill="#8b5cf6"/>
    <text x="500" y="448" text-anchor="middle" font-family="system-ui, sans-serif" font-size="13" font-weight="600" fill="#fff">Resend Verification Email</text>

    <!-- Secondary action -->
    <rect x="350" y="480" width="300" height="36" rx="6" fill="none" stroke="#475569" stroke-width="1"/>
    <text x="500" y="503" text-anchor="middle" class="text-md">Check Verification Status</text>

    <!-- Help text -->
    <text x="500" y="550" text-anchor="middle" class="text-muted">Didn't receive the email? Check your spam folder or</text>
    <text x="500" y="568" text-anchor="middle" fill="#8b5cf6" font-family="system-ui, sans-serif" font-size="10">contact support</text>

    <!-- Success toast (annotation showing feedback state) -->
    <g transform="translate(580, 620)">
      <rect x="0" y="0" width="160" height="36" rx="6" fill="#166534" stroke="#22c55e" stroke-width="1"/>
      <circle cx="20" cy="18" r="8" fill="#22c55e"/>
      <path d="M16 18 L19 21 L25 15" fill="none" stroke="#fff" stroke-width="2"/>
      <text x="36" y="22" font-family="system-ui, sans-serif" font-size="11" fill="#fff">Email sent!</text>
    </g>
  </g>

  <!-- MOBILE SECTION -->
  <text x="980" y="52" class="label-mobile">MOBILE</text>
  <g id="mobile-view" transform="translate(980, 60)">
    <!-- Phone frame -->
    <rect x="0" y="0" width="360" height="700" rx="24" fill="#1e293b" stroke="#475569" stroke-width="2"/>
    <!-- Screen area -->
    <rect x="10" y="10" width="340" height="680" rx="16" fill="#0f172a"/>
    <!-- Status bar -->
    <rect x="10" y="10" width="340" height="28" rx="16" fill="#1e293b"/>
    <text x="30" y="28" class="text-sm">9:41</text>
    <text x="320" y="28" text-anchor="end" class="text-sm">100%</text>

    <!-- Mobile header -->
    <rect x="10" y="38" width="340" height="50" fill="#1e293b"/>
    <text x="30" y="68" font-family="system-ui, sans-serif" font-size="16" font-weight="bold" fill="#fff">Messages</text>

    <!-- Gate content (centered) -->
    <!-- Lock Icon -->
    <g transform="translate(180, 180)">
      <circle cx="0" cy="0" r="40" fill="#eab308" opacity="0.15"/>
      <rect x="-20" y="-5" width="40" height="30" rx="5" fill="url(#lockGrad)"/>
      <path d="M-12 -5 L-12 -18 A12 12 0 0 1 12 -18 L12 -5" fill="none" stroke="url(#lockGrad)" stroke-width="5"/>
      <circle cx="0" cy="10" r="5" fill="#1e293b"/>
      <rect x="-3" y="7" width="6" height="10" fill="#1e293b"/>
    </g>

    <!-- Mobile gate text -->
    <text x="180" y="260" text-anchor="middle" font-family="system-ui, sans-serif" font-size="18" font-weight="bold" fill="#fff">Verify Your Email</text>
    <text x="180" y="285" text-anchor="middle" class="text-md">To access messaging, please</text>
    <text x="180" y="303" text-anchor="middle" class="text-md">verify your email address.</text>

    <!-- Email display -->
    <rect x="30" y="330" width="300" height="40" rx="8" fill="#334155"/>
    <text x="180" y="355" text-anchor="middle" font-family="monospace" font-size="12" fill="#cbd5e1">j***@email.com</text>

    <!-- Primary CTA -->
    <rect x="30" y="400" width="300" height="48" rx="8" fill="#8b5cf6"/>
    <text x="180" y="430" text-anchor="middle" font-family="system-ui, sans-serif" font-size="14" font-weight="600" fill="#fff">Resend Verification</text>

    <!-- Secondary CTA -->
    <rect x="30" y="465" width="300" height="40" rx="8" fill="none" stroke="#475569" stroke-width="1"/>
    <text x="180" y="490" text-anchor="middle" class="text-md">Check Status</text>

    <!-- Help link -->
    <text x="180" y="550" text-anchor="middle" class="text-muted">Need help?</text>
    <text x="180" y="570" text-anchor="middle" fill="#8b5cf6" font-family="system-ui, sans-serif" font-size="11">Contact Support</text>

    <!-- OAuth bypass note -->
    <rect x="30" y="610" width="300" height="50" rx="8" fill="#1e293b" stroke="#334155" stroke-width="1"/>
    <text x="180" y="632" text-anchor="middle" class="text-sm">Signed in with Google/GitHub?</text>
    <text x="180" y="650" text-anchor="middle" fill="#22c55e" font-family="system-ui, sans-serif" font-size="10">You're automatically verified!</text>
  </g>

  <!-- Annotations -->
  <!-- Desktop annotation - FR-002 -->
  <g class="annotation-box">
    <rect x="760" y="195" width="90" height="50" rx="4" fill="#1e293b" stroke="#8b5cf6" stroke-width="1"/>
    <text x="805" y="213" text-anchor="middle" class="annotation">FR-002</text>
    <text x="805" y="228" text-anchor="middle" class="text-muted">Clear message</text>
    <text x="805" y="240" text-anchor="middle" class="text-muted">explaining block</text>
  </g>

  <!-- Desktop annotation - FR-003 -->
  <g class="annotation-box">
    <rect x="760" y="410" width="90" height="40" rx="4" fill="#1e293b" stroke="#8b5cf6" stroke-width="1"/>
    <text x="805" y="428" text-anchor="middle" class="annotation">FR-003</text>
    <text x="805" y="443" text-anchor="middle" class="text-muted">Resend button</text>
  </g>

  <!-- Success state annotation -->
  <g class="annotation-box">
    <rect x="760" y="610" width="90" height="40" rx="4" fill="#1e293b" stroke="#22c55e" stroke-width="1"/>
    <text x="805" y="628" text-anchor="middle" fill="#22c55e" font-family="monospace" font-size="10">SUCCESS</text>
    <text x="805" y="643" text-anchor="middle" class="text-muted">Feedback toast</text>
  </g>

  <!-- Mobile annotation - OAuth bypass -->
  <g class="annotation-box">
    <rect x="1350" y="620" width="45" height="40" rx="4" fill="#1e293b" stroke="#22c55e" stroke-width="1"/>
    <text x="1372" y="638" text-anchor="middle" fill="#22c55e" font-family="monospace" font-size="9">FR-005</text>
    <text x="1372" y="653" text-anchor="middle" class="text-muted">OAuth</text>
  </g>

  <!-- Leader lines -->
  <g id="leader-lines">
    <line x1="760" y1="220" x2="755" y2="255" stroke="#8b5cf6" stroke-width="1" stroke-dasharray="4,2"/>
    <line x1="760" y1="430" x2="655" y2="442" stroke="#8b5cf6" stroke-width="1" stroke-dasharray="4,2"/>
    <line x1="760" y1="630" x2="745" y2="638" stroke="#22c55e" stroke-width="1" stroke-dasharray="4,2"/>
    <line x1="1350" y1="640" x2="1340" y2="645" stroke="#22c55e" stroke-width="1" stroke-dasharray="4,2"/>
  </g>
</svg>
