<svg xmlns="http://www.w3.org/2000/svg" viewBox="0 0 1400 800" width="1400" height="800">
  <!-- ============================================================
       GENERATED BY: /wireframe skill
       SOURCE: features/auth-oauth/014-admin-welcome-email-gate/spec.md
       DATE: 2025-12-31
       DO NOT MANUALLY EDIT - Regenerate with /wireframe command
       ============================================================ -->
  <defs>
    <linearGradient id="bgGrad" x1="0%" y1="0%" x2="100%" y2="100%">
      <stop offset="0%" style="stop-color:#0f172a"/>
      <stop offset="100%" style="stop-color:#1e293b"/>
    </linearGradient>
    <linearGradient id="accentGrad" x1="0%" y1="0%" x2="100%" y2="0%">
      <stop offset="0%" style="stop-color:#8b5cf6"/>
      <stop offset="100%" style="stop-color:#d946ef"/>
    </linearGradient>
    <linearGradient id="supabaseGrad" x1="0%" y1="0%" x2="100%" y2="100%">
      <stop offset="0%" style="stop-color:#3ecf8e"/>
      <stop offset="100%" style="stop-color:#1a8c5a"/>
    </linearGradient>
    <linearGradient id="processGrad" x1="0%" y1="0%" x2="100%" y2="100%">
      <stop offset="0%" style="stop-color:#8b5cf6"/>
      <stop offset="100%" style="stop-color:#6d28d9"/>
    </linearGradient>
    <linearGradient id="keyGrad" x1="0%" y1="0%" x2="100%" y2="100%">
      <stop offset="0%" style="stop-color:#eab308"/>
      <stop offset="100%" style="stop-color:#ca8a04"/>
    </linearGradient>
    <marker id="arrowhead" markerWidth="10" markerHeight="7" refX="9" refY="3.5" orient="auto">
      <polygon points="0 0, 10 3.5, 0 7" fill="#8b5cf6"/>
    </marker>
    <marker id="arrowhead-green" markerWidth="10" markerHeight="7" refX="9" refY="3.5" orient="auto">
      <polygon points="0 0, 10 3.5, 0 7" fill="#22c55e"/>
    </marker>
    <marker id="arrowhead-red" markerWidth="10" markerHeight="7" refX="9" refY="3.5" orient="auto">
      <polygon points="0 0, 10 3.5, 0 7" fill="#ef4444"/>
    </marker>
    <style>
      .heading-lg { fill: #ffffff; font-family: system-ui, sans-serif; font-size: 20px; font-weight: bold; }
      .heading { fill: #ffffff; font-family: system-ui, sans-serif; font-size: 14px; font-weight: bold; }
      .text-md { fill: #cbd5e1; font-family: system-ui, sans-serif; font-size: 12px; }
      .text-sm { fill: #94a3b8; font-family: system-ui, sans-serif; font-size: 10px; }
      .text-muted { fill: #64748b; font-family: system-ui, sans-serif; font-size: 10px; }
      .annotation { fill: #8b5cf6; font-family: monospace; font-size: 10px; }
      .box-label { fill: #ffffff; font-family: system-ui, sans-serif; font-size: 11px; font-weight: 600; }
    </style>
  </defs>

  <!-- Background -->
  <rect width="1400" height="800" fill="url(#bgGrad)"/>

  <!-- Dot grid pattern -->
  <g opacity="0.05">
    <pattern id="dots" width="30" height="30" patternUnits="userSpaceOnUse">
      <circle cx="15" cy="15" r="1" fill="#fff"/>
    </pattern>
    <rect width="1400" height="800" fill="url(#dots)"/>
  </g>

  <!-- Accent line top -->
  <rect x="0" y="0" width="1400" height="3" fill="url(#accentGrad)"/>

  <!-- Title -->
  <text x="700" y="35" text-anchor="middle" font-family="system-ui, sans-serif" font-size="18" font-weight="bold" fill="#fff">Admin Setup Process Architecture</text>
  <text x="700" y="55" text-anchor="middle" class="text-sm">Feature 014 - Build/Deploy Time Configuration</text>

  <!-- Section: Environment Config (Left) -->
  <g transform="translate(60, 100)">
    <!-- Box -->
    <rect x="0" y="0" width="200" height="140" rx="8" fill="#1e293b" stroke="#475569" stroke-width="1"/>
    <rect x="0" y="0" width="200" height="30" rx="8" fill="#334155"/>
    <rect x="0" y="22" width="200" height="8" fill="#334155"/>
    <text x="100" y="20" text-anchor="middle" class="box-label">Environment Config</text>

    <!-- Env vars -->
    <text x="15" y="55" font-family="monospace" font-size="10" fill="#22c55e">ADMIN_EMAIL</text>
    <text x="15" y="75" font-family="monospace" font-size="9" fill="#94a3b8">admin@scripthammer.com</text>

    <text x="15" y="100" font-family="monospace" font-size="10" fill="#22c55e">ADMIN_ID</text>
    <text x="15" y="120" font-family="monospace" font-size="9" fill="#94a3b8">system-admin-001</text>
  </g>

  <!-- Arrow: Env -> Setup -->
  <line x1="260" y1="170" x2="340" y2="170" stroke="#8b5cf6" stroke-width="2" marker-end="url(#arrowhead)"/>
  <text x="300" y="160" text-anchor="middle" class="text-muted">reads</text>

  <!-- Section: Setup Process (Center) -->
  <g transform="translate(350, 80)">
    <!-- Main process box -->
    <rect x="0" y="0" width="280" height="180" rx="8" fill="url(#processGrad)" opacity="0.2" stroke="#8b5cf6" stroke-width="2"/>
    <rect x="0" y="0" width="280" height="32" rx="8" fill="#8b5cf6"/>
    <rect x="0" y="24" width="280" height="8" fill="#8b5cf6"/>
    <text x="140" y="22" text-anchor="middle" font-family="system-ui, sans-serif" font-size="12" font-weight="bold" fill="#fff">Setup Process</text>
    <text x="140" y="55" text-anchor="middle" class="text-muted">Runs at build/deploy time</text>

    <!-- Steps -->
    <g transform="translate(20, 70)">
      <circle cx="8" cy="8" r="8" fill="#334155" stroke="#8b5cf6" stroke-width="1"/>
      <text x="8" y="12" text-anchor="middle" font-family="system-ui, sans-serif" font-size="10" fill="#fff">1</text>
      <text x="25" y="12" class="text-sm">Check if admin exists</text>
    </g>
    <g transform="translate(20, 100)">
      <circle cx="8" cy="8" r="8" fill="#334155" stroke="#8b5cf6" stroke-width="1"/>
      <text x="8" y="12" text-anchor="middle" font-family="system-ui, sans-serif" font-size="10" fill="#fff">2</text>
      <text x="25" y="12" class="text-sm">Create auth record</text>
    </g>
    <g transform="translate(20, 130)">
      <circle cx="8" cy="8" r="8" fill="#334155" stroke="#8b5cf6" stroke-width="1"/>
      <text x="8" y="12" text-anchor="middle" font-family="system-ui, sans-serif" font-size="10" fill="#fff">3</text>
      <text x="25" y="12" class="text-sm">Generate keypair</text>
    </g>
    <g transform="translate(150, 130)">
      <circle cx="8" cy="8" r="8" fill="#334155" stroke="#8b5cf6" stroke-width="1"/>
      <text x="8" y="12" text-anchor="middle" font-family="system-ui, sans-serif" font-size="10" fill="#fff">4</text>
      <text x="25" y="12" class="text-sm">Store public key</text>
    </g>
  </g>

  <!-- Idempotency annotation -->
  <g transform="translate(350, 280)">
    <rect x="0" y="0" width="140" height="40" rx="6" fill="#1e293b" stroke="#22c55e" stroke-width="1"/>
    <text x="70" y="17" text-anchor="middle" fill="#22c55e" font-family="monospace" font-size="10">IDEMPOTENT</text>
    <text x="70" y="32" text-anchor="middle" class="text-muted">Safe to re-run</text>
  </g>

  <!-- Arrow: Setup -> Supabase Auth -->
  <line x1="630" y1="140" x2="720" y2="140" stroke="#3ecf8e" stroke-width="2" marker-end="url(#arrowhead-green)"/>

  <!-- Section: Supabase Auth -->
  <g transform="translate(730, 100)">
    <rect x="0" y="0" width="200" height="80" rx="8" fill="#1e293b" stroke="#3ecf8e" stroke-width="2"/>
    <!-- Supabase icon placeholder -->
    <circle cx="30" cy="40" r="18" fill="url(#supabaseGrad)"/>
    <text x="30" y="45" text-anchor="middle" font-family="system-ui, sans-serif" font-size="14" font-weight="bold" fill="#fff">S</text>
    <text x="120" y="35" text-anchor="middle" class="heading">Supabase Auth</text>
    <text x="120" y="55" text-anchor="middle" class="text-sm">auth.users table</text>
  </g>

  <!-- Arrow: Setup -> Profiles -->
  <line x1="630" y1="200" x2="720" y2="250" stroke="#3ecf8e" stroke-width="2" marker-end="url(#arrowhead-green)"/>

  <!-- Section: Profiles Table -->
  <g transform="translate(730, 210)">
    <rect x="0" y="0" width="200" height="100" rx="8" fill="#1e293b" stroke="#3ecf8e" stroke-width="2"/>
    <text x="100" y="25" text-anchor="middle" class="heading">profiles</text>
    <rect x="15" y="40" width="170" height="20" rx="4" fill="#334155"/>
    <text x="25" y="54" font-family="monospace" font-size="9" fill="#94a3b8">is_admin: true</text>
    <rect x="15" y="65" width="170" height="20" rx="4" fill="#334155"/>
    <text x="25" y="79" font-family="monospace" font-size="9" fill="#94a3b8">display_name: "System"</text>
  </g>

  <!-- Key Generation Section -->
  <g transform="translate(350, 350)">
    <rect x="0" y="0" width="280" height="120" rx="8" fill="#1e293b" stroke="#eab308" stroke-width="2"/>
    <rect x="0" y="0" width="280" height="30" rx="8" fill="#eab308" opacity="0.3"/>
    <rect x="0" y="22" width="280" height="8" fill="#eab308" opacity="0.3"/>
    <!-- Key icon -->
    <g transform="translate(25, 15)">
      <ellipse cx="0" cy="0" rx="6" ry="6" fill="none" stroke="#eab308" stroke-width="2"/>
      <line x1="6" y1="0" x2="18" y2="0" stroke="#eab308" stroke-width="2"/>
      <line x1="14" y1="0" x2="14" y2="4" stroke="#eab308" stroke-width="2"/>
      <line x1="18" y1="0" x2="18" y2="4" stroke="#eab308" stroke-width="2"/>
    </g>
    <text x="150" y="20" text-anchor="middle" font-family="system-ui, sans-serif" font-size="12" font-weight="600" fill="#eab308">Keypair Generation</text>

    <!-- Public key -->
    <g transform="translate(20, 50)">
      <rect x="0" y="0" width="110" height="50" rx="6" fill="#166534" stroke="#22c55e" stroke-width="1"/>
      <text x="55" y="20" text-anchor="middle" font-family="system-ui, sans-serif" font-size="10" font-weight="600" fill="#22c55e">PUBLIC KEY</text>
      <text x="55" y="38" text-anchor="middle" class="text-muted">Stored for F012</text>
    </g>

    <!-- Private key (discarded) -->
    <g transform="translate(150, 50)">
      <rect x="0" y="0" width="110" height="50" rx="6" fill="#7f1d1d" stroke="#ef4444" stroke-width="1" stroke-dasharray="4,2"/>
      <text x="55" y="20" text-anchor="middle" font-family="system-ui, sans-serif" font-size="10" font-weight="600" fill="#ef4444">PRIVATE KEY</text>
      <text x="55" y="38" text-anchor="middle" class="text-muted">Discarded</text>
      <!-- X mark -->
      <line x1="85" y1="5" x2="105" y2="25" stroke="#ef4444" stroke-width="3"/>
      <line x1="105" y1="5" x2="85" y2="25" stroke="#ef4444" stroke-width="3"/>
    </g>
  </g>

  <!-- Arrow: Public Key -> Storage -->
  <line x1="630" y1="420" x2="720" y2="420" stroke="#22c55e" stroke-width="2" marker-end="url(#arrowhead-green)"/>

  <!-- Section: Public Key Storage -->
  <g transform="translate(730, 370)">
    <rect x="0" y="0" width="200" height="100" rx="8" fill="#1e293b" stroke="#3ecf8e" stroke-width="2"/>
    <text x="100" y="25" text-anchor="middle" class="heading">public_keys</text>
    <rect x="15" y="40" width="170" height="20" rx="4" fill="#334155"/>
    <text x="25" y="54" font-family="monospace" font-size="9" fill="#94a3b8">user_id: admin-uuid</text>
    <rect x="15" y="65" width="170" height="20" rx="4" fill="#334155"/>
    <text x="25" y="79" font-family="monospace" font-size="9" fill="#94a3b8">public_key: [base64...]</text>
  </g>

  <!-- Arrow: Storage -> Feature 012 -->
  <line x1="930" y1="420" x2="1020" y2="420" stroke="#d946ef" stroke-width="2" marker-end="url(#arrowhead)"/>
  <text x="975" y="410" text-anchor="middle" class="text-muted">retrieves</text>

  <!-- Section: Feature 012 Integration -->
  <g transform="translate(1030, 350)">
    <rect x="0" y="0" width="220" height="140" rx="8" fill="#1e293b" stroke="#d946ef" stroke-width="2"/>
    <rect x="0" y="0" width="220" height="32" rx="8" fill="#d946ef" opacity="0.3"/>
    <rect x="0" y="24" width="220" height="8" fill="#d946ef" opacity="0.3"/>
    <text x="110" y="22" text-anchor="middle" font-family="system-ui, sans-serif" font-size="12" font-weight="600" fill="#d946ef">Feature 012</text>
    <text x="110" y="50" text-anchor="middle" class="heading">Welcome Message Service</text>

    <text x="20" y="75" class="text-sm">1. Fetch admin public key</text>
    <text x="20" y="95" class="text-sm">2. Encrypt welcome message</text>
    <text x="20" y="115" class="text-sm">3. Send to new user</text>

    <!-- Dependency indicator -->
    <rect x="15" y="120" width="190" height="1" fill="#475569"/>
    <text x="110" y="135" text-anchor="middle" class="text-muted">Depends on admin public key</text>
  </g>

  <!-- Edge case: Missing admin key -->
  <g transform="translate(1030, 510)">
    <rect x="0" y="0" width="220" height="60" rx="6" fill="#1e293b" stroke="#ef4444" stroke-width="1" stroke-dasharray="4,2"/>
    <text x="110" y="20" text-anchor="middle" fill="#ef4444" font-family="monospace" font-size="10">EDGE CASE</text>
    <text x="110" y="38" text-anchor="middle" class="text-sm">If admin key missing:</text>
    <text x="110" y="52" text-anchor="middle" class="text-muted">Log warning, skip welcome msg</text>
  </g>

  <!-- Legend -->
  <g transform="translate(60, 540)">
    <rect x="0" y="0" width="560" height="200" rx="8" fill="#1e293b" stroke="#475569" stroke-width="1"/>
    <text x="280" y="25" text-anchor="middle" class="heading">Architecture Legend</text>

    <!-- Row 1 -->
    <g transform="translate(20, 45)">
      <rect x="0" y="0" width="20" height="14" rx="3" fill="#8b5cf6"/>
      <text x="30" y="11" class="text-sm">Setup Process (build-time)</text>
    </g>
    <g transform="translate(200, 45)">
      <rect x="0" y="0" width="20" height="14" rx="3" fill="none" stroke="#3ecf8e" stroke-width="2"/>
      <text x="30" y="11" class="text-sm">Supabase Resources</text>
    </g>
    <g transform="translate(380, 45)">
      <rect x="0" y="0" width="20" height="14" rx="3" fill="none" stroke="#d946ef" stroke-width="2"/>
      <text x="30" y="11" class="text-sm">Feature Integration</text>
    </g>

    <!-- Row 2 -->
    <g transform="translate(20, 75)">
      <rect x="0" y="0" width="20" height="14" rx="3" fill="#22c55e"/>
      <text x="30" y="11" class="text-sm">Public Key (stored)</text>
    </g>
    <g transform="translate(200, 75)">
      <rect x="0" y="0" width="20" height="14" rx="3" fill="#ef4444" stroke-dasharray="4,2"/>
      <text x="30" y="11" class="text-sm">Private Key (discarded)</text>
    </g>
    <g transform="translate(380, 75)">
      <line x1="0" y1="7" x2="20" y2="7" stroke="#8b5cf6" stroke-width="2" marker-end="url(#arrowhead)"/>
      <text x="30" y="11" class="text-sm">Data Flow</text>
    </g>

    <!-- Requirements mapping -->
    <rect x="20" y="100" width="520" height="1" fill="#475569"/>
    <text x="280" y="120" text-anchor="middle" class="heading">Requirements Mapping</text>

    <text x="30" y="145" font-family="monospace" font-size="10" fill="#8b5cf6">FR-008</text>
    <text x="90" y="145" class="text-sm">Read admin config from environment</text>

    <text x="30" y="165" font-family="monospace" font-size="10" fill="#8b5cf6">FR-009-012</text>
    <text x="100" y="165" class="text-sm">Create auth, profile, keypair, store public key</text>

    <text x="30" y="185" font-family="monospace" font-size="10" fill="#ef4444">FR-013</text>
    <text x="90" y="185" class="text-sm">Discard private key (never stored)</text>
  </g>

  <!-- Timing annotation -->
  <g transform="translate(730, 540)">
    <rect x="0" y="0" width="200" height="70" rx="6" fill="#1e293b" stroke="#8b5cf6" stroke-width="1"/>
    <text x="100" y="20" text-anchor="middle" class="annotation">DEPLOYMENT TIMING</text>
    <text x="100" y="40" text-anchor="middle" class="text-sm">Setup runs BEFORE app starts</text>
    <text x="100" y="58" text-anchor="middle" class="text-muted">No runtime credentials needed</text>
  </g>

  <!-- Security annotation -->
  <g transform="translate(950, 540)">
    <rect x="0" y="0" width="200" height="70" rx="6" fill="#1e293b" stroke="#22c55e" stroke-width="1"/>
    <text x="100" y="20" text-anchor="middle" fill="#22c55e" font-family="monospace" font-size="10">SECURITY MODEL</text>
    <text x="100" y="40" text-anchor="middle" class="text-sm">Admin can't decrypt messages</text>
    <text x="100" y="58" text-anchor="middle" class="text-muted">Only public key stored</text>
  </g>
</svg>
