<svg xmlns="http://www.w3.org/2000/svg" viewBox="0 0 1600 900" width="1600" height="900">
  <!-- ============================================================
       GENERATED BY: /wireframe skill
       SOURCE: features/auth-oauth/014-admin-welcome-email-gate/spec.md
       DATE: 2026-01-01
       THEME: Dark (Backend/Architecture)
       DO NOT MANUALLY EDIT - Regenerate with /wireframe command
       ============================================================ -->
  <defs>
    <linearGradient id="bgGrad" x1="0%" y1="0%" x2="100%" y2="100%">
      <stop offset="0%" style="stop-color:#0f172a"/>
      <stop offset="100%" style="stop-color:#1e293b"/>
    </linearGradient>
    <linearGradient id="accentGrad" x1="0%" y1="0%" x2="100%" y2="0%">
      <stop offset="0%" style="stop-color:#8b5cf6"/>
      <stop offset="100%" style="stop-color:#d946ef"/>
    </linearGradient>
    <marker id="arrowhead" markerWidth="10" markerHeight="7" refX="9" refY="3.5" orient="auto">
      <polygon points="0 0, 10 3.5, 0 7" fill="#8b5cf6"/>
    </marker>
    <marker id="arrowhead-green" markerWidth="10" markerHeight="7" refX="9" refY="3.5" orient="auto">
      <polygon points="0 0, 10 3.5, 0 7" fill="#22c55e"/>
    </marker>
    <style>
      .heading-lg { fill: #ffffff; font-family: system-ui, sans-serif; font-size: 20px; font-weight: bold; }
      .heading { fill: #ffffff; font-family: system-ui, sans-serif; font-size: 14px; font-weight: bold; }
      .text-md { fill: #cbd5e1; font-family: system-ui, sans-serif; font-size: 12px; }
      .text-sm { fill: #94a3b8; font-family: system-ui, sans-serif; font-size: 10px; }
      .text-muted { fill: #8494a8; font-family: system-ui, sans-serif; font-size: 10px; }
      .annotation { fill: #8b5cf6; font-family: monospace; font-size: 10px; }
      .code { fill: #22c55e; font-family: monospace; font-size: 10px; }
    </style>
  </defs>

  <!-- Background -->
  <rect width="1600" height="900" fill="url(#bgGrad)"/>

  <!-- Dot grid pattern -->
  <g opacity="0.05">
    <pattern id="dots" width="30" height="30" patternUnits="userSpaceOnUse">
      <circle cx="15" cy="15" r="1" fill="#fff"/>
    </pattern>
    <rect width="1600" height="900" fill="url(#dots)"/>
  </g>

  <!-- Accent line top -->
  <rect x="0" y="0" width="1600" height="3" fill="url(#accentGrad)"/>

  <!-- Title -->
  <text x="800" y="35" text-anchor="middle" class="heading-lg">ADMIN USER SETUP ARCHITECTURE</text>
  <text x="800" y="55" text-anchor="middle" class="text-muted">FR-008 to FR-014: One-time setup process for admin user and encryption keys</text>

  <!-- SETUP FLOW DIAGRAM -->
  <g transform="translate(80, 90)">
    <rect x="0" y="0" width="700" height="350" rx="8" fill="#1e293b" stroke="#8b5cf6" stroke-width="2"/>
    <text x="350" y="30" text-anchor="middle" class="heading">SETUP PROCESS FLOW</text>
    <text x="350" y="50" text-anchor="middle" class="text-muted">Runs at build/deploy time (not runtime)</text>

    <!-- Step 1: Read Config -->
    <g transform="translate(40, 80)">
      <rect x="0" y="0" width="180" height="70" rx="6" fill="#334155"/>
      <text x="90" y="25" text-anchor="middle" class="heading">1. Read Config</text>
      <text x="90" y="45" text-anchor="middle" class="text-sm">ADMIN_EMAIL</text>
      <text x="90" y="60" text-anchor="middle" class="text-sm">ADMIN_IDENTIFIER</text>
      <text x="90" y="80" class="annotation">FR-008</text>
    </g>

    <line x1="220" y1="115" x2="260" y2="115" stroke="#8b5cf6" stroke-width="2" marker-end="url(#arrowhead)"/>

    <!-- Step 2: Check Existing -->
    <g transform="translate(260, 80)">
      <rect x="0" y="0" width="180" height="70" rx="6" fill="#334155"/>
      <text x="90" y="25" text-anchor="middle" class="heading">2. Check Existing</text>
      <text x="90" y="45" text-anchor="middle" class="text-sm">Query admin user</text>
      <text x="90" y="60" text-anchor="middle" class="text-muted">Idempotent check</text>
      <text x="90" y="80" class="annotation">FR-014</text>
    </g>

    <line x1="440" y1="115" x2="480" y2="115" stroke="#8b5cf6" stroke-width="2" marker-end="url(#arrowhead)"/>

    <!-- Decision diamond -->
    <g transform="translate(480, 80)">
      <polygon points="90,0 180,35 90,70 0,35" fill="#334155" stroke="#eab308" stroke-width="2"/>
      <text x="90" y="40" text-anchor="middle" class="text-sm">Exists?</text>
    </g>

    <!-- Yes path (skip) -->
    <line x1="570" y1="80" x2="570" y2="50" stroke="#22c55e" stroke-width="2"/>
    <line x1="570" y1="50" x2="660" y2="50" stroke="#22c55e" stroke-width="2" marker-end="url(#arrowhead-green)"/>
    <text x="615" y="40" text-anchor="middle" class="text-sm" fill="#22c55e">YES</text>

    <!-- Skip box -->
    <rect x="560" y="160" width="120" height="40" rx="6" fill="#22c55e" opacity="0.3" stroke="#22c55e"/>
    <text x="620" y="185" text-anchor="middle" class="text-sm" fill="#22c55e">Skip (no-op)</text>

    <!-- No path (continue) -->
    <line x1="570" y1="150" x2="570" y2="220" stroke="#8b5cf6" stroke-width="2" marker-end="url(#arrowhead)"/>
    <text x="590" y="185" class="text-sm">NO</text>

    <!-- Step 3: Create Auth -->
    <g transform="translate(40, 210)">
      <rect x="0" y="0" width="180" height="70" rx="6" fill="#334155"/>
      <text x="90" y="25" text-anchor="middle" class="heading">3. Create Auth</text>
      <text x="90" y="45" text-anchor="middle" class="text-sm">Admin auth record</text>
      <text x="90" y="60" text-anchor="middle" class="text-muted">In Supabase Auth</text>
      <text x="90" y="80" class="annotation">FR-009</text>
    </g>

    <line x1="220" y1="245" x2="260" y2="245" stroke="#8b5cf6" stroke-width="2" marker-end="url(#arrowhead)"/>

    <!-- Step 4: Create Profile -->
    <g transform="translate(260, 210)">
      <rect x="0" y="0" width="180" height="70" rx="6" fill="#334155"/>
      <text x="90" y="25" text-anchor="middle" class="heading">4. Create Profile</text>
      <text x="90" y="45" text-anchor="middle" class="text-sm">user_profiles record</text>
      <text x="90" y="60" text-anchor="middle" class="text-muted">is_admin = true</text>
      <text x="90" y="80" class="annotation">FR-010</text>
    </g>

    <line x1="440" y1="245" x2="480" y2="245" stroke="#8b5cf6" stroke-width="2" marker-end="url(#arrowhead)"/>

    <!-- Step 5: Gen Keys -->
    <g transform="translate(480, 210)">
      <rect x="0" y="0" width="180" height="70" rx="6" fill="#d946ef" opacity="0.2" stroke="#d946ef"/>
      <text x="90" y="25" text-anchor="middle" class="heading">5. Generate Keys</text>
      <text x="90" y="45" text-anchor="middle" class="text-sm">ECDH keypair</text>
      <text x="90" y="60" text-anchor="middle" class="text-muted">Asymmetric crypto</text>
      <text x="90" y="80" class="annotation">FR-011</text>
    </g>

    <!-- Final row -->
    <line x1="570" y1="280" x2="570" y2="310" stroke="#8b5cf6" stroke-width="2" marker-end="url(#arrowhead)"/>

    <!-- Step 6: Store/Discard -->
    <g transform="translate(260, 300)">
      <rect x="0" y="0" width="280" height="40" rx="6" fill="#22c55e" opacity="0.2" stroke="#22c55e"/>
      <text x="140" y="18" text-anchor="middle" class="heading" fill="#22c55e">6. Store Public, Discard Private</text>
      <text x="140" y="32" text-anchor="middle" class="text-muted">FR-012, FR-013</text>
    </g>
  </g>

  <!-- KEY HANDLING DETAIL -->
  <g transform="translate(820, 90)">
    <rect x="0" y="0" width="700" height="350" rx="8" fill="#1e293b" stroke="#475569" stroke-width="1"/>
    <text x="350" y="30" text-anchor="middle" class="heading">KEY HANDLING DETAIL</text>
    <text x="350" y="50" text-anchor="middle" class="text-muted">FR-011, FR-012, FR-013: Secure key management</text>

    <!-- Key generation -->
    <g transform="translate(40, 80)">
      <rect x="0" y="0" width="280" height="120" rx="6" fill="#334155"/>
      <text x="140" y="25" text-anchor="middle" class="heading">Key Generation (FR-011)</text>

      <text x="20" y="55" class="code">const keypair = await crypto.subtle</text>
      <text x="20" y="72" class="code">  .generateKey({</text>
      <text x="20" y="89" class="code">    name: "ECDH",</text>
      <text x="20" y="106" class="code">    namedCurve: "P-256"</text>
    </g>

    <!-- Public key storage -->
    <g transform="translate(360, 80)">
      <rect x="0" y="0" width="280" height="120" rx="6" fill="#22c55e" opacity="0.2" stroke="#22c55e"/>
      <text x="140" y="25" text-anchor="middle" class="heading" fill="#22c55e">Public Key Stored (FR-012)</text>

      <text x="140" y="55" text-anchor="middle" class="text-md">encryption_public_keys table</text>

      <rect x="20" y="70" width="240" height="35" rx="4" fill="#334155"/>
      <text x="140" y="93" text-anchor="middle" class="code">admin_public_key: "-----BEGIN..."</text>
    </g>

    <!-- Private key handling -->
    <g transform="translate(40, 220)">
      <rect x="0" y="0" width="280" height="100" rx="6" fill="#ef4444" opacity="0.2" stroke="#ef4444"/>
      <text x="140" y="25" text-anchor="middle" class="heading" fill="#ef4444">Private Key Discarded (FR-013)</text>

      <text x="140" y="55" text-anchor="middle" class="text-md">Never stored or transmitted</text>
      <text x="140" y="75" text-anchor="middle" class="text-sm" fill="#ef4444">Immediately garbage collected</text>
      <text x="140" y="90" text-anchor="middle" class="text-muted">Admin cannot decrypt messages</text>
    </g>

    <!-- Feature 012 integration -->
    <g transform="translate(360, 220)">
      <rect x="0" y="0" width="280" height="100" rx="6" fill="#8b5cf6" opacity="0.2" stroke="#8b5cf6"/>
      <text x="140" y="25" text-anchor="middle" class="heading" fill="#8b5cf6">Feature 012 Integration</text>

      <text x="140" y="55" text-anchor="middle" class="text-md">Welcome Message Service</text>
      <text x="140" y="75" text-anchor="middle" class="text-sm">Retrieves admin public key</text>
      <text x="140" y="90" text-anchor="middle" class="code">→ Encrypts welcome TO user</text>
    </g>
  </g>

  <!-- ENVIRONMENT CONFIGURATION -->
  <g transform="translate(80, 470)">
    <rect x="0" y="0" width="500" height="200" rx="8" fill="#1e293b" stroke="#475569" stroke-width="1"/>
    <text x="250" y="30" text-anchor="middle" class="heading">ENVIRONMENT CONFIGURATION</text>
    <text x="250" y="50" text-anchor="middle" class="text-muted">FR-008: Read from environment settings</text>

    <!-- .env example -->
    <g transform="translate(20, 70)">
      <rect x="0" y="0" width="460" height="110" rx="4" fill="#334155"/>
      <text x="20" y="25" class="annotation"># .env.local or deployment secrets</text>

      <text x="20" y="50" class="code">ADMIN_EMAIL=admin@scripthammer.com</text>
      <text x="20" y="70" class="code">ADMIN_IDENTIFIER=system-admin</text>
      <text x="20" y="90" class="code">ADMIN_DISPLAY_NAME="ScriptHammer Admin"</text>
    </g>
  </g>

  <!-- IDEMPOTENCY GUARANTEE -->
  <g transform="translate(620, 470)">
    <rect x="0" y="0" width="430" height="200" rx="8" fill="#1e293b" stroke="#22c55e" stroke-width="2"/>
    <text x="215" y="30" text-anchor="middle" class="heading">IDEMPOTENCY GUARANTEE</text>
    <text x="215" y="50" text-anchor="middle" class="text-muted">FR-014: Safe to run multiple times</text>

    <!-- Run scenarios -->
    <g transform="translate(20, 70)">
      <rect x="0" y="0" width="190" height="60" rx="4" fill="#22c55e" opacity="0.2"/>
      <text x="95" y="20" text-anchor="middle" class="text-md">First Run</text>
      <text x="95" y="40" text-anchor="middle" class="text-sm">Creates admin user</text>
      <text x="95" y="55" text-anchor="middle" class="code">✓ Success</text>
    </g>

    <g transform="translate(220, 70)">
      <rect x="0" y="0" width="190" height="60" rx="4" fill="#8b5cf6" opacity="0.2"/>
      <text x="95" y="20" text-anchor="middle" class="text-md">Subsequent Runs</text>
      <text x="95" y="40" text-anchor="middle" class="text-sm">Detects existing, skips</text>
      <text x="95" y="55" text-anchor="middle" class="code">✓ No-op (safe)</text>
    </g>

    <g transform="translate(20, 140)">
      <rect x="0" y="0" width="390" height="45" rx="4" fill="#334155"/>
      <text x="195" y="28" text-anchor="middle" class="text-md">No duplicates, no errors, deterministic output</text>
    </g>
  </g>

  <!-- DATABASE ENTITIES -->
  <g transform="translate(1090, 470)">
    <rect x="0" y="0" width="430" height="200" rx="8" fill="#1e293b" stroke="#475569" stroke-width="1"/>
    <text x="215" y="30" text-anchor="middle" class="heading">DATABASE ENTITIES CREATED</text>

    <!-- auth.users -->
    <g transform="translate(20, 50)">
      <rect x="0" y="0" width="190" height="70" rx="4" fill="#334155"/>
      <text x="95" y="20" text-anchor="middle" class="annotation">auth.users</text>
      <text x="20" y="42" class="text-sm">id: uuid</text>
      <text x="20" y="58" class="text-sm">email: admin@...</text>
    </g>

    <!-- user_profiles -->
    <g transform="translate(220, 50)">
      <rect x="0" y="0" width="190" height="70" rx="4" fill="#334155"/>
      <text x="95" y="20" text-anchor="middle" class="annotation">user_profiles</text>
      <text x="20" y="42" class="text-sm">id: (references auth)</text>
      <text x="20" y="58" class="text-sm" fill="#22c55e">is_admin: true</text>
    </g>

    <!-- encryption_public_keys -->
    <g transform="translate(20, 130)">
      <rect x="0" y="0" width="390" height="55" rx="4" fill="#334155" stroke="#8b5cf6" stroke-width="1"/>
      <text x="195" y="20" text-anchor="middle" class="annotation">encryption_public_keys</text>
      <text x="20" y="42" class="text-sm">user_id: admin_uuid • public_key: "-----BEGIN PUBLIC KEY..."</text>
    </g>
  </g>

  <!-- VERIFICATION FLOW REFERENCE -->
  <g transform="translate(80, 700)">
    <rect x="0" y="0" width="1440" height="90" rx="8" fill="#1e293b" stroke="#475569" stroke-width="1"/>
    <text x="720" y="25" text-anchor="middle" class="heading">VERIFICATION FLOW INTEGRATION</text>
    <text x="720" y="45" text-anchor="middle" class="text-muted">FR-006: Check email verification status from authentication system</text>

    <!-- Flow -->
    <g transform="translate(40, 55)">
      <rect x="0" y="0" width="180" height="25" rx="4" fill="#334155"/>
      <text x="90" y="17" text-anchor="middle" class="text-sm">User accesses /messages</text>
    </g>

    <line x1="220" y1="67" x2="280" y2="67" stroke="#8b5cf6" stroke-width="2" marker-end="url(#arrowhead)"/>

    <g transform="translate(280, 55)">
      <rect x="0" y="0" width="200" height="25" rx="4" fill="#334155"/>
      <text x="100" y="17" text-anchor="middle" class="text-sm">Check supabase.auth.user()</text>
    </g>

    <line x1="480" y1="67" x2="540" y2="67" stroke="#8b5cf6" stroke-width="2" marker-end="url(#arrowhead)"/>

    <g transform="translate(540, 55)">
      <polygon points="80,0 160,12 80,25 0,12" fill="#334155" stroke="#eab308" stroke-width="1"/>
      <text x="80" y="17" text-anchor="middle" class="text-sm">email_confirmed?</text>
    </g>

    <!-- Yes -->
    <line x1="700" y1="67" x2="760" y2="67" stroke="#22c55e" stroke-width="2" marker-end="url(#arrowhead-green)"/>
    <text x="730" y="60" class="text-sm" fill="#22c55e">YES</text>

    <g transform="translate(760, 55)">
      <rect x="0" y="0" width="140" height="25" rx="4" fill="#22c55e" opacity="0.3"/>
      <text x="70" y="17" text-anchor="middle" class="text-sm" fill="#22c55e">→ Messaging</text>
    </g>

    <!-- No -->
    <line x1="620" y1="80" x2="620" y2="67" stroke="#ef4444" stroke-width="2"/>
    <text x="640" y="90" class="text-sm" fill="#ef4444">NO → Gate UI</text>

    <!-- OAuth note -->
    <g transform="translate(950, 55)">
      <rect x="0" y="0" width="480" height="25" rx="4" fill="#8b5cf6" opacity="0.2"/>
      <text x="240" y="17" text-anchor="middle" class="text-sm" fill="#8b5cf6">OAuth users: email_confirmed_at set by provider (FR-005 bypass)</text>
    </g>
  </g>

  <!-- Success criteria -->
  <g transform="translate(80, 820)">
    <rect x="0" y="0" width="1440" height="50" rx="6" fill="#22c55e" opacity="0.1" stroke="#22c55e"/>
    <text x="200" y="30" text-anchor="middle" class="text-md">SC-005: 100% success on first run ✓</text>
    <text x="500" y="30" text-anchor="middle" class="text-md">SC-006: Idempotent re-runs ✓</text>
    <text x="800" y="30" text-anchor="middle" class="text-md">SC-007: Key retrievable by 012 ✓</text>
    <text x="1100" y="30" text-anchor="middle" class="text-md">FR-014: Safe multiple runs ✓</text>
  </g>
</svg>
