<svg xmlns="http://www.w3.org/2000/svg" viewBox="0 0 1600 1000" width="1600" height="1000">
  <!-- ============================================================
       GENERATED BY: /wireframe skill
       SOURCE: features/foundation/006-template-fork-experience/spec.md
       DATE: 2026-01-01
       THEME: Dark (Backend/Architecture)
       CANVAS: Extended (1600x1000) for automation flow
       DO NOT MANUALLY EDIT - Regenerate with /wireframe command
       ============================================================ -->
  <defs>
    <linearGradient id="bgGrad" x1="0%" y1="0%" x2="100%" y2="100%">
      <stop offset="0%" style="stop-color:#0f172a"/>
      <stop offset="100%" style="stop-color:#1e293b"/>
    </linearGradient>
    <linearGradient id="accentGrad" x1="0%" y1="0%" x2="100%" y2="0%">
      <stop offset="0%" style="stop-color:#8b5cf6"/>
      <stop offset="100%" style="stop-color:#d946ef"/>
    </linearGradient>
    <style>
      .heading-lg { fill: #ffffff; font-family: system-ui, sans-serif; font-size: 20px; font-weight: bold; }
      .heading { fill: #ffffff; font-family: system-ui, sans-serif; font-size: 14px; font-weight: bold; }
      .text-md { fill: #cbd5e1; font-family: system-ui, sans-serif; font-size: 12px; }
      .text-sm { fill: #94a3b8; font-family: system-ui, sans-serif; font-size: 10px; }
      .text-muted { fill: #8494a8; font-family: system-ui, sans-serif; font-size: 10px; }
      .annotation { fill: #6d28d9; font-family: monospace; font-size: 10px; }
      .label-desktop { fill: #8b5cf6; font-family: monospace; font-size: 11px; font-weight: bold; }
      .code-text { fill: #22c55e; font-family: monospace; font-size: 11px; }
      .cmd-text { fill: #fbbf24; font-family: monospace; font-size: 11px; }
      .spec-label { fill: #22c55e; font-family: monospace; font-size: 9px; font-weight: 600; }
    </style>
    <marker id="arrowhead" markerWidth="10" markerHeight="7" refX="9" refY="3.5" orient="auto">
      <polygon points="0 0, 10 3.5, 0 7" fill="#8b5cf6"/>
    </marker>
    <marker id="arrowhead-green" markerWidth="10" markerHeight="7" refX="9" refY="3.5" orient="auto">
      <polygon points="0 0, 10 3.5, 0 7" fill="#22c55e"/>
    </marker>
  </defs>

  <!-- Background -->
  <rect width="1600" height="1000" fill="url(#bgGrad)"/>

  <!-- Dot grid pattern -->
  <g opacity="0.05">
    <pattern id="dots" width="30" height="30" patternUnits="userSpaceOnUse">
      <circle cx="15" cy="15" r="1" fill="#fff"/>
    </pattern>
    <rect width="1600" height="1000" fill="url(#dots)"/>
  </g>

  <!-- Accent line top -->
  <rect x="0" y="0" width="1600" height="3" fill="url(#accentGrad)"/>

  <!-- Title -->
  <text x="800" y="28" text-anchor="middle" font-family="system-ui, sans-serif" font-size="14" font-weight="600" fill="#8494a8" letter-spacing="1">REBRAND AUTOMATION FLOW — TEMPLATE TO NEW PROJECT IN MINUTES</text>

  <!-- USER INPUT SECTION -->
  <text x="40" y="60" class="label-desktop">STEP 1: USER INPUT</text>
  <g id="user-input" transform="translate(40, 75)">
    <rect x="0" y="0" width="450" height="200" rx="8" fill="#1e293b" stroke="#475569"/>

    <!-- Terminal representation -->
    <rect x="15" y="15" width="420" height="170" rx="6" fill="#0f172a" stroke="#334155"/>

    <!-- Terminal header -->
    <rect x="15" y="15" width="420" height="25" rx="6" fill="#334155"/>
    <circle cx="32" cy="28" r="5" fill="#ef4444"/>
    <circle cx="50" cy="28" r="5" fill="#eab308"/>
    <circle cx="68" cy="28" r="5" fill="#22c55e"/>
    <text x="230" y="32" text-anchor="middle" class="text-sm">Terminal</text>

    <!-- Command input -->
    <text x="30" y="60" class="cmd-text">$ npm run rebrand</text>

    <!-- Prompts -->
    <text x="30" y="85" class="text-md">? Project name: <tspan class="code-text">SpokeToWork</tspan></text>
    <text x="30" y="105" class="text-md">? Owner/org: <tspan class="code-text">my-company</tspan></text>
    <text x="30" y="125" class="text-md">? Description: <tspan class="code-text">Team communication platform</tspan></text>
    <text x="30" y="145" class="text-md">? Keep deployment config? <tspan class="code-text">[y/N]</tspan></text>

    <!-- Requirements labels -->
    <text x="350" y="85" class="spec-label">FR-001</text>
    <text x="350" y="105" class="spec-label">FR-011</text>
    <text x="350" y="125" class="spec-label">FR-006</text>
    <text x="350" y="145" class="spec-label">FR-005</text>

    <text x="30" y="170" class="text-muted">Auto-sanitize: spaces→hyphens, special chars removed (FR-008)</text>
  </g>

  <!-- PROCESSING SECTION -->
  <text x="520" y="60" class="label-desktop">STEP 2: AUTOMATED PROCESSING</text>
  <g id="processing" transform="translate(520, 75)">
    <rect x="0" y="0" width="550" height="200" rx="8" fill="#1e293b" stroke="#475569"/>

    <!-- Process steps -->
    <g transform="translate(20, 25)">
      <rect x="0" y="0" width="160" height="45" rx="4" fill="#334155" stroke="#8b5cf6"/>
      <text x="80" y="18" text-anchor="middle" class="heading">Scan Files</text>
      <text x="80" y="35" text-anchor="middle" class="text-sm">200+ files detected</text>
    </g>

    <line x1="195" y1="45" x2="215" y2="45" stroke="#8b5cf6" stroke-width="2" marker-end="url(#arrowhead)"/>

    <g transform="translate(230, 25)">
      <rect x="0" y="0" width="140" height="45" rx="4" fill="#334155" stroke="#8b5cf6"/>
      <text x="70" y="18" text-anchor="middle" class="heading">Replace Text</text>
      <text x="70" y="35" text-anchor="middle" class="text-sm">Case-aware (FR-002)</text>
    </g>

    <line x1="385" y1="45" x2="405" y2="45" stroke="#8b5cf6" stroke-width="2" marker-end="url(#arrowhead)"/>

    <g transform="translate(420, 25)">
      <rect x="0" y="0" width="110" height="45" rx="4" fill="#334155" stroke="#8b5cf6"/>
      <text x="55" y="18" text-anchor="middle" class="heading">Rename</text>
      <text x="55" y="35" text-anchor="middle" class="text-sm">Files (FR-003)</text>
    </g>

    <!-- Second row -->
    <g transform="translate(20, 85)">
      <rect x="0" y="0" width="160" height="45" rx="4" fill="#334155" stroke="#8b5cf6"/>
      <text x="80" y="18" text-anchor="middle" class="heading">Update Config</text>
      <text x="80" y="35" text-anchor="middle" class="text-sm">Docker, package.json</text>
    </g>

    <line x1="195" y1="105" x2="215" y2="105" stroke="#8b5cf6" stroke-width="2" marker-end="url(#arrowhead)"/>

    <g transform="translate(230, 85)">
      <rect x="0" y="0" width="140" height="45" rx="4" fill="#334155" stroke="#8b5cf6"/>
      <text x="70" y="18" text-anchor="middle" class="heading">Clear Deploy</text>
      <text x="70" y="35" text-anchor="middle" class="text-sm">Secrets (FR-005)</text>
    </g>

    <line x1="385" y1="105" x2="405" y2="105" stroke="#8b5cf6" stroke-width="2" marker-end="url(#arrowhead)"/>

    <g transform="translate(420, 85)">
      <rect x="0" y="0" width="110" height="45" rx="4" fill="#334155" stroke="#8b5cf6"/>
      <text x="55" y="18" text-anchor="middle" class="heading">Git Remote</text>
      <text x="55" y="35" text-anchor="middle" class="text-sm">FR-011</text>
    </g>

    <!-- Verbose output -->
    <rect x="20" y="145" width="510" height="40" rx="4" fill="#0f172a" stroke="#334155"/>
    <text x="35" y="165" class="code-text">✓ Modified: package.json, README.md, docker-compose.yml...</text>
    <text x="35" y="180" class="text-muted">FR-010: Verbose output for each file</text>
  </g>

  <!-- OUTPUT SECTION -->
  <text x="1100" y="60" class="label-desktop">STEP 3: VERIFICATION</text>
  <g id="output" transform="translate(1100, 75)">
    <rect x="0" y="0" width="460" height="200" rx="8" fill="#1e293b" stroke="#22c55e" stroke-width="2"/>

    <!-- Success summary -->
    <g transform="translate(20, 25)">
      <rect x="0" y="0" width="420" height="60" rx="4" fill="#22c55e" opacity="0.15"/>
      <text x="210" y="25" text-anchor="middle" class="heading" fill="#22c55e">✓ Rebrand Complete!</text>
      <text x="210" y="45" text-anchor="middle" class="text-md">217 files updated in 3.2 seconds</text>
    </g>

    <!-- Verification checks -->
    <g transform="translate(20, 100)">
      <text x="0" y="0" class="heading">Automated Verification:</text>
      <text x="0" y="22" class="code-text">✓ Build passes (FR-006)</text>
      <text x="0" y="42" class="code-text">✓ No broken imports</text>
      <text x="0" y="62" class="code-text">✓ Git remote updated</text>
      <text x="230" y="22" class="code-text">✓ Tests pass</text>
      <text x="230" y="42" class="code-text">✓ Idempotent (FR-007)</text>
      <text x="230" y="62" class="code-text">✓ Deploy config cleared</text>
    </g>
  </g>

  <!-- CASE HANDLING -->
  <text x="40" y="305" class="label-desktop">CASE TRANSFORMATION LOGIC</text>
  <g id="case-handling" transform="translate(40, 320)">
    <rect x="0" y="0" width="450" height="200" rx="8" fill="#1e293b" stroke="#475569"/>

    <text x="20" y="30" class="heading">Input: "SpokeToWork"</text>

    <!-- Case variations -->
    <g transform="translate(20, 50)">
      <rect x="0" y="0" width="195" height="35" rx="4" fill="#334155"/>
      <text x="15" y="22" class="text-md">PascalCase:</text>
      <text x="120" y="22" class="code-text">SpokeToWork</text>

      <rect x="210" y="0" width="195" height="35" rx="4" fill="#334155"/>
      <text x="225" y="22" class="text-md">camelCase:</text>
      <text x="320" y="22" class="code-text">spokeToWork</text>

      <rect x="0" y="45" width="195" height="35" rx="4" fill="#334155"/>
      <text x="15" y="67" class="text-md">UPPER_CASE:</text>
      <text x="120" y="67" class="code-text">SPOKE_TO_WORK</text>

      <rect x="210" y="45" width="195" height="35" rx="4" fill="#334155"/>
      <text x="225" y="67" class="text-md">kebab-case:</text>
      <text x="320" y="67" class="code-text">spoke-to-work</text>

      <rect x="0" y="90" width="195" height="35" rx="4" fill="#334155"/>
      <text x="15" y="112" class="text-md">snake_case:</text>
      <text x="120" y="112" class="code-text">spoke_to_work</text>

      <rect x="210" y="90" width="195" height="35" rx="4" fill="#334155"/>
      <text x="225" y="112" class="text-md">Display:</text>
      <text x="320" y="112" class="code-text">Spoke To Work</text>
    </g>

    <text x="20" y="180" class="spec-label">FR-002: Replace ALL case variations correctly</text>
  </g>

  <!-- FILE TYPES -->
  <text x="520" y="305" class="label-desktop">FILES TRANSFORMED</text>
  <g id="file-types" transform="translate(520, 320)">
    <rect x="0" y="0" width="550" height="200" rx="8" fill="#1e293b" stroke="#475569"/>

    <!-- File categories -->
    <g transform="translate(20, 25)">
      <rect x="0" y="0" width="160" height="80" rx="4" fill="#334155"/>
      <text x="80" y="20" text-anchor="middle" class="heading">📦 Package</text>
      <text x="15" y="42" class="text-sm">package.json</text>
      <text x="15" y="57" class="text-sm">package-lock.json</text>
      <text x="15" y="72" class="text-sm">tsconfig.json</text>
    </g>

    <g transform="translate(175, 25)">
      <rect x="0" y="0" width="180" height="80" rx="4" fill="#334155"/>
      <text x="90" y="20" text-anchor="middle" class="heading">🐳 Container</text>
      <text x="15" y="42" class="text-sm">docker-compose.yml</text>
      <text x="15" y="57" class="text-sm">Dockerfile</text>
      <text x="15" y="72" class="text-sm">.devcontainer/</text>
    </g>

    <g transform="translate(370, 25)">
      <rect x="0" y="0" width="160" height="80" rx="4" fill="#334155"/>
      <text x="80" y="20" text-anchor="middle" class="heading">📝 Docs</text>
      <text x="15" y="42" class="text-sm">README.md</text>
      <text x="15" y="57" class="text-sm">CHANGELOG.md</text>
      <text x="15" y="72" class="text-sm">CONTRIBUTING.md</text>
    </g>

    <g transform="translate(20, 115)">
      <rect x="0" y="0" width="160" height="70" rx="4" fill="#334155"/>
      <text x="80" y="20" text-anchor="middle" class="heading">⚙️ Config</text>
      <text x="15" y="42" class="text-sm">.env.example</text>
      <text x="15" y="57" class="text-sm">next.config.js</text>
    </g>

    <g transform="translate(195, 115)">
      <rect x="0" y="0" width="160" height="70" rx="4" fill="#334155"/>
      <text x="80" y="20" text-anchor="middle" class="heading">🚀 Deploy</text>
      <text x="15" y="42" class="text-sm">.github/workflows/</text>
      <text x="15" y="57" class="text-sm">vercel.json</text>
    </g>

    <g transform="translate(370, 115)">
      <rect x="0" y="0" width="160" height="70" rx="4" fill="#334155"/>
      <text x="80" y="20" text-anchor="middle" class="heading">💻 Source</text>
      <text x="15" y="42" class="text-sm">src/**/*.tsx</text>
      <text x="15" y="57" class="text-sm">src/**/*.ts</text>
    </g>
  </g>

  <!-- RE-REBRAND DETECTION -->
  <text x="1100" y="305" class="label-desktop">EDGE CASE: RE-REBRAND DETECTION (FR-009)</text>
  <g id="re-rebrand" transform="translate(1100, 320)">
    <rect x="0" y="0" width="460" height="200" rx="8" fill="#1e293b" stroke="#eab308"/>

    <!-- Detection flow -->
    <g transform="translate(20, 25)">
      <rect x="0" y="0" width="420" height="50" rx="4" fill="#eab308" opacity="0.15"/>
      <text x="210" y="20" text-anchor="middle" class="heading" fill="#eab308">⚠ Previously Rebranded Detected</text>
      <text x="210" y="38" text-anchor="middle" class="text-sm">Current name: "SpokeToWork" → New: "TeamHub"</text>
    </g>

    <!-- Terminal prompt -->
    <rect x="20" y="90" width="420" height="90" rx="4" fill="#0f172a" stroke="#334155"/>
    <text x="35" y="115" class="cmd-text">! Repository was previously rebranded</text>
    <text x="35" y="135" class="text-md">Current: SpokeToWork (since 2025-01-15)</text>
    <text x="35" y="155" class="text-md">? Proceed with new name "TeamHub"? <tspan class="code-text">[y/N]</tspan></text>
    <text x="35" y="175" class="text-muted">User must explicitly confirm re-rebrand</text>
  </g>

  <!-- SUCCESS METRICS -->
  <text x="40" y="555" class="label-desktop">SUCCESS CRITERIA (SC-001, SC-005, SC-006)</text>
  <g id="metrics" transform="translate(40, 570)">
    <rect x="0" y="0" width="700" height="160" rx="8" fill="#22c55e" opacity="0.1" stroke="#22c55e" stroke-width="2"/>

    <g transform="translate(20, 25)">
      <rect x="0" y="0" width="200" height="60" rx="4" fill="#1e293b"/>
      <text x="100" y="25" text-anchor="middle" class="heading">Setup Time</text>
      <text x="100" y="50" text-anchor="middle" class="heading-lg" fill="#22c55e">2h → 5min</text>
    </g>

    <g transform="translate(240, 25)">
      <rect x="0" y="0" width="200" height="60" rx="4" fill="#1e293b"/>
      <text x="100" y="25" text-anchor="middle" class="heading">Files Updated</text>
      <text x="100" y="50" text-anchor="middle" class="heading-lg" fill="#22c55e">200+</text>
    </g>

    <g transform="translate(460, 25)">
      <rect x="0" y="0" width="200" height="60" rx="4" fill="#1e293b"/>
      <text x="100" y="25" text-anchor="middle" class="heading">Manual Edits</text>
      <text x="100" y="50" text-anchor="middle" class="heading-lg" fill="#22c55e">0</text>
    </g>

    <g transform="translate(20, 100)">
      <rect x="0" y="0" width="640" height="40" rx="4" fill="#1e293b"/>
      <text x="320" y="26" text-anchor="middle" class="heading">✓ Build succeeds with zero import/reference errors after rebrand</text>
    </g>
  </g>

  <!-- IDEMPOTENCY -->
  <text x="780" y="555" class="label-desktop">IDEMPOTENCY (FR-007)</text>
  <g id="idempotency" transform="translate(780, 570)">
    <rect x="0" y="0" width="380" height="160" rx="8" fill="#1e293b" stroke="#475569"/>

    <g transform="translate(20, 25)">
      <text x="0" y="0" class="heading">Safe to Run Multiple Times:</text>

      <rect x="0" y="20" width="340" height="30" rx="4" fill="#334155"/>
      <text x="15" y="40" class="code-text">✓ First run: 217 files modified</text>

      <rect x="0" y="58" width="340" height="30" rx="4" fill="#334155"/>
      <text x="15" y="78" class="code-text">✓ Second run: 0 files modified</text>

      <rect x="0" y="96" width="340" height="30" rx="4" fill="#334155"/>
      <text x="15" y="116" class="code-text">✓ Third run: 0 files modified</text>
    </g>
  </g>

  <!-- SANITIZATION EXAMPLES -->
  <text x="1180" y="555" class="label-desktop">INPUT SANITIZATION (FR-008)</text>
  <g id="sanitization" transform="translate(1180, 570)">
    <rect x="0" y="0" width="380" height="160" rx="8" fill="#1e293b" stroke="#475569"/>

    <g transform="translate(20, 25)">
      <text x="0" y="0" class="heading">Auto-Sanitize Rules:</text>

      <rect x="0" y="20" width="340" height="28" rx="4" fill="#334155"/>
      <text x="15" y="40" class="text-md">"My App" →</text>
      <text x="130" y="40" class="code-text">my-app</text>

      <rect x="0" y="55" width="340" height="28" rx="4" fill="#334155"/>
      <text x="15" y="75" class="text-md">"App@v2.0!" →</text>
      <text x="130" y="75" class="code-text">appv20</text>

      <rect x="0" y="90" width="340" height="28" rx="4" fill="#334155"/>
      <text x="15" y="110" class="text-md">"  Extra Spaces  " →</text>
      <text x="180" y="110" class="code-text">extra-spaces</text>
    </g>

    <text x="20" y="145" class="text-muted">Display name preserved, technical IDs sanitized</text>
  </g>

  <!-- WORKFLOW ARROWS connecting major sections -->
  <g id="workflow-arrows">
    <line x1="490" y1="175" x2="510" y2="175" stroke="#8b5cf6" stroke-width="3" marker-end="url(#arrowhead)"/>
    <line x1="1070" y1="175" x2="1090" y2="175" stroke="#22c55e" stroke-width="3" marker-end="url(#arrowhead-green)"/>
  </g>

  <!-- LEGEND -->
  <g id="legend" transform="translate(40, 760)">
    <rect x="0" y="0" width="1520" height="80" rx="8" fill="#1e293b" stroke="#475569"/>
    <text x="20" y="25" class="heading">Legend</text>

    <g transform="translate(20, 40)">
      <rect x="0" y="0" width="16" height="16" rx="2" fill="#8b5cf6"/>
      <text x="25" y="13" class="text-md">Processing Step</text>

      <rect x="150" y="0" width="16" height="16" rx="2" fill="#22c55e"/>
      <text x="175" y="13" class="text-md">Success / Verified</text>

      <rect x="320" y="0" width="16" height="16" rx="2" fill="#eab308"/>
      <text x="345" y="13" class="text-md">Warning / Confirmation</text>

      <rect x="520" y="0" width="16" height="16" rx="2" stroke="#475569" fill="none"/>
      <text x="545" y="13" class="text-md">Container</text>

      <text x="700" y="13" class="code-text">Green text</text>
      <text x="800" y="13" class="text-md">= Output / Code</text>

      <text x="950" y="13" class="cmd-text">Yellow text</text>
      <text x="1050" y="13" class="text-md">= Commands</text>

      <text x="1200" y="13" class="spec-label">FR-XXX</text>
      <text x="1260" y="13" class="text-md">= Requirement Reference</text>
    </g>
  </g>

  <!-- Key requirements box -->
  <g id="requirements-summary" transform="translate(40, 860)">
    <rect x="0" y="0" width="1520" height="120" rx="8" fill="#1e293b" stroke="#8b5cf6" stroke-width="2"/>
    <text x="760" y="25" text-anchor="middle" class="heading-lg">Rebrand Automation Requirements Summary</text>

    <g transform="translate(20, 45)">
      <rect x="0" y="0" width="240" height="55" rx="4" fill="#334155"/>
      <text x="15" y="20" class="spec-label">FR-001 to FR-006</text>
      <text x="15" y="40" class="text-md">Core rebrand operations</text>

      <rect x="260" y="0" width="240" height="55" rx="4" fill="#334155"/>
      <text x="275" y="20" class="spec-label">FR-007</text>
      <text x="275" y="40" class="text-md">Idempotent execution</text>

      <rect x="520" y="0" width="240" height="55" rx="4" fill="#334155"/>
      <text x="535" y="20" class="spec-label">FR-008 to FR-009</text>
      <text x="535" y="40" class="text-md">Sanitization + re-rebrand</text>

      <rect x="780" y="0" width="240" height="55" rx="4" fill="#334155"/>
      <text x="795" y="20" class="spec-label">FR-010 to FR-011</text>
      <text x="795" y="40" class="text-md">Verbose output + git remote</text>

      <rect x="1040" y="0" width="240" height="55" rx="4" fill="#334155"/>
      <text x="1055" y="20" class="spec-label">SC-001, SC-005, SC-006</text>
      <text x="1055" y="40" class="text-md">Success criteria: time, files, build</text>

      <rect x="1300" y="0" width="180" height="55" rx="4" fill="#22c55e" opacity="0.15" stroke="#22c55e"/>
      <text x="1390" y="35" text-anchor="middle" class="heading" fill="#22c55e">USER STORY 1</text>
    </g>
  </g>
</svg>
