<svg xmlns="http://www.w3.org/2000/svg" viewBox="0 0 1600 800" width="1600" height="800">
  <!-- ============================================================
       GENERATED BY: /wireframe skill
       SOURCE: features/foundation/006-template-fork-experience/spec.md
       DATE: 2025-12-31
       DO NOT MANUALLY EDIT - Regenerate with /wireframe command
       ============================================================ -->
  <defs>
    <linearGradient id="bgGrad" x1="0%" y1="0%" x2="100%" y2="100%">
      <stop offset="0%" style="stop-color:#0f172a"/>
      <stop offset="100%" style="stop-color:#1e293b"/>
    </linearGradient>
    <linearGradient id="accentGrad" x1="0%" y1="0%" x2="100%" y2="0%">
      <stop offset="0%" style="stop-color:#8b5cf6"/>
      <stop offset="100%" style="stop-color:#d946ef"/>
    </linearGradient>
    <linearGradient id="successGrad" x1="0%" y1="0%" x2="100%" y2="0%">
      <stop offset="0%" style="stop-color:#22c55e"/>
      <stop offset="100%" style="stop-color:#4ade80"/>
    </linearGradient>
    <marker id="arrowhead" markerWidth="10" markerHeight="7" refX="9" refY="3.5" orient="auto">
      <polygon points="0 0, 10 3.5, 0 7" fill="#8b5cf6"/>
    </marker>
    <marker id="arrowhead-success" markerWidth="10" markerHeight="7" refX="9" refY="3.5" orient="auto">
      <polygon points="0 0, 10 3.5, 0 7" fill="#22c55e"/>
    </marker>
    <style>
      .heading-lg { fill: #ffffff; font-family: system-ui, sans-serif; font-size: 20px; font-weight: bold; }
      .heading { fill: #ffffff; font-family: system-ui, sans-serif; font-size: 14px; font-weight: bold; }
      .heading-sm { fill: #ffffff; font-family: system-ui, sans-serif; font-size: 12px; font-weight: bold; }
      .text-md { fill: #cbd5e1; font-family: system-ui, sans-serif; font-size: 12px; }
      .text-sm { fill: #94a3b8; font-family: system-ui, sans-serif; font-size: 10px; }
      .text-muted { fill: #64748b; font-family: system-ui, sans-serif; font-size: 10px; }
      .annotation { fill: #8b5cf6; font-family: monospace; font-size: 10px; }
      .code { fill: #22c55e; font-family: monospace; font-size: 11px; }
      .code-sm { fill: #4ade80; font-family: monospace; font-size: 9px; }
      .label-step { fill: #d946ef; font-family: monospace; font-size: 10px; font-weight: bold; }
    </style>
  </defs>

  <!-- Background -->
  <rect width="1600" height="800" fill="url(#bgGrad)"/>

  <!-- Dot grid pattern -->
  <g opacity="0.05">
    <pattern id="dots" width="30" height="30" patternUnits="userSpaceOnUse">
      <circle cx="15" cy="15" r="1" fill="#fff"/>
    </pattern>
    <rect width="1600" height="800" fill="url(#dots)"/>
  </g>

  <!-- Accent line top -->
  <rect x="0" y="0" width="1600" height="3" fill="url(#accentGrad)"/>

  <!-- Title -->
  <text x="800" y="32" text-anchor="middle" class="heading-lg">006 - Template Fork Experience: Rebrand CLI Workflow</text>
  <text x="800" y="52" text-anchor="middle" class="text-muted">Automated project rebranding from fork to production-ready in under 5 minutes</text>

  <!-- ==================== PHASE 1: INPUT ==================== -->
  <g id="phase-input" transform="translate(80, 90)">
    <!-- Phase label -->
    <text x="0" y="0" class="label-step">PHASE 1</text>
    <text x="60" y="0" class="heading-sm">USER INPUT</text>

    <!-- Terminal box -->
    <rect x="0" y="15" width="280" height="140" rx="8" fill="#1e293b" stroke="#475569" stroke-width="1"/>
    <rect x="0" y="15" width="280" height="24" rx="8" fill="#334155"/>
    <circle cx="16" cy="27" r="5" fill="#ef4444"/>
    <circle cx="32" cy="27" r="5" fill="#eab308"/>
    <circle cx="48" cy="27" r="5" fill="#22c55e"/>
    <text x="140" y="31" text-anchor="middle" class="text-sm">Terminal</text>

    <!-- Command -->
    <text x="12" y="58" class="code">$ npm run rebrand</text>
    <text x="12" y="78" class="text-sm">? Project name: <tspan class="code">SpokeToWork</tspan></text>
    <text x="12" y="96" class="text-sm">? Owner/org: <tspan class="code">mycompany</tspan></text>
    <text x="12" y="114" class="text-sm">? Description: <tspan class="code">Team collab app</tspan></text>
    <text x="12" y="134" class="code-sm">✓ Input validated, starting rebrand...</text>
  </g>

  <!-- Arrow 1→2 -->
  <line x1="370" y1="170" x2="420" y2="170" stroke="#8b5cf6" stroke-width="2" marker-end="url(#arrowhead)"/>

  <!-- ==================== PHASE 2: VALIDATION ==================== -->
  <g id="phase-validation" transform="translate(430, 90)">
    <text x="0" y="0" class="label-step">PHASE 2</text>
    <text x="60" y="0" class="heading-sm">VALIDATION</text>

    <!-- Validation card -->
    <rect x="0" y="15" width="220" height="140" rx="8" fill="#1e293b" stroke="#475569" stroke-width="1"/>

    <!-- Checklist -->
    <text x="16" y="45" class="heading-sm">Pre-flight Checks</text>

    <rect x="16" y="58" width="16" height="16" rx="3" fill="#22c55e"/>
    <text x="26" y="70" text-anchor="middle" fill="#fff" font-size="10">✓</text>
    <text x="40" y="70" class="text-sm">Name sanitized</text>

    <rect x="16" y="82" width="16" height="16" rx="3" fill="#22c55e"/>
    <text x="26" y="94" text-anchor="middle" fill="#fff" font-size="10">✓</text>
    <text x="40" y="94" class="text-sm">Not previously rebranded</text>

    <rect x="16" y="106" width="16" height="16" rx="3" fill="#eab308"/>
    <text x="26" y="118" text-anchor="middle" fill="#1e293b" font-size="10">!</text>
    <text x="40" y="118" class="text-sm">Uncommitted changes (warn)</text>

    <text x="16" y="142" class="code-sm">Proceeding with rebrand...</text>
  </g>

  <!-- Arrow 2→3 -->
  <line x1="660" y1="170" x2="710" y2="170" stroke="#8b5cf6" stroke-width="2" marker-end="url(#arrowhead)"/>

  <!-- ==================== PHASE 3: FILE UPDATES ==================== -->
  <g id="phase-files" transform="translate(720, 90)">
    <text x="0" y="0" class="label-step">PHASE 3</text>
    <text x="60" y="0" class="heading-sm">FILE UPDATES (200+ files)</text>

    <!-- File operations box -->
    <rect x="0" y="15" width="340" height="140" rx="8" fill="#1e293b" stroke="#475569" stroke-width="1"/>

    <!-- Categories -->
    <g transform="translate(16, 40)">
      <rect x="0" y="0" width="90" height="50" rx="6" fill="#334155" stroke="#8b5cf6" stroke-width="1"/>
      <text x="45" y="22" text-anchor="middle" class="heading-sm">package.json</text>
      <text x="45" y="38" text-anchor="middle" class="text-muted">name, repo, desc</text>
    </g>

    <g transform="translate(120, 40)">
      <rect x="0" y="0" width="90" height="50" rx="6" fill="#334155" stroke="#8b5cf6" stroke-width="1"/>
      <text x="45" y="22" text-anchor="middle" class="heading-sm">Source Files</text>
      <text x="45" y="38" text-anchor="middle" class="text-muted">imports, refs</text>
    </g>

    <g transform="translate(224, 40)">
      <rect x="0" y="0" width="90" height="50" rx="6" fill="#334155" stroke="#8b5cf6" stroke-width="1"/>
      <text x="45" y="22" text-anchor="middle" class="heading-sm">Config Files</text>
      <text x="45" y="38" text-anchor="middle" class="text-muted">docker, CI/CD</text>
    </g>

    <!-- Progress -->
    <text x="16" y="115" class="text-sm">Processing: <tspan class="code">src/components/Header.tsx</tspan></text>
    <rect x="16" y="125" width="308" height="8" rx="4" fill="#334155"/>
    <rect x="16" y="125" width="200" height="8" rx="4" fill="url(#accentGrad)"/>
    <text x="300" y="143" text-anchor="end" class="text-muted">156/212 files</text>
  </g>

  <!-- Arrow 3→4 -->
  <line x1="1070" y1="170" x2="1120" y2="170" stroke="#8b5cf6" stroke-width="2" marker-end="url(#arrowhead)"/>

  <!-- ==================== PHASE 4: GIT UPDATES ==================== -->
  <g id="phase-git" transform="translate(1130, 90)">
    <text x="0" y="0" class="label-step">PHASE 4</text>
    <text x="60" y="0" class="heading-sm">GIT REMOTE UPDATE</text>

    <rect x="0" y="15" width="220" height="140" rx="8" fill="#1e293b" stroke="#475569" stroke-width="1"/>

    <!-- Git icon -->
    <circle cx="30" cy="55" r="16" fill="#334155" stroke="#ef4444" stroke-width="2"/>
    <text x="30" y="59" text-anchor="middle" fill="#ef4444" font-size="12" font-weight="bold">git</text>

    <text x="56" y="50" class="text-sm">Old remote:</text>
    <text x="56" y="66" class="code-sm">origin/ScriptHammer</text>

    <text x="30" y="100" text-anchor="middle" fill="#22c55e">↓</text>

    <circle cx="30" cy="125" r="16" fill="#334155" stroke="#22c55e" stroke-width="2"/>
    <text x="30" y="129" text-anchor="middle" fill="#22c55e" font-size="12" font-weight="bold">git</text>

    <text x="56" y="120" class="text-sm">New remote:</text>
    <text x="56" y="136" class="code-sm">origin/SpokeToWork</text>
  </g>

  <!-- Arrow 4→5 (down) -->
  <path d="M 1240 240 L 1240 280 L 1240 320" stroke="#22c55e" stroke-width="2" fill="none" marker-end="url(#arrowhead-success)"/>

  <!-- ==================== PHASE 5: SUCCESS ==================== -->
  <g id="phase-success" transform="translate(1130, 340)">
    <text x="0" y="0" class="label-step">PHASE 5</text>
    <text x="60" y="0" class="heading-sm" fill="#22c55e">SUCCESS</text>

    <rect x="0" y="15" width="400" height="160" rx="8" fill="#1e293b" stroke="#22c55e" stroke-width="2"/>

    <!-- Success icon -->
    <circle cx="40" cy="65" r="24" fill="#22c55e"/>
    <text x="40" y="72" text-anchor="middle" fill="#fff" font-size="20">✓</text>

    <text x="80" y="55" class="heading">Rebrand Complete!</text>
    <text x="80" y="75" class="text-sm">212 files updated in 4.2 seconds</text>

    <!-- Summary stats -->
    <g transform="translate(16, 100)">
      <rect x="0" y="0" width="110" height="50" rx="6" fill="#334155"/>
      <text x="55" y="22" text-anchor="middle" class="code">npm run build</text>
      <text x="55" y="40" text-anchor="middle" class="text-muted">Next step</text>
    </g>

    <g transform="translate(135, 100)">
      <rect x="0" y="0" width="110" height="50" rx="6" fill="#334155"/>
      <text x="55" y="22" text-anchor="middle" class="code">npm test</text>
      <text x="55" y="40" text-anchor="middle" class="text-muted">Verify mocks</text>
    </g>

    <g transform="translate(264, 100)">
      <rect x="0" y="0" width="110" height="50" rx="6" fill="#334155"/>
      <text x="55" y="22" text-anchor="middle" class="code">git push</text>
      <text x="55" y="40" text-anchor="middle" class="text-muted">Deploy</text>
    </g>
  </g>

  <!-- ==================== BOTTOM SECTION: KEY FEATURES ==================== -->

  <!-- Divider -->
  <line x1="80" y1="540" x2="1520" y2="540" stroke="#475569" stroke-width="1" stroke-dasharray="4,4"/>
  <text x="800" y="570" text-anchor="middle" class="heading">Key Requirements Addressed</text>

  <!-- Feature cards row -->
  <g id="features" transform="translate(80, 590)">
    <!-- FR-001 to FR-011: Rebrand -->
    <rect x="0" y="0" width="260" height="140" rx="8" fill="#1e293b" stroke="#8b5cf6" stroke-width="1"/>
    <rect x="0" y="0" width="260" height="28" rx="8" fill="#334155"/>
    <text x="16" y="18" class="annotation">FR-001 → FR-011</text>
    <text x="16" y="50" class="heading-sm">Rebrand Automation</text>
    <text x="16" y="70" class="text-sm">• Case-sensitive replacements</text>
    <text x="16" y="86" class="text-sm">• File renaming</text>
    <text x="16" y="102" class="text-sm">• Idempotent (safe to re-run)</text>
    <text x="16" y="118" class="text-sm">• Verbose output logging</text>

    <!-- FR-012 to FR-016: Tests -->
    <rect x="280" y="0" width="260" height="140" rx="8" fill="#1e293b" stroke="#d946ef" stroke-width="1"/>
    <rect x="280" y="0" width="260" height="28" rx="8" fill="#334155"/>
    <text x="296" y="18" class="annotation" fill="#d946ef">FR-012 → FR-016</text>
    <text x="296" y="50" class="heading-sm">Test Infrastructure</text>
    <text x="296" y="70" class="text-sm">• Comprehensive Supabase mock</text>
    <text x="296" y="86" class="text-sm">• Auth, DB, Realtime support</text>
    <text x="296" y="102" class="text-sm">• Generic metadata assertions</text>
    <text x="296" y="118" class="text-sm">• Zero external dependencies</text>

    <!-- FR-017 to FR-019: Deployment -->
    <rect x="560" y="0" width="260" height="140" rx="8" fill="#1e293b" stroke="#22c55e" stroke-width="1"/>
    <rect x="560" y="0" width="260" height="28" rx="8" fill="#334155"/>
    <text x="576" y="18" class="annotation" fill="#22c55e">FR-017 → FR-019</text>
    <text x="576" y="50" class="heading-sm">Deployment Automation</text>
    <text x="576" y="70" class="text-sm">• Auto-detect base path</text>
    <text x="576" y="86" class="text-sm">• No manual secrets required</text>
    <text x="576" y="102" class="text-sm">• GitHub Pages compatible</text>
    <text x="576" y="118" class="text-sm">• Works on first push</text>

    <!-- FR-020 to FR-022: Dev Environment -->
    <rect x="840" y="0" width="260" height="140" rx="8" fill="#1e293b" stroke="#eab308" stroke-width="1"/>
    <rect x="840" y="0" width="260" height="28" rx="8" fill="#334155"/>
    <text x="856" y="18" class="annotation" fill="#eab308">FR-020 → FR-022</text>
    <text x="856" y="50" class="heading-sm">Dev Environment</text>
    <text x="856" y="70" class="text-sm">• Git permissions pre-configured</text>
    <text x="856" y="86" class="text-sm">• Author info passthrough</text>
    <text x="856" y="102" class="text-sm">• Docker-first workflow</text>
    <text x="856" y="118" class="text-sm">• Documented env variables</text>

    <!-- FR-023 to FR-028: Dynamic Config -->
    <rect x="1120" y="0" width="320" height="140" rx="8" fill="#1e293b" stroke="#06b6d4" stroke-width="1"/>
    <rect x="1120" y="0" width="320" height="28" rx="8" fill="#334155"/>
    <text x="1136" y="18" class="annotation" fill="#06b6d4">FR-023 → FR-028</text>
    <text x="1136" y="50" class="heading-sm">Dynamic Config &amp; Docs</text>
    <text x="1136" y="70" class="text-sm">• Service worker uses project name</text>
    <text x="1136" y="86" class="text-sm">• Generated config in .gitignore</text>
    <text x="1136" y="102" class="text-sm">• "Forking This Template" guide</text>
    <text x="1136" y="118" class="text-sm">• Attribution footer link preserved</text>
  </g>

  <!-- Success metric -->
  <g transform="translate(80, 760)">
    <text x="0" y="0" class="text-muted">SUCCESS METRIC:</text>
    <text x="120" y="0" class="code">SC-001: Fork setup time reduced from 2 hours → 5 minutes</text>
  </g>

</svg>