<svg xmlns="http://www.w3.org/2000/svg" viewBox="0 0 1600 1000" width="1600" height="1000">
  <!-- ============================================================
       GENERATED BY: /wireframe skill
       SOURCE: features/foundation/006-template-fork-experience/spec.md
       DATE: 2026-01-01
       THEME: Dark (Backend/Architecture)
       CANVAS: Extended (1600x1000) for complete workflow
       DO NOT MANUALLY EDIT - Regenerate with /wireframe command
       ============================================================ -->
  <defs>
    <linearGradient id="bgGrad" x1="0%" y1="0%" x2="100%" y2="100%">
      <stop offset="0%" style="stop-color:#0f172a"/>
      <stop offset="100%" style="stop-color:#1e293b"/>
    </linearGradient>
    <linearGradient id="accentGrad" x1="0%" y1="0%" x2="100%" y2="0%">
      <stop offset="0%" style="stop-color:#8b5cf6"/>
      <stop offset="100%" style="stop-color:#d946ef"/>
    </linearGradient>
    <style>
      .heading-lg { fill: #ffffff; font-family: system-ui, sans-serif; font-size: 20px; font-weight: bold; }
      .heading { fill: #ffffff; font-family: system-ui, sans-serif; font-size: 14px; font-weight: bold; }
      .text-md { fill: #cbd5e1; font-family: system-ui, sans-serif; font-size: 12px; }
      .text-sm { fill: #94a3b8; font-family: system-ui, sans-serif; font-size: 10px; }
      .text-muted { fill: #8494a8; font-family: system-ui, sans-serif; font-size: 10px; }
      .annotation { fill: #8b5cf6; font-family: monospace; font-size: 10px; }
      .label-desktop { fill: #8b5cf6; font-family: monospace; font-size: 11px; font-weight: bold; }
      .code-text { fill: #22c55e; font-family: monospace; font-size: 11px; }
      .spec-label { fill: #22c55e; font-family: monospace; font-size: 9px; font-weight: 600; }
    </style>
    <marker id="arrowhead" markerWidth="10" markerHeight="7" refX="9" refY="3.5" orient="auto">
      <polygon points="0 0, 10 3.5, 0 7" fill="#8b5cf6"/>
    </marker>
    <marker id="arrowhead-green" markerWidth="10" markerHeight="7" refX="9" refY="3.5" orient="auto">
      <polygon points="0 0, 10 3.5, 0 7" fill="#22c55e"/>
    </marker>
    <marker id="arrowhead-yellow" markerWidth="10" markerHeight="7" refX="9" refY="3.5" orient="auto">
      <polygon points="0 0, 10 3.5, 0 7" fill="#eab308"/>
    </marker>
  </defs>

  <!-- Background -->
  <rect width="1600" height="1000" fill="url(#bgGrad)"/>

  <!-- Dot grid pattern -->
  <g opacity="0.05">
    <pattern id="dots" width="30" height="30" patternUnits="userSpaceOnUse">
      <circle cx="15" cy="15" r="1" fill="#fff"/>
    </pattern>
    <rect width="1600" height="1000" fill="url(#dots)"/>
  </g>

  <!-- Accent line top -->
  <rect x="0" y="0" width="1600" height="3" fill="url(#accentGrad)"/>

  <!-- Title -->
  <text x="800" y="28" text-anchor="middle" font-family="system-ui, sans-serif" font-size="14" font-weight="600" fill="#8494a8" letter-spacing="1">FORK-TO-DEPLOY WORKFLOW ARCHITECTURE — USER STORIES 2-5</text>

  <!-- FORK PHASE -->
  <text x="40" y="60" class="label-desktop">PHASE 1: FORK &amp; CLONE</text>
  <g id="fork-phase" transform="translate(40, 75)">
    <rect x="0" y="0" width="340" height="180" rx="8" fill="#1e293b" stroke="#475569"/>

    <!-- GitHub icon -->
    <g transform="translate(20, 20)">
      <circle cx="40" cy="30" r="30" fill="#334155" stroke="#475569"/>
      <text x="40" y="38" text-anchor="middle" fill="#fff" font-size="28">🔱</text>
    </g>

    <g transform="translate(110, 25)">
      <text x="0" y="0" class="heading">GitHub Fork</text>
      <text x="0" y="20" class="text-md">Template → Your Repo</text>
      <text x="0" y="40" class="text-sm">Full repository copy with</text>
      <text x="0" y="55" class="text-sm">independent history</text>
    </g>

    <!-- Clone step -->
    <g transform="translate(20, 100)">
      <rect x="0" y="0" width="300" height="55" rx="4" fill="#0f172a" stroke="#334155"/>
      <text x="15" y="20" class="code-text">git clone your-repo</text>
      <text x="15" y="40" class="code-text">cd your-repo</text>
    </g>
  </g>

  <!-- Arrow from Fork to Rebrand -->
  <line x1="380" y1="165" x2="410" y2="165" stroke="#8b5cf6" stroke-width="2" marker-end="url(#arrowhead)"/>

  <!-- REBRAND PHASE -->
  <text x="420" y="60" class="label-desktop">PHASE 2: REBRAND (US-1)</text>
  <g id="rebrand-phase" transform="translate(420, 75)">
    <rect x="0" y="0" width="340" height="180" rx="8" fill="#1e293b" stroke="#8b5cf6" stroke-width="2"/>

    <g transform="translate(20, 20)">
      <rect x="0" y="0" width="300" height="45" rx="4" fill="#8b5cf6" opacity="0.2"/>
      <text x="150" y="18" text-anchor="middle" class="heading">npm run rebrand</text>
      <text x="150" y="35" text-anchor="middle" class="text-sm">5 minutes vs 2 hours manual</text>
    </g>

    <g transform="translate(20, 80)">
      <text x="0" y="0" class="text-md">✓ 200+ files updated</text>
      <text x="0" y="20" class="text-md">✓ All case variations</text>
      <text x="0" y="40" class="text-md">✓ Configs cleared</text>
      <text x="0" y="60" class="text-md">✓ Git remote updated</text>

      <text x="160" y="0" class="spec-label">FR-002</text>
      <text x="160" y="20" class="spec-label">FR-003</text>
      <text x="160" y="40" class="spec-label">FR-005</text>
      <text x="160" y="60" class="spec-label">FR-011</text>
    </g>
  </g>

  <!-- Arrow from Rebrand to Test -->
  <line x1="760" y1="165" x2="790" y2="165" stroke="#8b5cf6" stroke-width="2" marker-end="url(#arrowhead)"/>

  <!-- TEST PHASE -->
  <text x="800" y="60" class="label-desktop">PHASE 3: TEST (US-2)</text>
  <g id="test-phase" transform="translate(800, 75)">
    <rect x="0" y="0" width="340" height="180" rx="8" fill="#1e293b" stroke="#22c55e" stroke-width="2"/>

    <g transform="translate(20, 20)">
      <rect x="0" y="0" width="300" height="45" rx="4" fill="#22c55e" opacity="0.2"/>
      <text x="150" y="18" text-anchor="middle" class="heading">npm test</text>
      <text x="150" y="35" text-anchor="middle" class="text-sm">All tests pass with mocks</text>
    </g>

    <g transform="translate(20, 80)">
      <text x="0" y="0" class="text-md">No external services needed</text>
      <text x="0" y="25" class="text-md">✓ Auth mocked (FR-013)</text>
      <text x="0" y="45" class="text-md">✓ Database mocked (FR-014)</text>
      <text x="0" y="65" class="text-md">✓ Realtime mocked (FR-015)</text>
      <text x="0" y="85" class="text-md">✓ Generic assertions (FR-016)</text>
    </g>
  </g>

  <!-- Arrow from Test to Deploy -->
  <line x1="1140" y1="165" x2="1170" y2="165" stroke="#22c55e" stroke-width="2" marker-end="url(#arrowhead-green)"/>

  <!-- DEPLOY PHASE -->
  <text x="1180" y="60" class="label-desktop">PHASE 4: DEPLOY (US-3)</text>
  <g id="deploy-phase" transform="translate(1180, 75)">
    <rect x="0" y="0" width="380" height="180" rx="8" fill="#1e293b" stroke="#d946ef" stroke-width="2"/>

    <g transform="translate(20, 20)">
      <rect x="0" y="0" width="340" height="45" rx="4" fill="#d946ef" opacity="0.2"/>
      <text x="170" y="18" text-anchor="middle" class="heading">git push → Auto Deploy</text>
      <text x="170" y="35" text-anchor="middle" class="text-sm">No manual path config needed</text>
    </g>

    <g transform="translate(20, 80)">
      <text x="0" y="0" class="text-md">Auto-detect base path</text>
      <text x="0" y="25" class="text-md">✓ Empty = auto-detect (FR-018)</text>
      <text x="0" y="45" class="text-md">✓ Derives from repo name (FR-019)</text>
      <text x="0" y="65" class="text-md">✓ No secret config (FR-017)</text>
      <text x="0" y="85" class="text-md">✓ Assets load correctly</text>
    </g>
  </g>

  <!-- TEST MOCK ARCHITECTURE -->
  <text x="40" y="290" class="label-desktop">TEST MOCK ARCHITECTURE (USER STORY 2)</text>
  <g id="mock-architecture" transform="translate(40, 305)">
    <rect x="0" y="0" width="720" height="320" rx="8" fill="#1e293b" stroke="#475569"/>

    <!-- Test File -->
    <g transform="translate(20, 20)">
      <rect x="0" y="0" width="180" height="100" rx="6" fill="#334155" stroke="#8b5cf6"/>
      <text x="90" y="25" text-anchor="middle" class="heading">Test File</text>
      <text x="15" y="50" class="text-sm">describe('Feature')</text>
      <text x="15" y="68" class="text-sm">it('should work')</text>
      <text x="15" y="86" class="text-sm">expect(...).toBe()</text>
    </g>

    <!-- Arrow to Mock -->
    <line x1="200" y1="70" x2="250" y2="70" stroke="#8b5cf6" stroke-width="2" marker-end="url(#arrowhead)"/>
    <text x="225" y="60" text-anchor="middle" class="text-muted">imports</text>

    <!-- Mock Client -->
    <g transform="translate(260, 20)">
      <rect x="0" y="0" width="200" height="280" rx="6" fill="#22c55e" opacity="0.1" stroke="#22c55e"/>
      <text x="100" y="25" text-anchor="middle" class="heading" fill="#22c55e">Mock Service Client</text>
      <text x="15" y="50" class="spec-label">FR-012: Comprehensive mock</text>

      <!-- Auth methods -->
      <rect x="15" y="65" width="170" height="60" rx="4" fill="#334155"/>
      <text x="100" y="82" text-anchor="middle" class="text-sm">Auth Methods (FR-013)</text>
      <text x="25" y="98" class="code-text">.session()</text>
      <text x="100" y="98" class="code-text">.signIn()</text>
      <text x="25" y="115" class="code-text">.signOut()</text>
      <text x="100" y="115" class="code-text">.user()</text>

      <!-- Data methods -->
      <rect x="15" y="135" width="170" height="60" rx="4" fill="#334155"/>
      <text x="100" y="152" text-anchor="middle" class="text-sm">Data Methods (FR-014)</text>
      <text x="25" y="168" class="code-text">.select()</text>
      <text x="100" y="168" class="code-text">.insert()</text>
      <text x="25" y="185" class="code-text">.update()</text>
      <text x="100" y="185" class="code-text">.delete()</text>

      <!-- Realtime methods -->
      <rect x="15" y="205" width="170" height="55" rx="4" fill="#334155"/>
      <text x="100" y="222" text-anchor="middle" class="text-sm">Realtime (FR-015)</text>
      <text x="25" y="240" class="code-text">.channel()</text>
      <text x="100" y="240" class="code-text">.subscribe()</text>
    </g>

    <!-- Arrow to Result -->
    <line x1="460" y1="160" x2="510" y2="160" stroke="#22c55e" stroke-width="2" marker-end="url(#arrowhead-green)"/>
    <text x="485" y="150" text-anchor="middle" class="text-muted">returns</text>

    <!-- Test Result -->
    <g transform="translate(520, 80)">
      <rect x="0" y="0" width="180" height="160" rx="6" fill="#334155" stroke="#22c55e"/>
      <text x="90" y="25" text-anchor="middle" class="heading">Test Results</text>

      <rect x="15" y="40" width="150" height="35" rx="4" fill="#22c55e" opacity="0.2"/>
      <text x="90" y="62" text-anchor="middle" class="code-text">✓ All tests pass</text>

      <text x="15" y="95" class="text-md">No external deps</text>
      <text x="15" y="115" class="text-md">No API keys needed</text>
      <text x="15" y="135" class="text-md">CI-ready on day 1</text>
    </g>
  </g>

  <!-- DEPLOYMENT ARCHITECTURE -->
  <text x="780" y="290" class="label-desktop">DEPLOYMENT AUTO-DETECTION (USER STORY 3)</text>
  <g id="deploy-architecture" transform="translate(780, 305)">
    <rect x="0" y="0" width="780" height="320" rx="8" fill="#1e293b" stroke="#475569"/>

    <!-- GitHub Actions -->
    <g transform="translate(20, 20)">
      <rect x="0" y="0" width="160" height="80" rx="6" fill="#334155" stroke="#8b5cf6"/>
      <text x="80" y="25" text-anchor="middle" class="heading">GitHub Actions</text>
      <text x="15" y="48" class="text-sm">on: push</text>
      <text x="15" y="65" class="text-sm">jobs: deploy</text>
    </g>

    <!-- Arrow -->
    <line x1="180" y1="60" x2="210" y2="60" stroke="#8b5cf6" stroke-width="2" marker-end="url(#arrowhead)"/>

    <!-- Build Config -->
    <g transform="translate(220, 20)">
      <rect x="0" y="0" width="200" height="80" rx="6" fill="#334155" stroke="#8b5cf6"/>
      <text x="100" y="25" text-anchor="middle" class="heading">next.config.js</text>
      <text x="15" y="48" class="code-text">basePath: ''</text>
      <text x="15" y="65" class="text-sm">Empty = auto-detect</text>
      <text x="145" y="65" class="spec-label">FR-018</text>
    </g>

    <!-- Arrow -->
    <line x1="420" y1="60" x2="450" y2="60" stroke="#8b5cf6" stroke-width="2" marker-end="url(#arrowhead)"/>

    <!-- Auto-Detection Logic -->
    <g transform="translate(460, 20)">
      <rect x="0" y="0" width="280" height="130" rx="6" fill="#d946ef" opacity="0.1" stroke="#d946ef"/>
      <text x="140" y="25" text-anchor="middle" class="heading" fill="#d946ef">Auto-Detection</text>
      <text x="15" y="50" class="spec-label">FR-019: Derive from repo info</text>

      <rect x="15" y="65" width="250" height="50" rx="4" fill="#334155"/>
      <text x="25" y="85" class="text-md">1. Read GITHUB_REPOSITORY</text>
      <text x="25" y="105" class="text-md">2. Extract: owner/repo-name</text>
    </g>

    <!-- Output -->
    <g transform="translate(220, 160)">
      <rect x="0" y="0" width="520" height="140" rx="6" fill="#22c55e" opacity="0.1" stroke="#22c55e"/>
      <text x="260" y="25" text-anchor="middle" class="heading" fill="#22c55e">Deployment Result</text>

      <g transform="translate(20, 45)">
        <rect x="0" y="0" width="230" height="75" rx="4" fill="#334155"/>
        <text x="115" y="20" text-anchor="middle" class="text-md">Template Fork</text>
        <text x="15" y="45" class="code-text">owner/scripthammer</text>
        <text x="15" y="65" class="code-text">→ /scripthammer/</text>
      </g>

      <g transform="translate(270, 45)">
        <rect x="0" y="0" width="230" height="75" rx="4" fill="#334155"/>
        <text x="115" y="20" text-anchor="middle" class="text-md">Your Fork</text>
        <text x="15" y="45" class="code-text">you/your-project</text>
        <text x="15" y="65" class="code-text">→ /your-project/</text>
      </g>
    </g>
  </g>

  <!-- DEV CONTAINER -->
  <text x="40" y="660" class="label-desktop">DEV CONTAINER GIT WORKFLOW (USER STORY 4)</text>
  <g id="dev-container" transform="translate(40, 675)">
    <rect x="0" y="0" width="500" height="180" rx="8" fill="#1e293b" stroke="#475569"/>

    <!-- Container box -->
    <g transform="translate(20, 20)">
      <rect x="0" y="0" width="220" height="140" rx="6" fill="#334155" stroke="#8b5cf6"/>
      <text x="110" y="25" text-anchor="middle" class="heading">Dev Container</text>

      <text x="15" y="50" class="text-sm">FR-020: Git permissions</text>
      <text x="15" y="70" class="text-sm">FR-021: Author passthrough</text>
      <text x="15" y="90" class="text-sm">FR-022: Env examples</text>

      <rect x="15" y="105" width="190" height="25" rx="4" fill="#22c55e" opacity="0.2"/>
      <text x="110" y="122" text-anchor="middle" class="code-text">git commit ✓</text>
    </g>

    <!-- Config -->
    <g transform="translate(260, 20)">
      <rect x="0" y="0" width="220" height="140" rx="6" fill="#0f172a" stroke="#334155"/>
      <text x="110" y="20" text-anchor="middle" class="text-sm">.devcontainer/devcontainer.json</text>

      <text x="15" y="45" class="code-text">"remoteEnv": {</text>
      <text x="25" y="65" class="code-text">"GIT_AUTHOR_NAME"</text>
      <text x="25" y="85" class="code-text">"GIT_AUTHOR_EMAIL"</text>
      <text x="15" y="105" class="code-text">}</text>
      <text x="15" y="130" class="text-sm">+ safe.directory config</text>
    </g>
  </g>

  <!-- GRACEFUL DEGRADATION -->
  <text x="560" y="660" class="label-desktop">GRACEFUL DEGRADATION (USER STORY 5)</text>
  <g id="graceful-degradation" transform="translate(560, 675)">
    <rect x="0" y="0" width="500" height="180" rx="8" fill="#1e293b" stroke="#eab308"/>

    <!-- No config state -->
    <g transform="translate(20, 20)">
      <rect x="0" y="0" width="220" height="70" rx="6" fill="#eab308" opacity="0.15" stroke="#eab308"/>
      <text x="110" y="25" text-anchor="middle" class="heading" fill="#eab308">Missing Config</text>
      <text x="15" y="48" class="text-sm">No SUPABASE_URL</text>
      <text x="15" y="63" class="text-sm">No SUPABASE_KEY</text>
    </g>

    <!-- App behavior -->
    <g transform="translate(260, 20)">
      <rect x="0" y="0" width="220" height="70" rx="6" fill="#334155"/>
      <text x="110" y="25" text-anchor="middle" class="heading">App Behavior</text>
      <text x="15" y="48" class="text-sm">Shows guidance banner</text>
      <text x="15" y="63" class="text-sm">Doesn't crash</text>
    </g>

    <!-- Banner behavior -->
    <g transform="translate(20, 105)">
      <rect x="0" y="0" width="460" height="55" rx="6" fill="#eab308" opacity="0.2" stroke="#eab308"/>
      <text x="230" y="20" text-anchor="middle" class="heading">Dismissible Guidance Banner</text>
      <text x="15" y="40" class="text-md">⚠ External services not configured. Click here for setup guide.</text>
      <text x="430" y="40" class="text-md">✕</text>
    </g>
  </g>

  <!-- SUCCESS CRITERIA -->
  <text x="1080" y="660" class="label-desktop">SUCCESS CRITERIA SUMMARY</text>
  <g id="success-summary" transform="translate(1080, 675)">
    <rect x="0" y="0" width="480" height="180" rx="8" fill="#22c55e" opacity="0.1" stroke="#22c55e" stroke-width="2"/>

    <g transform="translate(20, 25)">
      <rect x="0" y="0" width="210" height="45" rx="4" fill="#1e293b"/>
      <text x="15" y="18" class="spec-label">SC-001</text>
      <text x="15" y="35" class="text-md">Setup: 2h → 5min</text>

      <rect x="230" y="0" width="210" height="45" rx="4" fill="#1e293b"/>
      <text x="245" y="18" class="spec-label">SC-002</text>
      <text x="245" y="35" class="text-md">Tests pass (no services)</text>

      <rect x="0" y="55" width="210" height="45" rx="4" fill="#1e293b"/>
      <text x="15" y="73" class="spec-label">SC-003</text>
      <text x="15" y="90" class="text-md">Deploy works auto</text>

      <rect x="230" y="55" width="210" height="45" rx="4" fill="#1e293b"/>
      <text x="245" y="73" class="spec-label">SC-004</text>
      <text x="245" y="90" class="text-md">Git commits succeed</text>

      <rect x="0" y="110" width="210" height="45" rx="4" fill="#1e293b"/>
      <text x="15" y="128" class="spec-label">SC-005</text>
      <text x="15" y="145" class="text-md">200+ files auto-updated</text>

      <rect x="230" y="110" width="210" height="45" rx="4" fill="#1e293b"/>
      <text x="245" y="128" class="spec-label">SC-006</text>
      <text x="245" y="145" class="text-md">Build succeeds after</text>
    </g>
  </g>

  <!-- LEGEND -->
  <g id="legend" transform="translate(40, 880)">
    <rect x="0" y="0" width="1520" height="80" rx="8" fill="#1e293b" stroke="#475569"/>
    <text x="20" y="25" class="heading">User Stories</text>

    <g transform="translate(20, 40)">
      <rect x="0" y="0" width="16" height="16" rx="2" fill="#8b5cf6"/>
      <text x="25" y="13" class="text-md">US-1: Rebrand Automation</text>

      <rect x="200" y="0" width="16" height="16" rx="2" fill="#22c55e"/>
      <text x="225" y="13" class="text-md">US-2: Tests Pass Without Services</text>

      <rect x="460" y="0" width="16" height="16" rx="2" fill="#d946ef"/>
      <text x="485" y="13" class="text-md">US-3: Deployment Auto-Detection</text>

      <rect x="720" y="0" width="16" height="16" rx="2" fill="#8b5cf6" opacity="0.5"/>
      <text x="745" y="13" class="text-md">US-4: Dev Container Git</text>

      <rect x="920" y="0" width="16" height="16" rx="2" fill="#eab308"/>
      <text x="945" y="13" class="text-md">US-5: Graceful Degradation</text>

      <rect x="1140" y="0" width="16" height="16" rx="2" stroke="#22c55e" fill="none" stroke-width="2"/>
      <text x="1165" y="13" class="text-md">Success Criteria Met</text>
    </g>
  </g>
</svg>
