<svg xmlns="http://www.w3.org/2000/svg" viewBox="0 0 1400 800" width="1400" height="800">
  <!-- ============================================================
       GENERATED BY: /wireframe skill
       SOURCE: features/foundation/006-template-fork-experience/spec.md
       DATE: 2025-12-31
       DO NOT MANUALLY EDIT - Regenerate with /wireframe command
       ============================================================ -->
  <defs>
    <linearGradient id="bgGrad" x1="0%" y1="0%" x2="100%" y2="100%">
      <stop offset="0%" style="stop-color:#0f172a"/>
      <stop offset="100%" style="stop-color:#1e293b"/>
    </linearGradient>
    <linearGradient id="accentGrad" x1="0%" y1="0%" x2="100%" y2="0%">
      <stop offset="0%" style="stop-color:#8b5cf6"/>
      <stop offset="100%" style="stop-color:#d946ef"/>
    </linearGradient>
    <linearGradient id="warningGrad" x1="0%" y1="0%" x2="100%" y2="0%">
      <stop offset="0%" style="stop-color:#eab308"/>
      <stop offset="100%" style="stop-color:#fbbf24"/>
    </linearGradient>
    <style>
      .heading-lg { fill: #ffffff; font-family: system-ui, sans-serif; font-size: 20px; font-weight: bold; }
      .heading { fill: #ffffff; font-family: system-ui, sans-serif; font-size: 14px; font-weight: bold; }
      .heading-sm { fill: #ffffff; font-family: system-ui, sans-serif; font-size: 12px; font-weight: bold; }
      .text-md { fill: #cbd5e1; font-family: system-ui, sans-serif; font-size: 12px; }
      .text-sm { fill: #94a3b8; font-family: system-ui, sans-serif; font-size: 10px; }
      .text-muted { fill: #64748b; font-family: system-ui, sans-serif; font-size: 10px; }
      .annotation { fill: #8b5cf6; font-family: monospace; font-size: 10px; }
      .label-desktop { fill: #8b5cf6; font-family: monospace; font-size: 11px; font-weight: bold; }
      .label-mobile { fill: #d946ef; font-family: monospace; font-size: 11px; font-weight: bold; }
    </style>
  </defs>

  <!-- Background -->
  <rect width="1400" height="800" fill="url(#bgGrad)"/>

  <!-- Dot grid pattern -->
  <g opacity="0.05">
    <pattern id="dots" width="30" height="30" patternUnits="userSpaceOnUse">
      <circle cx="15" cy="15" r="1" fill="#fff"/>
    </pattern>
    <rect width="1400" height="800" fill="url(#dots)"/>
  </g>

  <!-- Accent line top -->
  <rect x="0" y="0" width="1400" height="3" fill="url(#accentGrad)"/>

  <!-- Title -->
  <text x="700" y="28" text-anchor="middle" font-family="system-ui, sans-serif" font-size="14" font-weight="600" fill="#64748b" letter-spacing="1">006 - SETUP GUIDANCE UI (Graceful Degradation)</text>

  <!-- DESKTOP SECTION (left) -->
  <text x="40" y="52" class="label-desktop">DESKTOP - With Setup Banner</text>
  <g id="desktop-view">
    <!-- Browser chrome -->
    <rect x="40" y="60" width="900" height="680" rx="8" fill="#1e293b" stroke="#475569" stroke-width="1"/>

    <!-- Tab bar -->
    <rect x="40" y="60" width="900" height="32" rx="8" fill="#334155"/>
    <circle cx="60" cy="76" r="6" fill="#ef4444"/>
    <circle cx="80" cy="76" r="6" fill="#eab308"/>
    <circle cx="100" cy="76" r="6" fill="#22c55e"/>

    <rect x="130" y="66" width="160" height="20" rx="4" fill="#1e293b"/>
    <text x="210" y="80" text-anchor="middle" class="text-sm">SpokeToWork</text>

    <!-- Address bar -->
    <rect x="310" y="66" width="400" height="20" rx="10" fill="#1e293b"/>
    <text x="510" y="79" text-anchor="middle" class="text-muted">localhost:3000</text>

    <!-- ==================== SETUP GUIDANCE BANNER ==================== -->
    <g id="banner-desktop" transform="translate(40, 96)">
      <rect x="0" y="0" width="900" height="70" fill="#422006" stroke="#eab308" stroke-width="1"/>

      <!-- Warning icon -->
      <circle cx="36" cy="35" r="18" fill="#eab308"/>
      <text x="36" y="42" text-anchor="middle" fill="#422006" font-size="18" font-weight="bold">!</text>

      <!-- Banner content -->
      <text x="70" y="24" class="heading" fill="#fbbf24">External Services Not Configured</text>
      <text x="70" y="42" class="text-md" fill="#fef3c7">Supabase connection required for full functionality. The app will run in demo mode with limited features.</text>

      <!-- Action buttons -->
      <rect x="650" y="15" width="110" height="32" rx="6" fill="#eab308"/>
      <text x="705" y="36" text-anchor="middle" fill="#1e293b" font-size="12" font-weight="bold">Setup Guide</text>

      <!-- Dismiss button -->
      <rect x="770" y="15" width="80" height="32" rx="6" fill="transparent" stroke="#eab308" stroke-width="1"/>
      <text x="810" y="36" text-anchor="middle" fill="#eab308" font-size="12">Dismiss</text>

      <!-- Close X -->
      <text x="874" y="24" fill="#fbbf24" font-size="16" cursor="pointer">×</text>
    </g>

    <!-- ==================== APP HEADER ==================== -->
    <g id="header-desktop" transform="translate(40, 170)">
      <rect x="0" y="0" width="900" height="56" fill="#1e293b" stroke="#475569" stroke-width="0 0 1 0"/>

      <!-- Logo -->
      <rect x="16" y="12" width="32" height="32" rx="6" fill="url(#accentGrad)"/>
      <text x="32" y="34" text-anchor="middle" fill="#fff" font-size="14" font-weight="bold">S</text>
      <text x="60" y="34" class="heading">SpokeToWork</text>

      <!-- Nav items -->
      <text x="200" y="34" class="text-md">Dashboard</text>
      <text x="280" y="34" class="text-md">Messages</text>
      <text x="360" y="34" class="text-md">Teams</text>

      <!-- User menu -->
      <circle cx="840" cy="28" r="16" fill="#334155"/>
      <text x="840" y="33" text-anchor="middle" class="text-sm">JD</text>

      <!-- Settings gear (disabled state) -->
      <rect x="786" y="12" width="32" height="32" rx="6" fill="#334155" opacity="0.5"/>
      <text x="802" y="34" text-anchor="middle" fill="#64748b" font-size="14">⚙</text>
    </g>

    <!-- ==================== MAIN CONTENT (Demo mode) ==================== -->
    <g id="content-desktop" transform="translate(40, 230)">
      <!-- Sidebar -->
      <rect x="0" y="0" width="200" height="510" fill="#0f172a"/>
      <text x="16" y="30" class="heading-sm">Quick Actions</text>

      <!-- Demo mode indicator -->
      <rect x="16" y="45" width="168" height="36" rx="6" fill="#1e293b" stroke="#eab308" stroke-width="1" stroke-dasharray="4,2"/>
      <text x="100" y="68" text-anchor="middle" fill="#eab308" font-size="10">DEMO MODE</text>

      <!-- Disabled nav items -->
      <rect x="16" y="100" width="168" height="36" rx="6" fill="#334155" opacity="0.4"/>
      <text x="100" y="123" text-anchor="middle" class="text-muted">New Message</text>

      <rect x="16" y="145" width="168" height="36" rx="6" fill="#334155" opacity="0.4"/>
      <text x="100" y="168" text-anchor="middle" class="text-muted">Create Team</text>

      <rect x="16" y="190" width="168" height="36" rx="6" fill="#334155" opacity="0.4"/>
      <text x="100" y="213" text-anchor="middle" class="text-muted">Settings</text>

      <!-- Main area -->
      <rect x="210" y="0" width="680" height="510" fill="#0f172a"/>

      <!-- Welcome card -->
      <rect x="230" y="20" width="640" height="180" rx="8" fill="#1e293b" stroke="#475569" stroke-width="1"/>
      <text x="550" y="60" text-anchor="middle" class="heading-lg">Welcome to SpokeToWork</text>
      <text x="550" y="90" text-anchor="middle" class="text-md">To unlock all features, please complete the Supabase setup.</text>

      <!-- Setup steps -->
      <g transform="translate(280, 110)">
        <circle cx="0" cy="15" r="12" fill="#334155" stroke="#eab308" stroke-width="2"/>
        <text x="0" y="19" text-anchor="middle" fill="#eab308" font-size="10">1</text>
        <text x="20" y="19" class="text-sm">Create Supabase project</text>
      </g>

      <g transform="translate(280, 140)">
        <circle cx="0" cy="15" r="12" fill="#334155" stroke="#475569" stroke-width="2"/>
        <text x="0" y="19" text-anchor="middle" class="text-muted">2</text>
        <text x="20" y="19" class="text-sm">Add environment variables</text>
      </g>

      <g transform="translate(280, 170)">
        <circle cx="0" cy="15" r="12" fill="#334155" stroke="#475569" stroke-width="2"/>
        <text x="0" y="19" text-anchor="middle" class="text-muted">3</text>
        <text x="20" y="19" class="text-sm">Run database migrations</text>
      </g>

      <!-- Demo content placeholder -->
      <text x="550" y="250" text-anchor="middle" class="heading-sm">Sample Content (Read-only)</text>

      <rect x="230" y="270" width="310" height="120" rx="8" fill="#1e293b" stroke="#475569" stroke-width="1"/>
      <text x="260" y="300" class="text-sm">Example Team Chat</text>
      <text x="260" y="320" class="text-muted">This is a demo message showing...</text>
      <rect x="260" y="340" width="200" height="30" rx="4" fill="#334155"/>
      <text x="280" y="360" class="text-muted">Reply disabled in demo mode</text>

      <rect x="560" y="270" width="310" height="120" rx="8" fill="#1e293b" stroke="#475569" stroke-width="1"/>
      <text x="590" y="300" class="text-sm">Project Updates</text>
      <text x="590" y="320" class="text-muted">Latest updates will appear here...</text>
      <rect x="590" y="340" width="200" height="30" rx="4" fill="#334155"/>
      <text x="610" y="360" class="text-muted">Requires Supabase connection</text>
    </g>
  </g>

  <!-- MOBILE SECTION (right) -->
  <text x="980" y="52" class="label-mobile">MOBILE - Setup Banner</text>
  <g id="mobile-view" transform="translate(980, 60)">
    <!-- Phone frame -->
    <rect x="0" y="0" width="360" height="700" rx="24" fill="#1e293b" stroke="#475569" stroke-width="2"/>
    <!-- Screen area -->
    <rect x="10" y="10" width="340" height="680" rx="16" fill="#0f172a"/>

    <!-- Status bar -->
    <rect x="10" y="10" width="340" height="28" rx="16" fill="#1e293b"/>
    <text x="30" y="28" class="text-sm">9:41</text>
    <text x="310" y="28" text-anchor="end" class="text-sm">100%</text>

    <!-- ==================== MOBILE SETUP BANNER ==================== -->
    <g id="banner-mobile" transform="translate(10, 42)">
      <rect x="0" y="0" width="340" height="90" fill="#422006" stroke="#eab308" stroke-width="1"/>

      <!-- Warning icon -->
      <circle cx="28" cy="24" r="14" fill="#eab308"/>
      <text x="28" y="29" text-anchor="middle" fill="#422006" font-size="14" font-weight="bold">!</text>

      <!-- Banner text (mobile-adapted) -->
      <text x="52" y="20" class="heading-sm" fill="#fbbf24">Setup Required</text>
      <text x="52" y="36" class="text-sm" fill="#fef3c7">External services not configured.</text>

      <!-- Dismiss X -->
      <text x="320" y="20" fill="#fbbf24" font-size="14">×</text>

      <!-- Action buttons (stacked for mobile) -->
      <rect x="16" y="52" width="150" height="28" rx="4" fill="#eab308"/>
      <text x="91" y="70" text-anchor="middle" fill="#1e293b" font-size="10" font-weight="bold">Setup Guide</text>

      <rect x="176" y="52" width="100" height="28" rx="4" fill="transparent" stroke="#eab308" stroke-width="1"/>
      <text x="226" y="70" text-anchor="middle" fill="#eab308" font-size="10">Dismiss</text>
    </g>

    <!-- Mobile header -->
    <rect x="10" y="136" width="340" height="48" fill="#1e293b"/>
    <rect x="26" y="148" width="24" height="24" rx="4" fill="url(#accentGrad)"/>
    <text x="38" y="165" text-anchor="middle" fill="#fff" font-size="10" font-weight="bold">S</text>
    <text x="60" y="166" class="heading-sm">SpokeToWork</text>

    <!-- Hamburger menu -->
    <g transform="translate(310, 152)">
      <rect x="0" y="0" width="18" height="2" fill="#94a3b8"/>
      <rect x="0" y="6" width="18" height="2" fill="#94a3b8"/>
      <rect x="0" y="12" width="18" height="2" fill="#94a3b8"/>
    </g>

    <!-- Mobile content -->
    <g transform="translate(10, 192)">
      <!-- Demo mode chip -->
      <rect x="16" y="8" width="80" height="22" rx="11" fill="#1e293b" stroke="#eab308" stroke-width="1"/>
      <text x="56" y="23" text-anchor="middle" fill="#eab308" font-size="9">DEMO MODE</text>

      <!-- Welcome card -->
      <rect x="16" y="45" width="308" height="140" rx="8" fill="#1e293b" stroke="#475569" stroke-width="1"/>
      <text x="170" y="75" text-anchor="middle" class="heading-sm">Welcome!</text>
      <text x="170" y="95" text-anchor="middle" class="text-sm">Complete setup to unlock features</text>

      <!-- Mini setup steps -->
      <g transform="translate(36, 110)">
        <circle cx="0" cy="10" r="8" fill="#334155" stroke="#eab308" stroke-width="1"/>
        <text x="0" y="13" text-anchor="middle" fill="#eab308" font-size="8">1</text>
        <text x="14" y="13" class="text-muted">Create Supabase project</text>
      </g>

      <g transform="translate(36, 130)">
        <circle cx="0" cy="10" r="8" fill="#334155" stroke="#475569" stroke-width="1"/>
        <text x="0" y="13" text-anchor="middle" class="text-muted">2</text>
        <text x="14" y="13" class="text-muted">Add env variables</text>
      </g>

      <g transform="translate(36, 150)">
        <circle cx="0" cy="10" r="8" fill="#334155" stroke="#475569" stroke-width="1"/>
        <text x="0" y="13" text-anchor="middle" class="text-muted">3</text>
        <text x="14" y="13" class="text-muted">Run migrations</text>
      </g>

      <!-- Sample content cards -->
      <rect x="16" y="205" width="308" height="80" rx="8" fill="#1e293b" stroke="#475569" stroke-width="1"/>
      <text x="32" y="230" class="text-sm">Example Team Chat</text>
      <text x="32" y="250" class="text-muted">Demo content (read-only)</text>
      <rect x="32" y="262" width="180" height="10" rx="2" fill="#334155"/>

      <rect x="16" y="300" width="308" height="80" rx="8" fill="#1e293b" stroke="#475569" stroke-width="1"/>
      <text x="32" y="325" class="text-sm">Project Updates</text>
      <text x="32" y="345" class="text-muted">Connect Supabase to enable</text>
      <rect x="32" y="357" width="180" height="10" rx="2" fill="#334155"/>
    </g>

    <!-- Mobile bottom nav -->
    <rect x="10" y="644" width="340" height="46" fill="#1e293b"/>
    <g transform="translate(50, 654)">
      <text x="0" y="20" text-anchor="middle" fill="#64748b" font-size="18">🏠</text>
      <text x="0" y="34" text-anchor="middle" class="text-muted">Home</text>
    </g>
    <g transform="translate(130, 654)">
      <text x="0" y="20" text-anchor="middle" fill="#64748b" font-size="18">💬</text>
      <text x="0" y="34" text-anchor="middle" class="text-muted">Chat</text>
    </g>
    <g transform="translate(210, 654)">
      <text x="0" y="20" text-anchor="middle" fill="#64748b" font-size="18">👥</text>
      <text x="0" y="34" text-anchor="middle" class="text-muted">Teams</text>
    </g>
    <g transform="translate(290, 654)">
      <text x="0" y="20" text-anchor="middle" fill="#64748b" font-size="18">⚙️</text>
      <text x="0" y="34" text-anchor="middle" class="text-muted">Settings</text>
    </g>
  </g>

  <!-- ==================== ANNOTATIONS ==================== -->
  <g id="annotations">
    <!-- Desktop annotation -->
    <rect x="40" y="750" width="300" height="36" rx="4" fill="#1e293b" stroke="#eab308" stroke-width="1"/>
    <text x="56" y="772" class="annotation" fill="#eab308">US-5, FR-023-025</text>
    <text x="200" y="772" class="text-sm">Dismissible, session-persistent banner</text>

    <!-- Mobile annotation -->
    <rect x="980" y="750" width="360" height="36" rx="4" fill="#1e293b" stroke="#d946ef" stroke-width="1"/>
    <text x="996" y="772" class="annotation" fill="#d946ef">RESPONSIVE</text>
    <text x="1100" y="772" class="text-sm">Stacked buttons, compact layout for mobile</text>
  </g>

</svg>