<svg xmlns="http://www.w3.org/2000/svg" viewBox="0 0 1400 800" width="1400" height="800">
  <!-- ============================================================
       GENERATED BY: /wireframe skill
       SOURCE: features/foundation/006-template-fork-experience/spec.md
       DATE: 2026-01-01
       THEME: Light (UX/Frontend) - v3 True Parchment
       DO NOT MANUALLY EDIT - Regenerate with /wireframe command
       ============================================================ -->
  <defs>
    <linearGradient id="bgGrad" x1="0%" y1="0%" x2="100%" y2="100%">
      <stop offset="0%" style="stop-color:#c7ddf5"/>
      <stop offset="100%" style="stop-color:#b8d4f0"/>
    </linearGradient>
    <linearGradient id="accentGrad" x1="0%" y1="0%" x2="100%" y2="0%">
      <stop offset="0%" style="stop-color:#8b5cf6"/>
      <stop offset="100%" style="stop-color:#d946ef"/>
    </linearGradient>
    <style>
      .heading-lg { fill: #1a1a2e; font-family: system-ui, sans-serif; font-size: 24px; font-weight: 800; }
      .heading { fill: #1a1a2e; font-family: system-ui, sans-serif; font-size: 16px; font-weight: 700; }
      .text-md { fill: #2d3748; font-family: system-ui, sans-serif; font-size: 14px; font-weight: 500; }
      .text-sm { fill: #4a5568; font-family: system-ui, sans-serif; font-size: 12px; font-weight: 500; }
      .text-muted { fill: #5a6577; font-family: system-ui, sans-serif; font-size: 11px; font-weight: 500; }
      .annotation { fill: #8b5cf6; font-family: monospace; font-size: 12px; font-weight: 600; }
      .label-desktop { fill: #8b5cf6; font-family: monospace; font-size: 13px; font-weight: bold; }
      .label-mobile { fill: #d946ef; font-family: monospace; font-size: 13px; font-weight: bold; }
      .spec-label { fill: #22c55e; font-family: monospace; font-size: 10px; font-weight: 600; }
    </style>
  </defs>

  <!-- Background -->
  <rect width="1400" height="800" fill="url(#bgGrad)"/>

  <!-- Dot grid pattern -->
  <g opacity="0.35">
    <pattern id="dots" width="30" height="30" patternUnits="userSpaceOnUse">
      <circle cx="15" cy="15" r="1" fill="#6b8cba"/>
    </pattern>
    <rect width="1400" height="800" fill="url(#dots)"/>
  </g>

  <!-- Accent line top -->
  <rect x="0" y="0" width="1400" height="3" fill="url(#accentGrad)"/>

  <!-- Title -->
  <text x="700" y="28" text-anchor="middle" font-family="system-ui, sans-serif" font-size="14" font-weight="600" fill="#5a6577" letter-spacing="1">GRACEFUL DEGRADATION UI — GUIDANCE BANNER &amp; SETUP STATES</text>

  <!-- DESKTOP SECTION -->
  <text x="40" y="52" class="label-desktop">DESKTOP — WITH GUIDANCE BANNER</text>
  <g id="desktop-view">
    <!-- App container -->
    <rect x="40" y="60" width="900" height="700" rx="8" fill="#e8d4b8" stroke="#b8a080" stroke-width="1"/>

    <!-- App Header -->
    <rect x="50" y="70" width="880" height="50" rx="6" fill="#dcc8a8" stroke="#b8a080"/>
    <rect x="60" y="80" width="100" height="30" rx="4" fill="#8b5cf6"/>
    <text x="110" y="100" text-anchor="middle" fill="#fff" font-size="12" font-weight="bold">YourApp</text>
    <text x="200" y="100" class="text-md">Home</text>
    <text x="260" y="100" class="text-md">Features</text>
    <text x="340" y="100" class="text-md">About</text>

    <!-- Guidance Banner -->
    <g id="guidance-banner" transform="translate(50, 130)">
      <rect x="0" y="0" width="880" height="60" rx="6" fill="#eab308" opacity="0.2" stroke="#eab308" stroke-width="2"/>

      <!-- Warning icon -->
      <circle cx="35" cy="30" r="18" fill="#eab308" opacity="0.3"/>
      <text x="35" y="37" text-anchor="middle" fill="#92400e" font-size="20">⚠</text>

      <!-- Banner text -->
      <text x="65" y="25" class="heading" fill="#92400e">External services not configured</text>
      <text x="65" y="45" class="text-md" fill="#78350f">Database and authentication services need to be set up for full functionality.</text>

      <!-- Setup link -->
      <rect x="660" y="12" width="120" height="36" rx="6" fill="#eab308"/>
      <text x="720" y="35" text-anchor="middle" fill="#fff" font-size="12" font-weight="bold">Setup Guide →</text>

      <!-- Dismiss button -->
      <rect x="800" y="12" width="60" height="36" rx="6" fill="#dcc8a8" stroke="#b8a080"/>
      <text x="830" y="36" text-anchor="middle" class="text-md">✕</text>
    </g>

    <!-- Annotation for banner -->
    <rect x="50" y="200" width="200" height="45" rx="4" fill="#e8d4b8" stroke="#8b5cf6" stroke-width="1"/>
    <text x="150" y="220" text-anchor="middle" class="annotation">FR-028: Dismissible</text>
    <text x="150" y="237" text-anchor="middle" class="spec-label">Once per session</text>

    <!-- Main content area (degraded) -->
    <g id="degraded-content" transform="translate(50, 260)">
      <rect x="0" y="0" width="880" height="480" rx="6" fill="#f5f0e6" stroke="#b8a080"/>

      <!-- Sidebar -->
      <rect x="10" y="10" width="200" height="460" rx="4" fill="#dcc8a8" stroke="#b8a080"/>
      <text x="110" y="35" text-anchor="middle" class="heading">Navigation</text>

      <rect x="20" y="50" width="180" height="35" rx="4" fill="#e8d4b8" stroke="#b8a080"/>
      <text x="35" y="73" class="text-md">🏠 Dashboard</text>

      <rect x="20" y="95" width="180" height="35" rx="4" fill="#e8d4b8" stroke="#b8a080"/>
      <text x="35" y="118" class="text-md">📝 Content</text>

      <rect x="20" y="140" width="180" height="35" rx="4" fill="#e8d4b8" stroke="#b8a080"/>
      <text x="35" y="163" class="text-md">⚙️ Settings</text>

      <!-- Main content - placeholder state -->
      <g transform="translate(225, 10)">
        <rect x="0" y="0" width="640" height="460" rx="4" fill="#e8d4b8" stroke="#b8a080"/>

        <!-- Welcome message -->
        <text x="320" y="80" text-anchor="middle" class="heading-lg">Welcome to YourApp</text>
        <text x="320" y="110" text-anchor="middle" class="text-md">Your fork is set up and ready to customize!</text>

        <!-- Setup checklist -->
        <rect x="120" y="140" width="400" height="200" rx="6" fill="#f5f0e6" stroke="#8b5cf6" stroke-width="2"/>
        <text x="320" y="170" text-anchor="middle" class="heading" fill="#8b5cf6">Setup Checklist</text>

        <g transform="translate(140, 190)">
          <rect x="0" y="0" width="20" height="20" rx="4" fill="#22c55e"/>
          <text x="10" y="15" text-anchor="middle" fill="#fff" font-size="12">✓</text>
          <text x="30" y="15" class="text-md">Fork repository</text>

          <rect x="0" y="35" width="20" height="20" rx="4" fill="#22c55e"/>
          <text x="10" y="50" text-anchor="middle" fill="#fff" font-size="12">✓</text>
          <text x="30" y="50" class="text-md">Run rebrand automation</text>

          <rect x="0" y="70" width="20" height="20" rx="4" fill="#dcc8a8" stroke="#b8a080"/>
          <text x="30" y="85" class="text-md">Configure Supabase project</text>

          <rect x="0" y="105" width="20" height="20" rx="4" fill="#dcc8a8" stroke="#b8a080"/>
          <text x="30" y="120" class="text-md">Set environment variables</text>
        </g>

        <!-- Documentation link -->
        <rect x="220" y="380" width="200" height="40" rx="6" fill="#8b5cf6"/>
        <text x="320" y="405" text-anchor="middle" fill="#fff" font-size="14" font-weight="bold">View Setup Docs</text>
      </g>
    </g>
  </g>

  <!-- MOBILE SECTION -->
  <text x="980" y="52" class="label-mobile">MOBILE</text>
  <g id="mobile-view" transform="translate(980, 60)">
    <!-- Phone frame -->
    <rect x="0" y="0" width="360" height="700" rx="24" fill="#c8b898" stroke="#a08860" stroke-width="2"/>
    <rect x="10" y="10" width="340" height="680" rx="16" fill="#e8d4b8"/>

    <!-- Status bar -->
    <rect x="10" y="10" width="340" height="28" rx="16" fill="#dcc8a8"/>
    <text x="30" y="28" class="text-sm">9:41</text>
    <text x="300" y="28" class="text-sm">📶 🔋</text>

    <!-- Header -->
    <rect x="20" y="48" width="320" height="44" rx="6" fill="#dcc8a8" stroke="#b8a080"/>
    <rect x="30" y="55" width="28" height="28" rx="4" fill="#8b5cf6"/>
    <text x="44" y="74" text-anchor="middle" fill="#fff" font-size="10">☰</text>
    <text x="180" y="75" text-anchor="middle" class="heading">YourApp</text>

    <!-- Mobile Guidance Banner (stacked) -->
    <g transform="translate(20, 100)">
      <rect x="0" y="0" width="320" height="80" rx="6" fill="#eab308" opacity="0.2" stroke="#eab308" stroke-width="2"/>

      <!-- Icon and text stacked -->
      <text x="160" y="25" text-anchor="middle" fill="#92400e" font-size="16">⚠ Setup Required</text>
      <text x="160" y="45" text-anchor="middle" class="text-sm" fill="#78350f">External services need configuration</text>

      <!-- Buttons row -->
      <rect x="20" y="52" width="130" height="22" rx="4" fill="#eab308"/>
      <text x="85" y="67" text-anchor="middle" fill="#fff" font-size="10" font-weight="bold">Setup Guide</text>
      <rect x="160" y="52" width="60" height="22" rx="4" fill="#dcc8a8" stroke="#b8a080"/>
      <text x="190" y="67" text-anchor="middle" class="text-sm">Dismiss</text>
    </g>

    <!-- Mobile content -->
    <g transform="translate(20, 195)">
      <rect x="0" y="0" width="320" height="475" rx="6" fill="#f5f0e6" stroke="#b8a080"/>

      <text x="160" y="40" text-anchor="middle" class="heading">Welcome!</text>
      <text x="160" y="60" text-anchor="middle" class="text-sm">Ready to customize</text>

      <!-- Setup steps -->
      <rect x="20" y="80" width="280" height="180" rx="4" fill="#e8d4b8" stroke="#8b5cf6"/>
      <text x="160" y="105" text-anchor="middle" class="heading" fill="#8b5cf6">Setup Steps</text>

      <g transform="translate(35, 120)">
        <circle cx="8" cy="8" r="8" fill="#22c55e"/>
        <text x="8" y="12" text-anchor="middle" fill="#fff" font-size="10">✓</text>
        <text x="25" y="12" class="text-sm">Fork repository</text>

        <circle cx="8" cy="38" r="8" fill="#22c55e"/>
        <text x="8" y="42" text-anchor="middle" fill="#fff" font-size="10">✓</text>
        <text x="25" y="42" class="text-sm">Rebrand complete</text>

        <circle cx="8" cy="68" r="8" fill="#dcc8a8" stroke="#b8a080"/>
        <text x="25" y="72" class="text-sm">Configure Supabase</text>

        <circle cx="8" cy="98" r="8" fill="#dcc8a8" stroke="#b8a080"/>
        <text x="25" y="102" class="text-sm">Set env variables</text>
      </g>

      <!-- CTA button -->
      <rect x="40" y="280" width="240" height="40" rx="6" fill="#8b5cf6"/>
      <text x="160" y="305" text-anchor="middle" fill="#fff" font-size="12" font-weight="bold">View Setup Docs</text>

      <!-- Attribution footer -->
      <rect x="20" y="420" width="280" height="40" rx="4" fill="#dcc8a8" stroke="#b8a080"/>
      <text x="160" y="442" text-anchor="middle" class="text-muted">Built with ScriptHammer template</text>
      <text x="160" y="456" text-anchor="middle" class="annotation">FR-028</text>
    </g>
  </g>

  <!-- BANNER STATES -->
  <g id="banner-states" transform="translate(40, 540)">
    <text x="0" y="0" class="label-desktop">BANNER BEHAVIOR STATES</text>

    <!-- State 1: Initial -->
    <rect x="0" y="15" width="280" height="100" rx="6" fill="#e8d4b8" stroke="#b8a080"/>
    <text x="140" y="40" text-anchor="middle" class="heading">State: Initial</text>
    <rect x="15" y="55" width="250" height="25" rx="4" fill="#eab308" opacity="0.3" stroke="#eab308"/>
    <text x="140" y="72" text-anchor="middle" class="text-sm">Banner visible</text>
    <text x="15" y="100" class="text-muted">Config missing → Show banner</text>

    <!-- State 2: Dismissed -->
    <rect x="300" y="15" width="280" height="100" rx="6" fill="#e8d4b8" stroke="#b8a080"/>
    <text x="440" y="40" text-anchor="middle" class="heading">State: Dismissed</text>
    <rect x="315" y="55" width="250" height="25" rx="4" fill="#dcc8a8" stroke="#b8a080" stroke-dasharray="4,2"/>
    <text x="440" y="72" text-anchor="middle" class="text-muted">Banner hidden</text>
    <text x="315" y="100" class="text-muted">User clicked ✕ → Hide for session</text>

    <!-- State 3: Configured -->
    <rect x="600" y="15" width="280" height="100" rx="6" fill="#e8d4b8" stroke="#22c55e" stroke-width="2"/>
    <text x="740" y="40" text-anchor="middle" class="heading">State: Configured</text>
    <rect x="615" y="55" width="250" height="25" rx="4" fill="#22c55e" opacity="0.15"/>
    <text x="740" y="72" text-anchor="middle" class="text-sm" fill="#22c55e">✓ Services connected</text>
    <text x="615" y="100" class="text-muted">Config valid → Banner removed</text>
  </g>

  <!-- REQUIREMENTS -->
  <g id="requirements" transform="translate(40, 670)">
    <rect x="0" y="0" width="900" height="90" rx="6" fill="#f5f0e6" stroke="#8b5cf6" stroke-width="2"/>
    <text x="450" y="25" text-anchor="middle" class="heading">User Story 5: Graceful Degradation Requirements</text>

    <g transform="translate(20, 40)">
      <rect x="0" y="0" width="270" height="35" rx="4" fill="#e8d4b8"/>
      <text x="15" y="22" class="spec-label">FR-023 to FR-025</text>
      <text x="130" y="22" class="text-md">Dynamic config</text>

      <rect x="290" y="0" width="290" height="35" rx="4" fill="#e8d4b8"/>
      <text x="305" y="22" class="spec-label">FR-026 to FR-027</text>
      <text x="420" y="22" class="text-md">Documentation</text>

      <rect x="600" y="0" width="270" height="35" rx="4" fill="#e8d4b8"/>
      <text x="615" y="22" class="spec-label">FR-028</text>
      <text x="740" y="22" class="text-md">Attribution link</text>
    </g>
  </g>

  <!-- Leader lines -->
  <g id="leader-lines">
  </g>
</svg>
