<svg xmlns="http://www.w3.org/2000/svg" viewBox="0 0 1400 800" width="1400" height="800">
  <!-- ============================================================
       GENERATED BY: /wireframe skill
       SOURCE: features/polish/028-enhanced-geolocation/spec.md
       DATE: 2025-12-31
       DO NOT MANUALLY EDIT - Regenerate with /wireframe command
       ============================================================ -->
  <defs>
    <linearGradient id="bgGrad" x1="0%" y1="0%" x2="100%" y2="100%">
      <stop offset="0%" style="stop-color:#0f172a"/>
      <stop offset="100%" style="stop-color:#1e293b"/>
    </linearGradient>
    <linearGradient id="accentGrad" x1="0%" y1="0%" x2="100%" y2="0%">
      <stop offset="0%" style="stop-color:#8b5cf6"/>
      <stop offset="100%" style="stop-color:#d946ef"/>
    </linearGradient>
    <style>
      .heading-lg { fill: #ffffff; font-family: system-ui, sans-serif; font-size: 20px; font-weight: bold; }
      .heading { fill: #ffffff; font-family: system-ui, sans-serif; font-size: 14px; font-weight: bold; }
      .text-md { fill: #cbd5e1; font-family: system-ui, sans-serif; font-size: 12px; }
      .text-sm { fill: #94a3b8; font-family: system-ui, sans-serif; font-size: 10px; }
      .text-muted { fill: #64748b; font-family: system-ui, sans-serif; font-size: 10px; }
      .annotation { fill: #8b5cf6; font-family: monospace; font-size: 10px; }
      .label-desktop { fill: #8b5cf6; font-family: monospace; font-size: 11px; font-weight: bold; }
      .label-mobile { fill: #d946ef; font-family: monospace; font-size: 11px; font-weight: bold; }
    </style>
  </defs>

  <!-- Background -->
  <rect width="1400" height="800" fill="url(#bgGrad)"/>

  <!-- Dot grid pattern -->
  <g opacity="0.05">
    <pattern id="dots" width="30" height="30" patternUnits="userSpaceOnUse">
      <circle cx="15" cy="15" r="1" fill="#fff"/>
    </pattern>
    <rect width="1400" height="800" fill="url(#dots)"/>
  </g>

  <!-- Accent line top -->
  <rect x="0" y="0" width="1400" height="3" fill="url(#accentGrad)"/>

  <!-- Title -->
  <text x="700" y="28" text-anchor="middle" font-family="system-ui, sans-serif" font-size="14" font-weight="600" fill="#64748b" letter-spacing="1">ENHANCED GEOLOCATION - DESKTOP ADDRESS SEARCH</text>

  <!-- DESKTOP SECTION -->
  <text x="40" y="52" class="label-desktop">DESKTOP - ADDRESS SEARCH MODE</text>

  <!-- Desktop Container -->
  <rect x="40" y="60" width="900" height="680" rx="8" fill="#1e293b" stroke="#475569" stroke-width="1"/>

  <!-- Header -->
  <rect x="40" y="60" width="900" height="50" rx="8" fill="#334155"/>
  <rect x="40" y="100" width="900" height="10" fill="#334155"/>
  <text x="60" y="92" class="heading-lg">Set Your Location</text>

  <!-- Search Box (FR-004) -->
  <rect x="60" y="125" width="400" height="44" rx="8" fill="#0f172a" stroke="#8b5cf6" stroke-width="2"/>
  <text x="80" y="152" class="text-md">123 Main Street, San Fran...</text>
  <!-- Search icon -->
  <circle cx="430" cy="147" r="10" fill="none" stroke="#8b5cf6" stroke-width="2"/>
  <line x1="437" y1="154" x2="445" y2="162" stroke="#8b5cf6" stroke-width="2"/>

  <!-- Autocomplete Dropdown (US-1) -->
  <rect x="60" y="169" width="400" height="140" rx="8" fill="#1e293b" stroke="#475569" stroke-width="1"/>

  <!-- Autocomplete Item 1 (selected) -->
  <rect x="65" y="174" width="390" height="40" rx="4" fill="#334155"/>
  <text x="80" y="192" class="heading">123 Main Street</text>
  <text x="80" y="208" class="text-sm">San Francisco, CA 94102, USA</text>

  <!-- Autocomplete Item 2 -->
  <rect x="65" y="218" width="390" height="40" rx="4" fill="transparent"/>
  <text x="80" y="236" class="text-md">123 Main Avenue</text>
  <text x="80" y="252" class="text-sm">San Francisco, CA 94118, USA</text>

  <!-- Autocomplete Item 3 -->
  <rect x="65" y="262" width="390" height="40" rx="4" fill="transparent"/>
  <text x="80" y="280" class="text-md">123 Main Boulevard</text>
  <text x="80" y="296" class="text-sm">San Jose, CA 95131, USA</text>

  <!-- Map Container -->
  <rect x="60" y="320" width="600" height="400" rx="8" fill="#0f172a" stroke="#475569" stroke-width="1"/>

  <!-- Simulated Map with Grid -->
  <g opacity="0.1">
    <line x1="60" y1="400" x2="660" y2="400" stroke="#475569" stroke-width="1"/>
    <line x1="60" y1="480" x2="660" y2="480" stroke="#475569" stroke-width="1"/>
    <line x1="60" y1="560" x2="660" y2="560" stroke="#475569" stroke-width="1"/>
    <line x1="60" y1="640" x2="660" y2="640" stroke="#475569" stroke-width="1"/>
    <line x1="160" y1="320" x2="160" y2="720" stroke="#475569" stroke-width="1"/>
    <line x1="260" y1="320" x2="260" y2="720" stroke="#475569" stroke-width="1"/>
    <line x1="360" y1="320" x2="360" y2="720" stroke="#475569" stroke-width="1"/>
    <line x1="460" y1="320" x2="460" y2="720" stroke="#475569" stroke-width="1"/>
    <line x1="560" y1="320" x2="560" y2="720" stroke="#475569" stroke-width="1"/>
  </g>

  <!-- Map streets (simulated) -->
  <line x1="100" y1="520" x2="620" y2="520" stroke="#475569" stroke-width="3"/>
  <line x1="360" y1="350" x2="360" y2="680" stroke="#475569" stroke-width="3"/>
  <line x1="200" y1="400" x2="520" y2="400" stroke="#334155" stroke-width="2"/>

  <!-- Location Marker Pin (FR-005) -->
  <g transform="translate(360, 520)">
    <!-- Pin shadow -->
    <ellipse cx="0" cy="8" rx="12" ry="4" fill="#000" opacity="0.3"/>
    <!-- Pin body -->
    <path d="M 0 -30 C -15 -30 -20 -15 -20 -8 C -20 5 0 20 0 20 C 0 20 20 5 20 -8 C 20 -15 15 -30 0 -30 Z" fill="#8b5cf6"/>
    <!-- Pin center circle -->
    <circle cx="0" cy="-12" r="8" fill="#fff"/>
  </g>

  <!-- Accuracy Circle (FR-013) - tight for address search -->
  <circle cx="360" cy="520" r="25" fill="#8b5cf6" opacity="0.15" stroke="#8b5cf6" stroke-width="2" stroke-dasharray="4,2"/>

  <!-- Map Controls -->
  <g transform="translate(620, 340)">
    <rect x="0" y="0" width="30" height="60" rx="4" fill="#334155" stroke="#475569" stroke-width="1"/>
    <text x="15" y="22" text-anchor="middle" fill="#fff" font-size="16">+</text>
    <line x1="5" y1="30" x2="25" y2="30" stroke="#475569" stroke-width="1"/>
    <text x="15" y="50" text-anchor="middle" fill="#fff" font-size="16">−</text>
  </g>

  <!-- Right Panel - Location Details -->
  <rect x="680" y="125" width="240" height="595" rx="8" fill="#0f172a" stroke="#475569" stroke-width="1"/>

  <!-- Location Info Header -->
  <text x="700" y="155" class="heading">Selected Location</text>

  <!-- Address Display -->
  <rect x="695" y="170" width="210" height="70" rx="6" fill="#334155"/>
  <text x="710" y="195" class="heading">123 Main Street</text>
  <text x="710" y="212" class="text-md">San Francisco, CA 94102</text>
  <text x="710" y="229" class="text-sm">United States</text>

  <!-- Coordinates Display (FR-006) -->
  <text x="700" y="265" class="text-muted">COORDINATES</text>
  <rect x="695" y="275" width="210" height="50" rx="6" fill="#1e293b" stroke="#475569" stroke-width="1"/>
  <text x="710" y="298" class="text-md">37.7749° N, 122.4194° W</text>
  <text x="710" y="315" class="text-sm">Click map or enter manually</text>

  <!-- Accuracy Indicator (FR-014, FR-015) -->
  <text x="700" y="350" class="text-muted">ACCURACY</text>
  <rect x="695" y="360" width="210" height="60" rx="6" fill="#1e293b" stroke="#22c55e" stroke-width="2"/>
  <!-- High accuracy badge -->
  <rect x="710" y="375" width="80" height="24" rx="12" fill="#22c55e"/>
  <text x="750" y="391" text-anchor="middle" fill="#fff" font-family="system-ui" font-size="11" font-weight="bold">HIGH</text>
  <text x="800" y="391" class="text-md">±5 meters</text>
  <text x="710" y="410" class="text-sm">Source: Address Search</text>

  <!-- Location Source Options -->
  <text x="700" y="450" class="text-muted">LOCATION METHOD</text>

  <!-- Radio: Address Search (selected) -->
  <g>
    <circle cx="710" cy="475" r="8" fill="none" stroke="#8b5cf6" stroke-width="2"/>
    <circle cx="710" cy="475" r="4" fill="#8b5cf6"/>
    <text x="725" y="480" class="text-md">Address Search</text>
  </g>

  <!-- Radio: Click on Map -->
  <g>
    <circle cx="710" cy="505" r="8" fill="none" stroke="#475569" stroke-width="2"/>
    <text x="725" y="510" class="text-md">Click on Map</text>
  </g>

  <!-- Radio: Enter Coordinates -->
  <g>
    <circle cx="710" cy="535" r="8" fill="none" stroke="#475569" stroke-width="2"/>
    <text x="725" y="540" class="text-md">Enter Coordinates</text>
  </g>

  <!-- Radio: Use IP Location -->
  <g>
    <circle cx="710" cy="565" r="8" fill="none" stroke="#475569" stroke-width="2"/>
    <text x="725" y="570" class="text-md">Use IP Location</text>
    <text x="725" y="585" class="text-muted">~City level accuracy</text>
  </g>

  <!-- Save Button -->
  <rect x="695" y="620" width="210" height="44" rx="8" fill="#8b5cf6"/>
  <text x="800" y="648" text-anchor="middle" fill="#fff" font-family="system-ui" font-size="14" font-weight="bold">Save Location</text>

  <!-- Clear Data Link (FR-027) -->
  <text x="800" y="690" text-anchor="middle" fill="#64748b" font-family="system-ui" font-size="11" text-decoration="underline">Clear location data</text>

  <!-- MOBILE SECTION -->
  <text x="980" y="52" class="label-mobile">DESKTOP - IP FALLBACK</text>

  <!-- Phone Frame showing IP fallback state -->
  <rect x="980" y="60" width="360" height="700" rx="24" fill="#1e293b" stroke="#475569" stroke-width="2"/>
  <rect x="990" y="70" width="340" height="680" rx="16" fill="#0f172a"/>

  <!-- Status bar -->
  <rect x="990" y="70" width="340" height="28" rx="16" fill="#1e293b"/>
  <text x="1010" y="88" class="text-sm">9:41</text>
  <text x="1300" y="88" class="text-sm">100%</text>

  <!-- Header -->
  <rect x="990" y="98" width="340" height="50" fill="#334155"/>
  <text x="1160" y="130" text-anchor="middle" class="heading">Your Location</text>

  <!-- IP Fallback Warning Banner (US-5) -->
  <rect x="1000" y="158" width="320" height="50" rx="8" fill="#78350f" stroke="#eab308" stroke-width="1"/>
  <text x="1020" y="180" fill="#fbbf24" font-family="system-ui" font-size="12" font-weight="bold">Approximate Location</text>
  <text x="1020" y="196" fill="#fcd34d" font-family="system-ui" font-size="10">Based on IP address - City level only</text>

  <!-- Map Area -->
  <rect x="1000" y="218" width="320" height="280" rx="8" fill="#1e293b" stroke="#475569" stroke-width="1"/>

  <!-- Simulated map grid -->
  <g opacity="0.1">
    <line x1="1000" y1="280" x2="1320" y2="280" stroke="#475569"/>
    <line x1="1000" y1="340" x2="1320" y2="340" stroke="#475569"/>
    <line x1="1000" y1="400" x2="1320" y2="400" stroke="#475569"/>
    <line x1="1000" y1="460" x2="1320" y2="460" stroke="#475569"/>
    <line x1="1080" y1="218" x2="1080" y2="498" stroke="#475569"/>
    <line x1="1160" y1="218" x2="1160" y2="498" stroke="#475569"/>
    <line x1="1240" y1="218" x2="1240" y2="498" stroke="#475569"/>
  </g>

  <!-- Large accuracy circle for IP (low accuracy) -->
  <circle cx="1160" cy="360" r="80" fill="#eab308" opacity="0.1" stroke="#eab308" stroke-width="2" stroke-dasharray="6,3"/>

  <!-- Center marker -->
  <circle cx="1160" cy="360" r="8" fill="#eab308"/>
  <circle cx="1160" cy="360" r="4" fill="#fff"/>

  <!-- Accuracy Badge (Low) -->
  <rect x="1000" y="508" width="320" height="60" rx="8" fill="#1e293b" stroke="#eab308" stroke-width="2"/>
  <rect x="1015" y="523" width="100" height="24" rx="12" fill="#eab308"/>
  <text x="1065" y="540" text-anchor="middle" fill="#000" font-family="system-ui" font-size="11" font-weight="bold">CITY LEVEL</text>
  <text x="1130" y="540" class="text-md">±5 km</text>
  <text x="1015" y="558" class="text-sm">Source: IP Address</text>

  <!-- Refine Location Prompt -->
  <rect x="1000" y="578" width="320" height="80" rx="8" fill="#334155"/>
  <text x="1160" y="605" text-anchor="middle" fill="#fff" font-family="system-ui" font-size="12" font-weight="bold">Refine Your Location</text>
  <text x="1160" y="625" text-anchor="middle" class="text-sm">Search an address or click on the map</text>
  <rect x="1080" y="635" width="160" height="32" rx="6" fill="#8b5cf6"/>
  <text x="1160" y="656" text-anchor="middle" fill="#fff" font-size="11" font-weight="bold">Search Address</text>

  <!-- Mobile Nav -->
  <rect x="990" y="700" width="340" height="50" rx="16" fill="#1e293b"/>
  <text x="1050" y="730" text-anchor="middle" class="text-muted">Home</text>
  <text x="1160" y="730" text-anchor="middle" fill="#8b5cf6" font-family="system-ui" font-size="10" font-weight="bold">Location</text>
  <text x="1270" y="730" text-anchor="middle" class="text-muted">Settings</text>

  <!-- Annotations -->
  <g id="annotations">
    <rect x="470" y="125" width="100" height="45" rx="4" fill="#1e293b" stroke="#8b5cf6" stroke-width="1"/>
    <text x="520" y="143" text-anchor="middle" class="annotation">FR-004</text>
    <text x="520" y="160" text-anchor="middle" class="text-muted">Autocomplete</text>

    <rect x="470" y="500" width="100" height="45" rx="4" fill="#1e293b" stroke="#8b5cf6" stroke-width="1"/>
    <text x="520" y="518" text-anchor="middle" class="annotation">FR-005</text>
    <text x="520" y="535" text-anchor="middle" class="text-muted">Click to set</text>

    <rect x="470" y="360" width="100" height="45" rx="4" fill="#1e293b" stroke="#22c55e" stroke-width="1"/>
    <text x="520" y="378" text-anchor="middle" class="annotation" fill="#22c55e">FR-013</text>
    <text x="520" y="395" text-anchor="middle" class="text-muted">Accuracy ring</text>
  </g>

  <!-- Leader lines -->
  <g id="leader-lines">
    <line x1="470" y1="147" x2="460" y2="147" stroke="#8b5cf6" stroke-width="1" stroke-dasharray="4,2"/>
    <line x1="470" y1="520" x2="385" y2="520" stroke="#8b5cf6" stroke-width="1" stroke-dasharray="4,2"/>
    <line x1="470" y1="380" x2="385" y2="495" stroke="#22c55e" stroke-width="1" stroke-dasharray="4,2"/>
  </g>
</svg>
