<svg xmlns="http://www.w3.org/2000/svg" viewBox="0 0 1400 800" width="1400" height="800">
  <!-- ============================================================
       GENERATED BY: /wireframe skill
       SOURCE: features/polish/028-enhanced-geolocation/spec.md
       DATE: 2026-01-01
       THEME: Light (UX/Frontend) - v3 True Parchment
       DO NOT MANUALLY EDIT - Regenerate with /wireframe command
       ============================================================ -->
  <defs>
    <linearGradient id="bgGrad" x1="0%" y1="0%" x2="100%" y2="100%">
      <stop offset="0%" style="stop-color:#c7ddf5"/>
      <stop offset="100%" style="stop-color:#b8d4f0"/>
    </linearGradient>
    <linearGradient id="accentGrad" x1="0%" y1="0%" x2="100%" y2="0%">
      <stop offset="0%" style="stop-color:#8b5cf6"/>
      <stop offset="100%" style="stop-color:#d946ef"/>
    </linearGradient>
    <style>
      .heading-lg { fill: #1a1a2e; font-family: system-ui, sans-serif; font-size: 24px; font-weight: 800; }
      .heading { fill: #1a1a2e; font-family: system-ui, sans-serif; font-size: 16px; font-weight: 700; }
      .text-md { fill: #2d3748; font-family: system-ui, sans-serif; font-size: 14px; font-weight: 500; }
      .text-sm { fill: #4a5568; font-family: system-ui, sans-serif; font-size: 12px; font-weight: 500; }
      .text-muted { fill: #5a6577; font-family: system-ui, sans-serif; font-size: 11px; font-weight: 500; }
      .annotation { fill: #8b5cf6; font-family: monospace; font-size: 12px; font-weight: 600; }
      .label-desktop { fill: #8b5cf6; font-family: monospace; font-size: 13px; font-weight: bold; }
      .label-mobile { fill: #d946ef; font-family: monospace; font-size: 13px; font-weight: bold; }
    </style>
  </defs>

  <!-- Background -->
  <rect width="1400" height="800" fill="url(#bgGrad)"/>

  <!-- Dot grid pattern -->
  <g opacity="0.35">
    <pattern id="dots" width="30" height="30" patternUnits="userSpaceOnUse">
      <circle cx="15" cy="15" r="1" fill="#6b8cba"/>
    </pattern>
    <rect width="1400" height="800" fill="url(#dots)"/>
  </g>

  <!-- Accent line top -->
  <rect x="0" y="0" width="1400" height="3" fill="url(#accentGrad)"/>

  <!-- Title -->
  <text x="700" y="28" text-anchor="middle" font-family="system-ui, sans-serif" font-size="14" font-weight="600" fill="#5a6577" letter-spacing="1">ENHANCED GEOLOCATION - DESKTOP INTERFACE</text>

  <!-- DESKTOP SECTION -->
  <text x="40" y="52" class="label-desktop">DESKTOP - ADDRESS SEARCH &amp; CLICK-TO-SET</text>

  <g id="desktop-view">
    <!-- Main container panel -->
    <rect x="40" y="60" width="900" height="700" rx="12" fill="#e8d4b8" stroke="#b8a080" stroke-width="1"/>

    <!-- Header bar -->
    <rect x="40" y="60" width="900" height="50" rx="12" fill="#dcc8a8"/>
    <rect x="40" y="98" width="900" height="12" fill="#dcc8a8"/>
    <text x="60" y="92" class="heading">📍 Set Your Location</text>
    <text x="760" y="92" class="text-sm">Platform: Desktop detected</text>

    <!-- Search box with autocomplete -->
    <g id="search-section">
      <rect x="60" y="125" width="500" height="44" rx="8" fill="#f5f0e6" stroke="#b8a080" stroke-width="1"/>
      <text x="80" y="152" class="text-md">🔍 Search for an address...</text>

      <!-- Autocomplete dropdown -->
      <rect x="60" y="169" width="500" height="140" rx="8" fill="#f5f0e6" stroke="#8b5cf6" stroke-width="2"/>
      <rect x="60" y="169" width="500" height="35" rx="8" fill="#e0d8f0"/>
      <rect x="60" y="192" width="500" height="12" fill="#e0d8f0"/>
      <text x="80" y="192" class="text-md" font-weight="600">123 Main Street, Springfield, IL 62701</text>
      <line x1="60" y1="204" x2="560" y2="204" stroke="#b8a080" stroke-width="1"/>
      <text x="80" y="227" class="text-md">125 Main Street, Springfield, IL 62701</text>
      <line x1="60" y1="239" x2="560" y2="239" stroke="#b8a080" stroke-width="1"/>
      <text x="80" y="262" class="text-md">127 Main Street, Springfield, IL 62702</text>
      <line x1="60" y1="274" x2="560" y2="274" stroke="#b8a080" stroke-width="1"/>
      <text x="80" y="297" class="text-md">130 Main Avenue, Springfield, MO 65806</text>
    </g>

    <!-- Coordinate input -->
    <g id="coordinate-input">
      <text x="580" y="142" class="text-sm">Or enter coordinates:</text>
      <rect x="580" y="150" width="100" height="32" rx="6" fill="#f5f0e6" stroke="#b8a080" stroke-width="1"/>
      <text x="590" y="172" class="text-muted">39.7817</text>
      <rect x="690" y="150" width="100" height="32" rx="6" fill="#f5f0e6" stroke="#b8a080" stroke-width="1"/>
      <text x="700" y="172" class="text-muted">-89.6501</text>
      <rect x="800" y="150" width="60" height="32" rx="6" fill="#8b5cf6"/>
      <text x="830" y="172" text-anchor="middle" fill="#fff" font-family="system-ui" font-size="12" font-weight="600">GO</text>
    </g>

    <!-- Map area -->
    <g id="map-area">
      <rect x="60" y="330" width="560" height="400" rx="8" fill="#c8d8c8" stroke="#b8a080" stroke-width="1"/>

      <!-- Map grid lines (simulating map) -->
      <line x1="60" y1="430" x2="620" y2="430" stroke="#a8b8a8" stroke-width="1"/>
      <line x1="60" y1="530" x2="620" y2="530" stroke="#a8b8a8" stroke-width="1"/>
      <line x1="60" y1="630" x2="620" y2="630" stroke="#a8b8a8" stroke-width="1"/>
      <line x1="180" y1="330" x2="180" y2="730" stroke="#a8b8a8" stroke-width="1"/>
      <line x1="300" y1="330" x2="300" y2="730" stroke="#a8b8a8" stroke-width="1"/>
      <line x1="420" y1="330" x2="420" y2="730" stroke="#a8b8a8" stroke-width="1"/>
      <line x1="540" y1="330" x2="540" y2="730" stroke="#a8b8a8" stroke-width="1"/>

      <!-- Map roads -->
      <rect x="60" y="520" width="560" height="20" fill="#e8e0d8"/>
      <rect x="290" y="330" width="20" height="400" fill="#e8e0d8"/>

      <!-- Location marker -->
      <circle cx="340" cy="480" r="8" fill="#ef4444" stroke="#fff" stroke-width="2"/>
      <path d="M340 470 L340 450" stroke="#ef4444" stroke-width="2"/>
      <circle cx="340" cy="445" r="6" fill="#ef4444"/>

      <!-- Click hint -->
      <rect x="400" y="600" width="200" height="50" rx="8" fill="#e8d4b8" stroke="#8b5cf6" stroke-width="1" stroke-dasharray="4,2"/>
      <text x="500" y="620" text-anchor="middle" class="text-sm">Click anywhere on map</text>
      <text x="500" y="638" text-anchor="middle" class="text-muted">to set location manually</text>

      <!-- Zoom controls -->
      <rect x="580" y="340" width="30" height="60" rx="6" fill="#e8d4b8" stroke="#b8a080" stroke-width="1"/>
      <text x="595" y="362" text-anchor="middle" class="heading">+</text>
      <line x1="585" y1="370" x2="605" y2="370" stroke="#b8a080" stroke-width="1"/>
      <text x="595" y="392" text-anchor="middle" class="heading">−</text>
    </g>

    <!-- Right panel - Location info -->
    <g id="location-info">
      <rect x="640" y="330" width="280" height="200" rx="8" fill="#dcc8a8" stroke="#b8a080" stroke-width="1"/>
      <text x="660" y="358" class="heading">📍 Current Location</text>

      <text x="660" y="390" class="text-sm" fill="#5a6577">ADDRESS</text>
      <text x="660" y="412" class="text-md">123 Main Street</text>
      <text x="660" y="432" class="text-md">Springfield, IL 62701</text>

      <text x="660" y="465" class="text-sm" fill="#5a6577">COORDINATES</text>
      <text x="660" y="487" class="text-md">39.7817° N, 89.6501° W</text>

      <!-- Source badge -->
      <rect x="660" y="505" width="80" height="22" rx="11" fill="#8b5cf6"/>
      <text x="700" y="520" text-anchor="middle" fill="#fff" font-family="system-ui" font-size="11" font-weight="600">MANUAL</text>
    </g>

    <!-- Accuracy indicator panel -->
    <g id="accuracy-panel">
      <rect x="640" y="545" width="280" height="100" rx="8" fill="#dcc8a8" stroke="#b8a080" stroke-width="1"/>
      <text x="660" y="575" class="heading">🎯 Accuracy</text>

      <!-- High accuracy (green) -->
      <rect x="660" y="590" width="100" height="8" rx="4" fill="#d0d0d0"/>
      <rect x="660" y="590" width="95" height="8" rx="4" fill="#22c55e"/>
      <text x="770" y="600" class="text-md" fill="#22c55e" font-weight="600">±5m</text>
      <text x="830" y="600" class="text-sm">High</text>

      <text x="660" y="630" class="text-muted">Manual pin placement - exact location</text>
    </g>

    <!-- IP Fallback indicator (bottom) -->
    <g id="ip-fallback">
      <rect x="640" y="660" width="280" height="70" rx="8" fill="#fef3c7" stroke="#eab308" stroke-width="1"/>
      <text x="660" y="688" class="text-md" fill="#92400e" font-weight="600">⚠️ No location set</text>
      <text x="660" y="710" class="text-sm" fill="#92400e">Using IP estimate: Springfield, IL</text>
      <text x="660" y="725" class="text-muted">Accuracy: ~City level (±25km)</text>
    </g>
  </g>

  <!-- MOBILE SECTION (Compact view showing key states) -->
  <text x="980" y="52" class="label-mobile">MOBILE - GPS ACTIVE</text>

  <g id="mobile-view" transform="translate(980, 60)">
    <!-- Phone frame -->
    <rect x="0" y="0" width="360" height="700" rx="24" fill="#c8b898" stroke="#a08860" stroke-width="2"/>
    <!-- Screen area -->
    <rect x="10" y="10" width="340" height="680" rx="16" fill="#e8d4b8"/>
    <!-- Status bar -->
    <rect x="10" y="10" width="340" height="28" rx="16" fill="#dcc8a8"/>
    <text x="30" y="28" class="text-sm">9:41</text>
    <text x="300" y="28" class="text-sm">📶 🔋</text>

    <!-- Header -->
    <rect x="10" y="38" width="340" height="44" fill="#dcc8a8"/>
    <text x="175" y="66" text-anchor="middle" class="heading">📍 Your Location</text>

    <!-- Map with GPS indicator -->
    <rect x="20" y="92" width="320" height="300" rx="8" fill="#c8d8c8"/>

    <!-- Map grid -->
    <line x1="20" y1="142" x2="340" y2="142" stroke="#a8b8a8" stroke-width="1"/>
    <line x1="20" y1="192" x2="340" y2="192" stroke="#a8b8a8" stroke-width="1"/>
    <line x1="20" y1="242" x2="340" y2="242" stroke="#a8b8a8" stroke-width="1"/>
    <line x1="20" y1="292" x2="340" y2="292" stroke="#a8b8a8" stroke-width="1"/>
    <line x1="20" y1="342" x2="340" y2="342" stroke="#a8b8a8" stroke-width="1"/>
    <line x1="100" y1="92" x2="100" y2="392" stroke="#a8b8a8" stroke-width="1"/>
    <line x1="180" y1="92" x2="180" y2="392" stroke="#a8b8a8" stroke-width="1"/>
    <line x1="260" y1="92" x2="260" y2="392" stroke="#a8b8a8" stroke-width="1"/>

    <!-- Accuracy radius circle -->
    <circle cx="180" cy="242" r="40" fill="#22c55e" fill-opacity="0.2" stroke="#22c55e" stroke-width="2"/>
    <circle cx="180" cy="242" r="20" fill="#22c55e" fill-opacity="0.3" stroke="#22c55e" stroke-width="2"/>

    <!-- GPS marker (pulsing dot) -->
    <circle cx="180" cy="242" r="8" fill="#3b82f6" stroke="#fff" stroke-width="3"/>
    <circle cx="180" cy="242" r="4" fill="#fff"/>

    <!-- Accuracy badge overlay -->
    <rect x="240" y="100" width="90" height="28" rx="14" fill="#22c55e"/>
    <text x="285" y="118" text-anchor="middle" fill="#fff" font-family="system-ui" font-size="11" font-weight="600">GPS ±8m</text>

    <!-- Location info card -->
    <rect x="20" y="405" width="320" height="120" rx="8" fill="#f5f0e6" stroke="#b8a080" stroke-width="1"/>
    <text x="40" y="432" class="heading">📍 Current Position</text>
    <text x="40" y="458" class="text-md">39.7817° N, 89.6501° W</text>

    <!-- Source indicator -->
    <rect x="40" y="475" width="50" height="20" rx="10" fill="#3b82f6"/>
    <text x="65" y="489" text-anchor="middle" fill="#fff" font-family="system-ui" font-size="10" font-weight="600">GPS</text>
    <text x="100" y="489" class="text-sm">High accuracy</text>

    <text x="40" y="515" class="text-muted">Last updated: just now</text>

    <!-- Action buttons -->
    <rect x="20" y="540" width="155" height="44" rx="8" fill="#8b5cf6"/>
    <text x="97" y="568" text-anchor="middle" fill="#fff" font-family="system-ui" font-size="13" font-weight="600">📍 Update</text>

    <rect x="185" y="540" width="155" height="44" rx="8" fill="#dcc8a8" stroke="#b8a080" stroke-width="1"/>
    <text x="262" y="568" text-anchor="middle" class="text-md">✏️ Set Manually</text>

    <!-- Accuracy legend -->
    <rect x="20" y="600" width="320" height="80" rx="8" fill="#dcc8a8"/>
    <text x="40" y="625" class="text-sm" fill="#5a6577">ACCURACY LEVELS</text>

    <circle cx="50" cy="650" r="6" fill="#22c55e"/>
    <text x="65" y="654" class="text-sm">High (&lt;10m)</text>

    <circle cx="145" cy="650" r="6" fill="#eab308"/>
    <text x="160" y="654" class="text-sm">Medium (10-100m)</text>

    <circle cx="275" cy="650" r="6" fill="#ef4444"/>
    <text x="290" y="654" class="text-sm">Low (&gt;100m)</text>
  </g>

  <!-- Annotations -->
  <g id="annotations">
    <!-- Desktop annotations -->
    <rect x="580" y="190" width="90" height="35" rx="4" fill="#e8d4b8" stroke="#8b5cf6" stroke-width="1"/>
    <text x="625" y="210" text-anchor="middle" class="annotation">500ms</text>
    <text x="625" y="222" text-anchor="middle" class="text-muted">autocomplete</text>
  </g>

  <!-- Leader lines -->
  <g id="leader-lines">
    <line x1="560" y1="200" x2="580" y2="207" stroke="#8b5cf6" stroke-width="1" stroke-dasharray="4,2"/>
  </g>
</svg>
