<svg xmlns="http://www.w3.org/2000/svg" viewBox="0 0 1400 800" width="1400" height="800">
  <!-- ============================================================
       GENERATED BY: /wireframe skill
       SOURCE: features/polish/028-enhanced-geolocation/spec.md
       DATE: 2026-01-01
       THEME: Light (UX/Frontend) - v3 True Parchment
       DO NOT MANUALLY EDIT - Regenerate with /wireframe command
       ============================================================ -->
  <defs>
    <linearGradient id="bgGrad" x1="0%" y1="0%" x2="100%" y2="100%">
      <stop offset="0%" style="stop-color:#c7ddf5"/>
      <stop offset="100%" style="stop-color:#b8d4f0"/>
    </linearGradient>
    <linearGradient id="accentGrad" x1="0%" y1="0%" x2="100%" y2="0%">
      <stop offset="0%" style="stop-color:#8b5cf6"/>
      <stop offset="100%" style="stop-color:#d946ef"/>
    </linearGradient>
    <style>
      .heading-lg { fill: #1a1a2e; font-family: system-ui, sans-serif; font-size: 24px; font-weight: 800; }
      .heading { fill: #1a1a2e; font-family: system-ui, sans-serif; font-size: 16px; font-weight: 700; }
      .text-md { fill: #2d3748; font-family: system-ui, sans-serif; font-size: 14px; font-weight: 500; }
      .text-sm { fill: #374151; font-family: system-ui, sans-serif; font-size: 12px; font-weight: 500; }
      .text-muted { fill: #4b5563; font-family: system-ui, sans-serif; font-size: 11px; font-weight: 500; }
      .annotation { fill: #6d28d9; font-family: monospace; font-size: 12px; font-weight: 600; }
      .label-desktop { fill: #8b5cf6; font-family: monospace; font-size: 13px; font-weight: bold; }
      .label-mobile { fill: #d946ef; font-family: monospace; font-size: 13px; font-weight: bold; }
    </style>
  </defs>

  <!-- Background -->
  <rect width="1400" height="800" fill="url(#bgGrad)"/>

  <!-- Dot grid pattern -->
  <g opacity="0.35">
    <pattern id="dots" width="30" height="30" patternUnits="userSpaceOnUse">
      <circle cx="15" cy="15" r="1" fill="#6b8cba"/>
    </pattern>
    <rect width="1400" height="800" fill="url(#dots)"/>
  </g>

  <!-- Accent line top -->
  <rect x="0" y="0" width="1400" height="3" fill="url(#accentGrad)"/>

  <!-- Title -->
  <text x="700" y="28" text-anchor="middle" font-family="system-ui, sans-serif" font-size="14" font-weight="600" fill="#4b5563" letter-spacing="1">ENHANCED GEOLOCATION - MOBILE STATES &amp; FLOWS</text>

  <!-- STATE 1: Permission Request -->
  <text x="60" y="52" class="label-mobile">STATE 1: PERMISSION REQUEST</text>

  <g id="mobile-permission" transform="translate(60, 60)">
    <!-- Phone frame -->
    <rect x="0" y="0" width="280" height="580" rx="20" fill="#c8b898" stroke="#a08860" stroke-width="2"/>
    <rect x="8" y="8" width="264" height="564" rx="14" fill="#e8d4b8"/>

    <!-- Status bar -->
    <rect x="8" y="8" width="264" height="24" rx="14" fill="#dcc8a8"/>
    <text x="24" y="24" class="text-sm">9:41</text>
    <text x="240" y="24" class="text-sm">📶 🔋</text>

    <!-- App header -->
    <rect x="8" y="32" width="264" height="36" fill="#dcc8a8"/>
    <text x="140" y="56" text-anchor="middle" class="heading">📍 Location</text>

    <!-- Map placeholder (dimmed) -->
    <rect x="16" y="76" width="248" height="200" rx="8" fill="#d0d0c0" opacity="0.5"/>
    <text x="140" y="180" text-anchor="middle" class="text-md" fill="#6a6a6a">Map loading...</text>

    <!-- Permission modal -->
    <rect x="20" y="290" width="240" height="240" rx="12" fill="#f5f0e6" stroke="#b8a080" stroke-width="2"/>

    <!-- Modal icon -->
    <circle cx="140" cy="330" r="24" fill="#e0d8f0"/>
    <text x="140" y="338" text-anchor="middle" font-size="24">📍</text>

    <text x="140" y="375" text-anchor="middle" class="heading">Allow Location?</text>

    <text x="140" y="400" text-anchor="middle" class="text-sm" fill="#374151">ScriptHammer needs your</text>
    <text x="140" y="418" text-anchor="middle" class="text-sm" fill="#374151">location to show nearby</text>
    <text x="140" y="436" text-anchor="middle" class="text-sm" fill="#374151">content and services.</text>

    <!-- Permission buttons -->
    <rect x="35" y="460" width="210" height="36" rx="8" fill="#8b5cf6"/>
    <text x="140" y="484" text-anchor="middle" fill="#fff" font-family="system-ui" font-size="13" font-weight="600">Allow While Using App</text>

    <rect x="35" y="502" width="210" height="36" rx="8" fill="#dcc8a8" stroke="#b8a080" stroke-width="1"/>
    <text x="140" y="526" text-anchor="middle" class="text-md">Don't Allow</text>

    <!-- Privacy note -->
    <text x="140" y="560" text-anchor="middle" class="text-muted">Location is never shared</text>
  </g>

  <!-- STATE 2: GPS Acquiring -->
  <text x="380" y="52" class="label-mobile">STATE 2: GPS ACQUIRING</text>

  <g id="mobile-acquiring" transform="translate(380, 60)">
    <rect x="0" y="0" width="280" height="580" rx="20" fill="#c8b898" stroke="#a08860" stroke-width="2"/>
    <rect x="8" y="8" width="264" height="564" rx="14" fill="#e8d4b8"/>

    <!-- Status bar -->
    <rect x="8" y="8" width="264" height="24" rx="14" fill="#dcc8a8"/>
    <text x="24" y="24" class="text-sm">9:41</text>
    <text x="230" y="24" class="text-sm">📍 📶 🔋</text>

    <!-- Header -->
    <rect x="8" y="32" width="264" height="36" fill="#dcc8a8"/>
    <text x="140" y="56" text-anchor="middle" class="heading">📍 Finding You...</text>

    <!-- Map with acquiring animation -->
    <rect x="16" y="76" width="248" height="280" rx="8" fill="#c8d8c8"/>

    <!-- Grid lines -->
    <line x1="16" y1="126" x2="264" y2="126" stroke="#a8b8a8" stroke-width="1"/>
    <line x1="16" y1="176" x2="264" y2="176" stroke="#a8b8a8" stroke-width="1"/>
    <line x1="16" y1="226" x2="264" y2="226" stroke="#a8b8a8" stroke-width="1"/>
    <line x1="16" y1="276" x2="264" y2="276" stroke="#a8b8a8" stroke-width="1"/>
    <line x1="16" y1="326" x2="264" y2="326" stroke="#a8b8a8" stroke-width="1"/>
    <line x1="82" y1="76" x2="82" y2="356" stroke="#a8b8a8" stroke-width="1"/>
    <line x1="148" y1="76" x2="148" y2="356" stroke="#a8b8a8" stroke-width="1"/>
    <line x1="214" y1="76" x2="214" y2="356" stroke="#a8b8a8" stroke-width="1"/>

    <!-- Large accuracy circle (acquiring) -->
    <circle cx="140" cy="216" r="80" fill="#eab308" fill-opacity="0.15" stroke="#eab308" stroke-width="2" stroke-dasharray="8,4"/>
    <circle cx="140" cy="216" r="50" fill="#eab308" fill-opacity="0.2" stroke="#eab308" stroke-width="2" stroke-dasharray="6,3"/>
    <circle cx="140" cy="216" r="25" fill="#eab308" fill-opacity="0.3" stroke="#eab308" stroke-width="2"/>

    <!-- Pulsing center dot -->
    <circle cx="140" cy="216" r="10" fill="#eab308" stroke="#fff" stroke-width="2"/>

    <!-- Acquiring badge -->
    <rect x="160" y="100" width="95" height="28" rx="14" fill="#eab308"/>
    <text x="207" y="118" text-anchor="middle" fill="#fff" font-family="system-ui" font-size="11" font-weight="600">±150m...</text>

    <!-- Status card -->
    <rect x="16" y="370" width="248" height="90" rx="8" fill="#fef3c7" stroke="#eab308" stroke-width="1"/>

    <text x="36" y="400" class="heading" fill="#92400e">🛰️ Acquiring GPS Signal</text>
    <text x="36" y="425" class="text-sm" fill="#92400e">Accuracy improving: ±150m → ±50m</text>
    <text x="36" y="448" class="text-muted">Move to open area for better signal</text>

    <!-- Progress bar -->
    <rect x="16" y="475" width="248" height="40" rx="8" fill="#dcc8a8"/>
    <text x="36" y="498" class="text-sm">Signal Strength:</text>
    <rect x="140" y="488" width="110" height="8" rx="4" fill="#d0d0d0"/>
    <rect x="140" y="488" width="55" height="8" rx="4" fill="#eab308"/>

    <!-- Fallback option -->
    <rect x="16" y="530" width="248" height="36" rx="8" fill="#dcc8a8" stroke="#b8a080" stroke-width="1"/>
    <text x="140" y="554" text-anchor="middle" class="text-md">Use Current (Low Accuracy)</text>
  </g>

  <!-- STATE 3: GPS Locked -->
  <text x="700" y="52" class="label-mobile">STATE 3: GPS LOCKED (HIGH ACCURACY)</text>

  <g id="mobile-locked" transform="translate(700, 60)">
    <rect x="0" y="0" width="280" height="580" rx="20" fill="#c8b898" stroke="#a08860" stroke-width="2"/>
    <rect x="8" y="8" width="264" height="564" rx="14" fill="#e8d4b8"/>

    <!-- Status bar -->
    <rect x="8" y="8" width="264" height="24" rx="14" fill="#dcc8a8"/>
    <text x="24" y="24" class="text-sm">9:41</text>
    <text x="230" y="24" class="text-sm">📍 📶 🔋</text>

    <!-- Header -->
    <rect x="8" y="32" width="264" height="36" fill="#22c55e"/>
    <text x="140" y="56" text-anchor="middle" class="heading" fill="#fff">✓ Location Found</text>

    <!-- Map with precise location -->
    <rect x="16" y="76" width="248" height="280" rx="8" fill="#c8d8c8"/>

    <!-- Grid lines -->
    <line x1="16" y1="126" x2="264" y2="126" stroke="#a8b8a8" stroke-width="1"/>
    <line x1="16" y1="176" x2="264" y2="176" stroke="#a8b8a8" stroke-width="1"/>
    <line x1="16" y1="226" x2="264" y2="226" stroke="#a8b8a8" stroke-width="1"/>
    <line x1="16" y1="276" x2="264" y2="276" stroke="#a8b8a8" stroke-width="1"/>
    <line x1="16" y1="326" x2="264" y2="326" stroke="#a8b8a8" stroke-width="1"/>
    <line x1="82" y1="76" x2="82" y2="356" stroke="#a8b8a8" stroke-width="1"/>
    <line x1="148" y1="76" x2="148" y2="356" stroke="#a8b8a8" stroke-width="1"/>
    <line x1="214" y1="76" x2="214" y2="356" stroke="#a8b8a8" stroke-width="1"/>

    <!-- Roads -->
    <rect x="16" y="206" width="248" height="20" fill="#e8e0d8"/>
    <rect x="138" y="76" width="20" height="280" fill="#e8e0d8"/>

    <!-- Tight accuracy circle (locked) -->
    <circle cx="148" cy="216" r="15" fill="#22c55e" fill-opacity="0.2" stroke="#22c55e" stroke-width="2"/>

    <!-- Precise GPS marker -->
    <circle cx="148" cy="216" r="8" fill="#3b82f6" stroke="#fff" stroke-width="3"/>
    <circle cx="148" cy="216" r="3" fill="#fff"/>

    <!-- Accuracy badge -->
    <rect x="170" y="100" width="80" height="28" rx="14" fill="#22c55e"/>
    <text x="210" y="118" text-anchor="middle" fill="#fff" font-family="system-ui" font-size="11" font-weight="600">GPS ±6m</text>

    <!-- Location info card -->
    <rect x="16" y="370" width="248" height="110" rx="8" fill="#f5f0e6" stroke="#b8a080" stroke-width="1"/>

    <text x="36" y="398" class="heading">📍 Your Location</text>
    <text x="36" y="422" class="text-md">39.7817° N, 89.6501° W</text>

    <!-- Source badges -->
    <rect x="36" y="438" width="40" height="18" rx="9" fill="#3b82f6"/>
    <text x="56" y="451" text-anchor="middle" fill="#fff" font-family="system-ui" font-size="9" font-weight="600">GPS</text>

    <rect x="82" y="438" width="60" height="18" rx="9" fill="#22c55e"/>
    <text x="112" y="451" text-anchor="middle" fill="#fff" font-family="system-ui" font-size="9" font-weight="600">±6 meters</text>

    <text x="36" y="472" class="text-muted">Updated: 2 seconds ago</text>

    <!-- Action buttons -->
    <rect x="16" y="495" width="118" height="36" rx="8" fill="#8b5cf6"/>
    <text x="75" y="518" text-anchor="middle" fill="#fff" font-family="system-ui" font-size="12" font-weight="600">📍 Refresh</text>

    <rect x="146" y="495" width="118" height="36" rx="8" fill="#dcc8a8" stroke="#b8a080" stroke-width="1"/>
    <text x="205" y="518" text-anchor="middle" class="text-md">✏️ Manual</text>

    <!-- Persistence toggle -->
    <rect x="16" y="545" width="248" height="24" rx="6" fill="#dcc8a8"/>
    <text x="36" y="562" class="text-sm">Remember this location</text>
    <rect x="220" y="550" width="36" height="14" rx="7" fill="#22c55e"/>
    <circle cx="248" cy="557" r="5" fill="#fff"/>
  </g>

  <!-- STATE 4: Error/Fallback -->
  <text x="1020" y="52" class="label-mobile">STATE 4: PERMISSION DENIED</text>

  <g id="mobile-denied" transform="translate(1020, 60)">
    <rect x="0" y="0" width="280" height="580" rx="20" fill="#c8b898" stroke="#a08860" stroke-width="2"/>
    <rect x="8" y="8" width="264" height="564" rx="14" fill="#e8d4b8"/>

    <!-- Status bar -->
    <rect x="8" y="8" width="264" height="24" rx="14" fill="#dcc8a8"/>
    <text x="24" y="24" class="text-sm">9:41</text>
    <text x="240" y="24" class="text-sm">📶 🔋</text>

    <!-- Header (warning) -->
    <rect x="8" y="32" width="264" height="36" fill="#fef3c7"/>
    <text x="140" y="56" text-anchor="middle" class="heading" fill="#92400e">⚠️ Limited Location</text>

    <!-- Map with IP location -->
    <rect x="16" y="76" width="248" height="240" rx="8" fill="#c8d8c8"/>

    <!-- Grid lines -->
    <line x1="16" y1="116" x2="264" y2="116" stroke="#a8b8a8" stroke-width="1"/>
    <line x1="16" y1="156" x2="264" y2="156" stroke="#a8b8a8" stroke-width="1"/>
    <line x1="16" y1="196" x2="264" y2="196" stroke="#a8b8a8" stroke-width="1"/>
    <line x1="16" y1="236" x2="264" y2="236" stroke="#a8b8a8" stroke-width="1"/>
    <line x1="16" y1="276" x2="264" y2="276" stroke="#a8b8a8" stroke-width="1"/>
    <line x1="78" y1="76" x2="78" y2="316" stroke="#a8b8a8" stroke-width="1"/>
    <line x1="140" y1="76" x2="140" y2="316" stroke="#a8b8a8" stroke-width="1"/>
    <line x1="202" y1="76" x2="202" y2="316" stroke="#a8b8a8" stroke-width="1"/>

    <!-- Very large accuracy circle (IP) -->
    <circle cx="140" cy="196" r="90" fill="#ef4444" fill-opacity="0.1" stroke="#ef4444" stroke-width="2" stroke-dasharray="10,5"/>

    <!-- Approximate marker -->
    <circle cx="140" cy="196" r="8" fill="#ef4444" stroke="#fff" stroke-width="2"/>
    <text x="140" y="200" text-anchor="middle" fill="#fff" font-family="system-ui" font-size="10" font-weight="bold">?</text>

    <!-- IP badge -->
    <rect x="170" y="90" width="80" height="28" rx="14" fill="#ef4444"/>
    <text x="210" y="108" text-anchor="middle" fill="#fff" font-family="system-ui" font-size="11" font-weight="600">IP ~25km</text>

    <!-- Warning card -->
    <rect x="16" y="330" width="248" height="100" rx="8" fill="#fef3c7" stroke="#eab308" stroke-width="1"/>

    <text x="36" y="358" class="heading" fill="#92400e">📍 Using IP Location</text>
    <text x="36" y="382" class="text-sm" fill="#92400e">Location permission was denied.</text>
    <text x="36" y="402" class="text-sm" fill="#92400e">Showing approximate city location.</text>
    <text x="36" y="422" class="text-muted">Accuracy: ~25 km (City level)</text>

    <!-- Alternative options -->
    <text x="140" y="455" text-anchor="middle" class="text-sm" fill="#374151">Improve your location:</text>

    <rect x="16" y="468" width="248" height="36" rx="8" fill="#8b5cf6"/>
    <text x="140" y="492" text-anchor="middle" fill="#fff" font-family="system-ui" font-size="12" font-weight="600">🔍 Search Address</text>

    <rect x="16" y="512" width="248" height="36" rx="8" fill="#dcc8a8" stroke="#b8a080" stroke-width="1"/>
    <text x="140" y="536" text-anchor="middle" class="text-md">📍 Set on Map</text>

    <!-- Settings link -->
    <text x="140" y="562" text-anchor="middle" class="annotation">⚙️ Change in Settings</text>
  </g>

  <!-- Flow arrows between states -->
  <g id="flow-arrows">
    <path d="M 350 350 L 370 350" stroke="#8b5cf6" stroke-width="2" fill="none" marker-end="url(#arrowhead)"/>
    <path d="M 670 350 L 690 350" stroke="#8b5cf6" stroke-width="2" fill="none" marker-end="url(#arrowhead)"/>
    <path d="M 350 500 Q 380 550 400 500" stroke="#ef4444" stroke-width="2" fill="none" stroke-dasharray="4,2"/>
    <text x="380" y="560" class="text-muted">Denied</text>

    <defs>
      <marker id="arrowhead" markerWidth="10" markerHeight="7" refX="9" refY="3.5" orient="auto">
        <polygon points="0 0, 10 3.5, 0 7" fill="#8b5cf6"/>
      </marker>
    </defs>
  </g>

  <!-- Bottom annotations -->
  <g id="annotations">
    <rect x="60" y="660" width="280" height="90" rx="8" fill="#e8d4b8" stroke="#8b5cf6" stroke-width="1"/>
    <text x="80" y="685" class="annotation">User Stories Covered:</text>
    <text x="80" y="705" class="text-sm">• US2: Mobile GPS Location (P1)</text>
    <text x="80" y="722" class="text-sm">• US4: Accuracy Indicator (P2)</text>
    <text x="80" y="739" class="text-sm">• Edge: Permission Denied</text>

    <rect x="380" y="660" width="280" height="90" rx="8" fill="#e8d4b8" stroke="#8b5cf6" stroke-width="1"/>
    <text x="400" y="685" class="annotation">NFR Compliance:</text>
    <text x="400" y="705" class="text-sm">• NFR-001: GPS in &lt;3 seconds</text>
    <text x="400" y="722" class="text-sm">• NFR-005: ±10m GPS accuracy</text>
    <text x="400" y="739" class="text-sm">• NFR-010: Keyboard accessible</text>

    <rect x="700" y="660" width="280" height="90" rx="8" fill="#e8d4b8" stroke="#8b5cf6" stroke-width="1"/>
    <text x="720" y="685" class="annotation">Accessibility:</text>
    <text x="720" y="705" class="text-sm">• Color + shape accuracy indicators</text>
    <text x="720" y="722" class="text-sm">• Text alternatives for all badges</text>
    <text x="720" y="739" class="text-sm">• 44px minimum touch targets</text>
  </g>
</svg>
