<svg xmlns="http://www.w3.org/2000/svg" viewBox="0 0 1400 800" width="1400" height="800">
  <!-- ============================================================
       GENERATED BY: /wireframe skill
       SOURCE: features/polish/028-enhanced-geolocation/spec.md
       DATE: 2025-12-31
       DO NOT MANUALLY EDIT - Regenerate with /wireframe command
       ============================================================ -->
  <defs>
    <linearGradient id="bgGrad" x1="0%" y1="0%" x2="100%" y2="100%">
      <stop offset="0%" style="stop-color:#0f172a"/>
      <stop offset="100%" style="stop-color:#1e293b"/>
    </linearGradient>
    <linearGradient id="accentGrad" x1="0%" y1="0%" x2="100%" y2="0%">
      <stop offset="0%" style="stop-color:#8b5cf6"/>
      <stop offset="100%" style="stop-color:#d946ef"/>
    </linearGradient>
    <style>
      .heading-lg { fill: #ffffff; font-family: system-ui, sans-serif; font-size: 20px; font-weight: bold; }
      .heading { fill: #ffffff; font-family: system-ui, sans-serif; font-size: 14px; font-weight: bold; }
      .text-md { fill: #cbd5e1; font-family: system-ui, sans-serif; font-size: 12px; }
      .text-sm { fill: #94a3b8; font-family: system-ui, sans-serif; font-size: 10px; }
      .text-muted { fill: #64748b; font-family: system-ui, sans-serif; font-size: 10px; }
      .annotation { fill: #8b5cf6; font-family: monospace; font-size: 10px; }
      .label-mobile { fill: #d946ef; font-family: monospace; font-size: 11px; font-weight: bold; }
    </style>
  </defs>

  <!-- Background -->
  <rect width="1400" height="800" fill="url(#bgGrad)"/>

  <!-- Dot grid pattern -->
  <g opacity="0.05">
    <pattern id="dots" width="30" height="30" patternUnits="userSpaceOnUse">
      <circle cx="15" cy="15" r="1" fill="#fff"/>
    </pattern>
    <rect width="1400" height="800" fill="url(#dots)"/>
  </g>

  <!-- Accent line top -->
  <rect x="0" y="0" width="1400" height="3" fill="url(#accentGrad)"/>

  <!-- Title -->
  <text x="700" y="28" text-anchor="middle" font-family="system-ui, sans-serif" font-size="14" font-weight="600" fill="#64748b" letter-spacing="1">ENHANCED GEOLOCATION - MOBILE GPS MODE</text>

  <!-- STATE 1: GPS Acquiring -->
  <text x="100" y="52" class="label-mobile">STATE 1: ACQUIRING GPS</text>

  <!-- Phone Frame 1 -->
  <rect x="40" y="60" width="360" height="700" rx="24" fill="#1e293b" stroke="#475569" stroke-width="2"/>
  <rect x="50" y="70" width="340" height="680" rx="16" fill="#0f172a"/>

  <!-- Status bar -->
  <rect x="50" y="70" width="340" height="28" rx="16" fill="#1e293b"/>
  <text x="70" y="88" class="text-sm">9:41</text>
  <!-- Location icon active -->
  <circle cx="340" cy="84" r="6" fill="#8b5cf6"/>
  <text x="360" y="88" class="text-sm">100%</text>

  <!-- Header -->
  <rect x="50" y="98" width="340" height="50" fill="#334155"/>
  <text x="220" y="130" text-anchor="middle" class="heading">Your Location</text>

  <!-- Map Area -->
  <rect x="60" y="158" width="320" height="360" rx="8" fill="#1e293b" stroke="#475569" stroke-width="1"/>

  <!-- Map grid -->
  <g opacity="0.1">
    <line x1="60" y1="238" x2="380" y2="238" stroke="#475569"/>
    <line x1="60" y1="318" x2="380" y2="318" stroke="#475569"/>
    <line x1="60" y1="398" x2="380" y2="398" stroke="#475569"/>
    <line x1="60" y1="478" x2="380" y2="478" stroke="#475569"/>
    <line x1="140" y1="158" x2="140" y2="518" stroke="#475569"/>
    <line x1="220" y1="158" x2="220" y2="518" stroke="#475569"/>
    <line x1="300" y1="158" x2="300" y2="518" stroke="#475569"/>
  </g>

  <!-- Large accuracy circle (still acquiring, low accuracy) -->
  <circle cx="220" cy="338" r="70" fill="#eab308" opacity="0.1" stroke="#eab308" stroke-width="2" stroke-dasharray="4,2">
    <animate attributeName="r" values="70;75;70" dur="2s" repeatCount="indefinite"/>
  </circle>

  <!-- Position dot (pulsing) -->
  <circle cx="220" cy="338" r="12" fill="#8b5cf6">
    <animate attributeName="opacity" values="1;0.5;1" dur="1.5s" repeatCount="indefinite"/>
  </circle>
  <circle cx="220" cy="338" r="5" fill="#fff"/>

  <!-- Acquiring spinner in center -->
  <g transform="translate(220, 338)">
    <path d="M 0 -25 A 25 25 0 0 1 25 0" fill="none" stroke="#8b5cf6" stroke-width="3" stroke-linecap="round">
      <animateTransform attributeName="transform" type="rotate" from="0" to="360" dur="1s" repeatCount="indefinite"/>
    </path>
  </g>

  <!-- Accuracy Panel (acquiring state) -->
  <rect x="60" y="528" width="320" height="70" rx="8" fill="#1e293b" stroke="#eab308" stroke-width="2"/>
  <rect x="75" y="543" width="100" height="24" rx="12" fill="#eab308"/>
  <text x="125" y="560" text-anchor="middle" fill="#000" font-family="system-ui" font-size="11" font-weight="bold">ACQUIRING</text>
  <text x="190" y="560" class="text-md">±75 meters</text>
  <!-- Animated spinner next to text -->
  <g transform="translate(340, 555)">
    <circle cx="0" cy="0" r="8" fill="none" stroke="#334155" stroke-width="2"/>
    <path d="M 0 -8 A 8 8 0 0 1 8 0" fill="none" stroke="#eab308" stroke-width="2" stroke-linecap="round">
      <animateTransform attributeName="transform" type="rotate" from="0" to="360" dur="1s" repeatCount="indefinite"/>
    </path>
  </g>
  <text x="75" y="583" class="text-sm">Source: GPS (improving...)</text>

  <!-- Info text -->
  <rect x="60" y="608" width="320" height="50" rx="8" fill="#334155"/>
  <text x="220" y="632" text-anchor="middle" class="text-md">Acquiring satellite signal...</text>
  <text x="220" y="648" text-anchor="middle" class="text-sm">Stay in open area for best accuracy</text>

  <!-- Nav Bar -->
  <rect x="50" y="700" width="340" height="50" rx="16" fill="#1e293b"/>
  <text x="110" y="730" text-anchor="middle" class="text-muted">Home</text>
  <text x="220" y="730" text-anchor="middle" fill="#8b5cf6" font-family="system-ui" font-size="10" font-weight="bold">Location</text>
  <text x="330" y="730" text-anchor="middle" class="text-muted">Settings</text>

  <!-- STATE 2: GPS Locked (High Accuracy) -->
  <text x="520" y="52" class="label-mobile">STATE 2: GPS LOCKED</text>

  <!-- Phone Frame 2 -->
  <rect x="460" y="60" width="360" height="700" rx="24" fill="#1e293b" stroke="#475569" stroke-width="2"/>
  <rect x="470" y="70" width="340" height="680" rx="16" fill="#0f172a"/>

  <!-- Status bar -->
  <rect x="470" y="70" width="340" height="28" rx="16" fill="#1e293b"/>
  <text x="490" y="88" class="text-sm">9:41</text>
  <circle cx="760" cy="84" r="6" fill="#22c55e"/>
  <text x="780" y="88" class="text-sm">100%</text>

  <!-- Header -->
  <rect x="470" y="98" width="340" height="50" fill="#334155"/>
  <text x="640" y="130" text-anchor="middle" class="heading">Your Location</text>

  <!-- Map Area -->
  <rect x="480" y="158" width="320" height="360" rx="8" fill="#1e293b" stroke="#475569" stroke-width="1"/>

  <!-- Map grid -->
  <g opacity="0.1">
    <line x1="480" y1="238" x2="800" y2="238" stroke="#475569"/>
    <line x1="480" y1="318" x2="800" y2="318" stroke="#475569"/>
    <line x1="480" y1="398" x2="800" y2="398" stroke="#475569"/>
    <line x1="480" y1="478" x2="800" y2="478" stroke="#475569"/>
    <line x1="560" y1="158" x2="560" y2="518" stroke="#475569"/>
    <line x1="640" y1="158" x2="640" y2="518" stroke="#475569"/>
    <line x1="720" y1="158" x2="720" y2="518" stroke="#475569"/>
  </g>

  <!-- Streets -->
  <line x1="500" y1="338" x2="780" y2="338" stroke="#475569" stroke-width="3"/>
  <line x1="640" y1="180" x2="640" y2="500" stroke="#475569" stroke-width="3"/>

  <!-- Small accuracy circle (high accuracy) -->
  <circle cx="640" cy="338" r="15" fill="#22c55e" opacity="0.2" stroke="#22c55e" stroke-width="2"/>

  <!-- Position dot (solid, not pulsing) -->
  <circle cx="640" cy="338" r="10" fill="#22c55e"/>
  <circle cx="640" cy="338" r="4" fill="#fff"/>

  <!-- Direction indicator (heading) -->
  <polygon points="640,320 635,332 645,332" fill="#22c55e"/>

  <!-- Accuracy Panel (locked state) -->
  <rect x="480" y="528" width="320" height="70" rx="8" fill="#1e293b" stroke="#22c55e" stroke-width="2"/>
  <rect x="495" y="543" width="70" height="24" rx="12" fill="#22c55e"/>
  <text x="530" y="560" text-anchor="middle" fill="#fff" font-family="system-ui" font-size="11" font-weight="bold">HIGH</text>
  <text x="580" y="560" class="text-md">±8 meters</text>
  <!-- Checkmark icon -->
  <circle cx="760" cy="555" r="12" fill="#22c55e"/>
  <polyline points="753,555 758,560 768,550" fill="none" stroke="#fff" stroke-width="2" stroke-linecap="round" stroke-linejoin="round"/>
  <text x="495" y="583" class="text-sm">Source: GPS (Satellite lock)</text>

  <!-- Address display -->
  <rect x="480" y="608" width="320" height="80" rx="8" fill="#334155"/>
  <text x="500" y="635" class="heading">Market Street</text>
  <text x="500" y="655" class="text-md">San Francisco, CA 94102</text>
  <text x="500" y="675" class="text-sm">37.7749° N, 122.4194° W</text>

  <!-- Nav Bar -->
  <rect x="470" y="700" width="340" height="50" rx="16" fill="#1e293b"/>
  <text x="530" y="730" text-anchor="middle" class="text-muted">Home</text>
  <text x="640" y="730" text-anchor="middle" fill="#8b5cf6" font-family="system-ui" font-size="10" font-weight="bold">Location</text>
  <text x="750" y="730" text-anchor="middle" class="text-muted">Settings</text>

  <!-- STATE 3: Accuracy Comparison Panel -->
  <text x="950" y="52" class="label-mobile">ACCURACY INDICATORS</text>

  <!-- Accuracy comparison panel -->
  <rect x="880" y="60" width="480" height="700" rx="8" fill="#1e293b" stroke="#475569" stroke-width="1"/>

  <!-- Header -->
  <rect x="880" y="60" width="480" height="50" rx="8" fill="#334155"/>
  <rect x="880" y="100" width="480" height="10" fill="#334155"/>
  <text x="1120" y="92" text-anchor="middle" class="heading-lg">Accuracy Levels (FR-015)</text>

  <!-- HIGH Accuracy -->
  <rect x="900" y="130" width="440" height="100" rx="8" fill="#0f172a" stroke="#22c55e" stroke-width="2"/>
  <rect x="920" y="150" width="70" height="28" rx="14" fill="#22c55e"/>
  <text x="955" y="169" text-anchor="middle" fill="#fff" font-family="system-ui" font-size="12" font-weight="bold">HIGH</text>
  <text x="1010" y="169" class="heading">GPS with Satellite Lock</text>
  <text x="920" y="195" class="text-md">Accuracy: ±10 meters or less</text>
  <text x="920" y="215" class="text-sm">Best for: Precise positioning, navigation, check-ins</text>
  <!-- Accuracy circle visual -->
  <circle cx="1280" cy="180" r="15" fill="#22c55e" opacity="0.2" stroke="#22c55e" stroke-width="2"/>
  <circle cx="1280" cy="180" r="5" fill="#22c55e"/>

  <!-- MEDIUM Accuracy -->
  <rect x="900" y="245" width="440" height="100" rx="8" fill="#0f172a" stroke="#eab308" stroke-width="2"/>
  <rect x="920" y="265" width="90" height="28" rx="14" fill="#eab308"/>
  <text x="965" y="284" text-anchor="middle" fill="#000" font-family="system-ui" font-size="12" font-weight="bold">MEDIUM</text>
  <text x="1030" y="284" class="heading">WiFi or Cell Tower</text>
  <text x="920" y="310" class="text-md">Accuracy: ±50-200 meters</text>
  <text x="920" y="330" class="text-sm">Acceptable for: Neighborhood-level location, nearby search</text>
  <!-- Accuracy circle visual -->
  <circle cx="1280" cy="295" r="35" fill="#eab308" opacity="0.15" stroke="#eab308" stroke-width="2" stroke-dasharray="4,2"/>
  <circle cx="1280" cy="295" r="5" fill="#eab308"/>

  <!-- LOW Accuracy -->
  <rect x="900" y="360" width="440" height="100" rx="8" fill="#0f172a" stroke="#ef4444" stroke-width="2"/>
  <rect x="920" y="380" width="60" height="28" rx="14" fill="#ef4444"/>
  <text x="950" y="399" text-anchor="middle" fill="#fff" font-family="system-ui" font-size="12" font-weight="bold">LOW</text>
  <text x="1000" y="399" class="heading">IP Address Lookup</text>
  <text x="920" y="425" class="text-md">Accuracy: ±5-50 kilometers</text>
  <text x="920" y="445" class="text-sm">Fallback for: City-level estimation only</text>
  <!-- Accuracy circle visual -->
  <circle cx="1280" cy="410" r="50" fill="#ef4444" opacity="0.1" stroke="#ef4444" stroke-width="2" stroke-dasharray="6,3"/>
  <circle cx="1280" cy="410" r="5" fill="#ef4444"/>

  <!-- Source Labels (FR-014) -->
  <text x="1120" y="495" text-anchor="middle" class="text-muted">LOCATION SOURCE LABELS (FR-014)</text>

  <rect x="900" y="510" width="100" height="36" rx="6" fill="#22c55e"/>
  <text x="950" y="533" text-anchor="middle" fill="#fff" font-family="system-ui" font-size="11" font-weight="bold">GPS</text>

  <rect x="1015" y="510" width="100" height="36" rx="6" fill="#3b82f6"/>
  <text x="1065" y="533" text-anchor="middle" fill="#fff" font-family="system-ui" font-size="11" font-weight="bold">WiFi</text>

  <rect x="1130" y="510" width="100" height="36" rx="6" fill="#eab308"/>
  <text x="1180" y="533" text-anchor="middle" fill="#000" font-family="system-ui" font-size="11" font-weight="bold">IP</text>

  <rect x="1245" y="510" width="100" height="36" rx="6" fill="#8b5cf6"/>
  <text x="1295" y="533" text-anchor="middle" fill="#fff" font-family="system-ui" font-size="11" font-weight="bold">Manual</text>

  <!-- NFR-011 Accessibility note -->
  <rect x="900" y="565" width="440" height="70" rx="8" fill="#334155"/>
  <text x="920" y="590" class="heading">Accessibility (NFR-011, NFR-012)</text>
  <text x="920" y="610" class="text-md">Color indicators include text labels + patterns</text>
  <text x="920" y="625" class="text-sm">Screen reader: "High accuracy, 8 meters, GPS satellite lock"</text>

  <!-- Performance Requirements -->
  <rect x="900" y="650" width="440" height="90" rx="8" fill="#0f172a" stroke="#475569" stroke-width="1"/>
  <text x="920" y="680" class="heading">Performance (NFR-001)</text>
  <text x="920" y="702" class="text-md">GPS lock within 3 seconds on mobile</text>
  <text x="920" y="722" class="text-md">Position updates when accuracy improves &gt;50m</text>
</svg>
