<svg xmlns="http://www.w3.org/2000/svg" viewBox="0 0 1400 800" width="1400" height="800">
  <!-- ============================================================
       GENERATED BY: /wireframe skill
       SOURCE: features/polish/028-enhanced-geolocation/spec.md
       DATE: 2025-12-31
       DO NOT MANUALLY EDIT - Regenerate with /wireframe command
       ============================================================ -->
  <defs>
    <linearGradient id="bgGrad" x1="0%" y1="0%" x2="100%" y2="100%">
      <stop offset="0%" style="stop-color:#0f172a"/>
      <stop offset="100%" style="stop-color:#1e293b"/>
    </linearGradient>
    <linearGradient id="accentGrad" x1="0%" y1="0%" x2="100%" y2="0%">
      <stop offset="0%" style="stop-color:#8b5cf6"/>
      <stop offset="100%" style="stop-color:#d946ef"/>
    </linearGradient>
    <style>
      .heading-lg { fill: #ffffff; font-family: system-ui, sans-serif; font-size: 20px; font-weight: bold; }
      .heading { fill: #ffffff; font-family: system-ui, sans-serif; font-size: 14px; font-weight: bold; }
      .text-md { fill: #cbd5e1; font-family: system-ui, sans-serif; font-size: 12px; }
      .text-sm { fill: #94a3b8; font-family: system-ui, sans-serif; font-size: 10px; }
      .text-muted { fill: #64748b; font-family: system-ui, sans-serif; font-size: 10px; }
      .annotation { fill: #8b5cf6; font-family: monospace; font-size: 10px; }
      .label-state { fill: #d946ef; font-family: monospace; font-size: 11px; font-weight: bold; }
    </style>
  </defs>

  <!-- Background -->
  <rect width="1400" height="800" fill="url(#bgGrad)"/>

  <!-- Dot grid pattern -->
  <g opacity="0.05">
    <pattern id="dots" width="30" height="30" patternUnits="userSpaceOnUse">
      <circle cx="15" cy="15" r="1" fill="#fff"/>
    </pattern>
    <rect width="1400" height="800" fill="url(#dots)"/>
  </g>

  <!-- Accent line top -->
  <rect x="0" y="0" width="1400" height="3" fill="url(#accentGrad)"/>

  <!-- Title -->
  <text x="700" y="28" text-anchor="middle" font-family="system-ui, sans-serif" font-size="14" font-weight="600" fill="#64748b" letter-spacing="1">ENHANCED GEOLOCATION - EDGE CASES &amp; ERROR STATES</text>

  <!-- ROW 1: Permission States -->

  <!-- STATE 1: Permission Request -->
  <text x="60" y="55" class="label-state">PERMISSION REQUEST (FR-021)</text>

  <!-- Small phone frame -->
  <rect x="40" y="65" width="200" height="360" rx="16" fill="#1e293b" stroke="#475569" stroke-width="2"/>
  <rect x="48" y="73" width="184" height="344" rx="12" fill="#0f172a"/>

  <!-- Status bar mini -->
  <rect x="48" y="73" width="184" height="20" rx="12" fill="#1e293b"/>
  <text x="60" y="87" class="text-muted" font-size="8">9:41</text>

  <!-- Permission dialog -->
  <rect x="58" y="130" width="164" height="180" rx="8" fill="#334155" stroke="#8b5cf6" stroke-width="2"/>

  <!-- Location icon -->
  <circle cx="140" cy="160" r="20" fill="#8b5cf6" opacity="0.2"/>
  <circle cx="140" cy="160" r="8" fill="#8b5cf6"/>
  <circle cx="140" cy="160" r="3" fill="#fff"/>

  <text x="140" y="195" text-anchor="middle" fill="#fff" font-family="system-ui" font-size="10" font-weight="bold">Allow Location?</text>
  <text x="140" y="212" text-anchor="middle" class="text-sm" font-size="8">This helps show nearby</text>
  <text x="140" y="225" text-anchor="middle" class="text-sm" font-size="8">places and improve accuracy</text>

  <!-- Buttons -->
  <rect x="68" y="245" width="74" height="28" rx="6" fill="#8b5cf6"/>
  <text x="105" y="263" text-anchor="middle" fill="#fff" font-size="9" font-weight="bold">Allow</text>

  <rect x="148" y="245" width="64" height="28" rx="6" fill="#475569"/>
  <text x="180" y="263" text-anchor="middle" fill="#fff" font-size="9">Deny</text>

  <text x="140" y="295" text-anchor="middle" class="text-muted" font-size="8">You can change this</text>
  <text x="140" y="307" text-anchor="middle" class="text-muted" font-size="8">anytime in Settings</text>

  <!-- STATE 2: Permission Denied -->
  <text x="280" y="55" class="label-state">PERMISSION DENIED</text>

  <rect x="260" y="65" width="200" height="360" rx="16" fill="#1e293b" stroke="#475569" stroke-width="2"/>
  <rect x="268" y="73" width="184" height="344" rx="12" fill="#0f172a"/>

  <rect x="268" y="73" width="184" height="20" rx="12" fill="#1e293b"/>
  <text x="280" y="87" class="text-muted" font-size="8">9:41</text>

  <!-- Error banner -->
  <rect x="278" y="103" width="164" height="40" rx="6" fill="#7f1d1d" stroke="#ef4444" stroke-width="1"/>
  <text x="360" y="120" text-anchor="middle" fill="#fca5a5" font-size="9" font-weight="bold">Location Denied</text>
  <text x="360" y="135" text-anchor="middle" fill="#fecaca" font-size="8">Using IP fallback</text>

  <!-- Map with very low accuracy circle -->
  <rect x="278" y="153" width="164" height="140" rx="6" fill="#1e293b" stroke="#475569" stroke-width="1"/>
  <circle cx="360" cy="223" r="50" fill="#ef4444" opacity="0.1" stroke="#ef4444" stroke-width="1" stroke-dasharray="4,2"/>
  <circle cx="360" cy="223" r="5" fill="#ef4444"/>

  <!-- Accuracy badge (low) -->
  <rect x="278" y="303" width="164" height="40" rx="6" fill="#1e293b" stroke="#ef4444" stroke-width="1"/>
  <rect x="288" y="313" width="50" height="18" rx="9" fill="#ef4444"/>
  <text x="313" y="326" text-anchor="middle" fill="#fff" font-size="8" font-weight="bold">LOW</text>
  <text x="350" y="326" class="text-sm" font-size="9">±10 km</text>

  <!-- CTA to enable -->
  <rect x="278" y="353" width="164" height="48" rx="6" fill="#334155"/>
  <text x="360" y="373" text-anchor="middle" fill="#fff" font-size="9" font-weight="bold">Enable Location</text>
  <text x="360" y="388" text-anchor="middle" class="text-muted" font-size="8">for better accuracy</text>

  <!-- STATE 3: GPS Unavailable -->
  <text x="500" y="55" class="label-state">GPS UNAVAILABLE</text>

  <rect x="480" y="65" width="200" height="360" rx="16" fill="#1e293b" stroke="#475569" stroke-width="2"/>
  <rect x="488" y="73" width="184" height="344" rx="12" fill="#0f172a"/>

  <rect x="488" y="73" width="184" height="20" rx="12" fill="#1e293b"/>
  <text x="500" y="87" class="text-muted" font-size="8">9:41</text>

  <!-- Warning banner -->
  <rect x="498" y="103" width="164" height="40" rx="6" fill="#78350f" stroke="#eab308" stroke-width="1"/>
  <text x="580" y="120" text-anchor="middle" fill="#fbbf24" font-size="9" font-weight="bold">No GPS Signal</text>
  <text x="580" y="135" text-anchor="middle" fill="#fcd34d" font-size="8">Using WiFi location</text>

  <!-- Map with medium accuracy -->
  <rect x="498" y="153" width="164" height="140" rx="6" fill="#1e293b" stroke="#475569" stroke-width="1"/>
  <circle cx="580" cy="223" r="30" fill="#eab308" opacity="0.15" stroke="#eab308" stroke-width="1" stroke-dasharray="4,2"/>
  <circle cx="580" cy="223" r="6" fill="#eab308"/>

  <!-- Accuracy badge (medium) -->
  <rect x="498" y="303" width="164" height="40" rx="6" fill="#1e293b" stroke="#eab308" stroke-width="1"/>
  <rect x="508" y="313" width="70" height="18" rx="9" fill="#eab308"/>
  <text x="543" y="326" text-anchor="middle" fill="#000" font-size="8" font-weight="bold">MEDIUM</text>
  <text x="598" y="326" class="text-sm" font-size="9">±100m</text>

  <!-- Tips -->
  <rect x="498" y="353" width="164" height="48" rx="6" fill="#334155"/>
  <text x="580" y="370" text-anchor="middle" class="text-sm" font-size="8">Move to an open area</text>
  <text x="580" y="385" text-anchor="middle" class="text-sm" font-size="8">for GPS signal</text>

  <!-- STATE 4: Offline Mode -->
  <text x="720" y="55" class="label-state">OFFLINE MODE (NFR-009)</text>

  <rect x="700" y="65" width="200" height="360" rx="16" fill="#1e293b" stroke="#475569" stroke-width="2"/>
  <rect x="708" y="73" width="184" height="344" rx="12" fill="#0f172a"/>

  <rect x="708" y="73" width="184" height="20" rx="12" fill="#1e293b"/>
  <text x="720" y="87" class="text-muted" font-size="8">9:41</text>
  <text x="870" y="87" class="text-muted" font-size="8">No Signal</text>

  <!-- Offline banner -->
  <rect x="718" y="103" width="164" height="40" rx="6" fill="#1e293b" stroke="#475569" stroke-width="1"/>
  <text x="800" y="120" text-anchor="middle" fill="#94a3b8" font-size="9" font-weight="bold">Offline Mode</text>
  <text x="800" y="135" text-anchor="middle" class="text-muted" font-size="8">Using cached tiles</text>

  <!-- Cached map (grayed) -->
  <rect x="718" y="153" width="164" height="140" rx="6" fill="#1e293b" stroke="#475569" stroke-width="1"/>
  <g opacity="0.5">
    <line x1="718" y1="193" x2="882" y2="193" stroke="#475569"/>
    <line x1="718" y1="233" x2="882" y2="233" stroke="#475569"/>
    <line x1="758" y1="153" x2="758" y2="293" stroke="#475569"/>
    <line x1="838" y1="153" x2="838" y2="293" stroke="#475569"/>
  </g>

  <!-- Last known position -->
  <circle cx="800" cy="223" r="8" fill="#475569"/>
  <circle cx="800" cy="223" r="3" fill="#94a3b8"/>

  <!-- Info panel -->
  <rect x="718" y="303" width="164" height="40" rx="6" fill="#1e293b" stroke="#475569" stroke-width="1"/>
  <text x="800" y="322" text-anchor="middle" class="text-sm" font-size="9">Last known: 5 min ago</text>
  <text x="800" y="338" text-anchor="middle" class="text-muted" font-size="8">Waiting for connection...</text>

  <!-- Manual entry still works -->
  <rect x="718" y="353" width="164" height="48" rx="6" fill="#8b5cf6"/>
  <text x="800" y="373" text-anchor="middle" fill="#fff" font-size="9" font-weight="bold">Enter Coordinates</text>
  <text x="800" y="388" text-anchor="middle" fill="#cbd5e1" font-size="8">Works offline</text>

  <!-- ROW 2: Desktop States -->

  <!-- STATE 5: No Autocomplete Results -->
  <text x="60" y="450" class="label-state">NO AUTOCOMPLETE RESULTS</text>

  <rect x="40" y="460" width="300" height="300" rx="8" fill="#1e293b" stroke="#475569" stroke-width="1"/>

  <!-- Search box -->
  <rect x="55" y="475" width="270" height="36" rx="6" fill="#0f172a" stroke="#8b5cf6" stroke-width="2"/>
  <text x="70" y="498" class="text-md">xyz123 unknown place...</text>

  <!-- No results dropdown -->
  <rect x="55" y="515" width="270" height="80" rx="6" fill="#334155" stroke="#475569" stroke-width="1"/>
  <text x="190" y="545" text-anchor="middle" fill="#94a3b8" font-size="11">No addresses found</text>
  <text x="190" y="565" text-anchor="middle" class="text-muted" font-size="10">Try a different search or</text>
  <text x="190" y="580" text-anchor="middle" fill="#8b5cf6" font-size="10" text-decoration="underline">click on the map instead</text>

  <!-- Map hint -->
  <rect x="55" y="610" width="270" height="140" rx="6" fill="#0f172a" stroke="#475569" stroke-width="1"/>
  <text x="190" y="670" text-anchor="middle" class="text-muted" font-size="10">Click anywhere on map</text>
  <text x="190" y="687" text-anchor="middle" class="text-muted" font-size="10">to set location manually</text>
  <!-- Click cursor icon -->
  <circle cx="190" cy="720" r="15" fill="#8b5cf6" opacity="0.3"/>
  <circle cx="190" cy="720" r="6" fill="#8b5cf6"/>

  <!-- STATE 6: Rate Limiting -->
  <text x="380" y="450" class="label-state">RATE LIMITING (FR-018)</text>

  <rect x="360" y="460" width="300" height="300" rx="8" fill="#1e293b" stroke="#475569" stroke-width="1"/>

  <!-- Search box with warning -->
  <rect x="375" y="475" width="270" height="36" rx="6" fill="#0f172a" stroke="#eab308" stroke-width="2"/>
  <text x="390" y="498" class="text-md">456 Oak Street, Los...</text>

  <!-- Rate limit message -->
  <rect x="375" y="515" width="270" height="60" rx="6" fill="#78350f" stroke="#eab308" stroke-width="1"/>
  <text x="510" y="540" text-anchor="middle" fill="#fbbf24" font-size="11" font-weight="bold">Too many requests</text>
  <text x="510" y="558" text-anchor="middle" fill="#fcd34d" font-size="10">Retrying in 3 seconds...</text>

  <!-- Loading indicator -->
  <g transform="translate(510, 605)">
    <circle cx="0" cy="0" r="20" fill="none" stroke="#334155" stroke-width="3"/>
    <path d="M 0 -20 A 20 20 0 0 1 20 0" fill="none" stroke="#eab308" stroke-width="3" stroke-linecap="round">
      <animateTransform attributeName="transform" type="rotate" from="0" to="360" dur="1s" repeatCount="indefinite"/>
    </path>
  </g>

  <!-- Queue info -->
  <rect x="375" y="650" width="270" height="50" rx="6" fill="#334155"/>
  <text x="510" y="672" text-anchor="middle" class="text-sm">Request queued</text>
  <text x="510" y="690" text-anchor="middle" class="text-muted" font-size="10">Using cached results when available</text>

  <!-- STATE 7: Very Low Accuracy Warning -->
  <text x="700" y="450" class="label-state">VERY LOW ACCURACY</text>

  <rect x="680" y="460" width="300" height="300" rx="8" fill="#1e293b" stroke="#475569" stroke-width="1"/>

  <!-- Header -->
  <rect x="680" y="460" width="300" height="40" rx="8" fill="#7f1d1d"/>
  <rect x="680" y="490" width="300" height="10" fill="#7f1d1d"/>
  <text x="830" y="487" text-anchor="middle" fill="#fca5a5" font-size="12" font-weight="bold">Location Very Inaccurate</text>

  <!-- Map with huge accuracy circle -->
  <rect x="695" y="510" width="270" height="140" rx="6" fill="#0f172a" stroke="#ef4444" stroke-width="1"/>
  <circle cx="830" cy="580" r="60" fill="#ef4444" opacity="0.1" stroke="#ef4444" stroke-width="2" stroke-dasharray="6,3"/>
  <circle cx="830" cy="580" r="5" fill="#ef4444"/>

  <!-- Warning panel -->
  <rect x="695" y="660" width="270" height="90" rx="6" fill="#334155"/>
  <rect x="710" y="675" width="80" height="22" rx="11" fill="#ef4444"/>
  <text x="750" y="690" text-anchor="middle" fill="#fff" font-size="10" font-weight="bold">CITY LEVEL</text>
  <text x="805" y="690" class="text-md">±25 km</text>

  <text x="830" y="715" text-anchor="middle" fill="#fca5a5" font-size="10" font-weight="bold">Please refine your location</text>

  <!-- Action buttons -->
  <rect x="710" y="725" width="110" height="28" rx="6" fill="#8b5cf6"/>
  <text x="765" y="744" text-anchor="middle" fill="#fff" font-size="10" font-weight="bold">Search</text>

  <rect x="830" y="725" width="110" height="28" rx="6" fill="#475569"/>
  <text x="885" y="744" text-anchor="middle" fill="#fff" font-size="10">Use Map</text>

  <!-- STATE 8: Coordinate Input Mode -->
  <text x="1020" y="450" class="label-state">COORDINATE INPUT (FR-006)</text>

  <rect x="1000" y="460" width="360" height="300" rx="8" fill="#1e293b" stroke="#475569" stroke-width="1"/>

  <!-- Header -->
  <rect x="1000" y="460" width="360" height="40" rx="8" fill="#334155"/>
  <rect x="1000" y="490" width="360" height="10" fill="#334155"/>
  <text x="1180" y="487" text-anchor="middle" class="heading">Enter Coordinates</text>

  <!-- Latitude input -->
  <text x="1020" y="525" class="text-muted">LATITUDE</text>
  <rect x="1015" y="535" width="160" height="36" rx="6" fill="#0f172a" stroke="#8b5cf6" stroke-width="2"/>
  <text x="1030" y="558" class="text-md">37.7749</text>
  <text x="1155" y="558" class="text-sm">°N</text>

  <!-- Longitude input -->
  <text x="1200" y="525" class="text-muted">LONGITUDE</text>
  <rect x="1195" y="535" width="160" height="36" rx="6" fill="#0f172a" stroke="#475569" stroke-width="1"/>
  <text x="1210" y="558" class="text-md">-122.4194</text>
  <text x="1335" y="558" class="text-sm">°W</text>

  <!-- Format help -->
  <text x="1020" y="600" class="text-muted" font-size="10">Accepted formats:</text>
  <text x="1020" y="618" class="text-sm">• Decimal: 37.7749, -122.4194</text>
  <text x="1020" y="635" class="text-sm">• DMS: 37°46'29.6"N 122°25'9.8"W</text>

  <!-- Validation status -->
  <rect x="1015" y="655" width="340" height="40" rx="6" fill="#022c22" stroke="#22c55e" stroke-width="1"/>
  <circle cx="1040" cy="675" r="10" fill="#22c55e"/>
  <polyline points="1034,675 1038,679 1046,671" fill="none" stroke="#fff" stroke-width="2" stroke-linecap="round" stroke-linejoin="round"/>
  <text x="1060" y="680" fill="#22c55e" font-family="system-ui" font-size="11" font-weight="bold">Valid coordinates</text>

  <!-- Apply button -->
  <rect x="1015" y="710" width="340" height="40" rx="8" fill="#8b5cf6"/>
  <text x="1185" y="736" text-anchor="middle" fill="#fff" font-family="system-ui" font-size="12" font-weight="bold">Apply Location</text>
</svg>
