<svg xmlns="http://www.w3.org/2000/svg" viewBox="0 0 1400 800" width="1400" height="800">
  <!-- ============================================================
       GENERATED BY: /wireframe skill
       SOURCE: features/testing/037-game-a11y-tests/spec.md
       DATE: 2026-01-01
       THEME: Dark (Backend/Architecture)
       DO NOT MANUALLY EDIT - Regenerate with /wireframe command
       ============================================================ -->
  <defs>
    <linearGradient id="bgGrad" x1="0%" y1="0%" x2="100%" y2="100%">
      <stop offset="0%" style="stop-color:#0f172a"/>
      <stop offset="100%" style="stop-color:#1e293b"/>
    </linearGradient>
    <linearGradient id="accentGrad" x1="0%" y1="0%" x2="100%" y2="0%">
      <stop offset="0%" style="stop-color:#8b5cf6"/>
      <stop offset="100%" style="stop-color:#d946ef"/>
    </linearGradient>
    <marker id="arrowhead" markerWidth="10" markerHeight="7" refX="9" refY="3.5" orient="auto">
      <polygon points="0 0, 10 3.5, 0 7" fill="#8b5cf6"/>
    </marker>
    <style>
      .heading-lg { fill: #ffffff; font-family: system-ui, sans-serif; font-size: 18px; font-weight: bold; }
      .heading { fill: #ffffff; font-family: system-ui, sans-serif; font-size: 14px; font-weight: bold; }
      .heading-sm { fill: #ffffff; font-family: system-ui, sans-serif; font-size: 12px; font-weight: bold; }
      .text-md { fill: #cbd5e1; font-family: system-ui, sans-serif; font-size: 11px; }
      .text-sm { fill: #94a3b8; font-family: system-ui, sans-serif; font-size: 10px; }
      .text-muted { fill: #8494a8; font-family: system-ui, sans-serif; font-size: 10px; }
      .code { fill: #8b5cf6; font-family: monospace; font-size: 10px; }
      .code-sm { fill: #d946ef; font-family: monospace; font-size: 9px; }
      .success { fill: #22c55e; font-family: system-ui, sans-serif; font-size: 10px; font-weight: bold; }
      .warning { fill: #eab308; font-family: system-ui, sans-serif; font-size: 10px; font-weight: bold; }
      .priority-p1 { fill: #ef4444; font-family: monospace; font-size: 9px; font-weight: bold; }
      .priority-p2 { fill: #eab308; font-family: monospace; font-size: 9px; font-weight: bold; }
      .priority-p3 { fill: #22c55e; font-family: monospace; font-size: 9px; font-weight: bold; }
    </style>
  </defs>

  <!-- Background -->
  <rect width="1400" height="800" fill="url(#bgGrad)"/>

  <!-- Dot grid pattern -->
  <g opacity="0.05">
    <pattern id="dots" width="30" height="30" patternUnits="userSpaceOnUse">
      <circle cx="15" cy="15" r="1" fill="#fff"/>
    </pattern>
    <rect width="1400" height="800" fill="url(#dots)"/>
  </g>

  <!-- Accent line top -->
  <rect x="0" y="0" width="1400" height="3" fill="url(#accentGrad)"/>

  <!-- Title -->
  <text x="700" y="28" text-anchor="middle" font-family="system-ui, sans-serif" font-size="14" font-weight="600" fill="#8494a8" letter-spacing="1">037 - GAME COMPONENT A11Y TEST ARCHITECTURE</text>

  <g id="diagram-content">

    <!-- Left Column: Test Files -->
    <g transform="translate(40, 50)">
      <text x="130" y="18" text-anchor="middle" class="heading-lg">Test Files</text>

      <!-- keyboard-navigation.test.tsx -->
      <g transform="translate(0, 35)">
        <rect x="0" y="0" width="260" height="120" rx="8" fill="#1e293b" stroke="#ef4444" stroke-width="2"/>
        <rect x="0" y="0" width="260" height="26" rx="8" fill="#334155"/>
        <rect x="0" y="18" width="260" height="8" fill="#334155"/>
        <text x="12" y="17" class="code">keyboard-navigation.test.tsx</text>
        <text x="232" y="17" class="priority-p1">P1</text>

        <text x="12" y="45" class="text-md">FR-001: Tab navigation</text>
        <text x="12" y="60" class="text-md">FR-002: Enter/Space activation</text>
        <text x="12" y="75" class="text-md">FR-003: Escape closes modals</text>
        <text x="12" y="90" class="text-md">FR-004: Arrow key navigation</text>
        <text x="12" y="105" class="text-md">FR-005: Keyboard shortcuts</text>
      </g>

      <!-- aria-attributes.test.tsx -->
      <g transform="translate(0, 170)">
        <rect x="0" y="0" width="260" height="120" rx="8" fill="#1e293b" stroke="#ef4444" stroke-width="2"/>
        <rect x="0" y="0" width="260" height="26" rx="8" fill="#334155"/>
        <rect x="0" y="18" width="260" height="8" fill="#334155"/>
        <text x="12" y="17" class="code">aria-attributes.test.tsx</text>
        <text x="232" y="17" class="priority-p1">P1</text>

        <text x="12" y="45" class="text-md">FR-007: Role attributes</text>
        <text x="12" y="60" class="text-md">FR-008: aria-label/labelledby</text>
        <text x="12" y="75" class="text-md">FR-009: aria-describedby</text>
        <text x="12" y="90" class="text-md">FR-010: aria-live regions</text>
        <text x="12" y="105" class="text-md">FR-011: aria-expanded state</text>
      </g>

      <!-- focus-management.test.tsx -->
      <g transform="translate(0, 305)">
        <rect x="0" y="0" width="260" height="120" rx="8" fill="#1e293b" stroke="#eab308" stroke-width="2"/>
        <rect x="0" y="0" width="260" height="26" rx="8" fill="#334155"/>
        <rect x="0" y="18" width="260" height="8" fill="#334155"/>
        <text x="12" y="17" class="code">focus-management.test.tsx</text>
        <text x="232" y="17" class="priority-p2">P2</text>

        <text x="12" y="45" class="text-md">FR-013: Initial focus placement</text>
        <text x="12" y="60" class="text-md">FR-014: Focus trap in modals</text>
        <text x="12" y="75" class="text-md">FR-015: Focus restoration</text>
        <text x="12" y="90" class="text-md">FR-016: Visible focus indicators</text>
        <text x="12" y="105" class="text-md">FR-017: Logical focus order</text>
      </g>

      <!-- visual-accessibility.test.tsx -->
      <g transform="translate(0, 440)">
        <rect x="0" y="0" width="260" height="105" rx="8" fill="#1e293b" stroke="#22c55e" stroke-width="2"/>
        <rect x="0" y="0" width="260" height="26" rx="8" fill="#334155"/>
        <rect x="0" y="18" width="260" height="8" fill="#334155"/>
        <text x="12" y="17" class="code">visual-accessibility.test.tsx</text>
        <text x="232" y="17" class="priority-p3">P3</text>

        <text x="12" y="45" class="text-md">FR-019: Text contrast (4.5:1)</text>
        <text x="12" y="60" class="text-md">FR-020: Focus indicator contrast</text>
        <text x="12" y="75" class="text-md">FR-021: Colorblind mode</text>
        <text x="12" y="90" class="text-md">FR-022: prefers-reduced-motion</text>
      </g>
    </g>

    <!-- Center: Game Components Under Test -->
    <g transform="translate(340, 50)">
      <text x="200" y="18" text-anchor="middle" class="heading-lg">7 Game Components</text>

      <!-- Row 1 -->
      <g transform="translate(0, 35)">
        <!-- DiceRoller -->
        <rect x="0" y="0" width="125" height="75" rx="6" fill="#334155" stroke="#8b5cf6" stroke-width="2"/>
        <text x="62" y="20" text-anchor="middle" class="heading-sm">DiceRoller</text>
        <text x="62" y="38" text-anchor="middle" class="text-sm">Roll button</text>
        <text x="62" y="52" text-anchor="middle" class="text-sm">Result display</text>
        <text x="62" y="66" text-anchor="middle" class="text-muted">FR-024</text>

        <!-- CardDeck -->
        <rect x="135" y="0" width="125" height="75" rx="6" fill="#334155" stroke="#8b5cf6" stroke-width="2"/>
        <text x="197" y="20" text-anchor="middle" class="heading-sm">CardDeck</text>
        <text x="197" y="38" text-anchor="middle" class="text-sm">Selection</text>
        <text x="197" y="52" text-anchor="middle" class="text-sm">Draw/Discard</text>
        <text x="197" y="66" text-anchor="middle" class="text-muted">FR-025</text>

        <!-- CharacterSheet -->
        <rect x="270" y="0" width="130" height="75" rx="6" fill="#334155" stroke="#8b5cf6" stroke-width="2"/>
        <text x="335" y="20" text-anchor="middle" class="heading-sm">CharacterSheet</text>
        <text x="335" y="38" text-anchor="middle" class="text-sm">Form fields</text>
        <text x="335" y="52" text-anchor="middle" class="text-sm">Stat modifiers</text>
        <text x="335" y="66" text-anchor="middle" class="text-muted">FR-026</text>
      </g>

      <!-- Row 2 -->
      <g transform="translate(0, 125)">
        <!-- InitiativeTracker -->
        <rect x="0" y="0" width="130" height="75" rx="6" fill="#334155" stroke="#d946ef" stroke-width="2"/>
        <text x="65" y="20" text-anchor="middle" class="heading-sm">InitiativeTracker</text>
        <text x="65" y="38" text-anchor="middle" class="text-sm">Turn order</text>
        <text x="65" y="52" text-anchor="middle" class="text-sm">Active player</text>
        <text x="65" y="66" text-anchor="middle" class="text-muted">FR-027</text>

        <!-- MapGrid -->
        <rect x="140" y="0" width="120" height="75" rx="6" fill="#334155" stroke="#d946ef" stroke-width="2"/>
        <text x="200" y="20" text-anchor="middle" class="heading-sm">MapGrid</text>
        <text x="200" y="38" text-anchor="middle" class="text-sm">Grid navigation</text>
        <text x="200" y="52" text-anchor="middle" class="text-sm">Token placement</text>
        <text x="200" y="66" text-anchor="middle" class="text-muted">FR-028</text>

        <!-- ChatPanel -->
        <rect x="270" y="0" width="130" height="75" rx="6" fill="#334155" stroke="#d946ef" stroke-width="2"/>
        <text x="335" y="20" text-anchor="middle" class="heading-sm">ChatPanel</text>
        <text x="335" y="38" text-anchor="middle" class="text-sm">Message list</text>
        <text x="335" y="52" text-anchor="middle" class="text-sm">Live region</text>
        <text x="335" y="66" text-anchor="middle" class="text-muted">FR-029</text>
      </g>

      <!-- Row 3 -->
      <g transform="translate(135, 215)">
        <!-- RollLog -->
        <rect x="0" y="0" width="130" height="75" rx="6" fill="#334155" stroke="#22c55e" stroke-width="2"/>
        <text x="65" y="20" text-anchor="middle" class="heading-sm">RollLog</text>
        <text x="65" y="38" text-anchor="middle" class="text-sm">History navigation</text>
        <text x="65" y="52" text-anchor="middle" class="text-sm">Live announcements</text>
        <text x="65" y="66" text-anchor="middle" class="text-muted">FR-030</text>
      </g>

      <!-- WCAG Criteria Box -->
      <g transform="translate(0, 310)">
        <rect x="0" y="0" width="400" height="100" rx="8" fill="#1e293b" stroke="#22c55e" stroke-width="2"/>
        <rect x="0" y="0" width="400" height="26" rx="8" fill="#334155"/>
        <rect x="0" y="18" width="400" height="8" fill="#334155"/>
        <text x="12" y="17" class="success">WCAG Success Criteria Verified</text>

        <text x="12" y="45" class="text-md">2.1.1 Keyboard (Level A)</text>
        <text x="200" y="45" class="text-md">2.4.3 Focus Order (A)</text>
        <text x="12" y="62" class="text-md">2.4.7 Focus Visible (Level AA)</text>
        <text x="200" y="62" class="text-md">4.1.2 Name, Role, Value (A)</text>
        <text x="12" y="79" class="text-md">1.4.3 Contrast Minimum (Level AA)</text>
      </g>

      <!-- Test Utilities -->
      <g transform="translate(0, 425)">
        <rect x="0" y="0" width="400" height="95" rx="8" fill="#1e293b" stroke="#8b5cf6" stroke-width="1"/>
        <rect x="0" y="0" width="400" height="26" rx="8" fill="#334155"/>
        <rect x="0" y="18" width="400" height="8" fill="#334155"/>
        <text x="12" y="17" class="code">Accessibility Test Utilities</text>

        <text x="12" y="45" class="text-sm">Automated a11y checker (WCAG AA ruleset)</text>
        <text x="12" y="60" class="text-sm">Keyboard event simulation</text>
        <text x="220" y="45" class="text-sm">Focus tracking utilities</text>
        <text x="220" y="60" class="text-sm">Contrast ratio calculator</text>
        <text x="12" y="78" class="code-sm">@testing-library/react + jest-axe</text>
      </g>
    </g>

    <!-- Right Column: Requirements & Metrics -->
    <g transform="translate(780, 50)">
      <text x="290" y="18" text-anchor="middle" class="heading-lg">Requirements & Metrics</text>

      <!-- NFR Box -->
      <g transform="translate(0, 35)">
        <rect x="0" y="0" width="290" height="130" rx="8" fill="#1e293b" stroke="#d946ef" stroke-width="2"/>
        <rect x="0" y="0" width="290" height="26" rx="8" fill="#334155"/>
        <rect x="0" y="18" width="290" height="8" fill="#334155"/>
        <text x="12" y="17" class="heading-sm">Non-Functional Requirements</text>

        <text x="12" y="45" class="text-md">NFR-001: All 7 components tested</text>
        <text x="12" y="62" class="text-md">NFR-002: All 4 categories per component</text>
        <text x="12" y="79" class="text-md">NFR-003: Zero WCAG AA violations</text>
        <text x="12" y="96" class="text-md">NFR-004: Suite &lt; 30 seconds</text>
        <text x="12" y="113" class="text-md">NFR-005: Per-component &lt; 5 seconds</text>
      </g>

      <!-- Success Criteria -->
      <g transform="translate(0, 180)">
        <rect x="0" y="0" width="290" height="145" rx="8" fill="#1e293b" stroke="#22c55e" stroke-width="2"/>
        <rect x="0" y="0" width="290" height="26" rx="8" fill="#334155"/>
        <rect x="0" y="18" width="290" height="8" fill="#334155"/>
        <text x="12" y="17" class="success">Success Criteria</text>

        <text x="12" y="45" class="text-sm">SC-001: Zero a11y violations</text>
        <text x="12" y="60" class="text-sm">SC-002: 100% keyboard navigation</text>
        <text x="12" y="75" class="text-sm">SC-003: Valid ARIA on all elements</text>
        <text x="12" y="90" class="text-sm">SC-004: Focus management correct</text>
        <text x="12" y="105" class="text-sm">SC-005: WCAG AA contrast (4.5:1)</text>
        <text x="12" y="120" class="text-sm">SC-006: Suite &lt; 30s runtime</text>
        <text x="12" y="135" class="text-sm">SC-007: CI pipeline green</text>
      </g>

      <!-- Dependencies -->
      <g transform="translate(0, 340)">
        <rect x="0" y="0" width="290" height="85" rx="8" fill="#1e293b" stroke="#475569" stroke-width="1"/>
        <rect x="0" y="0" width="290" height="26" rx="8" fill="#334155"/>
        <rect x="0" y="18" width="290" height="8" fill="#334155"/>
        <text x="12" y="17" class="text-muted">Dependencies</text>

        <text x="12" y="45" class="code-sm">007-e2e-testing-framework</text>
        <text x="12" y="60" class="text-sm">Test runner and utilities</text>
        <text x="12" y="78" class="code-sm">001-wcag-aa-compliance</text>
      </g>

      <!-- Out of Scope -->
      <g transform="translate(0, 440)">
        <rect x="0" y="0" width="290" height="100" rx="8" fill="#1e293b" stroke="#475569" stroke-width="1" stroke-dasharray="4,4"/>
        <text x="12" y="20" class="text-muted">OUT OF SCOPE</text>
        <text x="12" y="40" class="text-sm">Manual accessibility audit</text>
        <text x="12" y="55" class="text-sm">Screen reader testing (NVDA, JAWS)</text>
        <text x="12" y="70" class="text-sm">Mobile touch accessibility</text>
        <text x="12" y="85" class="text-sm">WCAG AAA level compliance</text>
      </g>
    </g>

    <!-- Right Edge: Test Flow -->
    <g transform="translate(1090, 50)">
      <text x="145" y="18" text-anchor="middle" class="heading-lg">Test Flow</text>

      <g transform="translate(0, 35)">
        <!-- Step 1 -->
        <rect x="0" y="0" width="270" height="45" rx="6" fill="#334155" stroke="#8b5cf6" stroke-width="2"/>
        <text x="135" y="18" text-anchor="middle" class="heading-sm">1. Render Component</text>
        <text x="135" y="35" text-anchor="middle" class="text-sm">Mount with test utilities</text>

        <!-- Arrow -->
        <line x1="135" y1="50" x2="135" y2="70" stroke="#8b5cf6" stroke-width="2" marker-end="url(#arrowhead)"/>

        <!-- Step 2 -->
        <rect x="0" y="75" width="270" height="45" rx="6" fill="#334155" stroke="#d946ef" stroke-width="2"/>
        <text x="135" y="93" text-anchor="middle" class="heading-sm">2. Run A11y Checker</text>
        <text x="135" y="110" text-anchor="middle" class="text-sm">WCAG AA ruleset validation</text>

        <!-- Arrow -->
        <line x1="135" y1="125" x2="135" y2="145" stroke="#8b5cf6" stroke-width="2" marker-end="url(#arrowhead)"/>

        <!-- Step 3 -->
        <rect x="0" y="150" width="270" height="45" rx="6" fill="#334155" stroke="#8b5cf6" stroke-width="2"/>
        <text x="135" y="168" text-anchor="middle" class="heading-sm">3. Simulate Interaction</text>
        <text x="135" y="185" text-anchor="middle" class="text-sm">Keyboard events, focus</text>

        <!-- Arrow -->
        <line x1="135" y1="200" x2="135" y2="220" stroke="#8b5cf6" stroke-width="2" marker-end="url(#arrowhead)"/>

        <!-- Step 4 -->
        <rect x="0" y="225" width="270" height="45" rx="6" fill="#334155" stroke="#d946ef" stroke-width="2"/>
        <text x="135" y="243" text-anchor="middle" class="heading-sm">4. Verify ARIA State</text>
        <text x="135" y="260" text-anchor="middle" class="text-sm">Check attribute values</text>

        <!-- Arrow -->
        <line x1="135" y1="275" x2="135" y2="295" stroke="#8b5cf6" stroke-width="2" marker-end="url(#arrowhead)"/>

        <!-- Step 5 -->
        <rect x="0" y="300" width="270" height="45" rx="6" fill="#334155" stroke="#22c55e" stroke-width="2"/>
        <text x="135" y="318" text-anchor="middle" class="heading-sm">5. Assert Results</text>
        <text x="135" y="335" text-anchor="middle" class="text-sm">Zero violations, correct behavior</text>
      </g>

      <!-- Coverage Summary -->
      <g transform="translate(0, 400)">
        <rect x="0" y="0" width="270" height="120" rx="8" fill="#1e293b" stroke="#22c55e" stroke-width="2"/>
        <text x="135" y="22" text-anchor="middle" class="success">Coverage Summary</text>

        <text x="20" y="48" class="text-md">4 Test Files</text>
        <text x="150" y="48" class="text-md">30 Requirements</text>
        <text x="20" y="68" class="text-md">7 Components</text>
        <text x="150" y="68" class="text-md">8 Success Criteria</text>
        <text x="20" y="88" class="text-md">5 WCAG Criteria</text>
        <text x="150" y="88" class="text-md">&lt;30s Suite Time</text>
        <text x="135" y="110" text-anchor="middle" class="code-sm">Zero WCAG AA Violations</text>
      </g>
    </g>

    <!-- Legend -->
    <g transform="translate(40, 580)">
      <rect x="0" y="0" width="260" height="70" rx="6" fill="#1e293b" stroke="#475569" stroke-width="1"/>
      <text x="12" y="18" class="heading-sm">Legend</text>

      <rect x="12" y="28" width="12" height="12" rx="2" fill="none" stroke="#ef4444" stroke-width="2"/>
      <text x="30" y="38" class="text-sm">P1 Priority</text>

      <rect x="90" y="28" width="12" height="12" rx="2" fill="none" stroke="#eab308" stroke-width="2"/>
      <text x="108" y="38" class="text-sm">P2 Priority</text>

      <rect x="175" y="28" width="12" height="12" rx="2" fill="none" stroke="#22c55e" stroke-width="2"/>
      <text x="193" y="38" class="text-sm">P3 Priority</text>

      <rect x="12" y="48" width="12" height="12" rx="2" fill="none" stroke="#8b5cf6" stroke-width="2"/>
      <text x="30" y="58" class="text-sm">Test/Component</text>

      <rect x="120" y="48" width="12" height="12" rx="2" fill="none" stroke="#d946ef" stroke-width="2"/>
      <text x="138" y="58" class="text-sm">Verification</text>
    </g>

  </g>
</svg>