<svg xmlns="http://www.w3.org/2000/svg" viewBox="0 0 1400 800" width="1400" height="800">
  <!-- ============================================================
       GENERATED BY: /wireframe skill
       SOURCE: features/enhancements/020-pwa-background-sync/spec.md
       DATE: 2026-01-01
       THEME: Light (UX/Frontend) - v3 True Parchment
       DO NOT MANUALLY EDIT - Regenerate with /wireframe command
       ============================================================ -->
  <defs>
    <linearGradient id="bgGrad" x1="0%" y1="0%" x2="100%" y2="100%">
      <stop offset="0%" style="stop-color:#c7ddf5"/>
      <stop offset="100%" style="stop-color:#b8d4f0"/>
    </linearGradient>
    <linearGradient id="accentGrad" x1="0%" y1="0%" x2="100%" y2="0%">
      <stop offset="0%" style="stop-color:#8b5cf6"/>
      <stop offset="100%" style="stop-color:#d946ef"/>
    </linearGradient>
    <style>
      .heading-lg { fill: #1a1a2e; font-family: system-ui, sans-serif; font-size: 24px; font-weight: 800; }
      .heading { fill: #1a1a2e; font-family: system-ui, sans-serif; font-size: 16px; font-weight: 700; }
      .text-md { fill: #2d3748; font-family: system-ui, sans-serif; font-size: 14px; font-weight: 500; }
      .text-sm { fill: #4a5568; font-family: system-ui, sans-serif; font-size: 12px; font-weight: 500; }
      .text-muted { fill: #5a6577; font-family: system-ui, sans-serif; font-size: 11px; font-weight: 500; }
      .annotation { fill: #8b5cf6; font-family: monospace; font-size: 12px; font-weight: 600; }
      .label-desktop { fill: #8b5cf6; font-family: monospace; font-size: 13px; font-weight: bold; }
      .label-mobile { fill: #d946ef; font-family: monospace; font-size: 13px; font-weight: bold; }
    </style>
  </defs>

  <!-- Background -->
  <rect width="1400" height="800" fill="url(#bgGrad)"/>

  <!-- Dot grid pattern -->
  <g opacity="0.35">
    <pattern id="dots" width="30" height="30" patternUnits="userSpaceOnUse">
      <circle cx="15" cy="15" r="1" fill="#6b8cba"/>
    </pattern>
    <rect width="1400" height="800" fill="url(#dots)"/>
  </g>

  <!-- Accent line top -->
  <rect x="0" y="0" width="1400" height="3" fill="url(#accentGrad)"/>

  <!-- Title -->
  <text x="700" y="28" text-anchor="middle" font-family="system-ui, sans-serif" font-size="14" font-weight="600" fill="#5a6577" letter-spacing="1">PWA BACKGROUND SYNC — OFFLINE STATUS UI</text>

  <!-- DESKTOP SECTION -->
  <text x="40" y="52" class="label-desktop">DESKTOP — OFFLINE STATE</text>

  <!-- Desktop main panel -->
  <rect x="40" y="60" width="900" height="680" rx="12" fill="#e8d4b8" stroke="#b8a080" stroke-width="1"/>

  <!-- Offline banner at top -->
  <rect x="40" y="60" width="900" height="44" rx="12" fill="#fef3c7" stroke="#f59e0b" stroke-width="1"/>
  <rect x="40" y="90" width="900" height="14" fill="#e8d4b8"/>
  <!-- Offline icon -->
  <circle cx="70" cy="82" r="10" fill="none" stroke="#f59e0b" stroke-width="2"/>
  <line x1="64" y1="76" x2="76" y2="88" stroke="#f59e0b" stroke-width="2"/>
  <text x="90" y="87" class="text-md" fill="#92400e" font-weight="600">You're offline — Your submissions will be saved and sent when you're back online</text>
  <!-- Queue badge -->
  <rect x="860" y="70" width="60" height="24" rx="12" fill="#8b5cf6"/>
  <text x="890" y="87" text-anchor="middle" fill="#fff" font-family="system-ui" font-size="12" font-weight="600">3 queued</text>

  <!-- Header area -->
  <rect x="60" y="120" width="860" height="50" rx="8" fill="#dcc8a8"/>
  <text x="80" y="152" class="heading-lg">Contact Form</text>

  <!-- Form panel -->
  <rect x="60" y="190" width="520" height="530" rx="8" fill="#f5f0e6" stroke="#b8a080" stroke-width="1"/>

  <!-- Form fields -->
  <text x="80" y="220" class="text-md" font-weight="600">Name *</text>
  <rect x="80" y="230" width="480" height="40" rx="6" fill="#fff" stroke="#b8a080" stroke-width="1"/>
  <text x="95" y="256" class="text-sm" fill="#4a5568">John Doe</text>

  <text x="80" y="295" class="text-md" font-weight="600">Email *</text>
  <rect x="80" y="305" width="480" height="40" rx="6" fill="#fff" stroke="#b8a080" stroke-width="1"/>
  <text x="95" y="331" class="text-sm" fill="#4a5568">john@example.com</text>

  <text x="80" y="370" class="text-md" font-weight="600">Subject</text>
  <rect x="80" y="380" width="480" height="40" rx="6" fill="#fff" stroke="#b8a080" stroke-width="1"/>
  <text x="95" y="406" class="text-sm" fill="#4a5568">Question about services</text>

  <text x="80" y="445" class="text-md" font-weight="600">Message *</text>
  <rect x="80" y="455" width="480" height="140" rx="6" fill="#fff" stroke="#b8a080" stroke-width="1"/>
  <text x="95" y="480" class="text-sm" fill="#4a5568">Hello, I have a question about...</text>

  <!-- Submit button - styled for offline -->
  <rect x="80" y="620" width="200" height="44" rx="8" fill="#8b5cf6"/>
  <text x="180" y="648" text-anchor="middle" fill="#fff" font-family="system-ui" font-size="14" font-weight="600">Submit (Save Offline)</text>

  <!-- Offline indicator on button -->
  <circle cx="260" cy="642" r="8" fill="#f59e0b"/>
  <text x="272" y="646" class="text-sm" fill="#92400e">Will queue</text>

  <!-- Clear form button -->
  <rect x="360" y="620" width="100" height="44" rx="8" fill="none" stroke="#b8a080" stroke-width="1"/>
  <text x="410" y="648" text-anchor="middle" class="text-md">Clear</text>

  <!-- Queue status panel -->
  <rect x="600" y="190" width="320" height="530" rx="8" fill="#dcc8a8" stroke="#b8a080" stroke-width="1"/>
  <text x="620" y="220" class="heading">Pending Submissions</text>
  <text x="620" y="240" class="text-muted">3 items waiting to sync</text>

  <!-- Queued item 1 -->
  <rect x="620" y="260" width="280" height="80" rx="6" fill="#f5f0e6" stroke="#b8a080" stroke-width="1"/>
  <circle cx="640" cy="280" r="8" fill="#f59e0b"/>
  <text x="655" y="284" class="text-md" font-weight="600">Contact Form</text>
  <text x="620" y="305" class="text-sm">Queued 2 min ago</text>
  <text x="620" y="325" class="text-muted">Waiting for connection...</text>

  <!-- Queued item 2 -->
  <rect x="620" y="350" width="280" height="80" rx="6" fill="#f5f0e6" stroke="#b8a080" stroke-width="1"/>
  <circle cx="640" cy="370" r="8" fill="#f59e0b"/>
  <text x="655" y="374" class="text-md" font-weight="600">Feedback Form</text>
  <text x="620" y="395" class="text-sm">Queued 5 min ago</text>
  <text x="620" y="415" class="text-muted">Waiting for connection...</text>

  <!-- Queued item 3 -->
  <rect x="620" y="440" width="280" height="80" rx="6" fill="#f5f0e6" stroke="#b8a080" stroke-width="1"/>
  <circle cx="640" cy="460" r="8" fill="#f59e0b"/>
  <text x="655" y="464" class="text-md" font-weight="600">Newsletter Signup</text>
  <text x="620" y="485" class="text-sm">Queued 10 min ago</text>
  <text x="620" y="505" class="text-muted">Waiting for connection...</text>

  <!-- Info box -->
  <rect x="620" y="540" width="280" height="80" rx="6" fill="#e0f2fe" stroke="#0ea5e9" stroke-width="1"/>
  <text x="640" y="565" class="text-sm" fill="#0369a1" font-weight="600">Your data is safe</text>
  <text x="640" y="585" class="text-sm" fill="#0369a1">Submissions are stored locally</text>
  <text x="640" y="605" class="text-sm" fill="#0369a1">and will sync automatically.</text>

  <!-- MOBILE SECTION -->
  <text x="980" y="52" class="label-mobile">MOBILE — OFFLINE STATE</text>

  <!-- Phone frame -->
  <rect x="980" y="60" width="360" height="700" rx="24" fill="#c8b898" stroke="#a08860" stroke-width="2"/>
  <rect x="990" y="70" width="340" height="680" rx="16" fill="#e8d4b8"/>

  <!-- Status bar -->
  <rect x="990" y="70" width="340" height="28" rx="16" fill="#dcc8a8"/>
  <text x="1010" y="88" class="text-sm">9:41</text>
  <!-- Offline icon in status bar -->
  <circle cx="1290" cy="84" r="6" fill="none" stroke="#f59e0b" stroke-width="1.5"/>
  <line x1="1286" y1="80" x2="1294" y2="88" stroke="#f59e0b" stroke-width="1.5"/>

  <!-- Mobile offline banner -->
  <rect x="1000" y="108" width="320" height="36" rx="8" fill="#fef3c7" stroke="#f59e0b" stroke-width="1"/>
  <circle cx="1020" cy="126" r="6" fill="none" stroke="#f59e0b" stroke-width="1.5"/>
  <line x1="1016" y1="122" x2="1024" y2="130" stroke="#f59e0b" stroke-width="1.5"/>
  <text x="1035" y="130" class="text-sm" fill="#92400e" font-weight="500">Offline — 3 pending</text>

  <!-- Mobile form header -->
  <rect x="1000" y="154" width="320" height="40" rx="6" fill="#dcc8a8"/>
  <text x="1160" y="180" text-anchor="middle" class="heading">Contact Us</text>

  <!-- Mobile form -->
  <text x="1010" y="215" class="text-sm" font-weight="600">Name *</text>
  <rect x="1010" y="225" width="300" height="36" rx="6" fill="#fff" stroke="#b8a080" stroke-width="1"/>

  <text x="1010" y="280" class="text-sm" font-weight="600">Email *</text>
  <rect x="1010" y="290" width="300" height="36" rx="6" fill="#fff" stroke="#b8a080" stroke-width="1"/>

  <text x="1010" y="345" class="text-sm" font-weight="600">Message *</text>
  <rect x="1010" y="355" width="300" height="100" rx="6" fill="#fff" stroke="#b8a080" stroke-width="1"/>

  <!-- Mobile submit button -->
  <rect x="1010" y="475" width="300" height="44" rx="8" fill="#8b5cf6"/>
  <text x="1160" y="503" text-anchor="middle" fill="#fff" font-family="system-ui" font-size="14" font-weight="600">Submit (Save Offline)</text>

  <!-- Mobile queue preview -->
  <rect x="1010" y="540" width="300" height="100" rx="8" fill="#dcc8a8"/>
  <text x="1030" y="565" class="text-sm" font-weight="600">Pending (3)</text>

  <!-- Mini queue items -->
  <rect x="1020" y="580" width="90" height="50" rx="4" fill="#f5f0e6"/>
  <circle cx="1035" cy="600" r="4" fill="#f59e0b"/>
  <text x="1065" y="610" text-anchor="middle" class="text-muted">Contact</text>

  <rect x="1120" y="580" width="90" height="50" rx="4" fill="#f5f0e6"/>
  <circle cx="1135" cy="600" r="4" fill="#f59e0b"/>
  <text x="1165" y="610" text-anchor="middle" class="text-muted">Feedback</text>

  <rect x="1220" y="580" width="80" height="50" rx="4" fill="#f5f0e6"/>
  <circle cx="1235" cy="600" r="4" fill="#f59e0b"/>
  <text x="1260" y="610" text-anchor="middle" class="text-muted">+1</text>

  <!-- Mobile bottom nav -->
  <rect x="990" y="700" width="340" height="50" rx="16" fill="#dcc8a8"/>
  <text x="1050" y="730" text-anchor="middle" class="text-sm">Home</text>
  <text x="1160" y="730" text-anchor="middle" class="text-sm" font-weight="700" fill="#8b5cf6">Forms</text>
  <text x="1270" y="730" text-anchor="middle" class="text-sm">Settings</text>

  <!-- Annotations -->
  <g id="annotations">
    <!-- Offline banner annotation -->
    <rect x="40" y="760" width="180" height="30" rx="4" fill="#e8d4b8" stroke="#8b5cf6" stroke-width="1"/>
    <text x="130" y="780" text-anchor="middle" class="annotation">FR-013: Offline indicator</text>

    <!-- Queue badge annotation -->
    <rect x="240" y="760" width="160" height="30" rx="4" fill="#e8d4b8" stroke="#8b5cf6" stroke-width="1"/>
    <text x="320" y="780" text-anchor="middle" class="annotation">FR-014: Queue count</text>

    <!-- Queued feedback annotation -->
    <rect x="420" y="760" width="200" height="30" rx="4" fill="#e8d4b8" stroke="#8b5cf6" stroke-width="1"/>
    <text x="520" y="780" text-anchor="middle" class="annotation">FR-017: Offline confirmation</text>

    <!-- Persistence annotation -->
    <rect x="640" y="760" width="180" height="30" rx="4" fill="#e8d4b8" stroke="#8b5cf6" stroke-width="1"/>
    <text x="730" y="780" text-anchor="middle" class="annotation">FR-002: Queue persists</text>
  </g>

  <!-- Leader lines -->
  <g id="leader-lines">
    <line x1="130" y1="760" x2="130" y2="104" stroke="#8b5cf6" stroke-width="1" stroke-dasharray="4,2"/>
    <line x1="320" y1="760" x2="890" y2="94" stroke="#8b5cf6" stroke-width="1" stroke-dasharray="4,2"/>
    <line x1="520" y1="760" x2="260" y2="642" stroke="#8b5cf6" stroke-width="1" stroke-dasharray="4,2"/>
    <line x1="730" y1="760" x2="760" y2="530" stroke="#8b5cf6" stroke-width="1" stroke-dasharray="4,2"/>
  </g>
</svg>
