<svg xmlns="http://www.w3.org/2000/svg" viewBox="0 0 1400 800" width="1400" height="800">
  <!-- ============================================================
       GENERATED BY: /wireframe skill
       SOURCE: features/enhancements/020-pwa-background-sync/spec.md
       DATE: 2025-12-31
       DO NOT MANUALLY EDIT - Regenerate with /wireframe command
       ============================================================ -->
  <defs>
    <linearGradient id="bgGrad" x1="0%" y1="0%" x2="100%" y2="100%">
      <stop offset="0%" style="stop-color:#0f172a"/>
      <stop offset="100%" style="stop-color:#1e293b"/>
    </linearGradient>
    <linearGradient id="accentGrad" x1="0%" y1="0%" x2="100%" y2="0%">
      <stop offset="0%" style="stop-color:#8b5cf6"/>
      <stop offset="100%" style="stop-color:#d946ef"/>
    </linearGradient>
    <linearGradient id="offlineGrad" x1="0%" y1="0%" x2="100%" y2="0%">
      <stop offset="0%" style="stop-color:#ef4444"/>
      <stop offset="100%" style="stop-color:#f97316"/>
    </linearGradient>
    <style>
      .heading-lg { fill: #ffffff; font-family: system-ui, sans-serif; font-size: 20px; font-weight: bold; }
      .heading { fill: #ffffff; font-family: system-ui, sans-serif; font-size: 14px; font-weight: bold; }
      .text-md { fill: #cbd5e1; font-family: system-ui, sans-serif; font-size: 12px; }
      .text-sm { fill: #94a3b8; font-family: system-ui, sans-serif; font-size: 10px; }
      .text-muted { fill: #64748b; font-family: system-ui, sans-serif; font-size: 10px; }
      .annotation { fill: #8b5cf6; font-family: monospace; font-size: 10px; }
      .label { fill: #d946ef; font-family: monospace; font-size: 11px; font-weight: bold; }
    </style>
  </defs>

  <!-- Background -->
  <rect width="1400" height="800" fill="url(#bgGrad)"/>

  <!-- Dot grid pattern -->
  <g opacity="0.05">
    <pattern id="dots" width="30" height="30" patternUnits="userSpaceOnUse">
      <circle cx="15" cy="15" r="1" fill="#fff"/>
    </pattern>
    <rect width="1400" height="800" fill="url(#dots)"/>
  </g>

  <!-- Accent line top -->
  <rect x="0" y="0" width="1400" height="3" fill="url(#accentGrad)"/>

  <!-- Title -->
  <text x="700" y="28" text-anchor="middle" font-family="system-ui, sans-serif" font-size="14" font-weight="600" fill="#64748b" letter-spacing="1">020 - PWA BACKGROUND SYNC</text>
  <text x="700" y="52" text-anchor="middle" class="heading-lg">Offline Queue &amp; Status UI</text>

  <!-- ==================== DESKTOP VIEW ==================== -->
  <g id="desktop" transform="translate(40, 80)">
    <text x="0" y="0" class="label">DESKTOP - FORM WITH OFFLINE INDICATOR</text>

    <!-- Browser chrome -->
    <rect x="0" y="15" width="880" height="520" rx="8" fill="#1e293b" stroke="#475569" stroke-width="1"/>
    <rect x="0" y="15" width="880" height="30" rx="8" fill="#334155"/>
    <rect x="0" y="37" width="880" height="8" fill="#334155"/>
    <circle cx="20" cy="30" r="5" fill="#ef4444"/>
    <circle cx="40" cy="30" r="5" fill="#eab308"/>
    <circle cx="60" cy="30" r="5" fill="#22c55e"/>

    <!-- OFFLINE BANNER (FR-013) -->
    <rect x="0" y="45" width="880" height="36" fill="#ef4444" opacity="0.15"/>
    <rect x="0" y="45" width="880" height="36" fill="none" stroke="#ef4444" stroke-width="1"/>
    <!-- Offline icon -->
    <g transform="translate(20, 55)">
      <circle cx="8" cy="8" r="6" fill="none" stroke="#ef4444" stroke-width="2"/>
      <line x1="4" y1="4" x2="12" y2="12" stroke="#ef4444" stroke-width="2"/>
    </g>
    <text x="45" y="68" fill="#ef4444" font-size="13" font-weight="600">You're offline</text>
    <text x="150" y="68" class="text-md">Your submissions will be saved and sent when you're back online.</text>

    <!-- Queue indicator badge (FR-014) -->
    <rect x="770" y="52" width="90" height="24" rx="12" fill="#f97316" opacity="0.2"/>
    <text x="785" y="69" fill="#f97316" font-size="11" font-weight="600">3 pending</text>

    <!-- Main content area -->
    <g transform="translate(120, 100)">
      <!-- Form card -->
      <rect x="0" y="0" width="640" height="420" rx="8" fill="#0f172a" stroke="#475569" stroke-width="1"/>

      <text x="30" y="40" class="heading-lg">Contact Us</text>
      <text x="30" y="60" class="text-md">We'll respond within 24 hours</text>

      <!-- Form fields -->
      <g transform="translate(30, 85)">
        <!-- Name -->
        <text x="0" y="0" class="text-sm">Your Name</text>
        <rect x="0" y="8" width="280" height="36" rx="6" fill="#1e293b" stroke="#475569" stroke-width="1"/>
        <text x="15" y="32" class="text-md">Jon Pohlner</text>

        <!-- Email -->
        <text x="300" y="0" class="text-sm">Email Address</text>
        <rect x="300" y="8" width="280" height="36" rx="6" fill="#1e293b" stroke="#475569" stroke-width="1"/>
        <text x="315" y="32" class="text-md">jon@example.com</text>

        <!-- Subject -->
        <text x="0" y="65" class="text-sm">Subject</text>
        <rect x="0" y="73" width="580" height="36" rx="6" fill="#1e293b" stroke="#475569" stroke-width="1"/>
        <text x="15" y="97" class="text-md">Question about premium features</text>

        <!-- Message -->
        <text x="0" y="130" class="text-sm">Message</text>
        <rect x="0" y="138" width="580" height="100" rx="6" fill="#1e293b" stroke="#475569" stroke-width="1"/>
        <text x="15" y="165" class="text-md">Hello, I'd like to know more about...</text>

        <!-- Submit button - Offline state (FR-017) -->
        <rect x="0" y="255" width="200" height="40" rx="6" fill="#8b5cf6"/>
        <text x="100" y="280" text-anchor="middle" fill="#fff" font-size="14" font-weight="600">Send Message</text>

        <!-- Offline hint -->
        <text x="220" y="280" class="text-sm" fill="#94a3b8">Message will be queued and sent when online</text>
      </g>
    </g>

    <!-- Right sidebar: Queue status panel -->
    <g transform="translate(780, 100)">
      <rect x="0" y="0" width="90" height="420" rx="8" fill="#1e293b" stroke="#475569" stroke-width="1"/>
      <text x="45" y="25" text-anchor="middle" class="text-sm" fill="#fff">Queue</text>

      <!-- Queue items -->
      <g transform="translate(10, 45)">
        <rect x="0" y="0" width="70" height="50" rx="4" fill="#f97316" opacity="0.15" stroke="#f97316" stroke-width="1"/>
        <text x="35" y="20" text-anchor="middle" class="text-sm" fill="#f97316">Contact</text>
        <text x="35" y="35" text-anchor="middle" class="text-muted">12:30 PM</text>

        <rect x="0" y="60" width="70" height="50" rx="4" fill="#f97316" opacity="0.15" stroke="#f97316" stroke-width="1"/>
        <text x="35" y="80" text-anchor="middle" class="text-sm" fill="#f97316">Feedback</text>
        <text x="35" y="95" text-anchor="middle" class="text-muted">12:28 PM</text>

        <rect x="0" y="120" width="70" height="50" rx="4" fill="#f97316" opacity="0.15" stroke="#f97316" stroke-width="1"/>
        <text x="35" y="140" text-anchor="middle" class="text-sm" fill="#f97316">Message</text>
        <text x="35" y="155" text-anchor="middle" class="text-muted">12:25 PM</text>
      </g>
    </g>
  </g>

  <!-- ==================== MOBILE VIEW ==================== -->
  <g id="mobile" transform="translate(960, 80)">
    <text x="0" y="0" class="label">MOBILE - QUEUED CONFIRMATION</text>

    <!-- Phone frame -->
    <rect x="0" y="15" width="360" height="700" rx="24" fill="#1e293b" stroke="#475569" stroke-width="2"/>

    <!-- Status bar -->
    <text x="20" y="40" fill="#fff" font-size="12" font-weight="600">9:41</text>
    <!-- Offline indicator in status bar -->
    <g transform="translate(280, 32)">
      <circle cx="0" cy="4" r="4" fill="#ef4444"/>
    </g>
    <g transform="translate(295, 32)">
      <rect x="0" y="0" width="18" height="10" rx="2" fill="none" stroke="#fff" stroke-width="1"/>
      <rect x="2" y="2" width="8" height="6" rx="1" fill="#fff"/>
    </g>

    <!-- Offline banner -->
    <rect x="0" y="52" width="360" height="32" fill="#ef4444" opacity="0.15"/>
    <g transform="translate(15, 60)">
      <circle cx="8" cy="8" r="5" fill="none" stroke="#ef4444" stroke-width="1.5"/>
      <line x1="5" y1="5" x2="11" y2="11" stroke="#ef4444" stroke-width="1.5"/>
    </g>
    <text x="35" y="73" fill="#ef4444" font-size="12" font-weight="500">Offline</text>
    <rect x="280" y="60" width="60" height="18" rx="9" fill="#f97316" opacity="0.3"/>
    <text x="295" y="73" fill="#f97316" font-size="10">3 queued</text>

    <!-- Success confirmation modal (FR-017) -->
    <rect x="20" y="180" width="320" height="220" rx="12" fill="#0f172a" stroke="#22c55e" stroke-width="2"/>

    <!-- Success icon -->
    <g transform="translate(160, 220)">
      <circle cx="0" cy="0" r="30" fill="#22c55e" opacity="0.2"/>
      <circle cx="0" cy="0" r="20" fill="#22c55e"/>
      <path d="M -8 0 L -3 5 L 8 -6" stroke="#fff" stroke-width="3" fill="none" stroke-linecap="round" stroke-linejoin="round"/>
    </g>

    <text x="180" y="275" text-anchor="middle" class="heading" fill="#22c55e">Message Queued!</text>
    <text x="180" y="300" text-anchor="middle" class="text-md">Your message has been saved</text>
    <text x="180" y="318" text-anchor="middle" class="text-md">and will be sent automatically</text>
    <text x="180" y="336" text-anchor="middle" class="text-md">when you're back online.</text>

    <!-- Queue position indicator -->
    <rect x="120" y="355" width="80" height="24" rx="12" fill="#334155"/>
    <text x="160" y="371" text-anchor="middle" class="text-sm" fill="#f97316">#4 in queue</text>

    <!-- Close button -->
    <rect x="100" y="400" width="120" height="36" rx="6" fill="#8b5cf6"/>
    <text x="160" y="423" text-anchor="middle" fill="#fff" font-size="13" font-weight="600">Got it</text>

    <!-- Form below (dimmed) -->
    <g opacity="0.3">
      <rect x="20" y="450" width="320" height="200" rx="8" fill="#1e293b"/>
      <text x="40" y="480" class="heading">Contact Form</text>
      <rect x="40" y="495" width="280" height="30" rx="4" fill="#334155"/>
      <rect x="40" y="535" width="280" height="30" rx="4" fill="#334155"/>
      <rect x="40" y="575" width="280" height="50" rx="4" fill="#334155"/>
    </g>

    <!-- Home indicator -->
    <rect x="130" y="675" width="100" height="5" rx="2" fill="#475569"/>
  </g>

  <!-- ==================== ANNOTATIONS ==================== -->
  <g id="annotations" transform="translate(40, 620)">
    <text x="0" y="0" class="label">OFFLINE STATES (FR-013, FR-014, FR-017)</text>

    <rect x="0" y="15" width="300" height="130" rx="8" fill="#1e293b" stroke="#ef4444" stroke-width="1"/>

    <g transform="translate(20, 40)">
      <rect x="0" y="0" width="12" height="12" rx="2" fill="#ef4444"/>
      <text x="20" y="10" class="text-md">Offline banner visible at top</text>
    </g>
    <g transform="translate(20, 65)">
      <rect x="0" y="0" width="12" height="12" rx="2" fill="#f97316"/>
      <text x="20" y="10" class="text-md">Queue count badge</text>
    </g>
    <g transform="translate(20, 90)">
      <rect x="0" y="0" width="12" height="12" rx="2" fill="#22c55e"/>
      <text x="20" y="10" class="text-md">"Queued" confirmation on submit</text>
    </g>
    <g transform="translate(20, 115)">
      <rect x="0" y="0" width="12" height="12" rx="2" fill="#8b5cf6"/>
      <text x="20" y="10" class="text-md">Submit still works (queues locally)</text>
    </g>
  </g>

  <g id="requirements" transform="translate(360, 620)">
    <text x="0" y="0" class="label">KEY REQUIREMENTS</text>

    <rect x="0" y="15" width="300" height="130" rx="8" fill="#1e293b" stroke="#8b5cf6" stroke-width="1"/>

    <g transform="translate(20, 40)">
      <text x="0" y="0" class="annotation">FR-001</text>
      <text x="55" y="0" class="text-md">Queue submissions when offline</text>
    </g>
    <g transform="translate(20, 60)">
      <text x="0" y="0" class="annotation">FR-002</text>
      <text x="55" y="0" class="text-md">Persist across browser sessions</text>
    </g>
    <g transform="translate(20, 80)">
      <text x="0" y="0" class="annotation">FR-003</text>
      <text x="55" y="0" class="text-md">FIFO order maintained</text>
    </g>
    <g transform="translate(20, 100)">
      <text x="0" y="0" class="annotation">FR-004</text>
      <text x="55" y="0" class="text-md">Multiple form types supported</text>
    </g>
    <g transform="translate(20, 120)">
      <text x="0" y="0" class="annotation">FR-021</text>
      <text x="55" y="0" class="text-md">No impact on online experience</text>
    </g>
  </g>

  <g id="success-criteria" transform="translate(680, 620)">
    <text x="0" y="0" class="label">SUCCESS CRITERIA</text>

    <rect x="0" y="15" width="320" height="130" rx="8" fill="#1e293b" stroke="#22c55e" stroke-width="1"/>

    <g transform="translate(20, 40)">
      <circle cx="6" cy="-4" r="5" fill="#22c55e"/>
      <text x="20" y="0" class="text-md">SC-001: 100% submissions queued (no loss)</text>
    </g>
    <g transform="translate(20, 65)">
      <circle cx="6" cy="-4" r="5" fill="#22c55e"/>
      <text x="20" y="0" class="text-md">SC-003: Feedback for all state changes</text>
    </g>
    <g transform="translate(20, 90)">
      <circle cx="6" cy="-4" r="5" fill="#22c55e"/>
      <text x="20" y="0" class="text-md">SC-004: Queue persists across sessions</text>
    </g>
    <g transform="translate(20, 115)">
      <circle cx="6" cy="-4" r="5" fill="#22c55e"/>
      <text x="20" y="0" class="text-md">SC-006: &lt;50ms online overhead</text>
    </g>
  </g>

  <g id="storage" transform="translate(1020, 620)">
    <text x="0" y="0" class="label">STORAGE</text>

    <rect x="0" y="15" width="320" height="130" rx="8" fill="#1e293b" stroke="#d946ef" stroke-width="1"/>

    <text x="20" y="40" class="text-sm" fill="#d946ef">IndexedDB / LocalStorage</text>
    <text x="20" y="60" class="text-muted">Queued submissions persisted locally</text>
    <text x="20" y="85" class="text-sm" fill="#d946ef">Queue Item Structure:</text>
    <text x="20" y="105" font-family="monospace" font-size="9" fill="#22c55e">{ id, formType, data, timestamp,</text>
    <text x="20" y="120" font-family="monospace" font-size="9" fill="#22c55e">  retryCount, status }</text>
  </g>

  <!-- Version badge -->
  <rect x="1280" y="770" width="110" height="22" rx="11" fill="#334155"/>
  <text x="1335" y="785" text-anchor="middle" class="text-muted">v1.0 | 2025-12-31</text>
</svg>
