<svg xmlns="http://www.w3.org/2000/svg" viewBox="0 0 1400 800" width="1400" height="800">
  <!-- ============================================================
       GENERATED BY: /wireframe skill
       SOURCE: features/enhancements/020-pwa-background-sync/spec.md
       DATE: 2025-12-31
       DO NOT MANUALLY EDIT - Regenerate with /wireframe command
       ============================================================ -->
  <defs>
    <linearGradient id="bgGrad" x1="0%" y1="0%" x2="100%" y2="100%">
      <stop offset="0%" style="stop-color:#0f172a"/>
      <stop offset="100%" style="stop-color:#1e293b"/>
    </linearGradient>
    <linearGradient id="accentGrad" x1="0%" y1="0%" x2="100%" y2="0%">
      <stop offset="0%" style="stop-color:#8b5cf6"/>
      <stop offset="100%" style="stop-color:#d946ef"/>
    </linearGradient>
    <marker id="arrowhead" markerWidth="10" markerHeight="7" refX="9" refY="3.5" orient="auto">
      <polygon points="0 0, 10 3.5, 0 7" fill="#8b5cf6"/>
    </marker>
    <marker id="arrowheadGreen" markerWidth="10" markerHeight="7" refX="9" refY="3.5" orient="auto">
      <polygon points="0 0, 10 3.5, 0 7" fill="#22c55e"/>
    </marker>
    <marker id="arrowheadRed" markerWidth="10" markerHeight="7" refX="9" refY="3.5" orient="auto">
      <polygon points="0 0, 10 3.5, 0 7" fill="#ef4444"/>
    </marker>
    <marker id="arrowheadYellow" markerWidth="10" markerHeight="7" refX="9" refY="3.5" orient="auto">
      <polygon points="0 0, 10 3.5, 0 7" fill="#eab308"/>
    </marker>
    <style>
      .heading-lg { fill: #ffffff; font-family: system-ui, sans-serif; font-size: 20px; font-weight: bold; }
      .heading { fill: #ffffff; font-family: system-ui, sans-serif; font-size: 14px; font-weight: bold; }
      .text-md { fill: #cbd5e1; font-family: system-ui, sans-serif; font-size: 12px; }
      .text-sm { fill: #94a3b8; font-family: system-ui, sans-serif; font-size: 10px; }
      .text-muted { fill: #64748b; font-family: system-ui, sans-serif; font-size: 10px; }
      .annotation { fill: #8b5cf6; font-family: monospace; font-size: 10px; }
      .label-flow { fill: #8b5cf6; font-family: monospace; font-size: 11px; font-weight: bold; }
      .label-success { fill: #22c55e; font-family: monospace; font-size: 10px; font-weight: bold; }
      .label-error { fill: #ef4444; font-family: monospace; font-size: 10px; font-weight: bold; }
      .label-warning { fill: #eab308; font-family: monospace; font-size: 10px; font-weight: bold; }
    </style>
  </defs>

  <!-- Background -->
  <rect width="1400" height="800" fill="url(#bgGrad)"/>

  <!-- Dot grid pattern -->
  <g opacity="0.05">
    <pattern id="dots" width="30" height="30" patternUnits="userSpaceOnUse">
      <circle cx="15" cy="15" r="1" fill="#fff"/>
    </pattern>
    <rect width="1400" height="800" fill="url(#dots)"/>
  </g>

  <!-- Accent line top -->
  <rect x="0" y="0" width="1400" height="3" fill="url(#accentGrad)"/>

  <!-- Title -->
  <text x="700" y="32" text-anchor="middle" class="heading-lg">PWA BACKGROUND SYNC - DATA FLOW ARCHITECTURE</text>
  <text x="700" y="52" text-anchor="middle" class="text-muted">Feature 020 - Offline Form Submission &amp; Automatic Synchronization</text>

  <!-- === ROW 1: USER ACTIONS === -->
  <text x="40" y="90" class="label-flow">USER ACTIONS</text>

  <!-- User submits form -->
  <g transform="translate(60, 110)">
    <rect width="140" height="80" rx="8" fill="#1e293b" stroke="#8b5cf6" stroke-width="2"/>
    <text x="70" y="25" text-anchor="middle" class="heading">User Submits</text>
    <text x="70" y="42" text-anchor="middle" class="text-md">Form Data</text>
    <!-- Form icon -->
    <rect x="50" y="50" width="40" height="24" rx="4" fill="#334155"/>
    <rect x="54" y="54" width="32" height="3" rx="1" fill="#64748b"/>
    <rect x="54" y="60" width="24" height="3" rx="1" fill="#64748b"/>
    <rect x="54" y="66" width="28" height="3" rx="1" fill="#64748b"/>
  </g>

  <!-- === ROW 2: CONNECTIVITY CHECK === -->
  <text x="40" y="220" class="label-flow">CONNECTIVITY CHECK</text>

  <!-- Decision diamond -->
  <g transform="translate(280, 230)">
    <polygon points="60,0 120,50 60,100 0,50" fill="#1e293b" stroke="#eab308" stroke-width="2"/>
    <text x="60" y="45" text-anchor="middle" class="heading">Online?</text>
    <text x="60" y="60" text-anchor="middle" class="text-sm">navigator</text>
    <text x="60" y="72" text-anchor="middle" class="text-sm">.onLine</text>
  </g>

  <!-- Arrow from form to decision -->
  <line x1="130" y1="190" x2="130" y2="260" stroke="#8b5cf6" stroke-width="2" marker-end="url(#arrowhead)"/>
  <line x1="130" y1="260" x2="280" y2="280" stroke="#8b5cf6" stroke-width="2" marker-end="url(#arrowhead)"/>

  <!-- === YES PATH - DIRECT SUBMIT === -->
  <text x="470" y="220" class="label-success">YES - ONLINE</text>

  <!-- Direct API call -->
  <g transform="translate(470, 230)">
    <rect width="130" height="70" rx="8" fill="#1e293b" stroke="#22c55e" stroke-width="2"/>
    <text x="65" y="25" text-anchor="middle" class="heading">Direct Submit</text>
    <text x="65" y="42" text-anchor="middle" class="text-md">POST /api/form</text>
    <text x="65" y="58" text-anchor="middle" class="text-sm">Normal flow</text>
  </g>

  <!-- Arrow from decision to direct submit -->
  <line x1="400" y1="280" x2="470" y2="265" stroke="#22c55e" stroke-width="2" marker-end="url(#arrowheadGreen)"/>

  <!-- Success notification -->
  <g transform="translate(660, 230)">
    <rect width="120" height="70" rx="8" fill="#1e293b" stroke="#22c55e" stroke-width="2"/>
    <text x="60" y="25" text-anchor="middle" class="heading">Success</text>
    <text x="60" y="42" text-anchor="middle" class="text-md">Toast shown</text>
    <!-- Checkmark -->
    <circle cx="60" cy="56" r="10" fill="#22c55e" opacity="0.2"/>
    <path d="M54 56 L58 60 L66 52" stroke="#22c55e" stroke-width="2" fill="none"/>
  </g>

  <!-- Arrow to success -->
  <line x1="600" y1="265" x2="660" y2="265" stroke="#22c55e" stroke-width="2" marker-end="url(#arrowheadGreen)"/>

  <!-- === NO PATH - OFFLINE QUEUE === -->
  <text x="40" y="350" class="label-warning">NO - OFFLINE</text>

  <!-- Queue to IndexedDB -->
  <g transform="translate(60, 370)">
    <rect width="140" height="80" rx="8" fill="#1e293b" stroke="#eab308" stroke-width="2"/>
    <text x="70" y="22" text-anchor="middle" class="heading">Queue Locally</text>
    <text x="70" y="40" text-anchor="middle" class="text-md">IndexedDB</text>
    <!-- Database icon -->
    <ellipse cx="70" cy="58" rx="25" ry="8" fill="#334155" stroke="#eab308" stroke-width="1"/>
    <rect x="45" y="58" width="50" height="15" fill="#334155"/>
    <ellipse cx="70" cy="73" rx="25" ry="8" fill="#334155" stroke="#eab308" stroke-width="1"/>
  </g>

  <!-- Arrow from decision to queue -->
  <line x1="340" y1="330" x2="340" y2="390" stroke="#eab308" stroke-width="2"/>
  <line x1="340" y1="390" x2="200" y2="410" stroke="#eab308" stroke-width="2" marker-end="url(#arrowheadYellow)"/>

  <!-- Queued notification -->
  <g transform="translate(260, 370)">
    <rect width="130" height="80" rx="8" fill="#1e293b" stroke="#eab308" stroke-width="2"/>
    <text x="65" y="22" text-anchor="middle" class="heading">Show Badge</text>
    <text x="65" y="40" text-anchor="middle" class="text-md">"Saved offline"</text>
    <!-- Badge icon -->
    <rect x="40" y="50" width="50" height="22" rx="11" fill="#eab308" opacity="0.2"/>
    <text x="65" y="65" text-anchor="middle" font-family="system-ui" font-size="11" fill="#eab308" font-weight="bold">3 pending</text>
  </g>

  <!-- Arrow to badge -->
  <line x1="200" y1="410" x2="260" y2="410" stroke="#eab308" stroke-width="2" marker-end="url(#arrowheadYellow)"/>

  <!-- === ROW 3: SYNC TRIGGER === -->
  <text x="40" y="490" class="label-flow">SYNC TRIGGER</text>

  <!-- Online event listener -->
  <g transform="translate(60, 510)">
    <rect width="140" height="70" rx="8" fill="#1e293b" stroke="#8b5cf6" stroke-width="2"/>
    <text x="70" y="22" text-anchor="middle" class="heading">Online Event</text>
    <text x="70" y="40" text-anchor="middle" class="text-sm">window.addEventListener</text>
    <text x="70" y="54" text-anchor="middle" class="annotation">'online'</text>
  </g>

  <!-- Background Sync API -->
  <g transform="translate(260, 510)">
    <rect width="140" height="70" rx="8" fill="#1e293b" stroke="#8b5cf6" stroke-width="2"/>
    <text x="70" y="22" text-anchor="middle" class="heading">Background Sync</text>
    <text x="70" y="40" text-anchor="middle" class="text-sm">ServiceWorker</text>
    <text x="70" y="54" text-anchor="middle" class="annotation">sync event</text>
  </g>

  <!-- Visibility fallback -->
  <g transform="translate(460, 510)">
    <rect width="140" height="70" rx="8" fill="#1e293b" stroke="#475569" stroke-width="2" stroke-dasharray="4,2"/>
    <text x="70" y="22" text-anchor="middle" class="heading">Fallback</text>
    <text x="70" y="40" text-anchor="middle" class="text-sm">visibilitychange</text>
    <text x="70" y="54" text-anchor="middle" class="text-muted">(no BG sync support)</text>
  </g>

  <!-- OR labels -->
  <text x="230" y="545" text-anchor="middle" class="text-muted">OR</text>
  <text x="430" y="545" text-anchor="middle" class="text-muted">OR</text>

  <!-- Arrow from queue to triggers -->
  <path d="M 130 450 L 130 510" stroke="#8b5cf6" stroke-width="2" marker-end="url(#arrowhead)"/>

  <!-- === ROW 4: SYNC PROCESS === -->
  <text x="660" y="490" class="label-flow">SYNC PROCESS</text>

  <!-- Process queue -->
  <g transform="translate(660, 510)">
    <rect width="140" height="70" rx="8" fill="#1e293b" stroke="#8b5cf6" stroke-width="2"/>
    <text x="70" y="22" text-anchor="middle" class="heading">Process Queue</text>
    <text x="70" y="40" text-anchor="middle" class="text-md">FIFO order</text>
    <!-- Spinner -->
    <g transform="translate(70, 56)">
      <circle cx="0" cy="0" r="8" fill="none" stroke="#334155" stroke-width="2"/>
      <path d="M 0 -8 A 8 8 0 0 1 8 0" fill="none" stroke="#8b5cf6" stroke-width="2" stroke-linecap="round">
        <animateTransform attributeName="transform" type="rotate" from="0" to="360" dur="1s" repeatCount="indefinite"/>
      </path>
    </g>
  </g>

  <!-- Arrows from triggers to process -->
  <line x1="600" y1="545" x2="660" y2="545" stroke="#8b5cf6" stroke-width="2" marker-end="url(#arrowhead)"/>

  <!-- API Call -->
  <g transform="translate(860, 510)">
    <rect width="130" height="70" rx="8" fill="#1e293b" stroke="#8b5cf6" stroke-width="2"/>
    <text x="65" y="22" text-anchor="middle" class="heading">POST to API</text>
    <text x="65" y="40" text-anchor="middle" class="text-md">/api/form</text>
    <text x="65" y="54" text-anchor="middle" class="text-sm">Each item</text>
  </g>

  <!-- Arrow to API -->
  <line x1="800" y1="545" x2="860" y2="545" stroke="#8b5cf6" stroke-width="2" marker-end="url(#arrowhead)"/>

  <!-- === ROW 5: RESULTS === -->
  <text x="1040" y="490" class="label-flow">RESULTS</text>

  <!-- Success path -->
  <g transform="translate(1040, 510)">
    <rect width="130" height="70" rx="8" fill="#1e293b" stroke="#22c55e" stroke-width="2"/>
    <text x="65" y="22" text-anchor="middle" class="heading">Success</text>
    <text x="65" y="40" text-anchor="middle" class="text-md">Remove from</text>
    <text x="65" y="54" text-anchor="middle" class="text-md">queue</text>
  </g>

  <!-- Failure path -->
  <g transform="translate(1040, 610)">
    <rect width="130" height="80" rx="8" fill="#1e293b" stroke="#ef4444" stroke-width="2"/>
    <text x="65" y="22" text-anchor="middle" class="heading">Failure</text>
    <text x="65" y="40" text-anchor="middle" class="text-md">Increment retry</text>
    <text x="65" y="56" text-anchor="middle" class="text-sm">Max: 3 attempts</text>
    <text x="65" y="70" text-anchor="middle" class="text-muted">Keep in queue</text>
  </g>

  <!-- Arrows to results -->
  <line x1="990" y1="535" x2="1040" y2="535" stroke="#22c55e" stroke-width="2" marker-end="url(#arrowheadGreen)"/>
  <line x1="990" y1="555" x2="1010" y2="650" stroke="#ef4444" stroke-width="2"/>
  <line x1="1010" y1="650" x2="1040" y2="650" stroke="#ef4444" stroke-width="2" marker-end="url(#arrowheadRed)"/>

  <!-- Retry arrow back -->
  <path d="M 1105 690 L 1105 720 L 730 720 L 730 580" stroke="#ef4444" stroke-width="2" stroke-dasharray="6,3" marker-end="url(#arrowheadRed)"/>
  <text x="900" y="738" text-anchor="middle" class="label-error">RETRY (if attempts &lt; 3)</text>

  <!-- === NOTIFICATIONS SECTION === -->
  <g transform="translate(1200, 110)">
    <rect width="160" height="200" rx="8" fill="#1e293b" stroke="#475569" stroke-width="1"/>
    <text x="80" y="25" text-anchor="middle" class="heading">Notifications</text>

    <!-- Success toast -->
    <g transform="translate(10, 40)">
      <rect width="140" height="36" rx="6" fill="#22c55e" opacity="0.15"/>
      <circle cx="18" cy="18" r="8" fill="#22c55e" opacity="0.3"/>
      <path d="M14 18 L17 21 L23 15" stroke="#22c55e" stroke-width="2" fill="none"/>
      <text x="34" y="15" class="text-sm" fill="#22c55e">Synced!</text>
      <text x="34" y="27" class="text-muted">3 items sent</text>
    </g>

    <!-- Queued toast -->
    <g transform="translate(10, 90)">
      <rect width="140" height="36" rx="6" fill="#eab308" opacity="0.15"/>
      <circle cx="18" cy="18" r="8" fill="#eab308" opacity="0.3"/>
      <text x="18" y="22" text-anchor="middle" font-size="10" fill="#eab308">⏳</text>
      <text x="34" y="15" class="text-sm" fill="#eab308">Saved offline</text>
      <text x="34" y="27" class="text-muted">Will sync later</text>
    </g>

    <!-- Error toast -->
    <g transform="translate(10, 140)">
      <rect width="140" height="50" rx="6" fill="#ef4444" opacity="0.15"/>
      <circle cx="18" cy="18" r="8" fill="#ef4444" opacity="0.3"/>
      <text x="18" y="22" text-anchor="middle" font-size="10" fill="#ef4444">!</text>
      <text x="34" y="15" class="text-sm" fill="#ef4444">Sync failed</text>
      <text x="34" y="27" class="text-muted">Retry later</text>
      <rect x="34" y="34" width="50" height="14" rx="4" fill="#ef4444" opacity="0.3"/>
      <text x="59" y="44" text-anchor="middle" font-size="8" fill="#ef4444">RETRY</text>
    </g>
  </g>

  <!-- === LEGEND === -->
  <g transform="translate(40, 720)">
    <text x="0" y="0" class="heading">LEGEND</text>

    <line x1="0" y1="20" x2="40" y2="20" stroke="#8b5cf6" stroke-width="2"/>
    <text x="50" y="24" class="text-sm">Normal flow</text>

    <line x1="150" y1="20" x2="190" y2="20" stroke="#22c55e" stroke-width="2"/>
    <text x="200" y="24" class="text-sm">Success path</text>

    <line x1="300" y1="20" x2="340" y2="20" stroke="#eab308" stroke-width="2"/>
    <text x="350" y="24" class="text-sm">Offline path</text>

    <line x1="450" y1="20" x2="490" y2="20" stroke="#ef4444" stroke-width="2"/>
    <text x="500" y="24" class="text-sm">Error path</text>

    <line x1="600" y1="20" x2="640" y2="20" stroke="#475569" stroke-width="2" stroke-dasharray="4,2"/>
    <text x="650" y="24" class="text-sm">Fallback/optional</text>
  </g>

  <!-- Key metrics box -->
  <g transform="translate(850, 680)">
    <rect width="510" height="80" rx="8" fill="#1e293b" stroke="#475569" stroke-width="1"/>
    <text x="20" y="25" class="heading">KEY REQUIREMENTS</text>
    <text x="20" y="45" class="text-sm">• Queue persists in IndexedDB across browser sessions (FR-002)</text>
    <text x="20" y="60" class="text-sm">• Auto-sync within 30 seconds of reconnection (SC-002)</text>
    <text x="280" y="45" class="text-sm">• Max 3 retry attempts (FR-011)</text>
    <text x="280" y="60" class="text-sm">• FIFO processing order (FR-003)</text>
  </g>
</svg>