<svg xmlns="http://www.w3.org/2000/svg" viewBox="0 0 1400 800" width="1400" height="800">
  <!-- ============================================================
       GENERATED BY: /wireframe skill
       SOURCE: features/enhancements/020-pwa-background-sync/spec.md
       DATE: 2026-01-01
       THEME: Light (UX/Frontend) - v3 True Parchment
       DO NOT MANUALLY EDIT - Regenerate with /wireframe command
       ============================================================ -->
  <defs>
    <linearGradient id="bgGrad" x1="0%" y1="0%" x2="100%" y2="100%">
      <stop offset="0%" style="stop-color:#c7ddf5"/>
      <stop offset="100%" style="stop-color:#b8d4f0"/>
    </linearGradient>
    <linearGradient id="accentGrad" x1="0%" y1="0%" x2="100%" y2="0%">
      <stop offset="0%" style="stop-color:#8b5cf6"/>
      <stop offset="100%" style="stop-color:#d946ef"/>
    </linearGradient>
    <style>
      .heading-lg { fill: #1a1a2e; font-family: system-ui, sans-serif; font-size: 24px; font-weight: 800; }
      .heading { fill: #1a1a2e; font-family: system-ui, sans-serif; font-size: 16px; font-weight: 700; }
      .text-md { fill: #2d3748; font-family: system-ui, sans-serif; font-size: 14px; font-weight: 500; }
      .text-sm { fill: #374151; font-family: system-ui, sans-serif; font-size: 12px; font-weight: 500; }
      .text-muted { fill: #4b5563; font-family: system-ui, sans-serif; font-size: 11px; font-weight: 500; }
      .annotation { fill: #6d28d9; font-family: monospace; font-size: 12px; font-weight: 600; }
      .label-desktop { fill: #8b5cf6; font-family: monospace; font-size: 13px; font-weight: bold; }
      .label-mobile { fill: #d946ef; font-family: monospace; font-size: 13px; font-weight: bold; }
      .state-label { fill: #1a1a2e; font-family: system-ui, sans-serif; font-size: 14px; font-weight: 700; }
    </style>
  </defs>

  <!-- Background -->
  <rect width="1400" height="800" fill="url(#bgGrad)"/>

  <!-- Dot grid pattern -->
  <g opacity="0.35">
    <pattern id="dots" width="30" height="30" patternUnits="userSpaceOnUse">
      <circle cx="15" cy="15" r="1" fill="#6b8cba"/>
    </pattern>
    <rect width="1400" height="800" fill="url(#dots)"/>
  </g>

  <!-- Accent line top -->
  <rect x="0" y="0" width="1400" height="3" fill="url(#accentGrad)"/>

  <!-- Title -->
  <text x="700" y="28" text-anchor="middle" font-family="system-ui, sans-serif" font-size="14" font-weight="600" fill="#4b5563" letter-spacing="1">PWA BACKGROUND SYNC — QUEUE STATE VARIATIONS</text>

  <!-- STATE 1: PENDING -->
  <text x="60" y="60" class="label-desktop">STATE 1: PENDING</text>
  <rect x="40" y="70" width="310" height="340" rx="12" fill="#e8d4b8" stroke="#b8a080" stroke-width="1"/>

  <!-- Pending header -->
  <rect x="50" y="80" width="290" height="36" rx="6" fill="#fef3c7" stroke="#f59e0b" stroke-width="1"/>
  <circle cx="70" cy="98" r="8" fill="#f59e0b"/>
  <text x="85" y="103" class="text-md" fill="#92400e" font-weight="600">3 Pending Submissions</text>

  <!-- Pending item cards -->
  <rect x="50" y="130" width="290" height="70" rx="6" fill="#f5f0e6" stroke="#b8a080" stroke-width="1"/>
  <circle cx="70" cy="150" r="10" fill="#f59e0b"/>
  <text x="85" y="155" class="text-md" font-weight="600">Contact Form</text>
  <text x="85" y="175" class="text-sm">Queued 2 min ago</text>
  <text x="85" y="192" class="text-muted">Waiting for connection...</text>

  <rect x="50" y="210" width="290" height="70" rx="6" fill="#f5f0e6" stroke="#b8a080" stroke-width="1"/>
  <circle cx="70" cy="230" r="10" fill="#f59e0b"/>
  <text x="85" y="235" class="text-md" font-weight="600">Feedback Form</text>
  <text x="85" y="255" class="text-sm">Queued 5 min ago</text>
  <text x="85" y="272" class="text-muted">Waiting for connection...</text>

  <rect x="50" y="290" width="290" height="70" rx="6" fill="#f5f0e6" stroke="#b8a080" stroke-width="1"/>
  <circle cx="70" cy="310" r="10" fill="#f59e0b"/>
  <text x="85" y="315" class="text-md" font-weight="600">Newsletter</text>
  <text x="85" y="335" class="text-sm">Queued 10 min ago</text>
  <text x="85" y="352" class="text-muted">Waiting for connection...</text>

  <!-- Pending info -->
  <rect x="50" y="370" width="290" height="30" rx="4" fill="#dcc8a8"/>
  <text x="195" y="390" text-anchor="middle" class="text-sm">Data stored locally</text>

  <!-- STATE 2: SYNCING -->
  <text x="400" y="60" class="label-desktop">STATE 2: SYNCING</text>
  <rect x="380" y="70" width="310" height="340" rx="12" fill="#e8d4b8" stroke="#b8a080" stroke-width="1"/>

  <!-- Syncing header -->
  <rect x="390" y="80" width="290" height="36" rx="6" fill="#e0f2fe" stroke="#0ea5e9" stroke-width="1"/>
  <!-- Spinning indicator -->
  <circle cx="410" cy="98" r="8" fill="none" stroke="#0ea5e9" stroke-width="2" stroke-dasharray="12,6"/>
  <text x="425" y="103" class="text-md" fill="#0369a1" font-weight="600">Syncing... (1 of 3)</text>

  <!-- Syncing item (active) -->
  <rect x="390" y="130" width="290" height="70" rx="6" fill="#e0f2fe" stroke="#0ea5e9" stroke-width="2"/>
  <circle cx="410" cy="150" r="10" fill="none" stroke="#0ea5e9" stroke-width="2" stroke-dasharray="15,8"/>
  <text x="425" y="155" class="text-md" fill="#0369a1" font-weight="600">Contact Form</text>
  <text x="425" y="175" class="text-sm" fill="#0369a1">Sending now...</text>
  <!-- Progress bar -->
  <rect x="425" y="185" width="240" height="6" rx="3" fill="#bae6fd"/>
  <rect x="425" y="185" width="120" height="6" rx="3" fill="#0ea5e9"/>

  <!-- Waiting items -->
  <rect x="390" y="210" width="290" height="70" rx="6" fill="#f5f0e6" stroke="#b8a080" stroke-width="1"/>
  <circle cx="410" cy="230" r="10" fill="#f59e0b"/>
  <text x="425" y="235" class="text-md" font-weight="600">Feedback Form</text>
  <text x="425" y="255" class="text-sm">Next in queue</text>
  <text x="425" y="272" class="text-muted">Waiting...</text>

  <rect x="390" y="290" width="290" height="70" rx="6" fill="#f5f0e6" stroke="#b8a080" stroke-width="1"/>
  <circle cx="410" cy="310" r="10" fill="#f59e0b"/>
  <text x="425" y="315" class="text-md" font-weight="600">Newsletter</text>
  <text x="425" y="335" class="text-sm">Queued</text>
  <text x="425" y="352" class="text-muted">Waiting...</text>

  <!-- Syncing info -->
  <rect x="390" y="370" width="290" height="30" rx="4" fill="#e0f2fe"/>
  <text x="535" y="390" text-anchor="middle" class="text-sm" fill="#0369a1">Connection restored</text>

  <!-- STATE 3: SUCCESS -->
  <text x="740" y="60" class="label-desktop">STATE 3: SUCCESS</text>
  <rect x="720" y="70" width="310" height="340" rx="12" fill="#e8d4b8" stroke="#b8a080" stroke-width="1"/>

  <!-- Success header -->
  <rect x="730" y="80" width="290" height="36" rx="6" fill="#dcfce7" stroke="#22c55e" stroke-width="1"/>
  <circle cx="750" cy="98" r="8" fill="#22c55e"/>
  <text x="762" y="94" fill="#fff" font-family="system-ui" font-size="10" font-weight="bold">✓</text>
  <text x="765" y="103" class="text-md" fill="#166534" font-weight="600">All Synced!</text>

  <!-- Success notification toast -->
  <rect x="730" y="130" width="290" height="60" rx="8" fill="#22c55e"/>
  <circle cx="755" cy="160" r="12" fill="#fff"/>
  <text x="755" y="165" text-anchor="middle" fill="#22c55e" font-family="system-ui" font-size="14" font-weight="bold">✓</text>
  <text x="775" y="150" fill="#fff" font-family="system-ui" font-size="14" font-weight="600">3 submissions sent</text>
  <text x="775" y="170" fill="#dcfce7" font-family="system-ui" font-size="12">All your forms were delivered</text>

  <!-- Empty state -->
  <rect x="730" y="210" width="290" height="150" rx="6" fill="#f5f0e6" stroke="#b8a080" stroke-width="1"/>
  <circle cx="875" cy="260" r="30" fill="#dcc8a8"/>
  <text x="875" y="268" text-anchor="middle" fill="#4b5563" font-size="24">✓</text>
  <text x="875" y="310" text-anchor="middle" class="text-md">Queue is empty</text>
  <text x="875" y="330" text-anchor="middle" class="text-muted">All submissions delivered</text>

  <!-- History link -->
  <rect x="730" y="370" width="290" height="30" rx="4" fill="#dcc8a8"/>
  <text x="875" y="390" text-anchor="middle" class="text-sm" fill="#8b5cf6">View sync history →</text>

  <!-- STATE 4: FAILED -->
  <text x="1080" y="60" class="label-mobile">STATE 4: FAILED</text>
  <rect x="1060" y="70" width="310" height="340" rx="12" fill="#e8d4b8" stroke="#b8a080" stroke-width="1"/>

  <!-- Failed header -->
  <rect x="1070" y="80" width="290" height="36" rx="6" fill="#fee2e2" stroke="#ef4444" stroke-width="1"/>
  <circle cx="1090" cy="98" r="8" fill="#ef4444"/>
  <text x="1090" y="102" text-anchor="middle" fill="#fff" font-family="system-ui" font-size="10" font-weight="bold">!</text>
  <text x="1105" y="103" class="text-md" fill="#991b1b" font-weight="600">1 Failed (2 Sent)</text>

  <!-- Success items (collapsed) -->
  <rect x="1070" y="130" width="290" height="40" rx="6" fill="#dcfce7" stroke="#22c55e" stroke-width="1"/>
  <circle cx="1090" cy="150" r="8" fill="#22c55e"/>
  <text x="1102" y="146" fill="#fff" font-family="system-ui" font-size="8" font-weight="bold">✓</text>
  <text x="1105" y="155" class="text-sm" fill="#166534">2 items sent successfully</text>

  <!-- Failed item -->
  <rect x="1070" y="180" width="290" height="90" rx="6" fill="#fee2e2" stroke="#ef4444" stroke-width="2"/>
  <circle cx="1090" cy="200" r="10" fill="#ef4444"/>
  <text x="1090" y="205" text-anchor="middle" fill="#fff" font-family="system-ui" font-size="12" font-weight="bold">!</text>
  <text x="1105" y="205" class="text-md" fill="#991b1b" font-weight="600">Newsletter Signup</text>
  <text x="1105" y="225" class="text-sm" fill="#991b1b">Failed after 3 retries</text>
  <text x="1105" y="245" class="text-muted" fill="#991b1b">Server error: 503</text>
  <!-- Retry button -->
  <rect x="1260" y="195" width="80" height="28" rx="6" fill="#ef4444"/>
  <text x="1300" y="214" text-anchor="middle" fill="#fff" font-family="system-ui" font-size="11" font-weight="600">Retry</text>
  <!-- Delete button -->
  <rect x="1260" y="230" width="80" height="24" rx="6" fill="none" stroke="#ef4444" stroke-width="1"/>
  <text x="1300" y="247" text-anchor="middle" fill="#ef4444" font-family="system-ui" font-size="10">Discard</text>

  <!-- Error details -->
  <rect x="1070" y="280" width="290" height="80" rx="6" fill="#f5f0e6" stroke="#b8a080" stroke-width="1"/>
  <text x="1090" y="305" class="text-sm" font-weight="600">What happened?</text>
  <text x="1090" y="325" class="text-muted">The server was temporarily</text>
  <text x="1090" y="340" class="text-muted">unavailable. Try again or contact</text>
  <text x="1090" y="355" class="text-muted">support if this continues.</text>

  <!-- Retry all -->
  <rect x="1070" y="370" width="140" height="30" rx="4" fill="#8b5cf6"/>
  <text x="1140" y="390" text-anchor="middle" fill="#fff" font-family="system-ui" font-size="12" font-weight="600">Retry Failed</text>
  <rect x="1220" y="370" width="140" height="30" rx="4" fill="#dcc8a8"/>
  <text x="1290" y="390" text-anchor="middle" class="text-sm">Clear All</text>

  <!-- MOBILE STATES ROW -->
  <text x="60" y="440" class="label-mobile">MOBILE TOAST NOTIFICATIONS</text>

  <!-- Mobile phone 1: Queued toast -->
  <rect x="40" y="455" width="160" height="320" rx="16" fill="#c8b898" stroke="#a08860" stroke-width="2"/>
  <rect x="48" y="463" width="144" height="304" rx="12" fill="#e8d4b8"/>
  <!-- Status bar -->
  <rect x="48" y="463" width="144" height="20" rx="12" fill="#dcc8a8"/>
  <text x="58" y="477" class="text-muted" font-size="9">9:41</text>

  <!-- Toast overlay -->
  <rect x="55" y="700" width="130" height="50" rx="8" fill="#f59e0b"/>
  <circle cx="75" cy="725" r="10" fill="#fff"/>
  <text x="75" y="730" text-anchor="middle" fill="#f59e0b" font-size="10" font-weight="bold">!</text>
  <text x="90" y="718" fill="#fff" font-size="10" font-weight="600">Saved offline</text>
  <text x="90" y="732" fill="#fef3c7" font-size="8">Will sync when online</text>

  <text x="120" y="795" text-anchor="middle" class="text-muted">QUEUED</text>

  <!-- Mobile phone 2: Syncing toast -->
  <rect x="220" y="455" width="160" height="320" rx="16" fill="#c8b898" stroke="#a08860" stroke-width="2"/>
  <rect x="228" y="463" width="144" height="304" rx="12" fill="#e8d4b8"/>
  <rect x="228" y="463" width="144" height="20" rx="12" fill="#dcc8a8"/>
  <text x="238" y="477" class="text-muted" font-size="9">9:41</text>

  <!-- Syncing toast -->
  <rect x="235" y="700" width="130" height="50" rx="8" fill="#0ea5e9"/>
  <circle cx="255" cy="725" r="10" fill="none" stroke="#fff" stroke-width="2" stroke-dasharray="15,8"/>
  <text x="270" y="718" fill="#fff" font-size="10" font-weight="600">Syncing...</text>
  <text x="270" y="732" fill="#bae6fd" font-size="8">1 of 3 items</text>

  <text x="300" y="795" text-anchor="middle" class="text-muted">SYNCING</text>

  <!-- Mobile phone 3: Success toast -->
  <rect x="400" y="455" width="160" height="320" rx="16" fill="#c8b898" stroke="#a08860" stroke-width="2"/>
  <rect x="408" y="463" width="144" height="304" rx="12" fill="#e8d4b8"/>
  <rect x="408" y="463" width="144" height="20" rx="12" fill="#dcc8a8"/>
  <text x="418" y="477" class="text-muted" font-size="9">9:41</text>

  <!-- Success toast -->
  <rect x="415" y="700" width="130" height="50" rx="8" fill="#22c55e"/>
  <circle cx="435" cy="725" r="10" fill="#fff"/>
  <text x="435" y="730" text-anchor="middle" fill="#22c55e" font-size="12" font-weight="bold">✓</text>
  <text x="450" y="718" fill="#fff" font-size="10" font-weight="600">All sent!</text>
  <text x="450" y="732" fill="#dcfce7" font-size="8">3 items delivered</text>

  <text x="480" y="795" text-anchor="middle" class="text-muted">SUCCESS</text>

  <!-- Mobile phone 4: Error toast -->
  <rect x="580" y="455" width="160" height="320" rx="16" fill="#c8b898" stroke="#a08860" stroke-width="2"/>
  <rect x="588" y="463" width="144" height="304" rx="12" fill="#e8d4b8"/>
  <rect x="588" y="463" width="144" height="20" rx="12" fill="#dcc8a8"/>
  <text x="598" y="477" class="text-muted" font-size="9">9:41</text>

  <!-- Error toast -->
  <rect x="595" y="690" width="130" height="60" rx="8" fill="#ef4444"/>
  <circle cx="615" cy="720" r="10" fill="#fff"/>
  <text x="615" y="725" text-anchor="middle" fill="#ef4444" font-size="12" font-weight="bold">!</text>
  <text x="630" y="710" fill="#fff" font-size="10" font-weight="600">Sync failed</text>
  <text x="630" y="724" fill="#fecaca" font-size="8">1 item needs retry</text>
  <rect x="630" y="732" width="50" height="16" rx="4" fill="#fff"/>
  <text x="655" y="744" text-anchor="middle" fill="#ef4444" font-size="8" font-weight="600">Retry</text>

  <text x="660" y="795" text-anchor="middle" class="text-muted">FAILED</text>

  <!-- FR Reference panel -->
  <rect x="770" y="455" width="280" height="160" rx="8" fill="#dcc8a8" stroke="#b8a080" stroke-width="1"/>
  <text x="790" y="480" class="heading">Functional Requirements</text>
  <text x="790" y="505" class="text-sm">FR-015: Success notification</text>
  <text x="790" y="525" class="text-sm">FR-016: Failure notification</text>
  <text x="790" y="545" class="text-sm">FR-009: Automatic retry</text>
  <text x="790" y="565" class="text-sm">FR-010: Track retry count</text>
  <text x="790" y="585" class="text-sm">FR-011: Max retry limit (3)</text>
  <text x="790" y="605" class="text-sm">FR-012: Keep failed in queue</text>

  <!-- State flow diagram -->
  <rect x="1070" y="455" width="290" height="160" rx="8" fill="#f5f0e6" stroke="#b8a080" stroke-width="1"/>
  <text x="1215" y="480" text-anchor="middle" class="heading">State Flow</text>

  <!-- State boxes -->
  <rect x="1085" y="495" width="60" height="25" rx="4" fill="#f59e0b"/>
  <text x="1115" y="512" text-anchor="middle" fill="#fff" font-size="10">Pending</text>

  <rect x="1160" y="495" width="60" height="25" rx="4" fill="#0ea5e9"/>
  <text x="1190" y="512" text-anchor="middle" fill="#fff" font-size="10">Syncing</text>

  <rect x="1235" y="495" width="60" height="25" rx="4" fill="#22c55e"/>
  <text x="1265" y="512" text-anchor="middle" fill="#fff" font-size="10">Success</text>

  <rect x="1280" y="535" width="60" height="25" rx="4" fill="#ef4444"/>
  <text x="1310" y="552" text-anchor="middle" fill="#fff" font-size="10">Failed</text>

  <!-- Arrows -->
  <line x1="1145" y1="507" x2="1158" y2="507" stroke="#374151" stroke-width="2" marker-end="url(#arrowhead)"/>
  <line x1="1220" y1="507" x2="1233" y2="507" stroke="#374151" stroke-width="2"/>
  <line x1="1220" y1="520" x2="1280" y2="545" stroke="#374151" stroke-width="1"/>

  <!-- Retry arrow -->
  <path d="M1280,555 Q1250,580 1160,520" stroke="#ef4444" stroke-width="1" fill="none" stroke-dasharray="4,2"/>
  <text x="1210" y="575" class="text-muted" fill="#ef4444">retry</text>

  <!-- Offline restore arrow -->
  <path d="M1115,520 Q1115,540 1160,520" stroke="#f59e0b" stroke-width="1" fill="none"/>
  <text x="1100" y="545" class="text-muted">online</text>
</svg>
