<svg xmlns="http://www.w3.org/2000/svg" viewBox="0 0 1400 800" width="1400" height="800">
  <!-- ============================================================
       GENERATED BY: /wireframe skill
       SOURCE: features/enhancements/020-pwa-background-sync/spec.md
       DATE: 2025-12-31
       DO NOT MANUALLY EDIT - Regenerate with /wireframe command
       ============================================================ -->
  <defs>
    <linearGradient id="bgGrad" x1="0%" y1="0%" x2="100%" y2="100%">
      <stop offset="0%" style="stop-color:#0f172a"/>
      <stop offset="100%" style="stop-color:#1e293b"/>
    </linearGradient>
    <linearGradient id="accentGrad" x1="0%" y1="0%" x2="100%" y2="0%">
      <stop offset="0%" style="stop-color:#8b5cf6"/>
      <stop offset="100%" style="stop-color:#d946ef"/>
    </linearGradient>
    <style>
      .heading-lg { fill: #ffffff; font-family: system-ui, sans-serif; font-size: 20px; font-weight: bold; }
      .heading { fill: #ffffff; font-family: system-ui, sans-serif; font-size: 14px; font-weight: bold; }
      .heading-sm { fill: #ffffff; font-family: system-ui, sans-serif; font-size: 12px; font-weight: bold; }
      .text-md { fill: #cbd5e1; font-family: system-ui, sans-serif; font-size: 12px; }
      .text-sm { fill: #94a3b8; font-family: system-ui, sans-serif; font-size: 10px; }
      .text-muted { fill: #64748b; font-family: system-ui, sans-serif; font-size: 10px; }
      .annotation { fill: #8b5cf6; font-family: monospace; font-size: 10px; }
      .label-desktop { fill: #8b5cf6; font-family: monospace; font-size: 11px; font-weight: bold; }
      .label-mobile { fill: #d946ef; font-family: monospace; font-size: 11px; font-weight: bold; }
    </style>
  </defs>

  <!-- Background -->
  <rect width="1400" height="800" fill="url(#bgGrad)"/>

  <!-- Dot grid pattern -->
  <g opacity="0.05">
    <pattern id="dots" width="30" height="30" patternUnits="userSpaceOnUse">
      <circle cx="15" cy="15" r="1" fill="#fff"/>
    </pattern>
    <rect width="1400" height="800" fill="url(#dots)"/>
  </g>

  <!-- Accent line top -->
  <rect x="0" y="0" width="1400" height="3" fill="url(#accentGrad)"/>

  <!-- Title -->
  <text x="700" y="28" text-anchor="middle" font-family="system-ui, sans-serif" font-size="14" font-weight="600" fill="#64748b" letter-spacing="1">PWA BACKGROUND SYNC - UI STATES</text>

  <!-- DESKTOP SECTION (left) -->
  <text x="40" y="52" class="label-desktop">DESKTOP - FORM WITH SYNC STATUS</text>
  <g id="desktop-view">
    <!-- Desktop browser frame -->
    <rect x="40" y="60" width="900" height="680" rx="8" fill="#1e293b" stroke="#475569" stroke-width="1"/>

    <!-- Browser chrome -->
    <rect x="40" y="60" width="900" height="36" rx="8" fill="#334155"/>
    <circle cx="60" cy="78" r="6" fill="#ef4444"/>
    <circle cx="78" cy="78" r="6" fill="#eab308"/>
    <circle cx="96" cy="78" r="6" fill="#22c55e"/>
    <rect x="180" y="68" width="600" height="20" rx="10" fill="#1e293b"/>
    <text x="280" y="82" class="text-sm">scripthammer.com/contact</text>

    <!-- Header with connectivity status -->
    <rect x="50" y="106" width="880" height="50" rx="4" fill="#0f172a"/>
    <text x="70" y="136" class="heading">ScriptHammer</text>

    <!-- Online indicator (green) -->
    <g transform="translate(820, 118)">
      <rect width="100" height="28" rx="14" fill="#22c55e" opacity="0.15"/>
      <circle cx="18" cy="14" r="5" fill="#22c55e"/>
      <text x="55" y="18" text-anchor="middle" font-family="system-ui" font-size="11" fill="#22c55e">Online</text>
    </g>

    <!-- Main content area with form -->
    <rect x="50" y="166" width="580" height="560" rx="4" fill="#0f172a"/>

    <!-- Form title -->
    <text x="70" y="200" class="heading-lg">Contact Us</text>
    <text x="70" y="220" class="text-sm">We'll get back to you within 24 hours</text>

    <!-- Form fields -->
    <!-- Name -->
    <text x="70" y="255" class="text-sm">Name</text>
    <rect x="70" y="262" width="540" height="36" rx="6" fill="#1e293b" stroke="#475569" stroke-width="1"/>
    <text x="85" y="285" class="text-md">John Doe</text>

    <!-- Email -->
    <text x="70" y="320" class="text-sm">Email</text>
    <rect x="70" y="327" width="540" height="36" rx="6" fill="#1e293b" stroke="#475569" stroke-width="1"/>
    <text x="85" y="350" class="text-md">john@example.com</text>

    <!-- Message -->
    <text x="70" y="385" class="text-sm">Message</text>
    <rect x="70" y="392" width="540" height="120" rx="6" fill="#1e293b" stroke="#475569" stroke-width="1"/>
    <text x="85" y="420" class="text-md">Hi, I'm interested in learning more</text>
    <text x="85" y="438" class="text-md">about your services...</text>

    <!-- Submit button -->
    <rect x="70" y="530" width="540" height="44" rx="6" fill="#8b5cf6"/>
    <text x="340" y="557" text-anchor="middle" class="heading" fill="#fff">Send Message</text>

    <!-- ==== SYNC STATUS PANEL (Right sidebar) ==== -->
    <rect x="650" y="166" width="280" height="560" rx="4" fill="#0f172a"/>

    <!-- Sync status header -->
    <rect x="660" y="176" width="260" height="40" rx="4" fill="#1e293b"/>
    <text x="680" y="202" class="heading">Sync Status</text>
    <!-- Animated sync icon -->
    <g transform="translate(890, 196)">
      <circle cx="0" cy="0" r="10" fill="none" stroke="#334155" stroke-width="2"/>
      <path d="M 0 -10 A 10 10 0 0 1 10 0" fill="none" stroke="#22c55e" stroke-width="2" stroke-linecap="round">
        <animateTransform attributeName="transform" type="rotate" from="0" to="360" dur="2s" repeatCount="indefinite"/>
      </path>
    </g>

    <!-- Queue summary -->
    <rect x="660" y="226" width="260" height="80" rx="4" fill="#1e293b"/>
    <text x="680" y="250" class="heading-sm">Pending Submissions</text>
    <rect x="680" y="260" width="40" height="32" rx="16" fill="#8b5cf6" opacity="0.2"/>
    <text x="700" y="282" text-anchor="middle" font-family="system-ui" font-size="16" fill="#8b5cf6" font-weight="bold">0</text>
    <text x="735" y="282" class="text-md">All synced</text>

    <!-- Recent activity -->
    <text x="680" y="330" class="heading-sm">Recent Activity</text>

    <!-- Activity item 1 - Success -->
    <g transform="translate(660, 345)">
      <rect width="260" height="50" rx="4" fill="#22c55e" opacity="0.1"/>
      <circle cx="25" cy="25" r="10" fill="#22c55e" opacity="0.3"/>
      <path d="M20 25 L24 29 L31 22" stroke="#22c55e" stroke-width="2" fill="none"/>
      <text x="45" y="22" class="text-md" fill="#22c55e">Form submitted</text>
      <text x="45" y="38" class="text-muted">2 minutes ago</text>
    </g>

    <!-- Activity item 2 - Success -->
    <g transform="translate(660, 405)">
      <rect width="260" height="50" rx="4" fill="#22c55e" opacity="0.1"/>
      <circle cx="25" cy="25" r="10" fill="#22c55e" opacity="0.3"/>
      <path d="M20 25 L24 29 L31 22" stroke="#22c55e" stroke-width="2" fill="none"/>
      <text x="45" y="22" class="text-md" fill="#22c55e">Newsletter signup</text>
      <text x="45" y="38" class="text-muted">15 minutes ago</text>
    </g>

    <!-- Storage info -->
    <rect x="660" y="475" width="260" height="60" rx="4" fill="#1e293b"/>
    <text x="680" y="498" class="heading-sm">Local Storage</text>
    <rect x="680" y="510" width="220" height="6" rx="3" fill="#334155"/>
    <rect x="680" y="510" width="44" height="6" rx="3" fill="#8b5cf6"/>
    <text x="680" y="528" class="text-muted">2.4 MB / 10 MB used</text>

    <!-- Manual sync button -->
    <rect x="660" y="555" width="260" height="36" rx="6" fill="#1e293b" stroke="#8b5cf6" stroke-width="1"/>
    <text x="790" y="578" text-anchor="middle" class="text-md" fill="#8b5cf6">Sync Now</text>

    <!-- Last sync time -->
    <text x="790" y="610" text-anchor="middle" class="text-muted">Last sync: Just now</text>
  </g>

  <!-- MOBILE SECTION (right) -->
  <text x="980" y="52" class="label-mobile">MOBILE - OFFLINE STATE</text>
  <g id="mobile-view" transform="translate(980, 60)">
    <!-- Phone frame -->
    <rect x="0" y="0" width="360" height="700" rx="24" fill="#1e293b" stroke="#475569" stroke-width="2"/>
    <!-- Screen area -->
    <rect x="10" y="10" width="340" height="680" rx="16" fill="#0f172a"/>
    <!-- Status bar -->
    <rect x="10" y="10" width="340" height="28" rx="16" fill="#1e293b"/>
    <text x="30" y="28" class="text-sm">9:41</text>
    <!-- No wifi icon -->
    <g transform="translate(290, 18)">
      <path d="M-8 -3 L8 -3 L0 7 Z" fill="none" stroke="#ef4444" stroke-width="1.5"/>
      <line x1="-6" y1="-6" x2="6" y2="6" stroke="#ef4444" stroke-width="2"/>
    </g>

    <!-- OFFLINE BANNER -->
    <rect x="10" y="48" width="340" height="40" fill="#ef4444" opacity="0.15"/>
    <g transform="translate(30, 58)">
      <!-- Offline icon -->
      <circle cx="10" cy="10" r="10" fill="#ef4444" opacity="0.3"/>
      <line x1="6" y1="6" x2="14" y2="14" stroke="#ef4444" stroke-width="2"/>
      <line x1="14" y1="6" x2="6" y2="14" stroke="#ef4444" stroke-width="2"/>
    </g>
    <text x="60" y="72" class="text-md" fill="#ef4444">You're offline - forms will sync when connected</text>

    <!-- Header -->
    <rect x="20" y="98" width="320" height="44" rx="4" fill="#1e293b"/>
    <text x="40" y="126" class="heading">Contact</text>
    <!-- Pending badge -->
    <rect x="270" y="108" width="60" height="24" rx="12" fill="#eab308" opacity="0.2"/>
    <text x="300" y="125" text-anchor="middle" font-family="system-ui" font-size="11" fill="#eab308" font-weight="bold">2 pending</text>

    <!-- Form -->
    <text x="30" y="165" class="text-sm">Name</text>
    <rect x="20" y="172" width="320" height="36" rx="6" fill="#1e293b" stroke="#475569" stroke-width="1"/>
    <text x="35" y="195" class="text-md">Sarah Smith</text>

    <text x="30" y="230" class="text-sm">Email</text>
    <rect x="20" y="237" width="320" height="36" rx="6" fill="#1e293b" stroke="#475569" stroke-width="1"/>
    <text x="35" y="260" class="text-md">sarah@email.com</text>

    <text x="30" y="295" class="text-sm">Message</text>
    <rect x="20" y="302" width="320" height="100" rx="6" fill="#1e293b" stroke="#475569" stroke-width="1"/>
    <text x="35" y="330" class="text-md">Question about pricing</text>
    <text x="35" y="348" class="text-md">for enterprise plans...</text>

    <!-- Submit button (offline style) -->
    <rect x="20" y="420" width="320" height="44" rx="6" fill="#eab308"/>
    <text x="180" y="447" text-anchor="middle" class="heading" fill="#0f172a">Save Offline</text>

    <!-- Pending queue section -->
    <rect x="20" y="480" width="320" height="190" rx="8" fill="#1e293b"/>
    <text x="40" y="508" class="heading-sm">Pending Submissions (2)</text>

    <!-- Queued item 1 -->
    <g transform="translate(30, 520)">
      <rect width="300" height="55" rx="4" fill="#eab308" opacity="0.1"/>
      <circle cx="20" cy="27" r="12" fill="#eab308" opacity="0.2"/>
      <text x="20" y="32" text-anchor="middle" font-size="12" fill="#eab308">⏳</text>
      <text x="45" y="22" class="text-md" fill="#eab308">Contact form</text>
      <text x="45" y="38" class="text-muted">Queued 5 min ago • Attempt 1/3</text>
      <!-- Retry indicator -->
      <rect x="240" y="12" width="50" height="20" rx="4" fill="#eab308" opacity="0.2"/>
      <text x="265" y="26" text-anchor="middle" font-size="9" fill="#eab308">WAITING</text>
    </g>

    <!-- Queued item 2 - with retry -->
    <g transform="translate(30, 585)">
      <rect width="300" height="55" rx="4" fill="#ef4444" opacity="0.1"/>
      <circle cx="20" cy="27" r="12" fill="#ef4444" opacity="0.2"/>
      <text x="20" y="32" text-anchor="middle" font-size="12" fill="#ef4444">!</text>
      <text x="45" y="22" class="text-md" fill="#ef4444">Newsletter signup</text>
      <text x="45" y="38" class="text-muted">Failed 2x • Will retry when online</text>
      <!-- Retry button -->
      <rect x="240" y="12" width="50" height="20" rx="4" fill="#ef4444" opacity="0.3"/>
      <text x="265" y="26" text-anchor="middle" font-size="9" fill="#ef4444">RETRY</text>
    </g>
  </g>

  <!-- Annotations -->
  <g transform="translate(940, 100)">
    <rect width="30" height="90" rx="4" fill="#1e293b" stroke="#d946ef" stroke-width="1"/>
    <text x="15" y="30" text-anchor="middle" writing-mode="tb" class="annotation" fill="#d946ef">FR-013</text>
    <text x="15" y="65" text-anchor="middle" writing-mode="tb" class="text-muted">offline</text>
    <text x="15" y="87" text-anchor="middle" writing-mode="tb" class="text-muted">status</text>
  </g>

  <g transform="translate(940, 200)">
    <rect width="30" height="65" rx="4" fill="#1e293b" stroke="#d946ef" stroke-width="1"/>
    <text x="15" y="25" text-anchor="middle" writing-mode="tb" class="annotation" fill="#d946ef">FR-014</text>
    <text x="15" y="55" text-anchor="middle" writing-mode="tb" class="text-muted">badge</text>
  </g>

  <g transform="translate(940, 480)">
    <rect width="30" height="90" rx="4" fill="#1e293b" stroke="#d946ef" stroke-width="1"/>
    <text x="15" y="25" text-anchor="middle" writing-mode="tb" class="annotation" fill="#d946ef">FR-010</text>
    <text x="15" y="55" text-anchor="middle" writing-mode="tb" class="text-muted">retry</text>
    <text x="15" y="80" text-anchor="middle" writing-mode="tb" class="text-muted">count</text>
  </g>

  <!-- Leader lines -->
  <g id="leader-lines">
    <line x1="970" y1="125" x2="995" y2="116" stroke="#d946ef" stroke-width="1" stroke-dasharray="4,2"/>
    <line x1="970" y1="230" x2="1000" y2="168" stroke="#d946ef" stroke-width="1" stroke-dasharray="4,2"/>
    <line x1="970" y1="540" x2="1020" y2="580" stroke="#d946ef" stroke-width="1" stroke-dasharray="4,2"/>
  </g>
</svg>