<svg xmlns="http://www.w3.org/2000/svg" viewBox="0 0 1400 800" width="1400" height="800">
  <!-- ============================================================
       GENERATED BY: /wireframe skill
       SOURCE: features/enhancements/020-pwa-background-sync/spec.md
       DATE: 2026-01-01
       THEME: Dark (Backend/Architecture)
       DO NOT MANUALLY EDIT - Regenerate with /wireframe command
       ============================================================ -->
  <defs>
    <linearGradient id="bgGrad" x1="0%" y1="0%" x2="100%" y2="100%">
      <stop offset="0%" style="stop-color:#0f172a"/>
      <stop offset="100%" style="stop-color:#1e293b"/>
    </linearGradient>
    <linearGradient id="accentGrad" x1="0%" y1="0%" x2="100%" y2="0%">
      <stop offset="0%" style="stop-color:#8b5cf6"/>
      <stop offset="100%" style="stop-color:#d946ef"/>
    </linearGradient>
    <marker id="arrowhead" markerWidth="10" markerHeight="7" refX="9" refY="3.5" orient="auto">
      <polygon points="0 0, 10 3.5, 0 7" fill="#8b5cf6"/>
    </marker>
    <marker id="arrowhead-green" markerWidth="10" markerHeight="7" refX="9" refY="3.5" orient="auto">
      <polygon points="0 0, 10 3.5, 0 7" fill="#22c55e"/>
    </marker>
    <marker id="arrowhead-orange" markerWidth="10" markerHeight="7" refX="9" refY="3.5" orient="auto">
      <polygon points="0 0, 10 3.5, 0 7" fill="#f59e0b"/>
    </marker>
    <marker id="arrowhead-cyan" markerWidth="10" markerHeight="7" refX="9" refY="3.5" orient="auto">
      <polygon points="0 0, 10 3.5, 0 7" fill="#0ea5e9"/>
    </marker>
    <style>
      .heading-lg { fill: #ffffff; font-family: system-ui, sans-serif; font-size: 20px; font-weight: bold; }
      .heading { fill: #ffffff; font-family: system-ui, sans-serif; font-size: 14px; font-weight: bold; }
      .text-md { fill: #cbd5e1; font-family: system-ui, sans-serif; font-size: 12px; }
      .text-sm { fill: #94a3b8; font-family: system-ui, sans-serif; font-size: 10px; }
      .text-muted { fill: #8494a8; font-family: system-ui, sans-serif; font-size: 10px; }
      .annotation { fill: #8b5cf6; font-family: monospace; font-size: 10px; }
      .label-section { fill: #8b5cf6; font-family: monospace; font-size: 11px; font-weight: bold; }
    </style>
  </defs>

  <!-- Background -->
  <rect width="1400" height="800" fill="url(#bgGrad)"/>

  <!-- Dot grid pattern -->
  <g opacity="0.05">
    <pattern id="dots" width="30" height="30" patternUnits="userSpaceOnUse">
      <circle cx="15" cy="15" r="1" fill="#fff"/>
    </pattern>
    <rect width="1400" height="800" fill="url(#dots)"/>
  </g>

  <!-- Accent line top -->
  <rect x="0" y="0" width="1400" height="3" fill="url(#accentGrad)"/>

  <!-- Title -->
  <text x="700" y="28" text-anchor="middle" font-family="system-ui, sans-serif" font-size="14" font-weight="600" fill="#8494a8" letter-spacing="1">PWA BACKGROUND SYNC — SYSTEM ARCHITECTURE</text>

  <!-- ===== CLIENT LAYER ===== -->
  <text x="60" y="60" class="label-section">CLIENT LAYER (BROWSER)</text>
  <rect x="40" y="70" width="600" height="280" rx="8" fill="#1e293b" stroke="#475569" stroke-width="1"/>

  <!-- UI Components -->
  <rect x="60" y="90" width="180" height="120" rx="6" fill="#334155" stroke="#8b5cf6" stroke-width="1"/>
  <text x="150" y="115" text-anchor="middle" class="heading">React UI</text>
  <rect x="75" y="130" width="150" height="24" rx="4" fill="#475569"/>
  <text x="150" y="147" text-anchor="middle" class="text-sm">Form Components</text>
  <rect x="75" y="160" width="150" height="24" rx="4" fill="#475569"/>
  <text x="150" y="177" text-anchor="middle" class="text-sm">Status Indicator</text>
  <rect x="75" y="190" width="150" height="24" rx="4" fill="#475569"/>
  <text x="150" y="207" text-anchor="middle" class="text-sm">Toast Notifications</text>

  <!-- Sync Hook -->
  <rect x="260" y="90" width="160" height="120" rx="6" fill="#334155" stroke="#d946ef" stroke-width="1"/>
  <text x="340" y="115" text-anchor="middle" class="heading">useBgSync Hook</text>
  <text x="340" y="140" text-anchor="middle" class="text-sm">• queueSubmission()</text>
  <text x="340" y="158" text-anchor="middle" class="text-sm">• getSyncStatus()</text>
  <text x="340" y="176" text-anchor="middle" class="text-sm">• onSyncComplete()</text>
  <text x="340" y="194" text-anchor="middle" class="text-sm">• retryFailed()</text>

  <!-- Connection Observer -->
  <rect x="440" y="90" width="180" height="120" rx="6" fill="#334155" stroke="#0ea5e9" stroke-width="1"/>
  <text x="530" y="115" text-anchor="middle" class="heading">Network Observer</text>
  <text x="530" y="140" text-anchor="middle" class="text-sm">navigator.onLine</text>
  <rect x="455" y="150" width="150" height="20" rx="4" fill="#0ea5e9" opacity="0.3"/>
  <text x="530" y="165" text-anchor="middle" class="text-sm" fill="#0ea5e9">'online' event</text>
  <rect x="455" y="175" width="150" height="20" rx="4" fill="#f59e0b" opacity="0.3"/>
  <text x="530" y="190" text-anchor="middle" class="text-sm" fill="#f59e0b">'offline' event</text>

  <!-- Service Worker -->
  <rect x="60" y="230" width="560" height="100" rx="6" fill="#334155" stroke="#22c55e" stroke-width="2"/>
  <text x="340" y="255" text-anchor="middle" class="heading-lg" fill="#22c55e">Service Worker</text>

  <rect x="80" y="270" width="120" height="50" rx="4" fill="#475569"/>
  <text x="140" y="290" text-anchor="middle" class="text-sm">Background</text>
  <text x="140" y="305" text-anchor="middle" class="text-sm">Sync API</text>

  <rect x="220" y="270" width="120" height="50" rx="4" fill="#475569"/>
  <text x="280" y="290" text-anchor="middle" class="text-sm">Sync Event</text>
  <text x="280" y="305" text-anchor="middle" class="text-sm">Handler</text>

  <rect x="360" y="270" width="120" height="50" rx="4" fill="#475569"/>
  <text x="420" y="290" text-anchor="middle" class="text-sm">Fetch</text>
  <text x="420" y="305" text-anchor="middle" class="text-sm">Interceptor</text>

  <rect x="500" y="270" width="100" height="50" rx="4" fill="#475569"/>
  <text x="550" y="290" text-anchor="middle" class="text-sm">Retry</text>
  <text x="550" y="305" text-anchor="middle" class="text-sm">Logic</text>

  <!-- ===== STORAGE LAYER ===== -->
  <text x="680" y="60" class="label-section">LOCAL STORAGE LAYER</text>
  <rect x="660" y="70" width="320" height="280" rx="8" fill="#1e293b" stroke="#475569" stroke-width="1"/>

  <!-- IndexedDB -->
  <rect x="680" y="90" width="280" height="160" rx="6" fill="#334155" stroke="#f59e0b" stroke-width="2"/>
  <text x="820" y="115" text-anchor="middle" class="heading-lg" fill="#f59e0b">IndexedDB</text>
  <text x="820" y="135" text-anchor="middle" class="text-muted">sync-queue-db</text>

  <!-- Queue Store -->
  <rect x="700" y="150" width="240" height="85" rx="4" fill="#475569"/>
  <text x="820" y="170" text-anchor="middle" class="heading">submissions store</text>
  <text x="720" y="190" class="text-sm">id: string (uuid)</text>
  <text x="720" y="205" class="text-sm">formType: string</text>
  <text x="720" y="220" class="text-sm">data: JSON</text>
  <text x="860" y="190" class="text-sm">timestamp: Date</text>
  <text x="860" y="205" class="text-sm">retryCount: number</text>
  <text x="860" y="220" class="text-sm">status: enum</text>

  <!-- Queue stats -->
  <rect x="680" y="260" width="130" height="70" rx="4" fill="#334155"/>
  <text x="745" y="285" text-anchor="middle" class="text-sm">Persistence</text>
  <text x="745" y="305" text-anchor="middle" class="text-muted">Survives browser</text>
  <text x="745" y="320" text-anchor="middle" class="text-muted">restart (FR-002)</text>

  <rect x="830" y="260" width="130" height="70" rx="4" fill="#334155"/>
  <text x="895" y="285" text-anchor="middle" class="text-sm">FIFO Order</text>
  <text x="895" y="305" text-anchor="middle" class="text-muted">Maintains submit</text>
  <text x="895" y="320" text-anchor="middle" class="text-muted">order (FR-003)</text>

  <!-- ===== SERVER LAYER ===== -->
  <text x="1020" y="60" class="label-section">SERVER LAYER</text>
  <rect x="1000" y="70" width="360" height="280" rx="8" fill="#1e293b" stroke="#475569" stroke-width="1"/>

  <!-- API Gateway -->
  <rect x="1020" y="90" width="320" height="80" rx="6" fill="#334155" stroke="#8b5cf6" stroke-width="1"/>
  <text x="1180" y="120" text-anchor="middle" class="heading">Supabase Edge Functions</text>
  <text x="1180" y="145" text-anchor="middle" class="text-sm">/api/forms/submit</text>
  <text x="1180" y="160" text-anchor="middle" class="text-muted">Validates & processes queued submissions</text>

  <!-- Database -->
  <rect x="1020" y="190" width="320" height="140" rx="6" fill="#334155" stroke="#d946ef" stroke-width="1"/>
  <text x="1180" y="215" text-anchor="middle" class="heading">PostgreSQL (Supabase)</text>

  <rect x="1040" y="230" width="140" height="45" rx="4" fill="#475569"/>
  <text x="1110" y="250" text-anchor="middle" class="text-sm">form_submissions</text>
  <text x="1110" y="268" text-anchor="middle" class="text-muted">Permanent storage</text>

  <rect x="1200" y="230" width="120" height="45" rx="4" fill="#475569"/>
  <text x="1260" y="250" text-anchor="middle" class="text-sm">audit_log</text>
  <text x="1260" y="268" text-anchor="middle" class="text-muted">Sync history</text>

  <rect x="1040" y="285" width="280" height="35" rx="4" fill="#475569"/>
  <text x="1180" y="307" text-anchor="middle" class="text-sm">RLS Policies (user-scoped access)</text>

  <!-- ===== FLOW ARROWS ===== -->

  <!-- UI to Hook -->
  <line x1="240" y1="150" x2="258" y2="150" stroke="#8b5cf6" stroke-width="2" marker-end="url(#arrowhead)"/>

  <!-- Hook to Observer -->
  <line x1="420" y1="150" x2="438" y2="150" stroke="#8b5cf6" stroke-width="2" marker-end="url(#arrowhead)"/>

  <!-- Hook to Service Worker -->
  <line x1="340" y1="210" x2="340" y2="228" stroke="#22c55e" stroke-width="2" marker-end="url(#arrowhead-green)"/>

  <!-- Service Worker to IndexedDB -->
  <line x1="620" y1="280" x2="678" y2="180" stroke="#f59e0b" stroke-width="2" marker-end="url(#arrowhead-orange)"/>

  <!-- Service Worker to API -->
  <path d="M620,260 Q900,260 998,130" stroke="#0ea5e9" stroke-width="2" fill="none" marker-end="url(#arrowhead-cyan)"/>

  <!-- API to DB -->
  <line x1="1180" y1="170" x2="1180" y2="188" stroke="#d946ef" stroke-width="2"/>

  <!-- ===== SYNC FLOW DIAGRAM ===== -->
  <text x="60" y="380" class="label-section">SYNC FLOW (HAPPY PATH)</text>
  <rect x="40" y="390" width="1320" height="180" rx="8" fill="#1e293b" stroke="#475569" stroke-width="1"/>

  <!-- Step 1: Form Submit -->
  <rect x="60" y="410" width="140" height="80" rx="6" fill="#334155" stroke="#8b5cf6" stroke-width="1"/>
  <text x="130" y="435" text-anchor="middle" class="heading">1. Submit</text>
  <text x="130" y="455" text-anchor="middle" class="text-sm">User fills form</text>
  <text x="130" y="470" text-anchor="middle" class="text-sm">clicks submit</text>
  <text x="130" y="485" text-anchor="middle" class="text-muted">(online or offline)</text>

  <!-- Arrow -->
  <line x1="200" y1="450" x2="230" y2="450" stroke="#8b5cf6" stroke-width="2" marker-end="url(#arrowhead)"/>

  <!-- Step 2: Queue -->
  <rect x="230" y="410" width="140" height="80" rx="6" fill="#334155" stroke="#f59e0b" stroke-width="1"/>
  <text x="300" y="435" text-anchor="middle" class="heading">2. Queue</text>
  <text x="300" y="455" text-anchor="middle" class="text-sm">Save to IndexedDB</text>
  <text x="300" y="470" text-anchor="middle" class="text-sm">Show confirmation</text>
  <text x="300" y="485" text-anchor="middle" class="text-muted">FR-001, FR-017</text>

  <!-- Arrow -->
  <line x1="370" y1="450" x2="400" y2="450" stroke="#f59e0b" stroke-width="2" marker-end="url(#arrowhead-orange)"/>

  <!-- Step 3: Detect Online -->
  <rect x="400" y="410" width="140" height="80" rx="6" fill="#334155" stroke="#0ea5e9" stroke-width="1"/>
  <text x="470" y="435" text-anchor="middle" class="heading">3. Online</text>
  <text x="470" y="455" text-anchor="middle" class="text-sm">Connection restored</text>
  <text x="470" y="470" text-anchor="middle" class="text-sm">Trigger sync event</text>
  <text x="470" y="485" text-anchor="middle" class="text-muted">FR-005</text>

  <!-- Arrow -->
  <line x1="540" y1="450" x2="570" y2="450" stroke="#0ea5e9" stroke-width="2" marker-end="url(#arrowhead-cyan)"/>

  <!-- Step 4: Process Queue -->
  <rect x="570" y="410" width="140" height="80" rx="6" fill="#334155" stroke="#22c55e" stroke-width="1"/>
  <text x="640" y="435" text-anchor="middle" class="heading">4. Process</text>
  <text x="640" y="455" text-anchor="middle" class="text-sm">SW reads queue</text>
  <text x="640" y="470" text-anchor="middle" class="text-sm">Sends in FIFO order</text>
  <text x="640" y="485" text-anchor="middle" class="text-muted">FR-006</text>

  <!-- Arrow -->
  <line x1="710" y1="450" x2="740" y2="450" stroke="#22c55e" stroke-width="2" marker-end="url(#arrowhead-green)"/>

  <!-- Step 5: API Call -->
  <rect x="740" y="410" width="140" height="80" rx="6" fill="#334155" stroke="#8b5cf6" stroke-width="1"/>
  <text x="810" y="435" text-anchor="middle" class="heading">5. Send</text>
  <text x="810" y="455" text-anchor="middle" class="text-sm">POST to API</text>
  <text x="810" y="470" text-anchor="middle" class="text-sm">Await response</text>
  <text x="810" y="485" text-anchor="middle" class="text-muted">FR-019</text>

  <!-- Arrow -->
  <line x1="880" y1="450" x2="910" y2="450" stroke="#8b5cf6" stroke-width="2" marker-end="url(#arrowhead)"/>

  <!-- Step 6: Success -->
  <rect x="910" y="410" width="140" height="80" rx="6" fill="#334155" stroke="#22c55e" stroke-width="2"/>
  <text x="980" y="435" text-anchor="middle" class="heading" fill="#22c55e">6. Success</text>
  <text x="980" y="455" text-anchor="middle" class="text-sm">Remove from queue</text>
  <text x="980" y="470" text-anchor="middle" class="text-sm">Notify user</text>
  <text x="980" y="485" text-anchor="middle" class="text-muted">FR-007, FR-015</text>

  <!-- Arrow to Done -->
  <line x1="1050" y1="450" x2="1080" y2="450" stroke="#22c55e" stroke-width="2" marker-end="url(#arrowhead-green)"/>

  <!-- Done badge -->
  <circle cx="1110" cy="450" r="25" fill="#22c55e"/>
  <text x="1110" y="456" text-anchor="middle" fill="#fff" font-family="system-ui" font-size="16" font-weight="bold">✓</text>

  <!-- ===== RETRY FLOW ===== -->
  <text x="60" y="600" class="label-section">RETRY FLOW (ERROR PATH)</text>
  <rect x="40" y="610" width="660" height="170" rx="8" fill="#1e293b" stroke="#475569" stroke-width="1"/>

  <!-- Failure -->
  <rect x="60" y="630" width="120" height="60" rx="6" fill="#334155" stroke="#ef4444" stroke-width="2"/>
  <text x="120" y="655" text-anchor="middle" class="heading" fill="#ef4444">Failure</text>
  <text x="120" y="675" text-anchor="middle" class="text-sm">API returns error</text>

  <!-- Arrow -->
  <line x1="180" y1="660" x2="210" y2="660" stroke="#ef4444" stroke-width="2"/>

  <!-- Check retry -->
  <rect x="210" y="630" width="140" height="60" rx="6" fill="#334155" stroke="#f59e0b" stroke-width="1"/>
  <text x="280" y="655" text-anchor="middle" class="heading">Check Retry</text>
  <text x="280" y="675" text-anchor="middle" class="text-sm">retryCount &lt; 3?</text>

  <!-- Yes path -->
  <line x1="350" y1="645" x2="380" y2="645" stroke="#22c55e" stroke-width="2"/>
  <text x="365" y="638" class="text-sm" fill="#22c55e">yes</text>

  <rect x="380" y="630" width="120" height="60" rx="6" fill="#334155" stroke="#22c55e" stroke-width="1"/>
  <text x="440" y="655" text-anchor="middle" class="heading">Increment</text>
  <text x="440" y="675" text-anchor="middle" class="text-sm">retryCount++</text>

  <!-- Back arrow -->
  <path d="M500,660 Q540,660 540,610 Q540,560 340,560" stroke="#22c55e" stroke-width="1" fill="none" stroke-dasharray="4,2"/>
  <text x="450" y="555" class="text-muted" fill="#22c55e">wait &amp; retry</text>

  <!-- No path -->
  <line x1="280" y1="690" x2="280" y2="720" stroke="#ef4444" stroke-width="2"/>
  <text x="290" y="710" class="text-sm" fill="#ef4444">no</text>

  <rect x="210" y="720" width="140" height="50" rx="6" fill="#334155" stroke="#ef4444" stroke-width="2"/>
  <text x="280" y="742" text-anchor="middle" class="heading" fill="#ef4444">Mark Failed</text>
  <text x="280" y="760" text-anchor="middle" class="text-sm">status = 'failed'</text>

  <!-- Arrow to notify -->
  <line x1="350" y1="745" x2="380" y2="745" stroke="#ef4444" stroke-width="2"/>

  <rect x="380" y="720" width="140" height="50" rx="6" fill="#334155" stroke="#8b5cf6" stroke-width="1"/>
  <text x="450" y="742" text-anchor="middle" class="heading">Notify User</text>
  <text x="450" y="760" text-anchor="middle" class="text-sm">FR-016</text>

  <!-- Arrow to manual -->
  <line x1="520" y1="745" x2="550" y2="745" stroke="#8b5cf6" stroke-width="2" marker-end="url(#arrowhead)"/>

  <rect x="550" y="720" width="130" height="50" rx="6" fill="#334155" stroke="#d946ef" stroke-width="1"/>
  <text x="615" y="742" text-anchor="middle" class="heading">Manual Retry</text>
  <text x="615" y="760" text-anchor="middle" class="text-sm">FR-012</text>

  <!-- ===== FALLBACK FLOW ===== -->
  <text x="740" y="600" class="label-section">FALLBACK (NO BG SYNC SUPPORT)</text>
  <rect x="720" y="610" width="640" height="170" rx="8" fill="#1e293b" stroke="#475569" stroke-width="1"/>

  <!-- Browser check -->
  <rect x="740" y="640" width="160" height="60" rx="6" fill="#334155" stroke="#f59e0b" stroke-width="1"/>
  <text x="820" y="665" text-anchor="middle" class="heading">Feature Check</text>
  <text x="820" y="685" text-anchor="middle" class="text-sm">'serviceWorker' in navigator</text>

  <!-- No support path -->
  <line x1="820" y1="700" x2="820" y2="725" stroke="#ef4444" stroke-width="2"/>
  <text x="835" y="718" class="text-sm" fill="#ef4444">no</text>

  <rect x="740" y="725" width="160" height="45" rx="6" fill="#334155" stroke="#ef4444" stroke-width="1"/>
  <text x="820" y="752" text-anchor="middle" class="text-sm">localStorage fallback</text>

  <!-- Yes path -->
  <line x1="900" y1="670" x2="930" y2="670" stroke="#22c55e" stroke-width="2"/>
  <text x="915" y="663" class="text-sm" fill="#22c55e">yes</text>

  <!-- Sync check -->
  <rect x="930" y="640" width="160" height="60" rx="6" fill="#334155" stroke="#0ea5e9" stroke-width="1"/>
  <text x="1010" y="665" text-anchor="middle" class="heading">BG Sync Check</text>
  <text x="1010" y="685" text-anchor="middle" class="text-sm">'sync' in registration</text>

  <!-- Has sync -->
  <line x1="1090" y1="670" x2="1120" y2="670" stroke="#22c55e" stroke-width="2"/>
  <text x="1105" y="663" class="text-sm" fill="#22c55e">yes</text>

  <rect x="1120" y="640" width="120" height="60" rx="6" fill="#334155" stroke="#22c55e" stroke-width="2"/>
  <text x="1180" y="665" text-anchor="middle" class="heading" fill="#22c55e">Use BG Sync</text>
  <text x="1180" y="685" text-anchor="middle" class="text-sm">Native API</text>

  <!-- No sync -->
  <line x1="1010" y1="700" x2="1010" y2="725" stroke="#f59e0b" stroke-width="2"/>
  <text x="1025" y="718" class="text-sm" fill="#f59e0b">no</text>

  <rect x="930" y="725" width="160" height="45" rx="6" fill="#334155" stroke="#f59e0b" stroke-width="1"/>
  <text x="1010" y="748" text-anchor="middle" class="heading">Visibility Sync</text>
  <text x="1010" y="762" text-anchor="middle" class="text-sm">sync on visibilitychange</text>

  <!-- Arrow to manual option -->
  <line x1="1090" y1="747" x2="1120" y2="747" stroke="#f59e0b" stroke-width="2" marker-end="url(#arrowhead-orange)"/>

  <rect x="1120" y="725" width="120" height="45" rx="6" fill="#334155" stroke="#8b5cf6" stroke-width="1"/>
  <text x="1180" y="748" text-anchor="middle" class="heading">Manual Sync</text>
  <text x="1180" y="762" text-anchor="middle" class="text-sm">Button (FR-020)</text>

  <!-- Legend -->
  <rect x="1260" y="640" width="90" height="130" rx="6" fill="#334155"/>
  <text x="1305" y="660" text-anchor="middle" class="text-sm" font-weight="bold">Legend</text>
  <circle cx="1275" cy="680" r="6" fill="#22c55e"/>
  <text x="1290" y="684" class="text-muted">Success</text>
  <circle cx="1275" cy="700" r="6" fill="#f59e0b"/>
  <text x="1290" y="704" class="text-muted">Fallback</text>
  <circle cx="1275" cy="720" r="6" fill="#ef4444"/>
  <text x="1290" y="724" class="text-muted">Failure</text>
  <circle cx="1275" cy="740" r="6" fill="#0ea5e9"/>
  <text x="1290" y="744" class="text-muted">Event</text>
  <circle cx="1275" cy="760" r="6" fill="#8b5cf6"/>
  <text x="1290" y="764" class="text-muted">Action</text>
</svg>
