<svg xmlns="http://www.w3.org/2000/svg" viewBox="0 0 1400 800" width="1400" height="800">
  <!-- ============================================================
       GENERATED BY: /wireframe skill
       SOURCE: features/core-features/009-user-messaging-system/spec.md
       DATE: 2026-01-01
       THEME: Light (UX/Frontend) - v3 True Parchment
       DO NOT MANUALLY EDIT - Regenerate with /wireframe command
       ============================================================ -->
  <defs>
    <linearGradient id="bgGrad" x1="0%" y1="0%" x2="100%" y2="100%">
      <stop offset="0%" style="stop-color:#c7ddf5"/>
      <stop offset="100%" style="stop-color:#b8d4f0"/>
    </linearGradient>
    <linearGradient id="accentGrad" x1="0%" y1="0%" x2="100%" y2="0%">
      <stop offset="0%" style="stop-color:#8b5cf6"/>
      <stop offset="100%" style="stop-color:#d946ef"/>
    </linearGradient>
    <style>
      .heading-lg { fill: #1a1a2e; font-family: system-ui, sans-serif; font-size: 24px; font-weight: 800; }
      .heading { fill: #1a1a2e; font-family: system-ui, sans-serif; font-size: 16px; font-weight: 700; }
      .text-md { fill: #2d3748; font-family: system-ui, sans-serif; font-size: 14px; font-weight: 500; }
      .text-sm { fill: #374151; font-family: system-ui, sans-serif; font-size: 12px; font-weight: 500; }
      .text-muted { fill: #4b5563; font-family: system-ui, sans-serif; font-size: 11px; font-weight: 500; }
      .annotation { fill: #6d28d9; font-family: monospace; font-size: 12px; font-weight: 600; }
      .label-desktop { fill: #8b5cf6; font-family: monospace; font-size: 13px; font-weight: bold; }
      .label-mobile { fill: #d946ef; font-family: monospace; font-size: 13px; font-weight: bold; }
    </style>
  </defs>

  <!-- Background -->
  <rect width="1400" height="800" fill="url(#bgGrad)"/>

  <!-- Dot grid pattern -->
  <g opacity="0.35">
    <pattern id="dots" width="30" height="30" patternUnits="userSpaceOnUse">
      <circle cx="15" cy="15" r="1" fill="#6b8cba"/>
    </pattern>
    <rect width="1400" height="800" fill="url(#dots)"/>
  </g>

  <!-- Accent line top -->
  <rect x="0" y="0" width="1400" height="3" fill="url(#accentGrad)"/>

  <!-- Title -->
  <text x="700" y="28" text-anchor="middle" font-family="system-ui, sans-serif" font-size="14" font-weight="600" fill="#4b5563" letter-spacing="1">CONVERSATION LIST - MESSAGING INBOX</text>

  <!-- DESKTOP SECTION -->
  <text x="40" y="52" class="label-desktop">DESKTOP</text>

  <g id="desktop-view">
    <!-- Main container -->
    <rect x="40" y="60" width="900" height="700" rx="8" fill="#e8d4b8" stroke="#b8a080" stroke-width="1"/>

    <!-- Header -->
    <rect x="40" y="60" width="900" height="60" rx="8" fill="#dcc8a8"/>
    <text x="60" y="100" class="heading-lg">Messages</text>

    <!-- New message button -->
    <rect x="820" y="75" width="100" height="36" rx="6" fill="#8b5cf6"/>
    <text x="870" y="98" text-anchor="middle" fill="#fff" font-size="13" font-weight="600">+ New</text>

    <!-- Search bar -->
    <rect x="60" y="135" width="860" height="40" rx="6" fill="#f5f0e6" stroke="#b8a080" stroke-width="1"/>
    <text x="80" y="160" class="text-muted">🔍 Search conversations...</text>

    <!-- Conversation list -->
    <g id="conversation-items">
      <!-- Conversation 1 - Unread -->
      <rect x="60" y="195" width="860" height="80" rx="6" fill="#f5f0e6" stroke="#8b5cf6" stroke-width="2"/>
      <circle cx="100" cy="235" r="24" fill="#dcc8a8" stroke="#b8a080" stroke-width="1"/>
      <text x="100" y="240" text-anchor="middle" class="heading">JD</text>
      <text x="140" y="220" class="heading">Jane Doe</text>
      <text x="140" y="240" class="text-md">Hey! Did you see the new update? It looks...</text>
      <text x="140" y="258" class="text-muted">2 min ago</text>
      <!-- Unread badge -->
      <circle cx="880" cy="235" r="12" fill="#8b5cf6"/>
      <text x="880" y="240" text-anchor="middle" fill="#fff" font-size="11" font-weight="bold">3</text>

      <!-- Conversation 2 - Read -->
      <rect x="60" y="290" width="860" height="80" rx="6" fill="#f5f0e6" stroke="#b8a080" stroke-width="1"/>
      <circle cx="100" cy="330" r="24" fill="#dcc8a8" stroke="#b8a080" stroke-width="1"/>
      <text x="100" y="335" text-anchor="middle" class="heading">AS</text>
      <text x="140" y="315" class="heading">Alex Smith</text>
      <text x="140" y="335" class="text-md">Thanks for your help yesterday!</text>
      <text x="140" y="353" class="text-muted">1 hour ago</text>
      <!-- Read checkmarks -->
      <text x="875" y="335" fill="#22c55e" font-size="14">✓✓</text>

      <!-- Conversation 3 - Delivered -->
      <rect x="60" y="385" width="860" height="80" rx="6" fill="#f5f0e6" stroke="#b8a080" stroke-width="1"/>
      <circle cx="100" cy="425" r="24" fill="#dcc8a8" stroke="#b8a080" stroke-width="1"/>
      <text x="100" y="430" text-anchor="middle" class="heading">MK</text>
      <text x="140" y="410" class="heading">Mike Kim</text>
      <text x="140" y="430" class="text-md">You: Let me check and get back to you</text>
      <text x="140" y="448" class="text-muted">Yesterday</text>
      <!-- Delivered checkmarks -->
      <text x="875" y="430" fill="#94a3b8" font-size="14">✓✓</text>

      <!-- Conversation 4 -->
      <rect x="60" y="480" width="860" height="80" rx="6" fill="#f5f0e6" stroke="#b8a080" stroke-width="1"/>
      <circle cx="100" cy="520" r="24" fill="#dcc8a8" stroke="#b8a080" stroke-width="1"/>
      <text x="100" y="525" text-anchor="middle" class="heading">SL</text>
      <text x="140" y="505" class="heading">Sarah Lee</text>
      <text x="140" y="525" class="text-md">Meeting confirmed for next Tuesday</text>
      <text x="140" y="543" class="text-muted">2 days ago</text>

      <!-- Conversation 5 -->
      <rect x="60" y="575" width="860" height="80" rx="6" fill="#f5f0e6" stroke="#b8a080" stroke-width="1"/>
      <circle cx="100" cy="615" r="24" fill="#dcc8a8" stroke="#b8a080" stroke-width="1"/>
      <text x="100" y="620" text-anchor="middle" class="heading">TC</text>
      <text x="140" y="600" class="heading">Tom Chen</text>
      <text x="140" y="620" class="text-md">Great working with you!</text>
      <text x="140" y="638" class="text-muted">Last week</text>
    </g>

    <!-- Pagination hint -->
    <text x="480" y="690" text-anchor="middle" class="text-muted">Showing 5 of 23 conversations</text>
  </g>

  <!-- MOBILE SECTION -->
  <text x="980" y="52" class="label-mobile">MOBILE</text>

  <g id="mobile-view" transform="translate(980, 60)">
    <!-- Phone frame -->
    <rect x="0" y="0" width="360" height="700" rx="24" fill="#c8b898" stroke="#a08860" stroke-width="2"/>
    <!-- Screen -->
    <rect x="10" y="10" width="340" height="680" rx="16" fill="#e8d4b8"/>

    <!-- Status bar -->
    <rect x="10" y="10" width="340" height="28" rx="16" fill="#dcc8a8"/>
    <text x="30" y="28" class="text-sm">9:41</text>
    <text x="310" y="28" text-anchor="end" class="text-sm">📶 🔋</text>

    <!-- Header -->
    <rect x="10" y="38" width="340" height="50" fill="#dcc8a8"/>
    <text x="30" y="72" class="heading-lg">Messages</text>
    <rect x="290" y="50" width="40" height="28" rx="6" fill="#8b5cf6"/>
    <text x="310" y="69" text-anchor="middle" fill="#fff" font-size="16">+</text>

    <!-- Search -->
    <rect x="20" y="98" width="320" height="36" rx="6" fill="#f5f0e6" stroke="#b8a080" stroke-width="1"/>
    <text x="40" y="121" class="text-muted">🔍 Search...</text>

    <!-- Conversation 1 - Unread -->
    <rect x="20" y="148" width="320" height="70" rx="6" fill="#f5f0e6" stroke="#8b5cf6" stroke-width="2"/>
    <circle cx="50" cy="183" r="20" fill="#dcc8a8" stroke="#b8a080" stroke-width="1"/>
    <text x="50" y="188" text-anchor="middle" fill="#1a1a2e" font-size="12" font-weight="bold">JD</text>
    <text x="80" y="170" class="heading">Jane Doe</text>
    <text x="80" y="188" class="text-sm">Hey! Did you see the new...</text>
    <text x="80" y="205" class="text-muted">2m</text>
    <circle cx="310" cy="183" r="10" fill="#8b5cf6"/>
    <text x="310" y="187" text-anchor="middle" fill="#fff" font-size="10" font-weight="bold">3</text>

    <!-- Conversation 2 -->
    <rect x="20" y="228" width="320" height="70" rx="6" fill="#f5f0e6" stroke="#b8a080" stroke-width="1"/>
    <circle cx="50" cy="263" r="20" fill="#dcc8a8" stroke="#b8a080" stroke-width="1"/>
    <text x="50" y="268" text-anchor="middle" fill="#1a1a2e" font-size="12" font-weight="bold">AS</text>
    <text x="80" y="250" class="heading">Alex Smith</text>
    <text x="80" y="268" class="text-sm">Thanks for your help!</text>
    <text x="80" y="285" class="text-muted">1h</text>
    <text x="310" y="268" fill="#22c55e" font-size="12">✓✓</text>

    <!-- Conversation 3 -->
    <rect x="20" y="308" width="320" height="70" rx="6" fill="#f5f0e6" stroke="#b8a080" stroke-width="1"/>
    <circle cx="50" cy="343" r="20" fill="#dcc8a8" stroke="#b8a080" stroke-width="1"/>
    <text x="50" y="348" text-anchor="middle" fill="#1a1a2e" font-size="12" font-weight="bold">MK</text>
    <text x="80" y="330" class="heading">Mike Kim</text>
    <text x="80" y="348" class="text-sm">You: Let me check...</text>
    <text x="80" y="365" class="text-muted">Yesterday</text>

    <!-- Conversation 4 -->
    <rect x="20" y="388" width="320" height="70" rx="6" fill="#f5f0e6" stroke="#b8a080" stroke-width="1"/>
    <circle cx="50" cy="423" r="20" fill="#dcc8a8" stroke="#b8a080" stroke-width="1"/>
    <text x="50" y="428" text-anchor="middle" fill="#1a1a2e" font-size="12" font-weight="bold">SL</text>
    <text x="80" y="410" class="heading">Sarah Lee</text>
    <text x="80" y="428" class="text-sm">Meeting confirmed...</text>
    <text x="80" y="445" class="text-muted">2d</text>

    <!-- Conversation 5 -->
    <rect x="20" y="468" width="320" height="70" rx="6" fill="#f5f0e6" stroke="#b8a080" stroke-width="1"/>
    <circle cx="50" cy="503" r="20" fill="#dcc8a8" stroke="#b8a080" stroke-width="1"/>
    <text x="50" y="508" text-anchor="middle" fill="#1a1a2e" font-size="12" font-weight="bold">TC</text>
    <text x="80" y="490" class="heading">Tom Chen</text>
    <text x="80" y="508" class="text-sm">Great working with you!</text>
    <text x="80" y="525" class="text-muted">1w</text>

    <!-- Bottom nav -->
    <rect x="10" y="640" width="340" height="50" rx="16" fill="#dcc8a8"/>
    <text x="70" y="670" text-anchor="middle" fill="#8b5cf6" font-size="11" font-weight="600">💬 Chats</text>
    <text x="180" y="670" text-anchor="middle" class="text-muted">👥 Friends</text>
    <text x="290" y="670" text-anchor="middle" class="text-muted">⚙️ Settings</text>
  </g>

  <!-- Annotations -->
  <g id="annotations">
    <rect x="40" y="765" width="120" height="25" rx="4" fill="#e8d4b8" stroke="#8b5cf6" stroke-width="1"/>
    <text x="100" y="782" text-anchor="middle" class="annotation">FR-045, FR-046</text>

    <rect x="180" y="765" width="180" height="25" rx="4" fill="#e8d4b8" stroke="#8b5cf6" stroke-width="1"/>
    <text x="270" y="782" text-anchor="middle" class="text-muted">Sorted by recent, unread badges</text>
  </g>
</svg>
