<svg xmlns="http://www.w3.org/2000/svg" viewBox="0 0 1400 800" width="1400" height="800">
  <!-- ============================================================
       GENERATED BY: /wireframe skill
       SOURCE: features/core-features/009-user-messaging-system/spec.md
       DATE: 2025-12-31
       DO NOT MANUALLY EDIT - Regenerate with /wireframe command
       ============================================================ -->
  <defs>
    <linearGradient id="bgGrad" x1="0%" y1="0%" x2="100%" y2="100%">
      <stop offset="0%" style="stop-color:#0f172a"/>
      <stop offset="100%" style="stop-color:#1e293b"/>
    </linearGradient>
    <linearGradient id="accentGrad" x1="0%" y1="0%" x2="100%" y2="0%">
      <stop offset="0%" style="stop-color:#8b5cf6"/>
      <stop offset="100%" style="stop-color:#d946ef"/>
    </linearGradient>
    <style>
      .heading-lg { fill: #ffffff; font-family: system-ui, sans-serif; font-size: 20px; font-weight: bold; }
      .heading { fill: #ffffff; font-family: system-ui, sans-serif; font-size: 14px; font-weight: bold; }
      .text-md { fill: #cbd5e1; font-family: system-ui, sans-serif; font-size: 12px; }
      .text-sm { fill: #94a3b8; font-family: system-ui, sans-serif; font-size: 10px; }
      .text-muted { fill: #64748b; font-family: system-ui, sans-serif; font-size: 10px; }
      .annotation { fill: #8b5cf6; font-family: monospace; font-size: 10px; }
      .label-desktop { fill: #8b5cf6; font-family: monospace; font-size: 11px; font-weight: bold; }
      .label-mobile { fill: #d946ef; font-family: monospace; font-size: 11px; font-weight: bold; }
    </style>
  </defs>

  <!-- Background -->
  <rect width="1400" height="800" fill="url(#bgGrad)"/>

  <!-- Dot grid pattern -->
  <g opacity="0.05">
    <pattern id="dots" width="30" height="30" patternUnits="userSpaceOnUse">
      <circle cx="15" cy="15" r="1" fill="#fff"/>
    </pattern>
    <rect width="1400" height="800" fill="url(#dots)"/>
  </g>

  <!-- Accent line top -->
  <rect x="0" y="0" width="1400" height="3" fill="url(#accentGrad)"/>

  <!-- Title -->
  <text x="700" y="28" text-anchor="middle" font-family="system-ui, sans-serif" font-size="14" font-weight="600" fill="#64748b" letter-spacing="1">CONNECTIONS MANAGEMENT</text>

  <!-- DESKTOP SECTION (left) -->
  <text x="40" y="52" class="label-desktop">DESKTOP</text>
  <g id="desktop-view">
    <!-- Desktop Header -->
    <rect x="40" y="60" width="900" height="50" rx="8" fill="#1e293b"/>
    <text x="60" y="90" class="heading-lg">Connections</text>
    <!-- Tab navigation -->
    <rect x="200" y="70" width="100" height="30" rx="4" fill="#8b5cf6"/>
    <text x="250" y="90" text-anchor="middle" fill="#fff" font-family="system-ui, sans-serif" font-size="12">My Friends</text>
    <rect x="310" y="70" width="80" height="30" rx="4" fill="#334155"/>
    <text x="350" y="90" text-anchor="middle" fill="#94a3b8" font-family="system-ui, sans-serif" font-size="12">Requests</text>
    <rect x="400" y="70" width="70" height="30" rx="4" fill="#334155"/>
    <text x="435" y="90" text-anchor="middle" fill="#94a3b8" font-family="system-ui, sans-serif" font-size="12">Blocked</text>
    <!-- Request badge -->
    <circle cx="380" cy="75" r="9" fill="#ef4444"/>
    <text x="380" y="79" text-anchor="middle" fill="#fff" font-family="system-ui, sans-serif" font-size="10" font-weight="bold">3</text>

    <!-- Search bar -->
    <rect x="40" y="120" width="900" height="44" rx="8" fill="#334155" stroke="#475569" stroke-width="1"/>
    <text x="60" y="147" fill="#64748b" font-family="system-ui, sans-serif" font-size="13">🔍 Search users by username or email...</text>

    <!-- Search results dropdown (when searching) -->
    <rect x="40" y="170" width="500" height="180" rx="8" fill="#1e293b" stroke="#475569" stroke-width="1"/>
    <text x="60" y="195" class="text-muted">SEARCH RESULTS</text>

    <!-- Result 1 -->
    <rect x="50" y="205" width="480" height="50" rx="6" fill="#334155"/>
    <circle cx="80" cy="230" r="18" fill="#8b5cf6"/>
    <text x="80" y="235" text-anchor="middle" fill="#fff" font-family="system-ui, sans-serif" font-size="12">JD</text>
    <text x="110" y="225" fill="#fff" font-family="system-ui, sans-serif" font-size="13" font-weight="600">jane_doe</text>
    <text x="110" y="240" class="text-sm">Jane Doe • Product Designer</text>
    <rect x="430" y="215" width="90" height="30" rx="4" fill="#8b5cf6"/>
    <text x="475" y="235" text-anchor="middle" fill="#fff" font-family="system-ui, sans-serif" font-size="11">Send Request</text>

    <!-- Result 2 -->
    <rect x="50" y="260" width="480" height="50" rx="6" fill="#334155"/>
    <circle cx="80" cy="285" r="18" fill="#22c55e"/>
    <text x="80" y="290" text-anchor="middle" fill="#fff" font-family="system-ui, sans-serif" font-size="12">MS</text>
    <text x="110" y="280" fill="#fff" font-family="system-ui, sans-serif" font-size="13" font-weight="600">mike_smith</text>
    <text x="110" y="295" class="text-sm">Mike Smith • Developer</text>
    <rect x="430" y="270" width="90" height="30" rx="4" fill="#475569"/>
    <text x="475" y="290" text-anchor="middle" fill="#94a3b8" font-family="system-ui, sans-serif" font-size="11">Request Sent</text>

    <!-- Connected friends list (main content) -->
    <rect x="550" y="170" width="390" height="260" rx="8" fill="#1e293b" stroke="#475569" stroke-width="1"/>
    <text x="570" y="195" class="text-muted">MY CONNECTIONS (12)</text>

    <!-- Friend 1 -->
    <rect x="560" y="210" width="370" height="55" rx="6" fill="#334155"/>
    <circle cx="590" cy="237" r="20" fill="#d946ef"/>
    <text x="590" y="242" text-anchor="middle" fill="#fff" font-family="system-ui, sans-serif" font-size="14">AS</text>
    <text x="620" y="230" fill="#fff" font-family="system-ui, sans-serif" font-size="13" font-weight="600">alex_stone</text>
    <text x="620" y="247" class="text-sm">Connected since Dec 15, 2025</text>
    <circle cx="720" cy="225" r="4" fill="#22c55e"/>
    <text x="730" y="229" class="text-sm" fill="#22c55e">Online</text>
    <rect x="830" y="222" width="80" height="30" rx="4" fill="#8b5cf6"/>
    <text x="870" y="242" text-anchor="middle" fill="#fff" font-family="system-ui, sans-serif" font-size="11">Message</text>

    <!-- Friend 2 -->
    <rect x="560" y="270" width="370" height="55" rx="6" fill="#334155"/>
    <circle cx="590" cy="297" r="20" fill="#eab308"/>
    <text x="590" y="302" text-anchor="middle" fill="#1e293b" font-family="system-ui, sans-serif" font-size="14">TW</text>
    <text x="620" y="290" fill="#fff" font-family="system-ui, sans-serif" font-size="13" font-weight="600">taylor_west</text>
    <text x="620" y="307" class="text-sm">Connected since Nov 28, 2025</text>
    <circle cx="720" cy="285" r="4" fill="#64748b"/>
    <text x="730" y="289" class="text-muted">Offline</text>
    <rect x="830" y="282" width="80" height="30" rx="4" fill="#8b5cf6"/>
    <text x="870" y="302" text-anchor="middle" fill="#fff" font-family="system-ui, sans-serif" font-size="11">Message</text>

    <!-- Friend 3 with context menu -->
    <rect x="560" y="330" width="370" height="55" rx="6" fill="#475569" stroke="#8b5cf6" stroke-width="2"/>
    <circle cx="590" cy="357" r="20" fill="#22c55e"/>
    <text x="590" y="362" text-anchor="middle" fill="#fff" font-family="system-ui, sans-serif" font-size="14">RJ</text>
    <text x="620" y="350" fill="#fff" font-family="system-ui, sans-serif" font-size="13" font-weight="600">riley_jones</text>
    <text x="620" y="367" class="text-sm">Connected since Oct 5, 2025</text>

    <!-- Context menu -->
    <rect x="760" y="340" width="120" height="90" rx="6" fill="#1e293b" stroke="#475569" stroke-width="1"/>
    <rect x="770" y="350" width="100" height="24" rx="4" fill="#334155"/>
    <text x="820" y="366" text-anchor="middle" fill="#fff" font-family="system-ui, sans-serif" font-size="11">💬 Message</text>
    <rect x="770" y="378" width="100" height="24" rx="4" fill="#334155"/>
    <text x="820" y="394" text-anchor="middle" fill="#94a3b8" font-family="system-ui, sans-serif" font-size="11">👤 View Profile</text>
    <rect x="770" y="406" width="100" height="24" rx="4" fill="#334155"/>
    <text x="820" y="422" text-anchor="middle" fill="#ef4444" font-family="system-ui, sans-serif" font-size="11">🚫 Unfriend</text>

    <!-- Pending Requests Section -->
    <rect x="40" y="440" width="440" height="300" rx="8" fill="#1e293b" stroke="#475569" stroke-width="1"/>
    <text x="60" y="470" class="heading">Pending Requests</text>
    <rect x="185" y="455" width="40" height="20" rx="10" fill="#ef4444"/>
    <text x="205" y="469" text-anchor="middle" fill="#fff" font-family="system-ui, sans-serif" font-size="11" font-weight="bold">3</text>

    <!-- Received request -->
    <rect x="50" y="485" width="420" height="70" rx="6" fill="#334155"/>
    <circle cx="85" cy="520" r="22" fill="#8b5cf6"/>
    <text x="85" y="525" text-anchor="middle" fill="#fff" font-family="system-ui, sans-serif" font-size="14">CH</text>
    <text x="120" y="510" fill="#fff" font-family="system-ui, sans-serif" font-size="13" font-weight="600">chris_harris</text>
    <text x="120" y="527" class="text-sm">Sent you a friend request</text>
    <text x="120" y="542" class="text-muted">2 hours ago</text>
    <rect x="320" y="505" width="70" height="30" rx="4" fill="#22c55e"/>
    <text x="355" y="525" text-anchor="middle" fill="#fff" font-family="system-ui, sans-serif" font-size="11">Accept</text>
    <rect x="395" y="505" width="65" height="30" rx="4" fill="#475569"/>
    <text x="427" y="525" text-anchor="middle" fill="#94a3b8" font-family="system-ui, sans-serif" font-size="11">Decline</text>

    <!-- Sent request -->
    <rect x="50" y="560" width="420" height="70" rx="6" fill="#334155"/>
    <circle cx="85" cy="595" r="22" fill="#d946ef"/>
    <text x="85" y="600" text-anchor="middle" fill="#fff" font-family="system-ui, sans-serif" font-size="14">LP</text>
    <text x="120" y="585" fill="#fff" font-family="system-ui, sans-serif" font-size="13" font-weight="600">laura_parker</text>
    <text x="120" y="602" class="text-sm">You sent a friend request</text>
    <text x="120" y="617" class="text-muted">1 day ago • Pending</text>
    <rect x="350" y="580" width="110" height="30" rx="4" fill="#475569"/>
    <text x="405" y="600" text-anchor="middle" fill="#94a3b8" font-family="system-ui, sans-serif" font-size="11">Cancel Request</text>

    <!-- Received with block option -->
    <rect x="50" y="635" width="420" height="70" rx="6" fill="#334155"/>
    <circle cx="85" cy="670" r="22" fill="#ef4444"/>
    <text x="85" y="675" text-anchor="middle" fill="#fff" font-family="system-ui, sans-serif" font-size="14">XX</text>
    <text x="120" y="660" fill="#fff" font-family="system-ui, sans-serif" font-size="13" font-weight="600">unknown_user</text>
    <text x="120" y="677" class="text-sm">Sent you a friend request</text>
    <text x="120" y="692" class="text-muted">5 hours ago</text>
    <rect x="280" y="655" width="60" height="30" rx="4" fill="#22c55e"/>
    <text x="310" y="675" text-anchor="middle" fill="#fff" font-family="system-ui, sans-serif" font-size="11">Accept</text>
    <rect x="345" y="655" width="60" height="30" rx="4" fill="#475569"/>
    <text x="375" y="675" text-anchor="middle" fill="#94a3b8" font-family="system-ui, sans-serif" font-size="11">Decline</text>
    <rect x="410" y="655" width="55" height="30" rx="4" fill="#ef4444"/>
    <text x="437" y="675" text-anchor="middle" fill="#fff" font-family="system-ui, sans-serif" font-size="11">Block</text>

    <!-- Blocked Users Section -->
    <rect x="500" y="440" width="440" height="300" rx="8" fill="#1e293b" stroke="#475569" stroke-width="1"/>
    <text x="520" y="470" class="heading">Blocked Users</text>

    <!-- Blocked user -->
    <rect x="510" y="490" width="420" height="60" rx="6" fill="#334155"/>
    <circle cx="545" cy="520" r="20" fill="#475569"/>
    <text x="545" y="525" text-anchor="middle" fill="#94a3b8" font-family="system-ui, sans-serif" font-size="12">🚫</text>
    <text x="580" y="513" fill="#94a3b8" font-family="system-ui, sans-serif" font-size="13">spam_account_123</text>
    <text x="580" y="530" class="text-muted">Blocked on Dec 1, 2025</text>
    <rect x="820" y="505" width="100" height="30" rx="4" fill="#475569"/>
    <text x="870" y="525" text-anchor="middle" fill="#94a3b8" font-family="system-ui, sans-serif" font-size="11">Unblock</text>

    <!-- Info text -->
    <text x="520" y="580" class="text-sm">Blocked users cannot:</text>
    <text x="530" y="600" class="text-muted">• Send you friend requests</text>
    <text x="530" y="618" class="text-muted">• Send you messages</text>
    <text x="530" y="636" class="text-muted">• See your online status</text>
  </g>

  <!-- MOBILE SECTION (right) -->
  <text x="980" y="52" class="label-mobile">MOBILE</text>
  <g id="mobile-view" transform="translate(980, 60)">
    <!-- Phone frame -->
    <rect x="0" y="0" width="360" height="700" rx="24" fill="#1e293b" stroke="#475569" stroke-width="2"/>
    <rect x="10" y="10" width="340" height="680" rx="16" fill="#0f172a"/>

    <!-- Status bar -->
    <rect x="10" y="10" width="340" height="28" rx="16" fill="#1e293b"/>
    <text x="30" y="28" class="text-sm">9:41</text>
    <text x="300" y="28" class="text-sm">📶 🔋</text>

    <!-- Header -->
    <rect x="15" y="43" width="330" height="50" rx="8" fill="#1e293b"/>
    <text x="30" y="73" fill="#fff" font-family="system-ui, sans-serif" font-size="16" font-weight="bold">Connections</text>

    <!-- Tabs -->
    <rect x="15" y="98" width="330" height="36" rx="6" fill="#334155"/>
    <rect x="20" y="103" width="100" height="26" rx="4" fill="#8b5cf6"/>
    <text x="70" y="120" text-anchor="middle" fill="#fff" font-family="system-ui, sans-serif" font-size="11">Friends</text>
    <text x="170" y="120" text-anchor="middle" fill="#94a3b8" font-family="system-ui, sans-serif" font-size="11">Requests</text>
    <circle cx="205" cy="110" r="7" fill="#ef4444"/>
    <text x="205" y="114" text-anchor="middle" fill="#fff" font-family="system-ui, sans-serif" font-size="9" font-weight="bold">3</text>
    <text x="280" y="120" text-anchor="middle" fill="#94a3b8" font-family="system-ui, sans-serif" font-size="11">Blocked</text>

    <!-- Search bar -->
    <rect x="15" y="140" width="330" height="40" rx="8" fill="#334155"/>
    <text x="35" y="165" fill="#64748b" font-family="system-ui, sans-serif" font-size="12">🔍 Search users...</text>

    <!-- Friend list -->
    <rect x="15" y="188" width="330" height="60" rx="8" fill="#334155"/>
    <circle cx="45" cy="218" r="18" fill="#d946ef"/>
    <text x="45" y="223" text-anchor="middle" fill="#fff" font-family="system-ui, sans-serif" font-size="11">AS</text>
    <text x="75" y="210" fill="#fff" font-family="system-ui, sans-serif" font-size="13" font-weight="600">alex_stone</text>
    <text x="75" y="227" class="text-sm">Online</text>
    <circle cx="125" cy="222" r="4" fill="#22c55e"/>
    <rect x="270" y="203" width="65" height="30" rx="4" fill="#8b5cf6"/>
    <text x="302" y="223" text-anchor="middle" fill="#fff" font-family="system-ui, sans-serif" font-size="10">Message</text>

    <rect x="15" y="253" width="330" height="60" rx="8" fill="#334155"/>
    <circle cx="45" cy="283" r="18" fill="#eab308"/>
    <text x="45" y="288" text-anchor="middle" fill="#1e293b" font-family="system-ui, sans-serif" font-size="11">TW</text>
    <text x="75" y="275" fill="#fff" font-family="system-ui, sans-serif" font-size="13" font-weight="600">taylor_west</text>
    <text x="75" y="292" class="text-muted">Offline</text>
    <rect x="270" y="268" width="65" height="30" rx="4" fill="#8b5cf6"/>
    <text x="302" y="288" text-anchor="middle" fill="#fff" font-family="system-ui, sans-serif" font-size="10">Message</text>

    <rect x="15" y="318" width="330" height="60" rx="8" fill="#334155"/>
    <circle cx="45" cy="348" r="18" fill="#22c55e"/>
    <text x="45" y="353" text-anchor="middle" fill="#fff" font-family="system-ui, sans-serif" font-size="11">RJ</text>
    <text x="75" y="340" fill="#fff" font-family="system-ui, sans-serif" font-size="13" font-weight="600">riley_jones</text>
    <text x="75" y="357" class="text-sm">Online</text>
    <circle cx="130" cy="352" r="4" fill="#22c55e"/>
    <rect x="270" y="333" width="65" height="30" rx="4" fill="#8b5cf6"/>
    <text x="302" y="353" text-anchor="middle" fill="#fff" font-family="system-ui, sans-serif" font-size="10">Message</text>

    <!-- Swipe action hint -->
    <rect x="15" y="383" width="330" height="60" rx="8" fill="#475569" stroke="#8b5cf6" stroke-width="2"/>
    <circle cx="45" cy="413" r="18" fill="#8b5cf6"/>
    <text x="45" y="418" text-anchor="middle" fill="#fff" font-family="system-ui, sans-serif" font-size="11">CH</text>
    <text x="75" y="405" fill="#fff" font-family="system-ui, sans-serif" font-size="13" font-weight="600">chris_harris</text>
    <text x="75" y="422" class="text-sm">Swipe for options →</text>
    <!-- Swipe reveal -->
    <rect x="285" y="388" width="55" height="50" rx="6" fill="#ef4444"/>
    <text x="312" y="418" text-anchor="middle" fill="#fff" font-family="system-ui, sans-serif" font-size="10">Unfriend</text>

    <!-- More friends... -->
    <text x="180" y="465" text-anchor="middle" class="text-muted">+ 8 more connections</text>

    <!-- Pending request notification -->
    <rect x="15" y="485" width="330" height="100" rx="8" fill="#1e293b" stroke="#ef4444" stroke-width="1"/>
    <text x="30" y="510" class="heading">New Request</text>
    <rect x="15" y="520" width="330" height="60" rx="0 0 8 8" fill="#334155"/>
    <circle cx="45" cy="550" r="18" fill="#d946ef"/>
    <text x="45" y="555" text-anchor="middle" fill="#fff" font-family="system-ui, sans-serif" font-size="11">LP</text>
    <text x="75" y="543" fill="#fff" font-family="system-ui, sans-serif" font-size="12" font-weight="600">laura_parker</text>
    <text x="75" y="559" class="text-sm">Wants to connect</text>
    <rect x="230" y="538" width="50" height="26" rx="4" fill="#22c55e"/>
    <text x="255" y="555" text-anchor="middle" fill="#fff" font-family="system-ui, sans-serif" font-size="10">✓</text>
    <rect x="285" y="538" width="50" height="26" rx="4" fill="#475569"/>
    <text x="310" y="555" text-anchor="middle" fill="#94a3b8" font-family="system-ui, sans-serif" font-size="10">✗</text>

    <!-- Bottom nav -->
    <rect x="15" y="600" width="330" height="70" rx="8" fill="#1e293b"/>
    <g transform="translate(35, 620)">
      <text x="0" y="0" fill="#64748b" font-family="system-ui, sans-serif" font-size="20">💬</text>
      <text x="0" y="25" class="text-muted">Chats</text>
    </g>
    <g transform="translate(115, 620)">
      <text x="0" y="0" fill="#8b5cf6" font-family="system-ui, sans-serif" font-size="20">👥</text>
      <text x="0" y="25" fill="#8b5cf6" font-family="system-ui, sans-serif" font-size="10">Friends</text>
    </g>
    <g transform="translate(195, 620)">
      <text x="0" y="0" fill="#64748b" font-family="system-ui, sans-serif" font-size="20">🔔</text>
      <text x="0" y="25" class="text-muted">Alerts</text>
    </g>
    <g transform="translate(275, 620)">
      <text x="0" y="0" fill="#64748b" font-family="system-ui, sans-serif" font-size="20">⚙️</text>
      <text x="0" y="25" class="text-muted">Settings</text>
    </g>
  </g>
</svg>