<svg xmlns="http://www.w3.org/2000/svg" viewBox="0 0 1400 800" width="1400" height="800">
  <!-- ============================================================
       GENERATED BY: /wireframe skill
       SOURCE: features/core-features/009-user-messaging-system/spec.md
       DATE: 2026-01-01
       THEME: Light (UX/Frontend) - v3 True Parchment
       DO NOT MANUALLY EDIT - Regenerate with /wireframe command
       ============================================================ -->
  <defs>
    <linearGradient id="bgGrad" x1="0%" y1="0%" x2="100%" y2="100%">
      <stop offset="0%" style="stop-color:#c7ddf5"/>
      <stop offset="100%" style="stop-color:#b8d4f0"/>
    </linearGradient>
    <linearGradient id="accentGrad" x1="0%" y1="0%" x2="100%" y2="0%">
      <stop offset="0%" style="stop-color:#8b5cf6"/>
      <stop offset="100%" style="stop-color:#d946ef"/>
    </linearGradient>
    <style>
      .heading-lg { fill: #1a1a2e; font-family: system-ui, sans-serif; font-size: 24px; font-weight: 800; }
      .heading { fill: #1a1a2e; font-family: system-ui, sans-serif; font-size: 16px; font-weight: 700; }
      .text-md { fill: #2d3748; font-family: system-ui, sans-serif; font-size: 14px; font-weight: 500; }
      .text-sm { fill: #374151; font-family: system-ui, sans-serif; font-size: 12px; font-weight: 500; }
      .text-muted { fill: #4b5563; font-family: system-ui, sans-serif; font-size: 11px; font-weight: 500; }
      .annotation { fill: #6d28d9; font-family: monospace; font-size: 12px; font-weight: 600; }
      .label-desktop { fill: #8b5cf6; font-family: monospace; font-size: 13px; font-weight: bold; }
      .label-mobile { fill: #d946ef; font-family: monospace; font-size: 13px; font-weight: bold; }
    </style>
  </defs>

  <!-- Background -->
  <rect width="1400" height="800" fill="url(#bgGrad)"/>

  <!-- Dot grid pattern -->
  <g opacity="0.35">
    <pattern id="dots" width="30" height="30" patternUnits="userSpaceOnUse">
      <circle cx="15" cy="15" r="1" fill="#6b8cba"/>
    </pattern>
    <rect width="1400" height="800" fill="url(#dots)"/>
  </g>

  <!-- Accent line top -->
  <rect x="0" y="0" width="1400" height="3" fill="url(#accentGrad)"/>

  <!-- Title -->
  <text x="700" y="28" text-anchor="middle" font-family="system-ui, sans-serif" font-size="14" font-weight="600" fill="#4b5563" letter-spacing="1">CHAT INTERFACE - ENCRYPTED MESSAGING</text>

  <!-- DESKTOP SECTION -->
  <text x="40" y="52" class="label-desktop">DESKTOP</text>

  <g id="desktop-view">
    <!-- Main container -->
    <rect x="40" y="60" width="900" height="700" rx="8" fill="#e8d4b8" stroke="#b8a080" stroke-width="1"/>

    <!-- Header -->
    <rect x="40" y="60" width="900" height="60" rx="8" fill="#dcc8a8"/>
    <text x="60" y="85" class="text-muted">← Back</text>
    <circle cx="130" cy="90" r="20" fill="#e8d4b8" stroke="#b8a080" stroke-width="1"/>
    <text x="130" y="95" text-anchor="middle" class="heading">JD</text>
    <text x="165" y="88" class="heading">Jane Doe</text>
    <text x="165" y="106" fill="#22c55e" font-size="11">● Online</text>
    <!-- Encryption indicator -->
    <rect x="820" y="75" width="100" height="28" rx="14" fill="#22c55e" fill-opacity="0.15" stroke="#22c55e" stroke-width="1"/>
    <text x="870" y="94" text-anchor="middle" fill="#22c55e" font-size="11" font-weight="600">🔒 E2E</text>

    <!-- Message area -->
    <rect x="60" y="135" width="860" height="530" rx="6" fill="#f5f0e6"/>

    <!-- Date separator -->
    <text x="490" y="160" text-anchor="middle" class="text-muted">Today</text>

    <!-- Their message 1 -->
    <g id="their-msg-1">
      <rect x="80" y="180" width="350" height="55" rx="12" fill="#dcc8a8"/>
      <text x="100" y="205" class="text-md">Hey! How are you doing today?</text>
      <text x="100" y="225" class="text-muted">10:30 AM</text>
    </g>

    <!-- Their message 2 -->
    <g id="their-msg-2">
      <rect x="80" y="250" width="400" height="55" rx="12" fill="#dcc8a8"/>
      <text x="100" y="275" class="text-md">Did you see the new project updates?</text>
      <text x="100" y="295" class="text-muted">10:31 AM</text>
    </g>

    <!-- My message 1 -->
    <g id="my-msg-1">
      <rect x="510" y="320" width="390" height="55" rx="12" fill="#8b5cf6"/>
      <text x="530" y="345" fill="#fff" font-size="14">I'm doing great! Yes, I saw them.</text>
      <text x="530" y="365" fill="#e0d4fc" font-size="11">10:32 AM · ✓✓ Read</text>
    </g>

    <!-- My message 2 -->
    <g id="my-msg-2">
      <rect x="560" y="390" width="340" height="75" rx="12" fill="#8b5cf6"/>
      <text x="580" y="415" fill="#fff" font-size="14">The new features look amazing!</text>
      <text x="580" y="435" fill="#fff" font-size="14">Let me know if you want to discuss.</text>
      <text x="580" y="455" fill="#e0d4fc" font-size="11">10:33 AM · ✓✓ Read</text>
    </g>

    <!-- Their message 3 with edit indicator -->
    <g id="their-msg-3">
      <rect x="80" y="480" width="420" height="55" rx="12" fill="#dcc8a8"/>
      <text x="100" y="505" class="text-md">Sure! Let's set up a meeting tomorrow.</text>
      <text x="100" y="525" class="text-muted">10:35 AM · Edited</text>
    </g>

    <!-- My message - sending -->
    <g id="my-msg-sending">
      <rect x="640" y="550" width="260" height="45" rx="12" fill="#8b5cf6" opacity="0.7"/>
      <text x="660" y="575" fill="#fff" font-size="14">Sounds good to me!</text>
      <text x="660" y="590" fill="#e0d4fc" font-size="11">Sending...</text>
    </g>

    <!-- Typing indicator -->
    <g id="typing">
      <rect x="80" y="610" width="100" height="35" rx="12" fill="#dcc8a8"/>
      <circle cx="105" cy="628" r="5" fill="#4b5563">
        <animate attributeName="opacity" values="0.3;1;0.3" dur="1s" repeatCount="indefinite"/>
      </circle>
      <circle cx="125" cy="628" r="5" fill="#4b5563">
        <animate attributeName="opacity" values="0.3;1;0.3" dur="1s" begin="0.2s" repeatCount="indefinite"/>
      </circle>
      <circle cx="145" cy="628" r="5" fill="#4b5563">
        <animate attributeName="opacity" values="0.3;1;0.3" dur="1s" begin="0.4s" repeatCount="indefinite"/>
      </circle>
      <text x="195" y="633" class="text-muted">Jane is typing...</text>
    </g>

    <!-- Input area -->
    <rect x="60" y="680" width="700" height="50" rx="6" fill="#f5f0e6" stroke="#b8a080" stroke-width="1"/>
    <text x="80" y="710" class="text-muted">Type a message...</text>

    <!-- Send button -->
    <rect x="775" y="680" width="80" height="50" rx="6" fill="#8b5cf6"/>
    <text x="815" y="710" text-anchor="middle" fill="#fff" font-size="14" font-weight="600">Send</text>

    <!-- Emoji button -->
    <rect x="860" y="680" width="50" height="50" rx="6" fill="#dcc8a8" stroke="#b8a080" stroke-width="1"/>
    <text x="885" y="712" text-anchor="middle" font-size="20">😊</text>
  </g>

  <!-- MOBILE SECTION -->
  <text x="980" y="52" class="label-mobile">MOBILE</text>

  <g id="mobile-view" transform="translate(980, 60)">
    <!-- Phone frame -->
    <rect x="0" y="0" width="360" height="700" rx="24" fill="#c8b898" stroke="#a08860" stroke-width="2"/>
    <!-- Screen -->
    <rect x="10" y="10" width="340" height="680" rx="16" fill="#e8d4b8"/>

    <!-- Status bar -->
    <rect x="10" y="10" width="340" height="28" rx="16" fill="#dcc8a8"/>
    <text x="30" y="28" class="text-sm">9:41</text>
    <text x="310" y="28" text-anchor="end" class="text-sm">📶 🔋</text>

    <!-- Header -->
    <rect x="10" y="38" width="340" height="50" fill="#dcc8a8"/>
    <text x="25" y="68" class="text-md">←</text>
    <circle cx="70" cy="63" r="16" fill="#e8d4b8" stroke="#b8a080" stroke-width="1"/>
    <text x="70" y="68" text-anchor="middle" fill="#1a1a2e" font-size="11" font-weight="bold">JD</text>
    <text x="95" y="58" class="heading">Jane Doe</text>
    <text x="95" y="72" fill="#22c55e" font-size="10">● Online</text>
    <text x="310" y="68" fill="#22c55e" font-size="12">🔒</text>

    <!-- Messages -->
    <rect x="20" y="98" width="320" height="510" rx="6" fill="#f5f0e6"/>

    <!-- Date -->
    <text x="180" y="118" text-anchor="middle" class="text-muted">Today</text>

    <!-- Their message -->
    <rect x="30" y="130" width="200" height="40" rx="10" fill="#dcc8a8"/>
    <text x="45" y="152" class="text-sm">Hey! How are you?</text>
    <text x="45" y="165" class="text-muted">10:30</text>

    <!-- Their message 2 -->
    <rect x="30" y="185" width="220" height="40" rx="10" fill="#dcc8a8"/>
    <text x="45" y="207" class="text-sm">Did you see the updates?</text>
    <text x="45" y="220" class="text-muted">10:31</text>

    <!-- My message -->
    <rect x="140" y="240" width="190" height="40" rx="10" fill="#8b5cf6"/>
    <text x="155" y="262" fill="#fff" font-size="12">I'm doing great!</text>
    <text x="155" y="275" fill="#e0d4fc" font-size="10">10:32 · ✓✓</text>

    <!-- My message 2 -->
    <rect x="100" y="295" width="230" height="50" rx="10" fill="#8b5cf6"/>
    <text x="115" y="315" fill="#fff" font-size="12">The new features look</text>
    <text x="115" y="330" fill="#fff" font-size="12">amazing!</text>
    <text x="115" y="343" fill="#e0d4fc" font-size="10">10:33 · ✓✓</text>

    <!-- Their message with edit -->
    <rect x="30" y="360" width="240" height="40" rx="10" fill="#dcc8a8"/>
    <text x="45" y="382" class="text-sm">Let's set up a meeting!</text>
    <text x="45" y="395" class="text-muted">10:35 · Edited</text>

    <!-- My sending message -->
    <rect x="150" y="415" width="180" height="35" rx="10" fill="#8b5cf6" opacity="0.7"/>
    <text x="165" y="437" fill="#fff" font-size="12">Sounds good!</text>
    <text x="165" y="447" fill="#e0d4fc" font-size="10">Sending...</text>

    <!-- Typing indicator -->
    <rect x="30" y="465" width="80" height="30" rx="10" fill="#dcc8a8"/>
    <text x="70" y="485" text-anchor="middle" class="text-muted">...</text>
    <text x="120" y="485" class="text-muted">typing</text>

    <!-- Scroll to bottom button -->
    <circle cx="300" cy="560" r="18" fill="#8b5cf6" stroke="#fff" stroke-width="2"/>
    <text x="300" y="565" text-anchor="middle" fill="#fff" font-size="14">↓</text>

    <!-- Input -->
    <rect x="20" y="618" width="250" height="40" rx="6" fill="#f5f0e6" stroke="#b8a080" stroke-width="1"/>
    <text x="35" y="643" class="text-muted">Message...</text>

    <!-- Send button -->
    <rect x="280" y="618" width="50" height="40" rx="6" fill="#8b5cf6"/>
    <text x="305" y="643" text-anchor="middle" fill="#fff" font-size="16">→</text>

    <!-- Bottom safe area -->
    <rect x="10" y="665" width="340" height="25" rx="16" fill="#e8d4b8"/>
  </g>

  <!-- Annotations -->
  <g id="annotations">
    <rect x="40" y="765" width="180" height="25" rx="4" fill="#e8d4b8" stroke="#8b5cf6" stroke-width="1"/>
    <text x="130" y="782" text-anchor="middle" class="annotation">FR-016 to FR-033</text>

    <rect x="240" y="765" width="280" height="25" rx="4" fill="#e8d4b8" stroke="#8b5cf6" stroke-width="1"/>
    <text x="380" y="782" text-anchor="middle" class="text-muted">E2E encryption, real-time, read receipts</text>
  </g>
</svg>
