<svg xmlns="http://www.w3.org/2000/svg" viewBox="0 0 1400 800" width="1400" height="800">
  <!-- ============================================================
       GENERATED BY: /wireframe skill
       SOURCE: features/core-features/009-user-messaging-system/spec.md
       DATE: 2026-01-01
       THEME: Light (UX/Frontend) - v3 True Parchment
       DO NOT MANUALLY EDIT - Regenerate with /wireframe command
       ============================================================ -->
  <defs>
    <linearGradient id="bgGrad" x1="0%" y1="0%" x2="100%" y2="100%">
      <stop offset="0%" style="stop-color:#c7ddf5"/>
      <stop offset="100%" style="stop-color:#b8d4f0"/>
    </linearGradient>
    <linearGradient id="accentGrad" x1="0%" y1="0%" x2="100%" y2="0%">
      <stop offset="0%" style="stop-color:#8b5cf6"/>
      <stop offset="100%" style="stop-color:#d946ef"/>
    </linearGradient>
    <style>
      .heading-lg { fill: #1a1a2e; font-family: system-ui, sans-serif; font-size: 24px; font-weight: 800; }
      .heading { fill: #1a1a2e; font-family: system-ui, sans-serif; font-size: 16px; font-weight: 700; }
      .text-md { fill: #2d3748; font-family: system-ui, sans-serif; font-size: 14px; font-weight: 500; }
      .text-sm { fill: #374151; font-family: system-ui, sans-serif; font-size: 12px; font-weight: 500; }
      .text-muted { fill: #4b5563; font-family: system-ui, sans-serif; font-size: 11px; font-weight: 500; }
      .annotation { fill: #6d28d9; font-family: monospace; font-size: 12px; font-weight: 600; }
      .label-desktop { fill: #8b5cf6; font-family: monospace; font-size: 13px; font-weight: bold; }
      .label-mobile { fill: #d946ef; font-family: monospace; font-size: 13px; font-weight: bold; }
    </style>
  </defs>

  <!-- Background -->
  <rect width="1400" height="800" fill="url(#bgGrad)"/>

  <!-- Dot grid pattern -->
  <g opacity="0.35">
    <pattern id="dots" width="30" height="30" patternUnits="userSpaceOnUse">
      <circle cx="15" cy="15" r="1" fill="#6b8cba"/>
    </pattern>
    <rect width="1400" height="800" fill="url(#dots)"/>
  </g>

  <!-- Accent line top -->
  <rect x="0" y="0" width="1400" height="3" fill="url(#accentGrad)"/>

  <!-- Title -->
  <text x="700" y="28" text-anchor="middle" font-family="system-ui, sans-serif" font-size="14" font-weight="600" fill="#4b5563" letter-spacing="1">FRIEND REQUESTS &amp; CONNECTION MANAGEMENT</text>

  <!-- DESKTOP SECTION -->
  <text x="40" y="52" class="label-desktop">DESKTOP</text>

  <g id="desktop-view">
    <!-- Main container -->
    <rect x="40" y="60" width="900" height="700" rx="8" fill="#e8d4b8" stroke="#b8a080" stroke-width="1"/>

    <!-- Header -->
    <rect x="40" y="60" width="900" height="60" rx="8" fill="#dcc8a8"/>
    <text x="60" y="100" class="heading-lg">Friends</text>

    <!-- Tab navigation -->
    <g id="tabs">
      <rect x="250" y="75" width="120" height="32" rx="6" fill="#8b5cf6"/>
      <text x="310" y="96" text-anchor="middle" fill="#fff" font-size="13" font-weight="600">Requests (3)</text>

      <rect x="380" y="75" width="100" height="32" rx="6" fill="transparent" stroke="#b8a080" stroke-width="1"/>
      <text x="430" y="96" text-anchor="middle" class="text-md">All Friends</text>

      <rect x="490" y="75" width="80" height="32" rx="6" fill="transparent" stroke="#b8a080" stroke-width="1"/>
      <text x="530" y="96" text-anchor="middle" class="text-md">Blocked</text>
    </g>

    <!-- Search bar -->
    <rect x="60" y="135" width="860" height="40" rx="6" fill="#f5f0e6" stroke="#b8a080" stroke-width="1"/>
    <text x="80" y="160" class="text-muted">🔍 Search users to add...</text>

    <!-- Search results dropdown -->
    <rect x="60" y="175" width="500" height="120" rx="6" fill="#f5f0e6" stroke="#8b5cf6" stroke-width="1"/>
    <text x="80" y="200" class="text-muted">Search results:</text>

    <!-- Search result 1 -->
    <rect x="70" y="210" width="480" height="35" rx="4" fill="#e8d4b8"/>
    <circle cx="95" cy="228" r="12" fill="#dcc8a8"/>
    <text x="95" y="232" text-anchor="middle" fill="#1a1a2e" font-size="10" font-weight="bold">AB</text>
    <text x="120" y="232" class="text-md">Alex Brown</text>
    <text x="200" y="232" class="text-muted">@alexb</text>
    <rect x="450" y="215" width="90" height="26" rx="4" fill="#8b5cf6"/>
    <text x="495" y="233" text-anchor="middle" fill="#fff" font-size="11">+ Add</text>

    <!-- Search result 2 -->
    <rect x="70" y="250" width="480" height="35" rx="4" fill="#e8d4b8"/>
    <circle cx="95" cy="268" r="12" fill="#dcc8a8"/>
    <text x="95" y="272" text-anchor="middle" fill="#1a1a2e" font-size="10" font-weight="bold">AC</text>
    <text x="120" y="272" class="text-md">Anna Chen</text>
    <text x="200" y="272" class="text-muted">@annac</text>
    <rect x="450" y="255" width="90" height="26" rx="4" fill="#dcc8a8" stroke="#b8a080"/>
    <text x="495" y="273" text-anchor="middle" class="text-muted">Pending</text>

    <!-- Section: Pending Requests -->
    <text x="60" y="330" class="heading">Pending Requests (3)</text>

    <!-- Request 1 -->
    <rect x="60" y="345" width="860" height="70" rx="6" fill="#f5f0e6" stroke="#b8a080" stroke-width="1"/>
    <circle cx="100" cy="380" r="22" fill="#dcc8a8" stroke="#b8a080" stroke-width="1"/>
    <text x="100" y="385" text-anchor="middle" class="heading">MJ</text>
    <text x="140" y="370" class="heading">Mike Johnson</text>
    <text x="140" y="390" class="text-muted">@mikej · 2 mutual friends · Sent 2 hours ago</text>
    <!-- Accept button -->
    <rect x="720" y="362" width="80" height="32" rx="6" fill="#22c55e"/>
    <text x="760" y="383" text-anchor="middle" fill="#fff" font-size="12" font-weight="600">Accept</text>
    <!-- Decline button -->
    <rect x="810" y="362" width="80" height="32" rx="6" fill="transparent" stroke="#ef4444" stroke-width="1"/>
    <text x="850" y="383" text-anchor="middle" fill="#ef4444" font-size="12">Decline</text>

    <!-- Request 2 -->
    <rect x="60" y="430" width="860" height="70" rx="6" fill="#f5f0e6" stroke="#b8a080" stroke-width="1"/>
    <circle cx="100" cy="465" r="22" fill="#dcc8a8" stroke="#b8a080" stroke-width="1"/>
    <text x="100" y="470" text-anchor="middle" class="heading">LP</text>
    <text x="140" y="455" class="heading">Lisa Park</text>
    <text x="140" y="475" class="text-muted">@lisap · 5 mutual friends · Sent yesterday</text>
    <rect x="720" y="447" width="80" height="32" rx="6" fill="#22c55e"/>
    <text x="760" y="468" text-anchor="middle" fill="#fff" font-size="12" font-weight="600">Accept</text>
    <rect x="810" y="447" width="80" height="32" rx="6" fill="transparent" stroke="#ef4444" stroke-width="1"/>
    <text x="850" y="468" text-anchor="middle" fill="#ef4444" font-size="12">Decline</text>

    <!-- Request 3 -->
    <rect x="60" y="515" width="860" height="70" rx="6" fill="#f5f0e6" stroke="#b8a080" stroke-width="1"/>
    <circle cx="100" cy="550" r="22" fill="#dcc8a8" stroke="#b8a080" stroke-width="1"/>
    <text x="100" y="555" text-anchor="middle" class="heading">DW</text>
    <text x="140" y="540" class="heading">David Wilson</text>
    <text x="140" y="560" class="text-muted">@davidw · No mutual friends · Sent 3 days ago</text>
    <rect x="720" y="532" width="80" height="32" rx="6" fill="#22c55e"/>
    <text x="760" y="553" text-anchor="middle" fill="#fff" font-size="12" font-weight="600">Accept</text>
    <rect x="810" y="532" width="80" height="32" rx="6" fill="transparent" stroke="#ef4444" stroke-width="1"/>
    <text x="850" y="553" text-anchor="middle" fill="#ef4444" font-size="12">Decline</text>

    <!-- Block option menu (contextual) -->
    <rect x="750" y="600" width="150" height="80" rx="6" fill="#f5f0e6" stroke="#b8a080" stroke-width="1"/>
    <text x="770" y="625" class="text-md">More options:</text>
    <rect x="760" y="640" width="130" height="28" rx="4" fill="#ef4444" fill-opacity="0.1"/>
    <text x="825" y="659" text-anchor="middle" fill="#ef4444" font-size="12">🚫 Block User</text>

    <!-- Sent requests section -->
    <text x="60" y="630" class="heading">Sent Requests (1)</text>
    <rect x="60" y="645" width="600" height="60" rx="6" fill="#f5f0e6" stroke="#b8a080" stroke-width="1"/>
    <circle cx="100" cy="675" r="18" fill="#dcc8a8"/>
    <text x="100" y="680" text-anchor="middle" fill="#1a1a2e" font-size="10" font-weight="bold">JK</text>
    <text x="130" y="670" class="heading">James Kim</text>
    <text x="130" y="688" class="text-muted">Request sent 1 hour ago</text>
    <rect x="520" y="660" width="120" height="28" rx="4" fill="#dcc8a8" stroke="#b8a080"/>
    <text x="580" y="679" text-anchor="middle" class="text-muted">Cancel Request</text>
  </g>

  <!-- MOBILE SECTION -->
  <text x="980" y="52" class="label-mobile">MOBILE</text>

  <g id="mobile-view" transform="translate(980, 60)">
    <!-- Phone frame -->
    <rect x="0" y="0" width="360" height="700" rx="24" fill="#c8b898" stroke="#a08860" stroke-width="2"/>
    <!-- Screen -->
    <rect x="10" y="10" width="340" height="680" rx="16" fill="#e8d4b8"/>

    <!-- Status bar -->
    <rect x="10" y="10" width="340" height="28" rx="16" fill="#dcc8a8"/>
    <text x="30" y="28" class="text-sm">9:41</text>
    <text x="310" y="28" text-anchor="end" class="text-sm">📶 🔋</text>

    <!-- Header -->
    <rect x="10" y="38" width="340" height="50" fill="#dcc8a8"/>
    <text x="30" y="72" class="heading-lg">Friends</text>

    <!-- Tabs -->
    <rect x="20" y="98" width="100" height="28" rx="6" fill="#8b5cf6"/>
    <text x="70" y="116" text-anchor="middle" fill="#fff" font-size="11" font-weight="600">Requests (3)</text>
    <rect x="130" y="98" width="80" height="28" rx="6" fill="transparent" stroke="#b8a080"/>
    <text x="170" y="116" text-anchor="middle" class="text-sm">Friends</text>
    <rect x="220" y="98" width="70" height="28" rx="6" fill="transparent" stroke="#b8a080"/>
    <text x="255" y="116" text-anchor="middle" class="text-sm">Blocked</text>

    <!-- Search -->
    <rect x="20" y="140" width="320" height="36" rx="6" fill="#f5f0e6" stroke="#b8a080" stroke-width="1"/>
    <text x="40" y="163" class="text-muted">🔍 Search users...</text>

    <!-- Request 1 -->
    <rect x="20" y="190" width="320" height="80" rx="6" fill="#f5f0e6" stroke="#b8a080" stroke-width="1"/>
    <circle cx="50" cy="215" r="18" fill="#dcc8a8"/>
    <text x="50" y="220" text-anchor="middle" fill="#1a1a2e" font-size="10" font-weight="bold">MJ</text>
    <text x="80" y="210" class="heading">Mike Johnson</text>
    <text x="80" y="226" class="text-muted">@mikej · 2 mutual</text>
    <!-- Buttons -->
    <rect x="30" y="242" width="100" height="22" rx="4" fill="#22c55e"/>
    <text x="80" y="257" text-anchor="middle" fill="#fff" font-size="10">Accept</text>
    <rect x="140" y="242" width="100" height="22" rx="4" fill="transparent" stroke="#ef4444"/>
    <text x="190" y="257" text-anchor="middle" fill="#ef4444" font-size="10">Decline</text>
    <text x="270" y="257" class="text-muted">⋮</text>

    <!-- Request 2 -->
    <rect x="20" y="285" width="320" height="80" rx="6" fill="#f5f0e6" stroke="#b8a080" stroke-width="1"/>
    <circle cx="50" cy="310" r="18" fill="#dcc8a8"/>
    <text x="50" y="315" text-anchor="middle" fill="#1a1a2e" font-size="10" font-weight="bold">LP</text>
    <text x="80" y="305" class="heading">Lisa Park</text>
    <text x="80" y="321" class="text-muted">@lisap · 5 mutual</text>
    <rect x="30" y="337" width="100" height="22" rx="4" fill="#22c55e"/>
    <text x="80" y="352" text-anchor="middle" fill="#fff" font-size="10">Accept</text>
    <rect x="140" y="337" width="100" height="22" rx="4" fill="transparent" stroke="#ef4444"/>
    <text x="190" y="352" text-anchor="middle" fill="#ef4444" font-size="10">Decline</text>

    <!-- Request 3 -->
    <rect x="20" y="380" width="320" height="80" rx="6" fill="#f5f0e6" stroke="#b8a080" stroke-width="1"/>
    <circle cx="50" cy="405" r="18" fill="#dcc8a8"/>
    <text x="50" y="410" text-anchor="middle" fill="#1a1a2e" font-size="10" font-weight="bold">DW</text>
    <text x="80" y="400" class="heading">David Wilson</text>
    <text x="80" y="416" class="text-muted">@davidw · No mutual</text>
    <rect x="30" y="432" width="100" height="22" rx="4" fill="#22c55e"/>
    <text x="80" y="447" text-anchor="middle" fill="#fff" font-size="10">Accept</text>
    <rect x="140" y="432" width="100" height="22" rx="4" fill="transparent" stroke="#ef4444"/>
    <text x="190" y="447" text-anchor="middle" fill="#ef4444" font-size="10">Decline</text>

    <!-- Sent section -->
    <text x="30" y="495" class="heading">Sent Requests</text>
    <rect x="20" y="505" width="320" height="60" rx="6" fill="#f5f0e6" stroke="#b8a080" stroke-width="1"/>
    <circle cx="50" cy="535" r="16" fill="#dcc8a8"/>
    <text x="50" y="540" text-anchor="middle" fill="#1a1a2e" font-size="9" font-weight="bold">JK</text>
    <text x="75" y="530" class="text-md">James Kim</text>
    <text x="75" y="546" class="text-muted">Pending...</text>
    <rect x="240" y="522" width="90" height="24" rx="4" fill="#dcc8a8"/>
    <text x="285" y="538" text-anchor="middle" class="text-muted">Cancel</text>

    <!-- Bottom nav -->
    <rect x="10" y="640" width="340" height="50" rx="16" fill="#dcc8a8"/>
    <text x="70" y="670" text-anchor="middle" class="text-muted">💬 Chats</text>
    <text x="180" y="670" text-anchor="middle" fill="#8b5cf6" font-size="11" font-weight="600">👥 Friends</text>
    <text x="290" y="670" text-anchor="middle" class="text-muted">⚙️ Settings</text>
  </g>

  <!-- Annotations -->
  <g id="annotations">
    <rect x="40" y="765" width="140" height="25" rx="4" fill="#e8d4b8" stroke="#8b5cf6" stroke-width="1"/>
    <text x="110" y="782" text-anchor="middle" class="annotation">FR-001 to FR-007</text>

    <rect x="200" y="765" width="260" height="25" rx="4" fill="#e8d4b8" stroke="#8b5cf6" stroke-width="1"/>
    <text x="330" y="782" text-anchor="middle" class="text-muted">Search, request, accept, decline, block</text>
  </g>
</svg>
