<svg xmlns="http://www.w3.org/2000/svg" viewBox="0 0 1400 800" width="1400" height="800">
  <!-- ============================================================
       GENERATED BY: /wireframe skill
       SOURCE: features/core-features/009-user-messaging-system/spec.md
       DATE: 2025-12-31
       DO NOT MANUALLY EDIT - Regenerate with /wireframe command
       ============================================================ -->
  <defs>
    <linearGradient id="bgGrad" x1="0%" y1="0%" x2="100%" y2="100%">
      <stop offset="0%" style="stop-color:#0f172a"/>
      <stop offset="100%" style="stop-color:#1e293b"/>
    </linearGradient>
    <linearGradient id="accentGrad" x1="0%" y1="0%" x2="100%" y2="0%">
      <stop offset="0%" style="stop-color:#8b5cf6"/>
      <stop offset="100%" style="stop-color:#d946ef"/>
    </linearGradient>
    <style>
      .heading-lg { fill: #ffffff; font-family: system-ui, sans-serif; font-size: 20px; font-weight: bold; }
      .heading { fill: #ffffff; font-family: system-ui, sans-serif; font-size: 14px; font-weight: bold; }
      .text-md { fill: #cbd5e1; font-family: system-ui, sans-serif; font-size: 12px; }
      .text-sm { fill: #94a3b8; font-family: system-ui, sans-serif; font-size: 10px; }
      .text-muted { fill: #64748b; font-family: system-ui, sans-serif; font-size: 10px; }
      .annotation { fill: #8b5cf6; font-family: monospace; font-size: 10px; }
      .label-desktop { fill: #8b5cf6; font-family: monospace; font-size: 11px; font-weight: bold; }
      .label-mobile { fill: #d946ef; font-family: monospace; font-size: 11px; font-weight: bold; }
    </style>
  </defs>

  <!-- Background -->
  <rect width="1400" height="800" fill="url(#bgGrad)"/>

  <!-- Dot grid pattern -->
  <g opacity="0.05">
    <pattern id="dots" width="30" height="30" patternUnits="userSpaceOnUse">
      <circle cx="15" cy="15" r="1" fill="#fff"/>
    </pattern>
    <rect width="1400" height="800" fill="url(#dots)"/>
  </g>

  <!-- Accent line top -->
  <rect x="0" y="0" width="1400" height="3" fill="url(#accentGrad)"/>

  <!-- Title -->
  <text x="700" y="28" text-anchor="middle" font-family="system-ui, sans-serif" font-size="14" font-weight="600" fill="#64748b" letter-spacing="1">MESSAGING SETTINGS &amp; GDPR DATA RIGHTS</text>

  <!-- DESKTOP SECTION (left) -->
  <text x="40" y="52" class="label-desktop">DESKTOP</text>
  <g id="desktop-view">
    <!-- Settings sidebar -->
    <rect x="40" y="60" width="200" height="680" rx="8" fill="#1e293b"/>
    <text x="55" y="90" class="heading">Settings</text>

    <!-- Nav items -->
    <rect x="48" y="110" width="184" height="40" rx="6" fill="#334155"/>
    <text x="68" y="135" fill="#94a3b8" font-family="system-ui, sans-serif" font-size="13">👤 Profile</text>

    <rect x="48" y="158" width="184" height="40" rx="6" fill="#334155"/>
    <text x="68" y="183" fill="#94a3b8" font-family="system-ui, sans-serif" font-size="13">🔔 Notifications</text>

    <rect x="48" y="206" width="184" height="40" rx="6" fill="#8b5cf6" opacity="0.3"/>
    <rect x="48" y="206" width="4" height="40" rx="2" fill="#8b5cf6"/>
    <text x="68" y="231" fill="#8b5cf6" font-family="system-ui, sans-serif" font-size="13">💬 Messaging</text>

    <rect x="48" y="254" width="184" height="40" rx="6" fill="#334155"/>
    <text x="68" y="279" fill="#94a3b8" font-family="system-ui, sans-serif" font-size="13">🔐 Security</text>

    <rect x="48" y="302" width="184" height="40" rx="6" fill="#334155"/>
    <text x="68" y="327" fill="#94a3b8" font-family="system-ui, sans-serif" font-size="13">📊 Privacy &amp; Data</text>

    <!-- Main settings panel -->
    <rect x="250" y="60" width="690" height="680" rx="8" fill="#0f172a" stroke="#475569" stroke-width="1"/>

    <!-- Section: Encryption -->
    <rect x="265" y="75" width="660" height="140" rx="8" fill="#1e293b"/>
    <text x="285" y="105" class="heading">🔐 Encryption Settings</text>

    <rect x="280" y="120" width="630" height="80" rx="6" fill="#334155"/>
    <text x="300" y="145" fill="#22c55e" font-family="system-ui, sans-serif" font-size="13">✅ End-to-End Encryption Active</text>
    <text x="300" y="165" class="text-sm">Your messages are encrypted on your device before being sent.</text>
    <text x="300" y="183" class="text-sm">Only you and the recipient can read them.</text>
    <rect x="780" y="135" width="115" height="30" rx="4" fill="#334155" stroke="#475569" stroke-width="1"/>
    <text x="837" y="155" text-anchor="middle" class="text-sm">View Keys</text>

    <!-- Key warning box -->
    <rect x="265" y="225" width="660" height="90" rx="8" fill="#eab308" opacity="0.1" stroke="#eab308" stroke-width="1"/>
    <text x="285" y="255" fill="#eab308" font-family="system-ui, sans-serif" font-size="13" font-weight="600">⚠️ Important: Encryption Key Storage</text>
    <text x="285" y="280" class="text-sm" fill="#eab308">Your encryption keys are stored locally in your browser.</text>
    <text x="285" y="300" class="text-sm" fill="#eab308">Clearing browser data will permanently delete your keys and make old messages unreadable.</text>

    <!-- Section: GDPR Data Rights -->
    <rect x="265" y="330" width="660" height="200" rx="8" fill="#1e293b"/>
    <text x="285" y="360" class="heading">📋 Your Data Rights (GDPR)</text>

    <!-- Export Data -->
    <rect x="280" y="380" width="310" height="130" rx="6" fill="#334155"/>
    <text x="300" y="410" fill="#fff" font-family="system-ui, sans-serif" font-size="13" font-weight="600">📥 Export Your Data</text>
    <text x="300" y="435" class="text-sm">Download all your messaging data</text>
    <text x="300" y="455" class="text-sm">including conversations and metadata.</text>
    <text x="300" y="480" class="text-muted">Format: JSON (decrypted)</text>
    <rect x="300" y="490" width="150" height="32" rx="4" fill="#8b5cf6"/>
    <text x="375" y="511" text-anchor="middle" fill="#fff" font-family="system-ui, sans-serif" font-size="12">Export Data</text>

    <!-- Delete Account -->
    <rect x="605" y="380" width="310" height="130" rx="6" fill="#334155" stroke="#ef4444" stroke-width="1"/>
    <text x="625" y="410" fill="#ef4444" font-family="system-ui, sans-serif" font-size="13" font-weight="600">🗑️ Delete Account</text>
    <text x="625" y="435" class="text-sm">Permanently delete your account</text>
    <text x="625" y="455" class="text-sm">and all associated data.</text>
    <text x="625" y="480" class="text-muted">This action cannot be undone.</text>
    <rect x="625" y="490" width="150" height="32" rx="4" fill="#ef4444"/>
    <text x="700" y="511" text-anchor="middle" fill="#fff" font-family="system-ui, sans-serif" font-size="12">Delete Account</text>

    <!-- Section: Message Settings -->
    <rect x="265" y="545" width="660" height="180" rx="8" fill="#1e293b"/>
    <text x="285" y="575" class="heading">⚙️ Message Preferences</text>

    <!-- Edit window setting -->
    <rect x="280" y="595" width="630" height="50" rx="6" fill="#334155"/>
    <text x="300" y="625" fill="#fff" font-family="system-ui, sans-serif" font-size="12">Edit/Delete Time Window</text>
    <rect x="700" y="605" width="195" height="30" rx="4" fill="#475569"/>
    <text x="720" y="625" class="text-sm">5 minutes ▼</text>

    <!-- Read receipts toggle -->
    <rect x="280" y="655" width="630" height="50" rx="6" fill="#334155"/>
    <text x="300" y="685" fill="#fff" font-family="system-ui, sans-serif" font-size="12">Send Read Receipts</text>
    <rect x="835" y="665" width="50" height="26" rx="13" fill="#8b5cf6"/>
    <circle cx="870" cy="678" r="10" fill="#fff"/>

    <!-- Typing indicators toggle -->
    <rect x="280" y="715" width="630" height="50" rx="6" fill="#334155"/>
    <text x="300" y="745" fill="#fff" font-family="system-ui, sans-serif" font-size="12">Show Typing Indicator</text>
    <rect x="835" y="725" width="50" height="26" rx="13" fill="#8b5cf6"/>
    <circle cx="870" cy="738" r="10" fill="#fff"/>
  </g>

  <!-- MOBILE SECTION (right) -->
  <text x="980" y="52" class="label-mobile">MOBILE</text>
  <g id="mobile-view" transform="translate(980, 60)">
    <!-- Phone frame -->
    <rect x="0" y="0" width="360" height="700" rx="24" fill="#1e293b" stroke="#475569" stroke-width="2"/>
    <rect x="10" y="10" width="340" height="680" rx="16" fill="#0f172a"/>

    <!-- Status bar -->
    <rect x="10" y="10" width="340" height="28" rx="16" fill="#1e293b"/>
    <text x="30" y="28" class="text-sm">9:41</text>
    <text x="300" y="28" class="text-sm">📶 🔋</text>

    <!-- Header -->
    <rect x="15" y="43" width="330" height="50" rx="8" fill="#1e293b"/>
    <text x="30" y="73" fill="#94a3b8" font-family="system-ui, sans-serif" font-size="16">←</text>
    <text x="60" y="73" fill="#fff" font-family="system-ui, sans-serif" font-size="16" font-weight="bold">Messaging Settings</text>

    <!-- Encryption status -->
    <rect x="15" y="100" width="330" height="70" rx="8" fill="#1e293b"/>
    <text x="30" y="125" fill="#fff" font-family="system-ui, sans-serif" font-size="13" font-weight="600">🔐 Encryption</text>
    <text x="30" y="148" fill="#22c55e" font-family="system-ui, sans-serif" font-size="11">✅ End-to-End Encrypted</text>
    <rect x="260" y="115" width="75" height="28" rx="4" fill="#334155"/>
    <text x="297" y="133" text-anchor="middle" class="text-sm">View Keys</text>

    <!-- Key warning -->
    <rect x="15" y="178" width="330" height="55" rx="8" fill="#eab308" opacity="0.15"/>
    <text x="30" y="200" fill="#eab308" font-family="system-ui, sans-serif" font-size="11" font-weight="600">⚠️ Keys stored locally</text>
    <text x="30" y="218" fill="#eab308" font-family="system-ui, sans-serif" font-size="10">Clearing browser data deletes keys</text>

    <!-- GDPR Section -->
    <text x="25" y="255" class="text-muted">YOUR DATA RIGHTS</text>

    <!-- Export -->
    <rect x="15" y="265" width="330" height="70" rx="8" fill="#1e293b"/>
    <text x="30" y="295" fill="#fff" font-family="system-ui, sans-serif" font-size="13">📥 Export Your Data</text>
    <text x="30" y="315" class="text-sm">Download conversations as JSON</text>
    <text x="285" y="295" fill="#8b5cf6" font-family="system-ui, sans-serif" font-size="12">Export →</text>

    <!-- Delete Account -->
    <rect x="15" y="343" width="330" height="70" rx="8" fill="#1e293b" stroke="#ef4444" stroke-width="1"/>
    <text x="30" y="373" fill="#ef4444" font-family="system-ui, sans-serif" font-size="13">🗑️ Delete Account</text>
    <text x="30" y="393" fill="#ef4444" font-family="system-ui, sans-serif" font-size="10">Permanently remove all data</text>
    <text x="285" y="373" fill="#ef4444" font-family="system-ui, sans-serif" font-size="12">Delete →</text>

    <!-- Preferences Section -->
    <text x="25" y="438" class="text-muted">PREFERENCES</text>

    <!-- Edit window -->
    <rect x="15" y="448" width="330" height="50" rx="8" fill="#1e293b"/>
    <text x="30" y="478" fill="#fff" font-family="system-ui, sans-serif" font-size="12">Edit Time Window</text>
    <text x="275" y="478" fill="#94a3b8" font-family="system-ui, sans-serif" font-size="12">5 min ▼</text>

    <!-- Read receipts -->
    <rect x="15" y="506" width="330" height="50" rx="8" fill="#1e293b"/>
    <text x="30" y="536" fill="#fff" font-family="system-ui, sans-serif" font-size="12">Read Receipts</text>
    <rect x="280" y="518" width="45" height="22" rx="11" fill="#8b5cf6"/>
    <circle cx="313" cy="529" r="8" fill="#fff"/>

    <!-- Typing indicator -->
    <rect x="15" y="564" width="330" height="50" rx="8" fill="#1e293b"/>
    <text x="30" y="594" fill="#fff" font-family="system-ui, sans-serif" font-size="12">Typing Indicator</text>
    <rect x="280" y="576" width="45" height="22" rx="11" fill="#8b5cf6"/>
    <circle cx="313" cy="587" r="8" fill="#fff"/>

    <!-- Bottom nav -->
    <rect x="15" y="625" width="330" height="55" rx="8" fill="#1e293b"/>
    <g transform="translate(35, 640)">
      <text x="0" y="0" fill="#64748b" font-family="system-ui, sans-serif" font-size="18">💬</text>
      <text x="-5" y="20" class="text-muted">Chats</text>
    </g>
    <g transform="translate(105, 640)">
      <text x="0" y="0" fill="#64748b" font-family="system-ui, sans-serif" font-size="18">👥</text>
      <text x="-8" y="20" class="text-muted">Friends</text>
    </g>
    <g transform="translate(175, 640)">
      <text x="0" y="0" fill="#64748b" font-family="system-ui, sans-serif" font-size="18">🔔</text>
      <text x="-5" y="20" class="text-muted">Alerts</text>
    </g>
    <g transform="translate(245, 640)">
      <text x="0" y="0" fill="#8b5cf6" font-family="system-ui, sans-serif" font-size="18">⚙️</text>
      <text x="-8" y="20" fill="#8b5cf6" font-family="system-ui, sans-serif" font-size="10">Settings</text>
    </g>
  </g>

  <!-- Delete Account Confirmation Modal (overlay) -->
  <g id="delete-modal" transform="translate(500, 250)">
    <rect x="0" y="0" width="400" height="300" rx="12" fill="#1e293b" stroke="#ef4444" stroke-width="2"/>

    <text x="200" y="40" text-anchor="middle" fill="#ef4444" font-family="system-ui, sans-serif" font-size="18" font-weight="bold">⚠️ Delete Account?</text>

    <text x="30" y="80" fill="#fff" font-family="system-ui, sans-serif" font-size="12">This will permanently delete:</text>

    <text x="40" y="110" class="text-sm">• All your messages and conversations</text>
    <text x="40" y="130" class="text-sm">• All your friend connections</text>
    <text x="40" y="150" class="text-sm">• Your encryption keys</text>
    <text x="40" y="170" class="text-sm">• All associated data</text>

    <rect x="30" y="190" width="340" height="40" rx="6" fill="#334155"/>
    <text x="50" y="215" fill="#64748b" font-family="system-ui, sans-serif" font-size="12">Type "DELETE" to confirm</text>

    <rect x="30" y="245" width="165" height="40" rx="6" fill="#475569"/>
    <text x="112" y="270" text-anchor="middle" fill="#fff" font-family="system-ui, sans-serif" font-size="13">Cancel</text>

    <rect x="205" y="245" width="165" height="40" rx="6" fill="#ef4444" opacity="0.5"/>
    <text x="287" y="270" text-anchor="middle" fill="#fff" font-family="system-ui, sans-serif" font-size="13">Delete Forever</text>
  </g>
</svg>