<svg xmlns="http://www.w3.org/2000/svg" viewBox="0 0 1400 800" width="1400" height="800">
  <!-- ============================================================
       GENERATED BY: /wireframe skill
       SOURCE: features/foundation/003-user-authentication/spec.md
       DATE: 2026-01-01
       THEME: Light (UX/Frontend) - v3 True Parchment
       REGENERATED WITH FEEDBACK: features/foundation/003-user-authentication/WIREFRAME_ISSUES.md
       DO NOT MANUALLY EDIT - Regenerate with /wireframe command
       ============================================================ -->
  <defs>
    <linearGradient id="bgGrad" x1="0%" y1="0%" x2="100%" y2="100%">
      <stop offset="0%" style="stop-color:#c7ddf5"/>
      <stop offset="100%" style="stop-color:#b8d4f0"/>
    </linearGradient>
    <linearGradient id="accentGrad" x1="0%" y1="0%" x2="100%" y2="0%">
      <stop offset="0%" style="stop-color:#8b5cf6"/>
      <stop offset="100%" style="stop-color:#d946ef"/>
    </linearGradient>
    <style>
      .heading-lg { fill: #1a1a2e; font-family: system-ui, sans-serif; font-size: 22px; font-weight: 800; }
      .heading { fill: #1a1a2e; font-family: system-ui, sans-serif; font-size: 16px; font-weight: 700; }
      .text-md { fill: #2d3748; font-family: system-ui, sans-serif; font-size: 14px; font-weight: 500; }
      .text-sm { fill: #374151; font-family: system-ui, sans-serif; font-size: 12px; font-weight: 500; }
      .text-muted { fill: #4b5563; font-family: system-ui, sans-serif; font-size: 11px; font-weight: 500; }
      .annotation { fill: #6d28d9; font-family: monospace; font-size: 11px; font-weight: 600; }
      .label-desktop { fill: #8b5cf6; font-family: monospace; font-size: 13px; font-weight: bold; }
      .label-mobile { fill: #d946ef; font-family: monospace; font-size: 13px; font-weight: bold; }
      .input-label { fill: #2d3748; font-family: system-ui, sans-serif; font-size: 12px; font-weight: 600; }
      .link-text { fill: #8b5cf6; font-family: system-ui, sans-serif; font-size: 12px; font-weight: 500; }
      .btn-text { fill: #ffffff; font-family: system-ui, sans-serif; font-size: 14px; font-weight: 600; }
      .error-text { fill: #dc2626; font-family: system-ui, sans-serif; font-size: 11px; font-weight: 500; }
    </style>
  </defs>

  <!-- Background -->
  <rect width="1400" height="800" fill="url(#bgGrad)"/>

  <!-- Dot grid -->
  <g opacity="0.35">
    <pattern id="dots" width="30" height="30" patternUnits="userSpaceOnUse">
      <circle cx="15" cy="15" r="1" fill="#6b8cba"/>
    </pattern>
    <rect width="1400" height="800" fill="url(#dots)"/>
  </g>

  <!-- Accent line -->
  <rect x="0" y="0" width="1400" height="3" fill="url(#accentGrad)"/>

  <!-- Title -->
  <text x="700" y="28" text-anchor="middle" font-family="system-ui, sans-serif" font-size="14" font-weight="600" fill="#4b5563" letter-spacing="1">USER AUTHENTICATION — LOGIN &amp; SIGNUP (User Stories 1, 2, 4)</text>

  <!-- ==================== DESKTOP LOGIN ==================== -->
  <text x="40" y="52" class="label-desktop">DESKTOP — SIGN IN</text>

  <g id="login-card" transform="translate(40, 65)">
    <rect x="0" y="0" width="400" height="560" rx="12" fill="#e8d4b8" stroke="#b8a080"/>

    <!-- Logo -->
    <circle cx="200" cy="45" r="28" fill="#dcc8a8" stroke="#8b5cf6" stroke-width="2"/>
    <text x="200" y="52" text-anchor="middle" class="heading">SH</text>

    <!-- Title -->
    <text x="200" y="100" text-anchor="middle" class="heading-lg">Welcome Back</text>
    <text x="200" y="120" text-anchor="middle" class="text-muted">Sign in to your account</text>

    <!-- Email - 44px -->
    <text x="30" y="155" class="input-label">Email Address</text>
    <rect x="30" y="165" width="340" height="44" rx="6" fill="#f5f0e6" stroke="#b8a080"/>
    <text x="45" y="193" class="text-muted">you@example.com</text>

    <!-- Password - 44px -->
    <text x="30" y="230" class="input-label">Password</text>
    <rect x="30" y="240" width="340" height="44" rx="6" fill="#f5f0e6" stroke="#b8a080"/>
    <text x="45" y="268" class="text-muted">••••••••</text>
    <circle cx="350" cy="262" r="10" fill="#dcc8a8"/>

    <!-- Remember + Forgot -->
    <g transform="translate(30, 300)">
      <rect x="0" y="0" width="16" height="16" rx="3" fill="#f5f0e6" stroke="#b8a080"/>
      <text x="24" y="13" class="text-sm">Remember me (30 days)</text>
      <text x="340" y="13" text-anchor="end" class="link-text">Forgot password?</text>
    </g>

    <!-- Sign In button - 44px -->
    <rect x="30" y="335" width="340" height="44" rx="6" fill="#8b5cf6"/>
    <text x="200" y="363" text-anchor="middle" class="btn-text">Sign In</text>

    <!-- Divider -->
    <line x1="30" y1="405" x2="160" y2="405" stroke="#b8a080"/>
    <text x="200" y="410" text-anchor="middle" class="text-muted">or continue with</text>
    <line x1="240" y1="405" x2="370" y2="405" stroke="#b8a080"/>

    <!-- OAuth - 44px each -->
    <rect x="30" y="425" width="165" height="44" rx="6" fill="#f5f0e6" stroke="#b8a080"/>
    <text x="112" y="453" text-anchor="middle" class="text-md">GitHub</text>

    <rect x="205" y="425" width="165" height="44" rx="6" fill="#f5f0e6" stroke="#b8a080"/>
    <text x="287" y="453" text-anchor="middle" class="text-md">Google</text>

    <!-- Create account link -->
    <text x="200" y="505" text-anchor="middle" class="text-sm">Don't have an account?</text>
    <text x="200" y="525" text-anchor="middle" class="link-text">Create an account</text>

    <!-- Error state -->
    <rect x="30" y="540" width="340" height="28" rx="4" fill="#fef2f2" stroke="#dc2626"/>
    <text x="200" y="559" text-anchor="middle" class="error-text">Invalid email or password</text>
  </g>

  <!-- ==================== DESKTOP SIGNUP ==================== -->
  <text x="460" y="52" class="label-desktop">DESKTOP — CREATE ACCOUNT</text>

  <g id="signup-card" transform="translate(460, 65)">
    <rect x="0" y="0" width="400" height="560" rx="12" fill="#e8d4b8" stroke="#b8a080"/>

    <!-- Title -->
    <text x="200" y="35" text-anchor="middle" class="heading-lg">Create Account</text>
    <text x="200" y="55" text-anchor="middle" class="text-muted">Start your journey with ScriptHammer</text>

    <!-- Email - 44px -->
    <text x="30" y="85" class="input-label">Email Address *</text>
    <rect x="30" y="95" width="340" height="44" rx="6" fill="#f5f0e6" stroke="#b8a080"/>

    <!-- Password - 44px -->
    <text x="30" y="160" class="input-label">Password *</text>
    <rect x="30" y="170" width="340" height="44" rx="6" fill="#f5f0e6" stroke="#b8a080"/>
    <text x="30" y="232" class="text-muted">Min 8 chars: uppercase, lowercase, number, special</text>

    <!-- Confirm - 44px -->
    <text x="30" y="262" class="input-label">Confirm Password *</text>
    <rect x="30" y="272" width="340" height="44" rx="6" fill="#f5f0e6" stroke="#b8a080"/>

    <!-- Display name - 44px -->
    <text x="30" y="337" class="input-label">Display Name (optional)</text>
    <rect x="30" y="347" width="340" height="44" rx="6" fill="#f5f0e6" stroke="#b8a080"/>

    <!-- Terms -->
    <g transform="translate(30, 405)">
      <rect x="0" y="0" width="16" height="16" rx="3" fill="#f5f0e6" stroke="#b8a080"/>
      <text x="24" y="13" class="text-sm">I agree to Terms and Privacy Policy</text>
    </g>

    <!-- Create button - 44px -->
    <rect x="30" y="435" width="340" height="44" rx="6" fill="#8b5cf6"/>
    <text x="200" y="463" text-anchor="middle" class="btn-text">Create Account</text>

    <!-- Divider -->
    <line x1="30" y1="500" x2="160" y2="500" stroke="#b8a080"/>
    <text x="200" y="505" text-anchor="middle" class="text-muted">or sign up with</text>
    <line x1="240" y1="500" x2="370" y2="500" stroke="#b8a080"/>

    <!-- OAuth - 44px each -->
    <rect x="30" y="515" width="165" height="44" rx="6" fill="#f5f0e6" stroke="#b8a080"/>
    <text x="112" y="543" text-anchor="middle" class="text-md">GitHub</text>

    <rect x="205" y="515" width="165" height="44" rx="6" fill="#f5f0e6" stroke="#b8a080"/>
    <text x="287" y="543" text-anchor="middle" class="text-md">Google</text>
  </g>

  <!-- ==================== MOBILE ==================== -->
  <text x="980" y="52" class="label-mobile">MOBILE — SIGN IN</text>

  <g id="mobile-login" transform="translate(980, 65)">
    <!-- Phone frame -->
    <rect x="0" y="0" width="360" height="660" rx="24" fill="#c8b898" stroke="#a08860" stroke-width="2"/>
    <rect x="10" y="10" width="340" height="640" rx="16" fill="#e8d4b8"/>

    <!-- Status bar -->
    <rect x="10" y="10" width="340" height="28" rx="16" fill="#dcc8a8"/>
    <text x="28" y="28" class="text-sm">9:41</text>
    <text x="320" y="28" text-anchor="end" class="text-sm">100%</text>

    <!-- Logo -->
    <circle cx="180" cy="75" r="22" fill="#dcc8a8" stroke="#8b5cf6" stroke-width="2"/>
    <text x="180" y="81" text-anchor="middle" class="heading">SH</text>

    <!-- Title -->
    <text x="180" y="120" text-anchor="middle" class="heading">Welcome Back</text>
    <text x="180" y="138" text-anchor="middle" class="text-muted">Sign in to continue</text>

    <!-- Email - 44px -->
    <text x="25" y="168" class="input-label">Email</text>
    <rect x="25" y="178" width="290" height="44" rx="6" fill="#f5f0e6" stroke="#b8a080"/>

    <!-- Password - 44px -->
    <text x="25" y="243" class="input-label">Password</text>
    <rect x="25" y="253" width="290" height="44" rx="6" fill="#f5f0e6" stroke="#b8a080"/>

    <!-- Forgot -->
    <text x="315" y="318" text-anchor="end" class="link-text">Forgot password?</text>

    <!-- Sign In - 44px -->
    <rect x="25" y="338" width="290" height="44" rx="6" fill="#8b5cf6"/>
    <text x="170" y="366" text-anchor="middle" class="btn-text">Sign In</text>

    <!-- Or -->
    <text x="170" y="410" text-anchor="middle" class="text-muted">or</text>

    <!-- OAuth stacked - 44px each -->
    <rect x="25" y="425" width="290" height="44" rx="6" fill="#f5f0e6" stroke="#b8a080"/>
    <text x="170" y="453" text-anchor="middle" class="text-md">Continue with GitHub</text>

    <rect x="25" y="480" width="290" height="44" rx="6" fill="#f5f0e6" stroke="#b8a080"/>
    <text x="170" y="508" text-anchor="middle" class="text-md">Continue with Google</text>

    <!-- Create account -->
    <text x="170" y="560" text-anchor="middle" class="text-sm">Don't have an account?</text>
    <text x="170" y="580" text-anchor="middle" class="link-text">Create an account</text>

    <!-- Home indicator -->
    <rect x="140" y="625" width="80" height="5" rx="2.5" fill="#b8a080"/>
  </g>

  <!-- ==================== ANNOTATIONS ==================== -->
  <g id="annotations" transform="translate(0, 640)">
    <rect x="40" y="0" width="200" height="55" rx="6" fill="#e8d4b8" stroke="#8b5cf6"/>
    <text x="50" y="20" class="annotation">FR-006, FR-007, FR-008</text>
    <text x="50" y="38" class="text-muted">Email + OAuth sign-in</text>

    <rect x="260" y="0" width="200" height="55" rx="6" fill="#e8d4b8" stroke="#8b5cf6"/>
    <text x="270" y="20" class="annotation">FR-013, FR-014</text>
    <text x="270" y="38" class="text-muted">Remember me: 30d / 7d</text>

    <rect x="480" y="0" width="200" height="55" rx="6" fill="#e8d4b8" stroke="#8b5cf6"/>
    <text x="490" y="20" class="annotation">FR-001 to FR-005</text>
    <text x="490" y="38" class="text-muted">Account creation + verify</text>

    <rect x="700" y="0" width="200" height="55" rx="6" fill="#e8d4b8" stroke="#8b5cf6"/>
    <text x="710" y="20" class="annotation">FR-016</text>
    <text x="710" y="38" class="text-muted">5 attempts / 15 min lockout</text>
  </g>

  <!-- Footer -->
  <text x="700" y="780" text-anchor="middle" class="text-muted">003-user-authentication | Login &amp; Signup | ScriptHammer</text>
</svg>
