<svg xmlns="http://www.w3.org/2000/svg" viewBox="0 0 1400 800" width="1400" height="800">
  <!-- ============================================================
       GENERATED BY: /wireframe skill
       SOURCE: features/foundation/003-user-authentication/spec.md
       DATE: 2026-01-02
       THEME: Light (UX/Frontend) - v3 True Parchment
       REGENERATED WITH FEEDBACK: features/foundation/003-user-authentication/WIREFRAME_ISSUES.md
       DO NOT MANUALLY EDIT - Regenerate with /wireframe command
       ============================================================ -->
  <defs>
    <linearGradient id="bgGrad" x1="0%" y1="0%" x2="100%" y2="100%">
      <stop offset="0%" style="stop-color:#c7ddf5"/>
      <stop offset="100%" style="stop-color:#b8d4f0"/>
    </linearGradient>
    <linearGradient id="accentGrad" x1="0%" y1="0%" x2="100%" y2="0%">
      <stop offset="0%" style="stop-color:#8b5cf6"/>
      <stop offset="100%" style="stop-color:#d946ef"/>
    </linearGradient>
    <style>
      .heading-lg { fill: #1a1a2e; font-family: system-ui, sans-serif; font-size: 22px; font-weight: 800; }
      .heading { fill: #1a1a2e; font-family: system-ui, sans-serif; font-size: 16px; font-weight: 700; }
      .text-md { fill: #2d3748; font-family: system-ui, sans-serif; font-size: 14px; font-weight: 500; }
      .text-sm { fill: #374151; font-family: system-ui, sans-serif; font-size: 12px; font-weight: 500; }
      .text-muted { fill: #4b5563; font-family: system-ui, sans-serif; font-size: 11px; font-weight: 500; }
      .annotation { fill: #6d28d9; font-family: monospace; font-size: 11px; font-weight: 600; }
      .label-desktop { fill: #8b5cf6; font-family: monospace; font-size: 13px; font-weight: bold; }
      .label-mobile { fill: #d946ef; font-family: monospace; font-size: 13px; font-weight: bold; }
      .input-label { fill: #2d3748; font-family: system-ui, sans-serif; font-size: 12px; font-weight: 600; }
      .link-text { fill: #8b5cf6; font-family: system-ui, sans-serif; font-size: 12px; font-weight: 500; }
      .btn-text { fill: #ffffff; font-family: system-ui, sans-serif; font-size: 14px; font-weight: 600; }
      .error-text { fill: #dc2626; font-family: system-ui, sans-serif; font-size: 11px; font-weight: 500; }
      .req-title { fill: #1a1a2e; font-family: system-ui, sans-serif; font-size: 11px; font-weight: 700; }
      .req-text { fill: #4b5563; font-family: system-ui, sans-serif; font-size: 10px; font-weight: 500; }
    </style>
  </defs>

  <!-- Background -->
  <rect width="1400" height="800" fill="url(#bgGrad)"/>

  <!-- Dot grid -->
  <g opacity="0.35">
    <pattern id="dots" width="30" height="30" patternUnits="userSpaceOnUse">
      <circle cx="15" cy="15" r="1" fill="#6b8cba"/>
    </pattern>
    <rect width="1400" height="800" fill="url(#dots)"/>
  </g>

  <!-- Accent line -->
  <rect x="0" y="0" width="1400" height="3" fill="url(#accentGrad)"/>

  <!-- Title -->
  <text x="700" y="28" text-anchor="middle" font-family="system-ui, sans-serif" font-size="14" font-weight="600" fill="#4b5563" letter-spacing="1">USER AUTHENTICATION — LOGIN &amp; SIGNUP (US-1, US-2, US-4)</text>

  <!-- ==================== DESKTOP LOGIN ==================== -->
  <text x="40" y="52" class="label-desktop">DESKTOP — SIGN IN</text>

  <g id="login-card" transform="translate(40, 65)">
    <rect x="0" y="0" width="400" height="520" rx="12" fill="#e8d4b8" stroke="#b8a080"/>

    <!-- Logo -->
    <circle cx="200" cy="45" r="28" fill="#dcc8a8" stroke="#8b5cf6" stroke-width="2"/>
    <text x="200" y="52" text-anchor="middle" class="heading">SH</text>

    <!-- Title -->
    <text x="200" y="100" text-anchor="middle" class="heading-lg">Welcome Back</text>
    <text x="200" y="120" text-anchor="middle" class="text-muted">Sign in to your account</text>

    <!-- Email - 44px -->
    <text x="30" y="155" class="input-label">Email Address</text>
    <rect x="30" y="165" width="340" height="44" rx="6" fill="#f5f0e6" stroke="#b8a080"/>
    <text x="45" y="193" class="text-muted">you@example.com</text>

    <!-- Password - 44px -->
    <text x="30" y="230" class="input-label">Password</text>
    <rect x="30" y="240" width="340" height="44" rx="6" fill="#f5f0e6" stroke="#b8a080"/>
    <text x="45" y="268" class="text-muted">••••••••</text>
    <circle cx="350" cy="262" r="10" fill="#dcc8a8"/>

    <!-- Remember + Forgot - 44px tap target for checkbox -->
    <g transform="translate(30, 300)">
      <!-- Invisible 44x44 tap target for checkbox -->
      <rect x="-14" y="-14" width="44" height="44" rx="6" fill="transparent"/>
      <rect x="0" y="0" width="16" height="16" rx="3" fill="#f5f0e6" stroke="#b8a080"/>
      <text x="24" y="13" class="text-sm">Remember me (30 days)</text>
      <text x="340" y="13" text-anchor="end" class="link-text">Forgot password?</text>
    </g>

    <!-- Sign In button - 44px -->
    <rect x="30" y="335" width="340" height="44" rx="6" fill="#8b5cf6"/>
    <text x="200" y="363" text-anchor="middle" class="btn-text">Sign In</text>

    <!-- Divider -->
    <line x1="30" y1="405" x2="160" y2="405" stroke="#b8a080"/>
    <text x="200" y="410" text-anchor="middle" class="text-muted">or continue with</text>
    <line x1="240" y1="405" x2="370" y2="405" stroke="#b8a080"/>

    <!-- OAuth - 44px each -->
    <rect x="30" y="425" width="165" height="44" rx="6" fill="#f5f0e6" stroke="#b8a080"/>
    <text x="112" y="453" text-anchor="middle" class="text-md">GitHub</text>

    <rect x="205" y="425" width="165" height="44" rx="6" fill="#f5f0e6" stroke="#b8a080"/>
    <text x="287" y="453" text-anchor="middle" class="text-md">Google</text>

    <!-- Create account link -->
    <text x="200" y="495" text-anchor="middle" class="text-sm">Don't have an account?</text>
    <text x="200" y="512" text-anchor="middle" class="link-text">Create an account</text>
  </g>

  <!-- ==================== DESKTOP SIGNUP ==================== -->
  <text x="460" y="52" class="label-desktop">DESKTOP — CREATE ACCOUNT</text>

  <g id="signup-card" transform="translate(460, 65)">
    <rect x="0" y="0" width="400" height="520" rx="12" fill="#e8d4b8" stroke="#b8a080"/>

    <!-- Title -->
    <text x="200" y="35" text-anchor="middle" class="heading-lg">Create Account</text>
    <text x="200" y="55" text-anchor="middle" class="text-muted">Start your journey with ScriptHammer</text>

    <!-- Email - 44px -->
    <text x="30" y="85" class="input-label">Email Address *</text>
    <rect x="30" y="95" width="340" height="44" rx="6" fill="#f5f0e6" stroke="#b8a080"/>

    <!-- Password - 44px -->
    <text x="30" y="160" class="input-label">Password *</text>
    <rect x="30" y="170" width="340" height="44" rx="6" fill="#f5f0e6" stroke="#b8a080"/>
    <text x="30" y="232" class="text-muted">Min 8 chars: uppercase, lowercase, number, special</text>

    <!-- Confirm - 44px -->
    <text x="30" y="262" class="input-label">Confirm Password *</text>
    <rect x="30" y="272" width="340" height="44" rx="6" fill="#f5f0e6" stroke="#b8a080"/>

    <!-- Display name - 44px -->
    <text x="30" y="337" class="input-label">Display Name (optional)</text>
    <rect x="30" y="347" width="340" height="44" rx="6" fill="#f5f0e6" stroke="#b8a080"/>

    <!-- Terms -->
    <g transform="translate(30, 405)">
      <rect x="-14" y="-14" width="44" height="44" fill="transparent"/>
      <rect x="0" y="0" width="16" height="16" rx="3" fill="#f5f0e6" stroke="#b8a080"/>
      <text x="24" y="13" class="text-sm">I agree to Terms and Privacy Policy</text>
    </g>

    <!-- Create button - 44px -->
    <rect x="30" y="430" width="340" height="44" rx="6" fill="#8b5cf6"/>
    <text x="200" y="458" text-anchor="middle" class="btn-text">Create Account</text>

    <!-- Already have account -->
    <text x="200" y="498" text-anchor="middle" class="text-sm">Already have an account?</text>
    <text x="200" y="515" text-anchor="middle" class="link-text">Sign in</text>
  </g>

  <!-- ==================== MOBILE ==================== -->
  <text x="980" y="52" class="label-mobile">MOBILE — SIGN IN</text>

  <g id="mobile-login" transform="translate(980, 65)">
    <!-- Phone frame -->
    <rect x="0" y="0" width="360" height="620" rx="24" fill="#c8b898" stroke="#a08860" stroke-width="2"/>
    <rect x="10" y="10" width="340" height="600" rx="16" fill="#e8d4b8"/>

    <!-- Status bar -->
    <rect x="10" y="10" width="340" height="28" rx="16" fill="#dcc8a8"/>
    <text x="28" y="28" class="text-sm">9:41</text>
    <text x="320" y="28" text-anchor="end" class="text-sm">100%</text>

    <!-- Logo -->
    <circle cx="180" cy="75" r="22" fill="#dcc8a8" stroke="#8b5cf6" stroke-width="2"/>
    <text x="180" y="81" text-anchor="middle" class="heading">SH</text>

    <!-- Title -->
    <text x="180" y="120" text-anchor="middle" class="heading">Welcome Back</text>
    <text x="180" y="138" text-anchor="middle" class="text-muted">Sign in to continue</text>

    <!-- Email - 44px -->
    <text x="25" y="168" class="input-label">Email</text>
    <rect x="25" y="178" width="290" height="44" rx="6" fill="#f5f0e6" stroke="#b8a080"/>

    <!-- Password - 44px -->
    <text x="25" y="243" class="input-label">Password</text>
    <rect x="25" y="253" width="290" height="44" rx="6" fill="#f5f0e6" stroke="#b8a080"/>

    <!-- Forgot -->
    <text x="315" y="318" text-anchor="end" class="link-text">Forgot password?</text>

    <!-- Sign In - 44px -->
    <rect x="25" y="338" width="290" height="44" rx="6" fill="#8b5cf6"/>
    <text x="170" y="366" text-anchor="middle" class="btn-text">Sign In</text>

    <!-- Or -->
    <text x="170" y="410" text-anchor="middle" class="text-muted">or</text>

    <!-- OAuth stacked - 44px each -->
    <rect x="25" y="425" width="290" height="44" rx="6" fill="#f5f0e6" stroke="#b8a080"/>
    <text x="170" y="453" text-anchor="middle" class="text-md">Continue with GitHub</text>

    <rect x="25" y="480" width="290" height="44" rx="6" fill="#f5f0e6" stroke="#b8a080"/>
    <text x="170" y="508" text-anchor="middle" class="text-md">Continue with Google</text>

    <!-- Create account -->
    <text x="170" y="555" text-anchor="middle" class="text-sm">Don't have an account?</text>
    <text x="170" y="573" text-anchor="middle" class="link-text">Create an account</text>

    <!-- Home indicator -->
    <rect x="140" y="590" width="80" height="5" rx="2.5" fill="#b8a080"/>
  </g>

  <!-- ==================== REQUIREMENTS KEY ==================== -->
  <g id="requirements-key" transform="translate(40, 600)">
    <rect x="0" y="0" width="820" height="95" rx="8" fill="#e8d4b8" stroke="#8b5cf6" stroke-width="2"/>
    <text x="15" y="20" class="req-title">REQUIREMENTS KEY</text>

    <!-- Row 1 -->
    <text x="15" y="38" class="annotation">FR-001:</text>
    <text x="70" y="38" class="req-text">Create account with email/password</text>
    <text x="280" y="38" class="annotation">FR-002:</text>
    <text x="335" y="38" class="req-text">Validate email format</text>
    <text x="500" y="38" class="annotation">FR-003:</text>
    <text x="555" y="38" class="req-text">Password: 8+ chars, mixed case, number, special</text>

    <!-- Row 2 -->
    <text x="15" y="55" class="annotation">FR-006:</text>
    <text x="70" y="55" class="req-text">Sign in with verified email</text>
    <text x="280" y="55" class="annotation">FR-007:</text>
    <text x="335" y="55" class="req-text">GitHub OAuth sign-in</text>
    <text x="500" y="55" class="annotation">FR-008:</text>
    <text x="555" y="55" class="req-text">Google OAuth sign-in</text>

    <!-- Row 3 -->
    <text x="15" y="72" class="annotation">FR-013:</text>
    <text x="70" y="72" class="req-text">Remember Me: 30 days</text>
    <text x="280" y="72" class="annotation">FR-014:</text>
    <text x="335" y="72" class="req-text">Default session: 7 days</text>
    <text x="500" y="72" class="annotation">FR-016:</text>
    <text x="555" y="72" class="req-text">5 failed attempts → 15 min lockout</text>

    <!-- Row 4 -->
    <text x="15" y="89" class="annotation">US-1:</text>
    <text x="55" y="89" class="req-text">Email/password registration</text>
    <text x="280" y="89" class="annotation">US-2:</text>
    <text x="320" y="89" class="req-text">User sign-in</text>
    <text x="500" y="89" class="annotation">US-4:</text>
    <text x="540" y="89" class="req-text">OAuth sign-in (GitHub/Google)</text>
  </g>

  <!-- ==================== ERROR STATE ANNOTATION ==================== -->
  <g id="error-annotation" transform="translate(880, 600)">
    <rect x="0" y="0" width="180" height="95" rx="8" fill="#fef2f2" stroke="#dc2626"/>
    <text x="15" y="20" class="req-title" fill="#dc2626">ERROR STATE</text>
    <text x="15" y="40" class="error-text">Invalid email or password</text>
    <text x="15" y="58" class="req-text">FR-016: Rate limiting</text>
    <text x="15" y="73" class="req-text">5 attempts / 15 min</text>
    <text x="15" y="88" class="req-text">Show remaining attempts</text>
  </g>

  <!-- Footer -->
  <text x="60" y="780" text-anchor="start" class="text-muted">003:01 | Login &amp; Signup | ScriptHammer</text>
</svg>
