<svg xmlns="http://www.w3.org/2000/svg" viewBox="0 0 1400 800" width="1400" height="800">
  <!-- ============================================================
       GENERATED BY: /wireframe skill
       SOURCE: features/foundation/003-user-authentication/spec.md
       DATE: 2025-12-30
       DO NOT MANUALLY EDIT - Regenerate with /wireframe command
       ============================================================ -->
  <defs>
    <linearGradient id="bgGrad" x1="0%" y1="0%" x2="100%" y2="100%">
      <stop offset="0%" style="stop-color:#0f172a"/>
      <stop offset="100%" style="stop-color:#1e293b"/>
    </linearGradient>
    <linearGradient id="accentGrad" x1="0%" y1="0%" x2="100%" y2="0%">
      <stop offset="0%" style="stop-color:#8b5cf6"/>
      <stop offset="100%" style="stop-color:#d946ef"/>
    </linearGradient>
    <style>
      .heading-lg { fill: #ffffff; font-family: system-ui, sans-serif; font-size: 20px; font-weight: bold; }
      .heading { fill: #ffffff; font-family: system-ui, sans-serif; font-size: 14px; font-weight: bold; }
      .text-md { fill: #cbd5e1; font-family: system-ui, sans-serif; font-size: 12px; }
      .text-sm { fill: #94a3b8; font-family: system-ui, sans-serif; font-size: 10px; }
      .text-muted { fill: #64748b; font-family: system-ui, sans-serif; font-size: 10px; }
      .annotation { fill: #8b5cf6; font-family: monospace; font-size: 10px; }
      .label-desktop { fill: #8b5cf6; font-family: monospace; font-size: 11px; font-weight: bold; }
      .label-mobile { fill: #d946ef; font-family: monospace; font-size: 11px; font-weight: bold; }
    </style>
  </defs>

  <!-- Background -->
  <rect width="1400" height="800" fill="url(#bgGrad)"/>

  <!-- Dot grid pattern -->
  <g opacity="0.05">
    <pattern id="dots" width="30" height="30" patternUnits="userSpaceOnUse">
      <circle cx="15" cy="15" r="1" fill="#fff"/>
    </pattern>
    <rect width="1400" height="800" fill="url(#dots)"/>
  </g>

  <!-- Accent line top -->
  <rect x="0" y="0" width="1400" height="3" fill="url(#accentGrad)"/>

  <!-- Title -->
  <text x="700" y="28" text-anchor="middle" font-family="system-ui, sans-serif" font-size="14" font-weight="600" fill="#64748b" letter-spacing="1">USER AUTHENTICATION - SIGN IN &amp; REGISTER</text>

  <!-- DESKTOP SECTION -->
  <text x="40" y="52" class="label-desktop">DESKTOP - SIGN IN</text>

  <g id="desktop-view">
    <!-- Main container centered -->
    <rect x="200" y="80" width="550" height="620" rx="12" fill="#1e293b" stroke="#475569" stroke-width="1"/>

    <!-- Logo/Brand area -->
    <rect x="400" y="110" width="150" height="40" rx="8" fill="#334155"/>
    <text x="475" y="135" text-anchor="middle" class="heading-lg">ScriptHammer</text>

    <!-- Sign In Header -->
    <text x="475" y="185" text-anchor="middle" class="heading-lg">Sign In</text>
    <text x="475" y="205" text-anchor="middle" class="text-sm">Welcome back! Please enter your credentials</text>

    <!-- Email field -->
    <text x="270" y="245" class="text-sm">Email Address</text>
    <rect x="270" y="255" width="410" height="40" rx="6" fill="#0f172a" stroke="#475569" stroke-width="1"/>
    <text x="285" y="280" class="text-muted">you@example.com</text>

    <!-- Password field -->
    <text x="270" y="315" class="text-sm">Password</text>
    <rect x="270" y="325" width="410" height="40" rx="6" fill="#0f172a" stroke="#475569" stroke-width="1"/>
    <text x="285" y="350" class="text-muted">••••••••</text>
    <!-- Eye icon -->
    <circle cx="655" cy="345" r="8" fill="none" stroke="#64748b" stroke-width="1"/>
    <circle cx="655" cy="345" r="3" fill="#64748b"/>

    <!-- Remember me + Forgot password row -->
    <rect x="270" y="385" width="14" height="14" rx="3" fill="#0f172a" stroke="#8b5cf6" stroke-width="1"/>
    <text x="290" y="396" class="text-sm">Remember me for 30 days</text>
    <text x="680" y="396" text-anchor="end" fill="#8b5cf6" font-family="system-ui, sans-serif" font-size="11">Forgot Password?</text>

    <!-- Sign In button -->
    <rect x="270" y="420" width="410" height="44" rx="8" fill="url(#accentGrad)"/>
    <text x="475" y="448" text-anchor="middle" fill="#fff" font-family="system-ui, sans-serif" font-size="14" font-weight="600">Sign In</text>

    <!-- Divider -->
    <line x1="270" y1="490" x2="370" y2="490" stroke="#475569" stroke-width="1"/>
    <text x="475" y="494" text-anchor="middle" class="text-muted">or continue with</text>
    <line x1="580" y1="490" x2="680" y2="490" stroke="#475569" stroke-width="1"/>

    <!-- OAuth buttons -->
    <rect x="270" y="515" width="200" height="44" rx="8" fill="#0f172a" stroke="#475569" stroke-width="1"/>
    <circle cx="305" cy="537" r="10" fill="#24292e"/>
    <text x="305" y="541" text-anchor="middle" fill="#fff" font-size="12">G</text>
    <text x="380" y="542" text-anchor="middle" class="text-md">GitHub</text>

    <rect x="480" y="515" width="200" height="44" rx="8" fill="#0f172a" stroke="#475569" stroke-width="1"/>
    <circle cx="515" cy="537" r="10" fill="#4285f4"/>
    <text x="515" y="541" text-anchor="middle" fill="#fff" font-size="12">G</text>
    <text x="590" y="542" text-anchor="middle" class="text-md">Google</text>

    <!-- Sign up link -->
    <text x="425" y="600" class="text-sm">Don't have an account?</text>
    <text x="570" y="600" fill="#8b5cf6" font-family="system-ui, sans-serif" font-size="11">Sign Up</text>

    <!-- Error state indicator (subtle) -->
    <g opacity="0.6">
      <rect x="270" y="640" width="410" height="32" rx="6" fill="#7f1d1d" stroke="#ef4444" stroke-width="1"/>
      <text x="285" y="660" fill="#fca5a5" font-family="system-ui, sans-serif" font-size="11">⚠ Invalid email or password. 4 attempts remaining.</text>
    </g>
  </g>

  <!-- MOBILE SECTION -->
  <text x="980" y="52" class="label-mobile">MOBILE - REGISTER</text>

  <g id="mobile-view" transform="translate(980, 60)">
    <!-- Phone frame -->
    <rect x="0" y="0" width="360" height="700" rx="24" fill="#1e293b" stroke="#475569" stroke-width="2"/>
    <rect x="10" y="10" width="340" height="680" rx="16" fill="#0f172a"/>

    <!-- Status bar -->
    <rect x="10" y="10" width="340" height="28" rx="16" fill="#1e293b"/>
    <text x="30" y="28" class="text-sm">9:41</text>
    <text x="320" y="28" text-anchor="end" class="text-sm">📶 🔋</text>

    <!-- Back arrow -->
    <text x="30" y="65" fill="#8b5cf6" font-family="system-ui, sans-serif" font-size="14">← Back</text>

    <!-- Register Header -->
    <text x="180" y="100" text-anchor="middle" class="heading-lg">Create Account</text>
    <text x="180" y="120" text-anchor="middle" class="text-sm">Join to access payment features</text>

    <!-- Full name field -->
    <text x="30" y="155" class="text-sm">Display Name</text>
    <rect x="30" y="165" width="300" height="36" rx="6" fill="#1e293b" stroke="#475569" stroke-width="1"/>
    <text x="45" y="188" class="text-muted">John Doe</text>

    <!-- Email field -->
    <text x="30" y="220" class="text-sm">Email Address</text>
    <rect x="30" y="230" width="300" height="36" rx="6" fill="#1e293b" stroke="#475569" stroke-width="1"/>
    <text x="45" y="253" class="text-muted">you@example.com</text>

    <!-- Password field -->
    <text x="30" y="285" class="text-sm">Password</text>
    <rect x="30" y="295" width="300" height="36" rx="6" fill="#1e293b" stroke="#475569" stroke-width="1"/>
    <text x="45" y="318" class="text-muted">Min 8 chars, upper, lower, number, symbol</text>

    <!-- Password strength indicator -->
    <rect x="30" y="340" width="75" height="4" rx="2" fill="#22c55e"/>
    <rect x="110" y="340" width="75" height="4" rx="2" fill="#22c55e"/>
    <rect x="190" y="340" width="75" height="4" rx="2" fill="#334155"/>
    <rect x="270" y="340" width="60" height="4" rx="2" fill="#334155"/>
    <text x="30" y="358" class="text-sm" fill="#22c55e">Medium strength</text>

    <!-- Confirm password -->
    <text x="30" y="385" class="text-sm">Confirm Password</text>
    <rect x="30" y="395" width="300" height="36" rx="6" fill="#1e293b" stroke="#475569" stroke-width="1"/>

    <!-- Terms checkbox -->
    <rect x="30" y="450" width="14" height="14" rx="3" fill="#8b5cf6"/>
    <text x="28" y="460" fill="#fff" font-size="10">✓</text>
    <text x="50" y="461" class="text-sm">I agree to the Terms of Service</text>
    <text x="50" y="476" class="text-sm">and Privacy Policy</text>

    <!-- Create Account button -->
    <rect x="30" y="500" width="300" height="44" rx="8" fill="url(#accentGrad)"/>
    <text x="180" y="528" text-anchor="middle" fill="#fff" font-family="system-ui, sans-serif" font-size="14" font-weight="600">Create Account</text>

    <!-- Divider -->
    <line x1="30" y1="565" x2="120" y2="565" stroke="#475569" stroke-width="1"/>
    <text x="180" y="569" text-anchor="middle" class="text-muted">or</text>
    <line x1="240" y1="565" x2="330" y2="565" stroke="#475569" stroke-width="1"/>

    <!-- OAuth buttons stacked -->
    <rect x="30" y="585" width="300" height="40" rx="8" fill="#1e293b" stroke="#475569" stroke-width="1"/>
    <text x="180" y="610" text-anchor="middle" class="text-md">Continue with GitHub</text>

    <rect x="30" y="635" width="300" height="40" rx="8" fill="#1e293b" stroke="#475569" stroke-width="1"/>
    <text x="180" y="660" text-anchor="middle" class="text-md">Continue with Google</text>
  </g>

  <!-- Annotations -->
  <g id="annotations">
    <!-- Desktop annotations -->
    <rect x="770" y="250" width="150" height="50" rx="4" fill="#1e293b" stroke="#8b5cf6" stroke-width="1"/>
    <text x="845" y="270" text-anchor="middle" class="annotation">FR-006</text>
    <text x="845" y="285" text-anchor="middle" class="text-muted">Email/password auth</text>

    <rect x="770" y="380" width="150" height="50" rx="4" fill="#1e293b" stroke="#8b5cf6" stroke-width="1"/>
    <text x="845" y="400" text-anchor="middle" class="annotation">FR-013</text>
    <text x="845" y="415" text-anchor="middle" class="text-muted">30-day session</text>

    <rect x="770" y="510" width="150" height="50" rx="4" fill="#1e293b" stroke="#8b5cf6" stroke-width="1"/>
    <text x="845" y="530" text-anchor="middle" class="annotation">FR-007/008</text>
    <text x="845" y="545" text-anchor="middle" class="text-muted">GitHub + Google OAuth</text>

    <rect x="770" y="640" width="150" height="40" rx="4" fill="#1e293b" stroke="#ef4444" stroke-width="1"/>
    <text x="845" y="660" text-anchor="middle" class="annotation" fill="#ef4444">FR-016</text>
    <text x="845" y="675" text-anchor="middle" class="text-muted">Rate limiting</text>
  </g>

  <!-- Leader lines -->
  <g id="leader-lines">
    <line x1="770" y1="275" x2="685" y2="280" stroke="#8b5cf6" stroke-width="1" stroke-dasharray="4,2"/>
    <line x1="770" y1="405" x2="685" y2="395" stroke="#8b5cf6" stroke-width="1" stroke-dasharray="4,2"/>
    <line x1="770" y1="535" x2="685" y2="537" stroke="#8b5cf6" stroke-width="1" stroke-dasharray="4,2"/>
    <line x1="770" y1="660" x2="685" y2="656" stroke="#ef4444" stroke-width="1" stroke-dasharray="4,2"/>
  </g>
</svg>