<svg xmlns="http://www.w3.org/2000/svg" viewBox="0 0 1400 800" width="1400" height="800">
  <!-- ============================================================
       GENERATED BY: /wireframe skill
       SOURCE: features/foundation/003-user-authentication/spec.md
       DATE: 2025-12-31
       THEME: Light (UX/Frontend)
       DO NOT MANUALLY EDIT - Regenerate with /wireframe command
       ============================================================ -->
  <defs>
    <linearGradient id="bgGrad" x1="0%" y1="0%" x2="100%" y2="100%">
      <stop offset="0%" style="stop-color:#ffffff"/>
      <stop offset="100%" style="stop-color:#f0f4f8"/>
    </linearGradient>
    <linearGradient id="accentGrad" x1="0%" y1="0%" x2="100%" y2="0%">
      <stop offset="0%" style="stop-color:#8b5cf6"/>
      <stop offset="100%" style="stop-color:#d946ef"/>
    </linearGradient>
    <style>
      .heading-lg { fill: #1f2937; font-family: system-ui, sans-serif; font-size: 20px; font-weight: bold; }
      .heading { fill: #1f2937; font-family: system-ui, sans-serif; font-size: 14px; font-weight: bold; }
      .heading-sm { fill: #1f2937; font-family: system-ui, sans-serif; font-size: 12px; font-weight: bold; }
      .text-md { fill: #374151; font-family: system-ui, sans-serif; font-size: 12px; }
      .text-sm { fill: #6b7280; font-family: system-ui, sans-serif; font-size: 10px; }
      .text-muted { fill: #9ca3af; font-family: system-ui, sans-serif; font-size: 10px; }
      .annotation { fill: #8b5cf6; font-family: monospace; font-size: 10px; }
      .label-desktop { fill: #8b5cf6; font-family: monospace; font-size: 11px; font-weight: bold; }
      .label-mobile { fill: #d946ef; font-family: monospace; font-size: 11px; font-weight: bold; }
      .error-text { fill: #ef4444; font-family: system-ui, sans-serif; font-size: 10px; }
      .link-text { fill: #8b5cf6; font-family: system-ui, sans-serif; font-size: 11px; }
    </style>
  </defs>

  <!-- Background -->
  <rect width="1400" height="800" fill="url(#bgGrad)"/>

  <!-- Dot grid pattern -->
  <g opacity="0.4">
    <pattern id="dots" width="30" height="30" patternUnits="userSpaceOnUse">
      <circle cx="15" cy="15" r="1" fill="#a5b4fc"/>
    </pattern>
    <rect width="1400" height="800" fill="url(#dots)"/>
  </g>

  <!-- Accent line top -->
  <rect x="0" y="0" width="1400" height="3" fill="url(#accentGrad)"/>

  <!-- Title -->
  <text x="700" y="28" text-anchor="middle" font-family="system-ui, sans-serif" font-size="14" font-weight="600" fill="#9ca3af" letter-spacing="1">SIGN IN &amp; REGISTER</text>

  <!-- DESKTOP SECTION -->
  <text x="40" y="52" class="label-desktop">DESKTOP</text>

  <g id="desktop-view">
    <!-- Split view: Sign In (left) | Register (right) -->

    <!-- Sign In Panel -->
    <rect x="40" y="60" width="420" height="680" rx="8" fill="#ffffff" stroke="#e5e7eb"/>

    <!-- Sign In Header -->
    <text x="250" y="105" text-anchor="middle" class="heading-lg">Welcome Back</text>
    <text x="250" y="125" text-anchor="middle" class="text-sm">Sign in to access your account</text>

    <!-- OAuth Buttons -->
    <rect x="70" y="150" width="360" height="44" rx="6" fill="#ffffff" stroke="#d1d5db" stroke-width="1.5"/>
    <circle cx="100" cy="172" r="12" fill="#24292f"/>
    <text x="105" y="176" fill="#ffffff" font-size="10" font-weight="bold">G</text>
    <text x="250" y="178" text-anchor="middle" class="text-md">Continue with GitHub</text>

    <rect x="70" y="205" width="360" height="44" rx="6" fill="#ffffff" stroke="#d1d5db" stroke-width="1.5"/>
    <circle cx="100" cy="227" r="12" fill="#4285f4"/>
    <text x="105" y="231" fill="#ffffff" font-size="10" font-weight="bold">G</text>
    <text x="250" y="233" text-anchor="middle" class="text-md">Continue with Google</text>

    <!-- Divider -->
    <line x1="70" y1="275" x2="160" y2="275" stroke="#e5e7eb" stroke-width="1"/>
    <text x="250" y="280" text-anchor="middle" class="text-muted">or sign in with email</text>
    <line x1="340" y1="275" x2="430" y2="275" stroke="#e5e7eb" stroke-width="1"/>

    <!-- Email Field -->
    <text x="70" y="315" class="heading-sm">Email</text>
    <rect x="70" y="325" width="360" height="40" rx="6" fill="#f9fafb" stroke="#d1d5db"/>
    <text x="85" y="350" class="text-muted">you@example.com</text>

    <!-- Password Field -->
    <text x="70" y="390" class="heading-sm">Password</text>
    <rect x="70" y="400" width="360" height="40" rx="6" fill="#f9fafb" stroke="#d1d5db"/>
    <text x="85" y="425" class="text-muted">••••••••</text>
    <text x="400" y="425" class="text-sm">👁</text>

    <!-- Remember Me + Forgot Password -->
    <rect x="70" y="460" width="16" height="16" rx="3" fill="#ffffff" stroke="#d1d5db"/>
    <text x="95" y="473" class="text-sm">Remember me (30 days)</text>
    <text x="430" y="473" text-anchor="end" class="link-text">Forgot password?</text>

    <!-- Sign In Button -->
    <rect x="70" y="500" width="360" height="44" rx="6" fill="#8b5cf6"/>
    <text x="250" y="528" text-anchor="middle" fill="#ffffff" font-family="system-ui" font-size="14" font-weight="bold">Sign In</text>

    <!-- Error State Example -->
    <rect x="70" y="560" width="360" height="50" rx="6" fill="#fef2f2" stroke="#fecaca"/>
    <text x="90" y="582" class="error-text">⚠ Invalid credentials. 4 attempts remaining.</text>
    <text x="90" y="600" class="text-muted">Account locks after 5 failed attempts (15 min)</text>

    <!-- Switch to Register -->
    <text x="250" y="640" text-anchor="middle" class="text-sm">Don't have an account?</text>
    <text x="250" y="660" text-anchor="middle" class="link-text">Create Account →</text>

    <!-- FR References -->
    <text x="250" y="720" text-anchor="middle" class="annotation">FR-006, FR-007, FR-008, FR-016</text>

    <!-- Register Panel -->
    <rect x="480" y="60" width="420" height="680" rx="8" fill="#ffffff" stroke="#e5e7eb"/>

    <!-- Register Header -->
    <text x="690" y="105" text-anchor="middle" class="heading-lg">Create Account</text>
    <text x="690" y="125" text-anchor="middle" class="text-sm">Join to access payment features</text>

    <!-- Email Field -->
    <text x="510" y="160" class="heading-sm">Email</text>
    <rect x="510" y="170" width="360" height="40" rx="6" fill="#f9fafb" stroke="#d1d5db"/>
    <text x="525" y="195" class="text-muted">you@example.com</text>

    <!-- Password Field with Requirements -->
    <text x="510" y="235" class="heading-sm">Password</text>
    <rect x="510" y="245" width="360" height="40" rx="6" fill="#f9fafb" stroke="#22c55e" stroke-width="2"/>
    <text x="525" y="270" class="text-muted">••••••••••••</text>

    <!-- Password Strength Indicator -->
    <rect x="510" y="295" width="90" height="4" rx="2" fill="#22c55e"/>
    <rect x="605" y="295" width="90" height="4" rx="2" fill="#22c55e"/>
    <rect x="700" y="295" width="90" height="4" rx="2" fill="#22c55e"/>
    <rect x="795" y="295" width="75" height="4" rx="2" fill="#e5e7eb"/>
    <text x="510" y="315" class="text-sm" fill="#22c55e">Strong password</text>

    <!-- Password Requirements Checklist -->
    <rect x="510" y="325" width="360" height="80" rx="6" fill="#f0fdf4"/>
    <text x="530" y="345" class="text-sm" fill="#22c55e">✓ At least 8 characters</text>
    <text x="530" y="362" class="text-sm" fill="#22c55e">✓ Uppercase letter</text>
    <text x="530" y="379" class="text-sm" fill="#22c55e">✓ Lowercase letter</text>
    <text x="700" y="345" class="text-sm" fill="#22c55e">✓ Number</text>
    <text x="700" y="362" class="text-sm" fill="#22c55e">✓ Special character</text>

    <!-- Confirm Password -->
    <text x="510" y="430" class="heading-sm">Confirm Password</text>
    <rect x="510" y="440" width="360" height="40" rx="6" fill="#f9fafb" stroke="#d1d5db"/>
    <text x="525" y="465" class="text-muted">••••••••••••</text>

    <!-- Terms Checkbox -->
    <rect x="510" y="500" width="16" height="16" rx="3" fill="#8b5cf6"/>
    <text x="515" y="512" fill="#ffffff" font-size="10">✓</text>
    <text x="535" y="513" class="text-sm">I agree to the Terms of Service and Privacy Policy</text>

    <!-- Create Account Button -->
    <rect x="510" y="535" width="360" height="44" rx="6" fill="#8b5cf6"/>
    <text x="690" y="563" text-anchor="middle" fill="#ffffff" font-family="system-ui" font-size="14" font-weight="bold">Create Account</text>

    <!-- Verification Notice -->
    <rect x="510" y="595" width="360" height="60" rx="6" fill="#eff6ff" stroke="#bfdbfe"/>
    <text x="530" y="618" class="text-sm" fill="#1d4ed8">📧 After signup, check your email for verification.</text>
    <text x="530" y="638" class="text-sm" fill="#1d4ed8">Link expires in 24 hours.</text>

    <!-- Already have account -->
    <text x="690" y="685" text-anchor="middle" class="text-sm">Already have an account?</text>
    <text x="690" y="705" text-anchor="middle" class="link-text">← Sign In</text>

    <!-- FR References -->
    <text x="690" y="735" text-anchor="middle" class="annotation">FR-001, FR-002, FR-003, FR-004, FR-005</text>
  </g>

  <!-- MOBILE SECTION -->
  <text x="980" y="52" class="label-mobile">MOBILE</text>

  <g id="mobile-view" transform="translate(980, 60)">
    <!-- Phone frame -->
    <rect x="0" y="0" width="360" height="700" rx="24" fill="#ffffff" stroke="#e5e7eb" stroke-width="2"/>
    <rect x="10" y="10" width="340" height="680" rx="16" fill="#f3f4f6"/>

    <!-- Status bar -->
    <rect x="10" y="10" width="340" height="28" rx="16" fill="#ffffff"/>
    <text x="30" y="28" class="text-sm">9:41</text>
    <circle cx="310" cy="24" r="8" fill="none" stroke="#6b7280" stroke-width="1.5"/>
    <rect x="306" y="20" width="8" height="8" rx="1" fill="#6b7280"/>

    <!-- Mobile Header -->
    <rect x="10" y="38" width="340" height="50" fill="#ffffff"/>
    <text x="180" y="70" text-anchor="middle" class="heading">Sign In</text>

    <!-- Tab Switcher -->
    <rect x="25" y="100" width="150" height="36" rx="6" fill="#8b5cf6"/>
    <text x="100" y="123" text-anchor="middle" fill="#ffffff" font-family="system-ui" font-size="12" font-weight="bold">Sign In</text>
    <rect x="175" y="100" width="150" height="36" rx="6" fill="#f3f4f6" stroke="#e5e7eb"/>
    <text x="250" y="123" text-anchor="middle" class="text-md">Register</text>

    <!-- OAuth Buttons - Mobile -->
    <rect x="25" y="150" width="300" height="44" rx="6" fill="#ffffff" stroke="#d1d5db"/>
    <circle cx="55" cy="172" r="10" fill="#24292f"/>
    <text x="59" y="176" fill="#ffffff" font-size="8" font-weight="bold">G</text>
    <text x="180" y="178" text-anchor="middle" class="text-sm">Continue with GitHub</text>

    <rect x="25" y="205" width="300" height="44" rx="6" fill="#ffffff" stroke="#d1d5db"/>
    <circle cx="55" cy="227" r="10" fill="#4285f4"/>
    <text x="59" y="231" fill="#ffffff" font-size="8" font-weight="bold">G</text>
    <text x="180" y="233" text-anchor="middle" class="text-sm">Continue with Google</text>

    <!-- Divider -->
    <line x1="25" y1="270" x2="100" y2="270" stroke="#e5e7eb"/>
    <text x="180" y="275" text-anchor="middle" class="text-muted">or</text>
    <line x1="260" y1="270" x2="325" y2="270" stroke="#e5e7eb"/>

    <!-- Email Field - Mobile -->
    <text x="25" y="305" class="heading-sm">Email</text>
    <rect x="25" y="315" width="300" height="44" rx="6" fill="#ffffff" stroke="#d1d5db"/>
    <text x="40" y="342" class="text-muted">you@example.com</text>

    <!-- Password Field - Mobile -->
    <text x="25" y="380" class="heading-sm">Password</text>
    <rect x="25" y="390" width="300" height="44" rx="6" fill="#ffffff" stroke="#d1d5db"/>
    <text x="40" y="417" class="text-muted">••••••••</text>

    <!-- Remember Me - Mobile -->
    <rect x="25" y="450" width="16" height="16" rx="3" fill="#8b5cf6"/>
    <text x="29" y="462" fill="#ffffff" font-size="8">✓</text>
    <text x="50" y="463" class="text-sm">Remember me</text>
    <text x="325" y="463" text-anchor="end" class="link-text">Forgot?</text>

    <!-- Sign In Button - Mobile -->
    <rect x="25" y="490" width="300" height="48" rx="6" fill="#8b5cf6"/>
    <text x="175" y="520" text-anchor="middle" fill="#ffffff" font-family="system-ui" font-size="14" font-weight="bold">Sign In</text>

    <!-- Error Toast - Mobile -->
    <rect x="25" y="555" width="300" height="40" rx="6" fill="#fef2f2" stroke="#fecaca"/>
    <text x="40" y="575" class="error-text">⚠ Invalid credentials</text>
    <text x="40" y="590" class="text-muted">4 attempts left</text>

    <!-- Switch Link -->
    <text x="180" y="625" text-anchor="middle" class="text-sm">Don't have an account?</text>
    <text x="180" y="645" text-anchor="middle" class="link-text">Create Account</text>

    <!-- Bottom nav hint -->
    <rect x="140" y="675" width="80" height="5" rx="2" fill="#9ca3af"/>
  </g>

  <!-- Annotations -->
  <g id="annotations">
    <rect x="40" y="755" width="130" height="25" rx="4" fill="#ffffff" stroke="#8b5cf6"/>
    <text x="105" y="772" text-anchor="middle" class="annotation">FR-013, FR-014</text>

    <rect x="200" y="755" width="150" height="25" rx="4" fill="#ffffff" stroke="#8b5cf6"/>
    <text x="275" y="772" text-anchor="middle" class="annotation">5 attempts / 15 min</text>

    <rect x="380" y="755" width="180" height="25" rx="4" fill="#ffffff" stroke="#8b5cf6"/>
    <text x="470" y="772" text-anchor="middle" class="annotation">Verification: 24hr expiry</text>
  </g>
</svg>