<svg xmlns="http://www.w3.org/2000/svg" viewBox="0 0 1400 800" width="1400" height="800">
  <!-- ============================================================
       GENERATED BY: /wireframe skill
       SOURCE: features/foundation/003-user-authentication/spec.md
       DATE: 2025-12-31
       THEME: Light (UX/Frontend)
       DO NOT MANUALLY EDIT - Regenerate with /wireframe command
       ============================================================ -->
  <defs>
    <linearGradient id="bgGrad" x1="0%" y1="0%" x2="100%" y2="100%">
      <stop offset="0%" style="stop-color:#ffffff"/>
      <stop offset="100%" style="stop-color:#f0f4f8"/>
    </linearGradient>
    <linearGradient id="accentGrad" x1="0%" y1="0%" x2="100%" y2="0%">
      <stop offset="0%" style="stop-color:#8b5cf6"/>
      <stop offset="100%" style="stop-color:#d946ef"/>
    </linearGradient>
    <style>
      .heading-lg { fill: #1f2937; font-family: system-ui, sans-serif; font-size: 20px; font-weight: bold; }
      .heading { fill: #1f2937; font-family: system-ui, sans-serif; font-size: 14px; font-weight: bold; }
      .heading-sm { fill: #1f2937; font-family: system-ui, sans-serif; font-size: 12px; font-weight: bold; }
      .text-md { fill: #374151; font-family: system-ui, sans-serif; font-size: 12px; }
      .text-sm { fill: #6b7280; font-family: system-ui, sans-serif; font-size: 10px; }
      .text-muted { fill: #9ca3af; font-family: system-ui, sans-serif; font-size: 10px; }
      .annotation { fill: #8b5cf6; font-family: monospace; font-size: 10px; }
      .label-desktop { fill: #8b5cf6; font-family: monospace; font-size: 11px; font-weight: bold; }
      .label-mobile { fill: #d946ef; font-family: monospace; font-size: 11px; font-weight: bold; }
      .error-text { fill: #ef4444; font-family: system-ui, sans-serif; font-size: 10px; }
      .success-text { fill: #22c55e; font-family: system-ui, sans-serif; font-size: 10px; }
      .link-text { fill: #8b5cf6; font-family: system-ui, sans-serif; font-size: 11px; }
      .step-active { fill: #8b5cf6; }
      .step-inactive { fill: #d1d5db; }
    </style>
  </defs>

  <!-- Background -->
  <rect width="1400" height="800" fill="url(#bgGrad)"/>

  <!-- Dot grid pattern -->
  <g opacity="0.4">
    <pattern id="dots" width="30" height="30" patternUnits="userSpaceOnUse">
      <circle cx="15" cy="15" r="1" fill="#a5b4fc"/>
    </pattern>
    <rect width="1400" height="800" fill="url(#dots)"/>
  </g>

  <!-- Accent line top -->
  <rect x="0" y="0" width="1400" height="3" fill="url(#accentGrad)"/>

  <!-- Title -->
  <text x="700" y="28" text-anchor="middle" font-family="system-ui, sans-serif" font-size="14" font-weight="600" fill="#9ca3af" letter-spacing="1">PASSWORD RESET FLOW</text>

  <!-- DESKTOP SECTION -->
  <text x="40" y="52" class="label-desktop">DESKTOP - 3 STEP FLOW</text>

  <g id="desktop-view">
    <!-- Step 1: Request Reset -->
    <rect x="40" y="70" width="280" height="450" rx="8" fill="#ffffff" stroke="#8b5cf6" stroke-width="2"/>

    <!-- Step Indicator -->
    <circle cx="180" cy="100" r="16" fill="#8b5cf6"/>
    <text x="180" y="105" text-anchor="middle" fill="#ffffff" font-family="system-ui" font-size="12" font-weight="bold">1</text>
    <text x="180" y="130" text-anchor="middle" class="heading">Request Reset</text>

    <!-- Icon -->
    <circle cx="180" cy="180" r="30" fill="#eff6ff" stroke="#bfdbfe"/>
    <text x="180" y="190" text-anchor="middle" font-size="24">🔑</text>

    <!-- Description -->
    <text x="180" y="235" text-anchor="middle" class="text-md">Forgot your password?</text>
    <text x="180" y="255" text-anchor="middle" class="text-sm">Enter your email to receive a reset link.</text>

    <!-- Email Field -->
    <text x="60" y="290" class="heading-sm">Email Address</text>
    <rect x="60" y="300" width="200" height="40" rx="6" fill="#f9fafb" stroke="#d1d5db"/>
    <text x="75" y="325" class="text-muted">you@example.com</text>

    <!-- Send Link Button -->
    <rect x="60" y="360" width="200" height="44" rx="6" fill="#8b5cf6"/>
    <text x="160" y="388" text-anchor="middle" fill="#ffffff" font-family="system-ui" font-size="13" font-weight="bold">Send Reset Link</text>

    <!-- Back to Sign In -->
    <text x="180" y="430" text-anchor="middle" class="link-text">← Back to Sign In</text>

    <!-- Error State -->
    <rect x="60" y="455" width="200" height="40" rx="6" fill="#fef2f2" stroke="#fecaca"/>
    <text x="75" y="478" class="error-text">✗ Email not found</text>

    <!-- Arrow -->
    <line x1="330" y1="295" x2="370" y2="295" stroke="#8b5cf6" stroke-width="2"/>
    <polygon points="370,290 380,295 370,300" fill="#8b5cf6"/>

    <!-- Step 2: Check Email -->
    <rect x="390" y="70" width="280" height="450" rx="8" fill="#ffffff" stroke="#e5e7eb"/>

    <!-- Step Indicator -->
    <circle cx="530" cy="100" r="16" fill="#8b5cf6"/>
    <text x="530" y="105" text-anchor="middle" fill="#ffffff" font-family="system-ui" font-size="12" font-weight="bold">2</text>
    <text x="530" y="130" text-anchor="middle" class="heading">Check Your Email</text>

    <!-- Success Icon -->
    <circle cx="530" cy="185" r="35" fill="#f0fdf4" stroke="#86efac"/>
    <text x="530" y="195" text-anchor="middle" font-size="28">✉️</text>

    <!-- Confirmation Message -->
    <text x="530" y="250" text-anchor="middle" class="heading-sm">Email Sent!</text>
    <text x="530" y="275" text-anchor="middle" class="text-sm">We've sent a password reset link to:</text>
    <rect x="420" y="290" width="220" height="30" rx="4" fill="#f3f4f6"/>
    <text x="530" y="310" text-anchor="middle" class="text-md">user@example.com</text>

    <!-- Instructions -->
    <rect x="410" y="340" width="240" height="80" rx="6" fill="#fffbeb" stroke="#fef08a"/>
    <text x="430" y="365" class="text-sm" fill="#92400e">⏱ Link expires in 1 hour</text>
    <text x="430" y="385" class="text-sm" fill="#92400e">📥 Check spam folder if not received</text>
    <text x="430" y="405" class="text-sm" fill="#92400e">🔄 You can request a new link below</text>

    <!-- Resend Button -->
    <rect x="420" y="440" width="220" height="36" rx="6" fill="#ffffff" stroke="#8b5cf6"/>
    <text x="530" y="464" text-anchor="middle" class="link-text">Resend Email</text>

    <!-- Arrow -->
    <line x1="680" y1="295" x2="720" y2="295" stroke="#8b5cf6" stroke-width="2"/>
    <polygon points="720,290 730,295 720,300" fill="#8b5cf6"/>

    <!-- Step 3: Set New Password -->
    <rect x="740" y="70" width="280" height="450" rx="8" fill="#ffffff" stroke="#e5e7eb"/>

    <!-- Step Indicator -->
    <circle cx="880" cy="100" r="16" fill="#8b5cf6"/>
    <text x="880" y="105" text-anchor="middle" fill="#ffffff" font-family="system-ui" font-size="12" font-weight="bold">3</text>
    <text x="880" y="130" text-anchor="middle" class="heading">Set New Password</text>

    <!-- Lock Icon -->
    <circle cx="880" cy="180" r="30" fill="#f0fdf4" stroke="#86efac"/>
    <text x="880" y="190" text-anchor="middle" font-size="24">🔒</text>

    <!-- New Password -->
    <text x="760" y="230" class="heading-sm">New Password</text>
    <rect x="760" y="240" width="240" height="40" rx="6" fill="#f9fafb" stroke="#22c55e" stroke-width="2"/>
    <text x="775" y="265" class="text-muted">••••••••••••</text>

    <!-- Strength Indicator -->
    <rect x="760" y="290" width="60" height="4" rx="2" fill="#22c55e"/>
    <rect x="825" y="290" width="60" height="4" rx="2" fill="#22c55e"/>
    <rect x="890" y="290" width="60" height="4" rx="2" fill="#22c55e"/>
    <rect x="955" y="290" width="45" height="4" rx="2" fill="#e5e7eb"/>
    <text x="760" y="310" class="success-text">Strong</text>

    <!-- Confirm Password -->
    <text x="760" y="340" class="heading-sm">Confirm Password</text>
    <rect x="760" y="350" width="240" height="40" rx="6" fill="#f9fafb" stroke="#22c55e" stroke-width="2"/>
    <text x="775" y="375" class="text-muted">••••••••••••</text>
    <text x="980" y="375" class="success-text">✓</text>

    <!-- Requirements -->
    <rect x="760" y="405" width="240" height="60" rx="6" fill="#f0fdf4"/>
    <text x="775" y="425" class="success-text">✓ 8+ chars, upper, lower, number, special</text>
    <text x="775" y="445" class="success-text">✓ Passwords match</text>

    <!-- Reset Button -->
    <rect x="760" y="480" width="240" height="44" rx="6" fill="#8b5cf6"/>
    <text x="880" y="508" text-anchor="middle" fill="#ffffff" font-family="system-ui" font-size="13" font-weight="bold">Reset Password</text>

    <!-- Expired Link State -->
    <rect x="40" y="540" width="380" height="90" rx="8" fill="#fef2f2" stroke="#fecaca"/>
    <text x="60" y="570" class="heading-sm" fill="#dc2626">Link Expired</text>
    <text x="60" y="592" class="text-sm">Password reset links are valid for 1 hour.</text>
    <rect x="60" y="605" width="140" height="30" rx="6" fill="#ef4444"/>
    <text x="130" y="625" text-anchor="middle" fill="#ffffff" font-size="11" font-weight="bold">Request New Link</text>

    <!-- Success State -->
    <rect x="440" y="540" width="380" height="90" rx="8" fill="#f0fdf4" stroke="#86efac"/>
    <text x="460" y="570" class="heading-sm" fill="#166534">Password Updated!</text>
    <text x="460" y="592" class="text-sm">Your password has been reset successfully.</text>
    <rect x="460" y="605" width="140" height="30" rx="6" fill="#22c55e"/>
    <text x="530" y="625" text-anchor="middle" fill="#ffffff" font-size="11" font-weight="bold">Sign In Now</text>
  </g>

  <!-- MOBILE SECTION -->
  <text x="1050" y="52" class="label-mobile">MOBILE</text>

  <g id="mobile-view" transform="translate(1050, 60)">
    <!-- Phone frame -->
    <rect x="0" y="0" width="320" height="680" rx="24" fill="#ffffff" stroke="#e5e7eb" stroke-width="2"/>
    <rect x="10" y="10" width="300" height="660" rx="16" fill="#f3f4f6"/>

    <!-- Status bar -->
    <rect x="10" y="10" width="300" height="28" rx="16" fill="#ffffff"/>
    <text x="25" y="28" class="text-sm">9:41</text>

    <!-- Header -->
    <rect x="10" y="38" width="300" height="50" fill="#ffffff"/>
    <text x="30" y="68" class="link-text">← Back</text>
    <text x="160" y="68" text-anchor="middle" class="heading">Reset Password</text>

    <!-- Step Progress -->
    <g transform="translate(60, 105)">
      <circle cx="0" cy="0" r="12" fill="#8b5cf6"/>
      <text x="0" y="4" text-anchor="middle" fill="#ffffff" font-size="10" font-weight="bold">1</text>
      <line x1="15" y1="0" x2="80" y2="0" stroke="#8b5cf6" stroke-width="2"/>
      <circle cx="95" cy="0" r="12" fill="#d1d5db"/>
      <text x="95" y="4" text-anchor="middle" fill="#ffffff" font-size="10">2</text>
      <line x1="110" y1="0" x2="175" y2="0" stroke="#d1d5db" stroke-width="2"/>
      <circle cx="190" cy="0" r="12" fill="#d1d5db"/>
      <text x="190" y="4" text-anchor="middle" fill="#ffffff" font-size="10">3</text>
    </g>

    <!-- Icon -->
    <circle cx="160" cy="175" r="35" fill="#eff6ff" stroke="#bfdbfe"/>
    <text x="160" y="185" text-anchor="middle" font-size="28">🔑</text>

    <!-- Title -->
    <text x="160" y="240" text-anchor="middle" class="heading-lg">Forgot Password?</text>
    <text x="160" y="265" text-anchor="middle" class="text-sm">Enter your email to receive</text>
    <text x="160" y="282" text-anchor="middle" class="text-sm">a password reset link.</text>

    <!-- Email Field -->
    <text x="25" y="320" class="heading-sm">Email Address</text>
    <rect x="25" y="330" width="260" height="44" rx="6" fill="#ffffff" stroke="#d1d5db"/>
    <text x="40" y="357" class="text-muted">you@example.com</text>

    <!-- Send Button -->
    <rect x="25" y="395" width="260" height="48" rx="6" fill="#8b5cf6"/>
    <text x="155" y="425" text-anchor="middle" fill="#ffffff" font-family="system-ui" font-size="14" font-weight="bold">Send Reset Link</text>

    <!-- Error State -->
    <rect x="25" y="460" width="260" height="40" rx="6" fill="#fef2f2" stroke="#fecaca"/>
    <text x="40" y="485" class="error-text">✗ We couldn't find that email</text>

    <!-- Info -->
    <rect x="25" y="520" width="260" height="55" rx="6" fill="#fffbeb" stroke="#fef08a"/>
    <text x="40" y="545" class="text-sm" fill="#92400e">⏱ Reset links expire in 1 hour</text>
    <text x="40" y="565" class="text-sm" fill="#92400e">📥 Check your spam folder</text>

    <!-- Back Link -->
    <text x="160" y="610" text-anchor="middle" class="link-text">← Back to Sign In</text>

    <!-- Bottom nav hint -->
    <rect x="120" y="655" width="80" height="5" rx="2" fill="#9ca3af"/>
  </g>

  <!-- Annotations -->
  <g id="annotations">
    <rect x="40" y="650" width="120" height="25" rx="4" fill="#ffffff" stroke="#8b5cf6"/>
    <text x="100" y="667" text-anchor="middle" class="annotation">FR-010</text>

    <rect x="440" y="650" width="130" height="25" rx="4" fill="#ffffff" stroke="#8b5cf6"/>
    <text x="505" y="667" text-anchor="middle" class="annotation">FR-011: 1hr expiry</text>

    <rect x="760" y="650" width="120" height="25" rx="4" fill="#ffffff" stroke="#8b5cf6"/>
    <text x="820" y="667" text-anchor="middle" class="annotation">FR-003</text>
  </g>
</svg>