<svg xmlns="http://www.w3.org/2000/svg" viewBox="0 0 1400 800" width="1400" height="800">
  <!-- ============================================================
       GENERATED BY: /wireframe skill
       SOURCE: features/foundation/003-user-authentication/spec.md
       DATE: 2026-01-02
       THEME: Light (UX/Frontend) - v3 True Parchment
       REGENERATED WITH FEEDBACK: features/foundation/003-user-authentication/WIREFRAME_ISSUES.md
       DO NOT MANUALLY EDIT - Regenerate with /wireframe command
       ============================================================ -->
  <defs>
    <linearGradient id="bgGrad" x1="0%" y1="0%" x2="100%" y2="100%">
      <stop offset="0%" style="stop-color:#c7ddf5"/>
      <stop offset="100%" style="stop-color:#b8d4f0"/>
    </linearGradient>
    <linearGradient id="accentGrad" x1="0%" y1="0%" x2="100%" y2="0%">
      <stop offset="0%" style="stop-color:#8b5cf6"/>
      <stop offset="100%" style="stop-color:#d946ef"/>
    </linearGradient>
    <style>
      .heading-lg { fill: #1a1a2e; font-family: system-ui, sans-serif; font-size: 20px; font-weight: 800; }
      .heading { fill: #1a1a2e; font-family: system-ui, sans-serif; font-size: 16px; font-weight: 700; }
      .text-md { fill: #2d3748; font-family: system-ui, sans-serif; font-size: 14px; font-weight: 500; }
      .text-sm { fill: #374151; font-family: system-ui, sans-serif; font-size: 12px; font-weight: 500; }
      .text-muted { fill: #4b5563; font-family: system-ui, sans-serif; font-size: 11px; font-weight: 500; }
      .annotation { fill: #6d28d9; font-family: monospace; font-size: 11px; font-weight: 600; }
      .label-desktop { fill: #8b5cf6; font-family: monospace; font-size: 13px; font-weight: bold; }
      .label-mobile { fill: #d946ef; font-family: monospace; font-size: 13px; font-weight: bold; }
      .input-label { fill: #2d3748; font-family: system-ui, sans-serif; font-size: 12px; font-weight: 600; }
      .btn-text { fill: #ffffff; font-family: system-ui, sans-serif; font-size: 14px; font-weight: 600; }
      .btn-text-sm { fill: #ffffff; font-family: system-ui, sans-serif; font-size: 12px; font-weight: 600; }
      .danger-text { fill: #dc2626; font-family: system-ui, sans-serif; font-size: 12px; font-weight: 600; }
      .req-title { fill: #1a1a2e; font-family: system-ui, sans-serif; font-size: 11px; font-weight: 700; }
      .req-text { fill: #4b5563; font-family: system-ui, sans-serif; font-size: 10px; font-weight: 500; }
    </style>
  </defs>

  <!-- Background -->
  <rect width="1400" height="800" fill="url(#bgGrad)"/>

  <!-- Dot grid -->
  <g opacity="0.35">
    <pattern id="dots" width="30" height="30" patternUnits="userSpaceOnUse">
      <circle cx="15" cy="15" r="1" fill="#6b8cba"/>
    </pattern>
    <rect width="1400" height="800" fill="url(#dots)"/>
  </g>

  <!-- Accent line -->
  <rect x="0" y="0" width="1400" height="3" fill="url(#accentGrad)"/>

  <!-- Title -->
  <text x="700" y="28" text-anchor="middle" font-family="system-ui, sans-serif" font-size="14" font-weight="600" fill="#4b5563" letter-spacing="1">USER AUTHENTICATION — PROFILE SETTINGS (US-6)</text>

  <!-- ==================== PROFILE VIEW ==================== -->
  <text x="40" y="52" class="label-desktop">PROFILE OVERVIEW</text>

  <g id="profile-view" transform="translate(40, 65)">
    <rect x="0" y="0" width="280" height="420" rx="12" fill="#e8d4b8" stroke="#b8a080"/>

    <!-- Avatar -->
    <circle cx="140" cy="60" r="45" fill="#dcc8a8" stroke="#8b5cf6" stroke-width="2"/>
    <text x="140" y="70" text-anchor="middle" font-size="28">&#x1F464;</text>
    <circle cx="170" cy="95" r="14" fill="#8b5cf6" stroke="#e8d4b8" stroke-width="2"/>
    <text x="170" y="100" text-anchor="middle" font-size="12" fill="#fff">&#x270E;</text>

    <!-- Name -->
    <text x="140" y="135" text-anchor="middle" class="heading-lg">John Doe</text>
    <text x="140" y="155" text-anchor="middle" class="text-muted">@johndoe</text>

    <!-- Info cards -->
    <rect x="20" y="175" width="240" height="40" rx="6" fill="#f5f0e6"/>
    <text x="35" y="200" class="text-sm">Email:</text>
    <text x="240" y="200" text-anchor="end" class="text-md">john@example.com</text>

    <rect x="20" y="225" width="240" height="40" rx="6" fill="#f5f0e6"/>
    <text x="35" y="250" class="text-sm">Member since:</text>
    <text x="240" y="250" text-anchor="end" class="text-md">Jan 2026</text>

    <rect x="20" y="275" width="240" height="40" rx="6" fill="#f5f0e6"/>
    <text x="35" y="300" class="text-sm">Email verified:</text>
    <text x="240" y="300" text-anchor="end" class="text-md" fill="#22c55e">&#x2713; Yes</text>

    <!-- Edit profile button - 44px -->
    <rect x="20" y="330" width="240" height="44" rx="6" fill="#8b5cf6"/>
    <text x="140" y="358" text-anchor="middle" class="btn-text">Edit Profile</text>

    <!-- FR annotation -->
    <text x="140" y="400" text-anchor="middle" class="annotation">FR-024: View profile info</text>
  </g>

  <!-- ==================== EDIT PROFILE ==================== -->
  <text x="340" y="52" class="label-desktop">EDIT PROFILE</text>

  <g id="edit-profile" transform="translate(340, 65)">
    <rect x="0" y="0" width="280" height="420" rx="12" fill="#e8d4b8" stroke="#b8a080"/>

    <text x="140" y="30" text-anchor="middle" class="heading">Edit Profile</text>

    <!-- Display name - 44px -->
    <text x="20" y="60" class="input-label">Display Name</text>
    <rect x="20" y="70" width="240" height="44" rx="6" fill="#f5f0e6" stroke="#b8a080"/>
    <text x="35" y="98" class="text-md">John Doe</text>

    <!-- Username - 44px -->
    <text x="20" y="135" class="input-label">Username</text>
    <rect x="20" y="145" width="240" height="44" rx="6" fill="#f5f0e6" stroke="#b8a080"/>
    <text x="35" y="173" class="text-md">@johndoe</text>

    <!-- Bio - larger -->
    <text x="20" y="210" class="input-label">Bio (optional)</text>
    <rect x="20" y="220" width="240" height="70" rx="6" fill="#f5f0e6" stroke="#b8a080"/>
    <text x="35" y="245" class="text-muted">Tell us about yourself...</text>

    <!-- Save button - 44px -->
    <rect x="20" y="310" width="115" height="44" rx="6" fill="#8b5cf6"/>
    <text x="77" y="338" text-anchor="middle" class="btn-text-sm">Save</text>

    <!-- Cancel button - 44px -->
    <rect x="145" y="310" width="115" height="44" rx="6" fill="#f5f0e6" stroke="#b8a080"/>
    <text x="202" y="338" text-anchor="middle" class="text-md">Cancel</text>

    <!-- FR annotation -->
    <text x="140" y="385" text-anchor="middle" class="annotation">FR-025: Update display name</text>
    <text x="140" y="402" text-anchor="middle" class="annotation">FR-025: Update username</text>
  </g>

  <!-- ==================== SECURITY SETTINGS ==================== -->
  <text x="640" y="52" class="label-desktop">SECURITY SETTINGS</text>

  <g id="security-settings" transform="translate(640, 65)">
    <rect x="0" y="0" width="280" height="420" rx="12" fill="#e8d4b8" stroke="#b8a080"/>

    <text x="140" y="30" text-anchor="middle" class="heading">Security</text>

    <!-- Change password section -->
    <rect x="20" y="50" width="240" height="100" rx="6" fill="#f5f0e6" stroke="#b8a080"/>
    <text x="35" y="75" class="heading">Change Password</text>
    <text x="35" y="95" class="text-sm">Update your password regularly</text>
    <text x="35" y="115" class="text-sm">for better security</text>
    <rect x="35" y="125" width="100" height="32" rx="4" fill="#8b5cf6"/>
    <text x="85" y="146" text-anchor="middle" class="btn-text-sm">Change</text>
    <text x="230" y="140" text-anchor="end" class="annotation">FR-026</text>

    <!-- Active sessions section -->
    <rect x="20" y="165" width="240" height="130" rx="6" fill="#f5f0e6" stroke="#b8a080"/>
    <text x="35" y="190" class="heading">Active Sessions</text>

    <!-- Session 1 -->
    <rect x="35" y="205" width="210" height="35" rx="4" fill="#dcc8a8"/>
    <text x="45" y="225" class="text-sm">Chrome on Windows</text>
    <text x="235" y="225" text-anchor="end" class="text-muted">Current</text>

    <!-- Session 2 -->
    <rect x="35" y="245" width="210" height="35" rx="4" fill="#dcc8a8"/>
    <text x="45" y="265" class="text-sm">Safari on iPhone</text>
    <text x="220" y="265" text-anchor="end" class="danger-text">Revoke</text>

    <text x="230" y="290" text-anchor="end" class="annotation">FR-029, FR-030</text>

    <!-- Danger zone -->
    <rect x="20" y="310" width="240" height="95" rx="6" fill="#fef2f2" stroke="#dc2626"/>
    <text x="35" y="335" class="heading" fill="#dc2626">Danger Zone</text>
    <text x="35" y="355" class="text-sm">Delete your account and all data</text>
    <rect x="35" y="370" width="140" height="32" rx="4" fill="#dc2626"/>
    <text x="105" y="391" text-anchor="middle" class="btn-text-sm">Delete Account</text>
    <text x="230" y="395" text-anchor="end" class="annotation">FR-027</text>
  </g>

  <!-- ==================== MOBILE ==================== -->
  <text x="960" y="52" class="label-mobile">MOBILE — PROFILE</text>

  <g id="mobile-profile" transform="translate(960, 65)">
    <!-- Phone frame -->
    <rect x="0" y="0" width="360" height="620" rx="24" fill="#c8b898" stroke="#a08860" stroke-width="2"/>
    <rect x="10" y="10" width="340" height="600" rx="16" fill="#e8d4b8"/>

    <!-- Status bar -->
    <rect x="10" y="10" width="340" height="28" rx="16" fill="#dcc8a8"/>
    <text x="28" y="28" class="text-sm">9:41</text>
    <text x="320" y="28" text-anchor="end" class="text-sm">100%</text>

    <!-- Header -->
    <text x="30" y="60" class="heading">Profile Settings</text>

    <!-- Avatar -->
    <circle cx="180" cy="110" r="35" fill="#dcc8a8" stroke="#8b5cf6" stroke-width="2"/>
    <text x="180" y="118" text-anchor="middle" font-size="24">&#x1F464;</text>

    <!-- Name -->
    <text x="180" y="165" text-anchor="middle" class="heading">John Doe</text>
    <text x="180" y="183" text-anchor="middle" class="text-muted">@johndoe</text>

    <!-- Menu items - 48px each for mobile -->
    <rect x="20" y="205" width="300" height="48" rx="6" fill="#f5f0e6" stroke="#b8a080"/>
    <text x="35" y="235" class="text-md">Edit Profile</text>
    <text x="305" y="235" text-anchor="end" class="text-muted">›</text>

    <rect x="20" y="263" width="300" height="48" rx="6" fill="#f5f0e6" stroke="#b8a080"/>
    <text x="35" y="293" class="text-md">Change Password</text>
    <text x="305" y="293" text-anchor="end" class="text-muted">›</text>

    <rect x="20" y="321" width="300" height="48" rx="6" fill="#f5f0e6" stroke="#b8a080"/>
    <text x="35" y="351" class="text-md">Active Sessions (2)</text>
    <text x="305" y="351" text-anchor="end" class="text-muted">›</text>

    <rect x="20" y="379" width="300" height="48" rx="6" fill="#f5f0e6" stroke="#b8a080"/>
    <text x="35" y="409" class="text-md">Privacy Settings</text>
    <text x="305" y="409" text-anchor="end" class="text-muted">›</text>

    <!-- Sign out - 48px -->
    <rect x="20" y="447" width="300" height="48" rx="6" fill="#8b5cf6"/>
    <text x="170" y="477" text-anchor="middle" class="btn-text">Sign Out</text>

    <!-- Delete account -->
    <text x="170" y="520" text-anchor="middle" class="danger-text">Delete Account</text>

    <!-- FR annotation -->
    <text x="170" y="555" text-anchor="middle" class="annotation">FR-009: Sign out</text>
    <text x="170" y="572" text-anchor="middle" class="annotation">FR-028: Cascade delete</text>

    <!-- Home indicator -->
    <rect x="140" y="590" width="80" height="5" rx="2.5" fill="#b8a080"/>
  </g>

  <!-- ==================== REQUIREMENTS KEY ==================== -->
  <g id="requirements-key" transform="translate(40, 500)">
    <rect x="0" y="0" width="880" height="95" rx="8" fill="#e8d4b8" stroke="#8b5cf6" stroke-width="2"/>
    <text x="15" y="18" class="req-title">REQUIREMENTS KEY</text>

    <!-- Row 1 -->
    <text x="15" y="38" class="annotation">US-6:</text>
    <text x="55" y="38" class="req-text">Profile management</text>
    <text x="200" y="38" class="annotation">FR-024:</text>
    <text x="255" y="38" class="req-text">View profile information</text>
    <text x="460" y="38" class="annotation">FR-025:</text>
    <text x="515" y="38" class="req-text">Update display name and username</text>

    <!-- Row 2 -->
    <text x="15" y="56" class="annotation">FR-026:</text>
    <text x="70" y="56" class="req-text">Change password</text>
    <text x="200" y="56" class="annotation">FR-027:</text>
    <text x="255" y="56" class="req-text">Delete account</text>
    <text x="400" y="56" class="annotation">FR-028:</text>
    <text x="455" y="56" class="req-text">Cascade delete all user data</text>

    <!-- Row 3 -->
    <text x="15" y="74" class="annotation">FR-029:</text>
    <text x="70" y="74" class="req-text">View all active sessions</text>
    <text x="260" y="74" class="annotation">FR-030:</text>
    <text x="315" y="74" class="req-text">Revoke any active session</text>
    <text x="530" y="74" class="annotation">FR-009:</text>
    <text x="585" y="74" class="req-text">Sign out and terminate session</text>

    <!-- Row 4 -->
    <text x="15" y="90" class="annotation">GDPR:</text>
    <text x="60" y="90" class="req-text">Account deletion includes all personal data (payments, messages, profile)</text>
  </g>

  <!-- Footer -->
  <text x="60" y="780" text-anchor="start" class="text-muted">003:04 | Profile Settings | ScriptHammer</text>
</svg>
