<svg xmlns="http://www.w3.org/2000/svg" viewBox="0 0 1400 800" width="1400" height="800">
  <!-- ============================================================
       GENERATED BY: /wireframe skill
       SOURCE: features/foundation/003-user-authentication/spec.md
       DATE: 2026-01-01
       THEME: Dark (Backend/Architecture)
       PATCHED: Issue #5 - muted text uses #8494a8 for AAA contrast
       DO NOT MANUALLY EDIT - Regenerate with /wireframe command
       ============================================================ -->
  <defs>
    <linearGradient id="bgGrad" x1="0%" y1="0%" x2="100%" y2="100%">
      <stop offset="0%" style="stop-color:#0f172a"/>
      <stop offset="100%" style="stop-color:#1e293b"/>
    </linearGradient>
    <linearGradient id="accentGrad" x1="0%" y1="0%" x2="100%" y2="0%">
      <stop offset="0%" style="stop-color:#8b5cf6"/>
      <stop offset="100%" style="stop-color:#d946ef"/>
    </linearGradient>
    <linearGradient id="clientGrad" x1="0%" y1="0%" x2="0%" y2="100%">
      <stop offset="0%" style="stop-color:#22c55e"/>
      <stop offset="100%" style="stop-color:#16a34a"/>
    </linearGradient>
    <linearGradient id="authGrad" x1="0%" y1="0%" x2="0%" y2="100%">
      <stop offset="0%" style="stop-color:#8b5cf6"/>
      <stop offset="100%" style="stop-color:#7c3aed"/>
    </linearGradient>
    <linearGradient id="dbGrad" x1="0%" y1="0%" x2="0%" y2="100%">
      <stop offset="0%" style="stop-color:#f59e0b"/>
      <stop offset="100%" style="stop-color:#d97706"/>
    </linearGradient>
    <linearGradient id="oauthGrad" x1="0%" y1="0%" x2="0%" y2="100%">
      <stop offset="0%" style="stop-color:#3b82f6"/>
      <stop offset="100%" style="stop-color:#2563eb"/>
    </linearGradient>
    <marker id="arrowhead" markerWidth="10" markerHeight="7" refX="9" refY="3.5" orient="auto">
      <polygon points="0 0, 10 3.5, 0 7" fill="#8b5cf6"/>
    </marker>
    <marker id="arrowheadGreen" markerWidth="10" markerHeight="7" refX="9" refY="3.5" orient="auto">
      <polygon points="0 0, 10 3.5, 0 7" fill="#22c55e"/>
    </marker>
    <marker id="arrowheadOrange" markerWidth="10" markerHeight="7" refX="9" refY="3.5" orient="auto">
      <polygon points="0 0, 10 3.5, 0 7" fill="#f59e0b"/>
    </marker>
    <style>
      .heading-lg { fill: #ffffff; font-family: system-ui, sans-serif; font-size: 20px; font-weight: bold; }
      .heading { fill: #ffffff; font-family: system-ui, sans-serif; font-size: 14px; font-weight: bold; }
      .heading-sm { fill: #ffffff; font-family: system-ui, sans-serif; font-size: 12px; font-weight: bold; }
      .text-md { fill: #cbd5e1; font-family: system-ui, sans-serif; font-size: 12px; }
      .text-sm { fill: #94a3b8; font-family: system-ui, sans-serif; font-size: 10px; }
      .text-muted { fill: #8494a8; font-family: system-ui, sans-serif; font-size: 10px; }
      .annotation { fill: #6d28d9; font-family: monospace; font-size: 10px; }
      .code { fill: #e2e8f0; font-family: monospace; font-size: 9px; }
      .component-label { fill: #ffffff; font-family: system-ui, sans-serif; font-size: 11px; font-weight: bold; }
    </style>
  </defs>

  <!-- Background -->
  <rect width="1400" height="800" fill="url(#bgGrad)"/>

  <!-- Dot grid pattern -->
  <g opacity="0.05">
    <pattern id="dots" width="30" height="30" patternUnits="userSpaceOnUse">
      <circle cx="15" cy="15" r="1" fill="#fff"/>
    </pattern>
    <rect width="1400" height="800" fill="url(#dots)"/>
  </g>

  <!-- Accent line top -->
  <rect x="0" y="0" width="1400" height="3" fill="url(#accentGrad)"/>

  <!-- Title -->
  <text x="700" y="28" text-anchor="middle" font-family="system-ui, sans-serif" font-size="14" font-weight="600" fill="#8494a8" letter-spacing="1">USER AUTHENTICATION - SYSTEM ARCHITECTURE</text>

  <!-- ==================== CLIENT LAYER ==================== -->
  <text x="40" y="60" class="heading-lg">Client Layer</text>

  <!-- Browser/App -->
  <g id="client" transform="translate(40, 80)">
    <rect x="0" y="0" width="300" height="200" rx="8" fill="#1e293b" stroke="#22c55e" stroke-width="2"/>
    <rect x="0" y="0" width="300" height="35" rx="8" fill="url(#clientGrad)"/>
    <rect x="0" y="27" width="300" height="8" fill="url(#clientGrad)"/>
    <text x="150" y="23" text-anchor="middle" class="component-label">Next.js Client (Static)</text>

    <!-- Components -->
    <rect x="15" y="50" width="130" height="60" rx="4" fill="#334155"/>
    <text x="80" y="75" text-anchor="middle" class="text-sm">AuthProvider</text>
    <text x="80" y="90" text-anchor="middle" class="text-muted">Context + State</text>

    <rect x="155" y="50" width="130" height="60" rx="4" fill="#334155"/>
    <text x="220" y="75" text-anchor="middle" class="text-sm">ProtectedRoute</text>
    <text x="220" y="90" text-anchor="middle" class="text-muted">Guard HOC</text>

    <rect x="15" y="120" width="130" height="60" rx="4" fill="#334155"/>
    <text x="80" y="145" text-anchor="middle" class="text-sm">Login/Signup</text>
    <text x="80" y="160" text-anchor="middle" class="text-muted">Forms</text>

    <rect x="155" y="120" width="130" height="60" rx="4" fill="#334155"/>
    <text x="220" y="145" text-anchor="middle" class="text-sm">TokenStorage</text>
    <text x="220" y="160" text-anchor="middle" class="text-muted">localStorage</text>
  </g>

  <!-- ==================== AUTH SERVICE ==================== -->
  <text x="420" y="60" class="heading-lg">Authentication Service</text>

  <g id="auth-service" transform="translate(420, 80)">
    <rect x="0" y="0" width="350" height="200" rx="8" fill="#1e293b" stroke="#8b5cf6" stroke-width="2"/>
    <rect x="0" y="0" width="350" height="35" rx="8" fill="url(#authGrad)"/>
    <rect x="0" y="27" width="350" height="8" fill="url(#authGrad)"/>
    <text x="175" y="23" text-anchor="middle" class="component-label">Supabase Auth</text>

    <!-- Auth methods -->
    <rect x="15" y="50" width="100" height="55" rx="4" fill="#334155"/>
    <text x="65" y="70" text-anchor="middle" class="text-sm">Email/Pass</text>
    <text x="65" y="85" text-anchor="middle" class="text-muted">FR-001, FR-006</text>

    <rect x="125" y="50" width="100" height="55" rx="4" fill="#334155"/>
    <text x="175" y="70" text-anchor="middle" class="text-sm">OAuth</text>
    <text x="175" y="85" text-anchor="middle" class="text-muted">FR-007, FR-008</text>

    <rect x="235" y="50" width="100" height="55" rx="4" fill="#334155"/>
    <text x="285" y="72" text-anchor="middle" class="text-sm">Pwd Reset</text>
    <text x="285" y="90" text-anchor="middle" class="text-muted">FR-010, FR-011</text>

    <!-- Session management -->
    <rect x="15" y="115" width="155" height="70" rx="4" fill="#334155"/>
    <text x="92" y="135" text-anchor="middle" class="text-sm">Session Manager</text>
    <text x="92" y="152" text-anchor="middle" class="code">JWT + Refresh Token</text>
    <text x="92" y="167" text-anchor="middle" class="text-muted">FR-012 to FR-015</text>

    <!-- Rate limiting -->
    <rect x="180" y="115" width="155" height="70" rx="4" fill="#334155"/>
    <text x="257" y="135" text-anchor="middle" class="text-sm">Rate Limiter</text>
    <text x="257" y="152" text-anchor="middle" class="code">5 attempts / 15 min</text>
    <text x="257" y="167" text-anchor="middle" class="text-muted">FR-016</text>
  </g>

  <!-- ==================== DATABASE LAYER ==================== -->
  <text x="850" y="60" class="heading-lg">Database Layer</text>

  <g id="database" transform="translate(850, 80)">
    <rect x="0" y="0" width="280" height="200" rx="8" fill="#1e293b" stroke="#f59e0b" stroke-width="2"/>
    <rect x="0" y="0" width="280" height="35" rx="8" fill="url(#dbGrad)"/>
    <rect x="0" y="27" width="280" height="8" fill="url(#dbGrad)"/>
    <text x="140" y="23" text-anchor="middle" class="component-label">Supabase PostgreSQL</text>

    <!-- Tables -->
    <rect x="15" y="50" width="120" height="65" rx="4" fill="#334155"/>
    <text x="75" y="70" text-anchor="middle" class="text-sm">auth.users</text>
    <text x="75" y="85" text-anchor="middle" class="code">email, hash</text>
    <text x="75" y="100" text-anchor="middle" class="text-muted">RLS: owner only</text>

    <rect x="145" y="50" width="120" height="65" rx="4" fill="#334155"/>
    <text x="205" y="70" text-anchor="middle" class="text-sm">public.profiles</text>
    <text x="205" y="85" text-anchor="middle" class="code">name, avatar</text>
    <text x="205" y="100" text-anchor="middle" class="text-muted">RLS: FR-019</text>

    <rect x="15" y="125" width="120" height="65" rx="4" fill="#334155"/>
    <text x="75" y="145" text-anchor="middle" class="text-sm">auth.sessions</text>
    <text x="75" y="160" text-anchor="middle" class="code">token, expires</text>
    <text x="75" y="175" text-anchor="middle" class="text-muted">FR-029, FR-030</text>

    <rect x="145" y="125" width="120" height="65" rx="4" fill="#334155"/>
    <text x="205" y="145" text-anchor="middle" class="text-sm">audit_logs</text>
    <text x="205" y="160" text-anchor="middle" class="code">event, user_id</text>
    <text x="205" y="175" text-anchor="middle" class="text-muted">FR-031 to FR-033</text>
  </g>

  <!-- ==================== OAUTH PROVIDERS ==================== -->
  <text x="1170" y="60" class="heading-lg">OAuth</text>

  <g id="oauth" transform="translate(1170, 80)">
    <rect x="0" y="0" width="190" height="200" rx="8" fill="#1e293b" stroke="#3b82f6" stroke-width="2"/>
    <rect x="0" y="0" width="190" height="35" rx="8" fill="url(#oauthGrad)"/>
    <rect x="0" y="27" width="190" height="8" fill="url(#oauthGrad)"/>
    <text x="95" y="23" text-anchor="middle" class="component-label">OAuth Providers</text>

    <!-- GitHub -->
    <rect x="15" y="50" width="160" height="60" rx="4" fill="#334155"/>
    <circle cx="45" cy="80" r="18" fill="#24292e"/>
    <text x="45" y="85" text-anchor="middle" font-size="16" fill="#ffffff">GH</text>
    <text x="115" y="75" text-anchor="middle" class="text-sm">GitHub</text>
    <text x="115" y="92" text-anchor="middle" class="text-muted">FR-007</text>

    <!-- Google -->
    <rect x="15" y="120" width="160" height="60" rx="4" fill="#334155"/>
    <circle cx="45" cy="150" r="18" fill="#4285f4"/>
    <text x="45" y="155" text-anchor="middle" font-size="16" fill="#ffffff">G</text>
    <text x="115" y="145" text-anchor="middle" class="text-sm">Google</text>
    <text x="115" y="162" text-anchor="middle" class="text-muted">FR-008</text>
  </g>

  <!-- ==================== FLOW ARROWS ==================== -->
  <g id="arrows">
    <!-- Client → Auth -->
    <path d="M 340 180 L 420 180" stroke="#22c55e" stroke-width="2" marker-end="url(#arrowheadGreen)" fill="none"/>
    <text x="380" y="170" text-anchor="middle" class="text-muted">login/signup</text>

    <!-- Auth → Client (email verification) -->
    <path d="M 420 220 L 340 220" stroke="#f59e0b" stroke-width="2" stroke-dasharray="4,2" marker-end="url(#arrowheadOrange)" fill="none"/>
    <text x="380" y="240" text-anchor="middle" class="text-muted">FR-004/FR-005</text>
    <text x="380" y="253" text-anchor="middle" class="code">verification email</text>

    <!-- Auth → Database -->
    <path d="M 770 180 L 850 180" stroke="#8b5cf6" stroke-width="2" marker-end="url(#arrowhead)" fill="none"/>
    <text x="810" y="170" text-anchor="middle" class="text-muted">verify/store</text>

    <!-- Auth → OAuth -->
    <path d="M 770 120 Q 900 80 1170 120" stroke="#3b82f6" stroke-width="2" stroke-dasharray="5,3" marker-end="url(#arrowhead)" fill="none"/>
    <text x="970" y="85" text-anchor="middle" class="text-muted">redirect</text>
  </g>

  <!-- ==================== TOKEN FLOW ==================== -->
  <g id="token-flow" transform="translate(40, 320)">
    <rect x="0" y="0" width="680" height="200" rx="8" fill="#1e293b" stroke="#475569"/>
    <text x="340" y="25" text-anchor="middle" class="heading">Token Lifecycle (FR-012 to FR-015)</text>
    <line x1="20" y1="40" x2="660" y2="40" stroke="#475569"/>

    <!-- Flow diagram -->
    <rect x="30" y="60" width="100" height="50" rx="4" fill="#22c55e"/>
    <text x="80" y="90" text-anchor="middle" class="component-label">Login</text>

    <path d="M 130 85 L 170 85" stroke="#8b5cf6" stroke-width="2" marker-end="url(#arrowhead)" fill="none"/>

    <rect x="170" y="60" width="100" height="50" rx="4" fill="#334155"/>
    <text x="220" y="82" text-anchor="middle" class="text-sm">Access Token</text>
    <text x="220" y="97" text-anchor="middle" class="text-muted">15 min TTL</text>

    <path d="M 270 85 L 310 85" stroke="#8b5cf6" stroke-width="2" marker-end="url(#arrowhead)" fill="none"/>

    <rect x="310" y="60" width="100" height="50" rx="4" fill="#334155"/>
    <text x="360" y="82" text-anchor="middle" class="text-sm">Refresh Token</text>
    <text x="360" y="97" text-anchor="middle" class="text-muted">7d / 30d</text>

    <path d="M 410 85 L 450 85" stroke="#8b5cf6" stroke-width="2" marker-end="url(#arrowhead)" fill="none"/>

    <rect x="450" y="60" width="100" height="50" rx="4" fill="#334155"/>
    <text x="500" y="82" text-anchor="middle" class="text-sm">Auto Refresh</text>
    <text x="500" y="97" text-anchor="middle" class="text-muted">before expiry</text>

    <path d="M 550 85 L 590 85" stroke="#8b5cf6" stroke-width="2" marker-end="url(#arrowhead)" fill="none"/>

    <rect x="590" y="60" width="60" height="50" rx="4" fill="#ef4444"/>
    <text x="620" y="90" text-anchor="middle" class="component-label">Logout</text>

    <!-- Remember me explanation -->
    <rect x="30" y="130" width="300" height="55" rx="4" fill="#334155"/>
    <text x="45" y="150" class="text-sm" fill="#22c55e">Remember Me = ON</text>
    <text x="45" y="168" class="text-muted">Refresh token: 30 days (FR-013)</text>

    <rect x="350" y="130" width="300" height="55" rx="4" fill="#334155"/>
    <text x="365" y="150" class="text-sm" fill="#f59e0b">Remember Me = OFF</text>
    <text x="365" y="168" class="text-muted">Refresh token: 7 days (FR-014)</text>
  </g>

  <!-- ==================== PROTECTED ROUTES ==================== -->
  <g id="protected-routes" transform="translate(750, 320)">
    <rect x="0" y="0" width="610" height="200" rx="8" fill="#1e293b" stroke="#475569"/>
    <text x="305" y="25" text-anchor="middle" class="heading">Route Protection (User Story 5)</text>
    <line x1="20" y1="40" x2="590" y2="40" stroke="#475569"/>

    <!-- Protected route flow -->
    <rect x="30" y="60" width="120" height="50" rx="4" fill="#334155"/>
    <text x="90" y="82" text-anchor="middle" class="text-sm">User Request</text>
    <text x="90" y="97" text-anchor="middle" class="text-muted">/payments</text>

    <path d="M 150 85 L 180 85" stroke="#8b5cf6" stroke-width="2" marker-end="url(#arrowhead)" fill="none"/>

    <rect x="180" y="55" width="100" height="60" rx="4" fill="#8b5cf6"/>
    <text x="230" y="80" text-anchor="middle" class="component-label">Auth</text>
    <text x="230" y="95" text-anchor="middle" class="text-sm" fill="#e9d5ff">Check</text>

    <!-- Branch: Authenticated -->
    <path d="M 280 70 L 320 70 L 320 55 L 360 55" stroke="#22c55e" stroke-width="2" marker-end="url(#arrowheadGreen)" fill="none"/>
    <text x="340" y="48" class="text-muted" fill="#22c55e">authed</text>

    <rect x="360" y="40" width="100" height="40" rx="4" fill="#22c55e"/>
    <text x="410" y="65" text-anchor="middle" class="component-label">Access</text>

    <!-- Branch: Unverified -->
    <path d="M 280 85 L 320 85 L 320 100 L 360 100" stroke="#f59e0b" stroke-width="2" marker-end="url(#arrowheadOrange)" fill="none"/>
    <text x="340" y="93" class="text-muted" fill="#f59e0b">unverified</text>

    <rect x="360" y="85" width="100" height="40" rx="4" fill="#f59e0b"/>
    <text x="410" y="110" text-anchor="middle" class="component-label">Verify</text>

    <!-- Branch: Unauthenticated -->
    <path d="M 280 100 L 320 100 L 320 140 L 360 140" stroke="#ef4444" stroke-width="2" fill="none"/>
    <text x="340" y="133" class="text-muted" fill="#ef4444">no auth</text>

    <rect x="360" y="125" width="100" height="40" rx="4" fill="#ef4444"/>
    <text x="410" y="150" text-anchor="middle" class="component-label">Sign In</text>

    <!-- FR references -->
    <rect x="480" y="55" width="110" height="110" rx="4" fill="#334155"/>
    <text x="535" y="75" text-anchor="middle" class="annotation">Requirements</text>
    <text x="490" y="95" class="text-muted">FR-017: Redirect</text>
    <text x="490" y="112" class="text-muted">FR-018: Verify gate</text>
    <text x="490" y="129" class="text-muted">FR-019: RLS</text>
    <text x="490" y="146" class="text-muted">FR-020-23: Authz</text>
  </g>

  <!-- ==================== SUCCESS CRITERIA ==================== -->
  <g id="success-criteria" transform="translate(40, 545)">
    <rect x="0" y="0" width="1320" height="100" rx="8" fill="#1e293b" stroke="#475569"/>
    <text x="660" y="25" text-anchor="middle" class="heading">Success Criteria</text>
    <line x1="20" y1="40" x2="1300" y2="40" stroke="#475569"/>

    <!-- Metrics -->
    <rect x="25" y="55" width="150" height="35" rx="4" fill="#334155"/>
    <text x="100" y="78" text-anchor="middle" class="text-sm" fill="#22c55e">SC-001: &lt;3 min</text>

    <rect x="190" y="55" width="150" height="35" rx="4" fill="#334155"/>
    <text x="265" y="78" text-anchor="middle" class="text-sm" fill="#22c55e">SC-002: &lt;2 sec</text>

    <rect x="355" y="55" width="150" height="35" rx="4" fill="#334155"/>
    <text x="430" y="78" text-anchor="middle" class="text-sm" fill="#22c55e">SC-003: 1K users</text>

    <rect x="520" y="55" width="150" height="35" rx="4" fill="#334155"/>
    <text x="595" y="78" text-anchor="middle" class="text-sm" fill="#22c55e">SC-004: 0 breach</text>

    <rect x="685" y="55" width="150" height="35" rx="4" fill="#334155"/>
    <text x="760" y="78" text-anchor="middle" class="text-sm" fill="#22c55e">SC-005: &lt;2 min</text>

    <rect x="850" y="55" width="150" height="35" rx="4" fill="#334155"/>
    <text x="925" y="78" text-anchor="middle" class="text-sm" fill="#22c55e">SC-006: &lt;10 sec</text>

    <rect x="1015" y="55" width="150" height="35" rx="4" fill="#334155"/>
    <text x="1090" y="78" text-anchor="middle" class="text-sm" fill="#22c55e">SC-007: &lt;1 sec</text>

    <rect x="1180" y="55" width="120" height="35" rx="4" fill="#334155"/>
    <text x="1240" y="78" text-anchor="middle" class="text-sm" fill="#22c55e">SC-008: 100%</text>
  </g>

  <!-- ==================== COMPLIANCE ==================== -->
  <g id="compliance" transform="translate(40, 665)">
    <rect x="0" y="0" width="1320" height="80" rx="8" fill="#1e293b" stroke="#475569"/>
    <text x="660" y="25" text-anchor="middle" class="heading">Compliance &amp; Constraints</text>
    <line x1="20" y1="40" x2="1300" y2="40" stroke="#475569"/>

    <rect x="25" y="50" width="160" height="24" rx="4" fill="#334155" stroke="#22c55e"/>
    <text x="105" y="67" text-anchor="middle" class="text-sm" fill="#22c55e">PCI Ready</text>

    <rect x="200" y="50" width="160" height="24" rx="4" fill="#334155" stroke="#22c55e"/>
    <text x="280" y="67" text-anchor="middle" class="text-sm" fill="#22c55e">GDPR Compliant</text>

    <rect x="375" y="50" width="200" height="24" rx="4" fill="#334155" stroke="#8b5cf6"/>
    <text x="475" y="67" text-anchor="middle" class="text-sm" fill="#8b5cf6">Static Export (GitHub Pages)</text>

    <rect x="590" y="50" width="180" height="24" rx="4" fill="#334155" stroke="#f59e0b"/>
    <text x="680" y="67" text-anchor="middle" class="text-sm" fill="#f59e0b">External Auth Service</text>

    <rect x="785" y="50" width="180" height="24" rx="4" fill="#334155"/>
    <text x="875" y="67" text-anchor="middle" class="text-sm">99.9% Uptime Target</text>

    <rect x="980" y="50" width="180" height="24" rx="4" fill="#334155"/>
    <text x="1070" y="67" text-anchor="middle" class="text-sm">&gt;95% Email Delivery</text>
  </g>

  <!-- Footer -->
  <text x="700" y="780" text-anchor="middle" class="text-muted">003-user-authentication | System Architecture | ScriptHammer</text>
</svg>
