<svg xmlns="http://www.w3.org/2000/svg" viewBox="0 0 1600 1000" width="1600" height="1000">
  <!-- ============================================================
       GENERATED BY: /wireframe skill
       SOURCE: features/foundation/003-user-authentication/spec.md
       DATE: 2026-01-02
       THEME: Dark (Backend/Architecture)
       REGENERATED WITH FEEDBACK: features/foundation/003-user-authentication/WIREFRAME_ISSUES.md
       - Font sizes increased to meet mandatory minimums (24/16/14/13/12px)
       - Success Criteria labels now include context
       - Canvas expanded to 1600×1000 for readability
       DO NOT MANUALLY EDIT - Regenerate with /wireframe command
       ============================================================ -->
  <defs>
    <linearGradient id="bgGrad" x1="0%" y1="0%" x2="100%" y2="100%">
      <stop offset="0%" style="stop-color:#0f172a"/>
      <stop offset="100%" style="stop-color:#1e293b"/>
    </linearGradient>
    <linearGradient id="accentGrad" x1="0%" y1="0%" x2="100%" y2="0%">
      <stop offset="0%" style="stop-color:#8b5cf6"/>
      <stop offset="100%" style="stop-color:#d946ef"/>
    </linearGradient>
    <linearGradient id="clientGrad" x1="0%" y1="0%" x2="0%" y2="100%">
      <stop offset="0%" style="stop-color:#22c55e"/>
      <stop offset="100%" style="stop-color:#16a34a"/>
    </linearGradient>
    <linearGradient id="authGrad" x1="0%" y1="0%" x2="0%" y2="100%">
      <stop offset="0%" style="stop-color:#8b5cf6"/>
      <stop offset="100%" style="stop-color:#7c3aed"/>
    </linearGradient>
    <linearGradient id="dbGrad" x1="0%" y1="0%" x2="0%" y2="100%">
      <stop offset="0%" style="stop-color:#f59e0b"/>
      <stop offset="100%" style="stop-color:#d97706"/>
    </linearGradient>
    <linearGradient id="oauthGrad" x1="0%" y1="0%" x2="0%" y2="100%">
      <stop offset="0%" style="stop-color:#3b82f6"/>
      <stop offset="100%" style="stop-color:#2563eb"/>
    </linearGradient>
    <marker id="arrowhead" markerWidth="10" markerHeight="7" refX="9" refY="3.5" orient="auto">
      <polygon points="0 0, 10 3.5, 0 7" fill="#8b5cf6"/>
    </marker>
    <marker id="arrowheadGreen" markerWidth="10" markerHeight="7" refX="9" refY="3.5" orient="auto">
      <polygon points="0 0, 10 3.5, 0 7" fill="#22c55e"/>
    </marker>
    <marker id="arrowheadOrange" markerWidth="10" markerHeight="7" refX="9" refY="3.5" orient="auto">
      <polygon points="0 0, 10 3.5, 0 7" fill="#f59e0b"/>
    </marker>
    <marker id="arrowheadRed" markerWidth="10" markerHeight="7" refX="9" refY="3.5" orient="auto">
      <polygon points="0 0, 10 3.5, 0 7" fill="#ef4444"/>
    </marker>
    <style>
      /* Typography - Dark Theme - AAA compliant, READABLE sizes (MANDATORY MINIMUMS) */
      .heading-lg { fill: #ffffff; font-family: system-ui, sans-serif; font-size: 24px; font-weight: bold; }
      .heading { fill: #ffffff; font-family: system-ui, sans-serif; font-size: 16px; font-weight: bold; }
      .heading-sm { fill: #ffffff; font-family: system-ui, sans-serif; font-size: 14px; font-weight: bold; }
      .text-md { fill: #cbd5e1; font-family: system-ui, sans-serif; font-size: 14px; }
      .text-sm { fill: #94a3b8; font-family: system-ui, sans-serif; font-size: 13px; }
      .text-muted { fill: #b4bcc8; font-family: system-ui, sans-serif; font-size: 12px; }
      .annotation { fill: #c4b5fd; font-family: monospace; font-size: 12px; font-weight: bold; }
      .code { fill: #e2e8f0; font-family: monospace; font-size: 11px; }
      .component-label { fill: #ffffff; font-family: system-ui, sans-serif; font-size: 14px; font-weight: bold; }
    </style>
  </defs>

  <!-- Background -->
  <rect width="1600" height="1000" fill="url(#bgGrad)"/>

  <!-- Dot grid pattern -->
  <g opacity="0.05">
    <pattern id="dots" width="30" height="30" patternUnits="userSpaceOnUse">
      <circle cx="15" cy="15" r="1" fill="#fff"/>
    </pattern>
    <rect width="1600" height="1000" fill="url(#dots)"/>
  </g>

  <!-- Accent line top -->
  <rect x="0" y="0" width="1600" height="3" fill="url(#accentGrad)"/>

  <!-- Title -->
  <text x="800" y="32" text-anchor="middle" font-family="system-ui, sans-serif" font-size="16" font-weight="600" fill="#b4bcc8" letter-spacing="1">USER AUTHENTICATION — SYSTEM ARCHITECTURE</text>

  <!-- ==================== CLIENT LAYER ==================== -->
  <text x="40" y="70" class="heading-lg">Client Layer</text>

  <!-- Browser/App -->
  <g id="client" transform="translate(40, 90)">
    <rect x="0" y="0" width="340" height="240" rx="8" fill="#1e293b" stroke="#22c55e" stroke-width="2"/>
    <rect x="0" y="0" width="340" height="40" rx="8" fill="url(#clientGrad)"/>
    <rect x="0" y="32" width="340" height="8" fill="url(#clientGrad)"/>
    <text x="170" y="27" text-anchor="middle" class="component-label">Next.js Client (Static)</text>

    <!-- Components -->
    <rect x="20" y="55" width="145" height="75" rx="4" fill="#334155"/>
    <text x="92" y="85" text-anchor="middle" class="text-sm">AuthProvider</text>
    <text x="92" y="105" text-anchor="middle" class="text-muted">Context + State</text>

    <rect x="175" y="55" width="145" height="75" rx="4" fill="#334155"/>
    <text x="247" y="80" text-anchor="middle" class="text-sm">ProtectedRoute</text>
    <text x="247" y="100" text-anchor="middle" class="text-muted">Guard HOC</text>
    <text x="247" y="115" text-anchor="middle" class="text-muted">(Higher-Order Component)</text>

    <rect x="20" y="145" width="145" height="75" rx="4" fill="#334155"/>
    <text x="92" y="175" text-anchor="middle" class="text-sm">Login/Signup</text>
    <text x="92" y="195" text-anchor="middle" class="text-muted">Forms</text>

    <rect x="175" y="145" width="145" height="75" rx="4" fill="#334155"/>
    <text x="247" y="175" text-anchor="middle" class="text-sm">TokenStorage</text>
    <text x="247" y="195" text-anchor="middle" class="text-muted">localStorage</text>
  </g>

  <!-- ==================== AUTH SERVICE ==================== -->
  <text x="440" y="70" class="heading-lg">Authentication Service</text>

  <g id="auth-service" transform="translate(440, 90)">
    <rect x="0" y="0" width="400" height="240" rx="8" fill="#1e293b" stroke="#8b5cf6" stroke-width="2"/>
    <rect x="0" y="0" width="400" height="40" rx="8" fill="url(#authGrad)"/>
    <rect x="0" y="32" width="400" height="8" fill="url(#authGrad)"/>
    <text x="200" y="27" text-anchor="middle" class="component-label">Supabase Auth</text>

    <!-- Auth methods -->
    <rect x="20" y="55" width="115" height="70" rx="4" fill="#334155"/>
    <text x="77" y="82" text-anchor="middle" class="text-sm">Email/Pass</text>
    <text x="77" y="102" text-anchor="middle" class="text-muted">FR-001, FR-006</text>

    <rect x="145" y="55" width="110" height="70" rx="4" fill="#334155"/>
    <text x="200" y="82" text-anchor="middle" class="text-sm">OAuth</text>
    <text x="200" y="102" text-anchor="middle" class="text-muted">FR-007, FR-008</text>

    <rect x="265" y="55" width="115" height="70" rx="4" fill="#334155"/>
    <text x="322" y="82" text-anchor="middle" class="text-sm">Pwd Reset</text>
    <text x="322" y="102" text-anchor="middle" class="text-muted">FR-010, FR-011</text>

    <!-- Session management -->
    <rect x="20" y="140" width="175" height="85" rx="4" fill="#334155"/>
    <text x="107" y="167" text-anchor="middle" class="text-sm">Session Manager</text>
    <text x="107" y="188" text-anchor="middle" class="code">JWT + Refresh Token</text>
    <text x="107" y="208" text-anchor="middle" class="text-muted">FR-012 to FR-015</text>

    <!-- Rate limiting -->
    <rect x="205" y="140" width="175" height="85" rx="4" fill="#334155"/>
    <text x="292" y="167" text-anchor="middle" class="text-sm">Rate Limiter</text>
    <text x="292" y="188" text-anchor="middle" class="code">5 attempts / 15 min</text>
    <text x="292" y="208" text-anchor="middle" class="text-muted">FR-016</text>
  </g>

  <!-- ==================== DATABASE LAYER ==================== -->
  <text x="900" y="70" class="heading-lg">Database Layer</text>

  <g id="database" transform="translate(900, 90)">
    <rect x="0" y="0" width="320" height="240" rx="8" fill="#1e293b" stroke="#f59e0b" stroke-width="2"/>
    <rect x="0" y="0" width="320" height="40" rx="8" fill="url(#dbGrad)"/>
    <rect x="0" y="32" width="320" height="8" fill="url(#dbGrad)"/>
    <text x="160" y="27" text-anchor="middle" class="component-label">Supabase PostgreSQL</text>

    <!-- Tables -->
    <rect x="20" y="55" width="135" height="80" rx="4" fill="#334155"/>
    <text x="87" y="80" text-anchor="middle" class="text-sm">auth.users</text>
    <text x="87" y="100" text-anchor="middle" class="code">email, hash</text>
    <text x="87" y="118" text-anchor="middle" class="text-muted">RLS: owner only</text>

    <rect x="165" y="55" width="135" height="80" rx="4" fill="#334155"/>
    <text x="232" y="80" text-anchor="middle" class="text-sm">public.profiles</text>
    <text x="232" y="100" text-anchor="middle" class="code">name, avatar</text>
    <text x="232" y="118" text-anchor="middle" class="text-muted">RLS: FR-019</text>

    <rect x="20" y="145" width="135" height="80" rx="4" fill="#334155"/>
    <text x="87" y="170" text-anchor="middle" class="text-sm">auth.sessions</text>
    <text x="87" y="190" text-anchor="middle" class="code">token, expires</text>
    <text x="87" y="208" text-anchor="middle" class="text-muted">FR-029, FR-030</text>

    <rect x="165" y="145" width="135" height="80" rx="4" fill="#334155"/>
    <text x="232" y="170" text-anchor="middle" class="text-sm">audit_logs</text>
    <text x="232" y="190" text-anchor="middle" class="code">event, user_id</text>
    <text x="232" y="208" text-anchor="middle" class="text-muted">FR-031 to FR-033</text>
  </g>

  <!-- ==================== OAUTH PROVIDERS ==================== -->
  <text x="1280" y="70" class="heading-lg">OAuth</text>

  <g id="oauth" transform="translate(1280, 90)">
    <rect x="0" y="0" width="280" height="240" rx="8" fill="#1e293b" stroke="#3b82f6" stroke-width="2"/>
    <rect x="0" y="0" width="280" height="40" rx="8" fill="url(#oauthGrad)"/>
    <rect x="0" y="32" width="280" height="8" fill="url(#oauthGrad)"/>
    <text x="140" y="27" text-anchor="middle" class="component-label">OAuth Providers</text>

    <!-- GitHub -->
    <rect x="20" y="55" width="240" height="80" rx="4" fill="#334155"/>
    <circle cx="60" cy="95" r="24" fill="#24292e"/>
    <text x="60" y="102" text-anchor="middle" font-size="20" fill="#ffffff">GH</text>
    <text x="160" y="88" text-anchor="middle" class="text-sm">GitHub</text>
    <text x="160" y="108" text-anchor="middle" class="text-muted">FR-007</text>

    <!-- Google -->
    <rect x="20" y="145" width="240" height="80" rx="4" fill="#334155"/>
    <circle cx="60" cy="185" r="24" fill="#4285f4"/>
    <text x="60" y="192" text-anchor="middle" font-size="20" fill="#ffffff">G</text>
    <text x="160" y="178" text-anchor="middle" class="text-sm">Google</text>
    <text x="160" y="198" text-anchor="middle" class="text-muted">FR-008</text>
  </g>

  <!-- ==================== FLOW ARROWS ==================== -->
  <g id="arrows">
    <!-- Client → Auth -->
    <path d="M 380 210 L 440 210" stroke="#22c55e" stroke-width="2" marker-end="url(#arrowheadGreen)" fill="none"/>
    <text x="410" y="198" text-anchor="middle" class="text-muted">login/signup</text>

    <!-- Auth → Client (email verification) -->
    <path d="M 440 260 L 380 260" stroke="#f59e0b" stroke-width="2" stroke-dasharray="4,2" marker-end="url(#arrowheadOrange)" fill="none"/>
    <text x="410" y="282" text-anchor="middle" class="text-muted">FR-004/FR-005</text>
    <text x="410" y="298" text-anchor="middle" class="code">verification email</text>

    <!-- Auth → Database -->
    <path d="M 840 210 L 900 210" stroke="#8b5cf6" stroke-width="2" marker-end="url(#arrowhead)" fill="none"/>
    <text x="870" y="198" text-anchor="middle" class="text-muted">verify/store</text>

    <!-- Auth → OAuth -->
    <path d="M 840 140 Q 1000 100 1280 140" stroke="#3b82f6" stroke-width="2" stroke-dasharray="5,3" marker-end="url(#arrowhead)" fill="none"/>
    <text x="1060" y="100" text-anchor="middle" class="text-muted">redirect</text>
  </g>

  <!-- ==================== TOKEN FLOW ==================== -->
  <g id="token-flow" transform="translate(40, 370)">
    <rect x="0" y="0" width="750" height="220" rx="8" fill="#1e293b" stroke="#475569"/>
    <text x="375" y="30" text-anchor="middle" class="heading">Token Lifecycle (FR-012 to FR-015)</text>
    <line x1="20" y1="48" x2="730" y2="48" stroke="#475569"/>

    <!-- Flow diagram -->
    <rect x="30" y="70" width="100" height="55" rx="4" fill="#22c55e"/>
    <text x="80" y="103" text-anchor="middle" class="component-label">Login</text>

    <path d="M 130 97 L 165 97" stroke="#8b5cf6" stroke-width="2" marker-end="url(#arrowhead)" fill="none"/>

    <rect x="165" y="70" width="115" height="55" rx="4" fill="#334155"/>
    <text x="222" y="93" text-anchor="middle" class="text-sm">Access Token</text>
    <text x="222" y="112" text-anchor="middle" class="text-muted">15 min TTL</text>

    <path d="M 280 97 L 315 97" stroke="#8b5cf6" stroke-width="2" marker-end="url(#arrowhead)" fill="none"/>

    <rect x="315" y="70" width="115" height="55" rx="4" fill="#334155"/>
    <text x="372" y="93" text-anchor="middle" class="text-sm">Refresh Token</text>
    <text x="372" y="112" text-anchor="middle" class="text-muted">7d / 30d</text>

    <path d="M 430 97 L 465 97" stroke="#8b5cf6" stroke-width="2" marker-end="url(#arrowhead)" fill="none"/>

    <rect x="465" y="70" width="115" height="55" rx="4" fill="#334155"/>
    <text x="522" y="93" text-anchor="middle" class="text-sm">Auto Refresh</text>
    <text x="522" y="112" text-anchor="middle" class="text-muted">before expiry</text>

    <path d="M 580 97 L 615 97" stroke="#8b5cf6" stroke-width="2" marker-end="url(#arrowhead)" fill="none"/>

    <rect x="615" y="70" width="100" height="55" rx="4" fill="#ef4444"/>
    <text x="665" y="103" text-anchor="middle" class="component-label">Logout</text>

    <!-- Remember me explanation -->
    <rect x="30" y="145" width="340" height="60" rx="4" fill="#334155"/>
    <text x="50" y="172" class="text-sm" fill="#22c55e">Remember Me = ON</text>
    <text x="50" y="192" class="text-muted">Refresh token: 30 days (FR-013)</text>

    <rect x="390" y="145" width="340" height="60" rx="4" fill="#334155"/>
    <text x="410" y="172" class="text-sm" fill="#f59e0b">Remember Me = OFF</text>
    <text x="410" y="192" class="text-muted">Refresh token: 7 days (FR-014)</text>
  </g>

  <!-- ==================== PROTECTED ROUTES ==================== -->
  <g id="protected-routes" transform="translate(830, 370)">
    <rect x="0" y="0" width="730" height="220" rx="8" fill="#1e293b" stroke="#475569"/>
    <text x="365" y="30" text-anchor="middle" class="heading">Route Protection (User Story 5)</text>
    <line x1="20" y1="48" x2="710" y2="48" stroke="#475569"/>

    <!-- User Request -->
    <rect x="30" y="85" width="120" height="55" rx="4" fill="#334155"/>
    <text x="90" y="108" text-anchor="middle" class="text-sm">User Request</text>
    <text x="90" y="128" text-anchor="middle" class="text-muted">/payments</text>

    <!-- Arrow to Auth Check -->
    <path d="M 150 112 L 190 112" stroke="#8b5cf6" stroke-width="2" marker-end="url(#arrowhead)" fill="none"/>

    <!-- Auth Check -->
    <rect x="190" y="80" width="110" height="65" rx="4" fill="#8b5cf6"/>
    <text x="245" y="108" text-anchor="middle" class="component-label">Auth</text>
    <text x="245" y="128" text-anchor="middle" class="text-sm" fill="#e9d5ff">Check</text>

    <!-- Branch 1: Authenticated (GREEN) - TOP - CLEAN HORIZONTAL -->
    <path d="M 300 77 L 400 77" stroke="#22c55e" stroke-width="2" marker-end="url(#arrowheadGreen)" fill="none"/>
    <text x="350" y="68" text-anchor="middle" class="text-muted" fill="#22c55e">authenticated</text>
    <rect x="400" y="55" width="110" height="44" rx="4" fill="#22c55e"/>
    <text x="455" y="82" text-anchor="middle" class="component-label">Access</text>

    <!-- Branch 2: Unverified (ORANGE) - MIDDLE - CLEAN HORIZONTAL -->
    <path d="M 300 129 L 400 129" stroke="#f59e0b" stroke-width="2" marker-end="url(#arrowheadOrange)" fill="none"/>
    <text x="350" y="120" text-anchor="middle" class="text-muted" fill="#f59e0b">unverified</text>
    <rect x="400" y="107" width="110" height="44" rx="4" fill="#f59e0b"/>
    <text x="455" y="134" text-anchor="middle" class="component-label">Verify</text>

    <!-- Branch 3: Unauthenticated (RED) - BOTTOM - CLEAN HORIZONTAL -->
    <path d="M 300 181 L 400 181" stroke="#ef4444" stroke-width="2" marker-end="url(#arrowheadRed)" fill="none"/>
    <text x="350" y="172" text-anchor="middle" class="text-muted" fill="#ef4444">no auth</text>
    <rect x="400" y="159" width="110" height="44" rx="4" fill="#ef4444"/>
    <text x="455" y="186" text-anchor="middle" class="component-label">Sign In</text>

    <!-- FR references panel -->
    <rect x="540" y="60" width="170" height="140" rx="4" fill="#334155"/>
    <text x="625" y="85" text-anchor="middle" class="annotation">Requirements</text>
    <text x="555" y="110" class="text-muted">FR-017: Redirect</text>
    <text x="555" y="130" class="text-muted">FR-018: Verify gate</text>
    <text x="555" y="150" class="text-muted">FR-019: RLS</text>
    <text x="555" y="170" class="text-muted">FR-020-23: Authorization</text>
  </g>

  <!-- ==================== SUCCESS CRITERIA ==================== -->
  <g id="success-criteria" transform="translate(40, 620)">
    <rect x="0" y="0" width="1520" height="130" rx="8" fill="#1e293b" stroke="#475569"/>
    <text x="760" y="30" text-anchor="middle" class="heading">Success Criteria (Measurable Outcomes)</text>
    <line x1="20" y1="48" x2="1500" y2="48" stroke="#475569"/>

    <!-- Row 1: First 4 metrics -->
    <rect x="25" y="60" width="360" height="28" rx="4" fill="#334155"/>
    <text x="205" y="80" text-anchor="middle" class="text-sm" fill="#22c55e">SC-001: Signup flow completes in &lt;3 min</text>

    <rect x="400" y="60" width="360" height="28" rx="4" fill="#334155"/>
    <text x="580" y="80" text-anchor="middle" class="text-sm" fill="#22c55e">SC-002: Sign-in response &lt;2 sec (95%)</text>

    <rect x="775" y="60" width="360" height="28" rx="4" fill="#334155"/>
    <text x="955" y="80" text-anchor="middle" class="text-sm" fill="#22c55e">SC-003: 1,000 concurrent sessions</text>

    <rect x="1150" y="60" width="360" height="28" rx="4" fill="#334155"/>
    <text x="1330" y="80" text-anchor="middle" class="text-sm" fill="#22c55e">SC-004: Zero unauthorized access</text>

    <!-- Row 2: Last 4 metrics -->
    <rect x="25" y="95" width="360" height="28" rx="4" fill="#334155"/>
    <text x="205" y="115" text-anchor="middle" class="text-sm" fill="#22c55e">SC-005: Password reset &lt;2 min</text>

    <rect x="400" y="95" width="360" height="28" rx="4" fill="#334155"/>
    <text x="580" y="115" text-anchor="middle" class="text-sm" fill="#22c55e">SC-006: OAuth sign-in &lt;10 sec</text>

    <rect x="775" y="95" width="360" height="28" rx="4" fill="#334155"/>
    <text x="955" y="115" text-anchor="middle" class="text-sm" fill="#22c55e">SC-007: Audit log latency &lt;1 sec</text>

    <rect x="1150" y="95" width="360" height="28" rx="4" fill="#334155"/>
    <text x="1330" y="115" text-anchor="middle" class="text-sm" fill="#22c55e">SC-008: 100% expired session redirect</text>
  </g>

  <!-- ==================== COMPLIANCE ==================== -->
  <g id="compliance" transform="translate(40, 770)">
    <rect x="0" y="0" width="1520" height="110" rx="8" fill="#1e293b" stroke="#475569"/>
    <text x="760" y="30" text-anchor="middle" class="heading">Compliance &amp; Constraints</text>
    <line x1="20" y1="48" x2="1500" y2="48" stroke="#475569"/>

    <rect x="25" y="62" width="220" height="32" rx="4" fill="#334155" stroke="#22c55e"/>
    <text x="135" y="83" text-anchor="middle" class="text-sm" fill="#22c55e">PCI (Payment Card) Ready</text>

    <rect x="260" y="62" width="220" height="32" rx="4" fill="#334155" stroke="#22c55e"/>
    <text x="370" y="83" text-anchor="middle" class="text-sm" fill="#22c55e">GDPR (Data Protection) Compliant</text>

    <rect x="495" y="62" width="260" height="32" rx="4" fill="#334155" stroke="#8b5cf6"/>
    <text x="625" y="83" text-anchor="middle" class="text-sm" fill="#8b5cf6">Static Export (GitHub Pages)</text>

    <rect x="770" y="62" width="240" height="32" rx="4" fill="#334155" stroke="#f59e0b"/>
    <text x="890" y="83" text-anchor="middle" class="text-sm" fill="#f59e0b">External Auth Service</text>

    <rect x="1025" y="62" width="230" height="32" rx="4" fill="#334155" stroke="#475569"/>
    <text x="1140" y="83" text-anchor="middle" class="text-sm">99.9% Uptime Target</text>

    <rect x="1270" y="62" width="230" height="32" rx="4" fill="#334155" stroke="#475569"/>
    <text x="1385" y="83" text-anchor="middle" class="text-sm">&gt;95% Email Delivery</text>
  </g>

  <!-- Color Legend -->
  <g id="color-legend" transform="translate(40, 900)">
    <text x="0" y="0" class="text-sm" fill="#94a3b8">Legend:</text>
    <rect x="70" y="-12" width="14" height="14" rx="3" fill="#334155" stroke="#22c55e" stroke-width="2"/>
    <text x="92" y="0" class="text-sm">Compliance achieved</text>
    <rect x="260" y="-12" width="14" height="14" rx="3" fill="#334155" stroke="#8b5cf6" stroke-width="2"/>
    <text x="282" y="0" class="text-sm">Technical constraint</text>
    <rect x="460" y="-12" width="14" height="14" rx="3" fill="#334155" stroke="#f59e0b" stroke-width="2"/>
    <text x="482" y="0" class="text-sm">External dependency</text>
    <rect x="660" y="-12" width="14" height="14" rx="3" fill="#334155" stroke="#475569" stroke-width="2"/>
    <text x="682" y="0" class="text-sm">Target metric</text>
  </g>

  <!-- Footer -->
  <text x="800" y="980" text-anchor="middle" class="text-muted">003-user-authentication | System Architecture | ScriptHammer</text>
</svg>
