<svg xmlns="http://www.w3.org/2000/svg" viewBox="0 0 1600 1000" width="1600" height="1000">
  <!-- ============================================================
       GENERATED BY: /wireframe skill
       SOURCE: features/foundation/003-user-authentication/spec.md
       DATE: 2026-01-02
       THEME: Light (UX/Frontend) - v3 True Parchment
       REGENERATED WITH FEEDBACK: features/foundation/003-user-authentication/WIREFRAME_ISSUES.md
       DO NOT MANUALLY EDIT - Regenerate with /wireframe command
       ============================================================ -->
  <defs>
    <linearGradient id="bgGrad" x1="0%" y1="0%" x2="100%" y2="100%">
      <stop offset="0%" style="stop-color:#c7ddf5"/>
      <stop offset="100%" style="stop-color:#b8d4f0"/>
    </linearGradient>
    <linearGradient id="accentGrad" x1="0%" y1="0%" x2="100%" y2="0%">
      <stop offset="0%" style="stop-color:#8b5cf6"/>
      <stop offset="100%" style="stop-color:#d946ef"/>
    </linearGradient>
    <marker id="arrowhead" markerWidth="10" markerHeight="7" refX="9" refY="3.5" orient="auto">
      <polygon points="0 0, 10 3.5, 0 7" fill="#8b5cf6"/>
    </marker>
    <marker id="arrowhead-green" markerWidth="10" markerHeight="7" refX="9" refY="3.5" orient="auto">
      <polygon points="0 0, 10 3.5, 0 7" fill="#22c55e"/>
    </marker>
    <marker id="arrowhead-red" markerWidth="10" markerHeight="7" refX="9" refY="3.5" orient="auto">
      <polygon points="0 0, 10 3.5, 0 7" fill="#dc2626"/>
    </marker>
    <style>
      .heading-lg { fill: #1a1a2e; font-family: system-ui, sans-serif; font-size: 20px; font-weight: 800; }
      .heading { fill: #1a1a2e; font-family: system-ui, sans-serif; font-size: 16px; font-weight: 700; }
      .text-md { fill: #2d3748; font-family: system-ui, sans-serif; font-size: 14px; font-weight: 500; }
      .text-sm { fill: #374151; font-family: system-ui, sans-serif; font-size: 12px; font-weight: 500; }
      .text-muted { fill: #4b5563; font-family: system-ui, sans-serif; font-size: 11px; font-weight: 500; }
      .annotation { fill: #6d28d9; font-family: monospace; font-size: 11px; font-weight: 600; }
      .label { fill: #8b5cf6; font-family: monospace; font-size: 13px; font-weight: bold; }
      .node-title { fill: #1a1a2e; font-family: system-ui, sans-serif; font-size: 13px; font-weight: 700; }
      .node-text { fill: #4b5563; font-family: system-ui, sans-serif; font-size: 11px; font-weight: 500; }
      .flow-label { fill: #6d28d9; font-family: monospace; font-size: 10px; font-weight: 600; }
      .req-title { fill: #1a1a2e; font-family: system-ui, sans-serif; font-size: 11px; font-weight: 700; }
      .req-text { fill: #4b5563; font-family: system-ui, sans-serif; font-size: 10px; font-weight: 500; }
    </style>
  </defs>

  <!-- Background -->
  <rect width="1600" height="1000" fill="url(#bgGrad)"/>

  <!-- Dot grid -->
  <g opacity="0.35">
    <pattern id="dots" width="30" height="30" patternUnits="userSpaceOnUse">
      <circle cx="15" cy="15" r="1" fill="#6b8cba"/>
    </pattern>
    <rect width="1600" height="1000" fill="url(#dots)"/>
  </g>

  <!-- Accent line -->
  <rect x="0" y="0" width="1600" height="3" fill="url(#accentGrad)"/>

  <!-- Title -->
  <text x="800" y="28" text-anchor="middle" font-family="system-ui, sans-serif" font-size="14" font-weight="600" fill="#4b5563" letter-spacing="1">USER AUTHENTICATION — ARCHITECTURE &amp; DATA FLOW</text>

  <!-- ==================== LAYER LABELS ==================== -->
  <text x="40" y="55" class="label">CLIENT LAYER</text>
  <text x="40" y="270" class="label">AUTH LAYER (SUPABASE)</text>
  <text x="40" y="520" class="label">DATA LAYER</text>
  <text x="40" y="730" class="label">EXTERNAL SERVICES</text>

  <!-- ==================== CLIENT LAYER ==================== -->

  <!-- User -->
  <g transform="translate(100, 80)">
    <circle cx="40" cy="40" r="35" fill="#dcc8a8" stroke="#8b5cf6" stroke-width="2"/>
    <text x="40" y="48" text-anchor="middle" font-size="28">&#x1F464;</text>
    <text x="40" y="95" text-anchor="middle" class="node-title">User</text>
  </g>

  <!-- Sign In Form -->
  <g transform="translate(280, 70)">
    <rect x="0" y="0" width="160" height="100" rx="8" fill="#e8d4b8" stroke="#b8a080"/>
    <text x="80" y="25" text-anchor="middle" class="node-title">Sign In Form</text>
    <text x="80" y="45" text-anchor="middle" class="node-text">Email/Password</text>
    <text x="80" y="62" text-anchor="middle" class="node-text">OAuth Buttons</text>
    <text x="80" y="85" text-anchor="middle" class="annotation">FR-006, FR-007, FR-008</text>
  </g>

  <!-- Sign Up Form -->
  <g transform="translate(480, 70)">
    <rect x="0" y="0" width="160" height="100" rx="8" fill="#e8d4b8" stroke="#b8a080"/>
    <text x="80" y="25" text-anchor="middle" class="node-title">Sign Up Form</text>
    <text x="80" y="45" text-anchor="middle" class="node-text">Email/Password</text>
    <text x="80" y="62" text-anchor="middle" class="node-text">Validation (FR-003)</text>
    <text x="80" y="85" text-anchor="middle" class="annotation">FR-001, FR-002</text>
  </g>

  <!-- Password Reset Form -->
  <g transform="translate(680, 70)">
    <rect x="0" y="0" width="160" height="100" rx="8" fill="#e8d4b8" stroke="#b8a080"/>
    <text x="80" y="25" text-anchor="middle" class="node-title">Password Reset</text>
    <text x="80" y="45" text-anchor="middle" class="node-text">Request Form</text>
    <text x="80" y="62" text-anchor="middle" class="node-text">New Password Form</text>
    <text x="80" y="85" text-anchor="middle" class="annotation">FR-010, FR-011</text>
  </g>

  <!-- Profile Settings -->
  <g transform="translate(880, 70)">
    <rect x="0" y="0" width="160" height="100" rx="8" fill="#e8d4b8" stroke="#b8a080"/>
    <text x="80" y="25" text-anchor="middle" class="node-title">Profile Settings</text>
    <text x="80" y="45" text-anchor="middle" class="node-text">Edit Profile</text>
    <text x="80" y="62" text-anchor="middle" class="node-text">Session Management</text>
    <text x="80" y="85" text-anchor="middle" class="annotation">FR-024 to FR-030</text>
  </g>

  <!-- Protected Routes -->
  <g transform="translate(1080, 70)">
    <rect x="0" y="0" width="160" height="100" rx="8" fill="#dcfce7" stroke="#22c55e"/>
    <text x="80" y="25" text-anchor="middle" class="node-title" fill="#166534">Protected Routes</text>
    <text x="80" y="45" text-anchor="middle" class="node-text">/payments</text>
    <text x="80" y="62" text-anchor="middle" class="node-text">/dashboard</text>
    <text x="80" y="85" text-anchor="middle" class="annotation">FR-017, FR-018</text>
  </g>

  <!-- Auth State (Client) -->
  <g transform="translate(1280, 70)">
    <rect x="0" y="0" width="140" height="100" rx="8" fill="#fef3c7" stroke="#eab308"/>
    <text x="70" y="25" text-anchor="middle" class="node-title" fill="#92400e">Auth State</text>
    <text x="70" y="45" text-anchor="middle" class="node-text">Session Token</text>
    <text x="70" y="62" text-anchor="middle" class="node-text">User Info</text>
    <text x="70" y="85" text-anchor="middle" class="annotation">FR-012, FR-015</text>
  </g>

  <!-- ==================== AUTH LAYER ==================== -->

  <!-- Supabase Auth -->
  <g transform="translate(280, 290)">
    <rect x="0" y="0" width="200" height="120" rx="8" fill="#8b5cf6" stroke="#6d28d9"/>
    <text x="100" y="30" text-anchor="middle" class="node-title" fill="#fff">Supabase Auth</text>
    <text x="100" y="55" text-anchor="middle" class="node-text" fill="#e9d5ff">signInWithPassword()</text>
    <text x="100" y="75" text-anchor="middle" class="node-text" fill="#e9d5ff">signInWithOAuth()</text>
    <text x="100" y="95" text-anchor="middle" class="node-text" fill="#e9d5ff">signUp(), signOut()</text>
  </g>

  <!-- Session Manager -->
  <g transform="translate(520, 290)">
    <rect x="0" y="0" width="200" height="120" rx="8" fill="#8b5cf6" stroke="#6d28d9"/>
    <text x="100" y="30" text-anchor="middle" class="node-title" fill="#fff">Session Manager</text>
    <text x="100" y="55" text-anchor="middle" class="node-text" fill="#e9d5ff">Token Refresh (FR-015)</text>
    <text x="100" y="75" text-anchor="middle" class="node-text" fill="#e9d5ff">Remember Me (FR-013)</text>
    <text x="100" y="95" text-anchor="middle" class="node-text" fill="#e9d5ff">Expiry (FR-014)</text>
  </g>

  <!-- Rate Limiter -->
  <g transform="translate(760, 290)">
    <rect x="0" y="0" width="180" height="120" rx="8" fill="#fef2f2" stroke="#dc2626"/>
    <text x="90" y="30" text-anchor="middle" class="node-title" fill="#dc2626">Rate Limiter</text>
    <text x="90" y="55" text-anchor="middle" class="node-text">5 attempts / 15 min</text>
    <text x="90" y="75" text-anchor="middle" class="node-text">Per email address</text>
    <text x="90" y="100" text-anchor="middle" class="annotation">FR-016</text>
  </g>

  <!-- Email Verification -->
  <g transform="translate(980, 290)">
    <rect x="0" y="0" width="180" height="120" rx="8" fill="#e8d4b8" stroke="#b8a080"/>
    <text x="90" y="30" text-anchor="middle" class="node-title">Email Verification</text>
    <text x="90" y="55" text-anchor="middle" class="node-text">Send on signup (FR-004)</text>
    <text x="90" y="75" text-anchor="middle" class="node-text">24h expiry (FR-005)</text>
    <text x="90" y="100" text-anchor="middle" class="annotation">Gate for payments</text>
  </g>

  <!-- Password Reset -->
  <g transform="translate(1200, 290)">
    <rect x="0" y="0" width="180" height="120" rx="8" fill="#e8d4b8" stroke="#b8a080"/>
    <text x="90" y="30" text-anchor="middle" class="node-title">Password Reset</text>
    <text x="90" y="55" text-anchor="middle" class="node-text">1h link expiry (FR-011)</text>
    <text x="90" y="75" text-anchor="middle" class="node-text">Single use tokens</text>
    <text x="90" y="100" text-anchor="middle" class="annotation">FR-010</text>
  </g>

  <!-- ==================== DATA LAYER ==================== -->

  <!-- auth.users -->
  <g transform="translate(280, 540)">
    <rect x="0" y="0" width="200" height="140" rx="8" fill="#1e293b" stroke="#475569"/>
    <text x="100" y="25" text-anchor="middle" class="node-title" fill="#fff">auth.users</text>
    <text x="20" y="50" class="node-text" fill="#94a3b8">id: uuid (PK)</text>
    <text x="20" y="70" class="node-text" fill="#94a3b8">email: text</text>
    <text x="20" y="90" class="node-text" fill="#94a3b8">encrypted_password</text>
    <text x="20" y="110" class="node-text" fill="#94a3b8">email_confirmed_at</text>
    <text x="20" y="130" class="node-text" fill="#94a3b8">last_sign_in_at</text>
  </g>

  <!-- public.profiles -->
  <g transform="translate(520, 540)">
    <rect x="0" y="0" width="200" height="140" rx="8" fill="#1e293b" stroke="#475569"/>
    <text x="100" y="25" text-anchor="middle" class="node-title" fill="#fff">public.profiles</text>
    <text x="20" y="50" class="node-text" fill="#94a3b8">id: uuid (FK → auth.users)</text>
    <text x="20" y="70" class="node-text" fill="#94a3b8">display_name: text</text>
    <text x="20" y="90" class="node-text" fill="#94a3b8">username: text</text>
    <text x="20" y="110" class="node-text" fill="#94a3b8">avatar_url: text</text>
    <text x="20" y="130" class="node-text" fill="#94a3b8">bio: text</text>
  </g>

  <!-- public.payments (RLS) -->
  <g transform="translate(760, 540)">
    <rect x="0" y="0" width="200" height="140" rx="8" fill="#1e293b" stroke="#22c55e" stroke-width="2"/>
    <text x="100" y="25" text-anchor="middle" class="node-title" fill="#22c55e">public.payments</text>
    <text x="20" y="50" class="node-text" fill="#94a3b8">id: uuid (PK)</text>
    <text x="20" y="70" class="node-text" fill="#94a3b8">user_id: uuid (FK)</text>
    <text x="20" y="90" class="node-text" fill="#94a3b8">amount, status</text>
    <text x="100" y="120" text-anchor="middle" class="annotation" fill="#22c55e">RLS: FR-019, FR-020</text>
    <text x="100" y="135" text-anchor="middle" class="node-text" fill="#22c55e">FR-022: user_id from session</text>
  </g>

  <!-- auth.sessions -->
  <g transform="translate(1000, 540)">
    <rect x="0" y="0" width="180" height="140" rx="8" fill="#1e293b" stroke="#475569"/>
    <text x="90" y="25" text-anchor="middle" class="node-title" fill="#fff">auth.sessions</text>
    <text x="15" y="50" class="node-text" fill="#94a3b8">id: uuid</text>
    <text x="15" y="70" class="node-text" fill="#94a3b8">user_id: uuid</text>
    <text x="15" y="90" class="node-text" fill="#94a3b8">created_at</text>
    <text x="15" y="110" class="node-text" fill="#94a3b8">updated_at</text>
    <text x="15" y="130" class="node-text" fill="#94a3b8">factor_id</text>
  </g>

  <!-- Audit Log -->
  <g transform="translate(1220, 540)">
    <rect x="0" y="0" width="180" height="140" rx="8" fill="#1e293b" stroke="#475569"/>
    <text x="90" y="25" text-anchor="middle" class="node-title" fill="#fff">public.audit_log</text>
    <text x="15" y="50" class="node-text" fill="#94a3b8">id: uuid</text>
    <text x="15" y="70" class="node-text" fill="#94a3b8">user_id: uuid</text>
    <text x="15" y="90" class="node-text" fill="#94a3b8">event_type: text</text>
    <text x="15" y="110" class="node-text" fill="#94a3b8">timestamp</text>
    <text x="90" y="135" text-anchor="middle" class="annotation">FR-031, FR-032</text>
  </g>

  <!-- ==================== EXTERNAL SERVICES ==================== -->

  <!-- GitHub OAuth -->
  <g transform="translate(280, 750)">
    <rect x="0" y="0" width="160" height="80" rx="8" fill="#24292e" stroke="#57606a"/>
    <text x="80" y="35" text-anchor="middle" class="node-title" fill="#fff">GitHub OAuth</text>
    <text x="80" y="55" text-anchor="middle" class="node-text" fill="#8b949e">Provider</text>
    <text x="80" y="72" text-anchor="middle" class="annotation" fill="#8b949e">FR-007</text>
  </g>

  <!-- Google OAuth -->
  <g transform="translate(480, 750)">
    <rect x="0" y="0" width="160" height="80" rx="8" fill="#4285f4" stroke="#357ae8"/>
    <text x="80" y="35" text-anchor="middle" class="node-title" fill="#fff">Google OAuth</text>
    <text x="80" y="55" text-anchor="middle" class="node-text" fill="#c6dafc">Provider</text>
    <text x="80" y="72" text-anchor="middle" class="annotation" fill="#c6dafc">FR-008</text>
  </g>

  <!-- Email Service -->
  <g transform="translate(680, 750)">
    <rect x="0" y="0" width="160" height="80" rx="8" fill="#e8d4b8" stroke="#b8a080"/>
    <text x="80" y="35" text-anchor="middle" class="node-title">Email Service</text>
    <text x="80" y="55" text-anchor="middle" class="node-text">Verification</text>
    <text x="80" y="72" text-anchor="middle" class="node-text">Password Reset</text>
  </g>

  <!-- ==================== FLOW ARROWS ==================== -->

  <!-- User to Sign In -->
  <line x1="175" y1="120" x2="280" y2="120" stroke="#8b5cf6" stroke-width="2" marker-end="url(#arrowhead)"/>

  <!-- Forms to Supabase Auth -->
  <line x1="360" y1="170" x2="360" y2="290" stroke="#8b5cf6" stroke-width="2" marker-end="url(#arrowhead)"/>
  <line x1="560" y1="170" x2="400" y2="290" stroke="#8b5cf6" stroke-width="2" marker-end="url(#arrowhead)"/>

  <!-- Supabase to Session Manager -->
  <line x1="480" y1="350" x2="520" y2="350" stroke="#8b5cf6" stroke-width="2" marker-end="url(#arrowhead)"/>

  <!-- Session Manager to Rate Limiter -->
  <line x1="720" y1="350" x2="760" y2="350" stroke="#dc2626" stroke-width="2" marker-end="url(#arrowhead-red)"/>

  <!-- Auth to Database -->
  <line x1="380" y1="410" x2="380" y2="540" stroke="#8b5cf6" stroke-width="2" marker-end="url(#arrowhead)"/>
  <line x1="620" y1="410" x2="620" y2="540" stroke="#8b5cf6" stroke-width="2" marker-end="url(#arrowhead)"/>

  <!-- Session to Auth State -->
  <line x1="620" y1="350" x2="1280" y2="120" stroke="#eab308" stroke-width="2" stroke-dasharray="5,5"/>

  <!-- Protected Routes check -->
  <line x1="1160" y1="170" x2="1350" y2="170" stroke="#22c55e" stroke-width="2" stroke-dasharray="5,5"/>
  <text x="1255" y="160" class="flow-label">Check Auth</text>

  <!-- OAuth to providers -->
  <line x1="340" y1="410" x2="340" y2="750" stroke="#24292e" stroke-width="2" marker-end="url(#arrowhead)"/>
  <line x1="400" y1="410" x2="540" y2="750" stroke="#4285f4" stroke-width="2" marker-end="url(#arrowhead)"/>

  <!-- Email verification to email service -->
  <line x1="1070" y1="410" x2="760" y2="750" stroke="#b8a080" stroke-width="2" marker-end="url(#arrowhead)"/>

  <!-- ==================== LEGEND ==================== -->
  <g transform="translate(1200, 750)">
    <rect x="0" y="0" width="180" height="120" rx="8" fill="#e8d4b8" stroke="#8b5cf6" stroke-width="2"/>
    <text x="90" y="20" text-anchor="middle" class="req-title">LEGEND</text>

    <line x1="15" y1="40" x2="55" y2="40" stroke="#8b5cf6" stroke-width="2"/>
    <text x="65" y="44" class="req-text">Auth Flow</text>

    <line x1="15" y1="60" x2="55" y2="60" stroke="#22c55e" stroke-width="2"/>
    <text x="65" y="64" class="req-text">Protected (RLS)</text>

    <line x1="15" y1="80" x2="55" y2="80" stroke="#dc2626" stroke-width="2"/>
    <text x="65" y="84" class="req-text">Rate Limiting</text>

    <line x1="15" y1="100" x2="55" y2="100" stroke="#eab308" stroke-width="2" stroke-dasharray="5,5"/>
    <text x="65" y="104" class="req-text">Session State</text>
  </g>

  <!-- ==================== REQUIREMENTS KEY ==================== -->
  <g transform="translate(40, 880)">
    <rect x="0" y="0" width="1120" height="90" rx="8" fill="#e8d4b8" stroke="#8b5cf6" stroke-width="2"/>
    <text x="15" y="18" class="req-title">REQUIREMENTS COVERAGE</text>

    <!-- Row 1 -->
    <text x="15" y="38" class="annotation">FR-001 to FR-005:</text>
    <text x="130" y="38" class="req-text">Account creation, validation, verification</text>
    <text x="380" y="38" class="annotation">FR-006 to FR-011:</text>
    <text x="495" y="38" class="req-text">Authentication (email, OAuth, password reset)</text>
    <text x="780" y="38" class="annotation">FR-012 to FR-015:</text>
    <text x="895" y="38" class="req-text">Session management</text>

    <!-- Row 2 -->
    <text x="15" y="56" class="annotation">FR-016 to FR-019:</text>
    <text x="130" y="56" class="req-text">Security (rate limit, route protection, RLS)</text>
    <text x="380" y="56" class="annotation">FR-020 to FR-023:</text>
    <text x="495" y="56" class="req-text">Authorization (user-only access, session-derived ID)</text>
    <text x="780" y="56" class="annotation">FR-024 to FR-030:</text>
    <text x="895" y="56" class="req-text">Profile management</text>

    <!-- Row 3 -->
    <text x="15" y="74" class="annotation">FR-031 to FR-033:</text>
    <text x="130" y="74" class="req-text">Audit logging (no passwords logged)</text>
    <text x="380" y="74" class="annotation">SC-001 to SC-008:</text>
    <text x="495" y="74" class="req-text">Performance criteria (&lt;2s sign-in, 1000 concurrent, zero unauthorized)</text>
  </g>

  <!-- Footer - LEFT ALIGNED at x=60 -->
  <text x="60" y="980" text-anchor="start" class="text-muted">003:05 | Auth Flow Architecture | ScriptHammer</text>
</svg>
