<svg xmlns="http://www.w3.org/2000/svg" viewBox="0 0 1400 800" width="1400" height="800">
  <!-- ============================================================
       GENERATED BY: /wireframe skill
       SOURCE: features/integrations/022-web3forms-integration/spec.md
       DATE: 2026-01-01
       THEME: Light (UX/Frontend) - v3 True Parchment
       DO NOT MANUALLY EDIT - Regenerate with /wireframe command
       ============================================================ -->
  <defs>
    <linearGradient id="bgGrad" x1="0%" y1="0%" x2="100%" y2="100%">
      <stop offset="0%" style="stop-color:#c7ddf5"/>
      <stop offset="100%" style="stop-color:#b8d4f0"/>
    </linearGradient>
    <linearGradient id="accentGrad" x1="0%" y1="0%" x2="100%" y2="0%">
      <stop offset="0%" style="stop-color:#8b5cf6"/>
      <stop offset="100%" style="stop-color:#d946ef"/>
    </linearGradient>
    <style>
      .heading-lg { fill: #1a1a2e; font-family: system-ui, sans-serif; font-size: 24px; font-weight: 800; }
      .heading { fill: #1a1a2e; font-family: system-ui, sans-serif; font-size: 16px; font-weight: 700; }
      .text-md { fill: #2d3748; font-family: system-ui, sans-serif; font-size: 14px; font-weight: 500; }
      .text-sm { fill: #374151; font-family: system-ui, sans-serif; font-size: 12px; font-weight: 500; }
      .text-muted { fill: #4b5563; font-family: system-ui, sans-serif; font-size: 11px; font-weight: 500; }
      .annotation { fill: #6d28d9; font-family: monospace; font-size: 12px; font-weight: 600; }
      .label-desktop { fill: #8b5cf6; font-family: monospace; font-size: 13px; font-weight: bold; }
      .label-mobile { fill: #d946ef; font-family: monospace; font-size: 13px; font-weight: bold; }
      .error-text { fill: #dc2626; font-family: system-ui, sans-serif; font-size: 11px; font-weight: 500; }
    </style>
  </defs>

  <!-- Background -->
  <rect width="1400" height="800" fill="url(#bgGrad)"/>

  <!-- Dot grid pattern -->
  <g opacity="0.35">
    <pattern id="dots" width="30" height="30" patternUnits="userSpaceOnUse">
      <circle cx="15" cy="15" r="1" fill="#6b8cba"/>
    </pattern>
    <rect width="1400" height="800" fill="url(#dots)"/>
  </g>

  <!-- Accent line top -->
  <rect x="0" y="0" width="1400" height="3" fill="url(#accentGrad)"/>

  <!-- Title -->
  <text x="700" y="28" text-anchor="middle" font-family="system-ui, sans-serif" font-size="14" font-weight="600" fill="#4b5563" letter-spacing="1">WEB3FORMS INTEGRATION — CONTACT FORM UI</text>

  <!-- DESKTOP SECTION -->
  <text x="40" y="52" class="label-desktop">DESKTOP — VALID FORM</text>

  <!-- Desktop main panel -->
  <rect x="40" y="60" width="440" height="700" rx="12" fill="#e8d4b8" stroke="#b8a080" stroke-width="1"/>

  <!-- Page header -->
  <rect x="50" y="70" width="420" height="50" rx="8" fill="#dcc8a8"/>
  <text x="260" y="102" text-anchor="middle" class="heading-lg">Contact Us</text>

  <!-- Intro text -->
  <text x="60" y="145" class="text-md">Have a question or feedback? We'd love to hear from you.</text>
  <text x="60" y="165" class="text-sm">Fill out the form below and we'll get back to you within 24 hours.</text>

  <!-- Form container -->
  <rect x="50" y="185" width="420" height="560" rx="8" fill="#f5f0e6" stroke="#b8a080" stroke-width="1"/>

  <!-- Name field (valid) -->
  <text x="70" y="215" class="text-md" font-weight="600">Name *</text>
  <rect x="70" y="225" width="380" height="44" rx="6" fill="#fff" stroke="#22c55e" stroke-width="2"/>
  <text x="85" y="253" class="text-md" fill="#2d3748">John Doe</text>
  <!-- Checkmark icon -->
  <circle cx="425" cy="247" r="10" fill="#22c55e"/>
  <text x="425" y="252" text-anchor="middle" fill="#fff" font-size="12" font-weight="bold">✓</text>

  <!-- Email field (valid) -->
  <text x="70" y="290" class="text-md" font-weight="600">Email *</text>
  <rect x="70" y="300" width="380" height="44" rx="6" fill="#fff" stroke="#22c55e" stroke-width="2"/>
  <text x="85" y="328" class="text-md" fill="#2d3748">john@example.com</text>
  <circle cx="425" cy="322" r="10" fill="#22c55e"/>
  <text x="425" y="327" text-anchor="middle" fill="#fff" font-size="12" font-weight="bold">✓</text>

  <!-- Subject field (optional) -->
  <text x="70" y="365" class="text-md" font-weight="600">Subject <span class="text-muted">(optional)</span></text>
  <rect x="70" y="375" width="380" height="44" rx="6" fill="#fff" stroke="#b8a080" stroke-width="1"/>
  <text x="85" y="403" class="text-md" fill="#2d3748">Question about services</text>

  <!-- Message field (valid) -->
  <text x="70" y="440" class="text-md" font-weight="600">Message *</text>
  <rect x="70" y="450" width="380" height="140" rx="6" fill="#fff" stroke="#22c55e" stroke-width="2"/>
  <text x="85" y="480" class="text-md" fill="#2d3748">Hello, I'm interested in learning more</text>
  <text x="85" y="500" class="text-md" fill="#2d3748">about your consulting services. Could</text>
  <text x="85" y="520" class="text-md" fill="#2d3748">you please provide information about...</text>
  <circle cx="425" cy="520" r="10" fill="#22c55e"/>
  <text x="425" y="525" text-anchor="middle" fill="#fff" font-size="12" font-weight="bold">✓</text>
  <!-- Character count -->
  <text x="430" y="585" text-anchor="end" class="text-muted">127 / 2000</text>

  <!-- Hidden spam honeypot (invisible to users) -->
  <!-- FR-011: Spam detection hidden fields -->

  <!-- Submit button -->
  <rect x="70" y="610" width="380" height="50" rx="8" fill="#8b5cf6"/>
  <text x="260" y="642" text-anchor="middle" fill="#fff" font-family="system-ui" font-size="16" font-weight="600">Send Message</text>

  <!-- Required fields note -->
  <text x="260" y="685" text-anchor="middle" class="text-muted">* Required fields</text>

  <!-- Privacy note -->
  <text x="260" y="710" text-anchor="middle" class="text-sm">Your information is protected and will never be shared.</text>

  <!-- DESKTOP WITH ERRORS -->
  <text x="510" y="52" class="label-desktop">DESKTOP — VALIDATION ERRORS</text>

  <!-- Error form panel -->
  <rect x="500" y="60" width="440" height="700" rx="12" fill="#e8d4b8" stroke="#b8a080" stroke-width="1"/>

  <!-- Page header -->
  <rect x="510" y="70" width="420" height="50" rx="8" fill="#dcc8a8"/>
  <text x="720" y="102" text-anchor="middle" class="heading-lg">Contact Us</text>

  <!-- Intro text -->
  <text x="520" y="145" class="text-md">Have a question or feedback? We'd love to hear from you.</text>
  <text x="520" y="165" class="text-sm">Fill out the form below and we'll get back to you within 24 hours.</text>

  <!-- Form container -->
  <rect x="510" y="185" width="420" height="560" rx="8" fill="#f5f0e6" stroke="#b8a080" stroke-width="1"/>

  <!-- Error banner -->
  <rect x="530" y="195" width="380" height="36" rx="6" fill="#fee2e2" stroke="#ef4444" stroke-width="1"/>
  <text x="720" y="219" text-anchor="middle" class="text-sm" fill="#991b1b">Please fix the errors below before submitting</text>

  <!-- Name field (error) -->
  <text x="530" y="255" class="text-md" font-weight="600">Name *</text>
  <rect x="530" y="265" width="380" height="44" rx="6" fill="#fff" stroke="#ef4444" stroke-width="2"/>
  <text x="545" y="293" class="text-md" fill="#2d3748">J</text>
  <!-- Error icon -->
  <circle cx="885" cy="287" r="10" fill="#ef4444"/>
  <text x="885" y="292" text-anchor="middle" fill="#fff" font-size="12" font-weight="bold">!</text>
  <!-- Error message -->
  <text x="530" y="324" class="error-text">Name must be at least 2 characters</text>

  <!-- Email field (error) -->
  <text x="530" y="350" class="text-md" font-weight="600">Email *</text>
  <rect x="530" y="360" width="380" height="44" rx="6" fill="#fff" stroke="#ef4444" stroke-width="2"/>
  <text x="545" y="388" class="text-md" fill="#2d3748">not-an-email</text>
  <circle cx="885" cy="382" r="10" fill="#ef4444"/>
  <text x="885" y="387" text-anchor="middle" fill="#fff" font-size="12" font-weight="bold">!</text>
  <text x="530" y="419" class="error-text">Please enter a valid email address</text>

  <!-- Subject field (valid) -->
  <text x="530" y="445" class="text-md" font-weight="600">Subject <span class="text-muted">(optional)</span></text>
  <rect x="530" y="455" width="380" height="44" rx="6" fill="#fff" stroke="#b8a080" stroke-width="1"/>
  <text x="545" y="483" class="text-muted">Enter subject...</text>

  <!-- Message field (error) -->
  <text x="530" y="520" class="text-md" font-weight="600">Message *</text>
  <rect x="530" y="530" width="380" height="120" rx="6" fill="#fff" stroke="#ef4444" stroke-width="2"/>
  <text x="545" y="560" class="text-md" fill="#2d3748">Hi</text>
  <circle cx="885" cy="590" r="10" fill="#ef4444"/>
  <text x="885" y="595" text-anchor="middle" fill="#fff" font-size="12" font-weight="bold">!</text>
  <text x="530" y="665" class="error-text">Message must be at least 10 characters (2 / 10)</text>

  <!-- Disabled submit button -->
  <rect x="530" y="685" width="380" height="50" rx="8" fill="#9ca3af"/>
  <text x="720" y="717" text-anchor="middle" fill="#fff" font-family="system-ui" font-size="16" font-weight="600">Send Message</text>

  <!-- MOBILE SECTION -->
  <text x="980" y="52" class="label-mobile">MOBILE</text>

  <!-- Phone frame -->
  <rect x="980" y="60" width="360" height="700" rx="24" fill="#c8b898" stroke="#a08860" stroke-width="2"/>
  <rect x="990" y="70" width="340" height="680" rx="16" fill="#e8d4b8"/>

  <!-- Status bar -->
  <rect x="990" y="70" width="340" height="28" rx="16" fill="#dcc8a8"/>
  <text x="1010" y="88" class="text-sm">9:41</text>
  <text x="1300" y="88" class="text-sm">100%</text>

  <!-- Mobile header -->
  <rect x="1000" y="108" width="320" height="44" rx="6" fill="#dcc8a8"/>
  <text x="1020" y="136" class="text-md">← Back</text>
  <text x="1160" y="136" text-anchor="middle" class="heading">Contact Us</text>

  <!-- Mobile form -->
  <rect x="1000" y="162" width="320" height="520" rx="8" fill="#f5f0e6"/>

  <!-- Name field -->
  <text x="1015" y="185" class="text-sm" font-weight="600">Name *</text>
  <rect x="1015" y="195" width="290" height="40" rx="6" fill="#fff" stroke="#b8a080" stroke-width="1"/>
  <text x="1030" y="221" class="text-sm" fill="#9ca3af">Your full name</text>

  <!-- Email field -->
  <text x="1015" y="255" class="text-sm" font-weight="600">Email *</text>
  <rect x="1015" y="265" width="290" height="40" rx="6" fill="#fff" stroke="#b8a080" stroke-width="1"/>
  <text x="1030" y="291" class="text-sm" fill="#9ca3af">your@email.com</text>

  <!-- Subject field -->
  <text x="1015" y="325" class="text-sm" font-weight="600">Subject</text>
  <rect x="1015" y="335" width="290" height="40" rx="6" fill="#fff" stroke="#b8a080" stroke-width="1"/>
  <text x="1030" y="361" class="text-sm" fill="#9ca3af">Topic (optional)</text>

  <!-- Message field -->
  <text x="1015" y="395" class="text-sm" font-weight="600">Message *</text>
  <rect x="1015" y="405" width="290" height="120" rx="6" fill="#fff" stroke="#b8a080" stroke-width="1"/>
  <text x="1030" y="430" class="text-sm" fill="#9ca3af">Your message here...</text>

  <!-- Submit button -->
  <rect x="1015" y="545" width="290" height="48" rx="8" fill="#8b5cf6"/>
  <text x="1160" y="576" text-anchor="middle" fill="#fff" font-family="system-ui" font-size="14" font-weight="600">Send Message</text>

  <!-- Required note -->
  <text x="1160" y="615" text-anchor="middle" class="text-muted">* Required fields</text>

  <!-- Privacy -->
  <text x="1160" y="640" text-anchor="middle" class="text-muted">Your data is protected.</text>
  <text x="1160" y="658" text-anchor="middle" class="text-sm" fill="#8b5cf6">Privacy Policy</text>

  <!-- Mobile bottom nav -->
  <rect x="990" y="700" width="340" height="50" rx="16" fill="#dcc8a8"/>
  <text x="1050" y="730" text-anchor="middle" class="text-sm">Home</text>
  <text x="1160" y="730" text-anchor="middle" class="text-sm" font-weight="700" fill="#8b5cf6">Contact</text>
  <text x="1270" y="730" text-anchor="middle" class="text-sm">About</text>

  <!-- Annotations -->
  <g id="annotations">
    <rect x="40" y="770" width="140" height="22" rx="4" fill="#e8d4b8" stroke="#8b5cf6" stroke-width="1"/>
    <text x="110" y="785" text-anchor="middle" class="annotation">FR-006/007/008</text>

    <rect x="200" y="770" width="120" height="22" rx="4" fill="#e8d4b8" stroke="#8b5cf6" stroke-width="1"/>
    <text x="260" y="785" text-anchor="middle" class="annotation">FR-009: Live</text>

    <rect x="340" y="770" width="140" height="22" rx="4" fill="#e8d4b8" stroke="#8b5cf6" stroke-width="1"/>
    <text x="410" y="785" text-anchor="middle" class="annotation">FR-020/021/022</text>

    <rect x="500" y="770" width="160" height="22" rx="4" fill="#e8d4b8" stroke="#8b5cf6" stroke-width="1"/>
    <text x="580" y="785" text-anchor="middle" class="annotation">FR-011: Honeypot</text>
  </g>
</svg>
