<?xml version="1.0" encoding="UTF-8"?>
<svg xmlns="http://www.w3.org/2000/svg" viewBox="0 0 1920 1080" width="1920" height="1080">
  <defs>
    <linearGradient id="bg" x1="0%" y1="0%" x2="0%" y2="100%">
      <stop offset="0%" stop-color="#c7ddf5"/>
      <stop offset="100%" stop-color="#b8d4f0"/>
    </linearGradient>
  </defs>
  <rect width="1920" height="1080" fill="url(#bg)"/>
  <text x="960" y="28" text-anchor="middle" font-family="system-ui, sans-serif" font-size="20" font-weight="bold" fill="#1f2937">WEB3FORMS INTEGRATION - CONTACT FORM UI</text>

  <!-- ==================== DESKTOP VIEW (x=40, y=60, 1280x720) ==================== -->
  <text x="40" y="52" fill="#8b5cf6" font-family="system-ui, sans-serif" font-size="15" font-weight="bold">DESKTOP (1280×720)</text>

  <!-- Desktop container -->
  <rect x="40" y="60" width="1280" height="720" rx="8" fill="#e8d4b8" stroke="#b8a080"/>

  <!-- Desktop Header -->
  <g transform="translate(40, 60)">
    <rect width="1280" height="50" rx="8" fill="#dcc8a8" stroke="#b8a080"/>
    <rect x="15" y="10" width="30" height="30" rx="4" fill="#8b5cf6"/>
    <text x="55" y="32" fill="#1a1a2e" font-family="system-ui, sans-serif" font-size="16" font-weight="bold">ScriptHammer</text>
    <g transform="translate(400, 3)">
      <rect x="0" width="70" height="44" rx="4" fill="#e8d4b8"/>
      <text x="35" y="28" text-anchor="middle" fill="#374151" font-family="system-ui, sans-serif" font-size="14" font-weight="500">Home</text>
      <rect x="80" width="90" height="44" rx="4" fill="#e8d4b8"/>
      <text x="125" y="28" text-anchor="middle" fill="#374151" font-family="system-ui, sans-serif" font-size="14" font-weight="500">Features</text>
      <rect x="180" width="70" height="44" rx="4" fill="#e8d4b8"/>
      <text x="215" y="28" text-anchor="middle" fill="#374151" font-family="system-ui, sans-serif" font-size="14" font-weight="500">Docs</text>
      <rect x="260" width="80" height="44" rx="4" fill="#8b5cf6" opacity="0.2"/>
      <text x="300" y="28" text-anchor="middle" fill="#8b5cf6" font-family="system-ui, sans-serif" font-size="14" font-weight="bold">Contact</text>
    </g>
    <g transform="translate(1100, 3)">
      <rect x="0" y="0" width="44" height="44" rx="4" fill="#e8d4b8"/>
      <circle cx="22" cy="22" r="8" fill="none" stroke="#1a1a2e" stroke-width="2"/>
      <rect x="54" y="0" width="44" height="44" rx="4" fill="#e8d4b8"/>
      <circle cx="76" cy="22" r="10" fill="none" stroke="#1a1a2e" stroke-width="2"/>
      <circle cx="130" cy="22" r="16" fill="#8b5cf6"/>
      <text x="130" y="27" text-anchor="middle" fill="#fff" font-family="system-ui, sans-serif" font-size="14">U</text>
    </g>
  </g>

  <!-- Desktop Content Area -->
  <g transform="translate(40, 110)">
    <!-- Page heading -->
    <text x="640" y="40" text-anchor="middle" fill="#1a1a2e" font-family="system-ui, sans-serif" font-size="28" font-weight="bold">Contact Us</text>
    <text x="640" y="70" text-anchor="middle" fill="#4b5563" font-family="system-ui, sans-serif" font-size="16">Have a question? We'd love to hear from you.</text>

    <!-- Form Card -->
    <rect x="340" y="100" width="600" height="480" rx="8" fill="#f5ebe0" stroke="#d4c4a8"/>

    <!-- Name Field [1] -->
    <g transform="translate(380, 130)">
      <text x="0" y="0" fill="#1a1a2e" font-family="system-ui, sans-serif" font-size="14" font-weight="600">Name *</text>
      <rect x="0" y="10" width="520" height="48" rx="6" fill="#fff" stroke="#8b5cf6" stroke-width="2"/>
      <text x="16" y="42" fill="#374151" font-family="system-ui, sans-serif" font-size="16">John Doe</text>
      <!-- Focus indicator ring -->
      <rect x="-2" y="8" width="524" height="52" rx="8" fill="none" stroke="#8b5cf6" stroke-width="2" stroke-dasharray="4,2" opacity="0.5"/>
    </g>
    <!-- Callout 1 -->
    <circle cx="920" cy="270" r="14" fill="#6d28d9"/>
    <text x="920" y="275" text-anchor="middle" fill="#fff" font-family="system-ui, sans-serif" font-size="14" font-weight="bold">1</text>

    <!-- Email Field [2] with validation error -->
    <g transform="translate(380, 210)">
      <text x="0" y="0" fill="#1a1a2e" font-family="system-ui, sans-serif" font-size="14" font-weight="600">Email *</text>
      <rect x="0" y="10" width="520" height="48" rx="6" fill="#fff" stroke="#ef4444" stroke-width="2"/>
      <text x="16" y="42" fill="#374151" font-family="system-ui, sans-serif" font-size="16">invalid-email</text>
      <!-- Error icon -->
      <g transform="translate(486, 24)">
        <circle cx="12" cy="12" r="10" fill="#ef4444"/>
        <text x="12" y="17" text-anchor="middle" fill="#fff" font-family="system-ui, sans-serif" font-size="14" font-weight="bold">!</text>
      </g>
      <!-- Inline error message -->
      <text x="0" y="75" fill="#ef4444" font-family="system-ui, sans-serif" font-size="14" font-weight="500">Please enter a valid email address</text>
    </g>
    <!-- Callout 2 -->
    <circle cx="920" cy="355" r="14" fill="#6d28d9"/>
    <text x="920" y="360" text-anchor="middle" fill="#fff" font-family="system-ui, sans-serif" font-size="14" font-weight="bold">2</text>

    <!-- Subject Field -->
    <g transform="translate(380, 310)">
      <text x="0" y="0" fill="#1a1a2e" font-family="system-ui, sans-serif" font-size="14" font-weight="600">Subject</text>
      <rect x="0" y="10" width="520" height="48" rx="6" fill="#fff" stroke="#d1d5db" stroke-width="1"/>
      <text x="16" y="42" fill="#9ca3af" font-family="system-ui, sans-serif" font-size="16">What's this about?</text>
    </g>

    <!-- Message Field [3] with character count -->
    <g transform="translate(380, 390)">
      <text x="0" y="0" fill="#1a1a2e" font-family="system-ui, sans-serif" font-size="14" font-weight="600">Message * (min 10 characters)</text>
      <rect x="0" y="10" width="520" height="100" rx="6" fill="#fff" stroke="#d1d5db" stroke-width="1"/>
      <text x="16" y="40" fill="#374151" font-family="system-ui, sans-serif" font-size="16">Hi there</text>
      <!-- Character count warning -->
      <text x="520" y="125" text-anchor="end" fill="#f59e0b" font-family="system-ui, sans-serif" font-size="14" font-weight="500">8/10 min</text>
    </g>
    <!-- Callout 3 -->
    <circle cx="920" cy="460" r="14" fill="#6d28d9"/>
    <text x="920" y="465" text-anchor="middle" fill="#fff" font-family="system-ui, sans-serif" font-size="14" font-weight="bold">3</text>

    <!-- Submit Button [4] -->
    <g transform="translate(380, 530)">
      <rect x="0" y="0" width="520" height="48" rx="6" fill="#3b82f6"/>
      <text x="260" y="31" text-anchor="middle" fill="#fff" font-family="system-ui, sans-serif" font-size="16" font-weight="600">Send Message</text>
    </g>
    <!-- Callout 4 -->
    <circle cx="920" cy="564" r="14" fill="#6d28d9"/>
    <text x="920" y="569" text-anchor="middle" fill="#fff" font-family="system-ui, sans-serif" font-size="14" font-weight="bold">4</text>
  </g>

  <!-- Desktop Footer -->
  <g transform="translate(40, 700)">
    <rect width="1280" height="80" rx="8" fill="#dcc8a8" stroke="#b8a080"/>
    <g transform="translate(20, 20)">
      <rect x="0" y="0" width="24" height="24" rx="4" fill="#8b5cf6"/>
      <text x="34" y="18" fill="#1a1a2e" font-family="system-ui, sans-serif" font-size="14" font-weight="bold">ScriptHammer</text>
      <text x="0" y="45" fill="#4b5563" font-family="system-ui, sans-serif" font-size="14">Product planning template</text>
    </g>
    <g transform="translate(450, 25)">
      <text x="0" y="0" fill="#374151" font-family="system-ui, sans-serif" font-size="14" font-weight="500">Features</text>
      <text x="80" y="0" fill="#374151" font-family="system-ui, sans-serif" font-size="14" font-weight="500">Documentation</text>
      <text x="200" y="0" fill="#374151" font-family="system-ui, sans-serif" font-size="14" font-weight="500">GitHub</text>
      <text x="270" y="0" fill="#374151" font-family="system-ui, sans-serif" font-size="14" font-weight="500">Privacy</text>
      <text x="330" y="0" fill="#374151" font-family="system-ui, sans-serif" font-size="14" font-weight="500">Terms</text>
      <text x="0" y="25" fill="#4b5563" font-family="system-ui, sans-serif" font-size="14">Built with Next.js 15, Supabase, and Tailwind CSS</text>
    </g>
    <g transform="translate(1100, 30)">
      <text x="0" y="0" fill="#4b5563" font-family="system-ui, sans-serif" font-size="14" text-anchor="start">© ScriptHammer 2026</text>
      <text x="0" y="20" fill="#4b5563" font-family="system-ui, sans-serif" font-size="14" text-anchor="start">MIT License</text>
    </g>
  </g>

  <!-- ==================== MOBILE VIEW (x=1360, y=60, 360x720) ==================== -->
  <text x="1360" y="52" fill="#d946ef" font-family="system-ui, sans-serif" font-size="15" font-weight="bold">MOBILE (360×720)</text>

  <!-- Mobile container -->
  <rect x="1360" y="60" width="360" height="720" rx="24" fill="#e8d4b8" stroke="#b8a080"/>

  <!-- Mobile Status Bar + Header -->
  <g transform="translate(1360, 60)">
    <!-- Status bar -->
    <rect width="360" height="28" rx="24" fill="#dcc8a8"/>
    <text x="20" y="18" fill="#374151" font-family="system-ui, sans-serif" font-size="14" font-weight="500">9:41</text>
    <g transform="translate(300, 8)">
      <rect width="16" height="10" rx="2" fill="none" stroke="#1a1a2e" stroke-width="1.5"/>
      <rect x="16" y="3" width="2" height="4" fill="#1a1a2e"/>
      <rect x="2" y="2" width="10" height="6" fill="#1a1a2e"/>
    </g>
    <!-- Header bar -->
    <g transform="translate(0, 28)">
      <rect width="360" height="50" fill="#dcc8a8" stroke="#b8a080"/>
      <rect x="3" y="3" width="44" height="44" rx="4" fill="#e8d4b8"/>
      <g transform="translate(15, 15)">
        <rect width="20" height="2" fill="#2d3748"/>
        <rect y="7" width="20" height="2" fill="#2d3748"/>
        <rect y="14" width="20" height="2" fill="#2d3748"/>
      </g>
      <rect x="55" y="13" width="24" height="24" rx="4" fill="#8b5cf6"/>
      <text x="85" y="30" fill="#374151" font-family="system-ui, sans-serif" font-size="14" font-weight="500">ScriptHammer</text>
      <g transform="translate(264, 3)">
        <rect x="0" y="0" width="44" height="44" rx="4" fill="#e8d4b8"/>
        <circle cx="22" cy="22" r="8" fill="none" stroke="#1a1a2e" stroke-width="2"/>
        <circle cx="70" cy="22" r="14" fill="#8b5cf6"/>
        <text x="70" y="27" text-anchor="middle" fill="#fff" font-family="system-ui, sans-serif" font-size="14">U</text>
      </g>
    </g>
  </g>

  <!-- Mobile Content -->
  <g transform="translate(1360, 138)">
    <!-- Page title -->
    <text x="180" y="30" text-anchor="middle" fill="#1a1a2e" font-family="system-ui, sans-serif" font-size="22" font-weight="bold">Contact Us</text>
    <text x="180" y="52" text-anchor="middle" fill="#4b5563" font-family="system-ui, sans-serif" font-size="14">Have a question?</text>

    <!-- Mobile Form (stacked, full-width) -->
    <!-- Name Field [5] -->
    <g transform="translate(16, 75)">
      <text x="0" y="0" fill="#1a1a2e" font-family="system-ui, sans-serif" font-size="14" font-weight="600">Name *</text>
      <rect x="0" y="10" width="328" height="48" rx="6" fill="#fff" stroke="#d1d5db" stroke-width="1"/>
      <text x="16" y="42" fill="#9ca3af" font-family="system-ui, sans-serif" font-size="16">Your name</text>
    </g>
    <!-- Callout 5 -->
    <circle cx="16" cy="122" r="14" fill="#6d28d9"/>
    <text x="16" y="127" text-anchor="middle" fill="#fff" font-family="system-ui, sans-serif" font-size="14" font-weight="bold">5</text>

    <!-- Email Field -->
    <g transform="translate(16, 150)">
      <text x="0" y="0" fill="#1a1a2e" font-family="system-ui, sans-serif" font-size="14" font-weight="600">Email *</text>
      <rect x="0" y="10" width="328" height="48" rx="6" fill="#fff" stroke="#d1d5db" stroke-width="1"/>
      <text x="16" y="42" fill="#9ca3af" font-family="system-ui, sans-serif" font-size="16">your@email.com</text>
    </g>

    <!-- Subject Field -->
    <g transform="translate(16, 225)">
      <text x="0" y="0" fill="#1a1a2e" font-family="system-ui, sans-serif" font-size="14" font-weight="600">Subject</text>
      <rect x="0" y="10" width="328" height="48" rx="6" fill="#fff" stroke="#d1d5db" stroke-width="1"/>
      <text x="16" y="42" fill="#9ca3af" font-family="system-ui, sans-serif" font-size="16">Optional subject</text>
    </g>

    <!-- Message Field [6] -->
    <g transform="translate(16, 300)">
      <text x="0" y="0" fill="#1a1a2e" font-family="system-ui, sans-serif" font-size="14" font-weight="600">Message *</text>
      <rect x="0" y="10" width="328" height="120" rx="6" fill="#fff" stroke="#d1d5db" stroke-width="1"/>
      <text x="16" y="40" fill="#9ca3af" font-family="system-ui, sans-serif" font-size="16">Your message (min 10 chars)</text>
      <text x="328" y="145" text-anchor="end" fill="#6b7280" font-family="system-ui, sans-serif" font-size="14">0/10 min</text>
    </g>
    <!-- Callout 6 -->
    <circle cx="16" cy="385" r="14" fill="#6d28d9"/>
    <text x="16" y="390" text-anchor="middle" fill="#fff" font-family="system-ui, sans-serif" font-size="14" font-weight="bold">6</text>

    <!-- Submit Button -->
    <g transform="translate(16, 450)">
      <rect x="0" y="0" width="328" height="48" rx="6" fill="#3b82f6"/>
      <text x="164" y="31" text-anchor="middle" fill="#fff" font-family="system-ui, sans-serif" font-size="16" font-weight="600">Send Message</text>
    </g>
  </g>

  <!-- Mobile Bottom Nav -->
  <g transform="translate(1360, 724)">
    <rect width="360" height="56" rx="8" fill="#dcc8a8" stroke="#b8a080"/>
    <g transform="translate(0, 0)">
      <rect width="90" height="56" rx="8" fill="#e8d4b8"/>
      <g transform="translate(33, 8)">
        <path fill="#1a1a2e" d="M12 3L4 9v12h5v-7h6v7h5V9L12 3z"/>
      </g>
      <text x="45" y="44" text-anchor="middle" fill="#4b5563" font-family="system-ui, sans-serif" font-size="14">Home</text>
    </g>
    <g transform="translate(90, 0)">
      <rect width="90" height="56" fill="#e8d4b8"/>
      <g transform="translate(33, 8)">
        <path fill="#1a1a2e" d="M13 3L4 14h7v7h4v-7h7L13 3z"/>
      </g>
      <text x="45" y="44" text-anchor="middle" fill="#4b5563" font-family="system-ui, sans-serif" font-size="14">Features</text>
    </g>
    <g transform="translate(180, 0)">
      <rect width="90" height="56" fill="#e8d4b8"/>
      <g transform="translate(33, 8)">
        <path fill="#1a1a2e" d="M6 2a2 2 0 00-2 2v16a2 2 0 002 2h12a2 2 0 002-2V8l-6-6H6zm7 1.5L18.5 9H13V3.5z"/>
      </g>
      <text x="45" y="44" text-anchor="middle" fill="#4b5563" font-family="system-ui, sans-serif" font-size="14">Docs</text>
    </g>
    <g transform="translate(270, 0)">
      <rect width="90" height="56" rx="8" fill="#e8d4b8"/>
      <g transform="translate(33, 8)">
        <circle cx="12" cy="8" r="4" fill="#1a1a2e"/>
        <path fill="#1a1a2e" d="M12 14c-4 0-8 2-8 4v2h16v-2c0-2-4-4-8-4z"/>
      </g>
      <text x="45" y="44" text-anchor="middle" fill="#4b5563" font-family="system-ui, sans-serif" font-size="14">Account</text>
    </g>
  </g>

  <!-- ==================== ANNOTATION PANEL (x=40, y=800, 1840x220) ==================== -->
  <rect id="annotations" x="40" y="800" width="1840" height="220" rx="8" fill="#f5ebe0" stroke="#d4c4a8"/>

  <!-- Annotation Title -->
  <text x="60" y="830" fill="#1a1a2e" font-family="system-ui, sans-serif" font-size="16" font-weight="bold">Annotations: Contact Form UI</text>

  <!-- Column 1 -->
  <g transform="translate(60, 850)">
    <g>
      <circle cx="12" cy="12" r="14" fill="#6d28d9"/>
      <text x="12" y="17" text-anchor="middle" fill="#fff" font-family="system-ui, sans-serif" font-size="14" font-weight="bold">1</text>
      <text x="36" y="17" fill="#2d3748" font-family="system-ui, sans-serif" font-size="14" font-weight="600">Name Field</text>
    </g>
    <text x="36" y="38" fill="#4b5563" font-family="system-ui, sans-serif" font-size="14">Required field with min 2 char validation.</text>
    <text x="36" y="55" fill="#4b5563" font-family="system-ui, sans-serif" font-size="14">Visible focus ring for a11y compliance.</text>

    <g transform="translate(0, 70)">
      <circle cx="12" cy="12" r="14" fill="#6d28d9"/>
      <text x="12" y="17" text-anchor="middle" fill="#fff" font-family="system-ui, sans-serif" font-size="14" font-weight="bold">2</text>
      <text x="36" y="17" fill="#2d3748" font-family="system-ui, sans-serif" font-size="14" font-weight="600">Email Field (Error State)</text>
    </g>
    <text x="36" y="108" fill="#4b5563" font-family="system-ui, sans-serif" font-size="14">Red border + icon indicates validation error.</text>
    <text x="36" y="125" fill="#4b5563" font-family="system-ui, sans-serif" font-size="14">Inline error message below field.</text>
  </g>

  <!-- Column 2 -->
  <g transform="translate(460, 850)">
    <g>
      <circle cx="12" cy="12" r="14" fill="#6d28d9"/>
      <text x="12" y="17" text-anchor="middle" fill="#fff" font-family="system-ui, sans-serif" font-size="14" font-weight="bold">3</text>
      <text x="36" y="17" fill="#2d3748" font-family="system-ui, sans-serif" font-size="14" font-weight="600">Message Field</text>
    </g>
    <text x="36" y="38" fill="#4b5563" font-family="system-ui, sans-serif" font-size="14">Textarea with min 10 character requirement.</text>
    <text x="36" y="55" fill="#4b5563" font-family="system-ui, sans-serif" font-size="14">Live character counter shows progress.</text>

    <g transform="translate(0, 70)">
      <circle cx="12" cy="12" r="14" fill="#6d28d9"/>
      <text x="12" y="17" text-anchor="middle" fill="#fff" font-family="system-ui, sans-serif" font-size="14" font-weight="bold">4</text>
      <text x="36" y="17" fill="#2d3748" font-family="system-ui, sans-serif" font-size="14" font-weight="600">Submit Button</text>
    </g>
    <text x="36" y="108" fill="#4b5563" font-family="system-ui, sans-serif" font-size="14">Primary action button, full-width on mobile.</text>
    <text x="36" y="125" fill="#4b5563" font-family="system-ui, sans-serif" font-size="14">48px height meets touch target requirements.</text>
  </g>

  <!-- Column 3 -->
  <g transform="translate(860, 850)">
    <g>
      <circle cx="12" cy="12" r="14" fill="#6d28d9"/>
      <text x="12" y="17" text-anchor="middle" fill="#fff" font-family="system-ui, sans-serif" font-size="14" font-weight="bold">5</text>
      <text x="36" y="17" fill="#2d3748" font-family="system-ui, sans-serif" font-size="14" font-weight="600">Mobile Form Layout</text>
    </g>
    <text x="36" y="38" fill="#4b5563" font-family="system-ui, sans-serif" font-size="14">Stacked single-column layout for mobile.</text>
    <text x="36" y="55" fill="#4b5563" font-family="system-ui, sans-serif" font-size="14">Full-width inputs (328px with 16px margins).</text>

    <g transform="translate(0, 70)">
      <circle cx="12" cy="12" r="14" fill="#6d28d9"/>
      <text x="12" y="17" text-anchor="middle" fill="#fff" font-family="system-ui, sans-serif" font-size="14" font-weight="bold">6</text>
      <text x="36" y="17" fill="#2d3748" font-family="system-ui, sans-serif" font-size="14" font-weight="600">Mobile Message Field</text>
    </g>
    <text x="36" y="108" fill="#4b5563" font-family="system-ui, sans-serif" font-size="14">Taller textarea (120px) for message input.</text>
    <text x="36" y="125" fill="#4b5563" font-family="system-ui, sans-serif" font-size="14">Character counter in bottom-right corner.</text>
  </g>

  <!-- Column 4 - Requirements -->
  <g transform="translate(1260, 850)">
    <text x="0" y="17" fill="#2d3748" font-family="system-ui, sans-serif" font-size="14" font-weight="600">Requirements Covered</text>
    <text x="0" y="42" fill="#4b5563" font-family="system-ui, sans-serif" font-size="14">FR-001: Web3Forms API integration</text>
    <text x="0" y="59" fill="#4b5563" font-family="system-ui, sans-serif" font-size="14">FR-006/007/008: Name, email, message</text>
    <text x="0" y="76" fill="#4b5563" font-family="system-ui, sans-serif" font-size="14">FR-009/010: Inline validation errors</text>
    <text x="0" y="93" fill="#4b5563" font-family="system-ui, sans-serif" font-size="14">FR-020: Proper labels for all fields</text>
    <text x="0" y="110" fill="#4b5563" font-family="system-ui, sans-serif" font-size="14">FR-021: Focus indicators visible</text>
  </g>

  <!-- Key Concepts Row -->
  <g transform="translate(60, 940)">
    <text x="0" y="17" fill="#2d3748" font-family="system-ui, sans-serif" font-size="14" font-weight="600">Key Concepts:</text>
    <text x="110" y="17" fill="#4b5563" font-family="system-ui, sans-serif" font-size="14">Web3Forms serverless API • Inline validation • WCAG AA 4.5:1 contrast • 44px touch targets • aria-invalid/describedby</text>
  </g>

  <!-- Signature (LEFT-ALIGNED at x=40, 18px bold) -->
  <text x="40" y="1060" font-family="system-ui, sans-serif" font-size="18" font-weight="bold" fill="#374151">022:01 | Web3Forms Integration | ScriptHammer</text>
</svg>
