<svg xmlns="http://www.w3.org/2000/svg" viewBox="0 0 1400 800" width="1400" height="800">
  <!-- ============================================================
       GENERATED BY: /wireframe skill
       SOURCE: features/integrations/022-web3forms-integration/spec.md
       DATE: 2026-01-01
       THEME: Light (UX/Frontend) - v3 True Parchment
       DO NOT MANUALLY EDIT - Regenerate with /wireframe command
       ============================================================ -->
  <defs>
    <linearGradient id="bgGrad" x1="0%" y1="0%" x2="100%" y2="100%">
      <stop offset="0%" style="stop-color:#c7ddf5"/>
      <stop offset="100%" style="stop-color:#b8d4f0"/>
    </linearGradient>
    <linearGradient id="accentGrad" x1="0%" y1="0%" x2="100%" y2="0%">
      <stop offset="0%" style="stop-color:#8b5cf6"/>
      <stop offset="100%" style="stop-color:#d946ef"/>
    </linearGradient>
    <style>
      .heading-lg { fill: #1a1a2e; font-family: system-ui, sans-serif; font-size: 24px; font-weight: 800; }
      .heading { fill: #1a1a2e; font-family: system-ui, sans-serif; font-size: 16px; font-weight: 700; }
      .text-md { fill: #2d3748; font-family: system-ui, sans-serif; font-size: 14px; font-weight: 500; }
      .text-sm { fill: #4a5568; font-family: system-ui, sans-serif; font-size: 12px; font-weight: 500; }
      .text-muted { fill: #5a6577; font-family: system-ui, sans-serif; font-size: 11px; font-weight: 500; }
      .annotation { fill: #8b5cf6; font-family: monospace; font-size: 12px; font-weight: 600; }
      .label-section { fill: #8b5cf6; font-family: monospace; font-size: 13px; font-weight: bold; }
    </style>
  </defs>

  <!-- Background -->
  <rect width="1400" height="800" fill="url(#bgGrad)"/>

  <!-- Dot grid pattern -->
  <g opacity="0.35">
    <pattern id="dots" width="30" height="30" patternUnits="userSpaceOnUse">
      <circle cx="15" cy="15" r="1" fill="#6b8cba"/>
    </pattern>
    <rect width="1400" height="800" fill="url(#dots)"/>
  </g>

  <!-- Accent line top -->
  <rect x="0" y="0" width="1400" height="3" fill="url(#accentGrad)"/>

  <!-- Title -->
  <text x="700" y="28" text-anchor="middle" font-family="system-ui, sans-serif" font-size="14" font-weight="600" fill="#5a6577" letter-spacing="1">WEB3FORMS INTEGRATION — SUBMISSION STATES</text>

  <!-- STATE 1: SUBMITTING (Loading) -->
  <text x="60" y="60" class="label-section">STATE 1: SUBMITTING</text>
  <rect x="40" y="70" width="310" height="340" rx="12" fill="#e8d4b8" stroke="#b8a080" stroke-width="1"/>

  <!-- Form preview (blurred/disabled look) -->
  <rect x="55" y="85" width="280" height="30" rx="4" fill="#dcc8a8" opacity="0.6"/>
  <rect x="55" y="125" width="280" height="30" rx="4" fill="#dcc8a8" opacity="0.6"/>
  <rect x="55" y="165" width="280" height="30" rx="4" fill="#dcc8a8" opacity="0.6"/>
  <rect x="55" y="205" width="280" height="80" rx="4" fill="#dcc8a8" opacity="0.6"/>

  <!-- Loading overlay -->
  <rect x="55" y="295" width="280" height="100" rx="8" fill="#f5f0e6" stroke="#b8a080" stroke-width="1"/>

  <!-- Spinner -->
  <circle cx="195" cy="330" r="20" fill="none" stroke="#e8d4b8" stroke-width="4"/>
  <path d="M195 310 A20 20 0 0 1 215 330" stroke="#8b5cf6" stroke-width="4" fill="none" stroke-linecap="round"/>

  <text x="195" y="365" text-anchor="middle" class="text-md" fill="#8b5cf6" font-weight="600">Sending your message...</text>
  <text x="195" y="385" text-anchor="middle" class="text-muted">Please wait</text>

  <!-- Disabled button -->
  <rect x="55" y="85" width="280" height="310" rx="8" fill="rgba(255,255,255,0.4)"/>

  <!-- FR reference -->
  <text x="195" y="400" text-anchor="middle" class="annotation">FR-014: Loading indicator</text>

  <!-- STATE 2: SUCCESS -->
  <text x="390" y="60" class="label-section">STATE 2: SUCCESS</text>
  <rect x="370" y="70" width="310" height="340" rx="12" fill="#e8d4b8" stroke="#b8a080" stroke-width="1"/>

  <!-- Success card -->
  <rect x="385" y="100" width="280" height="280" rx="8" fill="#dcfce7" stroke="#22c55e" stroke-width="2"/>

  <!-- Big checkmark -->
  <circle cx="525" cy="180" r="40" fill="#22c55e"/>
  <path d="M505 180 L520 195 L545 165" stroke="#fff" stroke-width="6" fill="none" stroke-linecap="round" stroke-linejoin="round"/>

  <text x="525" y="245" text-anchor="middle" class="heading-lg" fill="#166534">Message Sent!</text>
  <text x="525" y="275" text-anchor="middle" class="text-md" fill="#166534">Thank you for contacting us.</text>
  <text x="525" y="295" text-anchor="middle" class="text-sm" fill="#166534">We'll get back to you within 24 hours.</text>

  <!-- Send another button -->
  <rect x="425" y="320" width="200" height="44" rx="8" fill="#22c55e"/>
  <text x="525" y="348" text-anchor="middle" fill="#fff" font-family="system-ui" font-size="14" font-weight="600">Send Another Message</text>

  <!-- FR reference -->
  <text x="525" y="400" text-anchor="middle" class="annotation">FR-003: Success confirmation</text>

  <!-- STATE 3: ERROR -->
  <text x="720" y="60" class="label-section">STATE 3: ERROR</text>
  <rect x="700" y="70" width="310" height="340" rx="12" fill="#e8d4b8" stroke="#b8a080" stroke-width="1"/>

  <!-- Error card -->
  <rect x="715" y="100" width="280" height="280" rx="8" fill="#fee2e2" stroke="#ef4444" stroke-width="2"/>

  <!-- Error icon -->
  <circle cx="855" cy="175" r="35" fill="#ef4444"/>
  <text x="855" y="190" text-anchor="middle" fill="#fff" font-family="system-ui" font-size="40" font-weight="bold">!</text>

  <text x="855" y="235" text-anchor="middle" class="heading" fill="#991b1b">Something went wrong</text>
  <text x="855" y="260" text-anchor="middle" class="text-sm" fill="#991b1b">We couldn't send your message.</text>
  <text x="855" y="280" text-anchor="middle" class="text-sm" fill="#991b1b">Please check your connection and try again.</text>

  <!-- Retry button -->
  <rect x="755" y="300" width="200" height="44" rx="8" fill="#ef4444"/>
  <text x="855" y="328" text-anchor="middle" fill="#fff" font-family="system-ui" font-size="14" font-weight="600">Try Again</text>

  <!-- Queue for later link -->
  <text x="855" y="365" text-anchor="middle" class="text-sm" fill="#8b5cf6">Save for later →</text>

  <!-- FR reference -->
  <text x="855" y="400" text-anchor="middle" class="annotation">FR-004/015/016</text>

  <!-- STATE 4: OFFLINE QUEUED -->
  <text x="1050" y="60" class="label-section">STATE 4: OFFLINE QUEUED</text>
  <rect x="1030" y="70" width="310" height="340" rx="12" fill="#e8d4b8" stroke="#b8a080" stroke-width="1"/>

  <!-- Offline banner -->
  <rect x="1045" y="85" width="280" height="36" rx="6" fill="#fef3c7" stroke="#f59e0b" stroke-width="1"/>
  <circle cx="1065" cy="103" r="8" fill="none" stroke="#f59e0b" stroke-width="2"/>
  <line x1="1061" y1="99" x2="1069" y2="107" stroke="#f59e0b" stroke-width="2"/>
  <text x="1080" y="108" class="text-sm" fill="#92400e" font-weight="500">You're offline</text>

  <!-- Queued confirmation -->
  <rect x="1045" y="135" width="280" height="230" rx="8" fill="#e0f2fe" stroke="#0ea5e9" stroke-width="2"/>

  <!-- Queue icon -->
  <circle cx="1185" cy="195" r="30" fill="#0ea5e9"/>
  <rect x="1170" y="185" width="30" height="6" rx="3" fill="#fff"/>
  <rect x="1170" y="195" width="20" height="6" rx="3" fill="#fff"/>
  <rect x="1170" y="205" width="25" height="6" rx="3" fill="#fff"/>

  <text x="1185" y="250" text-anchor="middle" class="heading" fill="#0369a1">Message Saved!</text>
  <text x="1185" y="275" text-anchor="middle" class="text-sm" fill="#0369a1">Your message has been queued.</text>
  <text x="1185" y="295" text-anchor="middle" class="text-sm" fill="#0369a1">It will be sent automatically when</text>
  <text x="1185" y="315" text-anchor="middle" class="text-sm" fill="#0369a1">you're back online.</text>

  <!-- Pending count badge -->
  <rect x="1115" y="335" width="140" height="24" rx="12" fill="#0ea5e9"/>
  <text x="1185" y="352" text-anchor="middle" fill="#fff" font-family="system-ui" font-size="12" font-weight="600">1 message pending</text>

  <!-- FR reference -->
  <text x="1185" y="400" text-anchor="middle" class="annotation">FR-017/018/019</text>

  <!-- MOBILE TOAST NOTIFICATIONS -->
  <text x="60" y="440" class="label-section">MOBILE TOAST NOTIFICATIONS</text>

  <!-- Phone 1: Submitting -->
  <rect x="40" y="455" width="160" height="320" rx="16" fill="#c8b898" stroke="#a08860" stroke-width="2"/>
  <rect x="48" y="463" width="144" height="304" rx="12" fill="#e8d4b8"/>
  <rect x="48" y="463" width="144" height="20" rx="12" fill="#dcc8a8"/>
  <text x="58" y="477" class="text-muted" font-size="9">9:41</text>

  <!-- Submitting toast -->
  <rect x="55" y="700" width="130" height="50" rx="8" fill="#8b5cf6"/>
  <circle cx="75" cy="725" r="8" fill="none" stroke="#fff" stroke-width="2" stroke-dasharray="12,6"/>
  <text x="90" y="720" fill="#fff" font-size="10" font-weight="600">Sending...</text>
  <text x="90" y="735" fill="#c4b5fd" font-size="8">Please wait</text>

  <text x="120" y="790" text-anchor="middle" class="text-muted">SUBMITTING</text>

  <!-- Phone 2: Success -->
  <rect x="220" y="455" width="160" height="320" rx="16" fill="#c8b898" stroke="#a08860" stroke-width="2"/>
  <rect x="228" y="463" width="144" height="304" rx="12" fill="#e8d4b8"/>
  <rect x="228" y="463" width="144" height="20" rx="12" fill="#dcc8a8"/>
  <text x="238" y="477" class="text-muted" font-size="9">9:41</text>

  <!-- Success toast -->
  <rect x="235" y="700" width="130" height="50" rx="8" fill="#22c55e"/>
  <circle cx="255" cy="725" r="10" fill="#fff"/>
  <text x="255" y="730" text-anchor="middle" fill="#22c55e" font-size="12" font-weight="bold">✓</text>
  <text x="270" y="720" fill="#fff" font-size="10" font-weight="600">Sent!</text>
  <text x="270" y="735" fill="#dcfce7" font-size="8">We'll reply soon</text>

  <text x="300" y="790" text-anchor="middle" class="text-muted">SUCCESS</text>

  <!-- Phone 3: Error -->
  <rect x="400" y="455" width="160" height="320" rx="16" fill="#c8b898" stroke="#a08860" stroke-width="2"/>
  <rect x="408" y="463" width="144" height="304" rx="12" fill="#e8d4b8"/>
  <rect x="408" y="463" width="144" height="20" rx="12" fill="#dcc8a8"/>
  <text x="418" y="477" class="text-muted" font-size="9">9:41</text>

  <!-- Error toast -->
  <rect x="415" y="690" width="130" height="60" rx="8" fill="#ef4444"/>
  <circle cx="435" cy="720" r="10" fill="#fff"/>
  <text x="435" y="725" text-anchor="middle" fill="#ef4444" font-size="12" font-weight="bold">!</text>
  <text x="450" y="712" fill="#fff" font-size="10" font-weight="600">Failed to send</text>
  <text x="450" y="726" fill="#fecaca" font-size="8">Check connection</text>
  <rect x="450" y="734" width="50" height="14" rx="4" fill="#fff"/>
  <text x="475" y="745" text-anchor="middle" fill="#ef4444" font-size="8" font-weight="600">Retry</text>

  <text x="480" y="790" text-anchor="middle" class="text-muted">ERROR</text>

  <!-- Phone 4: Offline -->
  <rect x="580" y="455" width="160" height="320" rx="16" fill="#c8b898" stroke="#a08860" stroke-width="2"/>
  <rect x="588" y="463" width="144" height="304" rx="12" fill="#e8d4b8"/>
  <rect x="588" y="463" width="144" height="20" rx="12" fill="#dcc8a8"/>
  <text x="598" y="477" class="text-muted" font-size="9">9:41</text>

  <!-- Offline queued toast -->
  <rect x="595" y="700" width="130" height="50" rx="8" fill="#0ea5e9"/>
  <circle cx="615" cy="725" r="10" fill="#fff"/>
  <rect x="610" y="722" width="10" height="3" rx="1" fill="#0ea5e9"/>
  <rect x="610" y="727" width="8" height="3" rx="1" fill="#0ea5e9"/>
  <text x="630" y="720" fill="#fff" font-size="10" font-weight="600">Saved</text>
  <text x="630" y="735" fill="#bae6fd" font-size="8">Will send when online</text>

  <text x="660" y="790" text-anchor="middle" class="text-muted">QUEUED</text>

  <!-- ACCESSIBILITY STATES -->
  <text x="780" y="440" class="label-section">ACCESSIBILITY — SCREEN READER ANNOUNCEMENTS</text>

  <rect x="760" y="455" width="600" height="130" rx="8" fill="#f5f0e6" stroke="#b8a080" stroke-width="1"/>

  <!-- Loading announcement -->
  <rect x="780" y="475" width="270" height="45" rx="6" fill="#e8d4b8"/>
  <text x="790" y="495" class="text-sm" font-weight="600">aria-live="polite"</text>
  <text x="790" y="512" class="text-muted">"Sending your message, please wait."</text>

  <!-- Success announcement -->
  <rect x="780" y="530" width="270" height="45" rx="6" fill="#dcfce7"/>
  <text x="790" y="550" class="text-sm" font-weight="600">aria-live="assertive"</text>
  <text x="790" y="567" class="text-muted">"Message sent successfully."</text>

  <!-- Error announcement -->
  <rect x="1070" y="475" width="270" height="45" rx="6" fill="#fee2e2"/>
  <text x="1080" y="495" class="text-sm" font-weight="600">aria-live="assertive"</text>
  <text x="1080" y="512" class="text-muted">"Error: Failed to send. Try again."</text>

  <!-- Offline announcement -->
  <rect x="1070" y="530" width="270" height="45" rx="6" fill="#e0f2fe"/>
  <text x="1080" y="550" class="text-sm" font-weight="600">aria-live="polite"</text>
  <text x="1080" y="567" class="text-muted">"Offline. Message queued for delivery."</text>

  <!-- FR reference -->
  <text x="1060" y="600" text-anchor="middle" class="annotation">FR-022: Screen reader announcements</text>

  <!-- DUPLICATE PREVENTION -->
  <text x="780" y="630" class="label-section">DUPLICATE PREVENTION (FR-005)</text>

  <rect x="760" y="645" width="600" height="130" rx="8" fill="#f5f0e6" stroke="#b8a080" stroke-width="1"/>

  <!-- Before submit -->
  <rect x="780" y="665" width="180" height="90" rx="6" fill="#e8d4b8"/>
  <rect x="795" y="685" width="150" height="36" rx="6" fill="#8b5cf6"/>
  <text x="870" y="708" text-anchor="middle" fill="#fff" font-size="12" font-weight="600">Send Message</text>
  <text x="870" y="745" text-anchor="middle" class="text-muted">Enabled</text>

  <!-- Arrow -->
  <text x="980" y="720" text-anchor="middle" class="text-md">→</text>

  <!-- During submit -->
  <rect x="1000" y="665" width="180" height="90" rx="6" fill="#e8d4b8"/>
  <rect x="1015" y="685" width="150" height="36" rx="6" fill="#9ca3af"/>
  <circle cx="1060" cy="703" r="8" fill="none" stroke="#fff" stroke-width="2" stroke-dasharray="12,6"/>
  <text x="1090" y="708" fill="#fff" font-size="12" font-weight="600">Sending...</text>
  <text x="1090" y="745" text-anchor="middle" class="text-muted">Disabled + Spinner</text>

  <!-- Arrow -->
  <text x="1200" y="720" text-anchor="middle" class="text-md">→</text>

  <!-- After submit -->
  <rect x="1220" y="665" width="120" height="90" rx="6" fill="#dcfce7"/>
  <circle cx="1280" cy="710" r="20" fill="#22c55e"/>
  <text x="1280" y="716" text-anchor="middle" fill="#fff" font-size="14" font-weight="bold">✓</text>
  <text x="1280" y="745" text-anchor="middle" class="text-muted">Complete</text>
</svg>
