<svg xmlns="http://www.w3.org/2000/svg" viewBox="0 0 1920 1080" width="1920" height="1920">
  <!-- 022-web3forms-integration: 02-submission-states.svg
       Form submission feedback states: Loading, Success, Error, Offline Queue
       Desktop (1280x720) and Mobile (360x720) views -->

  <!-- Background gradient -->
  <defs>
    <linearGradient id="bgGrad" x1="0%" y1="0%" x2="100%" y2="100%">
      <stop offset="0%" style="stop-color:#c7ddf5"/>
      <stop offset="100%" style="stop-color:#b8d4f0"/>
    </linearGradient>
  </defs>
  <rect width="1920" height="1080" fill="url(#bgGrad)"/>

  <!-- Title -->
  <text x="960" y="28" text-anchor="middle" fill="#1a1a2e" font-family="system-ui, sans-serif" font-size="20px" font-weight="700">022-web3forms-integration: Submission States</text>

  <!-- ==================== DESKTOP VIEW (x=40, y=60, 1280x720) ==================== -->
  <text x="40" y="52" fill="#8b5cf6" font-family="system-ui, sans-serif" font-size="15px" font-weight="bold">DESKTOP (1280×720)</text>

  <!-- Desktop container -->
  <rect x="40" y="60" width="1280" height="720" rx="8" fill="#e8d4b8" stroke="#b8a080"/>

  <!-- Desktop Header -->
  <g transform="translate(40, 60)">
    <path d="M 8 0 L 1272 0 A 8 8 0 0 1 1280 8 L 1280 50 L 0 50 L 0 8 A 8 8 0 0 1 8 0 Z" fill="#dcc8a8" stroke="#b8a080"/>
    <rect x="15" y="10" width="30" height="30" rx="4" fill="#8b5cf6"/>
    <text x="55" y="32" fill="#1a1a2e" font-family="system-ui, sans-serif" font-size="16px" font-weight="700">ScriptHammer</text>
    <g transform="translate(400, 3)">
      <g><rect x="0" width="70" height="44" rx="4" fill="transparent"/><text x="35" y="28" text-anchor="middle" fill="#374151" font-family="system-ui, sans-serif" font-size="14px" font-weight="500">Home</text></g>
      <g><rect x="80" width="90" height="44" rx="4" fill="transparent"/><text x="125" y="28" text-anchor="middle" fill="#374151" font-family="system-ui, sans-serif" font-size="14px" font-weight="500">Features</text></g>
      <g><rect x="180" width="70" height="44" rx="4" fill="transparent"/><text x="215" y="28" text-anchor="middle" fill="#374151" font-family="system-ui, sans-serif" font-size="14px" font-weight="500">Docs</text></g>
      <g><rect x="260" width="80" height="44" rx="4" fill="#8b5cf6" opacity="0.2"/><text x="300" y="28" text-anchor="middle" fill="#8b5cf6" font-family="system-ui, sans-serif" font-size="14px" font-weight="700">Contact</text></g>
    </g>
    <g transform="translate(1100, 3)">
      <rect x="0" y="0" width="44" height="44" rx="4" fill="transparent"/>
      <g transform="translate(10, 10)"><path fill="#1a1a2e" d="M12 15a3 3 0 1 0 0-6 3 3 0 0 0 0 6Z"/><path fill="#1a1a2e" fill-rule="evenodd" clip-rule="evenodd" d="M1.323 11.447C2.811 6.976 7.028 3.75 12.001 3.75c4.97 0 9.185 3.223 10.675 7.69.12.362.12.752 0 1.113-1.487 4.471-5.705 7.697-10.677 7.697-4.97 0-9.186-3.223-10.675-7.69a1.762 1.762 0 0 1 0-1.113ZM17.25 12a5.25 5.25 0 1 1-10.5 0 5.25 5.25 0 0 1 10.5 0Z"/></g>
      <rect x="54" y="0" width="44" height="44" rx="4" fill="transparent"/>
      <g transform="translate(64, 10)"><path fill="#1a1a2e" fill-rule="evenodd" clip-rule="evenodd" d="M11.0779 2.25C10.1613 2.25 9.37909 2.91265 9.22841 3.81675L9.04974 4.88873C9.02959 5.00964 8.93542 5.1498 8.75311 5.23747C8.40905 5.40292 8.07967 5.5938 7.7674 5.8076C7.60091 5.92159 7.43259 5.9332 7.31769 5.89015L6.29851 5.50833C5.44019 5.18678 4.4752 5.53289 4.01692 6.32666L3.09493 7.92358C2.63665 8.71736 2.8194 9.72611 3.52704 10.3087L4.36756 11.0006C4.46219 11.0785 4.53629 11.2298 4.52119 11.4307C4.50706 11.6188 4.49988 11.8086 4.49988 12C4.49988 12.1915 4.50707 12.3814 4.52121 12.5695C4.53632 12.7704 4.46221 12.9217 4.36758 12.9996L3.52704 13.6916C2.8194 14.2741 2.63665 15.2829 3.09493 16.0767L4.01692 17.6736C4.4752 18.4674 5.44019 18.8135 6.29851 18.4919L7.31791 18.11C7.43281 18.067 7.60113 18.0786 7.76761 18.1925C8.07982 18.4063 8.40913 18.5971 8.75311 18.7625C8.93542 18.8502 9.02959 18.9904 9.04974 19.1113L9.22841 20.1832C9.37909 21.0874 10.1613 21.75 11.0779 21.75H12.9219C13.8384 21.75 14.6207 21.0874 14.7713 20.1832L14.95 19.1113C14.9702 18.9904 15.0643 18.8502 15.2466 18.7625C15.5907 18.5971 15.9201 18.4062 16.2324 18.1924C16.3988 18.0784 16.5672 18.0668 16.6821 18.1098L17.7012 18.4917C18.5596 18.8132 19.5246 18.4671 19.9828 17.6733L20.9048 16.0764C21.3631 15.2826 21.1804 14.2739 20.4727 13.6913L19.6322 12.9994C19.5376 12.9215 19.4635 12.7702 19.4786 12.5693C19.4927 12.3812 19.4999 12.1914 19.4999 12C19.4999 11.8085 19.4927 11.6186 19.4785 11.4305C19.4634 11.2296 19.5375 11.0783 19.6322 11.0004L20.4727 10.3084C21.1804 9.72587 21.3631 8.71711 20.9048 7.92334L19.9828 6.32642C19.5246 5.53264 18.5596 5.18654 17.7012 5.50809L16.6818 5.89C16.5669 5.93304 16.3986 5.92144 16.2321 5.80746C15.9199 5.59371 15.5906 5.40289 15.2466 5.23747C15.0643 5.1498 14.9702 5.00964 14.95 4.88873L14.7713 3.81675C14.6207 2.91265 13.8384 2.25 12.9219 2.25H11.0779ZM12 15.75C14.0711 15.75 15.75 14.0711 15.75 12C15.75 9.92893 14.0711 8.25 12 8.25C9.92893 8.25 8.25 9.92893 8.25 12C8.25 14.0711 9.92893 15.75 12 15.75Z"/></g>
      <circle cx="130" cy="22" r="16" fill="#8b5cf6"/>
      <text x="130" y="27" text-anchor="middle" fill="#fff" font-family="system-ui, sans-serif" font-size="14px">U</text>
    </g>
  </g>

  <!-- Desktop Content - 4 State Cards -->
  <g transform="translate(40, 110)">
    <!-- Section Title -->
    <text x="640" y="35" text-anchor="middle" fill="#1a1a2e" font-family="system-ui, sans-serif" font-size="24px" font-weight="800">Form Submission States</text>
    <text x="640" y="60" text-anchor="middle" fill="#4b5563" font-family="system-ui, sans-serif" font-size="14px">User feedback during and after form submission</text>

    <!-- STATE 1: Loading [1] -->
    <g transform="translate(40, 90)">
      <rect x="0" y="0" width="280" height="280" rx="8" fill="#f5ebe0" stroke="#d4c4a8"/>
      <text x="140" y="30" text-anchor="middle" fill="#1a1a2e" font-family="system-ui, sans-serif" font-size="16px" font-weight="700">1. Loading State</text>

      <!-- Form preview -->
      <rect x="20" y="50" width="240" height="30" rx="4" fill="#fff" stroke="#d1d5db"/>
      <text x="30" y="70" fill="#374151" font-family="system-ui, sans-serif" font-size="12px">John Doe</text>

      <rect x="20" y="90" width="240" height="30" rx="4" fill="#fff" stroke="#d1d5db"/>
      <text x="30" y="110" fill="#374151" font-family="system-ui, sans-serif" font-size="12px">john@example.com</text>

      <rect x="20" y="130" width="240" height="50" rx="4" fill="#fff" stroke="#d1d5db"/>
      <text x="30" y="155" fill="#374151" font-family="system-ui, sans-serif" font-size="12px">Hello, I have a question...</text>

      <!-- Disabled submit button with spinner -->
      <rect x="20" y="195" width="240" height="44" rx="6" fill="#93c5fd" opacity="0.7"/>
      <!-- Spinner icon -->
      <g transform="translate(90, 207)">
        <circle cx="10" cy="10" r="8" fill="none" stroke="#fff" stroke-width="2" stroke-dasharray="25 15" opacity="0.8"/>
      </g>
      <text x="140" y="223" text-anchor="middle" fill="#fff" font-family="system-ui, sans-serif" font-size="14px" font-weight="600">Sending...</text>

      <text x="140" y="265" text-anchor="middle" fill="#6b7280" font-family="system-ui, sans-serif" font-size="11px">Button disabled, spinner visible</text>
    </g>
    <!-- Callout 1 -->
    <circle cx="335" cy="230" r="14" fill="#6d28d9"/>
    <text x="335" y="235" text-anchor="middle" fill="#fff" font-family="system-ui, sans-serif" font-size="12px" font-weight="700">1</text>

    <!-- STATE 2: Success [2] -->
    <g transform="translate(360, 90)">
      <rect x="0" y="0" width="280" height="280" rx="8" fill="#f5ebe0" stroke="#d4c4a8"/>
      <text x="140" y="30" text-anchor="middle" fill="#1a1a2e" font-family="system-ui, sans-serif" font-size="16px" font-weight="700">2. Success State</text>

      <!-- Success message card -->
      <rect x="20" y="60" width="240" height="150" rx="8" fill="#dcfce7" stroke="#22c55e"/>

      <!-- Checkmark icon -->
      <circle cx="140" cy="105" r="28" fill="#22c55e"/>
      <path d="M 125 105 L 135 115 L 155 95" stroke="#fff" stroke-width="4" fill="none" stroke-linecap="round" stroke-linejoin="round"/>

      <text x="140" y="155" text-anchor="middle" fill="#166534" font-family="system-ui, sans-serif" font-size="16px" font-weight="700">Message Sent!</text>
      <text x="140" y="175" text-anchor="middle" fill="#166534" font-family="system-ui, sans-serif" font-size="12px">We'll get back to you soon.</text>
      <text x="140" y="195" text-anchor="middle" fill="#166534" font-family="system-ui, sans-serif" font-size="11px">Check your email for confirmation.</text>

      <!-- Send another button -->
      <rect x="40" y="225" width="200" height="40" rx="6" fill="#3b82f6"/>
      <text x="140" y="251" text-anchor="middle" fill="#fff" font-family="system-ui, sans-serif" font-size="14px" font-weight="600">Send Another Message</text>
    </g>
    <!-- Callout 2 -->
    <circle cx="655" cy="230" r="14" fill="#6d28d9"/>
    <text x="655" y="235" text-anchor="middle" fill="#fff" font-family="system-ui, sans-serif" font-size="12px" font-weight="700">2</text>

    <!-- STATE 3: Error [3] -->
    <g transform="translate(680, 90)">
      <rect x="0" y="0" width="280" height="280" rx="8" fill="#f5ebe0" stroke="#d4c4a8"/>
      <text x="140" y="30" text-anchor="middle" fill="#1a1a2e" font-family="system-ui, sans-serif" font-size="16px" font-weight="700">3. Error State</text>

      <!-- Error message card -->
      <rect x="20" y="50" width="240" height="110" rx="8" fill="#fef2f2" stroke="#ef4444"/>

      <!-- Error icon -->
      <circle cx="140" cy="85" r="20" fill="#ef4444"/>
      <text x="140" y="93" text-anchor="middle" fill="#fff" font-family="system-ui, sans-serif" font-size="24px" font-weight="700">!</text>

      <text x="140" y="125" text-anchor="middle" fill="#991b1b" font-family="system-ui, sans-serif" font-size="14px" font-weight="700">Submission Failed</text>
      <text x="140" y="145" text-anchor="middle" fill="#991b1b" font-family="system-ui, sans-serif" font-size="11px">Network error. Your data is preserved.</text>

      <!-- Preserved input preview -->
      <rect x="20" y="170" width="240" height="28" rx="4" fill="#fff" stroke="#d1d5db"/>
      <text x="30" y="188" fill="#374151" font-family="system-ui, sans-serif" font-size="11px">john@example.com (preserved)</text>

      <!-- Retry button -->
      <rect x="20" y="210" width="115" height="40" rx="6" fill="#ef4444"/>
      <text x="77" y="236" text-anchor="middle" fill="#fff" font-family="system-ui, sans-serif" font-size="14px" font-weight="600">Retry</text>

      <!-- Cancel button -->
      <rect x="145" y="210" width="115" height="40" rx="6" fill="transparent" stroke="#6b7280" stroke-width="1"/>
      <text x="202" y="236" text-anchor="middle" fill="#374151" font-family="system-ui, sans-serif" font-size="14px" font-weight="500">Cancel</text>

      <text x="140" y="270" text-anchor="middle" fill="#6b7280" font-family="system-ui, sans-serif" font-size="11px">Input preserved for retry</text>
    </g>
    <!-- Callout 3 -->
    <circle cx="975" cy="230" r="14" fill="#6d28d9"/>
    <text x="975" y="235" text-anchor="middle" fill="#fff" font-family="system-ui, sans-serif" font-size="12px" font-weight="700">3</text>

    <!-- STATE 4: Offline Queue [4] -->
    <g transform="translate(1000, 90)">
      <rect x="0" y="0" width="280" height="280" rx="8" fill="#f5ebe0" stroke="#d4c4a8"/>
      <text x="140" y="30" text-anchor="middle" fill="#1a1a2e" font-family="system-ui, sans-serif" font-size="16px" font-weight="700">4. Offline Queue</text>

      <!-- Offline indicator banner -->
      <rect x="20" y="50" width="240" height="40" rx="6" fill="#fef3c7" stroke="#f59e0b"/>
      <!-- Offline icon (cloud with slash) -->
      <g transform="translate(30, 58)">
        <circle cx="12" cy="12" r="10" fill="#f59e0b"/>
        <text x="12" y="17" text-anchor="middle" fill="#fff" font-family="system-ui, sans-serif" font-size="12px" font-weight="700">!</text>
      </g>
      <text x="60" y="75" fill="#92400e" font-family="system-ui, sans-serif" font-size="13px" font-weight="600">You're offline</text>

      <!-- Queued messages info -->
      <rect x="20" y="105" width="240" height="100" rx="6" fill="#fff" stroke="#d1d5db"/>
      <text x="140" y="130" text-anchor="middle" fill="#1a1a2e" font-family="system-ui, sans-serif" font-size="14px" font-weight="600">Message Queued</text>

      <!-- Queue count badge -->
      <rect x="90" y="145" width="100" height="28" rx="14" fill="#8b5cf6"/>
      <text x="140" y="165" text-anchor="middle" fill="#fff" font-family="system-ui, sans-serif" font-size="14px" font-weight="700">2 pending</text>

      <text x="140" y="195" text-anchor="middle" fill="#6b7280" font-family="system-ui, sans-serif" font-size="11px">Will send when back online</text>

      <!-- View queue button -->
      <rect x="50" y="220" width="180" height="40" rx="6" fill="transparent" stroke="#8b5cf6" stroke-width="2"/>
      <text x="140" y="246" text-anchor="middle" fill="#8b5cf6" font-family="system-ui, sans-serif" font-size="14px" font-weight="600">View Queued Messages</text>
    </g>
    <!-- Callout 4 -->
    <circle cx="1225" cy="230" r="14" fill="#6d28d9"/>
    <text x="1225" y="235" text-anchor="middle" fill="#fff" font-family="system-ui, sans-serif" font-size="12px" font-weight="700">4</text>

    <!-- Honeypot Annotation [5] -->
    <g transform="translate(40, 400)">
      <rect x="0" y="0" width="600" height="100" rx="8" fill="#fdf4ff" stroke="#d946ef" stroke-dasharray="4,2"/>
      <text x="20" y="25" fill="#d946ef" font-family="system-ui, sans-serif" font-size="14px" font-weight="700">Hidden Honeypot Field (Spam Protection)</text>
      <text x="20" y="50" fill="#4b5563" font-family="system-ui, sans-serif" font-size="13px">In HTML: &lt;input type="text" name="botcheck" class="hidden" tabindex="-1" autocomplete="off"&gt;</text>
      <text x="20" y="70" fill="#4b5563" font-family="system-ui, sans-serif" font-size="13px">CSS hides from users but bots auto-fill. Filled = spam, rejected silently.</text>
      <text x="20" y="90" fill="#4b5563" font-family="system-ui, sans-serif" font-size="13px">aria-hidden="true" ensures screen readers skip it.</text>
    </g>
    <!-- Callout 5 -->
    <circle cx="660" cy="450" r="14" fill="#6d28d9"/>
    <text x="660" y="455" text-anchor="middle" fill="#fff" font-family="system-ui, sans-serif" font-size="12px" font-weight="700">5</text>

    <!-- State Flow Diagram -->
    <g transform="translate(680, 400)">
      <rect x="0" y="0" width="560" height="100" rx="8" fill="#f0fdf4" stroke="#22c55e"/>
      <text x="20" y="25" fill="#166534" font-family="system-ui, sans-serif" font-size="14px" font-weight="700">State Flow</text>

      <!-- Idle -->
      <rect x="20" y="45" width="70" height="30" rx="4" fill="#e5e7eb"/>
      <text x="55" y="65" text-anchor="middle" fill="#374151" font-family="system-ui, sans-serif" font-size="11px">Idle</text>
      <!-- Arrow -->
      <path d="M 95 60 L 115 60" stroke="#6b7280" stroke-width="2" marker-end="url(#arrow)"/>

      <!-- Loading -->
      <rect x="120" y="45" width="80" height="30" rx="4" fill="#93c5fd"/>
      <text x="160" y="65" text-anchor="middle" fill="#1e40af" font-family="system-ui, sans-serif" font-size="11px">Loading</text>
      <!-- Arrow -->
      <path d="M 205 60 L 225 60" stroke="#6b7280" stroke-width="2"/>

      <!-- Branch point -->
      <circle cx="240" cy="60" r="8" fill="#6b7280"/>

      <!-- Success path -->
      <path d="M 248 56 L 280 40" stroke="#22c55e" stroke-width="2"/>
      <rect x="285" y="25" width="80" height="30" rx="4" fill="#dcfce7"/>
      <text x="325" y="45" text-anchor="middle" fill="#166534" font-family="system-ui, sans-serif" font-size="11px">Success</text>

      <!-- Error path -->
      <path d="M 248 64 L 280 75" stroke="#ef4444" stroke-width="2"/>
      <rect x="285" y="60" width="80" height="30" rx="4" fill="#fef2f2"/>
      <text x="325" y="80" text-anchor="middle" fill="#991b1b" font-family="system-ui, sans-serif" font-size="11px">Error</text>

      <!-- Retry arrow -->
      <path d="M 370 75 Q 400 85 400 60 Q 400 35 350 35 L 210 35 Q 160 35 160 45" stroke="#ef4444" stroke-width="1" fill="none" stroke-dasharray="3,2"/>
      <text x="430" y="65" fill="#ef4444" font-family="system-ui, sans-serif" font-size="10px">retry</text>

      <!-- Offline path -->
      <path d="M 240 68 L 240 90 L 470 90" stroke="#f59e0b" stroke-width="2"/>
      <rect x="475" y="25" width="70" height="30" rx="4" fill="#fef3c7"/>
      <text x="510" y="45" text-anchor="middle" fill="#92400e" font-family="system-ui, sans-serif" font-size="11px">Offline</text>
      <text x="510" y="80" text-anchor="middle" fill="#92400e" font-family="system-ui, sans-serif" font-size="10px">(queued)</text>
    </g>
  </g>

  <!-- Desktop Footer -->
  <g transform="translate(40, 700)">
    <path d="M 0 0 L 1280 0 L 1280 72 A 8 8 0 0 1 1272 80 L 8 80 A 8 8 0 0 1 0 72 Z" fill="#dcc8a8" stroke="#b8a080"/>
    <g transform="translate(20, 20)">
      <rect x="0" y="0" width="24" height="24" rx="4" fill="#8b5cf6"/>
      <text x="34" y="18" fill="#1a1a2e" font-family="system-ui, sans-serif" font-size="14px" font-weight="700">ScriptHammer</text>
      <text x="0" y="45" fill="#4b5563" font-family="system-ui, sans-serif" font-size="14px">Product planning template</text>
    </g>
    <g transform="translate(450, 25)">
      <text x="0" y="0" fill="#374151" font-family="system-ui, sans-serif" font-size="14px" font-weight="500">Features</text>
      <text x="80" y="0" fill="#374151" font-family="system-ui, sans-serif" font-size="14px" font-weight="500">Documentation</text>
      <text x="200" y="0" fill="#374151" font-family="system-ui, sans-serif" font-size="14px" font-weight="500">GitHub</text>
      <text x="270" y="0" fill="#374151" font-family="system-ui, sans-serif" font-size="14px" font-weight="500">Privacy</text>
      <text x="330" y="0" fill="#374151" font-family="system-ui, sans-serif" font-size="14px" font-weight="500">Terms</text>
      <text x="0" y="25" fill="#4b5563" font-family="system-ui, sans-serif" font-size="14px">Built with Next.js 15, Supabase, and Tailwind CSS</text>
    </g>
    <g transform="translate(1260, 30)">
      <text x="0" y="0" fill="#4b5563" font-family="system-ui, sans-serif" font-size="14px" text-anchor="end">© ScriptHammer 2026</text>
      <text x="0" y="20" fill="#4b5563" font-family="system-ui, sans-serif" font-size="14px" text-anchor="end">MIT License</text>
    </g>
  </g>

  <!-- ==================== MOBILE VIEW (x=1360, y=60, 360x720) ==================== -->
  <text x="1360" y="52" fill="#d946ef" font-family="system-ui, sans-serif" font-size="15px" font-weight="bold">MOBILE (360×720)</text>

  <!-- Mobile container -->
  <rect x="1360" y="60" width="360" height="720" rx="24" fill="#e8d4b8" stroke="#b8a080"/>

  <!-- Mobile Status Bar + Header -->
  <g transform="translate(1360, 60)">
    <!-- Status bar -->
    <path d="M 24 0 L 336 0 A 24 24 0 0 1 360 24 L 360 28 L 0 28 L 0 24 A 24 24 0 0 1 24 0 Z" fill="#dcc8a8"/>
    <text x="20" y="18" fill="#374151" font-family="system-ui, sans-serif" font-size="14px" font-weight="500">9:41</text>
    <g transform="translate(280, 4)">
      <g transform="translate(0, 0) scale(0.667)"><path fill="#1a1a2e" d="M5.636 4.575a.75.75 0 0 1 0 1.061 9 9 0 0 0 0 12.728.75.75 0 1 1-1.06 1.06c-4.101-4.1-4.101-10.748 0-14.849a.75.75 0 0 1 1.06 0Zm12.728 0a.75.75 0 0 1 1.06 0c4.101 4.1 4.101 10.75 0 14.85a.75.75 0 1 1-1.06-1.061 9 9 0 0 0 0-12.728.75.75 0 0 1 0-1.06ZM7.757 6.697a.75.75 0 0 1 0 1.06 6 6 0 0 0 0 8.486.75.75 0 0 1-1.06 1.06 7.5 7.5 0 0 1 0-10.606.75.75 0 0 1 1.06 0Zm8.486 0a.75.75 0 0 1 1.06 0 7.5 7.5 0 0 1 0 10.606.75.75 0 0 1-1.06-1.06 6 6 0 0 0 0-8.486.75.75 0 0 1 0-1.06ZM9.879 8.818a.75.75 0 0 1 0 1.06 3 3 0 0 0 0 4.243.75.75 0 1 1-1.061 1.061 4.5 4.5 0 0 1 0-6.364.75.75 0 0 1 1.06 0Zm4.242 0a.75.75 0 0 1 1.061 0 4.5 4.5 0 0 1 0 6.364.75.75 0 0 1-1.06-1.06 3 3 0 0 0 0-4.243.75.75 0 0 1 0-1.061ZM10.875 12a1.125 1.125 0 1 1 2.25 0 1.125 1.125 0 0 1-2.25 0Z"/></g>
      <g transform="translate(20, 0) scale(0.667)"><path fill="#1a1a2e" fill-rule="evenodd" clip-rule="evenodd" d="M.75 9.75a3 3 0 0 1 3-3h15a3 3 0 0 1 3 3v.038c.856.173 1.5.93 1.5 1.837v.75c0 .907-.644 1.664-1.5 1.838v.037a3 3 0 0 1-3 3h-15a3 3 0 0 1-3-3v-4.5Zm3-1.5a1.5 1.5 0 0 0-1.5 1.5v4.5a1.5 1.5 0 0 0 1.5 1.5h15a1.5 1.5 0 0 0 1.5-1.5v-4.5a1.5 1.5 0 0 0-1.5-1.5h-15Z"/><path fill="#1a1a2e" d="M3 10.5a.75.75 0 0 1 .75-.75h13.5a.75.75 0 0 1 .75.75v3a.75.75 0 0 1-.75.75H3.75a.75.75 0 0 1-.75-.75v-3Z"/></g>
    </g>
    <!-- Header bar -->
    <g transform="translate(0, 28)">
      <rect width="360" height="50" fill="#dcc8a8" stroke="#b8a080"/>
      <rect x="3" y="3" width="44" height="44" rx="4" fill="transparent"/>
      <g transform="translate(13, 13)"><path fill="#2d3748" fill-rule="evenodd" clip-rule="evenodd" d="M3 6.75A.75.75 0 0 1 3.75 6h16.5a.75.75 0 0 1 0 1.5H3.75A.75.75 0 0 1 3 6.75ZM3 12a.75.75 0 0 1 .75-.75h16.5a.75.75 0 0 1 0 1.5H3.75A.75.75 0 0 1 3 12Zm0 5.25a.75.75 0 0 1 .75-.75h16.5a.75.75 0 0 1 0 1.5H3.75a.75.75 0 0 1-.75-.75Z"/></g>
      <rect x="55" y="10" width="24" height="24" rx="4" fill="#8b5cf6"/>
      <text x="85" y="30" fill="#374151" font-family="system-ui, sans-serif" font-size="14px" font-weight="500">ScriptHammer</text>
      <g transform="translate(220, 3)">
        <rect x="0" y="0" width="44" height="44" rx="4" fill="transparent"/>
        <g transform="translate(10, 10)"><path fill="#1a1a2e" d="M12 15a3 3 0 1 0 0-6 3 3 0 0 0 0 6Z"/><path fill="#1a1a2e" fill-rule="evenodd" clip-rule="evenodd" d="M1.323 11.447C2.811 6.976 7.028 3.75 12.001 3.75c4.97 0 9.185 3.223 10.675 7.69.12.362.12.752 0 1.113-1.487 4.471-5.705 7.697-10.677 7.697-4.97 0-9.186-3.223-10.675-7.69a1.762 1.762 0 0 1 0-1.113ZM17.25 12a5.25 5.25 0 1 1-10.5 0 5.25 5.25 0 0 1 10.5 0Z"/></g>
        <rect x="44" y="0" width="44" height="44" rx="4" fill="transparent"/>
        <g transform="translate(54, 10)"><path fill="#1a1a2e" fill-rule="evenodd" clip-rule="evenodd" d="M11.0779 2.25C10.1613 2.25 9.37909 2.91265 9.22841 3.81675L9.04974 4.88873C9.02959 5.00964 8.93542 5.1498 8.75311 5.23747C8.40905 5.40292 8.07967 5.5938 7.7674 5.8076C7.60091 5.92159 7.43259 5.9332 7.31769 5.89015L6.29851 5.50833C5.44019 5.18678 4.4752 5.53289 4.01692 6.32666L3.09493 7.92358C2.63665 8.71736 2.8194 9.72611 3.52704 10.3087L4.36756 11.0006C4.46219 11.0785 4.53629 11.2298 4.52119 11.4307C4.50706 11.6188 4.49988 11.8086 4.49988 12C4.49988 12.1915 4.50707 12.3814 4.52121 12.5695C4.53632 12.7704 4.46221 12.9217 4.36758 12.9996L3.52704 13.6916C2.8194 14.2741 2.63665 15.2829 3.09493 16.0767L4.01692 17.6736C4.4752 18.4674 5.44019 18.8135 6.29851 18.4919L7.31791 18.11C7.43281 18.067 7.60113 18.0786 7.76761 18.1925C8.07982 18.4063 8.40913 18.5971 8.75311 18.7625C8.93542 18.8502 9.02959 18.9904 9.04974 19.1113L9.22841 20.1832C9.37909 21.0874 10.1613 21.75 11.0779 21.75H12.9219C13.8384 21.75 14.6207 21.0874 14.7713 20.1832L14.95 19.1113C14.9702 18.9904 15.0643 18.8502 15.2466 18.7625C15.5907 18.5971 15.9201 18.4062 16.2324 18.1924C16.3988 18.0784 16.5672 18.0668 16.6821 18.1098L17.7012 18.4917C18.5596 18.8132 19.5246 18.4671 19.9828 17.6733L20.9048 16.0764C21.3631 15.2826 21.1804 14.2739 20.4727 13.6913L19.6322 12.9994C19.5376 12.9215 19.4635 12.7702 19.4786 12.5693C19.4927 12.3812 19.4999 12.1914 19.4999 12C19.4999 11.8085 19.4927 11.6186 19.4785 11.4305C19.4634 11.2296 19.5375 11.0783 19.6322 11.0004L20.4727 10.3084C21.1804 9.72587 21.3631 8.71711 20.9048 7.92334L19.9828 6.32642C19.5246 5.53264 18.5596 5.18654 17.7012 5.50809L16.6818 5.89C16.5669 5.93304 16.3986 5.92144 16.2321 5.80746C15.9199 5.59371 15.5906 5.40289 15.2466 5.23747C15.0643 5.1498 14.9702 5.00964 14.95 4.88873L14.7713 3.81675C14.6207 2.91265 13.8384 2.25 12.9219 2.25H11.0779ZM12 15.75C14.0711 15.75 15.75 14.0711 15.75 12C15.75 9.92893 14.0711 8.25 12 8.25C9.92893 8.25 8.25 9.92893 8.25 12C8.25 14.0711 9.92893 15.75 12 15.75Z"/></g>
        <circle cx="110" cy="22" r="14" fill="#8b5cf6"/>
        <text x="110" y="27" text-anchor="middle" fill="#fff" font-family="system-ui, sans-serif" font-size="14px">U</text>
      </g>
    </g>
  </g>

  <!-- Mobile Content - Success State Example [6] -->
  <g transform="translate(1360, 138)">
    <!-- Success state full-screen -->
    <rect x="16" y="20" width="328" height="430" rx="12" fill="#dcfce7" stroke="#22c55e"/>

    <!-- Success icon large -->
    <circle cx="180" cy="140" r="50" fill="#22c55e"/>
    <path d="M 150 140 L 170 160 L 210 120" stroke="#fff" stroke-width="6" fill="none" stroke-linecap="round" stroke-linejoin="round"/>

    <text x="180" y="220" text-anchor="middle" fill="#166534" font-family="system-ui, sans-serif" font-size="24px" font-weight="800">Message Sent!</text>
    <text x="180" y="250" text-anchor="middle" fill="#166534" font-family="system-ui, sans-serif" font-size="14px">Thank you for reaching out.</text>
    <text x="180" y="275" text-anchor="middle" fill="#166534" font-family="system-ui, sans-serif" font-size="14px">We typically respond within 24 hours.</text>

    <!-- Confirmation details -->
    <rect x="40" y="300" width="280" height="80" rx="8" fill="#f0fdf4" stroke="#86efac"/>
    <text x="180" y="325" text-anchor="middle" fill="#166534" font-family="system-ui, sans-serif" font-size="12px" font-weight="600">Confirmation sent to:</text>
    <text x="180" y="350" text-anchor="middle" fill="#166534" font-family="system-ui, sans-serif" font-size="14px">john@example.com</text>
    <text x="180" y="370" text-anchor="middle" fill="#6b7280" font-family="system-ui, sans-serif" font-size="11px">Check spam if not received</text>

    <!-- Send another button -->
    <rect x="40" y="400" width="280" height="48" rx="8" fill="#3b82f6"/>
    <text x="180" y="430" text-anchor="middle" fill="#fff" font-family="system-ui, sans-serif" font-size="16px" font-weight="600">Send Another Message</text>

    <!-- Offline indicator badge (if offline) [7] -->
    <g transform="translate(16, 470)">
      <rect x="0" y="0" width="328" height="48" rx="8" fill="#fef3c7" stroke="#f59e0b"/>
      <g transform="translate(16, 12)">
        <circle cx="12" cy="12" r="10" fill="#f59e0b"/>
        <text x="12" y="17" text-anchor="middle" fill="#fff" font-family="system-ui, sans-serif" font-size="12px" font-weight="700">!</text>
      </g>
      <text x="50" y="30" fill="#92400e" font-family="system-ui, sans-serif" font-size="14px" font-weight="600">Offline - 1 message queued</text>
    </g>
  </g>
  <!-- Callout 6 -->
  <circle cx="1376" cy="350" r="12" fill="#6d28d9"/>
  <text x="1376" y="355" text-anchor="middle" fill="#fff" font-family="system-ui, sans-serif" font-size="11px" font-weight="700">6</text>
  <!-- Callout 7 -->
  <circle cx="1376" cy="638" r="12" fill="#6d28d9"/>
  <text x="1376" y="643" text-anchor="middle" fill="#fff" font-family="system-ui, sans-serif" font-size="11px" font-weight="700">7</text>

  <!-- Mobile Bottom Nav -->
  <g transform="translate(1360, 724)">
    <path d="M 0 0 L 360 0 L 360 32 A 24 24 0 0 1 336 56 L 24 56 A 24 24 0 0 1 0 32 Z" fill="#dcc8a8" stroke="#b8a080"/>
    <g transform="translate(0, 0)">
      <path d="M 0 0 L 90 0 L 90 56 L 24 56 A 24 24 0 0 1 0 32 L 0 0 Z" fill="transparent"/>
      <g transform="translate(33, 6)"><path fill="#1a1a2e" d="M11.47 3.841a.75.75 0 0 1 1.06 0l8.69 8.69a.75.75 0 1 0 1.06-1.061l-8.689-8.69a2.25 2.25 0 0 0-3.182 0l-8.69 8.69a.75.75 0 1 0 1.061 1.06l8.69-8.689Z"/><path fill="#1a1a2e" d="m12 5.432 8.159 8.159c.03.03.06.058.091.086v6.198c0 1.035-.84 1.875-1.875 1.875H15a.75.75 0 0 1-.75-.75v-4.5a.75.75 0 0 0-.75-.75h-3a.75.75 0 0 0-.75.75V21a.75.75 0 0 1-.75.75H5.625a1.875 1.875 0 0 1-1.875-1.875v-6.198a2.29 2.29 0 0 0 .091-.086L12 5.432Z"/></g>
      <text x="45" y="44" text-anchor="middle" fill="#4b5563" font-family="system-ui, sans-serif" font-size="14px">Home</text>
    </g>
    <g transform="translate(90, 0)">
      <rect width="90" height="56" fill="transparent"/>
      <g transform="translate(33, 6)"><path fill="#1a1a2e" d="M14.6152 1.59492C14.9164 1.76287 15.0643 2.1146 14.9736 2.44734L12.9819 9.75H20.25C20.5486 9.75 20.8188 9.92718 20.9378 10.2011C21.0569 10.475 21.0021 10.7934 20.7983 11.0117L10.2983 22.2617C10.063 22.5139 9.68601 22.573 9.38478 22.4051C9.08354 22.2371 8.93567 21.8854 9.02641 21.5527L11.018 14.25H3.74999C3.45134 14.25 3.18115 14.0728 3.06213 13.7989C2.9431 13.525 2.99792 13.2066 3.20169 12.9883L13.7017 1.73826C13.937 1.48613 14.314 1.42698 14.6152 1.59492Z"/></g>
      <text x="45" y="44" text-anchor="middle" fill="#4b5563" font-family="system-ui, sans-serif" font-size="14px">Features</text>
    </g>
    <g transform="translate(180, 0)">
      <rect width="90" height="56" fill="transparent"/>
      <g transform="translate(33, 6)"><path fill="#1a1a2e" d="M5.625 1.5C4.58947 1.5 3.75 2.33947 3.75 3.375V20.625C3.75 21.6605 4.58947 22.5 5.625 22.5H18.375C19.4105 22.5 20.25 21.6605 20.25 20.625V12.75C20.25 10.6789 18.5711 9 16.5 9H14.625C13.5895 9 12.75 8.16053 12.75 7.125V5.25C12.75 3.17893 11.0711 1.5 9 1.5H5.625ZM7.5 15C7.5 14.5858 7.83579 14.25 8.25 14.25H15.75C16.1642 14.25 16.5 14.5858 16.5 15C16.5 15.4142 16.1642 15.75 15.75 15.75H8.25C7.83579 15.75 7.5 15.4142 7.5 15ZM8.25 17.25C7.83579 17.25 7.5 17.5858 7.5 18C7.5 18.4142 7.83579 18.75 8.25 18.75H12C12.4142 18.75 12.75 18.4142 12.75 18C12.75 17.5858 12.4142 17.25 12 17.25H8.25Z"/><path fill="#1a1a2e" d="M12.9712 1.8159C13.768 2.73648 14.25 3.93695 14.25 5.25V7.125C14.25 7.33211 14.4179 7.5 14.625 7.5H16.5C17.8131 7.5 19.0135 7.98204 19.9341 8.77881C19.0462 5.37988 16.3701 2.70377 12.9712 1.8159Z"/></g>
      <text x="45" y="44" text-anchor="middle" fill="#4b5563" font-family="system-ui, sans-serif" font-size="14px">Docs</text>
    </g>
    <g transform="translate(270, 0)">
      <path d="M 0 0 L 90 0 L 90 32 A 24 24 0 0 1 66 56 L 0 56 L 0 0 Z" fill="transparent"/>
      <g transform="translate(33, 6)"><path fill="#1a1a2e" fill-rule="evenodd" clip-rule="evenodd" d="M7.5 6a4.5 4.5 0 1 1 9 0 4.5 4.5 0 0 1-9 0ZM3.751 20.105a8.25 8.25 0 0 1 16.498 0 .75.75 0 0 1-.437.695A18.683 18.683 0 0 1 12 22.5c-2.786 0-5.433-.608-7.812-1.7a.75.75 0 0 1-.437-.695Z"/></g>
      <text x="45" y="44" text-anchor="middle" fill="#4b5563" font-family="system-ui, sans-serif" font-size="14px">Account</text>
    </g>
  </g>

  <!-- ==================== ANNOTATION PANEL (x=40, y=800, 1840x220) ==================== -->
  <rect x="40" y="800" width="1840" height="220" rx="8" fill="#f5ebe0" stroke="#d4c4a8"/>

  <!-- Annotation Title -->
  <text x="60" y="830" fill="#1a1a2e" font-family="system-ui, sans-serif" font-size="16px" font-weight="700">Annotations: Submission States</text>

  <!-- Column 1 -->
  <g transform="translate(60, 850)">
    <g>
      <circle cx="12" cy="12" r="12" fill="#6d28d9"/>
      <text x="12" y="17" text-anchor="middle" fill="#fff" font-family="system-ui, sans-serif" font-size="11px" font-weight="700">1</text>
      <text x="32" y="17" fill="#2d3748" font-family="system-ui, sans-serif" font-size="14px" font-weight="600">Loading State</text>
    </g>
    <text x="32" y="38" fill="#4b5563" font-family="system-ui, sans-serif" font-size="13px">Button shows spinner, text changes to "Sending..."</text>
    <text x="32" y="55" fill="#4b5563" font-family="system-ui, sans-serif" font-size="13px">Button disabled to prevent double submission.</text>
    <text x="32" y="72" fill="#4b5563" font-family="system-ui, sans-serif" font-size="13px">Form fields become read-only during submission.</text>

    <g transform="translate(0, 90)">
      <circle cx="12" cy="12" r="12" fill="#6d28d9"/>
      <text x="12" y="17" text-anchor="middle" fill="#fff" font-family="system-ui, sans-serif" font-size="11px" font-weight="700">2</text>
      <text x="32" y="17" fill="#2d3748" font-family="system-ui, sans-serif" font-size="14px" font-weight="600">Success State</text>
    </g>
    <text x="32" y="128" fill="#4b5563" font-family="system-ui, sans-serif" font-size="13px">Green checkmark confirms submission.</text>
    <text x="32" y="145" fill="#4b5563" font-family="system-ui, sans-serif" font-size="13px">Clear messaging about next steps.</text>
    <text x="32" y="162" fill="#4b5563" font-family="system-ui, sans-serif" font-size="13px">"Send Another" button resets form.</text>
  </g>

  <!-- Column 2 -->
  <g transform="translate(420, 850)">
    <g>
      <circle cx="12" cy="12" r="12" fill="#6d28d9"/>
      <text x="12" y="17" text-anchor="middle" fill="#fff" font-family="system-ui, sans-serif" font-size="11px" font-weight="700">3</text>
      <text x="32" y="17" fill="#2d3748" font-family="system-ui, sans-serif" font-size="14px" font-weight="600">Error State</text>
    </g>
    <text x="32" y="38" fill="#4b5563" font-family="system-ui, sans-serif" font-size="13px">Red alert with clear error message.</text>
    <text x="32" y="55" fill="#4b5563" font-family="system-ui, sans-serif" font-size="13px">User input is preserved for retry.</text>
    <text x="32" y="72" fill="#4b5563" font-family="system-ui, sans-serif" font-size="13px">Retry and Cancel buttons available.</text>

    <g transform="translate(0, 90)">
      <circle cx="12" cy="12" r="12" fill="#6d28d9"/>
      <text x="12" y="17" text-anchor="middle" fill="#fff" font-family="system-ui, sans-serif" font-size="11px" font-weight="700">4</text>
      <text x="32" y="17" fill="#2d3748" font-family="system-ui, sans-serif" font-size="14px" font-weight="600">Offline Queue</text>
    </g>
    <text x="32" y="128" fill="#4b5563" font-family="system-ui, sans-serif" font-size="13px">Yellow banner indicates offline status.</text>
    <text x="32" y="145" fill="#4b5563" font-family="system-ui, sans-serif" font-size="13px">Queue count badge shows pending messages.</text>
    <text x="32" y="162" fill="#4b5563" font-family="system-ui, sans-serif" font-size="13px">Auto-sends when connection restored.</text>
  </g>

  <!-- Column 3 -->
  <g transform="translate(780, 850)">
    <g>
      <circle cx="12" cy="12" r="12" fill="#6d28d9"/>
      <text x="12" y="17" text-anchor="middle" fill="#fff" font-family="system-ui, sans-serif" font-size="11px" font-weight="700">5</text>
      <text x="32" y="17" fill="#2d3748" font-family="system-ui, sans-serif" font-size="14px" font-weight="600">Honeypot (Spam)</text>
    </g>
    <text x="32" y="38" fill="#4b5563" font-family="system-ui, sans-serif" font-size="13px">Hidden field traps automated bots.</text>
    <text x="32" y="55" fill="#4b5563" font-family="system-ui, sans-serif" font-size="13px">CSS hidden, not visible to users.</text>
    <text x="32" y="72" fill="#4b5563" font-family="system-ui, sans-serif" font-size="13px">Submissions with filled honeypot rejected.</text>

    <g transform="translate(0, 90)">
      <circle cx="12" cy="12" r="12" fill="#6d28d9"/>
      <text x="12" y="17" text-anchor="middle" fill="#fff" font-family="system-ui, sans-serif" font-size="11px" font-weight="700">6</text>
      <text x="32" y="17" fill="#2d3748" font-family="system-ui, sans-serif" font-size="14px" font-weight="600">Mobile Success</text>
    </g>
    <text x="32" y="128" fill="#4b5563" font-family="system-ui, sans-serif" font-size="13px">Full-screen success for clear feedback.</text>
    <text x="32" y="145" fill="#4b5563" font-family="system-ui, sans-serif" font-size="13px">Email confirmation shown inline.</text>
    <text x="32" y="162" fill="#4b5563" font-family="system-ui, sans-serif" font-size="13px">48px touch targets on all buttons.</text>
  </g>

  <!-- Column 4 - Requirements -->
  <g transform="translate(1140, 850)">
    <g>
      <circle cx="12" cy="12" r="12" fill="#6d28d9"/>
      <text x="12" y="17" text-anchor="middle" fill="#fff" font-family="system-ui, sans-serif" font-size="11px" font-weight="700">7</text>
      <text x="32" y="17" fill="#2d3748" font-family="system-ui, sans-serif" font-size="14px" font-weight="600">Mobile Offline Badge</text>
    </g>
    <text x="32" y="38" fill="#4b5563" font-family="system-ui, sans-serif" font-size="13px">Persistent offline indicator at bottom.</text>
    <text x="32" y="55" fill="#4b5563" font-family="system-ui, sans-serif" font-size="13px">Shows count of queued messages.</text>
    <text x="32" y="72" fill="#4b5563" font-family="system-ui, sans-serif" font-size="13px">Yellow warning color for attention.</text>

    <text x="32" y="110" fill="#2d3748" font-family="system-ui, sans-serif" font-size="14px" font-weight="600">Requirements Covered</text>
    <text x="32" y="132" fill="#4b5563" font-family="system-ui, sans-serif" font-size="13px">FR-002/003/004: Success/error/loading states</text>
    <text x="32" y="149" fill="#4b5563" font-family="system-ui, sans-serif" font-size="13px">FR-011/012: Honeypot + validation</text>
    <text x="32" y="166" fill="#4b5563" font-family="system-ui, sans-serif" font-size="13px">FR-014-019: Offline queue, retry, preserve</text>
  </g>

  <!-- Column 5 - Success criteria -->
  <g transform="translate(1520, 850)">
    <text x="0" y="17" fill="#2d3748" font-family="system-ui, sans-serif" font-size="14px" font-weight="600">Success Criteria</text>
    <text x="0" y="42" fill="#4b5563" font-family="system-ui, sans-serif" font-size="13px">SC-001: &lt;3s submit time</text>
    <text x="0" y="59" fill="#4b5563" font-family="system-ui, sans-serif" font-size="13px">SC-003: Success message visible</text>
    <text x="0" y="76" fill="#4b5563" font-family="system-ui, sans-serif" font-size="13px">SC-004: Error allows retry</text>
    <text x="0" y="93" fill="#4b5563" font-family="system-ui, sans-serif" font-size="13px">SC-006: &gt;95% spam blocked</text>

    <text x="0" y="125" fill="#2d3748" font-family="system-ui, sans-serif" font-size="14px" font-weight="600">A11y Notes</text>
    <text x="0" y="147" fill="#4b5563" font-family="system-ui, sans-serif" font-size="13px">role="alert" on state changes</text>
    <text x="0" y="164" fill="#4b5563" font-family="system-ui, sans-serif" font-size="13px">aria-live="polite" for updates</text>
  </g>

  <!-- Signature -->
  <text x="960" y="1060" text-anchor="middle" fill="#1a1a2e" font-family="system-ui, sans-serif" font-size="14px" font-weight="700">Generator1 | 022-web3forms-integration | 02-submission-states.svg</text>
</svg>