<svg xmlns="http://www.w3.org/2000/svg" viewBox="0 0 1400 800" width="1400" height="800">
  <!-- ============================================================
       GENERATED BY: /wireframe skill
       SOURCE: features/integrations/022-web3forms-integration/spec.md
       DATE: 2026-01-01
       THEME: Dark (Backend/Architecture)
       DO NOT MANUALLY EDIT - Regenerate with /wireframe command
       ============================================================ -->
  <defs>
    <linearGradient id="bgGrad" x1="0%" y1="0%" x2="100%" y2="100%">
      <stop offset="0%" style="stop-color:#0f172a"/>
      <stop offset="100%" style="stop-color:#1e293b"/>
    </linearGradient>
    <linearGradient id="accentGrad" x1="0%" y1="0%" x2="100%" y2="0%">
      <stop offset="0%" style="stop-color:#8b5cf6"/>
      <stop offset="100%" style="stop-color:#d946ef"/>
    </linearGradient>
    <marker id="arrowhead" markerWidth="10" markerHeight="7" refX="9" refY="3.5" orient="auto">
      <polygon points="0 0, 10 3.5, 0 7" fill="#8b5cf6"/>
    </marker>
    <marker id="arrowhead-green" markerWidth="10" markerHeight="7" refX="9" refY="3.5" orient="auto">
      <polygon points="0 0, 10 3.5, 0 7" fill="#22c55e"/>
    </marker>
    <marker id="arrowhead-orange" markerWidth="10" markerHeight="7" refX="9" refY="3.5" orient="auto">
      <polygon points="0 0, 10 3.5, 0 7" fill="#f59e0b"/>
    </marker>
    <marker id="arrowhead-red" markerWidth="10" markerHeight="7" refX="9" refY="3.5" orient="auto">
      <polygon points="0 0, 10 3.5, 0 7" fill="#ef4444"/>
    </marker>
    <style>
      .heading-lg { fill: #ffffff; font-family: system-ui, sans-serif; font-size: 20px; font-weight: bold; }
      .heading { fill: #ffffff; font-family: system-ui, sans-serif; font-size: 14px; font-weight: bold; }
      .text-md { fill: #cbd5e1; font-family: system-ui, sans-serif; font-size: 12px; }
      .text-sm { fill: #94a3b8; font-family: system-ui, sans-serif; font-size: 10px; }
      .text-muted { fill: #8494a8; font-family: system-ui, sans-serif; font-size: 10px; }
      .annotation { fill: #8b5cf6; font-family: monospace; font-size: 10px; }
      .label-section { fill: #8b5cf6; font-family: monospace; font-size: 11px; font-weight: bold; }
    </style>
  </defs>

  <!-- Background -->
  <rect width="1400" height="800" fill="url(#bgGrad)"/>

  <!-- Dot grid pattern -->
  <g opacity="0.05">
    <pattern id="dots" width="30" height="30" patternUnits="userSpaceOnUse">
      <circle cx="15" cy="15" r="1" fill="#fff"/>
    </pattern>
    <rect width="1400" height="800" fill="url(#dots)"/>
  </g>

  <!-- Accent line top -->
  <rect x="0" y="0" width="1400" height="3" fill="url(#accentGrad)"/>

  <!-- Title -->
  <text x="700" y="28" text-anchor="middle" font-family="system-ui, sans-serif" font-size="14" font-weight="600" fill="#8494a8" letter-spacing="1">WEB3FORMS INTEGRATION — SYSTEM ARCHITECTURE</text>

  <!-- ===== CLIENT LAYER ===== -->
  <text x="60" y="60" class="label-section">CLIENT LAYER (BROWSER)</text>
  <rect x="40" y="70" width="540" height="200" rx="8" fill="#1e293b" stroke="#475569" stroke-width="1"/>

  <!-- Contact Form Component -->
  <rect x="60" y="90" width="180" height="160" rx="6" fill="#334155" stroke="#8b5cf6" stroke-width="1"/>
  <text x="150" y="115" text-anchor="middle" class="heading">ContactForm.tsx</text>

  <rect x="75" y="130" width="150" height="24" rx="4" fill="#475569"/>
  <text x="150" y="147" text-anchor="middle" class="text-sm">React Hook Form</text>

  <rect x="75" y="160" width="150" height="24" rx="4" fill="#475569"/>
  <text x="150" y="177" text-anchor="middle" class="text-sm">Zod Validation</text>

  <rect x="75" y="190" width="150" height="24" rx="4" fill="#475569"/>
  <text x="150" y="207" text-anchor="middle" class="text-sm">Honeypot Field</text>

  <text x="150" y="240" text-anchor="middle" class="text-muted">FR-001, FR-006-010</text>

  <!-- useContactForm Hook -->
  <rect x="260" y="90" width="160" height="160" rx="6" fill="#334155" stroke="#d946ef" stroke-width="1"/>
  <text x="340" y="115" text-anchor="middle" class="heading">useContactForm</text>

  <text x="280" y="140" class="text-sm">• submitForm()</text>
  <text x="280" y="160" class="text-sm">• validateSpam()</text>
  <text x="280" y="180" class="text-sm">• handleOffline()</text>
  <text x="280" y="200" class="text-sm">• getQueueStatus()</text>

  <text x="340" y="240" text-anchor="middle" class="text-muted">FR-011-019</text>

  <!-- Offline Queue (IndexedDB) -->
  <rect x="440" y="90" width="120" height="160" rx="6" fill="#334155" stroke="#f59e0b" stroke-width="1"/>
  <text x="500" y="115" text-anchor="middle" class="heading">Offline Queue</text>

  <rect x="455" y="130" width="90" height="50" rx="4" fill="#475569"/>
  <text x="500" y="152" text-anchor="middle" class="text-sm">IndexedDB</text>
  <text x="500" y="168" text-anchor="middle" class="text-muted">contact-queue</text>

  <text x="500" y="200" text-anchor="middle" class="text-sm">Pending: 0</text>

  <text x="500" y="240" text-anchor="middle" class="text-muted">FR-017-019</text>

  <!-- ===== SPAM PROTECTION ===== -->
  <text x="620" y="60" class="label-section">SPAM PROTECTION</text>
  <rect x="600" y="70" width="320" height="200" rx="8" fill="#1e293b" stroke="#475569" stroke-width="1"/>

  <!-- Honeypot technique -->
  <rect x="620" y="90" width="140" height="160" rx="6" fill="#334155" stroke="#ef4444" stroke-width="1"/>
  <text x="690" y="115" text-anchor="middle" class="heading" fill="#ef4444">Honeypot</text>

  <rect x="635" y="130" width="110" height="80" rx="4" fill="#475569"/>
  <text x="690" y="150" text-anchor="middle" class="text-sm">Hidden Field</text>
  <text x="690" y="170" text-anchor="middle" class="text-muted">name="website"</text>
  <text x="690" y="190" text-anchor="middle" class="text-muted">display: none</text>

  <text x="690" y="230" text-anchor="middle" class="text-sm">If filled → SPAM</text>
  <text x="690" y="245" text-anchor="middle" class="text-muted">FR-011, FR-012</text>

  <!-- Rate limiting -->
  <rect x="780" y="90" width="120" height="160" rx="6" fill="#334155" stroke="#f59e0b" stroke-width="1"/>
  <text x="840" y="115" text-anchor="middle" class="heading">Rate Limit</text>

  <text x="840" y="145" text-anchor="middle" class="text-sm">3 submissions</text>
  <text x="840" y="165" text-anchor="middle" class="text-sm">per 10 minutes</text>
  <text x="840" y="185" text-anchor="middle" class="text-sm">per IP</text>

  <rect x="795" y="200" width="90" height="24" rx="4" fill="#f59e0b" opacity="0.3"/>
  <text x="840" y="217" text-anchor="middle" class="text-sm" fill="#f59e0b">Edge check</text>

  <text x="840" y="245" text-anchor="middle" class="text-muted">SC-004</text>

  <!-- ===== EXTERNAL SERVICE ===== -->
  <text x="960" y="60" class="label-section">EXTERNAL SERVICE</text>
  <rect x="940" y="70" width="420" height="200" rx="8" fill="#1e293b" stroke="#475569" stroke-width="1"/>

  <!-- Web3Forms API -->
  <rect x="960" y="90" width="200" height="160" rx="6" fill="#334155" stroke="#22c55e" stroke-width="2"/>
  <text x="1060" y="115" text-anchor="middle" class="heading-lg" fill="#22c55e">Web3Forms API</text>

  <rect x="975" y="135" width="170" height="24" rx="4" fill="#475569"/>
  <text x="1060" y="152" text-anchor="middle" class="text-sm">POST /submit</text>

  <text x="980" y="180" class="text-muted">access_key: env.WEB3_KEY</text>
  <text x="980" y="195" class="text-muted">subject: string</text>
  <text x="980" y="210" class="text-muted">from_name: string</text>
  <text x="980" y="225" class="text-muted">email: string</text>
  <text x="980" y="240" class="text-muted">message: string</text>

  <!-- Email Delivery -->
  <rect x="1180" y="90" width="160" height="160" rx="6" fill="#334155" stroke="#d946ef" stroke-width="1"/>
  <text x="1260" y="115" text-anchor="middle" class="heading">Email Delivery</text>

  <!-- Email icon -->
  <rect x="1230" y="140" width="60" height="40" rx="4" fill="#475569" stroke="#d946ef" stroke-width="1"/>
  <path d="M1235 145 L1260 165 L1285 145" stroke="#d946ef" stroke-width="2" fill="none"/>

  <text x="1260" y="205" text-anchor="middle" class="text-sm">Recipient inbox</text>
  <text x="1260" y="225" text-anchor="middle" class="text-muted">admin@site.com</text>

  <text x="1260" y="245" text-anchor="middle" class="text-muted">FR-002</text>

  <!-- ===== DATA FLOW ===== -->
  <text x="60" y="300" class="label-section">SUBMISSION FLOW (ONLINE)</text>
  <rect x="40" y="310" width="660" height="140" rx="8" fill="#1e293b" stroke="#475569" stroke-width="1"/>

  <!-- Step 1 -->
  <rect x="60" y="330" width="100" height="60" rx="6" fill="#334155" stroke="#8b5cf6" stroke-width="1"/>
  <text x="110" y="355" text-anchor="middle" class="heading">1. Submit</text>
  <text x="110" y="375" text-anchor="middle" class="text-sm">User clicks</text>

  <!-- Arrow -->
  <line x1="160" y1="360" x2="185" y2="360" stroke="#8b5cf6" stroke-width="2" marker-end="url(#arrowhead)"/>

  <!-- Step 2 -->
  <rect x="185" y="330" width="100" height="60" rx="6" fill="#334155" stroke="#ef4444" stroke-width="1"/>
  <text x="235" y="355" text-anchor="middle" class="heading">2. Validate</text>
  <text x="235" y="375" text-anchor="middle" class="text-sm">Check spam</text>

  <!-- Arrow -->
  <line x1="285" y1="360" x2="310" y2="360" stroke="#8b5cf6" stroke-width="2" marker-end="url(#arrowhead)"/>

  <!-- Step 3 -->
  <rect x="310" y="330" width="100" height="60" rx="6" fill="#334155" stroke="#f59e0b" stroke-width="1"/>
  <text x="360" y="355" text-anchor="middle" class="heading">3. Sanitize</text>
  <text x="360" y="375" text-anchor="middle" class="text-sm">Clean input</text>

  <!-- Arrow -->
  <line x1="410" y1="360" x2="435" y2="360" stroke="#8b5cf6" stroke-width="2" marker-end="url(#arrowhead)"/>

  <!-- Step 4 -->
  <rect x="435" y="330" width="100" height="60" rx="6" fill="#334155" stroke="#22c55e" stroke-width="1"/>
  <text x="485" y="355" text-anchor="middle" class="heading">4. Send</text>
  <text x="485" y="375" text-anchor="middle" class="text-sm">Web3Forms</text>

  <!-- Arrow -->
  <line x1="535" y1="360" x2="560" y2="360" stroke="#22c55e" stroke-width="2" marker-end="url(#arrowhead-green)"/>

  <!-- Step 5 -->
  <rect x="560" y="330" width="120" height="60" rx="6" fill="#334155" stroke="#22c55e" stroke-width="2"/>
  <text x="620" y="355" text-anchor="middle" class="heading" fill="#22c55e">5. Confirm</text>
  <text x="620" y="375" text-anchor="middle" class="text-sm">Show success</text>

  <!-- Flow labels -->
  <text x="360" y="410" text-anchor="middle" class="annotation">FR-001 → FR-010/011 → FR-010 → FR-002 → FR-003</text>
  <text x="360" y="435" text-anchor="middle" class="text-muted">~2-3 seconds end-to-end (SC-003)</text>

  <!-- ===== OFFLINE FLOW ===== -->
  <text x="740" y="300" class="label-section">SUBMISSION FLOW (OFFLINE)</text>
  <rect x="720" y="310" width="640" height="140" rx="8" fill="#1e293b" stroke="#475569" stroke-width="1"/>

  <!-- Step 1 -->
  <rect x="740" y="330" width="100" height="60" rx="6" fill="#334155" stroke="#f59e0b" stroke-width="1"/>
  <text x="790" y="355" text-anchor="middle" class="heading">1. Detect</text>
  <text x="790" y="375" text-anchor="middle" class="text-sm">No network</text>

  <!-- Arrow -->
  <line x1="840" y1="360" x2="865" y2="360" stroke="#f59e0b" stroke-width="2" marker-end="url(#arrowhead-orange)"/>

  <!-- Step 2 -->
  <rect x="865" y="330" width="100" height="60" rx="6" fill="#334155" stroke="#f59e0b" stroke-width="1"/>
  <text x="915" y="355" text-anchor="middle" class="heading">2. Queue</text>
  <text x="915" y="375" text-anchor="middle" class="text-sm">IndexedDB</text>

  <!-- Arrow -->
  <line x1="965" y1="360" x2="990" y2="360" stroke="#f59e0b" stroke-width="2" marker-end="url(#arrowhead-orange)"/>

  <!-- Step 3 -->
  <rect x="990" y="330" width="100" height="60" rx="6" fill="#334155" stroke="#0ea5e9" stroke-width="1"/>
  <text x="1040" y="355" text-anchor="middle" class="heading">3. Wait</text>
  <text x="1040" y="375" text-anchor="middle" class="text-sm">User feedback</text>

  <!-- Arrow (dashed for async) -->
  <line x1="1090" y1="360" x2="1115" y2="360" stroke="#22c55e" stroke-width="2" stroke-dasharray="6,3" marker-end="url(#arrowhead-green)"/>

  <!-- Step 4 -->
  <rect x="1115" y="330" width="100" height="60" rx="6" fill="#334155" stroke="#22c55e" stroke-width="1"/>
  <text x="1165" y="355" text-anchor="middle" class="heading">4. Online</text>
  <text x="1165" y="375" text-anchor="middle" class="text-sm">Auto-sync</text>

  <!-- Arrow -->
  <line x1="1215" y1="360" x2="1240" y2="360" stroke="#22c55e" stroke-width="2" marker-end="url(#arrowhead-green)"/>

  <!-- Step 5 -->
  <rect x="1240" y="330" width="100" height="60" rx="6" fill="#334155" stroke="#22c55e" stroke-width="2"/>
  <text x="1290" y="355" text-anchor="middle" class="heading" fill="#22c55e">5. Deliver</text>
  <text x="1290" y="375" text-anchor="middle" class="text-sm">Send queued</text>

  <!-- Flow labels -->
  <text x="1020" y="410" text-anchor="middle" class="annotation">FR-017 → FR-017 → FR-019 → FR-018 → FR-002</text>
  <text x="1020" y="435" text-anchor="middle" class="text-muted">Relies on PWA Background Sync (Feature 020)</text>

  <!-- ===== VALIDATION SCHEMA ===== -->
  <text x="60" y="480" class="label-section">VALIDATION SCHEMA (ZOD)</text>
  <rect x="40" y="490" width="400" height="180" rx="8" fill="#1e293b" stroke="#475569" stroke-width="1"/>

  <rect x="60" y="510" width="360" height="145" rx="6" fill="#334155"/>
  <text x="80" y="535" class="text-sm" fill="#22c55e">const contactSchema = z.object({</text>
  <text x="100" y="555" class="text-sm">name: z.string().min(2),</text>
  <text x="100" y="575" class="text-sm">email: z.string().email(),</text>
  <text x="100" y="595" class="text-sm">subject: z.string().optional(),</text>
  <text x="100" y="615" class="text-sm">message: z.string().min(10).max(2000),</text>
  <text x="100" y="635" class="text-sm" fill="#ef4444">honeypot: z.string().max(0), // spam trap</text>
  <text x="80" y="655" class="text-sm" fill="#22c55e">});</text>

  <!-- ===== ERROR HANDLING ===== -->
  <text x="480" y="480" class="label-section">ERROR HANDLING</text>
  <rect x="460" y="490" width="400" height="180" rx="8" fill="#1e293b" stroke="#475569" stroke-width="1"/>

  <!-- Error types -->
  <rect x="480" y="510" width="170" height="145" rx="6" fill="#334155"/>
  <text x="565" y="535" text-anchor="middle" class="heading">Error Types</text>

  <rect x="495" y="550" width="140" height="22" rx="4" fill="#fee2e2"/>
  <text x="565" y="566" text-anchor="middle" class="text-sm" fill="#991b1b">validation_error</text>

  <rect x="495" y="580" width="140" height="22" rx="4" fill="#fef3c7"/>
  <text x="565" y="596" text-anchor="middle" class="text-sm" fill="#92400e">network_error</text>

  <rect x="495" y="610" width="140" height="22" rx="4" fill="#fee2e2"/>
  <text x="565" y="626" text-anchor="middle" class="text-sm" fill="#991b1b">api_error</text>

  <!-- Handling strategy -->
  <rect x="670" y="510" width="170" height="145" rx="6" fill="#334155"/>
  <text x="755" y="535" text-anchor="middle" class="heading">Strategy</text>

  <rect x="685" y="550" width="140" height="22" rx="4" fill="#475569"/>
  <text x="755" y="566" text-anchor="middle" class="text-sm">Show inline errors</text>

  <rect x="685" y="580" width="140" height="22" rx="4" fill="#475569"/>
  <text x="755" y="596" text-anchor="middle" class="text-sm">Queue for retry</text>

  <rect x="685" y="610" width="140" height="22" rx="4" fill="#475569"/>
  <text x="755" y="626" text-anchor="middle" class="text-sm">Toast + retry option</text>

  <!-- ===== SECURITY LAYER ===== -->
  <text x="900" y="480" class="label-section">SECURITY MEASURES</text>
  <rect x="880" y="490" width="480" height="180" rx="8" fill="#1e293b" stroke="#475569" stroke-width="1"/>

  <!-- CSP -->
  <rect x="900" y="510" width="140" height="75" rx="6" fill="#334155" stroke="#8b5cf6" stroke-width="1"/>
  <text x="970" y="535" text-anchor="middle" class="heading">CSP Headers</text>
  <text x="970" y="555" text-anchor="middle" class="text-sm">form-action</text>
  <text x="970" y="575" text-anchor="middle" class="text-muted">'self' api.web3forms</text>

  <!-- Input sanitization -->
  <rect x="1060" y="510" width="140" height="75" rx="6" fill="#334155" stroke="#22c55e" stroke-width="1"/>
  <text x="1130" y="535" text-anchor="middle" class="heading">Sanitization</text>
  <text x="1130" y="555" text-anchor="middle" class="text-sm">DOMPurify</text>
  <text x="1130" y="575" text-anchor="middle" class="text-muted">XSS prevention</text>

  <!-- No secrets client-side -->
  <rect x="1220" y="510" width="120" height="75" rx="6" fill="#334155" stroke="#ef4444" stroke-width="1"/>
  <text x="1280" y="535" text-anchor="middle" class="heading" fill="#ef4444">No Secrets</text>
  <text x="1280" y="555" text-anchor="middle" class="text-sm">API key in</text>
  <text x="1280" y="575" text-anchor="middle" class="text-muted">env only</text>

  <!-- HTTPS only -->
  <rect x="900" y="595" width="220" height="55" rx="6" fill="#334155"/>
  <text x="1010" y="620" text-anchor="middle" class="heading">HTTPS Only</text>
  <text x="1010" y="640" text-anchor="middle" class="text-sm">All requests encrypted in transit</text>

  <!-- No server storage -->
  <rect x="1140" y="595" width="200" height="55" rx="6" fill="#334155"/>
  <text x="1240" y="620" text-anchor="middle" class="heading">No Server Storage</text>
  <text x="1240" y="640" text-anchor="middle" class="text-sm">Data sent directly to email</text>

  <!-- Legend -->
  <rect x="40" y="690" width="200" height="90" rx="6" fill="#1e293b" stroke="#475569" stroke-width="1"/>
  <text x="60" y="715" class="heading">Legend</text>
  <circle cx="55" cy="735" r="6" fill="#8b5cf6"/>
  <text x="70" y="739" class="text-sm">React Component</text>
  <circle cx="55" cy="755" r="6" fill="#22c55e"/>
  <text x="70" y="759" class="text-sm">External API</text>
  <circle cx="55" cy="775" r="6" fill="#f59e0b"/>
  <text x="70" y="779" class="text-sm">Storage/Queue</text>
  <circle cx="145" cy="735" r="6" fill="#ef4444"/>
  <text x="160" y="739" class="text-sm">Spam Check</text>
  <circle cx="145" cy="755" r="6" fill="#d946ef"/>
  <text x="160" y="759" class="text-sm">Hook/Logic</text>

  <!-- Dependencies -->
  <rect x="260" y="690" width="240" height="90" rx="6" fill="#1e293b" stroke="#475569" stroke-width="1"/>
  <text x="280" y="715" class="heading">Dependencies</text>
  <text x="280" y="735" class="text-sm">• Feature 020: PWA Background Sync</text>
  <text x="280" y="755" class="text-sm">• Feature 002: Cookie Consent</text>
  <text x="280" y="775" class="text-muted">   (for analytics on submissions)</text>

  <!-- Success Criteria -->
  <rect x="520" y="690" width="300" height="90" rx="6" fill="#1e293b" stroke="#22c55e" stroke-width="1"/>
  <text x="540" y="715" class="heading" fill="#22c55e">Success Criteria</text>
  <text x="540" y="735" class="text-sm">SC-001: 100% valid submissions delivered</text>
  <text x="540" y="755" class="text-sm">SC-003: &lt;3s feedback time</text>
  <text x="540" y="775" class="text-sm">SC-004: 95%+ spam blocked</text>
</svg>
