<!--
  GENERATED BY: /wireframe skill
  SOURCE: features/integrations/022-web3forms-integration/spec.md
  DATE: 2025-12-31
  DO NOT MANUALLY EDIT - Regenerate with /wireframe command
-->
<svg viewBox="0 0 1400 800" xmlns="http://www.w3.org/2000/svg">
  <defs>
    <linearGradient id="bgGrad" x1="0%" y1="0%" x2="100%" y2="100%">
      <stop offset="0%" style="stop-color:#0f172a"/>
      <stop offset="100%" style="stop-color:#1e293b"/>
    </linearGradient>
    <marker id="arrowhead" markerWidth="10" markerHeight="7" refX="9" refY="3.5" orient="auto">
      <polygon points="0 0, 10 3.5, 0 7" fill="#8b5cf6"/>
    </marker>
    <marker id="arrowGreen" markerWidth="10" markerHeight="7" refX="9" refY="3.5" orient="auto">
      <polygon points="0 0, 10 3.5, 0 7" fill="#22c55e"/>
    </marker>
  </defs>

  <!-- Background -->
  <rect width="1400" height="800" fill="url(#bgGrad)"/>

  <!-- Title -->
  <text x="700" y="35" fill="#fff" font-family="system-ui, sans-serif" font-size="20" font-weight="600" text-anchor="middle">022 - Web3Forms Integration: Offline Queue &amp; Sync (FR-017 to FR-019)</text>

  <!-- ==================== ARCHITECTURE DIAGRAM (Top) ==================== -->
  <text x="700" y="70" fill="#94a3b8" font-family="system-ui, sans-serif" font-size="14" text-anchor="middle">Offline Queue Architecture (Integrates with Feature 020 - PWA Background Sync)</text>

  <!-- User/Browser -->
  <g transform="translate(80, 100)">
    <rect x="0" y="0" width="160" height="80" rx="8" fill="#1e293b" stroke="#8b5cf6" stroke-width="2"/>
    <text x="80" y="35" fill="#fff" font-family="system-ui, sans-serif" font-size="13" font-weight="600" text-anchor="middle">User Browser</text>
    <text x="80" y="55" fill="#94a3b8" font-family="system-ui, sans-serif" font-size="10" text-anchor="middle">Contact Form UI</text>
    <rect x="30" y="60" width="100" height="12" rx="2" fill="#8b5cf6" fill-opacity="0.3"/>
  </g>

  <!-- Arrow: User -> Network Check -->
  <line x1="240" y1="140" x2="310" y2="140" stroke="#8b5cf6" stroke-width="2" marker-end="url(#arrowhead)"/>
  <text x="275" y="130" fill="#64748b" font-family="system-ui, sans-serif" font-size="9" text-anchor="middle">submit</text>

  <!-- Network Check -->
  <g transform="translate(320, 105)">
    <polygon points="60,0 120,35 60,70 0,35" fill="#334155" stroke="#f59e0b" stroke-width="2"/>
    <text x="60" y="32" fill="#fff" font-family="system-ui, sans-serif" font-size="10" font-weight="600" text-anchor="middle">Online?</text>
    <text x="60" y="46" fill="#f59e0b" font-family="system-ui, sans-serif" font-size="9" text-anchor="middle">Check</text>
  </g>

  <!-- Arrow: Network Check -> Online Path -->
  <line x1="440" y1="120" x2="540" y2="120" stroke="#22c55e" stroke-width="2" marker-end="url(#arrowGreen)"/>
  <text x="490" y="110" fill="#22c55e" font-family="system-ui, sans-serif" font-size="9" text-anchor="middle">YES</text>

  <!-- Arrow: Network Check -> Offline Path -->
  <line x1="380" y1="175" x2="380" y2="220" stroke="#ef4444" stroke-width="2" marker-end="url(#arrowhead)"/>
  <text x="395" y="200" fill="#ef4444" font-family="system-ui, sans-serif" font-size="9">NO</text>

  <!-- Web3Forms API -->
  <g transform="translate(550, 90)">
    <rect x="0" y="0" width="180" height="60" rx="8" fill="#1e293b" stroke="#22c55e" stroke-width="2"/>
    <text x="90" y="25" fill="#22c55e" font-family="system-ui, sans-serif" font-size="12" font-weight="600" text-anchor="middle">Web3Forms API</text>
    <text x="90" y="45" fill="#94a3b8" font-family="system-ui, sans-serif" font-size="9" text-anchor="middle">api.web3forms.com/submit</text>
  </g>

  <!-- Arrow: API -> Email -->
  <line x1="730" y1="120" x2="820" y2="120" stroke="#22c55e" stroke-width="2" marker-end="url(#arrowGreen)"/>

  <!-- Email Delivery -->
  <g transform="translate(830, 90)">
    <rect x="0" y="0" width="160" height="60" rx="8" fill="#1e293b" stroke="#475569"/>
    <text x="80" y="25" fill="#fff" font-family="system-ui, sans-serif" font-size="12" font-weight="600" text-anchor="middle">Email Inbox</text>
    <text x="80" y="45" fill="#94a3b8" font-family="system-ui, sans-serif" font-size="9" text-anchor="middle">contact@scripthammer.com</text>
  </g>

  <!-- IndexedDB Queue (Offline path) -->
  <g transform="translate(280, 230)">
    <rect x="0" y="0" width="200" height="70" rx="8" fill="#1e293b" stroke="#f59e0b" stroke-width="2"/>
    <text x="100" y="25" fill="#f59e0b" font-family="system-ui, sans-serif" font-size="12" font-weight="600" text-anchor="middle">IndexedDB Queue</text>
    <text x="100" y="45" fill="#94a3b8" font-family="system-ui, sans-serif" font-size="9" text-anchor="middle">contact-form-submissions</text>
    <rect x="20" y="52" width="160" height="10" rx="2" fill="#334155"/>
    <rect x="20" y="52" width="80" height="10" rx="2" fill="#f59e0b" fill-opacity="0.5"/>
  </g>

  <!-- Service Worker -->
  <g transform="translate(550, 230)">
    <rect x="0" y="0" width="180" height="70" rx="8" fill="#334155" stroke="#8b5cf6" stroke-width="2"/>
    <text x="90" y="25" fill="#8b5cf6" font-family="system-ui, sans-serif" font-size="12" font-weight="600" text-anchor="middle">Service Worker</text>
    <text x="90" y="45" fill="#94a3b8" font-family="system-ui, sans-serif" font-size="9" text-anchor="middle">Background Sync API</text>
    <text x="90" y="60" fill="#64748b" font-family="system-ui, sans-serif" font-size="8" text-anchor="middle">(Feature 020 integration)</text>
  </g>

  <!-- Arrow: Queue -> Service Worker -->
  <line x1="480" y1="265" x2="550" y2="265" stroke="#8b5cf6" stroke-width="2" marker-end="url(#arrowhead)"/>
  <text x="515" y="255" fill="#64748b" font-family="system-ui, sans-serif" font-size="8" text-anchor="middle">sync event</text>

  <!-- Arrow: Service Worker -> API (when online) -->
  <path d="M730 250 Q780 220 730 170 L730 150" stroke="#22c55e" stroke-width="2" fill="none" marker-end="url(#arrowGreen)"/>
  <text x="765" y="200" fill="#22c55e" font-family="system-ui, sans-serif" font-size="8">Online!</text>

  <!-- ==================== MOBILE UI STATES (Bottom) ==================== -->
  <line x1="40" y1="330" x2="1360" y2="330" stroke="#334155" stroke-width="1"/>

  <!-- State 1: Offline Submission -->
  <text x="190" y="360" fill="#ef4444" font-family="system-ui, sans-serif" font-size="13" font-weight="600" text-anchor="middle">Offline Submission</text>

  <g transform="translate(40, 380)">
    <!-- Phone frame -->
    <rect x="0" y="0" width="300" height="380" rx="20" fill="#1e293b" stroke="#475569" stroke-width="2"/>

    <!-- Offline Banner -->
    <rect x="10" y="10" width="280" height="30" rx="4" fill="#ef4444"/>
    <circle cx="30" cy="25" r="8" fill="none" stroke="#fff" stroke-width="2"/>
    <line x1="26" y1="21" x2="34" y2="29" stroke="#fff" stroke-width="2"/>
    <text x="50" y="30" fill="#fff" font-family="system-ui, sans-serif" font-size="11" font-weight="500">You're offline</text>

    <!-- Form Preview -->
    <rect x="15" y="50" width="270" height="200" rx="8" fill="#0f172a"/>
    <text x="150" y="80" fill="#94a3b8" font-family="system-ui, sans-serif" font-size="11" text-anchor="middle">[Form Content]</text>

    <!-- Submit with queue indicator -->
    <rect x="15" y="260" width="270" height="44" rx="6" fill="#f59e0b"/>
    <text x="150" y="287" fill="#0f172a" font-family="system-ui, sans-serif" font-size="12" font-weight="600" text-anchor="middle">Queue for Later</text>

    <!-- Confirmation message -->
    <rect x="15" y="320" width="270" height="50" rx="8" fill="#334155" stroke="#22c55e"/>
    <circle cx="40" cy="345" r="12" fill="#22c55e" fill-opacity="0.2"/>
    <text x="40" y="350" fill="#22c55e" font-family="system-ui, sans-serif" font-size="12" text-anchor="middle">✓</text>
    <text x="60" y="340" fill="#22c55e" font-family="system-ui, sans-serif" font-size="10">Message saved!</text>
    <text x="60" y="355" fill="#94a3b8" font-family="system-ui, sans-serif" font-size="9">Will send when online</text>
  </g>

  <!-- State 2: Pending Messages -->
  <text x="565" y="360" fill="#f59e0b" font-family="system-ui, sans-serif" font-size="13" font-weight="600" text-anchor="middle">Pending Queue (FR-019)</text>

  <g transform="translate(415, 380)">
    <!-- Phone frame -->
    <rect x="0" y="0" width="300" height="380" rx="20" fill="#1e293b" stroke="#475569" stroke-width="2"/>

    <!-- Status bar with pending indicator -->
    <rect x="10" y="10" width="280" height="24" rx="4" fill="#0f172a"/>
    <text x="25" y="26" fill="#fff" font-family="system-ui, sans-serif" font-size="10">9:41</text>
    <!-- Pending badge in status -->
    <rect x="200" y="14" width="80" height="16" rx="8" fill="#f59e0b" fill-opacity="0.2" stroke="#f59e0b"/>
    <circle cx="213" cy="22" r="4" fill="#f59e0b"/>
    <text x="255" y="26" fill="#f59e0b" font-family="system-ui, sans-serif" font-size="9" text-anchor="middle">2 pending</text>

    <!-- Contact Form Page -->
    <text x="150" y="60" fill="#fff" font-family="system-ui, sans-serif" font-size="14" font-weight="600" text-anchor="middle">Contact Us</text>

    <!-- Pending Messages Panel -->
    <rect x="15" y="75" width="270" height="110" rx="8" fill="#334155" stroke="#f59e0b"/>
    <text x="30" y="100" fill="#f59e0b" font-family="system-ui, sans-serif" font-size="11" font-weight="600">Pending Messages (2)</text>

    <!-- Message 1 -->
    <rect x="25" y="115" width="250" height="28" rx="4" fill="#0f172a"/>
    <circle cx="40" cy="129" r="6" fill="#f59e0b"/>
    <text x="55" y="133" fill="#cbd5e1" font-family="system-ui, sans-serif" font-size="10">"Question about pricing..."</text>
    <text x="260" y="133" fill="#64748b" font-family="system-ui, sans-serif" font-size="8" text-anchor="end">2m ago</text>

    <!-- Message 2 -->
    <rect x="25" y="148" width="250" height="28" rx="4" fill="#0f172a"/>
    <circle cx="40" cy="162" r="6" fill="#f59e0b"/>
    <text x="55" y="166" fill="#cbd5e1" font-family="system-ui, sans-serif" font-size="10">"Partnership inquiry..."</text>
    <text x="260" y="166" fill="#64748b" font-family="system-ui, sans-serif" font-size="8" text-anchor="end">5m ago</text>

    <!-- Form fields (grayed out) -->
    <rect x="15" y="200" width="270" height="100" rx="8" fill="#0f172a" opacity="0.5"/>
    <text x="150" y="255" fill="#64748b" font-family="system-ui, sans-serif" font-size="10" text-anchor="middle">[New message form]</text>

    <!-- Submit button -->
    <rect x="15" y="315" width="270" height="44" rx="6" fill="#8b5cf6"/>
    <text x="150" y="342" fill="#fff" font-family="system-ui, sans-serif" font-size="12" font-weight="600" text-anchor="middle">Send Message</text>
  </g>

  <!-- State 3: Auto-Sync Success -->
  <text x="940" y="360" fill="#22c55e" font-family="system-ui, sans-serif" font-size="13" font-weight="600" text-anchor="middle">Auto-Sync Complete (FR-018)</text>

  <g transform="translate(790, 380)">
    <!-- Phone frame -->
    <rect x="0" y="0" width="300" height="380" rx="20" fill="#1e293b" stroke="#475569" stroke-width="2"/>

    <!-- Online Banner -->
    <rect x="10" y="10" width="280" height="30" rx="4" fill="#22c55e"/>
    <circle cx="30" cy="25" r="8" fill="#fff" fill-opacity="0.3"/>
    <text x="30" y="29" fill="#fff" font-family="system-ui, sans-serif" font-size="10" text-anchor="middle">✓</text>
    <text x="50" y="30" fill="#fff" font-family="system-ui, sans-serif" font-size="11" font-weight="500">Back online - Syncing...</text>

    <!-- Sync Progress -->
    <rect x="15" y="55" width="270" height="100" rx="8" fill="#334155"/>
    <text x="150" y="80" fill="#fff" font-family="system-ui, sans-serif" font-size="12" font-weight="600" text-anchor="middle">Syncing Queued Messages</text>

    <!-- Progress items -->
    <g transform="translate(25, 95)">
      <circle cx="12" cy="12" r="10" fill="#22c55e"/>
      <text x="12" y="16" fill="#fff" font-family="system-ui, sans-serif" font-size="10" text-anchor="middle">✓</text>
      <text x="30" y="16" fill="#22c55e" font-family="system-ui, sans-serif" font-size="10">Pricing question - Sent!</text>
    </g>
    <g transform="translate(25, 120)">
      <circle cx="12" cy="12" r="10" fill="#22c55e"/>
      <text x="12" y="16" fill="#fff" font-family="system-ui, sans-serif" font-size="10" text-anchor="middle">✓</text>
      <text x="30" y="16" fill="#22c55e" font-family="system-ui, sans-serif" font-size="10">Partnership inquiry - Sent!</text>
    </g>

    <!-- All synced confirmation -->
    <rect x="15" y="170" width="270" height="70" rx="8" fill="#22c55e" fill-opacity="0.1" stroke="#22c55e"/>
    <circle cx="150" cy="195" r="20" fill="#22c55e" fill-opacity="0.2"/>
    <text x="150" y="202" fill="#22c55e" font-family="system-ui, sans-serif" font-size="18" text-anchor="middle">✓</text>
    <text x="150" y="230" fill="#22c55e" font-family="system-ui, sans-serif" font-size="11" text-anchor="middle">All messages delivered!</text>

    <!-- Toast notification -->
    <rect x="15" y="260" width="270" height="50" rx="8" fill="#0f172a" stroke="#22c55e"/>
    <text x="30" y="285" fill="#22c55e" font-family="system-ui, sans-serif" font-size="12">🔔</text>
    <text x="55" y="282" fill="#22c55e" font-family="system-ui, sans-serif" font-size="10">2 queued messages sent</text>
    <text x="55" y="298" fill="#64748b" font-family="system-ui, sans-serif" font-size="9">Automatically synced when connected</text>

    <!-- Form ready -->
    <rect x="15" y="325" width="270" height="44" rx="6" fill="#8b5cf6"/>
    <text x="150" y="352" fill="#fff" font-family="system-ui, sans-serif" font-size="12" font-weight="600" text-anchor="middle">Send New Message</text>
  </g>

  <!-- State 4: Retry Flow -->
  <text x="1240" y="360" fill="#f59e0b" font-family="system-ui, sans-serif" font-size="13" font-weight="600" text-anchor="middle">Retry Logic</text>

  <g transform="translate(1100, 380)">
    <rect x="0" y="0" width="260" height="380" rx="8" fill="#1e293b" stroke="#475569"/>

    <!-- Retry state machine -->
    <text x="130" y="30" fill="#fff" font-family="system-ui, sans-serif" font-size="12" font-weight="600" text-anchor="middle">Queue Item States</text>

    <!-- State: Queued -->
    <rect x="80" y="50" width="100" height="35" rx="4" fill="#334155" stroke="#f59e0b"/>
    <text x="130" y="73" fill="#f59e0b" font-family="system-ui, sans-serif" font-size="10" text-anchor="middle">QUEUED</text>

    <line x1="130" y1="85" x2="130" y2="110" stroke="#8b5cf6" stroke-width="1" marker-end="url(#arrowhead)"/>
    <text x="150" y="102" fill="#64748b" font-family="system-ui, sans-serif" font-size="8">online</text>

    <!-- State: Sending -->
    <rect x="80" y="115" width="100" height="35" rx="4" fill="#334155" stroke="#3b82f6"/>
    <text x="130" y="138" fill="#3b82f6" font-family="system-ui, sans-serif" font-size="10" text-anchor="middle">SENDING</text>

    <!-- Branching -->
    <line x1="80" y1="150" x2="50" y2="180" stroke="#22c55e" stroke-width="1" marker-end="url(#arrowGreen)"/>
    <text x="45" y="170" fill="#22c55e" font-family="system-ui, sans-serif" font-size="8">success</text>

    <line x1="180" y1="150" x2="210" y2="180" stroke="#ef4444" stroke-width="1" marker-end="url(#arrowhead)"/>
    <text x="215" y="170" fill="#ef4444" font-family="system-ui, sans-serif" font-size="8">fail</text>

    <!-- State: Sent -->
    <rect x="10" y="185" width="80" height="35" rx="4" fill="#22c55e" fill-opacity="0.2" stroke="#22c55e"/>
    <text x="50" y="208" fill="#22c55e" font-family="system-ui, sans-serif" font-size="10" text-anchor="middle">SENT</text>

    <!-- State: Failed -->
    <rect x="170" y="185" width="80" height="35" rx="4" fill="#ef4444" fill-opacity="0.2" stroke="#ef4444"/>
    <text x="210" y="208" fill="#ef4444" font-family="system-ui, sans-serif" font-size="10" text-anchor="middle">FAILED</text>

    <!-- Retry arrow -->
    <path d="M210 220 Q210 250 130 250 Q80 250 80 220" stroke="#f59e0b" stroke-width="1" fill="none" marker-end="url(#arrowhead)" stroke-dasharray="3,2"/>
    <text x="130" y="265" fill="#f59e0b" font-family="system-ui, sans-serif" font-size="8" text-anchor="middle">retry (max 3x)</text>

    <!-- Retry config -->
    <rect x="20" y="285" width="220" height="80" rx="4" fill="#0f172a"/>
    <text x="130" y="305" fill="#94a3b8" font-family="system-ui, sans-serif" font-size="10" text-anchor="middle" font-weight="500">Retry Configuration</text>
    <text x="30" y="325" fill="#64748b" font-family="system-ui, sans-serif" font-size="9">• Max attempts: 3</text>
    <text x="30" y="340" fill="#64748b" font-family="system-ui, sans-serif" font-size="9">• Backoff: 5s, 30s, 2m</text>
    <text x="30" y="355" fill="#64748b" font-family="system-ui, sans-serif" font-size="9">• Final fail: notify user</text>
  </g>

  <!-- Feature Requirements -->
  <g transform="translate(40, 770)">
    <text x="0" y="0" fill="#8b5cf6" font-family="system-ui, sans-serif" font-size="11">FR-017</text>
    <text x="55" y="0" fill="#64748b" font-family="system-ui, sans-serif" font-size="10">Queue submissions when offline</text>
    <text x="320" y="0" fill="#8b5cf6" font-family="system-ui, sans-serif" font-size="11">FR-018</text>
    <text x="375" y="0" fill="#64748b" font-family="system-ui, sans-serif" font-size="10">Auto-retry when online</text>
    <text x="600" y="0" fill="#8b5cf6" font-family="system-ui, sans-serif" font-size="11">FR-019</text>
    <text x="655" y="0" fill="#64748b" font-family="system-ui, sans-serif" font-size="10">Show pending count to user</text>
    <text x="920" y="0" fill="#d946ef" font-family="system-ui, sans-serif" font-size="11">Dep: F020</text>
    <text x="995" y="0" fill="#64748b" font-family="system-ui, sans-serif" font-size="10">PWA Background Sync integration</text>
  </g>

  <!-- Watermark -->
  <text x="1380" y="790" fill="#475569" font-family="system-ui, sans-serif" font-size="9" text-anchor="end">ScriptHammer Wireframe</text>
</svg>
