<svg xmlns="http://www.w3.org/2000/svg" viewBox="0 0 1400 800" width="1400" height="800">
  <!-- ============================================================
       GENERATED BY: /wireframe skill
       SOURCE: features/core-features/007-e2e-testing-framework/spec.md
       DATE: 2026-01-01
       THEME: Dark (Backend/Architecture)
       DO NOT MANUALLY EDIT - Regenerate with /wireframe command
       ============================================================ -->
  <defs>
    <linearGradient id="bgGrad" x1="0%" y1="0%" x2="100%" y2="100%">
      <stop offset="0%" style="stop-color:#0f172a"/>
      <stop offset="100%" style="stop-color:#1e293b"/>
    </linearGradient>
    <linearGradient id="accentGrad" x1="0%" y1="0%" x2="100%" y2="0%">
      <stop offset="0%" style="stop-color:#8b5cf6"/>
      <stop offset="100%" style="stop-color:#d946ef"/>
    </linearGradient>
    <linearGradient id="successGrad" x1="0%" y1="0%" x2="100%" y2="0%">
      <stop offset="0%" style="stop-color:#22c55e"/>
      <stop offset="100%" style="stop-color:#16a34a"/>
    </linearGradient>
    <linearGradient id="failGrad" x1="0%" y1="0%" x2="100%" y2="0%">
      <stop offset="0%" style="stop-color:#ef4444"/>
      <stop offset="100%" style="stop-color:#dc2626"/>
    </linearGradient>
    <style>
      .heading-lg { fill: #ffffff; font-family: system-ui, sans-serif; font-size: 20px; font-weight: bold; }
      .heading { fill: #ffffff; font-family: system-ui, sans-serif; font-size: 14px; font-weight: bold; }
      .text-md { fill: #cbd5e1; font-family: system-ui, sans-serif; font-size: 12px; }
      .text-sm { fill: #94a3b8; font-family: system-ui, sans-serif; font-size: 10px; }
      .text-muted { fill: #8494a8; font-family: system-ui, sans-serif; font-size: 10px; }
      .annotation { fill: #8b5cf6; font-family: monospace; font-size: 10px; }
      .code { fill: #22c55e; font-family: monospace; font-size: 10px; }
      .step-num { fill: #ffffff; font-family: system-ui, sans-serif; font-size: 14px; font-weight: bold; }
    </style>
    <!-- Arrow markers -->
    <marker id="arrowPurple" markerWidth="10" markerHeight="7" refX="9" refY="3.5" orient="auto">
      <polygon points="0 0, 10 3.5, 0 7" fill="#8b5cf6"/>
    </marker>
    <marker id="arrowGreen" markerWidth="10" markerHeight="7" refX="9" refY="3.5" orient="auto">
      <polygon points="0 0, 10 3.5, 0 7" fill="#22c55e"/>
    </marker>
    <marker id="arrowRed" markerWidth="10" markerHeight="7" refX="9" refY="3.5" orient="auto">
      <polygon points="0 0, 10 3.5, 0 7" fill="#ef4444"/>
    </marker>
    <marker id="arrowYellow" markerWidth="10" markerHeight="7" refX="9" refY="3.5" orient="auto">
      <polygon points="0 0, 10 3.5, 0 7" fill="#eab308"/>
    </marker>
  </defs>

  <!-- Background -->
  <rect width="1400" height="800" fill="url(#bgGrad)"/>

  <!-- Dot grid pattern -->
  <g opacity="0.05">
    <pattern id="dots" width="30" height="30" patternUnits="userSpaceOnUse">
      <circle cx="15" cy="15" r="1" fill="#fff"/>
    </pattern>
    <rect width="1400" height="800" fill="url(#dots)"/>
  </g>

  <!-- Accent line top -->
  <rect x="0" y="0" width="1400" height="3" fill="url(#accentGrad)"/>

  <!-- Title -->
  <text x="700" y="28" text-anchor="middle" font-family="system-ui, sans-serif" font-size="14" font-weight="600" fill="#8494a8" letter-spacing="1">E2E TEST EXECUTION FLOW</text>

  <!-- ==================== LOCAL DEVELOPMENT FLOW (Top Section) ==================== -->
  <text x="60" y="65" class="heading-lg">Local Development</text>
  <rect x="40" y="80" width="1320" height="200" rx="8" fill="#1e293b" stroke="#475569" stroke-width="1"/>

  <!-- Step 1: Developer -->
  <g id="step1-local">
    <circle cx="120" cy="160" r="30" fill="#334155" stroke="#8b5cf6" stroke-width="2"/>
    <text x="120" y="165" text-anchor="middle" class="step-num">1</text>
    <text x="120" y="210" text-anchor="middle" class="heading">Developer</text>
    <text x="120" y="228" text-anchor="middle" class="code">npm run test:e2e</text>
    <text x="120" y="248" text-anchor="middle" class="text-muted">or :chrome, :ui</text>
  </g>

  <!-- Arrow 1→2 -->
  <path d="M150 160 L230 160" stroke="#8b5cf6" stroke-width="2" fill="none" marker-end="url(#arrowPurple)"/>

  <!-- Step 2: Dev Server Start -->
  <g id="step2-local">
    <rect x="240" y="120" width="140" height="80" rx="6" fill="#334155" stroke="#22c55e" stroke-width="2"/>
    <text x="310" y="150" text-anchor="middle" class="heading">Dev Server</text>
    <text x="310" y="170" text-anchor="middle" class="text-md">localhost:3000</text>
    <text x="310" y="188" text-anchor="middle" class="text-muted">Auto-start</text>
  </g>

  <!-- Arrow 2→3 -->
  <path d="M380 160 L430 160" stroke="#8b5cf6" stroke-width="2" fill="none" marker-end="url(#arrowPurple)"/>

  <!-- Step 3: Playwright Runs -->
  <g id="step3-local">
    <rect x="440" y="100" width="180" height="120" rx="6" fill="#334155" stroke="#8b5cf6" stroke-width="2"/>
    <text x="530" y="130" text-anchor="middle" class="heading">Playwright</text>
    <text x="530" y="155" text-anchor="middle" class="text-md">Parallel Execution</text>
    <text x="460" y="180" class="text-sm">• Chrome ✓</text>
    <text x="460" y="198" class="text-sm">• Firefox ✓</text>
    <text x="545" y="180" class="text-sm">• Safari ✓</text>
    <text x="545" y="198" class="text-sm">• Mobile ✓</text>
  </g>

  <!-- Arrow 3→4 (success path) -->
  <path d="M620 130 L700 100 L780 100" stroke="#22c55e" stroke-width="2" fill="none" marker-end="url(#arrowGreen)"/>
  <!-- Arrow 3→5 (failure path) -->
  <path d="M620 190 L700 220 L780 220" stroke="#ef4444" stroke-width="2" fill="none" marker-end="url(#arrowRed)"/>

  <!-- Step 4: Tests Pass -->
  <g id="step4-local">
    <rect x="790" y="80" width="160" height="60" rx="6" fill="#22c55e" fill-opacity="0.15" stroke="#22c55e" stroke-width="2"/>
    <text x="870" y="105" text-anchor="middle" fill="#22c55e" font-size="14" font-weight="bold">✓ Tests Pass</text>
    <text x="870" y="125" text-anchor="middle" class="text-sm">&lt; 5 min target</text>
  </g>

  <!-- Step 5: Tests Fail -->
  <g id="step5-local">
    <rect x="790" y="180" width="160" height="80" rx="6" fill="#ef4444" fill-opacity="0.15" stroke="#ef4444" stroke-width="2"/>
    <text x="870" y="205" text-anchor="middle" fill="#ef4444" font-size="14" font-weight="bold">✗ Tests Fail</text>
    <text x="870" y="225" text-anchor="middle" class="text-sm">Screenshots captured</text>
    <text x="870" y="243" text-anchor="middle" class="text-sm">Traces recorded</text>
  </g>

  <!-- Arrow to debug -->
  <path d="M950 220 L1020 220" stroke="#eab308" stroke-width="2" fill="none" marker-end="url(#arrowYellow)"/>

  <!-- Step 6: Debug Mode -->
  <g id="step6-local">
    <rect x="1030" y="160" width="160" height="100" rx="6" fill="#334155" stroke="#eab308" stroke-width="2"/>
    <text x="1110" y="190" text-anchor="middle" class="heading">Debug Mode</text>
    <text x="1050" y="215" class="text-sm">• UI Mode</text>
    <text x="1050" y="233" class="text-sm">• Step-through</text>
    <text x="1050" y="251" class="text-sm">• DevTools</text>
  </g>

  <!-- Report output -->
  <g id="report-local">
    <rect x="1210" y="100" width="130" height="80" rx="6" fill="#1e293b" stroke="#d946ef" stroke-width="2"/>
    <text x="1275" y="130" text-anchor="middle" fill="#d946ef" font-size="12" font-weight="bold">HTML Report</text>
    <text x="1275" y="150" text-anchor="middle" class="text-sm">playwright-report/</text>
    <text x="1275" y="168" text-anchor="middle" class="code">npm run test:e2e:report</text>
  </g>

  <!-- Arrow from pass to report -->
  <path d="M950 110 L1210 140" stroke="#d946ef" stroke-width="2" stroke-dasharray="4,2" fill="none" marker-end="url(#arrowPurple)"/>

  <!-- ==================== CI/CD FLOW (Bottom Section) ==================== -->
  <text x="60" y="320" class="heading-lg">CI/CD Pipeline (GitHub Actions)</text>
  <rect x="40" y="335" width="1320" height="280" rx="8" fill="#1e293b" stroke="#475569" stroke-width="1"/>

  <!-- Step 1: PR Opened -->
  <g id="step1-ci">
    <rect x="80" y="365" width="140" height="80" rx="6" fill="#334155" stroke="#8b5cf6" stroke-width="2"/>
    <text x="150" y="395" text-anchor="middle" class="heading">Pull Request</text>
    <text x="150" y="415" text-anchor="middle" class="text-md">Opened/Updated</text>
    <text x="150" y="435" text-anchor="middle" class="text-muted">Triggers workflow</text>
  </g>

  <!-- Arrow 1→2 -->
  <path d="M220 405 L270 405" stroke="#8b5cf6" stroke-width="2" fill="none" marker-end="url(#arrowPurple)"/>

  <!-- Step 2: Install Browsers -->
  <g id="step2-ci">
    <rect x="280" y="365" width="140" height="80" rx="6" fill="#334155" stroke="#475569" stroke-width="1"/>
    <text x="350" y="395" text-anchor="middle" class="heading">Setup</text>
    <text x="350" y="415" text-anchor="middle" class="text-md">Install Browsers</text>
    <text x="350" y="435" text-anchor="middle" class="code">npx playwright install</text>
  </g>

  <!-- Arrow 2→3 -->
  <path d="M420 405 L470 405" stroke="#8b5cf6" stroke-width="2" fill="none" marker-end="url(#arrowPurple)"/>

  <!-- Step 3: Run Tests -->
  <g id="step3-ci">
    <rect x="480" y="355" width="180" height="100" rx="6" fill="#334155" stroke="#8b5cf6" stroke-width="2"/>
    <text x="570" y="385" text-anchor="middle" class="heading">Execute Tests</text>
    <text x="570" y="408" text-anchor="middle" class="text-md">All 3 browsers + mobile</text>
    <text x="570" y="428" text-anchor="middle" class="text-sm">Parallel workers</text>
    <text x="570" y="448" text-anchor="middle" class="text-muted">&lt; 10 min target</text>
  </g>

  <!-- Branch: Pass/Fail -->
  <path d="M660 380 L740 350" stroke="#22c55e" stroke-width="2" fill="none"/>
  <path d="M660 430 L740 460" stroke="#ef4444" stroke-width="2" fill="none"/>

  <!-- Step 4a: Tests Pass -->
  <g id="step4a-ci">
    <rect x="750" y="320" width="160" height="60" rx="6" fill="#22c55e" fill-opacity="0.15" stroke="#22c55e" stroke-width="2"/>
    <text x="830" y="345" text-anchor="middle" fill="#22c55e" font-size="14" font-weight="bold">✓ All Pass</text>
    <text x="830" y="365" text-anchor="middle" class="text-sm">PR can merge</text>
  </g>

  <!-- Step 4b: Tests Fail -->
  <g id="step4b-ci">
    <rect x="750" y="420" width="160" height="100" rx="6" fill="#ef4444" fill-opacity="0.15" stroke="#ef4444" stroke-width="2"/>
    <text x="830" y="445" text-anchor="middle" fill="#ef4444" font-size="14" font-weight="bold">✗ Failure</text>
    <text x="830" y="470" text-anchor="middle" class="text-sm">Retry up to 2x</text>
    <text x="830" y="490" text-anchor="middle" class="text-sm">Capture artifacts</text>
    <text x="830" y="508" text-anchor="middle" class="text-muted">Block merge</text>
  </g>

  <!-- Arrow to retry loop -->
  <path d="M910 470 L940 470 L940 405 L660 405" stroke="#eab308" stroke-width="2" stroke-dasharray="4,2" fill="none" marker-end="url(#arrowYellow)"/>
  <text x="945" y="440" class="annotation">Retry</text>

  <!-- Step 5: Artifacts -->
  <g id="step5-ci">
    <rect x="980" y="370" width="180" height="130" rx="6" fill="#334155" stroke="#d946ef" stroke-width="2"/>
    <text x="1070" y="400" text-anchor="middle" fill="#d946ef" font-size="14" font-weight="bold">Upload Artifacts</text>
    <text x="1000" y="428" class="text-sm">• Screenshots</text>
    <text x="1000" y="448" class="text-sm">• Videos (on failure)</text>
    <text x="1000" y="468" class="text-sm">• Traces (on retry)</text>
    <text x="1000" y="488" class="text-sm">• HTML Report</text>
  </g>

  <!-- Arrow from fail to artifacts -->
  <path d="M910 470 L980 470" stroke="#d946ef" stroke-width="2" fill="none" marker-end="url(#arrowPurple)"/>

  <!-- Step 6: Results -->
  <g id="step6-ci">
    <rect x="1200" y="370" width="140" height="130" rx="6" fill="#1e293b" stroke="#475569" stroke-width="1"/>
    <text x="1270" y="400" text-anchor="middle" class="heading">PR Status</text>
    <text x="1220" y="428" class="text-sm">• Pass/Fail badge</text>
    <text x="1220" y="448" class="text-sm">• Execution time</text>
    <text x="1220" y="468" class="text-sm">• Browser coverage</text>
    <text x="1220" y="488" class="text-sm">• Artifact links</text>
  </g>

  <!-- Arrow from artifacts to results -->
  <path d="M1160 435 L1200 435" stroke="#8b5cf6" stroke-width="2" fill="none" marker-end="url(#arrowPurple)"/>
  <!-- Arrow from pass to results -->
  <path d="M910 350 L1200 400" stroke="#22c55e" stroke-width="2" stroke-dasharray="4,2" fill="none" marker-end="url(#arrowGreen)"/>

  <!-- ==================== SUCCESS CRITERIA (Bottom) ==================== -->
  <text x="60" y="655" class="heading-lg">Success Criteria</text>
  <rect x="40" y="670" width="1320" height="110" rx="8" fill="#1e293b" stroke="#475569" stroke-width="1"/>

  <g id="criteria">
    <!-- SC-001 -->
    <rect x="70" y="695" width="180" height="60" rx="6" fill="#334155" stroke="#22c55e" stroke-width="1"/>
    <text x="160" y="718" text-anchor="middle" class="heading">SC-001</text>
    <text x="160" y="738" text-anchor="middle" class="text-md">Local: &lt; 5 min</text>

    <!-- SC-002 -->
    <rect x="270" y="695" width="180" height="60" rx="6" fill="#334155" stroke="#22c55e" stroke-width="1"/>
    <text x="360" y="718" text-anchor="middle" class="heading">SC-002</text>
    <text x="360" y="738" text-anchor="middle" class="text-md">CI: &lt; 10 min</text>

    <!-- SC-003 -->
    <rect x="470" y="695" width="180" height="60" rx="6" fill="#334155" stroke="#8b5cf6" stroke-width="1"/>
    <text x="560" y="718" text-anchor="middle" class="heading">SC-003</text>
    <text x="560" y="738" text-anchor="middle" class="text-md">3 Browsers ✓</text>

    <!-- SC-005 -->
    <rect x="670" y="695" width="180" height="60" rx="6" fill="#334155" stroke="#eab308" stroke-width="1"/>
    <text x="760" y="718" text-anchor="middle" class="heading">SC-005</text>
    <text x="760" y="738" text-anchor="middle" class="text-md">Flaky &lt; 5%</text>

    <!-- SC-006 -->
    <rect x="870" y="695" width="180" height="60" rx="6" fill="#334155" stroke="#d946ef" stroke-width="1"/>
    <text x="960" y="718" text-anchor="middle" class="heading">SC-006</text>
    <text x="960" y="738" text-anchor="middle" class="text-md">100% PRs tested</text>

    <!-- SC-008 -->
    <rect x="1070" y="695" width="180" height="60" rx="6" fill="#334155" stroke="#5ac8fa" stroke-width="1"/>
    <text x="1160" y="718" text-anchor="middle" class="heading">SC-008</text>
    <text x="1160" y="738" text-anchor="middle" class="text-md">Single command</text>
  </g>

</svg>
