<svg xmlns="http://www.w3.org/2000/svg" viewBox="0 0 1400 800" width="1400" height="800">
  <!-- ============================================================
       GENERATED BY: /wireframe skill
       SOURCE: features/integrations/024-payment-integration/spec.md
       DATE: 2025-12-31
       DO NOT MANUALLY EDIT - Regenerate with /wireframe command
       ============================================================ -->
  <defs>
    <linearGradient id="bgGrad" x1="0%" y1="0%" x2="100%" y2="100%">
      <stop offset="0%" style="stop-color:#0f172a"/>
      <stop offset="100%" style="stop-color:#1e293b"/>
    </linearGradient>
    <linearGradient id="accentGrad" x1="0%" y1="0%" x2="100%" y2="0%">
      <stop offset="0%" style="stop-color:#8b5cf6"/>
      <stop offset="100%" style="stop-color:#d946ef"/>
    </linearGradient>
    <style>
      .heading-lg { fill: #ffffff; font-family: system-ui, sans-serif; font-size: 20px; font-weight: bold; }
      .heading { fill: #ffffff; font-family: system-ui, sans-serif; font-size: 14px; font-weight: bold; }
      .text-md { fill: #cbd5e1; font-family: system-ui, sans-serif; font-size: 12px; }
      .text-sm { fill: #94a3b8; font-family: system-ui, sans-serif; font-size: 10px; }
      .text-muted { fill: #64748b; font-family: system-ui, sans-serif; font-size: 10px; }
      .annotation { fill: #8b5cf6; font-family: monospace; font-size: 10px; }
      .label-desktop { fill: #8b5cf6; font-family: monospace; font-size: 11px; font-weight: bold; }
      .label-mobile { fill: #d946ef; font-family: monospace; font-size: 11px; font-weight: bold; }
    </style>
  </defs>

  <!-- Background -->
  <rect width="1400" height="800" fill="url(#bgGrad)"/>

  <!-- Dot grid pattern -->
  <g opacity="0.05">
    <pattern id="dots" width="30" height="30" patternUnits="userSpaceOnUse">
      <circle cx="15" cy="15" r="1" fill="#fff"/>
    </pattern>
    <rect width="1400" height="800" fill="url(#dots)"/>
  </g>

  <!-- Accent line top -->
  <rect x="0" y="0" width="1400" height="3" fill="url(#accentGrad)"/>

  <!-- Title -->
  <text x="700" y="28" text-anchor="middle" font-family="system-ui, sans-serif" font-size="14" font-weight="600" fill="#64748b" letter-spacing="1">ONE-TIME PAYMENT FLOW</text>

  <!-- DESKTOP SECTION -->
  <text x="40" y="52" class="label-desktop">DESKTOP</text>
  <g id="desktop-view">
    <!-- Header -->
    <rect x="40" y="60" width="900" height="50" rx="8" fill="#1e293b"/>
    <text x="60" y="90" class="heading">ScriptHammer</text>
    <text x="860" y="90" class="text-sm">john@example.com</text>

    <!-- Main content area -->
    <rect x="40" y="120" width="900" height="620" rx="8" fill="#1e293b" stroke="#475569" stroke-width="1"/>

    <!-- Page title -->
    <text x="60" y="155" class="heading-lg">Make a Donation</text>
    <text x="60" y="175" class="text-md">Support our mission with a one-time contribution</text>

    <!-- Amount Selection Section -->
    <text x="60" y="210" class="heading">Select Amount</text>

    <!-- Preset amounts -->
    <g id="amount-buttons">
      <rect x="60" y="225" width="100" height="50" rx="8" fill="#334155" stroke="#475569" stroke-width="1"/>
      <text x="110" y="255" text-anchor="middle" class="heading">$10</text>

      <rect x="170" y="225" width="100" height="50" rx="8" fill="#8b5cf6" stroke="#8b5cf6" stroke-width="2"/>
      <text x="220" y="255" text-anchor="middle" class="heading">$25</text>

      <rect x="280" y="225" width="100" height="50" rx="8" fill="#334155" stroke="#475569" stroke-width="1"/>
      <text x="330" y="255" text-anchor="middle" class="heading">$50</text>

      <rect x="390" y="225" width="100" height="50" rx="8" fill="#334155" stroke="#475569" stroke-width="1"/>
      <text x="440" y="255" text-anchor="middle" class="heading">$100</text>
    </g>

    <!-- Custom amount input -->
    <text x="510" y="245" class="text-sm">or enter custom:</text>
    <rect x="510" y="250" width="120" height="36" rx="6" fill="#0f172a" stroke="#475569" stroke-width="1"/>
    <text x="525" y="273" class="text-muted">$</text>
    <text x="545" y="273" class="text-md">___</text>

    <!-- Currency selector -->
    <rect x="640" y="250" width="80" height="36" rx="6" fill="#334155" stroke="#475569" stroke-width="1"/>
    <text x="660" y="273" class="text-md">USD ▼</text>

    <!-- Payment Provider Section -->
    <text x="60" y="320" class="heading">Payment Method</text>
    <text x="60" y="340" class="text-sm">Select your preferred payment provider</text>

    <!-- Provider options -->
    <g id="provider-options">
      <!-- Stripe -->
      <rect x="60" y="355" width="200" height="70" rx="8" fill="#334155" stroke="#8b5cf6" stroke-width="2"/>
      <rect x="75" y="370" width="40" height="25" rx="4" fill="#635bff"/>
      <text x="85" y="388" fill="#fff" font-size="10" font-weight="bold">stripe</text>
      <text x="130" y="385" class="heading">Credit Card</text>
      <text x="130" y="405" class="text-sm">Visa, Mastercard, Amex</text>

      <!-- PayPal -->
      <rect x="270" y="355" width="200" height="70" rx="8" fill="#334155" stroke="#475569" stroke-width="1"/>
      <rect x="285" y="370" width="40" height="25" rx="4" fill="#003087"/>
      <text x="295" y="388" fill="#fff" font-size="9" font-weight="bold">PayPal</text>
      <text x="340" y="385" class="heading">PayPal</text>
      <text x="340" y="405" class="text-sm">Pay with PayPal account</text>

      <!-- Bank Transfer -->
      <rect x="480" y="355" width="200" height="70" rx="8" fill="#334155" stroke="#475569" stroke-width="1"/>
      <rect x="495" y="370" width="40" height="25" rx="4" fill="#22c55e"/>
      <text x="502" y="388" fill="#fff" font-size="10">🏦</text>
      <text x="550" y="385" class="heading">Bank Transfer</text>
      <text x="550" y="405" class="text-sm">Direct ACH transfer</text>
    </g>

    <!-- Order Summary -->
    <rect x="60" y="450" width="660" height="120" rx="8" fill="#0f172a" stroke="#475569" stroke-width="1"/>
    <text x="80" y="480" class="heading">Order Summary</text>

    <text x="80" y="510" class="text-md">Donation Amount</text>
    <text x="680" y="510" text-anchor="end" class="text-md">$25.00</text>

    <line x1="80" y1="530" x2="700" y2="530" stroke="#475569" stroke-width="1"/>

    <text x="80" y="555" class="heading">Total</text>
    <text x="680" y="555" text-anchor="end" class="heading-lg">$25.00</text>

    <!-- Pay button -->
    <rect x="60" y="590" width="660" height="50" rx="8" fill="url(#accentGrad)"/>
    <text x="390" y="622" text-anchor="middle" fill="#fff" font-family="system-ui, sans-serif" font-size="16" font-weight="bold">Complete Payment</text>

    <!-- Security badges -->
    <g transform="translate(60, 660)">
      <rect x="0" y="0" width="24" height="24" rx="4" fill="#334155"/>
      <text x="12" y="17" text-anchor="middle" fill="#22c55e" font-size="12">🔒</text>
      <text x="34" y="16" class="text-sm">SSL Secured</text>

      <rect x="120" y="0" width="24" height="24" rx="4" fill="#334155"/>
      <text x="132" y="17" text-anchor="middle" fill="#8b5cf6" font-size="12">✓</text>
      <text x="154" y="16" class="text-sm">PCI Compliant</text>

      <rect x="260" y="0" width="24" height="24" rx="4" fill="#334155"/>
      <text x="272" y="17" text-anchor="middle" fill="#eab308" font-size="12">🛡</text>
      <text x="294" y="16" class="text-sm">GDPR Compliant</text>
    </g>

    <!-- Consent Modal Overlay (semi-transparent) -->
    <rect x="740" y="120" width="200" height="300" rx="8" fill="#0f172a" stroke="#8b5cf6" stroke-width="2"/>
    <text x="840" y="150" text-anchor="middle" class="heading">Privacy Consent</text>

    <text x="755" y="180" class="text-sm">To process payments, we need</text>
    <text x="755" y="195" class="text-sm">to load scripts from:</text>

    <rect x="755" y="210" width="170" height="30" rx="4" fill="#334155"/>
    <text x="765" y="230" class="text-sm">✓ Stripe (stripe.com)</text>

    <rect x="755" y="250" width="170" height="30" rx="4" fill="#334155"/>
    <text x="765" y="270" class="text-sm">✓ PayPal (paypal.com)</text>

    <text x="755" y="310" class="text-muted">These services may set cookies</text>
    <text x="755" y="325" class="text-muted">and collect payment data.</text>

    <rect x="755" y="350" width="80" height="32" rx="6" fill="url(#accentGrad)"/>
    <text x="795" y="371" text-anchor="middle" fill="#fff" font-size="11" font-weight="bold">Accept</text>

    <rect x="845" y="350" width="80" height="32" rx="6" fill="#334155" stroke="#475569" stroke-width="1"/>
    <text x="885" y="371" text-anchor="middle" class="text-md">Decline</text>
  </g>

  <!-- MOBILE SECTION -->
  <text x="980" y="52" class="label-mobile">MOBILE</text>
  <g id="mobile-view" transform="translate(980, 60)">
    <!-- Phone frame -->
    <rect x="0" y="0" width="360" height="700" rx="24" fill="#1e293b" stroke="#475569" stroke-width="2"/>
    <rect x="10" y="10" width="340" height="680" rx="16" fill="#0f172a"/>

    <!-- Status bar -->
    <rect x="10" y="10" width="340" height="28" rx="16" fill="#1e293b"/>
    <text x="30" y="28" class="text-sm">9:41</text>
    <text x="310" y="28" class="text-sm">100%</text>

    <!-- Header -->
    <rect x="20" y="48" width="320" height="44" rx="8" fill="#1e293b"/>
    <text x="35" y="75" class="text-md">←</text>
    <text x="180" y="75" text-anchor="middle" class="heading">Donate</text>

    <!-- Amount section -->
    <text x="30" y="115" class="heading">Select Amount</text>

    <!-- Preset amounts - 2x2 grid -->
    <rect x="30" y="130" width="150" height="45" rx="8" fill="#334155" stroke="#475569" stroke-width="1"/>
    <text x="105" y="158" text-anchor="middle" class="heading">$10</text>

    <rect x="190" y="130" width="150" height="45" rx="8" fill="#8b5cf6"/>
    <text x="265" y="158" text-anchor="middle" class="heading">$25</text>

    <rect x="30" y="185" width="150" height="45" rx="8" fill="#334155" stroke="#475569" stroke-width="1"/>
    <text x="105" y="213" text-anchor="middle" class="heading">$50</text>

    <rect x="190" y="185" width="150" height="45" rx="8" fill="#334155" stroke="#475569" stroke-width="1"/>
    <text x="265" y="213" text-anchor="middle" class="heading">$100</text>

    <!-- Custom amount -->
    <rect x="30" y="245" width="310" height="40" rx="6" fill="#1e293b" stroke="#475569" stroke-width="1"/>
    <text x="50" y="270" class="text-muted">$ Custom amount</text>

    <!-- Payment method -->
    <text x="30" y="315" class="heading">Payment Method</text>

    <!-- Stripe option -->
    <rect x="30" y="330" width="310" height="55" rx="8" fill="#334155" stroke="#8b5cf6" stroke-width="2"/>
    <rect x="45" y="345" width="30" height="20" rx="4" fill="#635bff"/>
    <text x="52" y="360" fill="#fff" font-size="8">stripe</text>
    <text x="90" y="355" class="heading">Credit Card</text>
    <text x="90" y="372" class="text-sm">Visa, MC, Amex</text>
    <circle cx="315" cy="357" r="10" fill="#8b5cf6"/>
    <text x="315" y="362" text-anchor="middle" fill="#fff" font-size="12">✓</text>

    <!-- PayPal option -->
    <rect x="30" y="395" width="310" height="55" rx="8" fill="#334155" stroke="#475569" stroke-width="1"/>
    <rect x="45" y="410" width="30" height="20" rx="4" fill="#003087"/>
    <text x="52" y="425" fill="#fff" font-size="7">PayPal</text>
    <text x="90" y="420" class="heading">PayPal</text>
    <text x="90" y="437" class="text-sm">Pay with account</text>
    <circle cx="315" cy="422" r="10" fill="none" stroke="#475569" stroke-width="1"/>

    <!-- Summary -->
    <rect x="30" y="470" width="310" height="80" rx="8" fill="#1e293b" stroke="#475569" stroke-width="1"/>
    <text x="50" y="495" class="text-sm">Donation</text>
    <text x="310" y="495" text-anchor="end" class="text-md">$25.00</text>
    <line x1="50" y1="510" x2="320" y2="510" stroke="#475569" stroke-width="1"/>
    <text x="50" y="535" class="heading">Total</text>
    <text x="310" y="535" text-anchor="end" class="heading-lg">$25.00</text>

    <!-- Pay button -->
    <rect x="30" y="570" width="310" height="48" rx="8" fill="url(#accentGrad)"/>
    <text x="185" y="600" text-anchor="middle" fill="#fff" font-family="system-ui, sans-serif" font-size="14" font-weight="bold">Complete Payment</text>

    <!-- Security -->
    <g transform="translate(100, 635)">
      <text x="0" y="0" fill="#22c55e" font-size="12">🔒</text>
      <text x="20" y="0" class="text-sm">Secure Payment</text>
      <text x="115" y="0" class="text-muted">•</text>
      <text x="125" y="0" class="text-sm">PCI Compliant</text>
    </g>

    <!-- Bottom safe area -->
    <rect x="130" y="675" width="100" height="5" rx="2" fill="#475569"/>
  </g>
</svg>