<svg xmlns="http://www.w3.org/2000/svg" viewBox="0 0 1400 800" width="1400" height="800">
  <!-- ============================================================
       GENERATED BY: /wireframe skill
       SOURCE: features/integrations/024-payment-integration/spec.md
       DATE: 2026-01-01
       THEME: Light (UX/Frontend) - v3 True Parchment
       DO NOT MANUALLY EDIT - Regenerate with /wireframe command
       ============================================================ -->
  <defs>
    <linearGradient id="bgGrad" x1="0%" y1="0%" x2="100%" y2="100%">
      <stop offset="0%" style="stop-color:#c7ddf5"/>
      <stop offset="100%" style="stop-color:#b8d4f0"/>
    </linearGradient>
    <linearGradient id="accentGrad" x1="0%" y1="0%" x2="100%" y2="0%">
      <stop offset="0%" style="stop-color:#8b5cf6"/>
      <stop offset="100%" style="stop-color:#d946ef"/>
    </linearGradient>
    <style>
      .heading-lg { fill: #1a1a2e; font-family: system-ui, sans-serif; font-size: 24px; font-weight: 800; }
      .heading { fill: #1a1a2e; font-family: system-ui, sans-serif; font-size: 16px; font-weight: 700; }
      .text-md { fill: #2d3748; font-family: system-ui, sans-serif; font-size: 14px; font-weight: 500; }
      .text-sm { fill: #4a5568; font-family: system-ui, sans-serif; font-size: 12px; font-weight: 500; }
      .text-muted { fill: #5a6577; font-family: system-ui, sans-serif; font-size: 11px; font-weight: 500; }
      .annotation { fill: #8b5cf6; font-family: monospace; font-size: 12px; font-weight: 600; }
      .label-desktop { fill: #8b5cf6; font-family: monospace; font-size: 13px; font-weight: bold; }
      .label-mobile { fill: #d946ef; font-family: monospace; font-size: 13px; font-weight: bold; }
    </style>
  </defs>

  <!-- Background -->
  <rect width="1400" height="800" fill="url(#bgGrad)"/>

  <!-- Dot grid pattern -->
  <g opacity="0.35">
    <pattern id="dots" width="30" height="30" patternUnits="userSpaceOnUse">
      <circle cx="15" cy="15" r="1" fill="#6b8cba"/>
    </pattern>
    <rect width="1400" height="800" fill="url(#dots)"/>
  </g>

  <!-- Accent line top -->
  <rect x="0" y="0" width="1400" height="3" fill="url(#accentGrad)"/>

  <!-- Title -->
  <text x="700" y="28" text-anchor="middle" font-family="system-ui, sans-serif" font-size="14" font-weight="600" fill="#5a6577" letter-spacing="1">PAYMENT INTEGRATION — CHECKOUT FLOW</text>

  <!-- DESKTOP: ONE-TIME PAYMENT -->
  <text x="40" y="52" class="label-desktop">DESKTOP — ONE-TIME PAYMENT</text>

  <rect x="40" y="60" width="440" height="700" rx="12" fill="#e8d4b8" stroke="#b8a080" stroke-width="1"/>

  <!-- Header -->
  <rect x="50" y="70" width="420" height="50" rx="8" fill="#dcc8a8"/>
  <text x="260" y="102" text-anchor="middle" class="heading-lg">Make a Donation</text>

  <!-- Amount selection -->
  <text x="60" y="145" class="heading">Select Amount</text>

  <!-- Preset amounts -->
  <g id="preset-amounts">
    <rect x="60" y="160" width="95" height="50" rx="8" fill="#f5f0e6" stroke="#b8a080" stroke-width="1"/>
    <text x="108" y="192" text-anchor="middle" class="heading">$10</text>

    <rect x="165" y="160" width="95" height="50" rx="8" fill="#8b5cf6" stroke="#8b5cf6" stroke-width="2"/>
    <text x="212" y="192" text-anchor="middle" fill="#fff" font-family="system-ui" font-size="16" font-weight="700">$25</text>

    <rect x="270" y="160" width="95" height="50" rx="8" fill="#f5f0e6" stroke="#b8a080" stroke-width="1"/>
    <text x="318" y="192" text-anchor="middle" class="heading">$50</text>

    <rect x="375" y="160" width="95" height="50" rx="8" fill="#f5f0e6" stroke="#b8a080" stroke-width="1"/>
    <text x="422" y="192" text-anchor="middle" class="heading">$100</text>
  </g>

  <!-- Custom amount -->
  <text x="60" y="240" class="text-md">Or enter custom amount:</text>
  <rect x="60" y="250" width="200" height="44" rx="6" fill="#fff" stroke="#b8a080" stroke-width="1"/>
  <text x="75" y="278" class="heading" fill="#9ca3af">$</text>
  <text x="95" y="278" class="text-md" fill="#9ca3af">Enter amount</text>

  <!-- Currency selector -->
  <rect x="270" y="250" width="100" height="44" rx="6" fill="#f5f0e6" stroke="#b8a080" stroke-width="1"/>
  <text x="320" y="278" text-anchor="middle" class="text-md">USD ▾</text>

  <!-- Payment summary -->
  <rect x="60" y="320" width="410" height="100" rx="8" fill="#dcc8a8"/>
  <text x="80" y="350" class="heading">Order Summary</text>
  <text x="80" y="375" class="text-md">Donation Amount:</text>
  <text x="430" y="375" text-anchor="end" class="text-md">$25.00</text>
  <line x1="80" y1="390" x2="430" y2="390" stroke="#b8a080" stroke-width="1"/>
  <text x="80" y="410" class="heading">Total:</text>
  <text x="430" y="410" text-anchor="end" class="heading">$25.00 USD</text>

  <!-- Consent section -->
  <rect x="60" y="440" width="410" height="100" rx="8" fill="#fef3c7" stroke="#f59e0b" stroke-width="1"/>
  <text x="80" y="470" class="heading" fill="#92400e">Payment Consent Required</text>
  <text x="80" y="495" class="text-sm" fill="#92400e">We need your permission to load payment</text>
  <text x="80" y="512" class="text-sm" fill="#92400e">provider scripts for secure processing.</text>
  <rect x="340" y="465" width="110" height="36" rx="6" fill="#8b5cf6"/>
  <text x="395" y="489" text-anchor="middle" fill="#fff" font-size="12" font-weight="600">Grant Access</text>

  <!-- Payment buttons (disabled until consent) -->
  <text x="60" y="570" class="heading">Payment Method</text>

  <rect x="60" y="585" width="410" height="50" rx="8" fill="#9ca3af" opacity="0.5"/>
  <text x="265" y="617" text-anchor="middle" fill="#fff" font-family="system-ui" font-size="14" font-weight="600">Pay with Card</text>
  <text x="60" y="650" text-anchor="start" class="text-muted">Awaiting consent...</text>

  <rect x="60" y="665" width="200" height="44" rx="8" fill="#9ca3af" opacity="0.5"/>
  <text x="160" y="693" text-anchor="middle" fill="#fff" font-size="12" font-weight="600">PayPal</text>

  <rect x="270" y="665" width="200" height="44" rx="8" fill="#9ca3af" opacity="0.5"/>
  <text x="370" y="693" text-anchor="middle" fill="#fff" font-size="12" font-weight="600">Apple Pay</text>

  <!-- Alternative payment link -->
  <text x="260" y="735" text-anchor="middle" class="text-sm" fill="#8b5cf6">Or pay via bank transfer (no scripts required) →</text>

  <!-- DESKTOP: POST-CONSENT -->
  <text x="510" y="52" class="label-desktop">DESKTOP — AFTER CONSENT</text>

  <rect x="500" y="60" width="440" height="700" rx="12" fill="#e8d4b8" stroke="#b8a080" stroke-width="1"/>

  <!-- Header -->
  <rect x="510" y="70" width="420" height="50" rx="8" fill="#dcc8a8"/>
  <text x="720" y="102" text-anchor="middle" class="heading-lg">Complete Payment</text>

  <!-- Amount display -->
  <rect x="520" y="135" width="410" height="60" rx="8" fill="#dcfce7" stroke="#22c55e" stroke-width="1"/>
  <text x="540" y="165" class="text-md" fill="#166534">Paying:</text>
  <text x="890" y="175" text-anchor="end" class="heading-lg" fill="#166534">$25.00 USD</text>

  <!-- Payment form -->
  <text x="520" y="225" class="heading">Card Details</text>

  <text x="520" y="250" class="text-sm">Card Number</text>
  <rect x="520" y="260" width="410" height="44" rx="6" fill="#fff" stroke="#b8a080" stroke-width="1"/>
  <text x="540" y="288" class="text-md" fill="#2d3748">4242 4242 4242 4242</text>
  <!-- Card icons -->
  <rect x="850" y="272" width="30" height="20" rx="2" fill="#1a1f71"/>
  <rect x="885" y="272" width="30" height="20" rx="2" fill="#eb001b"/>

  <text x="520" y="325" class="text-sm">Cardholder Name</text>
  <rect x="520" y="335" width="410" height="44" rx="6" fill="#fff" stroke="#b8a080" stroke-width="1"/>
  <text x="540" y="363" class="text-md" fill="#2d3748">John Doe</text>

  <!-- Expiry and CVC -->
  <text x="520" y="400" class="text-sm">Expiry Date</text>
  <rect x="520" y="410" width="195" height="44" rx="6" fill="#fff" stroke="#b8a080" stroke-width="1"/>
  <text x="540" y="438" class="text-md" fill="#2d3748">12/26</text>

  <text x="735" y="400" class="text-sm">CVC</text>
  <rect x="735" y="410" width="195" height="44" rx="6" fill="#fff" stroke="#b8a080" stroke-width="1"/>
  <text x="755" y="438" class="text-md" fill="#2d3748">***</text>

  <!-- Billing address toggle -->
  <rect x="520" y="475" width="20" height="20" rx="4" fill="#8b5cf6"/>
  <text x="528" y="490" fill="#fff" font-size="12" font-weight="bold">✓</text>
  <text x="550" y="490" class="text-md">Same as shipping address</text>

  <!-- Security badges -->
  <rect x="520" y="515" width="410" height="50" rx="6" fill="#f5f0e6"/>
  <text x="540" y="540" class="text-sm">🔒 Secure 256-bit SSL encryption</text>
  <text x="540" y="555" class="text-muted">Your payment info is protected</text>

  <!-- Pay button -->
  <rect x="520" y="585" width="410" height="55" rx="8" fill="#22c55e"/>
  <text x="725" y="620" text-anchor="middle" fill="#fff" font-family="system-ui" font-size="18" font-weight="700">Pay $25.00</text>

  <!-- Alternative methods -->
  <text x="725" y="665" text-anchor="middle" class="text-muted">— OR PAY WITH —</text>

  <rect x="520" y="680" width="200" height="44" rx="8" fill="#003087"/>
  <text x="620" y="708" text-anchor="middle" fill="#fff" font-size="14" font-weight="600">PayPal</text>

  <rect x="730" y="680" width="200" height="44" rx="8" fill="#000"/>
  <text x="830" y="708" text-anchor="middle" fill="#fff" font-size="14" font-weight="600"> Pay</text>

  <!-- Cancel link -->
  <text x="725" y="750" text-anchor="middle" class="text-sm" fill="#8b5cf6">Cancel and return</text>

  <!-- MOBILE -->
  <text x="980" y="52" class="label-mobile">MOBILE</text>

  <!-- Phone frame -->
  <rect x="980" y="60" width="360" height="700" rx="24" fill="#c8b898" stroke="#a08860" stroke-width="2"/>
  <rect x="990" y="70" width="340" height="680" rx="16" fill="#e8d4b8"/>

  <!-- Status bar -->
  <rect x="990" y="70" width="340" height="28" rx="16" fill="#dcc8a8"/>
  <text x="1010" y="88" class="text-sm">9:41</text>
  <text x="1300" y="88" class="text-sm">100%</text>

  <!-- Mobile header -->
  <rect x="1000" y="108" width="320" height="44" rx="6" fill="#dcc8a8"/>
  <text x="1020" y="136" class="text-md">← Back</text>
  <text x="1160" y="136" text-anchor="middle" class="heading">Donate</text>

  <!-- Amount buttons (2x2 grid) -->
  <text x="1010" y="175" class="text-sm" font-weight="600">Select Amount</text>

  <rect x="1010" y="185" width="75" height="45" rx="6" fill="#f5f0e6" stroke="#b8a080"/>
  <text x="1048" y="214" text-anchor="middle" class="text-md">$10</text>

  <rect x="1095" y="185" width="75" height="45" rx="6" fill="#8b5cf6"/>
  <text x="1132" y="214" text-anchor="middle" fill="#fff" font-weight="600">$25</text>

  <rect x="1180" y="185" width="75" height="45" rx="6" fill="#f5f0e6" stroke="#b8a080"/>
  <text x="1218" y="214" text-anchor="middle" class="text-md">$50</text>

  <rect x="1265" y="185" width="55" height="45" rx="6" fill="#f5f0e6" stroke="#b8a080"/>
  <text x="1292" y="214" text-anchor="middle" class="text-md">$100</text>

  <!-- Custom amount -->
  <rect x="1010" y="240" width="310" height="40" rx="6" fill="#fff" stroke="#b8a080"/>
  <text x="1030" y="266" class="text-md" fill="#9ca3af">$ Custom amount</text>

  <!-- Summary -->
  <rect x="1010" y="295" width="310" height="50" rx="6" fill="#dcc8a8"/>
  <text x="1030" y="325" class="text-sm">Total:</text>
  <text x="1300" y="325" text-anchor="end" class="heading">$25.00 USD</text>

  <!-- Consent modal (overlay) -->
  <rect x="1010" y="360" width="310" height="120" rx="8" fill="#fef3c7" stroke="#f59e0b"/>
  <text x="1165" y="390" text-anchor="middle" class="text-md" fill="#92400e" font-weight="600">Consent Required</text>
  <text x="1030" y="415" class="text-sm" fill="#92400e">Allow payment provider scripts</text>
  <text x="1030" y="432" class="text-sm" fill="#92400e">for secure processing?</text>
  <rect x="1030" y="445" width="130" height="28" rx="6" fill="#8b5cf6"/>
  <text x="1095" y="464" text-anchor="middle" fill="#fff" font-size="11" font-weight="600">Allow</text>
  <rect x="1170" y="445" width="130" height="28" rx="6" fill="none" stroke="#b8a080"/>
  <text x="1235" y="464" text-anchor="middle" class="text-sm">Decline</text>

  <!-- Payment buttons (stacked) -->
  <text x="1010" y="510" class="text-sm" font-weight="600">Payment Method</text>

  <rect x="1010" y="520" width="310" height="44" rx="8" fill="#9ca3af" opacity="0.5"/>
  <text x="1165" y="548" text-anchor="middle" fill="#fff" font-size="12" font-weight="600">💳 Pay with Card</text>

  <rect x="1010" y="575" width="150" height="40" rx="6" fill="#9ca3af" opacity="0.5"/>
  <text x="1085" y="600" text-anchor="middle" fill="#fff" font-size="11">PayPal</text>

  <rect x="1170" y="575" width="150" height="40" rx="6" fill="#9ca3af" opacity="0.5"/>
  <text x="1245" y="600" text-anchor="middle" fill="#fff" font-size="11"> Pay</text>

  <!-- Alternative -->
  <text x="1165" y="645" text-anchor="middle" class="text-sm" fill="#8b5cf6">Bank transfer →</text>

  <!-- Mobile bottom nav -->
  <rect x="990" y="700" width="340" height="50" rx="16" fill="#dcc8a8"/>
  <text x="1070" y="730" text-anchor="middle" class="text-sm">Home</text>
  <text x="1160" y="730" text-anchor="middle" class="text-sm" font-weight="700" fill="#8b5cf6">Donate</text>
  <text x="1250" y="730" text-anchor="middle" class="text-sm">Account</text>

  <!-- Annotations -->
  <g id="annotations">
    <rect x="40" y="770" width="120" height="22" rx="4" fill="#e8d4b8" stroke="#8b5cf6"/>
    <text x="100" y="785" text-anchor="middle" class="annotation">FR-003: Limits</text>

    <rect x="180" y="770" width="140" height="22" rx="4" fill="#e8d4b8" stroke="#8b5cf6"/>
    <text x="250" y="785" text-anchor="middle" class="annotation">FR-018: Consent</text>

    <rect x="340" y="770" width="120" height="22" rx="4" fill="#e8d4b8" stroke="#8b5cf6"/>
    <text x="400" y="785" text-anchor="middle" class="annotation">FR-019: Alt pay</text>

    <rect x="480" y="770" width="140" height="22" rx="4" fill="#e8d4b8" stroke="#8b5cf6"/>
    <text x="550" y="785" text-anchor="middle" class="annotation">FR-001: One-time</text>
  </g>
</svg>
