<svg xmlns="http://www.w3.org/2000/svg" viewBox="0 0 1400 800" width="1400" height="800">
  <!-- ============================================================
       GENERATED BY: /wireframe skill
       SOURCE: features/integrations/024-payment-integration/spec.md
       DATE: 2025-12-31
       DO NOT MANUALLY EDIT - Regenerate with /wireframe command
       ============================================================ -->
  <defs>
    <linearGradient id="bgGrad" x1="0%" y1="0%" x2="100%" y2="100%">
      <stop offset="0%" style="stop-color:#0f172a"/>
      <stop offset="100%" style="stop-color:#1e293b"/>
    </linearGradient>
    <linearGradient id="accentGrad" x1="0%" y1="0%" x2="100%" y2="0%">
      <stop offset="0%" style="stop-color:#8b5cf6"/>
      <stop offset="100%" style="stop-color:#d946ef"/>
    </linearGradient>
    <linearGradient id="goldGrad" x1="0%" y1="0%" x2="100%" y2="0%">
      <stop offset="0%" style="stop-color:#eab308"/>
      <stop offset="100%" style="stop-color:#f59e0b"/>
    </linearGradient>
    <style>
      .heading-lg { fill: #ffffff; font-family: system-ui, sans-serif; font-size: 20px; font-weight: bold; }
      .heading { fill: #ffffff; font-family: system-ui, sans-serif; font-size: 14px; font-weight: bold; }
      .heading-xl { fill: #ffffff; font-family: system-ui, sans-serif; font-size: 28px; font-weight: bold; }
      .text-md { fill: #cbd5e1; font-family: system-ui, sans-serif; font-size: 12px; }
      .text-sm { fill: #94a3b8; font-family: system-ui, sans-serif; font-size: 10px; }
      .text-muted { fill: #64748b; font-family: system-ui, sans-serif; font-size: 10px; }
      .annotation { fill: #8b5cf6; font-family: monospace; font-size: 10px; }
      .label-desktop { fill: #8b5cf6; font-family: monospace; font-size: 11px; font-weight: bold; }
      .label-mobile { fill: #d946ef; font-family: monospace; font-size: 11px; font-weight: bold; }
      .price { fill: #ffffff; font-family: system-ui, sans-serif; font-size: 32px; font-weight: bold; }
      .price-period { fill: #94a3b8; font-family: system-ui, sans-serif; font-size: 12px; }
    </style>
  </defs>

  <!-- Background -->
  <rect width="1400" height="800" fill="url(#bgGrad)"/>

  <!-- Dot grid pattern -->
  <g opacity="0.05">
    <pattern id="dots" width="30" height="30" patternUnits="userSpaceOnUse">
      <circle cx="15" cy="15" r="1" fill="#fff"/>
    </pattern>
    <rect width="1400" height="800" fill="url(#dots)"/>
  </g>

  <!-- Accent line top -->
  <rect x="0" y="0" width="1400" height="3" fill="url(#accentGrad)"/>

  <!-- Title -->
  <text x="700" y="28" text-anchor="middle" font-family="system-ui, sans-serif" font-size="14" font-weight="600" fill="#64748b" letter-spacing="1">SUBSCRIPTION PLANS</text>

  <!-- DESKTOP SECTION -->
  <text x="40" y="52" class="label-desktop">DESKTOP</text>
  <g id="desktop-view">
    <!-- Header -->
    <rect x="40" y="60" width="900" height="50" rx="8" fill="#1e293b"/>
    <text x="60" y="90" class="heading">ScriptHammer</text>
    <text x="860" y="90" class="text-sm">john@example.com</text>

    <!-- Page header -->
    <text x="490" y="140" text-anchor="middle" class="heading-xl">Choose Your Plan</text>
    <text x="490" y="165" text-anchor="middle" class="text-md">Unlock premium features with a subscription</text>

    <!-- Billing toggle -->
    <g transform="translate(390, 180)">
      <rect x="0" y="0" width="200" height="36" rx="18" fill="#334155"/>
      <rect x="2" y="2" width="98" height="32" rx="16" fill="#8b5cf6"/>
      <text x="51" y="24" text-anchor="middle" fill="#fff" font-size="12" font-weight="bold">Monthly</text>
      <text x="149" y="24" text-anchor="middle" class="text-md">Yearly</text>
      <rect x="165" y="8" width="30" height="16" rx="8" fill="#22c55e"/>
      <text x="180" y="19" text-anchor="middle" fill="#fff" font-size="8">-20%</text>
    </g>

    <!-- Plan Cards -->
    <!-- Free Plan -->
    <g transform="translate(60, 230)">
      <rect x="0" y="0" width="270" height="380" rx="12" fill="#1e293b" stroke="#475569" stroke-width="1"/>
      <text x="135" y="40" text-anchor="middle" class="heading">Free</text>
      <text x="135" y="60" text-anchor="middle" class="text-sm">Get started</text>

      <text x="135" y="100" text-anchor="middle" class="price">$0</text>
      <text x="135" y="120" text-anchor="middle" class="price-period">forever</text>

      <line x1="20" y1="140" x2="250" y2="140" stroke="#475569" stroke-width="1"/>

      <!-- Features -->
      <text x="30" y="170" fill="#22c55e" font-size="12">✓</text>
      <text x="50" y="170" class="text-md">Basic messaging</text>
      <text x="30" y="195" fill="#22c55e" font-size="12">✓</text>
      <text x="50" y="195" class="text-md">5 conversations/month</text>
      <text x="30" y="220" fill="#22c55e" font-size="12">✓</text>
      <text x="50" y="220" class="text-md">Community support</text>
      <text x="30" y="245" fill="#64748b" font-size="12">✗</text>
      <text x="50" y="245" class="text-muted">Group chats</text>
      <text x="30" y="270" fill="#64748b" font-size="12">✗</text>
      <text x="50" y="270" class="text-muted">Analytics</text>
      <text x="30" y="295" fill="#64748b" font-size="12">✗</text>
      <text x="50" y="295" class="text-muted">Priority support</text>

      <rect x="20" y="330" width="230" height="40" rx="8" fill="#334155" stroke="#475569" stroke-width="1"/>
      <text x="135" y="356" text-anchor="middle" class="text-md">Current Plan</text>
    </g>

    <!-- Pro Plan (Featured) -->
    <g transform="translate(350, 220)">
      <rect x="0" y="0" width="270" height="400" rx="12" fill="#1e293b" stroke="#8b5cf6" stroke-width="2"/>

      <!-- Popular badge -->
      <rect x="85" y="-12" width="100" height="24" rx="12" fill="url(#accentGrad)"/>
      <text x="135" y="5" text-anchor="middle" fill="#fff" font-size="10" font-weight="bold">MOST POPULAR</text>

      <text x="135" y="50" text-anchor="middle" class="heading">Pro</text>
      <text x="135" y="70" text-anchor="middle" class="text-sm">For growing teams</text>

      <text x="135" y="110" text-anchor="middle" class="price">$19</text>
      <text x="135" y="130" text-anchor="middle" class="price-period">/month</text>

      <line x1="20" y1="150" x2="250" y2="150" stroke="#475569" stroke-width="1"/>

      <!-- Features -->
      <text x="30" y="180" fill="#22c55e" font-size="12">✓</text>
      <text x="50" y="180" class="text-md">Unlimited messaging</text>
      <text x="30" y="205" fill="#22c55e" font-size="12">✓</text>
      <text x="50" y="205" class="text-md">Unlimited conversations</text>
      <text x="30" y="230" fill="#22c55e" font-size="12">✓</text>
      <text x="50" y="230" class="text-md">Group chats (up to 10)</text>
      <text x="30" y="255" fill="#22c55e" font-size="12">✓</text>
      <text x="50" y="255" class="text-md">Basic analytics</text>
      <text x="30" y="280" fill="#22c55e" font-size="12">✓</text>
      <text x="50" y="280" class="text-md">Email support</text>
      <text x="30" y="305" fill="#64748b" font-size="12">✗</text>
      <text x="50" y="305" class="text-muted">Custom branding</text>

      <rect x="20" y="340" width="230" height="44" rx="8" fill="url(#accentGrad)"/>
      <text x="135" y="368" text-anchor="middle" fill="#fff" font-size="14" font-weight="bold">Subscribe Now</text>
    </g>

    <!-- Enterprise Plan -->
    <g transform="translate(640, 230)">
      <rect x="0" y="0" width="270" height="380" rx="12" fill="#1e293b" stroke="#eab308" stroke-width="1"/>

      <text x="135" y="40" text-anchor="middle" class="heading">Enterprise</text>
      <text x="135" y="60" text-anchor="middle" class="text-sm">For large organizations</text>

      <text x="135" y="100" text-anchor="middle" class="price">$99</text>
      <text x="135" y="120" text-anchor="middle" class="price-period">/month</text>

      <line x1="20" y1="140" x2="250" y2="140" stroke="#475569" stroke-width="1"/>

      <!-- Features -->
      <text x="30" y="170" fill="#22c55e" font-size="12">✓</text>
      <text x="50" y="170" class="text-md">Everything in Pro</text>
      <text x="30" y="195" fill="#22c55e" font-size="12">✓</text>
      <text x="50" y="195" class="text-md">Unlimited group chats</text>
      <text x="30" y="220" fill="#22c55e" font-size="12">✓</text>
      <text x="50" y="220" class="text-md">Advanced analytics</text>
      <text x="30" y="245" fill="#22c55e" font-size="12">✓</text>
      <text x="50" y="245" class="text-md">Custom branding</text>
      <text x="30" y="270" fill="#22c55e" font-size="12">✓</text>
      <text x="50" y="270" class="text-md">API access</text>
      <text x="30" y="295" fill="#22c55e" font-size="12">✓</text>
      <text x="50" y="295" class="text-md">24/7 priority support</text>

      <rect x="20" y="330" width="230" height="40" rx="8" fill="url(#goldGrad)"/>
      <text x="135" y="356" text-anchor="middle" fill="#0f172a" font-size="12" font-weight="bold">Contact Sales</text>
    </g>

    <!-- FAQ/Trust -->
    <g transform="translate(60, 640)">
      <text x="0" y="0" class="text-sm">✓ Cancel anytime</text>
      <text x="150" y="0" class="text-sm">✓ Secure payments</text>
      <text x="300" y="0" class="text-sm">✓ 30-day money-back guarantee</text>
    </g>
  </g>

  <!-- MOBILE SECTION -->
  <text x="980" y="52" class="label-mobile">MOBILE</text>
  <g id="mobile-view" transform="translate(980, 60)">
    <!-- Phone frame -->
    <rect x="0" y="0" width="360" height="700" rx="24" fill="#1e293b" stroke="#475569" stroke-width="2"/>
    <rect x="10" y="10" width="340" height="680" rx="16" fill="#0f172a"/>

    <!-- Status bar -->
    <rect x="10" y="10" width="340" height="28" rx="16" fill="#1e293b"/>
    <text x="30" y="28" class="text-sm">9:41</text>
    <text x="310" y="28" class="text-sm">100%</text>

    <!-- Header -->
    <rect x="20" y="48" width="320" height="44" rx="8" fill="#1e293b"/>
    <text x="35" y="75" class="text-md">←</text>
    <text x="180" y="75" text-anchor="middle" class="heading">Plans</text>

    <!-- Page title -->
    <text x="180" y="115" text-anchor="middle" class="heading-lg">Choose Plan</text>

    <!-- Billing toggle (smaller) -->
    <g transform="translate(80, 130)">
      <rect x="0" y="0" width="200" height="32" rx="16" fill="#334155"/>
      <rect x="2" y="2" width="98" height="28" rx="14" fill="#8b5cf6"/>
      <text x="51" y="21" text-anchor="middle" fill="#fff" font-size="11" font-weight="bold">Monthly</text>
      <text x="149" y="21" text-anchor="middle" class="text-sm">Yearly -20%</text>
    </g>

    <!-- Swipeable Plan Cards (showing Pro) -->
    <g transform="translate(30, 175)">
      <!-- Card indicators -->
      <circle cx="140" cy="0" r="4" fill="#475569"/>
      <circle cx="160" cy="0" r="4" fill="#8b5cf6"/>
      <circle cx="180" cy="0" r="4" fill="#475569"/>

      <!-- Pro Plan Card -->
      <rect x="0" y="15" width="300" height="400" rx="12" fill="#1e293b" stroke="#8b5cf6" stroke-width="2"/>

      <!-- Popular badge -->
      <rect x="100" y="8" width="100" height="22" rx="11" fill="url(#accentGrad)"/>
      <text x="150" y="23" text-anchor="middle" fill="#fff" font-size="9" font-weight="bold">MOST POPULAR</text>

      <text x="150" y="60" text-anchor="middle" class="heading">Pro</text>
      <text x="150" y="80" text-anchor="middle" class="text-sm">For growing teams</text>

      <text x="150" y="120" text-anchor="middle" fill="#fff" font-size="36" font-weight="bold">$19</text>
      <text x="150" y="140" text-anchor="middle" class="price-period">/month</text>

      <line x1="20" y1="160" x2="280" y2="160" stroke="#475569" stroke-width="1"/>

      <!-- Features (compact) -->
      <text x="25" y="185" fill="#22c55e" font-size="11">✓</text>
      <text x="42" y="185" class="text-sm">Unlimited messaging</text>
      <text x="25" y="205" fill="#22c55e" font-size="11">✓</text>
      <text x="42" y="205" class="text-sm">Unlimited conversations</text>
      <text x="25" y="225" fill="#22c55e" font-size="11">✓</text>
      <text x="42" y="225" class="text-sm">Group chats (up to 10)</text>
      <text x="25" y="245" fill="#22c55e" font-size="11">✓</text>
      <text x="42" y="245" class="text-sm">Basic analytics</text>
      <text x="25" y="265" fill="#22c55e" font-size="11">✓</text>
      <text x="42" y="265" class="text-sm">Email support</text>

      <!-- Subscribe button -->
      <rect x="20" y="290" width="260" height="44" rx="8" fill="url(#accentGrad)"/>
      <text x="150" y="318" text-anchor="middle" fill="#fff" font-size="14" font-weight="bold">Subscribe Now</text>

      <!-- Compare link -->
      <text x="150" y="360" text-anchor="middle" fill="#8b5cf6" font-size="11">Compare all plans →</text>

      <!-- Swipe hint -->
      <text x="150" y="390" text-anchor="middle" class="text-muted">← Swipe to see other plans →</text>
    </g>

    <!-- Trust badges -->
    <g transform="translate(50, 600)">
      <text x="0" y="0" class="text-sm">✓ Cancel anytime</text>
      <text x="120" y="0" class="text-muted">•</text>
      <text x="135" y="0" class="text-sm">30-day guarantee</text>
    </g>

    <!-- Bottom safe area -->
    <rect x="130" y="675" width="100" height="5" rx="2" fill="#475569"/>
  </g>
</svg>