<svg xmlns="http://www.w3.org/2000/svg" viewBox="0 0 1400 800" width="1400" height="800">
  <!-- ============================================================
       GENERATED BY: /wireframe skill
       SOURCE: features/integrations/024-payment-integration/spec.md
       DATE: 2026-01-01
       THEME: Light (UX/Frontend) - v3 True Parchment
       DO NOT MANUALLY EDIT - Regenerate with /wireframe command
       ============================================================ -->
  <defs>
    <linearGradient id="bgGrad" x1="0%" y1="0%" x2="100%" y2="100%">
      <stop offset="0%" style="stop-color:#c7ddf5"/>
      <stop offset="100%" style="stop-color:#b8d4f0"/>
    </linearGradient>
    <linearGradient id="accentGrad" x1="0%" y1="0%" x2="100%" y2="0%">
      <stop offset="0%" style="stop-color:#8b5cf6"/>
      <stop offset="100%" style="stop-color:#d946ef"/>
    </linearGradient>
    <style>
      .heading-lg { fill: #1a1a2e; font-family: system-ui, sans-serif; font-size: 24px; font-weight: 800; }
      .heading { fill: #1a1a2e; font-family: system-ui, sans-serif; font-size: 16px; font-weight: 700; }
      .text-md { fill: #2d3748; font-family: system-ui, sans-serif; font-size: 14px; font-weight: 500; }
      .text-sm { fill: #4a5568; font-family: system-ui, sans-serif; font-size: 12px; font-weight: 500; }
      .text-muted { fill: #5a6577; font-family: system-ui, sans-serif; font-size: 11px; font-weight: 500; }
      .annotation { fill: #8b5cf6; font-family: monospace; font-size: 12px; font-weight: 600; }
      .label-desktop { fill: #8b5cf6; font-family: monospace; font-size: 13px; font-weight: bold; }
      .label-mobile { fill: #d946ef; font-family: monospace; font-size: 13px; font-weight: bold; }
    </style>
  </defs>

  <!-- Background -->
  <rect width="1400" height="800" fill="url(#bgGrad)"/>

  <!-- Dot grid pattern -->
  <g opacity="0.35">
    <pattern id="dots" width="30" height="30" patternUnits="userSpaceOnUse">
      <circle cx="15" cy="15" r="1" fill="#6b8cba"/>
    </pattern>
    <rect width="1400" height="800" fill="url(#dots)"/>
  </g>

  <!-- Accent line top -->
  <rect x="0" y="0" width="1400" height="3" fill="url(#accentGrad)"/>

  <!-- Title -->
  <text x="700" y="28" text-anchor="middle" font-family="system-ui, sans-serif" font-size="14" font-weight="600" fill="#5a6577" letter-spacing="1">PAYMENT INTEGRATION — SUBSCRIPTION MANAGEMENT</text>

  <!-- DESKTOP: PLAN SELECTION -->
  <text x="40" y="52" class="label-desktop">DESKTOP — PLAN SELECTION</text>

  <rect x="40" y="60" width="440" height="700" rx="12" fill="#e8d4b8" stroke="#b8a080" stroke-width="1"/>

  <!-- Header -->
  <rect x="50" y="70" width="420" height="50" rx="8" fill="#dcc8a8"/>
  <text x="260" y="102" text-anchor="middle" class="heading-lg">Choose Your Plan</text>

  <!-- Plan cards -->
  <!-- Basic Plan -->
  <rect x="60" y="140" width="190" height="280" rx="8" fill="#f5f0e6" stroke="#b8a080" stroke-width="1"/>
  <text x="155" y="175" text-anchor="middle" class="heading">Basic</text>
  <text x="155" y="210" text-anchor="middle" class="heading-lg">$9</text>
  <text x="155" y="230" text-anchor="middle" class="text-muted">/month</text>

  <line x1="80" y1="245" x2="230" y2="245" stroke="#b8a080"/>

  <text x="80" y="270" class="text-sm">✓ 5 projects</text>
  <text x="80" y="290" class="text-sm">✓ Basic support</text>
  <text x="80" y="310" class="text-sm">✓ 1GB storage</text>
  <text x="80" y="330" class="text-muted">✗ API access</text>
  <text x="80" y="350" class="text-muted">✗ Priority support</text>

  <rect x="75" y="375" width="150" height="36" rx="6" fill="none" stroke="#8b5cf6" stroke-width="2"/>
  <text x="150" y="399" text-anchor="middle" fill="#8b5cf6" font-family="system-ui" font-size="12" font-weight="600">Select Basic</text>

  <!-- Pro Plan (Popular) -->
  <rect x="260" y="130" width="190" height="300" rx="8" fill="#8b5cf6"/>
  <rect x="310" y="115" width="90" height="22" rx="11" fill="#d946ef"/>
  <text x="355" y="130" text-anchor="middle" fill="#fff" font-size="10" font-weight="600">POPULAR</text>

  <text x="355" y="175" text-anchor="middle" class="heading" fill="#fff">Pro</text>
  <text x="355" y="210" text-anchor="middle" fill="#fff" font-family="system-ui" font-size="24" font-weight="800">$29</text>
  <text x="355" y="230" text-anchor="middle" fill="#c4b5fd" font-size="11">/month</text>

  <line x1="280" y1="245" x2="430" y2="245" stroke="#c4b5fd"/>

  <text x="280" y="270" fill="#fff" font-size="12">✓ Unlimited projects</text>
  <text x="280" y="290" fill="#fff" font-size="12">✓ Priority support</text>
  <text x="280" y="310" fill="#fff" font-size="12">✓ 50GB storage</text>
  <text x="280" y="330" fill="#fff" font-size="12">✓ API access</text>
  <text x="280" y="350" fill="#c4b5fd" font-size="12">✗ Custom domain</text>

  <rect x="275" y="385" width="160" height="36" rx="6" fill="#fff"/>
  <text x="355" y="409" text-anchor="middle" fill="#8b5cf6" font-family="system-ui" font-size="12" font-weight="600">Get Pro</text>

  <!-- Billing toggle -->
  <rect x="60" y="445" width="400" height="50" rx="8" fill="#dcc8a8"/>
  <text x="80" y="476" class="text-md">Billing:</text>
  <rect x="150" y="455" width="100" height="30" rx="6" fill="#8b5cf6"/>
  <text x="200" y="476" text-anchor="middle" fill="#fff" font-size="12" font-weight="600">Monthly</text>
  <rect x="260" y="455" width="100" height="30" rx="6" fill="#f5f0e6"/>
  <text x="310" y="476" text-anchor="middle" class="text-sm">Yearly -20%</text>

  <!-- FAQ link -->
  <text x="260" y="520" text-anchor="middle" class="text-sm" fill="#8b5cf6">Compare all features →</text>

  <!-- Already subscribed message (for existing subscribers) -->
  <rect x="60" y="545" width="400" height="80" rx="8" fill="#e0f2fe" stroke="#0ea5e9"/>
  <text x="80" y="575" class="heading" fill="#0369a1">Already a Pro member!</text>
  <text x="80" y="595" class="text-sm" fill="#0369a1">Your subscription renews on Jan 15, 2026</text>
  <text x="80" y="612" class="text-sm" fill="#0ea5e9">Manage subscription →</text>

  <!-- Terms -->
  <text x="260" y="660" text-anchor="middle" class="text-muted">Cancel anytime. See our refund policy.</text>

  <!-- DESKTOP: ACTIVE SUBSCRIPTION -->
  <text x="510" y="52" class="label-desktop">DESKTOP — ACTIVE SUBSCRIPTION</text>

  <rect x="500" y="60" width="440" height="700" rx="12" fill="#e8d4b8" stroke="#b8a080" stroke-width="1"/>

  <!-- Header -->
  <rect x="510" y="70" width="420" height="50" rx="8" fill="#dcc8a8"/>
  <text x="720" y="102" text-anchor="middle" class="heading-lg">Your Subscription</text>

  <!-- Current plan card -->
  <rect x="520" y="140" width="410" height="180" rx="8" fill="#dcfce7" stroke="#22c55e" stroke-width="2"/>

  <!-- Active badge -->
  <rect x="530" y="150" width="60" height="22" rx="11" fill="#22c55e"/>
  <text x="560" y="165" text-anchor="middle" fill="#fff" font-size="10" font-weight="600">ACTIVE</text>

  <text x="540" y="195" class="heading-lg" fill="#166534">Pro Plan</text>
  <text x="540" y="220" class="text-md" fill="#166534">$29.00 / month</text>

  <line x1="540" y1="240" x2="900" y2="240" stroke="#22c55e"/>

  <text x="540" y="265" class="text-sm" fill="#166534">Next billing date:</text>
  <text x="700" y="265" class="text-md" fill="#166534" font-weight="600">January 15, 2026</text>

  <text x="540" y="290" class="text-sm" fill="#166534">Payment method:</text>
  <text x="700" y="290" class="text-md" fill="#166534">•••• 4242</text>

  <text x="540" y="310" class="text-sm" fill="#166534">Member since:</text>
  <text x="700" y="310" class="text-md" fill="#166534">December 15, 2025</text>

  <!-- Usage stats -->
  <rect x="520" y="340" width="410" height="100" rx="8" fill="#f5f0e6"/>
  <text x="540" y="370" class="heading">Usage This Month</text>

  <text x="540" y="400" class="text-sm">Projects:</text>
  <rect x="620" y="388" width="200" height="12" rx="6" fill="#dcc8a8"/>
  <rect x="620" y="388" width="140" height="12" rx="6" fill="#8b5cf6"/>
  <text x="840" y="400" class="text-sm">14 / unlimited</text>

  <text x="540" y="425" class="text-sm">Storage:</text>
  <rect x="620" y="413" width="200" height="12" rx="6" fill="#dcc8a8"/>
  <rect x="620" y="413" width="60" height="12" rx="6" fill="#22c55e"/>
  <text x="840" y="425" class="text-sm">15GB / 50GB</text>

  <!-- Actions -->
  <rect x="520" y="460" width="200" height="44" rx="8" fill="#8b5cf6"/>
  <text x="620" y="488" text-anchor="middle" fill="#fff" font-family="system-ui" font-size="14" font-weight="600">Change Plan</text>

  <rect x="730" y="460" width="200" height="44" rx="8" fill="none" stroke="#b8a080"/>
  <text x="830" y="488" text-anchor="middle" class="text-md">Update Payment</text>

  <!-- Cancel section -->
  <rect x="520" y="530" width="410" height="90" rx="8" fill="#fee2e2" stroke="#ef4444"/>
  <text x="540" y="560" class="heading" fill="#991b1b">Cancel Subscription</text>
  <text x="540" y="582" class="text-sm" fill="#991b1b">Your access continues until Jan 15, 2026.</text>
  <rect x="770" y="545" width="140" height="36" rx="6" fill="#ef4444"/>
  <text x="840" y="569" text-anchor="middle" fill="#fff" font-size="12" font-weight="600">Cancel Plan</text>

  <!-- Billing history -->
  <text x="540" y="650" class="heading">Recent Invoices</text>

  <rect x="520" y="660" width="410" height="35" rx="4" fill="#f5f0e6"/>
  <text x="540" y="683" class="text-sm">Dec 15, 2025</text>
  <text x="700" y="683" class="text-sm">$29.00</text>
  <text x="800" y="683" class="text-sm" fill="#22c55e">Paid</text>
  <text x="890" y="683" class="text-sm" fill="#8b5cf6">Invoice →</text>

  <rect x="520" y="700" width="410" height="35" rx="4" fill="#fff"/>
  <text x="540" y="723" class="text-sm">Nov 15, 2025</text>
  <text x="700" y="723" class="text-sm">$29.00</text>
  <text x="800" y="723" class="text-sm" fill="#22c55e">Paid</text>
  <text x="890" y="723" class="text-sm" fill="#8b5cf6">Invoice →</text>

  <!-- MOBILE -->
  <text x="980" y="52" class="label-mobile">MOBILE — SUBSCRIPTION</text>

  <!-- Phone frame -->
  <rect x="980" y="60" width="360" height="700" rx="24" fill="#c8b898" stroke="#a08860" stroke-width="2"/>
  <rect x="990" y="70" width="340" height="680" rx="16" fill="#e8d4b8"/>

  <!-- Status bar -->
  <rect x="990" y="70" width="340" height="28" rx="16" fill="#dcc8a8"/>
  <text x="1010" y="88" class="text-sm">9:41</text>

  <!-- Mobile header -->
  <rect x="1000" y="108" width="320" height="40" rx="6" fill="#dcc8a8"/>
  <text x="1160" y="134" text-anchor="middle" class="heading">Subscription</text>

  <!-- Active plan card -->
  <rect x="1010" y="160" width="300" height="120" rx="8" fill="#dcfce7" stroke="#22c55e"/>
  <rect x="1020" y="170" width="50" height="18" rx="9" fill="#22c55e"/>
  <text x="1045" y="183" text-anchor="middle" fill="#fff" font-size="9" font-weight="600">ACTIVE</text>
  <text x="1030" y="210" class="heading" fill="#166534">Pro Plan</text>
  <text x="1030" y="230" class="text-sm" fill="#166534">$29/mo • Renews Jan 15</text>

  <rect x="1020" y="245" width="130" height="28" rx="6" fill="#22c55e"/>
  <text x="1085" y="264" text-anchor="middle" fill="#fff" font-size="11" font-weight="600">Manage</text>

  <!-- Quick stats -->
  <text x="1010" y="310" class="text-sm" font-weight="600">Usage</text>

  <rect x="1010" y="320" width="145" height="60" rx="6" fill="#f5f0e6"/>
  <text x="1030" y="345" class="text-sm">Projects</text>
  <text x="1030" y="365" class="heading">14</text>

  <rect x="1165" y="320" width="145" height="60" rx="6" fill="#f5f0e6"/>
  <text x="1185" y="345" class="text-sm">Storage</text>
  <text x="1185" y="365" class="heading">15GB</text>

  <!-- Payment method -->
  <text x="1010" y="410" class="text-sm" font-weight="600">Payment Method</text>

  <rect x="1010" y="420" width="300" height="50" rx="6" fill="#f5f0e6"/>
  <rect x="1025" y="435" width="40" height="25" rx="4" fill="#1a1f71"/>
  <text x="1080" y="450" class="text-md">•••• 4242</text>
  <text x="1270" y="450" class="text-sm" fill="#8b5cf6">Edit</text>

  <!-- Recent invoices -->
  <text x="1010" y="500" class="text-sm" font-weight="600">Recent Invoices</text>

  <rect x="1010" y="510" width="300" height="40" rx="4" fill="#f5f0e6"/>
  <text x="1030" y="535" class="text-sm">Dec 15</text>
  <text x="1150" y="535" class="text-sm">$29.00</text>
  <text x="1250" y="535" class="text-sm" fill="#22c55e">Paid</text>

  <rect x="1010" y="555" width="300" height="40" rx="4" fill="#fff"/>
  <text x="1030" y="580" class="text-sm">Nov 15</text>
  <text x="1150" y="580" class="text-sm">$29.00</text>
  <text x="1250" y="580" class="text-sm" fill="#22c55e">Paid</text>

  <!-- Cancel button -->
  <rect x="1010" y="620" width="300" height="40" rx="6" fill="none" stroke="#ef4444"/>
  <text x="1160" y="646" text-anchor="middle" fill="#ef4444" font-size="12">Cancel Subscription</text>

  <!-- Mobile bottom nav -->
  <rect x="990" y="700" width="340" height="50" rx="16" fill="#dcc8a8"/>
  <text x="1070" y="730" text-anchor="middle" class="text-sm">Home</text>
  <text x="1160" y="730" text-anchor="middle" class="text-sm" font-weight="700" fill="#8b5cf6">Billing</text>
  <text x="1250" y="730" text-anchor="middle" class="text-sm">Settings</text>

  <!-- Annotations -->
  <g id="annotations">
    <rect x="40" y="770" width="140" height="22" rx="4" fill="#e8d4b8" stroke="#8b5cf6"/>
    <text x="110" y="785" text-anchor="middle" class="annotation">FR-002: Recurring</text>

    <rect x="200" y="770" width="140" height="22" rx="4" fill="#e8d4b8" stroke="#8b5cf6"/>
    <text x="270" y="785" text-anchor="middle" class="annotation">FR-012: Billing date</text>

    <rect x="360" y="770" width="140" height="22" rx="4" fill="#e8d4b8" stroke="#8b5cf6"/>
    <text x="430" y="785" text-anchor="middle" class="annotation">FR-017: Cancel</text>
  </g>
</svg>
