<svg xmlns="http://www.w3.org/2000/svg" viewBox="0 0 1400 800" width="1400" height="800">
  <!-- ============================================================
       GENERATED BY: /wireframe skill
       SOURCE: features/integrations/024-payment-integration/spec.md
       DATE: 2026-01-01
       THEME: Light (UX/Frontend) - v3 True Parchment
       DO NOT MANUALLY EDIT - Regenerate with /wireframe command
       ============================================================ -->
  <defs>
    <linearGradient id="bgGrad" x1="0%" y1="0%" x2="100%" y2="100%">
      <stop offset="0%" style="stop-color:#c7ddf5"/>
      <stop offset="100%" style="stop-color:#b8d4f0"/>
    </linearGradient>
    <linearGradient id="accentGrad" x1="0%" y1="0%" x2="100%" y2="0%">
      <stop offset="0%" style="stop-color:#8b5cf6"/>
      <stop offset="100%" style="stop-color:#d946ef"/>
    </linearGradient>
    <style>
      .heading-lg { fill: #1a1a2e; font-family: system-ui, sans-serif; font-size: 24px; font-weight: 800; }
      .heading { fill: #1a1a2e; font-family: system-ui, sans-serif; font-size: 16px; font-weight: 700; }
      .text-md { fill: #2d3748; font-family: system-ui, sans-serif; font-size: 14px; font-weight: 500; }
      .text-sm { fill: #374151; font-family: system-ui, sans-serif; font-size: 12px; font-weight: 500; }
      .text-muted { fill: #4b5563; font-family: system-ui, sans-serif; font-size: 11px; font-weight: 500; }
      .annotation { fill: #6d28d9; font-family: monospace; font-size: 12px; font-weight: 600; }
      .label-section { fill: #8b5cf6; font-family: monospace; font-size: 13px; font-weight: bold; }
    </style>
  </defs>

  <!-- Background -->
  <rect width="1400" height="800" fill="url(#bgGrad)"/>

  <!-- Dot grid pattern -->
  <g opacity="0.35">
    <pattern id="dots" width="30" height="30" patternUnits="userSpaceOnUse">
      <circle cx="15" cy="15" r="1" fill="#6b8cba"/>
    </pattern>
    <rect width="1400" height="800" fill="url(#dots)"/>
  </g>

  <!-- Accent line top -->
  <rect x="0" y="0" width="1400" height="3" fill="url(#accentGrad)"/>

  <!-- Title -->
  <text x="700" y="28" text-anchor="middle" font-family="system-ui, sans-serif" font-size="14" font-weight="600" fill="#4b5563" letter-spacing="1">PAYMENT INTEGRATION — PAYMENT &amp; SUBSCRIPTION STATES</text>

  <!-- STATE 1: PROCESSING -->
  <text x="60" y="60" class="label-section">STATE 1: PROCESSING</text>
  <rect x="40" y="70" width="310" height="280" rx="12" fill="#e8d4b8" stroke="#b8a080" stroke-width="1"/>

  <rect x="55" y="90" width="280" height="240" rx="8" fill="#f5f0e6"/>

  <!-- Spinner -->
  <circle cx="195" cy="160" r="30" fill="none" stroke="#e8d4b8" stroke-width="4"/>
  <path d="M195 130 A30 30 0 0 1 225 160" stroke="#8b5cf6" stroke-width="4" fill="none" stroke-linecap="round"/>

  <text x="195" y="220" text-anchor="middle" class="heading">Processing Payment...</text>
  <text x="195" y="245" text-anchor="middle" class="text-sm">Please don't close this page</text>

  <!-- Progress indicator -->
  <rect x="75" y="270" width="240" height="8" rx="4" fill="#dcc8a8"/>
  <rect x="75" y="270" width="120" height="8" rx="4" fill="#8b5cf6"/>

  <text x="195" y="305" text-anchor="middle" class="text-muted">Connecting to payment provider...</text>

  <!-- STATE 2: SUCCESS -->
  <text x="390" y="60" class="label-section">STATE 2: SUCCESS</text>
  <rect x="370" y="70" width="310" height="280" rx="12" fill="#e8d4b8" stroke="#b8a080" stroke-width="1"/>

  <rect x="385" y="90" width="280" height="240" rx="8" fill="#dcfce7" stroke="#22c55e" stroke-width="2"/>

  <!-- Checkmark -->
  <circle cx="525" cy="150" r="35" fill="#22c55e"/>
  <path d="M505 150 L520 165 L545 135" stroke="#fff" stroke-width="5" fill="none" stroke-linecap="round" stroke-linejoin="round"/>

  <text x="525" y="210" text-anchor="middle" class="heading-lg" fill="#166534">Payment Successful!</text>
  <text x="525" y="235" text-anchor="middle" class="text-md" fill="#166534">Thank you for your payment</text>

  <rect x="405" y="260" width="240" height="50" rx="6" fill="#fff"/>
  <text x="425" y="285" class="text-sm" fill="#166534">Amount:</text>
  <text x="615" y="285" text-anchor="end" class="heading" fill="#166534">$25.00 USD</text>
  <text x="425" y="302" class="text-sm" fill="#166534">Confirmation:</text>
  <text x="615" y="302" text-anchor="end" class="text-sm" fill="#166534">#PAY-2026-0001</text>

  <!-- STATE 3: FAILED -->
  <text x="720" y="60" class="label-section">STATE 3: FAILED</text>
  <rect x="700" y="70" width="310" height="280" rx="12" fill="#e8d4b8" stroke="#b8a080" stroke-width="1"/>

  <rect x="715" y="90" width="280" height="240" rx="8" fill="#fee2e2" stroke="#ef4444" stroke-width="2"/>

  <!-- Error icon -->
  <circle cx="855" cy="145" r="30" fill="#ef4444"/>
  <text x="855" y="157" text-anchor="middle" fill="#fff" font-family="system-ui" font-size="36" font-weight="bold">!</text>

  <text x="855" y="200" text-anchor="middle" class="heading" fill="#991b1b">Payment Failed</text>
  <text x="855" y="225" text-anchor="middle" class="text-sm" fill="#991b1b">Your card was declined</text>

  <rect x="735" y="245" width="240" height="36" rx="6" fill="#ef4444"/>
  <text x="855" y="269" text-anchor="middle" fill="#fff" font-family="system-ui" font-size="14" font-weight="600">Try Again</text>

  <text x="855" y="310" text-anchor="middle" class="text-sm" fill="#8b5cf6">Use different payment method</text>

  <!-- STATE 4: OFFLINE QUEUED -->
  <text x="1050" y="60" class="label-section">STATE 4: OFFLINE QUEUED</text>
  <rect x="1030" y="70" width="310" height="280" rx="12" fill="#e8d4b8" stroke="#b8a080" stroke-width="1"/>

  <!-- Offline banner -->
  <rect x="1045" y="85" width="280" height="32" rx="6" fill="#fef3c7" stroke="#f59e0b"/>
  <circle cx="1065" cy="101" r="8" fill="none" stroke="#f59e0b" stroke-width="2"/>
  <line x1="1061" y1="97" x2="1069" y2="105" stroke="#f59e0b" stroke-width="2"/>
  <text x="1080" y="106" class="text-sm" fill="#92400e" font-weight="500">You're offline</text>

  <rect x="1045" y="125" width="280" height="205" rx="8" fill="#e0f2fe" stroke="#0ea5e9"/>

  <!-- Queue icon -->
  <circle cx="1185" cy="175" r="25" fill="#0ea5e9"/>
  <rect x="1172" y="167" width="26" height="5" rx="2" fill="#fff"/>
  <rect x="1172" y="175" width="20" height="5" rx="2" fill="#fff"/>
  <rect x="1172" y="183" width="23" height="5" rx="2" fill="#fff"/>

  <text x="1185" y="225" text-anchor="middle" class="heading" fill="#0369a1">Payment Queued</text>
  <text x="1185" y="250" text-anchor="middle" class="text-sm" fill="#0369a1">Your payment will be processed</text>
  <text x="1185" y="268" text-anchor="middle" class="text-sm" fill="#0369a1">when you're back online</text>

  <rect x="1105" y="285" width="160" height="30" rx="6" fill="#0ea5e9"/>
  <text x="1185" y="305" text-anchor="middle" fill="#fff" font-size="12" font-weight="600">1 payment pending</text>

  <!-- SUBSCRIPTION RETRY STATES -->
  <text x="60" y="380" class="label-section">SUBSCRIPTION RETRY STATES</text>

  <!-- Retry in progress -->
  <rect x="40" y="395" width="320" height="160" rx="12" fill="#e8d4b8" stroke="#b8a080" stroke-width="1"/>

  <rect x="55" y="410" width="290" height="130" rx="8" fill="#fef3c7" stroke="#f59e0b"/>
  <text x="200" y="440" text-anchor="middle" class="heading" fill="#92400e">Payment Retry Scheduled</text>
  <text x="200" y="465" text-anchor="middle" class="text-sm" fill="#92400e">Your subscription payment failed</text>

  <rect x="75" y="480" width="250" height="40" rx="6" fill="#fff"/>
  <text x="90" y="500" class="text-sm">Retry attempt:</text>
  <text x="290" y="500" text-anchor="end" class="text-md" fill="#92400e" font-weight="600">1 of 3</text>
  <text x="90" y="515" class="text-sm">Next retry:</text>
  <text x="290" y="515" text-anchor="end" class="text-sm">in 24 hours</text>

  <!-- Grace period -->
  <rect x="380" y="395" width="320" height="160" rx="12" fill="#e8d4b8" stroke="#b8a080" stroke-width="1"/>

  <rect x="395" y="410" width="290" height="130" rx="8" fill="#fee2e2" stroke="#ef4444"/>
  <rect x="405" y="420" width="80" height="22" rx="11" fill="#ef4444"/>
  <text x="445" y="435" text-anchor="middle" fill="#fff" font-size="10" font-weight="600">GRACE PERIOD</text>

  <text x="540" y="460" text-anchor="middle" class="heading" fill="#991b1b">Action Required</text>
  <text x="540" y="485" text-anchor="middle" class="text-sm" fill="#991b1b">Update your payment method to</text>
  <text x="540" y="502" text-anchor="middle" class="text-sm" fill="#991b1b">continue your subscription</text>

  <rect x="415" y="510" width="250" height="22" rx="4" fill="#fff"/>
  <text x="540" y="525" text-anchor="middle" class="text-sm" fill="#991b1b">Expires in: 5 days</text>

  <!-- Cancelled -->
  <rect x="720" y="395" width="320" height="160" rx="12" fill="#e8d4b8" stroke="#b8a080" stroke-width="1"/>

  <rect x="735" y="410" width="290" height="130" rx="8" fill="#f5f0e6" stroke="#b8a080"/>
  <rect x="745" y="420" width="80" height="22" rx="11" fill="#9ca3af"/>
  <text x="785" y="435" text-anchor="middle" fill="#fff" font-size="10" font-weight="600">CANCELLED</text>

  <text x="880" y="460" text-anchor="middle" class="heading">Subscription Ended</text>
  <text x="880" y="485" text-anchor="middle" class="text-sm">Your Pro plan has been cancelled</text>

  <rect x="755" y="505" width="250" height="30" rx="6" fill="#8b5cf6"/>
  <text x="880" y="526" text-anchor="middle" fill="#fff" font-size="12" font-weight="600">Resubscribe</text>

  <!-- NOTIFICATIONS -->
  <text x="60" y="585" class="label-section">PAYMENT NOTIFICATIONS</text>

  <!-- Email notification preview -->
  <rect x="40" y="600" width="400" height="170" rx="8" fill="#f5f0e6" stroke="#b8a080"/>
  <text x="60" y="625" class="heading">Email Notification</text>

  <rect x="55" y="640" width="370" height="115" rx="6" fill="#fff"/>
  <text x="75" y="665" class="text-md" font-weight="600">Payment Successful!</text>
  <text x="75" y="688" class="text-sm">Your payment of $29.00 for Pro Plan</text>
  <text x="75" y="705" class="text-sm">has been processed successfully.</text>
  <text x="75" y="728" class="text-sm">Confirmation: #PAY-2026-0001</text>
  <text x="75" y="745" class="text-sm" fill="#8b5cf6">View receipt →</text>

  <!-- Toast notifications -->
  <rect x="460" y="600" width="300" height="170" rx="8" fill="#f5f0e6" stroke="#b8a080"/>
  <text x="480" y="625" class="heading">In-App Toasts</text>

  <!-- Success toast -->
  <rect x="475" y="645" width="270" height="40" rx="6" fill="#22c55e"/>
  <circle cx="500" cy="665" r="12" fill="#fff"/>
  <text x="500" y="670" text-anchor="middle" fill="#22c55e" font-size="12" font-weight="bold">✓</text>
  <text x="520" y="660" fill="#fff" font-size="11" font-weight="600">Payment confirmed!</text>
  <text x="520" y="675" fill="#dcfce7" font-size="9">$25.00 processed</text>

  <!-- Failure toast -->
  <rect x="475" y="695" width="270" height="40" rx="6" fill="#ef4444"/>
  <circle cx="500" cy="715" r="12" fill="#fff"/>
  <text x="500" y="720" text-anchor="middle" fill="#ef4444" font-size="12" font-weight="bold">!</text>
  <text x="520" y="710" fill="#fff" font-size="11" font-weight="600">Payment failed</text>
  <text x="520" y="725" fill="#fecaca" font-size="9">Card declined</text>
  <rect x="685" y="705" width="50" height="20" rx="4" fill="#fff"/>
  <text x="710" y="719" text-anchor="middle" fill="#ef4444" font-size="9" font-weight="600">Retry</text>

  <!-- Dashboard widget -->
  <rect x="780" y="600" width="300" height="170" rx="8" fill="#f5f0e6" stroke="#b8a080"/>
  <text x="800" y="625" class="heading">Dashboard Widget</text>

  <rect x="795" y="640" width="270" height="115" rx="6" fill="#fff"/>
  <text x="815" y="665" class="text-md" font-weight="600">Payment Activity</text>

  <rect x="815" y="680" width="230" height="30" rx="4" fill="#dcfce7"/>
  <text x="825" y="700" class="text-sm" fill="#166534">✓ Dec 15 — $29.00</text>

  <rect x="815" y="715" width="230" height="30" rx="4" fill="#dcfce7"/>
  <text x="825" y="735" class="text-sm" fill="#166534">✓ Nov 15 — $29.00</text>

  <!-- MOBILE TOAST STACK -->
  <text x="1100" y="380" class="label-section">MOBILE TOASTS</text>

  <!-- Phone frame -->
  <rect x="1080" y="395" width="260" height="380" rx="20" fill="#c8b898" stroke="#a08860" stroke-width="2"/>
  <rect x="1088" y="403" width="244" height="364" rx="14" fill="#e8d4b8"/>

  <!-- Status bar -->
  <rect x="1088" y="403" width="244" height="22" rx="14" fill="#dcc8a8"/>
  <text x="1100" y="417" font-size="9" fill="#4b5563">9:41</text>

  <!-- Content placeholder -->
  <rect x="1100" y="435" width="220" height="200" rx="8" fill="#f5f0e6" opacity="0.5"/>

  <!-- Stack of toasts -->
  <rect x="1095" y="650" width="230" height="50" rx="8" fill="#22c55e"/>
  <circle cx="1115" cy="675" r="10" fill="#fff"/>
  <text x="1115" y="680" text-anchor="middle" fill="#22c55e" font-size="10" font-weight="bold">✓</text>
  <text x="1130" y="668" fill="#fff" font-size="10" font-weight="600">Payment successful</text>
  <text x="1130" y="683" fill="#dcfce7" font-size="8">$25.00 processed</text>

  <rect x="1095" y="710" width="230" height="50" rx="8" fill="#0ea5e9"/>
  <circle cx="1115" cy="735" r="10" fill="#fff"/>
  <rect x="1110" y="732" width="10" height="3" rx="1" fill="#0ea5e9"/>
  <rect x="1110" y="737" width="8" height="3" rx="1" fill="#0ea5e9"/>
  <text x="1130" y="728" fill="#fff" font-size="10" font-weight="600">Payment queued</text>
  <text x="1130" y="743" fill="#bae6fd" font-size="8">Will send when online</text>

  <!-- Annotations -->
  <g id="annotations">
    <rect x="40" y="775" width="120" height="20" rx="4" fill="#e8d4b8" stroke="#8b5cf6"/>
    <text x="100" y="789" text-anchor="middle" class="annotation">FR-006</text>

    <rect x="180" y="775" width="140" height="20" rx="4" fill="#e8d4b8" stroke="#8b5cf6"/>
    <text x="250" y="789" text-anchor="middle" class="annotation">FR-013/014/015</text>

    <rect x="340" y="775" width="120" height="20" rx="4" fill="#e8d4b8" stroke="#8b5cf6"/>
    <text x="400" y="789" text-anchor="middle" class="annotation">FR-021/022</text>

    <rect x="480" y="775" width="140" height="20" rx="4" fill="#e8d4b8" stroke="#8b5cf6"/>
    <text x="550" y="789" text-anchor="middle" class="annotation">FR-023/024/025</text>
  </g>
</svg>
