<svg xmlns="http://www.w3.org/2000/svg" viewBox="0 0 1400 800" width="1400" height="800">
  <!-- ============================================================
       GENERATED BY: /wireframe skill
       SOURCE: features/integrations/024-payment-integration/spec.md
       DATE: 2025-12-31
       DO NOT MANUALLY EDIT - Regenerate with /wireframe command
       ============================================================ -->
  <defs>
    <linearGradient id="bgGrad" x1="0%" y1="0%" x2="100%" y2="100%">
      <stop offset="0%" style="stop-color:#0f172a"/>
      <stop offset="100%" style="stop-color:#1e293b"/>
    </linearGradient>
    <linearGradient id="accentGrad" x1="0%" y1="0%" x2="100%" y2="0%">
      <stop offset="0%" style="stop-color:#8b5cf6"/>
      <stop offset="100%" style="stop-color:#d946ef"/>
    </linearGradient>
    <linearGradient id="successGrad" x1="0%" y1="0%" x2="100%" y2="0%">
      <stop offset="0%" style="stop-color:#22c55e"/>
      <stop offset="100%" style="stop-color:#16a34a"/>
    </linearGradient>
    <linearGradient id="errorGrad" x1="0%" y1="0%" x2="100%" y2="0%">
      <stop offset="0%" style="stop-color:#ef4444"/>
      <stop offset="100%" style="stop-color:#dc2626"/>
    </linearGradient>
    <style>
      .heading-lg { fill: #ffffff; font-family: system-ui, sans-serif; font-size: 20px; font-weight: bold; }
      .heading { fill: #ffffff; font-family: system-ui, sans-serif; font-size: 14px; font-weight: bold; }
      .text-md { fill: #cbd5e1; font-family: system-ui, sans-serif; font-size: 12px; }
      .text-sm { fill: #94a3b8; font-family: system-ui, sans-serif; font-size: 10px; }
      .text-muted { fill: #64748b; font-family: system-ui, sans-serif; font-size: 10px; }
      .annotation { fill: #8b5cf6; font-family: monospace; font-size: 10px; }
      .label-desktop { fill: #8b5cf6; font-family: monospace; font-size: 11px; font-weight: bold; }
      .label-mobile { fill: #d946ef; font-family: monospace; font-size: 11px; font-weight: bold; }
      .state-label { fill: #ffffff; font-family: monospace; font-size: 11px; font-weight: bold; letter-spacing: 1px; }
    </style>
  </defs>

  <!-- Background -->
  <rect width="1400" height="800" fill="url(#bgGrad)"/>

  <!-- Dot grid pattern -->
  <g opacity="0.05">
    <pattern id="dots" width="30" height="30" patternUnits="userSpaceOnUse">
      <circle cx="15" cy="15" r="1" fill="#fff"/>
    </pattern>
    <rect width="1400" height="800" fill="url(#dots)"/>
  </g>

  <!-- Accent line top -->
  <rect x="0" y="0" width="1400" height="3" fill="url(#accentGrad)"/>

  <!-- Title -->
  <text x="700" y="28" text-anchor="middle" font-family="system-ui, sans-serif" font-size="14" font-weight="600" fill="#64748b" letter-spacing="1">PAYMENT STATES (SUCCESS / ERROR / RETRY / OFFLINE)</text>

  <!-- DESKTOP SECTION - 2x2 Grid of States -->
  <text x="40" y="52" class="label-desktop">DESKTOP STATES</text>

  <!-- SUCCESS STATE (Top Left) -->
  <g transform="translate(40, 65)">
    <rect x="0" y="0" width="440" height="350" rx="8" fill="#1e293b" stroke="#22c55e" stroke-width="2"/>
    <rect x="0" y="0" width="440" height="30" rx="8" fill="#22c55e"/>
    <rect x="0" y="15" width="440" height="15" fill="#22c55e"/>
    <text x="220" y="20" text-anchor="middle" class="state-label">SUCCESS</text>

    <g transform="translate(220, 130)">
      <circle cx="0" cy="0" r="50" fill="#22c55e" opacity="0.2"/>
      <circle cx="0" cy="0" r="35" fill="#22c55e"/>
      <text x="0" y="10" text-anchor="middle" fill="#fff" font-size="30">✓</text>
    </g>

    <text x="220" y="210" text-anchor="middle" class="heading-lg">Payment Successful!</text>
    <text x="220" y="235" text-anchor="middle" class="text-md">Your payment of $25.00 has been processed</text>

    <rect x="100" y="250" width="240" height="36" rx="6" fill="#0f172a" stroke="#475569" stroke-width="1"/>
    <text x="120" y="273" class="text-sm">Transaction ID:</text>
    <text x="320" y="273" text-anchor="end" class="text-md">TXN-2024-12345</text>

    <rect x="120" y="300" width="200" height="40" rx="8" fill="url(#accentGrad)"/>
    <text x="220" y="326" text-anchor="middle" fill="#fff" font-size="12" font-weight="bold">View Receipt</text>
  </g>

  <!-- ERROR STATE (Top Right) -->
  <g transform="translate(500, 65)">
    <rect x="0" y="0" width="440" height="350" rx="8" fill="#1e293b" stroke="#ef4444" stroke-width="2"/>
    <rect x="0" y="0" width="440" height="30" rx="8" fill="#ef4444"/>
    <rect x="0" y="15" width="440" height="15" fill="#ef4444"/>
    <text x="220" y="20" text-anchor="middle" class="state-label">ERROR</text>

    <g transform="translate(220, 130)">
      <circle cx="0" cy="0" r="50" fill="#ef4444" opacity="0.2"/>
      <circle cx="0" cy="0" r="35" fill="#ef4444"/>
      <text x="0" y="12" text-anchor="middle" fill="#fff" font-size="30">✗</text>
    </g>

    <text x="220" y="210" text-anchor="middle" class="heading-lg">Payment Failed</text>
    <text x="220" y="235" text-anchor="middle" class="text-md">Your card was declined. Please try another payment method.</text>

    <rect x="50" y="255" width="340" height="50" rx="6" fill="#0f172a" stroke="#ef4444" stroke-width="1"/>
    <text x="70" y="275" fill="#ef4444" font-size="12">⚠</text>
    <text x="90" y="275" class="text-sm">Error: Insufficient funds (Code: card_declined)</text>
    <text x="90" y="295" class="text-muted">Contact your bank if this persists</text>

    <rect x="70" y="315" width="145" height="36" rx="6" fill="url(#accentGrad)"/>
    <text x="142" y="339" text-anchor="middle" fill="#fff" font-size="11" font-weight="bold">Try Again</text>

    <rect x="225" y="315" width="145" height="36" rx="6" fill="#334155" stroke="#475569" stroke-width="1"/>
    <text x="297" y="339" text-anchor="middle" class="text-md">Use Different Card</text>
  </g>

  <!-- RETRY STATE (Bottom Left) -->
  <g transform="translate(40, 430)">
    <rect x="0" y="0" width="440" height="350" rx="8" fill="#1e293b" stroke="#eab308" stroke-width="2"/>
    <rect x="0" y="0" width="440" height="30" rx="8" fill="#eab308"/>
    <rect x="0" y="15" width="440" height="15" fill="#eab308"/>
    <text x="220" y="20" text-anchor="middle" fill="#0f172a" font-family="monospace" font-size="11" font-weight="bold" letter-spacing="1">SUBSCRIPTION RETRY</text>

    <g transform="translate(220, 120)">
      <circle cx="0" cy="0" r="40" fill="#eab308" opacity="0.2"/>
      <circle cx="0" cy="0" r="28" fill="none" stroke="#eab308" stroke-width="3"/>
      <text x="0" y="8" text-anchor="middle" fill="#eab308" font-size="24">⟳</text>
    </g>

    <text x="220" y="185" text-anchor="middle" class="heading-lg">Payment Retry Scheduled</text>
    <text x="220" y="210" text-anchor="middle" class="text-md">Your subscription payment failed. We'll retry automatically.</text>

    <!-- Retry timeline -->
    <rect x="50" y="225" width="340" height="80" rx="6" fill="#0f172a" stroke="#475569" stroke-width="1"/>
    <text x="70" y="250" class="heading">Retry Schedule</text>

    <!-- Timeline dots -->
    <circle cx="85" cy="280" r="8" fill="#ef4444"/>
    <text x="85" y="284" text-anchor="middle" fill="#fff" font-size="8">1</text>
    <line x1="93" y1="280" x2="140" y2="280" stroke="#475569" stroke-width="2"/>

    <circle cx="155" cy="280" r="8" fill="#eab308"/>
    <text x="155" y="284" text-anchor="middle" fill="#0f172a" font-size="8">2</text>
    <line x1="163" y1="280" x2="210" y2="280" stroke="#475569" stroke-width="2" stroke-dasharray="4,2"/>

    <circle cx="225" cy="280" r="8" fill="#334155" stroke="#475569" stroke-width="1"/>
    <text x="225" y="284" text-anchor="middle" class="text-muted">3</text>
    <line x1="233" y1="280" x2="280" y2="280" stroke="#475569" stroke-width="2" stroke-dasharray="4,2"/>

    <circle cx="295" cy="280" r="8" fill="#334155" stroke="#475569" stroke-width="1"/>
    <text x="295" y="284" text-anchor="middle" class="text-muted">4</text>

    <text x="85" y="298" text-anchor="middle" class="text-muted">Failed</text>
    <text x="155" y="298" text-anchor="middle" class="text-muted">24h</text>
    <text x="225" y="298" text-anchor="middle" class="text-muted">3 days</text>
    <text x="295" y="298" text-anchor="middle" class="text-muted">7 days</text>

    <rect x="120" y="315" width="200" height="36" rx="6" fill="url(#accentGrad)"/>
    <text x="220" y="339" text-anchor="middle" fill="#fff" font-size="11" font-weight="bold">Update Payment Method</text>
  </g>

  <!-- OFFLINE STATE (Bottom Right) -->
  <g transform="translate(500, 430)">
    <rect x="0" y="0" width="440" height="350" rx="8" fill="#1e293b" stroke="#64748b" stroke-width="2"/>
    <rect x="0" y="0" width="440" height="30" rx="8" fill="#64748b"/>
    <rect x="0" y="15" width="440" height="15" fill="#64748b"/>
    <text x="220" y="20" text-anchor="middle" class="state-label">OFFLINE</text>

    <g transform="translate(220, 120)">
      <circle cx="0" cy="0" r="40" fill="#64748b" opacity="0.2"/>
      <circle cx="0" cy="0" r="28" fill="#64748b"/>
      <text x="0" y="8" text-anchor="middle" fill="#fff" font-size="20">📵</text>
    </g>

    <text x="220" y="185" text-anchor="middle" class="heading-lg">You're Offline</text>
    <text x="220" y="210" text-anchor="middle" class="text-md">Your payment will be queued and processed when online.</text>

    <!-- Queued payment card -->
    <rect x="50" y="225" width="340" height="80" rx="6" fill="#0f172a" stroke="#8b5cf6" stroke-width="1"/>

    <text x="70" y="250" class="heading">Queued Payment</text>
    <rect x="300" y="235" width="70" height="20" rx="10" fill="#8b5cf6" opacity="0.2"/>
    <text x="335" y="249" text-anchor="middle" fill="#8b5cf6" font-size="10">PENDING</text>

    <text x="70" y="275" class="text-sm">Pro Subscription</text>
    <text x="360" y="275" text-anchor="end" class="text-md">$19.00</text>

    <text x="70" y="295" class="text-muted">Queued: Dec 31, 2025 at 2:45 PM</text>

    <!-- Connection status -->
    <rect x="50" y="315" width="340" height="40" rx="6" fill="#334155"/>

    <!-- Animated spinner -->
    <g transform="translate(80, 335)">
      <circle cx="0" cy="0" r="10" fill="none" stroke="#334155" stroke-width="2"/>
      <path d="M 0 -10 A 10 10 0 0 1 10 0" fill="none" stroke="#8b5cf6" stroke-width="2" stroke-linecap="round">
        <animateTransform attributeName="transform" type="rotate" from="0" to="360" dur="1s" repeatCount="indefinite"/>
      </path>
    </g>

    <text x="100" y="340" class="text-md">Waiting for connection...</text>
    <text x="360" y="340" text-anchor="end" class="text-sm">1 item queued</text>
  </g>

  <!-- MOBILE SECTION - Stacked State Cards -->
  <text x="980" y="52" class="label-mobile">MOBILE STATES</text>
  <g id="mobile-view" transform="translate(980, 60)">
    <!-- Phone frame -->
    <rect x="0" y="0" width="360" height="700" rx="24" fill="#1e293b" stroke="#475569" stroke-width="2"/>
    <rect x="10" y="10" width="340" height="680" rx="16" fill="#0f172a"/>

    <!-- Status bar with offline indicator -->
    <rect x="10" y="10" width="340" height="28" rx="16" fill="#1e293b"/>
    <text x="30" y="28" class="text-sm">9:41</text>
    <rect x="230" y="17" width="50" height="14" rx="7" fill="#ef4444"/>
    <text x="255" y="27" text-anchor="middle" fill="#fff" font-size="8">OFFLINE</text>
    <text x="310" y="28" class="text-sm">25%</text>

    <!-- Header -->
    <rect x="20" y="48" width="320" height="44" rx="8" fill="#1e293b"/>
    <text x="35" y="75" class="text-md">←</text>
    <text x="180" y="75" text-anchor="middle" class="heading">Payment</text>

    <!-- Success mini card -->
    <g transform="translate(30, 105)">
      <rect x="0" y="0" width="300" height="100" rx="8" fill="#1e293b" stroke="#22c55e" stroke-width="1"/>
      <circle cx="40" cy="50" r="25" fill="#22c55e"/>
      <text x="40" y="57" text-anchor="middle" fill="#fff" font-size="20">✓</text>
      <text x="80" y="40" class="heading">Payment Successful</text>
      <text x="80" y="60" class="text-sm">$25.00 processed</text>
      <text x="80" y="80" class="text-muted">TXN-2024-12345</text>
    </g>

    <!-- Error mini card -->
    <g transform="translate(30, 220)">
      <rect x="0" y="0" width="300" height="100" rx="8" fill="#1e293b" stroke="#ef4444" stroke-width="1"/>
      <circle cx="40" cy="50" r="25" fill="#ef4444"/>
      <text x="40" y="57" text-anchor="middle" fill="#fff" font-size="20">✗</text>
      <text x="80" y="40" class="heading">Payment Failed</text>
      <text x="80" y="60" class="text-sm">Card declined</text>
      <rect x="80" y="70" width="60" height="22" rx="4" fill="url(#accentGrad)"/>
      <text x="110" y="85" text-anchor="middle" fill="#fff" font-size="9">Retry</text>
    </g>

    <!-- Retry mini card -->
    <g transform="translate(30, 335)">
      <rect x="0" y="0" width="300" height="100" rx="8" fill="#1e293b" stroke="#eab308" stroke-width="1"/>
      <circle cx="40" cy="50" r="25" fill="#eab308"/>
      <text x="40" y="57" text-anchor="middle" fill="#0f172a" font-size="16">⟳</text>
      <text x="80" y="40" class="heading">Retry Scheduled</text>
      <text x="80" y="60" class="text-sm">Next attempt in 24h</text>
      <text x="80" y="80" class="text-muted">Attempt 2 of 4</text>
    </g>

    <!-- Offline queue mini card -->
    <g transform="translate(30, 450)">
      <rect x="0" y="0" width="300" height="120" rx="8" fill="#1e293b" stroke="#8b5cf6" stroke-width="1"/>
      <circle cx="40" cy="40" r="25" fill="#64748b"/>
      <text x="40" y="47" text-anchor="middle" fill="#fff" font-size="14">📵</text>
      <text x="80" y="35" class="heading">Queued Payment</text>
      <text x="80" y="55" class="text-sm">Pro Subscription - $19.00</text>

      <rect x="20" y="75" width="260" height="30" rx="6" fill="#334155"/>
      <g transform="translate(40, 90)">
        <circle cx="0" cy="0" r="8" fill="none" stroke="#334155" stroke-width="2"/>
        <path d="M 0 -8 A 8 8 0 0 1 8 0" fill="none" stroke="#8b5cf6" stroke-width="2" stroke-linecap="round">
          <animateTransform attributeName="transform" type="rotate" from="0" to="360" dur="1s" repeatCount="indefinite"/>
        </path>
      </g>
      <text x="60" y="95" class="text-sm">Waiting for connection</text>
    </g>

    <!-- Pull to refresh hint -->
    <text x="180" y="600" text-anchor="middle" class="text-muted">↓ Pull to refresh status</text>

    <!-- Bottom safe area -->
    <rect x="130" y="675" width="100" height="5" rx="2" fill="#475569"/>
  </g>
</svg>