<svg xmlns="http://www.w3.org/2000/svg" viewBox="0 0 1600 900" width="1600" height="900">
  <!-- ============================================================
       GENERATED BY: /wireframe skill
       SOURCE: features/integrations/024-payment-integration/spec.md
       DATE: 2025-12-31
       DO NOT MANUALLY EDIT - Regenerate with /wireframe command
       ============================================================ -->
  <defs>
    <linearGradient id="bgGrad" x1="0%" y1="0%" x2="100%" y2="100%">
      <stop offset="0%" style="stop-color:#0f172a"/>
      <stop offset="100%" style="stop-color:#1e293b"/>
    </linearGradient>
    <linearGradient id="accentGrad" x1="0%" y1="0%" x2="100%" y2="0%">
      <stop offset="0%" style="stop-color:#8b5cf6"/>
      <stop offset="100%" style="stop-color:#d946ef"/>
    </linearGradient>
    <linearGradient id="stripeGrad" x1="0%" y1="0%" x2="100%" y2="0%">
      <stop offset="0%" style="stop-color:#635bff"/>
      <stop offset="100%" style="stop-color:#7c3aed"/>
    </linearGradient>
    <linearGradient id="paypalGrad" x1="0%" y1="0%" x2="100%" y2="0%">
      <stop offset="0%" style="stop-color:#003087"/>
      <stop offset="100%" style="stop-color:#009cde"/>
    </linearGradient>
    <marker id="arrowhead" markerWidth="10" markerHeight="7" refX="9" refY="3.5" orient="auto">
      <polygon points="0 0, 10 3.5, 0 7" fill="#8b5cf6"/>
    </marker>
    <marker id="arrowhead-green" markerWidth="10" markerHeight="7" refX="9" refY="3.5" orient="auto">
      <polygon points="0 0, 10 3.5, 0 7" fill="#22c55e"/>
    </marker>
    <marker id="arrowhead-orange" markerWidth="10" markerHeight="7" refX="9" refY="3.5" orient="auto">
      <polygon points="0 0, 10 3.5, 0 7" fill="#f97316"/>
    </marker>
    <style>
      .heading-lg { fill: #ffffff; font-family: system-ui, sans-serif; font-size: 20px; font-weight: bold; }
      .heading { fill: #ffffff; font-family: system-ui, sans-serif; font-size: 14px; font-weight: bold; }
      .heading-sm { fill: #ffffff; font-family: system-ui, sans-serif; font-size: 12px; font-weight: bold; }
      .text-md { fill: #cbd5e1; font-family: system-ui, sans-serif; font-size: 12px; }
      .text-sm { fill: #94a3b8; font-family: system-ui, sans-serif; font-size: 10px; }
      .text-muted { fill: #64748b; font-family: system-ui, sans-serif; font-size: 10px; }
      .annotation { fill: #8b5cf6; font-family: monospace; font-size: 10px; }
      .code { fill: #22c55e; font-family: monospace; font-size: 9px; }
      .label { fill: #8b5cf6; font-family: monospace; font-size: 11px; font-weight: bold; letter-spacing: 1px; }
    </style>
  </defs>

  <!-- Background -->
  <rect width="1600" height="900" fill="url(#bgGrad)"/>

  <!-- Dot grid pattern -->
  <g opacity="0.03">
    <pattern id="dots" width="30" height="30" patternUnits="userSpaceOnUse">
      <circle cx="15" cy="15" r="1" fill="#fff"/>
    </pattern>
    <rect width="1600" height="900" fill="url(#dots)"/>
  </g>

  <!-- Accent line top -->
  <rect x="0" y="0" width="1600" height="3" fill="url(#accentGrad)"/>

  <!-- Title -->
  <text x="800" y="35" text-anchor="middle" font-family="system-ui, sans-serif" font-size="18" font-weight="600" fill="#64748b" letter-spacing="1">PAYMENT INTEGRATION ARCHITECTURE</text>

  <!-- ===== CLIENT LAYER ===== -->
  <text x="60" y="80" class="label">CLIENT LAYER</text>

  <!-- Browser/Client -->
  <g transform="translate(60, 95)">
    <rect x="0" y="0" width="300" height="200" rx="12" fill="#1e293b" stroke="#475569" stroke-width="2"/>
    <rect x="0" y="0" width="300" height="35" rx="12" fill="#334155"/>
    <rect x="0" y="20" width="300" height="15" fill="#334155"/>
    <text x="150" y="24" text-anchor="middle" class="heading">Browser / PWA Client</text>

    <!-- Payment Form component -->
    <rect x="15" y="50" width="130" height="60" rx="6" fill="#0f172a" stroke="#8b5cf6" stroke-width="1"/>
    <text x="80" y="70" text-anchor="middle" class="heading-sm">PaymentForm</text>
    <text x="80" y="88" text-anchor="middle" class="text-muted">React Component</text>
    <text x="80" y="102" text-anchor="middle" class="code">usePayment()</text>

    <!-- Consent Manager -->
    <rect x="155" y="50" width="130" height="60" rx="6" fill="#0f172a" stroke="#22c55e" stroke-width="1"/>
    <text x="220" y="70" text-anchor="middle" class="heading-sm">ConsentManager</text>
    <text x="220" y="88" text-anchor="middle" class="text-muted">GDPR Compliance</text>
    <text x="220" y="102" text-anchor="middle" class="code">FR-018</text>

    <!-- Offline Queue -->
    <rect x="15" y="120" width="270" height="65" rx="6" fill="#0f172a" stroke="#f97316" stroke-width="1"/>
    <text x="150" y="140" text-anchor="middle" class="heading-sm">OfflineQueue (IndexedDB)</text>
    <text x="150" y="158" text-anchor="middle" class="text-muted">Persists operations • Background sync</text>
    <text x="150" y="175" text-anchor="middle" class="code">FR-023, FR-024, FR-025</text>
  </g>

  <!-- ===== PAYMENT PROVIDERS ===== -->
  <text x="450" y="80" class="label">PAYMENT PROVIDERS</text>

  <!-- Stripe -->
  <g transform="translate(450, 95)">
    <rect x="0" y="0" width="180" height="90" rx="12" fill="#1e293b" stroke="#635bff" stroke-width="2"/>
    <rect x="15" y="15" width="50" height="30" rx="6" fill="url(#stripeGrad)"/>
    <text x="40" y="35" text-anchor="middle" fill="#fff" font-size="11" font-weight="bold">stripe</text>
    <text x="130" y="35" text-anchor="middle" class="heading-sm">Stripe</text>
    <text x="90" y="60" text-anchor="middle" class="text-sm">Cards, Apple Pay</text>
    <text x="90" y="78" text-anchor="middle" class="code">checkout.stripe.com</text>
  </g>

  <!-- PayPal -->
  <g transform="translate(450, 195)">
    <rect x="0" y="0" width="180" height="90" rx="12" fill="#1e293b" stroke="#003087" stroke-width="2"/>
    <rect x="15" y="15" width="50" height="30" rx="6" fill="url(#paypalGrad)"/>
    <text x="40" y="35" text-anchor="middle" fill="#fff" font-size="10" font-weight="bold">PayPal</text>
    <text x="130" y="35" text-anchor="middle" class="heading-sm">PayPal</text>
    <text x="90" y="60" text-anchor="middle" class="text-sm">PayPal, Venmo</text>
    <text x="90" y="78" text-anchor="middle" class="code">api.paypal.com</text>
  </g>

  <!-- ===== SUPABASE EDGE FUNCTIONS ===== -->
  <text x="720" y="80" class="label">SUPABASE EDGE FUNCTIONS</text>

  <!-- Webhook Handler -->
  <g transform="translate(720, 95)">
    <rect x="0" y="0" width="260" height="130" rx="12" fill="#1e293b" stroke="#8b5cf6" stroke-width="2"/>
    <rect x="0" y="0" width="260" height="35" rx="12" fill="#8b5cf6" opacity="0.3"/>
    <rect x="0" y="20" width="260" height="15" fill="#8b5cf6" opacity="0.3"/>
    <text x="130" y="24" text-anchor="middle" class="heading">payment-webhook</text>

    <text x="20" y="55" class="text-sm">1. Verify signature (FR-008)</text>
    <text x="20" y="75" class="text-sm">2. Check idempotency (FR-011)</text>
    <text x="20" y="95" class="text-sm">3. Update payment status (FR-009)</text>
    <text x="20" y="115" class="text-sm">4. Trigger notifications (FR-021)</text>
  </g>

  <!-- Subscription Manager -->
  <g transform="translate(720, 240)">
    <rect x="0" y="0" width="260" height="110" rx="12" fill="#1e293b" stroke="#d946ef" stroke-width="2"/>
    <rect x="0" y="0" width="260" height="35" rx="12" fill="#d946ef" opacity="0.3"/>
    <rect x="0" y="20" width="260" height="15" fill="#d946ef" opacity="0.3"/>
    <text x="130" y="24" text-anchor="middle" class="heading">subscription-manager</text>

    <text x="20" y="55" class="text-sm">• Track billing dates (FR-012)</text>
    <text x="20" y="75" class="text-sm">• Handle retry logic (FR-013, FR-014)</text>
    <text x="20" y="95" class="text-sm">• Manage grace period (FR-015, FR-016)</text>
  </g>

  <!-- ===== DATABASE LAYER ===== -->
  <text x="1080" y="80" class="label">SUPABASE DATABASE</text>

  <!-- Database Tables -->
  <g transform="translate(1080, 95)">
    <rect x="0" y="0" width="450" height="260" rx="12" fill="#1e293b" stroke="#22c55e" stroke-width="2"/>
    <rect x="0" y="0" width="450" height="35" rx="12" fill="#22c55e" opacity="0.2"/>
    <rect x="0" y="20" width="450" height="15" fill="#22c55e" opacity="0.2"/>
    <text x="225" y="24" text-anchor="middle" class="heading">PostgreSQL + RLS</text>

    <!-- payments table -->
    <rect x="15" y="45" width="200" height="100" rx="6" fill="#0f172a" stroke="#475569" stroke-width="1"/>
    <text x="115" y="65" text-anchor="middle" class="heading-sm">payments</text>
    <text x="25" y="85" class="code">id UUID PK</text>
    <text x="25" y="98" class="code">user_id → users.id</text>
    <text x="25" y="111" class="code">amount DECIMAL</text>
    <text x="25" y="124" class="code">status ENUM</text>
    <text x="25" y="137" class="code">provider VARCHAR</text>

    <!-- subscriptions table -->
    <rect x="230" y="45" width="200" height="100" rx="6" fill="#0f172a" stroke="#475569" stroke-width="1"/>
    <text x="330" y="65" text-anchor="middle" class="heading-sm">subscriptions</text>
    <text x="240" y="85" class="code">id UUID PK</text>
    <text x="240" y="98" class="code">user_id → users.id</text>
    <text x="240" y="111" class="code">plan_type VARCHAR</text>
    <text x="240" y="124" class="code">next_billing DATE</text>
    <text x="240" y="137" class="code">retry_count INT</text>

    <!-- consent_records table -->
    <rect x="15" y="155" width="200" height="90" rx="6" fill="#0f172a" stroke="#475569" stroke-width="1"/>
    <text x="115" y="175" text-anchor="middle" class="heading-sm">consent_records</text>
    <text x="25" y="195" class="code">user_id → users.id</text>
    <text x="25" y="208" class="code">consent_status BOOL</text>
    <text x="25" y="221" class="code">consent_version INT</text>
    <text x="25" y="234" class="code">timestamp TIMESTAMPTZ</text>

    <!-- payment_callbacks table -->
    <rect x="230" y="155" width="200" height="90" rx="6" fill="#0f172a" stroke="#475569" stroke-width="1"/>
    <text x="330" y="175" text-anchor="middle" class="heading-sm">payment_callbacks</text>
    <text x="240" y="195" class="code">event_id VARCHAR UK</text>
    <text x="240" y="208" class="code">provider VARCHAR</text>
    <text x="240" y="221" class="code">signature_valid BOOL</text>
    <text x="240" y="234" class="code">processed_at TIMESTAMPTZ</text>
  </g>

  <!-- ===== RETRY LOGIC DIAGRAM ===== -->
  <text x="60" y="340" class="label">SUBSCRIPTION RETRY FLOW (FR-013, FR-014, FR-015, FR-016)</text>

  <g transform="translate(60, 360)">
    <rect x="0" y="0" width="900" height="200" rx="12" fill="#1e293b" stroke="#475569" stroke-width="1"/>

    <!-- Payment Failed -->
    <rect x="30" y="40" width="100" height="50" rx="8" fill="#ef4444"/>
    <text x="80" y="60" text-anchor="middle" fill="#fff" font-size="10" font-weight="bold">Payment</text>
    <text x="80" y="75" text-anchor="middle" fill="#fff" font-size="10" font-weight="bold">Failed</text>

    <!-- Arrow 1 -->
    <line x1="130" y1="65" x2="170" y2="65" stroke="#8b5cf6" stroke-width="2" marker-end="url(#arrowhead)"/>
    <text x="150" y="55" text-anchor="middle" class="text-muted">immediate</text>

    <!-- Retry 1 (1h) -->
    <rect x="180" y="40" width="100" height="50" rx="8" fill="#eab308"/>
    <text x="230" y="60" text-anchor="middle" fill="#0f172a" font-size="10" font-weight="bold">Retry #1</text>
    <text x="230" y="75" text-anchor="middle" fill="#0f172a" font-size="10">after 1 hour</text>

    <!-- Arrow 2 -->
    <line x1="280" y1="65" x2="320" y2="65" stroke="#8b5cf6" stroke-width="2" marker-end="url(#arrowhead)"/>
    <text x="300" y="55" text-anchor="middle" class="text-muted">1h</text>

    <!-- Retry 2 (24h) -->
    <rect x="330" y="40" width="100" height="50" rx="8" fill="#eab308"/>
    <text x="380" y="60" text-anchor="middle" fill="#0f172a" font-size="10" font-weight="bold">Retry #2</text>
    <text x="380" y="75" text-anchor="middle" fill="#0f172a" font-size="10">after 24 hours</text>

    <!-- Arrow 3 -->
    <line x1="430" y1="65" x2="470" y2="65" stroke="#8b5cf6" stroke-width="2" marker-end="url(#arrowhead)"/>
    <text x="450" y="55" text-anchor="middle" class="text-muted">24h</text>

    <!-- Retry 3 (3 days) -->
    <rect x="480" y="40" width="100" height="50" rx="8" fill="#eab308"/>
    <text x="530" y="60" text-anchor="middle" fill="#0f172a" font-size="10" font-weight="bold">Retry #3</text>
    <text x="530" y="75" text-anchor="middle" fill="#0f172a" font-size="10">after 3 days</text>

    <!-- Arrow 4 -->
    <line x1="580" y1="65" x2="620" y2="65" stroke="#8b5cf6" stroke-width="2" marker-end="url(#arrowhead)"/>
    <text x="600" y="55" text-anchor="middle" class="text-muted">3d</text>

    <!-- Grace Period -->
    <rect x="630" y="40" width="100" height="50" rx="8" fill="#f97316"/>
    <text x="680" y="60" text-anchor="middle" fill="#fff" font-size="10" font-weight="bold">Grace</text>
    <text x="680" y="75" text-anchor="middle" fill="#fff" font-size="10">Period (7d)</text>

    <!-- Arrow 5 -->
    <line x1="730" y1="65" x2="770" y2="65" stroke="#ef4444" stroke-width="2" marker-end="url(#arrowhead)"/>
    <text x="750" y="55" text-anchor="middle" class="text-muted">7d</text>

    <!-- Cancelled -->
    <rect x="780" y="40" width="100" height="50" rx="8" fill="#64748b"/>
    <text x="830" y="60" text-anchor="middle" fill="#fff" font-size="10" font-weight="bold">Subscription</text>
    <text x="830" y="75" text-anchor="middle" fill="#fff" font-size="10">Cancelled</text>

    <!-- Success path -->
    <text x="380" y="115" text-anchor="middle" fill="#22c55e" font-size="11">↑ Payment succeeds at any point → Subscription continues ↑</text>

    <!-- Timeline -->
    <line x1="30" y1="150" x2="870" y2="150" stroke="#475569" stroke-width="1"/>
    <text x="80" y="170" text-anchor="middle" class="text-muted">Day 0</text>
    <text x="230" y="170" text-anchor="middle" class="text-muted">+1 hour</text>
    <text x="380" y="170" text-anchor="middle" class="text-muted">Day 1</text>
    <text x="530" y="170" text-anchor="middle" class="text-muted">Day 4</text>
    <text x="680" y="170" text-anchor="middle" class="text-muted">Day 4-11</text>
    <text x="830" y="170" text-anchor="middle" class="text-muted">Day 11</text>

    <!-- Legend -->
    <rect x="30" y="175" width="12" height="12" rx="2" fill="#ef4444"/>
    <text x="50" y="185" class="text-sm">Failed</text>
    <rect x="100" y="175" width="12" height="12" rx="2" fill="#eab308"/>
    <text x="120" y="185" class="text-sm">Retry</text>
    <rect x="170" y="175" width="12" height="12" rx="2" fill="#f97316"/>
    <text x="190" y="185" class="text-sm">Grace</text>
    <rect x="240" y="175" width="12" height="12" rx="2" fill="#64748b"/>
    <text x="260" y="185" class="text-sm">Cancelled</text>
  </g>

  <!-- ===== WEBHOOK FLOW ===== -->
  <text x="1000" y="400" class="label">WEBHOOK VERIFICATION FLOW</text>

  <g transform="translate(1000, 420)">
    <rect x="0" y="0" width="550" height="140" rx="12" fill="#1e293b" stroke="#475569" stroke-width="1"/>

    <!-- Provider -->
    <rect x="20" y="30" width="80" height="80" rx="8" fill="url(#stripeGrad)"/>
    <text x="60" y="65" text-anchor="middle" fill="#fff" font-size="11" font-weight="bold">Stripe</text>
    <text x="60" y="82" text-anchor="middle" fill="#fff" font-size="10">Webhook</text>

    <!-- Arrow -->
    <line x1="100" y1="70" x2="140" y2="70" stroke="#22c55e" stroke-width="2" marker-end="url(#arrowhead-green)"/>
    <text x="120" y="60" text-anchor="middle" class="code">POST</text>

    <!-- Signature Check -->
    <rect x="150" y="30" width="100" height="80" rx="8" fill="#0f172a" stroke="#8b5cf6" stroke-width="1"/>
    <text x="200" y="55" text-anchor="middle" class="heading-sm">Verify</text>
    <text x="200" y="72" text-anchor="middle" class="heading-sm">Signature</text>
    <text x="200" y="92" text-anchor="middle" class="code">FR-008</text>

    <!-- Arrow -->
    <line x1="250" y1="70" x2="290" y2="70" stroke="#22c55e" stroke-width="2" marker-end="url(#arrowhead-green)"/>
    <text x="270" y="60" text-anchor="middle" class="code">valid</text>

    <!-- Idempotency Check -->
    <rect x="300" y="30" width="100" height="80" rx="8" fill="#0f172a" stroke="#8b5cf6" stroke-width="1"/>
    <text x="350" y="55" text-anchor="middle" class="heading-sm">Check</text>
    <text x="350" y="72" text-anchor="middle" class="heading-sm">Idempotency</text>
    <text x="350" y="92" text-anchor="middle" class="code">FR-011</text>

    <!-- Arrow -->
    <line x1="400" y1="70" x2="440" y2="70" stroke="#22c55e" stroke-width="2" marker-end="url(#arrowhead-green)"/>
    <text x="420" y="60" text-anchor="middle" class="code">new</text>

    <!-- Process -->
    <rect x="450" y="30" width="80" height="80" rx="8" fill="#22c55e"/>
    <text x="490" y="65" text-anchor="middle" fill="#0f172a" font-size="10" font-weight="bold">Update</text>
    <text x="490" y="82" text-anchor="middle" fill="#0f172a" font-size="10">Status</text>
  </g>

  <!-- ===== DATA FLOW ARROWS ===== -->
  <!-- Client to Providers -->
  <line x1="360" y1="195" x2="450" y2="140" stroke="#8b5cf6" stroke-width="2" marker-end="url(#arrowhead)"/>
  <line x1="360" y1="195" x2="450" y2="240" stroke="#8b5cf6" stroke-width="2" marker-end="url(#arrowhead)"/>

  <!-- Providers to Edge Functions (webhooks) -->
  <line x1="630" y1="140" x2="720" y2="160" stroke="#22c55e" stroke-width="2" stroke-dasharray="6,3" marker-end="url(#arrowhead-green)"/>
  <line x1="630" y1="240" x2="720" y2="200" stroke="#22c55e" stroke-width="2" stroke-dasharray="6,3" marker-end="url(#arrowhead-green)"/>

  <!-- Edge Functions to Database -->
  <line x1="980" y1="160" x2="1080" y2="200" stroke="#8b5cf6" stroke-width="2" marker-end="url(#arrowhead)"/>
  <line x1="980" y1="295" x2="1080" y2="270" stroke="#8b5cf6" stroke-width="2" marker-end="url(#arrowhead)"/>

  <!-- Offline Queue to Edge Functions -->
  <path d="M 360 270 Q 500 350 720 270" fill="none" stroke="#f97316" stroke-width="2" stroke-dasharray="6,3" marker-end="url(#arrowhead-orange)"/>
  <text x="530" y="330" text-anchor="middle" class="text-sm" fill="#f97316">Background sync when online</text>

  <!-- ===== LEGEND ===== -->
  <g transform="translate(60, 600)">
    <rect x="0" y="0" width="450" height="100" rx="8" fill="#1e293b" stroke="#475569" stroke-width="1"/>
    <text x="20" y="25" class="heading">Legend</text>

    <line x1="20" y1="50" x2="60" y2="50" stroke="#8b5cf6" stroke-width="2" marker-end="url(#arrowhead)"/>
    <text x="70" y="54" class="text-sm">Client request / DB write</text>

    <line x1="200" y1="50" x2="240" y2="50" stroke="#22c55e" stroke-width="2" stroke-dasharray="6,3" marker-end="url(#arrowhead-green)"/>
    <text x="250" y="54" class="text-sm">Webhook callback</text>

    <line x1="20" y1="80" x2="60" y2="80" stroke="#f97316" stroke-width="2" stroke-dasharray="6,3" marker-end="url(#arrowhead-orange)"/>
    <text x="70" y="84" class="text-sm">Offline sync</text>

    <rect x="200" y="70" width="15" height="15" rx="3" fill="#8b5cf6" opacity="0.3" stroke="#8b5cf6" stroke-width="1"/>
    <text x="225" y="82" class="text-sm">Edge Function</text>

    <rect x="330" y="70" width="15" height="15" rx="3" fill="#22c55e" opacity="0.2" stroke="#22c55e" stroke-width="1"/>
    <text x="355" y="82" class="text-sm">Database</text>
  </g>

  <!-- ===== KEY REQUIREMENTS ===== -->
  <g transform="translate(550, 600)">
    <rect x="0" y="0" width="500" height="100" rx="8" fill="#1e293b" stroke="#475569" stroke-width="1"/>
    <text x="20" y="25" class="heading">Key Requirements Mapped</text>

    <text x="20" y="50" class="text-sm">FR-001 to FR-006: Payment processing</text>
    <text x="20" y="68" class="text-sm">FR-007 to FR-011: Webhook verification</text>
    <text x="20" y="86" class="text-sm">FR-012 to FR-017: Subscription management</text>

    <text x="270" y="50" class="text-sm">FR-018 to FR-020: Consent flow</text>
    <text x="270" y="68" class="text-sm">FR-021 to FR-022: Notifications</text>
    <text x="270" y="86" class="text-sm">FR-023 to FR-025: Offline support</text>
  </g>

  <!-- ===== SUCCESS CRITERIA ===== -->
  <g transform="translate(1080, 600)">
    <rect x="0" y="0" width="450" height="100" rx="8" fill="#1e293b" stroke="#22c55e" stroke-width="1"/>
    <text x="20" y="25" class="heading">Success Criteria</text>

    <text x="20" y="50" class="text-sm">SC-001: 99% one-time payment success</text>
    <text x="20" y="68" class="text-sm">SC-002: 95% retry recovery rate</text>
    <text x="20" y="86" class="text-sm">SC-003: 0% script load before consent</text>

    <text x="250" y="50" class="text-sm">SC-004: 100% idempotent webhooks</text>
    <text x="250" y="68" class="text-sm">SC-005: 0% operations lost offline</text>
    <text x="250" y="86" class="text-sm">SC-006: &lt;5min notification delivery</text>
  </g>
</svg>