<svg xmlns="http://www.w3.org/2000/svg" viewBox="0 0 1400 800" width="1400" height="800">
  <!-- ============================================================
       GENERATED BY: /wireframe skill
       SOURCE: features/integrations/024-payment-integration/spec.md
       DATE: 2026-01-01
       THEME: Dark (Backend/Architecture)
       DO NOT MANUALLY EDIT - Regenerate with /wireframe command
       ============================================================ -->
  <defs>
    <linearGradient id="bgGrad" x1="0%" y1="0%" x2="100%" y2="100%">
      <stop offset="0%" style="stop-color:#0f172a"/>
      <stop offset="100%" style="stop-color:#1e293b"/>
    </linearGradient>
    <linearGradient id="accentGrad" x1="0%" y1="0%" x2="100%" y2="0%">
      <stop offset="0%" style="stop-color:#8b5cf6"/>
      <stop offset="100%" style="stop-color:#d946ef"/>
    </linearGradient>
    <marker id="arrowhead" markerWidth="10" markerHeight="7" refX="9" refY="3.5" orient="auto">
      <polygon points="0 0, 10 3.5, 0 7" fill="#8b5cf6"/>
    </marker>
    <marker id="arrowhead-green" markerWidth="10" markerHeight="7" refX="9" refY="3.5" orient="auto">
      <polygon points="0 0, 10 3.5, 0 7" fill="#22c55e"/>
    </marker>
    <marker id="arrowhead-orange" markerWidth="10" markerHeight="7" refX="9" refY="3.5" orient="auto">
      <polygon points="0 0, 10 3.5, 0 7" fill="#f59e0b"/>
    </marker>
    <style>
      .heading-lg { fill: #ffffff; font-family: system-ui, sans-serif; font-size: 20px; font-weight: bold; }
      .heading { fill: #ffffff; font-family: system-ui, sans-serif; font-size: 14px; font-weight: bold; }
      .text-md { fill: #cbd5e1; font-family: system-ui, sans-serif; font-size: 12px; }
      .text-sm { fill: #94a3b8; font-family: system-ui, sans-serif; font-size: 10px; }
      .text-muted { fill: #8494a8; font-family: system-ui, sans-serif; font-size: 10px; }
      .annotation { fill: #6d28d9; font-family: monospace; font-size: 10px; }
      .label-section { fill: #8b5cf6; font-family: monospace; font-size: 11px; font-weight: bold; }
    </style>
  </defs>

  <!-- Background -->
  <rect width="1400" height="800" fill="url(#bgGrad)"/>

  <!-- Dot grid pattern -->
  <g opacity="0.05">
    <pattern id="dots" width="30" height="30" patternUnits="userSpaceOnUse">
      <circle cx="15" cy="15" r="1" fill="#fff"/>
    </pattern>
    <rect width="1400" height="800" fill="url(#dots)"/>
  </g>

  <!-- Accent line top -->
  <rect x="0" y="0" width="1400" height="3" fill="url(#accentGrad)"/>

  <!-- Title -->
  <text x="700" y="28" text-anchor="middle" font-family="system-ui, sans-serif" font-size="14" font-weight="600" fill="#8494a8" letter-spacing="1">PAYMENT INTEGRATION — SYSTEM ARCHITECTURE</text>

  <!-- ===== CLIENT LAYER ===== -->
  <text x="60" y="55" class="label-section">CLIENT LAYER (BROWSER)</text>
  <rect x="40" y="65" width="500" height="180" rx="8" fill="#1e293b" stroke="#475569" stroke-width="1"/>

  <!-- Payment UI -->
  <rect x="60" y="85" width="140" height="140" rx="6" fill="#334155" stroke="#8b5cf6" stroke-width="1"/>
  <text x="130" y="110" text-anchor="middle" class="heading">Payment UI</text>
  <rect x="75" y="125" width="110" height="22" rx="4" fill="#475569"/>
  <text x="130" y="141" text-anchor="middle" class="text-sm">Amount Select</text>
  <rect x="75" y="155" width="110" height="22" rx="4" fill="#475569"/>
  <text x="130" y="171" text-anchor="middle" class="text-sm">Card Form</text>
  <rect x="75" y="185" width="110" height="22" rx="4" fill="#475569"/>
  <text x="130" y="201" text-anchor="middle" class="text-sm">Pay Button</text>

  <!-- Consent Manager -->
  <rect x="220" y="85" width="140" height="140" rx="6" fill="#334155" stroke="#f59e0b" stroke-width="1"/>
  <text x="290" y="110" text-anchor="middle" class="heading" fill="#f59e0b">Consent Mgr</text>
  <rect x="235" y="125" width="110" height="22" rx="4" fill="#475569"/>
  <text x="290" y="141" text-anchor="middle" class="text-sm">Cookie Check</text>
  <rect x="235" y="155" width="110" height="22" rx="4" fill="#475569"/>
  <text x="290" y="171" text-anchor="middle" class="text-sm">Consent Modal</text>
  <rect x="235" y="185" width="110" height="22" rx="4" fill="#475569"/>
  <text x="290" y="201" text-anchor="middle" class="text-sm">Script Loader</text>
  <text x="290" y="225" text-anchor="middle" class="text-muted">FR-018/019/020</text>

  <!-- Offline Queue -->
  <rect x="380" y="85" width="140" height="140" rx="6" fill="#334155" stroke="#0ea5e9" stroke-width="1"/>
  <text x="450" y="110" text-anchor="middle" class="heading" fill="#0ea5e9">Offline Queue</text>
  <rect x="395" y="125" width="110" height="22" rx="4" fill="#475569"/>
  <text x="450" y="141" text-anchor="middle" class="text-sm">IndexedDB</text>
  <rect x="395" y="155" width="110" height="22" rx="4" fill="#475569"/>
  <text x="450" y="171" text-anchor="middle" class="text-sm">Queue Ops</text>
  <rect x="395" y="185" width="110" height="22" rx="4" fill="#475569"/>
  <text x="450" y="201" text-anchor="middle" class="text-sm">Sync Worker</text>
  <text x="450" y="225" text-anchor="middle" class="text-muted">FR-023/024/025</text>

  <!-- ===== PAYMENT PROVIDERS ===== -->
  <text x="580" y="55" class="label-section">PAYMENT PROVIDERS (EXTERNAL)</text>
  <rect x="560" y="65" width="360" height="180" rx="8" fill="#1e293b" stroke="#475569" stroke-width="1"/>

  <!-- Stripe -->
  <rect x="580" y="85" width="100" height="80" rx="6" fill="#334155" stroke="#635bff" stroke-width="2"/>
  <text x="630" y="115" text-anchor="middle" class="heading" fill="#635bff">Stripe</text>
  <text x="630" y="135" text-anchor="middle" class="text-sm">Cards</text>
  <text x="630" y="150" text-anchor="middle" class="text-sm">Subscriptions</text>

  <!-- PayPal -->
  <rect x="690" y="85" width="100" height="80" rx="6" fill="#334155" stroke="#003087" stroke-width="2"/>
  <text x="740" y="115" text-anchor="middle" class="heading" fill="#009cde">PayPal</text>
  <text x="740" y="135" text-anchor="middle" class="text-sm">One-time</text>
  <text x="740" y="150" text-anchor="middle" class="text-sm">Subscriptions</text>

  <!-- Apple Pay -->
  <rect x="800" y="85" width="100" height="80" rx="6" fill="#334155" stroke="#fff" stroke-width="1"/>
  <text x="850" y="115" text-anchor="middle" class="heading"> Pay</text>
  <text x="850" y="135" text-anchor="middle" class="text-sm">One-time</text>
  <text x="850" y="150" text-anchor="middle" class="text-muted">(Stripe)</text>

  <!-- Provider abstraction layer -->
  <rect x="580" y="175" width="320" height="55" rx="6" fill="#334155"/>
  <text x="740" y="200" text-anchor="middle" class="heading">Payment Provider Abstraction</text>
  <text x="740" y="218" text-anchor="middle" class="text-muted">Unified API for all providers (FR-001/002)</text>

  <!-- ===== BACKEND LAYER ===== -->
  <text x="960" y="55" class="label-section">SUPABASE BACKEND</text>
  <rect x="940" y="65" width="420" height="180" rx="8" fill="#1e293b" stroke="#475569" stroke-width="1"/>

  <!-- Edge Functions -->
  <rect x="960" y="85" width="180" height="140" rx="6" fill="#334155" stroke="#22c55e" stroke-width="2"/>
  <text x="1050" y="110" text-anchor="middle" class="heading-lg" fill="#22c55e">Edge Functions</text>

  <rect x="975" y="125" width="150" height="24" rx="4" fill="#475569"/>
  <text x="1050" y="142" text-anchor="middle" class="text-sm">/payment/create</text>

  <rect x="975" y="155" width="150" height="24" rx="4" fill="#475569"/>
  <text x="1050" y="172" text-anchor="middle" class="text-sm">/payment/webhook</text>

  <rect x="975" y="185" width="150" height="24" rx="4" fill="#475569"/>
  <text x="1050" y="202" text-anchor="middle" class="text-sm">/subscription/manage</text>

  <!-- Database -->
  <rect x="1160" y="85" width="180" height="140" rx="6" fill="#334155" stroke="#d946ef" stroke-width="1"/>
  <text x="1250" y="110" text-anchor="middle" class="heading">PostgreSQL</text>

  <text x="1180" y="135" class="text-sm">payments</text>
  <text x="1180" y="152" class="text-sm">subscriptions</text>
  <text x="1180" y="169" class="text-sm">payment_events</text>
  <text x="1180" y="186" class="text-sm">consent_records</text>

  <rect x="1175" y="195" width="150" height="22" rx="4" fill="#8b5cf6" opacity="0.3"/>
  <text x="1250" y="211" text-anchor="middle" class="text-sm" fill="#8b5cf6">RLS Policies</text>

  <!-- ===== WEBHOOK FLOW ===== -->
  <text x="60" y="275" class="label-section">WEBHOOK VERIFICATION FLOW</text>
  <rect x="40" y="285" width="660" height="150" rx="8" fill="#1e293b" stroke="#475569" stroke-width="1"/>

  <!-- Step 1 -->
  <rect x="60" y="305" width="100" height="55" rx="6" fill="#334155" stroke="#635bff"/>
  <text x="110" y="330" text-anchor="middle" class="heading" fill="#635bff">Provider</text>
  <text x="110" y="350" text-anchor="middle" class="text-sm">Sends event</text>

  <line x1="160" y1="332" x2="185" y2="332" stroke="#8b5cf6" stroke-width="2" marker-end="url(#arrowhead)"/>

  <!-- Step 2 -->
  <rect x="185" y="305" width="100" height="55" rx="6" fill="#334155" stroke="#f59e0b"/>
  <text x="235" y="330" text-anchor="middle" class="heading">Signature</text>
  <text x="235" y="350" text-anchor="middle" class="text-sm">Verify HMAC</text>

  <line x1="285" y1="332" x2="310" y2="332" stroke="#8b5cf6" stroke-width="2" marker-end="url(#arrowhead)"/>

  <!-- Step 3 -->
  <rect x="310" y="305" width="100" height="55" rx="6" fill="#334155" stroke="#22c55e"/>
  <text x="360" y="330" text-anchor="middle" class="heading">Idempotent</text>
  <text x="360" y="350" text-anchor="middle" class="text-sm">Check event_id</text>

  <line x1="410" y1="332" x2="435" y2="332" stroke="#22c55e" stroke-width="2" marker-end="url(#arrowhead-green)"/>

  <!-- Step 4 -->
  <rect x="435" y="305" width="100" height="55" rx="6" fill="#334155" stroke="#8b5cf6"/>
  <text x="485" y="330" text-anchor="middle" class="heading">Process</text>
  <text x="485" y="350" text-anchor="middle" class="text-sm">Update DB</text>

  <line x1="535" y1="332" x2="560" y2="332" stroke="#22c55e" stroke-width="2" marker-end="url(#arrowhead-green)"/>

  <!-- Step 5 -->
  <rect x="560" y="305" width="120" height="55" rx="6" fill="#334155" stroke="#22c55e" stroke-width="2"/>
  <text x="620" y="330" text-anchor="middle" class="heading" fill="#22c55e">Confirmed</text>
  <text x="620" y="350" text-anchor="middle" class="text-sm">status=verified</text>

  <!-- FR references -->
  <text x="350" y="390" text-anchor="middle" class="annotation">FR-007: Verify via callbacks | FR-008: Signature validation | FR-011: Idempotent | FR-010: Mark verified</text>

  <!-- ===== SUBSCRIPTION RETRY LOGIC ===== -->
  <text x="740" y="275" class="label-section">SUBSCRIPTION RETRY SCHEDULE</text>
  <rect x="720" y="285" width="640" height="150" rx="8" fill="#1e293b" stroke="#475569" stroke-width="1"/>

  <!-- Timeline -->
  <line x1="760" y1="360" x2="1320" y2="360" stroke="#475569" stroke-width="2"/>

  <!-- Day 0: Failure -->
  <circle cx="780" cy="360" r="8" fill="#ef4444"/>
  <text x="780" y="340" text-anchor="middle" class="text-sm" fill="#ef4444">Day 0</text>
  <text x="780" y="390" text-anchor="middle" class="text-muted">Payment</text>
  <text x="780" y="405" text-anchor="middle" class="text-muted">Failed</text>

  <!-- Day 1: Retry 1 -->
  <circle cx="880" cy="360" r="8" fill="#f59e0b"/>
  <text x="880" y="340" text-anchor="middle" class="text-sm" fill="#f59e0b">Day 1</text>
  <text x="880" y="390" text-anchor="middle" class="text-muted">Retry #1</text>

  <!-- Day 3: Retry 2 -->
  <circle cx="980" cy="360" r="8" fill="#f59e0b"/>
  <text x="980" y="340" text-anchor="middle" class="text-sm" fill="#f59e0b">Day 3</text>
  <text x="980" y="390" text-anchor="middle" class="text-muted">Retry #2</text>

  <!-- Day 7: Retry 3 -->
  <circle cx="1080" cy="360" r="8" fill="#f59e0b"/>
  <text x="1080" y="340" text-anchor="middle" class="text-sm" fill="#f59e0b">Day 7</text>
  <text x="1080" y="390" text-anchor="middle" class="text-muted">Retry #3</text>

  <!-- Grace period -->
  <rect x="1100" y="350" width="100" height="20" rx="4" fill="#fee2e2" opacity="0.5"/>
  <text x="1150" y="340" text-anchor="middle" class="text-sm" fill="#ef4444">Grace</text>
  <text x="1150" y="390" text-anchor="middle" class="text-muted">7 days</text>

  <!-- Day 14: Cancel -->
  <circle cx="1220" cy="360" r="8" fill="#ef4444"/>
  <text x="1220" y="340" text-anchor="middle" class="text-sm" fill="#ef4444">Day 14</text>
  <text x="1220" y="390" text-anchor="middle" class="text-muted">Cancel</text>

  <!-- Success branch -->
  <path d="M880 352 Q900 320 920 300" stroke="#22c55e" stroke-width="2" fill="none"/>
  <circle cx="920" cy="300" r="6" fill="#22c55e"/>
  <text x="950" y="305" class="text-sm" fill="#22c55e">Success → Active</text>

  <!-- FR references -->
  <text x="1000" y="425" text-anchor="middle" class="annotation">FR-013: Auto retry | FR-014: Increasing delays | FR-015: Grace period | FR-016: Auto-cancel</text>

  <!-- ===== DATA MODEL ===== -->
  <text x="60" y="465" class="label-section">DATA MODEL</text>
  <rect x="40" y="475" width="440" height="295" rx="8" fill="#1e293b" stroke="#475569" stroke-width="1"/>

  <!-- payments table -->
  <rect x="60" y="495" width="200" height="130" rx="6" fill="#334155"/>
  <text x="160" y="520" text-anchor="middle" class="heading">payments</text>
  <text x="75" y="545" class="text-sm">id: uuid</text>
  <text x="75" y="562" class="text-sm">user_id: uuid → users</text>
  <text x="75" y="579" class="text-sm">amount: decimal</text>
  <text x="75" y="596" class="text-sm">currency: varchar</text>
  <text x="75" y="613" class="text-sm">status: enum</text>

  <!-- subscriptions table -->
  <rect x="280" y="495" width="180" height="130" rx="6" fill="#334155"/>
  <text x="370" y="520" text-anchor="middle" class="heading">subscriptions</text>
  <text x="295" y="545" class="text-sm">id: uuid</text>
  <text x="295" y="562" class="text-sm">user_id: uuid</text>
  <text x="295" y="579" class="text-sm">plan: varchar</text>
  <text x="295" y="596" class="text-sm">status: enum</text>
  <text x="295" y="613" class="text-sm">next_billing: timestamp</text>

  <!-- payment_events table -->
  <rect x="60" y="640" width="200" height="110" rx="6" fill="#334155"/>
  <text x="160" y="665" text-anchor="middle" class="heading">payment_events</text>
  <text x="75" y="690" class="text-sm">id: uuid</text>
  <text x="75" y="707" class="text-sm">payment_id: uuid</text>
  <text x="75" y="724" class="text-sm">provider_event_id: varchar</text>
  <text x="75" y="741" class="text-sm">type: varchar</text>

  <!-- consent_records table -->
  <rect x="280" y="640" width="180" height="110" rx="6" fill="#334155"/>
  <text x="370" y="665" text-anchor="middle" class="heading">consent_records</text>
  <text x="295" y="690" class="text-sm">id: uuid</text>
  <text x="295" y="707" class="text-sm">user_id: uuid</text>
  <text x="295" y="724" class="text-sm">consent_type: varchar</text>
  <text x="295" y="741" class="text-sm">granted_at: timestamp</text>

  <!-- ===== RLS POLICIES ===== -->
  <text x="520" y="465" class="label-section">RLS POLICIES (SECURITY)</text>
  <rect x="500" y="475" width="420" height="295" rx="8" fill="#1e293b" stroke="#475569" stroke-width="1"/>

  <!-- User policies -->
  <rect x="520" y="495" width="380" height="80" rx="6" fill="#334155"/>
  <text x="710" y="520" text-anchor="middle" class="heading" fill="#22c55e">User Access Policies</text>
  <text x="540" y="545" class="text-sm">SELECT: user_id = auth.uid()</text>
  <text x="540" y="562" class="text-sm">INSERT: Allowed (own data only)</text>

  <!-- Service policies -->
  <rect x="520" y="585" width="380" height="80" rx="6" fill="#334155"/>
  <text x="710" y="610" text-anchor="middle" class="heading" fill="#f59e0b">Service Role Policies</text>
  <text x="540" y="635" class="text-sm">Webhooks: service_role key required</text>
  <text x="540" y="652" class="text-sm">Admin: Full access with admin role</text>

  <!-- Subscription check -->
  <rect x="520" y="675" width="380" height="80" rx="6" fill="#334155"/>
  <text x="710" y="700" text-anchor="middle" class="heading" fill="#8b5cf6">Access Functions</text>
  <text x="540" y="725" class="text-sm">has_active_subscription(user_id) → bool</text>
  <text x="540" y="742" class="text-sm">get_subscription_tier(user_id) → varchar</text>

  <!-- ===== DEPENDENCIES ===== -->
  <text x="960" y="465" class="label-section">FEATURE DEPENDENCIES</text>
  <rect x="940" y="475" width="420" height="145" rx="8" fill="#1e293b" stroke="#475569" stroke-width="1"/>

  <rect x="960" y="495" width="180" height="50" rx="6" fill="#334155" stroke="#8b5cf6"/>
  <text x="1050" y="520" text-anchor="middle" class="heading">003 - Auth</text>
  <text x="1050" y="538" text-anchor="middle" class="text-muted">User identity</text>

  <rect x="1160" y="495" width="180" height="50" rx="6" fill="#334155" stroke="#22c55e"/>
  <text x="1250" y="520" text-anchor="middle" class="heading">000 - RLS</text>
  <text x="1250" y="538" text-anchor="middle" class="text-muted">Data security</text>

  <rect x="960" y="555" width="180" height="50" rx="6" fill="#334155" stroke="#f59e0b"/>
  <text x="1050" y="580" text-anchor="middle" class="heading">002 - Consent</text>
  <text x="1050" y="598" text-anchor="middle" class="text-muted">GDPR patterns</text>

  <rect x="1160" y="555" width="180" height="50" rx="6" fill="#334155" stroke="#0ea5e9"/>
  <text x="1250" y="580" text-anchor="middle" class="heading">020 - PWA Sync</text>
  <text x="1250" y="598" text-anchor="middle" class="text-muted">Offline queue</text>

  <!-- ===== SUCCESS CRITERIA ===== -->
  <text x="960" y="640" class="label-section">SUCCESS CRITERIA</text>
  <rect x="940" y="650" width="420" height="120" rx="8" fill="#1e293b" stroke="#22c55e" stroke-width="1"/>

  <text x="960" y="680" class="text-sm" fill="#22c55e">✓ SC-001: 99% payment success rate</text>
  <text x="960" y="700" class="text-sm" fill="#22c55e">✓ SC-002: 95% retry success within period</text>
  <text x="960" y="720" class="text-sm" fill="#22c55e">✓ SC-003: 0% scripts before consent</text>
  <text x="960" y="740" class="text-sm" fill="#22c55e">✓ SC-004: 100% callbacks verified</text>
  <text x="960" y="760" class="text-sm" fill="#22c55e">✓ SC-005: 0% lost during outages</text>
</svg>
