<svg xmlns="http://www.w3.org/2000/svg" xmlns:xlink="http://www.w3.org/1999/xlink" viewBox="0 0 1920 1080" width="1920" height="1080">
  <!-- ============================================================
       GENERATED BY: /wireframe skill
       SOURCE: Landing page template validation
       DATE: 2026-01-05
       THEME: Light (UX/Frontend) - v3 True Parchment
       USES: External includes for headers/footers
       ============================================================ -->

  <!-- Import shared defs (gradients, icons, styles) -->
  <defs>
    <!-- Reference shared definitions -->
    <use href="../includes/defs.svg#bgGrad"/>
    <use href="../includes/defs.svg#accentGrad"/>

    <!-- Local styles (CSS classes for this wireframe) -->
    <style>
      .heading-lg { fill: #1a1a2e; font-family: system-ui, sans-serif; font-size: 28px; font-weight: 800; }
      .heading { fill: #1a1a2e; font-family: system-ui, sans-serif; font-size: 20px; font-weight: 700; }
      .heading-sm { fill: #1a1a2e; font-family: system-ui, sans-serif; font-size: 16px; font-weight: 700; }
      .text-md { fill: #2d3748; font-family: system-ui, sans-serif; font-size: 16px; font-weight: 500; }
      .text-sm { fill: #374151; font-family: system-ui, sans-serif; font-size: 14px; font-weight: 500; }
      .text-muted { fill: #4b5563; font-family: system-ui, sans-serif; font-size: 13px; font-weight: 500; }
      .annotation { fill: #6d28d9; font-family: system-ui, sans-serif; font-size: 14px; font-weight: 700; }
      .label-desktop { fill: #8b5cf6; font-family: system-ui, sans-serif; font-size: 15px; font-weight: bold; }
      .label-mobile { fill: #d946ef; font-family: system-ui, sans-serif; font-size: 15px; font-weight: bold; }
    </style>
  </defs>

  <!-- Background - deeper sky blue gradient -->
  <rect width="1920" height="1080" fill="#c7ddf5"/>
  <rect width="1920" height="1080" fill="url(#bgGrad)" opacity="0"/>

  <!-- Dot grid pattern -->
  <defs>
    <pattern id="dots" width="30" height="30" patternUnits="userSpaceOnUse">
      <circle cx="15" cy="15" r="1" fill="#6b8cba"/>
    </pattern>
  </defs>
  <rect width="1920" height="1080" fill="url(#dots)" opacity="0.35"/>

  <!-- Accent line top -->
  <rect x="0" y="0" width="1920" height="3">
    <linearGradient id="localAccent" x1="0%" y1="0%" x2="100%" y2="0%">
      <stop offset="0%" style="stop-color:#8b5cf6"/>
      <stop offset="100%" style="stop-color:#d946ef"/>
    </linearGradient>
  </rect>
  <rect x="0" y="0" width="1920" height="3" fill="#8b5cf6"/>

  <!-- Title -->
  <text x="723" y="28" text-anchor="middle" font-family="system-ui, sans-serif" font-size="18" font-weight="700" fill="#4b5563" letter-spacing="1">LANDING PAGE - LIGHT THEME</text>

  <!-- DESKTOP SECTION (left) -->
  <text x="40" y="52" class="label-desktop">DESKTOP (16:9)</text>
  <g id="desktop-view">
    <!-- Desktop viewport -->
    <rect x="40" y="60" width="1366" height="768" rx="8" fill="#e8d4b8" stroke="#b8a080"/>

    <!-- Desktop Header (dynamic from include) -->
    <use href="../includes/header-desktop.svg#desktop-header" x="50" y="70"/>

    <!-- Active nav overlay (Home is active on landing page) -->
    <g transform="translate(600, 73)">
      <rect width="70" height="44" rx="4" fill="#8b5cf6"/>
      <text x="35" y="28" text-anchor="middle" fill="#fff" font-family="system-ui, sans-serif" font-size="14px" font-weight="600">Home</text>
    </g>

    <!-- CONTENT AREA (below header) -->
    <g id="content-area" transform="translate(50, 130)">
      <!-- Hero Section -->
      <rect x="0" y="0" width="1346" height="200" rx="8" fill="#dcc8a8" stroke="#b8a080"/>
      <!-- CUSTOMIZE: Slogan - change this text when forking -->
      <text x="673" y="60" text-anchor="middle" class="heading-lg">Build Better Apps Faster</text>
      <text x="673" y="95" text-anchor="middle" class="text-md">A complete product planning template with 46 feature specifications</text>
      <text x="673" y="120" text-anchor="middle" class="text-muted">SVG wireframes, SpecKit workflow, and constitution-driven development</text>
      <!-- CTA Buttons -->
      <rect x="523" y="145" width="140" height="40" rx="6" fill="#8b5cf6"/>
      <text x="593" y="171" text-anchor="middle" fill="#fff" font-family="system-ui, sans-serif" font-size="14px" font-weight="600">Get Started</text>
      <rect x="683" y="145" width="140" height="40" rx="6" fill="transparent" stroke="#8b5cf6" stroke-width="2"/>
      <text x="753" y="171" text-anchor="middle" fill="#8b5cf6" font-family="system-ui, sans-serif" font-size="14px" font-weight="600">View Docs</text>

      <!-- Feature Cards Grid (3 columns) - Row 1 -->
      <g transform="translate(0, 220)">
        <!-- Card 1 -->
        <rect x="0" y="0" width="430" height="150" rx="8" fill="#dcc8a8" stroke="#b8a080"/>
        <text x="20" y="30" class="heading">46 Feature Specs</text>
        <text x="20" y="50" class="text-sm">Complete product requirements</text>
        <rect x="20" y="65" width="390" height="45" rx="4" fill="#f5f0e6"/>
        <text x="215" y="93" text-anchor="middle" class="text-muted">Foundation - Core - Auth - Payments</text>
        <rect x="20" y="120" width="100" height="25" rx="4" fill="#8b5cf6"/>
        <text x="70" y="137" text-anchor="middle" fill="#fff" font-size="12" font-weight="600">Explore</text>

        <!-- Card 2 -->
        <rect x="450" y="0" width="430" height="150" rx="8" fill="#dcc8a8" stroke="#b8a080"/>
        <text x="470" y="30" class="heading">SVG Wireframes</text>
        <text x="470" y="50" class="text-sm">Interactive design system</text>
        <rect x="470" y="65" width="390" height="45" rx="4" fill="#f5f0e6"/>
        <text x="665" y="93" text-anchor="middle" class="text-muted">1920x1080 - Hot reload - Keyboard nav</text>
        <rect x="470" y="120" width="100" height="25" rx="4" fill="#8b5cf6"/>
        <text x="520" y="137" text-anchor="middle" fill="#fff" font-size="12" font-weight="600">View</text>

        <!-- Card 3 -->
        <rect x="900" y="0" width="430" height="150" rx="8" fill="#dcc8a8" stroke="#b8a080"/>
        <text x="920" y="30" class="heading">SpecKit Workflow</text>
        <text x="920" y="50" class="text-sm">End-to-end development</text>
        <rect x="920" y="65" width="390" height="45" rx="4" fill="#f5f0e6"/>
        <text x="1115" y="93" text-anchor="middle" class="text-muted">Specify - Clarify - Plan - Implement</text>
        <rect x="920" y="120" width="100" height="25" rx="4" fill="#8b5cf6"/>
        <text x="970" y="137" text-anchor="middle" fill="#fff" font-size="12" font-weight="600">Learn</text>
      </g>

      <!-- Feature Cards Grid - Row 2 -->
      <g transform="translate(0, 380)">
        <!-- Card 4 -->
        <rect x="0" y="0" width="430" height="150" rx="8" fill="#dcc8a8" stroke="#b8a080"/>
        <text x="20" y="30" class="heading">Constitution</text>
        <text x="20" y="50" class="text-sm">Project governance rules</text>
        <rect x="20" y="65" width="390" height="45" rx="4" fill="#f5f0e6"/>
        <text x="215" y="93" text-anchor="middle" class="text-muted">6 core principles - Quality gates</text>
        <rect x="20" y="120" width="100" height="25" rx="4" fill="#8b5cf6"/>
        <text x="70" y="137" text-anchor="middle" fill="#fff" font-size="12" font-weight="600">Read</text>

        <!-- Card 5 -->
        <rect x="450" y="0" width="430" height="150" rx="8" fill="#dcc8a8" stroke="#b8a080"/>
        <text x="470" y="30" class="heading">Docker-First</text>
        <text x="470" y="50" class="text-sm">No local dependencies</text>
        <rect x="470" y="65" width="390" height="45" rx="4" fill="#f5f0e6"/>
        <text x="665" y="93" text-anchor="middle" class="text-muted">MCP Playwright - Supabase - Build tools</text>
        <rect x="470" y="120" width="100" height="25" rx="4" fill="#8b5cf6"/>
        <text x="520" y="137" text-anchor="middle" fill="#fff" font-size="12" font-weight="600">Setup</text>

        <!-- Card 6 -->
        <rect x="900" y="0" width="430" height="150" rx="8" fill="#dcc8a8" stroke="#b8a080"/>
        <text x="920" y="30" class="heading">WCAG AAA</text>
        <text x="920" y="50" class="text-sm">Accessibility-first design</text>
        <rect x="920" y="65" width="390" height="45" rx="4" fill="#f5f0e6"/>
        <text x="1115" y="93" text-anchor="middle" class="text-muted">7:1 contrast - 44px targets - Focus mgmt</text>
        <rect x="920" y="120" width="100" height="25" rx="4" fill="#8b5cf6"/>
        <text x="970" y="137" text-anchor="middle" fill="#fff" font-size="12" font-weight="600">Check</text>
      </g>
    </g>

    <!-- EXTERNAL: Desktop Footer - full width, flush with viewport bottom -->
    <use href="../includes/footer-desktop.svg#site-footer" x="40" y="748"/>
  </g>

  <!-- MOBILE SECTION (right) -->
  <text x="1500" y="52" class="label-mobile">MOBILE</text>
  <g id="mobile-view" transform="translate(1500, 60)">
    <!-- Phone frame -->
    <rect x="0" y="0" width="360" height="700" rx="24" fill="#c8b898" stroke="#a08860" stroke-width="2"/>
    <!-- Screen area -->
    <rect x="10" y="10" width="340" height="680" rx="16" fill="#e8d4b8"/>

    <!-- Mobile Header (dynamic from include) -->
    <use href="../includes/header-mobile.svg#mobile-header-group" x="10" y="10"/>

    <!-- CONTENT AREA (between header and bottom nav) -->
    <g transform="translate(10, 98)">
      <!-- Hero (compact) -->
      <rect x="10" y="0" width="320" height="100" rx="6" fill="#dcc8a8" stroke="#b8a080"/>
      <!-- CUSTOMIZE: Slogan - must match desktop -->
      <text x="170" y="30" text-anchor="middle" class="heading-sm">Build Better Apps Faster</text>
      <text x="170" y="50" text-anchor="middle" class="text-muted">46 feature specifications</text>
      <rect x="100" y="65" width="120" height="28" rx="4" fill="#8b5cf6"/>
      <text x="160" y="84" text-anchor="middle" fill="#fff" font-size="12" font-weight="600">Get Started</text>

      <!-- Stacked cards -->
      <rect x="10" y="110" width="320" height="80" rx="6" fill="#dcc8a8" stroke="#b8a080"/>
      <text x="25" y="135" class="heading-sm">46 Feature Specs</text>
      <text x="25" y="155" class="text-sm">Complete requirements</text>
      <rect x="230" y="125" width="80" height="30" rx="4" fill="#8b5cf6"/>
      <text x="270" y="145" text-anchor="middle" fill="#fff" font-size="11" font-weight="600">Explore</text>

      <rect x="10" y="200" width="320" height="80" rx="6" fill="#dcc8a8" stroke="#b8a080"/>
      <text x="25" y="225" class="heading-sm">SVG Wireframes</text>
      <text x="25" y="245" class="text-sm">Interactive designs</text>
      <rect x="230" y="215" width="80" height="30" rx="4" fill="#8b5cf6"/>
      <text x="270" y="235" text-anchor="middle" fill="#fff" font-size="11" font-weight="600">View</text>

      <rect x="10" y="290" width="320" height="80" rx="6" fill="#dcc8a8" stroke="#b8a080"/>
      <text x="25" y="315" class="heading-sm">SpecKit Workflow</text>
      <text x="25" y="335" class="text-sm">End-to-end dev</text>
      <rect x="230" y="305" width="80" height="30" rx="4" fill="#8b5cf6"/>
      <text x="270" y="325" text-anchor="middle" fill="#fff" font-size="11" font-weight="600">Learn</text>

      <rect x="10" y="380" width="320" height="80" rx="6" fill="#dcc8a8" stroke="#b8a080"/>
      <text x="25" y="405" class="heading-sm">Constitution</text>
      <text x="25" y="425" class="text-sm">Governance rules</text>
      <rect x="230" y="395" width="80" height="30" rx="4" fill="#8b5cf6"/>
      <text x="270" y="415" text-anchor="middle" fill="#fff" font-size="11" font-weight="600">Read</text>

      <rect x="10" y="470" width="320" height="66" rx="6" fill="#dcc8a8" stroke="#b8a080"/>
      <text x="25" y="495" class="heading-sm">Docker-First</text>
      <text x="25" y="515" class="text-sm">No local deps</text>
      <rect x="230" y="485" width="80" height="30" rx="4" fill="#8b5cf6"/>
      <text x="270" y="505" text-anchor="middle" fill="#fff" font-size="11" font-weight="600">Setup</text>
    </g>

    <!-- Mobile Bottom Nav (dynamic from include) -->
    <use href="../includes/footer-mobile.svg#mobile-bottom-nav" x="10" y="634"/>
    <!-- Active tab overlay (Home is active on landing page) - inline because per-page -->
    <g transform="translate(10, 634)">
      <path d="M 0 0 L 85 0 L 85 56 L 16 56 A 16 16 0 0 1 0 40 L 0 0 Z" fill="#8b5cf6"/>
      <g transform="translate(30, 6)">
        <path fill="#fff" d="M11.47 3.841a.75.75 0 0 1 1.06 0l8.69 8.69a.75.75 0 1 0 1.06-1.061l-8.689-8.69a2.25 2.25 0 0 0-3.182 0l-8.69 8.69a.75.75 0 1 0 1.061 1.06l8.69-8.689Z"/>
        <path fill="#fff" d="m12 5.432 8.159 8.159c.03.03.06.058.091.086v6.198c0 1.035-.84 1.875-1.875 1.875H15a.75.75 0 0 1-.75-.75v-4.5a.75.75 0 0 0-.75-.75h-3a.75.75 0 0 0-.75.75V21a.75.75 0 0 1-.75.75H5.625a1.875 1.875 0 0 1-1.875-1.875v-6.198a2.29 2.29 0 0 0 .091-.086L12 5.432Z"/>
      </g>
      <text x="42" y="44" text-anchor="middle" fill="#fff" font-family="system-ui, sans-serif" font-size="11px" font-weight="600">Home</text>
    </g>
  </g>

  <!-- Dimension annotations -->
  <g id="annotations" opacity="0.8">
    <text x="723" y="845" text-anchor="middle" class="annotation">1366 x 768 (16:9)</text>
    <text x="1680" y="780" text-anchor="middle" class="annotation">360 x 700</text>
    <text x="1453" y="400" text-anchor="middle" class="text-muted" font-size="11">94px gap</text>
  </g>

  <!-- Footer signature (page-specific) -->
  <text x="60" y="1050" text-anchor="start" class="text-muted">000:00 | Landing Page | ScriptHammer</text>
</svg>
