<svg xmlns="http://www.w3.org/2000/svg" viewBox="0 0 1400 800" width="1400" height="800">
  <!-- ============================================================
       GENERATED BY: /wireframe skill
       SOURCE: features/core-features/012-welcome-message-architecture/spec.md
       DATE: 2025-12-31
       DO NOT MANUALLY EDIT - Regenerate with /wireframe command
       ============================================================ -->
  <defs>
    <linearGradient id="bgGrad" x1="0%" y1="0%" x2="100%" y2="100%">
      <stop offset="0%" style="stop-color:#0f172a"/>
      <stop offset="100%" style="stop-color:#1e293b"/>
    </linearGradient>
    <linearGradient id="accentGrad" x1="0%" y1="0%" x2="100%" y2="0%">
      <stop offset="0%" style="stop-color:#8b5cf6"/>
      <stop offset="100%" style="stop-color:#d946ef"/>
    </linearGradient>
    <linearGradient id="successGrad" x1="0%" y1="0%" x2="100%" y2="0%">
      <stop offset="0%" style="stop-color:#22c55e"/>
      <stop offset="100%" style="stop-color:#16a34a"/>
    </linearGradient>
    <marker id="arrowhead" markerWidth="10" markerHeight="7" refX="9" refY="3.5" orient="auto">
      <polygon points="0 0, 10 3.5, 0 7" fill="#8b5cf6"/>
    </marker>
    <marker id="arrowhead-green" markerWidth="10" markerHeight="7" refX="9" refY="3.5" orient="auto">
      <polygon points="0 0, 10 3.5, 0 7" fill="#22c55e"/>
    </marker>
    <marker id="arrowhead-red" markerWidth="10" markerHeight="7" refX="9" refY="3.5" orient="auto">
      <polygon points="0 0, 10 3.5, 0 7" fill="#ef4444"/>
    </marker>
    <style>
      .heading-lg { fill: #ffffff; font-family: system-ui, sans-serif; font-size: 20px; font-weight: bold; }
      .heading { fill: #ffffff; font-family: system-ui, sans-serif; font-size: 14px; font-weight: bold; }
      .text-md { fill: #cbd5e1; font-family: system-ui, sans-serif; font-size: 12px; }
      .text-sm { fill: #94a3b8; font-family: system-ui, sans-serif; font-size: 10px; }
      .text-muted { fill: #64748b; font-family: system-ui, sans-serif; font-size: 10px; }
      .annotation { fill: #8b5cf6; font-family: monospace; font-size: 10px; }
      .code { fill: #22c55e; font-family: monospace; font-size: 10px; }
    </style>
  </defs>

  <!-- Background -->
  <rect width="1400" height="800" fill="url(#bgGrad)"/>

  <!-- Dot grid pattern -->
  <g opacity="0.05">
    <pattern id="dots" width="30" height="30" patternUnits="userSpaceOnUse">
      <circle cx="15" cy="15" r="1" fill="#fff"/>
    </pattern>
    <rect width="1400" height="800" fill="url(#dots)"/>
  </g>

  <!-- Accent line top -->
  <rect x="0" y="0" width="1400" height="3" fill="url(#accentGrad)"/>

  <!-- Title -->
  <text x="700" y="35" text-anchor="middle" class="heading-lg">Welcome Message System Architecture</text>
  <text x="700" y="55" text-anchor="middle" class="text-muted">Automated E2E encrypted welcome message delivery with idempotency</text>

  <!-- ========== SECTION 1: ADMIN SETUP (One-time) ========== -->
  <text x="100" y="95" class="heading" fill="#8b5cf6">ADMIN SETUP (One-time Initialization)</text>

  <!-- Setup flow boxes -->
  <g transform="translate(100, 110)">
    <!-- System Init -->
    <rect x="0" y="0" width="140" height="60" rx="8" fill="#1e293b" stroke="#8b5cf6" stroke-width="2"/>
    <text x="70" y="25" text-anchor="middle" class="heading">System Init</text>
    <text x="70" y="42" text-anchor="middle" class="text-sm">Initial deploy</text>

    <!-- Arrow -->
    <line x1="145" y1="30" x2="185" y2="30" stroke="#8b5cf6" stroke-width="2" marker-end="url(#arrowhead)"/>

    <!-- Generate Keys -->
    <rect x="190" y="0" width="140" height="60" rx="8" fill="#1e293b" stroke="#8b5cf6" stroke-width="2"/>
    <text x="260" y="25" text-anchor="middle" class="heading">Generate Keys</text>
    <text x="260" y="42" text-anchor="middle" class="text-sm">Admin keypair</text>

    <!-- Arrow -->
    <line x1="335" y1="30" x2="375" y2="30" stroke="#8b5cf6" stroke-width="2" marker-end="url(#arrowhead)"/>

    <!-- Store Public Key -->
    <rect x="380" y="0" width="160" height="60" rx="8" fill="#1e293b" stroke="#22c55e" stroke-width="2"/>
    <text x="460" y="25" text-anchor="middle" class="heading">Store Public Key</text>
    <text x="460" y="42" text-anchor="middle" class="text-sm">Supabase storage</text>

    <!-- Arrow -->
    <line x1="545" y1="30" x2="585" y2="30" stroke="#8b5cf6" stroke-width="2" marker-end="url(#arrowhead)"/>

    <!-- Discard Private Key -->
    <rect x="590" y="0" width="160" height="60" rx="8" fill="#1e293b" stroke="#ef4444" stroke-width="2"/>
    <text x="670" y="25" text-anchor="middle" class="heading" fill="#ef4444">Discard Private</text>
    <text x="670" y="42" text-anchor="middle" class="text-sm">Never stored</text>

    <!-- Note box -->
    <rect x="780" y="0" width="200" height="60" rx="8" fill="#334155"/>
    <text x="880" y="22" text-anchor="middle" class="annotation">FR-013/014:</text>
    <text x="880" y="38" text-anchor="middle" class="text-muted">Public key stored securely</text>
    <text x="880" y="52" text-anchor="middle" class="text-muted">Private key not needed at runtime</text>
  </g>

  <!-- ========== SECTION 2: USER REGISTRATION FLOW ========== -->
  <text x="100" y="215" class="heading" fill="#22c55e">USER REGISTRATION FLOW (Runtime)</text>

  <g transform="translate(100, 230)">
    <!-- User Signs Up -->
    <rect x="0" y="0" width="120" height="70" rx="8" fill="#1e293b" stroke="#475569" stroke-width="1"/>
    <circle cx="60" cy="25" r="18" fill="#8b5cf6"/>
    <text x="58" y="30" text-anchor="middle" font-size="12" fill="#fff">👤</text>
    <text x="60" y="58" text-anchor="middle" class="text-sm">New User</text>

    <!-- Arrow -->
    <line x1="125" y1="35" x2="165" y2="35" stroke="#22c55e" stroke-width="2" marker-end="url(#arrowhead-green)"/>
    <text x="145" y="25" text-anchor="middle" class="text-muted">signs up</text>

    <!-- Key Init -->
    <rect x="170" y="0" width="140" height="70" rx="8" fill="#1e293b" stroke="#22c55e" stroke-width="2"/>
    <text x="240" y="25" text-anchor="middle" class="heading">Key Init</text>
    <text x="240" y="42" text-anchor="middle" class="text-sm">Generate user keys</text>
    <text x="240" y="56" text-anchor="middle" class="text-muted">Store public key</text>

    <!-- Arrow to welcome trigger -->
    <line x1="315" y1="35" x2="355" y2="35" stroke="#22c55e" stroke-width="2" marker-end="url(#arrowhead-green)"/>
    <text x="335" y="25" text-anchor="middle" class="text-muted">triggers</text>

    <!-- Welcome Process -->
    <rect x="360" y="0" width="160" height="70" rx="8" fill="#8b5cf6" opacity="0.2" stroke="#8b5cf6" stroke-width="2"/>
    <text x="440" y="25" text-anchor="middle" class="heading" fill="#8b5cf6">Welcome Process</text>
    <text x="440" y="42" text-anchor="middle" class="text-sm">Check &amp; Send</text>
    <text x="440" y="56" text-anchor="middle" class="annotation">FR-001</text>
  </g>

  <!-- ========== SECTION 3: WELCOME PROCESS DETAIL ========== -->
  <text x="100" y="355" class="heading" fill="#d946ef">WELCOME PROCESS DETAIL (Idempotent)</text>

  <g transform="translate(100, 375)">
    <!-- Step 1: Check Status -->
    <rect x="0" y="0" width="150" height="80" rx="8" fill="#1e293b" stroke="#8b5cf6" stroke-width="2"/>
    <text x="75" y="22" text-anchor="middle" class="heading">1. Check Status</text>
    <text x="75" y="40" text-anchor="middle" class="text-sm">welcome_sent?</text>
    <rect x="20" y="50" width="110" height="20" rx="4" fill="#0f172a"/>
    <text x="75" y="64" text-anchor="middle" class="code">user.welcome_sent</text>

    <!-- Decision diamond -->
    <polygon points="210,40 250,0 290,40 250,80" fill="#1e293b" stroke="#eab308" stroke-width="2"/>
    <text x="250" y="45" text-anchor="middle" class="text-sm" fill="#eab308">Sent?</text>

    <!-- Arrow to check -->
    <line x1="155" y1="40" x2="205" y2="40" stroke="#8b5cf6" stroke-width="2" marker-end="url(#arrowhead)"/>

    <!-- YES path - early return -->
    <line x1="290" y1="40" x2="340" y2="40" stroke="#22c55e" stroke-width="2" marker-end="url(#arrowhead-green)"/>
    <text x="315" y="30" text-anchor="middle" class="text-sm" fill="#22c55e">YES</text>

    <rect x="345" y="15" width="100" height="50" rx="8" fill="#22c55e" opacity="0.2" stroke="#22c55e" stroke-width="1"/>
    <text x="395" y="35" text-anchor="middle" class="text-sm" fill="#22c55e">Early Return</text>
    <text x="395" y="50" text-anchor="middle" class="text-muted">No duplicate</text>

    <!-- NO path - continue -->
    <line x1="250" y1="85" x2="250" y2="120" stroke="#8b5cf6" stroke-width="2" marker-end="url(#arrowhead)"/>
    <text x="270" y="105" class="text-sm">NO</text>

    <!-- Step 2: Get Admin Key -->
    <rect x="175" y="125" width="150" height="70" rx="8" fill="#1e293b" stroke="#8b5cf6" stroke-width="2"/>
    <text x="250" y="147" text-anchor="middle" class="heading">2. Get Admin Key</text>
    <text x="250" y="165" text-anchor="middle" class="text-sm">Fetch public key</text>
    <text x="250" y="180" text-anchor="middle" class="annotation">FR-003</text>

    <!-- Arrow -->
    <line x1="330" y1="160" x2="370" y2="160" stroke="#8b5cf6" stroke-width="2" marker-end="url(#arrowhead)"/>

    <!-- Key check decision -->
    <polygon points="430,160 470,120 510,160 470,200" fill="#1e293b" stroke="#eab308" stroke-width="2"/>
    <text x="470" y="158" text-anchor="middle" class="text-sm" fill="#eab308">Key</text>
    <text x="470" y="172" text-anchor="middle" class="text-sm" fill="#eab308">OK?</text>

    <!-- NO - graceful fail -->
    <line x1="510" y1="160" x2="560" y2="160" stroke="#ef4444" stroke-width="2" marker-end="url(#arrowhead-red)"/>
    <text x="535" y="150" text-anchor="middle" class="text-sm" fill="#ef4444">NO</text>

    <rect x="565" y="130" width="120" height="60" rx="8" fill="#ef4444" opacity="0.2" stroke="#ef4444" stroke-width="1"/>
    <text x="625" y="152" text-anchor="middle" class="text-sm" fill="#ef4444">Graceful Fail</text>
    <text x="625" y="168" text-anchor="middle" class="text-muted">Log error, skip</text>
    <text x="625" y="182" text-anchor="middle" class="annotation">FR-009/011</text>

    <!-- YES - continue -->
    <line x1="470" y1="205" x2="470" y2="240" stroke="#22c55e" stroke-width="2" marker-end="url(#arrowhead-green)"/>
    <text x="490" y="225" class="text-sm" fill="#22c55e">YES</text>

    <!-- Step 3: Create/Get Conversation -->
    <rect x="395" y="245" width="150" height="70" rx="8" fill="#1e293b" stroke="#8b5cf6" stroke-width="2"/>
    <text x="470" y="267" text-anchor="middle" class="heading">3. Get/Create</text>
    <text x="470" y="285" text-anchor="middle" class="text-sm">Conversation</text>
    <text x="470" y="300" text-anchor="middle" class="annotation">FR-004/007</text>

    <!-- Arrow -->
    <line x1="550" y1="280" x2="590" y2="280" stroke="#8b5cf6" stroke-width="2" marker-end="url(#arrowhead)"/>

    <!-- Step 4: Encrypt Message -->
    <rect x="595" y="245" width="150" height="70" rx="8" fill="#1e293b" stroke="#8b5cf6" stroke-width="2"/>
    <text x="670" y="267" text-anchor="middle" class="heading">4. Encrypt</text>
    <text x="670" y="285" text-anchor="middle" class="text-sm">Welcome message</text>
    <text x="670" y="300" text-anchor="middle" class="annotation">FR-002</text>

    <!-- Arrow -->
    <line x1="750" y1="280" x2="790" y2="280" stroke="#8b5cf6" stroke-width="2" marker-end="url(#arrowhead)"/>

    <!-- Step 5: Insert + Mark Sent -->
    <rect x="795" y="245" width="150" height="70" rx="8" fill="#1e293b" stroke="#22c55e" stroke-width="2"/>
    <text x="870" y="267" text-anchor="middle" class="heading">5. Insert &amp; Mark</text>
    <text x="870" y="285" text-anchor="middle" class="text-sm">Message + status</text>
    <text x="870" y="300" text-anchor="middle" class="annotation">FR-005/008</text>

    <!-- Arrow to success -->
    <line x1="950" y1="280" x2="990" y2="280" stroke="#22c55e" stroke-width="2" marker-end="url(#arrowhead-green)"/>

    <!-- Success -->
    <rect x="995" y="255" width="100" height="50" rx="25" fill="#22c55e"/>
    <text x="1045" y="285" text-anchor="middle" class="heading" fill="#fff">Done!</text>
  </g>

  <!-- ========== SECTION 4: DATA MODEL ========== -->
  <text x="100" y="690" class="heading" fill="#94a3b8">DATA MODEL</text>

  <g transform="translate(100, 705)">
    <!-- User table -->
    <rect x="0" y="0" width="200" height="70" rx="6" fill="#1e293b" stroke="#475569" stroke-width="1"/>
    <rect x="0" y="0" width="200" height="22" rx="6" fill="#334155"/>
    <text x="100" y="15" text-anchor="middle" class="text-sm" fill="#fff">users</text>
    <text x="15" y="40" class="code">id: uuid</text>
    <text x="15" y="55" class="code">welcome_sent: boolean</text>

    <!-- Admin keys table -->
    <rect x="230" y="0" width="200" height="70" rx="6" fill="#1e293b" stroke="#475569" stroke-width="1"/>
    <rect x="230" y="0" width="200" height="22" rx="6" fill="#334155"/>
    <text x="330" y="15" text-anchor="middle" class="text-sm" fill="#fff">admin_keys</text>
    <text x="245" y="40" class="code">id: uuid</text>
    <text x="245" y="55" class="code">public_key: text</text>

    <!-- Conversations table -->
    <rect x="460" y="0" width="220" height="70" rx="6" fill="#1e293b" stroke="#475569" stroke-width="1"/>
    <rect x="460" y="0" width="220" height="22" rx="6" fill="#334155"/>
    <text x="570" y="15" text-anchor="middle" class="text-sm" fill="#fff">conversations</text>
    <text x="475" y="40" class="code">id: uuid</text>
    <text x="475" y="55" class="code">participant_hash: text</text>

    <!-- Messages table -->
    <rect x="710" y="0" width="220" height="70" rx="6" fill="#1e293b" stroke="#475569" stroke-width="1"/>
    <rect x="710" y="0" width="220" height="22" rx="6" fill="#334155"/>
    <text x="820" y="15" text-anchor="middle" class="text-sm" fill="#fff">messages</text>
    <text x="725" y="40" class="code">id, conversation_id</text>
    <text x="725" y="55" class="code">encrypted_content: text</text>
  </g>

  <!-- Annotations at bottom -->
  <g transform="translate(960, 705)">
    <rect x="0" y="0" width="180" height="70" rx="6" fill="#334155"/>
    <text x="90" y="20" text-anchor="middle" class="annotation">KEY GUARANTEES</text>
    <text x="15" y="38" class="text-muted">✓ No duplicate messages</text>
    <text x="15" y="52" class="text-muted">✓ Non-blocking errors</text>
    <text x="15" y="66" class="text-muted">✓ No runtime secrets</text>
  </g>

  <g transform="translate(1160, 705)">
    <rect x="0" y="0" width="140" height="70" rx="6" fill="#334155"/>
    <text x="70" y="20" text-anchor="middle" class="annotation">REQUIREMENTS</text>
    <text x="15" y="38" class="text-muted">FR-001 to FR-014</text>
    <text x="15" y="52" class="text-muted">SC-001 to SC-006</text>
    <text x="15" y="66" class="text-muted">All edge cases</text>
  </g>
</svg>