<svg xmlns="http://www.w3.org/2000/svg" viewBox="0 0 1600 1000" width="1600" height="1000">
  <!-- ============================================================
       GENERATED BY: /wireframe skill
       SOURCE: features/core-features/012-welcome-message-architecture/spec.md
       DATE: 2026-01-01
       THEME: Dark (Backend/Architecture)
       DO NOT MANUALLY EDIT - Regenerate with /wireframe command
       ============================================================ -->
  <defs>
    <linearGradient id="bgGrad" x1="0%" y1="0%" x2="100%" y2="100%">
      <stop offset="0%" style="stop-color:#0f172a"/>
      <stop offset="100%" style="stop-color:#1e293b"/>
    </linearGradient>
    <linearGradient id="accentGrad" x1="0%" y1="0%" x2="100%" y2="0%">
      <stop offset="0%" style="stop-color:#8b5cf6"/>
      <stop offset="100%" style="stop-color:#d946ef"/>
    </linearGradient>
    <marker id="arrowhead" markerWidth="10" markerHeight="7" refX="9" refY="3.5" orient="auto">
      <polygon points="0 0, 10 3.5, 0 7" fill="#8b5cf6"/>
    </marker>
    <marker id="arrowhead-green" markerWidth="10" markerHeight="7" refX="9" refY="3.5" orient="auto">
      <polygon points="0 0, 10 3.5, 0 7" fill="#22c55e"/>
    </marker>
    <style>
      .heading-lg { fill: #ffffff; font-family: system-ui, sans-serif; font-size: 20px; font-weight: bold; }
      .heading { fill: #ffffff; font-family: system-ui, sans-serif; font-size: 14px; font-weight: bold; }
      .text-md { fill: #cbd5e1; font-family: system-ui, sans-serif; font-size: 12px; }
      .text-sm { fill: #94a3b8; font-family: system-ui, sans-serif; font-size: 10px; }
      .text-muted { fill: #8494a8; font-family: system-ui, sans-serif; font-size: 10px; }
      .annotation { fill: #6d28d9; font-family: monospace; font-size: 10px; }
      .code { fill: #22c55e; font-family: monospace; font-size: 10px; }
    </style>
  </defs>

  <!-- Background -->
  <rect width="1600" height="1000" fill="url(#bgGrad)"/>

  <!-- Dot grid pattern -->
  <g opacity="0.05">
    <pattern id="dots" width="30" height="30" patternUnits="userSpaceOnUse">
      <circle cx="15" cy="15" r="1" fill="#fff"/>
    </pattern>
    <rect width="1600" height="1000" fill="url(#dots)"/>
  </g>

  <!-- Accent line top -->
  <rect x="0" y="0" width="1600" height="3" fill="url(#accentGrad)"/>

  <!-- Title -->
  <text x="800" y="35" text-anchor="middle" class="heading-lg">WELCOME MESSAGE DELIVERY FLOW</text>
  <text x="800" y="55" text-anchor="middle" class="text-muted">FR-001: Automatic welcome after key initialization • FR-002: Asymmetric encryption</text>

  <!-- Phase Labels -->
  <text x="200" y="95" text-anchor="middle" class="annotation">USER SIGNUP</text>
  <text x="550" y="95" text-anchor="middle" class="annotation">KEY INIT</text>
  <text x="900" y="95" text-anchor="middle" class="annotation">WELCOME PROCESS</text>
  <text x="1300" y="95" text-anchor="middle" class="annotation">MESSAGE DELIVERY</text>

  <!-- Vertical phase dividers -->
  <line x1="375" y1="80" x2="375" y2="850" stroke="#475569" stroke-width="1" stroke-dasharray="4,4"/>
  <line x1="725" y1="80" x2="725" y2="850" stroke="#475569" stroke-width="1" stroke-dasharray="4,4"/>
  <line x1="1100" y1="80" x2="1100" y2="850" stroke="#475569" stroke-width="1" stroke-dasharray="4,4"/>

  <!-- PHASE 1: User Signup -->
  <g transform="translate(80, 120)">
    <!-- User icon -->
    <rect x="0" y="0" width="240" height="100" rx="8" fill="#1e293b" stroke="#475569" stroke-width="1"/>
    <circle cx="40" cy="50" r="20" fill="#334155" stroke="#8b5cf6" stroke-width="2"/>
    <text x="40" y="55" text-anchor="middle" class="heading">👤</text>
    <text x="140" y="40" text-anchor="middle" class="heading">New User</text>
    <text x="140" y="60" text-anchor="middle" class="text-sm">Completes registration</text>
    <text x="140" y="80" text-anchor="middle" class="text-muted">Email verified ✓</text>
  </g>

  <!-- Arrow to Key Init -->
  <line x1="320" y1="170" x2="400" y2="170" stroke="#8b5cf6" stroke-width="2" marker-end="url(#arrowhead)"/>
  <text x="360" y="160" text-anchor="middle" class="text-sm">triggers</text>

  <!-- PHASE 2: Key Initialization -->
  <g transform="translate(410, 120)">
    <rect x="0" y="0" width="280" height="140" rx="8" fill="#1e293b" stroke="#8b5cf6" stroke-width="2"/>
    <text x="140" y="25" text-anchor="middle" class="heading">Encryption Key Init</text>

    <rect x="20" y="40" width="240" height="30" rx="4" fill="#334155"/>
    <text x="140" y="60" text-anchor="middle" class="text-sm">Generate key pair (ECDH)</text>

    <rect x="20" y="80" width="240" height="30" rx="4" fill="#334155"/>
    <text x="140" y="100" text-anchor="middle" class="text-sm">Store public key in profile</text>

    <text x="140" y="130" text-anchor="middle" class="code">user.encryption_keys ← keypair</text>
  </g>

  <!-- Arrow to Welcome Process -->
  <line x1="690" y1="190" x2="760" y2="190" stroke="#8b5cf6" stroke-width="2" marker-end="url(#arrowhead)"/>
  <text x="725" y="180" text-anchor="middle" class="text-sm">complete</text>

  <!-- PHASE 3: Welcome Process -->
  <g transform="translate(770, 110)">
    <rect x="0" y="0" width="300" height="200" rx="8" fill="#1e293b" stroke="#d946ef" stroke-width="2"/>
    <text x="150" y="25" text-anchor="middle" class="heading">Welcome Message Process</text>

    <!-- Step 1 -->
    <rect x="20" y="40" width="260" height="35" rx="4" fill="#334155"/>
    <text x="40" y="63" class="annotation">1</text>
    <text x="150" y="58" text-anchor="middle" class="text-sm">Check welcome_sent status</text>
    <text x="150" y="70" text-anchor="middle" class="text-muted">FR-006: Early return if sent</text>

    <!-- Step 2 -->
    <rect x="20" y="85" width="260" height="35" rx="4" fill="#334155"/>
    <text x="40" y="108" class="annotation">2</text>
    <text x="150" y="103" text-anchor="middle" class="text-sm">Fetch admin public key</text>
    <text x="150" y="115" text-anchor="middle" class="text-muted">FR-003: No admin password needed</text>

    <!-- Step 3 -->
    <rect x="20" y="130" width="260" height="35" rx="4" fill="#334155"/>
    <text x="40" y="153" class="annotation">3</text>
    <text x="150" y="148" text-anchor="middle" class="text-sm">Create/find conversation</text>
    <text x="150" y="160" text-anchor="middle" class="text-muted">FR-004: Sorted participant IDs</text>

    <!-- Step 4 -->
    <rect x="20" y="175" width="260" height="20" rx="4" fill="#22c55e" opacity="0.3"/>
    <text x="40" y="189" class="annotation">4</text>
    <text x="150" y="189" text-anchor="middle" class="text-sm">Encrypt &amp; insert message</text>
  </g>

  <!-- Arrow to Message Delivery -->
  <line x1="1070" y1="210" x2="1130" y2="210" stroke="#22c55e" stroke-width="2" marker-end="url(#arrowhead-green)"/>
  <text x="1100" y="195" text-anchor="middle" class="text-sm">success</text>

  <!-- PHASE 4: Message Delivery -->
  <g transform="translate(1140, 120)">
    <rect x="0" y="0" width="280" height="180" rx="8" fill="#1e293b" stroke="#22c55e" stroke-width="2"/>
    <text x="140" y="25" text-anchor="middle" class="heading">Welcome Message Delivered</text>

    <!-- Conversation card -->
    <rect x="20" y="40" width="240" height="80" rx="6" fill="#334155"/>
    <circle cx="50" cy="70" r="18" fill="#8b5cf6"/>
    <text x="50" y="75" text-anchor="middle" fill="#fff" font-size="14">🛡️</text>
    <text x="170" y="60" text-anchor="middle" class="text-md">Admin</text>
    <text x="170" y="80" text-anchor="middle" class="text-sm">"Welcome! Your messages</text>
    <text x="170" y="95" text-anchor="middle" class="text-sm">are end-to-end encrypted..."</text>

    <!-- Status update -->
    <rect x="20" y="130" width="240" height="40" rx="4" fill="#22c55e" opacity="0.2"/>
    <text x="140" y="150" text-anchor="middle" class="code">welcome_sent = true</text>
    <text x="140" y="165" text-anchor="middle" class="text-muted">FR-008: Status updated</text>
  </g>

  <!-- ADMIN SETUP Section (bottom) -->
  <g transform="translate(80, 380)">
    <rect x="0" y="0" width="600" height="200" rx="8" fill="#1e293b" stroke="#475569" stroke-width="1"/>
    <text x="300" y="25" text-anchor="middle" class="heading">ADMIN SETUP (One-time Initialization)</text>
    <text x="300" y="45" text-anchor="middle" class="text-muted">FR-012, FR-013, FR-014</text>

    <!-- Setup flow -->
    <g transform="translate(20, 60)">
      <rect x="0" y="0" width="160" height="60" rx="6" fill="#334155"/>
      <text x="80" y="25" text-anchor="middle" class="text-md">System Init</text>
      <text x="80" y="45" text-anchor="middle" class="text-sm">First deployment</text>
    </g>

    <line x1="180" y1="90" x2="220" y2="90" stroke="#8b5cf6" stroke-width="2" marker-end="url(#arrowhead)"/>

    <g transform="translate(220, 60)">
      <rect x="0" y="0" width="160" height="60" rx="6" fill="#334155" stroke="#8b5cf6" stroke-width="1"/>
      <text x="80" y="25" text-anchor="middle" class="text-md">Generate Admin</text>
      <text x="80" y="45" text-anchor="middle" class="text-sm">Keypair (ECDH)</text>
    </g>

    <line x1="380" y1="90" x2="420" y2="90" stroke="#8b5cf6" stroke-width="2" marker-end="url(#arrowhead)"/>

    <g transform="translate(420, 60)">
      <rect x="0" y="0" width="160" height="60" rx="6" fill="#22c55e" opacity="0.3" stroke="#22c55e" stroke-width="1"/>
      <text x="80" y="25" text-anchor="middle" class="text-md">Store Public Key</text>
      <text x="80" y="45" text-anchor="middle" class="text-sm">Discard private ✓</text>
    </g>

    <!-- Note -->
    <rect x="20" y="140" width="560" height="45" rx="4" fill="#334155"/>
    <text x="40" y="162" class="annotation">Note:</text>
    <text x="95" y="162" class="text-sm">Admin private key is DISCARDED after setup. Only public key is stored.</text>
    <text x="40" y="178" class="text-muted">Welcome messages are encrypted TO the user, not FROM admin. User can decrypt with their private key.</text>
  </g>

  <!-- ENCRYPTION DETAIL (bottom right) -->
  <g transform="translate(720, 380)">
    <rect x="0" y="0" width="700" height="200" rx="8" fill="#1e293b" stroke="#8b5cf6" stroke-width="1"/>
    <text x="350" y="25" text-anchor="middle" class="heading">ENCRYPTION FLOW DETAIL</text>
    <text x="350" y="45" text-anchor="middle" class="text-muted">FR-002: Asymmetric encryption with admin's public key</text>

    <!-- Left: Admin -->
    <g transform="translate(40, 70)">
      <rect x="0" y="0" width="180" height="100" rx="6" fill="#334155"/>
      <text x="90" y="25" text-anchor="middle" class="heading">Admin (Sender)</text>
      <rect x="10" y="40" width="160" height="25" rx="4" fill="#8b5cf6" opacity="0.3"/>
      <text x="90" y="58" text-anchor="middle" class="text-sm">Public Key: stored ✓</text>
      <rect x="10" y="70" width="160" height="25" rx="4" fill="#ef4444" opacity="0.3"/>
      <text x="90" y="88" text-anchor="middle" class="text-sm">Private Key: discarded</text>
    </g>

    <!-- Middle: Encryption -->
    <g transform="translate(260, 70)">
      <rect x="0" y="0" width="180" height="100" rx="6" fill="#334155" stroke="#d946ef" stroke-width="2"/>
      <text x="90" y="25" text-anchor="middle" class="heading">Encryption</text>
      <text x="90" y="50" text-anchor="middle" class="text-sm">ECDH key derivation</text>
      <text x="90" y="70" text-anchor="middle" class="text-sm">Admin pub + User pub</text>
      <text x="90" y="90" text-anchor="middle" class="code">→ shared secret</text>
    </g>

    <!-- Right: User -->
    <g transform="translate(480, 70)">
      <rect x="0" y="0" width="180" height="100" rx="6" fill="#334155"/>
      <text x="90" y="25" text-anchor="middle" class="heading">User (Recipient)</text>
      <rect x="10" y="40" width="160" height="25" rx="4" fill="#8b5cf6" opacity="0.3"/>
      <text x="90" y="58" text-anchor="middle" class="text-sm">Public Key: stored ✓</text>
      <rect x="10" y="70" width="160" height="25" rx="4" fill="#22c55e" opacity="0.3"/>
      <text x="90" y="88" text-anchor="middle" class="text-sm">Private Key: local ✓</text>
    </g>

    <!-- Arrows -->
    <line x1="220" y1="120" x2="260" y2="120" stroke="#8b5cf6" stroke-width="2" marker-end="url(#arrowhead)"/>
    <line x1="440" y1="120" x2="480" y2="120" stroke="#22c55e" stroke-width="2" marker-end="url(#arrowhead-green)"/>
  </g>

  <!-- Requirements Legend -->
  <g transform="translate(80, 620)">
    <rect x="0" y="0" width="1440" height="120" rx="8" fill="#1e293b" stroke="#475569" stroke-width="1"/>
    <text x="720" y="25" text-anchor="middle" class="heading">REQUIREMENTS COVERAGE</text>

    <g transform="translate(20, 45)">
      <rect x="0" y="0" width="200" height="60" rx="4" fill="#334155"/>
      <text x="100" y="20" text-anchor="middle" class="annotation">FR-001</text>
      <text x="100" y="40" text-anchor="middle" class="text-sm">Auto-send after</text>
      <text x="100" y="55" text-anchor="middle" class="text-sm">key initialization</text>
    </g>

    <g transform="translate(240, 45)">
      <rect x="0" y="0" width="200" height="60" rx="4" fill="#334155"/>
      <text x="100" y="20" text-anchor="middle" class="annotation">FR-002</text>
      <text x="100" y="40" text-anchor="middle" class="text-sm">Asymmetric encryption</text>
      <text x="100" y="55" text-anchor="middle" class="text-sm">with admin public key</text>
    </g>

    <g transform="translate(460, 45)">
      <rect x="0" y="0" width="200" height="60" rx="4" fill="#334155"/>
      <text x="100" y="20" text-anchor="middle" class="annotation">FR-003</text>
      <text x="100" y="40" text-anchor="middle" class="text-sm">No admin password</text>
      <text x="100" y="55" text-anchor="middle" class="text-sm">required at runtime</text>
    </g>

    <g transform="translate(680, 45)">
      <rect x="0" y="0" width="200" height="60" rx="4" fill="#334155"/>
      <text x="100" y="20" text-anchor="middle" class="annotation">FR-004</text>
      <text x="100" y="40" text-anchor="middle" class="text-sm">Consistent participant</text>
      <text x="100" y="55" text-anchor="middle" class="text-sm">ordering (sorted IDs)</text>
    </g>

    <g transform="translate(900, 45)">
      <rect x="0" y="0" width="200" height="60" rx="4" fill="#334155"/>
      <text x="100" y="20" text-anchor="middle" class="annotation">FR-012/13/14</text>
      <text x="100" y="40" text-anchor="middle" class="text-sm">Automated admin setup</text>
      <text x="100" y="55" text-anchor="middle" class="text-sm">Secure key storage</text>
    </g>

    <g transform="translate(1120, 45)">
      <rect x="0" y="0" width="200" height="60" rx="4" fill="#334155"/>
      <text x="100" y="20" text-anchor="middle" class="annotation">SC-001</text>
      <text x="100" y="40" text-anchor="middle" class="text-sm">Delivery within</text>
      <text x="100" y="55" text-anchor="middle" class="text-sm">reasonable time</text>
    </g>
  </g>

  <!-- Success Criteria Badges -->
  <g transform="translate(80, 770)">
    <rect x="0" y="0" width="1440" height="70" rx="8" fill="#22c55e" opacity="0.1" stroke="#22c55e" stroke-width="1"/>
    <text x="720" y="25" text-anchor="middle" class="heading" fill="#22c55e">SUCCESS CRITERIA</text>

    <text x="200" y="50" text-anchor="middle" class="text-md">SC-001: Timely delivery ✓</text>
    <text x="500" y="50" text-anchor="middle" class="text-md">SC-002: No admin creds at runtime ✓</text>
    <text x="850" y="50" text-anchor="middle" class="text-md">SC-003: Client-only deployment ✓</text>
    <text x="1200" y="50" text-anchor="middle" class="text-md">SC-004: Public key only ✓</text>
  </g>

  <!-- Footer -->
  <text x="800" y="880" text-anchor="middle" class="text-muted">012-welcome-message-architecture • User Story 1: New User Receives Welcome Message (P1)</text>
</svg>
