<svg xmlns="http://www.w3.org/2000/svg" viewBox="0 0 1600 900" width="1600" height="900">
  <!-- ============================================================
       GENERATED BY: /wireframe skill
       SOURCE: features/core-features/012-welcome-message-architecture/spec.md
       DATE: 2026-01-01
       THEME: Dark (Backend/Architecture)
       DO NOT MANUALLY EDIT - Regenerate with /wireframe command
       ============================================================ -->
  <defs>
    <linearGradient id="bgGrad" x1="0%" y1="0%" x2="100%" y2="100%">
      <stop offset="0%" style="stop-color:#0f172a"/>
      <stop offset="100%" style="stop-color:#1e293b"/>
    </linearGradient>
    <linearGradient id="accentGrad" x1="0%" y1="0%" x2="100%" y2="0%">
      <stop offset="0%" style="stop-color:#8b5cf6"/>
      <stop offset="100%" style="stop-color:#d946ef"/>
    </linearGradient>
    <marker id="arrowhead" markerWidth="10" markerHeight="7" refX="9" refY="3.5" orient="auto">
      <polygon points="0 0, 10 3.5, 0 7" fill="#8b5cf6"/>
    </marker>
    <marker id="arrowhead-green" markerWidth="10" markerHeight="7" refX="9" refY="3.5" orient="auto">
      <polygon points="0 0, 10 3.5, 0 7" fill="#22c55e"/>
    </marker>
    <marker id="arrowhead-amber" markerWidth="10" markerHeight="7" refX="9" refY="3.5" orient="auto">
      <polygon points="0 0, 10 3.5, 0 7" fill="#eab308"/>
    </marker>
    <style>
      .heading-lg { fill: #ffffff; font-family: system-ui, sans-serif; font-size: 20px; font-weight: bold; }
      .heading { fill: #ffffff; font-family: system-ui, sans-serif; font-size: 14px; font-weight: bold; }
      .text-md { fill: #cbd5e1; font-family: system-ui, sans-serif; font-size: 12px; }
      .text-sm { fill: #94a3b8; font-family: system-ui, sans-serif; font-size: 10px; }
      .text-muted { fill: #8494a8; font-family: system-ui, sans-serif; font-size: 10px; }
      .annotation { fill: #8b5cf6; font-family: monospace; font-size: 10px; }
      .code { fill: #22c55e; font-family: monospace; font-size: 10px; }
    </style>
  </defs>

  <!-- Background -->
  <rect width="1600" height="900" fill="url(#bgGrad)"/>

  <!-- Dot grid pattern -->
  <g opacity="0.05">
    <pattern id="dots" width="30" height="30" patternUnits="userSpaceOnUse">
      <circle cx="15" cy="15" r="1" fill="#fff"/>
    </pattern>
    <rect width="1600" height="900" fill="url(#dots)"/>
  </g>

  <!-- Accent line top -->
  <rect x="0" y="0" width="1600" height="3" fill="url(#accentGrad)"/>

  <!-- Title -->
  <text x="800" y="35" text-anchor="middle" class="heading-lg">IDEMPOTENCY STATE MACHINE</text>
  <text x="800" y="55" text-anchor="middle" class="text-muted">FR-005: Track status per user • FR-006: Check before sending • FR-007: Handle concurrent requests</text>

  <!-- STATE DIAGRAM -->
  <g transform="translate(80, 100)">
    <!-- State: NOT_SENT (Initial) -->
    <g transform="translate(0, 120)">
      <circle cx="100" cy="80" r="70" fill="#1e293b" stroke="#eab308" stroke-width="3"/>
      <text x="100" y="70" text-anchor="middle" class="heading">NOT_SENT</text>
      <text x="100" y="90" text-anchor="middle" class="text-sm">welcome_sent = false</text>
      <text x="100" y="110" text-anchor="middle" class="text-muted">(Initial state)</text>
      <!-- Start arrow -->
      <line x1="30" y1="0" x2="70" y2="50" stroke="#eab308" stroke-width="2" marker-end="url(#arrowhead-amber)"/>
      <text x="20" y="10" class="text-sm">new user</text>
    </g>

    <!-- Arrow: NOT_SENT → PROCESSING -->
    <line x1="200" y1="200" x2="350" y2="200" stroke="#8b5cf6" stroke-width="2" marker-end="url(#arrowhead)"/>
    <text x="275" y="190" text-anchor="middle" class="text-sm">trigger welcome</text>
    <text x="275" y="220" text-anchor="middle" class="code">check status first</text>

    <!-- State: PROCESSING -->
    <g transform="translate(350, 120)">
      <circle cx="100" cy="80" r="70" fill="#1e293b" stroke="#d946ef" stroke-width="3"/>
      <text x="100" y="70" text-anchor="middle" class="heading">PROCESSING</text>
      <text x="100" y="90" text-anchor="middle" class="text-sm">In-flight operation</text>
      <text x="100" y="110" text-anchor="middle" class="text-muted">(Transient state)</text>
    </g>

    <!-- Arrow: PROCESSING → SENT (success) -->
    <line x1="550" y1="200" x2="700" y2="200" stroke="#22c55e" stroke-width="2" marker-end="url(#arrowhead-green)"/>
    <text x="625" y="185" text-anchor="middle" class="text-sm">success</text>
    <text x="625" y="215" text-anchor="middle" class="code">update status</text>

    <!-- State: SENT (Terminal) -->
    <g transform="translate(700, 120)">
      <circle cx="100" cy="80" r="70" fill="#1e293b" stroke="#22c55e" stroke-width="3"/>
      <text x="100" y="70" text-anchor="middle" class="heading">SENT</text>
      <text x="100" y="90" text-anchor="middle" class="text-sm">welcome_sent = true</text>
      <text x="100" y="110" text-anchor="middle" class="text-muted">(Terminal state)</text>
      <!-- Double circle for terminal -->
      <circle cx="100" cy="80" r="60" fill="none" stroke="#22c55e" stroke-width="1"/>
    </g>

    <!-- Arrow: PROCESSING → NOT_SENT (failure, retry) -->
    <path d="M 450 270 Q 450 350 275 350 Q 100 350 100 270" fill="none" stroke="#ef4444" stroke-width="2" marker-end="url(#arrowhead)"/>
    <text x="275" y="380" text-anchor="middle" class="text-sm" fill="#ef4444">failure (retry later)</text>

    <!-- Self-loop: SENT → SENT (duplicate attempt) -->
    <path d="M 850 150 Q 920 80 850 100" fill="none" stroke="#8b5cf6" stroke-width="2" stroke-dasharray="4,4"/>
    <text x="930" y="110" class="text-sm">duplicate attempt</text>
    <text x="930" y="125" class="code">→ early return</text>
  </g>

  <!-- DECISION FLOWCHART -->
  <g transform="translate(1000, 90)">
    <rect x="0" y="0" width="520" height="400" rx="8" fill="#1e293b" stroke="#475569" stroke-width="1"/>
    <text x="260" y="30" text-anchor="middle" class="heading">WELCOME PROCESS DECISION FLOW</text>
    <text x="260" y="50" text-anchor="middle" class="text-muted">FR-006: Check status before sending</text>

    <!-- Start -->
    <rect x="200" y="70" width="120" height="30" rx="15" fill="#8b5cf6"/>
    <text x="260" y="90" text-anchor="middle" class="text-md" fill="#fff">Start</text>

    <line x1="260" y1="100" x2="260" y2="130" stroke="#8b5cf6" stroke-width="2" marker-end="url(#arrowhead)"/>

    <!-- Decision 1: Already sent? -->
    <polygon points="260,130 330,170 260,210 190,170" fill="#334155" stroke="#eab308" stroke-width="2"/>
    <text x="260" y="165" text-anchor="middle" class="text-sm">welcome_sent</text>
    <text x="260" y="180" text-anchor="middle" class="text-sm">== true?</text>

    <!-- Yes branch: Early return -->
    <line x1="330" y1="170" x2="420" y2="170" stroke="#22c55e" stroke-width="2" marker-end="url(#arrowhead-green)"/>
    <text x="375" y="160" text-anchor="middle" class="text-sm" fill="#22c55e">YES</text>
    <rect x="420" y="150" width="80" height="40" rx="6" fill="#22c55e" opacity="0.3" stroke="#22c55e"/>
    <text x="460" y="175" text-anchor="middle" class="text-sm">Return</text>
    <text x="460" y="200" text-anchor="middle" class="text-muted">No action</text>

    <!-- No branch: Continue -->
    <line x1="260" y1="210" x2="260" y2="240" stroke="#8b5cf6" stroke-width="2" marker-end="url(#arrowhead)"/>
    <text x="280" y="225" class="text-sm">NO</text>

    <!-- Decision 2: Admin key exists? -->
    <polygon points="260,240 330,280 260,320 190,280" fill="#334155" stroke="#eab308" stroke-width="2"/>
    <text x="260" y="275" text-anchor="middle" class="text-sm">admin key</text>
    <text x="260" y="290" text-anchor="middle" class="text-sm">exists?</text>

    <!-- No branch: Log error -->
    <line x1="190" y1="280" x2="100" y2="280" stroke="#ef4444" stroke-width="2" marker-end="url(#arrowhead)"/>
    <text x="145" y="270" text-anchor="middle" class="text-sm" fill="#ef4444">NO</text>
    <rect x="20" y="260" width="80" height="40" rx="6" fill="#ef4444" opacity="0.3" stroke="#ef4444"/>
    <text x="60" y="280" text-anchor="middle" class="text-sm">Log Error</text>
    <text x="60" y="310" text-anchor="middle" class="text-muted">Skip welcome</text>

    <!-- Yes branch: Process -->
    <line x1="260" y1="320" x2="260" y2="350" stroke="#22c55e" stroke-width="2" marker-end="url(#arrowhead-green)"/>
    <text x="280" y="340" class="text-sm" fill="#22c55e">YES</text>

    <!-- Process -->
    <rect x="180" y="350" width="160" height="35" rx="6" fill="#22c55e" opacity="0.3" stroke="#22c55e"/>
    <text x="260" y="375" text-anchor="middle" class="text-md">Send Welcome</text>
  </g>

  <!-- CONCURRENT REQUEST HANDLING -->
  <g transform="translate(80, 520)">
    <rect x="0" y="0" width="700" height="280" rx="8" fill="#1e293b" stroke="#d946ef" stroke-width="2"/>
    <text x="350" y="30" text-anchor="middle" class="heading">CONCURRENT REQUEST HANDLING</text>
    <text x="350" y="50" text-anchor="middle" class="text-muted">FR-007: Handle concurrent requests idempotently</text>

    <!-- Timeline header -->
    <text x="100" y="85" text-anchor="middle" class="annotation">REQUEST A</text>
    <text x="300" y="85" text-anchor="middle" class="annotation">REQUEST B</text>
    <text x="550" y="85" text-anchor="middle" class="annotation">OUTCOME</text>

    <!-- Scenario 1: A wins -->
    <g transform="translate(20, 100)">
      <rect x="0" y="0" width="660" height="70" rx="4" fill="#334155"/>

      <!-- Request A timeline -->
      <line x1="40" y1="35" x2="200" y2="35" stroke="#22c55e" stroke-width="3"/>
      <circle cx="40" cy="35" r="6" fill="#22c55e"/>
      <circle cx="120" cy="35" r="6" fill="#22c55e"/>
      <circle cx="200" cy="35" r="6" fill="#22c55e"/>
      <text x="40" y="55" text-anchor="middle" class="text-muted">check</text>
      <text x="120" y="55" text-anchor="middle" class="text-muted">process</text>
      <text x="200" y="55" text-anchor="middle" class="text-muted">update ✓</text>

      <!-- Request B timeline -->
      <line x1="220" y1="35" x2="320" y2="35" stroke="#eab308" stroke-width="3"/>
      <circle cx="220" cy="35" r="6" fill="#eab308"/>
      <circle cx="320" cy="35" r="6" fill="#eab308"/>
      <text x="220" y="55" text-anchor="middle" class="text-muted">check</text>
      <text x="320" y="55" text-anchor="middle" class="text-muted">skip ✓</text>

      <!-- Outcome -->
      <rect x="450" y="10" width="180" height="50" rx="4" fill="#22c55e" opacity="0.2"/>
      <text x="540" y="35" text-anchor="middle" class="text-md">1 message sent</text>
      <text x="540" y="50" text-anchor="middle" class="text-muted">B sees SENT status</text>

      <text x="680" y="35" class="code">✓</text>
    </g>

    <!-- Scenario 2: Race condition handled -->
    <g transform="translate(20, 180)">
      <rect x="0" y="0" width="660" height="70" rx="4" fill="#334155"/>

      <!-- Request A timeline -->
      <line x1="40" y1="35" x2="180" y2="35" stroke="#22c55e" stroke-width="3"/>
      <circle cx="40" cy="35" r="6" fill="#22c55e"/>
      <circle cx="110" cy="35" r="6" fill="#22c55e"/>
      <circle cx="180" cy="35" r="6" fill="#22c55e"/>
      <text x="40" y="55" text-anchor="middle" class="text-muted">check</text>
      <text x="110" y="55" text-anchor="middle" class="text-muted">process</text>
      <text x="180" y="55" text-anchor="middle" class="text-muted">update ✓</text>

      <!-- Request B timeline (parallel) -->
      <line x1="60" y1="20" x2="200" y2="20" stroke="#eab308" stroke-width="3"/>
      <circle cx="60" cy="20" r="6" fill="#eab308"/>
      <circle cx="130" cy="20" r="6" fill="#eab308"/>
      <circle cx="200" cy="20" r="6" fill="#eab308"/>
      <text x="60" y="10" text-anchor="middle" class="text-muted">check</text>
      <text x="130" y="10" text-anchor="middle" class="text-muted">process</text>
      <text x="200" y="10" text-anchor="middle" class="text-muted">conflict</text>

      <!-- Outcome -->
      <rect x="450" y="10" width="180" height="50" rx="4" fill="#eab308" opacity="0.2"/>
      <text x="540" y="30" text-anchor="middle" class="text-md">1 message sent</text>
      <text x="540" y="50" text-anchor="middle" class="text-muted">DB unique constraint</text>

      <text x="680" y="35" class="code">✓</text>
    </g>
  </g>

  <!-- DATABASE PATTERN -->
  <g transform="translate(820, 520)">
    <rect x="0" y="0" width="700" height="280" rx="8" fill="#1e293b" stroke="#475569" stroke-width="1"/>
    <text x="350" y="30" text-anchor="middle" class="heading">DATABASE IDEMPOTENCY PATTERN</text>
    <text x="350" y="50" text-anchor="middle" class="text-muted">FR-005, FR-008: Track and update welcome status</text>

    <!-- User Profiles Table -->
    <g transform="translate(40, 70)">
      <rect x="0" y="0" width="300" height="180" rx="6" fill="#334155"/>
      <text x="150" y="25" text-anchor="middle" class="heading">user_profiles</text>

      <line x1="0" y1="35" x2="300" y2="35" stroke="#475569"/>

      <text x="20" y="60" class="text-sm">id</text>
      <text x="150" y="60" class="text-sm">uuid (PK)</text>
      <text x="270" y="60" class="annotation">🔑</text>

      <text x="20" y="85" class="text-sm">email</text>
      <text x="150" y="85" class="text-sm">text</text>

      <text x="20" y="110" class="text-sm">display_name</text>
      <text x="150" y="110" class="text-sm">text</text>

      <rect x="10" y="120" width="280" height="25" rx="4" fill="#8b5cf6" opacity="0.2"/>
      <text x="20" y="138" class="text-sm" fill="#8b5cf6">welcome_sent</text>
      <text x="150" y="138" class="text-sm" fill="#8b5cf6">boolean DEFAULT false</text>

      <text x="20" y="163" class="text-sm">encryption_public_key</text>
      <text x="200" y="163" class="text-sm">text</text>
    </g>

    <!-- SQL Examples -->
    <g transform="translate(360, 70)">
      <rect x="0" y="0" width="320" height="180" rx="6" fill="#334155"/>
      <text x="160" y="25" text-anchor="middle" class="heading">Query Patterns</text>

      <line x1="0" y1="35" x2="320" y2="35" stroke="#475569"/>

      <!-- Check query -->
      <text x="20" y="55" class="annotation">-- Check before send</text>
      <text x="20" y="72" class="code">SELECT welcome_sent</text>
      <text x="20" y="87" class="code">FROM user_profiles</text>
      <text x="20" y="102" class="code">WHERE id = $user_id</text>

      <line x1="20" y1="115" x2="300" y2="115" stroke="#475569" stroke-dasharray="4,4"/>

      <!-- Update query -->
      <text x="20" y="135" class="annotation">-- Mark as sent (atomic)</text>
      <text x="20" y="152" class="code">UPDATE user_profiles</text>
      <text x="20" y="167" class="code">SET welcome_sent = true</text>
    </g>
  </g>

  <!-- Requirements Footer -->
  <g transform="translate(80, 830)">
    <rect x="0" y="0" width="1440" height="50" rx="6" fill="#22c55e" opacity="0.1" stroke="#22c55e"/>
    <text x="200" y="30" text-anchor="middle" class="text-md">FR-005: Status per user ✓</text>
    <text x="480" y="30" text-anchor="middle" class="text-md">FR-006: Check before sending ✓</text>
    <text x="780" y="30" text-anchor="middle" class="text-md">FR-007: No duplicates ✓</text>
    <text x="1050" y="30" text-anchor="middle" class="text-md">FR-008: Update after delivery ✓</text>
    <text x="1320" y="30" text-anchor="middle" class="text-md">SC-005: No duplicate messages ✓</text>
  </g>
</svg>
