<svg xmlns="http://www.w3.org/2000/svg" viewBox="0 0 1400 800" width="1400" height="800">
  <!-- ============================================================
       GENERATED BY: /wireframe skill
       SOURCE: features/core-features/012-welcome-message-architecture/spec.md
       DATE: 2025-12-31
       DO NOT MANUALLY EDIT - Regenerate with /wireframe command
       ============================================================ -->
  <defs>
    <linearGradient id="bgGrad" x1="0%" y1="0%" x2="100%" y2="100%">
      <stop offset="0%" style="stop-color:#0f172a"/>
      <stop offset="100%" style="stop-color:#1e293b"/>
    </linearGradient>
    <linearGradient id="accentGrad" x1="0%" y1="0%" x2="100%" y2="0%">
      <stop offset="0%" style="stop-color:#8b5cf6"/>
      <stop offset="100%" style="stop-color:#d946ef"/>
    </linearGradient>
    <style>
      .heading-lg { fill: #ffffff; font-family: system-ui, sans-serif; font-size: 20px; font-weight: bold; }
      .heading { fill: #ffffff; font-family: system-ui, sans-serif; font-size: 14px; font-weight: bold; }
      .text-md { fill: #cbd5e1; font-family: system-ui, sans-serif; font-size: 12px; }
      .text-sm { fill: #94a3b8; font-family: system-ui, sans-serif; font-size: 10px; }
      .text-muted { fill: #64748b; font-family: system-ui, sans-serif; font-size: 10px; }
      .annotation { fill: #8b5cf6; font-family: monospace; font-size: 10px; }
      .label-desktop { fill: #8b5cf6; font-family: monospace; font-size: 11px; font-weight: bold; }
      .label-mobile { fill: #d946ef; font-family: monospace; font-size: 11px; font-weight: bold; }
    </style>
  </defs>

  <!-- Background -->
  <rect width="1400" height="800" fill="url(#bgGrad)"/>

  <!-- Dot grid pattern -->
  <g opacity="0.05">
    <pattern id="dots" width="30" height="30" patternUnits="userSpaceOnUse">
      <circle cx="15" cy="15" r="1" fill="#fff"/>
    </pattern>
    <rect width="1400" height="800" fill="url(#dots)"/>
  </g>

  <!-- Accent line top -->
  <rect x="0" y="0" width="1400" height="3" fill="url(#accentGrad)"/>

  <!-- Title -->
  <text x="700" y="28" text-anchor="middle" font-family="system-ui, sans-serif" font-size="14" font-weight="600" fill="#64748b" letter-spacing="1">WELCOME MESSAGE USER EXPERIENCE</text>

  <!-- DESKTOP SECTION -->
  <text x="40" y="52" class="label-desktop">DESKTOP - NEW USER'S FIRST VIEW</text>
  <g id="desktop-view">
    <!-- Sidebar - Conversation List -->
    <rect x="40" y="60" width="200" height="680" rx="8" fill="#1e293b" stroke="#475569" stroke-width="1"/>

    <!-- Sidebar Header -->
    <rect x="40" y="60" width="200" height="50" rx="8" fill="#334155"/>
    <rect x="40" y="98" width="200" height="12" fill="#334155"/>
    <text x="140" y="92" text-anchor="middle" class="heading">Messages</text>

    <!-- Empty state hint -->
    <text x="140" y="130" text-anchor="middle" class="text-muted">Your conversations</text>

    <!-- Welcome conversation - highlighted as new -->
    <rect x="50" y="145" width="180" height="70" rx="6" fill="#8b5cf6" opacity="0.15" stroke="#8b5cf6" stroke-width="2"/>
    <!-- Admin avatar with badge -->
    <circle cx="78" cy="175" r="20" fill="#8b5cf6"/>
    <text x="76" y="181" text-anchor="middle" font-size="14" fill="#fff">🛡️</text>
    <!-- Verified badge -->
    <circle cx="92" cy="188" r="8" fill="#22c55e"/>
    <text x="92" y="192" text-anchor="middle" font-size="8" fill="#fff">✓</text>

    <text x="105" y="165" class="heading" fill="#fff">ScriptHammer</text>
    <text x="105" y="180" class="text-sm">Welcome! Your messages are...</text>
    <text x="210" y="155" class="text-muted">Just now</text>
    <!-- Unread indicator -->
    <circle cx="218" cy="185" r="8" fill="#8b5cf6"/>
    <text x="218" y="189" text-anchor="middle" font-size="8" fill="#fff">1</text>

    <!-- Empty state below -->
    <text x="140" y="260" text-anchor="middle" class="text-muted">No other conversations yet</text>
    <text x="140" y="280" text-anchor="middle" class="text-muted">Connect with people to start</text>

    <!-- Main Conversation Area -->
    <rect x="250" y="60" width="440" height="680" rx="8" fill="#0f172a" stroke="#475569" stroke-width="1"/>

    <!-- Conversation Header -->
    <rect x="250" y="60" width="440" height="60" rx="8" fill="#1e293b"/>
    <rect x="250" y="108" width="440" height="12" fill="#1e293b"/>
    <!-- Admin avatar -->
    <circle cx="285" cy="90" r="22" fill="#8b5cf6"/>
    <text x="283" y="96" text-anchor="middle" font-size="16" fill="#fff">🛡️</text>
    <circle cx="300" cy="105" r="8" fill="#22c55e"/>
    <text x="300" y="109" text-anchor="middle" font-size="8" fill="#fff">✓</text>
    <text x="320" y="85" class="heading-lg">ScriptHammer</text>
    <text x="320" y="103" class="text-sm">System Administrator • Verified</text>

    <!-- Encryption indicator in header -->
    <rect x="600" y="75" width="75" height="28" rx="14" fill="#22c55e" opacity="0.2"/>
    <text x="637" y="93" text-anchor="middle" class="text-sm" fill="#22c55e">🔒 E2E</text>

    <!-- Welcome Message Content -->
    <g transform="translate(265, 140)">
      <!-- Admin message bubble -->
      <circle cx="15" cy="15" r="15" fill="#8b5cf6"/>
      <text x="13" y="21" text-anchor="middle" font-size="11" fill="#fff">🛡️</text>

      <rect x="40" y="0" width="380" height="220" rx="12" fill="#1e293b"/>

      <!-- Message content -->
      <text x="55" y="25" class="heading" fill="#8b5cf6">Welcome to ScriptHammer! 🎉</text>

      <text x="55" y="50" class="text-md">Your account is now set up with end-to-end</text>
      <text x="55" y="68" class="text-md">encryption. Here's what that means for you:</text>

      <!-- Feature list -->
      <text x="55" y="95" class="text-md" fill="#22c55e">🔐 Private by Design</text>
      <text x="75" y="112" class="text-sm">Only you and your contacts can read messages.</text>
      <text x="75" y="126" class="text-sm">Not even we can decrypt them.</text>

      <text x="55" y="150" class="text-md" fill="#22c55e">🔑 Your Keys, Your Control</text>
      <text x="75" y="167" class="text-sm">Encryption keys are generated on your device</text>
      <text x="75" y="181" class="text-sm">and never leave it.</text>

      <text x="55" y="205" class="text-muted">This is an automated message. Replies are disabled.</text>

      <!-- Timestamp -->
      <text x="390" y="230" text-anchor="end" class="text-muted">Today at 10:32 AM</text>
    </g>

    <!-- Read receipts / encryption verification -->
    <g transform="translate(265, 390)">
      <rect x="40" y="0" width="380" height="50" rx="8" fill="#334155"/>
      <text x="230" y="20" text-anchor="middle" class="text-sm" fill="#22c55e">🔒 Message encrypted end-to-end</text>
      <text x="230" y="38" text-anchor="middle" class="text-muted">Decrypted successfully with your private key</text>
    </g>

    <!-- Disabled input area -->
    <rect x="260" y="680" width="420" height="50" rx="8" fill="#1e293b" opacity="0.5"/>
    <rect x="270" y="690" width="400" height="32" rx="6" fill="#0f172a" stroke="#475569" stroke-width="1" stroke-dasharray="4,2"/>
    <text x="470" y="710" text-anchor="middle" class="text-muted">Replies are disabled for system messages</text>

    <!-- Detail Panel -->
    <rect x="700" y="60" width="240" height="680" rx="8" fill="#1e293b" stroke="#475569" stroke-width="1"/>

    <rect x="700" y="60" width="240" height="50" rx="8" fill="#334155"/>
    <rect x="700" y="98" width="240" height="12" fill="#334155"/>
    <text x="820" y="92" text-anchor="middle" class="heading">About This Message</text>

    <!-- Admin info -->
    <g transform="translate(715, 130)">
      <text x="0" y="0" class="text-sm">SENDER</text>

      <rect x="0" y="10" width="210" height="70" rx="6" fill="#0f172a"/>
      <circle cx="35" cy="45" r="25" fill="#8b5cf6"/>
      <text x="33" y="52" text-anchor="middle" font-size="18" fill="#fff">🛡️</text>
      <text x="70" y="38" class="heading">ScriptHammer</text>
      <text x="70" y="55" class="text-muted">System Administrator</text>
      <rect x="70" y="60" width="55" height="16" rx="8" fill="#22c55e" opacity="0.3"/>
      <text x="97" y="72" text-anchor="middle" class="text-muted" fill="#22c55e">Verified</text>
    </g>

    <!-- Encryption info -->
    <g transform="translate(715, 230)">
      <text x="0" y="0" class="text-sm">ENCRYPTION</text>

      <rect x="0" y="10" width="210" height="100" rx="6" fill="#0f172a"/>
      <text x="15" y="35" class="text-md" fill="#22c55e">🔒 End-to-End Encrypted</text>
      <text x="15" y="55" class="text-sm">This message was encrypted</text>
      <text x="15" y="70" class="text-sm">using your public key.</text>
      <text x="15" y="95" class="text-muted">Only you can decrypt it.</text>
    </g>

    <!-- Message type -->
    <g transform="translate(715, 360)">
      <text x="0" y="0" class="text-sm">MESSAGE TYPE</text>

      <rect x="0" y="10" width="210" height="60" rx="6" fill="#0f172a"/>
      <text x="15" y="35" class="text-md">System Welcome Message</text>
      <text x="15" y="55" class="text-muted">Automated • One-time • No replies</text>
    </g>

    <!-- Delivered timestamp -->
    <g transform="translate(715, 450)">
      <text x="0" y="0" class="text-sm">DELIVERED</text>

      <rect x="0" y="10" width="210" height="45" rx="6" fill="#0f172a"/>
      <text x="15" y="35" class="text-md">December 31, 2025</text>
      <text x="15" y="50" class="text-muted">10:32:15 AM</text>
    </g>
  </g>

  <!-- MOBILE SECTION -->
  <text x="980" y="52" class="label-mobile">MOBILE</text>
  <g id="mobile-view" transform="translate(980, 60)">
    <!-- Phone frame -->
    <rect x="0" y="0" width="360" height="700" rx="24" fill="#1e293b" stroke="#475569" stroke-width="2"/>
    <rect x="10" y="10" width="340" height="680" rx="16" fill="#0f172a"/>

    <!-- Status bar -->
    <rect x="10" y="10" width="340" height="28" rx="16" fill="#1e293b"/>
    <text x="30" y="28" class="text-sm">9:41</text>
    <text x="310" y="28" class="text-sm">📶 🔋</text>

    <!-- Header -->
    <rect x="10" y="38" width="340" height="55" fill="#1e293b"/>
    <text x="25" y="70" class="text-md" fill="#94a3b8">←</text>
    <circle cx="60" cy="65" r="18" fill="#8b5cf6"/>
    <text x="58" y="71" text-anchor="middle" font-size="12" fill="#fff">🛡️</text>
    <circle cx="72" cy="77" r="6" fill="#22c55e"/>
    <text x="72" y="81" text-anchor="middle" font-size="6" fill="#fff">✓</text>
    <text x="90" y="60" class="heading">ScriptHammer</text>
    <text x="90" y="76" class="text-muted">System Admin • Verified</text>
    <!-- E2E badge -->
    <rect x="280" y="52" width="55" height="24" rx="12" fill="#22c55e" opacity="0.2"/>
    <text x="307" y="68" text-anchor="middle" class="text-sm" fill="#22c55e">🔒</text>

    <!-- Welcome message -->
    <g transform="translate(20, 105)">
      <circle cx="12" cy="12" r="12" fill="#8b5cf6"/>
      <text x="10" y="16" text-anchor="middle" font-size="9" fill="#fff">🛡️</text>

      <rect x="30" y="0" width="280" height="200" rx="12" fill="#1e293b"/>

      <text x="45" y="22" class="heading" fill="#8b5cf6">Welcome! 🎉</text>

      <text x="45" y="45" class="text-sm">Your account is now set up with</text>
      <text x="45" y="60" class="text-sm">end-to-end encryption.</text>

      <text x="45" y="85" class="text-sm" fill="#22c55e">🔐 Private by Design</text>
      <text x="55" y="100" class="text-muted">Only you and contacts can</text>
      <text x="55" y="112" class="text-muted">read messages.</text>

      <text x="45" y="135" class="text-sm" fill="#22c55e">🔑 Your Keys</text>
      <text x="55" y="150" class="text-muted">Keys generated on device,</text>
      <text x="55" y="162" class="text-muted">never leave it.</text>

      <text x="45" y="185" class="text-muted" font-size="9">Automated message. No replies.</text>

      <text x="280" y="200" text-anchor="end" class="text-muted">10:32 AM</text>
    </g>

    <!-- Encryption verification -->
    <rect x="50" y="325" width="260" height="40" rx="8" fill="#334155"/>
    <text x="180" y="345" text-anchor="middle" class="text-sm" fill="#22c55e">🔒 Encrypted end-to-end</text>
    <text x="180" y="360" text-anchor="middle" class="text-muted" font-size="9">Decrypted with your key</text>

    <!-- New user tips section -->
    <rect x="20" y="385" width="320" height="1" fill="#475569"/>

    <text x="180" y="410" text-anchor="middle" class="text-sm" fill="#94a3b8">NEXT STEPS</text>

    <!-- Tip cards -->
    <rect x="20" y="425" width="320" height="60" rx="8" fill="#1e293b"/>
    <text x="50" y="450" font-size="20">👥</text>
    <text x="75" y="447" class="text-md">Find Connections</text>
    <text x="75" y="465" class="text-muted">Search for friends and colleagues</text>
    <text x="320" y="455" class="text-md" fill="#8b5cf6">→</text>

    <rect x="20" y="495" width="320" height="60" rx="8" fill="#1e293b"/>
    <text x="50" y="520" font-size="20">💬</text>
    <text x="75" y="517" class="text-md">Start a Conversation</text>
    <text x="75" y="535" class="text-muted">All messages are encrypted</text>
    <text x="320" y="525" class="text-md" fill="#8b5cf6">→</text>

    <rect x="20" y="565" width="320" height="60" rx="8" fill="#1e293b"/>
    <text x="50" y="590" font-size="20">⚙️</text>
    <text x="75" y="587" class="text-md">Review Settings</text>
    <text x="75" y="605" class="text-muted">Privacy and notification options</text>
    <text x="320" y="595" class="text-md" fill="#8b5cf6">→</text>

    <!-- Disabled input -->
    <rect x="10" y="640" width="340" height="50" rx="16" fill="#1e293b" opacity="0.5"/>
    <text x="180" y="670" text-anchor="middle" class="text-muted">Replies disabled</text>
  </g>

  <!-- Annotations -->
  <g class="annotations">
    <rect x="40" y="750" width="160" height="40" rx="4" fill="#1e293b" stroke="#8b5cf6" stroke-width="1"/>
    <text x="120" y="768" text-anchor="middle" class="annotation">FR-001: Auto-send</text>
    <text x="120" y="782" text-anchor="middle" class="text-muted">After key initialization</text>

    <rect x="210" y="750" width="160" height="40" rx="4" fill="#1e293b" stroke="#8b5cf6" stroke-width="1"/>
    <text x="290" y="768" text-anchor="middle" class="annotation">FR-002: Encrypted</text>
    <text x="290" y="782" text-anchor="middle" class="text-muted">E2E with admin key</text>

    <rect x="380" y="750" width="160" height="40" rx="4" fill="#1e293b" stroke="#8b5cf6" stroke-width="1"/>
    <text x="460" y="768" text-anchor="middle" class="annotation">FR-005/006: Idempotent</text>
    <text x="460" y="782" text-anchor="middle" class="text-muted">No duplicates ever</text>

    <rect x="550" y="750" width="160" height="40" rx="4" fill="#1e293b" stroke="#8b5cf6" stroke-width="1"/>
    <text x="630" y="768" text-anchor="middle" class="annotation">FR-009: Non-blocking</text>
    <text x="630" y="782" text-anchor="middle" class="text-muted">Fails gracefully</text>

    <rect x="720" y="750" width="160" height="40" rx="4" fill="#1e293b" stroke="#8b5cf6" stroke-width="1"/>
    <text x="800" y="768" text-anchor="middle" class="annotation">Constraint: Static</text>
    <text x="800" y="782" text-anchor="middle" class="text-muted">One-way, no replies</text>
  </g>
</svg>