<svg xmlns="http://www.w3.org/2000/svg" viewBox="0 0 1600 900" width="1600" height="900">
  <!-- ============================================================
       GENERATED BY: /wireframe skill
       SOURCE: features/core-features/012-welcome-message-architecture/spec.md
       DATE: 2026-01-01
       THEME: Dark (Backend/Architecture)
       DO NOT MANUALLY EDIT - Regenerate with /wireframe command
       ============================================================ -->
  <defs>
    <linearGradient id="bgGrad" x1="0%" y1="0%" x2="100%" y2="100%">
      <stop offset="0%" style="stop-color:#0f172a"/>
      <stop offset="100%" style="stop-color:#1e293b"/>
    </linearGradient>
    <linearGradient id="accentGrad" x1="0%" y1="0%" x2="100%" y2="0%">
      <stop offset="0%" style="stop-color:#8b5cf6"/>
      <stop offset="100%" style="stop-color:#d946ef"/>
    </linearGradient>
    <marker id="arrowhead" markerWidth="10" markerHeight="7" refX="9" refY="3.5" orient="auto">
      <polygon points="0 0, 10 3.5, 0 7" fill="#8b5cf6"/>
    </marker>
    <marker id="arrowhead-green" markerWidth="10" markerHeight="7" refX="9" refY="3.5" orient="auto">
      <polygon points="0 0, 10 3.5, 0 7" fill="#22c55e"/>
    </marker>
    <marker id="arrowhead-red" markerWidth="10" markerHeight="7" refX="9" refY="3.5" orient="auto">
      <polygon points="0 0, 10 3.5, 0 7" fill="#ef4444"/>
    </marker>
    <style>
      .heading-lg { fill: #ffffff; font-family: system-ui, sans-serif; font-size: 20px; font-weight: bold; }
      .heading { fill: #ffffff; font-family: system-ui, sans-serif; font-size: 14px; font-weight: bold; }
      .text-md { fill: #cbd5e1; font-family: system-ui, sans-serif; font-size: 12px; }
      .text-sm { fill: #94a3b8; font-family: system-ui, sans-serif; font-size: 10px; }
      .text-muted { fill: #8494a8; font-family: system-ui, sans-serif; font-size: 10px; }
      .annotation { fill: #6d28d9; font-family: monospace; font-size: 10px; }
      .code { fill: #22c55e; font-family: monospace; font-size: 10px; }
      .error-text { fill: #ef4444; font-family: monospace; font-size: 10px; }
    </style>
  </defs>

  <!-- Background -->
  <rect width="1600" height="900" fill="url(#bgGrad)"/>

  <!-- Dot grid pattern -->
  <g opacity="0.05">
    <pattern id="dots" width="30" height="30" patternUnits="userSpaceOnUse">
      <circle cx="15" cy="15" r="1" fill="#fff"/>
    </pattern>
    <rect width="1600" height="900" fill="url(#dots)"/>
  </g>

  <!-- Accent line top -->
  <rect x="0" y="0" width="1600" height="3" fill="url(#accentGrad)"/>

  <!-- Title -->
  <text x="800" y="35" text-anchor="middle" class="heading-lg">ERROR HANDLING ARCHITECTURE</text>
  <text x="800" y="55" text-anchor="middle" class="text-muted">FR-009: Non-blocking sign-in • FR-010: Safe logging • FR-011: Graceful admin key failure</text>

  <!-- FAILURE MODE CATALOG -->
  <g transform="translate(80, 80)">
    <rect x="0" y="0" width="700" height="380" rx="8" fill="#1e293b" stroke="#ef4444" stroke-width="2"/>
    <text x="350" y="30" text-anchor="middle" class="heading">FAILURE MODE CATALOG</text>
    <text x="350" y="50" text-anchor="middle" class="text-muted">Edge cases and graceful degradation paths</text>

    <!-- Failure 1: Missing Admin Key -->
    <g transform="translate(20, 70)">
      <rect x="0" y="0" width="660" height="70" rx="6" fill="#334155"/>
      <rect x="0" y="0" width="5" height="70" rx="2" fill="#ef4444"/>

      <text x="25" y="20" class="error-text">FAILURE 1</text>
      <text x="130" y="20" class="heading">Admin Public Key Missing</text>

      <text x="25" y="40" class="text-sm">Trigger: Admin setup incomplete or key deleted</text>
      <text x="25" y="55" class="text-sm">Recovery: Log error, skip welcome, user sign-in continues normally</text>

      <rect x="500" y="15" width="140" height="40" rx="4" fill="#22c55e" opacity="0.2"/>
      <text x="570" y="40" text-anchor="middle" class="code">FR-011 ✓</text>
    </g>

    <!-- Failure 2: Missing Admin Profile -->
    <g transform="translate(20, 150)">
      <rect x="0" y="0" width="660" height="70" rx="6" fill="#334155"/>
      <rect x="0" y="0" width="5" height="70" rx="2" fill="#ef4444"/>

      <text x="25" y="20" class="error-text">FAILURE 2</text>
      <text x="130" y="20" class="heading">Admin User Profile Missing</text>

      <text x="25" y="40" class="text-sm">Trigger: Admin user not created during system setup</text>
      <text x="25" y="55" class="text-sm">Recovery: Log error, skip welcome, user sign-in continues normally</text>

      <rect x="500" y="15" width="140" height="40" rx="4" fill="#22c55e" opacity="0.2"/>
      <text x="570" y="40" text-anchor="middle" class="code">FR-009 ✓</text>
    </g>

    <!-- Failure 3: Encryption Failure -->
    <g transform="translate(20, 230)">
      <rect x="0" y="0" width="660" height="70" rx="6" fill="#334155"/>
      <rect x="0" y="0" width="5" height="70" rx="2" fill="#eab308"/>

      <text x="25" y="20" class="annotation" fill="#eab308">FAILURE 3</text>
      <text x="130" y="20" class="heading">Encryption Process Failure</text>

      <text x="25" y="40" class="text-sm">Trigger: Crypto API unavailable, key format invalid, ECDH failure</text>
      <text x="25" y="55" class="text-sm">Recovery: Catch error, log warning (no sensitive data), skip welcome</text>

      <rect x="500" y="15" width="140" height="40" rx="4" fill="#22c55e" opacity="0.2"/>
      <text x="570" y="40" text-anchor="middle" class="code">FR-010 ✓</text>
    </g>

    <!-- Failure 4: Message Insert Failure -->
    <g transform="translate(20, 310)">
      <rect x="0" y="0" width="660" height="55" rx="6" fill="#334155"/>
      <rect x="0" y="0" width="5" height="55" rx="2" fill="#eab308"/>

      <text x="25" y="20" class="annotation" fill="#eab308">FAILURE 4</text>
      <text x="130" y="20" class="heading">Conversation Created, Message Insert Failed</text>

      <text x="25" y="40" class="text-sm">Recovery: Orphan conversation harmless, idempotent retry uses existing conversation</text>

      <rect x="500" y="10" width="140" height="35" rx="4" fill="#22c55e" opacity="0.2"/>
      <text x="570" y="32" text-anchor="middle" class="code">Safe ✓</text>
    </g>
  </g>

  <!-- ERROR HANDLING FLOW -->
  <g transform="translate(820, 80)">
    <rect x="0" y="0" width="700" height="380" rx="8" fill="#1e293b" stroke="#475569" stroke-width="1"/>
    <text x="350" y="30" text-anchor="middle" class="heading">ERROR HANDLING FLOW</text>
    <text x="350" y="50" text-anchor="middle" class="text-muted">try/catch wrapper ensures non-blocking behavior</text>

    <!-- Flow diagram -->
    <g transform="translate(40, 70)">
      <!-- User Sign-in -->
      <rect x="0" y="0" width="150" height="50" rx="6" fill="#8b5cf6"/>
      <text x="75" y="30" text-anchor="middle" class="text-md" fill="#fff">User Sign-in</text>

      <line x1="150" y1="25" x2="200" y2="25" stroke="#8b5cf6" stroke-width="2" marker-end="url(#arrowhead)"/>

      <!-- Try block -->
      <rect x="200" y="0" width="200" height="250" rx="6" fill="#334155" stroke="#8b5cf6" stroke-width="1" stroke-dasharray="4,4"/>
      <text x="300" y="20" text-anchor="middle" class="annotation">try {</text>

      <!-- Welcome Process -->
      <rect x="220" y="35" width="160" height="40" rx="4" fill="#1e293b"/>
      <text x="300" y="60" text-anchor="middle" class="text-sm">Welcome Process</text>

      <!-- Decision: Success? -->
      <polygon points="300,100 360,130 300,160 240,130" fill="#1e293b" stroke="#eab308" stroke-width="1"/>
      <text x="300" y="135" text-anchor="middle" class="text-muted">ok?</text>

      <!-- Success path -->
      <line x1="360" y1="130" x2="420" y2="130" stroke="#22c55e" stroke-width="2" marker-end="url(#arrowhead-green)"/>
      <text x="390" y="120" class="text-sm" fill="#22c55e">yes</text>

      <!-- Error path -->
      <line x1="300" y1="160" x2="300" y2="190" stroke="#ef4444" stroke-width="2" marker-end="url(#arrowhead-red)"/>
      <text x="320" y="180" class="text-sm" fill="#ef4444">error</text>

      <!-- Log error -->
      <rect x="230" y="190" width="140" height="35" rx="4" fill="#ef4444" opacity="0.2"/>
      <text x="300" y="212" text-anchor="middle" class="text-sm">Log error (safe)</text>

      <text x="300" y="245" text-anchor="middle" class="annotation">}</text>

      <!-- Continue anyway -->
      <line x1="300" y1="250" x2="300" y2="280" stroke="#22c55e" stroke-width="2" marker-end="url(#arrowhead-green)"/>

      <!-- Success box -->
      <rect x="420" y="100" width="200" height="60" rx="6" fill="#22c55e" opacity="0.3" stroke="#22c55e"/>
      <text x="520" y="125" text-anchor="middle" class="heading" fill="#22c55e">Welcome Sent</text>
      <text x="520" y="145" text-anchor="middle" class="text-sm">Status updated</text>

      <!-- Sign-in continues -->
      <rect x="200" y="280" width="200" height="40" rx="6" fill="#22c55e" opacity="0.3" stroke="#22c55e"/>
      <text x="300" y="305" text-anchor="middle" class="heading" fill="#22c55e">Sign-in Complete</text>

      <!-- Join paths -->
      <line x1="520" y1="160" x2="520" y2="300" stroke="#22c55e" stroke-width="1" stroke-dasharray="4,4"/>
      <line x1="400" y1="300" x2="520" y2="300" stroke="#22c55e" stroke-width="1" stroke-dasharray="4,4"/>
    </g>
  </g>

  <!-- LOGGING POLICY -->
  <g transform="translate(80, 490)">
    <rect x="0" y="0" width="700" height="230" rx="8" fill="#1e293b" stroke="#475569" stroke-width="1"/>
    <text x="350" y="30" text-anchor="middle" class="heading">SAFE LOGGING POLICY</text>
    <text x="350" y="50" text-anchor="middle" class="text-muted">FR-010: Log errors without exposing sensitive information</text>

    <!-- Safe to log -->
    <g transform="translate(20, 70)">
      <rect x="0" y="0" width="320" height="140" rx="6" fill="#22c55e" opacity="0.1" stroke="#22c55e"/>
      <text x="160" y="25" text-anchor="middle" class="heading" fill="#22c55e">SAFE TO LOG ✓</text>

      <text x="20" y="50" class="text-sm">• Error type (e.g., "ADMIN_KEY_MISSING")</text>
      <text x="20" y="70" class="text-sm">• Timestamp</text>
      <text x="20" y="90" class="text-sm">• User ID (UUID only)</text>
      <text x="20" y="110" class="text-sm">• Operation name (e.g., "welcome_message")</text>
      <text x="20" y="130" class="text-sm">• Retry attempt number</text>
    </g>

    <!-- Never log -->
    <g transform="translate(360, 70)">
      <rect x="0" y="0" width="320" height="140" rx="6" fill="#ef4444" opacity="0.1" stroke="#ef4444"/>
      <text x="160" y="25" text-anchor="middle" class="heading" fill="#ef4444">NEVER LOG ✗</text>

      <text x="20" y="50" class="text-sm" fill="#ef4444">• Encryption keys (public or private)</text>
      <text x="20" y="70" class="text-sm" fill="#ef4444">• Message content (even encrypted)</text>
      <text x="20" y="90" class="text-sm" fill="#ef4444">• User email addresses</text>
      <text x="20" y="110" class="text-sm" fill="#ef4444">• Full error stack traces (may leak)</text>
      <text x="20" y="130" class="text-sm" fill="#ef4444">• Database connection strings</text>
    </g>
  </g>

  <!-- NON-BLOCKING GUARANTEE -->
  <g transform="translate(820, 490)">
    <rect x="0" y="0" width="700" height="230" rx="8" fill="#1e293b" stroke="#22c55e" stroke-width="2"/>
    <text x="350" y="30" text-anchor="middle" class="heading">NON-BLOCKING SIGN-IN GUARANTEE</text>
    <text x="350" y="50" text-anchor="middle" class="text-muted">FR-009: Welcome failure NEVER blocks user sign-in</text>

    <!-- Comparison -->
    <g transform="translate(20, 70)">
      <!-- Bad pattern -->
      <rect x="0" y="0" width="320" height="140" rx="6" fill="#ef4444" opacity="0.1" stroke="#ef4444"/>
      <text x="160" y="25" text-anchor="middle" class="error-text">❌ BAD: Blocking Pattern</text>

      <text x="20" y="55" class="code" fill="#ef4444">async signIn() {</text>
      <text x="20" y="72" class="code" fill="#ef4444">  await sendWelcome(); // throws!</text>
      <text x="20" y="89" class="code" fill="#ef4444">  return user; // never reached</text>
      <text x="20" y="106" class="code" fill="#ef4444">}</text>

      <text x="20" y="130" class="text-sm" fill="#ef4444">User cannot sign in if welcome fails</text>
    </g>

    <!-- Good pattern -->
    <g transform="translate(360, 70)">
      <rect x="0" y="0" width="320" height="140" rx="6" fill="#22c55e" opacity="0.1" stroke="#22c55e"/>
      <text x="160" y="25" text-anchor="middle" class="code" fill="#22c55e">✓ GOOD: Fire-and-Forget</text>

      <text x="20" y="55" class="code">async signIn() {</text>
      <text x="20" y="72" class="code">  sendWelcome().catch(log);</text>
      <text x="20" y="89" class="code">  return user; // always reached</text>
      <text x="20" y="106" class="code">}</text>

      <text x="20" y="130" class="text-sm" fill="#22c55e">User signs in regardless of welcome</text>
    </g>
  </g>

  <!-- EDGE CASE MATRIX -->
  <g transform="translate(80, 750)">
    <rect x="0" y="0" width="1440" height="120" rx="8" fill="#1e293b" stroke="#475569" stroke-width="1"/>
    <text x="720" y="25" text-anchor="middle" class="heading">EDGE CASE RESOLUTION MATRIX</text>

    <!-- Headers -->
    <text x="120" y="55" text-anchor="middle" class="annotation">EDGE CASE</text>
    <text x="400" y="55" text-anchor="middle" class="annotation">BEHAVIOR</text>
    <text x="720" y="55" text-anchor="middle" class="annotation">USER IMPACT</text>
    <text x="1050" y="55" text-anchor="middle" class="annotation">REQUIREMENT</text>

    <!-- Row 1 -->
    <text x="120" y="80" text-anchor="middle" class="text-sm">Admin key missing</text>
    <text x="400" y="80" text-anchor="middle" class="text-sm">Log, skip welcome</text>
    <text x="720" y="80" text-anchor="middle" class="text-sm" fill="#22c55e">None - sign-in works</text>
    <text x="1050" y="80" text-anchor="middle" class="code">FR-011 ✓</text>

    <!-- Row 2 -->
    <text x="120" y="100" text-anchor="middle" class="text-sm">Multi-device key init</text>
    <text x="400" y="100" text-anchor="middle" class="text-sm">Idempotent - one message</text>
    <text x="720" y="100" text-anchor="middle" class="text-sm" fill="#22c55e">None - no duplicates</text>
    <text x="1050" y="100" text-anchor="middle" class="code">SC-005 ✓</text>

    <!-- Vertical dividers -->
    <line x1="250" y1="45" x2="250" y2="110" stroke="#475569" stroke-dasharray="2,2"/>
    <line x1="550" y1="45" x2="550" y2="110" stroke="#475569" stroke-dasharray="2,2"/>
    <line x1="900" y1="45" x2="900" y2="110" stroke="#475569" stroke-dasharray="2,2"/>
    <line x1="1200" y1="45" x2="1200" y2="110" stroke="#475569" stroke-dasharray="2,2"/>

    <!-- Success badge -->
    <rect x="1260" y="60" width="160" height="45" rx="6" fill="#22c55e" opacity="0.2"/>
    <text x="1340" y="82" text-anchor="middle" class="heading" fill="#22c55e">SC-006 ✓</text>
    <text x="1340" y="98" text-anchor="middle" class="text-muted">No visible errors</text>
  </g>
</svg>
