<svg xmlns="http://www.w3.org/2000/svg" viewBox="0 0 1400 800" width="1400" height="800">
  <!-- ============================================================
       GENERATED BY: /wireframe skill
       SOURCE: features/auth-oauth/015-oauth-display-name/spec.md
       DATE: 2026-01-01
       THEME: Light (UX/Frontend) - v3 True Parchment
       DO NOT MANUALLY EDIT - Regenerate with /wireframe command
       ============================================================ -->
  <defs>
    <linearGradient id="bgGrad" x1="0%" y1="0%" x2="100%" y2="100%">
      <stop offset="0%" style="stop-color:#c7ddf5"/>
      <stop offset="100%" style="stop-color:#b8d4f0"/>
    </linearGradient>
    <linearGradient id="accentGrad" x1="0%" y1="0%" x2="100%" y2="0%">
      <stop offset="0%" style="stop-color:#8b5cf6"/>
      <stop offset="100%" style="stop-color:#d946ef"/>
    </linearGradient>
    <style>
      .heading-lg { fill: #1a1a2e; font-family: system-ui, sans-serif; font-size: 24px; font-weight: 800; }
      .heading { fill: #1a1a2e; font-family: system-ui, sans-serif; font-size: 16px; font-weight: 700; }
      .text-md { fill: #2d3748; font-family: system-ui, sans-serif; font-size: 14px; font-weight: 500; }
      .text-sm { fill: #374151; font-family: system-ui, sans-serif; font-size: 12px; font-weight: 500; }
      .text-muted { fill: #4b5563; font-family: system-ui, sans-serif; font-size: 11px; font-weight: 500; }
      .annotation { fill: #6d28d9; font-family: monospace; font-size: 12px; font-weight: 600; }
      .label-desktop { fill: #8b5cf6; font-family: monospace; font-size: 13px; font-weight: bold; }
      .label-mobile { fill: #d946ef; font-family: monospace; font-size: 13px; font-weight: bold; }
      .code { fill: #2d3748; font-family: 'Fira Code', monospace; font-size: 10px; }
    </style>
  </defs>

  <!-- Background -->
  <rect width="1400" height="800" fill="url(#bgGrad)"/>

  <!-- Dot grid pattern -->
  <g opacity="0.35">
    <pattern id="dots" width="30" height="30" patternUnits="userSpaceOnUse">
      <circle cx="15" cy="15" r="1" fill="#6b8cba"/>
    </pattern>
    <rect width="1400" height="800" fill="url(#dots)"/>
  </g>

  <!-- Accent line top -->
  <rect x="0" y="0" width="1400" height="3" fill="url(#accentGrad)"/>

  <!-- Title -->
  <text x="700" y="28" text-anchor="middle" font-family="system-ui, sans-serif" font-size="14" font-weight="600" fill="#4b5563" letter-spacing="1">OAUTH PROFILE POPULATION - FIRST SIGN-IN FLOW</text>

  <!-- DESKTOP SECTION -->
  <text x="40" y="52" class="label-desktop">DESKTOP - OAUTH CALLBACK RESULT</text>
  <g id="desktop-view">
    <!-- Main container -->
    <rect x="40" y="60" width="900" height="700" rx="8" fill="#e8d4b8" stroke="#b8a080" stroke-width="1"/>

    <!-- Header -->
    <rect x="40" y="60" width="900" height="50" rx="8" fill="#dcc8a8"/>
    <text x="60" y="92" class="heading">Welcome to ScriptHammer</text>
    <text x="880" y="92" text-anchor="end" class="text-muted">First Sign-In</text>

    <!-- Success message -->
    <g transform="translate(200, 130)">
      <rect x="0" y="0" width="540" height="100" rx="12" fill="#22c55e" opacity="0.1" stroke="#22c55e" stroke-width="2"/>
      <circle cx="50" cy="50" r="30" fill="#22c55e" opacity="0.2"/>
      <text x="50" y="58" text-anchor="middle" font-size="28">✓</text>
      <text x="100" y="42" class="heading-lg" fill="#166534">Sign-in Successful!</text>
      <text x="100" y="70" class="text-md" fill="#166534">Your profile has been set up automatically.</text>
    </g>

    <!-- Profile card showing populated data -->
    <g transform="translate(200, 260)">
      <rect x="0" y="0" width="540" height="200" rx="8" fill="#f5f0e6" stroke="#b8a080"/>
      <text x="20" y="30" class="heading">Your Profile</text>

      <!-- Avatar -->
      <circle cx="70" cy="100" r="45" fill="#8b5cf6" opacity="0.2" stroke="#8b5cf6" stroke-width="2"/>
      <circle cx="70" cy="100" r="40" fill="#dcc8a8"/>
      <text x="70" y="95" text-anchor="middle" font-size="28" fill="#374151">👤</text>
      <text x="70" y="160" text-anchor="middle" class="text-muted">Avatar from Google</text>

      <!-- Profile info -->
      <g transform="translate(140, 55)">
        <text x="0" y="0" class="text-sm" fill="#4b5563">Display Name</text>
        <rect x="0" y="8" width="360" height="36" rx="6" fill="#e8d4b8" stroke="#22c55e" stroke-width="2"/>
        <text x="15" y="32" class="text-md">Jon Pohlner</text>
        <text x="340" y="32" text-anchor="end" class="text-muted" fill="#22c55e">✓ Auto</text>

        <text x="0" y="65" class="text-sm" fill="#4b5563">Email</text>
        <rect x="0" y="73" width="360" height="36" rx="6" fill="#e8d4b8" stroke="#b8a080"/>
        <text x="15" y="97" class="text-md">jon@gmail.com</text>

        <text x="0" y="125" class="text-sm" fill="#4b5563">Signed in with</text>
        <rect x="0" y="133" width="120" height="28" rx="14" fill="#f5f0e6" stroke="#b8a080"/>
        <circle cx="18" cy="147" r="10" fill="#4285f4"/>
        <text x="28" y="145" font-size="7" fill="#fff">G</text>
        <text x="75" y="152" text-anchor="middle" class="text-sm">Google</text>
      </g>
    </g>

    <!-- Fallback cascade explanation -->
    <g transform="translate(200, 485)">
      <rect x="0" y="0" width="540" height="130" rx="8" fill="#8b5cf6" opacity="0.08" stroke="#8b5cf6"/>
      <text x="20" y="28" class="heading" fill="#8b5cf6">Display Name Fallback Cascade</text>

      <g transform="translate(20, 50)">
        <!-- Priority 1 -->
        <rect x="0" y="0" width="115" height="55" rx="4" fill="#22c55e" opacity="0.2" stroke="#22c55e"/>
        <text x="58" y="22" text-anchor="middle" class="text-sm" fill="#166534">1. Full Name</text>
        <text x="58" y="42" text-anchor="middle" class="code" fill="#166534">"Jon Pohlner"</text>

        <!-- Arrow -->
        <text x="125" y="32" class="text-md" fill="#4b5563">→</text>

        <!-- Priority 2 -->
        <rect x="140" y="0" width="105" height="55" rx="4" fill="#f5f0e6" stroke="#b8a080"/>
        <text x="193" y="22" text-anchor="middle" class="text-sm">2. Username</text>
        <text x="193" y="42" text-anchor="middle" class="code">"johndoe"</text>

        <!-- Arrow -->
        <text x="255" y="32" class="text-md" fill="#4b5563">→</text>

        <!-- Priority 3 -->
        <rect x="270" y="0" width="115" height="55" rx="4" fill="#f5f0e6" stroke="#b8a080"/>
        <text x="328" y="22" text-anchor="middle" class="text-sm">3. Email Prefix</text>
        <text x="328" y="42" text-anchor="middle" class="code">"user"</text>

        <!-- Arrow -->
        <text x="395" y="32" class="text-md" fill="#4b5563">→</text>

        <!-- Priority 4 -->
        <rect x="410" y="0" width="105" height="55" rx="4" fill="#eab308" opacity="0.2" stroke="#eab308"/>
        <text x="463" y="22" text-anchor="middle" class="text-sm" fill="#92400e">4. Default</text>
        <text x="463" y="42" text-anchor="middle" class="code" fill="#92400e">"Anonymous"</text>
      </g>
    </g>

    <!-- Continue button -->
    <g transform="translate(350, 640)">
      <rect x="0" y="0" width="240" height="48" rx="8" fill="#8b5cf6"/>
      <text x="120" y="30" text-anchor="middle" font-size="16" font-weight="600" fill="#fff">Continue to App →</text>
    </g>
  </g>

  <!-- MOBILE SECTION -->
  <text x="980" y="52" class="label-mobile">MOBILE - WELCOME SCREEN</text>
  <g id="mobile-view" transform="translate(980, 60)">
    <!-- Phone frame -->
    <rect x="0" y="0" width="360" height="700" rx="24" fill="#c8b898" stroke="#a08860" stroke-width="2"/>
    <rect x="10" y="10" width="340" height="680" rx="16" fill="#e8d4b8"/>

    <!-- Status bar -->
    <rect x="10" y="10" width="340" height="28" rx="16" fill="#dcc8a8"/>
    <text x="30" y="28" class="text-sm">9:41</text>
    <text x="320" y="28" text-anchor="end" class="text-sm">📶 🔋</text>

    <!-- Success banner -->
    <g transform="translate(20, 50)">
      <rect x="0" y="0" width="320" height="70" rx="8" fill="#22c55e" opacity="0.1" stroke="#22c55e"/>
      <circle cx="35" cy="35" r="22" fill="#22c55e" opacity="0.2"/>
      <text x="35" y="42" text-anchor="middle" font-size="20">✓</text>
      <text x="70" y="30" class="heading" fill="#166534">Welcome!</text>
      <text x="70" y="52" class="text-sm" fill="#166534">Profile set up automatically</text>
    </g>

    <!-- Profile card -->
    <g transform="translate(20, 140)">
      <rect x="0" y="0" width="320" height="200" rx="8" fill="#f5f0e6" stroke="#b8a080"/>

      <!-- Avatar -->
      <circle cx="160" cy="50" r="35" fill="#8b5cf6" opacity="0.2" stroke="#8b5cf6" stroke-width="2"/>
      <circle cx="160" cy="50" r="30" fill="#dcc8a8"/>
      <text x="160" y="45" text-anchor="middle" font-size="22" fill="#374151">👤</text>
      <text x="160" y="75" text-anchor="middle" class="text-muted" fill="#22c55e">✓ From Google</text>

      <!-- Name -->
      <text x="160" y="110" text-anchor="middle" class="heading-lg">Jon Pohlner</text>

      <!-- Email -->
      <text x="160" y="135" text-anchor="middle" class="text-sm" fill="#4b5563">jon@gmail.com</text>

      <!-- Provider badge -->
      <g transform="translate(100, 155)">
        <rect x="0" y="0" width="120" height="28" rx="14" fill="#f5f0e6" stroke="#b8a080"/>
        <circle cx="18" cy="14" r="9" fill="#4285f4"/>
        <text x="28" y="12" font-size="6" fill="#fff">G</text>
        <text x="70" y="18" text-anchor="middle" class="text-sm">Google</text>
      </g>
    </g>

    <!-- Edit hint -->
    <g transform="translate(20, 360)">
      <rect x="0" y="0" width="320" height="50" rx="6" fill="#8b5cf6" opacity="0.08"/>
      <text x="160" y="22" text-anchor="middle" class="text-sm" fill="#8b5cf6">ℹ️ You can edit your profile anytime</text>
      <text x="160" y="40" text-anchor="middle" class="text-muted" fill="#8b5cf6">in Settings → Profile</text>
    </g>

    <!-- Fallback info (collapsed) -->
    <g transform="translate(20, 425)">
      <rect x="0" y="0" width="320" height="40" rx="6" fill="#f5f0e6" stroke="#b8a080"/>
      <text x="15" y="25" class="text-sm">How was my name set?</text>
      <text x="305" y="25" text-anchor="end" class="text-sm" fill="#8b5cf6">▼</text>
    </g>

    <!-- Continue button -->
    <g transform="translate(20, 490)">
      <rect x="0" y="0" width="320" height="48" rx="8" fill="#8b5cf6"/>
      <text x="160" y="30" text-anchor="middle" font-size="15" font-weight="600" fill="#fff">Continue to App →</text>
    </g>

    <!-- Skip editing option -->
    <text x="180" y="565" text-anchor="middle" class="text-sm" fill="#8b5cf6">Edit Profile First</text>
  </g>

  <!-- Annotations -->
  <g id="annotations">
    <rect x="5" y="270" width="30" height="45" rx="4" fill="#e8d4b8" stroke="#8b5cf6" stroke-width="1"/>
    <text x="20" y="288" text-anchor="middle" class="annotation">FR</text>
    <text x="20" y="303" text-anchor="middle" class="annotation">001</text>

    <rect x="5" y="330" width="30" height="45" rx="4" fill="#e8d4b8" stroke="#8b5cf6" stroke-width="1"/>
    <text x="20" y="348" text-anchor="middle" class="annotation">FR</text>
    <text x="20" y="363" text-anchor="middle" class="annotation">005</text>

    <rect x="5" y="500" width="30" height="45" rx="4" fill="#e8d4b8" stroke="#8b5cf6" stroke-width="1"/>
    <text x="20" y="518" text-anchor="middle" class="annotation">FR</text>
    <text x="20" y="533" text-anchor="middle" class="annotation">002</text>
  </g>
</svg>
