<svg xmlns="http://www.w3.org/2000/svg" viewBox="0 0 1400 800" width="1400" height="800">
  <!-- ============================================================
       GENERATED BY: /wireframe skill
       SOURCE: features/auth-oauth/015-oauth-display-name/spec.md
       DATE: 2025-12-31
       DO NOT MANUALLY EDIT - Regenerate with /wireframe command
       ============================================================ -->
  <defs>
    <linearGradient id="bgGrad" x1="0%" y1="0%" x2="100%" y2="100%">
      <stop offset="0%" style="stop-color:#0f172a"/>
      <stop offset="100%" style="stop-color:#1e293b"/>
    </linearGradient>
    <linearGradient id="accentGrad" x1="0%" y1="0%" x2="100%" y2="0%">
      <stop offset="0%" style="stop-color:#8b5cf6"/>
      <stop offset="100%" style="stop-color:#d946ef"/>
    </linearGradient>
    <linearGradient id="successGrad" x1="0%" y1="0%" x2="100%" y2="0%">
      <stop offset="0%" style="stop-color:#22c55e"/>
      <stop offset="100%" style="stop-color:#10b981"/>
    </linearGradient>
    <marker id="arrowhead" markerWidth="10" markerHeight="7" refX="9" refY="3.5" orient="auto">
      <polygon points="0 0, 10 3.5, 0 7" fill="#8b5cf6"/>
    </marker>
    <marker id="arrowhead-success" markerWidth="10" markerHeight="7" refX="9" refY="3.5" orient="auto">
      <polygon points="0 0, 10 3.5, 0 7" fill="#22c55e"/>
    </marker>
    <style>
      .heading-lg { fill: #ffffff; font-family: system-ui, sans-serif; font-size: 20px; font-weight: bold; }
      .heading { fill: #ffffff; font-family: system-ui, sans-serif; font-size: 14px; font-weight: bold; }
      .text-md { fill: #cbd5e1; font-family: system-ui, sans-serif; font-size: 12px; }
      .text-sm { fill: #94a3b8; font-family: system-ui, sans-serif; font-size: 10px; }
      .text-muted { fill: #64748b; font-family: system-ui, sans-serif; font-size: 10px; }
      .annotation { fill: #8b5cf6; font-family: monospace; font-size: 10px; }
      .code { fill: #22c55e; font-family: monospace; font-size: 9px; }
      .label-flow { fill: #d946ef; font-family: monospace; font-size: 11px; font-weight: bold; }
    </style>
  </defs>

  <!-- Background -->
  <rect width="1400" height="800" fill="url(#bgGrad)"/>

  <!-- Dot grid pattern -->
  <g opacity="0.05">
    <pattern id="dots" width="30" height="30" patternUnits="userSpaceOnUse">
      <circle cx="15" cy="15" r="1" fill="#fff"/>
    </pattern>
    <rect width="1400" height="800" fill="url(#dots)"/>
  </g>

  <!-- Accent line top -->
  <rect x="0" y="0" width="1400" height="3" fill="url(#accentGrad)"/>

  <!-- Title -->
  <text x="700" y="28" text-anchor="middle" font-family="system-ui, sans-serif" font-size="14" font-weight="600" fill="#64748b" letter-spacing="1">015 - OAUTH DISPLAY NAME &amp; AVATAR POPULATION</text>
  <text x="700" y="52" text-anchor="middle" class="heading-lg">OAuth Callback Data Flow</text>

  <!-- LEFT SIDE: OAuth Providers -->
  <g id="oauth-providers" transform="translate(40, 100)">
    <text x="0" y="0" class="label-flow">OAUTH PROVIDERS</text>

    <!-- Google Provider -->
    <rect x="0" y="20" width="180" height="80" rx="8" fill="#1e293b" stroke="#475569" stroke-width="1"/>
    <text x="90" y="48" text-anchor="middle" class="heading">Google OAuth</text>
    <text x="20" y="68" class="text-sm">full_name: "Jon Pohlner"</text>
    <text x="20" y="82" class="text-sm">avatar_url: "..."</text>

    <!-- GitHub Provider -->
    <rect x="0" y="120" width="180" height="80" rx="8" fill="#1e293b" stroke="#475569" stroke-width="1"/>
    <text x="90" y="148" text-anchor="middle" class="heading">GitHub OAuth</text>
    <text x="20" y="168" class="text-sm">username: "johndoe"</text>
    <text x="20" y="182" class="text-sm">avatar_url: "..."</text>

    <!-- Generic Provider -->
    <rect x="0" y="220" width="180" height="80" rx="8" fill="#1e293b" stroke="#475569" stroke-width="1"/>
    <text x="90" y="248" text-anchor="middle" class="heading">Other Provider</text>
    <text x="20" y="268" class="text-sm">email: "user@example.com"</text>
    <text x="20" y="282" class="text-sm">(no name/avatar)</text>
  </g>

  <!-- CENTER: Edge Function Processing -->
  <g id="edge-function" transform="translate(320, 100)">
    <text x="230" y="0" text-anchor="middle" class="label-flow">SUPABASE EDGE FUNCTION</text>

    <!-- Main processing box -->
    <rect x="0" y="20" width="460" height="360" rx="12" fill="#1e293b" stroke="#8b5cf6" stroke-width="2"/>

    <!-- Step 1: Receive Callback -->
    <rect x="20" y="40" width="420" height="50" rx="6" fill="#334155"/>
    <text x="40" y="62" class="heading">1. OAuth Callback Received</text>
    <text x="40" y="78" class="code">auth.onAuthStateChange('SIGNED_IN')</text>

    <!-- Step 2: Check Profile -->
    <rect x="20" y="100" width="420" height="50" rx="6" fill="#334155"/>
    <text x="40" y="122" class="heading">2. Check Existing Profile</text>
    <text x="40" y="138" class="code">if (profile.display_name === null || profile.display_name === '')</text>

    <!-- Step 3: Extract Metadata -->
    <rect x="20" y="160" width="420" height="70" rx="6" fill="#334155"/>
    <text x="40" y="182" class="heading">3. Extract Provider Metadata</text>
    <text x="40" y="198" class="code">const metadata = user.user_metadata</text>
    <text x="40" y="212" class="code">const { full_name, name, user_name, email, avatar_url }</text>

    <!-- Step 4: Fallback Cascade -->
    <rect x="20" y="240" width="420" height="80" rx="6" fill="#0f172a" stroke="#d946ef" stroke-width="1"/>
    <text x="40" y="262" class="heading" fill="#d946ef">4. Fallback Cascade (FR-002)</text>
    <text x="40" y="280" class="text-md">full_name → username → email prefix → "Anonymous User"</text>
    <text x="40" y="296" class="code">displayName = full_name || name || user_name || email.split('@')[0] || 'Anonymous User'</text>

    <!-- Step 5: Update Profile -->
    <rect x="20" y="330" width="420" height="40" rx="6" fill="#334155"/>
    <text x="40" y="355" class="heading">5. Update Profile (only if empty)</text>
  </g>

  <!-- RIGHT SIDE: Database -->
  <g id="database" transform="translate(880, 100)">
    <text x="230" y="0" text-anchor="middle" class="label-flow">SUPABASE DATABASE</text>

    <!-- Profiles Table -->
    <rect x="100" y="20" width="260" height="200" rx="8" fill="#1e293b" stroke="#22c55e" stroke-width="2"/>
    <text x="230" y="48" text-anchor="middle" class="heading">profiles table</text>

    <!-- Table columns -->
    <rect x="120" y="60" width="220" height="24" rx="4" fill="#334155"/>
    <text x="130" y="77" class="code">id: uuid (PK, FK auth.users)</text>

    <rect x="120" y="90" width="220" height="24" rx="4" fill="#0f172a" stroke="#8b5cf6" stroke-width="1"/>
    <text x="130" y="107" class="code">display_name: text</text>

    <rect x="120" y="120" width="220" height="24" rx="4" fill="#0f172a" stroke="#8b5cf6" stroke-width="1"/>
    <text x="130" y="137" class="code">avatar: text</text>

    <rect x="120" y="150" width="220" height="24" rx="4" fill="#334155"/>
    <text x="130" y="167" class="code">created_at: timestamptz</text>

    <rect x="120" y="180" width="220" height="24" rx="4" fill="#334155"/>
    <text x="130" y="197" class="code">updated_at: timestamptz</text>
  </g>

  <!-- Flow Arrows -->
  <g id="flow-arrows">
    <!-- Provider to Edge Function -->
    <line x1="220" y1="180" x2="320" y2="220" stroke="#8b5cf6" stroke-width="2" marker-end="url(#arrowhead)"/>
    <text x="245" y="190" class="annotation">metadata</text>

    <!-- Edge Function to Database -->
    <line x1="780" y1="310" x2="980" y2="240" stroke="#22c55e" stroke-width="2" marker-end="url(#arrowhead-success)"/>
    <text x="850" y="260" class="code">UPDATE profiles</text>
  </g>

  <!-- BOTTOM: Success Criteria -->
  <g id="success-criteria" transform="translate(40, 520)">
    <text x="0" y="0" class="label-flow">SUCCESS CRITERIA</text>

    <rect x="0" y="15" width="420" height="130" rx="8" fill="#1e293b" stroke="#475569" stroke-width="1"/>

    <g transform="translate(20, 35)">
      <circle cx="8" cy="4" r="6" fill="#22c55e"/>
      <text x="24" y="8" class="text-md">SC-001: 100% new OAuth users have display_name</text>
    </g>
    <g transform="translate(20, 60)">
      <circle cx="8" cy="4" r="6" fill="#22c55e"/>
      <text x="24" y="8" class="text-md">SC-002: 100% existing users populated after migration</text>
    </g>
    <g transform="translate(20, 85)">
      <circle cx="8" cy="4" r="6" fill="#22c55e"/>
      <text x="24" y="8" class="text-md">SC-003: Zero "null" text in UI participant lists</text>
    </g>
    <g transform="translate(20, 110)">
      <circle cx="8" cy="4" r="6" fill="#22c55e"/>
      <text x="24" y="8" class="text-md">SC-005: Profile population &lt;500ms for 95% of sign-ins</text>
    </g>
  </g>

  <!-- BOTTOM CENTER: Key Requirements -->
  <g id="requirements" transform="translate(490, 520)">
    <text x="0" y="0" class="label-flow">KEY REQUIREMENTS</text>

    <rect x="0" y="15" width="420" height="130" rx="8" fill="#1e293b" stroke="#d946ef" stroke-width="1"/>

    <g transform="translate(20, 35)">
      <text x="0" y="8" class="annotation">FR-003</text>
      <text x="50" y="8" class="text-md">Execute BEFORE redirecting to app</text>
    </g>
    <g transform="translate(20, 60)">
      <text x="0" y="8" class="annotation">FR-004</text>
      <text x="50" y="8" class="text-md">Never overwrite existing display_name</text>
    </g>
    <g transform="translate(20, 85)">
      <text x="0" y="8" class="annotation">NFR-001</text>
      <text x="50" y="8" class="text-md">Errors must NOT block OAuth redirect</text>
    </g>
    <g transform="translate(20, 110)">
      <text x="0" y="8" class="annotation">NFR-002</text>
      <text x="50" y="8" class="text-md">All population events logged for debug</text>
    </g>
  </g>

  <!-- BOTTOM RIGHT: Edge Cases -->
  <g id="edge-cases" transform="translate(940, 520)">
    <text x="0" y="0" class="label-flow">EDGE CASES</text>

    <rect x="0" y="15" width="420" height="130" rx="8" fill="#1e293b" stroke="#eab308" stroke-width="1"/>

    <g transform="translate(20, 35)">
      <text x="0" y="8" class="text-sm" fill="#eab308">No name AND no email?</text>
      <text x="160" y="8" class="text-sm">→ "Anonymous User"</text>
    </g>
    <g transform="translate(20, 55)">
      <text x="0" y="8" class="text-sm" fill="#eab308">User manually sets name?</text>
      <text x="160" y="8" class="text-sm">→ Never overwritten</text>
    </g>
    <g transform="translate(20, 75)">
      <text x="0" y="8" class="text-sm" fill="#eab308">Avatar URL expires?</text>
      <text x="160" y="8" class="text-sm">→ Handle at display time</text>
    </g>
    <g transform="translate(20, 95)">
      <text x="0" y="8" class="text-sm" fill="#eab308">Multiple providers?</text>
      <text x="160" y="8" class="text-sm">→ First provider wins</text>
    </g>
    <g transform="translate(20, 115)">
      <text x="0" y="8" class="text-sm" fill="#eab308">Special chars/emoji?</text>
      <text x="160" y="8" class="text-sm">→ Preserved as-is</text>
    </g>
  </g>

  <!-- Version badge -->
  <rect x="1280" y="770" width="110" height="22" rx="11" fill="#334155"/>
  <text x="1335" y="785" text-anchor="middle" class="text-muted">v1.0 · 2025-12-31</text>
</svg>