<svg xmlns="http://www.w3.org/2000/svg" viewBox="0 0 1400 800" width="1400" height="800">
  <!-- ============================================================
       GENERATED BY: /wireframe skill
       SOURCE: features/auth-oauth/015-oauth-display-name/spec.md
       DATE: 2025-12-31
       DO NOT MANUALLY EDIT - Regenerate with /wireframe command
       ============================================================ -->
  <defs>
    <linearGradient id="bgGrad" x1="0%" y1="0%" x2="100%" y2="100%">
      <stop offset="0%" style="stop-color:#0f172a"/>
      <stop offset="100%" style="stop-color:#1e293b"/>
    </linearGradient>
    <linearGradient id="accentGrad" x1="0%" y1="0%" x2="100%" y2="0%">
      <stop offset="0%" style="stop-color:#8b5cf6"/>
      <stop offset="100%" style="stop-color:#d946ef"/>
    </linearGradient>
    <linearGradient id="successGrad" x1="0%" y1="0%" x2="100%" y2="0%">
      <stop offset="0%" style="stop-color:#22c55e"/>
      <stop offset="100%" style="stop-color:#10b981"/>
    </linearGradient>
    <marker id="arrowhead" markerWidth="10" markerHeight="7" refX="9" refY="3.5" orient="auto">
      <polygon points="0 0, 10 3.5, 0 7" fill="#8b5cf6"/>
    </marker>
    <marker id="arrowhead-yes" markerWidth="10" markerHeight="7" refX="9" refY="3.5" orient="auto">
      <polygon points="0 0, 10 3.5, 0 7" fill="#22c55e"/>
    </marker>
    <marker id="arrowhead-no" markerWidth="10" markerHeight="7" refX="9" refY="3.5" orient="auto">
      <polygon points="0 0, 10 3.5, 0 7" fill="#ef4444"/>
    </marker>
    <style>
      .heading-lg { fill: #ffffff; font-family: system-ui, sans-serif; font-size: 20px; font-weight: bold; }
      .heading { fill: #ffffff; font-family: system-ui, sans-serif; font-size: 14px; font-weight: bold; }
      .text-md { fill: #cbd5e1; font-family: system-ui, sans-serif; font-size: 12px; }
      .text-sm { fill: #94a3b8; font-family: system-ui, sans-serif; font-size: 10px; }
      .text-muted { fill: #64748b; font-family: system-ui, sans-serif; font-size: 10px; }
      .annotation { fill: #8b5cf6; font-family: monospace; font-size: 10px; }
      .code { fill: #22c55e; font-family: monospace; font-size: 9px; }
      .label-flow { fill: #d946ef; font-family: monospace; font-size: 11px; font-weight: bold; }
      .yes-label { fill: #22c55e; font-family: monospace; font-size: 9px; font-weight: bold; }
      .no-label { fill: #ef4444; font-family: monospace; font-size: 9px; font-weight: bold; }
    </style>
  </defs>

  <!-- Background -->
  <rect width="1400" height="800" fill="url(#bgGrad)"/>

  <!-- Dot grid pattern -->
  <g opacity="0.05">
    <pattern id="dots" width="30" height="30" patternUnits="userSpaceOnUse">
      <circle cx="15" cy="15" r="1" fill="#fff"/>
    </pattern>
    <rect width="1400" height="800" fill="url(#dots)"/>
  </g>

  <!-- Accent line top -->
  <rect x="0" y="0" width="1400" height="3" fill="url(#accentGrad)"/>

  <!-- Title -->
  <text x="700" y="28" text-anchor="middle" font-family="system-ui, sans-serif" font-size="14" font-weight="600" fill="#64748b" letter-spacing="1">015 - OAUTH DISPLAY NAME &amp; AVATAR POPULATION</text>
  <text x="700" y="52" text-anchor="middle" class="heading-lg">Fallback Cascade &amp; Migration Flow</text>

  <!-- LEFT: Fallback Cascade Flowchart -->
  <g id="fallback-cascade" transform="translate(40, 80)">
    <text x="210" y="0" text-anchor="middle" class="label-flow">FALLBACK CASCADE (FR-002)</text>

    <!-- Start -->
    <ellipse cx="210" cy="40" rx="60" ry="20" fill="#8b5cf6"/>
    <text x="210" y="45" text-anchor="middle" class="heading">Start</text>

    <!-- Decision 1: full_name? -->
    <polygon points="210,85 290,130 210,175 130,130" fill="#1e293b" stroke="#d946ef" stroke-width="2"/>
    <text x="210" y="127" text-anchor="middle" class="text-md">full_name</text>
    <text x="210" y="142" text-anchor="middle" class="text-md">exists?</text>

    <!-- YES from full_name -->
    <rect x="340" y="110" width="130" height="40" rx="6" fill="#22c55e"/>
    <text x="405" y="135" text-anchor="middle" class="heading">Use full_name</text>

    <!-- NO from full_name -->
    <!-- Decision 2: username? -->
    <polygon points="210,220 290,265 210,310 130,265" fill="#1e293b" stroke="#d946ef" stroke-width="2"/>
    <text x="210" y="262" text-anchor="middle" class="text-md">username</text>
    <text x="210" y="277" text-anchor="middle" class="text-md">exists?</text>

    <!-- YES from username -->
    <rect x="340" y="245" width="130" height="40" rx="6" fill="#22c55e"/>
    <text x="405" y="270" text-anchor="middle" class="heading">Use username</text>

    <!-- NO from username -->
    <!-- Decision 3: email? -->
    <polygon points="210,355 290,400 210,445 130,400" fill="#1e293b" stroke="#d946ef" stroke-width="2"/>
    <text x="210" y="397" text-anchor="middle" class="text-md">email</text>
    <text x="210" y="412" text-anchor="middle" class="text-md">exists?</text>

    <!-- YES from email -->
    <rect x="340" y="380" width="130" height="40" rx="6" fill="#22c55e"/>
    <text x="405" y="400" text-anchor="middle" class="heading">Use email</text>
    <text x="405" y="412" text-anchor="middle" class="text-sm">prefix</text>

    <!-- NO from email - Final fallback -->
    <rect x="140" y="490" width="140" height="40" rx="6" fill="#eab308"/>
    <text x="210" y="515" text-anchor="middle" class="heading">"Anonymous User"</text>

    <!-- Flow arrows for cascade -->
    <!-- Start to full_name -->
    <line x1="210" y1="60" x2="210" y2="85" stroke="#8b5cf6" stroke-width="2" marker-end="url(#arrowhead)"/>

    <!-- full_name YES -->
    <line x1="290" y1="130" x2="340" y2="130" stroke="#22c55e" stroke-width="2" marker-end="url(#arrowhead-yes)"/>
    <text x="310" y="122" class="yes-label">YES</text>

    <!-- full_name NO -->
    <line x1="210" y1="175" x2="210" y2="220" stroke="#ef4444" stroke-width="2" marker-end="url(#arrowhead-no)"/>
    <text x="220" y="200" class="no-label">NO</text>

    <!-- username YES -->
    <line x1="290" y1="265" x2="340" y2="265" stroke="#22c55e" stroke-width="2" marker-end="url(#arrowhead-yes)"/>
    <text x="310" y="257" class="yes-label">YES</text>

    <!-- username NO -->
    <line x1="210" y1="310" x2="210" y2="355" stroke="#ef4444" stroke-width="2" marker-end="url(#arrowhead-no)"/>
    <text x="220" y="335" class="no-label">NO</text>

    <!-- email YES -->
    <line x1="290" y1="400" x2="340" y2="400" stroke="#22c55e" stroke-width="2" marker-end="url(#arrowhead-yes)"/>
    <text x="310" y="392" class="yes-label">YES</text>

    <!-- email NO -->
    <line x1="210" y1="445" x2="210" y2="490" stroke="#ef4444" stroke-width="2" marker-end="url(#arrowhead-no)"/>
    <text x="220" y="470" class="no-label">NO</text>
  </g>

  <!-- Cascade Examples -->
  <g id="examples" transform="translate(40, 630)">
    <text x="0" y="0" class="label-flow">EXAMPLES</text>

    <rect x="0" y="15" width="450" height="120" rx="8" fill="#1e293b" stroke="#475569" stroke-width="1"/>

    <text x="20" y="40" class="text-md" fill="#8b5cf6">Google OAuth:</text>
    <text x="130" y="40" class="code">full_name="Jon Pohlner" → "Jon Pohlner"</text>

    <text x="20" y="62" class="text-md" fill="#8b5cf6">GitHub OAuth:</text>
    <text x="130" y="62" class="code">username="johndoe" → "johndoe"</text>

    <text x="20" y="84" class="text-md" fill="#8b5cf6">Email only:</text>
    <text x="130" y="84" class="code">email="user@example.com" → "user"</text>

    <text x="20" y="106" class="text-md" fill="#8b5cf6">No data:</text>
    <text x="130" y="106" class="code">(empty metadata) → "Anonymous User"</text>
  </g>

  <!-- RIGHT: Migration Process -->
  <g id="migration" transform="translate(540, 80)">
    <text x="400" y="0" text-anchor="middle" class="label-flow">ONE-TIME MIGRATION (FR-007, FR-008, FR-009)</text>

    <!-- Migration Flow -->
    <rect x="200" y="20" width="400" height="510" rx="12" fill="#1e293b" stroke="#8b5cf6" stroke-width="2"/>

    <!-- Step 1 -->
    <rect x="220" y="40" width="360" height="60" rx="6" fill="#334155"/>
    <text x="240" y="62" class="heading">1. Identify Affected Users</text>
    <text x="240" y="80" class="code">SELECT * FROM profiles</text>
    <text x="240" y="92" class="code">WHERE display_name IS NULL OR display_name = ''</text>

    <!-- Step 2 -->
    <rect x="220" y="115" width="360" height="80" rx="6" fill="#334155"/>
    <text x="240" y="137" class="heading">2. Fetch Provider Metadata</text>
    <text x="240" y="155" class="code">SELECT u.raw_user_meta_data</text>
    <text x="240" y="167" class="code">FROM auth.users u</text>
    <text x="240" y="179" class="code">WHERE u.id = profile.id</text>

    <!-- Step 3 -->
    <rect x="220" y="210" width="360" height="60" rx="6" fill="#0f172a" stroke="#d946ef" stroke-width="1"/>
    <text x="240" y="232" class="heading" fill="#d946ef">3. Apply Fallback Cascade</text>
    <text x="240" y="250" class="text-md">Same logic as new sign-in flow</text>
    <text x="240" y="262" class="text-muted">(full_name → username → email → "Anonymous User")</text>

    <!-- Step 4 -->
    <rect x="220" y="285" width="360" height="60" rx="6" fill="#334155"/>
    <text x="240" y="307" class="heading">4. Update Profiles</text>
    <text x="240" y="325" class="code">UPDATE profiles SET display_name = :computed</text>
    <text x="240" y="337" class="code">WHERE id = :user_id AND display_name IS NULL</text>

    <!-- Step 5 -->
    <rect x="220" y="360" width="360" height="50" rx="6" fill="#334155"/>
    <text x="240" y="382" class="heading">5. Log Results</text>
    <text x="240" y="400" class="code">INSERT INTO migration_log (user_id, old, new, ts)</text>

    <!-- Idempotent badge -->
    <rect x="220" y="425" width="170" height="30" rx="6" fill="#22c55e" fill-opacity="0.2" stroke="#22c55e" stroke-width="1"/>
    <text x="240" y="445" class="text-md" fill="#22c55e">IDEMPOTENT (FR-008)</text>

    <!-- Reversible badge -->
    <rect x="410" y="425" width="170" height="30" rx="6" fill="#eab308" fill-opacity="0.2" stroke="#eab308" stroke-width="1"/>
    <text x="430" y="445" class="text-md" fill="#eab308">REVERSIBLE (FR-009)</text>

    <!-- Rollback note -->
    <rect x="220" y="470" width="360" height="45" rx="6" fill="#1e293b" stroke="#ef4444" stroke-width="1"/>
    <text x="240" y="492" class="text-sm" fill="#ef4444">Rollback: Clear display_name for users in migration_log</text>
    <text x="240" y="506" class="code">UPDATE profiles SET display_name = NULL WHERE id IN (SELECT ...)</text>
  </g>

  <!-- Requirements Legend -->
  <g id="requirements-legend" transform="translate(540, 610)">
    <text x="0" y="0" class="label-flow">REQUIREMENTS MAPPING</text>

    <rect x="0" y="15" width="400" height="135" rx="8" fill="#1e293b" stroke="#475569" stroke-width="1"/>

    <g transform="translate(20, 35)">
      <rect x="0" y="0" width="60" height="18" rx="4" fill="#8b5cf6" fill-opacity="0.3"/>
      <text x="30" y="13" text-anchor="middle" class="annotation">FR-002</text>
      <text x="75" y="13" class="text-md">Fallback cascade order</text>
    </g>
    <g transform="translate(20, 60)">
      <rect x="0" y="0" width="60" height="18" rx="4" fill="#8b5cf6" fill-opacity="0.3"/>
      <text x="30" y="13" text-anchor="middle" class="annotation">FR-004</text>
      <text x="75" y="13" class="text-md">Never overwrite existing values</text>
    </g>
    <g transform="translate(20, 85)">
      <rect x="0" y="0" width="60" height="18" rx="4" fill="#8b5cf6" fill-opacity="0.3"/>
      <text x="30" y="13" text-anchor="middle" class="annotation">FR-007</text>
      <text x="75" y="13" class="text-md">One-time migration for existing users</text>
    </g>
    <g transform="translate(20, 110)">
      <rect x="0" y="0" width="60" height="18" rx="4" fill="#8b5cf6" fill-opacity="0.3"/>
      <text x="30" y="13" text-anchor="middle" class="annotation">FR-008</text>
      <text x="75" y="13" class="text-md">Migration must be idempotent</text>
    </g>

    <g transform="translate(220, 35)">
      <rect x="0" y="0" width="60" height="18" rx="4" fill="#8b5cf6" fill-opacity="0.3"/>
      <text x="30" y="13" text-anchor="middle" class="annotation">FR-009</text>
      <text x="75" y="13" class="text-md">Migration reversible</text>
    </g>
    <g transform="translate(220, 60)">
      <rect x="0" y="0" width="60" height="18" rx="4" fill="#22c55e" fill-opacity="0.3"/>
      <text x="30" y="13" text-anchor="middle" class="code">SC-002</text>
      <text x="75" y="13" class="text-md">100% populated after</text>
    </g>
  </g>

  <!-- Non-Functional Requirements -->
  <g id="nfr" transform="translate(960, 610)">
    <text x="0" y="0" class="label-flow">NON-FUNCTIONAL</text>

    <rect x="0" y="15" width="400" height="135" rx="8" fill="#1e293b" stroke="#475569" stroke-width="1"/>

    <g transform="translate(20, 40)">
      <circle cx="8" cy="4" r="6" fill="#22c55e"/>
      <text x="24" y="8" class="text-md">No table locks during migration</text>
    </g>
    <g transform="translate(20, 65)">
      <circle cx="8" cy="4" r="6" fill="#22c55e"/>
      <text x="24" y="8" class="text-md">Batch processing (100 users/batch)</text>
    </g>
    <g transform="translate(20, 90)">
      <circle cx="8" cy="4" r="6" fill="#22c55e"/>
      <text x="24" y="8" class="text-md">Complete migration log for audit</text>
    </g>
    <g transform="translate(20, 115)">
      <circle cx="8" cy="4" r="6" fill="#22c55e"/>
      <text x="24" y="8" class="text-md">Progress reporting during execution</text>
    </g>
  </g>

  <!-- Version badge -->
  <rect x="1280" y="770" width="110" height="22" rx="11" fill="#334155"/>
  <text x="1335" y="785" text-anchor="middle" class="text-muted">v1.0 · 2025-12-31</text>
</svg>