<svg xmlns="http://www.w3.org/2000/svg" viewBox="0 0 1400 800" width="1400" height="800">
  <!-- ============================================================
       GENERATED BY: /wireframe skill
       SOURCE: features/auth-oauth/015-oauth-display-name/spec.md
       DATE: 2026-01-01
       THEME: Dark (Backend/Architecture)
       DO NOT MANUALLY EDIT - Regenerate with /wireframe command
       ============================================================ -->
  <defs>
    <linearGradient id="bgGrad" x1="0%" y1="0%" x2="100%" y2="100%">
      <stop offset="0%" style="stop-color:#0f172a"/>
      <stop offset="100%" style="stop-color:#1e293b"/>
    </linearGradient>
    <linearGradient id="accentGrad" x1="0%" y1="0%" x2="100%" y2="0%">
      <stop offset="0%" style="stop-color:#8b5cf6"/>
      <stop offset="100%" style="stop-color:#d946ef"/>
    </linearGradient>
    <linearGradient id="successGrad" x1="0%" y1="0%" x2="100%" y2="0%">
      <stop offset="0%" style="stop-color:#22c55e"/>
      <stop offset="100%" style="stop-color:#16a34a"/>
    </linearGradient>
    <style>
      .heading-lg { fill: #ffffff; font-family: system-ui, sans-serif; font-size: 20px; font-weight: bold; }
      .heading { fill: #ffffff; font-family: system-ui, sans-serif; font-size: 14px; font-weight: bold; }
      .text-md { fill: #cbd5e1; font-family: system-ui, sans-serif; font-size: 12px; }
      .text-sm { fill: #94a3b8; font-family: system-ui, sans-serif; font-size: 10px; }
      .text-muted { fill: #8494a8; font-family: system-ui, sans-serif; font-size: 10px; }
      .annotation { fill: #6d28d9; font-family: monospace; font-size: 10px; }
      .code { fill: #22c55e; font-family: 'Fira Code', monospace; font-size: 10px; }
    </style>
  </defs>

  <!-- Background -->
  <rect width="1400" height="800" fill="url(#bgGrad)"/>

  <!-- Dot grid pattern -->
  <g opacity="0.05">
    <pattern id="dots" width="30" height="30" patternUnits="userSpaceOnUse">
      <circle cx="15" cy="15" r="1" fill="#fff"/>
    </pattern>
    <rect width="1400" height="800" fill="url(#dots)"/>
  </g>

  <!-- Accent line top -->
  <rect x="0" y="0" width="1400" height="3" fill="url(#accentGrad)"/>

  <!-- Title -->
  <text x="700" y="28" text-anchor="middle" font-family="system-ui, sans-serif" font-size="14" font-weight="600" fill="#8494a8" letter-spacing="1">OAUTH DISPLAY NAME MIGRATION - ADMIN DASHBOARD</text>

  <!-- Header stats -->
  <g transform="translate(40, 50)">
    <rect x="0" y="0" width="240" height="80" rx="8" fill="#1e293b" stroke="#475569"/>
    <text x="20" y="28" class="text-muted">Total OAuth Users</text>
    <text x="20" y="58" class="heading-lg">1,247</text>
    <text x="200" y="58" class="text-sm" fill="#8b5cf6">👥</text>

    <rect x="260" y="0" width="240" height="80" rx="8" fill="#1e293b" stroke="#475569"/>
    <text x="280" y="28" class="text-muted">Empty Display Names</text>
    <text x="280" y="58" class="heading-lg" fill="#eab308">342</text>
    <text x="460" y="58" class="text-sm" fill="#eab308">⚠️</text>

    <rect x="520" y="0" width="240" height="80" rx="8" fill="#1e293b" stroke="#475569"/>
    <text x="540" y="28" class="text-muted">Already Populated</text>
    <text x="540" y="58" class="heading-lg" fill="#22c55e">905</text>
    <text x="720" y="58" class="text-sm" fill="#22c55e">✓</text>

    <rect x="780" y="0" width="240" height="80" rx="8" fill="#1e293b" stroke="#475569"/>
    <text x="800" y="28" class="text-muted">Missing Avatars</text>
    <text x="800" y="58" class="heading-lg" fill="#d946ef">156</text>
    <text x="980" y="58" class="text-sm" fill="#d946ef">📷</text>

    <!-- Run Migration button -->
    <rect x="1040" y="0" width="320" height="80" rx="8" fill="#8b5cf6"/>
    <text x="1200" y="38" text-anchor="middle" class="heading-lg">▶ Run Migration</text>
    <text x="1200" y="60" text-anchor="middle" class="text-sm" fill="#e0e7ff">Idempotent • Safe to retry</text>
  </g>

  <!-- Migration flow visualization -->
  <g transform="translate(40, 150)">
    <text x="0" y="0" class="heading-lg">Migration Flow</text>

    <!-- Step 1: Query -->
    <rect x="0" y="25" width="180" height="120" rx="8" fill="#1e293b" stroke="#8b5cf6" stroke-width="2"/>
    <rect x="0" y="25" width="180" height="35" rx="8" fill="#8b5cf6" opacity="0.2"/>
    <text x="90" y="50" text-anchor="middle" class="heading">1. Query Users</text>
    <text x="20" y="80" class="text-sm">SELECT * FROM profiles</text>
    <text x="20" y="98" class="text-sm">WHERE display_name IS NULL</text>
    <text x="20" y="116" class="text-sm">AND auth_provider != 'email'</text>
    <text x="20" y="134" class="text-muted">Found: 342 users</text>

    <!-- Arrow -->
    <text x="195" y="90" fill="#8b5cf6" font-size="20">→</text>

    <!-- Step 2: Fetch Metadata -->
    <rect x="220" y="25" width="180" height="120" rx="8" fill="#1e293b" stroke="#d946ef" stroke-width="2"/>
    <rect x="220" y="25" width="180" height="35" rx="8" fill="#d946ef" opacity="0.2"/>
    <text x="310" y="50" text-anchor="middle" class="heading">2. Fetch Metadata</text>
    <text x="240" y="80" class="text-sm">For each user:</text>
    <text x="240" y="98" class="text-sm">→ Query auth.users</text>
    <text x="240" y="116" class="text-sm">→ Extract raw_user_meta</text>
    <text x="240" y="134" class="text-muted">Batch size: 50</text>

    <!-- Arrow -->
    <text x="415" y="90" fill="#d946ef" font-size="20">→</text>

    <!-- Step 3: Apply Cascade -->
    <rect x="440" y="25" width="200" height="120" rx="8" fill="#1e293b" stroke="#eab308" stroke-width="2"/>
    <rect x="440" y="25" width="200" height="35" rx="8" fill="#eab308" opacity="0.2"/>
    <text x="540" y="50" text-anchor="middle" class="heading">3. Apply Cascade</text>
    <text x="460" y="78" class="text-sm">full_name</text>
    <text x="560" y="78" class="code">→ "Jon Pohlner"</text>
    <text x="460" y="96" class="text-sm">username</text>
    <text x="560" y="96" class="code">→ "johndoe"</text>
    <text x="460" y="114" class="text-sm">email prefix</text>
    <text x="560" y="114" class="code">→ "user"</text>
    <text x="460" y="132" class="text-sm">default</text>
    <text x="560" y="132" class="code">→ "Anonymous"</text>

    <!-- Arrow -->
    <text x="655" y="90" fill="#eab308" font-size="20">→</text>

    <!-- Step 4: Update Profile -->
    <rect x="680" y="25" width="180" height="120" rx="8" fill="#1e293b" stroke="#22c55e" stroke-width="2"/>
    <rect x="680" y="25" width="180" height="35" rx="8" fill="#22c55e" opacity="0.2"/>
    <text x="770" y="50" text-anchor="middle" class="heading">4. Update Profile</text>
    <text x="700" y="80" class="text-sm">UPDATE profiles SET</text>
    <text x="700" y="98" class="text-sm">display_name = $1,</text>
    <text x="700" y="116" class="text-sm">avatar = $2</text>
    <text x="700" y="134" class="text-muted" fill="#22c55e">✓ Only empty fields</text>

    <!-- Arrow -->
    <text x="875" y="90" fill="#22c55e" font-size="20">→</text>

    <!-- Step 5: Log -->
    <rect x="900" y="25" width="160" height="120" rx="8" fill="#1e293b" stroke="#475569"/>
    <rect x="900" y="25" width="160" height="35" rx="8" fill="#475569"/>
    <text x="980" y="50" text-anchor="middle" class="heading">5. Log Results</text>
    <text x="920" y="80" class="text-sm">migration_log:</text>
    <text x="920" y="98" class="code">user_id, old, new</text>
    <text x="920" y="116" class="code">timestamp, source</text>
    <text x="920" y="134" class="text-muted">For rollback</text>
  </g>

  <!-- Users needing migration table -->
  <g transform="translate(40, 310)">
    <rect x="0" y="0" width="700" height="250" rx="8" fill="#1e293b" stroke="#eab308"/>
    <rect x="0" y="0" width="700" height="40" rx="8" fill="#eab308" opacity="0.2"/>
    <text x="20" y="27" class="heading" fill="#eab308">⚠️ Users Needing Migration (342)</text>

    <!-- Table header -->
    <g transform="translate(20, 55)">
      <text x="0" y="0" class="text-muted">USER ID</text>
      <text x="180" y="0" class="text-muted">PROVIDER</text>
      <text x="280" y="0" class="text-muted">CURRENT NAME</text>
      <text x="400" y="0" class="text-muted">WILL BECOME</text>
      <text x="560" y="0" class="text-muted">SOURCE</text>
    </g>

    <!-- Table rows -->
    <g transform="translate(20, 80)">
      <rect x="-10" y="-5" width="680" height="35" rx="4" fill="#334155"/>
      <text x="0" y="18" class="code">a7b2c...f91</text>
      <text x="180" y="18" class="text-md">Google</text>
      <text x="280" y="18" class="text-md" fill="#ef4444">null</text>
      <text x="400" y="18" class="text-md" fill="#22c55e">Jon Pohlner</text>
      <text x="560" y="18" class="text-sm">full_name</text>
    </g>

    <g transform="translate(20, 120)">
      <rect x="-10" y="-5" width="680" height="35" rx="4" fill="#1e293b"/>
      <text x="0" y="18" class="code">c3d4e...a82</text>
      <text x="180" y="18" class="text-md">GitHub</text>
      <text x="280" y="18" class="text-md" fill="#ef4444">null</text>
      <text x="400" y="18" class="text-md" fill="#22c55e">octocat</text>
      <text x="560" y="18" class="text-sm">username</text>
    </g>

    <g transform="translate(20, 160)">
      <rect x="-10" y="-5" width="680" height="35" rx="4" fill="#334155"/>
      <text x="0" y="18" class="code">e5f6g...b73</text>
      <text x="180" y="18" class="text-md">Google</text>
      <text x="280" y="18" class="text-md" fill="#ef4444">""</text>
      <text x="400" y="18" class="text-md" fill="#22c55e">jane</text>
      <text x="560" y="18" class="text-sm">email prefix</text>
    </g>

    <g transform="translate(20, 200)">
      <rect x="-10" y="-5" width="680" height="35" rx="4" fill="#1e293b"/>
      <text x="0" y="18" class="code">g7h8i...c64</text>
      <text x="180" y="18" class="text-md">GitHub</text>
      <text x="280" y="18" class="text-md" fill="#ef4444">null</text>
      <text x="400" y="18" class="text-md" fill="#eab308">Anonymous User</text>
      <text x="560" y="18" class="text-sm">fallback</text>
    </g>
  </g>

  <!-- Migration log / audit trail -->
  <g transform="translate(760, 310)">
    <rect x="0" y="0" width="600" height="250" rx="8" fill="#1e293b" stroke="#475569"/>
    <rect x="0" y="0" width="600" height="40" rx="8" fill="#475569"/>
    <text x="20" y="27" class="heading">📋 Migration Log (Rollback Support)</text>

    <g transform="translate(20, 55)">
      <text x="0" y="0" class="text-muted">TIMESTAMP</text>
      <text x="140" y="0" class="text-muted">USER</text>
      <text x="280" y="0" class="text-muted">FIELD</text>
      <text x="380" y="0" class="text-muted">OLD → NEW</text>
    </g>

    <g transform="translate(20, 80)">
      <text x="0" y="18" class="text-sm">2026-01-01 14:32:01</text>
      <text x="140" y="18" class="code">a7b2c...f91</text>
      <text x="280" y="18" class="text-md">display_name</text>
      <text x="380" y="18" class="text-sm">null → "Jon Pohlner"</text>
    </g>

    <g transform="translate(20, 110)">
      <text x="0" y="18" class="text-sm">2026-01-01 14:32:01</text>
      <text x="140" y="18" class="code">a7b2c...f91</text>
      <text x="280" y="18" class="text-md">avatar</text>
      <text x="380" y="18" class="text-sm">null → "https://..."</text>
    </g>

    <g transform="translate(20, 140)">
      <text x="0" y="18" class="text-sm">2026-01-01 14:32:02</text>
      <text x="140" y="18" class="code">c3d4e...a82</text>
      <text x="280" y="18" class="text-md">display_name</text>
      <text x="380" y="18" class="text-sm">null → "octocat"</text>
    </g>

    <g transform="translate(20, 170)">
      <text x="0" y="18" class="text-sm">2026-01-01 14:32:03</text>
      <text x="140" y="18" class="code">e5f6g...b73</text>
      <text x="280" y="18" class="text-md">display_name</text>
      <text x="380" y="18" class="text-sm">"" → "jane"</text>
    </g>

    <!-- Rollback button -->
    <rect x="420" y="200" width="160" height="36" rx="6" fill="#ef4444" opacity="0.2" stroke="#ef4444"/>
    <text x="500" y="224" text-anchor="middle" class="text-md" fill="#ef4444">↩ Rollback All</text>
  </g>

  <!-- Success criteria -->
  <g transform="translate(40, 580)">
    <rect x="0" y="0" width="660" height="180" rx="8" fill="#1e293b" stroke="#22c55e"/>
    <rect x="0" y="0" width="660" height="40" rx="8" fill="#22c55e" opacity="0.2"/>
    <text x="20" y="27" class="heading" fill="#22c55e">✓ Success Criteria Targets</text>

    <g transform="translate(20, 60)">
      <text x="0" y="0" class="text-md" fill="#22c55e">SC-001:</text>
      <text x="70" y="0" class="text-sm">100% of new OAuth users have non-empty display_name</text>

      <text x="0" y="28" class="text-md" fill="#22c55e">SC-002:</text>
      <text x="70" y="28" class="text-sm">100% of existing OAuth users populated after migration</text>

      <text x="0" y="56" class="text-md" fill="#22c55e">SC-003:</text>
      <text x="70" y="56" class="text-sm">Zero instances of "null" text in UI</text>

      <text x="0" y="84" class="text-md" fill="#22c55e">SC-004:</text>
      <text x="70" y="84" class="text-sm">OAuth avatar populated when provider returns one</text>

      <text x="0" y="112" class="text-md" fill="#22c55e">SC-005:</text>
      <text x="70" y="112" class="text-sm">Profile population completes within 500ms (95th percentile)</text>
    </g>
  </g>

  <!-- Requirements mapping -->
  <g transform="translate(720, 580)">
    <rect x="0" y="0" width="640" height="180" rx="8" fill="#1e293b" stroke="#8b5cf6"/>
    <rect x="0" y="0" width="640" height="40" rx="8" fill="#8b5cf6" opacity="0.2"/>
    <text x="20" y="27" class="heading" fill="#8b5cf6">📋 Functional Requirements Mapped</text>

    <g transform="translate(20, 60)">
      <text x="0" y="0" class="annotation">FR-001</text>
      <text x="70" y="0" class="text-sm">Extract display_name from OAuth metadata</text>

      <text x="0" y="25" class="annotation">FR-002</text>
      <text x="70" y="25" class="text-sm">Fallback cascade: name → username → email → default</text>

      <text x="0" y="50" class="annotation">FR-004</text>
      <text x="70" y="50" class="text-sm">NOT overwrite existing display_name values</text>

      <text x="320" y="0" class="annotation">FR-007</text>
      <text x="390" y="0" class="text-sm">One-time migration for existing users</text>

      <text x="320" y="25" class="annotation">FR-008</text>
      <text x="390" y="25" class="text-sm">Migration MUST be idempotent</text>

      <text x="320" y="50" class="annotation">FR-009</text>
      <text x="390" y="50" class="text-sm">Migration MUST be reversible</text>
    </g>

    <!-- NFR callouts -->
    <g transform="translate(20, 130)">
      <rect x="0" y="0" width="600" height="35" rx="4" fill="#eab308" opacity="0.1" stroke="#eab308"/>
      <text x="15" y="22" class="text-sm" fill="#eab308">⚡ NFR-003: Population completes within 500ms • NFR-001: Errors don't block redirect</text>
    </g>
  </g>
</svg>
