<svg xmlns="http://www.w3.org/2000/svg" viewBox="0 0 1400 800" width="1400" height="800">
  <!-- ============================================================
       GENERATED BY: /wireframe skill
       SOURCE: features/polish/030-calendar-integration/spec.md
       DATE: 2026-01-01
       THEME: Light (UX/Frontend) - v3 True Parchment
       DO NOT MANUALLY EDIT - Regenerate with /wireframe command
       ============================================================ -->
  <defs>
    <linearGradient id="bgGrad" x1="0%" y1="0%" x2="100%" y2="100%">
      <stop offset="0%" style="stop-color:#c7ddf5"/>
      <stop offset="100%" style="stop-color:#b8d4f0"/>
    </linearGradient>
    <linearGradient id="accentGrad" x1="0%" y1="0%" x2="100%" y2="0%">
      <stop offset="0%" style="stop-color:#8b5cf6"/>
      <stop offset="100%" style="stop-color:#d946ef"/>
    </linearGradient>
    <style>
      .heading-lg { fill: #1a1a2e; font-family: system-ui, sans-serif; font-size: 24px; font-weight: 800; }
      .heading { fill: #1a1a2e; font-family: system-ui, sans-serif; font-size: 16px; font-weight: 700; }
      .heading-sm { fill: #1a1a2e; font-family: system-ui, sans-serif; font-size: 14px; font-weight: 700; }
      .text-md { fill: #2d3748; font-family: system-ui, sans-serif; font-size: 14px; font-weight: 500; }
      .text-sm { fill: #374151; font-family: system-ui, sans-serif; font-size: 12px; font-weight: 500; }
      .text-muted { fill: #4b5563; font-family: system-ui, sans-serif; font-size: 11px; font-weight: 500; }
      .annotation { fill: #6d28d9; font-family: monospace; font-size: 12px; font-weight: 600; }
      .label-desktop { fill: #8b5cf6; font-family: monospace; font-size: 13px; font-weight: bold; }
      .label-mobile { fill: #d946ef; font-family: monospace; font-size: 13px; font-weight: bold; }
    </style>
  </defs>

  <!-- Background -->
  <rect width="1400" height="800" fill="url(#bgGrad)"/>

  <!-- Dot grid pattern -->
  <g opacity="0.35">
    <pattern id="dots" width="30" height="30" patternUnits="userSpaceOnUse">
      <circle cx="15" cy="15" r="1" fill="#6b8cba"/>
    </pattern>
    <rect width="1400" height="800" fill="url(#dots)"/>
  </g>

  <!-- Accent line top -->
  <rect x="0" y="0" width="1400" height="3" fill="url(#accentGrad)"/>

  <!-- Title -->
  <text x="700" y="28" text-anchor="middle" font-family="system-ui, sans-serif" font-size="14" font-weight="600" fill="#4b5563" letter-spacing="1">CALENDAR INTEGRATION — BOOKING FLOW</text>

  <!-- DESKTOP SECTION -->
  <text x="40" y="52" class="label-desktop">DESKTOP — SCHEDULE PAGE</text>
  <g id="desktop-view">
    <!-- Main container -->
    <rect x="40" y="60" width="900" height="680" rx="8" fill="#e8d4b8" stroke="#b8a080" stroke-width="1"/>

    <!-- Page header -->
    <rect x="40" y="60" width="900" height="60" rx="8" fill="#dcc8a8"/>
    <text x="60" y="97" class="heading-lg">Schedule a Meeting</text>
    <text x="790" y="97" class="text-sm" text-anchor="end">Powered by Cal.com</text>

    <!-- Calendar embed area -->
    <g transform="translate(60, 140)">
      <!-- Month header -->
      <rect x="0" y="0" width="400" height="45" rx="6" fill="#f5f0e6" stroke="#b8a080" stroke-width="1"/>
      <text x="30" y="28" class="text-md">◀</text>
      <text x="200" y="30" text-anchor="middle" class="heading">January 2026</text>
      <text x="370" y="28" class="text-md">▶</text>

      <!-- Day headers -->
      <g transform="translate(0, 55)">
        <text x="28" y="15" text-anchor="middle" class="text-muted">SUN</text>
        <text x="85" y="15" text-anchor="middle" class="text-muted">MON</text>
        <text x="142" y="15" text-anchor="middle" class="text-muted">TUE</text>
        <text x="199" y="15" text-anchor="middle" class="text-muted">WED</text>
        <text x="256" y="15" text-anchor="middle" class="text-muted">THU</text>
        <text x="313" y="15" text-anchor="middle" class="text-muted">FRI</text>
        <text x="370" y="15" text-anchor="middle" class="text-muted">SAT</text>
      </g>

      <!-- Calendar grid -->
      <g transform="translate(0, 80)">
        <!-- Week 1 -->
        <rect x="0" y="0" width="55" height="45" rx="4" fill="#dcc8a8" opacity="0.5"/>
        <text x="28" y="28" text-anchor="middle" class="text-muted">29</text>
        <rect x="57" y="0" width="55" height="45" rx="4" fill="#dcc8a8" opacity="0.5"/>
        <text x="85" y="28" text-anchor="middle" class="text-muted">30</text>
        <rect x="114" y="0" width="55" height="45" rx="4" fill="#dcc8a8" opacity="0.5"/>
        <text x="142" y="28" text-anchor="middle" class="text-muted">31</text>
        <rect x="171" y="0" width="55" height="45" rx="4" fill="#f5f0e6" stroke="#22c55e" stroke-width="2"/>
        <text x="199" y="28" text-anchor="middle" class="text-md" fill="#22c55e" font-weight="600">1</text>
        <rect x="228" y="0" width="55" height="45" rx="4" fill="#f5f0e6" stroke="#22c55e" stroke-width="2"/>
        <text x="256" y="28" text-anchor="middle" class="text-md" fill="#22c55e" font-weight="600">2</text>
        <rect x="285" y="0" width="55" height="45" rx="4" fill="#f5f0e6" stroke="#22c55e" stroke-width="2"/>
        <text x="313" y="28" text-anchor="middle" class="text-md" fill="#22c55e" font-weight="600">3</text>
        <rect x="342" y="0" width="55" height="45" rx="4" fill="#dcc8a8" opacity="0.5"/>
        <text x="370" y="28" text-anchor="middle" class="text-muted">4</text>

        <!-- Week 2 -->
        <rect x="0" y="50" width="55" height="45" rx="4" fill="#dcc8a8" opacity="0.5"/>
        <text x="28" y="78" text-anchor="middle" class="text-muted">5</text>
        <rect x="57" y="50" width="55" height="45" rx="4" fill="#f5f0e6" stroke="#22c55e" stroke-width="2"/>
        <text x="85" y="78" text-anchor="middle" class="text-md" fill="#22c55e" font-weight="600">6</text>
        <rect x="114" y="50" width="55" height="45" rx="4" fill="#8b5cf6"/>
        <text x="142" y="78" text-anchor="middle" fill="#fff" font-weight="700" font-family="system-ui, sans-serif" font-size="14">7</text>
        <rect x="171" y="50" width="55" height="45" rx="4" fill="#f5f0e6" stroke="#22c55e" stroke-width="2"/>
        <text x="199" y="78" text-anchor="middle" class="text-md" fill="#22c55e" font-weight="600">8</text>
        <rect x="228" y="50" width="55" height="45" rx="4" fill="#f5f0e6" stroke="#22c55e" stroke-width="2"/>
        <text x="256" y="78" text-anchor="middle" class="text-md" fill="#22c55e" font-weight="600">9</text>
        <rect x="285" y="50" width="55" height="45" rx="4" fill="#f5f0e6" stroke="#22c55e" stroke-width="2"/>
        <text x="313" y="78" text-anchor="middle" class="text-md" fill="#22c55e" font-weight="600">10</text>
        <rect x="342" y="50" width="55" height="45" rx="4" fill="#dcc8a8" opacity="0.5"/>
        <text x="370" y="78" text-anchor="middle" class="text-muted">11</text>

        <!-- Week 3 -->
        <rect x="0" y="100" width="55" height="45" rx="4" fill="#dcc8a8" opacity="0.5"/>
        <text x="28" y="128" text-anchor="middle" class="text-muted">12</text>
        <rect x="57" y="100" width="55" height="45" rx="4" fill="#f5f0e6" stroke="#22c55e" stroke-width="2"/>
        <text x="85" y="128" text-anchor="middle" class="text-md" fill="#22c55e" font-weight="600">13</text>
        <rect x="114" y="100" width="55" height="45" rx="4" fill="#f5f0e6" stroke="#22c55e" stroke-width="2"/>
        <text x="142" y="128" text-anchor="middle" class="text-md" fill="#22c55e" font-weight="600">14</text>
        <rect x="171" y="100" width="55" height="45" rx="4" fill="#f5f0e6" stroke="#22c55e" stroke-width="2"/>
        <text x="199" y="128" text-anchor="middle" class="text-md" fill="#22c55e" font-weight="600">15</text>
        <rect x="228" y="100" width="55" height="45" rx="4" fill="#f5f0e6" stroke="#22c55e" stroke-width="2"/>
        <text x="256" y="128" text-anchor="middle" class="text-md" fill="#22c55e" font-weight="600">16</text>
        <rect x="285" y="100" width="55" height="45" rx="4" fill="#f5f0e6" stroke="#22c55e" stroke-width="2"/>
        <text x="313" y="128" text-anchor="middle" class="text-md" fill="#22c55e" font-weight="600">17</text>
        <rect x="342" y="100" width="55" height="45" rx="4" fill="#dcc8a8" opacity="0.5"/>
        <text x="370" y="128" text-anchor="middle" class="text-muted">18</text>
      </g>

      <!-- Legend -->
      <g transform="translate(0, 250)">
        <circle cx="10" cy="8" r="6" fill="#22c55e"/>
        <text x="25" y="12" class="text-muted">Available</text>
        <circle cx="100" cy="8" r="6" fill="#8b5cf6"/>
        <text x="115" y="12" class="text-muted">Selected</text>
        <circle cx="190" cy="8" r="6" fill="#dcc8a8"/>
        <text x="205" y="12" class="text-muted">Unavailable</text>
      </g>
    </g>

    <!-- Time slots panel -->
    <g transform="translate(480, 140)">
      <text x="0" y="0" class="heading">Tuesday, January 7</text>
      <text x="0" y="22" class="text-muted">Select a time slot</text>

      <!-- Time slots -->
      <g transform="translate(0, 40)">
        <rect x="0" y="0" width="200" height="45" rx="6" fill="#f5f0e6" stroke="#b8a080" stroke-width="1"/>
        <text x="100" y="28" text-anchor="middle" class="text-md">9:00 AM</text>

        <rect x="210" y="0" width="200" height="45" rx="6" fill="#f5f0e6" stroke="#b8a080" stroke-width="1"/>
        <text x="310" y="28" text-anchor="middle" class="text-md">9:30 AM</text>

        <rect x="0" y="55" width="200" height="45" rx="6" fill="#8b5cf6"/>
        <text x="100" y="83" text-anchor="middle" fill="#fff" font-family="system-ui, sans-serif" font-size="14" font-weight="600">10:00 AM ✓</text>

        <rect x="210" y="55" width="200" height="45" rx="6" fill="#f5f0e6" stroke="#b8a080" stroke-width="1"/>
        <text x="310" y="83" text-anchor="middle" class="text-md">10:30 AM</text>

        <rect x="0" y="110" width="200" height="45" rx="6" fill="#f5f0e6" stroke="#b8a080" stroke-width="1"/>
        <text x="100" y="138" text-anchor="middle" class="text-md">11:00 AM</text>

        <rect x="210" y="110" width="200" height="45" rx="6" fill="#f5f0e6" stroke="#b8a080" stroke-width="1"/>
        <text x="310" y="138" text-anchor="middle" class="text-md">11:30 AM</text>
      </g>

      <!-- Duration info -->
      <rect x="0" y="210" width="410" height="40" rx="6" fill="#dcc8a8"/>
      <text x="20" y="235" class="text-sm">⏱ 30 minute consultation</text>
      <text x="250" y="235" class="text-sm">🌐 Timezone: EST (UTC-5)</text>
    </g>

    <!-- Booking form panel -->
    <g transform="translate(480, 415)">
      <text x="0" y="0" class="heading">Your Details</text>

      <g transform="translate(0, 25)">
        <text x="0" y="0" class="text-sm">Name *</text>
        <rect x="0" y="10" width="410" height="40" rx="6" fill="#f5f0e6" stroke="#b8a080" stroke-width="1"/>
        <text x="15" y="35" class="text-md">Jane Smith</text>
      </g>

      <g transform="translate(0, 90)">
        <text x="0" y="0" class="text-sm">Email *</text>
        <rect x="0" y="10" width="410" height="40" rx="6" fill="#f5f0e6" stroke="#b8a080" stroke-width="1"/>
        <text x="15" y="35" class="text-md">jane@example.com</text>
      </g>

      <g transform="translate(0, 155)">
        <text x="0" y="0" class="text-sm">Additional notes (optional)</text>
        <rect x="0" y="10" width="410" height="60" rx="6" fill="#f5f0e6" stroke="#b8a080" stroke-width="1"/>
        <text x="15" y="35" class="text-muted">Describe what you'd like to discuss...</text>
      </g>

      <rect x="0" y="240" width="410" height="45" rx="6" fill="#8b5cf6"/>
      <text x="205" y="268" text-anchor="middle" fill="#fff" font-family="system-ui, sans-serif" font-size="16" font-weight="700">Confirm Booking</text>
    </g>
  </g>

  <!-- MOBILE SECTION -->
  <text x="980" y="52" class="label-mobile">MOBILE</text>
  <g id="mobile-view" transform="translate(980, 60)">
    <!-- Phone frame -->
    <rect x="0" y="0" width="360" height="700" rx="24" fill="#c8b898" stroke="#a08860" stroke-width="2"/>
    <rect x="10" y="10" width="340" height="680" rx="16" fill="#e8d4b8"/>

    <!-- Status bar -->
    <rect x="10" y="10" width="340" height="28" rx="16" fill="#dcc8a8"/>
    <text x="30" y="28" class="text-sm">9:41</text>
    <text x="320" y="28" class="text-sm" text-anchor="end">📶 🔋</text>

    <!-- Header -->
    <rect x="10" y="38" width="340" height="50" fill="#dcc8a8"/>
    <text x="30" y="68" class="text-sm">←</text>
    <text x="180" y="68" text-anchor="middle" class="heading-sm">Schedule</text>

    <!-- Step indicator -->
    <g transform="translate(30, 100)">
      <circle cx="0" cy="0" r="12" fill="#22c55e"/>
      <text x="0" y="5" text-anchor="middle" fill="#fff" font-size="10" font-weight="600">1</text>
      <line x1="12" y1="0" x2="128" y2="0" stroke="#22c55e" stroke-width="2"/>
      <circle cx="140" cy="0" r="12" fill="#8b5cf6"/>
      <text x="140" y="5" text-anchor="middle" fill="#fff" font-size="10" font-weight="600">2</text>
      <line x1="152" y1="0" x2="268" y2="0" stroke="#dcc8a8" stroke-width="2"/>
      <circle cx="280" cy="0" r="12" fill="#dcc8a8" stroke="#b8a080" stroke-width="1"/>
      <text x="280" y="5" text-anchor="middle" class="text-muted" font-size="10">3</text>
    </g>
    <g transform="translate(30, 125)">
      <text x="0" y="0" text-anchor="middle" class="text-muted">Date</text>
      <text x="140" y="0" text-anchor="middle" class="text-sm" fill="#8b5cf6" font-weight="600">Time</text>
      <text x="280" y="0" text-anchor="middle" class="text-muted">Details</text>
    </g>

    <!-- Selected date display -->
    <rect x="20" y="145" width="320" height="45" rx="6" fill="#f5f0e6" stroke="#8b5cf6" stroke-width="2"/>
    <text x="35" y="173" class="heading-sm">📅 Tue, January 7, 2026</text>
    <text x="305" y="173" class="text-sm" fill="#8b5cf6" text-anchor="end">Change</text>

    <!-- Time slots -->
    <g transform="translate(20, 205)">
      <text x="0" y="0" class="heading-sm">Available Times</text>

      <rect x="0" y="20" width="150" height="42" rx="6" fill="#f5f0e6" stroke="#b8a080" stroke-width="1"/>
      <text x="75" y="46" text-anchor="middle" class="text-sm">9:00 AM</text>

      <rect x="160" y="20" width="150" height="42" rx="6" fill="#f5f0e6" stroke="#b8a080" stroke-width="1"/>
      <text x="235" y="46" text-anchor="middle" class="text-sm">9:30 AM</text>

      <rect x="0" y="72" width="150" height="42" rx="6" fill="#8b5cf6"/>
      <text x="75" y="98" text-anchor="middle" fill="#fff" font-family="system-ui, sans-serif" font-size="12" font-weight="600">10:00 AM ✓</text>

      <rect x="160" y="72" width="150" height="42" rx="6" fill="#f5f0e6" stroke="#b8a080" stroke-width="1"/>
      <text x="235" y="98" text-anchor="middle" class="text-sm">10:30 AM</text>

      <rect x="0" y="124" width="150" height="42" rx="6" fill="#f5f0e6" stroke="#b8a080" stroke-width="1"/>
      <text x="75" y="150" text-anchor="middle" class="text-sm">11:00 AM</text>

      <rect x="160" y="124" width="150" height="42" rx="6" fill="#f5f0e6" stroke="#b8a080" stroke-width="1"/>
      <text x="235" y="150" text-anchor="middle" class="text-sm">11:30 AM</text>

      <rect x="0" y="176" width="150" height="42" rx="6" fill="#f5f0e6" stroke="#b8a080" stroke-width="1"/>
      <text x="75" y="202" text-anchor="middle" class="text-sm">2:00 PM</text>

      <rect x="160" y="176" width="150" height="42" rx="6" fill="#f5f0e6" stroke="#b8a080" stroke-width="1"/>
      <text x="235" y="202" text-anchor="middle" class="text-sm">2:30 PM</text>
    </g>

    <!-- Duration + Timezone -->
    <rect x="20" y="455" width="320" height="35" rx="6" fill="#dcc8a8"/>
    <text x="35" y="478" class="text-muted">⏱ 30 min • 🌐 EST (UTC-5)</text>

    <!-- Continue button -->
    <rect x="20" y="505" width="320" height="48" rx="6" fill="#8b5cf6"/>
    <text x="180" y="535" text-anchor="middle" fill="#fff" font-family="system-ui, sans-serif" font-size="15" font-weight="700">Continue →</text>

    <!-- Provider badge -->
    <text x="180" y="580" text-anchor="middle" class="text-muted">Powered by Cal.com</text>

    <!-- Mobile nav bar -->
    <rect x="10" y="658" width="340" height="32" fill="#dcc8a8" rx="0 0 16 16"/>
    <text x="85" y="678" text-anchor="middle" class="text-muted">🏠 Home</text>
    <text x="180" y="678" text-anchor="middle" class="text-sm" fill="#8b5cf6">📅 Schedule</text>
    <text x="275" y="678" text-anchor="middle" class="text-muted">👤 Account</text>
  </g>

  <!-- Annotations -->
  <g id="annotations">
    <rect x="60" y="740" width="130" height="35" rx="4" fill="#e8d4b8" stroke="#8b5cf6" stroke-width="1"/>
    <text x="125" y="755" text-anchor="middle" class="annotation">FR-001-004</text>
    <text x="125" y="770" text-anchor="middle" class="text-muted">Responsive embed</text>

    <rect x="350" y="740" width="140" height="35" rx="4" fill="#e8d4b8" stroke="#8b5cf6" stroke-width="1"/>
    <text x="420" y="755" text-anchor="middle" class="annotation">User Story 1</text>
    <text x="420" y="770" text-anchor="middle" class="text-muted">Book appointment</text>

    <rect x="700" y="740" width="150" height="35" rx="4" fill="#e8d4b8" stroke="#8b5cf6" stroke-width="1"/>
    <text x="775" y="755" text-anchor="middle" class="annotation">FR-023-025</text>
    <text x="775" y="770" text-anchor="middle" class="text-muted">Keyboard accessible</text>
  </g>
</svg>