<svg xmlns="http://www.w3.org/2000/svg" viewBox="0 0 1400 800" width="1400" height="800">
  <!-- ============================================================
       GENERATED BY: /wireframe skill
       SOURCE: features/polish/030-calendar-integration/spec.md
       DATE: 2025-12-31
       DO NOT MANUALLY EDIT - Regenerate with /wireframe command
       ============================================================ -->
  <defs>
    <linearGradient id="bgGrad" x1="0%" y1="0%" x2="100%" y2="100%">
      <stop offset="0%" style="stop-color:#0f172a"/>
      <stop offset="100%" style="stop-color:#1e293b"/>
    </linearGradient>
    <linearGradient id="accentGrad" x1="0%" y1="0%" x2="100%" y2="0%">
      <stop offset="0%" style="stop-color:#8b5cf6"/>
      <stop offset="100%" style="stop-color:#d946ef"/>
    </linearGradient>
    <style>
      .heading-lg { fill: #ffffff; font-family: system-ui, sans-serif; font-size: 20px; font-weight: bold; }
      .heading { fill: #ffffff; font-family: system-ui, sans-serif; font-size: 14px; font-weight: bold; }
      .text-md { fill: #cbd5e1; font-family: system-ui, sans-serif; font-size: 12px; }
      .text-sm { fill: #94a3b8; font-family: system-ui, sans-serif; font-size: 10px; }
      .text-muted { fill: #64748b; font-family: system-ui, sans-serif; font-size: 10px; }
      .annotation { fill: #8b5cf6; font-family: monospace; font-size: 10px; }
      .label-desktop { fill: #8b5cf6; font-family: monospace; font-size: 11px; font-weight: bold; }
      .label-mobile { fill: #d946ef; font-family: monospace; font-size: 11px; font-weight: bold; }
    </style>
  </defs>

  <!-- Background -->
  <rect width="1400" height="800" fill="url(#bgGrad)"/>

  <!-- Dot grid pattern -->
  <g opacity="0.05">
    <pattern id="dots" width="30" height="30" patternUnits="userSpaceOnUse">
      <circle cx="15" cy="15" r="1" fill="#fff"/>
    </pattern>
    <rect width="1400" height="800" fill="url(#dots)"/>
  </g>

  <!-- Accent line top -->
  <rect x="0" y="0" width="1400" height="3" fill="url(#accentGrad)"/>

  <!-- Title -->
  <text x="700" y="28" text-anchor="middle" font-family="system-ui, sans-serif" font-size="14" font-weight="600" fill="#64748b" letter-spacing="1">CALENDAR INTEGRATION - SCHEDULE PAGE &amp; BOOKING FLOW</text>

  <!-- DESKTOP SECTION -->
  <text x="40" y="52" class="label-desktop">DESKTOP - /schedule</text>

  <!-- Desktop Header -->
  <rect x="40" y="60" width="900" height="50" rx="8" fill="#1e293b" stroke="#475569" stroke-width="1"/>
  <text x="60" y="90" class="heading">ScriptHammer</text>
  <text x="750" y="90" class="text-md">Home</text>
  <text x="810" y="90" class="text-md">Blog</text>
  <text x="860" y="90" fill="#8b5cf6" font-family="system-ui, sans-serif" font-size="12px" font-weight="bold">Schedule</text>
  <circle cx="920" cy="85" r="14" fill="#334155"/>

  <!-- Page Title Area -->
  <rect x="40" y="120" width="900" height="80" rx="8" fill="#1e293b" stroke="#475569" stroke-width="1"/>
  <text x="490" y="155" text-anchor="middle" class="heading-lg">Book a Consultation</text>
  <text x="490" y="178" text-anchor="middle" class="text-md">Select a time that works for you and we'll connect for a 30-minute session.</text>

  <!-- Calendar Embed Container -->
  <rect x="40" y="210" width="900" height="430" rx="8" fill="#0f172a" stroke="#8b5cf6" stroke-width="2"/>

  <!-- Calendar Header (Provider Embed) -->
  <rect x="50" y="220" width="880" height="40" rx="6" fill="#1e293b"/>
  <text x="70" y="245" class="heading">Select Date &amp; Time</text>
  <text x="870" y="245" text-anchor="end" class="text-sm">Powered by Calendly</text>

  <!-- Calendar Grid -->
  <g transform="translate(50, 270)">
    <!-- Month Navigation -->
    <rect x="0" y="0" width="440" height="36" rx="6" fill="#334155"/>
    <text x="20" y="23" class="text-md">◀</text>
    <text x="220" y="23" text-anchor="middle" class="heading">January 2026</text>
    <text x="420" y="23" text-anchor="end" class="text-md">▶</text>

    <!-- Day Headers -->
    <g transform="translate(0, 50)">
      <text x="30" y="0" text-anchor="middle" class="text-muted">Sun</text>
      <text x="90" y="0" text-anchor="middle" class="text-muted">Mon</text>
      <text x="150" y="0" text-anchor="middle" class="text-muted">Tue</text>
      <text x="210" y="0" text-anchor="middle" class="text-muted">Wed</text>
      <text x="270" y="0" text-anchor="middle" class="text-muted">Thu</text>
      <text x="330" y="0" text-anchor="middle" class="text-muted">Fri</text>
      <text x="390" y="0" text-anchor="middle" class="text-muted">Sat</text>
    </g>

    <!-- Calendar Days Grid -->
    <g transform="translate(0, 70)">
      <!-- Week 1 -->
      <text x="30" y="25" text-anchor="middle" class="text-muted">29</text>
      <text x="90" y="25" text-anchor="middle" class="text-muted">30</text>
      <text x="150" y="25" text-anchor="middle" class="text-muted">31</text>
      <text x="210" y="25" text-anchor="middle" class="text-md">1</text>
      <text x="270" y="25" text-anchor="middle" class="text-md">2</text>
      <text x="330" y="25" text-anchor="middle" class="text-md">3</text>
      <text x="390" y="25" text-anchor="middle" class="text-muted">4</text>

      <!-- Week 2 -->
      <text x="30" y="65" text-anchor="middle" class="text-muted">5</text>
      <rect x="70" y="50" width="40" height="28" rx="4" fill="#8b5cf6"/>
      <text x="90" y="69" text-anchor="middle" fill="#fff" font-family="system-ui, sans-serif" font-size="12px" font-weight="bold">6</text>
      <text x="150" y="65" text-anchor="middle" class="text-md">7</text>
      <text x="210" y="65" text-anchor="middle" class="text-md">8</text>
      <text x="270" y="65" text-anchor="middle" class="text-md">9</text>
      <text x="330" y="65" text-anchor="middle" class="text-md">10</text>
      <text x="390" y="65" text-anchor="middle" class="text-muted">11</text>

      <!-- Week 3 -->
      <text x="30" y="105" text-anchor="middle" class="text-muted">12</text>
      <text x="90" y="105" text-anchor="middle" class="text-md">13</text>
      <text x="150" y="105" text-anchor="middle" class="text-md">14</text>
      <text x="210" y="105" text-anchor="middle" class="text-md">15</text>
      <text x="270" y="105" text-anchor="middle" class="text-md">16</text>
      <text x="330" y="105" text-anchor="middle" class="text-md">17</text>
      <text x="390" y="105" text-anchor="middle" class="text-muted">18</text>
    </g>
  </g>

  <!-- Time Slots Panel -->
  <g transform="translate(510, 270)">
    <rect x="0" y="0" width="410" height="36" rx="6" fill="#334155"/>
    <text x="205" y="23" text-anchor="middle" class="heading">Monday, Jan 6</text>

    <!-- Available Time Slots -->
    <text x="10" y="60" class="text-sm">Available times (EST)</text>

    <rect x="0" y="75" width="130" height="36" rx="6" fill="#1e293b" stroke="#475569" stroke-width="1"/>
    <text x="65" y="98" text-anchor="middle" class="text-md">9:00 AM</text>

    <rect x="140" y="75" width="130" height="36" rx="6" fill="#1e293b" stroke="#475569" stroke-width="1"/>
    <text x="205" y="98" text-anchor="middle" class="text-md">9:30 AM</text>

    <rect x="280" y="75" width="130" height="36" rx="6" fill="#8b5cf6" stroke="#8b5cf6" stroke-width="1"/>
    <text x="345" y="98" text-anchor="middle" fill="#fff" font-family="system-ui, sans-serif" font-size="12px" font-weight="bold">10:00 AM</text>

    <rect x="0" y="120" width="130" height="36" rx="6" fill="#1e293b" stroke="#475569" stroke-width="1"/>
    <text x="65" y="143" text-anchor="middle" class="text-md">10:30 AM</text>

    <rect x="140" y="120" width="130" height="36" rx="6" fill="#1e293b" stroke="#475569" stroke-width="1"/>
    <text x="205" y="143" text-anchor="middle" class="text-md">11:00 AM</text>

    <rect x="280" y="120" width="130" height="36" rx="6" fill="#1e293b" stroke="#475569" stroke-width="1"/>
    <text x="345" y="143" text-anchor="middle" class="text-md">11:30 AM</text>

    <!-- Confirm Button -->
    <rect x="0" y="175" width="410" height="42" rx="6" fill="url(#accentGrad)"/>
    <text x="205" y="201" text-anchor="middle" fill="#fff" font-family="system-ui, sans-serif" font-size="14px" font-weight="bold">Confirm 10:00 AM</text>
  </g>

  <!-- Event Details Sidebar -->
  <g transform="translate(510, 500)">
    <rect x="0" y="0" width="410" height="130" rx="6" fill="#1e293b" stroke="#475569" stroke-width="1"/>
    <text x="20" y="28" class="heading">30 Minute Consultation</text>
    <text x="20" y="50" class="text-sm">🕐 30 min</text>
    <text x="100" y="50" class="text-sm">📍 Video Call (Zoom)</text>
    <text x="20" y="75" class="text-muted">Let's discuss your project needs and how I can help.</text>
    <text x="20" y="95" class="text-muted">You'll receive a Zoom link after booking.</text>
    <text x="20" y="118" class="text-sm">📧 Confirmation email will be sent</text>
  </g>

  <!-- MOBILE SECTION -->
  <text x="980" y="52" class="label-mobile">MOBILE</text>
  <g id="mobile-view" transform="translate(980, 60)">
    <!-- Phone frame -->
    <rect x="0" y="0" width="360" height="700" rx="24" fill="#1e293b" stroke="#475569" stroke-width="2"/>
    <rect x="10" y="10" width="340" height="680" rx="16" fill="#0f172a"/>

    <!-- Status bar -->
    <rect x="10" y="10" width="340" height="28" rx="16" fill="#1e293b"/>
    <text x="30" y="28" class="text-sm">9:41</text>
    <text x="320" y="28" text-anchor="end" class="text-sm">📶 🔋</text>

    <!-- Mobile Header -->
    <rect x="20" y="48" width="320" height="44" rx="8" fill="#1e293b"/>
    <text x="35" y="75" class="text-md">←</text>
    <text x="180" y="75" text-anchor="middle" class="heading">Schedule</text>

    <!-- Page Title -->
    <text x="180" y="115" text-anchor="middle" class="heading">Book a Consultation</text>
    <text x="180" y="135" text-anchor="middle" class="text-sm">Select a convenient time</text>

    <!-- Calendar Embed (Mobile) -->
    <rect x="20" y="150" width="320" height="380" rx="8" fill="#1e293b" stroke="#8b5cf6" stroke-width="1"/>

    <!-- Month Nav -->
    <rect x="30" y="160" width="300" height="32" rx="4" fill="#334155"/>
    <text x="50" y="181" class="text-sm">◀</text>
    <text x="180" y="181" text-anchor="middle" class="heading">January 2026</text>
    <text x="310" y="181" text-anchor="end" class="text-sm">▶</text>

    <!-- Mini Calendar -->
    <g transform="translate(40, 200)">
      <text x="20" y="0" text-anchor="middle" class="text-muted">S</text>
      <text x="60" y="0" text-anchor="middle" class="text-muted">M</text>
      <text x="100" y="0" text-anchor="middle" class="text-muted">T</text>
      <text x="140" y="0" text-anchor="middle" class="text-muted">W</text>
      <text x="180" y="0" text-anchor="middle" class="text-muted">T</text>
      <text x="220" y="0" text-anchor="middle" class="text-muted">F</text>
      <text x="260" y="0" text-anchor="middle" class="text-muted">S</text>

      <!-- Days -->
      <text x="20" y="30" text-anchor="middle" class="text-muted">5</text>
      <rect x="45" y="16" width="30" height="22" rx="4" fill="#8b5cf6"/>
      <text x="60" y="32" text-anchor="middle" fill="#fff" font-family="system-ui, sans-serif" font-size="10px" font-weight="bold">6</text>
      <text x="100" y="30" text-anchor="middle" class="text-sm">7</text>
      <text x="140" y="30" text-anchor="middle" class="text-sm">8</text>
      <text x="180" y="30" text-anchor="middle" class="text-sm">9</text>
      <text x="220" y="30" text-anchor="middle" class="text-sm">10</text>
      <text x="260" y="30" text-anchor="middle" class="text-muted">11</text>
    </g>

    <!-- Time Slots (Stacked) -->
    <text x="40" y="275" class="text-sm">Available times</text>
    <rect x="30" y="285" width="140" height="32" rx="4" fill="#334155"/>
    <text x="100" y="306" text-anchor="middle" class="text-sm">9:00 AM</text>
    <rect x="180" y="285" width="140" height="32" rx="4" fill="#334155"/>
    <text x="250" y="306" text-anchor="middle" class="text-sm">9:30 AM</text>

    <rect x="30" y="325" width="140" height="32" rx="4" fill="#8b5cf6"/>
    <text x="100" y="346" text-anchor="middle" fill="#fff" font-family="system-ui, sans-serif" font-size="10px" font-weight="bold">10:00 AM ✓</text>
    <rect x="180" y="325" width="140" height="32" rx="4" fill="#334155"/>
    <text x="250" y="346" text-anchor="middle" class="text-sm">10:30 AM</text>

    <!-- Event Info -->
    <rect x="30" y="370" width="300" height="60" rx="4" fill="#0f172a" stroke="#475569" stroke-width="1"/>
    <text x="45" y="392" class="text-sm">🕐 30 min consultation</text>
    <text x="45" y="412" class="text-muted">📍 Zoom video call</text>

    <!-- Confirm Button -->
    <rect x="30" y="440" width="300" height="40" rx="6" fill="url(#accentGrad)"/>
    <text x="180" y="465" text-anchor="middle" fill="#fff" font-family="system-ui, sans-serif" font-size="12px" font-weight="bold">Confirm 10:00 AM</text>

    <!-- Provider Badge -->
    <text x="180" y="505" text-anchor="middle" class="text-muted">Powered by Calendly</text>

    <!-- Bottom Safe Area -->
    <rect x="130" y="670" width="100" height="4" rx="2" fill="#475569"/>
  </g>

  <!-- Annotations -->
  <g transform="translate(40, 660)">
    <rect x="0" y="0" width="900" height="80" rx="8" fill="#1e293b" stroke="#475569" stroke-width="1"/>
    <text x="20" y="25" class="annotation">BOOKING FLOW</text>
    <text x="20" y="45" class="text-sm">1. Visitor selects date from calendar → 2. Available time slots load → 3. Select time slot</text>
    <text x="20" y="65" class="text-sm">4. Click "Confirm" → 5. Provider handles form entry → 6. Confirmation displayed + email sent</text>
  </g>

</svg>