<svg xmlns="http://www.w3.org/2000/svg" viewBox="0 0 1600 800" width="1600" height="800">
  <!-- ============================================================
       GENERATED BY: /wireframe skill
       SOURCE: features/polish/030-calendar-integration/spec.md
       DATE: 2025-12-31
       DO NOT MANUALLY EDIT - Regenerate with /wireframe command
       ============================================================ -->
  <defs>
    <linearGradient id="bgGrad" x1="0%" y1="0%" x2="100%" y2="100%">
      <stop offset="0%" style="stop-color:#0f172a"/>
      <stop offset="100%" style="stop-color:#1e293b"/>
    </linearGradient>
    <linearGradient id="accentGrad" x1="0%" y1="0%" x2="100%" y2="0%">
      <stop offset="0%" style="stop-color:#8b5cf6"/>
      <stop offset="100%" style="stop-color:#d946ef"/>
    </linearGradient>
    <linearGradient id="successGrad" x1="0%" y1="0%" x2="100%" y2="0%">
      <stop offset="0%" style="stop-color:#22c55e"/>
      <stop offset="100%" style="stop-color:#16a34a"/>
    </linearGradient>
    <style>
      .heading-lg { fill: #ffffff; font-family: system-ui, sans-serif; font-size: 20px; font-weight: bold; }
      .heading { fill: #ffffff; font-family: system-ui, sans-serif; font-size: 14px; font-weight: bold; }
      .text-md { fill: #cbd5e1; font-family: system-ui, sans-serif; font-size: 12px; }
      .text-sm { fill: #94a3b8; font-family: system-ui, sans-serif; font-size: 10px; }
      .text-muted { fill: #64748b; font-family: system-ui, sans-serif; font-size: 10px; }
      .annotation { fill: #8b5cf6; font-family: monospace; font-size: 10px; }
      .label-state { fill: #d946ef; font-family: monospace; font-size: 11px; font-weight: bold; }
      .state-badge { fill: #fff; font-family: monospace; font-size: 9px; font-weight: bold; }
    </style>
  </defs>

  <!-- Background -->
  <rect width="1600" height="800" fill="url(#bgGrad)"/>

  <!-- Dot grid pattern -->
  <g opacity="0.05">
    <pattern id="dots" width="30" height="30" patternUnits="userSpaceOnUse">
      <circle cx="15" cy="15" r="1" fill="#fff"/>
    </pattern>
    <rect width="1600" height="800" fill="url(#dots)"/>
  </g>

  <!-- Accent line top -->
  <rect x="0" y="0" width="1600" height="3" fill="url(#accentGrad)"/>

  <!-- Title -->
  <text x="800" y="28" text-anchor="middle" font-family="system-ui, sans-serif" font-size="14" font-weight="600" fill="#64748b" letter-spacing="1">CALENDAR INTEGRATION - CONSENT FLOW STATES (GDPR)</text>

  <!-- STATE 1: No Consent Given -->
  <g transform="translate(40, 50)">
    <rect x="0" y="0" width="22" height="22" rx="11" fill="#ef4444"/>
    <text x="11" y="15" text-anchor="middle" class="state-badge">1</text>
    <text x="32" y="16" class="label-state">STATE: NO CONSENT</text>

    <!-- Card Container -->
    <rect x="0" y="30" width="480" height="360" rx="12" fill="#1e293b" stroke="#475569" stroke-width="1"/>

    <!-- Header -->
    <rect x="10" y="40" width="460" height="40" rx="6" fill="#334155"/>
    <text x="240" y="65" text-anchor="middle" class="heading">Book a Consultation</text>

    <!-- Consent Prompt Area -->
    <rect x="20" y="95" width="440" height="280" rx="8" fill="#0f172a" stroke="#ef4444" stroke-width="2" stroke-dasharray="4,2"/>

    <!-- Cookie Icon -->
    <circle cx="240" cy="150" r="28" fill="#334155" stroke="#ef4444" stroke-width="2"/>
    <text x="240" y="157" text-anchor="middle" font-size="24">🍪</text>

    <!-- Consent Message -->
    <text x="240" y="200" text-anchor="middle" class="heading">Functional Cookies Required</text>
    <text x="240" y="225" text-anchor="middle" class="text-md">This calendar uses third-party services that require</text>
    <text x="240" y="242" text-anchor="middle" class="text-md">functional cookies to operate.</text>

    <!-- Consent Button -->
    <rect x="140" y="265" width="200" height="40" rx="6" fill="url(#accentGrad)"/>
    <text x="240" y="290" text-anchor="middle" fill="#fff" font-family="system-ui, sans-serif" font-size="12px" font-weight="bold">Accept Functional Cookies</text>

    <!-- Decline Link -->
    <text x="240" y="330" text-anchor="middle" class="text-sm">No thanks, take me to external booking page →</text>

    <!-- Privacy Link -->
    <text x="240" y="360" text-anchor="middle" class="text-muted">Learn more about our cookie policy</text>
  </g>

  <!-- Arrow 1→2 -->
  <g transform="translate(530, 200)">
    <line x1="0" y1="0" x2="60" y2="0" stroke="#8b5cf6" stroke-width="2"/>
    <polygon points="60,0 50,-6 50,6" fill="#8b5cf6"/>
    <text x="30" y="20" text-anchor="middle" class="annotation">CLICK</text>
    <text x="30" y="32" text-anchor="middle" class="text-muted">"Accept"</text>
  </g>

  <!-- STATE 2: Loading Calendar -->
  <g transform="translate(600, 50)">
    <rect x="0" y="0" width="22" height="22" rx="11" fill="#eab308"/>
    <text x="11" y="15" text-anchor="middle" class="state-badge">2</text>
    <text x="32" y="16" class="label-state">STATE: LOADING</text>

    <!-- Card Container -->
    <rect x="0" y="30" width="480" height="360" rx="12" fill="#1e293b" stroke="#475569" stroke-width="1"/>

    <!-- Header -->
    <rect x="10" y="40" width="460" height="40" rx="6" fill="#334155"/>
    <text x="240" y="65" text-anchor="middle" class="heading">Book a Consultation</text>

    <!-- Loading Area -->
    <rect x="20" y="95" width="440" height="280" rx="8" fill="#0f172a" stroke="#eab308" stroke-width="2"/>

    <!-- Spinner -->
    <g transform="translate(240, 180)">
      <circle cx="0" cy="0" r="24" fill="none" stroke="#334155" stroke-width="3"/>
      <path d="M 0 -24 A 24 24 0 0 1 24 0" fill="none" stroke="#8b5cf6" stroke-width="3" stroke-linecap="round">
        <animateTransform attributeName="transform" type="rotate" from="0" to="360" dur="1s" repeatCount="indefinite"/>
      </path>
    </g>

    <!-- Loading Text -->
    <text x="240" y="235" text-anchor="middle" class="heading">Loading Calendar...</text>
    <text x="240" y="258" text-anchor="middle" class="text-md">Connecting to Calendly</text>

    <!-- Skeleton Lines -->
    <rect x="60" y="285" width="200" height="12" rx="6" fill="#334155" opacity="0.5"/>
    <rect x="100" y="305" width="280" height="12" rx="6" fill="#334155" opacity="0.3"/>
    <rect x="140" y="325" width="200" height="12" rx="6" fill="#334155" opacity="0.2"/>
  </g>

  <!-- Arrow 2→3 -->
  <g transform="translate(1090, 200)">
    <line x1="0" y1="0" x2="60" y2="0" stroke="#22c55e" stroke-width="2"/>
    <polygon points="60,0 50,-6 50,6" fill="#22c55e"/>
    <text x="30" y="20" text-anchor="middle" class="annotation">LOADED</text>
    <text x="30" y="32" text-anchor="middle" class="text-muted">&lt;2 sec</text>
  </g>

  <!-- STATE 3: Calendar Ready -->
  <g transform="translate(1160, 50)">
    <rect x="0" y="0" width="22" height="22" rx="11" fill="#22c55e"/>
    <text x="11" y="15" text-anchor="middle" class="state-badge">3</text>
    <text x="32" y="16" class="label-state">STATE: READY</text>

    <!-- Card Container -->
    <rect x="0" y="30" width="400" height="360" rx="12" fill="#1e293b" stroke="#22c55e" stroke-width="2"/>

    <!-- Header -->
    <rect x="10" y="40" width="380" height="40" rx="6" fill="#334155"/>
    <text x="200" y="65" text-anchor="middle" class="heading">Book a Consultation</text>

    <!-- Calendar Loaded -->
    <rect x="20" y="95" width="360" height="280" rx="8" fill="#0f172a" stroke="#8b5cf6" stroke-width="1"/>

    <!-- Success Badge -->
    <rect x="130" y="105" width="140" height="24" rx="12" fill="#22c55e" opacity="0.2"/>
    <text x="200" y="121" text-anchor="middle" fill="#22c55e" font-family="system-ui, sans-serif" font-size="10px">✓ Calendar Ready</text>

    <!-- Mini Calendar Preview -->
    <rect x="35" y="140" width="160" height="110" rx="4" fill="#1e293b"/>
    <text x="115" y="160" text-anchor="middle" class="text-sm">January 2026</text>
    <g transform="translate(45, 170)">
      <text x="10" y="0" class="text-muted">S</text>
      <text x="30" y="0" class="text-muted">M</text>
      <text x="50" y="0" class="text-muted">T</text>
      <text x="70" y="0" class="text-muted">W</text>
      <text x="90" y="0" class="text-muted">T</text>
      <text x="110" y="0" class="text-muted">F</text>
      <text x="130" y="0" class="text-muted">S</text>
      <text x="10" y="20" class="text-sm">5</text>
      <rect x="22" y="8" width="16" height="16" rx="3" fill="#8b5cf6"/>
      <text x="30" y="20" text-anchor="middle" fill="#fff" font-size="9px">6</text>
      <text x="50" y="20" class="text-sm">7</text>
      <text x="70" y="20" class="text-sm">8</text>
    </g>

    <!-- Time Slots Preview -->
    <rect x="205" y="140" width="160" height="110" rx="4" fill="#1e293b"/>
    <text x="285" y="160" text-anchor="middle" class="text-sm">Monday, Jan 6</text>
    <rect x="215" y="172" width="60" height="22" rx="4" fill="#334155"/>
    <text x="245" y="187" text-anchor="middle" class="text-muted">9:00</text>
    <rect x="285" y="172" width="60" height="22" rx="4" fill="#334155"/>
    <text x="315" y="187" text-anchor="middle" class="text-muted">9:30</text>
    <rect x="215" y="200" width="60" height="22" rx="4" fill="#8b5cf6"/>
    <text x="245" y="215" text-anchor="middle" fill="#fff" font-size="9px">10:00</text>
    <rect x="285" y="200" width="60" height="22" rx="4" fill="#334155"/>
    <text x="315" y="215" text-anchor="middle" class="text-muted">10:30</text>

    <!-- Event Details -->
    <rect x="35" y="260" width="330" height="50" rx="4" fill="#1e293b"/>
    <text x="50" y="280" class="text-sm">🕐 30 min · 📍 Zoom</text>
    <text x="50" y="298" class="text-muted">Consultation session with project discussion</text>

    <!-- Confirm Button -->
    <rect x="35" y="320" width="330" height="36" rx="6" fill="url(#accentGrad)"/>
    <text x="200" y="343" text-anchor="middle" fill="#fff" font-family="system-ui, sans-serif" font-size="12px" font-weight="bold">Confirm 10:00 AM</text>
  </g>

  <!-- Flow Diagram at Bottom -->
  <g transform="translate(40, 450)">
    <rect x="0" y="0" width="1520" height="300" rx="12" fill="#1e293b" stroke="#475569" stroke-width="1"/>

    <text x="760" y="30" text-anchor="middle" class="heading-lg">CONSENT FLOW ARCHITECTURE</text>

    <!-- Flow Nodes -->
    <!-- Node: Page Load -->
    <rect x="40" y="60" width="140" height="50" rx="8" fill="#334155" stroke="#64748b" stroke-width="1"/>
    <text x="110" y="90" text-anchor="middle" class="heading">Page Load</text>

    <!-- Arrow -->
    <line x1="180" y1="85" x2="240" y2="85" stroke="#64748b" stroke-width="2"/>
    <polygon points="240,85 230,79 230,91" fill="#64748b"/>

    <!-- Node: Check Consent -->
    <rect x="240" y="60" width="160" height="50" rx="8" fill="#334155" stroke="#eab308" stroke-width="2"/>
    <text x="320" y="85" text-anchor="middle" class="heading">Check Consent</text>
    <text x="320" y="100" text-anchor="middle" class="text-muted">functional_cookies</text>

    <!-- Branch: No Consent -->
    <line x1="320" y1="110" x2="320" y2="160" stroke="#ef4444" stroke-width="2"/>
    <text x="340" y="140" class="text-sm" fill="#ef4444">NO</text>
    <polygon points="320,160 314,150 326,150" fill="#ef4444"/>

    <!-- Node: Show Prompt -->
    <rect x="240" y="160" width="160" height="50" rx="8" fill="#1e293b" stroke="#ef4444" stroke-width="2"/>
    <text x="320" y="185" text-anchor="middle" class="heading">Show Prompt</text>
    <text x="320" y="200" text-anchor="middle" class="text-muted">consent-pending</text>

    <!-- Branch: Yes Consent -->
    <line x1="400" y1="85" x2="520" y2="85" stroke="#22c55e" stroke-width="2"/>
    <text x="460" y="75" class="text-sm" fill="#22c55e">YES</text>
    <polygon points="520,85 510,79 510,91" fill="#22c55e"/>

    <!-- Node: Load Script -->
    <rect x="520" y="60" width="160" height="50" rx="8" fill="#334155" stroke="#eab308" stroke-width="2"/>
    <text x="600" y="85" text-anchor="middle" class="heading">Load Script</text>
    <text x="600" y="100" text-anchor="middle" class="text-muted">calendly.js</text>

    <!-- Arrow to Show Spinner -->
    <line x1="680" y1="85" x2="740" y2="85" stroke="#64748b" stroke-width="2"/>
    <polygon points="740,85 730,79 730,91" fill="#64748b"/>

    <!-- Node: Show Loading -->
    <rect x="740" y="60" width="140" height="50" rx="8" fill="#1e293b" stroke="#eab308" stroke-width="2"/>
    <text x="810" y="85" text-anchor="middle" class="heading">Loading</text>
    <text x="810" y="100" text-anchor="middle" class="text-muted">spinner</text>

    <!-- Arrow to Ready -->
    <line x1="880" y1="85" x2="940" y2="85" stroke="#64748b" stroke-width="2"/>
    <polygon points="940,85 930,79 930,91" fill="#64748b"/>

    <!-- Node: Calendar Ready -->
    <rect x="940" y="60" width="160" height="50" rx="8" fill="#1e293b" stroke="#22c55e" stroke-width="2"/>
    <text x="1020" y="85" text-anchor="middle" class="heading">Calendar Ready</text>
    <text x="1020" y="100" text-anchor="middle" class="text-muted">embed active</text>

    <!-- Arrow to Booking -->
    <line x1="1100" y1="85" x2="1160" y2="85" stroke="#64748b" stroke-width="2"/>
    <polygon points="1160,85 1150,79 1150,91" fill="#64748b"/>

    <!-- Node: Booking Flow -->
    <rect x="1160" y="60" width="140" height="50" rx="8" fill="#334155" stroke="#8b5cf6" stroke-width="2"/>
    <text x="1230" y="85" text-anchor="middle" class="heading">Booking</text>
    <text x="1230" y="100" text-anchor="middle" class="text-muted">provider handles</text>

    <!-- User Accepts path from Show Prompt -->
    <line x1="400" y1="185" x2="600" y2="185" stroke="#22c55e" stroke-width="2" stroke-dasharray="4,2"/>
    <line x1="600" y1="185" x2="600" y2="110" stroke="#22c55e" stroke-width="2" stroke-dasharray="4,2"/>
    <polygon points="600,110 594,120 606,120" fill="#22c55e"/>
    <text x="500" y="175" class="text-sm" fill="#22c55e">Accept Cookies</text>

    <!-- User Declines path -->
    <line x1="320" y1="210" x2="320" y2="250" stroke="#ef4444" stroke-width="2" stroke-dasharray="4,2"/>
    <rect x="240" y="250" width="160" height="40" rx="8" fill="#0f172a" stroke="#ef4444" stroke-width="1"/>
    <text x="320" y="275" text-anchor="middle" class="text-sm">External Link</text>

    <!-- Analytics Track Points -->
    <g transform="translate(1300, 60)">
      <rect x="0" y="0" width="180" height="120" rx="8" fill="#0f172a" stroke="#8b5cf6" stroke-width="1"/>
      <text x="90" y="25" text-anchor="middle" class="annotation">ANALYTICS EVENTS</text>
      <text x="15" y="50" class="text-sm">📊 calendar_viewed</text>
      <text x="15" y="70" class="text-sm">📊 calendar_time_selected</text>
      <text x="15" y="90" class="text-sm">📊 calendar_scheduled</text>
      <text x="15" y="110" class="text-muted">Only with analytics consent</text>
    </g>
  </g>

</svg>