<svg xmlns="http://www.w3.org/2000/svg" viewBox="0 0 1400 800" width="1400" height="800">
  <!-- ============================================================
       GENERATED BY: /wireframe skill
       SOURCE: features/polish/030-calendar-integration/spec.md
       DATE: 2026-01-01
       THEME: Light (UX/Frontend) - v3 True Parchment
       DO NOT MANUALLY EDIT - Regenerate with /wireframe command
       ============================================================ -->
  <defs>
    <linearGradient id="bgGrad" x1="0%" y1="0%" x2="100%" y2="100%">
      <stop offset="0%" style="stop-color:#c7ddf5"/>
      <stop offset="100%" style="stop-color:#b8d4f0"/>
    </linearGradient>
    <linearGradient id="accentGrad" x1="0%" y1="0%" x2="100%" y2="0%">
      <stop offset="0%" style="stop-color:#8b5cf6"/>
      <stop offset="100%" style="stop-color:#d946ef"/>
    </linearGradient>
    <style>
      .heading-lg { fill: #1a1a2e; font-family: system-ui, sans-serif; font-size: 24px; font-weight: 800; }
      .heading { fill: #1a1a2e; font-family: system-ui, sans-serif; font-size: 16px; font-weight: 700; }
      .heading-sm { fill: #1a1a2e; font-family: system-ui, sans-serif; font-size: 14px; font-weight: 700; }
      .text-md { fill: #2d3748; font-family: system-ui, sans-serif; font-size: 14px; font-weight: 500; }
      .text-sm { fill: #374151; font-family: system-ui, sans-serif; font-size: 12px; font-weight: 500; }
      .text-muted { fill: #4b5563; font-family: system-ui, sans-serif; font-size: 11px; font-weight: 500; }
      .annotation { fill: #6d28d9; font-family: monospace; font-size: 12px; font-weight: 600; }
      .label-desktop { fill: #8b5cf6; font-family: monospace; font-size: 13px; font-weight: bold; }
      .label-mobile { fill: #d946ef; font-family: monospace; font-size: 13px; font-weight: bold; }
    </style>
  </defs>

  <!-- Background -->
  <rect width="1400" height="800" fill="url(#bgGrad)"/>

  <!-- Dot grid pattern -->
  <g opacity="0.35">
    <pattern id="dots" width="30" height="30" patternUnits="userSpaceOnUse">
      <circle cx="15" cy="15" r="1" fill="#6b8cba"/>
    </pattern>
    <rect width="1400" height="800" fill="url(#dots)"/>
  </g>

  <!-- Accent line top -->
  <rect x="0" y="0" width="1400" height="3" fill="url(#accentGrad)"/>

  <!-- Title -->
  <text x="700" y="28" text-anchor="middle" font-family="system-ui, sans-serif" font-size="14" font-weight="600" fill="#4b5563" letter-spacing="1">CALENDAR INTEGRATION — CONSENT &amp; STATE VARIATIONS</text>

  <!-- STATE 1: Consent Pending -->
  <text x="40" y="52" class="label-desktop">STATE 1: CONSENT PENDING</text>
  <g id="consent-pending">
    <rect x="40" y="60" width="420" height="340" rx="8" fill="#e8d4b8" stroke="#b8a080" stroke-width="1"/>

    <!-- Header -->
    <rect x="40" y="60" width="420" height="45" rx="8" fill="#dcc8a8"/>
    <text x="60" y="88" class="heading">Schedule a Meeting</text>

    <!-- Consent prompt area -->
    <g transform="translate(60, 125)">
      <rect x="0" y="0" width="380" height="250" rx="8" fill="#f5f0e6" stroke="#eab308" stroke-width="2"/>

      <!-- Icon -->
      <text x="190" y="45" text-anchor="middle" font-size="40">🔒</text>

      <!-- Message -->
      <text x="190" y="85" text-anchor="middle" class="heading">Consent Required</text>
      <text x="190" y="110" text-anchor="middle" class="text-sm">This calendar is powered by a third-party service.</text>
      <text x="190" y="130" text-anchor="middle" class="text-sm">To display it, we need your permission to load</text>
      <text x="190" y="150" text-anchor="middle" class="text-sm">external content and set functional cookies.</text>

      <!-- Buttons -->
      <rect x="40" y="175" width="140" height="40" rx="6" fill="#8b5cf6"/>
      <text x="110" y="200" text-anchor="middle" fill="#fff" font-family="system-ui, sans-serif" font-size="13" font-weight="600">Allow Calendar</text>

      <rect x="200" y="175" width="140" height="40" rx="6" fill="#dcc8a8" stroke="#b8a080" stroke-width="1"/>
      <text x="270" y="200" text-anchor="middle" class="text-sm">Learn More</text>

      <text x="190" y="235" text-anchor="middle" class="text-muted">You can change this in Privacy Settings</text>
    </g>
  </g>

  <!-- STATE 2: Loading -->
  <text x="480" y="52" class="label-desktop">STATE 2: LOADING</text>
  <g id="loading-state">
    <rect x="480" y="60" width="420" height="340" rx="8" fill="#e8d4b8" stroke="#b8a080" stroke-width="1"/>

    <!-- Header -->
    <rect x="480" y="60" width="420" height="45" rx="8" fill="#dcc8a8"/>
    <text x="500" y="88" class="heading">Schedule a Meeting</text>

    <!-- Loading area -->
    <g transform="translate(500, 125)">
      <rect x="0" y="0" width="380" height="250" rx="8" fill="#f5f0e6" stroke="#b8a080" stroke-width="1"/>

      <!-- Spinner -->
      <circle cx="190" cy="90" r="30" fill="none" stroke="#dcc8a8" stroke-width="4"/>
      <path d="M 190 60 A 30 30 0 0 1 220 90" fill="none" stroke="#8b5cf6" stroke-width="4" stroke-linecap="round"/>

      <text x="190" y="150" text-anchor="middle" class="heading">Loading Calendar...</text>
      <text x="190" y="175" text-anchor="middle" class="text-muted">This usually takes 1-2 seconds</text>

      <!-- Skeleton elements -->
      <rect x="40" y="200" width="120" height="30" rx="4" fill="#dcc8a8" opacity="0.6"/>
      <rect x="180" y="200" width="160" height="30" rx="4" fill="#dcc8a8" opacity="0.6"/>
    </g>
  </g>

  <!-- STATE 3: Error -->
  <text x="40" y="420" class="label-desktop">STATE 3: PROVIDER ERROR</text>
  <g id="error-state">
    <rect x="40" y="430" width="420" height="310" rx="8" fill="#e8d4b8" stroke="#b8a080" stroke-width="1"/>

    <!-- Header -->
    <rect x="40" y="430" width="420" height="45" rx="8" fill="#dcc8a8"/>
    <text x="60" y="458" class="heading">Schedule a Meeting</text>

    <!-- Error area -->
    <g transform="translate(60, 495)">
      <rect x="0" y="0" width="380" height="220" rx="8" fill="#f5f0e6" stroke="#ef4444" stroke-width="2"/>

      <!-- Error icon -->
      <circle cx="190" cy="45" r="25" fill="#fef2f2" stroke="#ef4444" stroke-width="2"/>
      <text x="190" y="53" text-anchor="middle" fill="#ef4444" font-size="24" font-weight="bold">!</text>

      <text x="190" y="95" text-anchor="middle" class="heading" fill="#ef4444">Calendar Unavailable</text>
      <text x="190" y="120" text-anchor="middle" class="text-sm">The scheduling service is temporarily unavailable.</text>
      <text x="190" y="140" text-anchor="middle" class="text-sm">Please try again in a few moments.</text>

      <!-- Actions -->
      <rect x="90" y="160" width="100" height="36" rx="6" fill="#8b5cf6"/>
      <text x="140" y="183" text-anchor="middle" fill="#fff" font-family="system-ui, sans-serif" font-size="12" font-weight="600">Retry</text>

      <rect x="200" y="160" width="100" height="36" rx="6" fill="#dcc8a8" stroke="#b8a080" stroke-width="1"/>
      <text x="250" y="183" text-anchor="middle" class="text-sm">Contact Us</text>
    </g>
  </g>

  <!-- STATE 4: Fallback -->
  <text x="480" y="420" class="label-desktop">STATE 4: UNSUPPORTED BROWSER</text>
  <g id="fallback-state">
    <rect x="480" y="430" width="420" height="310" rx="8" fill="#e8d4b8" stroke="#b8a080" stroke-width="1"/>

    <!-- Header -->
    <rect x="480" y="430" width="420" height="45" rx="8" fill="#dcc8a8"/>
    <text x="500" y="458" class="heading">Schedule a Meeting</text>

    <!-- Fallback area -->
    <g transform="translate(500, 495)">
      <rect x="0" y="0" width="380" height="220" rx="8" fill="#f5f0e6" stroke="#b8a080" stroke-width="1"/>

      <!-- Info icon -->
      <circle cx="190" cy="45" r="25" fill="#eef2ff" stroke="#8b5cf6" stroke-width="2"/>
      <text x="190" y="53" text-anchor="middle" fill="#8b5cf6" font-size="20" font-weight="bold">i</text>

      <text x="190" y="95" text-anchor="middle" class="heading">Open External Scheduler</text>
      <text x="190" y="120" text-anchor="middle" class="text-sm">Your browser doesn't support the embedded</text>
      <text x="190" y="140" text-anchor="middle" class="text-sm">calendar. Click below to open the booking page.</text>

      <!-- External link button -->
      <rect x="90" y="160" width="200" height="40" rx="6" fill="#8b5cf6"/>
      <text x="190" y="186" text-anchor="middle" fill="#fff" font-family="system-ui, sans-serif" font-size="13" font-weight="600">Open Cal.com ↗</text>
    </g>
  </g>

  <!-- MOBILE SECTION -->
  <text x="980" y="52" class="label-mobile">MOBILE — CONSENT</text>
  <g id="mobile-view" transform="translate(980, 60)">
    <!-- Phone frame -->
    <rect x="0" y="0" width="360" height="700" rx="24" fill="#c8b898" stroke="#a08860" stroke-width="2"/>
    <rect x="10" y="10" width="340" height="680" rx="16" fill="#e8d4b8"/>

    <!-- Status bar -->
    <rect x="10" y="10" width="340" height="28" rx="16" fill="#dcc8a8"/>
    <text x="30" y="28" class="text-sm">9:41</text>
    <text x="320" y="28" class="text-sm" text-anchor="end">📶 🔋</text>

    <!-- Header -->
    <rect x="10" y="38" width="340" height="50" fill="#dcc8a8"/>
    <text x="30" y="68" class="text-sm">←</text>
    <text x="180" y="68" text-anchor="middle" class="heading-sm">Schedule</text>

    <!-- Consent prompt -->
    <g transform="translate(20, 105)">
      <rect x="0" y="0" width="320" height="380" rx="8" fill="#f5f0e6" stroke="#eab308" stroke-width="2"/>

      <!-- Lock icon -->
      <text x="160" y="60" text-anchor="middle" font-size="50">🔒</text>

      <!-- Title -->
      <text x="160" y="110" text-anchor="middle" class="heading">Consent Required</text>

      <!-- Description -->
      <text x="160" y="145" text-anchor="middle" class="text-sm">This calendar is powered by Cal.com.</text>
      <text x="160" y="165" text-anchor="middle" class="text-sm">To display it, we need your permission</text>
      <text x="160" y="185" text-anchor="middle" class="text-sm">to load external content.</text>

      <!-- What we need -->
      <rect x="20" y="210" width="280" height="80" rx="6" fill="#dcc8a8"/>
      <text x="35" y="235" class="text-muted">What we need:</text>
      <text x="35" y="255" class="text-sm">✓ Load Cal.com scheduling widget</text>
      <text x="35" y="275" class="text-sm">✓ Set functional cookies</text>

      <!-- Buttons -->
      <rect x="20" y="310" width="135" height="44" rx="6" fill="#8b5cf6"/>
      <text x="87" y="338" text-anchor="middle" fill="#fff" font-family="system-ui, sans-serif" font-size="13" font-weight="600">Allow</text>

      <rect x="165" y="310" width="135" height="44" rx="6" fill="#dcc8a8" stroke="#b8a080" stroke-width="1"/>
      <text x="232" y="338" text-anchor="middle" class="text-sm">Learn More</text>
    </g>

    <!-- Privacy link -->
    <text x="180" y="510" text-anchor="middle" class="text-sm" fill="#8b5cf6" text-decoration="underline">Privacy Settings</text>

    <!-- Alternative CTA -->
    <rect x="20" y="540" width="320" height="50" rx="6" fill="#f5f0e6" stroke="#b8a080" stroke-width="1"/>
    <text x="180" y="570" text-anchor="middle" class="text-sm">Or book directly at cal.com/example ↗</text>

    <!-- Mobile nav bar -->
    <rect x="10" y="658" width="340" height="32" fill="#dcc8a8" rx="0 0 16 16"/>
    <text x="85" y="678" text-anchor="middle" class="text-muted">🏠 Home</text>
    <text x="180" y="678" text-anchor="middle" class="text-sm" fill="#8b5cf6">📅 Schedule</text>
    <text x="275" y="678" text-anchor="middle" class="text-muted">👤 Account</text>
  </g>

  <!-- Annotations -->
  <g id="annotations">
    <rect x="60" y="745" width="130" height="35" rx="4" fill="#e8d4b8" stroke="#8b5cf6" stroke-width="1"/>
    <text x="125" y="760" text-anchor="middle" class="annotation">FR-014-017</text>
    <text x="125" y="775" text-anchor="middle" class="text-muted">Consent flow</text>

    <rect x="330" y="745" width="130" height="35" rx="4" fill="#e8d4b8" stroke="#8b5cf6" stroke-width="1"/>
    <text x="395" y="760" text-anchor="middle" class="annotation">FR-003-004</text>
    <text x="395" y="775" text-anchor="middle" class="text-muted">Loading/error</text>

    <rect x="600" y="745" width="130" height="35" rx="4" fill="#e8d4b8" stroke="#8b5cf6" stroke-width="1"/>
    <text x="665" y="760" text-anchor="middle" class="annotation">FR-026-027</text>
    <text x="665" y="775" text-anchor="middle" class="text-muted">Fallback link</text>
  </g>
</svg>