<svg xmlns="http://www.w3.org/2000/svg" viewBox="0 0 1600 900" width="1600" height="900">
  <!-- ============================================================
       GENERATED BY: /wireframe skill
       SOURCE: features/polish/030-calendar-integration/spec.md
       DATE: 2025-12-31
       DO NOT MANUALLY EDIT - Regenerate with /wireframe command
       ============================================================ -->
  <defs>
    <linearGradient id="bgGrad" x1="0%" y1="0%" x2="100%" y2="100%">
      <stop offset="0%" style="stop-color:#0f172a"/>
      <stop offset="100%" style="stop-color:#1e293b"/>
    </linearGradient>
    <linearGradient id="accentGrad" x1="0%" y1="0%" x2="100%" y2="0%">
      <stop offset="0%" style="stop-color:#8b5cf6"/>
      <stop offset="100%" style="stop-color:#d946ef"/>
    </linearGradient>
    <linearGradient id="calendlyGrad" x1="0%" y1="0%" x2="100%" y2="0%">
      <stop offset="0%" style="stop-color:#006bff"/>
      <stop offset="100%" style="stop-color:#0048aa"/>
    </linearGradient>
    <linearGradient id="calcomGrad" x1="0%" y1="0%" x2="100%" y2="0%">
      <stop offset="0%" style="stop-color:#292929"/>
      <stop offset="100%" style="stop-color:#111"/>
    </linearGradient>
    <style>
      .heading-lg { fill: #ffffff; font-family: system-ui, sans-serif; font-size: 20px; font-weight: bold; }
      .heading { fill: #ffffff; font-family: system-ui, sans-serif; font-size: 14px; font-weight: bold; }
      .text-md { fill: #cbd5e1; font-family: system-ui, sans-serif; font-size: 12px; }
      .text-sm { fill: #94a3b8; font-family: system-ui, sans-serif; font-size: 10px; }
      .text-muted { fill: #64748b; font-family: system-ui, sans-serif; font-size: 10px; }
      .annotation { fill: #8b5cf6; font-family: monospace; font-size: 10px; }
      .code { fill: #22c55e; font-family: monospace; font-size: 10px; }
      .label-section { fill: #d946ef; font-family: monospace; font-size: 11px; font-weight: bold; }
    </style>
  </defs>

  <!-- Background -->
  <rect width="1600" height="900" fill="url(#bgGrad)"/>

  <!-- Dot grid pattern -->
  <g opacity="0.05">
    <pattern id="dots" width="30" height="30" patternUnits="userSpaceOnUse">
      <circle cx="15" cy="15" r="1" fill="#fff"/>
    </pattern>
    <rect width="1600" height="900" fill="url(#dots)"/>
  </g>

  <!-- Accent line top -->
  <rect x="0" y="0" width="1600" height="3" fill="url(#accentGrad)"/>

  <!-- Title -->
  <text x="800" y="28" text-anchor="middle" font-family="system-ui, sans-serif" font-size="14" font-weight="600" fill="#64748b" letter-spacing="1">CALENDAR INTEGRATION - THEME ADAPTATION &amp; PROVIDER ABSTRACTION</text>

  <!-- LEFT SECTION: Theme Adaptation -->
  <g transform="translate(40, 50)">
    <text x="0" y="16" class="label-section">THEME ADAPTATION (32 THEMES)</text>

    <!-- Theme Demo Cards -->
    <g transform="translate(0, 30)">
      <!-- Dark Theme Example -->
      <rect x="0" y="0" width="360" height="180" rx="12" fill="#0f172a" stroke="#8b5cf6" stroke-width="2"/>
      <rect x="10" y="10" width="340" height="30" rx="6" fill="#1e293b"/>
      <text x="180" y="30" text-anchor="middle" class="heading">Dark Theme (violet)</text>

      <!-- Mini Calendar Dark -->
      <rect x="20" y="50" width="150" height="120" rx="6" fill="#1e293b"/>
      <text x="95" y="70" text-anchor="middle" class="text-sm">January 2026</text>
      <rect x="30" y="85" width="24" height="18" rx="3" fill="#8b5cf6"/>
      <text x="42" y="98" text-anchor="middle" fill="#fff" font-size="9px">6</text>
      <text x="62" y="98" class="text-muted">7</text>
      <text x="82" y="98" class="text-muted">8</text>
      <text x="102" y="98" class="text-muted">9</text>
      <rect x="30" y="115" width="60" height="20" rx="4" fill="#8b5cf6"/>
      <text x="60" y="129" text-anchor="middle" fill="#fff" font-size="9px">10:00 AM</text>
      <rect x="95" y="115" width="60" height="20" rx="4" fill="#334155"/>
      <text x="125" y="129" text-anchor="middle" class="text-muted">10:30</text>

      <!-- Theme Colors Dark -->
      <g transform="translate(190, 50)">
        <text x="0" y="15" class="annotation">COLORS</text>
        <rect x="0" y="25" width="16" height="16" rx="3" fill="#0f172a" stroke="#475569"/>
        <text x="22" y="37" class="text-muted">bg: #0f172a</text>
        <rect x="0" y="48" width="16" height="16" rx="3" fill="#8b5cf6"/>
        <text x="22" y="60" class="text-muted">primary: #8b5cf6</text>
        <rect x="0" y="71" width="16" height="16" rx="3" fill="#1e293b"/>
        <text x="22" y="83" class="text-muted">card: #1e293b</text>
        <rect x="0" y="94" width="16" height="16" rx="3" fill="#ffffff"/>
        <text x="22" y="106" class="text-muted">text: #ffffff</text>
      </g>
    </g>

    <!-- Light Theme Example -->
    <g transform="translate(0, 220)">
      <rect x="0" y="0" width="360" height="180" rx="12" fill="#f8fafc" stroke="#6366f1" stroke-width="2"/>
      <rect x="10" y="10" width="340" height="30" rx="6" fill="#e2e8f0"/>
      <text x="180" y="30" text-anchor="middle" fill="#1e293b" font-family="system-ui, sans-serif" font-size="14px" font-weight="bold">Light Theme (indigo)</text>

      <!-- Mini Calendar Light -->
      <rect x="20" y="50" width="150" height="120" rx="6" fill="#e2e8f0"/>
      <text x="95" y="70" text-anchor="middle" fill="#475569" font-family="system-ui, sans-serif" font-size="10px">January 2026</text>
      <rect x="30" y="85" width="24" height="18" rx="3" fill="#6366f1"/>
      <text x="42" y="98" text-anchor="middle" fill="#fff" font-size="9px">6</text>
      <text x="62" y="98" fill="#64748b" font-size="10px">7</text>
      <text x="82" y="98" fill="#64748b" font-size="10px">8</text>
      <text x="102" y="98" fill="#64748b" font-size="10px">9</text>
      <rect x="30" y="115" width="60" height="20" rx="4" fill="#6366f1"/>
      <text x="60" y="129" text-anchor="middle" fill="#fff" font-size="9px">10:00 AM</text>
      <rect x="95" y="115" width="60" height="20" rx="4" fill="#cbd5e1"/>
      <text x="125" y="129" text-anchor="middle" fill="#475569" font-size="9px">10:30</text>

      <!-- Theme Colors Light -->
      <g transform="translate(190, 50)">
        <text x="0" y="15" fill="#6366f1" font-family="monospace" font-size="10px">COLORS</text>
        <rect x="0" y="25" width="16" height="16" rx="3" fill="#f8fafc" stroke="#cbd5e1"/>
        <text x="22" y="37" fill="#64748b" font-family="system-ui" font-size="10px">bg: #f8fafc</text>
        <rect x="0" y="48" width="16" height="16" rx="3" fill="#6366f1"/>
        <text x="22" y="60" fill="#64748b" font-family="system-ui" font-size="10px">primary: #6366f1</text>
        <rect x="0" y="71" width="16" height="16" rx="3" fill="#e2e8f0"/>
        <text x="22" y="83" fill="#64748b" font-family="system-ui" font-size="10px">card: #e2e8f0</text>
        <rect x="0" y="94" width="16" height="16" rx="3" fill="#1e293b"/>
        <text x="22" y="106" fill="#64748b" font-family="system-ui" font-size="10px">text: #1e293b</text>
      </g>
    </g>

    <!-- Theme Mapping Logic -->
    <g transform="translate(0, 420)">
      <rect x="0" y="0" width="360" height="200" rx="8" fill="#1e293b" stroke="#475569" stroke-width="1"/>
      <text x="180" y="25" text-anchor="middle" class="annotation">THEME MAPPING FUNCTION</text>

      <text x="15" y="55" class="code">function getCalendarTheme(appTheme) {</text>
      <text x="25" y="75" class="code">  const isDark = appTheme.includes('dark');</text>
      <text x="25" y="95" class="code">  return {</text>
      <text x="35" y="115" class="code">    backgroundColor: isDark ? '#0f172a' : '#fff',</text>
      <text x="35" y="135" class="code">    primaryColor: appTheme.primaryColor,</text>
      <text x="35" y="155" class="code">    textColor: isDark ? '#fff' : '#1e293b',</text>
      <text x="25" y="175" class="code">  };</text>
      <text x="15" y="195" class="code">}</text>
    </g>
  </g>

  <!-- CENTER SECTION: Provider Abstraction Architecture -->
  <g transform="translate(440, 50)">
    <text x="360" y="16" text-anchor="middle" class="label-section">PROVIDER ABSTRACTION ARCHITECTURE</text>

    <!-- Architecture Diagram -->
    <rect x="0" y="30" width="720" height="580" rx="12" fill="#1e293b" stroke="#475569" stroke-width="1"/>

    <!-- App Layer -->
    <g transform="translate(20, 50)">
      <rect x="0" y="0" width="680" height="80" rx="8" fill="#0f172a" stroke="#8b5cf6" stroke-width="2"/>
      <text x="340" y="25" text-anchor="middle" class="annotation">APPLICATION LAYER</text>
      <rect x="20" y="40" width="200" height="30" rx="4" fill="#334155"/>
      <text x="120" y="60" text-anchor="middle" class="text-sm">&lt;SchedulePage /&gt;</text>
      <rect x="240" y="40" width="200" height="30" rx="4" fill="#334155"/>
      <text x="340" y="60" text-anchor="middle" class="text-sm">&lt;CalendarEmbed /&gt;</text>
      <rect x="460" y="40" width="200" height="30" rx="4" fill="#334155"/>
      <text x="560" y="60" text-anchor="middle" class="text-sm">useCalendar()</text>
    </g>

    <!-- Arrow Down -->
    <line x1="360" y1="140" x2="360" y2="170" stroke="#8b5cf6" stroke-width="2"/>
    <polygon points="360,170 354,160 366,160" fill="#8b5cf6"/>

    <!-- Abstraction Layer -->
    <g transform="translate(20, 180)">
      <rect x="0" y="0" width="680" height="100" rx="8" fill="#0f172a" stroke="#d946ef" stroke-width="2"/>
      <text x="340" y="25" text-anchor="middle" class="annotation">ABSTRACTION LAYER (CalendarProvider)</text>

      <!-- Interface -->
      <rect x="180" y="40" width="320" height="50" rx="4" fill="#334155" stroke="#d946ef" stroke-width="1"/>
      <text x="340" y="60" text-anchor="middle" class="code">interface CalendarProvider {</text>
      <text x="340" y="78" text-anchor="middle" class="code">  render(): JSX.Element;</text>
    </g>

    <!-- Arrow Down Split -->
    <line x1="360" y1="290" x2="360" y2="310" stroke="#d946ef" stroke-width="2"/>
    <line x1="360" y1="310" x2="180" y2="340" stroke="#d946ef" stroke-width="2"/>
    <line x1="360" y1="310" x2="540" y2="340" stroke="#d946ef" stroke-width="2"/>
    <polygon points="180,340 190,330 186,342" fill="#d946ef"/>
    <polygon points="540,340 530,330 534,342" fill="#d946ef"/>

    <!-- Provider Implementations -->
    <!-- Calendly -->
    <g transform="translate(20, 350)">
      <rect x="0" y="0" width="300" height="120" rx="8" fill="#0f172a" stroke="#006bff" stroke-width="2"/>
      <rect x="0" y="0" width="300" height="30" rx="8" fill="url(#calendlyGrad)"/>
      <rect x="0" y="20" width="300" height="10" fill="url(#calendlyGrad)"/>
      <text x="150" y="20" text-anchor="middle" fill="#fff" font-family="system-ui, sans-serif" font-size="12px" font-weight="bold">Calendly</text>

      <text x="15" y="55" class="code">class CalendlyProvider {</text>
      <text x="25" y="75" class="code">  embedUrl: string;</text>
      <text x="25" y="95" class="code">  eventType: string;</text>
      <text x="15" y="115" class="code">}</text>
    </g>

    <!-- Cal.com -->
    <g transform="translate(380, 350)">
      <rect x="0" y="0" width="300" height="120" rx="8" fill="#0f172a" stroke="#fff" stroke-width="2"/>
      <rect x="0" y="0" width="300" height="30" rx="8" fill="url(#calcomGrad)"/>
      <rect x="0" y="20" width="300" height="10" fill="url(#calcomGrad)"/>
      <text x="150" y="20" text-anchor="middle" fill="#fff" font-family="system-ui, sans-serif" font-size="12px" font-weight="bold">Cal.com</text>

      <text x="15" y="55" class="code">class CalcomProvider {</text>
      <text x="25" y="75" class="code">  calLink: string;</text>
      <text x="25" y="95" class="code">  namespace: string;</text>
      <text x="15" y="115" class="code">}</text>
    </g>

    <!-- Environment Config -->
    <g transform="translate(20, 490)">
      <rect x="0" y="0" width="660" height="80" rx="8" fill="#0f172a" stroke="#22c55e" stroke-width="2"/>
      <text x="330" y="25" text-anchor="middle" class="annotation">ENVIRONMENT CONFIGURATION</text>

      <text x="20" y="50" class="code">CALENDAR_PROVIDER=calendly | calcom</text>
      <text x="20" y="70" class="code">CALENDAR_URL=https://calendly.com/your-name/30min</text>
    </g>
  </g>

  <!-- RIGHT SECTION: Configuration Examples -->
  <g transform="translate(1200, 50)">
    <text x="180" y="16" text-anchor="middle" class="label-section">CONFIGURATION</text>

    <!-- Calendly Config -->
    <g transform="translate(0, 30)">
      <rect x="0" y="0" width="360" height="160" rx="8" fill="#1e293b" stroke="#006bff" stroke-width="2"/>
      <rect x="0" y="0" width="360" height="28" rx="8" fill="#006bff"/>
      <rect x="0" y="20" width="360" height="8" fill="#006bff"/>
      <text x="180" y="18" text-anchor="middle" fill="#fff" font-family="system-ui, sans-serif" font-size="11px" font-weight="bold">CALENDLY CONFIGURATION</text>

      <text x="15" y="55" class="code">.env.local</text>
      <rect x="10" y="65" width="340" height="85" rx="4" fill="#0f172a"/>
      <text x="20" y="85" class="text-sm">CALENDAR_PROVIDER=calendly</text>
      <text x="20" y="105" class="text-sm">CALENDLY_URL=calendly.com/name</text>
      <text x="20" y="125" class="text-sm">CALENDLY_EVENT=30min</text>
      <text x="20" y="145" class="text-sm">CALENDLY_HIDE_DETAILS=false</text>
    </g>

    <!-- Cal.com Config -->
    <g transform="translate(0, 210)">
      <rect x="0" y="0" width="360" height="160" rx="8" fill="#1e293b" stroke="#fff" stroke-width="2"/>
      <rect x="0" y="0" width="360" height="28" rx="8" fill="#292929"/>
      <rect x="0" y="20" width="360" height="8" fill="#292929"/>
      <text x="180" y="18" text-anchor="middle" fill="#fff" font-family="system-ui, sans-serif" font-size="11px" font-weight="bold">CAL.COM CONFIGURATION</text>

      <text x="15" y="55" class="code">.env.local</text>
      <rect x="10" y="65" width="340" height="85" rx="4" fill="#0f172a"/>
      <text x="20" y="85" class="text-sm">CALENDAR_PROVIDER=calcom</text>
      <text x="20" y="105" class="text-sm">CALCOM_LINK=cal.com/name</text>
      <text x="20" y="125" class="text-sm">CALCOM_NAMESPACE=scripthammer</text>
      <text x="20" y="145" class="text-sm">CALCOM_HIDE_BRANDING=true</text>
    </g>

    <!-- Switching Providers -->
    <g transform="translate(0, 390)">
      <rect x="0" y="0" width="360" height="230" rx="8" fill="#1e293b" stroke="#8b5cf6" stroke-width="2"/>
      <text x="180" y="25" text-anchor="middle" class="annotation">ZERO-CODE PROVIDER SWITCH</text>

      <!-- Step 1 -->
      <rect x="20" y="45" width="24" height="24" rx="12" fill="#8b5cf6"/>
      <text x="32" y="62" text-anchor="middle" fill="#fff" font-size="11px" font-weight="bold">1</text>
      <text x="55" y="62" class="text-md">Edit .env.local</text>
      <rect x="20" y="75" width="320" height="30" rx="4" fill="#0f172a"/>
      <text x="30" y="95" class="code">CALENDAR_PROVIDER=calcom</text>

      <!-- Step 2 -->
      <rect x="20" y="120" width="24" height="24" rx="12" fill="#8b5cf6"/>
      <text x="32" y="137" text-anchor="middle" fill="#fff" font-size="11px" font-weight="bold">2</text>
      <text x="55" y="137" class="text-md">Redeploy application</text>
      <rect x="20" y="150" width="320" height="30" rx="4" fill="#0f172a"/>
      <text x="30" y="170" class="code">npm run build &amp;&amp; npm run deploy</text>

      <!-- Result -->
      <rect x="20" y="195" width="320" height="25" rx="4" fill="#22c55e" opacity="0.2"/>
      <text x="180" y="212" text-anchor="middle" fill="#22c55e" font-family="system-ui, sans-serif" font-size="11px">✓ New provider active - no code changes</text>
    </g>
  </g>

  <!-- Bottom: Requirements Summary -->
  <g transform="translate(40, 660)">
    <rect x="0" y="0" width="1520" height="220" rx="12" fill="#1e293b" stroke="#475569" stroke-width="1"/>
    <text x="760" y="30" text-anchor="middle" class="heading-lg">REQUIREMENTS COVERAGE</text>

    <!-- FR columns -->
    <g transform="translate(20, 50)">
      <!-- Col 1: Embed -->
      <rect x="0" y="0" width="290" height="150" rx="6" fill="#0f172a"/>
      <text x="145" y="25" text-anchor="middle" class="annotation">CALENDAR EMBED (FR-001–004)</text>
      <text x="15" y="50" class="text-sm">✓ Responsive across viewports</text>
      <text x="15" y="70" class="text-sm">✓ Inline and popup modes</text>
      <text x="15" y="90" class="text-sm">✓ Loading state with spinner</text>
      <text x="15" y="110" class="text-sm">✓ Graceful error handling</text>
      <text x="15" y="130" class="text-sm">✓ Fallback for unsupported browsers</text>
    </g>

    <g transform="translate(320, 50)">
      <!-- Col 2: Provider -->
      <rect x="0" y="0" width="290" height="150" rx="6" fill="#0f172a"/>
      <text x="145" y="25" text-anchor="middle" class="annotation">PROVIDER ABSTRACTION (FR-005–009)</text>
      <text x="15" y="50" class="text-sm">✓ Calendly provider support</text>
      <text x="15" y="70" class="text-sm">✓ Cal.com provider support</text>
      <text x="15" y="90" class="text-sm">✓ Environment-based selection</text>
      <text x="15" y="110" class="text-sm">✓ Event type configuration</text>
      <text x="15" y="130" class="text-sm">✓ Zero-code provider switching</text>
    </g>

    <g transform="translate(620, 50)">
      <!-- Col 3: Theme -->
      <rect x="0" y="0" width="290" height="150" rx="6" fill="#0f172a"/>
      <text x="145" y="25" text-anchor="middle" class="annotation">THEME INTEGRATION (FR-010–013)</text>
      <text x="15" y="50" class="text-sm">✓ Adapts to current app theme</text>
      <text x="15" y="70" class="text-sm">✓ Supports all 32 themes</text>
      <text x="15" y="90" class="text-sm">✓ Dynamic theme updates</text>
      <text x="15" y="110" class="text-sm">✓ WCAG AA contrast maintained</text>
      <text x="15" y="130" class="text-sm">✓ Color mapping function</text>
    </g>

    <g transform="translate(920, 50)">
      <!-- Col 4: Consent -->
      <rect x="0" y="0" width="290" height="150" rx="6" fill="#0f172a"/>
      <text x="145" y="25" text-anchor="middle" class="annotation">CONSENT &amp; ANALYTICS (FR-014–022)</text>
      <text x="15" y="50" class="text-sm">✓ Blocks loading without consent</text>
      <text x="15" y="70" class="text-sm">✓ Shows consent prompt</text>
      <text x="15" y="90" class="text-sm">✓ Remembers consent status</text>
      <text x="15" y="110" class="text-sm">✓ Tracks calendar events</text>
      <text x="15" y="130" class="text-sm">✓ UTM parameter support</text>
    </g>

    <g transform="translate(1220, 50)">
      <!-- Col 5: NFR -->
      <rect x="0" y="0" width="280" height="150" rx="6" fill="#0f172a"/>
      <text x="140" y="25" text-anchor="middle" class="annotation">NON-FUNCTIONAL (NFR-001–011)</text>
      <text x="15" y="50" class="text-sm">✓ &lt;2s load time post-consent</text>
      <text x="15" y="70" class="text-sm">✓ CLS &lt; 0.1</text>
      <text x="15" y="90" class="text-sm">✓ &lt;15KB bundle addition</text>
      <text x="15" y="110" class="text-sm">✓ Non-blocking initial load</text>
      <text x="15" y="130" class="text-sm">✓ Browser compatibility</text>
    </g>
  </g>

</svg>