<svg xmlns="http://www.w3.org/2000/svg" viewBox="0 0 1400 800" width="1400" height="800">
  <!-- ============================================================
       GENERATED BY: /wireframe skill
       SOURCE: features/polish/030-calendar-integration/spec.md
       DATE: 2026-01-01
       THEME: Light (UX/Frontend) - v3 True Parchment
       DO NOT MANUALLY EDIT - Regenerate with /wireframe command
       ============================================================ -->
  <defs>
    <linearGradient id="bgGrad" x1="0%" y1="0%" x2="100%" y2="100%">
      <stop offset="0%" style="stop-color:#c7ddf5"/>
      <stop offset="100%" style="stop-color:#b8d4f0"/>
    </linearGradient>
    <linearGradient id="accentGrad" x1="0%" y1="0%" x2="100%" y2="0%">
      <stop offset="0%" style="stop-color:#8b5cf6"/>
      <stop offset="100%" style="stop-color:#d946ef"/>
    </linearGradient>
    <style>
      .heading-lg { fill: #1a1a2e; font-family: system-ui, sans-serif; font-size: 24px; font-weight: 800; }
      .heading { fill: #1a1a2e; font-family: system-ui, sans-serif; font-size: 16px; font-weight: 700; }
      .heading-sm { fill: #1a1a2e; font-family: system-ui, sans-serif; font-size: 14px; font-weight: 700; }
      .text-md { fill: #2d3748; font-family: system-ui, sans-serif; font-size: 14px; font-weight: 500; }
      .text-sm { fill: #374151; font-family: system-ui, sans-serif; font-size: 12px; font-weight: 500; }
      .text-muted { fill: #4b5563; font-family: system-ui, sans-serif; font-size: 11px; font-weight: 500; }
      .annotation { fill: #6d28d9; font-family: monospace; font-size: 12px; font-weight: 600; }
      .label-desktop { fill: #8b5cf6; font-family: monospace; font-size: 13px; font-weight: bold; }
      .label-mobile { fill: #d946ef; font-family: monospace; font-size: 13px; font-weight: bold; }
    </style>
  </defs>

  <!-- Background -->
  <rect width="1400" height="800" fill="url(#bgGrad)"/>

  <!-- Dot grid pattern -->
  <g opacity="0.35">
    <pattern id="dots" width="30" height="30" patternUnits="userSpaceOnUse">
      <circle cx="15" cy="15" r="1" fill="#6b8cba"/>
    </pattern>
    <rect width="1400" height="800" fill="url(#dots)"/>
  </g>

  <!-- Accent line top -->
  <rect x="0" y="0" width="1400" height="3" fill="url(#accentGrad)"/>

  <!-- Title -->
  <text x="700" y="28" text-anchor="middle" font-family="system-ui, sans-serif" font-size="14" font-weight="600" fill="#4b5563" letter-spacing="1">CALENDAR INTEGRATION — THEME ADAPTATION (32 THEMES)</text>

  <!-- LIGHT THEME CALENDAR -->
  <text x="40" y="52" class="label-desktop">LIGHT THEME — DEFAULT</text>
  <g id="light-theme">
    <rect x="40" y="60" width="420" height="340" rx="8" fill="#ffffff" stroke="#e5e7eb" stroke-width="1"/>

    <!-- Header -->
    <rect x="40" y="60" width="420" height="45" rx="8" fill="#f9fafb"/>
    <text x="250" y="88" text-anchor="middle" class="heading" fill="#111827">January 2026</text>
    <text x="70" y="88" class="text-md" fill="#6b7280">◀</text>
    <text x="430" y="88" class="text-md" fill="#6b7280">▶</text>

    <!-- Calendar grid light -->
    <g transform="translate(55, 115)">
      <!-- Days header -->
      <text x="27" y="15" text-anchor="middle" fill="#9ca3af" font-family="system-ui, sans-serif" font-size="11">S</text>
      <text x="82" y="15" text-anchor="middle" fill="#9ca3af" font-family="system-ui, sans-serif" font-size="11">M</text>
      <text x="137" y="15" text-anchor="middle" fill="#9ca3af" font-family="system-ui, sans-serif" font-size="11">T</text>
      <text x="192" y="15" text-anchor="middle" fill="#9ca3af" font-family="system-ui, sans-serif" font-size="11">W</text>
      <text x="247" y="15" text-anchor="middle" fill="#9ca3af" font-family="system-ui, sans-serif" font-size="11">T</text>
      <text x="302" y="15" text-anchor="middle" fill="#9ca3af" font-family="system-ui, sans-serif" font-size="11">F</text>
      <text x="357" y="15" text-anchor="middle" fill="#9ca3af" font-family="system-ui, sans-serif" font-size="11">S</text>

      <!-- Week row -->
      <g transform="translate(0, 30)">
        <rect x="0" y="0" width="52" height="40" rx="4" fill="#f3f4f6"/>
        <text x="27" y="26" text-anchor="middle" fill="#9ca3af" font-family="system-ui, sans-serif" font-size="13">5</text>

        <rect x="55" y="0" width="52" height="40" rx="4" fill="#ffffff" stroke="#10b981" stroke-width="2"/>
        <text x="82" y="26" text-anchor="middle" fill="#10b981" font-family="system-ui, sans-serif" font-size="13" font-weight="600">6</text>

        <rect x="110" y="0" width="52" height="40" rx="4" fill="#6366f1"/>
        <text x="137" y="26" text-anchor="middle" fill="#ffffff" font-family="system-ui, sans-serif" font-size="13" font-weight="700">7</text>

        <rect x="165" y="0" width="52" height="40" rx="4" fill="#ffffff" stroke="#10b981" stroke-width="2"/>
        <text x="192" y="26" text-anchor="middle" fill="#10b981" font-family="system-ui, sans-serif" font-size="13" font-weight="600">8</text>

        <rect x="220" y="0" width="52" height="40" rx="4" fill="#ffffff" stroke="#10b981" stroke-width="2"/>
        <text x="247" y="26" text-anchor="middle" fill="#10b981" font-family="system-ui, sans-serif" font-size="13" font-weight="600">9</text>

        <rect x="275" y="0" width="52" height="40" rx="4" fill="#ffffff" stroke="#10b981" stroke-width="2"/>
        <text x="302" y="26" text-anchor="middle" fill="#10b981" font-family="system-ui, sans-serif" font-size="13" font-weight="600">10</text>

        <rect x="330" y="0" width="52" height="40" rx="4" fill="#f3f4f6"/>
        <text x="357" y="26" text-anchor="middle" fill="#9ca3af" font-family="system-ui, sans-serif" font-size="13">11</text>
      </g>

      <!-- Second week row -->
      <g transform="translate(0, 80)">
        <rect x="0" y="0" width="52" height="40" rx="4" fill="#f3f4f6"/>
        <text x="27" y="26" text-anchor="middle" fill="#9ca3af" font-family="system-ui, sans-serif" font-size="13">12</text>

        <rect x="55" y="0" width="52" height="40" rx="4" fill="#ffffff" stroke="#10b981" stroke-width="2"/>
        <text x="82" y="26" text-anchor="middle" fill="#10b981" font-family="system-ui, sans-serif" font-size="13" font-weight="600">13</text>

        <rect x="110" y="0" width="52" height="40" rx="4" fill="#ffffff" stroke="#10b981" stroke-width="2"/>
        <text x="137" y="26" text-anchor="middle" fill="#10b981" font-family="system-ui, sans-serif" font-size="13" font-weight="600">14</text>

        <rect x="165" y="0" width="52" height="40" rx="4" fill="#ffffff" stroke="#10b981" stroke-width="2"/>
        <text x="192" y="26" text-anchor="middle" fill="#10b981" font-family="system-ui, sans-serif" font-size="13" font-weight="600">15</text>

        <rect x="220" y="0" width="52" height="40" rx="4" fill="#ffffff" stroke="#10b981" stroke-width="2"/>
        <text x="247" y="26" text-anchor="middle" fill="#10b981" font-family="system-ui, sans-serif" font-size="13" font-weight="600">16</text>

        <rect x="275" y="0" width="52" height="40" rx="4" fill="#ffffff" stroke="#10b981" stroke-width="2"/>
        <text x="302" y="26" text-anchor="middle" fill="#10b981" font-family="system-ui, sans-serif" font-size="13" font-weight="600">17</text>

        <rect x="330" y="0" width="52" height="40" rx="4" fill="#f3f4f6"/>
        <text x="357" y="26" text-anchor="middle" fill="#9ca3af" font-family="system-ui, sans-serif" font-size="13">18</text>
      </g>
    </g>

    <!-- Time slots light theme -->
    <g transform="translate(55, 290)">
      <rect x="0" y="0" width="90" height="36" rx="6" fill="#ffffff" stroke="#e5e7eb" stroke-width="1"/>
      <text x="45" y="23" text-anchor="middle" fill="#374151" font-family="system-ui, sans-serif" font-size="12">9:00</text>

      <rect x="100" y="0" width="90" height="36" rx="6" fill="#6366f1"/>
      <text x="145" y="23" text-anchor="middle" fill="#ffffff" font-family="system-ui, sans-serif" font-size="12" font-weight="600">10:00</text>

      <rect x="200" y="0" width="90" height="36" rx="6" fill="#ffffff" stroke="#e5e7eb" stroke-width="1"/>
      <text x="245" y="23" text-anchor="middle" fill="#374151" font-family="system-ui, sans-serif" font-size="12">11:00</text>

      <rect x="300" y="0" width="90" height="36" rx="6" fill="#ffffff" stroke="#e5e7eb" stroke-width="1"/>
      <text x="345" y="23" text-anchor="middle" fill="#374151" font-family="system-ui, sans-serif" font-size="12">2:00</text>
    </g>

    <!-- Theme label -->
    <rect x="330" y="350" width="120" height="28" rx="4" fill="#f3f4f6" stroke="#e5e7eb" stroke-width="1"/>
    <text x="390" y="369" text-anchor="middle" fill="#374151" font-family="system-ui, sans-serif" font-size="11">Theme: Light</text>
  </g>

  <!-- DARK THEME CALENDAR -->
  <text x="480" y="52" class="label-desktop">DARK THEME</text>
  <g id="dark-theme">
    <rect x="480" y="60" width="420" height="340" rx="8" fill="#1f2937" stroke="#374151" stroke-width="1"/>

    <!-- Header -->
    <rect x="480" y="60" width="420" height="45" rx="8" fill="#111827"/>
    <text x="690" y="88" text-anchor="middle" fill="#f9fafb" font-family="system-ui, sans-serif" font-size="16" font-weight="700">January 2026</text>
    <text x="510" y="88" fill="#9ca3af" font-family="system-ui, sans-serif" font-size="14">◀</text>
    <text x="870" y="88" fill="#9ca3af" font-family="system-ui, sans-serif" font-size="14">▶</text>

    <!-- Calendar grid dark -->
    <g transform="translate(495, 115)">
      <!-- Days header -->
      <text x="27" y="15" text-anchor="middle" fill="#6b7280" font-family="system-ui, sans-serif" font-size="11">S</text>
      <text x="82" y="15" text-anchor="middle" fill="#6b7280" font-family="system-ui, sans-serif" font-size="11">M</text>
      <text x="137" y="15" text-anchor="middle" fill="#6b7280" font-family="system-ui, sans-serif" font-size="11">T</text>
      <text x="192" y="15" text-anchor="middle" fill="#6b7280" font-family="system-ui, sans-serif" font-size="11">W</text>
      <text x="247" y="15" text-anchor="middle" fill="#6b7280" font-family="system-ui, sans-serif" font-size="11">T</text>
      <text x="302" y="15" text-anchor="middle" fill="#6b7280" font-family="system-ui, sans-serif" font-size="11">F</text>
      <text x="357" y="15" text-anchor="middle" fill="#6b7280" font-family="system-ui, sans-serif" font-size="11">S</text>

      <!-- Week row -->
      <g transform="translate(0, 30)">
        <rect x="0" y="0" width="52" height="40" rx="4" fill="#374151"/>
        <text x="27" y="26" text-anchor="middle" fill="#6b7280" font-family="system-ui, sans-serif" font-size="13">5</text>

        <rect x="55" y="0" width="52" height="40" rx="4" fill="#1f2937" stroke="#10b981" stroke-width="2"/>
        <text x="82" y="26" text-anchor="middle" fill="#10b981" font-family="system-ui, sans-serif" font-size="13" font-weight="600">6</text>

        <rect x="110" y="0" width="52" height="40" rx="4" fill="#8b5cf6"/>
        <text x="137" y="26" text-anchor="middle" fill="#ffffff" font-family="system-ui, sans-serif" font-size="13" font-weight="700">7</text>

        <rect x="165" y="0" width="52" height="40" rx="4" fill="#1f2937" stroke="#10b981" stroke-width="2"/>
        <text x="192" y="26" text-anchor="middle" fill="#10b981" font-family="system-ui, sans-serif" font-size="13" font-weight="600">8</text>

        <rect x="220" y="0" width="52" height="40" rx="4" fill="#1f2937" stroke="#10b981" stroke-width="2"/>
        <text x="247" y="26" text-anchor="middle" fill="#10b981" font-family="system-ui, sans-serif" font-size="13" font-weight="600">9</text>

        <rect x="275" y="0" width="52" height="40" rx="4" fill="#1f2937" stroke="#10b981" stroke-width="2"/>
        <text x="302" y="26" text-anchor="middle" fill="#10b981" font-family="system-ui, sans-serif" font-size="13" font-weight="600">10</text>

        <rect x="330" y="0" width="52" height="40" rx="4" fill="#374151"/>
        <text x="357" y="26" text-anchor="middle" fill="#6b7280" font-family="system-ui, sans-serif" font-size="13">11</text>
      </g>

      <!-- Second week row -->
      <g transform="translate(0, 80)">
        <rect x="0" y="0" width="52" height="40" rx="4" fill="#374151"/>
        <text x="27" y="26" text-anchor="middle" fill="#6b7280" font-family="system-ui, sans-serif" font-size="13">12</text>

        <rect x="55" y="0" width="52" height="40" rx="4" fill="#1f2937" stroke="#10b981" stroke-width="2"/>
        <text x="82" y="26" text-anchor="middle" fill="#10b981" font-family="system-ui, sans-serif" font-size="13" font-weight="600">13</text>

        <rect x="110" y="0" width="52" height="40" rx="4" fill="#1f2937" stroke="#10b981" stroke-width="2"/>
        <text x="137" y="26" text-anchor="middle" fill="#10b981" font-family="system-ui, sans-serif" font-size="13" font-weight="600">14</text>

        <rect x="165" y="0" width="52" height="40" rx="4" fill="#1f2937" stroke="#10b981" stroke-width="2"/>
        <text x="192" y="26" text-anchor="middle" fill="#10b981" font-family="system-ui, sans-serif" font-size="13" font-weight="600">15</text>

        <rect x="220" y="0" width="52" height="40" rx="4" fill="#1f2937" stroke="#10b981" stroke-width="2"/>
        <text x="247" y="26" text-anchor="middle" fill="#10b981" font-family="system-ui, sans-serif" font-size="13" font-weight="600">16</text>

        <rect x="275" y="0" width="52" height="40" rx="4" fill="#1f2937" stroke="#10b981" stroke-width="2"/>
        <text x="302" y="26" text-anchor="middle" fill="#10b981" font-family="system-ui, sans-serif" font-size="13" font-weight="600">17</text>

        <rect x="330" y="0" width="52" height="40" rx="4" fill="#374151"/>
        <text x="357" y="26" text-anchor="middle" fill="#6b7280" font-family="system-ui, sans-serif" font-size="13">18</text>
      </g>
    </g>

    <!-- Time slots dark theme -->
    <g transform="translate(495, 290)">
      <rect x="0" y="0" width="90" height="36" rx="6" fill="#374151" stroke="#4b5563" stroke-width="1"/>
      <text x="45" y="23" text-anchor="middle" fill="#d1d5db" font-family="system-ui, sans-serif" font-size="12">9:00</text>

      <rect x="100" y="0" width="90" height="36" rx="6" fill="#8b5cf6"/>
      <text x="145" y="23" text-anchor="middle" fill="#ffffff" font-family="system-ui, sans-serif" font-size="12" font-weight="600">10:00</text>

      <rect x="200" y="0" width="90" height="36" rx="6" fill="#374151" stroke="#4b5563" stroke-width="1"/>
      <text x="245" y="23" text-anchor="middle" fill="#d1d5db" font-family="system-ui, sans-serif" font-size="12">11:00</text>

      <rect x="300" y="0" width="90" height="36" rx="6" fill="#374151" stroke="#4b5563" stroke-width="1"/>
      <text x="345" y="23" text-anchor="middle" fill="#d1d5db" font-family="system-ui, sans-serif" font-size="12">2:00</text>
    </g>

    <!-- Theme label -->
    <rect x="770" y="350" width="120" height="28" rx="4" fill="#374151" stroke="#4b5563" stroke-width="1"/>
    <text x="830" y="369" text-anchor="middle" fill="#d1d5db" font-family="system-ui, sans-serif" font-size="11">Theme: Dark</text>
  </g>

  <!-- THEME GRID SHOWCASE -->
  <text x="40" y="420" class="label-desktop">32 THEME COLOR MAPPING</text>
  <g id="theme-grid" transform="translate(40, 435)">
    <!-- Row 1: Light themes -->
    <rect x="0" y="0" width="52" height="35" rx="4" fill="#ffffff" stroke="#e5e7eb"/>
    <rect x="60" y="0" width="52" height="35" rx="4" fill="#fefce8" stroke="#fef08a"/>
    <rect x="120" y="0" width="52" height="35" rx="4" fill="#f0fdf4" stroke="#86efac"/>
    <rect x="180" y="0" width="52" height="35" rx="4" fill="#ecfeff" stroke="#67e8f9"/>
    <rect x="240" y="0" width="52" height="35" rx="4" fill="#eef2ff" stroke="#a5b4fc"/>
    <rect x="300" y="0" width="52" height="35" rx="4" fill="#fdf4ff" stroke="#e879f9"/>
    <rect x="360" y="0" width="52" height="35" rx="4" fill="#fff1f2" stroke="#fda4af"/>
    <rect x="420" y="0" width="52" height="35" rx="4" fill="#fef3c7" stroke="#fcd34d"/>

    <!-- Row 2: More light themes -->
    <rect x="0" y="45" width="52" height="35" rx="4" fill="#f1f5f9" stroke="#cbd5e1"/>
    <rect x="60" y="45" width="52" height="35" rx="4" fill="#f5f5f4" stroke="#d6d3d1"/>
    <rect x="120" y="45" width="52" height="35" rx="4" fill="#fafaf9" stroke="#e7e5e4"/>
    <rect x="180" y="45" width="52" height="35" rx="4" fill="#fffbeb" stroke="#fde68a"/>
    <rect x="240" y="45" width="52" height="35" rx="4" fill="#f0fdfa" stroke="#99f6e4"/>
    <rect x="300" y="45" width="52" height="35" rx="4" fill="#f5f3ff" stroke="#c4b5fd"/>
    <rect x="360" y="45" width="52" height="35" rx="4" fill="#fdf2f8" stroke="#f9a8d4"/>
    <rect x="420" y="45" width="52" height="35" rx="4" fill="#fff7ed" stroke="#fed7aa"/>

    <!-- Row 3: Dark themes -->
    <rect x="0" y="100" width="52" height="35" rx="4" fill="#0f172a" stroke="#334155"/>
    <rect x="60" y="100" width="52" height="35" rx="4" fill="#18181b" stroke="#3f3f46"/>
    <rect x="120" y="100" width="52" height="35" rx="4" fill="#171717" stroke="#404040"/>
    <rect x="180" y="100" width="52" height="35" rx="4" fill="#1c1917" stroke="#44403c"/>
    <rect x="240" y="100" width="52" height="35" rx="4" fill="#14532d" stroke="#166534"/>
    <rect x="300" y="100" width="52" height="35" rx="4" fill="#1e1b4b" stroke="#312e81"/>
    <rect x="360" y="100" width="52" height="35" rx="4" fill="#4c0519" stroke="#881337"/>
    <rect x="420" y="100" width="52" height="35" rx="4" fill="#422006" stroke="#78350f"/>

    <!-- Row 4: More dark themes -->
    <rect x="0" y="145" width="52" height="35" rx="4" fill="#1e293b" stroke="#475569"/>
    <rect x="60" y="145" width="52" height="35" rx="4" fill="#27272a" stroke="#52525b"/>
    <rect x="120" y="145" width="52" height="35" rx="4" fill="#262626" stroke="#525252"/>
    <rect x="180" y="145" width="52" height="35" rx="4" fill="#292524" stroke="#57534e"/>
    <rect x="240" y="145" width="52" height="35" rx="4" fill="#134e4a" stroke="#0f766e"/>
    <rect x="300" y="145" width="52" height="35" rx="4" fill="#1e3a8a" stroke="#1d4ed8"/>
    <rect x="360" y="145" width="52" height="35" rx="4" fill="#581c87" stroke="#7e22ce"/>
    <rect x="420" y="145" width="52" height="35" rx="4" fill="#713f12" stroke="#a16207"/>

    <!-- Labels -->
    <text x="235" y="215" text-anchor="middle" class="text-muted">Light themes (16)</text>
    <text x="235" y="90" text-anchor="middle" class="text-muted" fill="#374151">↑</text>
    <text x="235" y="235" text-anchor="middle" class="text-muted">Dark themes (16)</text>
  </g>

  <!-- MOBILE: Theme Switcher -->
  <text x="980" y="52" class="label-mobile">MOBILE — LIVE SWITCH</text>
  <g id="mobile-view" transform="translate(980, 60)">
    <!-- Phone frame -->
    <rect x="0" y="0" width="360" height="700" rx="24" fill="#c8b898" stroke="#a08860" stroke-width="2"/>
    <rect x="10" y="10" width="340" height="680" rx="16" fill="#e8d4b8"/>

    <!-- Status bar -->
    <rect x="10" y="10" width="340" height="28" rx="16" fill="#dcc8a8"/>
    <text x="30" y="28" class="text-sm">9:41</text>
    <text x="320" y="28" class="text-sm" text-anchor="end">📶 🔋</text>

    <!-- Header -->
    <rect x="10" y="38" width="340" height="50" fill="#dcc8a8"/>
    <text x="30" y="68" class="text-sm">←</text>
    <text x="180" y="68" text-anchor="middle" class="heading-sm">Schedule</text>

    <!-- Theme toggle -->
    <g transform="translate(20, 100)">
      <rect x="0" y="0" width="320" height="45" rx="6" fill="#f5f0e6" stroke="#b8a080" stroke-width="1"/>
      <text x="15" y="28" class="text-sm">Theme:</text>
      <rect x="80" y="8" width="100" height="30" rx="15" fill="#8b5cf6"/>
      <text x="130" y="28" text-anchor="middle" fill="#fff" font-family="system-ui, sans-serif" font-size="11" font-weight="600">Cupcake</text>
      <text x="195" y="28" class="text-sm" fill="#8b5cf6">▼</text>

      <!-- Sync indicator -->
      <text x="270" y="28" class="text-muted">🔄 Synced</text>
    </g>

    <!-- Calendar in matching theme -->
    <g transform="translate(20, 160)">
      <rect x="0" y="0" width="320" height="200" rx="8" fill="#fce7f3" stroke="#fbcfe8" stroke-width="1"/>

      <!-- Month header -->
      <rect x="0" y="0" width="320" height="35" rx="8" fill="#f9a8d4"/>
      <text x="160" y="23" text-anchor="middle" fill="#831843" font-family="system-ui, sans-serif" font-size="14" font-weight="700">January 2026</text>

      <!-- Days -->
      <g transform="translate(15, 50)">
        <text x="20" y="12" text-anchor="middle" fill="#9d174d" font-family="system-ui, sans-serif" font-size="10">S</text>
        <text x="62" y="12" text-anchor="middle" fill="#9d174d" font-family="system-ui, sans-serif" font-size="10">M</text>
        <text x="104" y="12" text-anchor="middle" fill="#9d174d" font-family="system-ui, sans-serif" font-size="10">T</text>
        <text x="146" y="12" text-anchor="middle" fill="#9d174d" font-family="system-ui, sans-serif" font-size="10">W</text>
        <text x="188" y="12" text-anchor="middle" fill="#9d174d" font-family="system-ui, sans-serif" font-size="10">T</text>
        <text x="230" y="12" text-anchor="middle" fill="#9d174d" font-family="system-ui, sans-serif" font-size="10">F</text>
        <text x="272" y="12" text-anchor="middle" fill="#9d174d" font-family="system-ui, sans-serif" font-size="10">S</text>

        <!-- Date row -->
        <rect x="42" y="25" width="38" height="32" rx="4" fill="#db2777"/>
        <text x="62" y="46" text-anchor="middle" fill="#fff" font-family="system-ui, sans-serif" font-size="12" font-weight="700">7</text>

        <rect x="84" y="25" width="38" height="32" rx="4" fill="#fce7f3" stroke="#ec4899" stroke-width="1"/>
        <text x="104" y="46" text-anchor="middle" fill="#db2777" font-family="system-ui, sans-serif" font-size="12">8</text>

        <rect x="126" y="25" width="38" height="32" rx="4" fill="#fce7f3" stroke="#ec4899" stroke-width="1"/>
        <text x="146" y="46" text-anchor="middle" fill="#db2777" font-family="system-ui, sans-serif" font-size="12">9</text>

        <rect x="168" y="25" width="38" height="32" rx="4" fill="#fce7f3" stroke="#ec4899" stroke-width="1"/>
        <text x="188" y="46" text-anchor="middle" fill="#db2777" font-family="system-ui, sans-serif" font-size="12">10</text>
      </g>

      <!-- Time slots -->
      <g transform="translate(15, 130)">
        <rect x="0" y="0" width="90" height="32" rx="4" fill="#db2777"/>
        <text x="45" y="21" text-anchor="middle" fill="#fff" font-family="system-ui, sans-serif" font-size="11" font-weight="600">10:00 ✓</text>

        <rect x="100" y="0" width="90" height="32" rx="4" fill="#fce7f3" stroke="#f9a8d4"/>
        <text x="145" y="21" text-anchor="middle" fill="#9d174d" font-family="system-ui, sans-serif" font-size="11">11:00</text>

        <rect x="200" y="0" width="90" height="32" rx="4" fill="#fce7f3" stroke="#f9a8d4"/>
        <text x="245" y="21" text-anchor="middle" fill="#9d174d" font-family="system-ui, sans-serif" font-size="11">2:00</text>
      </g>
    </g>

    <!-- Theme matches label -->
    <rect x="20" y="375" width="320" height="40" rx="6" fill="#22c55e" opacity="0.15" stroke="#22c55e" stroke-width="1"/>
    <text x="35" y="400" fill="#166534" font-family="system-ui, sans-serif" font-size="12" font-weight="600">✓ Calendar matches "Cupcake" theme</text>

    <!-- Continue button -->
    <rect x="20" y="440" width="320" height="48" rx="6" fill="#db2777"/>
    <text x="180" y="470" text-anchor="middle" fill="#fff" font-family="system-ui, sans-serif" font-size="15" font-weight="700">Continue →</text>

    <!-- How it works -->
    <g transform="translate(20, 510)">
      <text x="0" y="0" class="heading-sm">Theme Sync Process</text>
      <text x="0" y="22" class="text-muted">1. Detect app theme (CSS variables)</text>
      <text x="0" y="40" class="text-muted">2. Map to provider theme palette</text>
      <text x="0" y="58" class="text-muted">3. Apply via embed parameters</text>
      <text x="0" y="76" class="text-muted">4. Update on theme change event</text>
    </g>

    <!-- Mobile nav bar -->
    <rect x="10" y="658" width="340" height="32" fill="#dcc8a8" rx="0 0 16 16"/>
    <text x="85" y="678" text-anchor="middle" class="text-muted">🏠 Home</text>
    <text x="180" y="678" text-anchor="middle" class="text-sm" fill="#8b5cf6">📅 Schedule</text>
    <text x="275" y="678" text-anchor="middle" class="text-muted">🎨 Theme</text>
  </g>

  <!-- Annotations -->
  <g id="annotations">
    <rect x="100" y="745" width="130" height="35" rx="4" fill="#e8d4b8" stroke="#8b5cf6" stroke-width="1"/>
    <text x="165" y="760" text-anchor="middle" class="annotation">FR-010-013</text>
    <text x="165" y="775" text-anchor="middle" class="text-muted">Theme adaptation</text>

    <rect x="400" y="745" width="150" height="35" rx="4" fill="#e8d4b8" stroke="#8b5cf6" stroke-width="1"/>
    <text x="475" y="760" text-anchor="middle" class="annotation">User Story 3</text>
    <text x="475" y="775" text-anchor="middle" class="text-muted">32 theme support</text>

    <rect x="700" y="745" width="150" height="35" rx="4" fill="#e8d4b8" stroke="#8b5cf6" stroke-width="1"/>
    <text x="775" y="760" text-anchor="middle" class="annotation">NFR-010</text>
    <text x="775" y="775" text-anchor="middle" class="text-muted">WCAG AA contrast</text>
  </g>
</svg>