<svg xmlns="http://www.w3.org/2000/svg" viewBox="0 0 1400 800" width="1400" height="800">
  <!-- ============================================================
       GENERATED BY: /wireframe skill
       SOURCE: features/polish/030-calendar-integration/spec.md
       DATE: 2026-01-01
       THEME: Dark (Backend/Architecture)
       DO NOT MANUALLY EDIT - Regenerate with /wireframe command
       ============================================================ -->
  <defs>
    <linearGradient id="bgGrad" x1="0%" y1="0%" x2="100%" y2="100%">
      <stop offset="0%" style="stop-color:#0f172a"/>
      <stop offset="100%" style="stop-color:#1e293b"/>
    </linearGradient>
    <linearGradient id="accentGrad" x1="0%" y1="0%" x2="100%" y2="0%">
      <stop offset="0%" style="stop-color:#8b5cf6"/>
      <stop offset="100%" style="stop-color:#d946ef"/>
    </linearGradient>
    <style>
      .heading-lg { fill: #ffffff; font-family: system-ui, sans-serif; font-size: 20px; font-weight: bold; }
      .heading { fill: #ffffff; font-family: system-ui, sans-serif; font-size: 14px; font-weight: bold; }
      .text-md { fill: #cbd5e1; font-family: system-ui, sans-serif; font-size: 12px; }
      .text-sm { fill: #94a3b8; font-family: system-ui, sans-serif; font-size: 10px; }
      .text-muted { fill: #8494a8; font-family: system-ui, sans-serif; font-size: 10px; }
      .annotation { fill: #6d28d9; font-family: monospace; font-size: 10px; }
      .code { fill: #22d3ee; font-family: 'SF Mono', monospace; font-size: 10px; }
    </style>
    <!-- Arrow markers -->
    <marker id="arrowhead" markerWidth="10" markerHeight="7" refX="9" refY="3.5" orient="auto">
      <polygon points="0 0, 10 3.5, 0 7" fill="#8b5cf6"/>
    </marker>
    <marker id="arrowhead-green" markerWidth="10" markerHeight="7" refX="9" refY="3.5" orient="auto">
      <polygon points="0 0, 10 3.5, 0 7" fill="#22c55e"/>
    </marker>
    <marker id="arrowhead-gray" markerWidth="10" markerHeight="7" refX="9" refY="3.5" orient="auto">
      <polygon points="0 0, 10 3.5, 0 7" fill="#64748b"/>
    </marker>
  </defs>

  <!-- Background -->
  <rect width="1400" height="800" fill="url(#bgGrad)"/>

  <!-- Dot grid pattern -->
  <g opacity="0.05">
    <pattern id="dots" width="30" height="30" patternUnits="userSpaceOnUse">
      <circle cx="15" cy="15" r="1" fill="#fff"/>
    </pattern>
    <rect width="1400" height="800" fill="url(#dots)"/>
  </g>

  <!-- Accent line top -->
  <rect x="0" y="0" width="1400" height="3" fill="url(#accentGrad)"/>

  <!-- Title -->
  <text x="700" y="28" text-anchor="middle" font-family="system-ui, sans-serif" font-size="14" font-weight="600" fill="#8494a8" letter-spacing="1">CALENDAR INTEGRATION — PROVIDER ABSTRACTION ARCHITECTURE</text>

  <!-- LAYER 1: Application Layer -->
  <g id="app-layer" transform="translate(40, 50)">
    <text x="0" y="20" class="text-muted">APPLICATION LAYER</text>

    <!-- Schedule Page Component -->
    <rect x="0" y="35" width="250" height="120" rx="8" fill="#1e293b" stroke="#475569" stroke-width="1"/>
    <rect x="0" y="35" width="250" height="30" rx="8" fill="#334155"/>
    <text x="125" y="55" text-anchor="middle" class="heading">SchedulePage.tsx</text>
    <text x="15" y="85" class="text-sm">• Renders calendar embed</text>
    <text x="15" y="100" class="text-sm">• Manages consent state</text>
    <text x="15" y="115" class="text-sm">• Handles theme context</text>
    <text x="15" y="130" class="text-sm">• Tracks analytics events</text>

    <!-- CalendarEmbed Component -->
    <rect x="280" y="35" width="250" height="120" rx="8" fill="#1e293b" stroke="#8b5cf6" stroke-width="2"/>
    <rect x="280" y="35" width="250" height="30" rx="8" fill="#312e81"/>
    <text x="405" y="55" text-anchor="middle" class="heading">CalendarEmbed.tsx</text>
    <text x="295" y="85" class="text-sm">• Provider-agnostic API</text>
    <text x="295" y="100" class="text-sm">• Consent gate logic</text>
    <text x="295" y="115" class="text-sm">• Loading/error states</text>
    <text x="295" y="130" class="text-sm">• Theme adapter calls</text>

    <!-- Consent Hook -->
    <rect x="560" y="35" width="180" height="120" rx="8" fill="#1e293b" stroke="#475569" stroke-width="1"/>
    <rect x="560" y="35" width="180" height="30" rx="8" fill="#334155"/>
    <text x="650" y="55" text-anchor="middle" class="heading">useConsent()</text>
    <text x="575" y="85" class="text-sm">• Check consent</text>
    <text x="575" y="100" class="text-sm">• Request consent</text>
    <text x="575" y="115" class="text-sm">• Revoke consent</text>
    <text x="575" y="130" class="text-sm">• Persist state</text>
  </g>

  <!-- Arrow from SchedulePage to CalendarEmbed -->
  <line x1="290" y1="110" x2="320" y2="110" stroke="#8b5cf6" stroke-width="2" marker-end="url(#arrowhead)"/>

  <!-- Arrow from CalendarEmbed to useConsent -->
  <line x1="530" y1="110" x2="560" y2="110" stroke="#64748b" stroke-width="1" marker-end="url(#arrowhead-gray)"/>

  <!-- LAYER 2: Abstraction Layer -->
  <g id="abstraction-layer" transform="translate(40, 200)">
    <text x="0" y="20" class="text-muted">ABSTRACTION LAYER</text>

    <!-- Calendar Provider Interface -->
    <rect x="140" y="35" width="300" height="140" rx="8" fill="#1e293b" stroke="#d946ef" stroke-width="2"/>
    <rect x="140" y="35" width="300" height="30" rx="8" fill="#581c87"/>
    <text x="290" y="55" text-anchor="middle" class="heading">CalendarProvider Interface</text>
    <text x="155" y="85" class="code">interface CalendarProvider {</text>
    <text x="165" y="100" class="code">  getEmbedUrl(): string;</text>
    <text x="165" y="115" class="code">  getThemeConfig(theme): Object;</text>
    <text x="165" y="130" class="code">  renderEmbed(container): void;</text>
    <text x="165" y="145" class="code">  onEvent(callback): void;</text>
    <text x="155" y="160" class="code">}</text>

    <!-- Theme Adapter -->
    <rect x="480" y="35" width="200" height="140" rx="8" fill="#1e293b" stroke="#475569" stroke-width="1"/>
    <rect x="480" y="35" width="200" height="30" rx="8" fill="#334155"/>
    <text x="580" y="55" text-anchor="middle" class="heading">ThemeAdapter</text>
    <text x="495" y="85" class="text-sm">Maps 32 app themes to</text>
    <text x="495" y="100" class="text-sm">provider color schemes</text>
    <text x="495" y="125" class="text-sm">• Light theme palette</text>
    <text x="495" y="140" class="text-sm">• Dark theme palette</text>
    <text x="495" y="155" class="text-sm">• Accent color override</text>
  </g>

  <!-- Arrow from CalendarEmbed to Provider Interface -->
  <line x1="405" y1="155" x2="405" y2="235" stroke="#d946ef" stroke-width="2" marker-end="url(#arrowhead)"/>
  <text x="415" y="195" class="text-muted">uses</text>

  <!-- LAYER 3: Provider Implementations -->
  <g id="provider-layer" transform="translate(40, 395)">
    <text x="0" y="20" class="text-muted">PROVIDER IMPLEMENTATIONS</text>

    <!-- Calendly Provider -->
    <rect x="60" y="35" width="220" height="130" rx="8" fill="#1e293b" stroke="#22c55e" stroke-width="2"/>
    <rect x="60" y="35" width="220" height="30" rx="8" fill="#14532d"/>
    <text x="170" y="55" text-anchor="middle" class="heading">CalendlyProvider</text>
    <text x="75" y="80" class="code">implements CalendarProvider</text>
    <text x="75" y="100" class="text-sm">• Calendly embed SDK</text>
    <text x="75" y="115" class="text-sm">• Widget event handlers</text>
    <text x="75" y="130" class="text-sm">• Brand color mapping</text>
    <text x="75" y="145" class="text-sm">• Popup/inline modes</text>

    <!-- Cal.com Provider -->
    <rect x="320" y="35" width="220" height="130" rx="8" fill="#1e293b" stroke="#22c55e" stroke-width="2"/>
    <rect x="320" y="35" width="220" height="30" rx="8" fill="#14532d"/>
    <text x="430" y="55" text-anchor="middle" class="heading">CalcomProvider</text>
    <text x="335" y="80" class="code">implements CalendarProvider</text>
    <text x="335" y="100" class="text-sm">• Cal.com embed API</text>
    <text x="335" y="115" class="text-sm">• Theme customization</text>
    <text x="335" y="130" class="text-sm">• Event type selection</text>
    <text x="335" y="145" class="text-sm">• Layout options</text>

    <!-- Provider Factory -->
    <rect x="580" y="35" width="200" height="130" rx="8" fill="#1e293b" stroke="#8b5cf6" stroke-width="2"/>
    <rect x="580" y="35" width="200" height="30" rx="8" fill="#312e81"/>
    <text x="680" y="55" text-anchor="middle" class="heading">ProviderFactory</text>
    <text x="595" y="85" class="code">getProvider(config):</text>
    <text x="605" y="100" class="code">  switch(provider) {</text>
    <text x="615" y="115" class="code">    'calendly': new Calendly</text>
    <text x="615" y="130" class="code">    'calcom': new Calcom</text>
    <text x="605" y="145" class="code">  }</text>
  </g>

  <!-- Arrows from Interface to Implementations -->
  <line x1="290" y1="375" x2="170" y2="430" stroke="#22c55e" stroke-width="2" marker-end="url(#arrowhead-green)"/>
  <line x1="290" y1="375" x2="430" y2="430" stroke="#22c55e" stroke-width="2" marker-end="url(#arrowhead-green)"/>

  <!-- Arrow from Factory to Interface -->
  <line x1="580" y1="460" x2="440" y2="330" stroke="#8b5cf6" stroke-width="2" stroke-dasharray="5,3" marker-end="url(#arrowhead)"/>
  <text x="520" y="390" class="text-muted">creates</text>

  <!-- LAYER 4: Configuration -->
  <g id="config-layer" transform="translate(40, 570)">
    <text x="0" y="20" class="text-muted">CONFIGURATION (ENV VARIABLES)</text>

    <!-- Environment Config -->
    <rect x="60" y="35" width="350" height="120" rx="8" fill="#1e293b" stroke="#eab308" stroke-width="2"/>
    <rect x="60" y="35" width="350" height="30" rx="8" fill="#713f12"/>
    <text x="235" y="55" text-anchor="middle" class="heading">.env.local</text>
    <text x="75" y="80" class="code">NEXT_PUBLIC_CALENDAR_PROVIDER="calcom"</text>
    <text x="75" y="95" class="code">NEXT_PUBLIC_CALENDAR_URL="cal.com/user"</text>
    <text x="75" y="110" class="code">NEXT_PUBLIC_CALENDAR_EVENT_TYPE="30min"</text>
    <text x="75" y="125" class="code">NEXT_PUBLIC_CALENDAR_EMBED_MODE="inline"</text>
    <text x="75" y="140" class="text-muted"># Switch provider with zero code changes</text>

    <!-- Config Validation -->
    <rect x="450" y="35" width="180" height="120" rx="8" fill="#1e293b" stroke="#475569" stroke-width="1"/>
    <rect x="450" y="35" width="180" height="30" rx="8" fill="#334155"/>
    <text x="540" y="55" text-anchor="middle" class="heading">ConfigValidator</text>
    <text x="465" y="85" class="text-sm">• Required fields check</text>
    <text x="465" y="100" class="text-sm">• URL format validation</text>
    <text x="465" y="115" class="text-sm">• Provider enum check</text>
    <text x="465" y="130" class="text-sm">• Fallback defaults</text>
  </g>

  <!-- Arrow from Config to Factory -->
  <line x1="235" y1="605" x2="680" y2="525" stroke="#eab308" stroke-width="2" stroke-dasharray="5,3" marker-end="url(#arrowhead)"/>
  <text x="420" y="565" class="text-muted">configures</text>

  <!-- EXTERNAL SERVICES -->
  <g id="external-services" transform="translate(820, 50)">
    <text x="0" y="20" class="text-muted">EXTERNAL SERVICES</text>

    <!-- Calendly Service -->
    <rect x="0" y="35" width="180" height="100" rx="8" fill="#1e293b" stroke="#475569" stroke-width="1"/>
    <rect x="0" y="35" width="180" height="30" rx="8" fill="#0ea5e9" opacity="0.3"/>
    <text x="90" y="55" text-anchor="middle" fill="#0ea5e9" font-family="system-ui, sans-serif" font-size="14" font-weight="bold">Calendly</text>
    <text x="15" y="85" class="text-sm">• Embed SDK</text>
    <text x="15" y="100" class="text-sm">• Widget events</text>
    <text x="15" y="115" class="text-sm">• Booking webhooks</text>

    <!-- Cal.com Service -->
    <rect x="0" y="155" width="180" height="100" rx="8" fill="#1e293b" stroke="#475569" stroke-width="1"/>
    <rect x="0" y="155" width="180" height="30" rx="8" fill="#0f172a"/>
    <text x="90" y="175" text-anchor="middle" fill="#ffffff" font-family="system-ui, sans-serif" font-size="14" font-weight="bold">Cal.com</text>
    <text x="15" y="205" class="text-sm">• Embed API</text>
    <text x="15" y="220" class="text-sm">• Theme support</text>
    <text x="15" y="235" class="text-sm">• Event callbacks</text>

    <!-- Cookie Consent -->
    <rect x="200" y="35" width="180" height="100" rx="8" fill="#1e293b" stroke="#eab308" stroke-width="1"/>
    <rect x="200" y="35" width="180" height="30" rx="8" fill="#713f12" opacity="0.5"/>
    <text x="290" y="55" text-anchor="middle" fill="#fcd34d" font-family="system-ui, sans-serif" font-size="14" font-weight="bold">Cookie Consent</text>
    <text x="215" y="85" class="text-sm">• Functional consent</text>
    <text x="215" y="100" class="text-sm">• Analytics consent</text>
    <text x="215" y="115" class="text-sm">• Consent revocation</text>

    <!-- Google Analytics -->
    <rect x="200" y="155" width="180" height="100" rx="8" fill="#1e293b" stroke="#475569" stroke-width="1"/>
    <rect x="200" y="155" width="180" height="30" rx="8" fill="#ea4335" opacity="0.3"/>
    <text x="290" y="175" text-anchor="middle" fill="#ea4335" font-family="system-ui, sans-serif" font-size="14" font-weight="bold">GA4</text>
    <text x="215" y="205" class="text-sm">• calendar_viewed</text>
    <text x="215" y="220" class="text-sm">• calendar_selected</text>
    <text x="215" y="235" class="text-sm">• calendar_scheduled</text>
  </g>

  <!-- DATA FLOW -->
  <g id="data-flow" transform="translate(820, 300)">
    <text x="0" y="20" class="text-muted">DATA FLOW</text>

    <rect x="0" y="35" width="380" height="200" rx="8" fill="#1e293b" stroke="#475569" stroke-width="1"/>

    <!-- Flow steps -->
    <g transform="translate(20, 55)">
      <circle cx="10" cy="10" r="10" fill="#8b5cf6"/>
      <text x="10" y="14" text-anchor="middle" fill="#fff" font-size="10" font-weight="bold">1</text>
      <text x="30" y="14" class="text-md">User visits /schedule</text>

      <line x1="10" y1="22" x2="10" y2="38" stroke="#475569" stroke-width="1"/>

      <circle cx="10" cy="48" r="10" fill="#eab308"/>
      <text x="10" y="52" text-anchor="middle" fill="#fff" font-size="10" font-weight="bold">2</text>
      <text x="30" y="52" class="text-md">Check functional consent</text>

      <line x1="10" y1="60" x2="10" y2="76" stroke="#475569" stroke-width="1"/>

      <circle cx="10" cy="86" r="10" fill="#22c55e"/>
      <text x="10" y="90" text-anchor="middle" fill="#fff" font-size="10" font-weight="bold">3</text>
      <text x="30" y="90" class="text-md">Load provider via Factory</text>

      <line x1="10" y1="98" x2="10" y2="114" stroke="#475569" stroke-width="1"/>

      <circle cx="10" cy="124" r="10" fill="#8b5cf6"/>
      <text x="10" y="128" text-anchor="middle" fill="#fff" font-size="10" font-weight="bold">4</text>
      <text x="30" y="128" class="text-md">Apply theme via adapter</text>

      <line x1="10" y1="136" x2="10" y2="152" stroke="#475569" stroke-width="1"/>

      <circle cx="10" cy="162" r="10" fill="#d946ef"/>
      <text x="10" y="166" text-anchor="middle" fill="#fff" font-size="10" font-weight="bold">5</text>
      <text x="30" y="166" class="text-md">Render embed, track events</text>
    </g>
  </g>

  <!-- KEY BENEFITS -->
  <g id="benefits" transform="translate(820, 540)">
    <text x="0" y="20" class="text-muted">ABSTRACTION BENEFITS</text>

    <rect x="0" y="35" width="380" height="120" rx="8" fill="#1e293b" stroke="#22c55e" stroke-width="1"/>
    <g transform="translate(20, 55)">
      <text x="0" y="0" fill="#22c55e" font-family="system-ui, sans-serif" font-size="12">✓</text>
      <text x="20" y="0" class="text-md">Zero code changes to switch providers</text>

      <text x="0" y="25" fill="#22c55e" font-family="system-ui, sans-serif" font-size="12">✓</text>
      <text x="20" y="25" class="text-md">Theme support for all 32 app themes</text>

      <text x="0" y="50" fill="#22c55e" font-family="system-ui, sans-serif" font-size="12">✓</text>
      <text x="20" y="50" class="text-md">GDPR-compliant consent gating</text>

      <text x="0" y="75" fill="#22c55e" font-family="system-ui, sans-serif" font-size="12">✓</text>
      <text x="20" y="75" class="text-md">Unified analytics event tracking</text>
    </g>
  </g>

  <!-- Annotations -->
  <g id="annotations">
    <rect x="60" y="745" width="150" height="35" rx="4" fill="#1e293b" stroke="#8b5cf6" stroke-width="1"/>
    <text x="135" y="760" text-anchor="middle" class="annotation">FR-005-009</text>
    <text x="135" y="775" text-anchor="middle" class="text-muted">Provider abstraction</text>

    <rect x="350" y="745" width="150" height="35" rx="4" fill="#1e293b" stroke="#8b5cf6" stroke-width="1"/>
    <text x="425" y="760" text-anchor="middle" class="annotation">User Story 4</text>
    <text x="425" y="775" text-anchor="middle" class="text-muted">Config-only switch</text>

    <rect x="640" y="745" width="150" height="35" rx="4" fill="#1e293b" stroke="#8b5cf6" stroke-width="1"/>
    <text x="715" y="760" text-anchor="middle" class="annotation">NFR-003-004</text>
    <text x="715" y="775" text-anchor="middle" class="text-muted">Bundle &lt;15KB</text>
  </g>
</svg>