<svg xmlns="http://www.w3.org/2000/svg" viewBox="0 0 1400 800" width="1400" height="800">
  <!-- ============================================================
       GENERATED BY: /wireframe skill
       SOURCE: features/payments/042-payment-rls-policies/spec.md
       DATE: 2026-01-01
       THEME: Dark (Backend/Architecture)
       DO NOT MANUALLY EDIT - Regenerate with /wireframe command
       ============================================================ -->
  <defs>
    <linearGradient id="bgGrad" x1="0%" y1="0%" x2="100%" y2="100%">
      <stop offset="0%" style="stop-color:#0f172a"/>
      <stop offset="100%" style="stop-color:#1e293b"/>
    </linearGradient>
    <linearGradient id="accentGrad" x1="0%" y1="0%" x2="100%" y2="0%">
      <stop offset="0%" style="stop-color:#8b5cf6"/>
      <stop offset="100%" style="stop-color:#d946ef"/>
    </linearGradient>
    <marker id="arrowhead" markerWidth="10" markerHeight="7" refX="9" refY="3.5" orient="auto">
      <polygon points="0 0, 10 3.5, 0 7" fill="#8b5cf6"/>
    </marker>
    <marker id="arrowhead-green" markerWidth="10" markerHeight="7" refX="9" refY="3.5" orient="auto">
      <polygon points="0 0, 10 3.5, 0 7" fill="#22c55e"/>
    </marker>
    <marker id="arrowhead-red" markerWidth="10" markerHeight="7" refX="9" refY="3.5" orient="auto">
      <polygon points="0 0, 10 3.5, 0 7" fill="#ef4444"/>
    </marker>
    <style>
      .heading-lg { fill: #ffffff; font-family: system-ui, sans-serif; font-size: 20px; font-weight: bold; }
      .heading { fill: #ffffff; font-family: system-ui, sans-serif; font-size: 14px; font-weight: bold; }
      .text-md { fill: #cbd5e1; font-family: system-ui, sans-serif; font-size: 12px; }
      .text-sm { fill: #94a3b8; font-family: system-ui, sans-serif; font-size: 10px; }
      .text-muted { fill: #8494a8; font-family: system-ui, sans-serif; font-size: 10px; }
      .annotation { fill: #8b5cf6; font-family: monospace; font-size: 10px; }
      .code { fill: #a5b4fc; font-family: monospace; font-size: 10px; }
      .table-name { fill: #d946ef; font-family: monospace; font-size: 12px; font-weight: bold; }
    </style>
  </defs>

  <!-- Background -->
  <rect width="1400" height="800" fill="url(#bgGrad)"/>

  <!-- Dot grid pattern -->
  <g opacity="0.05">
    <pattern id="dots" width="30" height="30" patternUnits="userSpaceOnUse">
      <circle cx="15" cy="15" r="1" fill="#fff"/>
    </pattern>
    <rect width="1400" height="800" fill="url(#dots)"/>
  </g>

  <!-- Accent line top -->
  <rect x="0" y="0" width="1400" height="3" fill="url(#accentGrad)"/>

  <!-- Title -->
  <text x="700" y="28" text-anchor="middle" font-family="system-ui, sans-serif" font-size="14" font-weight="600" fill="#8494a8" letter-spacing="1">PAYMENT RLS POLICY ARCHITECTURE — 4 PROTECTED TABLES</text>

  <!-- User Context Layer -->
  <g transform="translate(40, 50)">
    <text x="0" y="20" class="annotation">USER CONTEXT</text>
    <rect y="30" width="300" height="70" rx="8" fill="#1e293b" stroke="#475569" stroke-width="1"/>
    <text x="15" y="55" class="heading">Authentication Context</text>
    <text x="15" y="75" class="text-sm">auth.uid() → Current User ID</text>
    <text x="15" y="90" class="text-sm">auth.role() → authenticated | anon | service_role</text>
  </g>

  <!-- Service Context -->
  <g transform="translate(360, 50)">
    <text x="0" y="20" class="annotation">SERVICE CONTEXT</text>
    <rect y="30" width="260" height="70" rx="8" fill="#1e293b" stroke="#8b5cf6" stroke-width="2"/>
    <text x="15" y="55" class="heading">Elevated Access</text>
    <text x="15" y="75" class="text-sm">service_role key for webhooks</text>
    <text x="15" y="90" class="text-sm">Bypasses RLS when needed</text>
  </g>

  <!-- Legend -->
  <g transform="translate(1100, 50)">
    <text x="0" y="20" class="annotation">LEGEND</text>
    <rect y="30" width="260" height="90" rx="8" fill="#1e293b" stroke="#475569" stroke-width="1"/>
    <rect x="15" y="45" width="12" height="12" rx="2" fill="#22c55e"/>
    <text x="35" y="55" class="text-sm">Allowed by policy</text>
    <rect x="15" y="65" width="12" height="12" rx="2" fill="#ef4444"/>
    <text x="35" y="75" class="text-sm">Denied by policy</text>
    <rect x="15" y="85" width="12" height="12" rx="2" fill="#eab308"/>
    <text x="35" y="95" class="text-sm">Conditional (owner/service)</text>
    <rect x="15" y="105" width="12" height="12" rx="2" fill="#8b5cf6"/>
    <text x="35" y="115" class="text-sm">Service role only</text>
  </g>

  <!-- Table 1: payments -->
  <g transform="translate(40, 160)">
    <rect width="320" height="260" rx="8" fill="#1e293b" stroke="#475569" stroke-width="1"/>
    <rect width="320" height="40" rx="8" fill="#334155"/>
    <rect y="32" width="320" height="8" fill="#334155"/>
    <text x="15" y="27" class="table-name">payments</text>
    <text x="260" y="27" class="text-muted">FR-001..005</text>

    <!-- Columns -->
    <text x="15" y="60" class="text-sm">id uuid PRIMARY KEY</text>
    <text x="15" y="78" class="text-sm">user_id uuid REFERENCES auth.users</text>
    <text x="15" y="96" class="text-sm">amount decimal NOT NULL</text>
    <text x="15" y="114" class="text-sm">status text NOT NULL</text>
    <text x="15" y="132" class="text-sm">created_at timestamptz</text>

    <!-- Policies -->
    <rect x="10" y="145" width="300" height="105" rx="6" fill="#0f172a" stroke="#475569"/>
    <text x="20" y="165" class="annotation">RLS POLICIES</text>

    <rect x="20" y="175" width="10" height="10" rx="2" fill="#22c55e"/>
    <text x="38" y="183" class="code">SELECT WHERE user_id = auth.uid()</text>

    <rect x="20" y="195" width="10" height="10" rx="2" fill="#eab308"/>
    <text x="38" y="203" class="code">INSERT WHERE user_id = auth.uid()</text>

    <rect x="20" y="215" width="10" height="10" rx="2" fill="#8b5cf6"/>
    <text x="38" y="223" class="code">UPDATE service_role ONLY</text>

    <rect x="20" y="235" width="10" height="10" rx="2" fill="#ef4444"/>
    <text x="38" y="243" class="code">DELETE DENIED (soft delete)</text>
  </g>

  <!-- Table 2: subscriptions -->
  <g transform="translate(380, 160)">
    <rect width="320" height="260" rx="8" fill="#1e293b" stroke="#475569" stroke-width="1"/>
    <rect width="320" height="40" rx="8" fill="#334155"/>
    <rect y="32" width="320" height="8" fill="#334155"/>
    <text x="15" y="27" class="table-name">subscriptions</text>
    <text x="250" y="27" class="text-muted">FR-006..010</text>

    <!-- Columns -->
    <text x="15" y="60" class="text-sm">id uuid PRIMARY KEY</text>
    <text x="15" y="78" class="text-sm">user_id uuid REFERENCES auth.users</text>
    <text x="15" y="96" class="text-sm">plan_id text NOT NULL</text>
    <text x="15" y="114" class="text-sm">status text NOT NULL</text>
    <text x="15" y="132" class="text-sm">current_period_end timestamptz</text>

    <!-- Policies -->
    <rect x="10" y="145" width="300" height="105" rx="6" fill="#0f172a" stroke="#475569"/>
    <text x="20" y="165" class="annotation">RLS POLICIES</text>

    <rect x="20" y="175" width="10" height="10" rx="2" fill="#22c55e"/>
    <text x="38" y="183" class="code">SELECT WHERE user_id = auth.uid()</text>

    <rect x="20" y="195" width="10" height="10" rx="2" fill="#8b5cf6"/>
    <text x="38" y="203" class="code">INSERT service_role ONLY</text>

    <rect x="20" y="215" width="10" height="10" rx="2" fill="#eab308"/>
    <text x="38" y="223" class="code">UPDATE owner: cancel | service: all</text>

    <rect x="20" y="235" width="10" height="10" rx="2" fill="#ef4444"/>
    <text x="38" y="243" class="code">DELETE DENIED (soft delete)</text>
  </g>

  <!-- Table 3: payment_methods -->
  <g transform="translate(720, 160)">
    <rect width="320" height="260" rx="8" fill="#1e293b" stroke="#475569" stroke-width="1"/>
    <rect width="320" height="40" rx="8" fill="#334155"/>
    <rect y="32" width="320" height="8" fill="#334155"/>
    <text x="15" y="27" class="table-name">payment_methods</text>
    <text x="245" y="27" class="text-muted">FR-011..015</text>

    <!-- Columns -->
    <text x="15" y="60" class="text-sm">id uuid PRIMARY KEY</text>
    <text x="15" y="78" class="text-sm">user_id uuid REFERENCES auth.users</text>
    <text x="15" y="96" class="text-sm">type text NOT NULL</text>
    <text x="15" y="114" class="text-sm">last_four text</text>
    <text x="15" y="132" class="text-sm">is_default boolean</text>

    <!-- Policies -->
    <rect x="10" y="145" width="300" height="105" rx="6" fill="#0f172a" stroke="#475569"/>
    <text x="20" y="165" class="annotation">RLS POLICIES</text>

    <rect x="20" y="175" width="10" height="10" rx="2" fill="#22c55e"/>
    <text x="38" y="183" class="code">SELECT WHERE user_id = auth.uid()</text>

    <rect x="20" y="195" width="10" height="10" rx="2" fill="#22c55e"/>
    <text x="38" y="203" class="code">INSERT WHERE user_id = auth.uid()</text>

    <rect x="20" y="215" width="10" height="10" rx="2" fill="#22c55e"/>
    <text x="38" y="223" class="code">UPDATE WHERE user_id = auth.uid()</text>

    <rect x="20" y="235" width="10" height="10" rx="2" fill="#22c55e"/>
    <text x="38" y="243" class="code">DELETE WHERE user_id = auth.uid()</text>
  </g>

  <!-- Table 4: payment_audit_logs -->
  <g transform="translate(1060, 160)">
    <rect width="300" height="260" rx="8" fill="#1e293b" stroke="#ef4444" stroke-width="2"/>
    <rect width="300" height="40" rx="8" fill="#334155"/>
    <rect y="32" width="300" height="8" fill="#334155"/>
    <text x="15" y="27" class="table-name">payment_audit_logs</text>
    <text x="220" y="27" class="text-muted">FR-016..020</text>

    <!-- Columns -->
    <text x="15" y="60" class="text-sm">id uuid PRIMARY KEY</text>
    <text x="15" y="78" class="text-sm">user_id uuid REFERENCES auth.users</text>
    <text x="15" y="96" class="text-sm">action text NOT NULL</text>
    <text x="15" y="114" class="text-sm">resource_type text</text>
    <text x="15" y="132" class="text-sm">created_at timestamptz IMMUTABLE</text>

    <!-- Policies -->
    <rect x="10" y="145" width="280" height="105" rx="6" fill="#0f172a" stroke="#ef4444"/>
    <text x="20" y="165" class="annotation">RLS POLICIES (IMMUTABLE)</text>

    <rect x="20" y="175" width="10" height="10" rx="2" fill="#22c55e"/>
    <text x="38" y="183" class="code">SELECT WHERE user_id = auth.uid()</text>

    <rect x="20" y="195" width="10" height="10" rx="2" fill="#8b5cf6"/>
    <text x="38" y="203" class="code">INSERT service_role ONLY</text>

    <rect x="20" y="215" width="10" height="10" rx="2" fill="#ef4444"/>
    <text x="38" y="223" class="code">UPDATE DENIED ALWAYS</text>

    <rect x="20" y="235" width="10" height="10" rx="2" fill="#ef4444"/>
    <text x="38" y="243" class="code">DELETE DENIED ALWAYS</text>
  </g>

  <!-- Security Enforcement Layer -->
  <g transform="translate(40, 450)">
    <text x="0" y="20" class="annotation">SECURITY ENFORCEMENT LAYER</text>
    <rect y="30" width="1320" height="100" rx="8" fill="#1e293b" stroke="#8b5cf6" stroke-width="2"/>

    <!-- PostgreSQL RLS -->
    <g transform="translate(20, 45)">
      <rect width="200" height="70" rx="6" fill="#334155"/>
      <text x="100" y="25" text-anchor="middle" class="heading">PostgreSQL RLS</text>
      <text x="100" y="45" text-anchor="middle" class="text-sm">ALTER TABLE ... ENABLE</text>
      <text x="100" y="60" text-anchor="middle" class="text-sm">ROW LEVEL SECURITY</text>
    </g>

    <!-- Policy Evaluation -->
    <g transform="translate(240, 45)">
      <rect width="200" height="70" rx="6" fill="#334155"/>
      <text x="100" y="25" text-anchor="middle" class="heading">Policy Evaluation</text>
      <text x="100" y="45" text-anchor="middle" class="text-sm">USING (user_id = auth.uid())</text>
      <text x="100" y="60" text-anchor="middle" class="text-sm">WITH CHECK (...)</text>
    </g>

    <!-- Supabase Auth -->
    <g transform="translate(460, 45)">
      <rect width="200" height="70" rx="6" fill="#334155"/>
      <text x="100" y="25" text-anchor="middle" class="heading">Supabase Auth</text>
      <text x="100" y="45" text-anchor="middle" class="text-sm">auth.uid() function</text>
      <text x="100" y="60" text-anchor="middle" class="text-sm">JWT claims extraction</text>
    </g>

    <!-- Service Role -->
    <g transform="translate(680, 45)">
      <rect width="200" height="70" rx="6" fill="#334155" stroke="#8b5cf6"/>
      <text x="100" y="25" text-anchor="middle" class="heading">Service Role Key</text>
      <text x="100" y="45" text-anchor="middle" class="text-sm">Bypasses RLS checks</text>
      <text x="100" y="60" text-anchor="middle" class="text-sm">For webhooks/backend</text>
    </g>

    <!-- Audit Logging -->
    <g transform="translate(900, 45)">
      <rect width="200" height="70" rx="6" fill="#334155"/>
      <text x="100" y="25" text-anchor="middle" class="heading">Audit Triggers</text>
      <text x="100" y="45" text-anchor="middle" class="text-sm">Automatic logging</text>
      <text x="100" y="60" text-anchor="middle" class="text-sm">All payment operations</text>
    </g>

    <!-- Performance -->
    <g transform="translate(1120, 45)">
      <rect width="180" height="70" rx="6" fill="#334155"/>
      <text x="90" y="25" text-anchor="middle" class="heading">Performance</text>
      <text x="90" y="45" text-anchor="middle" class="text-sm">Indexed user_id cols</text>
      <text x="90" y="60" text-anchor="middle" class="text-sm">&lt;10ms overhead</text>
    </g>
  </g>

  <!-- Data Flow Summary -->
  <g transform="translate(40, 590)">
    <text x="0" y="20" class="annotation">DATA ACCESS FLOW</text>
    <rect y="30" width="1320" height="160" rx="8" fill="#1e293b" stroke="#475569" stroke-width="1"/>

    <!-- User Flow -->
    <g transform="translate(20, 50)">
      <rect width="180" height="50" rx="6" fill="#334155"/>
      <text x="90" y="30" text-anchor="middle" class="heading">User Request</text>
    </g>

    <line x1="200" y1="75" x2="280" y2="75" stroke="#8b5cf6" stroke-width="2" marker-end="url(#arrowhead)"/>

    <g transform="translate(280, 50)">
      <rect width="180" height="50" rx="6" fill="#334155"/>
      <text x="90" y="30" text-anchor="middle" class="heading">Auth Check</text>
    </g>

    <line x1="460" y1="75" x2="540" y2="75" stroke="#8b5cf6" stroke-width="2" marker-end="url(#arrowhead)"/>

    <g transform="translate(540, 50)">
      <rect width="180" height="50" rx="6" fill="#334155" stroke="#8b5cf6"/>
      <text x="90" y="30" text-anchor="middle" class="heading">RLS Evaluation</text>
    </g>

    <line x1="720" y1="75" x2="800" y2="75" stroke="#22c55e" stroke-width="2" marker-end="url(#arrowhead-green)"/>

    <g transform="translate(800, 50)">
      <rect width="180" height="50" rx="6" fill="#334155"/>
      <text x="90" y="30" text-anchor="middle" class="heading">Filtered Results</text>
    </g>

    <!-- Outcome Labels -->
    <text x="760" y="55" class="text-sm" fill="#22c55e">PASS</text>

    <!-- Service Flow -->
    <g transform="translate(20, 120)">
      <rect width="180" height="50" rx="6" fill="#334155" stroke="#8b5cf6"/>
      <text x="90" y="30" text-anchor="middle" class="heading">Service Request</text>
    </g>

    <line x1="200" y1="145" x2="280" y2="145" stroke="#8b5cf6" stroke-width="2" marker-end="url(#arrowhead)"/>

    <g transform="translate(280, 120)">
      <rect width="180" height="50" rx="6" fill="#334155"/>
      <text x="90" y="30" text-anchor="middle" class="heading">Service Key</text>
    </g>

    <line x1="460" y1="145" x2="540" y2="145" stroke="#8b5cf6" stroke-width="2" marker-end="url(#arrowhead)"/>

    <g transform="translate(540, 120)">
      <rect width="180" height="50" rx="6" fill="#334155" stroke="#eab308"/>
      <text x="90" y="30" text-anchor="middle" class="heading">RLS Bypass</text>
    </g>

    <line x1="720" y1="145" x2="800" y2="145" stroke="#22c55e" stroke-width="2" marker-end="url(#arrowhead-green)"/>

    <g transform="translate(800, 120)">
      <rect width="180" height="50" rx="6" fill="#334155"/>
      <text x="90" y="30" text-anchor="middle" class="heading">Full Access</text>
    </g>

    <!-- NFR callouts -->
    <g transform="translate(1000, 50)">
      <rect width="300" height="120" rx="6" fill="#0f172a" stroke="#475569"/>
      <text x="15" y="25" class="annotation">NON-FUNCTIONAL REQUIREMENTS</text>
      <text x="15" y="50" class="text-sm">NFR-001: All tables have RLS enabled</text>
      <text x="15" y="70" class="text-sm">NFR-002: No cross-user data access</text>
      <text x="15" y="90" class="text-sm">NFR-004: Indexed user_id columns</text>
      <text x="15" y="110" class="text-sm">NFR-005: &lt;10ms policy overhead</text>
    </g>
  </g>
</svg>