<svg xmlns="http://www.w3.org/2000/svg" viewBox="0 0 1400 800" width="1400" height="800">
  <!-- ============================================================
       GENERATED BY: /wireframe skill
       SOURCE: features/payments/042-payment-rls-policies/spec.md
       DATE: 2025-12-31
       DO NOT MANUALLY EDIT - Regenerate with /wireframe command
       ============================================================ -->
  <defs>
    <linearGradient id="bgGrad" x1="0%" y1="0%" x2="100%" y2="100%">
      <stop offset="0%" style="stop-color:#0f172a"/>
      <stop offset="100%" style="stop-color:#1e293b"/>
    </linearGradient>
    <linearGradient id="accentGrad" x1="0%" y1="0%" x2="100%" y2="0%">
      <stop offset="0%" style="stop-color:#8b5cf6"/>
      <stop offset="100%" style="stop-color:#d946ef"/>
    </linearGradient>
    <style>
      .heading-lg { fill: #ffffff; font-family: system-ui, sans-serif; font-size: 20px; font-weight: bold; }
      .heading { fill: #ffffff; font-family: system-ui, sans-serif; font-size: 14px; font-weight: bold; }
      .text-md { fill: #cbd5e1; font-family: system-ui, sans-serif; font-size: 12px; }
      .text-sm { fill: #94a3b8; font-family: system-ui, sans-serif; font-size: 10px; }
      .text-muted { fill: #64748b; font-family: system-ui, sans-serif; font-size: 10px; }
      .annotation { fill: #8b5cf6; font-family: monospace; font-size: 10px; }
      .code { fill: #22c55e; font-family: monospace; font-size: 9px; }
    </style>
    <marker id="arrowhead" markerWidth="10" markerHeight="7" refX="9" refY="3.5" orient="auto">
      <polygon points="0 0, 10 3.5, 0 7" fill="#8b5cf6"/>
    </marker>
  </defs>

  <!-- Background -->
  <rect width="1400" height="800" fill="url(#bgGrad)"/>

  <!-- Dot grid pattern -->
  <g opacity="0.05">
    <pattern id="dots" width="30" height="30" patternUnits="userSpaceOnUse">
      <circle cx="15" cy="15" r="1" fill="#fff"/>
    </pattern>
    <rect width="1400" height="800" fill="url(#dots)"/>
  </g>

  <!-- Accent line top -->
  <rect x="0" y="0" width="1400" height="3" fill="url(#accentGrad)"/>

  <!-- Title -->
  <text x="700" y="35" text-anchor="middle" class="heading-lg">PAYMENT RLS POLICY ARCHITECTURE</text>
  <text x="700" y="55" text-anchor="middle" class="text-sm">Row-Level Security Policies for Payment Data Protection</text>

  <!-- Legend -->
  <g transform="translate(1150, 70)">
    <rect x="0" y="0" width="220" height="100" rx="6" fill="#1e293b" stroke="#475569" stroke-width="1"/>
    <text x="110" y="20" text-anchor="middle" class="heading">Legend</text>
    <rect x="15" y="35" width="16" height="16" rx="2" fill="#22c55e"/>
    <text x="40" y="47" class="text-sm">Allowed</text>
    <rect x="120" y="35" width="16" height="16" rx="2" fill="#ef4444"/>
    <text x="145" y="47" class="text-sm">Denied</text>
    <rect x="15" y="60" width="16" height="16" rx="2" fill="#eab308"/>
    <text x="40" y="72" class="text-sm">Conditional</text>
    <rect x="120" y="60" width="16" height="16" rx="2" fill="#8b5cf6"/>
    <text x="145" y="72" class="text-sm">Service Only</text>
  </g>

  <!-- User Context -->
  <g transform="translate(80, 100)">
    <rect x="0" y="0" width="180" height="120" rx="8" fill="#1e293b" stroke="#8b5cf6" stroke-width="2"/>
    <text x="90" y="25" text-anchor="middle" class="heading">User Context</text>
    <line x1="20" y1="35" x2="160" y2="35" stroke="#475569" stroke-width="1"/>
    <text x="30" y="55" class="text-sm">auth.uid()</text>
    <text x="30" y="75" class="text-md" fill="#22c55e">→ user_123</text>
    <text x="30" y="100" class="text-muted">JWT token verified</text>
  </g>

  <!-- Service Context -->
  <g transform="translate(80, 250)">
    <rect x="0" y="0" width="180" height="120" rx="8" fill="#1e293b" stroke="#d946ef" stroke-width="2"/>
    <text x="90" y="25" text-anchor="middle" class="heading">Service Context</text>
    <line x1="20" y1="35" x2="160" y2="35" stroke="#475569" stroke-width="1"/>
    <text x="30" y="55" class="text-sm">service_role</text>
    <text x="30" y="75" class="text-md" fill="#d946ef">→ ELEVATED</text>
    <text x="30" y="100" class="text-muted">Webhook/Edge Fn</text>
  </g>

  <!-- Payment Records Table -->
  <g transform="translate(350, 80)">
    <rect x="0" y="0" width="300" height="180" rx="8" fill="#1e293b" stroke="#475569" stroke-width="1"/>
    <rect x="0" y="0" width="300" height="35" rx="8" fill="#334155"/>
    <rect x="0" y="27" width="300" height="8" fill="#334155"/>
    <text x="150" y="23" text-anchor="middle" class="heading">payments</text>

    <!-- Columns -->
    <text x="20" y="55" class="code">id: uuid PRIMARY KEY</text>
    <text x="20" y="70" class="code">user_id: uuid REFERENCES auth.users</text>
    <text x="20" y="85" class="code">amount: decimal</text>
    <text x="20" y="100" class="code">status: payment_status</text>
    <text x="20" y="115" class="code">provider: text</text>
    <text x="20" y="130" class="code">created_at: timestamptz</text>

    <!-- RLS Policies -->
    <line x1="20" y1="140" x2="280" y2="140" stroke="#475569" stroke-width="1"/>
    <text x="20" y="158" class="annotation">SELECT: user_id = auth.uid()</text>
    <text x="20" y="172" class="annotation">INSERT: user_id = auth.uid()</text>
  </g>

  <!-- Policy boxes for payments -->
  <g transform="translate(670, 80)">
    <rect x="0" y="0" width="100" height="30" rx="4" fill="#22c55e" opacity="0.2" stroke="#22c55e"/>
    <text x="50" y="20" text-anchor="middle" class="text-sm" fill="#22c55e">SELECT ✓</text>

    <rect x="0" y="40" width="100" height="30" rx="4" fill="#eab308" opacity="0.2" stroke="#eab308"/>
    <text x="50" y="60" text-anchor="middle" class="text-sm" fill="#eab308">INSERT ⚡</text>

    <rect x="0" y="80" width="100" height="30" rx="4" fill="#8b5cf6" opacity="0.2" stroke="#8b5cf6"/>
    <text x="50" y="100" text-anchor="middle" class="text-sm" fill="#8b5cf6">UPDATE 🔒</text>

    <rect x="0" y="120" width="100" height="30" rx="4" fill="#ef4444" opacity="0.2" stroke="#ef4444"/>
    <text x="50" y="140" text-anchor="middle" class="text-sm" fill="#ef4444">DELETE ✗</text>
  </g>

  <!-- Subscriptions Table -->
  <g transform="translate(350, 280)">
    <rect x="0" y="0" width="300" height="180" rx="8" fill="#1e293b" stroke="#475569" stroke-width="1"/>
    <rect x="0" y="0" width="300" height="35" rx="8" fill="#334155"/>
    <rect x="0" y="27" width="300" height="8" fill="#334155"/>
    <text x="150" y="23" text-anchor="middle" class="heading">subscriptions</text>

    <!-- Columns -->
    <text x="20" y="55" class="code">id: uuid PRIMARY KEY</text>
    <text x="20" y="70" class="code">user_id: uuid REFERENCES auth.users</text>
    <text x="20" y="85" class="code">plan_id: uuid REFERENCES plans</text>
    <text x="20" y="100" class="code">status: subscription_status</text>
    <text x="20" y="115" class="code">current_period_end: timestamptz</text>
    <text x="20" y="130" class="code">cancelled_at: timestamptz NULL</text>

    <!-- RLS Policies -->
    <line x1="20" y1="140" x2="280" y2="140" stroke="#475569" stroke-width="1"/>
    <text x="20" y="158" class="annotation">SELECT: user_id = auth.uid()</text>
    <text x="20" y="172" class="annotation">UPDATE: user_id = auth.uid() (cancel only)</text>
  </g>

  <!-- Policy boxes for subscriptions -->
  <g transform="translate(670, 280)">
    <rect x="0" y="0" width="100" height="30" rx="4" fill="#22c55e" opacity="0.2" stroke="#22c55e"/>
    <text x="50" y="20" text-anchor="middle" class="text-sm" fill="#22c55e">SELECT ✓</text>

    <rect x="0" y="40" width="100" height="30" rx="4" fill="#8b5cf6" opacity="0.2" stroke="#8b5cf6"/>
    <text x="50" y="60" text-anchor="middle" class="text-sm" fill="#8b5cf6">INSERT 🔒</text>

    <rect x="0" y="80" width="100" height="30" rx="4" fill="#eab308" opacity="0.2" stroke="#eab308"/>
    <text x="50" y="100" text-anchor="middle" class="text-sm" fill="#eab308">UPDATE ⚡</text>

    <rect x="0" y="120" width="100" height="30" rx="4" fill="#ef4444" opacity="0.2" stroke="#ef4444"/>
    <text x="50" y="140" text-anchor="middle" class="text-sm" fill="#ef4444">DELETE ✗</text>
  </g>

  <!-- Payment Methods Table -->
  <g transform="translate(800, 80)">
    <rect x="0" y="0" width="280" height="180" rx="8" fill="#1e293b" stroke="#475569" stroke-width="1"/>
    <rect x="0" y="0" width="280" height="35" rx="8" fill="#334155"/>
    <rect x="0" y="27" width="280" height="8" fill="#334155"/>
    <text x="140" y="23" text-anchor="middle" class="heading">payment_methods</text>

    <!-- Columns -->
    <text x="20" y="55" class="code">id: uuid PRIMARY KEY</text>
    <text x="20" y="70" class="code">user_id: uuid REFERENCES auth.users</text>
    <text x="20" y="85" class="code">type: payment_method_type</text>
    <text x="20" y="100" class="code">last_four: text</text>
    <text x="20" y="115" class="code">expiry_month: int</text>
    <text x="20" y="130" class="code">is_default: boolean</text>

    <!-- RLS Policies -->
    <line x1="20" y1="140" x2="260" y2="140" stroke="#475569" stroke-width="1"/>
    <text x="20" y="158" class="annotation">ALL: user_id = auth.uid()</text>
    <text x="20" y="172" class="annotation">User has full control</text>
  </g>

  <!-- Policy boxes for payment_methods -->
  <g transform="translate(1100, 80)">
    <rect x="0" y="0" width="100" height="30" rx="4" fill="#22c55e" opacity="0.2" stroke="#22c55e"/>
    <text x="50" y="20" text-anchor="middle" class="text-sm" fill="#22c55e">SELECT ✓</text>

    <rect x="0" y="40" width="100" height="30" rx="4" fill="#22c55e" opacity="0.2" stroke="#22c55e"/>
    <text x="50" y="60" text-anchor="middle" class="text-sm" fill="#22c55e">INSERT ✓</text>

    <rect x="0" y="80" width="100" height="30" rx="4" fill="#22c55e" opacity="0.2" stroke="#22c55e"/>
    <text x="50" y="100" text-anchor="middle" class="text-sm" fill="#22c55e">UPDATE ✓</text>

    <rect x="0" y="120" width="100" height="30" rx="4" fill="#22c55e" opacity="0.2" stroke="#22c55e"/>
    <text x="50" y="140" text-anchor="middle" class="text-sm" fill="#22c55e">DELETE ✓</text>
  </g>

  <!-- Audit Logs Table -->
  <g transform="translate(800, 280)">
    <rect x="0" y="0" width="280" height="180" rx="8" fill="#1e293b" stroke="#ef4444" stroke-width="2"/>
    <rect x="0" y="0" width="280" height="35" rx="8" fill="#334155"/>
    <rect x="0" y="27" width="280" height="8" fill="#334155"/>
    <text x="140" y="23" text-anchor="middle" class="heading">payment_audit_logs</text>

    <!-- Columns -->
    <text x="20" y="55" class="code">id: uuid PRIMARY KEY</text>
    <text x="20" y="70" class="code">user_id: uuid REFERENCES auth.users</text>
    <text x="20" y="85" class="code">action: text</text>
    <text x="20" y="100" class="code">entity_type: text</text>
    <text x="20" y="115" class="code">entity_id: uuid</text>
    <text x="20" y="130" class="code">metadata: jsonb</text>

    <!-- RLS Policies -->
    <line x1="20" y1="140" x2="260" y2="140" stroke="#475569" stroke-width="1"/>
    <text x="20" y="158" class="annotation" fill="#ef4444">IMMUTABLE - No user writes</text>
    <text x="20" y="172" class="annotation">SELECT: user_id = auth.uid()</text>
  </g>

  <!-- Policy boxes for audit_logs -->
  <g transform="translate(1100, 280)">
    <rect x="0" y="0" width="100" height="30" rx="4" fill="#22c55e" opacity="0.2" stroke="#22c55e"/>
    <text x="50" y="20" text-anchor="middle" class="text-sm" fill="#22c55e">SELECT ✓</text>

    <rect x="0" y="40" width="100" height="30" rx="4" fill="#8b5cf6" opacity="0.2" stroke="#8b5cf6"/>
    <text x="50" y="60" text-anchor="middle" class="text-sm" fill="#8b5cf6">INSERT 🔒</text>

    <rect x="0" y="80" width="100" height="30" rx="4" fill="#ef4444" opacity="0.2" stroke="#ef4444"/>
    <text x="50" y="100" text-anchor="middle" class="text-sm" fill="#ef4444">UPDATE ✗</text>

    <rect x="0" y="120" width="100" height="30" rx="4" fill="#ef4444" opacity="0.2" stroke="#ef4444"/>
    <text x="50" y="140" text-anchor="middle" class="text-sm" fill="#ef4444">DELETE ✗</text>
  </g>

  <!-- SQL Policy Examples -->
  <g transform="translate(80, 500)">
    <rect x="0" y="0" width="600" height="250" rx="8" fill="#0f172a" stroke="#475569" stroke-width="1"/>
    <text x="300" y="25" text-anchor="middle" class="heading">RLS Policy SQL Examples</text>
    <line x1="20" y1="35" x2="580" y2="35" stroke="#475569" stroke-width="1"/>

    <text x="20" y="60" class="code">-- Enable RLS on payments table</text>
    <text x="20" y="75" class="code" fill="#8b5cf6">ALTER TABLE payments ENABLE ROW LEVEL SECURITY;</text>

    <text x="20" y="100" class="code">-- User can only see own payments</text>
    <text x="20" y="115" class="code" fill="#8b5cf6">CREATE POLICY "users_select_own_payments"</text>
    <text x="20" y="130" class="code" fill="#8b5cf6">  ON payments FOR SELECT</text>
    <text x="20" y="145" class="code" fill="#8b5cf6">  USING (user_id = auth.uid());</text>

    <text x="20" y="170" class="code">-- User can only insert own payments</text>
    <text x="20" y="185" class="code" fill="#8b5cf6">CREATE POLICY "users_insert_own_payments"</text>
    <text x="20" y="200" class="code" fill="#8b5cf6">  ON payments FOR INSERT</text>
    <text x="20" y="215" class="code" fill="#8b5cf6">  WITH CHECK (user_id = auth.uid());</text>

    <text x="20" y="240" class="code">-- FR-001 to FR-005: Payment data protection</text>
  </g>

  <!-- Flow arrows from contexts to tables -->
  <line x1="260" y1="160" x2="345" y2="160" stroke="#8b5cf6" stroke-width="2" marker-end="url(#arrowhead)"/>
  <line x1="260" y1="310" x2="345" y2="350" stroke="#d946ef" stroke-width="2" marker-end="url(#arrowhead)"/>

  <!-- Requirements mapping -->
  <g transform="translate(720, 500)">
    <rect x="0" y="0" width="600" height="250" rx="8" fill="#1e293b" stroke="#475569" stroke-width="1"/>
    <text x="300" y="25" text-anchor="middle" class="heading">Requirements Mapping</text>
    <line x1="20" y1="35" x2="580" y2="35" stroke="#475569" stroke-width="1"/>

    <!-- FR mapping -->
    <text x="30" y="60" class="text-md" fill="#fff">Payments (FR-001 to FR-005)</text>
    <text x="30" y="80" class="text-sm">SELECT: Own records only</text>
    <text x="30" y="95" class="text-sm">INSERT: Own user_id only</text>
    <text x="30" y="110" class="text-sm">UPDATE/DELETE: Service role only</text>

    <text x="30" y="135" class="text-md" fill="#fff">Subscriptions (FR-006 to FR-010)</text>
    <text x="30" y="155" class="text-sm">SELECT: Own records only</text>
    <text x="30" y="170" class="text-sm">INSERT: Service role only</text>
    <text x="30" y="185" class="text-sm">UPDATE: Cancel allowed, full via service</text>

    <text x="320" y="60" class="text-md" fill="#fff">Payment Methods (FR-011 to FR-015)</text>
    <text x="320" y="80" class="text-sm">Full CRUD for owner</text>
    <text x="320" y="95" class="text-sm">No cross-user access</text>

    <text x="320" y="135" class="text-md" fill="#fff">Audit Logs (FR-016 to FR-020)</text>
    <text x="320" y="155" class="text-sm">SELECT: Own records only</text>
    <text x="320" y="170" class="text-sm">INSERT: Service role only</text>
    <text x="320" y="185" class="text-sm" fill="#ef4444">UPDATE/DELETE: DENIED always</text>

    <text x="320" y="215" class="text-md" fill="#eab308">NFR-005: &lt;10ms policy overhead</text>
    <text x="320" y="235" class="text-sm">Use indexed user_id columns</text>
  </g>
</svg>
