<svg xmlns="http://www.w3.org/2000/svg" viewBox="0 0 1400 800" width="1400" height="800">
  <!-- ============================================================
       GENERATED BY: /wireframe skill
       SOURCE: features/core-features/011-group-chats/spec.md
       DATE: 2026-01-01
       THEME: Light (UX/Frontend) - v3 True Parchment
       DO NOT MANUALLY EDIT - Regenerate with /wireframe command
       ============================================================ -->
  <defs>
    <linearGradient id="bgGrad" x1="0%" y1="0%" x2="100%" y2="100%">
      <stop offset="0%" style="stop-color:#c7ddf5"/>
      <stop offset="100%" style="stop-color:#b8d4f0"/>
    </linearGradient>
    <linearGradient id="accentGrad" x1="0%" y1="0%" x2="100%" y2="0%">
      <stop offset="0%" style="stop-color:#8b5cf6"/>
      <stop offset="100%" style="stop-color:#d946ef"/>
    </linearGradient>
    <style>
      .heading-lg { fill: #1a1a2e; font-family: system-ui, sans-serif; font-size: 24px; font-weight: 800; }
      .heading { fill: #1a1a2e; font-family: system-ui, sans-serif; font-size: 16px; font-weight: 700; }
      .text-md { fill: #2d3748; font-family: system-ui, sans-serif; font-size: 14px; font-weight: 500; }
      .text-sm { fill: #4a5568; font-family: system-ui, sans-serif; font-size: 12px; font-weight: 500; }
      .text-muted { fill: #5a6577; font-family: system-ui, sans-serif; font-size: 11px; font-weight: 500; }
      .annotation { fill: #8b5cf6; font-family: monospace; font-size: 12px; font-weight: 600; }
      .label-desktop { fill: #8b5cf6; font-family: monospace; font-size: 13px; font-weight: bold; }
      .label-mobile { fill: #d946ef; font-family: monospace; font-size: 13px; font-weight: bold; }
    </style>
  </defs>

  <!-- Background -->
  <rect width="1400" height="800" fill="url(#bgGrad)"/>

  <!-- Dot grid pattern -->
  <g opacity="0.35">
    <pattern id="dots" width="30" height="30" patternUnits="userSpaceOnUse">
      <circle cx="15" cy="15" r="1" fill="#6b8cba"/>
    </pattern>
    <rect width="1400" height="800" fill="url(#dots)"/>
  </g>

  <!-- Accent line top -->
  <rect x="0" y="0" width="1400" height="3" fill="url(#accentGrad)"/>

  <!-- Title -->
  <text x="700" y="28" text-anchor="middle" font-family="system-ui, sans-serif" font-size="14" font-weight="600" fill="#5a6577" letter-spacing="1">CREATE GROUP CHAT - MEMBER SELECTION</text>

  <!-- DESKTOP SECTION -->
  <text x="40" y="52" class="label-desktop">DESKTOP</text>

  <g id="desktop-view">
    <!-- Main container -->
    <rect x="40" y="60" width="900" height="700" rx="8" fill="#e8d4b8" stroke="#b8a080" stroke-width="1"/>

    <!-- Header -->
    <rect x="40" y="60" width="900" height="60" rx="8" fill="#dcc8a8"/>
    <text x="60" y="85" class="text-md">← Cancel</text>
    <text x="480" y="100" text-anchor="middle" class="heading-lg">Create Group</text>
    <rect x="820" y="75" width="100" height="36" rx="6" fill="#8b5cf6"/>
    <text x="870" y="98" text-anchor="middle" fill="#fff" font-size="13" font-weight="600">Create</text>

    <!-- Step indicator -->
    <g id="steps">
      <circle cx="400" y="140" r="16" fill="#8b5cf6"/>
      <text x="400" y="145" text-anchor="middle" fill="#fff" font-size="12" font-weight="bold">1</text>
      <text x="400" y="165" text-anchor="middle" class="text-sm">Name</text>

      <line x1="420" y1="140" x2="470" y2="140" stroke="#8b5cf6" stroke-width="2"/>

      <circle cx="490" y="140" r="16" fill="#8b5cf6"/>
      <text x="490" y="145" text-anchor="middle" fill="#fff" font-size="12" font-weight="bold">2</text>
      <text x="490" y="165" text-anchor="middle" class="text-sm">Members</text>

      <line x1="510" y1="140" x2="560" y2="140" stroke="#b8a080" stroke-width="2"/>

      <circle cx="580" y="140" r="16" fill="#dcc8a8" stroke="#b8a080"/>
      <text x="580" y="145" text-anchor="middle" fill="#5a6577" font-size="12" font-weight="bold">3</text>
      <text x="580" y="165" text-anchor="middle" class="text-sm">Confirm</text>
    </g>

    <!-- Group name input -->
    <text x="60" y="210" class="heading">Group Name (optional)</text>
    <rect x="60" y="225" width="400" height="45" rx="6" fill="#f5f0e6" stroke="#b8a080" stroke-width="1"/>
    <text x="80" y="253" class="text-md">Project Discussion Team</text>
    <text x="60" y="285" class="text-muted">Leave empty to auto-generate from member names</text>

    <!-- Selected members (chips) -->
    <text x="60" y="325" class="heading">Selected Members (4)</text>
    <g id="selected-chips">
      <rect x="60" y="340" width="120" height="32" rx="16" fill="#8b5cf6" fill-opacity="0.15" stroke="#8b5cf6" stroke-width="1"/>
      <text x="90" y="361" fill="#8b5cf6" font-size="12">Jane Doe ✕</text>

      <rect x="195" y="340" width="130" height="32" rx="16" fill="#8b5cf6" fill-opacity="0.15" stroke="#8b5cf6" stroke-width="1"/>
      <text x="225" y="361" fill="#8b5cf6" font-size="12">Alex Smith ✕</text>

      <rect x="340" y="340" width="120" height="32" rx="16" fill="#8b5cf6" fill-opacity="0.15" stroke="#8b5cf6" stroke-width="1"/>
      <text x="370" y="361" fill="#8b5cf6" font-size="12">Mike Kim ✕</text>

      <rect x="475" y="340" width="125" height="32" rx="16" fill="#8b5cf6" fill-opacity="0.15" stroke="#8b5cf6" stroke-width="1"/>
      <text x="505" y="361" fill="#8b5cf6" font-size="12">Sarah Lee ✕</text>
    </g>

    <!-- Search connections -->
    <rect x="60" y="395" width="860" height="40" rx="6" fill="#f5f0e6" stroke="#b8a080" stroke-width="1"/>
    <text x="80" y="420" class="text-muted">🔍 Search your connections...</text>

    <!-- Connections list -->
    <text x="60" y="465" class="heading">Your Connections</text>

    <!-- Connection 1 - Selected -->
    <rect x="60" y="485" width="420" height="60" rx="6" fill="#8b5cf6" fill-opacity="0.1" stroke="#8b5cf6" stroke-width="2"/>
    <circle cx="100" cy="515" r="20" fill="#dcc8a8" stroke="#8b5cf6" stroke-width="2"/>
    <text x="100" y="520" text-anchor="middle" class="heading">JD</text>
    <text x="135" y="510" class="heading">Jane Doe</text>
    <text x="135" y="528" class="text-muted">@janedoe</text>
    <rect x="400" y="500" width="70" height="28" rx="14" fill="#8b5cf6"/>
    <text x="435" y="519" text-anchor="middle" fill="#fff" font-size="11">✓ Added</text>

    <!-- Connection 2 - Selected -->
    <rect x="500" y="485" width="420" height="60" rx="6" fill="#8b5cf6" fill-opacity="0.1" stroke="#8b5cf6" stroke-width="2"/>
    <circle cx="540" cy="515" r="20" fill="#dcc8a8" stroke="#8b5cf6" stroke-width="2"/>
    <text x="540" y="520" text-anchor="middle" class="heading">AS</text>
    <text x="575" y="510" class="heading">Alex Smith</text>
    <text x="575" y="528" class="text-muted">@alexsmith</text>
    <rect x="840" y="500" width="70" height="28" rx="14" fill="#8b5cf6"/>
    <text x="875" y="519" text-anchor="middle" fill="#fff" font-size="11">✓ Added</text>

    <!-- Connection 3 - Not selected -->
    <rect x="60" y="560" width="420" height="60" rx="6" fill="#f5f0e6" stroke="#b8a080" stroke-width="1"/>
    <circle cx="100" cy="590" r="20" fill="#dcc8a8" stroke="#b8a080" stroke-width="1"/>
    <text x="100" y="595" text-anchor="middle" class="heading">TC</text>
    <text x="135" y="585" class="heading">Tom Chen</text>
    <text x="135" y="603" class="text-muted">@tomchen</text>
    <rect x="400" y="575" width="70" height="28" rx="14" fill="transparent" stroke="#8b5cf6" stroke-width="1"/>
    <text x="435" y="594" text-anchor="middle" fill="#8b5cf6" font-size="11">+ Add</text>

    <!-- Connection 4 - Not selected -->
    <rect x="500" y="560" width="420" height="60" rx="6" fill="#f5f0e6" stroke="#b8a080" stroke-width="1"/>
    <circle cx="540" cy="590" r="20" fill="#dcc8a8" stroke="#b8a080" stroke-width="1"/>
    <text x="540" y="595" text-anchor="middle" class="heading">LP</text>
    <text x="575" y="585" class="heading">Lisa Park</text>
    <text x="575" y="603" class="text-muted">@lisapark</text>
    <rect x="840" y="575" width="70" height="28" rx="14" fill="transparent" stroke="#8b5cf6" stroke-width="1"/>
    <text x="875" y="594" text-anchor="middle" fill="#8b5cf6" font-size="11">+ Add</text>

    <!-- Min members hint -->
    <rect x="60" y="640" width="300" height="40" rx="6" fill="#22c55e" fill-opacity="0.1" stroke="#22c55e" stroke-width="1"/>
    <text x="80" y="665" fill="#22c55e" font-size="12" font-weight="500">✓ Minimum 2 members selected (need 2+)</text>

    <!-- Max members info -->
    <text x="60" y="715" class="text-muted">Maximum 200 members per group</text>
  </g>

  <!-- MOBILE SECTION -->
  <text x="980" y="52" class="label-mobile">MOBILE</text>

  <g id="mobile-view" transform="translate(980, 60)">
    <!-- Phone frame -->
    <rect x="0" y="0" width="360" height="700" rx="24" fill="#c8b898" stroke="#a08860" stroke-width="2"/>
    <!-- Screen -->
    <rect x="10" y="10" width="340" height="680" rx="16" fill="#e8d4b8"/>

    <!-- Status bar -->
    <rect x="10" y="10" width="340" height="28" rx="16" fill="#dcc8a8"/>
    <text x="30" y="28" class="text-sm">9:41</text>
    <text x="310" y="28" text-anchor="end" class="text-sm">📶 🔋</text>

    <!-- Header -->
    <rect x="10" y="38" width="340" height="50" fill="#dcc8a8"/>
    <text x="25" y="68" class="text-md">←</text>
    <text x="180" y="70" text-anchor="middle" class="heading-lg">New Group</text>
    <text x="320" y="68" fill="#8b5cf6" font-size="14" font-weight="600">Create</text>

    <!-- Group name -->
    <text x="25" y="110" class="heading">Group Name</text>
    <rect x="20" y="118" width="320" height="38" rx="6" fill="#f5f0e6" stroke="#b8a080" stroke-width="1"/>
    <text x="35" y="142" class="text-md">Project Team</text>

    <!-- Selected chips -->
    <text x="25" y="180" class="heading">Selected (4)</text>
    <g id="mobile-chips">
      <rect x="20" y="190" width="90" height="26" rx="13" fill="#8b5cf6" fill-opacity="0.15" stroke="#8b5cf6"/>
      <text x="65" y="208" text-anchor="middle" fill="#8b5cf6" font-size="10">Jane ✕</text>

      <rect x="120" y="190" width="85" height="26" rx="13" fill="#8b5cf6" fill-opacity="0.15" stroke="#8b5cf6"/>
      <text x="163" y="208" text-anchor="middle" fill="#8b5cf6" font-size="10">Alex ✕</text>

      <rect x="215" y="190" width="80" height="26" rx="13" fill="#8b5cf6" fill-opacity="0.15" stroke="#8b5cf6"/>
      <text x="255" y="208" text-anchor="middle" fill="#8b5cf6" font-size="10">Mike ✕</text>

      <rect x="20" y="222" width="85" height="26" rx="13" fill="#8b5cf6" fill-opacity="0.15" stroke="#8b5cf6"/>
      <text x="63" y="240" text-anchor="middle" fill="#8b5cf6" font-size="10">Sarah ✕</text>
    </g>

    <!-- Search -->
    <rect x="20" y="260" width="320" height="34" rx="6" fill="#f5f0e6" stroke="#b8a080" stroke-width="1"/>
    <text x="40" y="282" class="text-muted">🔍 Search connections...</text>

    <!-- Connections -->
    <text x="25" y="320" class="heading">Connections</text>

    <!-- Connection 1 - Selected -->
    <rect x="20" y="335" width="320" height="55" rx="6" fill="#8b5cf6" fill-opacity="0.1" stroke="#8b5cf6" stroke-width="2"/>
    <circle cx="50" cy="363" r="16" fill="#dcc8a8" stroke="#8b5cf6"/>
    <text x="50" y="367" text-anchor="middle" fill="#1a1a2e" font-size="10" font-weight="bold">JD</text>
    <text x="75" y="358" class="heading">Jane Doe</text>
    <text x="75" y="373" class="text-muted">@janedoe</text>
    <rect x="270" y="350" width="60" height="24" rx="12" fill="#8b5cf6"/>
    <text x="300" y="366" text-anchor="middle" fill="#fff" font-size="9">✓ Added</text>

    <!-- Connection 2 -->
    <rect x="20" y="400" width="320" height="55" rx="6" fill="#f5f0e6" stroke="#b8a080"/>
    <circle cx="50" cy="428" r="16" fill="#dcc8a8"/>
    <text x="50" y="432" text-anchor="middle" fill="#1a1a2e" font-size="10" font-weight="bold">TC</text>
    <text x="75" y="423" class="heading">Tom Chen</text>
    <text x="75" y="438" class="text-muted">@tomchen</text>
    <rect x="270" y="415" width="60" height="24" rx="12" fill="transparent" stroke="#8b5cf6"/>
    <text x="300" y="431" text-anchor="middle" fill="#8b5cf6" font-size="9">+ Add</text>

    <!-- Connection 3 -->
    <rect x="20" y="465" width="320" height="55" rx="6" fill="#f5f0e6" stroke="#b8a080"/>
    <circle cx="50" cy="493" r="16" fill="#dcc8a8"/>
    <text x="50" y="497" text-anchor="middle" fill="#1a1a2e" font-size="10" font-weight="bold">LP</text>
    <text x="75" y="488" class="heading">Lisa Park</text>
    <text x="75" y="503" class="text-muted">@lisapark</text>
    <rect x="270" y="480" width="60" height="24" rx="12" fill="transparent" stroke="#8b5cf6"/>
    <text x="300" y="496" text-anchor="middle" fill="#8b5cf6" font-size="9">+ Add</text>

    <!-- Connection 4 -->
    <rect x="20" y="530" width="320" height="55" rx="6" fill="#f5f0e6" stroke="#b8a080"/>
    <circle cx="50" cy="558" r="16" fill="#dcc8a8"/>
    <text x="50" y="562" text-anchor="middle" fill="#1a1a2e" font-size="10" font-weight="bold">DW</text>
    <text x="75" y="553" class="heading">David Wilson</text>
    <text x="75" y="568" class="text-muted">@davidw</text>
    <rect x="270" y="545" width="60" height="24" rx="12" fill="transparent" stroke="#8b5cf6"/>
    <text x="300" y="561" text-anchor="middle" fill="#8b5cf6" font-size="9">+ Add</text>

    <!-- Hint -->
    <rect x="20" y="600" width="320" height="35" rx="6" fill="#22c55e" fill-opacity="0.1"/>
    <text x="40" y="622" fill="#22c55e" font-size="11">✓ 4 members selected</text>

    <!-- Bottom safe area -->
    <rect x="10" y="665" width="340" height="25" rx="16" fill="#e8d4b8"/>
  </g>

  <!-- Annotations -->
  <g id="annotations">
    <rect x="40" y="765" width="120" height="25" rx="4" fill="#e8d4b8" stroke="#8b5cf6" stroke-width="1"/>
    <text x="100" y="782" text-anchor="middle" class="annotation">FR-001, FR-018</text>

    <rect x="180" y="765" width="220" height="25" rx="4" fill="#e8d4b8" stroke="#8b5cf6" stroke-width="1"/>
    <text x="290" y="782" text-anchor="middle" class="text-muted">2-200 members, optional name</text>
  </g>
</svg>
