<svg xmlns="http://www.w3.org/2000/svg" viewBox="0 0 1400 800" width="1400" height="800">
  <!-- ============================================================
       GENERATED BY: /wireframe skill
       SOURCE: features/core-features/011-group-chats/spec.md
       DATE: 2025-12-31
       DO NOT MANUALLY EDIT - Regenerate with /wireframe command
       ============================================================ -->
  <defs>
    <linearGradient id="bgGrad" x1="0%" y1="0%" x2="100%" y2="100%">
      <stop offset="0%" style="stop-color:#0f172a"/>
      <stop offset="100%" style="stop-color:#1e293b"/>
    </linearGradient>
    <linearGradient id="accentGrad" x1="0%" y1="0%" x2="100%" y2="0%">
      <stop offset="0%" style="stop-color:#8b5cf6"/>
      <stop offset="100%" style="stop-color:#d946ef"/>
    </linearGradient>
    <style>
      .heading-lg { fill: #ffffff; font-family: system-ui, sans-serif; font-size: 20px; font-weight: bold; }
      .heading { fill: #ffffff; font-family: system-ui, sans-serif; font-size: 14px; font-weight: bold; }
      .text-md { fill: #cbd5e1; font-family: system-ui, sans-serif; font-size: 12px; }
      .text-sm { fill: #94a3b8; font-family: system-ui, sans-serif; font-size: 10px; }
      .text-muted { fill: #64748b; font-family: system-ui, sans-serif; font-size: 10px; }
      .annotation { fill: #8b5cf6; font-family: monospace; font-size: 10px; }
      .label-desktop { fill: #8b5cf6; font-family: monospace; font-size: 11px; font-weight: bold; }
      .label-mobile { fill: #d946ef; font-family: monospace; font-size: 11px; font-weight: bold; }
    </style>
  </defs>

  <!-- Background -->
  <rect width="1400" height="800" fill="url(#bgGrad)"/>

  <!-- Dot grid pattern -->
  <g opacity="0.05">
    <pattern id="dots" width="30" height="30" patternUnits="userSpaceOnUse">
      <circle cx="15" cy="15" r="1" fill="#fff"/>
    </pattern>
    <rect width="1400" height="800" fill="url(#dots)"/>
  </g>

  <!-- Accent line top -->
  <rect x="0" y="0" width="1400" height="3" fill="url(#accentGrad)"/>

  <!-- Title -->
  <text x="700" y="28" text-anchor="middle" font-family="system-ui, sans-serif" font-size="14" font-weight="600" fill="#64748b" letter-spacing="1">CREATE GROUP CHAT</text>

  <!-- DESKTOP SECTION -->
  <text x="40" y="52" class="label-desktop">DESKTOP</text>
  <g id="desktop-view">
    <!-- Main content area - modal overlay -->
    <rect x="40" y="60" width="900" height="680" rx="8" fill="#0f172a" opacity="0.7"/>

    <!-- Create Group Modal -->
    <rect x="190" y="100" width="600" height="600" rx="12" fill="#1e293b" stroke="#475569" stroke-width="1"/>

    <!-- Modal Header -->
    <rect x="190" y="100" width="600" height="50" rx="12" fill="#334155"/>
    <rect x="190" y="138" width="600" height="12" fill="#334155"/>
    <text x="490" y="132" text-anchor="middle" class="heading-lg">Create New Group</text>
    <text x="760" y="132" class="text-md" fill="#94a3b8">✕</text>

    <!-- Group Name Input -->
    <text x="220" y="180" class="text-sm">Group Name (optional)</text>
    <rect x="220" y="190" width="540" height="40" rx="6" fill="#0f172a" stroke="#475569" stroke-width="1"/>
    <text x="235" y="215" class="text-muted">e.g., "Project Team" or leave blank for auto-name</text>

    <!-- Search Connections -->
    <text x="220" y="260" class="text-sm">Add Members</text>
    <rect x="220" y="270" width="540" height="40" rx="6" fill="#0f172a" stroke="#475569" stroke-width="1"/>
    <circle cx="245" cy="290" r="10" fill="none" stroke="#64748b" stroke-width="1.5"/>
    <line x1="252" y1="297" x2="260" y2="305" stroke="#64748b" stroke-width="1.5"/>
    <text x="270" y="295" class="text-muted">Search connections...</text>

    <!-- Selected Members (chips) -->
    <g transform="translate(220, 320)">
      <rect x="0" y="0" width="90" height="28" rx="14" fill="#8b5cf6" opacity="0.2" stroke="#8b5cf6" stroke-width="1"/>
      <circle cx="16" cy="14" r="10" fill="#8b5cf6"/>
      <text x="14" y="18" text-anchor="middle" font-size="8" fill="#fff">AJ</text>
      <text x="32" y="18" class="text-sm" fill="#fff">Alice J.</text>
      <text x="80" y="18" class="text-sm" fill="#94a3b8">×</text>

      <rect x="100" y="0" width="90" height="28" rx="14" fill="#8b5cf6" opacity="0.2" stroke="#8b5cf6" stroke-width="1"/>
      <circle cx="116" cy="14" r="10" fill="#d946ef"/>
      <text x="114" y="18" text-anchor="middle" font-size="8" fill="#fff">BM</text>
      <text x="132" y="18" class="text-sm" fill="#fff">Bob M.</text>
      <text x="180" y="18" class="text-sm" fill="#94a3b8">×</text>

      <rect x="200" y="0" width="100" height="28" rx="14" fill="#8b5cf6" opacity="0.2" stroke="#8b5cf6" stroke-width="1"/>
      <circle cx="216" cy="14" r="10" fill="#22c55e"/>
      <text x="214" y="18" text-anchor="middle" font-size="8" fill="#fff">CS</text>
      <text x="232" y="18" class="text-sm" fill="#fff">Carol S.</text>
      <text x="290" y="18" class="text-sm" fill="#94a3b8">×</text>
    </g>
    <text x="540" y="338" class="text-muted">3 selected (min 2)</text>

    <!-- Available Connections List -->
    <text x="220" y="375" class="text-sm">Your Connections</text>
    <rect x="220" y="385" width="540" height="220" rx="6" fill="#0f172a" stroke="#475569" stroke-width="1"/>

    <!-- Connection Items -->
    <g transform="translate(230, 395)">
      <!-- Item 1 - already selected -->
      <rect x="0" y="0" width="520" height="50" rx="4" fill="#8b5cf6" opacity="0.1"/>
      <circle cx="25" cy="25" r="18" fill="#8b5cf6"/>
      <text x="23" y="30" text-anchor="middle" font-size="10" fill="#fff">AJ</text>
      <text x="55" y="22" class="heading">Alice Johnson</text>
      <text x="55" y="38" class="text-muted">@alicej • Connected 2 months ago</text>
      <rect x="470" y="12" width="40" height="26" rx="4" fill="#8b5cf6"/>
      <text x="490" y="30" text-anchor="middle" class="text-sm" fill="#fff">✓</text>

      <!-- Item 2 -->
      <rect x="0" y="55" width="520" height="50" rx="4" fill="transparent"/>
      <circle cx="25" cy="80" r="18" fill="#475569"/>
      <text x="23" y="85" text-anchor="middle" font-size="10" fill="#fff">DK</text>
      <text x="55" y="77" class="heading">David Kim</text>
      <text x="55" y="93" class="text-muted">@davidk • Connected 1 week ago</text>
      <rect x="470" y="67" width="40" height="26" rx="4" fill="#334155" stroke="#475569" stroke-width="1"/>
      <text x="490" y="85" text-anchor="middle" class="text-sm" fill="#94a3b8">+</text>

      <!-- Item 3 -->
      <rect x="0" y="110" width="520" height="50" rx="4" fill="transparent"/>
      <circle cx="25" cy="135" r="18" fill="#eab308"/>
      <text x="23" y="140" text-anchor="middle" font-size="10" fill="#000">EL</text>
      <text x="55" y="132" class="heading">Emma Lee</text>
      <text x="55" y="148" class="text-muted">@emmal • Connected 3 months ago</text>
      <rect x="470" y="122" width="40" height="26" rx="4" fill="#334155" stroke="#475569" stroke-width="1"/>
      <text x="490" y="140" text-anchor="middle" class="text-sm" fill="#94a3b8">+</text>

      <!-- Item 4 -->
      <rect x="0" y="165" width="520" height="50" rx="4" fill="transparent"/>
      <circle cx="25" cy="190" r="18" fill="#ef4444"/>
      <text x="23" y="195" text-anchor="middle" font-size="10" fill="#fff">FG</text>
      <text x="55" y="187" class="heading">Frank Garcia</text>
      <text x="55" y="203" class="text-muted">@frankg • Connected 5 days ago</text>
      <rect x="470" y="177" width="40" height="26" rx="4" fill="#334155" stroke="#475569" stroke-width="1"/>
      <text x="490" y="195" text-anchor="middle" class="text-sm" fill="#94a3b8">+</text>
    </g>

    <!-- Group Preview -->
    <rect x="220" y="615" width="270" height="60" rx="6" fill="#334155"/>
    <text x="235" y="635" class="text-sm">Preview:</text>
    <!-- Stacked avatars -->
    <circle cx="245" cy="660" r="14" fill="#8b5cf6" stroke="#334155" stroke-width="2"/>
    <circle cx="265" cy="660" r="14" fill="#d946ef" stroke="#334155" stroke-width="2"/>
    <circle cx="285" cy="660" r="14" fill="#22c55e" stroke="#334155" stroke-width="2"/>
    <text x="310" y="665" class="text-md">Alice, Bob, Carol</text>

    <!-- Create Button -->
    <rect x="510" y="625" width="250" height="44" rx="6" fill="url(#accentGrad)"/>
    <text x="635" y="653" text-anchor="middle" class="heading" fill="#fff">Create Group</text>
  </g>

  <!-- MOBILE SECTION -->
  <text x="980" y="52" class="label-mobile">MOBILE</text>
  <g id="mobile-view" transform="translate(980, 60)">
    <!-- Phone frame -->
    <rect x="0" y="0" width="360" height="700" rx="24" fill="#1e293b" stroke="#475569" stroke-width="2"/>
    <rect x="10" y="10" width="340" height="680" rx="16" fill="#0f172a"/>

    <!-- Status bar -->
    <rect x="10" y="10" width="340" height="28" rx="16" fill="#1e293b"/>
    <text x="30" y="28" class="text-sm">9:41</text>
    <text x="310" y="28" class="text-sm">📶 🔋</text>

    <!-- Header -->
    <rect x="10" y="38" width="340" height="50" fill="#1e293b"/>
    <text x="30" y="68" class="text-md" fill="#94a3b8">← Cancel</text>
    <text x="180" y="68" text-anchor="middle" class="heading">New Group</text>
    <text x="320" y="68" class="text-md" fill="#8b5cf6">Create</text>

    <!-- Group Name Input -->
    <text x="25" y="110" class="text-sm">GROUP NAME</text>
    <rect x="20" y="118" width="320" height="44" rx="8" fill="#1e293b" stroke="#475569" stroke-width="1"/>
    <text x="35" y="145" class="text-muted">Optional group name...</text>

    <!-- Selected chips -->
    <text x="25" y="185" class="text-sm">MEMBERS (3)</text>
    <g transform="translate(20, 195)">
      <rect x="0" y="0" width="80" height="32" rx="16" fill="#8b5cf6" opacity="0.2" stroke="#8b5cf6" stroke-width="1"/>
      <circle cx="16" cy="16" r="11" fill="#8b5cf6"/>
      <text x="14" y="20" text-anchor="middle" font-size="8" fill="#fff">AJ</text>
      <text x="42" y="20" class="text-sm" fill="#fff">Alice</text>
      <text x="70" y="20" class="text-sm" fill="#94a3b8">×</text>

      <rect x="88" y="0" width="72" height="32" rx="16" fill="#8b5cf6" opacity="0.2" stroke="#8b5cf6" stroke-width="1"/>
      <circle cx="104" cy="16" r="11" fill="#d946ef"/>
      <text x="102" y="20" text-anchor="middle" font-size="8" fill="#fff">BM</text>
      <text x="128" y="20" class="text-sm" fill="#fff">Bob</text>
      <text x="152" y="20" class="text-sm" fill="#94a3b8">×</text>

      <rect x="168" y="0" width="80" height="32" rx="16" fill="#8b5cf6" opacity="0.2" stroke="#8b5cf6" stroke-width="1"/>
      <circle cx="184" cy="16" r="11" fill="#22c55e"/>
      <text x="182" y="20" text-anchor="middle" font-size="8" fill="#fff">CS</text>
      <text x="210" y="20" class="text-sm" fill="#fff">Carol</text>
      <text x="240" y="20" class="text-sm" fill="#94a3b8">×</text>
    </g>

    <!-- Search -->
    <rect x="20" y="245" width="320" height="40" rx="20" fill="#1e293b" stroke="#475569" stroke-width="1"/>
    <circle cx="42" cy="265" r="10" fill="none" stroke="#64748b" stroke-width="1.5"/>
    <line x1="49" y1="272" x2="56" y2="279" stroke="#64748b" stroke-width="1.5"/>
    <text x="65" y="270" class="text-muted">Search connections...</text>

    <!-- Connections List -->
    <text x="25" y="310" class="text-sm">CONNECTIONS</text>

    <!-- Connection 1 -->
    <rect x="20" y="320" width="320" height="60" rx="8" fill="#1e293b"/>
    <circle cx="50" cy="350" r="20" fill="#475569"/>
    <text x="48" y="356" text-anchor="middle" font-size="11" fill="#fff">DK</text>
    <text x="80" y="345" class="heading">David Kim</text>
    <text x="80" y="362" class="text-muted">@davidk</text>
    <rect x="280" y="338" width="44" height="26" rx="13" fill="#334155" stroke="#475569" stroke-width="1"/>
    <text x="302" y="356" text-anchor="middle" class="text-sm" fill="#94a3b8">+</text>

    <!-- Connection 2 -->
    <rect x="20" y="388" width="320" height="60" rx="8" fill="#1e293b"/>
    <circle cx="50" cy="418" r="20" fill="#eab308"/>
    <text x="48" y="424" text-anchor="middle" font-size="11" fill="#000">EL</text>
    <text x="80" y="413" class="heading">Emma Lee</text>
    <text x="80" y="430" class="text-muted">@emmal</text>
    <rect x="280" y="406" width="44" height="26" rx="13" fill="#334155" stroke="#475569" stroke-width="1"/>
    <text x="302" y="424" text-anchor="middle" class="text-sm" fill="#94a3b8">+</text>

    <!-- Connection 3 -->
    <rect x="20" y="456" width="320" height="60" rx="8" fill="#1e293b"/>
    <circle cx="50" cy="486" r="20" fill="#ef4444"/>
    <text x="48" y="492" text-anchor="middle" font-size="11" fill="#fff">FG</text>
    <text x="80" y="481" class="heading">Frank Garcia</text>
    <text x="80" y="498" class="text-muted">@frankg</text>
    <rect x="280" y="474" width="44" height="26" rx="13" fill="#334155" stroke="#475569" stroke-width="1"/>
    <text x="302" y="492" text-anchor="middle" class="text-sm" fill="#94a3b8">+</text>

    <!-- Connection 4 -->
    <rect x="20" y="524" width="320" height="60" rx="8" fill="#1e293b"/>
    <circle cx="50" cy="554" r="20" fill="#06b6d4"/>
    <text x="48" y="560" text-anchor="middle" font-size="11" fill="#fff">GH</text>
    <text x="80" y="549" class="heading">Grace Huang</text>
    <text x="80" y="566" class="text-muted">@graceh</text>
    <rect x="280" y="542" width="44" height="26" rx="13" fill="#334155" stroke="#475569" stroke-width="1"/>
    <text x="302" y="560" text-anchor="middle" class="text-sm" fill="#94a3b8">+</text>

    <!-- Bottom Preview Bar -->
    <rect x="10" y="600" width="340" height="90" rx="16" fill="#1e293b"/>
    <text x="25" y="625" class="text-sm">Group Preview</text>
    <!-- Stacked avatars mobile -->
    <circle cx="35" cy="655" r="16" fill="#8b5cf6" stroke="#1e293b" stroke-width="2"/>
    <circle cx="55" cy="655" r="16" fill="#d946ef" stroke="#1e293b" stroke-width="2"/>
    <circle cx="75" cy="655" r="16" fill="#22c55e" stroke="#1e293b" stroke-width="2"/>
    <text x="100" y="660" class="text-md">Alice, Bob, Carol</text>

    <!-- Create button -->
    <rect x="230" y="635" width="100" height="40" rx="20" fill="url(#accentGrad)"/>
    <text x="280" y="660" text-anchor="middle" class="text-md" fill="#fff">Create</text>
  </g>

  <!-- Annotations -->
  <g class="annotations">
    <rect x="40" y="740" width="180" height="40" rx="4" fill="#1e293b" stroke="#8b5cf6" stroke-width="1"/>
    <text x="130" y="758" text-anchor="middle" class="annotation">FR-001: 2-200 members</text>
    <text x="130" y="772" text-anchor="middle" class="text-muted">Min 2 to create group</text>

    <rect x="240" y="740" width="180" height="40" rx="4" fill="#1e293b" stroke="#8b5cf6" stroke-width="1"/>
    <text x="330" y="758" text-anchor="middle" class="annotation">FR-018: Optional name</text>
    <text x="330" y="772" text-anchor="middle" class="text-muted">Auto-gen from members</text>

    <rect x="440" y="740" width="180" height="40" rx="4" fill="#1e293b" stroke="#8b5cf6" stroke-width="1"/>
    <text x="530" y="758" text-anchor="middle" class="annotation">FR-019: Stacked avatars</text>
    <text x="530" y="772" text-anchor="middle" class="text-muted">Visual group preview</text>

    <rect x="640" y="740" width="180" height="40" rx="4" fill="#1e293b" stroke="#8b5cf6" stroke-width="1"/>
    <text x="730" y="758" text-anchor="middle" class="annotation">FR-009: Add connections</text>
    <text x="730" y="772" text-anchor="middle" class="text-muted">Only from user's network</text>
  </g>
</svg>