<svg xmlns="http://www.w3.org/2000/svg" viewBox="0 0 1400 800" width="1400" height="800">
  <!-- ============================================================
       GENERATED BY: /wireframe skill
       SOURCE: features/core-features/011-group-chats/spec.md
       DATE: 2026-01-01
       THEME: Light (UX/Frontend) - v3 True Parchment
       DO NOT MANUALLY EDIT - Regenerate with /wireframe command
       ============================================================ -->
  <defs>
    <linearGradient id="bgGrad" x1="0%" y1="0%" x2="100%" y2="100%">
      <stop offset="0%" style="stop-color:#c7ddf5"/>
      <stop offset="100%" style="stop-color:#b8d4f0"/>
    </linearGradient>
    <linearGradient id="accentGrad" x1="0%" y1="0%" x2="100%" y2="0%">
      <stop offset="0%" style="stop-color:#8b5cf6"/>
      <stop offset="100%" style="stop-color:#d946ef"/>
    </linearGradient>
    <style>
      .heading-lg { fill: #1a1a2e; font-family: system-ui, sans-serif; font-size: 24px; font-weight: 800; }
      .heading { fill: #1a1a2e; font-family: system-ui, sans-serif; font-size: 16px; font-weight: 700; }
      .text-md { fill: #2d3748; font-family: system-ui, sans-serif; font-size: 14px; font-weight: 500; }
      .text-sm { fill: #4a5568; font-family: system-ui, sans-serif; font-size: 12px; font-weight: 500; }
      .text-muted { fill: #5a6577; font-family: system-ui, sans-serif; font-size: 11px; font-weight: 500; }
      .annotation { fill: #8b5cf6; font-family: monospace; font-size: 12px; font-weight: 600; }
      .label-desktop { fill: #8b5cf6; font-family: monospace; font-size: 13px; font-weight: bold; }
      .label-mobile { fill: #d946ef; font-family: monospace; font-size: 13px; font-weight: bold; }
    </style>
  </defs>

  <!-- Background -->
  <rect width="1400" height="800" fill="url(#bgGrad)"/>

  <!-- Dot grid pattern -->
  <g opacity="0.35">
    <pattern id="dots" width="30" height="30" patternUnits="userSpaceOnUse">
      <circle cx="15" cy="15" r="1" fill="#6b8cba"/>
    </pattern>
    <rect width="1400" height="800" fill="url(#dots)"/>
  </g>

  <!-- Accent line top -->
  <rect x="0" y="0" width="1400" height="3" fill="url(#accentGrad)"/>

  <!-- Title -->
  <text x="700" y="28" text-anchor="middle" font-family="system-ui, sans-serif" font-size="14" font-weight="600" fill="#5a6577" letter-spacing="1">GROUP CHAT INTERFACE - MULTI-USER CONVERSATION</text>

  <!-- DESKTOP SECTION -->
  <text x="40" y="52" class="label-desktop">DESKTOP</text>

  <g id="desktop-view">
    <!-- Main container -->
    <rect x="40" y="60" width="900" height="700" rx="8" fill="#e8d4b8" stroke="#b8a080" stroke-width="1"/>

    <!-- Header -->
    <rect x="40" y="60" width="900" height="70" rx="8" fill="#dcc8a8"/>
    <text x="60" y="90" class="text-muted">← Back</text>

    <!-- Stacked avatars -->
    <g id="stacked-avatars">
      <circle cx="140" cy="95" r="18" fill="#dcc8a8" stroke="#e8d4b8" stroke-width="2"/>
      <text x="140" y="100" text-anchor="middle" fill="#1a1a2e" font-size="10" font-weight="bold">JD</text>
      <circle cx="160" cy="95" r="18" fill="#dcc8a8" stroke="#e8d4b8" stroke-width="2"/>
      <text x="160" y="100" text-anchor="middle" fill="#1a1a2e" font-size="10" font-weight="bold">AS</text>
      <circle cx="180" cy="95" r="18" fill="#dcc8a8" stroke="#e8d4b8" stroke-width="2"/>
      <text x="180" y="100" text-anchor="middle" fill="#1a1a2e" font-size="10" font-weight="bold">MK</text>
      <circle cx="200" cy="95" r="18" fill="#8b5cf6" stroke="#e8d4b8" stroke-width="2"/>
      <text x="200" y="100" text-anchor="middle" fill="#fff" font-size="10" font-weight="bold">+2</text>
    </g>

    <text x="230" y="90" class="heading">Project Discussion Team</text>
    <text x="230" y="108" class="text-muted">5 members · 3 online</text>

    <!-- Encryption + Info button -->
    <rect x="780" y="77" width="50" height="30" rx="15" fill="#22c55e" fill-opacity="0.15" stroke="#22c55e" stroke-width="1"/>
    <text x="805" y="97" text-anchor="middle" fill="#22c55e" font-size="11">🔒</text>
    <rect x="845" y="77" width="75" height="30" rx="6" fill="#f5f0e6" stroke="#b8a080"/>
    <text x="883" y="97" text-anchor="middle" class="text-sm">ⓘ Info</text>

    <!-- Message area -->
    <rect x="60" y="145" width="860" height="520" rx="6" fill="#f5f0e6"/>

    <!-- Date separator -->
    <text x="490" y="170" text-anchor="middle" class="text-muted">Today</text>

    <!-- System message: join -->
    <rect x="320" y="185" width="340" height="25" rx="12" fill="#dcc8a8"/>
    <text x="490" y="202" text-anchor="middle" class="text-muted">Sarah Lee joined the group</text>

    <!-- Message from Jane -->
    <g id="msg-jane">
      <circle cx="95" cy="240" r="16" fill="#dcc8a8"/>
      <text x="95" y="244" text-anchor="middle" fill="#1a1a2e" font-size="10" font-weight="bold">JD</text>
      <text x="120" y="235" fill="#8b5cf6" font-size="11" font-weight="600">Jane Doe</text>
      <rect x="120" y="245" width="300" height="40" rx="10" fill="#dcc8a8"/>
      <text x="140" y="268" class="text-md">Hey everyone! Welcome to the team 👋</text>
      <text x="140" y="280" class="text-muted">10:30 AM</text>
    </g>

    <!-- Message from Alex -->
    <g id="msg-alex">
      <circle cx="95" cy="320" r="16" fill="#dcc8a8"/>
      <text x="95" y="324" text-anchor="middle" fill="#1a1a2e" font-size="10" font-weight="bold">AS</text>
      <text x="120" y="315" fill="#d946ef" font-size="11" font-weight="600">Alex Smith</text>
      <rect x="120" y="325" width="350" height="40" rx="10" fill="#dcc8a8"/>
      <text x="140" y="348" class="text-md">Thanks for setting this up! Excited to work together.</text>
      <text x="140" y="360" class="text-muted">10:31 AM</text>
    </g>

    <!-- My message (Mike) -->
    <g id="msg-mike">
      <rect x="550" y="390" width="350" height="55" rx="10" fill="#8b5cf6"/>
      <text x="570" y="413" fill="#fff" font-size="14">Let's discuss the project timeline.</text>
      <text x="570" y="433" fill="#fff" font-size="14">I've shared some docs in the folder.</text>
      <text x="570" y="448" fill="#e0d4fc" font-size="11">10:32 AM · ✓✓ Read by 3</text>
    </g>

    <!-- Message from Sarah (new member - sees placeholder) -->
    <g id="msg-sarah">
      <circle cx="95" cy="480" r="16" fill="#dcc8a8"/>
      <text x="95" y="484" text-anchor="middle" fill="#1a1a2e" font-size="10" font-weight="bold">SL</text>
      <text x="120" y="475" fill="#22c55e" font-size="11" font-weight="600">Sarah Lee</text>
      <rect x="120" y="485" width="280" height="40" rx="10" fill="#dcc8a8"/>
      <text x="140" y="508" class="text-md">Happy to be here! Looking forward to it.</text>
      <text x="140" y="520" class="text-muted">10:35 AM</text>
    </g>

    <!-- Pre-join message placeholder for Sarah -->
    <rect x="320" y="545" width="340" height="30" rx="6" fill="#eab308" fill-opacity="0.1" stroke="#eab308" stroke-width="1"/>
    <text x="490" y="565" text-anchor="middle" fill="#eab308" font-size="11">🔒 3 messages before you joined are hidden</text>

    <!-- Typing indicators (multiple) -->
    <g id="typing-multiple">
      <circle cx="95" cy="595" r="12" fill="#dcc8a8"/>
      <text x="95" y="599" text-anchor="middle" fill="#1a1a2e" font-size="8" font-weight="bold">JD</text>
      <circle cx="115" cy="595" r="12" fill="#dcc8a8"/>
      <text x="115" y="599" text-anchor="middle" fill="#1a1a2e" font-size="8" font-weight="bold">AS</text>
      <rect x="135" y="585" width="90" height="25" rx="10" fill="#dcc8a8"/>
      <text x="180" y="602" text-anchor="middle" class="text-muted">...</text>
      <text x="240" y="600" class="text-muted">Jane and Alex are typing...</text>
    </g>

    <!-- Input area -->
    <rect x="60" y="680" width="700" height="50" rx="6" fill="#f5f0e6" stroke="#b8a080" stroke-width="1"/>
    <text x="80" y="710" class="text-muted">Message Project Discussion Team...</text>

    <!-- Send button -->
    <rect x="775" y="680" width="80" height="50" rx="6" fill="#8b5cf6"/>
    <text x="815" y="710" text-anchor="middle" fill="#fff" font-size="14" font-weight="600">Send</text>

    <!-- Emoji button -->
    <rect x="860" y="680" width="50" height="50" rx="6" fill="#dcc8a8" stroke="#b8a080" stroke-width="1"/>
    <text x="885" y="712" text-anchor="middle" font-size="20">😊</text>
  </g>

  <!-- MOBILE SECTION -->
  <text x="980" y="52" class="label-mobile">MOBILE</text>

  <g id="mobile-view" transform="translate(980, 60)">
    <!-- Phone frame -->
    <rect x="0" y="0" width="360" height="700" rx="24" fill="#c8b898" stroke="#a08860" stroke-width="2"/>
    <!-- Screen -->
    <rect x="10" y="10" width="340" height="680" rx="16" fill="#e8d4b8"/>

    <!-- Status bar -->
    <rect x="10" y="10" width="340" height="28" rx="16" fill="#dcc8a8"/>
    <text x="30" y="28" class="text-sm">9:41</text>
    <text x="310" y="28" text-anchor="end" class="text-sm">📶 🔋</text>

    <!-- Header -->
    <rect x="10" y="38" width="340" height="55" fill="#dcc8a8"/>
    <text x="25" y="70" class="text-md">←</text>

    <!-- Stacked avatars mobile -->
    <circle cx="60" cy="65" r="12" fill="#dcc8a8" stroke="#e8d4b8" stroke-width="1"/>
    <text x="60" y="69" text-anchor="middle" fill="#1a1a2e" font-size="8" font-weight="bold">JD</text>
    <circle cx="75" cy="65" r="12" fill="#dcc8a8" stroke="#e8d4b8" stroke-width="1"/>
    <text x="75" y="69" text-anchor="middle" fill="#1a1a2e" font-size="8" font-weight="bold">AS</text>
    <circle cx="90" cy="65" r="12" fill="#8b5cf6" stroke="#e8d4b8" stroke-width="1"/>
    <text x="90" y="69" text-anchor="middle" fill="#fff" font-size="8" font-weight="bold">+3</text>

    <text x="110" y="62" class="heading">Project Team</text>
    <text x="110" y="78" class="text-muted">5 members</text>
    <text x="310" y="70" fill="#22c55e" font-size="12">🔒</text>
    <text x="330" y="70" class="text-md">ⓘ</text>

    <!-- Messages -->
    <rect x="20" y="103" width="320" height="505" rx="6" fill="#f5f0e6"/>

    <!-- Date -->
    <text x="180" y="123" text-anchor="middle" class="text-muted">Today</text>

    <!-- System message -->
    <rect x="60" y="133" width="220" height="20" rx="10" fill="#dcc8a8"/>
    <text x="170" y="147" text-anchor="middle" class="text-muted">Sarah Lee joined</text>

    <!-- Jane's message -->
    <circle cx="35" cy="178" r="12" fill="#dcc8a8"/>
    <text x="35" y="182" text-anchor="middle" fill="#1a1a2e" font-size="8" font-weight="bold">JD</text>
    <text x="55" y="168" fill="#8b5cf6" font-size="10" font-weight="600">Jane</text>
    <rect x="55" y="175" width="180" height="35" rx="8" fill="#dcc8a8"/>
    <text x="65" y="193" class="text-sm">Welcome everyone! 👋</text>
    <text x="65" y="206" class="text-muted">10:30</text>

    <!-- Alex's message -->
    <circle cx="35" cy="243" r="12" fill="#dcc8a8"/>
    <text x="35" y="247" text-anchor="middle" fill="#1a1a2e" font-size="8" font-weight="bold">AS</text>
    <text x="55" y="233" fill="#d946ef" font-size="10" font-weight="600">Alex</text>
    <rect x="55" y="240" width="200" height="35" rx="8" fill="#dcc8a8"/>
    <text x="65" y="258" class="text-sm">Excited to work together!</text>
    <text x="65" y="271" class="text-muted">10:31</text>

    <!-- My message -->
    <rect x="120" y="295" width="210" height="45" rx="8" fill="#8b5cf6"/>
    <text x="130" y="313" fill="#fff" font-size="12">Let's discuss the</text>
    <text x="130" y="328" fill="#fff" font-size="12">project timeline.</text>
    <text x="130" y="340" fill="#e0d4fc" font-size="9">10:32 · ✓✓</text>

    <!-- Sarah's message -->
    <circle cx="35" cy="378" r="12" fill="#dcc8a8"/>
    <text x="35" y="382" text-anchor="middle" fill="#1a1a2e" font-size="8" font-weight="bold">SL</text>
    <text x="55" y="368" fill="#22c55e" font-size="10" font-weight="600">Sarah</text>
    <rect x="55" y="375" width="180" height="35" rx="8" fill="#dcc8a8"/>
    <text x="65" y="393" class="text-sm">Happy to be here!</text>
    <text x="65" y="406" class="text-muted">10:35</text>

    <!-- Pre-join hint -->
    <rect x="40" y="425" width="260" height="25" rx="4" fill="#eab308" fill-opacity="0.1"/>
    <text x="170" y="442" text-anchor="middle" fill="#eab308" font-size="9">🔒 3 earlier messages hidden</text>

    <!-- Typing -->
    <circle cx="35" cy="475" r="10" fill="#dcc8a8"/>
    <text x="35" y="479" text-anchor="middle" fill="#1a1a2e" font-size="7" font-weight="bold">JD</text>
    <circle cx="52" cy="475" r="10" fill="#dcc8a8"/>
    <text x="52" y="479" text-anchor="middle" fill="#1a1a2e" font-size="7" font-weight="bold">AS</text>
    <rect x="68" y="467" width="60" height="18" rx="8" fill="#dcc8a8"/>
    <text x="98" y="480" text-anchor="middle" class="text-muted">...</text>
    <text x="140" y="480" class="text-muted">2 typing</text>

    <!-- Scroll to bottom -->
    <circle cx="300" cy="560" r="16" fill="#8b5cf6" stroke="#fff" stroke-width="2"/>
    <text x="300" y="565" text-anchor="middle" fill="#fff" font-size="12">↓</text>

    <!-- Input -->
    <rect x="20" y="618" width="250" height="40" rx="6" fill="#f5f0e6" stroke="#b8a080" stroke-width="1"/>
    <text x="35" y="643" class="text-muted">Message...</text>

    <!-- Send button -->
    <rect x="280" y="618" width="50" height="40" rx="6" fill="#8b5cf6"/>
    <text x="305" y="643" text-anchor="middle" fill="#fff" font-size="16">→</text>

    <!-- Bottom safe area -->
    <rect x="10" y="665" width="340" height="25" rx="16" fill="#e8d4b8"/>
  </g>

  <!-- Annotations -->
  <g id="annotations">
    <rect x="40" y="765" width="180" height="25" rx="4" fill="#e8d4b8" stroke="#8b5cf6" stroke-width="1"/>
    <text x="130" y="782" text-anchor="middle" class="annotation">FR-016 to FR-024</text>

    <rect x="240" y="765" width="300" height="25" rx="4" fill="#e8d4b8" stroke="#8b5cf6" stroke-width="1"/>
    <text x="390" y="782" text-anchor="middle" class="text-muted">Sender attribution, history restriction, multi-typing</text>
  </g>
</svg>
