<svg xmlns="http://www.w3.org/2000/svg" viewBox="0 0 1400 800" width="1400" height="800">
  <!-- ============================================================
       GENERATED BY: /wireframe skill
       SOURCE: features/core-features/011-group-chats/spec.md
       DATE: 2025-12-31
       DO NOT MANUALLY EDIT - Regenerate with /wireframe command
       ============================================================ -->
  <defs>
    <linearGradient id="bgGrad" x1="0%" y1="0%" x2="100%" y2="100%">
      <stop offset="0%" style="stop-color:#0f172a"/>
      <stop offset="100%" style="stop-color:#1e293b"/>
    </linearGradient>
    <linearGradient id="accentGrad" x1="0%" y1="0%" x2="100%" y2="0%">
      <stop offset="0%" style="stop-color:#8b5cf6"/>
      <stop offset="100%" style="stop-color:#d946ef"/>
    </linearGradient>
    <style>
      .heading-lg { fill: #ffffff; font-family: system-ui, sans-serif; font-size: 20px; font-weight: bold; }
      .heading { fill: #ffffff; font-family: system-ui, sans-serif; font-size: 14px; font-weight: bold; }
      .text-md { fill: #cbd5e1; font-family: system-ui, sans-serif; font-size: 12px; }
      .text-sm { fill: #94a3b8; font-family: system-ui, sans-serif; font-size: 10px; }
      .text-muted { fill: #64748b; font-family: system-ui, sans-serif; font-size: 10px; }
      .annotation { fill: #8b5cf6; font-family: monospace; font-size: 10px; }
      .label-desktop { fill: #8b5cf6; font-family: monospace; font-size: 11px; font-weight: bold; }
      .label-mobile { fill: #d946ef; font-family: monospace; font-size: 11px; font-weight: bold; }
    </style>
  </defs>

  <!-- Background -->
  <rect width="1400" height="800" fill="url(#bgGrad)"/>

  <!-- Dot grid pattern -->
  <g opacity="0.05">
    <pattern id="dots" width="30" height="30" patternUnits="userSpaceOnUse">
      <circle cx="15" cy="15" r="1" fill="#fff"/>
    </pattern>
    <rect width="1400" height="800" fill="url(#dots)"/>
  </g>

  <!-- Accent line top -->
  <rect x="0" y="0" width="1400" height="3" fill="url(#accentGrad)"/>

  <!-- Title -->
  <text x="700" y="28" text-anchor="middle" font-family="system-ui, sans-serif" font-size="14" font-weight="600" fill="#64748b" letter-spacing="1">GROUP INFO &amp; MEMBER MANAGEMENT</text>

  <!-- DESKTOP SECTION -->
  <text x="40" y="52" class="label-desktop">DESKTOP - OWNER VIEW</text>
  <g id="desktop-view">
    <!-- Main Panel -->
    <rect x="40" y="60" width="450" height="680" rx="8" fill="#1e293b" stroke="#475569" stroke-width="1"/>

    <!-- Header -->
    <rect x="40" y="60" width="450" height="60" rx="8" fill="#334155"/>
    <rect x="40" y="108" width="450" height="12" fill="#334155"/>
    <text x="60" y="95" class="text-md" fill="#94a3b8">← Back</text>
    <text x="265" y="95" text-anchor="middle" class="heading-lg">Group Info</text>

    <!-- Group Avatar & Name -->
    <g transform="translate(170, 140)">
      <!-- Large stacked avatars -->
      <circle cx="40" cy="40" r="35" fill="#8b5cf6" stroke="#1e293b" stroke-width="3"/>
      <circle cx="80" cy="40" r="35" fill="#d946ef" stroke="#1e293b" stroke-width="3"/>
      <circle cx="120" cy="40" r="35" fill="#22c55e" stroke="#1e293b" stroke-width="3"/>
    </g>
    <text x="265" y="235" text-anchor="middle" class="heading-lg">Project Team</text>
    <text x="265" y="255" text-anchor="middle" class="text-muted">3 members • Created Dec 28</text>

    <!-- Edit Group Name -->
    <rect x="215" y="265" width="100" height="28" rx="14" fill="#334155"/>
    <text x="265" y="284" text-anchor="middle" class="text-sm" fill="#8b5cf6">Edit Name</text>

    <!-- Encryption Status -->
    <rect x="60" y="310" width="410" height="50" rx="8" fill="#0f172a"/>
    <text x="85" y="335" class="text-md" fill="#22c55e">🔒 End-to-end Encrypted</text>
    <text x="85" y="352" class="text-muted">All messages secured • Key version 3</text>

    <!-- Members Section -->
    <text x="60" y="390" class="heading">Members (3)</text>

    <!-- Add Members Button -->
    <rect x="350" y="372" width="110" height="30" rx="6" fill="#8b5cf6"/>
    <text x="405" y="392" text-anchor="middle" class="text-sm" fill="#fff">+ Add Member</text>

    <!-- Member List -->
    <g transform="translate(60, 405)">
      <!-- Owner (current user) -->
      <rect x="0" y="0" width="410" height="60" rx="8" fill="#0f172a"/>
      <circle cx="30" cy="30" r="22" fill="#8b5cf6"/>
      <text x="28" y="36" text-anchor="middle" font-size="12" fill="#fff">AJ</text>
      <text x="65" y="25" class="heading">Alice Johnson (You)</text>
      <rect x="65" y="32" width="50" height="18" rx="9" fill="#8b5cf6" opacity="0.3"/>
      <text x="90" y="45" text-anchor="middle" class="text-sm" fill="#8b5cf6">Owner</text>
      <text x="360" y="35" class="text-muted" fill="#22c55e">Online</text>

      <!-- Member with context menu -->
      <rect x="0" y="70" width="410" height="60" rx="8" fill="#0f172a"/>
      <circle cx="30" cy="100" r="22" fill="#d946ef"/>
      <text x="28" y="106" text-anchor="middle" font-size="12" fill="#fff">BM</text>
      <text x="65" y="95" class="heading">Bob Martinez</text>
      <text x="65" y="112" class="text-muted">Member • Joined Dec 28</text>
      <!-- Action buttons (owner only) -->
      <rect x="300" y="87" width="50" height="26" rx="4" fill="#334155"/>
      <text x="325" y="105" text-anchor="middle" class="text-sm" fill="#8b5cf6">👑</text>
      <rect x="355" y="87" width="50" height="26" rx="4" fill="#334155"/>
      <text x="380" y="105" text-anchor="middle" class="text-sm" fill="#ef4444">✕</text>

      <!-- Member -->
      <rect x="0" y="140" width="410" height="60" rx="8" fill="#0f172a"/>
      <circle cx="30" cy="170" r="22" fill="#22c55e"/>
      <text x="28" y="176" text-anchor="middle" font-size="12" fill="#fff">CS</text>
      <text x="65" y="165" class="heading">Carol Smith</text>
      <text x="65" y="182" class="text-muted">Member • Joined today</text>
      <rect x="300" y="157" width="50" height="26" rx="4" fill="#334155"/>
      <text x="325" y="175" text-anchor="middle" class="text-sm" fill="#8b5cf6">👑</text>
      <rect x="355" y="157" width="50" height="26" rx="4" fill="#334155"/>
      <text x="380" y="175" text-anchor="middle" class="text-sm" fill="#ef4444">✕</text>
    </g>

    <!-- Legend for owner actions -->
    <rect x="60" y="625" width="410" height="35" rx="6" fill="#0f172a"/>
    <text x="80" y="648" class="text-muted">👑 = Transfer ownership</text>
    <text x="230" y="648" class="text-muted">✕ = Remove member</text>

    <!-- Delete Group Button (owner only) -->
    <rect x="60" y="680" width="180" height="40" rx="6" fill="#0f172a" stroke="#ef4444" stroke-width="1"/>
    <text x="150" y="705" text-anchor="middle" class="text-md" fill="#ef4444">Delete Group</text>

    <!-- Second Panel - Transfer Ownership Modal -->
    <rect x="500" y="60" width="440" height="350" rx="8" fill="#1e293b" stroke="#8b5cf6" stroke-width="2"/>

    <!-- Modal Header -->
    <rect x="500" y="60" width="440" height="50" rx="8" fill="#334155"/>
    <rect x="500" y="98" width="440" height="12" fill="#334155"/>
    <text x="720" y="92" text-anchor="middle" class="heading">Transfer Ownership</text>
    <text x="920" y="92" class="text-md" fill="#94a3b8">✕</text>

    <!-- Warning -->
    <rect x="520" y="125" width="400" height="50" rx="6" fill="#eab308" opacity="0.1" stroke="#eab308" stroke-width="1"/>
    <text x="540" y="148" class="text-md" fill="#eab308">⚠️ You will become a regular member</text>
    <text x="540" y="165" class="text-sm" fill="#eab308">The new owner can remove you from the group</text>

    <!-- Select new owner -->
    <text x="520" y="200" class="text-sm">Select new owner:</text>

    <!-- Member options -->
    <g transform="translate(520, 210)">
      <rect x="0" y="0" width="400" height="55" rx="6" fill="#0f172a" stroke="#8b5cf6" stroke-width="1"/>
      <circle cx="28" cy="28" r="20" fill="#d946ef"/>
      <text x="26" y="34" text-anchor="middle" font-size="11" fill="#fff">BM</text>
      <text x="60" y="25" class="heading">Bob Martinez</text>
      <text x="60" y="42" class="text-muted">Member since Dec 28</text>
      <circle cx="375" cy="28" r="10" fill="#8b5cf6"/>
      <text x="375" y="32" text-anchor="middle" class="text-sm" fill="#fff">✓</text>

      <rect x="0" y="65" width="400" height="55" rx="6" fill="#0f172a"/>
      <circle cx="28" cy="93" r="20" fill="#22c55e"/>
      <text x="26" y="99" text-anchor="middle" font-size="11" fill="#fff">CS</text>
      <text x="60" y="90" class="heading">Carol Smith</text>
      <text x="60" y="107" class="text-muted">Member since today</text>
      <circle cx="375" cy="93" r="10" fill="#334155" stroke="#475569" stroke-width="1"/>
    </g>

    <!-- Confirm button -->
    <rect x="520" y="350" width="400" height="44" rx="6" fill="url(#accentGrad)"/>
    <text x="720" y="377" text-anchor="middle" class="heading" fill="#fff">Transfer to Bob Martinez</text>

    <!-- Third Panel - Remove Member Confirmation -->
    <rect x="500" y="420" width="440" height="200" rx="8" fill="#1e293b" stroke="#ef4444" stroke-width="2"/>

    <rect x="500" y="420" width="440" height="50" rx="8" fill="#334155"/>
    <rect x="500" y="458" width="440" height="12" fill="#334155"/>
    <text x="720" y="452" text-anchor="middle" class="heading">Remove Member?</text>

    <g transform="translate(520, 485)">
      <circle cx="28" cy="20" r="22" fill="#22c55e"/>
      <text x="26" y="26" text-anchor="middle" font-size="12" fill="#fff">CS</text>
      <text x="60" y="18" class="heading">Carol Smith</text>
      <text x="60" y="35" class="text-muted">will be removed from Project Team</text>
    </g>

    <text x="520" y="555" class="text-sm" fill="#94a3b8">• They will lose access to future messages</text>
    <text x="520" y="572" class="text-sm" fill="#94a3b8">• Group key will be rotated for security</text>

    <rect x="520" y="585" width="190" height="40" rx="6" fill="#334155"/>
    <text x="615" y="610" text-anchor="middle" class="text-md">Cancel</text>
    <rect x="720" y="585" width="190" height="40" rx="6" fill="#ef4444"/>
    <text x="815" y="610" text-anchor="middle" class="text-md" fill="#fff">Remove</text>
  </g>

  <!-- MOBILE SECTION -->
  <text x="980" y="52" class="label-mobile">MOBILE</text>
  <g id="mobile-view" transform="translate(980, 60)">
    <!-- Phone frame -->
    <rect x="0" y="0" width="360" height="700" rx="24" fill="#1e293b" stroke="#475569" stroke-width="2"/>
    <rect x="10" y="10" width="340" height="680" rx="16" fill="#0f172a"/>

    <!-- Status bar -->
    <rect x="10" y="10" width="340" height="28" rx="16" fill="#1e293b"/>
    <text x="30" y="28" class="text-sm">9:41</text>
    <text x="310" y="28" class="text-sm">📶 🔋</text>

    <!-- Header -->
    <rect x="10" y="38" width="340" height="50" fill="#1e293b"/>
    <text x="30" y="68" class="text-md" fill="#94a3b8">←</text>
    <text x="180" y="68" text-anchor="middle" class="heading">Group Info</text>

    <!-- Group Info -->
    <g transform="translate(100, 105)">
      <circle cx="30" cy="30" r="28" fill="#8b5cf6" stroke="#0f172a" stroke-width="2"/>
      <circle cx="65" cy="30" r="28" fill="#d946ef" stroke="#0f172a" stroke-width="2"/>
      <circle cx="100" cy="30" r="28" fill="#22c55e" stroke="#0f172a" stroke-width="2"/>
    </g>
    <text x="180" y="180" text-anchor="middle" class="heading-lg">Project Team</text>
    <text x="180" y="198" text-anchor="middle" class="text-muted">3 members</text>

    <!-- Encryption badge -->
    <rect x="125" y="210" width="110" height="28" rx="14" fill="#22c55e" opacity="0.2"/>
    <text x="180" y="228" text-anchor="middle" class="text-sm" fill="#22c55e">🔒 Encrypted</text>

    <!-- Add member button -->
    <rect x="20" y="255" width="320" height="44" rx="8" fill="#8b5cf6"/>
    <text x="180" y="282" text-anchor="middle" class="heading" fill="#fff">+ Add Members</text>

    <!-- Members list -->
    <text x="25" y="325" class="text-sm">MEMBERS</text>

    <!-- Owner -->
    <rect x="20" y="335" width="320" height="55" rx="8" fill="#1e293b"/>
    <circle cx="48" cy="362" r="18" fill="#8b5cf6"/>
    <text x="46" y="368" text-anchor="middle" font-size="10" fill="#fff">AJ</text>
    <text x="75" y="355" class="text-md">Alice Johnson (You)</text>
    <rect x="75" y="362" width="45" height="16" rx="8" fill="#8b5cf6" opacity="0.3"/>
    <text x="97" y="374" text-anchor="middle" class="text-muted" fill="#8b5cf6">Owner</text>

    <!-- Member with swipe actions hint -->
    <rect x="20" y="398" width="320" height="55" rx="8" fill="#1e293b"/>
    <circle cx="48" cy="425" r="18" fill="#d946ef"/>
    <text x="46" y="431" text-anchor="middle" font-size="10" fill="#fff">BM</text>
    <text x="75" y="418" class="text-md">Bob Martinez</text>
    <text x="75" y="435" class="text-muted">Swipe for actions ⟶</text>

    <!-- Member -->
    <rect x="20" y="461" width="320" height="55" rx="8" fill="#1e293b"/>
    <circle cx="48" cy="488" r="18" fill="#22c55e"/>
    <text x="46" y="494" text-anchor="middle" font-size="10" fill="#fff">CS</text>
    <text x="75" y="481" class="text-md">Carol Smith</text>
    <text x="75" y="498" class="text-muted">Joined today</text>

    <!-- Danger zone -->
    <rect x="20" y="540" width="320" height="1" fill="#475569"/>

    <!-- Leave / Delete buttons -->
    <rect x="20" y="560" width="320" height="50" rx="8" fill="#1e293b"/>
    <text x="180" y="590" text-anchor="middle" class="text-md" fill="#ef4444">Delete Group</text>

    <!-- Bottom sheet preview (action menu) -->
    <rect x="10" y="620" width="340" height="70" rx="16" fill="#334155"/>
    <text x="180" y="645" text-anchor="middle" class="text-sm">Actions for Bob Martinez</text>
    <rect x="30" y="655" width="140" height="28" rx="6" fill="#8b5cf6" opacity="0.2"/>
    <text x="100" y="674" text-anchor="middle" class="text-sm" fill="#8b5cf6">Make Owner</text>
    <rect x="185" y="655" width="140" height="28" rx="6" fill="#ef4444" opacity="0.2"/>
    <text x="255" y="674" text-anchor="middle" class="text-sm" fill="#ef4444">Remove</text>
  </g>

  <!-- Annotations -->
  <g class="annotations">
    <rect x="40" y="740" width="160" height="40" rx="4" fill="#1e293b" stroke="#8b5cf6" stroke-width="1"/>
    <text x="120" y="758" text-anchor="middle" class="annotation">FR-010: Owner only</text>
    <text x="120" y="772" text-anchor="middle" class="text-muted">Remove member control</text>

    <rect x="210" y="740" width="160" height="40" rx="4" fill="#1e293b" stroke="#8b5cf6" stroke-width="1"/>
    <text x="290" y="758" text-anchor="middle" class="annotation">FR-012/013: Transfer</text>
    <text x="290" y="772" text-anchor="middle" class="text-muted">Owner must transfer first</text>

    <rect x="380" y="740" width="150" height="40" rx="4" fill="#1e293b" stroke="#8b5cf6" stroke-width="1"/>
    <text x="455" y="758" text-anchor="middle" class="annotation">FR-014: Delete group</text>
    <text x="455" y="772" text-anchor="middle" class="text-muted">Owner-only action</text>

    <rect x="540" y="740" width="160" height="40" rx="4" fill="#1e293b" stroke="#8b5cf6" stroke-width="1"/>
    <text x="620" y="758" text-anchor="middle" class="annotation">FR-004: Key rotation</text>
    <text x="620" y="772" text-anchor="middle" class="text-muted">On member changes</text>

    <rect x="710" y="740" width="150" height="40" rx="4" fill="#1e293b" stroke="#8b5cf6" stroke-width="1"/>
    <text x="785" y="758" text-anchor="middle" class="annotation">FR-017: Group info</text>
    <text x="785" y="772" text-anchor="middle" class="text-muted">Name, count, members</text>
  </g>
</svg>