<svg xmlns="http://www.w3.org/2000/svg" viewBox="0 0 1400 800" width="1400" height="800">
  <!-- ============================================================
       GENERATED BY: /wireframe skill
       SOURCE: features/core-features/011-group-chats/spec.md
       DATE: 2026-01-01
       THEME: Light (UX/Frontend) - v3 True Parchment
       DO NOT MANUALLY EDIT - Regenerate with /wireframe command
       ============================================================ -->
  <defs>
    <linearGradient id="bgGrad" x1="0%" y1="0%" x2="100%" y2="100%">
      <stop offset="0%" style="stop-color:#c7ddf5"/>
      <stop offset="100%" style="stop-color:#b8d4f0"/>
    </linearGradient>
    <linearGradient id="accentGrad" x1="0%" y1="0%" x2="100%" y2="0%">
      <stop offset="0%" style="stop-color:#8b5cf6"/>
      <stop offset="100%" style="stop-color:#d946ef"/>
    </linearGradient>
    <style>
      .heading-lg { fill: #1a1a2e; font-family: system-ui, sans-serif; font-size: 24px; font-weight: 800; }
      .heading { fill: #1a1a2e; font-family: system-ui, sans-serif; font-size: 16px; font-weight: 700; }
      .text-md { fill: #2d3748; font-family: system-ui, sans-serif; font-size: 14px; font-weight: 500; }
      .text-sm { fill: #374151; font-family: system-ui, sans-serif; font-size: 12px; font-weight: 500; }
      .text-muted { fill: #4b5563; font-family: system-ui, sans-serif; font-size: 11px; font-weight: 500; }
      .annotation { fill: #6d28d9; font-family: monospace; font-size: 12px; font-weight: 600; }
      .label-desktop { fill: #8b5cf6; font-family: monospace; font-size: 13px; font-weight: bold; }
      .label-mobile { fill: #d946ef; font-family: monospace; font-size: 13px; font-weight: bold; }
    </style>
  </defs>

  <!-- Background -->
  <rect width="1400" height="800" fill="url(#bgGrad)"/>

  <!-- Dot grid pattern -->
  <g opacity="0.35">
    <pattern id="dots" width="30" height="30" patternUnits="userSpaceOnUse">
      <circle cx="15" cy="15" r="1" fill="#6b8cba"/>
    </pattern>
    <rect width="1400" height="800" fill="url(#dots)"/>
  </g>

  <!-- Accent line top -->
  <rect x="0" y="0" width="1400" height="3" fill="url(#accentGrad)"/>

  <!-- Title -->
  <text x="700" y="28" text-anchor="middle" font-family="system-ui, sans-serif" font-size="14" font-weight="600" fill="#4b5563" letter-spacing="1">GROUP MANAGEMENT - MEMBERS &amp; SETTINGS</text>

  <!-- DESKTOP SECTION -->
  <text x="40" y="52" class="label-desktop">DESKTOP</text>

  <g id="desktop-view">
    <!-- Main container -->
    <rect x="40" y="60" width="900" height="700" rx="8" fill="#e8d4b8" stroke="#b8a080" stroke-width="1"/>

    <!-- Header -->
    <rect x="40" y="60" width="900" height="60" rx="8" fill="#dcc8a8"/>
    <text x="60" y="98" class="text-md">← Back to Chat</text>
    <text x="480" y="100" text-anchor="middle" class="heading-lg">Group Info</text>

    <!-- Group avatar and name -->
    <g id="group-info">
      <circle cx="180" cy="165" r="50" fill="#8b5cf6"/>
      <text x="180" y="175" text-anchor="middle" fill="#fff" font-size="24" font-weight="bold">PT</text>
      <text x="260" y="155" class="heading-lg">Project Discussion Team</text>
      <text x="260" y="180" class="text-muted">Created Dec 30, 2025 · 5 members</text>
      <rect x="260" y="195" width="120" height="30" rx="6" fill="#f5f0e6" stroke="#b8a080"/>
      <text x="320" y="215" text-anchor="middle" class="text-sm">✏️ Edit Name</text>
    </g>

    <!-- Add member button -->
    <rect x="700" y="140" width="160" height="40" rx="6" fill="#8b5cf6"/>
    <text x="780" y="165" text-anchor="middle" fill="#fff" font-size="14" font-weight="600">+ Add Members</text>

    <!-- Members section -->
    <text x="60" y="265" class="heading">Members (5)</text>

    <!-- Member 1: Owner (You) -->
    <rect x="60" y="285" width="860" height="70" rx="6" fill="#8b5cf6" fill-opacity="0.1" stroke="#8b5cf6" stroke-width="2"/>
    <circle cx="105" cy="320" r="24" fill="#dcc8a8" stroke="#8b5cf6" stroke-width="2"/>
    <text x="105" y="325" text-anchor="middle" class="heading">MK</text>
    <text x="145" y="310" class="heading">Mike Kim (You)</text>
    <rect x="265" y="302" width="55" height="20" rx="10" fill="#8b5cf6"/>
    <text x="293" y="316" text-anchor="middle" fill="#fff" font-size="10" font-weight="600">Owner</text>
    <text x="145" y="330" class="text-muted">@mikekim · Group owner since Dec 30</text>

    <!-- Member 2: Jane -->
    <rect x="60" y="370" width="860" height="70" rx="6" fill="#f5f0e6" stroke="#b8a080" stroke-width="1"/>
    <circle cx="105" cy="405" r="24" fill="#dcc8a8" stroke="#b8a080" stroke-width="1"/>
    <text x="105" y="410" text-anchor="middle" class="heading">JD</text>
    <text x="145" y="395" class="heading">Jane Doe</text>
    <text x="145" y="415" class="text-muted">@janedoe · Joined Dec 30</text>
    <circle cx="825" cy="405" r="6" fill="#22c55e"/>
    <text x="850" y="410" class="text-muted">Online</text>
    <!-- Actions -->
    <rect x="730" y="390" width="100" height="28" rx="4" fill="transparent" stroke="#ef4444" stroke-width="1"/>
    <text x="780" y="409" text-anchor="middle" fill="#ef4444" font-size="11">Remove</text>

    <!-- Member 3: Alex -->
    <rect x="60" y="455" width="860" height="70" rx="6" fill="#f5f0e6" stroke="#b8a080" stroke-width="1"/>
    <circle cx="105" cy="490" r="24" fill="#dcc8a8" stroke="#b8a080" stroke-width="1"/>
    <text x="105" y="495" text-anchor="middle" class="heading">AS</text>
    <text x="145" y="480" class="heading">Alex Smith</text>
    <text x="145" y="500" class="text-muted">@alexsmith · Joined Dec 30</text>
    <circle cx="825" cy="490" r="6" fill="#22c55e"/>
    <text x="850" y="495" class="text-muted">Online</text>
    <rect x="730" y="475" width="100" height="28" rx="4" fill="transparent" stroke="#ef4444" stroke-width="1"/>
    <text x="780" y="494" text-anchor="middle" fill="#ef4444" font-size="11">Remove</text>

    <!-- Member 4: Sarah (new, pending key) -->
    <rect x="60" y="540" width="860" height="70" rx="6" fill="#eab308" fill-opacity="0.1" stroke="#eab308" stroke-width="1"/>
    <circle cx="105" cy="575" r="24" fill="#dcc8a8" stroke="#eab308" stroke-width="1"/>
    <text x="105" y="580" text-anchor="middle" class="heading">SL</text>
    <text x="145" y="565" class="heading">Sarah Lee</text>
    <rect x="235" y="557" width="85" height="18" rx="9" fill="#eab308" fill-opacity="0.2"/>
    <text x="278" y="570" text-anchor="middle" fill="#eab308" font-size="9" font-weight="600">⚠️ Pending Key</text>
    <text x="145" y="585" class="text-muted">@sarahlee · Joined Dec 31 · Waiting for key sync</text>
    <rect x="730" y="560" width="100" height="28" rx="4" fill="transparent" stroke="#ef4444" stroke-width="1"/>
    <text x="780" y="579" text-anchor="middle" fill="#ef4444" font-size="11">Remove</text>

    <!-- Member 5: Tom (offline) -->
    <rect x="60" y="625" width="860" height="70" rx="6" fill="#f5f0e6" stroke="#b8a080" stroke-width="1"/>
    <circle cx="105" cy="660" r="24" fill="#dcc8a8" stroke="#b8a080" stroke-width="1"/>
    <text x="105" y="665" text-anchor="middle" class="heading">TC</text>
    <text x="145" y="650" class="heading">Tom Chen</text>
    <text x="145" y="670" class="text-muted">@tomchen · Joined Dec 30</text>
    <circle cx="825" cy="660" r="6" fill="#94a3b8"/>
    <text x="850" y="665" class="text-muted">Offline</text>
    <rect x="730" y="645" width="100" height="28" rx="4" fill="transparent" stroke="#ef4444" stroke-width="1"/>
    <text x="780" y="664" text-anchor="middle" fill="#ef4444" font-size="11">Remove</text>

    <!-- Owner actions footer -->
    <rect x="60" y="710" width="860" height="40" rx="6" fill="#f5f0e6" stroke="#b8a080"/>
    <rect x="70" y="718" width="150" height="26" rx="4" fill="#d946ef" fill-opacity="0.1" stroke="#d946ef"/>
    <text x="145" y="736" text-anchor="middle" fill="#d946ef" font-size="11">👑 Transfer Ownership</text>
    <rect x="240" y="718" width="120" height="26" rx="4" fill="#ef4444" fill-opacity="0.1" stroke="#ef4444"/>
    <text x="300" y="736" text-anchor="middle" fill="#ef4444" font-size="11">🗑️ Delete Group</text>
  </g>

  <!-- MOBILE SECTION -->
  <text x="980" y="52" class="label-mobile">MOBILE</text>

  <g id="mobile-view" transform="translate(980, 60)">
    <!-- Phone frame -->
    <rect x="0" y="0" width="360" height="700" rx="24" fill="#c8b898" stroke="#a08860" stroke-width="2"/>
    <!-- Screen -->
    <rect x="10" y="10" width="340" height="680" rx="16" fill="#e8d4b8"/>

    <!-- Status bar -->
    <rect x="10" y="10" width="340" height="28" rx="16" fill="#dcc8a8"/>
    <text x="30" y="28" class="text-sm">9:41</text>
    <text x="310" y="28" text-anchor="end" class="text-sm">📶 🔋</text>

    <!-- Header -->
    <rect x="10" y="38" width="340" height="50" fill="#dcc8a8"/>
    <text x="25" y="68" class="text-md">←</text>
    <text x="180" y="70" text-anchor="middle" class="heading-lg">Group Info</text>

    <!-- Group avatar/name -->
    <circle cx="180" cy="125" r="35" fill="#8b5cf6"/>
    <text x="180" y="133" text-anchor="middle" fill="#fff" font-size="18" font-weight="bold">PT</text>
    <text x="180" y="175" text-anchor="middle" class="heading">Project Team</text>
    <text x="180" y="195" text-anchor="middle" class="text-muted">5 members</text>

    <!-- Add member button -->
    <rect x="100" y="210" width="160" height="32" rx="6" fill="#8b5cf6"/>
    <text x="180" y="231" text-anchor="middle" fill="#fff" font-size="12" font-weight="600">+ Add Members</text>

    <!-- Members label -->
    <text x="25" y="270" class="heading">Members</text>

    <!-- Member 1: You (Owner) -->
    <rect x="20" y="285" width="320" height="55" rx="6" fill="#8b5cf6" fill-opacity="0.1" stroke="#8b5cf6"/>
    <circle cx="50" cy="313" r="16" fill="#dcc8a8" stroke="#8b5cf6"/>
    <text x="50" y="317" text-anchor="middle" fill="#1a1a2e" font-size="10" font-weight="bold">MK</text>
    <text x="75" y="308" class="heading">Mike Kim (You)</text>
    <rect x="175" y="301" width="45" height="16" rx="8" fill="#8b5cf6"/>
    <text x="198" y="312" text-anchor="middle" fill="#fff" font-size="8" font-weight="600">Owner</text>
    <text x="75" y="323" class="text-muted">@mikekim</text>

    <!-- Member 2: Jane -->
    <rect x="20" y="350" width="320" height="55" rx="6" fill="#f5f0e6" stroke="#b8a080"/>
    <circle cx="50" cy="378" r="16" fill="#dcc8a8"/>
    <text x="50" y="382" text-anchor="middle" fill="#1a1a2e" font-size="10" font-weight="bold">JD</text>
    <text x="75" y="373" class="heading">Jane Doe</text>
    <text x="75" y="388" class="text-muted">@janedoe</text>
    <circle cx="280" cy="378" r="5" fill="#22c55e"/>
    <text x="310" y="382" class="text-muted">⋮</text>

    <!-- Member 3: Alex -->
    <rect x="20" y="415" width="320" height="55" rx="6" fill="#f5f0e6" stroke="#b8a080"/>
    <circle cx="50" cy="443" r="16" fill="#dcc8a8"/>
    <text x="50" y="447" text-anchor="middle" fill="#1a1a2e" font-size="10" font-weight="bold">AS</text>
    <text x="75" y="438" class="heading">Alex Smith</text>
    <text x="75" y="453" class="text-muted">@alexsmith</text>
    <circle cx="280" cy="443" r="5" fill="#22c55e"/>
    <text x="310" y="447" class="text-muted">⋮</text>

    <!-- Member 4: Sarah (pending key) -->
    <rect x="20" y="480" width="320" height="55" rx="6" fill="#eab308" fill-opacity="0.1" stroke="#eab308"/>
    <circle cx="50" cy="508" r="16" fill="#dcc8a8" stroke="#eab308"/>
    <text x="50" y="512" text-anchor="middle" fill="#1a1a2e" font-size="10" font-weight="bold">SL</text>
    <text x="75" y="503" class="heading">Sarah Lee</text>
    <rect x="145" y="496" width="70" height="14" rx="7" fill="#eab308" fill-opacity="0.2"/>
    <text x="180" y="506" text-anchor="middle" fill="#eab308" font-size="8">⚠️ Pending</text>
    <text x="75" y="518" class="text-muted">@sarahlee</text>
    <text x="310" y="512" class="text-muted">⋮</text>

    <!-- Member 5: Tom -->
    <rect x="20" y="545" width="320" height="55" rx="6" fill="#f5f0e6" stroke="#b8a080"/>
    <circle cx="50" cy="573" r="16" fill="#dcc8a8"/>
    <text x="50" y="577" text-anchor="middle" fill="#1a1a2e" font-size="10" font-weight="bold">TC</text>
    <text x="75" y="568" class="heading">Tom Chen</text>
    <text x="75" y="583" class="text-muted">@tomchen</text>
    <circle cx="280" cy="573" r="5" fill="#94a3b8"/>
    <text x="310" y="577" class="text-muted">⋮</text>

    <!-- Owner actions -->
    <rect x="20" y="615" width="155" height="35" rx="6" fill="#d946ef" fill-opacity="0.1" stroke="#d946ef"/>
    <text x="98" y="637" text-anchor="middle" fill="#d946ef" font-size="10">👑 Transfer</text>

    <rect x="185" y="615" width="155" height="35" rx="6" fill="#ef4444" fill-opacity="0.1" stroke="#ef4444"/>
    <text x="263" y="637" text-anchor="middle" fill="#ef4444" font-size="10">🗑️ Delete</text>

    <!-- Bottom safe area -->
    <rect x="10" y="665" width="340" height="25" rx="16" fill="#e8d4b8"/>
  </g>

  <!-- Annotations -->
  <g id="annotations">
    <rect x="40" y="765" width="160" height="25" rx="4" fill="#e8d4b8" stroke="#8b5cf6" stroke-width="1"/>
    <text x="120" y="782" text-anchor="middle" class="annotation">FR-009 to FR-017</text>

    <rect x="220" y="765" width="320" height="25" rx="4" fill="#e8d4b8" stroke="#8b5cf6" stroke-width="1"/>
    <text x="380" y="782" text-anchor="middle" class="text-muted">Add/remove members, transfer ownership, delete</text>
  </g>
</svg>
