<svg xmlns="http://www.w3.org/2000/svg" viewBox="0 0 1400 800" width="1400" height="800">
  <!-- ============================================================
       GENERATED BY: /wireframe skill
       SOURCE: features/core-features/011-group-chats/spec.md
       DATE: 2026-01-01
       THEME: Dark (Backend/Architecture)
       DO NOT MANUALLY EDIT - Regenerate with /wireframe command
       ============================================================ -->
  <defs>
    <linearGradient id="bgGrad" x1="0%" y1="0%" x2="100%" y2="100%">
      <stop offset="0%" style="stop-color:#0f172a"/>
      <stop offset="100%" style="stop-color:#1e293b"/>
    </linearGradient>
    <linearGradient id="accentGrad" x1="0%" y1="0%" x2="100%" y2="0%">
      <stop offset="0%" style="stop-color:#8b5cf6"/>
      <stop offset="100%" style="stop-color:#d946ef"/>
    </linearGradient>
    <style>
      .heading-lg { fill: #ffffff; font-family: system-ui, sans-serif; font-size: 20px; font-weight: bold; }
      .heading { fill: #ffffff; font-family: system-ui, sans-serif; font-size: 14px; font-weight: bold; }
      .text-md { fill: #cbd5e1; font-family: system-ui, sans-serif; font-size: 12px; }
      .text-sm { fill: #94a3b8; font-family: system-ui, sans-serif; font-size: 10px; }
      .text-muted { fill: #8494a8; font-family: system-ui, sans-serif; font-size: 10px; }
      .annotation { fill: #6d28d9; font-family: monospace; font-size: 10px; }
      .code { fill: #22c55e; font-family: monospace; font-size: 10px; }
    </style>
    <marker id="arrowGreen" markerWidth="10" markerHeight="7" refX="9" refY="3.5" orient="auto">
      <polygon points="0 0, 10 3.5, 0 7" fill="#22c55e"/>
    </marker>
    <marker id="arrowPurple" markerWidth="10" markerHeight="7" refX="9" refY="3.5" orient="auto">
      <polygon points="0 0, 10 3.5, 0 7" fill="#8b5cf6"/>
    </marker>
    <marker id="arrowRed" markerWidth="10" markerHeight="7" refX="9" refY="3.5" orient="auto">
      <polygon points="0 0, 10 3.5, 0 7" fill="#ef4444"/>
    </marker>
    <marker id="arrowYellow" markerWidth="10" markerHeight="7" refX="9" refY="3.5" orient="auto">
      <polygon points="0 0, 10 3.5, 0 7" fill="#eab308"/>
    </marker>
  </defs>

  <!-- Background -->
  <rect width="1400" height="800" fill="url(#bgGrad)"/>

  <!-- Dot grid pattern -->
  <g opacity="0.05">
    <pattern id="dots" width="30" height="30" patternUnits="userSpaceOnUse">
      <circle cx="15" cy="15" r="1" fill="#fff"/>
    </pattern>
    <rect width="1400" height="800" fill="url(#dots)"/>
  </g>

  <!-- Accent line top -->
  <rect x="0" y="0" width="1400" height="3" fill="url(#accentGrad)"/>

  <!-- Title -->
  <text x="700" y="28" text-anchor="middle" font-family="system-ui, sans-serif" font-size="14" font-weight="600" fill="#8494a8" letter-spacing="1">GROUP KEY ROTATION - MEMBER CHANGE SECURITY</text>

  <!-- ==================== KEY VERSIONING (Top Section) ==================== -->
  <text x="60" y="65" class="heading-lg">Group Key Version Lifecycle</text>

  <rect x="40" y="85" width="1320" height="160" rx="8" fill="#1e293b" stroke="#475569" stroke-width="1"/>

  <!-- Timeline -->
  <line x1="100" y1="165" x2="1300" y2="165" stroke="#475569" stroke-width="2"/>

  <!-- Key v1: Creation -->
  <g id="key-v1">
    <circle cx="200" cy="165" r="20" fill="#22c55e" stroke="#1e293b" stroke-width="3"/>
    <text x="200" y="170" text-anchor="middle" fill="#fff" font-size="12" font-weight="bold">v1</text>
    <text x="200" y="115" text-anchor="middle" class="heading">Group Created</text>
    <text x="200" y="135" text-anchor="middle" class="text-sm">Initial key generated</text>
    <text x="200" y="200" text-anchor="middle" class="text-muted">3 members</text>
  </g>

  <!-- Key v2: Member added -->
  <g id="key-v2">
    <circle cx="450" cy="165" r="20" fill="#8b5cf6" stroke="#1e293b" stroke-width="3"/>
    <text x="450" y="170" text-anchor="middle" fill="#fff" font-size="12" font-weight="bold">v2</text>
    <text x="450" y="115" text-anchor="middle" class="heading">Member Added</text>
    <text x="450" y="135" text-anchor="middle" class="text-sm">Key rotated, distributed</text>
    <text x="450" y="200" text-anchor="middle" class="text-muted">4 members</text>
  </g>

  <!-- Key v3: Member removed -->
  <g id="key-v3">
    <circle cx="700" cy="165" r="20" fill="#ef4444" stroke="#1e293b" stroke-width="3"/>
    <text x="700" y="170" text-anchor="middle" fill="#fff" font-size="12" font-weight="bold">v3</text>
    <text x="700" y="115" text-anchor="middle" class="heading">Member Removed</text>
    <text x="700" y="135" text-anchor="middle" class="text-sm">Key rotated, excluded</text>
    <text x="700" y="200" text-anchor="middle" class="text-muted">3 members</text>
  </g>

  <!-- Key v4: Another add -->
  <g id="key-v4">
    <circle cx="950" cy="165" r="20" fill="#8b5cf6" stroke="#1e293b" stroke-width="3"/>
    <text x="950" y="170" text-anchor="middle" fill="#fff" font-size="12" font-weight="bold">v4</text>
    <text x="950" y="115" text-anchor="middle" class="heading">Member Added</text>
    <text x="950" y="135" text-anchor="middle" class="text-sm">Key rotated, distributed</text>
    <text x="950" y="200" text-anchor="middle" class="text-muted">4 members</text>
  </g>

  <!-- Current key -->
  <g id="key-current">
    <circle cx="1200" cy="165" r="20" fill="#d946ef" stroke="#1e293b" stroke-width="3"/>
    <text x="1200" y="170" text-anchor="middle" fill="#fff" font-size="12" font-weight="bold">v5</text>
    <text x="1200" y="115" text-anchor="middle" class="heading">Current</text>
    <text x="1200" y="135" text-anchor="middle" class="text-sm">Active encryption key</text>
    <text x="1200" y="200" text-anchor="middle" class="text-muted">5 members</text>
  </g>

  <!-- Arrows between versions -->
  <path d="M225 165 L425 165" stroke="#22c55e" stroke-width="2" fill="none" marker-end="url(#arrowGreen)"/>
  <path d="M475 165 L675 165" stroke="#8b5cf6" stroke-width="2" fill="none" marker-end="url(#arrowPurple)"/>
  <path d="M725 165 L925 165" stroke="#ef4444" stroke-width="2" fill="none" marker-end="url(#arrowRed)"/>
  <path d="M975 165 L1175 165" stroke="#8b5cf6" stroke-width="2" fill="none" marker-end="url(#arrowPurple)"/>

  <!-- ==================== ROTATION ON ADD (Middle Left) ==================== -->
  <text x="60" y="285" class="heading-lg">Key Rotation: Member Added</text>

  <rect x="40" y="305" width="640" height="240" rx="8" fill="#1e293b" stroke="#22c55e" stroke-width="2"/>

  <!-- Step 1: Trigger -->
  <g id="add-step1">
    <rect x="60" y="325" width="140" height="80" rx="6" fill="#334155"/>
    <circle cx="80" cy="345" r="12" fill="#8b5cf6"/>
    <text x="80" y="349" text-anchor="middle" fill="#fff" font-size="10" font-weight="bold">1</text>
    <text x="130" y="350" class="heading">Add Member</text>
    <text x="70" y="375" class="text-sm">Owner adds Sarah</text>
    <text x="70" y="390" class="text-sm">to the group</text>
  </g>

  <!-- Arrow -->
  <path d="M200 365 L230 365" stroke="#8b5cf6" stroke-width="2" fill="none" marker-end="url(#arrowPurple)"/>

  <!-- Step 2: Generate new key -->
  <g id="add-step2">
    <rect x="240" y="325" width="140" height="80" rx="6" fill="#334155" stroke="#22c55e" stroke-width="1"/>
    <circle cx="260" cy="345" r="12" fill="#22c55e"/>
    <text x="260" y="349" text-anchor="middle" fill="#fff" font-size="10" font-weight="bold">2</text>
    <text x="310" y="350" class="heading">Generate Key</text>
    <text x="250" y="375" class="code">new_key = crypto</text>
    <text x="250" y="390" class="code">.randomBytes(32)</text>
  </g>

  <!-- Arrow -->
  <path d="M380 365 L410 365" stroke="#8b5cf6" stroke-width="2" fill="none" marker-end="url(#arrowPurple)"/>

  <!-- Step 3: Distribute -->
  <g id="add-step3">
    <rect x="420" y="325" width="140" height="80" rx="6" fill="#334155"/>
    <circle cx="440" cy="345" r="12" fill="#8b5cf6"/>
    <text x="440" y="349" text-anchor="middle" fill="#fff" font-size="10" font-weight="bold">3</text>
    <text x="490" y="350" class="heading">Distribute</text>
    <text x="430" y="375" class="text-sm">Encrypt key for</text>
    <text x="430" y="390" class="text-sm">all N members</text>
  </g>

  <!-- Arrow -->
  <path d="M560 365 L590 365" stroke="#22c55e" stroke-width="2" fill="none" marker-end="url(#arrowGreen)"/>

  <!-- Result: All have key -->
  <g id="add-result">
    <rect x="600" y="325" width="60" height="80" rx="6" fill="#22c55e" fill-opacity="0.2" stroke="#22c55e"/>
    <text x="630" y="360" text-anchor="middle" fill="#22c55e" font-size="24">✓</text>
    <text x="630" y="390" text-anchor="middle" fill="#22c55e" font-size="10">All sync</text>
  </g>

  <!-- New member can't decrypt old -->
  <rect x="60" y="420" width="600" height="50" rx="6" fill="#eab308" fill-opacity="0.1" stroke="#eab308"/>
  <text x="360" y="445" text-anchor="middle" fill="#eab308" font-size="12" font-weight="bold">⚠️ New member join_version = v(n+1)</text>
  <text x="360" y="462" text-anchor="middle" class="text-sm">Cannot decrypt messages from v1 to v(n) — pre-join history hidden</text>

  <!-- Pending key state -->
  <rect x="60" y="480" width="600" height="50" rx="6" fill="#334155"/>
  <text x="80" y="505" class="text-sm">If key distribution fails after 3 retries:</text>
  <text x="80" y="520" fill="#eab308" font-size="11">Member marked "pending_key" — can't decrypt until sync completes</text>

  <!-- ==================== ROTATION ON REMOVE (Middle Right) ==================== -->
  <text x="720" y="285" class="heading-lg">Key Rotation: Member Removed</text>

  <rect x="700" y="305" width="660" height="240" rx="8" fill="#1e293b" stroke="#ef4444" stroke-width="2"/>

  <!-- Step 1: Trigger -->
  <g id="remove-step1">
    <rect x="720" y="325" width="140" height="80" rx="6" fill="#334155"/>
    <circle cx="740" cy="345" r="12" fill="#ef4444"/>
    <text x="740" y="349" text-anchor="middle" fill="#fff" font-size="10" font-weight="bold">1</text>
    <text x="790" y="350" class="heading">Remove</text>
    <text x="730" y="375" class="text-sm">Owner removes</text>
    <text x="730" y="390" class="text-sm">Tom from group</text>
  </g>

  <!-- Arrow -->
  <path d="M860 365 L890 365" stroke="#ef4444" stroke-width="2" fill="none" marker-end="url(#arrowRed)"/>

  <!-- Step 2: Generate new key (without removed) -->
  <g id="remove-step2">
    <rect x="900" y="325" width="140" height="80" rx="6" fill="#334155" stroke="#ef4444" stroke-width="1"/>
    <circle cx="920" cy="345" r="12" fill="#ef4444"/>
    <text x="920" y="349" text-anchor="middle" fill="#fff" font-size="10" font-weight="bold">2</text>
    <text x="970" y="350" class="heading">New Key</text>
    <text x="910" y="375" class="text-sm">Generate fresh</text>
    <text x="910" y="390" class="text-sm">group key</text>
  </g>

  <!-- Arrow -->
  <path d="M1040 365 L1070 365" stroke="#ef4444" stroke-width="2" fill="none" marker-end="url(#arrowRed)"/>

  <!-- Step 3: Distribute to remaining -->
  <g id="remove-step3">
    <rect x="1080" y="325" width="140" height="80" rx="6" fill="#334155"/>
    <circle cx="1100" cy="345" r="12" fill="#8b5cf6"/>
    <text x="1100" y="349" text-anchor="middle" fill="#fff" font-size="10" font-weight="bold">3</text>
    <text x="1150" y="350" class="heading">Distribute</text>
    <text x="1090" y="375" class="text-sm">Only to N-1</text>
    <text x="1090" y="390" class="text-sm">remaining members</text>
  </g>

  <!-- Arrow -->
  <path d="M1220 365 L1250 365" stroke="#22c55e" stroke-width="2" fill="none" marker-end="url(#arrowGreen)"/>

  <!-- Result -->
  <g id="remove-result">
    <rect x="1260" y="325" width="80" height="80" rx="6" fill="#22c55e" fill-opacity="0.2" stroke="#22c55e"/>
    <text x="1300" y="355" text-anchor="middle" fill="#22c55e" font-size="20">✓</text>
    <text x="1300" y="375" text-anchor="middle" fill="#22c55e" font-size="10">Remaining</text>
    <text x="1300" y="390" text-anchor="middle" fill="#22c55e" font-size="10">synced</text>
  </g>

  <!-- Removed member blocked -->
  <rect x="720" y="420" width="620" height="50" rx="6" fill="#ef4444" fill-opacity="0.1" stroke="#ef4444"/>
  <text x="1030" y="445" text-anchor="middle" fill="#ef4444" font-size="12" font-weight="bold">🚫 Removed member CANNOT decrypt v(n+1) messages</text>
  <text x="1030" y="462" text-anchor="middle" class="text-sm">They never receive the new key — future messages unreadable</text>

  <!-- Old messages still readable -->
  <rect x="720" y="480" width="620" height="50" rx="6" fill="#334155"/>
  <text x="740" y="505" class="text-sm">Removed member can still read pre-removal messages:</text>
  <text x="740" y="520" fill="#eab308" font-size="11">They have keys v1 to v(n) cached locally</text>

  <!-- ==================== KEY DISTRIBUTION FLOW (Bottom) ==================== -->
  <text x="60" y="580" class="heading-lg">Key Distribution to Each Member</text>

  <rect x="40" y="600" width="1320" height="180" rx="8" fill="#1e293b" stroke="#475569" stroke-width="1"/>

  <!-- Group Key (center) -->
  <g id="group-key-center">
    <rect x="540" y="640" width="180" height="80" rx="8" fill="#334155" stroke="#d946ef" stroke-width="2"/>
    <text x="630" y="670" text-anchor="middle" fill="#d946ef" font-size="14" font-weight="bold">Group Key (v5)</text>
    <text x="630" y="695" text-anchor="middle" class="code">symmetric_key</text>
    <text x="630" y="715" text-anchor="middle" class="text-muted">AES-256</text>
  </g>

  <!-- Member 1: Mike -->
  <g id="dist-mike">
    <rect x="80" y="660" width="140" height="60" rx="6" fill="#334155" stroke="#22c55e" stroke-width="1"/>
    <text x="150" y="685" text-anchor="middle" class="heading">Mike</text>
    <text x="150" y="705" text-anchor="middle" class="code">encrypt(key, pubMike)</text>
    <path d="M220 690 L540 680" stroke="#22c55e" stroke-width="1" stroke-dasharray="4,2" fill="none"/>
  </g>

  <!-- Member 2: Jane -->
  <g id="dist-jane">
    <rect x="260" y="730" width="140" height="60" rx="6" fill="#334155" stroke="#22c55e" stroke-width="1"/>
    <text x="330" y="755" text-anchor="middle" class="heading">Jane</text>
    <text x="330" y="775" text-anchor="middle" class="code">encrypt(key, pubJane)</text>
    <path d="M400 760 L540 700" stroke="#22c55e" stroke-width="1" stroke-dasharray="4,2" fill="none"/>
  </g>

  <!-- Member 3: Alex -->
  <g id="dist-alex">
    <rect x="760" y="730" width="140" height="60" rx="6" fill="#334155" stroke="#22c55e" stroke-width="1"/>
    <text x="830" y="755" text-anchor="middle" class="heading">Alex</text>
    <text x="830" y="775" text-anchor="middle" class="code">encrypt(key, pubAlex)</text>
    <path d="M760 760 L720 700" stroke="#22c55e" stroke-width="1" stroke-dasharray="4,2" fill="none"/>
  </g>

  <!-- Member 4: Sarah (pending) -->
  <g id="dist-sarah">
    <rect x="940" y="660" width="140" height="60" rx="6" fill="#334155" stroke="#eab308" stroke-width="2"/>
    <text x="1010" y="685" text-anchor="middle" class="heading">Sarah</text>
    <text x="1010" y="705" text-anchor="middle" fill="#eab308" font-size="10">⚠️ pending_key</text>
    <path d="M940 690 L720 680" stroke="#eab308" stroke-width="1" stroke-dasharray="4,2" fill="none"/>
  </g>

  <!-- Member 5: Tom (removed - crossed out) -->
  <g id="dist-tom">
    <rect x="1140" y="660" width="140" height="60" rx="6" fill="#334155" stroke="#ef4444" stroke-width="2"/>
    <text x="1210" y="685" text-anchor="middle" fill="#ef4444" font-size="14" font-weight="bold">Tom</text>
    <text x="1210" y="705" text-anchor="middle" fill="#ef4444" font-size="10">🚫 removed</text>
    <line x1="1150" y1="650" x2="1270" y2="730" stroke="#ef4444" stroke-width="2"/>
  </g>

  <!-- Legend -->
  <g id="legend" transform="translate(60, 620)">
    <circle cx="10" cy="10" r="6" fill="#22c55e"/>
    <text x="25" y="14" class="text-sm">Key synced</text>
    <circle cx="110" cy="10" r="6" fill="#eab308"/>
    <text x="125" y="14" class="text-sm">Pending sync</text>
    <circle cx="230" cy="10" r="6" fill="#ef4444"/>
    <text x="245" y="14" class="text-sm">Excluded</text>
  </g>

</svg>
