<svg xmlns="http://www.w3.org/2000/svg" viewBox="0 0 1400 800" width="1400" height="800">
  <!-- ============================================================
       GENERATED BY: /wireframe skill
       SOURCE: features/core-features/011-group-chats/spec.md
       DATE: 2025-12-31
       DO NOT MANUALLY EDIT - Regenerate with /wireframe command
       ============================================================ -->
  <defs>
    <linearGradient id="bgGrad" x1="0%" y1="0%" x2="100%" y2="100%">
      <stop offset="0%" style="stop-color:#0f172a"/>
      <stop offset="100%" style="stop-color:#1e293b"/>
    </linearGradient>
    <linearGradient id="accentGrad" x1="0%" y1="0%" x2="100%" y2="0%">
      <stop offset="0%" style="stop-color:#8b5cf6"/>
      <stop offset="100%" style="stop-color:#d946ef"/>
    </linearGradient>
    <style>
      .heading-lg { fill: #ffffff; font-family: system-ui, sans-serif; font-size: 20px; font-weight: bold; }
      .heading { fill: #ffffff; font-family: system-ui, sans-serif; font-size: 14px; font-weight: bold; }
      .text-md { fill: #cbd5e1; font-family: system-ui, sans-serif; font-size: 12px; }
      .text-sm { fill: #94a3b8; font-family: system-ui, sans-serif; font-size: 10px; }
      .text-muted { fill: #64748b; font-family: system-ui, sans-serif; font-size: 10px; }
      .annotation { fill: #8b5cf6; font-family: monospace; font-size: 10px; }
      .label-desktop { fill: #8b5cf6; font-family: monospace; font-size: 11px; font-weight: bold; }
      .label-mobile { fill: #d946ef; font-family: monospace; font-size: 11px; font-weight: bold; }
    </style>
  </defs>

  <!-- Background -->
  <rect width="1400" height="800" fill="url(#bgGrad)"/>

  <!-- Dot grid pattern -->
  <g opacity="0.05">
    <pattern id="dots" width="30" height="30" patternUnits="userSpaceOnUse">
      <circle cx="15" cy="15" r="1" fill="#fff"/>
    </pattern>
    <rect width="1400" height="800" fill="url(#dots)"/>
  </g>

  <!-- Accent line top -->
  <rect x="0" y="0" width="1400" height="3" fill="url(#accentGrad)"/>

  <!-- Title -->
  <text x="700" y="28" text-anchor="middle" font-family="system-ui, sans-serif" font-size="14" font-weight="600" fill="#64748b" letter-spacing="1">UPGRADE 1-TO-1 CONVERSATION TO GROUP</text>

  <!-- DESKTOP SECTION -->
  <text x="40" y="52" class="label-desktop">DESKTOP - BEFORE &amp; AFTER</text>
  <g id="desktop-view">
    <!-- BEFORE: 1-to-1 Conversation -->
    <text x="175" y="80" text-anchor="middle" class="text-sm" fill="#94a3b8">BEFORE: Direct Message</text>

    <!-- DM Conversation Panel -->
    <rect x="40" y="90" width="270" height="450" rx="8" fill="#1e293b" stroke="#475569" stroke-width="1"/>

    <!-- DM Header -->
    <rect x="40" y="90" width="270" height="50" rx="8" fill="#334155"/>
    <rect x="40" y="128" width="270" height="12" fill="#334155"/>
    <circle cx="70" cy="115" r="18" fill="#d946ef"/>
    <text x="68" y="121" text-anchor="middle" font-size="10" fill="#fff">BM</text>
    <text x="95" y="112" class="heading">Bob Martinez</text>
    <text x="95" y="127" class="text-muted">Online</text>

    <!-- Add People button in header -->
    <rect x="245" y="102" width="55" height="26" rx="13" fill="#8b5cf6"/>
    <text x="272" y="120" text-anchor="middle" class="text-sm" fill="#fff">+👤</text>

    <!-- DM Messages -->
    <g transform="translate(55, 155)">
      <!-- Their message -->
      <rect x="0" y="0" width="200" height="35" rx="8" fill="#0f172a"/>
      <text x="12" y="22" class="text-md">Hey! How's the project going?</text>

      <!-- Your message -->
      <rect x="40" y="45" width="200" height="35" rx="8" fill="#8b5cf6"/>
      <text x="52" y="67" class="text-md" fill="#fff">Great! Made good progress today</text>

      <!-- Their message -->
      <rect x="0" y="90" width="220" height="50" rx="8" fill="#0f172a"/>
      <text x="12" y="112" class="text-md">Awesome! Carol wanted to join</text>
      <text x="12" y="127" class="text-md">our discussion about it</text>

      <!-- Your message -->
      <rect x="20" y="150" width="220" height="35" rx="8" fill="#8b5cf6"/>
      <text x="32" y="172" class="text-md" fill="#fff">Let's add her to this chat!</text>
    </g>

    <!-- Arrow indicating transition -->
    <g transform="translate(320, 280)">
      <rect x="0" y="0" width="80" height="40" rx="20" fill="#334155"/>
      <text x="40" y="26" text-anchor="middle" class="text-md" fill="#8b5cf6">→ Add →</text>
    </g>

    <!-- AFTER: Group Conversation -->
    <text x="540" y="80" text-anchor="middle" class="text-sm" fill="#22c55e">AFTER: Group Chat</text>

    <!-- Group Conversation Panel -->
    <rect x="410" y="90" width="270" height="450" rx="8" fill="#1e293b" stroke="#22c55e" stroke-width="2"/>

    <!-- Group Header -->
    <rect x="410" y="90" width="270" height="50" rx="8" fill="#334155"/>
    <rect x="410" y="128" width="270" height="12" fill="#334155"/>
    <!-- Stacked avatars -->
    <circle cx="435" cy="115" r="14" fill="#8b5cf6" stroke="#334155" stroke-width="2"/>
    <circle cx="451" cy="115" r="14" fill="#d946ef" stroke="#334155" stroke-width="2"/>
    <circle cx="467" cy="115" r="14" fill="#22c55e" stroke="#334155" stroke-width="2"/>
    <text x="490" y="110" class="heading">You, Bob, Carol</text>
    <text x="490" y="125" class="text-muted">3 members</text>
    <text x="665" y="118" class="text-md" fill="#94a3b8">ⓘ</text>

    <!-- Group Messages with preserved history -->
    <g transform="translate(425, 155)">
      <!-- Original DM messages - accessible to original participants -->
      <text x="10" y="0" class="text-muted">── Original conversation ──</text>

      <!-- Their message with sender -->
      <circle cx="10" cy="22" r="10" fill="#d946ef"/>
      <text x="8" y="26" text-anchor="middle" font-size="7" fill="#fff">BM</text>
      <rect x="25" y="12" width="180" height="28" rx="6" fill="#0f172a"/>
      <text x="35" y="30" class="text-sm">How's the project going?</text>

      <!-- Your message -->
      <rect x="55" y="48" width="180" height="28" rx="6" fill="#8b5cf6"/>
      <text x="65" y="66" class="text-sm" fill="#fff">Great! Made good progress</text>

      <!-- System message -->
      <text x="115" y="95" text-anchor="middle" class="text-muted">── Carol joined ──</text>

      <!-- New message from Carol -->
      <circle cx="10" cy="122" r="10" fill="#22c55e"/>
      <text x="8" y="126" text-anchor="middle" font-size="7" fill="#fff">CS</text>
      <rect x="25" y="112" width="200" height="28" rx="6" fill="#0f172a"/>
      <text x="35" y="130" class="text-sm">Hi! Excited to join the discussion!</text>

      <!-- Bob's new message -->
      <circle cx="10" cy="160" r="10" fill="#d946ef"/>
      <text x="8" y="164" text-anchor="middle" font-size="7" fill="#fff">BM</text>
      <rect x="25" y="150" width="180" height="28" rx="6" fill="#0f172a"/>
      <text x="35" y="168" class="text-sm">Welcome Carol! 👋</text>
    </g>

    <!-- Add Member Panel (overlay) -->
    <rect x="700" y="90" width="240" height="380" rx="8" fill="#1e293b" stroke="#8b5cf6" stroke-width="1"/>

    <rect x="700" y="90" width="240" height="45" rx="8" fill="#334155"/>
    <rect x="700" y="123" width="240" height="12" fill="#334155"/>
    <text x="820" y="118" text-anchor="middle" class="heading">Add People</text>

    <!-- Info notice -->
    <rect x="715" y="150" width="210" height="60" rx="6" fill="#8b5cf6" opacity="0.1" stroke="#8b5cf6" stroke-width="1"/>
    <text x="725" y="170" class="text-sm" fill="#8b5cf6">ℹ️ Converting to group chat</text>
    <text x="725" y="188" class="text-muted">New members won't see</text>
    <text x="725" y="202" class="text-muted">messages sent before they joined</text>

    <!-- Search -->
    <rect x="715" y="225" width="210" height="32" rx="6" fill="#0f172a" stroke="#475569" stroke-width="1"/>
    <text x="730" y="245" class="text-muted">Search connections...</text>

    <!-- Selected member -->
    <text x="715" y="275" class="text-sm">Adding:</text>
    <rect x="715" y="285" width="100" height="28" rx="14" fill="#22c55e" opacity="0.2" stroke="#22c55e" stroke-width="1"/>
    <circle cx="730" cy="299" r="10" fill="#22c55e"/>
    <text x="728" y="303" text-anchor="middle" font-size="7" fill="#fff">CS</text>
    <text x="750" y="303" class="text-sm" fill="#fff">Carol S.</text>
    <text x="805" y="303" class="text-sm" fill="#94a3b8">×</text>

    <!-- Available connections -->
    <text x="715" y="335" class="text-sm">Available:</text>
    <rect x="715" y="345" width="210" height="45" rx="6" fill="#0f172a"/>
    <circle cx="738" cy="368" r="15" fill="#475569"/>
    <text x="736" y="373" text-anchor="middle" font-size="9" fill="#fff">DK</text>
    <text x="760" y="365" class="text-md">David Kim</text>
    <text x="760" y="380" class="text-muted">@davidk</text>
    <rect x="880" y="358" width="35" height="22" rx="4" fill="#334155"/>
    <text x="897" y="374" text-anchor="middle" class="text-sm">+</text>

    <rect x="715" y="395" width="210" height="45" rx="6" fill="#0f172a"/>
    <circle cx="738" cy="418" r="15" fill="#eab308"/>
    <text x="736" y="423" text-anchor="middle" font-size="9" fill="#000">EL</text>
    <text x="760" y="415" class="text-md">Emma Lee</text>
    <text x="760" y="430" class="text-muted">@emmal</text>
    <rect x="880" y="408" width="35" height="22" rx="4" fill="#334155"/>
    <text x="897" y="424" text-anchor="middle" class="text-sm">+</text>

    <!-- Create Group Button -->
    <rect x="715" y="450" width="210" height="40" rx="6" fill="url(#accentGrad)"/>
    <text x="820" y="476" text-anchor="middle" class="heading" fill="#fff">Create Group</text>

    <!-- Carol's View Panel (what new member sees) -->
    <rect x="700" y="490" width="240" height="250" rx="8" fill="#1e293b" stroke="#475569" stroke-width="1"/>

    <text x="820" y="515" text-anchor="middle" class="text-sm" fill="#94a3b8">CAROL'S VIEW (new member)</text>

    <!-- Header for Carol -->
    <rect x="715" y="530" width="210" height="40" rx="6" fill="#334155"/>
    <circle cx="735" cy="550" r="12" fill="#8b5cf6" stroke="#334155" stroke-width="1"/>
    <circle cx="750" cy="550" r="12" fill="#d946ef" stroke="#334155" stroke-width="1"/>
    <text x="770" y="545" class="text-sm">You, Alice, Bob</text>
    <text x="770" y="558" class="text-muted">3 members</text>

    <!-- Carol sees placeholder for old messages -->
    <g transform="translate(715, 580)">
      <rect x="0" y="0" width="210" height="28" rx="6" fill="#334155" stroke="#475569" stroke-width="1" stroke-dasharray="3,2"/>
      <text x="105" y="18" text-anchor="middle" class="text-muted">[Messages before you joined]</text>

      <text x="105" y="48" text-anchor="middle" class="text-muted">── You joined ──</text>

      <!-- Carol can see messages after joining -->
      <rect x="0" y="60" width="150" height="24" rx="6" fill="#0f172a"/>
      <text x="10" y="76" class="text-sm">Welcome Carol! 👋</text>

      <rect x="50" y="90" width="160" height="24" rx="6" fill="#22c55e"/>
      <text x="60" y="106" class="text-sm" fill="#fff">Thanks! Glad to be here!</text>
    </g>
  </g>

  <!-- MOBILE SECTION -->
  <text x="980" y="52" class="label-mobile">MOBILE</text>
  <g id="mobile-view" transform="translate(980, 60)">
    <!-- Phone frame -->
    <rect x="0" y="0" width="360" height="700" rx="24" fill="#1e293b" stroke="#475569" stroke-width="2"/>
    <rect x="10" y="10" width="340" height="680" rx="16" fill="#0f172a"/>

    <!-- Status bar -->
    <rect x="10" y="10" width="340" height="28" rx="16" fill="#1e293b"/>
    <text x="30" y="28" class="text-sm">9:41</text>
    <text x="310" y="28" class="text-sm">📶 🔋</text>

    <!-- Header (1-to-1 DM) -->
    <rect x="10" y="38" width="340" height="55" fill="#1e293b"/>
    <text x="25" y="70" class="text-md" fill="#94a3b8">←</text>
    <circle cx="60" cy="65" r="18" fill="#d946ef"/>
    <text x="58" y="71" text-anchor="middle" font-size="10" fill="#fff">BM</text>
    <text x="90" y="62" class="heading">Bob Martinez</text>
    <text x="90" y="78" class="text-muted">Online</text>
    <!-- Add People button -->
    <rect x="280" y="52" width="55" height="28" rx="14" fill="#8b5cf6"/>
    <text x="307" y="70" text-anchor="middle" class="text-sm" fill="#fff">+👤</text>

    <!-- DM Messages -->
    <g transform="translate(20, 105)">
      <!-- Their message -->
      <rect x="0" y="0" width="220" height="32" rx="8" fill="#1e293b"/>
      <text x="12" y="20" class="text-sm">Hey! How's the project going?</text>

      <!-- Your message -->
      <rect x="80" y="42" width="220" height="32" rx="8" fill="#8b5cf6"/>
      <text x="92" y="62" class="text-sm" fill="#fff">Great! Made good progress today</text>

      <!-- Their message -->
      <rect x="0" y="84" width="260" height="45" rx="8" fill="#1e293b"/>
      <text x="12" y="104" class="text-sm">Awesome! Carol wanted to join</text>
      <text x="12" y="120" class="text-sm">our discussion about it</text>

      <!-- Your message -->
      <rect x="60" y="140" width="240" height="32" rx="8" fill="#8b5cf6"/>
      <text x="72" y="160" class="text-sm" fill="#fff">Let's add her to this chat!</text>
    </g>

    <!-- Bottom Sheet - Add People -->
    <rect x="10" y="300" width="340" height="390" rx="16" fill="#1e293b" stroke="#8b5cf6" stroke-width="1"/>

    <!-- Handle -->
    <rect x="155" y="308" width="50" height="4" rx="2" fill="#475569"/>

    <!-- Sheet header -->
    <text x="180" y="340" text-anchor="middle" class="heading">Add People</text>

    <!-- Info notice -->
    <rect x="25" y="355" width="310" height="55" rx="8" fill="#8b5cf6" opacity="0.1"/>
    <text x="40" y="378" class="text-sm" fill="#8b5cf6">ℹ️ This will create a group chat</text>
    <text x="40" y="396" class="text-muted">New members won't see older messages</text>

    <!-- Search -->
    <rect x="25" y="425" width="310" height="40" rx="20" fill="#0f172a" stroke="#475569" stroke-width="1"/>
    <text x="50" y="450" class="text-muted">Search connections...</text>

    <!-- Selected -->
    <g transform="translate(25, 480)">
      <rect x="0" y="0" width="90" height="32" rx="16" fill="#22c55e" opacity="0.2" stroke="#22c55e" stroke-width="1"/>
      <circle cx="16" cy="16" r="12" fill="#22c55e"/>
      <text x="14" y="20" text-anchor="middle" font-size="8" fill="#fff">CS</text>
      <text x="46" y="20" class="text-sm" fill="#fff">Carol</text>
      <text x="82" y="20" class="text-sm" fill="#94a3b8">×</text>
    </g>

    <!-- Connections list -->
    <rect x="25" y="525" width="310" height="50" rx="8" fill="#0f172a"/>
    <circle cx="50" cy="550" r="18" fill="#475569"/>
    <text x="48" y="556" text-anchor="middle" font-size="10" fill="#fff">DK</text>
    <text x="78" y="545" class="text-md">David Kim</text>
    <text x="78" y="562" class="text-muted">@davidk</text>
    <rect x="285" y="540" width="40" height="24" rx="12" fill="#334155"/>
    <text x="305" y="556" text-anchor="middle" class="text-sm">+</text>

    <rect x="25" y="583" width="310" height="50" rx="8" fill="#0f172a"/>
    <circle cx="50" cy="608" r="18" fill="#eab308"/>
    <text x="48" y="614" text-anchor="middle" font-size="10" fill="#000">EL</text>
    <text x="78" y="603" class="text-md">Emma Lee</text>
    <text x="78" y="620" class="text-muted">@emmal</text>
    <rect x="285" y="598" width="40" height="24" rx="12" fill="#334155"/>
    <text x="305" y="614" text-anchor="middle" class="text-sm">+</text>

    <!-- Create button -->
    <rect x="25" y="645" width="310" height="44" rx="22" fill="url(#accentGrad)"/>
    <text x="180" y="672" text-anchor="middle" class="heading" fill="#fff">Create Group</text>
  </g>

  <!-- Annotations -->
  <g class="annotations">
    <rect x="40" y="555" width="190" height="55" rx="4" fill="#1e293b" stroke="#8b5cf6" stroke-width="1"/>
    <text x="135" y="573" text-anchor="middle" class="annotation">FR-015: Preserve history</text>
    <text x="135" y="588" text-anchor="middle" class="text-muted">Original participants keep</text>
    <text x="135" y="601" text-anchor="middle" class="text-muted">access to DM messages</text>

    <rect x="240" y="555" width="180" height="55" rx="4" fill="#1e293b" stroke="#8b5cf6" stroke-width="1"/>
    <text x="330" y="573" text-anchor="middle" class="annotation">FR-022/023: New member</text>
    <text x="330" y="588" text-anchor="middle" class="text-muted">Carol only sees messages</text>
    <text x="330" y="601" text-anchor="middle" class="text-muted">after her join date</text>

    <rect x="430" y="555" width="160" height="55" rx="4" fill="#1e293b" stroke="#8b5cf6" stroke-width="1"/>
    <text x="510" y="573" text-anchor="middle" class="annotation">FR-024: History access</text>
    <text x="510" y="588" text-anchor="middle" class="text-muted">Alice &amp; Bob retain full</text>
    <text x="510" y="601" text-anchor="middle" class="text-muted">DM conversation access</text>

    <rect x="600" y="555" width="160" height="55" rx="4" fill="#1e293b" stroke="#8b5cf6" stroke-width="1"/>
    <text x="680" y="573" text-anchor="middle" class="annotation">FR-004/005: Key version</text>
    <text x="680" y="588" text-anchor="middle" class="text-muted">New key generated on</text>
    <text x="680" y="601" text-anchor="middle" class="text-muted">upgrade, tracked per member</text>
  </g>
</svg>