<svg xmlns="http://www.w3.org/2000/svg" viewBox="0 0 1400 800" width="1400" height="800">
  <!-- ============================================================
       GENERATED BY: /wireframe skill
       SOURCE: features/polish/027-ux-polish/spec.md
       DATE: 2026-01-01
       THEME: Light (UX/Frontend) - v3 True Parchment
       DO NOT MANUALLY EDIT - Regenerate with /wireframe command
       ============================================================ -->
  <defs>
    <linearGradient id="bgGrad" x1="0%" y1="0%" x2="100%" y2="100%">
      <stop offset="0%" style="stop-color:#c7ddf5"/>
      <stop offset="100%" style="stop-color:#b8d4f0"/>
    </linearGradient>
    <linearGradient id="accentGrad" x1="0%" y1="0%" x2="100%" y2="0%">
      <stop offset="0%" style="stop-color:#8b5cf6"/>
      <stop offset="100%" style="stop-color:#d946ef"/>
    </linearGradient>
    <style>
      .heading-lg { fill: #1a1a2e; font-family: system-ui, sans-serif; font-size: 24px; font-weight: 800; }
      .heading { fill: #1a1a2e; font-family: system-ui, sans-serif; font-size: 16px; font-weight: 700; }
      .text-md { fill: #2d3748; font-family: system-ui, sans-serif; font-size: 14px; font-weight: 500; }
      .text-sm { fill: #374151; font-family: system-ui, sans-serif; font-size: 12px; font-weight: 500; }
      .text-muted { fill: #4b5563; font-family: system-ui, sans-serif; font-size: 11px; font-weight: 500; }
      .annotation { fill: #6d28d9; font-family: monospace; font-size: 12px; font-weight: 600; }
      .label-desktop { fill: #8b5cf6; font-family: monospace; font-size: 13px; font-weight: bold; }
      .label-mobile { fill: #d946ef; font-family: monospace; font-size: 13px; font-weight: bold; }
      .count-text { fill: #374151; font-family: system-ui, sans-serif; font-size: 11px; font-weight: 500; }
      .count-warning { fill: #eab308; font-family: system-ui, sans-serif; font-size: 11px; font-weight: 600; }
      .count-error { fill: #ef4444; font-family: system-ui, sans-serif; font-size: 11px; font-weight: 600; }
      .placeholder { fill: #8a9aaa; font-family: system-ui, sans-serif; font-size: 14px; font-style: italic; }
      .input-text { fill: #1a1a2e; font-family: system-ui, sans-serif; font-size: 14px; }
    </style>
  </defs>

  <!-- Background -->
  <rect width="1400" height="800" fill="url(#bgGrad)"/>

  <!-- Dot grid pattern -->
  <g opacity="0.35">
    <pattern id="dots" width="30" height="30" patternUnits="userSpaceOnUse">
      <circle cx="15" cy="15" r="1" fill="#6b8cba"/>
    </pattern>
    <rect width="1400" height="800" fill="url(#dots)"/>
  </g>

  <!-- Accent line top -->
  <rect x="0" y="0" width="1400" height="3" fill="url(#accentGrad)"/>

  <!-- Title -->
  <text x="700" y="28" text-anchor="middle" font-family="system-ui, sans-serif" font-size="14" font-weight="600" fill="#4b5563" letter-spacing="1">027-UX-POLISH: CHARACTER COUNT DISPLAY STATES</text>

  <!-- DESKTOP SECTION -->
  <text x="40" y="52" class="label-desktop">DESKTOP</text>
  <g id="desktop-view">
    <!-- Main panel -->
    <rect x="40" y="60" width="900" height="700" rx="12" fill="#e8d4b8" stroke="#b8a080" stroke-width="1"/>

    <!-- Section title -->
    <text x="60" y="95" class="heading-lg">Message Input Character Counter</text>
    <text x="60" y="120" class="text-muted">Real-time character count with proper zero-state handling</text>

    <!-- STATE 1: Empty Input (THE FIX) -->
    <g transform="translate(60, 150)">
      <rect x="0" y="0" width="420" height="160" rx="8" fill="#dcc8a8" stroke="#b8a080" stroke-width="1"/>
      <text x="20" y="30" class="heading">State 1: Empty Input (Fixed)</text>

      <!-- Before label -->
      <text x="20" y="55" class="annotation">BEFORE (Bug)</text>
      <rect x="20" y="65" width="180" height="36" rx="6" fill="#f5f0e6" stroke="#ef4444" stroke-width="2"/>
      <text x="30" y="88" class="placeholder">Type a message...</text>
      <text x="200" y="115" text-anchor="end" class="count-error">/ 10000 characters</text>

      <!-- Arrow -->
      <text x="210" y="88" class="heading" fill="#8b5cf6">→</text>

      <!-- After label -->
      <text x="230" y="55" class="annotation">AFTER (Fixed)</text>
      <rect x="230" y="65" width="180" height="36" rx="6" fill="#f5f0e6" stroke="#22c55e" stroke-width="2"/>
      <text x="240" y="88" class="placeholder">Type a message...</text>
      <text x="400" y="115" text-anchor="end" class="count-text">0 / 10000 characters</text>
    </g>

    <!-- STATE 2: Typing -->
    <g transform="translate(500, 150)">
      <rect x="0" y="0" width="420" height="160" rx="8" fill="#dcc8a8" stroke="#b8a080" stroke-width="1"/>
      <text x="20" y="30" class="heading">State 2: User Typing</text>

      <rect x="20" y="55" width="380" height="36" rx="6" fill="#f5f0e6" stroke="#8b5cf6" stroke-width="2"/>
      <text x="30" y="78" class="input-text">Hello, how are you doing today?</text>
      <text x="380" y="110" text-anchor="end" class="count-text">31 / 10000 characters</text>

      <!-- Cursor indicator -->
      <rect x="270" y="62" width="2" height="22" fill="#8b5cf6"/>
    </g>

    <!-- STATE 3: Near Limit (Warning) -->
    <g transform="translate(60, 330)">
      <rect x="0" y="0" width="420" height="160" rx="8" fill="#dcc8a8" stroke="#b8a080" stroke-width="1"/>
      <text x="20" y="30" class="heading">State 3: Near Limit (90%+)</text>

      <rect x="20" y="55" width="380" height="60" rx="6" fill="#f5f0e6" stroke="#eab308" stroke-width="2"/>
      <text x="30" y="78" class="input-text">Lorem ipsum dolor sit amet, consectetur</text>
      <text x="30" y="96" class="input-text">adipiscing elit. Sed do eiusmod tempor...</text>
      <text x="380" y="130" text-anchor="end" class="count-warning">9250 / 10000 characters</text>

      <!-- Warning indicator -->
      <circle cx="395" cy="70" r="8" fill="#eab308"/>
      <text x="395" y="74" text-anchor="middle" font-size="12" font-weight="bold" fill="#fff">!</text>
    </g>

    <!-- STATE 4: At Limit -->
    <g transform="translate(500, 330)">
      <rect x="0" y="0" width="420" height="160" rx="8" fill="#dcc8a8" stroke="#b8a080" stroke-width="1"/>
      <text x="20" y="30" class="heading">State 4: At Limit (100%)</text>

      <rect x="20" y="55" width="380" height="60" rx="6" fill="#f5f0e6" stroke="#ef4444" stroke-width="2"/>
      <text x="30" y="78" class="input-text">Maximum length message content that</text>
      <text x="30" y="96" class="input-text">fills up the entire 10000 character limit</text>
      <text x="380" y="130" text-anchor="end" class="count-error">10000 / 10000 characters</text>

      <!-- Error indicator -->
      <circle cx="395" cy="70" r="8" fill="#ef4444"/>
      <text x="395" y="74" text-anchor="middle" font-size="12" font-weight="bold" fill="#fff">×</text>
    </g>

    <!-- EDGE CASES Section -->
    <g transform="translate(60, 510)">
      <rect x="0" y="0" width="860" height="110" rx="8" fill="#dcc8a8" stroke="#b8a080" stroke-width="1"/>
      <text x="20" y="30" class="heading">Edge Case Handling (FR-003)</text>

      <!-- undefined -->
      <g transform="translate(20, 45)">
        <rect x="0" y="0" width="200" height="50" rx="6" fill="#e8d4b8" stroke="#b8a080"/>
        <text x="10" y="20" class="annotation">charCount = undefined</text>
        <text x="10" y="40" class="text-md">Displays: 0 / 10000</text>
      </g>

      <!-- NaN -->
      <g transform="translate(240, 45)">
        <rect x="0" y="0" width="200" height="50" rx="6" fill="#e8d4b8" stroke="#b8a080"/>
        <text x="10" y="20" class="annotation">charCount = NaN</text>
        <text x="10" y="40" class="text-md">Displays: 0 / 10000</text>
      </g>

      <!-- negative -->
      <g transform="translate(460, 45)">
        <rect x="0" y="0" width="200" height="50" rx="6" fill="#e8d4b8" stroke="#b8a080"/>
        <text x="10" y="20" class="annotation">charCount = -5</text>
        <text x="10" y="40" class="text-md">Displays: 0 / 10000</text>
      </g>

      <!-- null -->
      <g transform="translate(680, 45)">
        <rect x="0" y="0" width="160" height="50" rx="6" fill="#e8d4b8" stroke="#b8a080"/>
        <text x="10" y="20" class="annotation">charCount = null</text>
        <text x="10" y="40" class="text-md">Displays: 0 / 10000</text>
      </g>
    </g>

    <!-- Requirements Reference -->
    <g transform="translate(60, 640)">
      <rect x="0" y="0" width="860" height="100" rx="8" fill="#e8d4b8" stroke="#8b5cf6" stroke-width="1"/>
      <text x="20" y="25" class="annotation">REQUIREMENTS COVERAGE</text>
      <text x="20" y="50" class="text-sm">FR-001: Display format "{count} / {limit} characters" ✓</text>
      <text x="20" y="70" class="text-sm">FR-002: Default to 0 when empty ✓</text>
      <text x="300" y="50" class="text-sm">FR-003: Handle undefined/NaN with 0 fallback ✓</text>
      <text x="300" y="70" class="text-sm">FR-004: Real-time updates while typing ✓</text>
      <text x="600" y="50" class="text-sm">NFR-002: Instant updates (no lag) ✓</text>
    </g>
  </g>

  <!-- MOBILE SECTION -->
  <text x="980" y="52" class="label-mobile">MOBILE</text>
  <g id="mobile-view" transform="translate(980, 60)">
    <!-- Phone frame -->
    <rect x="0" y="0" width="360" height="700" rx="24" fill="#c8b898" stroke="#a08860" stroke-width="2"/>
    <rect x="10" y="10" width="340" height="680" rx="16" fill="#e8d4b8"/>

    <!-- Status bar -->
    <rect x="10" y="10" width="340" height="28" rx="16" fill="#dcc8a8"/>
    <text x="30" y="28" class="text-sm">9:41</text>
    <text x="310" y="28" text-anchor="end" class="text-sm">100%</text>

    <!-- Chat header -->
    <rect x="10" y="38" width="340" height="50" fill="#dcc8a8"/>
    <text x="30" y="68" class="heading">Chat with Admin</text>

    <!-- Message area (messages would go here) -->
    <rect x="20" y="98" width="320" height="420" rx="8" fill="#f5f0e6"/>
    <text x="180" y="310" text-anchor="middle" class="text-muted">Messages area</text>

    <!-- Input area - THE KEY UX ELEMENT -->
    <rect x="20" y="530" width="320" height="140" rx="8" fill="#dcc8a8" stroke="#b8a080"/>

    <!-- Empty state input -->
    <text x="30" y="555" class="annotation">Empty Input State</text>
    <rect x="30" y="565" width="260" height="40" rx="6" fill="#f5f0e6" stroke="#b8a080"/>
    <text x="45" y="590" class="placeholder">Type a message...</text>
    <circle cx="305" cy="585" r="18" fill="#8b5cf6"/>
    <text x="305" y="590" text-anchor="middle" fill="#fff" font-size="14">→</text>

    <!-- Character count - THE FIX -->
    <text x="290" y="625" text-anchor="end" class="count-text">0 / 10000</text>

    <!-- Highlight box around the fix -->
    <rect x="200" y="610" width="100" height="22" rx="4" fill="none" stroke="#22c55e" stroke-width="2" stroke-dasharray="4,2"/>
    <text x="250" y="650" text-anchor="middle" class="annotation">← Fixed!</text>
  </g>

  <!-- Leader lines -->
  <g id="leader-lines">
    <line x1="200" y1="205" x2="200" y2="220" stroke="#22c55e" stroke-width="2"/>
    <line x1="200" y1="220" x2="400" y2="220" stroke="#22c55e" stroke-width="2"/>
    <line x1="400" y1="220" x2="400" y2="205" stroke="#22c55e" stroke-width="2"/>
  </g>
</svg>
