<svg xmlns="http://www.w3.org/2000/svg" viewBox="0 0 1400 800" width="1400" height="800">
  <!-- ============================================================
       GENERATED BY: /wireframe skill
       SOURCE: features/polish/027-ux-polish/spec.md
       DATE: 2025-12-31
       DO NOT MANUALLY EDIT - Regenerate with /wireframe command
       ============================================================ -->
  <defs>
    <linearGradient id="bgGrad" x1="0%" y1="0%" x2="100%" y2="100%">
      <stop offset="0%" style="stop-color:#0f172a"/>
      <stop offset="100%" style="stop-color:#1e293b"/>
    </linearGradient>
    <linearGradient id="accentGrad" x1="0%" y1="0%" x2="100%" y2="0%">
      <stop offset="0%" style="stop-color:#8b5cf6"/>
      <stop offset="100%" style="stop-color:#d946ef"/>
    </linearGradient>
    <style>
      .heading-lg { fill: #ffffff; font-family: system-ui, sans-serif; font-size: 20px; font-weight: bold; }
      .heading { fill: #ffffff; font-family: system-ui, sans-serif; font-size: 14px; font-weight: bold; }
      .text-md { fill: #cbd5e1; font-family: system-ui, sans-serif; font-size: 12px; }
      .text-sm { fill: #94a3b8; font-family: system-ui, sans-serif; font-size: 10px; }
      .text-muted { fill: #64748b; font-family: system-ui, sans-serif; font-size: 10px; }
      .annotation { fill: #8b5cf6; font-family: monospace; font-size: 10px; }
      .label-desktop { fill: #8b5cf6; font-family: monospace; font-size: 11px; font-weight: bold; }
      .label-mobile { fill: #d946ef; font-family: monospace; font-size: 11px; font-weight: bold; }
      .error { fill: #ef4444; }
      .success { fill: #22c55e; }
      .warning { fill: #eab308; }
    </style>
  </defs>

  <!-- Background -->
  <rect width="1400" height="800" fill="url(#bgGrad)"/>

  <!-- Dot grid pattern -->
  <g opacity="0.05">
    <pattern id="dots" width="30" height="30" patternUnits="userSpaceOnUse">
      <circle cx="15" cy="15" r="1" fill="#fff"/>
    </pattern>
    <rect width="1400" height="800" fill="url(#dots)"/>
  </g>

  <!-- Accent line top -->
  <rect x="0" y="0" width="1400" height="3" fill="url(#accentGrad)"/>

  <!-- Title -->
  <text x="700" y="28" text-anchor="middle" font-family="system-ui, sans-serif" font-size="14" font-weight="600" fill="#64748b" letter-spacing="1">CHARACTER COUNT FIX - BEFORE &amp; AFTER COMPARISON</text>

  <!-- BEFORE (Broken) -->
  <text x="60" y="60" class="label-desktop">BEFORE: BROKEN (BUG)</text>

  <g id="before-broken" transform="translate(60, 75)">
    <rect x="0" y="0" width="600" height="300" rx="8" fill="#1e293b" stroke="#ef4444" stroke-width="2"/>

    <!-- Chat header -->
    <rect x="0" y="0" width="600" height="50" rx="8" fill="#334155"/>
    <text x="20" y="30" class="heading">Chat with Jane Developer</text>
    <circle cx="570" cy="25" r="15" fill="#475569"/>
    <text x="570" y="30" text-anchor="middle" class="text-sm">⋮</text>

    <!-- Message area -->
    <rect x="20" y="70" width="560" height="140" rx="6" fill="#0f172a"/>

    <!-- Sample message -->
    <rect x="320" y="90" width="240" height="45" rx="12" fill="#8b5cf6"/>
    <text x="340" y="118" fill="#fff" font-family="system-ui" font-size="12">Hey, how are you doing?</text>

    <!-- Input area with BUG -->
    <rect x="20" y="230" width="480" height="50" rx="6" fill="#334155" stroke="#475569" stroke-width="1"/>
    <text x="35" y="260" class="text-muted">Type a message...</text>

    <!-- Send button -->
    <rect x="510" y="230" width="70" height="50" rx="6" fill="#8b5cf6"/>
    <text x="545" y="260" text-anchor="middle" fill="#fff" font-family="system-ui" font-size="12">Send</text>

    <!-- BROKEN Character count -->
    <rect x="380" y="285" width="120" height="20" rx="4" fill="#ef4444" opacity="0.2" stroke="#ef4444" stroke-width="1"/>
    <text x="440" y="299" text-anchor="middle" class="error">/ 10000 characters</text>

    <!-- Error callout -->
    <rect x="200" y="280" width="170" height="30" rx="4" fill="#1e293b" stroke="#ef4444" stroke-width="1"/>
    <text x="285" y="300" text-anchor="middle" class="error">✗ Missing "0" prefix!</text>
  </g>

  <!-- AFTER (Fixed) -->
  <text x="700" y="60" class="label-mobile">AFTER: FIXED (FR-001, FR-002)</text>

  <g id="after-fixed" transform="translate(700, 75)">
    <rect x="0" y="0" width="600" height="300" rx="8" fill="#1e293b" stroke="#22c55e" stroke-width="2"/>

    <!-- Chat header -->
    <rect x="0" y="0" width="600" height="50" rx="8" fill="#334155"/>
    <text x="20" y="30" class="heading">Chat with Jane Developer</text>
    <circle cx="570" cy="25" r="15" fill="#475569"/>
    <text x="570" y="30" text-anchor="middle" class="text-sm">⋮</text>

    <!-- Message area -->
    <rect x="20" y="70" width="560" height="140" rx="6" fill="#0f172a"/>

    <!-- Sample message -->
    <rect x="320" y="90" width="240" height="45" rx="12" fill="#8b5cf6"/>
    <text x="340" y="118" fill="#fff" font-family="system-ui" font-size="12">Hey, how are you doing?</text>

    <!-- Input area -->
    <rect x="20" y="230" width="480" height="50" rx="6" fill="#334155" stroke="#475569" stroke-width="1"/>
    <text x="35" y="260" class="text-muted">Type a message...</text>

    <!-- Send button -->
    <rect x="510" y="230" width="70" height="50" rx="6" fill="#8b5cf6"/>
    <text x="545" y="260" text-anchor="middle" fill="#fff" font-family="system-ui" font-size="12">Send</text>

    <!-- FIXED Character count -->
    <rect x="360" y="285" width="140" height="20" rx="4" fill="#22c55e" opacity="0.2" stroke="#22c55e" stroke-width="1"/>
    <text x="430" y="299" text-anchor="middle" class="success">0 / 10000 characters</text>

    <!-- Success callout -->
    <rect x="180" y="280" width="170" height="30" rx="4" fill="#1e293b" stroke="#22c55e" stroke-width="1"/>
    <text x="265" y="300" text-anchor="middle" class="success">✓ Shows "0" when empty</text>
  </g>

  <!-- STATE PROGRESSION -->
  <text x="60" y="400" class="label-desktop">REAL-TIME UPDATE STATES (FR-004)</text>

  <g id="state-progression" transform="translate(60, 420)">
    <!-- State 1: Empty -->
    <rect x="0" y="0" width="180" height="120" rx="6" fill="#1e293b" stroke="#475569" stroke-width="1"/>
    <text x="90" y="25" text-anchor="middle" class="heading">State 1: Empty</text>

    <rect x="15" y="45" width="150" height="30" rx="4" fill="#334155"/>
    <text x="25" y="65" class="text-muted">|</text>

    <text x="90" y="95" text-anchor="middle" class="success">0 / 10000</text>

    <!-- Arrow -->
    <text x="200" y="65" fill="#8b5cf6" font-family="system-ui" font-size="20">→</text>

    <!-- State 2: Typing -->
    <rect x="220" y="0" width="180" height="120" rx="6" fill="#1e293b" stroke="#8b5cf6" stroke-width="1"/>
    <text x="310" y="25" text-anchor="middle" class="heading">State 2: Typing</text>

    <rect x="235" y="45" width="150" height="30" rx="4" fill="#334155" stroke="#8b5cf6" stroke-width="1"/>
    <text x="245" y="65" fill="#cbd5e1" font-family="system-ui" font-size="11">Hello|</text>

    <text x="310" y="95" text-anchor="middle" fill="#8b5cf6" font-family="system-ui" font-size="12">5 / 10000</text>

    <!-- Arrow -->
    <text x="420" y="65" fill="#8b5cf6" font-family="system-ui" font-size="20">→</text>

    <!-- State 3: Longer -->
    <rect x="440" y="0" width="180" height="120" rx="6" fill="#1e293b" stroke="#475569" stroke-width="1"/>
    <text x="530" y="25" text-anchor="middle" class="heading">State 3: Longer</text>

    <rect x="455" y="45" width="150" height="30" rx="4" fill="#334155"/>
    <text x="465" y="65" fill="#cbd5e1" font-family="system-ui" font-size="11">Hello, how are...</text>

    <text x="530" y="95" text-anchor="middle" class="text-md">25 / 10000</text>

    <!-- Arrow -->
    <text x="640" y="65" fill="#8b5cf6" font-family="system-ui" font-size="20">→</text>

    <!-- State 4: Cleared -->
    <rect x="660" y="0" width="180" height="120" rx="6" fill="#1e293b" stroke="#22c55e" stroke-width="1"/>
    <text x="750" y="25" text-anchor="middle" class="heading">State 4: Cleared</text>

    <rect x="675" y="45" width="150" height="30" rx="4" fill="#334155"/>
    <text x="685" y="65" class="text-muted">|</text>

    <text x="750" y="95" text-anchor="middle" class="success">0 / 10000</text>
  </g>

  <!-- EDGE CASES -->
  <text x="60" y="570" class="label-mobile">EDGE CASE HANDLING (FR-003)</text>

  <g id="edge-cases" transform="translate(60, 590)">
    <!-- Undefined -->
    <rect x="0" y="0" width="200" height="100" rx="6" fill="#1e293b" stroke="#eab308" stroke-width="1"/>
    <text x="100" y="25" text-anchor="middle" class="heading">charCount: undefined</text>

    <rect x="15" y="40" width="170" height="25" rx="4" fill="#334155"/>
    <text x="100" y="58" text-anchor="middle" fill="#eab308" font-family="monospace" font-size="10">typeof === 'undefined'</text>

    <text x="100" y="85" text-anchor="middle" class="success">→ Displays: 0</text>

    <!-- NaN -->
    <rect x="220" y="0" width="200" height="100" rx="6" fill="#1e293b" stroke="#eab308" stroke-width="1"/>
    <text x="320" y="25" text-anchor="middle" class="heading">charCount: NaN</text>

    <rect x="235" y="40" width="170" height="25" rx="4" fill="#334155"/>
    <text x="320" y="58" text-anchor="middle" fill="#eab308" font-family="monospace" font-size="10">isNaN(charCount)</text>

    <text x="320" y="85" text-anchor="middle" class="success">→ Displays: 0</text>

    <!-- Negative -->
    <rect x="440" y="0" width="200" height="100" rx="6" fill="#1e293b" stroke="#eab308" stroke-width="1"/>
    <text x="540" y="25" text-anchor="middle" class="heading">charCount: -5</text>

    <rect x="455" y="40" width="170" height="25" rx="4" fill="#334155"/>
    <text x="540" y="58" text-anchor="middle" fill="#eab308" font-family="monospace" font-size="10">charCount &lt; 0</text>

    <text x="540" y="85" text-anchor="middle" class="success">→ Displays: 0</text>

    <!-- Code Solution -->
    <rect x="660" y="0" width="320" height="100" rx="6" fill="#0f172a" stroke="#8b5cf6" stroke-width="1"/>
    <text x="820" y="25" text-anchor="middle" class="annotation">Implementation (FR-002, FR-003)</text>

    <text x="675" y="50" fill="#22c55e" font-family="monospace" font-size="10">const displayCount = </text>
    <text x="675" y="68" fill="#94a3b8" font-family="monospace" font-size="10">  (typeof charCount === 'number' &amp;&amp;</text>
    <text x="675" y="86" fill="#94a3b8" font-family="monospace" font-size="10">   !isNaN(charCount) &amp;&amp; charCount >= 0)</text>
    <text x="675" y="100" fill="#94a3b8" font-family="monospace" font-size="10">  ? charCount : 0;</text>
  </g>

  <!-- MOBILE VIEW -->
  <text x="1000" y="400" class="label-mobile">MOBILE</text>

  <g id="mobile-view" transform="translate(1000, 415)">
    <!-- Phone frame -->
    <rect x="0" y="0" width="340" height="360" rx="24" fill="#1e293b" stroke="#475569" stroke-width="2"/>
    <rect x="10" y="10" width="320" height="340" rx="16" fill="#0f172a"/>

    <!-- Status bar -->
    <rect x="10" y="10" width="320" height="28" rx="16" fill="#1e293b"/>
    <text x="30" y="28" class="text-sm">9:41</text>
    <text x="300" y="28" text-anchor="end" class="text-sm">📶 🔋</text>

    <!-- Chat header -->
    <rect x="20" y="48" width="300" height="40" rx="6" fill="#334155"/>
    <text x="35" y="73" fill="#fff" font-family="system-ui" font-size="12" font-weight="bold">Jane Developer</text>

    <!-- Messages -->
    <rect x="120" y="100" width="190" height="35" rx="12" fill="#8b5cf6"/>
    <text x="135" y="122" fill="#fff" font-family="system-ui" font-size="10">Hey, how are you?</text>

    <rect x="30" y="145" width="150" height="35" rx="12" fill="#334155"/>
    <text x="45" y="167" class="text-md">I'm great, thanks!</text>

    <!-- Input area -->
    <rect x="20" y="270" width="230" height="40" rx="6" fill="#334155"/>
    <text x="35" y="295" class="text-muted">Message...</text>

    <!-- Send button -->
    <rect x="260" y="270" width="50" height="40" rx="6" fill="#8b5cf6"/>
    <text x="285" y="295" text-anchor="middle" fill="#fff" font-family="system-ui" font-size="10">↑</text>

    <!-- Character count -->
    <text x="170" y="330" text-anchor="middle" class="success">0 / 10000 characters</text>
  </g>

  <!-- Legend -->
  <rect x="1000" y="60" width="340" height="100" rx="6" fill="#1e293b" stroke="#475569" stroke-width="1"/>
  <text x="1020" y="85" class="heading">Requirements Covered</text>

  <circle cx="1020" cy="110" r="5" fill="#22c55e"/>
  <text x="1035" y="114" class="text-sm">FR-001: Format "{count} / {limit}"</text>

  <circle cx="1020" cy="130" r="5" fill="#22c55e"/>
  <text x="1035" y="134" class="text-sm">FR-002: Default to 0 when empty</text>

  <circle cx="1020" cy="150" r="5" fill="#22c55e"/>
  <text x="1035" y="154" class="text-sm">FR-003: Handle undefined/NaN → 0</text>
</svg>
