<svg xmlns="http://www.w3.org/2000/svg" viewBox="0 0 1400 800" width="1400" height="800">
  <!-- ============================================================
       GENERATED BY: /wireframe skill
       SOURCE: features/polish/027-ux-polish/spec.md
       DATE: 2026-01-01
       THEME: Light (UX/Frontend) - v3 True Parchment
       DO NOT MANUALLY EDIT - Regenerate with /wireframe command
       ============================================================ -->
  <defs>
    <linearGradient id="bgGrad" x1="0%" y1="0%" x2="100%" y2="100%">
      <stop offset="0%" style="stop-color:#c7ddf5"/>
      <stop offset="100%" style="stop-color:#b8d4f0"/>
    </linearGradient>
    <linearGradient id="accentGrad" x1="0%" y1="0%" x2="100%" y2="0%">
      <stop offset="0%" style="stop-color:#8b5cf6"/>
      <stop offset="100%" style="stop-color:#d946ef"/>
    </linearGradient>
    <style>
      .heading-lg { fill: #1a1a2e; font-family: system-ui, sans-serif; font-size: 24px; font-weight: 800; }
      .heading { fill: #1a1a2e; font-family: system-ui, sans-serif; font-size: 16px; font-weight: 700; }
      .text-md { fill: #2d3748; font-family: system-ui, sans-serif; font-size: 14px; font-weight: 500; }
      .text-sm { fill: #4a5568; font-family: system-ui, sans-serif; font-size: 12px; font-weight: 500; }
      .text-muted { fill: #5a6577; font-family: system-ui, sans-serif; font-size: 11px; font-weight: 500; }
      .annotation { fill: #8b5cf6; font-family: monospace; font-size: 12px; font-weight: 600; }
      .label-desktop { fill: #8b5cf6; font-family: monospace; font-size: 13px; font-weight: bold; }
      .label-mobile { fill: #d946ef; font-family: monospace; font-size: 13px; font-weight: bold; }
      .raw-text { fill: #1a1a2e; font-family: monospace; font-size: 13px; }
      .rendered-bold { fill: #1a1a2e; font-family: system-ui, sans-serif; font-size: 13px; font-weight: 700; }
      .rendered-italic { fill: #1a1a2e; font-family: system-ui, sans-serif; font-size: 13px; font-style: italic; }
      .rendered-code { fill: #1a1a2e; font-family: monospace; font-size: 12px; background: #f5f0e6; }
      .msg-text { fill: #1a1a2e; font-family: system-ui, sans-serif; font-size: 13px; }
    </style>
  </defs>

  <!-- Background -->
  <rect width="1400" height="800" fill="url(#bgGrad)"/>

  <!-- Dot grid pattern -->
  <g opacity="0.35">
    <pattern id="dots" width="30" height="30" patternUnits="userSpaceOnUse">
      <circle cx="15" cy="15" r="1" fill="#6b8cba"/>
    </pattern>
    <rect width="1400" height="800" fill="url(#dots)"/>
  </g>

  <!-- Accent line top -->
  <rect x="0" y="0" width="1400" height="3" fill="url(#accentGrad)"/>

  <!-- Title -->
  <text x="700" y="28" text-anchor="middle" font-family="system-ui, sans-serif" font-size="14" font-weight="600" fill="#5a6577" letter-spacing="1">027-UX-POLISH: MARKDOWN RENDERING IN MESSAGE BUBBLES</text>

  <!-- DESKTOP SECTION -->
  <text x="40" y="52" class="label-desktop">DESKTOP</text>
  <g id="desktop-view">
    <!-- Main panel -->
    <rect x="40" y="60" width="900" height="700" rx="12" fill="#e8d4b8" stroke="#b8a080" stroke-width="1"/>

    <!-- Section title -->
    <text x="60" y="95" class="heading-lg">Markdown Text Formatting</text>
    <text x="60" y="120" class="text-muted">Supported syntax: **bold**, *italic*, `code` - renders in message bubbles</text>

    <!-- BEFORE/AFTER Comparison -->
    <g transform="translate(60, 145)">
      <!-- Before column -->
      <rect x="0" y="0" width="420" height="280" rx="8" fill="#dcc8a8" stroke="#ef4444" stroke-width="2"/>
      <text x="20" y="30" class="heading">BEFORE (Raw Markdown)</text>
      <text x="380" y="30" text-anchor="end" class="annotation" fill="#ef4444">BUG</text>

      <!-- Message bubbles showing raw markdown -->
      <!-- Incoming message -->
      <rect x="20" y="50" width="280" height="50" rx="12" fill="#f5f0e6"/>
      <text x="35" y="75" class="raw-text">Welcome! Check out the **bold**</text>
      <text x="35" y="92" class="raw-text">and *italic* text formatting.</text>

      <!-- Outgoing message -->
      <rect x="120" y="110" width="280" height="35" rx="12" fill="#8b5cf6"/>
      <text x="135" y="132" class="raw-text" fill="#fff">Here's some `inline code`</text>

      <!-- Another incoming -->
      <rect x="20" y="155" width="300" height="50" rx="12" fill="#f5f0e6"/>
      <text x="35" y="180" class="raw-text">Try **multiple** styled **words**</text>
      <text x="35" y="197" class="raw-text">in the *same* message!</text>

      <!-- Problem indicator -->
      <rect x="20" y="220" width="380" height="45" rx="6" fill="#fef2f2" stroke="#ef4444"/>
      <text x="35" y="245" class="text-sm" fill="#ef4444">Users see raw asterisks and backticks</text>
      <text x="35" y="260" class="text-muted">instead of formatted text</text>
    </g>

    <!-- After column -->
    <g transform="translate(500, 145)">
      <rect x="0" y="0" width="420" height="280" rx="8" fill="#dcc8a8" stroke="#22c55e" stroke-width="2"/>
      <text x="20" y="30" class="heading">AFTER (Rendered Markdown)</text>
      <text x="380" y="30" text-anchor="end" class="annotation" fill="#22c55e">FIXED</text>

      <!-- Message bubbles showing rendered markdown -->
      <!-- Incoming message -->
      <rect x="20" y="50" width="280" height="50" rx="12" fill="#f5f0e6"/>
      <text x="35" y="75" class="msg-text">Welcome! Check out the <tspan font-weight="700">bold</tspan></text>
      <text x="35" y="92" class="msg-text">and <tspan font-style="italic">italic</tspan> text formatting.</text>

      <!-- Outgoing message -->
      <rect x="120" y="110" width="280" height="35" rx="12" fill="#8b5cf6"/>
      <text x="135" y="132" class="msg-text" fill="#fff">Here's some </text>
      <rect x="232" y="118" width="90" height="20" rx="4" fill="rgba(255,255,255,0.2)"/>
      <text x="240" y="132" font-family="monospace" font-size="12" fill="#fff">inline code</text>

      <!-- Another incoming -->
      <rect x="20" y="155" width="300" height="50" rx="12" fill="#f5f0e6"/>
      <text x="35" y="180" class="msg-text">Try <tspan font-weight="700">multiple</tspan> styled <tspan font-weight="700">words</tspan></text>
      <text x="35" y="197" class="msg-text">in the <tspan font-style="italic">same</tspan> message!</text>

      <!-- Success indicator -->
      <rect x="20" y="220" width="380" height="45" rx="6" fill="#f0fdf4" stroke="#22c55e"/>
      <text x="35" y="245" class="text-sm" fill="#22c55e">Text formatting renders correctly</text>
      <text x="35" y="260" class="text-muted">using semantic HTML (strong, em, code)</text>
    </g>

    <!-- Syntax Reference -->
    <g transform="translate(60, 445)">
      <rect x="0" y="0" width="860" height="130" rx="8" fill="#dcc8a8" stroke="#b8a080"/>
      <text x="20" y="30" class="heading">Supported Markdown Syntax (FR-005 to FR-007)</text>

      <!-- Bold -->
      <g transform="translate(20, 50)">
        <rect x="0" y="0" width="260" height="65" rx="6" fill="#e8d4b8"/>
        <text x="15" y="22" class="annotation">**text**</text>
        <text x="100" y="22" class="text-muted">→ Bold</text>
        <rect x="15" y="32" width="230" height="25" rx="4" fill="#f5f0e6"/>
        <text x="25" y="50" class="msg-text"><tspan font-weight="700">This is bold text</tspan></text>
      </g>

      <!-- Italic -->
      <g transform="translate(300, 50)">
        <rect x="0" y="0" width="260" height="65" rx="6" fill="#e8d4b8"/>
        <text x="15" y="22" class="annotation">*text*</text>
        <text x="70" y="22" class="text-muted">→ Italic</text>
        <rect x="15" y="32" width="230" height="25" rx="4" fill="#f5f0e6"/>
        <text x="25" y="50" class="msg-text"><tspan font-style="italic">This is italic text</tspan></text>
      </g>

      <!-- Code -->
      <g transform="translate(580, 50)">
        <rect x="0" y="0" width="260" height="65" rx="6" fill="#e8d4b8"/>
        <text x="15" y="22" class="annotation">`text`</text>
        <text x="70" y="22" class="text-muted">→ Inline Code</text>
        <rect x="15" y="32" width="230" height="25" rx="4" fill="#f5f0e6"/>
        <rect x="25" y="37" width="120" height="18" rx="3" fill="#dcc8a8"/>
        <text x="32" y="51" font-family="monospace" font-size="12" fill="#1a1a2e">const x = 42</text>
      </g>
    </g>

    <!-- Edge Cases -->
    <g transform="translate(60, 595)">
      <rect x="0" y="0" width="860" height="145" rx="8" fill="#e8d4b8" stroke="#8b5cf6"/>
      <text x="20" y="25" class="annotation">EDGE CASE HANDLING (FR-011)</text>

      <!-- Malformed markdown -->
      <g transform="translate(20, 40)">
        <rect x="0" y="0" width="200" height="45" rx="6" fill="#dcc8a8"/>
        <text x="10" y="18" class="text-sm">Unclosed: **broken</text>
        <text x="10" y="35" class="text-muted">→ Preserved as-is</text>
      </g>

      <!-- Multiple sections -->
      <g transform="translate(240, 40)">
        <rect x="0" y="0" width="200" height="45" rx="6" fill="#dcc8a8"/>
        <text x="10" y="18" class="text-sm">Mixed: **a** and **b**</text>
        <text x="10" y="35" class="text-muted">→ Both render bold</text>
      </g>

      <!-- Empty markdown -->
      <g transform="translate(460, 40)">
        <rect x="0" y="0" width="180" height="45" rx="6" fill="#dcc8a8"/>
        <text x="10" y="18" class="text-sm">Empty: ****</text>
        <text x="10" y="35" class="text-muted">→ No output</text>
      </g>

      <!-- No markdown -->
      <g transform="translate(660, 40)">
        <rect x="0" y="0" width="180" height="45" rx="6" fill="#dcc8a8"/>
        <text x="10" y="18" class="text-sm">Plain: Hello world</text>
        <text x="10" y="35" class="text-muted">→ Unchanged</text>
      </g>

      <!-- Requirements -->
      <text x="20" y="110" class="text-sm">FR-009: Plain text unchanged ✓</text>
      <text x="220" y="110" class="text-sm">FR-010: Multiple sections ✓</text>
      <text x="450" y="110" class="text-sm">FR-011: Graceful malformed handling ✓</text>
      <text x="700" y="110" class="text-sm">FR-012: XSS prevention ✓</text>
      <text x="20" y="130" class="text-sm">NFR-005: Semantic HTML (strong, em, code) ✓</text>
      <text x="350" y="130" class="text-sm">NFR-006: Screen reader compatible ✓</text>
    </g>
  </g>

  <!-- MOBILE SECTION -->
  <text x="980" y="52" class="label-mobile">MOBILE</text>
  <g id="mobile-view" transform="translate(980, 60)">
    <!-- Phone frame -->
    <rect x="0" y="0" width="360" height="700" rx="24" fill="#c8b898" stroke="#a08860" stroke-width="2"/>
    <rect x="10" y="10" width="340" height="680" rx="16" fill="#e8d4b8"/>

    <!-- Status bar -->
    <rect x="10" y="10" width="340" height="28" rx="16" fill="#dcc8a8"/>
    <text x="30" y="28" class="text-sm">9:41</text>
    <text x="310" y="28" text-anchor="end" class="text-sm">100%</text>

    <!-- Chat header -->
    <rect x="10" y="38" width="340" height="50" fill="#dcc8a8"/>
    <text x="30" y="68" class="heading">Admin</text>
    <circle cx="320" cy="63" r="5" fill="#22c55e"/>

    <!-- Messages area -->
    <rect x="20" y="98" width="320" height="500" rx="8" fill="#f5f0e6"/>

    <!-- Welcome message with markdown (incoming) -->
    <g transform="translate(30, 110)">
      <rect x="0" y="0" width="240" height="80" rx="12" fill="#e8d4b8"/>
      <text x="15" y="22" class="msg-text">Welcome to <tspan font-weight="700">ScriptHammer</tspan>!</text>
      <text x="15" y="42" class="msg-text">Check out our <tspan font-style="italic">new features</tspan></text>
      <text x="15" y="62" class="msg-text">and try the </text>
      <rect x="90" y="48" width="80" height="18" rx="3" fill="#dcc8a8"/>
      <text x="98" y="62" font-family="monospace" font-size="11" fill="#1a1a2e">/help</text>
      <text x="175" y="62" class="msg-text"> command</text>
    </g>

    <!-- User reply (outgoing) -->
    <g transform="translate(80, 200)">
      <rect x="0" y="0" width="230" height="45" rx="12" fill="#8b5cf6"/>
      <text x="15" y="22" class="msg-text" fill="#fff">Thanks! The <tspan font-weight="700">bold</tspan> looks</text>
      <text x="15" y="40" class="msg-text" fill="#fff"><tspan font-style="italic">great</tspan> now!</text>
    </g>

    <!-- Another message with code (incoming) -->
    <g transform="translate(30, 260)">
      <rect x="0" y="0" width="260" height="60" rx="12" fill="#e8d4b8"/>
      <text x="15" y="22" class="msg-text">Try running:</text>
      <rect x="15" y="30" width="100" height="20" rx="4" fill="#dcc8a8"/>
      <text x="22" y="45" font-family="monospace" font-size="11" fill="#1a1a2e">npm install</text>
    </g>

    <!-- Mixed formatting message -->
    <g transform="translate(30, 335)">
      <rect x="0" y="0" width="280" height="45" rx="12" fill="#e8d4b8"/>
      <text x="15" y="22" class="msg-text"><tspan font-weight="700">Important:</tspan> Read the <tspan font-style="italic">docs</tspan></text>
      <text x="15" y="40" class="msg-text">before starting!</text>
    </g>

    <!-- Input area -->
    <rect x="20" y="610" width="320" height="75" rx="8" fill="#dcc8a8"/>
    <rect x="30" y="625" width="250" height="40" rx="6" fill="#f5f0e6" stroke="#b8a080"/>
    <text x="45" y="650" class="text-muted" font-style="italic">Type a message...</text>
    <circle cx="305" cy="645" r="18" fill="#8b5cf6"/>
    <text x="305" y="650" text-anchor="middle" fill="#fff" font-size="14">→</text>

    <!-- Annotation -->
    <rect x="25" y="400" width="310" height="40" rx="6" fill="#f0fdf4" stroke="#22c55e"/>
    <text x="180" y="420" text-anchor="middle" class="annotation" fill="#22c55e">Markdown renders in all messages</text>
    <text x="180" y="435" text-anchor="middle" class="text-muted">Including welcome messages</text>
  </g>
</svg>
