<svg xmlns="http://www.w3.org/2000/svg" viewBox="0 0 1400 800" width="1400" height="800">
  <!-- ============================================================
       GENERATED BY: /wireframe skill
       SOURCE: features/polish/027-ux-polish/spec.md
       DATE: 2025-12-31
       DO NOT MANUALLY EDIT - Regenerate with /wireframe command
       ============================================================ -->
  <defs>
    <linearGradient id="bgGrad" x1="0%" y1="0%" x2="100%" y2="100%">
      <stop offset="0%" style="stop-color:#0f172a"/>
      <stop offset="100%" style="stop-color:#1e293b"/>
    </linearGradient>
    <linearGradient id="accentGrad" x1="0%" y1="0%" x2="100%" y2="0%">
      <stop offset="0%" style="stop-color:#8b5cf6"/>
      <stop offset="100%" style="stop-color:#d946ef"/>
    </linearGradient>
    <style>
      .heading-lg { fill: #ffffff; font-family: system-ui, sans-serif; font-size: 20px; font-weight: bold; }
      .heading { fill: #ffffff; font-family: system-ui, sans-serif; font-size: 14px; font-weight: bold; }
      .text-md { fill: #cbd5e1; font-family: system-ui, sans-serif; font-size: 12px; }
      .text-sm { fill: #94a3b8; font-family: system-ui, sans-serif; font-size: 10px; }
      .text-muted { fill: #64748b; font-family: system-ui, sans-serif; font-size: 10px; }
      .annotation { fill: #8b5cf6; font-family: monospace; font-size: 10px; }
      .label-desktop { fill: #8b5cf6; font-family: monospace; font-size: 11px; font-weight: bold; }
      .label-mobile { fill: #d946ef; font-family: monospace; font-size: 11px; font-weight: bold; }
      .error { fill: #ef4444; }
      .success { fill: #22c55e; }
      .warning { fill: #eab308; }
      .code-text { fill: #f472b6; font-family: monospace; font-size: 11px; }
    </style>
  </defs>

  <!-- Background -->
  <rect width="1400" height="800" fill="url(#bgGrad)"/>

  <!-- Dot grid pattern -->
  <g opacity="0.05">
    <pattern id="dots" width="30" height="30" patternUnits="userSpaceOnUse">
      <circle cx="15" cy="15" r="1" fill="#fff"/>
    </pattern>
    <rect width="1400" height="800" fill="url(#dots)"/>
  </g>

  <!-- Accent line top -->
  <rect x="0" y="0" width="1400" height="3" fill="url(#accentGrad)"/>

  <!-- Title -->
  <text x="700" y="28" text-anchor="middle" font-family="system-ui, sans-serif" font-size="14" font-weight="600" fill="#64748b" letter-spacing="1">MARKDOWN RENDERING IN MESSAGE BUBBLES</text>

  <!-- BEFORE: RAW SYNTAX -->
  <text x="60" y="60" class="label-desktop">BEFORE: RAW SYNTAX (BUG)</text>

  <g id="before-raw" transform="translate(60, 75)">
    <rect x="0" y="0" width="420" height="320" rx="8" fill="#1e293b" stroke="#ef4444" stroke-width="2"/>

    <!-- Chat area -->
    <rect x="15" y="15" width="390" height="290" rx="6" fill="#0f172a"/>

    <!-- System/Admin Message showing raw markdown -->
    <rect x="25" y="30" width="350" height="80" rx="12" fill="#334155" stroke="#475569" stroke-width="1"/>
    <circle cx="45" cy="55" r="12" fill="#8b5cf6"/>
    <text x="45" y="59" text-anchor="middle" fill="#fff" font-family="system-ui" font-size="10">A</text>
    <text x="65" y="50" fill="#8b5cf6" font-family="system-ui" font-size="10" font-weight="bold">Admin</text>

    <!-- Raw markdown visible -->
    <text x="65" y="70" fill="#cbd5e1" font-family="system-ui" font-size="11">**Welcome to ScriptHammer!**</text>
    <text x="65" y="88" fill="#cbd5e1" font-family="system-ui" font-size="11">Check `settings` and *enjoy*.</text>

    <!-- Error callout -->
    <rect x="25" y="115" width="200" height="25" rx="4" fill="#ef4444" opacity="0.2"/>
    <text x="35" y="132" class="error">✗ Raw **asterisks** visible</text>

    <!-- Another message -->
    <rect x="25" y="155" width="300" height="60" rx="12" fill="#334155"/>
    <text x="40" y="180" fill="#cbd5e1" font-family="system-ui" font-size="11">Here's some `code` you should try:</text>
    <text x="40" y="200" fill="#cbd5e1" font-family="system-ui" font-size="11">**npm install** and *npm run dev*</text>

    <!-- Error callout -->
    <rect x="25" y="220" width="180" height="25" rx="4" fill="#ef4444" opacity="0.2"/>
    <text x="35" y="237" class="error">✗ Backticks ` visible</text>

    <!-- Reply bubble -->
    <rect x="180" y="255" width="180" height="40" rx="12" fill="#8b5cf6"/>
    <text x="195" y="280" fill="#fff" font-family="system-ui" font-size="11">That's **confusing**!</text>
  </g>

  <!-- AFTER: RENDERED -->
  <text x="520" y="60" class="label-mobile">AFTER: RENDERED (FR-005, FR-006, FR-007)</text>

  <g id="after-rendered" transform="translate(520, 75)">
    <rect x="0" y="0" width="420" height="320" rx="8" fill="#1e293b" stroke="#22c55e" stroke-width="2"/>

    <!-- Chat area -->
    <rect x="15" y="15" width="390" height="290" rx="6" fill="#0f172a"/>

    <!-- System/Admin Message with rendered markdown -->
    <rect x="25" y="30" width="350" height="80" rx="12" fill="#334155" stroke="#475569" stroke-width="1"/>
    <circle cx="45" cy="55" r="12" fill="#8b5cf6"/>
    <text x="45" y="59" text-anchor="middle" fill="#fff" font-family="system-ui" font-size="10">A</text>
    <text x="65" y="50" fill="#8b5cf6" font-family="system-ui" font-size="10" font-weight="bold">Admin</text>

    <!-- Rendered markdown - bold -->
    <text x="65" y="70" fill="#fff" font-family="system-ui" font-size="11" font-weight="bold">Welcome to ScriptHammer!</text>
    <text x="65" y="88" fill="#cbd5e1" font-family="system-ui" font-size="11">Check </text>
    <text x="107" y="88" fill="#f472b6" font-family="monospace" font-size="10" style="background:#334155">settings</text>
    <text x="165" y="88" fill="#cbd5e1" font-family="system-ui" font-size="11"> and </text>
    <text x="195" y="88" fill="#cbd5e1" font-family="system-ui" font-size="11" font-style="italic">enjoy</text>
    <text x="225" y="88" fill="#cbd5e1" font-family="system-ui" font-size="11">.</text>

    <!-- Success callout -->
    <rect x="25" y="115" width="250" height="25" rx="4" fill="#22c55e" opacity="0.2"/>
    <text x="35" y="132" class="success">✓ Bold, code, italic rendered!</text>

    <!-- Another message -->
    <rect x="25" y="155" width="300" height="60" rx="12" fill="#334155"/>
    <text x="40" y="180" fill="#cbd5e1" font-family="system-ui" font-size="11">Here's some </text>
    <rect x="118" y="168" width="40" height="16" rx="3" fill="#475569"/>
    <text x="123" y="180" class="code-text">code</text>
    <text x="165" y="180" fill="#cbd5e1" font-family="system-ui" font-size="11"> you should try:</text>
    <text x="40" y="200" fill="#fff" font-family="system-ui" font-size="11" font-weight="bold">npm install</text>
    <text x="125" y="200" fill="#cbd5e1" font-family="system-ui" font-size="11"> and </text>
    <text x="158" y="200" fill="#cbd5e1" font-family="system-ui" font-size="11" font-style="italic">npm run dev</text>

    <!-- Success callout -->
    <rect x="25" y="220" width="200" height="25" rx="4" fill="#22c55e" opacity="0.2"/>
    <text x="35" y="237" class="success">✓ Multiple formats work</text>

    <!-- Reply bubble -->
    <rect x="180" y="255" width="180" height="40" rx="12" fill="#8b5cf6"/>
    <text x="195" y="275" fill="#fff" font-family="system-ui" font-size="11">That's </text>
    <text x="235" y="275" fill="#fff" font-family="system-ui" font-size="11" font-weight="bold">clear</text>
    <text x="265" y="275" fill="#fff" font-family="system-ui" font-size="11">!</text>
  </g>

  <!-- SYNTAX REFERENCE -->
  <text x="60" y="420" class="label-desktop">SUPPORTED MARKDOWN SYNTAX</text>

  <g id="syntax-reference" transform="translate(60, 435)">
    <rect x="0" y="0" width="450" height="150" rx="6" fill="#1e293b" stroke="#8b5cf6" stroke-width="1"/>

    <!-- Bold -->
    <rect x="15" y="15" width="130" height="35" rx="4" fill="#334155"/>
    <text x="80" y="28" text-anchor="middle" class="text-muted">Input</text>
    <text x="80" y="44" text-anchor="middle" fill="#cbd5e1" font-family="monospace" font-size="11">**bold**</text>

    <text x="160" y="37" fill="#8b5cf6" font-family="system-ui" font-size="16">→</text>

    <rect x="180" y="15" width="100" height="35" rx="4" fill="#22c55e" opacity="0.2"/>
    <text x="230" y="28" text-anchor="middle" class="text-muted">Output</text>
    <text x="230" y="44" text-anchor="middle" fill="#fff" font-family="system-ui" font-size="12" font-weight="bold">bold</text>

    <text x="300" y="37" fill="#94a3b8" font-family="monospace" font-size="10">&lt;strong&gt;</text>
    <text x="370" y="37" fill="#22c55e" font-family="system-ui" font-size="10">FR-005</text>

    <!-- Italic -->
    <rect x="15" y="60" width="130" height="35" rx="4" fill="#334155"/>
    <text x="80" y="83" text-anchor="middle" fill="#cbd5e1" font-family="monospace" font-size="11">*italic*</text>

    <text x="160" y="82" fill="#8b5cf6" font-family="system-ui" font-size="16">→</text>

    <rect x="180" y="60" width="100" height="35" rx="4" fill="#22c55e" opacity="0.2"/>
    <text x="230" y="83" text-anchor="middle" fill="#fff" font-family="system-ui" font-size="12" font-style="italic">italic</text>

    <text x="300" y="82" fill="#94a3b8" font-family="monospace" font-size="10">&lt;em&gt;</text>
    <text x="370" y="82" fill="#22c55e" font-family="system-ui" font-size="10">FR-006</text>

    <!-- Code -->
    <rect x="15" y="105" width="130" height="35" rx="4" fill="#334155"/>
    <text x="80" y="128" text-anchor="middle" fill="#cbd5e1" font-family="monospace" font-size="11">`code`</text>

    <text x="160" y="127" fill="#8b5cf6" font-family="system-ui" font-size="16">→</text>

    <rect x="180" y="105" width="100" height="35" rx="4" fill="#22c55e" opacity="0.2"/>
    <rect x="205" y="115" width="50" height="18" rx="3" fill="#475569"/>
    <text x="230" y="128" text-anchor="middle" class="code-text">code</text>

    <text x="300" y="127" fill="#94a3b8" font-family="monospace" font-size="10">&lt;code&gt;</text>
    <text x="370" y="127" fill="#22c55e" font-family="system-ui" font-size="10">FR-007</text>
  </g>

  <!-- EDGE CASES -->
  <text x="550" y="420" class="label-mobile">EDGE CASE HANDLING (FR-011)</text>

  <g id="edge-cases" transform="translate(550, 435)">
    <rect x="0" y="0" width="390" height="150" rx="6" fill="#1e293b" stroke="#eab308" stroke-width="1"/>

    <!-- Unclosed markdown -->
    <text x="15" y="25" class="text-muted">Unclosed syntax:</text>
    <rect x="15" y="35" width="170" height="25" rx="4" fill="#334155"/>
    <text x="25" y="52" fill="#cbd5e1" font-family="monospace" font-size="10">**broken</text>
    <text x="200" y="52" fill="#94a3b8" font-family="system-ui" font-size="10">→ **broken (preserved)</text>

    <!-- Empty markdown -->
    <text x="15" y="80" class="text-muted">Empty syntax:</text>
    <rect x="15" y="90" width="170" height="25" rx="4" fill="#334155"/>
    <text x="25" y="107" fill="#cbd5e1" font-family="monospace" font-size="10">****</text>
    <text x="200" y="107" fill="#94a3b8" font-family="system-ui" font-size="10">→ (empty output)</text>

    <!-- Nested (partial support) -->
    <text x="15" y="135" class="text-muted">Nested syntax:</text>
    <rect x="130" y="120" width="150" height="25" rx="4" fill="#334155"/>
    <text x="140" y="137" fill="#eab308" font-family="monospace" font-size="9">**bold *italic***</text>
    <text x="295" y="137" fill="#eab308" font-family="system-ui" font-size="9">⚠</text>
  </g>

  <!-- MOBILE VIEW -->
  <text x="980" y="60" class="label-mobile">MOBILE</text>

  <g id="mobile-view" transform="translate(980, 75)">
    <!-- Phone frame -->
    <rect x="0" y="0" width="360" height="510" rx="24" fill="#1e293b" stroke="#475569" stroke-width="2"/>
    <rect x="10" y="10" width="340" height="490" rx="16" fill="#0f172a"/>

    <!-- Status bar -->
    <rect x="10" y="10" width="340" height="28" rx="16" fill="#1e293b"/>
    <text x="30" y="28" class="text-sm">9:41</text>
    <text x="320" y="28" text-anchor="end" class="text-sm">📶 🔋</text>

    <!-- Chat header -->
    <rect x="20" y="48" width="320" height="40" rx="6" fill="#334155"/>
    <text x="35" y="73" fill="#fff" font-family="system-ui" font-size="12" font-weight="bold">ScriptHammer Admin</text>

    <!-- Welcome message with rendered markdown -->
    <rect x="30" y="100" width="280" height="90" rx="12" fill="#334155"/>
    <circle cx="50" cy="120" r="10" fill="#8b5cf6"/>
    <text x="50" y="124" text-anchor="middle" fill="#fff" font-family="system-ui" font-size="8">A</text>

    <text x="70" y="120" fill="#fff" font-family="system-ui" font-size="11" font-weight="bold">Welcome!</text>
    <text x="30" y="145" fill="#cbd5e1" font-family="system-ui" font-size="10">Thanks for joining. Check out our</text>
    <rect x="30" y="155" width="60" height="14" rx="3" fill="#475569"/>
    <text x="35" y="165" class="code-text">settings</text>
    <text x="95" y="165" fill="#cbd5e1" font-family="system-ui" font-size="10"> page and</text>
    <text x="165" y="165" fill="#cbd5e1" font-family="system-ui" font-size="10" font-style="italic">enjoy</text>
    <text x="195" y="165" fill="#cbd5e1" font-family="system-ui" font-size="10">!</text>

    <!-- User reply -->
    <rect x="150" y="210" width="160" height="40" rx="12" fill="#8b5cf6"/>
    <text x="165" y="235" fill="#fff" font-family="system-ui" font-size="10">Thanks! Looks </text>
    <text x="240" y="235" fill="#fff" font-family="system-ui" font-size="10" font-weight="bold">great</text>
    <text x="275" y="235" fill="#fff" font-family="system-ui" font-size="10">!</text>

    <!-- Another admin message -->
    <rect x="30" y="265" width="260" height="60" rx="12" fill="#334155"/>
    <text x="45" y="290" fill="#cbd5e1" font-family="system-ui" font-size="10">Pro tip: Use </text>
    <text x="115" y="290" fill="#fff" font-family="system-ui" font-size="10" font-weight="bold">Ctrl+K</text>
    <text x="160" y="290" fill="#cbd5e1" font-family="system-ui" font-size="10"> for search</text>
    <text x="45" y="310" fill="#cbd5e1" font-family="system-ui" font-size="10">and </text>
    <rect x="70" y="300" width="50" height="14" rx="3" fill="#475569"/>
    <text x="75" y="310" class="code-text">/help</text>
    <text x="125" y="310" fill="#cbd5e1" font-family="system-ui" font-size="10"> for commands.</text>

    <!-- Input area -->
    <rect x="20" y="440" width="250" height="40" rx="6" fill="#334155"/>
    <text x="35" y="465" class="text-muted">Type a message...</text>

    <!-- Send button -->
    <rect x="280" y="440" width="50" height="40" rx="6" fill="#8b5cf6"/>
    <text x="305" y="465" text-anchor="middle" fill="#fff" font-family="system-ui" font-size="12">↑</text>

    <!-- Character count -->
    <text x="180" y="495" text-anchor="middle" class="text-muted">0 / 10000 characters</text>
  </g>

  <!-- XSS PROTECTION -->
  <text x="60" y="610" class="label-desktop">SECURITY: XSS PROTECTION (FR-012)</text>

  <g id="xss-protection" transform="translate(60, 625)">
    <rect x="0" y="0" width="450" height="100" rx="6" fill="#1e293b" stroke="#ef4444" stroke-width="1"/>

    <text x="15" y="25" class="heading">HTML Injection Prevention</text>

    <!-- Malicious input -->
    <rect x="15" y="40" width="420" height="25" rx="4" fill="#334155"/>
    <text x="25" y="57" fill="#ef4444" font-family="monospace" font-size="9">&lt;script&gt;alert('xss')&lt;/script&gt; or **&lt;img onerror=...&gt;**</text>

    <text x="15" y="85" class="text-muted">→ All HTML tags escaped before markdown parsing</text>
    <text x="350" y="85" class="success">✓ Safe</text>
  </g>

  <!-- ACCESSIBILITY -->
  <text x="550" y="610" class="label-mobile">ACCESSIBILITY (NFR-005, NFR-006)</text>

  <g id="accessibility" transform="translate(550, 625)">
    <rect x="0" y="0" width="390" height="100" rx="6" fill="#1e293b" stroke="#22c55e" stroke-width="1"/>

    <text x="15" y="25" class="heading">Semantic HTML Elements</text>

    <text x="15" y="50" class="text-sm">Bold → </text>
    <text x="60" y="50" fill="#22c55e" font-family="monospace" font-size="10">&lt;strong&gt;</text>
    <text x="130" y="50" class="text-muted">(not &lt;b&gt;)</text>

    <text x="200" y="50" class="text-sm">Italic → </text>
    <text x="245" y="50" fill="#22c55e" font-family="monospace" font-size="10">&lt;em&gt;</text>
    <text x="275" y="50" class="text-muted">(not &lt;i&gt;)</text>

    <text x="15" y="75" class="text-sm">Code → </text>
    <text x="60" y="75" fill="#22c55e" font-family="monospace" font-size="10">&lt;code&gt;</text>

    <text x="15" y="95" class="text-muted">Screen readers announce formatting correctly</text>
  </g>

  <!-- Legend -->
  <rect x="980" y="610" width="360" height="100" rx="6" fill="#1e293b" stroke="#475569" stroke-width="1"/>
  <text x="1000" y="635" class="heading">Requirements Summary</text>

  <circle cx="1000" cy="660" r="5" fill="#22c55e"/>
  <text x="1015" y="664" class="text-sm">FR-005: Bold rendering (**text**)</text>

  <circle cx="1000" cy="680" r="5" fill="#22c55e"/>
  <text x="1015" y="684" class="text-sm">FR-006: Italic rendering (*text*)</text>

  <circle cx="1000" cy="700" r="5" fill="#22c55e"/>
  <text x="1015" y="704" class="text-sm">FR-007: Code rendering (`text`)</text>
</svg>
