<svg xmlns="http://www.w3.org/2000/svg" viewBox="0 0 1400 800" width="1400" height="800">
  <!-- ============================================================
       GENERATED BY: /wireframe skill
       SOURCE: features/integrations/026-unified-messaging-sidebar/spec.md
       DATE: 2026-01-01
       THEME: Light (UX/Frontend) - v3 True Parchment
       DO NOT MANUALLY EDIT - Regenerate with /wireframe command
       ============================================================ -->
  <defs>
    <linearGradient id="bgGrad" x1="0%" y1="0%" x2="100%" y2="100%">
      <stop offset="0%" style="stop-color:#c7ddf5"/>
      <stop offset="100%" style="stop-color:#b8d4f0"/>
    </linearGradient>
    <linearGradient id="accentGrad" x1="0%" y1="0%" x2="100%" y2="0%">
      <stop offset="0%" style="stop-color:#8b5cf6"/>
      <stop offset="100%" style="stop-color:#d946ef"/>
    </linearGradient>
    <style>
      .heading-lg { fill: #1a1a2e; font-family: system-ui, sans-serif; font-size: 24px; font-weight: 800; }
      .heading { fill: #1a1a2e; font-family: system-ui, sans-serif; font-size: 16px; font-weight: 700; }
      .text-md { fill: #2d3748; font-family: system-ui, sans-serif; font-size: 14px; font-weight: 500; }
      .text-sm { fill: #4a5568; font-family: system-ui, sans-serif; font-size: 12px; font-weight: 500; }
      .text-muted { fill: #5a6577; font-family: system-ui, sans-serif; font-size: 11px; font-weight: 500; }
      .annotation { fill: #8b5cf6; font-family: monospace; font-size: 12px; font-weight: 600; }
      .label-desktop { fill: #8b5cf6; font-family: monospace; font-size: 13px; font-weight: bold; }
      .label-mobile { fill: #d946ef; font-family: monospace; font-size: 13px; font-weight: bold; }
    </style>
  </defs>

  <!-- Background -->
  <rect width="1400" height="800" fill="url(#bgGrad)"/>

  <!-- Dot grid pattern -->
  <g opacity="0.35">
    <pattern id="dots" width="30" height="30" patternUnits="userSpaceOnUse">
      <circle cx="15" cy="15" r="1" fill="#6b8cba"/>
    </pattern>
    <rect width="1400" height="800" fill="url(#dots)"/>
  </g>

  <!-- Accent line top -->
  <rect x="0" y="0" width="1400" height="3" fill="url(#accentGrad)"/>

  <!-- Title -->
  <text x="700" y="28" text-anchor="middle" font-family="system-ui, sans-serif" font-size="14" font-weight="600" fill="#5a6577" letter-spacing="1">UNIFIED MESSAGING SIDEBAR — CHATS TAB</text>

  <!-- DESKTOP SECTION -->
  <text x="40" y="52" class="label-desktop">DESKTOP (768px+)</text>

  <!-- Desktop Container -->
  <g id="desktop-view">
    <!-- Sidebar (320px wide as per NFR-008) -->
    <rect x="40" y="60" width="320" height="680" rx="8" fill="#e8d4b8" stroke="#b8a080" stroke-width="1"/>

    <!-- Sidebar Header -->
    <rect x="40" y="60" width="320" height="50" rx="8" fill="#dcc8a8"/>
    <rect x="40" y="100" width="320" height="10" fill="#dcc8a8"/>
    <text x="200" y="92" text-anchor="middle" class="heading">Messages</text>

    <!-- Tab Bar -->
    <g id="tab-bar">
      <rect x="50" y="120" width="300" height="44" rx="6" fill="#f5f0e6" stroke="#b8a080" stroke-width="1"/>

      <!-- Chats Tab (Active) -->
      <rect x="54" y="124" width="96" height="36" rx="4" fill="#8b5cf6"/>
      <text x="102" y="147" text-anchor="middle" fill="#fff" font-family="system-ui" font-size="13" font-weight="600">Chats</text>
      <!-- Badge -->
      <circle cx="130" cy="135" r="9" fill="#ef4444"/>
      <text x="130" y="139" text-anchor="middle" fill="#fff" font-family="system-ui" font-size="10" font-weight="700">3</text>

      <!-- Connections Tab -->
      <text x="200" y="147" text-anchor="middle" fill="#4a5568" font-family="system-ui" font-size="13" font-weight="500">Connections</text>
      <!-- Pending badge -->
      <circle cx="250" cy="135" r="9" fill="#eab308"/>
      <text x="250" y="139" text-anchor="middle" fill="#1a1a2e" font-family="system-ui" font-size="10" font-weight="700">2</text>

      <!-- Find People Tab -->
      <text x="310" y="147" text-anchor="middle" fill="#4a5568" font-family="system-ui" font-size="13" font-weight="500">Find</text>
    </g>

    <!-- Conversation List -->
    <g id="conversation-list">
      <!-- Conversation 1 (unread) -->
      <rect x="50" y="175" width="300" height="70" rx="6" fill="#f5f0e6" stroke="#8b5cf6" stroke-width="2"/>
      <circle cx="75" cy="210" r="20" fill="#dcc8a8"/>
      <text x="75" y="215" text-anchor="middle" fill="#4a5568" font-family="system-ui" font-size="14" font-weight="600">JD</text>
      <text x="105" y="200" class="heading">Jane Doe</text>
      <text x="105" y="218" class="text-sm">Hey! Are you coming to the...</text>
      <text x="105" y="235" class="text-muted">2 min ago</text>
      <!-- Unread indicator -->
      <circle cx="330" cy="210" r="6" fill="#8b5cf6"/>

      <!-- Conversation 2 (unread) -->
      <rect x="50" y="255" width="300" height="70" rx="6" fill="#f5f0e6" stroke="#8b5cf6" stroke-width="2"/>
      <circle cx="75" cy="290" r="20" fill="#dcc8a8"/>
      <text x="75" y="295" text-anchor="middle" fill="#4a5568" font-family="system-ui" font-size="14" font-weight="600">MS</text>
      <text x="105" y="280" class="heading">Mike Smith</text>
      <text x="105" y="298" class="text-sm">Thanks for the update!</text>
      <text x="105" y="315" class="text-muted">15 min ago</text>
      <circle cx="330" cy="290" r="6" fill="#8b5cf6"/>

      <!-- Conversation 3 (read) -->
      <rect x="50" y="335" width="300" height="70" rx="6" fill="#e8d4b8" stroke="#b8a080" stroke-width="1"/>
      <circle cx="75" cy="370" r="20" fill="#dcc8a8"/>
      <text x="75" y="375" text-anchor="middle" fill="#4a5568" font-family="system-ui" font-size="14" font-weight="600">AS</text>
      <text x="105" y="360" class="text-md" font-weight="500">Alex Smith</text>
      <text x="105" y="378" class="text-sm">Sounds good, let me know</text>
      <text x="105" y="395" class="text-muted">1 hour ago</text>

      <!-- Conversation 4 (read) -->
      <rect x="50" y="415" width="300" height="70" rx="6" fill="#e8d4b8" stroke="#b8a080" stroke-width="1"/>
      <circle cx="75" cy="450" r="20" fill="#dcc8a8"/>
      <text x="75" y="455" text-anchor="middle" fill="#4a5568" font-family="system-ui" font-size="14" font-weight="600">SJ</text>
      <text x="105" y="440" class="text-md" font-weight="500">Sarah Johnson</text>
      <text x="105" y="458" class="text-sm">The project is almost done</text>
      <text x="105" y="475" class="text-muted">Yesterday</text>

      <!-- Group Chat -->
      <rect x="50" y="495" width="300" height="70" rx="6" fill="#e8d4b8" stroke="#b8a080" stroke-width="1"/>
      <rect x="55" y="515" width="40" height="40" rx="8" fill="#dcc8a8"/>
      <text x="75" y="540" text-anchor="middle" fill="#4a5568" font-family="system-ui" font-size="11" font-weight="600">👥</text>
      <text x="105" y="520" class="text-md" font-weight="500">Team Alpha</text>
      <text x="105" y="538" class="text-sm">Bob: Meeting at 3pm?</text>
      <text x="105" y="555" class="text-muted">2 days ago</text>
    </g>

    <!-- Chat Panel (Main Area) -->
    <rect x="370" y="60" width="560" height="680" rx="8" fill="#e8d4b8" stroke="#b8a080" stroke-width="1"/>

    <!-- Chat Header -->
    <rect x="370" y="60" width="560" height="60" rx="8" fill="#dcc8a8"/>
    <rect x="370" y="110" width="560" height="10" fill="#dcc8a8"/>
    <circle cx="410" cy="90" r="20" fill="#e8d4b8"/>
    <text x="410" y="95" text-anchor="middle" fill="#4a5568" font-family="system-ui" font-size="14" font-weight="600">JD</text>
    <text x="445" y="85" class="heading">Jane Doe</text>
    <text x="445" y="102" class="text-sm" fill="#22c55e">● Online</text>

    <!-- Chat Messages -->
    <g id="chat-messages">
      <!-- Received message -->
      <rect x="390" y="140" width="280" height="50" rx="12" fill="#f5f0e6"/>
      <text x="405" y="160" class="text-md">Hey! Are you coming to the meetup</text>
      <text x="405" y="178" class="text-md">this weekend?</text>

      <!-- Sent message -->
      <rect x="540" y="210" width="180" height="35" rx="12" fill="#8b5cf6"/>
      <text x="555" y="233" fill="#fff" font-family="system-ui" font-size="14">I'll be there! 🎉</text>

      <!-- Received message -->
      <rect x="390" y="265" width="200" height="35" rx="12" fill="#f5f0e6"/>
      <text x="405" y="288" class="text-md">Awesome, see you at 6!</text>
    </g>

    <!-- Message Input -->
    <rect x="380" y="680" width="540" height="50" rx="8" fill="#f5f0e6" stroke="#b8a080" stroke-width="1"/>
    <text x="400" y="710" class="text-muted">Type a message...</text>
    <rect x="850" y="690" width="60" height="32" rx="6" fill="#8b5cf6"/>
    <text x="880" y="711" text-anchor="middle" fill="#fff" font-family="system-ui" font-size="12" font-weight="600">Send</text>
  </g>

  <!-- MOBILE SECTION -->
  <text x="980" y="52" class="label-mobile">MOBILE (&lt;768px)</text>
  <g id="mobile-view" transform="translate(980, 60)">
    <!-- Phone frame -->
    <rect x="0" y="0" width="360" height="700" rx="24" fill="#c8b898" stroke="#a08860" stroke-width="2"/>
    <!-- Screen area -->
    <rect x="10" y="10" width="340" height="680" rx="16" fill="#e8d4b8"/>
    <!-- Status bar -->
    <rect x="10" y="10" width="340" height="28" rx="16" fill="#dcc8a8"/>
    <text x="30" y="28" class="text-sm">9:41</text>
    <text x="310" y="28" class="text-sm">📶 🔋</text>

    <!-- Mobile Header -->
    <rect x="10" y="38" width="340" height="50" fill="#dcc8a8"/>
    <text x="180" y="70" text-anchor="middle" class="heading">Messages</text>

    <!-- Mobile Tab Bar -->
    <rect x="20" y="95" width="320" height="40" rx="6" fill="#f5f0e6" stroke="#b8a080" stroke-width="1"/>

    <!-- Chats Tab (Active) -->
    <rect x="24" y="99" width="100" height="32" rx="4" fill="#8b5cf6"/>
    <text x="74" y="120" text-anchor="middle" fill="#fff" font-family="system-ui" font-size="12" font-weight="600">Chats (3)</text>

    <!-- Connections Tab -->
    <text x="178" y="120" text-anchor="middle" fill="#4a5568" font-family="system-ui" font-size="12">Connect (2)</text>

    <!-- Find Tab -->
    <text x="285" y="120" text-anchor="middle" fill="#4a5568" font-family="system-ui" font-size="12">Find</text>

    <!-- Conversation List (Mobile) -->
    <!-- Conversation 1 -->
    <rect x="20" y="145" width="320" height="65" rx="6" fill="#f5f0e6" stroke="#8b5cf6" stroke-width="2"/>
    <circle cx="50" cy="177" r="18" fill="#dcc8a8"/>
    <text x="50" y="182" text-anchor="middle" fill="#4a5568" font-family="system-ui" font-size="12" font-weight="600">JD</text>
    <text x="78" y="167" fill="#1a1a2e" font-family="system-ui" font-size="14" font-weight="700">Jane Doe</text>
    <text x="78" y="183" class="text-sm">Hey! Are you coming to...</text>
    <text x="78" y="199" class="text-muted">2 min ago</text>
    <circle cx="320" cy="177" r="5" fill="#8b5cf6"/>

    <!-- Conversation 2 -->
    <rect x="20" y="218" width="320" height="65" rx="6" fill="#f5f0e6" stroke="#8b5cf6" stroke-width="2"/>
    <circle cx="50" cy="250" r="18" fill="#dcc8a8"/>
    <text x="50" y="255" text-anchor="middle" fill="#4a5568" font-family="system-ui" font-size="12" font-weight="600">MS</text>
    <text x="78" y="240" fill="#1a1a2e" font-family="system-ui" font-size="14" font-weight="700">Mike Smith</text>
    <text x="78" y="256" class="text-sm">Thanks for the update!</text>
    <text x="78" y="272" class="text-muted">15 min ago</text>
    <circle cx="320" cy="250" r="5" fill="#8b5cf6"/>

    <!-- Conversation 3 -->
    <rect x="20" y="291" width="320" height="65" rx="6" fill="#e8d4b8" stroke="#b8a080" stroke-width="1"/>
    <circle cx="50" cy="323" r="18" fill="#dcc8a8"/>
    <text x="50" y="328" text-anchor="middle" fill="#4a5568" font-family="system-ui" font-size="12" font-weight="600">AS</text>
    <text x="78" y="313" class="text-md">Alex Smith</text>
    <text x="78" y="329" class="text-sm">Sounds good, let me know</text>
    <text x="78" y="345" class="text-muted">1 hour ago</text>

    <!-- Conversation 4 -->
    <rect x="20" y="364" width="320" height="65" rx="6" fill="#e8d4b8" stroke="#b8a080" stroke-width="1"/>
    <circle cx="50" cy="396" r="18" fill="#dcc8a8"/>
    <text x="50" y="401" text-anchor="middle" fill="#4a5568" font-family="system-ui" font-size="12" font-weight="600">SJ</text>
    <text x="78" y="386" class="text-md">Sarah Johnson</text>
    <text x="78" y="402" class="text-sm">The project is almost done</text>
    <text x="78" y="418" class="text-muted">Yesterday</text>

    <!-- Group Chat -->
    <rect x="20" y="437" width="320" height="65" rx="6" fill="#e8d4b8" stroke="#b8a080" stroke-width="1"/>
    <rect x="32" y="456" width="36" height="36" rx="6" fill="#dcc8a8"/>
    <text x="50" y="479" text-anchor="middle" fill="#4a5568" font-family="system-ui" font-size="10">👥</text>
    <text x="78" y="459" class="text-md">Team Alpha</text>
    <text x="78" y="475" class="text-sm">Bob: Meeting at 3pm?</text>
    <text x="78" y="491" class="text-muted">2 days ago</text>

    <!-- Mobile hint -->
    <text x="180" y="540" text-anchor="middle" class="text-muted">Tap conversation to open chat</text>

    <!-- Bottom nav hint -->
    <rect x="10" y="640" width="340" height="50" rx="16" fill="#dcc8a8"/>
    <text x="180" y="670" text-anchor="middle" class="text-sm">Home    Search    Messages    Profile</text>
  </g>

  <!-- Annotations -->
  <g id="annotations">
    <rect x="40" y="580" width="120" height="50" rx="4" fill="#e8d4b8" stroke="#8b5cf6" stroke-width="1"/>
    <text x="100" y="600" text-anchor="middle" class="annotation">FR-013</text>
    <text x="100" y="618" text-anchor="middle" class="text-muted">Unread badges</text>

    <rect x="40" y="640" width="120" height="50" rx="4" fill="#e8d4b8" stroke="#8b5cf6" stroke-width="1"/>
    <text x="100" y="660" text-anchor="middle" class="annotation">NFR-005</text>
    <text x="100" y="678" text-anchor="middle" class="text-muted">&lt;200ms switch</text>

    <rect x="40" y="700" width="120" height="35" rx="4" fill="#e8d4b8" stroke="#8b5cf6" stroke-width="1"/>
    <text x="100" y="722" text-anchor="middle" class="annotation">320px sidebar</text>
  </g>

  <!-- Leader lines -->
  <g id="leader-lines">
    <line x1="160" y1="600" x2="130" y2="540" stroke="#8b5cf6" stroke-width="1" stroke-dasharray="4,2"/>
  </g>
</svg>
