<svg xmlns="http://www.w3.org/2000/svg" viewBox="0 0 1400 800" width="1400" height="800">
  <!-- ============================================================
       GENERATED BY: /wireframe skill
       SOURCE: features/integrations/026-unified-messaging-sidebar/spec.md
       DATE: 2025-12-31
       DO NOT MANUALLY EDIT - Regenerate with /wireframe command
       ============================================================ -->
  <defs>
    <linearGradient id="bgGrad" x1="0%" y1="0%" x2="100%" y2="100%">
      <stop offset="0%" style="stop-color:#0f172a"/>
      <stop offset="100%" style="stop-color:#1e293b"/>
    </linearGradient>
    <linearGradient id="accentGrad" x1="0%" y1="0%" x2="100%" y2="0%">
      <stop offset="0%" style="stop-color:#8b5cf6"/>
      <stop offset="100%" style="stop-color:#d946ef"/>
    </linearGradient>
    <style>
      .heading-lg { fill: #ffffff; font-family: system-ui, sans-serif; font-size: 20px; font-weight: bold; }
      .heading { fill: #ffffff; font-family: system-ui, sans-serif; font-size: 14px; font-weight: bold; }
      .text-md { fill: #cbd5e1; font-family: system-ui, sans-serif; font-size: 12px; }
      .text-sm { fill: #94a3b8; font-family: system-ui, sans-serif; font-size: 10px; }
      .text-muted { fill: #64748b; font-family: system-ui, sans-serif; font-size: 10px; }
      .annotation { fill: #8b5cf6; font-family: monospace; font-size: 10px; }
      .label-desktop { fill: #8b5cf6; font-family: monospace; font-size: 11px; font-weight: bold; }
      .label-mobile { fill: #d946ef; font-family: monospace; font-size: 11px; font-weight: bold; }
    </style>
  </defs>

  <!-- Background -->
  <rect width="1400" height="800" fill="url(#bgGrad)"/>

  <!-- Dot grid pattern -->
  <g opacity="0.05">
    <pattern id="dots" width="30" height="30" patternUnits="userSpaceOnUse">
      <circle cx="15" cy="15" r="1" fill="#fff"/>
    </pattern>
    <rect width="1400" height="800" fill="url(#dots)"/>
  </g>

  <!-- Accent line top -->
  <rect x="0" y="0" width="1400" height="3" fill="url(#accentGrad)"/>

  <!-- Title -->
  <text x="700" y="28" text-anchor="middle" font-family="system-ui, sans-serif" font-size="14" font-weight="600" fill="#64748b" letter-spacing="1">UNIFIED MESSAGING SIDEBAR - TABBED INTERFACE</text>

  <!-- DESKTOP SECTION -->
  <text x="40" y="52" class="label-desktop">DESKTOP (768px+)</text>

  <!-- Desktop Container -->
  <rect x="40" y="60" width="900" height="680" rx="8" fill="#1e293b" stroke="#475569" stroke-width="1"/>

  <!-- Desktop Header -->
  <rect x="40" y="60" width="900" height="50" rx="8" fill="#334155"/>
  <rect x="40" y="100" width="900" height="10" fill="#334155"/>
  <text x="60" y="92" class="heading-lg">Messages</text>

  <!-- Desktop Sidebar (320px wide per NFR-008) -->
  <rect x="40" y="110" width="320" height="630" fill="#1e293b" stroke="#475569" stroke-width="1"/>

  <!-- Tabs Container -->
  <rect x="50" y="120" width="300" height="44" rx="8" fill="#0f172a"/>

  <!-- Chats Tab (Active) -->
  <rect x="54" y="124" width="94" height="36" rx="6" fill="#8b5cf6"/>
  <text x="80" y="147" class="heading" fill="#fff">Chats</text>
  <!-- Unread badge -->
  <circle cx="125" cy="142" r="10" fill="#ef4444"/>
  <text x="125" y="146" text-anchor="middle" fill="#fff" font-family="system-ui" font-size="10" font-weight="bold">3</text>

  <!-- Connections Tab -->
  <rect x="152" y="124" width="94" height="36" rx="6" fill="transparent"/>
  <text x="162" y="147" class="text-md">Connections</text>
  <!-- Pending badge -->
  <circle cx="237" cy="142" r="10" fill="#8b5cf6"/>
  <text x="237" y="146" text-anchor="middle" fill="#fff" font-family="system-ui" font-size="10" font-weight="bold">2</text>

  <!-- Find People Tab -->
  <rect x="250" y="124" width="94" height="36" rx="6" fill="transparent"/>
  <text x="262" y="147" class="text-md">Find People</text>

  <!-- Chats List (Active Tab Content) -->
  <g id="chats-list">
    <!-- Chat Item 1 (unread) -->
    <rect x="50" y="174" width="300" height="70" rx="6" fill="#334155" stroke="#8b5cf6" stroke-width="1"/>
    <circle cx="80" cy="209" r="20" fill="#475569"/>
    <text x="80" y="214" text-anchor="middle" fill="#94a3b8" font-size="14">JD</text>
    <text x="110" y="199" class="heading">Jane Doe</text>
    <text x="110" y="216" class="text-sm">Hey, did you see the new...</text>
    <text x="110" y="232" class="text-muted">2 min ago</text>
    <circle cx="330" cy="209" r="6" fill="#8b5cf6"/>

    <!-- Chat Item 2 (unread) -->
    <rect x="50" y="250" width="300" height="70" rx="6" fill="#334155" stroke="#8b5cf6" stroke-width="1"/>
    <circle cx="80" cy="285" r="20" fill="#475569"/>
    <text x="80" y="290" text-anchor="middle" fill="#94a3b8" font-size="14">AS</text>
    <text x="110" y="275" class="heading">Alex Smith</text>
    <text x="110" y="292" class="text-sm">Project update ready...</text>
    <text x="110" y="308" class="text-muted">15 min ago</text>
    <circle cx="330" cy="285" r="6" fill="#8b5cf6"/>

    <!-- Chat Item 3 (read) -->
    <rect x="50" y="326" width="300" height="70" rx="6" fill="#1e293b"/>
    <circle cx="80" cy="361" r="20" fill="#475569"/>
    <text x="80" y="366" text-anchor="middle" fill="#94a3b8" font-size="14">MJ</text>
    <text x="110" y="351" class="text-md" fill="#fff">Mike Johnson</text>
    <text x="110" y="368" class="text-sm">Thanks for the help!</text>
    <text x="110" y="384" class="text-muted">Yesterday</text>

    <!-- Chat Item 4 (read) -->
    <rect x="50" y="402" width="300" height="70" rx="6" fill="#1e293b"/>
    <circle cx="80" cy="437" r="20" fill="#475569"/>
    <text x="80" y="442" text-anchor="middle" fill="#94a3b8" font-size="14">SL</text>
    <text x="110" y="427" class="text-md" fill="#fff">Sarah Lee</text>
    <text x="110" y="444" class="text-sm">Sounds good to me</text>
    <text x="110" y="460" class="text-muted">2 days ago</text>
  </g>

  <!-- Desktop Chat Panel -->
  <rect x="360" y="110" width="580" height="630" fill="#0f172a"/>

  <!-- Chat Header -->
  <rect x="360" y="110" width="580" height="60" fill="#1e293b"/>
  <circle cx="400" cy="140" r="20" fill="#475569"/>
  <text x="400" y="145" text-anchor="middle" fill="#94a3b8" font-size="14">JD</text>
  <text x="430" y="135" class="heading">Jane Doe</text>
  <text x="430" y="152" class="text-sm">Online</text>
  <circle cx="494" cy="147" r="4" fill="#22c55e"/>

  <!-- Chat Messages -->
  <g id="chat-messages">
    <!-- Received message -->
    <rect x="380" y="190" width="280" height="50" rx="12" fill="#334155"/>
    <text x="395" y="212" class="text-md">Hey, did you see the new feature?</text>
    <text x="395" y="228" class="text-muted">2:30 PM</text>

    <!-- Sent message -->
    <rect x="540" y="260" width="180" height="50" rx="12" fill="#8b5cf6"/>
    <text x="555" y="282" class="text-md" fill="#fff">Not yet, what is it?</text>
    <text x="555" y="298" class="text-muted" fill="#cbd5e1">2:31 PM</text>

    <!-- Received message -->
    <rect x="380" y="330" width="320" height="70" rx="12" fill="#334155"/>
    <text x="395" y="352" class="text-md">They added unified messaging!</text>
    <text x="395" y="368" class="text-md">Everything in one sidebar now</text>
    <text x="395" y="388" class="text-muted">2:32 PM</text>
  </g>

  <!-- Chat Input -->
  <rect x="370" y="680" width="560" height="50" rx="8" fill="#1e293b" stroke="#475569" stroke-width="1"/>
  <text x="390" y="710" class="text-muted">Type a message...</text>
  <rect x="870" y="690" width="50" height="30" rx="6" fill="#8b5cf6"/>
  <text x="895" y="710" text-anchor="middle" fill="#fff" font-size="12">Send</text>

  <!-- MOBILE SECTION -->
  <text x="980" y="52" class="label-mobile">MOBILE (&lt;768px)</text>

  <!-- Phone Frame -->
  <rect x="980" y="60" width="360" height="700" rx="24" fill="#1e293b" stroke="#475569" stroke-width="2"/>
  <rect x="990" y="70" width="340" height="680" rx="16" fill="#0f172a"/>

  <!-- Status bar -->
  <rect x="990" y="70" width="340" height="28" rx="16" fill="#1e293b"/>
  <text x="1010" y="88" class="text-sm">9:41</text>
  <text x="1300" y="88" class="text-sm">100%</text>

  <!-- Mobile Header -->
  <rect x="990" y="98" width="340" height="50" fill="#334155"/>
  <text x="1160" y="130" text-anchor="middle" class="heading">Messages</text>

  <!-- Mobile Tabs -->
  <rect x="1000" y="158" width="320" height="44" rx="8" fill="#1e293b"/>

  <!-- Chats Tab (Active) -->
  <rect x="1004" y="162" width="100" height="36" rx="6" fill="#8b5cf6"/>
  <text x="1030" y="185" fill="#fff" font-family="system-ui" font-size="11" font-weight="bold">Chats</text>
  <circle cx="1080" cy="180" r="8" fill="#ef4444"/>
  <text x="1080" y="183" text-anchor="middle" fill="#fff" font-size="9" font-weight="bold">3</text>

  <!-- Connections Tab -->
  <text x="1140" y="185" class="text-sm">Connections</text>
  <circle cx="1195" cy="180" r="8" fill="#8b5cf6"/>
  <text x="1195" y="183" text-anchor="middle" fill="#fff" font-size="9" font-weight="bold">2</text>

  <!-- Find People Tab -->
  <text x="1250" y="185" class="text-sm">Find</text>

  <!-- Mobile Chat List -->
  <g id="mobile-chats">
    <!-- Chat Item 1 -->
    <rect x="1000" y="212" width="320" height="64" rx="6" fill="#334155" stroke="#8b5cf6" stroke-width="1"/>
    <circle cx="1028" cy="244" r="18" fill="#475569"/>
    <text x="1028" y="248" text-anchor="middle" fill="#94a3b8" font-size="12">JD</text>
    <text x="1054" y="235" class="heading" font-size="12">Jane Doe</text>
    <text x="1054" y="252" class="text-sm">Hey, did you see the new...</text>
    <text x="1280" y="235" class="text-muted">2m</text>
    <circle cx="1300" cy="250" r="5" fill="#8b5cf6"/>

    <!-- Chat Item 2 -->
    <rect x="1000" y="282" width="320" height="64" rx="6" fill="#334155" stroke="#8b5cf6" stroke-width="1"/>
    <circle cx="1028" cy="314" r="18" fill="#475569"/>
    <text x="1028" y="318" text-anchor="middle" fill="#94a3b8" font-size="12">AS</text>
    <text x="1054" y="305" class="heading" font-size="12">Alex Smith</text>
    <text x="1054" y="322" class="text-sm">Project update ready...</text>
    <text x="1280" y="305" class="text-muted">15m</text>
    <circle cx="1300" cy="320" r="5" fill="#8b5cf6"/>

    <!-- Chat Item 3 -->
    <rect x="1000" y="352" width="320" height="64" rx="6" fill="#1e293b"/>
    <circle cx="1028" cy="384" r="18" fill="#475569"/>
    <text x="1028" y="388" text-anchor="middle" fill="#94a3b8" font-size="12">MJ</text>
    <text x="1054" y="375" fill="#fff" font-family="system-ui" font-size="12">Mike Johnson</text>
    <text x="1054" y="392" class="text-sm">Thanks for the help!</text>
    <text x="1280" y="375" class="text-muted">1d</text>

    <!-- Chat Item 4 -->
    <rect x="1000" y="422" width="320" height="64" rx="6" fill="#1e293b"/>
    <circle cx="1028" cy="454" r="18" fill="#475569"/>
    <text x="1028" y="458" text-anchor="middle" fill="#94a3b8" font-size="12">SL</text>
    <text x="1054" y="445" fill="#fff" font-family="system-ui" font-size="12">Sarah Lee</text>
    <text x="1054" y="462" class="text-sm">Sounds good to me</text>
    <text x="1280" y="445" class="text-muted">2d</text>

    <!-- Chat Item 5 -->
    <rect x="1000" y="492" width="320" height="64" rx="6" fill="#1e293b"/>
    <circle cx="1028" cy="524" r="18" fill="#475569"/>
    <text x="1028" y="528" text-anchor="middle" fill="#94a3b8" font-size="12">TW</text>
    <text x="1054" y="515" fill="#fff" font-family="system-ui" font-size="12">Tom Wilson</text>
    <text x="1054" y="532" class="text-sm">See you tomorrow!</text>
    <text x="1280" y="515" class="text-muted">3d</text>
  </g>

  <!-- Mobile Nav Bar -->
  <rect x="990" y="700" width="340" height="50" rx="16" fill="#1e293b"/>
  <text x="1050" y="730" text-anchor="middle" class="text-muted">Home</text>
  <text x="1160" y="730" text-anchor="middle" fill="#8b5cf6" font-family="system-ui" font-size="10" font-weight="bold">Messages</text>
  <text x="1270" y="730" text-anchor="middle" class="text-muted">Profile</text>

  <!-- Annotations -->
  <g id="annotations">
    <!-- Tab badges annotation -->
    <rect x="370" y="108" width="120" height="50" rx="4" fill="#1e293b" stroke="#8b5cf6" stroke-width="1"/>
    <text x="430" y="128" text-anchor="middle" class="annotation">FR-013/014</text>
    <text x="430" y="143" text-anchor="middle" class="text-muted">Real-time badges</text>

    <!-- Sidebar width annotation -->
    <rect x="370" y="540" width="120" height="50" rx="4" fill="#1e293b" stroke="#8b5cf6" stroke-width="1"/>
    <text x="430" y="560" text-anchor="middle" class="annotation">NFR-008</text>
    <text x="430" y="575" text-anchor="middle" class="text-muted">320px sidebar</text>

    <!-- Mobile touch targets -->
    <rect x="370" y="320" width="120" height="50" rx="4" fill="#1e293b" stroke="#d946ef" stroke-width="1"/>
    <text x="430" y="340" text-anchor="middle" class="annotation" fill="#d946ef">FR-007</text>
    <text x="430" y="355" text-anchor="middle" class="text-muted">44px touch targets</text>
  </g>

  <!-- Leader lines -->
  <g id="leader-lines">
    <line x1="370" y1="133" x2="148" y2="142" stroke="#8b5cf6" stroke-width="1" stroke-dasharray="4,2"/>
    <line x1="370" y1="565" x2="360" y2="400" stroke="#8b5cf6" stroke-width="1" stroke-dasharray="4,2"/>
    <line x1="490" y1="345" x2="1000" y2="280" stroke="#d946ef" stroke-width="1" stroke-dasharray="4,2"/>
  </g>
</svg>
