<svg xmlns="http://www.w3.org/2000/svg" viewBox="0 0 1400 800" width="1400" height="800">
  <!-- ============================================================
       GENERATED BY: /wireframe skill
       SOURCE: features/integrations/026-unified-messaging-sidebar/spec.md
       DATE: 2026-01-01
       THEME: Light (UX/Frontend) - v3 True Parchment
       DO NOT MANUALLY EDIT - Regenerate with /wireframe command
       ============================================================ -->
  <defs>
    <linearGradient id="bgGrad" x1="0%" y1="0%" x2="100%" y2="100%">
      <stop offset="0%" style="stop-color:#c7ddf5"/>
      <stop offset="100%" style="stop-color:#b8d4f0"/>
    </linearGradient>
    <linearGradient id="accentGrad" x1="0%" y1="0%" x2="100%" y2="0%">
      <stop offset="0%" style="stop-color:#8b5cf6"/>
      <stop offset="100%" style="stop-color:#d946ef"/>
    </linearGradient>
    <style>
      .heading-lg { fill: #1a1a2e; font-family: system-ui, sans-serif; font-size: 24px; font-weight: 800; }
      .heading { fill: #1a1a2e; font-family: system-ui, sans-serif; font-size: 16px; font-weight: 700; }
      .text-md { fill: #2d3748; font-family: system-ui, sans-serif; font-size: 14px; font-weight: 500; }
      .text-sm { fill: #374151; font-family: system-ui, sans-serif; font-size: 12px; font-weight: 500; }
      .text-muted { fill: #4b5563; font-family: system-ui, sans-serif; font-size: 11px; font-weight: 500; }
      .annotation { fill: #6d28d9; font-family: monospace; font-size: 12px; font-weight: 600; }
      .label-desktop { fill: #8b5cf6; font-family: monospace; font-size: 13px; font-weight: bold; }
      .label-mobile { fill: #d946ef; font-family: monospace; font-size: 13px; font-weight: bold; }
    </style>
  </defs>

  <!-- Background -->
  <rect width="1400" height="800" fill="url(#bgGrad)"/>

  <!-- Dot grid pattern -->
  <g opacity="0.35">
    <pattern id="dots" width="30" height="30" patternUnits="userSpaceOnUse">
      <circle cx="15" cy="15" r="1" fill="#6b8cba"/>
    </pattern>
    <rect width="1400" height="800" fill="url(#dots)"/>
  </g>

  <!-- Accent line top -->
  <rect x="0" y="0" width="1400" height="3" fill="url(#accentGrad)"/>

  <!-- Title -->
  <text x="700" y="28" text-anchor="middle" font-family="system-ui, sans-serif" font-size="14" font-weight="600" fill="#4b5563" letter-spacing="1">UNIFIED MESSAGING SIDEBAR — CONNECTIONS TAB</text>

  <!-- DESKTOP SECTION -->
  <text x="40" y="52" class="label-desktop">DESKTOP (768px+)</text>

  <g id="desktop-view">
    <!-- Sidebar -->
    <rect x="40" y="60" width="320" height="680" rx="8" fill="#e8d4b8" stroke="#b8a080" stroke-width="1"/>

    <!-- Sidebar Header -->
    <rect x="40" y="60" width="320" height="50" rx="8" fill="#dcc8a8"/>
    <rect x="40" y="100" width="320" height="10" fill="#dcc8a8"/>
    <text x="200" y="92" text-anchor="middle" class="heading">Messages</text>

    <!-- Tab Bar -->
    <g id="tab-bar">
      <rect x="50" y="120" width="300" height="44" rx="6" fill="#f5f0e6" stroke="#b8a080" stroke-width="1"/>

      <!-- Chats Tab -->
      <text x="90" y="147" text-anchor="middle" fill="#374151" font-family="system-ui" font-size="13" font-weight="500">Chats</text>
      <circle cx="118" cy="137" r="9" fill="#ef4444"/>
      <text x="118" y="141" text-anchor="middle" fill="#fff" font-family="system-ui" font-size="10" font-weight="700">3</text>

      <!-- Connections Tab (Active) -->
      <rect x="140" y="124" width="110" height="36" rx="4" fill="#8b5cf6"/>
      <text x="195" y="147" text-anchor="middle" fill="#fff" font-family="system-ui" font-size="13" font-weight="600">Connections</text>
      <circle cx="235" cy="135" r="9" fill="#fff"/>
      <text x="235" y="139" text-anchor="middle" fill="#8b5cf6" font-family="system-ui" font-size="10" font-weight="700">2</text>

      <!-- Find People Tab -->
      <text x="310" y="147" text-anchor="middle" fill="#374151" font-family="system-ui" font-size="13" font-weight="500">Find</text>
    </g>

    <!-- Pending Connections Section -->
    <text x="60" y="190" class="heading">Pending Requests (2)</text>

    <!-- Pending 1 -->
    <rect x="50" y="200" width="300" height="70" rx="6" fill="#f5f0e6" stroke="#eab308" stroke-width="2"/>
    <circle cx="80" cy="235" r="20" fill="#dcc8a8"/>
    <text x="80" y="240" text-anchor="middle" fill="#374151" font-family="system-ui" font-size="14" font-weight="600">TW</text>
    <text x="110" y="225" class="heading">Tom Wilson</text>
    <text x="110" y="243" class="text-sm">Wants to connect</text>
    <!-- Accept/Decline buttons -->
    <rect x="220" y="220" width="55" height="28" rx="4" fill="#22c55e"/>
    <text x="247" y="239" text-anchor="middle" fill="#fff" font-family="system-ui" font-size="11" font-weight="600">Accept</text>
    <rect x="280" y="220" width="55" height="28" rx="4" fill="#ef4444"/>
    <text x="307" y="239" text-anchor="middle" fill="#fff" font-family="system-ui" font-size="11" font-weight="600">Decline</text>

    <!-- Pending 2 -->
    <rect x="50" y="280" width="300" height="70" rx="6" fill="#f5f0e6" stroke="#eab308" stroke-width="2"/>
    <circle cx="80" cy="315" r="20" fill="#dcc8a8"/>
    <text x="80" y="320" text-anchor="middle" fill="#374151" font-family="system-ui" font-size="14" font-weight="600">LM</text>
    <text x="110" y="305" class="heading">Lisa Miller</text>
    <text x="110" y="323" class="text-sm">Wants to connect</text>
    <rect x="220" y="300" width="55" height="28" rx="4" fill="#22c55e"/>
    <text x="247" y="319" text-anchor="middle" fill="#fff" font-family="system-ui" font-size="11" font-weight="600">Accept</text>
    <rect x="280" y="300" width="55" height="28" rx="4" fill="#ef4444"/>
    <text x="307" y="319" text-anchor="middle" fill="#fff" font-family="system-ui" font-size="11" font-weight="600">Decline</text>

    <!-- Accepted Connections Section -->
    <text x="60" y="385" class="heading">Your Connections (4)</text>

    <!-- Connection 1 -->
    <rect x="50" y="395" width="300" height="60" rx="6" fill="#e8d4b8" stroke="#b8a080" stroke-width="1"/>
    <circle cx="80" cy="425" r="18" fill="#dcc8a8"/>
    <text x="80" y="430" text-anchor="middle" fill="#374151" font-family="system-ui" font-size="12" font-weight="600">JD</text>
    <text x="108" y="418" class="text-md">Jane Doe</text>
    <text x="108" y="436" class="text-muted">Connected 2 weeks ago</text>
    <!-- Message Button (Core feature!) -->
    <rect x="260" y="410" width="80" height="32" rx="6" fill="#8b5cf6"/>
    <text x="300" y="431" text-anchor="middle" fill="#fff" font-family="system-ui" font-size="12" font-weight="600">Message</text>

    <!-- Connection 2 -->
    <rect x="50" y="465" width="300" height="60" rx="6" fill="#e8d4b8" stroke="#b8a080" stroke-width="1"/>
    <circle cx="80" cy="495" r="18" fill="#dcc8a8"/>
    <text x="80" y="500" text-anchor="middle" fill="#374151" font-family="system-ui" font-size="12" font-weight="600">MS</text>
    <text x="108" y="488" class="text-md">Mike Smith</text>
    <text x="108" y="506" class="text-muted">Connected 1 month ago</text>
    <rect x="260" y="480" width="80" height="32" rx="6" fill="#8b5cf6"/>
    <text x="300" y="501" text-anchor="middle" fill="#fff" font-family="system-ui" font-size="12" font-weight="600">Message</text>

    <!-- Connection 3 -->
    <rect x="50" y="535" width="300" height="60" rx="6" fill="#e8d4b8" stroke="#b8a080" stroke-width="1"/>
    <circle cx="80" cy="565" r="18" fill="#dcc8a8"/>
    <text x="80" y="570" text-anchor="middle" fill="#374151" font-family="system-ui" font-size="12" font-weight="600">AS</text>
    <text x="108" y="558" class="text-md">Alex Smith</text>
    <text x="108" y="576" class="text-muted">Connected 2 months ago</text>
    <rect x="260" y="550" width="80" height="32" rx="6" fill="#8b5cf6"/>
    <text x="300" y="571" text-anchor="middle" fill="#fff" font-family="system-ui" font-size="12" font-weight="600">Message</text>

    <!-- Connection 4 -->
    <rect x="50" y="605" width="300" height="60" rx="6" fill="#e8d4b8" stroke="#b8a080" stroke-width="1"/>
    <circle cx="80" cy="635" r="18" fill="#dcc8a8"/>
    <text x="80" y="640" text-anchor="middle" fill="#374151" font-family="system-ui" font-size="12" font-weight="600">SJ</text>
    <text x="108" y="628" class="text-md">Sarah Johnson</text>
    <text x="108" y="646" class="text-muted">Connected 3 months ago</text>
    <rect x="260" y="620" width="80" height="32" rx="6" fill="#8b5cf6"/>
    <text x="300" y="641" text-anchor="middle" fill="#fff" font-family="system-ui" font-size="12" font-weight="600">Message</text>

    <!-- Empty State Panel (no chat selected) -->
    <rect x="370" y="60" width="560" height="680" rx="8" fill="#e8d4b8" stroke="#b8a080" stroke-width="1"/>
    <text x="650" y="360" text-anchor="middle" class="heading-lg">No Chat Selected</text>
    <text x="650" y="395" text-anchor="middle" class="text-md">Click "Message" on a connection</text>
    <text x="650" y="420" text-anchor="middle" class="text-md">to start a conversation</text>
    <!-- Chat icon placeholder -->
    <rect x="620" y="270" width="60" height="60" rx="12" fill="#dcc8a8"/>
    <text x="650" y="310" text-anchor="middle" font-size="28">💬</text>
  </g>

  <!-- MOBILE SECTION -->
  <text x="980" y="52" class="label-mobile">MOBILE (&lt;768px)</text>
  <g id="mobile-view" transform="translate(980, 60)">
    <!-- Phone frame -->
    <rect x="0" y="0" width="360" height="700" rx="24" fill="#c8b898" stroke="#a08860" stroke-width="2"/>
    <!-- Screen area -->
    <rect x="10" y="10" width="340" height="680" rx="16" fill="#e8d4b8"/>
    <!-- Status bar -->
    <rect x="10" y="10" width="340" height="28" rx="16" fill="#dcc8a8"/>
    <text x="30" y="28" class="text-sm">9:41</text>
    <text x="310" y="28" class="text-sm">📶 🔋</text>

    <!-- Mobile Header -->
    <rect x="10" y="38" width="340" height="50" fill="#dcc8a8"/>
    <text x="180" y="70" text-anchor="middle" class="heading">Messages</text>

    <!-- Mobile Tab Bar -->
    <rect x="20" y="95" width="320" height="40" rx="6" fill="#f5f0e6" stroke="#b8a080" stroke-width="1"/>

    <!-- Chats Tab -->
    <text x="60" y="120" text-anchor="middle" fill="#374151" font-family="system-ui" font-size="12">Chats (3)</text>

    <!-- Connections Tab (Active) -->
    <rect x="115" y="99" width="110" height="32" rx="4" fill="#8b5cf6"/>
    <text x="170" y="120" text-anchor="middle" fill="#fff" font-family="system-ui" font-size="12" font-weight="600">Connect (2)</text>

    <!-- Find Tab -->
    <text x="285" y="120" text-anchor="middle" fill="#374151" font-family="system-ui" font-size="12">Find</text>

    <!-- Pending Section -->
    <text x="30" y="160" fill="#1a1a2e" font-family="system-ui" font-size="13" font-weight="700">Pending (2)</text>

    <!-- Pending 1 Mobile -->
    <rect x="20" y="170" width="320" height="55" rx="6" fill="#f5f0e6" stroke="#eab308" stroke-width="2"/>
    <circle cx="50" cy="197" r="16" fill="#dcc8a8"/>
    <text x="50" y="201" text-anchor="middle" fill="#374151" font-family="system-ui" font-size="10" font-weight="600">TW</text>
    <text x="75" y="192" fill="#1a1a2e" font-family="system-ui" font-size="13" font-weight="600">Tom Wilson</text>
    <text x="75" y="208" class="text-muted">Wants to connect</text>
    <rect x="230" y="185" width="44" height="24" rx="4" fill="#22c55e"/>
    <text x="252" y="201" text-anchor="middle" fill="#fff" font-family="system-ui" font-size="9" font-weight="600">✓</text>
    <rect x="280" y="185" width="44" height="24" rx="4" fill="#ef4444"/>
    <text x="302" y="201" text-anchor="middle" fill="#fff" font-family="system-ui" font-size="9" font-weight="600">✕</text>

    <!-- Pending 2 Mobile -->
    <rect x="20" y="233" width="320" height="55" rx="6" fill="#f5f0e6" stroke="#eab308" stroke-width="2"/>
    <circle cx="50" cy="260" r="16" fill="#dcc8a8"/>
    <text x="50" y="264" text-anchor="middle" fill="#374151" font-family="system-ui" font-size="10" font-weight="600">LM</text>
    <text x="75" y="255" fill="#1a1a2e" font-family="system-ui" font-size="13" font-weight="600">Lisa Miller</text>
    <text x="75" y="271" class="text-muted">Wants to connect</text>
    <rect x="230" y="248" width="44" height="24" rx="4" fill="#22c55e"/>
    <text x="252" y="264" text-anchor="middle" fill="#fff" font-family="system-ui" font-size="9" font-weight="600">✓</text>
    <rect x="280" y="248" width="44" height="24" rx="4" fill="#ef4444"/>
    <text x="302" y="264" text-anchor="middle" fill="#fff" font-family="system-ui" font-size="9" font-weight="600">✕</text>

    <!-- Connected Section -->
    <text x="30" y="315" fill="#1a1a2e" font-family="system-ui" font-size="13" font-weight="700">Connected (4)</text>

    <!-- Connection 1 Mobile -->
    <rect x="20" y="325" width="320" height="50" rx="6" fill="#e8d4b8" stroke="#b8a080" stroke-width="1"/>
    <circle cx="50" cy="350" r="16" fill="#dcc8a8"/>
    <text x="50" y="354" text-anchor="middle" fill="#374151" font-family="system-ui" font-size="10" font-weight="600">JD</text>
    <text x="75" y="345" class="text-md">Jane Doe</text>
    <text x="75" y="361" class="text-muted">2 weeks ago</text>
    <rect x="255" y="337" width="70" height="28" rx="4" fill="#8b5cf6"/>
    <text x="290" y="356" text-anchor="middle" fill="#fff" font-family="system-ui" font-size="11" font-weight="600">Message</text>

    <!-- Connection 2 Mobile -->
    <rect x="20" y="383" width="320" height="50" rx="6" fill="#e8d4b8" stroke="#b8a080" stroke-width="1"/>
    <circle cx="50" cy="408" r="16" fill="#dcc8a8"/>
    <text x="50" y="412" text-anchor="middle" fill="#374151" font-family="system-ui" font-size="10" font-weight="600">MS</text>
    <text x="75" y="403" class="text-md">Mike Smith</text>
    <text x="75" y="419" class="text-muted">1 month ago</text>
    <rect x="255" y="395" width="70" height="28" rx="4" fill="#8b5cf6"/>
    <text x="290" y="414" text-anchor="middle" fill="#fff" font-family="system-ui" font-size="11" font-weight="600">Message</text>

    <!-- Connection 3 Mobile -->
    <rect x="20" y="441" width="320" height="50" rx="6" fill="#e8d4b8" stroke="#b8a080" stroke-width="1"/>
    <circle cx="50" cy="466" r="16" fill="#dcc8a8"/>
    <text x="50" y="470" text-anchor="middle" fill="#374151" font-family="system-ui" font-size="10" font-weight="600">AS</text>
    <text x="75" y="461" class="text-md">Alex Smith</text>
    <text x="75" y="477" class="text-muted">2 months ago</text>
    <rect x="255" y="453" width="70" height="28" rx="4" fill="#8b5cf6"/>
    <text x="290" y="472" text-anchor="middle" fill="#fff" font-family="system-ui" font-size="11" font-weight="600">Message</text>

    <!-- Connection 4 Mobile -->
    <rect x="20" y="499" width="320" height="50" rx="6" fill="#e8d4b8" stroke="#b8a080" stroke-width="1"/>
    <circle cx="50" cy="524" r="16" fill="#dcc8a8"/>
    <text x="50" y="528" text-anchor="middle" fill="#374151" font-family="system-ui" font-size="10" font-weight="600">SJ</text>
    <text x="75" y="519" class="text-md">Sarah Johnson</text>
    <text x="75" y="535" class="text-muted">3 months ago</text>
    <rect x="255" y="511" width="70" height="28" rx="4" fill="#8b5cf6"/>
    <text x="290" y="530" text-anchor="middle" fill="#fff" font-family="system-ui" font-size="11" font-weight="600">Message</text>

    <!-- Bottom nav hint -->
    <rect x="10" y="640" width="340" height="50" rx="16" fill="#dcc8a8"/>
    <text x="180" y="670" text-anchor="middle" class="text-sm">Home    Search    Messages    Profile</text>
  </g>

  <!-- Annotations -->
  <g id="annotations">
    <rect x="40" y="680" width="130" height="55" rx="4" fill="#e8d4b8" stroke="#8b5cf6" stroke-width="1"/>
    <text x="105" y="700" text-anchor="middle" class="annotation">FR-002, FR-003</text>
    <text x="105" y="718" text-anchor="middle" class="text-muted">1-click Message</text>
    <text x="105" y="732" text-anchor="middle" class="text-muted">creates convo</text>
  </g>

  <!-- Leader lines -->
  <g id="leader-lines">
    <line x1="170" y1="680" x2="260" y2="640" stroke="#8b5cf6" stroke-width="1" stroke-dasharray="4,2"/>
  </g>
</svg>
