<svg xmlns="http://www.w3.org/2000/svg" viewBox="0 0 1400 800" width="1400" height="800">
  <!-- ============================================================
       GENERATED BY: /wireframe skill
       SOURCE: features/integrations/026-unified-messaging-sidebar/spec.md
       DATE: 2025-12-31
       DO NOT MANUALLY EDIT - Regenerate with /wireframe command
       ============================================================ -->
  <defs>
    <linearGradient id="bgGrad" x1="0%" y1="0%" x2="100%" y2="100%">
      <stop offset="0%" style="stop-color:#0f172a"/>
      <stop offset="100%" style="stop-color:#1e293b"/>
    </linearGradient>
    <linearGradient id="accentGrad" x1="0%" y1="0%" x2="100%" y2="0%">
      <stop offset="0%" style="stop-color:#8b5cf6"/>
      <stop offset="100%" style="stop-color:#d946ef"/>
    </linearGradient>
    <style>
      .heading-lg { fill: #ffffff; font-family: system-ui, sans-serif; font-size: 20px; font-weight: bold; }
      .heading { fill: #ffffff; font-family: system-ui, sans-serif; font-size: 14px; font-weight: bold; }
      .text-md { fill: #cbd5e1; font-family: system-ui, sans-serif; font-size: 12px; }
      .text-sm { fill: #94a3b8; font-family: system-ui, sans-serif; font-size: 10px; }
      .text-muted { fill: #64748b; font-family: system-ui, sans-serif; font-size: 10px; }
      .annotation { fill: #8b5cf6; font-family: monospace; font-size: 10px; }
      .label-desktop { fill: #8b5cf6; font-family: monospace; font-size: 11px; font-weight: bold; }
      .label-mobile { fill: #d946ef; font-family: monospace; font-size: 11px; font-weight: bold; }
    </style>
  </defs>

  <!-- Background -->
  <rect width="1400" height="800" fill="url(#bgGrad)"/>

  <!-- Dot grid pattern -->
  <g opacity="0.05">
    <pattern id="dots" width="30" height="30" patternUnits="userSpaceOnUse">
      <circle cx="15" cy="15" r="1" fill="#fff"/>
    </pattern>
    <rect width="1400" height="800" fill="url(#dots)"/>
  </g>

  <!-- Accent line top -->
  <rect x="0" y="0" width="1400" height="3" fill="url(#accentGrad)"/>

  <!-- Title -->
  <text x="700" y="28" text-anchor="middle" font-family="system-ui, sans-serif" font-size="14" font-weight="600" fill="#64748b" letter-spacing="1">CONNECTIONS TAB - MESSAGE ACTION FLOW</text>

  <!-- DESKTOP SECTION -->
  <text x="40" y="52" class="label-desktop">DESKTOP - CONNECTIONS TAB</text>

  <!-- Desktop Container -->
  <rect x="40" y="60" width="900" height="680" rx="8" fill="#1e293b" stroke="#475569" stroke-width="1"/>

  <!-- Desktop Header -->
  <rect x="40" y="60" width="900" height="50" rx="8" fill="#334155"/>
  <rect x="40" y="100" width="900" height="10" fill="#334155"/>
  <text x="60" y="92" class="heading-lg">Messages</text>

  <!-- Desktop Sidebar -->
  <rect x="40" y="110" width="320" height="630" fill="#1e293b" stroke="#475569" stroke-width="1"/>

  <!-- Tabs Container -->
  <rect x="50" y="120" width="300" height="44" rx="8" fill="#0f172a"/>

  <!-- Chats Tab (Inactive) -->
  <rect x="54" y="124" width="94" height="36" rx="6" fill="transparent"/>
  <text x="80" y="147" class="text-md">Chats</text>
  <circle cx="125" cy="142" r="10" fill="#ef4444"/>
  <text x="125" y="146" text-anchor="middle" fill="#fff" font-family="system-ui" font-size="10" font-weight="bold">3</text>

  <!-- Connections Tab (Active) -->
  <rect x="152" y="124" width="94" height="36" rx="6" fill="#8b5cf6"/>
  <text x="170" y="147" class="heading" fill="#fff">Connections</text>

  <!-- Find People Tab -->
  <rect x="250" y="124" width="94" height="36" rx="6" fill="transparent"/>
  <text x="262" y="147" class="text-md">Find People</text>

  <!-- Pending Connections Section -->
  <text x="60" y="188" class="text-muted">PENDING REQUESTS (2)</text>

  <!-- Pending Connection 1 -->
  <rect x="50" y="198" width="300" height="70" rx="6" fill="#334155"/>
  <circle cx="80" cy="233" r="20" fill="#475569"/>
  <text x="80" y="238" text-anchor="middle" fill="#94a3b8" font-size="14">RB</text>
  <text x="110" y="223" class="heading">Rachel Brown</text>
  <text x="110" y="240" class="text-sm">Product Designer at Tech Co</text>
  <!-- Accept/Decline buttons -->
  <rect x="260" y="218" width="35" height="28" rx="4" fill="#22c55e"/>
  <text x="277" y="236" text-anchor="middle" fill="#fff" font-size="10">Yes</text>
  <rect x="300" y="218" width="35" height="28" rx="4" fill="#ef4444"/>
  <text x="317" y="236" text-anchor="middle" fill="#fff" font-size="10">No</text>

  <!-- Pending Connection 2 -->
  <rect x="50" y="274" width="300" height="70" rx="6" fill="#334155"/>
  <circle cx="80" cy="309" r="20" fill="#475569"/>
  <text x="80" y="314" text-anchor="middle" fill="#94a3b8" font-size="14">KP</text>
  <text x="110" y="299" class="heading">Kevin Park</text>
  <text x="110" y="316" class="text-sm">Software Engineer</text>
  <rect x="260" y="294" width="35" height="28" rx="4" fill="#22c55e"/>
  <text x="277" y="312" text-anchor="middle" fill="#fff" font-size="10">Yes</text>
  <rect x="300" y="294" width="35" height="28" rx="4" fill="#ef4444"/>
  <text x="317" y="312" text-anchor="middle" fill="#fff" font-size="10">No</text>

  <!-- Accepted Connections Section -->
  <text x="60" y="368" class="text-muted">ACCEPTED CONNECTIONS</text>

  <!-- Accepted Connection 1 -->
  <rect x="50" y="378" width="300" height="70" rx="6" fill="#1e293b" stroke="#475569" stroke-width="1"/>
  <circle cx="80" cy="413" r="20" fill="#475569"/>
  <text x="80" y="418" text-anchor="middle" fill="#94a3b8" font-size="14">JD</text>
  <text x="110" y="403" class="heading">Jane Doe</text>
  <text x="110" y="420" class="text-sm">UX Researcher</text>
  <circle cx="160" cy="415" r="4" fill="#22c55e"/>
  <!-- Message Button - Primary Action -->
  <rect x="260" y="398" width="80" height="32" rx="6" fill="#8b5cf6"/>
  <text x="300" y="418" text-anchor="middle" fill="#fff" font-family="system-ui" font-size="11" font-weight="bold">Message</text>

  <!-- Accepted Connection 2 (with loading state) -->
  <rect x="50" y="454" width="300" height="70" rx="6" fill="#1e293b" stroke="#8b5cf6" stroke-width="2"/>
  <circle cx="80" cy="489" r="20" fill="#475569"/>
  <text x="80" y="494" text-anchor="middle" fill="#94a3b8" font-size="14">AS</text>
  <text x="110" y="479" class="heading">Alex Smith</text>
  <text x="110" y="496" class="text-sm">Backend Developer</text>
  <circle cx="170" cy="491" r="4" fill="#22c55e"/>
  <!-- Message Button - Loading State -->
  <rect x="260" y="474" width="80" height="32" rx="6" fill="#6366f1" opacity="0.7"/>
  <!-- Animated Spinner -->
  <g transform="translate(300, 490)">
    <circle cx="0" cy="0" r="8" fill="none" stroke="#475569" stroke-width="2"/>
    <path d="M 0 -8 A 8 8 0 0 1 8 0" fill="none" stroke="#fff" stroke-width="2" stroke-linecap="round">
      <animateTransform attributeName="transform" type="rotate" from="0" to="360" dur="1s" repeatCount="indefinite"/>
    </path>
  </g>

  <!-- Accepted Connection 3 -->
  <rect x="50" y="530" width="300" height="70" rx="6" fill="#1e293b" stroke="#475569" stroke-width="1"/>
  <circle cx="80" cy="565" r="20" fill="#475569"/>
  <text x="80" y="570" text-anchor="middle" fill="#94a3b8" font-size="14">MJ</text>
  <text x="110" y="555" class="heading">Mike Johnson</text>
  <text x="110" y="572" class="text-sm">Data Scientist</text>
  <circle cx="173" cy="567" r="4" fill="#64748b"/>
  <rect x="260" y="550" width="80" height="32" rx="6" fill="#8b5cf6"/>
  <text x="300" y="570" text-anchor="middle" fill="#fff" font-family="system-ui" font-size="11" font-weight="bold">Message</text>

  <!-- Desktop Chat Panel (showing newly opened chat) -->
  <rect x="360" y="110" width="580" height="630" fill="#0f172a"/>

  <!-- Chat Header -->
  <rect x="360" y="110" width="580" height="60" fill="#1e293b"/>
  <circle cx="400" cy="140" r="20" fill="#475569"/>
  <text x="400" y="145" text-anchor="middle" fill="#94a3b8" font-size="14">AS</text>
  <text x="430" y="135" class="heading">Alex Smith</text>
  <text x="430" y="152" class="text-sm">Online</text>
  <circle cx="477" cy="147" r="4" fill="#22c55e"/>

  <!-- New Conversation State -->
  <g id="new-conversation">
    <rect x="500" y="320" width="300" height="120" rx="12" fill="#1e293b" stroke="#475569" stroke-width="1"/>
    <text x="650" y="360" text-anchor="middle" class="text-md">Start a conversation with</text>
    <text x="650" y="385" text-anchor="middle" class="heading">Alex Smith</text>
    <text x="650" y="415" text-anchor="middle" class="text-muted">Send a message to get started</text>
  </g>

  <!-- Chat Input -->
  <rect x="370" y="680" width="560" height="50" rx="8" fill="#1e293b" stroke="#8b5cf6" stroke-width="2"/>
  <text x="390" y="710" class="text-md" fill="#94a3b8">Type your first message...</text>
  <rect x="870" y="690" width="50" height="30" rx="6" fill="#8b5cf6"/>
  <text x="895" y="710" text-anchor="middle" fill="#fff" font-size="12">Send</text>

  <!-- MOBILE SECTION -->
  <text x="980" y="52" class="label-mobile">MOBILE - CONNECTIONS</text>

  <!-- Phone Frame -->
  <rect x="980" y="60" width="360" height="700" rx="24" fill="#1e293b" stroke="#475569" stroke-width="2"/>
  <rect x="990" y="70" width="340" height="680" rx="16" fill="#0f172a"/>

  <!-- Status bar -->
  <rect x="990" y="70" width="340" height="28" rx="16" fill="#1e293b"/>
  <text x="1010" y="88" class="text-sm">9:41</text>
  <text x="1300" y="88" class="text-sm">100%</text>

  <!-- Mobile Header -->
  <rect x="990" y="98" width="340" height="50" fill="#334155"/>
  <text x="1160" y="130" text-anchor="middle" class="heading">Messages</text>

  <!-- Mobile Tabs -->
  <rect x="1000" y="158" width="320" height="44" rx="8" fill="#1e293b"/>

  <!-- Chats Tab -->
  <text x="1040" y="185" class="text-sm">Chats</text>
  <circle cx="1070" cy="180" r="8" fill="#ef4444"/>
  <text x="1070" y="183" text-anchor="middle" fill="#fff" font-size="9" font-weight="bold">3</text>

  <!-- Connections Tab (Active) -->
  <rect x="1100" y="162" width="100" height="36" rx="6" fill="#8b5cf6"/>
  <text x="1120" y="185" fill="#fff" font-family="system-ui" font-size="11" font-weight="bold">Connections</text>

  <!-- Find Tab -->
  <text x="1270" y="185" class="text-sm">Find</text>

  <!-- Pending Section -->
  <text x="1010" y="225" class="text-muted">PENDING (2)</text>

  <!-- Pending Request -->
  <rect x="1000" y="235" width="320" height="60" rx="6" fill="#334155"/>
  <circle cx="1028" cy="265" r="16" fill="#475569"/>
  <text x="1028" y="269" text-anchor="middle" fill="#94a3b8" font-size="11">RB</text>
  <text x="1052" y="258" fill="#fff" font-family="system-ui" font-size="11" font-weight="bold">Rachel Brown</text>
  <text x="1052" y="274" class="text-sm">Product Designer</text>
  <rect x="1240" y="252" width="32" height="26" rx="4" fill="#22c55e"/>
  <text x="1256" y="269" text-anchor="middle" fill="#fff" font-size="9">Yes</text>
  <rect x="1276" y="252" width="32" height="26" rx="4" fill="#ef4444"/>
  <text x="1292" y="269" text-anchor="middle" fill="#fff" font-size="9">No</text>

  <!-- Accepted Section -->
  <text x="1010" y="320" class="text-muted">ACCEPTED</text>

  <!-- Accepted Connection 1 -->
  <rect x="1000" y="330" width="320" height="60" rx="6" fill="#1e293b" stroke="#475569" stroke-width="1"/>
  <circle cx="1028" cy="360" r="16" fill="#475569"/>
  <text x="1028" y="364" text-anchor="middle" fill="#94a3b8" font-size="11">JD</text>
  <text x="1052" y="353" fill="#fff" font-family="system-ui" font-size="11" font-weight="bold">Jane Doe</text>
  <text x="1052" y="369" class="text-sm">UX Researcher</text>
  <!-- Message Button -->
  <rect x="1240" y="347" width="70" height="28" rx="6" fill="#8b5cf6"/>
  <text x="1275" y="366" text-anchor="middle" fill="#fff" font-size="10" font-weight="bold">Message</text>

  <!-- Accepted Connection 2 -->
  <rect x="1000" y="396" width="320" height="60" rx="6" fill="#1e293b" stroke="#475569" stroke-width="1"/>
  <circle cx="1028" cy="426" r="16" fill="#475569"/>
  <text x="1028" y="430" text-anchor="middle" fill="#94a3b8" font-size="11">AS</text>
  <text x="1052" y="419" fill="#fff" font-family="system-ui" font-size="11" font-weight="bold">Alex Smith</text>
  <text x="1052" y="435" class="text-sm">Backend Developer</text>
  <rect x="1240" y="413" width="70" height="28" rx="6" fill="#8b5cf6"/>
  <text x="1275" y="432" text-anchor="middle" fill="#fff" font-size="10" font-weight="bold">Message</text>

  <!-- Accepted Connection 3 -->
  <rect x="1000" y="462" width="320" height="60" rx="6" fill="#1e293b" stroke="#475569" stroke-width="1"/>
  <circle cx="1028" cy="492" r="16" fill="#475569"/>
  <text x="1028" y="496" text-anchor="middle" fill="#94a3b8" font-size="11">MJ</text>
  <text x="1052" y="485" fill="#fff" font-family="system-ui" font-size="11" font-weight="bold">Mike Johnson</text>
  <text x="1052" y="501" class="text-sm">Data Scientist</text>
  <rect x="1240" y="479" width="70" height="28" rx="6" fill="#8b5cf6"/>
  <text x="1275" y="498" text-anchor="middle" fill="#fff" font-size="10" font-weight="bold">Message</text>

  <!-- Accepted Connection 4 -->
  <rect x="1000" y="528" width="320" height="60" rx="6" fill="#1e293b" stroke="#475569" stroke-width="1"/>
  <circle cx="1028" cy="558" r="16" fill="#475569"/>
  <text x="1028" y="562" text-anchor="middle" fill="#94a3b8" font-size="11">SL</text>
  <text x="1052" y="551" fill="#fff" font-family="system-ui" font-size="11" font-weight="bold">Sarah Lee</text>
  <text x="1052" y="567" class="text-sm">Product Manager</text>
  <rect x="1240" y="545" width="70" height="28" rx="6" fill="#8b5cf6"/>
  <text x="1275" y="564" text-anchor="middle" fill="#fff" font-size="10" font-weight="bold">Message</text>

  <!-- Mobile Nav Bar -->
  <rect x="990" y="700" width="340" height="50" rx="16" fill="#1e293b"/>
  <text x="1050" y="730" text-anchor="middle" class="text-muted">Home</text>
  <text x="1160" y="730" text-anchor="middle" fill="#8b5cf6" font-family="system-ui" font-size="10" font-weight="bold">Messages</text>
  <text x="1270" y="730" text-anchor="middle" class="text-muted">Profile</text>

  <!-- Annotations -->
  <g id="annotations">
    <!-- FR-002 Message button -->
    <rect x="370" y="390" width="100" height="45" rx="4" fill="#1e293b" stroke="#8b5cf6" stroke-width="1"/>
    <text x="420" y="408" text-anchor="middle" class="annotation">FR-002</text>
    <text x="420" y="423" text-anchor="middle" class="text-muted">Message button</text>

    <!-- FR-003 Create/retrieve -->
    <rect x="370" y="470" width="100" height="45" rx="4" fill="#1e293b" stroke="#8b5cf6" stroke-width="1"/>
    <text x="420" y="488" text-anchor="middle" class="annotation">FR-003</text>
    <text x="420" y="503" text-anchor="middle" class="text-muted">Create or open</text>

    <!-- Loading indicator -->
    <rect x="370" y="550" width="100" height="45" rx="4" fill="#1e293b" stroke="#8b5cf6" stroke-width="1"/>
    <text x="420" y="568" text-anchor="middle" class="annotation">NFR-010</text>
    <text x="420" y="583" text-anchor="middle" class="text-muted">Loading state</text>

    <!-- SC-001 annotation -->
    <rect x="600" y="580" width="120" height="50" rx="4" fill="#1e293b" stroke="#22c55e" stroke-width="1"/>
    <text x="660" y="600" text-anchor="middle" class="annotation" fill="#22c55e">SC-001</text>
    <text x="660" y="618" text-anchor="middle" class="text-muted">2 clicks or less</text>
  </g>

  <!-- Leader lines -->
  <g id="leader-lines">
    <line x1="470" y1="410" x2="260" y2="414" stroke="#8b5cf6" stroke-width="1" stroke-dasharray="4,2"/>
    <line x1="470" y1="490" x2="360" y2="490" stroke="#8b5cf6" stroke-width="1" stroke-dasharray="4,2"/>
    <line x1="470" y1="570" x2="260" y2="490" stroke="#8b5cf6" stroke-width="1" stroke-dasharray="4,2"/>
    <line x1="600" y1="605" x2="500" y2="680" stroke="#22c55e" stroke-width="1" stroke-dasharray="4,2"/>
  </g>
</svg>
