<svg xmlns="http://www.w3.org/2000/svg" viewBox="0 0 1400 800" width="1400" height="800">
  <!-- ============================================================
       GENERATED BY: /wireframe skill
       SOURCE: features/integrations/026-unified-messaging-sidebar/spec.md
       DATE: 2026-01-01
       THEME: Light (UX/Frontend) - v3 True Parchment
       DO NOT MANUALLY EDIT - Regenerate with /wireframe command
       ============================================================ -->
  <defs>
    <linearGradient id="bgGrad" x1="0%" y1="0%" x2="100%" y2="100%">
      <stop offset="0%" style="stop-color:#c7ddf5"/>
      <stop offset="100%" style="stop-color:#b8d4f0"/>
    </linearGradient>
    <linearGradient id="accentGrad" x1="0%" y1="0%" x2="100%" y2="0%">
      <stop offset="0%" style="stop-color:#8b5cf6"/>
      <stop offset="100%" style="stop-color:#d946ef"/>
    </linearGradient>
    <style>
      .heading-lg { fill: #1a1a2e; font-family: system-ui, sans-serif; font-size: 24px; font-weight: 800; }
      .heading { fill: #1a1a2e; font-family: system-ui, sans-serif; font-size: 16px; font-weight: 700; }
      .text-md { fill: #2d3748; font-family: system-ui, sans-serif; font-size: 14px; font-weight: 500; }
      .text-sm { fill: #4a5568; font-family: system-ui, sans-serif; font-size: 12px; font-weight: 500; }
      .text-muted { fill: #5a6577; font-family: system-ui, sans-serif; font-size: 11px; font-weight: 500; }
      .annotation { fill: #8b5cf6; font-family: monospace; font-size: 12px; font-weight: 600; }
      .label-desktop { fill: #8b5cf6; font-family: monospace; font-size: 13px; font-weight: bold; }
      .label-mobile { fill: #d946ef; font-family: monospace; font-size: 13px; font-weight: bold; }
    </style>
  </defs>

  <!-- Background -->
  <rect width="1400" height="800" fill="url(#bgGrad)"/>

  <!-- Dot grid pattern -->
  <g opacity="0.35">
    <pattern id="dots" width="30" height="30" patternUnits="userSpaceOnUse">
      <circle cx="15" cy="15" r="1" fill="#6b8cba"/>
    </pattern>
    <rect width="1400" height="800" fill="url(#dots)"/>
  </g>

  <!-- Accent line top -->
  <rect x="0" y="0" width="1400" height="3" fill="url(#accentGrad)"/>

  <!-- Title -->
  <text x="700" y="28" text-anchor="middle" font-family="system-ui, sans-serif" font-size="14" font-weight="600" fill="#5a6577" letter-spacing="1">UNIFIED MESSAGING SIDEBAR — FIND PEOPLE TAB</text>

  <!-- DESKTOP SECTION -->
  <text x="40" y="52" class="label-desktop">DESKTOP (768px+)</text>

  <g id="desktop-view">
    <!-- Sidebar -->
    <rect x="40" y="60" width="320" height="680" rx="8" fill="#e8d4b8" stroke="#b8a080" stroke-width="1"/>

    <!-- Sidebar Header -->
    <rect x="40" y="60" width="320" height="50" rx="8" fill="#dcc8a8"/>
    <rect x="40" y="100" width="320" height="10" fill="#dcc8a8"/>
    <text x="200" y="92" text-anchor="middle" class="heading">Messages</text>

    <!-- Tab Bar -->
    <g id="tab-bar">
      <rect x="50" y="120" width="300" height="44" rx="6" fill="#f5f0e6" stroke="#b8a080" stroke-width="1"/>

      <!-- Chats Tab -->
      <text x="90" y="147" text-anchor="middle" fill="#4a5568" font-family="system-ui" font-size="13" font-weight="500">Chats</text>
      <circle cx="118" cy="137" r="9" fill="#ef4444"/>
      <text x="118" y="141" text-anchor="middle" fill="#fff" font-family="system-ui" font-size="10" font-weight="700">3</text>

      <!-- Connections Tab -->
      <text x="200" y="147" text-anchor="middle" fill="#4a5568" font-family="system-ui" font-size="13" font-weight="500">Connections</text>
      <circle cx="250" cy="137" r="9" fill="#eab308"/>
      <text x="250" y="141" text-anchor="middle" fill="#1a1a2e" font-family="system-ui" font-size="10" font-weight="700">2</text>

      <!-- Find People Tab (Active) -->
      <rect x="270" y="124" width="76" height="36" rx="4" fill="#8b5cf6"/>
      <text x="308" y="147" text-anchor="middle" fill="#fff" font-family="system-ui" font-size="13" font-weight="600">Find</text>
    </g>

    <!-- Search Input -->
    <rect x="50" y="175" width="300" height="44" rx="8" fill="#f5f0e6" stroke="#b8a080" stroke-width="1"/>
    <text x="80" y="202" class="text-md">🔍</text>
    <text x="105" y="202" class="text-md">John Smith</text>
    <!-- Clear button -->
    <circle cx="330" cy="197" r="12" fill="#dcc8a8"/>
    <text x="330" y="202" text-anchor="middle" fill="#4a5568" font-family="system-ui" font-size="14">✕</text>

    <!-- Search Results -->
    <text x="60" y="245" class="text-muted">3 results for "John Smith"</text>

    <!-- Result 1 -->
    <rect x="50" y="255" width="300" height="70" rx="6" fill="#e8d4b8" stroke="#b8a080" stroke-width="1"/>
    <circle cx="85" cy="290" r="22" fill="#dcc8a8"/>
    <text x="85" y="296" text-anchor="middle" fill="#4a5568" font-family="system-ui" font-size="14" font-weight="600">JS</text>
    <text x="118" y="278" class="heading">John Smith</text>
    <text x="118" y="296" class="text-sm">Product Designer at Tech Co</text>
    <text x="118" y="312" class="text-muted">12 mutual connections</text>
    <!-- Connect button -->
    <rect x="260" y="275" width="80" height="32" rx="6" fill="#8b5cf6"/>
    <text x="300" y="296" text-anchor="middle" fill="#fff" font-family="system-ui" font-size="12" font-weight="600">Connect</text>

    <!-- Result 2 -->
    <rect x="50" y="335" width="300" height="70" rx="6" fill="#e8d4b8" stroke="#b8a080" stroke-width="1"/>
    <circle cx="85" cy="370" r="22" fill="#dcc8a8"/>
    <text x="85" y="376" text-anchor="middle" fill="#4a5568" font-family="system-ui" font-size="14" font-weight="600">JS</text>
    <text x="118" y="358" class="heading">Johnny Smith</text>
    <text x="118" y="376" class="text-sm">Software Engineer</text>
    <text x="118" y="392" class="text-muted">5 mutual connections</text>
    <!-- Already connected indicator -->
    <rect x="260" y="355" width="80" height="32" rx="6" fill="#dcc8a8" stroke="#b8a080" stroke-width="1"/>
    <text x="300" y="376" text-anchor="middle" fill="#4a5568" font-family="system-ui" font-size="11" font-weight="500">Connected</text>

    <!-- Result 3 -->
    <rect x="50" y="415" width="300" height="70" rx="6" fill="#e8d4b8" stroke="#b8a080" stroke-width="1"/>
    <circle cx="85" cy="450" r="22" fill="#dcc8a8"/>
    <text x="85" y="456" text-anchor="middle" fill="#4a5568" font-family="system-ui" font-size="14" font-weight="600">JS</text>
    <text x="118" y="438" class="heading">Jonathan Smithson</text>
    <text x="118" y="456" class="text-sm">UX Researcher</text>
    <text x="118" y="472" class="text-muted">2 mutual connections</text>
    <!-- Pending indicator -->
    <rect x="260" y="435" width="80" height="32" rx="6" fill="#eab308"/>
    <text x="300" y="456" text-anchor="middle" fill="#1a1a2e" font-family="system-ui" font-size="11" font-weight="600">Pending</text>

    <!-- Suggested Section -->
    <text x="60" y="515" class="heading">Suggested for You</text>

    <!-- Suggested 1 -->
    <rect x="50" y="525" width="300" height="60" rx="6" fill="#f5f0e6" stroke="#b8a080" stroke-width="1"/>
    <circle cx="80" cy="555" r="18" fill="#dcc8a8"/>
    <text x="80" y="560" text-anchor="middle" fill="#4a5568" font-family="system-ui" font-size="11" font-weight="600">EW</text>
    <text x="108" y="548" class="text-md">Emma Wilson</text>
    <text x="108" y="566" class="text-muted">8 mutual connections</text>
    <rect x="260" y="540" width="80" height="32" rx="6" fill="#8b5cf6"/>
    <text x="300" y="561" text-anchor="middle" fill="#fff" font-family="system-ui" font-size="12" font-weight="600">Connect</text>

    <!-- Suggested 2 -->
    <rect x="50" y="595" width="300" height="60" rx="6" fill="#f5f0e6" stroke="#b8a080" stroke-width="1"/>
    <circle cx="80" cy="625" r="18" fill="#dcc8a8"/>
    <text x="80" y="630" text-anchor="middle" fill="#4a5568" font-family="system-ui" font-size="11" font-weight="600">RJ</text>
    <text x="108" y="618" class="text-md">Robert Jones</text>
    <text x="108" y="636" class="text-muted">15 mutual connections</text>
    <rect x="260" y="610" width="80" height="32" rx="6" fill="#8b5cf6"/>
    <text x="300" y="631" text-anchor="middle" fill="#fff" font-family="system-ui" font-size="12" font-weight="600">Connect</text>

    <!-- Empty State Panel -->
    <rect x="370" y="60" width="560" height="680" rx="8" fill="#e8d4b8" stroke="#b8a080" stroke-width="1"/>
    <text x="650" y="360" text-anchor="middle" class="heading-lg">Find New Connections</text>
    <text x="650" y="395" text-anchor="middle" class="text-md">Search for people by name</text>
    <text x="650" y="420" text-anchor="middle" class="text-md">to grow your network</text>
    <!-- Search icon placeholder -->
    <rect x="620" y="270" width="60" height="60" rx="12" fill="#dcc8a8"/>
    <text x="650" y="310" text-anchor="middle" font-size="28">🔍</text>
  </g>

  <!-- MOBILE SECTION -->
  <text x="980" y="52" class="label-mobile">MOBILE (&lt;768px)</text>
  <g id="mobile-view" transform="translate(980, 60)">
    <!-- Phone frame -->
    <rect x="0" y="0" width="360" height="700" rx="24" fill="#c8b898" stroke="#a08860" stroke-width="2"/>
    <!-- Screen area -->
    <rect x="10" y="10" width="340" height="680" rx="16" fill="#e8d4b8"/>
    <!-- Status bar -->
    <rect x="10" y="10" width="340" height="28" rx="16" fill="#dcc8a8"/>
    <text x="30" y="28" class="text-sm">9:41</text>
    <text x="310" y="28" class="text-sm">📶 🔋</text>

    <!-- Mobile Header -->
    <rect x="10" y="38" width="340" height="50" fill="#dcc8a8"/>
    <text x="180" y="70" text-anchor="middle" class="heading">Messages</text>

    <!-- Mobile Tab Bar -->
    <rect x="20" y="95" width="320" height="40" rx="6" fill="#f5f0e6" stroke="#b8a080" stroke-width="1"/>

    <!-- Chats Tab -->
    <text x="60" y="120" text-anchor="middle" fill="#4a5568" font-family="system-ui" font-size="12">Chats (3)</text>

    <!-- Connections Tab -->
    <text x="170" y="120" text-anchor="middle" fill="#4a5568" font-family="system-ui" font-size="12">Connect (2)</text>

    <!-- Find Tab (Active) -->
    <rect x="240" y="99" width="90" height="32" rx="4" fill="#8b5cf6"/>
    <text x="285" y="120" text-anchor="middle" fill="#fff" font-family="system-ui" font-size="12" font-weight="600">Find</text>

    <!-- Mobile Search Input -->
    <rect x="20" y="145" width="320" height="40" rx="8" fill="#f5f0e6" stroke="#b8a080" stroke-width="1"/>
    <text x="45" y="170" class="text-md">🔍</text>
    <text x="70" y="170" class="text-md">John Smith</text>
    <circle cx="320" cy="165" r="10" fill="#dcc8a8"/>
    <text x="320" y="169" text-anchor="middle" fill="#4a5568" font-family="system-ui" font-size="12">✕</text>

    <!-- Results count -->
    <text x="30" y="210" class="text-muted">3 results</text>

    <!-- Result 1 Mobile -->
    <rect x="20" y="220" width="320" height="60" rx="6" fill="#e8d4b8" stroke="#b8a080" stroke-width="1"/>
    <circle cx="50" cy="250" r="18" fill="#dcc8a8"/>
    <text x="50" y="254" text-anchor="middle" fill="#4a5568" font-family="system-ui" font-size="11" font-weight="600">JS</text>
    <text x="78" y="241" fill="#1a1a2e" font-family="system-ui" font-size="13" font-weight="600">John Smith</text>
    <text x="78" y="257" class="text-muted">12 mutual</text>
    <rect x="255" y="237" width="70" height="28" rx="4" fill="#8b5cf6"/>
    <text x="290" y="256" text-anchor="middle" fill="#fff" font-family="system-ui" font-size="11" font-weight="600">Connect</text>

    <!-- Result 2 Mobile -->
    <rect x="20" y="288" width="320" height="60" rx="6" fill="#e8d4b8" stroke="#b8a080" stroke-width="1"/>
    <circle cx="50" cy="318" r="18" fill="#dcc8a8"/>
    <text x="50" y="322" text-anchor="middle" fill="#4a5568" font-family="system-ui" font-size="11" font-weight="600">JS</text>
    <text x="78" y="309" fill="#1a1a2e" font-family="system-ui" font-size="13" font-weight="600">Johnny Smith</text>
    <text x="78" y="325" class="text-muted">5 mutual</text>
    <rect x="255" y="305" width="70" height="28" rx="4" fill="#dcc8a8" stroke="#b8a080" stroke-width="1"/>
    <text x="290" y="324" text-anchor="middle" fill="#4a5568" font-family="system-ui" font-size="10">Connected</text>

    <!-- Result 3 Mobile -->
    <rect x="20" y="356" width="320" height="60" rx="6" fill="#e8d4b8" stroke="#b8a080" stroke-width="1"/>
    <circle cx="50" cy="386" r="18" fill="#dcc8a8"/>
    <text x="50" y="390" text-anchor="middle" fill="#4a5568" font-family="system-ui" font-size="11" font-weight="600">JS</text>
    <text x="78" y="377" fill="#1a1a2e" font-family="system-ui" font-size="13" font-weight="600">Jonathan Smithson</text>
    <text x="78" y="393" class="text-muted">2 mutual</text>
    <rect x="255" y="373" width="70" height="28" rx="4" fill="#eab308"/>
    <text x="290" y="392" text-anchor="middle" fill="#1a1a2e" font-family="system-ui" font-size="10" font-weight="600">Pending</text>

    <!-- Suggested Section Mobile -->
    <text x="30" y="445" fill="#1a1a2e" font-family="system-ui" font-size="13" font-weight="700">Suggested</text>

    <!-- Suggested 1 Mobile -->
    <rect x="20" y="455" width="320" height="55" rx="6" fill="#f5f0e6" stroke="#b8a080" stroke-width="1"/>
    <circle cx="48" cy="482" r="16" fill="#dcc8a8"/>
    <text x="48" y="486" text-anchor="middle" fill="#4a5568" font-family="system-ui" font-size="10" font-weight="600">EW</text>
    <text x="73" y="477" class="text-md">Emma Wilson</text>
    <text x="73" y="493" class="text-muted">8 mutual</text>
    <rect x="255" y="469" width="70" height="28" rx="4" fill="#8b5cf6"/>
    <text x="290" y="488" text-anchor="middle" fill="#fff" font-family="system-ui" font-size="11" font-weight="600">Connect</text>

    <!-- Suggested 2 Mobile -->
    <rect x="20" y="518" width="320" height="55" rx="6" fill="#f5f0e6" stroke="#b8a080" stroke-width="1"/>
    <circle cx="48" cy="545" r="16" fill="#dcc8a8"/>
    <text x="48" y="549" text-anchor="middle" fill="#4a5568" font-family="system-ui" font-size="10" font-weight="600">RJ</text>
    <text x="73" y="540" class="text-md">Robert Jones</text>
    <text x="73" y="556" class="text-muted">15 mutual</text>
    <rect x="255" y="532" width="70" height="28" rx="4" fill="#8b5cf6"/>
    <text x="290" y="551" text-anchor="middle" fill="#fff" font-family="system-ui" font-size="11" font-weight="600">Connect</text>

    <!-- Bottom nav hint -->
    <rect x="10" y="640" width="340" height="50" rx="16" fill="#dcc8a8"/>
    <text x="180" y="670" text-anchor="middle" class="text-sm">Home    Search    Messages    Profile</text>
  </g>

  <!-- Annotations -->
  <g id="annotations">
    <rect x="40" y="680" width="130" height="55" rx="4" fill="#e8d4b8" stroke="#8b5cf6" stroke-width="1"/>
    <text x="105" y="700" text-anchor="middle" class="annotation">User Story 2</text>
    <text x="105" y="718" text-anchor="middle" class="text-muted">Find People tab</text>
    <text x="105" y="732" text-anchor="middle" class="text-muted">user search</text>
  </g>
</svg>
