<svg xmlns="http://www.w3.org/2000/svg" viewBox="0 0 1400 800" width="1400" height="800">
  <!-- ============================================================
       GENERATED BY: /wireframe skill
       SOURCE: features/integrations/026-unified-messaging-sidebar/spec.md
       DATE: 2025-12-31
       DO NOT MANUALLY EDIT - Regenerate with /wireframe command
       ============================================================ -->
  <defs>
    <linearGradient id="bgGrad" x1="0%" y1="0%" x2="100%" y2="100%">
      <stop offset="0%" style="stop-color:#0f172a"/>
      <stop offset="100%" style="stop-color:#1e293b"/>
    </linearGradient>
    <linearGradient id="accentGrad" x1="0%" y1="0%" x2="100%" y2="0%">
      <stop offset="0%" style="stop-color:#8b5cf6"/>
      <stop offset="100%" style="stop-color:#d946ef"/>
    </linearGradient>
    <style>
      .heading-lg { fill: #ffffff; font-family: system-ui, sans-serif; font-size: 20px; font-weight: bold; }
      .heading { fill: #ffffff; font-family: system-ui, sans-serif; font-size: 14px; font-weight: bold; }
      .text-md { fill: #cbd5e1; font-family: system-ui, sans-serif; font-size: 12px; }
      .text-sm { fill: #94a3b8; font-family: system-ui, sans-serif; font-size: 10px; }
      .text-muted { fill: #64748b; font-family: system-ui, sans-serif; font-size: 10px; }
      .annotation { fill: #8b5cf6; font-family: monospace; font-size: 10px; }
      .label-mobile { fill: #d946ef; font-family: monospace; font-size: 11px; font-weight: bold; }
      .flow-arrow { fill: none; stroke: #8b5cf6; stroke-width: 2; }
    </style>
  </defs>

  <!-- Background -->
  <rect width="1400" height="800" fill="url(#bgGrad)"/>

  <!-- Dot grid pattern -->
  <g opacity="0.05">
    <pattern id="dots" width="30" height="30" patternUnits="userSpaceOnUse">
      <circle cx="15" cy="15" r="1" fill="#fff"/>
    </pattern>
    <rect width="1400" height="800" fill="url(#dots)"/>
  </g>

  <!-- Accent line top -->
  <rect x="0" y="0" width="1400" height="3" fill="url(#accentGrad)"/>

  <!-- Title -->
  <text x="700" y="28" text-anchor="middle" font-family="system-ui, sans-serif" font-size="14" font-weight="600" fill="#64748b" letter-spacing="1">MOBILE DRAWER PATTERN - USER STORY 3</text>

  <!-- STATE 1: Drawer Open (Sidebar Full Screen) -->
  <text x="100" y="52" class="label-mobile">STATE 1: DRAWER OPEN</text>

  <!-- Phone Frame 1 -->
  <rect x="40" y="60" width="360" height="700" rx="24" fill="#1e293b" stroke="#475569" stroke-width="2"/>
  <rect x="50" y="70" width="340" height="680" rx="16" fill="#0f172a"/>

  <!-- Status bar -->
  <rect x="50" y="70" width="340" height="28" rx="16" fill="#1e293b"/>
  <text x="70" y="88" class="text-sm">9:41</text>
  <text x="360" y="88" class="text-sm">100%</text>

  <!-- Header -->
  <rect x="50" y="98" width="340" height="50" fill="#334155"/>
  <text x="220" y="130" text-anchor="middle" class="heading">Messages</text>

  <!-- Tabs -->
  <rect x="60" y="158" width="320" height="44" rx="8" fill="#1e293b"/>
  <rect x="64" y="162" width="100" height="36" rx="6" fill="#8b5cf6"/>
  <text x="90" y="185" fill="#fff" font-family="system-ui" font-size="11" font-weight="bold">Chats</text>
  <circle cx="140" cy="180" r="8" fill="#ef4444"/>
  <text x="140" y="183" text-anchor="middle" fill="#fff" font-size="9" font-weight="bold">3</text>
  <text x="200" y="185" class="text-sm">Connections</text>
  <text x="310" y="185" class="text-sm">Find</text>

  <!-- Chat List -->
  <rect x="60" y="212" width="320" height="64" rx="6" fill="#334155" stroke="#8b5cf6" stroke-width="1"/>
  <circle cx="88" cy="244" r="18" fill="#475569"/>
  <text x="88" y="248" text-anchor="middle" fill="#94a3b8" font-size="12">JD</text>
  <text x="114" y="235" fill="#fff" font-family="system-ui" font-size="12" font-weight="bold">Jane Doe</text>
  <text x="114" y="252" class="text-sm">Hey, did you see the new...</text>
  <text x="340" y="235" class="text-muted">2m</text>
  <circle cx="360" cy="250" r="5" fill="#8b5cf6"/>

  <rect x="60" y="282" width="320" height="64" rx="6" fill="#1e293b"/>
  <circle cx="88" cy="314" r="18" fill="#475569"/>
  <text x="88" y="318" text-anchor="middle" fill="#94a3b8" font-size="12">AS</text>
  <text x="114" y="305" fill="#fff" font-family="system-ui" font-size="12">Alex Smith</text>
  <text x="114" y="322" class="text-sm">Project update ready...</text>
  <text x="340" y="305" class="text-muted">15m</text>

  <rect x="60" y="352" width="320" height="64" rx="6" fill="#1e293b"/>
  <circle cx="88" cy="384" r="18" fill="#475569"/>
  <text x="88" y="388" text-anchor="middle" fill="#94a3b8" font-size="12">MJ</text>
  <text x="114" y="375" fill="#fff" font-family="system-ui" font-size="12">Mike Johnson</text>
  <text x="114" y="392" class="text-sm">Thanks for the help!</text>
  <text x="340" y="375" class="text-muted">1d</text>

  <rect x="60" y="422" width="320" height="64" rx="6" fill="#1e293b"/>
  <circle cx="88" cy="454" r="18" fill="#475569"/>
  <text x="88" y="458" text-anchor="middle" fill="#94a3b8" font-size="12">SL</text>
  <text x="114" y="445" fill="#fff" font-family="system-ui" font-size="12">Sarah Lee</text>
  <text x="114" y="462" class="text-sm">Sounds good to me</text>
  <text x="340" y="445" class="text-muted">2d</text>

  <!-- Nav Bar -->
  <rect x="50" y="700" width="340" height="50" rx="16" fill="#1e293b"/>
  <text x="110" y="730" text-anchor="middle" class="text-muted">Home</text>
  <text x="220" y="730" text-anchor="middle" fill="#8b5cf6" font-family="system-ui" font-size="10" font-weight="bold">Messages</text>
  <text x="330" y="730" text-anchor="middle" class="text-muted">Profile</text>

  <!-- Tap indicator -->
  <circle cx="200" cy="244" r="25" fill="#8b5cf6" opacity="0.3"/>
  <text x="200" y="248" text-anchor="middle" fill="#fff" font-size="10">TAP</text>

  <!-- Flow Arrow 1 to 2 -->
  <path d="M 420 400 L 480 400" class="flow-arrow" marker-end="url(#arrowhead)"/>
  <defs>
    <marker id="arrowhead" markerWidth="10" markerHeight="7" refX="9" refY="3.5" orient="auto">
      <polygon points="0 0, 10 3.5, 0 7" fill="#8b5cf6"/>
    </marker>
  </defs>
  <text x="450" y="390" text-anchor="middle" class="annotation">FR-006</text>
  <text x="450" y="420" text-anchor="middle" class="text-muted">Tap chat</text>

  <!-- STATE 2: Chat Full Screen -->
  <text x="560" y="52" class="label-mobile">STATE 2: CHAT VIEW</text>

  <!-- Phone Frame 2 -->
  <rect x="500" y="60" width="360" height="700" rx="24" fill="#1e293b" stroke="#475569" stroke-width="2"/>
  <rect x="510" y="70" width="340" height="680" rx="16" fill="#0f172a"/>

  <!-- Status bar -->
  <rect x="510" y="70" width="340" height="28" rx="16" fill="#1e293b"/>
  <text x="530" y="88" class="text-sm">9:41</text>
  <text x="820" y="88" class="text-sm">100%</text>

  <!-- Chat Header with Back Button -->
  <rect x="510" y="98" width="340" height="60" fill="#334155"/>
  <!-- Back button -->
  <rect x="520" y="112" width="36" height="36" rx="6" fill="#475569"/>
  <text x="538" y="135" text-anchor="middle" fill="#fff" font-size="16">&lt;</text>
  <!-- Avatar and name -->
  <circle cx="580" cy="128" r="18" fill="#475569"/>
  <text x="580" y="132" text-anchor="middle" fill="#94a3b8" font-size="12">JD</text>
  <text x="610" y="123" class="heading">Jane Doe</text>
  <text x="610" y="140" class="text-sm">Online</text>
  <circle cx="646" cy="135" r="4" fill="#22c55e"/>

  <!-- Chat Messages -->
  <rect x="530" y="180" width="200" height="40" rx="12" fill="#334155"/>
  <text x="545" y="205" class="text-md">Hey, did you see the new feature?</text>

  <rect x="640" y="235" width="180" height="40" rx="12" fill="#8b5cf6"/>
  <text x="655" y="260" fill="#fff" font-family="system-ui" font-size="12">Not yet, what is it?</text>

  <rect x="530" y="290" width="220" height="55" rx="12" fill="#334155"/>
  <text x="545" y="312" class="text-md">They added unified messaging!</text>
  <text x="545" y="328" class="text-md">Everything in one sidebar</text>

  <rect x="620" y="360" width="200" height="40" rx="12" fill="#8b5cf6"/>
  <text x="635" y="385" fill="#fff" font-family="system-ui" font-size="12">That's awesome!</text>

  <rect x="530" y="415" width="180" height="40" rx="12" fill="#334155"/>
  <text x="545" y="440" class="text-md">Right? Super convenient</text>

  <!-- Input -->
  <rect x="520" y="690" width="270" height="44" rx="8" fill="#1e293b" stroke="#475569" stroke-width="1"/>
  <text x="540" y="716" class="text-muted">Type a message...</text>
  <rect x="800" y="698" width="40" height="28" rx="6" fill="#8b5cf6"/>
  <text x="820" y="716" text-anchor="middle" fill="#fff" font-size="10">Send</text>

  <!-- Back button highlight -->
  <circle cx="538" cy="130" r="22" fill="#8b5cf6" opacity="0.3"/>
  <text x="538" y="134" text-anchor="middle" fill="#fff" font-size="9">TAP</text>

  <!-- Flow Arrow 2 to 3 -->
  <path d="M 880 400 L 940 400" class="flow-arrow" marker-end="url(#arrowhead)"/>
  <text x="910" y="390" text-anchor="middle" class="annotation">FR-008</text>
  <text x="910" y="420" text-anchor="middle" class="text-muted">Tap back</text>

  <!-- STATE 3: Drawer Reopens -->
  <text x="1020" y="52" class="label-mobile">STATE 3: DRAWER REOPENS</text>

  <!-- Phone Frame 3 -->
  <rect x="960" y="60" width="360" height="700" rx="24" fill="#1e293b" stroke="#475569" stroke-width="2"/>
  <rect x="970" y="70" width="340" height="680" rx="16" fill="#0f172a"/>

  <!-- Status bar -->
  <rect x="970" y="70" width="340" height="28" rx="16" fill="#1e293b"/>
  <text x="990" y="88" class="text-sm">9:41</text>
  <text x="1280" y="88" class="text-sm">100%</text>

  <!-- Header -->
  <rect x="970" y="98" width="340" height="50" fill="#334155"/>
  <text x="1140" y="130" text-anchor="middle" class="heading">Messages</text>

  <!-- Tabs - same as state 1 -->
  <rect x="980" y="158" width="320" height="44" rx="8" fill="#1e293b"/>
  <rect x="984" y="162" width="100" height="36" rx="6" fill="#8b5cf6"/>
  <text x="1010" y="185" fill="#fff" font-family="system-ui" font-size="11" font-weight="bold">Chats</text>
  <circle cx="1060" cy="180" r="8" fill="#ef4444"/>
  <text x="1060" y="183" text-anchor="middle" fill="#fff" font-size="9" font-weight="bold">2</text>
  <text x="1120" y="185" class="text-sm">Connections</text>
  <text x="1230" y="185" class="text-sm">Find</text>

  <!-- Chat List - Jane now read, moved to recent -->
  <rect x="980" y="212" width="320" height="64" rx="6" fill="#1e293b"/>
  <circle cx="1008" cy="244" r="18" fill="#475569"/>
  <text x="1008" y="248" text-anchor="middle" fill="#94a3b8" font-size="12">JD</text>
  <text x="1034" y="235" fill="#fff" font-family="system-ui" font-size="12" font-weight="bold">Jane Doe</text>
  <text x="1034" y="252" class="text-sm">That's awesome!</text>
  <text x="1260" y="235" class="text-muted">Just now</text>
  <!-- No unread dot - conversation was just viewed -->

  <rect x="980" y="282" width="320" height="64" rx="6" fill="#334155" stroke="#8b5cf6" stroke-width="1"/>
  <circle cx="1008" cy="314" r="18" fill="#475569"/>
  <text x="1008" y="318" text-anchor="middle" fill="#94a3b8" font-size="12">AS</text>
  <text x="1034" y="305" fill="#fff" font-family="system-ui" font-size="12" font-weight="bold">Alex Smith</text>
  <text x="1034" y="322" class="text-sm">Project update ready...</text>
  <text x="1260" y="305" class="text-muted">15m</text>
  <circle cx="1280" cy="320" r="5" fill="#8b5cf6"/>

  <rect x="980" y="352" width="320" height="64" rx="6" fill="#334155" stroke="#8b5cf6" stroke-width="1"/>
  <circle cx="1008" cy="384" r="18" fill="#475569"/>
  <text x="1008" y="388" text-anchor="middle" fill="#94a3b8" font-size="12">TW</text>
  <text x="1034" y="375" fill="#fff" font-family="system-ui" font-size="12" font-weight="bold">Tom Wilson</text>
  <text x="1034" y="392" class="text-sm">New message just arrived!</text>
  <text x="1260" y="375" class="text-muted">1m</text>
  <circle cx="1280" cy="390" r="5" fill="#8b5cf6"/>

  <rect x="980" y="422" width="320" height="64" rx="6" fill="#1e293b"/>
  <circle cx="1008" cy="454" r="18" fill="#475569"/>
  <text x="1008" y="458" text-anchor="middle" fill="#94a3b8" font-size="12">MJ</text>
  <text x="1034" y="445" fill="#fff" font-family="system-ui" font-size="12">Mike Johnson</text>
  <text x="1034" y="462" class="text-sm">Thanks for the help!</text>
  <text x="1260" y="445" class="text-muted">1d</text>

  <!-- Nav Bar -->
  <rect x="970" y="700" width="340" height="50" rx="16" fill="#1e293b"/>
  <text x="1030" y="730" text-anchor="middle" class="text-muted">Home</text>
  <text x="1140" y="730" text-anchor="middle" fill="#8b5cf6" font-family="system-ui" font-size="10" font-weight="bold">Messages</text>
  <text x="1250" y="730" text-anchor="middle" class="text-muted">Profile</text>

  <!-- Annotations at bottom -->
  <g id="bottom-annotations">
    <!-- FR-010 Scroll position preserved -->
    <rect x="40" y="770" width="140" height="25" rx="4" fill="#1e293b" stroke="#8b5cf6" stroke-width="1"/>
    <text x="110" y="786" text-anchor="middle" class="annotation">FR-010: Scroll preserved</text>

    <!-- FR-015 Real-time updates -->
    <rect x="960" y="770" width="160" height="25" rx="4" fill="#1e293b" stroke="#22c55e" stroke-width="1"/>
    <text x="1040" y="786" text-anchor="middle" class="annotation" fill="#22c55e">FR-015: Real-time updates</text>

    <!-- New message indicator -->
    <rect x="1130" y="770" width="140" height="25" rx="4" fill="#1e293b" stroke="#d946ef" stroke-width="1"/>
    <text x="1200" y="786" text-anchor="middle" class="annotation" fill="#d946ef">New msg while in chat</text>
  </g>

  <!-- NFR-003 Focus management annotation -->
  <rect x="500" y="510" width="130" height="50" rx="4" fill="#1e293b" stroke="#8b5cf6" stroke-width="1"/>
  <text x="565" y="530" text-anchor="middle" class="annotation">NFR-003</text>
  <text x="565" y="548" text-anchor="middle" class="text-muted">Focus on open/close</text>
</svg>
