<svg xmlns="http://www.w3.org/2000/svg" viewBox="0 0 1400 800" width="1400" height="800">
  <!-- ============================================================
       GENERATED BY: /wireframe skill
       SOURCE: features/integrations/026-unified-messaging-sidebar/spec.md
       DATE: 2026-01-01
       THEME: Light (UX/Frontend) - v3 True Parchment
       DO NOT MANUALLY EDIT - Regenerate with /wireframe command
       ============================================================ -->
  <defs>
    <linearGradient id="bgGrad" x1="0%" y1="0%" x2="100%" y2="100%">
      <stop offset="0%" style="stop-color:#c7ddf5"/>
      <stop offset="100%" style="stop-color:#b8d4f0"/>
    </linearGradient>
    <linearGradient id="accentGrad" x1="0%" y1="0%" x2="100%" y2="0%">
      <stop offset="0%" style="stop-color:#8b5cf6"/>
      <stop offset="100%" style="stop-color:#d946ef"/>
    </linearGradient>
    <style>
      .heading-lg { fill: #1a1a2e; font-family: system-ui, sans-serif; font-size: 24px; font-weight: 800; }
      .heading { fill: #1a1a2e; font-family: system-ui, sans-serif; font-size: 16px; font-weight: 700; }
      .text-md { fill: #2d3748; font-family: system-ui, sans-serif; font-size: 14px; font-weight: 500; }
      .text-sm { fill: #374151; font-family: system-ui, sans-serif; font-size: 12px; font-weight: 500; }
      .text-muted { fill: #4b5563; font-family: system-ui, sans-serif; font-size: 11px; font-weight: 500; }
      .annotation { fill: #6d28d9; font-family: monospace; font-size: 12px; font-weight: 600; }
      .label-mobile { fill: #d946ef; font-family: monospace; font-size: 13px; font-weight: bold; }
      .flow-arrow { fill: #8b5cf6; }
    </style>
  </defs>

  <!-- Background -->
  <rect width="1400" height="800" fill="url(#bgGrad)"/>

  <!-- Dot grid pattern -->
  <g opacity="0.35">
    <pattern id="dots" width="30" height="30" patternUnits="userSpaceOnUse">
      <circle cx="15" cy="15" r="1" fill="#6b8cba"/>
    </pattern>
    <rect width="1400" height="800" fill="url(#dots)"/>
  </g>

  <!-- Accent line top -->
  <rect x="0" y="0" width="1400" height="3" fill="url(#accentGrad)"/>

  <!-- Title -->
  <text x="700" y="28" text-anchor="middle" font-family="system-ui, sans-serif" font-size="14" font-weight="600" fill="#4b5563" letter-spacing="1">MOBILE DRAWER PATTERN — STATE TRANSITIONS</text>

  <!-- STATE 1: Drawer Open (Sidebar View) -->
  <text x="120" y="52" class="label-mobile">STATE 1: DRAWER OPEN</text>
  <g id="state-1" transform="translate(40, 60)">
    <!-- Phone frame -->
    <rect x="0" y="0" width="280" height="550" rx="20" fill="#c8b898" stroke="#a08860" stroke-width="2"/>
    <!-- Screen area -->
    <rect x="8" y="8" width="264" height="534" rx="14" fill="#e8d4b8"/>
    <!-- Status bar -->
    <rect x="8" y="8" width="264" height="24" rx="14" fill="#dcc8a8"/>
    <text x="24" y="24" fill="#374151" font-family="system-ui" font-size="10">9:41</text>

    <!-- Header -->
    <rect x="8" y="32" width="264" height="40" fill="#dcc8a8"/>
    <text x="140" y="58" text-anchor="middle" class="heading">Messages</text>

    <!-- Tab Bar -->
    <rect x="16" y="78" width="248" height="32" rx="4" fill="#f5f0e6" stroke="#b8a080" stroke-width="1"/>
    <rect x="20" y="82" width="76" height="24" rx="3" fill="#8b5cf6"/>
    <text x="58" y="99" text-anchor="middle" fill="#fff" font-family="system-ui" font-size="10" font-weight="600">Chats (3)</text>
    <text x="140" y="99" text-anchor="middle" fill="#374151" font-family="system-ui" font-size="10">Connect</text>
    <text x="220" y="99" text-anchor="middle" fill="#374151" font-family="system-ui" font-size="10">Find</text>

    <!-- Conversation List -->
    <rect x="16" y="118" width="248" height="50" rx="4" fill="#f5f0e6" stroke="#8b5cf6" stroke-width="2"/>
    <circle cx="40" cy="143" r="14" fill="#dcc8a8"/>
    <text x="40" y="147" text-anchor="middle" fill="#374151" font-family="system-ui" font-size="9" font-weight="600">JD</text>
    <text x="62" y="137" fill="#1a1a2e" font-family="system-ui" font-size="11" font-weight="600">Jane Doe</text>
    <text x="62" y="151" fill="#374151" font-family="system-ui" font-size="9">Hey! Are you coming...</text>
    <circle cx="248" cy="143" r="4" fill="#8b5cf6"/>

    <rect x="16" y="174" width="248" height="50" rx="4" fill="#f5f0e6" stroke="#8b5cf6" stroke-width="2"/>
    <circle cx="40" cy="199" r="14" fill="#dcc8a8"/>
    <text x="40" y="203" text-anchor="middle" fill="#374151" font-family="system-ui" font-size="9" font-weight="600">MS</text>
    <text x="62" y="193" fill="#1a1a2e" font-family="system-ui" font-size="11" font-weight="600">Mike Smith</text>
    <text x="62" y="207" fill="#374151" font-family="system-ui" font-size="9">Thanks for the update!</text>
    <circle cx="248" cy="199" r="4" fill="#8b5cf6"/>

    <rect x="16" y="230" width="248" height="50" rx="4" fill="#e8d4b8" stroke="#b8a080" stroke-width="1"/>
    <circle cx="40" cy="255" r="14" fill="#dcc8a8"/>
    <text x="40" y="259" text-anchor="middle" fill="#374151" font-family="system-ui" font-size="9" font-weight="600">AS</text>
    <text x="62" y="249" fill="#2d3748" font-family="system-ui" font-size="11">Alex Smith</text>
    <text x="62" y="263" fill="#374151" font-family="system-ui" font-size="9">Sounds good, let me...</text>

    <!-- Tap indicator -->
    <circle cx="140" cy="143" r="20" fill="none" stroke="#d946ef" stroke-width="2" stroke-dasharray="4,2"/>
    <text x="140" y="148" text-anchor="middle" fill="#d946ef" font-family="system-ui" font-size="10" font-weight="600">TAP</text>

    <!-- Bottom nav -->
    <rect x="8" y="500" width="264" height="42" rx="14" fill="#dcc8a8"/>
    <text x="140" y="526" text-anchor="middle" fill="#374151" font-family="system-ui" font-size="9">Home   Search   Messages   Profile</text>
  </g>

  <!-- Arrow 1 -->
  <g transform="translate(340, 280)">
    <polygon points="0,20 30,0 30,15 80,15 80,25 30,25 30,40" class="flow-arrow"/>
    <text x="40" y="60" text-anchor="middle" class="annotation">tap row</text>
  </g>

  <!-- STATE 2: Chat Open (Full Screen) -->
  <text x="510" y="52" class="label-mobile">STATE 2: CHAT OPEN</text>
  <g id="state-2" transform="translate(430, 60)">
    <!-- Phone frame -->
    <rect x="0" y="0" width="280" height="550" rx="20" fill="#c8b898" stroke="#a08860" stroke-width="2"/>
    <!-- Screen area -->
    <rect x="8" y="8" width="264" height="534" rx="14" fill="#e8d4b8"/>
    <!-- Status bar -->
    <rect x="8" y="8" width="264" height="24" rx="14" fill="#dcc8a8"/>
    <text x="24" y="24" fill="#374151" font-family="system-ui" font-size="10">9:41</text>

    <!-- Chat Header with Back Button -->
    <rect x="8" y="32" width="264" height="48" fill="#dcc8a8"/>
    <!-- Back arrow -->
    <rect x="16" y="46" width="32" height="24" rx="4" fill="#8b5cf6"/>
    <text x="32" y="62" text-anchor="middle" fill="#fff" font-family="system-ui" font-size="12">←</text>
    <!-- User info -->
    <circle cx="68" cy="56" r="16" fill="#e8d4b8"/>
    <text x="68" y="60" text-anchor="middle" fill="#374151" font-family="system-ui" font-size="10" font-weight="600">JD</text>
    <text x="95" y="52" fill="#1a1a2e" font-family="system-ui" font-size="12" font-weight="600">Jane Doe</text>
    <text x="95" y="66" fill="#22c55e" font-family="system-ui" font-size="9">● Online</text>

    <!-- Chat Messages -->
    <rect x="16" y="95" width="180" height="36" rx="10" fill="#f5f0e6"/>
    <text x="26" y="110" fill="#2d3748" font-family="system-ui" font-size="10">Hey! Are you coming to the</text>
    <text x="26" y="122" fill="#2d3748" font-family="system-ui" font-size="10">meetup this weekend?</text>

    <rect x="100" y="145" width="156" height="28" rx="10" fill="#8b5cf6"/>
    <text x="112" y="164" fill="#fff" font-family="system-ui" font-size="10">I'll be there! 🎉</text>

    <rect x="16" y="187" width="140" height="28" rx="10" fill="#f5f0e6"/>
    <text x="26" y="206" fill="#2d3748" font-family="system-ui" font-size="10">Awesome, see you at 6!</text>

    <!-- Message Input -->
    <rect x="16" y="490" width="200" height="36" rx="8" fill="#f5f0e6" stroke="#b8a080" stroke-width="1"/>
    <text x="28" y="513" fill="#4b5563" font-family="system-ui" font-size="10">Type a message...</text>
    <rect x="222" y="492" width="48" height="32" rx="6" fill="#8b5cf6"/>
    <text x="246" y="513" text-anchor="middle" fill="#fff" font-family="system-ui" font-size="10" font-weight="600">Send</text>

    <!-- Tap back indicator -->
    <circle cx="32" cy="58" r="22" fill="none" stroke="#d946ef" stroke-width="2" stroke-dasharray="4,2"/>
    <text x="32" y="93" text-anchor="middle" fill="#d946ef" font-family="system-ui" font-size="9" font-weight="600">BACK</text>
  </g>

  <!-- Arrow 2 -->
  <g transform="translate(730, 280)">
    <polygon points="0,20 30,0 30,15 80,15 80,25 30,25 30,40" class="flow-arrow"/>
    <text x="40" y="60" text-anchor="middle" class="annotation">tap back</text>
  </g>

  <!-- STATE 3: Drawer Reopens -->
  <text x="900" y="52" class="label-mobile">STATE 3: RETURNS</text>
  <g id="state-3" transform="translate(820, 60)">
    <!-- Phone frame -->
    <rect x="0" y="0" width="280" height="550" rx="20" fill="#c8b898" stroke="#a08860" stroke-width="2"/>
    <!-- Screen area -->
    <rect x="8" y="8" width="264" height="534" rx="14" fill="#e8d4b8"/>
    <!-- Status bar -->
    <rect x="8" y="8" width="264" height="24" rx="14" fill="#dcc8a8"/>
    <text x="24" y="24" fill="#374151" font-family="system-ui" font-size="10">9:41</text>

    <!-- Header -->
    <rect x="8" y="32" width="264" height="40" fill="#dcc8a8"/>
    <text x="140" y="58" text-anchor="middle" class="heading">Messages</text>

    <!-- Tab Bar -->
    <rect x="16" y="78" width="248" height="32" rx="4" fill="#f5f0e6" stroke="#b8a080" stroke-width="1"/>
    <rect x="20" y="82" width="76" height="24" rx="3" fill="#8b5cf6"/>
    <text x="58" y="99" text-anchor="middle" fill="#fff" font-family="system-ui" font-size="10" font-weight="600">Chats (2)</text>
    <text x="140" y="99" text-anchor="middle" fill="#374151" font-family="system-ui" font-size="10">Connect</text>
    <text x="220" y="99" text-anchor="middle" fill="#374151" font-family="system-ui" font-size="10">Find</text>

    <!-- Updated Conversation List - Jane now read -->
    <rect x="16" y="118" width="248" height="50" rx="4" fill="#e8d4b8" stroke="#b8a080" stroke-width="1"/>
    <circle cx="40" cy="143" r="14" fill="#dcc8a8"/>
    <text x="40" y="147" text-anchor="middle" fill="#374151" font-family="system-ui" font-size="9" font-weight="600">JD</text>
    <text x="62" y="137" fill="#2d3748" font-family="system-ui" font-size="11">Jane Doe</text>
    <text x="62" y="151" fill="#374151" font-family="system-ui" font-size="9">Awesome, see you at 6!</text>
    <!-- No unread dot -->

    <rect x="16" y="174" width="248" height="50" rx="4" fill="#f5f0e6" stroke="#8b5cf6" stroke-width="2"/>
    <circle cx="40" cy="199" r="14" fill="#dcc8a8"/>
    <text x="40" y="203" text-anchor="middle" fill="#374151" font-family="system-ui" font-size="9" font-weight="600">MS</text>
    <text x="62" y="193" fill="#1a1a2e" font-family="system-ui" font-size="11" font-weight="600">Mike Smith</text>
    <text x="62" y="207" fill="#374151" font-family="system-ui" font-size="9">Thanks for the update!</text>
    <circle cx="248" cy="199" r="4" fill="#8b5cf6"/>

    <rect x="16" y="230" width="248" height="50" rx="4" fill="#e8d4b8" stroke="#b8a080" stroke-width="1"/>
    <circle cx="40" cy="255" r="14" fill="#dcc8a8"/>
    <text x="40" y="259" text-anchor="middle" fill="#374151" font-family="system-ui" font-size="9" font-weight="600">AS</text>
    <text x="62" y="249" fill="#2d3748" font-family="system-ui" font-size="11">Alex Smith</text>
    <text x="62" y="263" fill="#374151" font-family="system-ui" font-size="9">Sounds good, let me...</text>

    <!-- Scroll position preserved indicator -->
    <rect x="16" y="290" width="248" height="20" rx="4" fill="#dcc8a8" stroke="#8b5cf6" stroke-width="1" stroke-dasharray="4,2"/>
    <text x="140" y="304" text-anchor="middle" class="annotation">scroll preserved</text>

    <!-- Bottom nav -->
    <rect x="8" y="500" width="264" height="42" rx="14" fill="#dcc8a8"/>
    <text x="140" y="526" text-anchor="middle" fill="#374151" font-family="system-ui" font-size="9">Home   Search   Messages   Profile</text>
  </g>

  <!-- Return Arrow (curved) -->
  <g transform="translate(950, 620)">
    <path d="M 150,10 Q 200,-30 250,10 L 250,20 Q 200,-15 160,20 Z" fill="#8b5cf6"/>
    <text x="200" y="45" text-anchor="middle" class="annotation">cycle continues</text>
  </g>

  <!-- Annotations Panel -->
  <g id="annotations" transform="translate(1140, 60)">
    <rect x="0" y="0" width="220" height="280" rx="8" fill="#e8d4b8" stroke="#8b5cf6" stroke-width="2"/>

    <text x="110" y="30" text-anchor="middle" class="heading">User Story 3</text>
    <text x="110" y="50" text-anchor="middle" class="text-muted">Mobile Drawer Pattern</text>

    <line x1="20" y1="65" x2="200" y2="65" stroke="#b8a080" stroke-width="1"/>

    <text x="20" y="90" class="annotation">FR-006</text>
    <text x="20" y="108" class="text-sm">Drawer on mobile &lt;768px</text>

    <text x="20" y="135" class="annotation">FR-007</text>
    <text x="20" y="153" class="text-sm">44px min touch targets</text>

    <text x="20" y="180" class="annotation">FR-008</text>
    <text x="20" y="198" class="text-sm">Back nav from chat</text>

    <text x="20" y="225" class="annotation">FR-010</text>
    <text x="20" y="243" class="text-sm">Scroll position preserved</text>

    <text x="20" y="270" class="annotation">NFR-003</text>
    <text x="20" y="288" class="text-sm">Focus managed on open/close</text>
  </g>

  <!-- Responsive Breakpoint Note -->
  <g id="breakpoint-note" transform="translate(1140, 360)">
    <rect x="0" y="0" width="220" height="100" rx="8" fill="#f5f0e6" stroke="#eab308" stroke-width="2"/>
    <text x="110" y="28" text-anchor="middle" class="heading">⚠️ Breakpoint</text>
    <text x="20" y="52" class="text-sm">768px triggers layout</text>
    <text x="20" y="70" class="text-sm">switch between drawer</text>
    <text x="20" y="88" class="text-sm">and side-by-side views</text>
  </g>

  <!-- Edge Case Note -->
  <g id="edge-case" transform="translate(1140, 480)">
    <rect x="0" y="0" width="220" height="80" rx="8" fill="#f5f0e6" stroke="#b8a080" stroke-width="1"/>
    <text x="110" y="25" text-anchor="middle" class="annotation">Edge Case</text>
    <text x="20" y="48" class="text-sm">If drawer open when</text>
    <text x="20" y="66" class="text-sm">viewport resizes → desktop:</text>
    <text x="20" y="84" class="text-muted">graceful transition</text>
  </g>
</svg>
