<svg xmlns="http://www.w3.org/2000/svg" viewBox="0 0 1600 1000" width="1600" height="1000">
  <!-- ============================================================
       GENERATED BY: /wireframe skill
       SOURCE: features/foundation/000-rls-implementation/spec.md
       DATE: 2026-01-03
       THEME: Dark (Backend/Architecture)
       DO NOT MANUALLY EDIT - Regenerate with /wireframe command
       ============================================================ -->
  <defs>
    <linearGradient id="bgGrad" x1="0%" y1="0%" x2="100%" y2="100%">
      <stop offset="0%" style="stop-color:#0f172a"/>
      <stop offset="100%" style="stop-color:#1e293b"/>
    </linearGradient>
    <linearGradient id="accentGrad" x1="0%" y1="0%" x2="100%" y2="0%">
      <stop offset="0%" style="stop-color:#8b5cf6"/>
      <stop offset="100%" style="stop-color:#d946ef"/>
    </linearGradient>
    <!-- Deny stripes pattern -->
    <pattern id="deny-stripes" width="4" height="4" patternUnits="userSpaceOnUse" patternTransform="rotate(45)">
      <line x1="0" y1="0" x2="0" y2="4" stroke="#fff" stroke-width="1" opacity="0.3"/>
    </pattern>
    <style>
      /* Typography - Dark Theme AAA compliant */
      .heading-lg { fill: #ffffff; font-family: system-ui, sans-serif; font-size: 28px; font-weight: bold; }
      .heading { fill: #ffffff; font-family: system-ui, sans-serif; font-size: 20px; font-weight: bold; }
      .heading-sm { fill: #ffffff; font-family: system-ui, sans-serif; font-size: 16px; font-weight: bold; }
      .text-md { fill: #cbd5e1; font-family: system-ui, sans-serif; font-size: 16px; }
      .text-sm { fill: #94a3b8; font-family: system-ui, sans-serif; font-size: 14px; }
      .text-muted { fill: #b4bcc8; font-family: system-ui, sans-serif; font-size: 13px; }
      .annotation { fill: #c4b5fd; font-family: monospace; font-size: 14px; font-weight: bold; }
      /* Layout labels */
      .label-section { fill: #8b5cf6; font-family: monospace; font-size: 13px; font-weight: bold; letter-spacing: 1px; }
      /* Requirements Legend styles */
      .legend-header { fill: #c4b5fd; font-family: monospace; font-size: 14px; font-weight: bold; }
      .legend-code { fill: #8b5cf6; font-family: monospace; font-size: 12px; font-weight: bold; }
      .legend-text { fill: #94a3b8; font-family: system-ui, sans-serif; font-size: 12px; }
      /* FR/SC tag styling */
      .fr-tag { fill: #2563eb; font-family: monospace; font-size: 13px; font-weight: bold; }
      .sc-tag { fill: #ea580c; font-family: monospace; font-size: 13px; font-weight: bold; }
      /* Badge text colors (colorblind-friendly) */
      .badge-text-on-blue { fill: #1e3a5f; font-weight: bold; font-size: 11px; }
      .badge-text-on-darkred { fill: #ffffff; font-weight: bold; font-size: 11px; }
      .badge-text-on-yellow { fill: #451a03; font-weight: bold; font-size: 11px; }
      .badge-text-on-purple { fill: #1e1b4b; font-weight: bold; font-size: 11px; }
      .badge-text-on-magenta { fill: #4a044e; font-weight: bold; font-size: 11px; }
      /* Role card styles */
      .role-anon { fill: #374151; }
      .role-auth { fill: #1e3a5f; }
      .role-service { fill: #4a044e; }
    </style>
  </defs>

  <!-- Background -->
  <rect width="1600" height="1000" fill="url(#bgGrad)"/>

  <!-- Dot grid pattern -->
  <g opacity="0.05">
    <pattern id="dots" width="30" height="30" patternUnits="userSpaceOnUse">
      <circle cx="15" cy="15" r="1" fill="#fff"/>
    </pattern>
    <rect width="1600" height="1000" fill="url(#dots)"/>
  </g>

  <!-- Accent line top -->
  <rect x="0" y="0" width="1600" height="3" fill="url(#accentGrad)"/>

  <!-- Title -->
  <text x="800" y="32" text-anchor="middle" font-family="system-ui, sans-serif" font-size="20" font-weight="700" fill="#8494a8" letter-spacing="2">RLS ARCHITECTURE OVERVIEW</text>

  <!-- ================= SECTION 1: SECURITY ROLES (x=40, y=60, w=360, h=340) ================= -->
  <g id="security-roles" transform="translate(40, 60)">
    <text x="0" y="0" class="label-section">SECURITY ROLES</text>

    <!-- ANONYMOUS Role Card -->
    <g transform="translate(0, 20)">
      <rect width="360" height="95" rx="6" fill="#374151" stroke="#475569" stroke-width="1"/>
      <rect x="10" y="10" width="90" height="24" rx="12" fill="#475569"/>
      <text x="55" y="26" text-anchor="middle" class="text-sm" fill="#94a3b8">ANONYMOUS</text>
      <text x="10" y="52" class="text-sm">Read-only access to public content</text>
      <text x="10" y="72" class="text-muted">• No write operations</text>
      <text x="10" y="88" class="text-muted">• Cannot enumerate users</text>
    </g>

    <!-- AUTHENTICATED Role Card -->
    <g transform="translate(0, 125)">
      <rect width="360" height="95" rx="6" fill="#1e3a5f" stroke="#2563eb" stroke-width="1"/>
      <rect x="10" y="10" width="120" height="24" rx="12" fill="#2563eb"/>
      <text x="70" y="26" text-anchor="middle" class="badge-text-on-blue">AUTHENTICATED</text>
      <text x="10" y="52" class="text-sm">Owner isolation - own data only</text>
      <text x="10" y="72" class="text-muted">• SELECT/UPDATE own records</text>
      <text x="10" y="88" class="text-muted">• Empty results for others' data</text>
    </g>

    <!-- SERVICE_ROLE Card -->
    <g transform="translate(0, 230)">
      <rect width="360" height="95" rx="6" fill="#4a044e" stroke="#c026d3" stroke-width="1"/>
      <rect x="10" y="10" width="110" height="24" rx="12" fill="#c026d3"/>
      <text x="65" y="26" text-anchor="middle" class="badge-text-on-magenta">SERVICE_ROLE</text>
      <text x="10" y="52" class="text-sm">Backend bypass with audit logging</text>
      <text x="10" y="72" class="text-muted">• Full access for system ops</text>
      <text x="10" y="88" class="text-muted">• All actions logged</text>
    </g>
  </g>

  <!-- ================= SECTION 2: RLS EVALUATION FLOW (x=420, y=60, w=580, h=380) ================= -->
  <g id="rls-flow" transform="translate(420, 60)">
    <text x="0" y="0" class="label-section">RLS EVALUATION FLOW</text>

    <!-- Flow diagram background -->
    <rect x="0" y="20" width="580" height="360" rx="6" fill="#1e293b" stroke="#475569" stroke-width="1"/>

    <!-- Step 1: Incoming Query -->
    <rect x="20" y="40" width="160" height="50" rx="6" fill="#334155" stroke="#8b5cf6" stroke-width="2"/>
    <text x="100" y="72" text-anchor="middle" class="heading-sm">Incoming Query</text>

    <!-- Arrow 1 -->
    <line x1="180" y1="65" x2="210" y2="65" stroke="#8b5cf6" stroke-width="2"/>
    <polygon points="210,60 220,65 210,70" fill="#8b5cf6"/>

    <!-- Step 2: Role Identification -->
    <rect x="220" y="40" width="160" height="50" rx="6" fill="#334155" stroke="#8b5cf6" stroke-width="2"/>
    <text x="300" y="72" text-anchor="middle" class="heading-sm">Identify Role</text>

    <!-- Arrow 2 -->
    <line x1="380" y1="65" x2="410" y2="65" stroke="#8b5cf6" stroke-width="2"/>
    <polygon points="410,60 420,65 410,70" fill="#8b5cf6"/>

    <!-- Step 3: Policy Application -->
    <rect x="420" y="40" width="140" height="50" rx="6" fill="#334155" stroke="#d946ef" stroke-width="2"/>
    <text x="490" y="72" text-anchor="middle" class="heading-sm">Apply Policies</text>

    <!-- Decision Diamond -->
    <polygon points="300,130 350,165 300,200 250,165" fill="#334155" stroke="#eab308" stroke-width="2"/>
    <text x="300" y="170" text-anchor="middle" class="text-sm" fill="#eab308">Policy</text>

    <!-- Arrow to diamond -->
    <line x1="300" y1="90" x2="300" y2="130" stroke="#8b5cf6" stroke-width="2"/>
    <polygon points="295,130 300,140 305,130" fill="#8b5cf6"/>

    <!-- Allow path (right) -->
    <line x1="350" y1="165" x2="440" y2="165" stroke="#2563eb" stroke-width="2"/>
    <rect x="440" y="145" width="120" height="40" rx="6" fill="#2563eb"/>
    <text x="500" y="170" text-anchor="middle" class="badge-text-on-blue" font-size="14">✓ ALLOW</text>

    <!-- Deny path (left) -->
    <line x1="250" y1="165" x2="160" y2="165" stroke="#991b1b" stroke-width="2"/>
    <rect x="40" y="145" width="120" height="40" rx="6" fill="#991b1b"/>
    <rect x="40" y="145" width="120" height="40" rx="6" fill="url(#deny-stripes)"/>
    <text x="100" y="170" text-anchor="middle" class="badge-text-on-darkred" font-size="14">✗ DENY</text>

    <!-- Conditional path (down) -->
    <line x1="300" y1="200" x2="300" y2="240" stroke="#eab308" stroke-width="2"/>
    <rect x="220" y="240" width="160" height="40" rx="6" fill="#eab308" stroke="#854d0e" stroke-width="2" stroke-dasharray="4,2"/>
    <text x="300" y="265" text-anchor="middle" class="badge-text-on-yellow" font-size="14">? CONDITIONAL</text>

    <!-- Policy check descriptions -->
    <text x="20" y="220" class="text-muted">Empty result</text>
    <text x="20" y="236" class="text-muted">(not error)</text>
    <text x="440" y="210" class="text-muted">Data returned</text>
    <text x="220" y="300" class="text-muted">Depends on user_id match</text>

    <!-- Key constraints box -->
    <rect x="20" y="310" width="540" height="55" rx="4" fill="#334155"/>
    <text x="30" y="330" class="text-sm" fill="#94a3b8">Key Constraints:</text>
    <text x="30" y="350" class="text-muted">• Most restrictive policy wins • Explicit denials cannot be overridden • &lt;10ms overhead (SC-004)</text>
  </g>

  <!-- ================= SECTION 3: PROTECTED TABLES (x=1020, y=60, w=540, h=340) ================= -->
  <g id="protected-tables" transform="translate(1020, 60)">
    <text x="0" y="0" class="label-section">PROTECTED TABLES</text>

    <!-- users table -->
    <g transform="translate(0, 20)">
      <rect width="260" height="75" rx="6" fill="#1e293b" stroke="#475569" stroke-width="1"/>
      <rect x="10" y="10" width="60" height="20" rx="4" fill="#2563eb"/>
      <text x="40" y="24" text-anchor="middle" class="badge-text-on-blue">users</text>
      <text x="10" y="48" class="text-muted">Auth records (id, email)</text>
      <text x="10" y="65" class="fr-tag">FR-001</text>
      <text x="60" y="65" class="text-muted">Owner SELECT only</text>
    </g>

    <!-- profiles table -->
    <g transform="translate(270, 20)">
      <rect width="260" height="75" rx="6" fill="#1e293b" stroke="#475569" stroke-width="1"/>
      <rect x="10" y="10" width="70" height="20" rx="4" fill="#2563eb"/>
      <text x="45" y="24" text-anchor="middle" class="badge-text-on-blue">profiles</text>
      <text x="10" y="48" class="text-muted">User-customizable info</text>
      <text x="10" y="65" class="fr-tag">FR-002</text>
      <text x="60" y="65" class="text-muted">Owner SELECT/UPDATE</text>
    </g>

    <!-- sessions table -->
    <g transform="translate(0, 105)">
      <rect width="260" height="75" rx="6" fill="#1e293b" stroke="#475569" stroke-width="1"/>
      <rect x="10" y="10" width="75" height="20" rx="4" fill="#7c3aed"/>
      <text x="47" y="24" text-anchor="middle" class="badge-text-on-purple">sessions</text>
      <text x="10" y="48" class="text-muted">Active tokens + expiration</text>
      <text x="10" y="65" class="fr-tag">FR-003</text>
      <text x="60" y="65" class="text-muted">Owner SELECT, system-managed</text>
    </g>

    <!-- audit_logs table -->
    <g transform="translate(270, 105)">
      <rect width="260" height="75" rx="6" fill="#1e293b" stroke="#991b1b" stroke-width="2"/>
      <rect x="10" y="10" width="85" height="20" rx="4" fill="#991b1b"/>
      <text x="52" y="24" text-anchor="middle" class="badge-text-on-darkred">audit_logs</text>
      <text x="10" y="48" class="text-muted">Immutable security events</text>
      <text x="10" y="65" class="fr-tag">FR-004</text>
      <text x="60" y="65" class="text-muted">INSERT only, no UPDATE/DELETE</text>
    </g>

    <!-- Access Matrix -->
    <g transform="translate(0, 195)">
      <text x="0" y="0" class="text-sm" fill="#94a3b8">Access Matrix</text>
      <rect x="0" y="10" width="530" height="130" rx="4" fill="#334155"/>

      <!-- Header row -->
      <text x="100" y="35" text-anchor="middle" class="text-muted">ANON</text>
      <text x="200" y="35" text-anchor="middle" class="text-muted">AUTH</text>
      <text x="300" y="35" text-anchor="middle" class="text-muted">SERVICE</text>
      <text x="420" y="35" text-anchor="middle" class="text-muted">Notes</text>

      <!-- users row -->
      <text x="15" y="58" class="text-sm">users</text>
      <rect x="85" y="45" width="30" height="18" rx="3" fill="#991b1b"/><text x="100" y="58" text-anchor="middle" class="badge-text-on-darkred">✗</text>
      <rect x="185" y="45" width="30" height="18" rx="3" fill="#2563eb"/><text x="200" y="58" text-anchor="middle" class="badge-text-on-blue">✓</text>
      <rect x="285" y="45" width="30" height="18" rx="3" fill="#c026d3"/><text x="300" y="58" text-anchor="middle" class="badge-text-on-magenta">⚙</text>
      <text x="350" y="58" class="text-muted">Own record only</text>

      <!-- profiles row -->
      <text x="15" y="80" class="text-sm">profiles</text>
      <rect x="85" y="67" width="30" height="18" rx="3" fill="#991b1b"/><text x="100" y="80" text-anchor="middle" class="badge-text-on-darkred">✗</text>
      <rect x="185" y="67" width="30" height="18" rx="3" fill="#2563eb"/><text x="200" y="80" text-anchor="middle" class="badge-text-on-blue">✓</text>
      <rect x="285" y="67" width="30" height="18" rx="3" fill="#c026d3"/><text x="300" y="80" text-anchor="middle" class="badge-text-on-magenta">⚙</text>
      <text x="350" y="80" class="text-muted">SELECT/UPDATE own</text>

      <!-- sessions row -->
      <text x="15" y="102" class="text-sm">sessions</text>
      <rect x="85" y="89" width="30" height="18" rx="3" fill="#991b1b"/><text x="100" y="102" text-anchor="middle" class="badge-text-on-darkred">✗</text>
      <rect x="185" y="89" width="30" height="18" rx="3" fill="#eab308"/><text x="200" y="102" text-anchor="middle" class="badge-text-on-yellow">?</text>
      <rect x="285" y="89" width="30" height="18" rx="3" fill="#c026d3"/><text x="300" y="102" text-anchor="middle" class="badge-text-on-magenta">⚙</text>
      <text x="350" y="102" class="text-muted">System-managed lifecycle</text>

      <!-- audit_logs row -->
      <text x="15" y="124" class="text-sm">audit_logs</text>
      <rect x="85" y="111" width="30" height="18" rx="3" fill="#991b1b"/><text x="100" y="124" text-anchor="middle" class="badge-text-on-darkred">✗</text>
      <rect x="185" y="111" width="30" height="18" rx="3" fill="#eab308"/><text x="200" y="124" text-anchor="middle" class="badge-text-on-yellow">?</text>
      <rect x="285" y="111" width="30" height="18" rx="3" fill="#c026d3"/><text x="300" y="124" text-anchor="middle" class="badge-text-on-magenta">⚙</text>
      <text x="350" y="124" class="text-muted">SELECT own, INSERT service</text>
    </g>
  </g>

  <!-- ================= SECTION 4: FR CATEGORIES (x=40, y=420, w=360, h=260) ================= -->
  <g id="fr-categories" transform="translate(40, 420)">
    <text x="0" y="0" class="label-section">FUNCTIONAL REQUIREMENTS</text>

    <rect x="0" y="15" width="360" height="245" rx="6" fill="#1e293b" stroke="#475569" stroke-width="1"/>

    <!-- Category rows -->
    <g transform="translate(10, 30)">
      <rect x="0" y="0" width="340" height="35" rx="4" fill="#334155"/>
      <text x="10" y="23" class="fr-tag">FR-001-005</text>
      <text x="100" y="23" class="text-sm">Core Table Security</text>
    </g>

    <g transform="translate(10, 70)">
      <rect x="0" y="0" width="340" height="35" rx="4" fill="#334155"/>
      <text x="10" y="23" class="fr-tag">FR-006-010</text>
      <text x="100" y="23" class="text-sm">User Data Isolation</text>
    </g>

    <g transform="translate(10, 110)">
      <rect x="0" y="0" width="340" height="35" rx="4" fill="#334155"/>
      <text x="10" y="23" class="fr-tag">FR-011-014</text>
      <text x="100" y="23" class="text-sm">Service Role Access</text>
    </g>

    <g transform="translate(10, 150)">
      <rect x="0" y="0" width="340" height="35" rx="4" fill="#334155"/>
      <text x="10" y="23" class="fr-tag">FR-015-018</text>
      <text x="100" y="23" class="text-sm">Audit Trail Protection</text>
    </g>

    <g transform="translate(10, 190)">
      <rect x="0" y="0" width="340" height="35" rx="4" fill="#334155"/>
      <text x="10" y="23" class="fr-tag">FR-019-021</text>
      <text x="100" y="23" class="text-sm">Anonymous Access</text>
    </g>

    <g transform="translate(10, 230)">
      <rect x="0" y="0" width="340" height="22" rx="4" fill="#334155"/>
      <text x="10" y="16" class="fr-tag">FR-022-025</text>
      <text x="100" y="16" class="text-sm">Standard Patterns (Templates)</text>
    </g>
  </g>

  <!-- ================= SECTION 5: POLICY PATTERNS (x=420, y=460, w=580, h=220) ================= -->
  <g id="policy-patterns" transform="translate(420, 460)">
    <text x="0" y="0" class="label-section">STANDARD POLICY PATTERNS</text>

    <rect x="0" y="15" width="580" height="205" rx="6" fill="#1e293b" stroke="#475569" stroke-width="1"/>

    <!-- Pattern 1: Owner Isolation -->
    <g transform="translate(10, 30)">
      <rect x="0" y="0" width="275" height="80" rx="4" fill="#334155" stroke="#2563eb" stroke-width="1"/>
      <text x="10" y="20" class="heading-sm">Owner Isolation</text>
      <text x="10" y="40" class="fr-tag">FR-022</text>
      <text x="10" y="58" class="text-muted">auth.uid() = user_id</text>
      <text x="10" y="73" class="text-muted">SELECT/UPDATE own data only</text>
    </g>

    <!-- Pattern 2: Service Bypass -->
    <g transform="translate(295, 30)">
      <rect x="0" y="0" width="275" height="80" rx="4" fill="#334155" stroke="#c026d3" stroke-width="1"/>
      <text x="10" y="20" class="heading-sm">Service Bypass</text>
      <text x="10" y="40" class="fr-tag">FR-023</text>
      <text x="10" y="58" class="text-muted">auth.role() = 'service_role'</text>
      <text x="10" y="73" class="text-muted">Full access, logged operations</text>
    </g>

    <!-- Pattern 3: Soft Delete -->
    <g transform="translate(10, 120)">
      <rect x="0" y="0" width="275" height="80" rx="4" fill="#334155" stroke="#eab308" stroke-width="1" stroke-dasharray="4,2"/>
      <text x="10" y="20" class="heading-sm">Soft Delete</text>
      <text x="10" y="40" class="fr-tag">FR-024</text>
      <text x="10" y="58" class="text-muted">deleted_at IS NULL</text>
      <text x="10" y="73" class="text-muted">Deny DELETE, use status flag</text>
    </g>

    <!-- Pattern 4: Immutable Audit -->
    <g transform="translate(295, 120)">
      <rect x="0" y="0" width="275" height="80" rx="4" fill="#334155" stroke="#991b1b" stroke-width="1"/>
      <text x="10" y="20" class="heading-sm">Immutable Audit</text>
      <text x="10" y="40" class="fr-tag">FR-025</text>
      <text x="10" y="58" class="text-muted">INSERT only (service_role)</text>
      <text x="10" y="73" class="text-muted">No UPDATE/DELETE permitted</text>
    </g>
  </g>

  <!-- ================= SECTION 6: SUCCESS CRITERIA (x=1020, y=420, w=540, h=260) ================= -->
  <g id="success-criteria" transform="translate(1020, 420)">
    <text x="0" y="0" class="label-section">SUCCESS CRITERIA</text>

    <rect x="0" y="15" width="540" height="245" rx="6" fill="#1e293b" stroke="#475569" stroke-width="1"/>

    <!-- SC items in 2 columns -->
    <g transform="translate(10, 30)">
      <!-- Column 1 -->
      <g>
        <text x="0" y="0" class="sc-tag">SC-001</text>
        <text x="55" y="0" class="text-sm">All 4 tables RLS enabled</text>

        <text x="0" y="25" class="sc-tag">SC-002</text>
        <text x="55" y="25" class="text-sm">100% user data isolation</text>

        <text x="0" y="50" class="sc-tag">SC-003</text>
        <text x="55" y="50" class="text-sm">Service ops work for all cases</text>

        <text x="0" y="75" class="sc-tag">SC-004</text>
        <text x="55" y="75" class="text-sm">&lt;10ms policy overhead</text>
      </g>

      <!-- Column 2 -->
      <g transform="translate(270, 0)">
        <text x="0" y="0" class="sc-tag">SC-005</text>
        <text x="55" y="0" class="text-sm">100% test coverage</text>

        <text x="0" y="25" class="sc-tag">SC-006</text>
        <text x="55" y="25" class="text-sm">Security review approved</text>

        <text x="0" y="50" class="sc-tag">SC-007</text>
        <text x="55" y="50" class="text-sm">Audit log integrity</text>

        <text x="0" y="75" class="sc-tag">SC-008</text>
        <text x="55" y="75" class="text-sm">Zero user enumeration</text>
      </g>
    </g>

    <!-- Compliance badges -->
    <g transform="translate(10, 145)">
      <text x="0" y="0" class="text-sm" fill="#94a3b8">Compliance Frameworks:</text>

      <rect x="0" y="15" width="250" height="50" rx="4" fill="#334155"/>
      <rect x="10" y="25" width="100" height="30" rx="4" fill="#2563eb"/>
      <text x="60" y="45" text-anchor="middle" class="badge-text-on-blue" font-size="12">GDPR</text>
      <text x="120" y="45" class="text-muted">EU Data Protection</text>

      <rect x="260" y="15" width="260" height="50" rx="4" fill="#334155"/>
      <rect x="270" y="25" width="100" height="30" rx="4" fill="#7c3aed"/>
      <text x="320" y="45" text-anchor="middle" class="badge-text-on-purple" font-size="12">SOC 2</text>
      <text x="380" y="45" class="text-muted">Security Controls</text>
    </g>

    <!-- Scale note -->
    <g transform="translate(10, 210)">
      <text x="0" y="0" class="text-muted">Scale: 1K-10K users, &lt;1M rows/table • Target: 99.9% uptime</text>
    </g>
  </g>

  <!-- ================= REQUIREMENTS KEY (y=700) ================= -->
  <g id="requirements-legend" transform="translate(40, 700)">
    <rect width="1520" height="150" rx="6" fill="#1e293b" stroke="#475569" stroke-width="1"/>
    <text x="20" y="25" class="legend-header">REQUIREMENTS KEY</text>

    <!-- Row 1: Core + User Isolation -->
    <g transform="translate(20, 40)">
      <text x="0" y="0" class="legend-code">FR-001-005:</text>
      <text x="80" y="0" class="legend-text">MUST enable RLS on users, profiles, sessions, audit_logs, all new tables</text>

      <text x="600" y="0" class="legend-code">FR-006-010:</text>
      <text x="680" y="0" class="legend-text">MUST isolate user data (SELECT/UPDATE own only, empty results for others)</text>
    </g>

    <!-- Row 2: Service + Audit -->
    <g transform="translate(20, 65)">
      <text x="0" y="0" class="legend-code">FR-011-014:</text>
      <text x="80" y="0" class="legend-text">MUST allow service_role bypass, log all usage, minimize scope, protect credentials</text>

      <text x="600" y="0" class="legend-code">FR-015-018:</text>
      <text x="680" y="0" class="legend-text">MUST protect audit_logs (INSERT service only, no UPDATE/DELETE, owner SELECT)</text>
    </g>

    <!-- Row 3: Anon + Patterns -->
    <g transform="translate(20, 90)">
      <text x="0" y="0" class="legend-code">FR-019-021:</text>
      <text x="80" y="0" class="legend-text">MUST deny anon writes, allow public SELECT only, prevent user enumeration</text>

      <text x="600" y="0" class="legend-code">FR-022-025:</text>
      <text x="680" y="0" class="legend-text">MUST provide standard patterns: Owner Isolation, Service Bypass, Soft Delete, Immutable Audit</text>
    </g>

    <!-- Success Criteria row -->
    <g transform="translate(20, 120)">
      <text x="0" y="0" class="legend-code" fill="#ea580c">SC-001-008:</text>
      <text x="80" y="0" class="legend-text">RLS enabled • 100% isolation • Service ops work • &lt;10ms overhead • 100% test coverage • Security reviewed • Audit integrity • Zero enumeration</text>
    </g>
  </g>

  <!-- ================= RLS ACCESS LEGEND (y=870) ================= -->
  <g id="rls-legend" transform="translate(40, 870)">
    <rect width="1520" height="60" rx="6" fill="#1e293b" stroke="#475569" stroke-width="1"/>
    <text x="20" y="38" class="legend-header">RLS ACCESS LEGEND:</text>

    <!-- Allow -->
    <rect x="200" y="18" width="28" height="28" rx="4" fill="#2563eb"/>
    <text x="214" y="38" text-anchor="middle" class="badge-text-on-blue" font-size="14">✓</text>
    <text x="240" y="38" class="legend-text">Allow (Full Access)</text>

    <!-- Deny -->
    <rect x="400" y="18" width="28" height="28" rx="4" fill="#991b1b"/>
    <rect x="400" y="18" width="28" height="28" rx="4" fill="url(#deny-stripes)"/>
    <text x="414" y="38" text-anchor="middle" class="badge-text-on-darkred" font-size="14">✗</text>
    <text x="440" y="38" class="legend-text">Deny (Blocked)</text>

    <!-- Conditional -->
    <rect x="580" y="18" width="28" height="28" rx="4" fill="#eab308" stroke="#854d0e" stroke-width="2" stroke-dasharray="3,2"/>
    <text x="594" y="38" text-anchor="middle" class="badge-text-on-yellow" font-size="14">?</text>
    <text x="620" y="38" class="legend-text">Conditional (Policy-dependent)</text>

    <!-- Auth Role -->
    <rect x="840" y="18" width="28" height="28" rx="4" fill="#7c3aed"/>
    <text x="854" y="38" text-anchor="middle" font-size="12" fill="#fff">🔑</text>
    <text x="880" y="38" class="legend-text">Auth Role (Logged-in user)</text>

    <!-- Service Role -->
    <rect x="1100" y="18" width="28" height="28" rx="4" fill="#c026d3" stroke="#86198f" stroke-width="2"/>
    <text x="1114" y="38" text-anchor="middle" font-size="12" fill="#fff">⚙</text>
    <text x="1140" y="38" class="legend-text">Service Role (Backend bypass)</text>

    <!-- Anonymous -->
    <rect x="1360" y="18" width="28" height="28" rx="4" fill="#475569"/>
    <text x="1374" y="38" text-anchor="middle" font-size="12" fill="#94a3b8">○</text>
    <text x="1400" y="38" class="legend-text">Anonymous</text>
  </g>

  <!-- ================= FOOTER ================= -->
  <text x="60" y="970" text-anchor="start" class="text-muted">000:01 | RLS Architecture Overview | ScriptHammer</text>
</svg>
