<svg xmlns="http://www.w3.org/2000/svg" viewBox="0 0 1400 800" width="1400" height="800">
  <!-- ============================================================
       GENERATED BY: /wireframe skill
       SOURCE: features/foundation/000-rls-implementation/spec.md
       DATE: 2026-01-02
       THEME: Dark (Backend/Architecture)
       REGENERATED WITH FEEDBACK: features/foundation/000-rls-implementation/WIREFRAME_ISSUES.md
       PASS 11 FIXES: SERVICE_ROLE bypass arrows now continue to ALL tables (FR-011)
       DO NOT MANUALLY EDIT - Regenerate with /wireframe command
       ============================================================ -->
  <defs>
    <linearGradient id="bgGrad" x1="0%" y1="0%" x2="100%" y2="100%">
      <stop offset="0%" style="stop-color:#0f172a"/>
      <stop offset="100%" style="stop-color:#1e293b"/>
    </linearGradient>
    <linearGradient id="accentGrad" x1="0%" y1="0%" x2="100%" y2="0%">
      <stop offset="0%" style="stop-color:#8b5cf6"/>
      <stop offset="100%" style="stop-color:#d946ef"/>
    </linearGradient>
    <marker id="arrowhead" markerWidth="10" markerHeight="7" refX="9" refY="3.5" orient="auto">
      <polygon points="0 0, 10 3.5, 0 7" fill="#22c55e"/>
    </marker>
    <marker id="arrowhead-purple" markerWidth="10" markerHeight="7" refX="9" refY="3.5" orient="auto">
      <polygon points="0 0, 10 3.5, 0 7" fill="#8b5cf6"/>
    </marker>
    <marker id="arrowhead-red" markerWidth="10" markerHeight="7" refX="9" refY="3.5" orient="auto">
      <polygon points="0 0, 10 3.5, 0 7" fill="#ef4444"/>
    </marker>
    <style>
      /* Typography - MANDATORY SIZES - DO NOT REDUCE */
      .heading-lg { fill: #ffffff; font-family: system-ui, sans-serif; font-size: 24px; font-weight: bold; }
      .heading { fill: #ffffff; font-family: system-ui, sans-serif; font-size: 16px; font-weight: bold; }
      .heading-sm { fill: #ffffff; font-family: system-ui, sans-serif; font-size: 14px; font-weight: bold; }
      .text-md { fill: #cbd5e1; font-family: system-ui, sans-serif; font-size: 14px; }
      .text-sm { fill: #94a3b8; font-family: system-ui, sans-serif; font-size: 13px; }
      .text-muted { fill: #b4bcc8; font-family: system-ui, sans-serif; font-size: 12px; }
      .code { fill: #e2e8f0; font-family: monospace; font-size: 13px; }
      .annotation { fill: #c4b5fd; font-family: monospace; font-size: 12px; font-weight: bold; }
      /* Dark text on green backgrounds - WCAG AA compliant */
      .text-on-green { fill: #052e16; font-family: system-ui, sans-serif; font-weight: bold; }
      .text-on-green-sm { fill: #14532d; font-family: system-ui, sans-serif; font-size: 13px; }
    </style>
  </defs>

  <!-- Background -->
  <rect width="1400" height="800" fill="url(#bgGrad)"/>

  <!-- Dot grid pattern -->
  <g opacity="0.05">
    <pattern id="dots" width="30" height="30" patternUnits="userSpaceOnUse">
      <circle cx="15" cy="15" r="1" fill="#fff"/>
    </pattern>
    <rect width="1400" height="800" fill="url(#dots)"/>
  </g>

  <!-- Accent line top -->
  <rect x="0" y="0" width="1400" height="3" fill="url(#accentGrad)"/>

  <!-- Title -->
  <text x="700" y="32" text-anchor="middle" class="heading-lg">RLS ARCHITECTURE OVERVIEW</text>
  <text x="700" y="54" text-anchor="middle" class="text-muted">Row Level Security Foundation - Data Access Control Flow</text>

  <!-- ==================== SECTION 1: SECURITY ROLES (y=80-480) ==================== -->
  <text x="40" y="85" class="heading">SECURITY ROLES</text>
  <text x="40" y="105" class="annotation">FR-006 to FR-021</text>

  <!-- Role 1: Authenticated (DARK TEXT on green - WCAG AA) -->
  <rect x="40" y="125" width="200" height="110" rx="8" fill="#22c55e"/>
  <text x="140" y="155" text-anchor="middle" class="text-on-green" style="font-size:16px">AUTHENTICATED</text>
  <text x="140" y="180" text-anchor="middle" class="text-on-green-sm">Logged-in users</text>
  <text x="140" y="202" text-anchor="middle" class="text-on-green-sm">Access: Own data only</text>
  <text x="140" y="222" text-anchor="middle" class="text-on-green-sm">auth.uid() = user_id</text>

  <!-- Role 2: Service Role -->
  <rect x="40" y="250" width="200" height="110" rx="8" fill="#8b5cf6"/>
  <text x="140" y="280" text-anchor="middle" class="heading" fill="#ffffff">SERVICE_ROLE</text>
  <text x="140" y="305" text-anchor="middle" class="text-md" fill="#ffffff">Backend services</text>
  <text x="140" y="327" text-anchor="middle" class="text-sm" fill="#e9d5ff">Access: All data</text>
  <text x="140" y="347" text-anchor="middle" class="text-sm" fill="#e9d5ff">Bypass for operations</text>

  <!-- Role 3: Anonymous -->
  <rect x="40" y="375" width="200" height="110" rx="8" fill="#64748b"/>
  <text x="140" y="405" text-anchor="middle" class="heading" fill="#ffffff">ANON</text>
  <text x="140" y="430" text-anchor="middle" class="text-md" fill="#ffffff">Unauthenticated</text>
  <text x="140" y="452" text-anchor="middle" class="text-sm" fill="#cbd5e1">Access: Public only</text>
  <text x="140" y="472" text-anchor="middle" class="text-sm" fill="#cbd5e1">No write access</text>

  <!-- ==================== SECTION 2: RLS POLICY LAYER (y=125-485) ==================== -->
  <rect x="280" y="125" width="260" height="360" rx="8" fill="none" stroke="#8b5cf6" stroke-width="2" stroke-dasharray="8,4"/>
  <text x="410" y="155" text-anchor="middle" class="heading">RLS POLICY LAYER</text>

  <!-- Policy checks -->
  <rect x="300" y="175" width="220" height="50" rx="6" fill="#334155"/>
  <text x="410" y="205" text-anchor="middle" class="text-md">1. Validate JWT Token</text>

  <rect x="300" y="240" width="220" height="50" rx="6" fill="#334155"/>
  <text x="410" y="270" text-anchor="middle" class="text-md">2. Extract auth.uid()</text>

  <rect x="300" y="305" width="220" height="50" rx="6" fill="#334155"/>
  <text x="410" y="335" text-anchor="middle" class="text-md">3. Check auth.role()</text>

  <rect x="300" y="370" width="220" height="50" rx="6" fill="#334155"/>
  <text x="410" y="400" text-anchor="middle" class="text-md">4. Evaluate Policy</text>

  <rect x="300" y="435" width="220" height="40" rx="6" fill="#1e293b" stroke="#22c55e"/>
  <text x="410" y="462" text-anchor="middle" class="text-md" fill="#22c55e">ALLOW or DENY</text>

  <!-- Flow arrows from roles to RLS layer -->
  <line x1="240" y1="180" x2="280" y2="200" stroke="#22c55e" stroke-width="2" marker-end="url(#arrowhead)"/>
  <line x1="240" y1="305" x2="280" y2="305" stroke="#8b5cf6" stroke-width="2" stroke-dasharray="6,3" marker-end="url(#arrowhead-purple)"/>
  <line x1="240" y1="430" x2="280" y2="395" stroke="#ef4444" stroke-width="2" marker-end="url(#arrowhead-red)"/>

  <!-- ==================== SECTION 3: PROTECTED TABLES (y=80-485) ==================== -->
  <text x="580" y="85" class="heading">PROTECTED TABLES</text>
  <text x="580" y="105" class="annotation">FR-001 to FR-005</text>

  <!-- Table 1: users -->
  <rect x="580" y="125" width="240" height="80" rx="8" fill="#1e293b" stroke="#22c55e" stroke-width="2"/>
  <circle cx="800" cy="145" r="10" fill="#22c55e"/>
  <text x="600" y="155" class="heading-sm">users</text>
  <text x="600" y="177" class="code">id, email, created_at</text>
  <text x="600" y="195" class="text-sm">RLS: Owner SELECT only</text>

  <!-- Table 2: profiles -->
  <rect x="580" y="220" width="240" height="80" rx="8" fill="#1e293b" stroke="#22c55e" stroke-width="2"/>
  <circle cx="800" cy="240" r="10" fill="#22c55e"/>
  <text x="600" y="250" class="heading-sm">profiles</text>
  <text x="600" y="272" class="code">user_id, display_name, bio</text>
  <text x="600" y="290" class="text-sm">RLS: Owner SELECT/UPDATE</text>

  <!-- Table 3: sessions -->
  <rect x="580" y="315" width="240" height="80" rx="8" fill="#1e293b" stroke="#22c55e" stroke-width="2"/>
  <circle cx="800" cy="335" r="10" fill="#22c55e"/>
  <text x="600" y="345" class="heading-sm">sessions</text>
  <text x="600" y="367" class="code">user_id, token, expires_at</text>
  <text x="600" y="385" class="text-sm">RLS: Owner SELECT only</text>

  <!-- Table 4: audit_logs (special protection) -->
  <rect x="580" y="410" width="240" height="80" rx="8" fill="#1e293b" stroke="#ef4444" stroke-width="2"/>
  <circle cx="800" cy="430" r="10" fill="#ef4444"/>
  <text x="600" y="440" class="heading-sm" fill="#fca5a5">audit_logs</text>
  <text x="600" y="462" class="code">user_id, event, timestamp</text>
  <text x="600" y="480" class="text-sm" fill="#fca5a5">IMMUTABLE: No UPDATE/DELETE</text>

  <!-- Flow arrows from RLS to tables - all horizontal parallel lines -->
  <!-- Green (authenticated) - offset 5px above purple -->
  <line x1="540" y1="160" x2="570" y2="160" stroke="#22c55e" stroke-width="2" marker-end="url(#arrowhead)"/>
  <line x1="540" y1="255" x2="570" y2="255" stroke="#22c55e" stroke-width="2" marker-end="url(#arrowhead)"/>
  <line x1="540" y1="350" x2="570" y2="350" stroke="#22c55e" stroke-width="2" marker-end="url(#arrowhead)"/>
  <!-- Red (denied for audit_logs) -->
  <line x1="540" y1="445" x2="570" y2="445" stroke="#ef4444" stroke-width="2" marker-end="url(#arrowhead-red)"/>

  <!-- Purple (SERVICE_ROLE bypass) - full access to users/profiles/sessions (FR-011) -->
  <line x1="540" y1="170" x2="570" y2="170" stroke="#8b5cf6" stroke-width="2" stroke-dasharray="6,3" marker-end="url(#arrowhead-purple)"/>
  <line x1="540" y1="265" x2="570" y2="265" stroke="#8b5cf6" stroke-width="2" stroke-dasharray="6,3" marker-end="url(#arrowhead-purple)"/>
  <line x1="540" y1="360" x2="570" y2="360" stroke="#8b5cf6" stroke-width="2" stroke-dasharray="6,3" marker-end="url(#arrowhead-purple)"/>
  <!-- audit_logs: NO purple arrow - service_role can only INSERT, not UPDATE/DELETE (FR-015-017) -->

  <!-- ==================== SECTION 4: LEGEND & PRINCIPLES (y=80-485) ==================== -->
  <!-- Legend Panel -->
  <rect x="860" y="80" width="240" height="160" rx="8" fill="#1e293b" stroke="#475569"/>
  <text x="880" y="110" class="heading">LEGEND</text>

  <line x1="880" y1="135" x2="920" y2="135" stroke="#22c55e" stroke-width="3"/>
  <text x="930" y="140" class="text-md">Authenticated access</text>

  <line x1="880" y1="165" x2="920" y2="165" stroke="#8b5cf6" stroke-width="3" stroke-dasharray="6,3"/>
  <text x="930" y="170" class="text-md">Service bypass</text>

  <line x1="880" y1="195" x2="920" y2="195" stroke="#ef4444" stroke-width="3"/>
  <text x="930" y="200" class="text-md">Denied/Protected</text>

  <circle cx="890" cy="225" r="8" fill="#22c55e"/>
  <text x="910" y="230" class="text-md">RLS Enabled</text>

  <!-- Key Principles Panel -->
  <rect x="860" y="260" width="500" height="170" rx="8" fill="#1e293b" stroke="#475569"/>
  <text x="880" y="290" class="heading">KEY SECURITY PRINCIPLES</text>

  <text x="880" y="320" class="text-md">1. Default Deny - No access without explicit policy (FR-005)</text>
  <text x="880" y="345" class="text-md">2. Owner Isolation - Users see only their own data (FR-006-010)</text>
  <text x="880" y="370" class="text-md">3. Service Bypass - Backend ops via service_role (FR-011-014)</text>
  <text x="880" y="395" class="text-md">4. Audit Immutability - Logs cannot be modified (FR-015-018)</text>
  <text x="880" y="420" class="text-md">5. Anonymous Restriction - Minimal public access (FR-019-021)</text>

  <!-- Compliance Panel (acronyms expanded) -->
  <rect x="860" y="450" width="500" height="80" rx="8" fill="#1e293b" stroke="#8b5cf6"/>
  <text x="880" y="480" class="heading" fill="#c4b5fd">COMPLIANCE</text>
  <text x="880" y="505" class="text-md">GDPR (EU Data Protection) + SOC 2 (Security Audit) | 99.9% Uptime</text>
  <text x="880" y="525" class="text-sm">SC-001 to SC-008: All tables protected, zero cross-user access</text>

  <!-- ==================== SECTION 5: PATTERNS REFERENCE (y=540-740) ==================== -->
  <rect x="40" y="550" width="1320" height="150" rx="8" fill="#1e293b" stroke="#475569"/>
  <text x="60" y="580" class="heading">STANDARD PATTERNS (Templates for Future Features)</text>

  <!-- Pattern cards -->
  <rect x="60" y="600" width="300" height="85" rx="6" fill="#334155"/>
  <text x="80" y="625" class="heading-sm" fill="#22c55e">Pattern 1: Owner Isolation</text>
  <text x="80" y="650" class="code">WHERE auth.uid() = user_id</text>
  <text x="80" y="672" class="annotation">FR-022</text>

  <rect x="380" y="600" width="300" height="85" rx="6" fill="#334155"/>
  <text x="400" y="625" class="heading-sm" fill="#8b5cf6">Pattern 2: Service Bypass</text>
  <text x="400" y="650" class="code">OR auth.role() = 'service_role'</text>
  <text x="400" y="672" class="annotation">FR-023</text>

  <rect x="700" y="600" width="300" height="85" rx="6" fill="#334155"/>
  <text x="720" y="625" class="heading-sm" fill="#f59e0b">Pattern 3: Soft Delete</text>
  <text x="720" y="650" class="code">FOR DELETE USING (false)</text>
  <text x="720" y="672" class="annotation">FR-024</text>

  <rect x="1020" y="600" width="320" height="85" rx="6" fill="#334155"/>
  <text x="1040" y="625" class="heading-sm" fill="#ef4444">Pattern 4: Immutable Audit</text>
  <text x="1040" y="650" class="code">INSERT only via service_role</text>
  <text x="1040" y="672" class="annotation">FR-025</text>

  <!-- Footer (MUST be at y=780, LEFT-ALIGNED at x=60) -->
  <text x="60" y="780" text-anchor="start" class="text-muted">000:01 | RLS Architecture Overview | ScriptHammer</text>
</svg>
