<svg xmlns="http://www.w3.org/2000/svg" viewBox="0 0 1400 800" width="1400" height="800">
  <!-- ============================================================
       GENERATED BY: /wireframe skill
       SOURCE: features/foundation/000-rls-implementation/spec.md
       DATE: 2025-12-31
       THEME: Dark (Backend/Architecture)
       DO NOT MANUALLY EDIT - Regenerate with /wireframe command
       ============================================================ -->
  <defs>
    <linearGradient id="bgGrad" x1="0%" y1="0%" x2="100%" y2="100%">
      <stop offset="0%" style="stop-color:#0f172a"/>
      <stop offset="100%" style="stop-color:#1e293b"/>
    </linearGradient>
    <linearGradient id="accentGrad" x1="0%" y1="0%" x2="100%" y2="0%">
      <stop offset="0%" style="stop-color:#8b5cf6"/>
      <stop offset="100%" style="stop-color:#d946ef"/>
    </linearGradient>
    <style>
      /* Typography - AAA compliant */
      .heading-lg { fill: #ffffff; font-family: system-ui, sans-serif; font-size: 20px; font-weight: bold; }
      .heading { fill: #ffffff; font-family: system-ui, sans-serif; font-size: 14px; font-weight: bold; }
      .text-md { fill: #cbd5e1; font-family: system-ui, sans-serif; font-size: 12px; }
      .text-sm { fill: #94a3b8; font-family: system-ui, sans-serif; font-size: 10px; }
      .text-muted { fill: #8494a8; font-family: system-ui, sans-serif; font-size: 10px; }
      .annotation { fill: #8b5cf6; font-family: monospace; font-size: 10px; }
      .label-section { fill: #8b5cf6; font-family: monospace; font-size: 11px; font-weight: bold; }
    </style>
    <!-- Arrow marker -->
    <marker id="arrowhead" markerWidth="10" markerHeight="7" refX="9" refY="3.5" orient="auto">
      <polygon points="0 0, 10 3.5, 0 7" fill="#8b5cf6"/>
    </marker>
  </defs>

  <!-- Background -->
  <rect width="1400" height="800" fill="url(#bgGrad)"/>

  <!-- Dot grid pattern -->
  <g opacity="0.05">
    <pattern id="dots" width="30" height="30" patternUnits="userSpaceOnUse">
      <circle cx="15" cy="15" r="1" fill="#fff"/>
    </pattern>
    <rect width="1400" height="800" fill="url(#dots)"/>
  </g>

  <!-- Accent line top -->
  <rect x="0" y="0" width="1400" height="3" fill="url(#accentGrad)"/>

  <!-- Title -->
  <text x="700" y="28" text-anchor="middle" font-family="system-ui, sans-serif" font-size="14" font-weight="600" fill="#8494a8" letter-spacing="1">ROW LEVEL SECURITY - ARCHITECTURE OVERVIEW</text>

  <!-- SECURITY ROLES SECTION (Left) -->
  <text x="40" y="60" class="label-section">SECURITY ROLES</text>

  <!-- Anonymous Role -->
  <g transform="translate(40, 80)">
    <rect width="180" height="100" rx="8" fill="#1e293b" stroke="#475569"/>
    <text x="90" y="30" text-anchor="middle" class="heading">anon</text>
    <text x="90" y="50" text-anchor="middle" class="text-sm">Unauthenticated</text>
    <rect x="20" y="65" width="140" height="24" rx="4" fill="#334155"/>
    <text x="90" y="82" text-anchor="middle" class="text-muted">Public READ only</text>
  </g>

  <!-- Authenticated Role -->
  <g transform="translate(40, 200)">
    <rect width="180" height="120" rx="8" fill="#1e293b" stroke="#22c55e" stroke-width="2"/>
    <text x="90" y="30" text-anchor="middle" class="heading">authenticated</text>
    <text x="90" y="50" text-anchor="middle" class="text-sm">Logged-in Users</text>
    <rect x="20" y="65" width="140" height="24" rx="4" fill="#334155"/>
    <text x="90" y="82" text-anchor="middle" class="text-muted">Own data only</text>
    <rect x="20" y="95" width="140" height="20" rx="4" fill="#22c55e" opacity="0.2"/>
    <text x="90" y="109" text-anchor="middle" fill="#22c55e" font-size="10">SELECT/UPDATE</text>
  </g>

  <!-- Service Role -->
  <g transform="translate(40, 340)">
    <rect width="180" height="120" rx="8" fill="#1e293b" stroke="#eab308" stroke-width="2"/>
    <text x="90" y="30" text-anchor="middle" class="heading">service_role</text>
    <text x="90" y="50" text-anchor="middle" class="text-sm">Backend Services</text>
    <rect x="20" y="65" width="140" height="24" rx="4" fill="#334155"/>
    <text x="90" y="82" text-anchor="middle" class="text-muted">Full bypass</text>
    <rect x="20" y="95" width="140" height="20" rx="4" fill="#eab308" opacity="0.2"/>
    <text x="90" y="109" text-anchor="middle" fill="#eab308" font-size="10">ALL OPERATIONS</text>
  </g>

  <!-- RLS POLICY LAYER (Center) -->
  <text x="320" y="60" class="label-section">RLS POLICY LAYER</text>

  <g transform="translate(280, 80)">
    <rect width="360" height="380" rx="8" fill="#334155" stroke="#8b5cf6" stroke-width="2" stroke-dasharray="4,2"/>
    <text x="180" y="30" text-anchor="middle" class="heading">Policy Evaluation Engine</text>

    <!-- Policy Types -->
    <g transform="translate(20, 50)">
      <rect width="320" height="70" rx="6" fill="#1e293b"/>
      <text x="160" y="25" text-anchor="middle" fill="#22c55e" font-size="12" font-weight="bold">Owner Isolation Pattern</text>
      <text x="160" y="45" text-anchor="middle" class="text-sm">auth.uid() = user_id</text>
      <text x="160" y="60" text-anchor="middle" class="text-muted">Users see only their own data</text>
    </g>

    <g transform="translate(20, 130)">
      <rect width="320" height="70" rx="6" fill="#1e293b"/>
      <text x="160" y="25" text-anchor="middle" fill="#eab308" font-size="12" font-weight="bold">Service Bypass Pattern</text>
      <text x="160" y="45" text-anchor="middle" class="text-sm">USING (true) for service_role</text>
      <text x="160" y="60" text-anchor="middle" class="text-muted">Backend operations unrestricted</text>
    </g>

    <g transform="translate(20, 210)">
      <rect width="320" height="70" rx="6" fill="#1e293b"/>
      <text x="160" y="25" text-anchor="middle" fill="#ef4444" font-size="12" font-weight="bold">Immutable Audit Pattern</text>
      <text x="160" y="45" text-anchor="middle" class="text-sm">INSERT only, no UPDATE/DELETE</text>
      <text x="160" y="60" text-anchor="middle" class="text-muted">Audit logs cannot be modified</text>
    </g>

    <g transform="translate(20, 290)">
      <rect width="320" height="70" rx="6" fill="#1e293b"/>
      <text x="160" y="25" text-anchor="middle" fill="#8b5cf6" font-size="12" font-weight="bold">Soft Delete Pattern</text>
      <text x="160" y="45" text-anchor="middle" class="text-sm">Deny DELETE, use status flag</text>
      <text x="160" y="60" text-anchor="middle" class="text-muted">Data preserved for recovery</text>
    </g>
  </g>

  <!-- PROTECTED TABLES (Right) -->
  <text x="720" y="60" class="label-section">PROTECTED TABLES</text>

  <!-- Users Table -->
  <g transform="translate(700, 80)">
    <rect width="280" height="90" rx="8" fill="#1e293b" stroke="#475569"/>
    <rect x="0" y="0" width="280" height="30" rx="8" fill="#334155"/>
    <text x="140" y="20" text-anchor="middle" class="heading">users</text>
    <text x="20" y="50" class="text-sm">id, email, created_at</text>
    <text x="20" y="70" class="text-muted">Policy: Owner SELECT only</text>
    <circle cx="260" cy="60" r="10" fill="#22c55e" opacity="0.3"/>
    <text x="260" y="64" text-anchor="middle" fill="#22c55e" font-size="10">R</text>
  </g>

  <!-- Profiles Table -->
  <g transform="translate(700, 185)">
    <rect width="280" height="90" rx="8" fill="#1e293b" stroke="#475569"/>
    <rect x="0" y="0" width="280" height="30" rx="8" fill="#334155"/>
    <text x="140" y="20" text-anchor="middle" class="heading">profiles</text>
    <text x="20" y="50" class="text-sm">user_id, display_name, avatar_url, bio</text>
    <text x="20" y="70" class="text-muted">Policy: Owner SELECT/UPDATE</text>
    <circle cx="240" cy="60" r="10" fill="#22c55e" opacity="0.3"/>
    <text x="240" y="64" text-anchor="middle" fill="#22c55e" font-size="10">R</text>
    <circle cx="260" cy="60" r="10" fill="#3b82f6" opacity="0.3"/>
    <text x="260" y="64" text-anchor="middle" fill="#3b82f6" font-size="10">U</text>
  </g>

  <!-- Sessions Table -->
  <g transform="translate(700, 290)">
    <rect width="280" height="90" rx="8" fill="#1e293b" stroke="#475569"/>
    <rect x="0" y="0" width="280" height="30" rx="8" fill="#334155"/>
    <text x="140" y="20" text-anchor="middle" class="heading">sessions</text>
    <text x="20" y="50" class="text-sm">user_id, token, expires_at</text>
    <text x="20" y="70" class="text-muted">Policy: Owner SELECT, system-managed</text>
    <circle cx="260" cy="60" r="10" fill="#22c55e" opacity="0.3"/>
    <text x="260" y="64" text-anchor="middle" fill="#22c55e" font-size="10">R</text>
  </g>

  <!-- Audit Logs Table -->
  <g transform="translate(700, 395)">
    <rect width="280" height="90" rx="8" fill="#1e293b" stroke="#ef4444"/>
    <rect x="0" y="0" width="280" height="30" rx="8" fill="#334155"/>
    <text x="140" y="20" text-anchor="middle" class="heading">audit_logs</text>
    <text x="20" y="50" class="text-sm">user_id, event_type, timestamp, details</text>
    <text x="20" y="70" class="text-muted">Policy: Immutable (INSERT only via service)</text>
    <circle cx="260" cy="60" r="10" fill="#ef4444" opacity="0.3"/>
    <text x="260" y="64" text-anchor="middle" fill="#ef4444" font-size="10">I</text>
  </g>

  <!-- CONNECTION ARROWS -->
  <!-- Auth to Policy Layer -->
  <line x1="220" y1="260" x2="280" y2="260" stroke="#22c55e" stroke-width="2" marker-end="url(#arrowhead)"/>

  <!-- Service to Policy Layer -->
  <line x1="220" y1="400" x2="280" y2="320" stroke="#eab308" stroke-width="2" marker-end="url(#arrowhead)"/>

  <!-- Policy to Tables -->
  <line x1="640" y1="200" x2="700" y2="125" stroke="#8b5cf6" stroke-width="2" marker-end="url(#arrowhead)"/>
  <line x1="640" y1="250" x2="700" y2="230" stroke="#8b5cf6" stroke-width="2" marker-end="url(#arrowhead)"/>
  <line x1="640" y1="300" x2="700" y2="335" stroke="#8b5cf6" stroke-width="2" marker-end="url(#arrowhead)"/>
  <line x1="640" y1="350" x2="700" y2="440" stroke="#8b5cf6" stroke-width="2" marker-end="url(#arrowhead)"/>

  <!-- LEGEND -->
  <g transform="translate(40, 500)">
    <rect width="940" height="120" rx="8" fill="#1e293b" stroke="#475569"/>
    <text x="20" y="30" class="heading">Legend</text>

    <!-- Permission badges -->
    <g transform="translate(20, 50)">
      <circle cx="10" cy="10" r="10" fill="#22c55e" opacity="0.3"/>
      <text x="10" y="14" text-anchor="middle" fill="#22c55e" font-size="10">R</text>
      <text x="30" y="14" class="text-sm">Read (SELECT)</text>
    </g>

    <g transform="translate(150, 50)">
      <circle cx="10" cy="10" r="10" fill="#3b82f6" opacity="0.3"/>
      <text x="10" y="14" text-anchor="middle" fill="#3b82f6" font-size="10">U</text>
      <text x="30" y="14" class="text-sm">Update</text>
    </g>

    <g transform="translate(280, 50)">
      <circle cx="10" cy="10" r="10" fill="#ef4444" opacity="0.3"/>
      <text x="10" y="14" text-anchor="middle" fill="#ef4444" font-size="10">I</text>
      <text x="30" y="14" class="text-sm">Insert (service only)</text>
    </g>

    <!-- Role colors -->
    <g transform="translate(450, 50)">
      <rect width="16" height="16" rx="2" fill="none" stroke="#22c55e" stroke-width="2"/>
      <text x="26" y="14" class="text-sm">Authenticated role</text>
    </g>

    <g transform="translate(600, 50)">
      <rect width="16" height="16" rx="2" fill="none" stroke="#eab308" stroke-width="2"/>
      <text x="26" y="14" class="text-sm">Service role</text>
    </g>

    <g transform="translate(750, 50)">
      <rect width="16" height="16" rx="2" fill="none" stroke="#ef4444" stroke-width="2"/>
      <text x="26" y="14" class="text-sm">Immutable table</text>
    </g>

    <!-- Key principle -->
    <text x="20" y="100" class="text-muted">Key Principle: Most restrictive policy wins. Explicit denials cannot be overridden. Empty result set returned (not errors) for unauthorized queries.</text>
  </g>

  <!-- Key Metrics -->
  <g transform="translate(1000, 80)">
    <rect width="360" height="400" rx="8" fill="#1e293b" stroke="#475569"/>
    <text x="180" y="30" text-anchor="middle" class="heading">Success Criteria</text>

    <g transform="translate(20, 55)">
      <rect width="320" height="50" rx="6" fill="#334155"/>
      <text x="160" y="22" text-anchor="middle" class="text-md">SC-001: All tables secured</text>
      <text x="160" y="40" text-anchor="middle" class="text-muted">users, profiles, sessions, audit_logs</text>
    </g>

    <g transform="translate(20, 115)">
      <rect width="320" height="50" rx="6" fill="#334155"/>
      <text x="160" y="22" text-anchor="middle" class="text-md">SC-002: 100% data isolation</text>
      <text x="160" y="40" text-anchor="middle" class="text-muted">Zero cross-user access in testing</text>
    </g>

    <g transform="translate(20, 175)">
      <rect width="320" height="50" rx="6" fill="#334155"/>
      <text x="160" y="22" text-anchor="middle" class="text-md">SC-004: Performance target</text>
      <text x="160" y="40" text-anchor="middle" class="text-muted">Less than 10ms latency overhead</text>
    </g>

    <g transform="translate(20, 235)">
      <rect width="320" height="50" rx="6" fill="#334155"/>
      <text x="160" y="22" text-anchor="middle" class="text-md">SC-005: Test coverage</text>
      <text x="160" y="40" text-anchor="middle" class="text-muted">100% of access scenarios covered</text>
    </g>

    <g transform="translate(20, 295)">
      <rect width="320" height="50" rx="6" fill="#334155"/>
      <text x="160" y="22" text-anchor="middle" class="text-md">SC-007: Audit integrity</text>
      <text x="160" y="40" text-anchor="middle" class="text-muted">Zero successful modifications</text>
    </g>

    <g transform="translate(20, 355)">
      <rect width="320" height="30" rx="6" fill="#22c55e" opacity="0.2"/>
      <text x="160" y="20" text-anchor="middle" fill="#22c55e" font-size="11">Compliance: GDPR + SOC 2</text>
    </g>
  </g>

  <!-- Footer -->
  <text x="700" y="780" text-anchor="middle" class="text-muted">Feature 000 - Row Level Security Foundation | ScriptHammer</text>
</svg>
