<svg xmlns="http://www.w3.org/2000/svg" viewBox="0 0 1400 800" width="1400" height="800">
  <!-- ============================================================
       GENERATED BY: /wireframe skill
       SOURCE: features/foundation/000-rls-implementation/spec.md
       DATE: 2026-01-01
       THEME: Dark (Backend/Architecture)
       REGENERATED WITH FEEDBACK: features/foundation/000-rls-implementation/WIREFRAME_ISSUES.md
       DO NOT MANUALLY EDIT - Regenerate with /wireframe command
       ============================================================ -->
  <defs>
    <linearGradient id="bgGrad" x1="0%" y1="0%" x2="100%" y2="100%">
      <stop offset="0%" style="stop-color:#0f172a"/>
      <stop offset="100%" style="stop-color:#1e293b"/>
    </linearGradient>
    <linearGradient id="accentGrad" x1="0%" y1="0%" x2="100%" y2="0%">
      <stop offset="0%" style="stop-color:#8b5cf6"/>
      <stop offset="100%" style="stop-color:#d946ef"/>
    </linearGradient>
    <linearGradient id="tableGrad" x1="0%" y1="0%" x2="0%" y2="100%">
      <stop offset="0%" style="stop-color:#334155"/>
      <stop offset="100%" style="stop-color:#1e293b"/>
    </linearGradient>
    <linearGradient id="roleAuthGrad" x1="0%" y1="0%" x2="0%" y2="100%">
      <stop offset="0%" style="stop-color:#22c55e"/>
      <stop offset="100%" style="stop-color:#16a34a"/>
    </linearGradient>
    <linearGradient id="roleServiceGrad" x1="0%" y1="0%" x2="0%" y2="100%">
      <stop offset="0%" style="stop-color:#8b5cf6"/>
      <stop offset="100%" style="stop-color:#7c3aed"/>
    </linearGradient>
    <linearGradient id="roleAnonGrad" x1="0%" y1="0%" x2="0%" y2="100%">
      <stop offset="0%" style="stop-color:#64748b"/>
      <stop offset="100%" style="stop-color:#475569"/>
    </linearGradient>
    <marker id="arrowhead" markerWidth="10" markerHeight="7" refX="9" refY="3.5" orient="auto">
      <polygon points="0 0, 10 3.5, 0 7" fill="#8b5cf6"/>
    </marker>
    <marker id="arrowheadGreen" markerWidth="10" markerHeight="7" refX="9" refY="3.5" orient="auto">
      <polygon points="0 0, 10 3.5, 0 7" fill="#22c55e"/>
    </marker>
    <marker id="arrowheadRed" markerWidth="10" markerHeight="7" refX="9" refY="3.5" orient="auto">
      <polygon points="0 0, 10 3.5, 0 7" fill="#ef4444"/>
    </marker>
    <style>
      .heading-lg { fill: #ffffff; font-family: system-ui, sans-serif; font-size: 20px; font-weight: bold; }
      .heading { fill: #ffffff; font-family: system-ui, sans-serif; font-size: 14px; font-weight: bold; }
      .heading-sm { fill: #ffffff; font-family: system-ui, sans-serif; font-size: 12px; font-weight: bold; }
      .text-md { fill: #cbd5e1; font-family: system-ui, sans-serif; font-size: 12px; }
      .text-sm { fill: #94a3b8; font-family: system-ui, sans-serif; font-size: 10px; }
      .text-muted { fill: #b4bcc8; font-family: system-ui, sans-serif; font-size: 10px; }
      .annotation { fill: #c4b5fd; font-family: monospace; font-size: 10px; font-weight: bold; }
      .table-name { fill: #ffffff; font-family: monospace; font-size: 13px; font-weight: bold; }
      .column-name { fill: #cbd5e1; font-family: monospace; font-size: 10px; }
      .role-label { fill: #ffffff; font-family: system-ui, sans-serif; font-size: 11px; font-weight: bold; }
      .policy-text { fill: #94a3b8; font-family: monospace; font-size: 9px; }
      .fr-label { fill: #c4b5fd; font-family: monospace; font-size: 9px; font-weight: bold; }
    </style>
  </defs>

  <!-- Background -->
  <rect width="1400" height="800" fill="url(#bgGrad)"/>

  <!-- Dot grid pattern -->
  <g opacity="0.05">
    <pattern id="dots" width="30" height="30" patternUnits="userSpaceOnUse">
      <circle cx="15" cy="15" r="1" fill="#fff"/>
    </pattern>
    <rect width="1400" height="800" fill="url(#dots)"/>
  </g>

  <!-- Accent line top -->
  <rect x="0" y="0" width="1400" height="3" fill="url(#accentGrad)"/>

  <!-- Title -->
  <text x="700" y="28" text-anchor="middle" font-family="system-ui, sans-serif" font-size="14" font-weight="600" fill="#8494a8" letter-spacing="1">ROW LEVEL SECURITY - ARCHITECTURE OVERVIEW</text>

  <!-- ==================== SECURITY ROLES (Left Side) ==================== -->
  <text x="60" y="70" class="heading-lg">Security Roles</text>

  <!-- Authenticated Role -->
  <g transform="translate(40, 90)">
    <rect x="0" y="0" width="180" height="100" rx="8" fill="url(#roleAuthGrad)" opacity="0.9"/>
    <text x="90" y="25" text-anchor="middle" class="role-label">AUTHENTICATED</text>
    <line x1="20" y1="35" x2="160" y2="35" stroke="#ffffff" stroke-opacity="0.3"/>
    <text x="20" y="52" class="text-sm" fill="#dcfce7">Valid JWT Token</text>
    <text x="20" y="67" class="text-sm" fill="#dcfce7">User ID in auth.uid()</text>
    <text x="20" y="82" class="text-sm" fill="#dcfce7">Own data access only</text>
  </g>

  <!-- Service Role -->
  <g transform="translate(40, 210)">
    <rect x="0" y="0" width="180" height="100" rx="8" fill="url(#roleServiceGrad)" opacity="0.9"/>
    <text x="90" y="25" text-anchor="middle" class="role-label">SERVICE_ROLE</text>
    <line x1="20" y1="35" x2="160" y2="35" stroke="#ffffff" stroke-opacity="0.3"/>
    <text x="20" y="52" class="text-sm" fill="#e9d5ff">Backend operations</text>
    <text x="20" y="67" class="text-sm" fill="#e9d5ff">Bypasses RLS policies</text>
    <text x="20" y="82" class="text-sm" fill="#e9d5ff">Audit log required</text>
  </g>

  <!-- Anonymous Role -->
  <g transform="translate(40, 330)">
    <rect x="0" y="0" width="180" height="100" rx="8" fill="url(#roleAnonGrad)" opacity="0.9"/>
    <text x="90" y="25" text-anchor="middle" class="role-label">ANON</text>
    <line x1="20" y1="35" x2="160" y2="35" stroke="#ffffff" stroke-opacity="0.3"/>
    <text x="20" y="52" class="text-sm" fill="#e2e8f0">No authentication</text>
    <text x="20" y="67" class="text-sm" fill="#e2e8f0">Public read only</text>
    <text x="20" y="82" class="text-sm" fill="#e2e8f0">No write access</text>
  </g>

  <!-- ==================== RLS POLICY LAYER (Center) ==================== -->
  <g transform="translate(280, 60)">
    <rect x="0" y="0" width="200" height="400" rx="8" fill="#1e293b" stroke="#8b5cf6" stroke-width="2" stroke-dasharray="5,3"/>
    <text x="100" y="25" text-anchor="middle" class="heading">RLS POLICY LAYER</text>
    <line x1="20" y1="35" x2="180" y2="35" stroke="#475569"/>

    <!-- Policy checks -->
    <text x="20" y="60" class="text-md" fill="#cbd5e1">Policy Evaluation:</text>

    <rect x="20" y="75" width="160" height="50" rx="4" fill="#334155"/>
    <text x="30" y="95" class="policy-text">auth.uid() = user_id</text>
    <text x="30" y="110" class="text-muted">Owner isolation check</text>

    <rect x="20" y="135" width="160" height="50" rx="4" fill="#334155"/>
    <text x="30" y="155" class="policy-text">auth.role() = 'service'</text>
    <text x="30" y="170" class="text-muted">Service bypass check</text>

    <rect x="20" y="195" width="160" height="50" rx="4" fill="#334155"/>
    <text x="30" y="215" class="policy-text">is_public = true</text>
    <text x="30" y="230" class="text-muted">Public access check</text>

    <rect x="20" y="255" width="160" height="50" rx="4" fill="#334155"/>
    <text x="30" y="275" class="policy-text">operation = 'INSERT'</text>
    <text x="30" y="290" class="text-muted">Audit immutability</text>

    <!-- Evaluation result -->
    <text x="100" y="340" text-anchor="middle" class="text-md" fill="#cbd5e1">Result:</text>
    <rect x="30" y="350" width="60" height="28" rx="4" fill="#22c55e"/>
    <text x="60" y="369" text-anchor="middle" class="text-sm" fill="#ffffff">ALLOW</text>
    <rect x="110" y="350" width="60" height="28" rx="4" fill="#ef4444"/>
    <text x="140" y="369" text-anchor="middle" class="text-sm" fill="#ffffff">DENY</text>
  </g>

  <!-- ==================== DATABASE TABLES (Right of Center) ==================== -->
  <text x="560" y="70" class="heading-lg">Protected Tables</text>

  <!-- Users Table with FR-001 annotation -->
  <g transform="translate(540, 90)">
    <rect x="0" y="0" width="180" height="120" rx="6" fill="url(#tableGrad)" stroke="#475569"/>
    <rect x="0" y="0" width="180" height="28" rx="6" fill="#475569"/>
    <rect x="0" y="22" width="180" height="6" fill="#475569"/>
    <text x="15" y="19" class="table-name">users</text>
    <circle cx="165" cy="14" r="6" fill="#22c55e"/>
    <text x="15" y="48" class="column-name">id: uuid (PK)</text>
    <text x="15" y="63" class="column-name">email: text</text>
    <text x="15" y="78" class="column-name">created_at: timestamp</text>
    <line x1="10" y1="88" x2="170" y2="88" stroke="#475569"/>
    <text x="15" y="103" class="text-muted">RLS: Owner SELECT only</text>
    <text x="15" y="115" class="fr-label">FR-001</text>
  </g>

  <!-- Profiles Table with FR-002 annotation -->
  <g transform="translate(740, 90)">
    <rect x="0" y="0" width="180" height="120" rx="6" fill="url(#tableGrad)" stroke="#475569"/>
    <rect x="0" y="0" width="180" height="28" rx="6" fill="#475569"/>
    <rect x="0" y="22" width="180" height="6" fill="#475569"/>
    <text x="15" y="19" class="table-name">profiles</text>
    <circle cx="165" cy="14" r="6" fill="#22c55e"/>
    <text x="15" y="48" class="column-name">id: uuid (PK, FK→users)</text>
    <text x="15" y="63" class="column-name">display_name: text</text>
    <text x="15" y="78" class="column-name">avatar_url: text</text>
    <line x1="10" y1="88" x2="170" y2="88" stroke="#475569"/>
    <text x="15" y="103" class="text-muted">RLS: Owner SELECT/UPDATE</text>
    <text x="15" y="115" class="fr-label">FR-002</text>
  </g>

  <!-- Sessions Table with FR-003 annotation -->
  <g transform="translate(540, 230)">
    <rect x="0" y="0" width="180" height="120" rx="6" fill="url(#tableGrad)" stroke="#475569"/>
    <rect x="0" y="0" width="180" height="28" rx="6" fill="#475569"/>
    <rect x="0" y="22" width="180" height="6" fill="#475569"/>
    <text x="15" y="19" class="table-name">sessions</text>
    <circle cx="165" cy="14" r="6" fill="#22c55e"/>
    <text x="15" y="48" class="column-name">id: uuid (PK)</text>
    <text x="15" y="63" class="column-name">user_id: uuid (FK)</text>
    <text x="15" y="78" class="column-name">expires_at: timestamp</text>
    <line x1="10" y1="88" x2="170" y2="88" stroke="#475569"/>
    <text x="15" y="103" class="text-muted">RLS: Owner SELECT</text>
    <text x="15" y="115" class="fr-label">FR-003</text>
  </g>

  <!-- Audit Logs Table with FR-004 annotation -->
  <g transform="translate(740, 230)">
    <rect x="0" y="0" width="180" height="120" rx="6" fill="url(#tableGrad)" stroke="#475569"/>
    <rect x="0" y="0" width="180" height="28" rx="6" fill="#eab308"/>
    <rect x="0" y="22" width="180" height="6" fill="#eab308"/>
    <text x="15" y="19" class="table-name" fill="#1e293b">audit_logs</text>
    <circle cx="165" cy="14" r="6" fill="#ef4444"/>
    <text x="15" y="48" class="column-name">id: uuid (PK)</text>
    <text x="15" y="63" class="column-name">user_id: uuid (FK)</text>
    <text x="15" y="78" class="column-name">event_type: text</text>
    <line x1="10" y1="88" x2="170" y2="88" stroke="#475569"/>
    <text x="15" y="103" class="text-muted">RLS: IMMUTABLE (no U/D)</text>
    <text x="15" y="115" class="fr-label">FR-004</text>
  </g>

  <!-- ==================== ACCESS FLOW ARROWS (Precise targeting) ==================== -->

  <!-- Authenticated → RLS (y=140 = center of auth role at 90+50) -->
  <path d="M 220 140 L 280 140" stroke="#22c55e" stroke-width="2" marker-end="url(#arrowheadGreen)" fill="none"/>

  <!-- RLS → users table (target: 540+90=630, y=90+60=150 center) -->
  <path d="M 480 200 L 530 150" stroke="#22c55e" stroke-width="2" marker-end="url(#arrowheadGreen)" fill="none"/>

  <!-- RLS → sessions table (target: 540+90=630, y=230+60=290 center) -->
  <path d="M 480 260 L 530 290" stroke="#22c55e" stroke-width="2" marker-end="url(#arrowheadGreen)" fill="none"/>

  <!-- Service → RLS (y=260 = center of service role at 210+50) -->
  <path d="M 220 260 L 280 260" stroke="#8b5cf6" stroke-width="2" marker-end="url(#arrowhead)" fill="none"/>

  <!-- Service bypass → profiles table (target: 740+90=830, y=90+60=150 center) -->
  <path d="M 480 220 L 730 150" stroke="#8b5cf6" stroke-width="2" stroke-dasharray="5,3" marker-end="url(#arrowhead)" fill="none"/>

  <!-- Service bypass → audit_logs table (target: 740+90=830, y=230+60=290 center) -->
  <path d="M 480 300 L 730 290" stroke="#8b5cf6" stroke-width="2" stroke-dasharray="5,3" marker-end="url(#arrowhead)" fill="none"/>

  <!-- Anonymous → RLS (blocked) (y=380 = center of anon role at 330+50) -->
  <path d="M 220 380 L 280 380" stroke="#ef4444" stroke-width="2" marker-end="url(#arrowheadRed)" fill="none"/>

  <!-- ==================== LEGEND (y=60, h=170) ==================== -->
  <g transform="translate(960, 60)">
    <rect x="0" y="0" width="400" height="170" rx="8" fill="#1e293b" stroke="#475569"/>
    <text x="200" y="25" text-anchor="middle" class="heading">Legend</text>
    <line x1="20" y1="35" x2="380" y2="35" stroke="#475569"/>

    <!-- Access types -->
    <circle cx="30" cy="55" r="8" fill="#22c55e"/>
    <text x="50" y="60" class="text-md">Allowed access (auth.uid() match)</text>

    <circle cx="30" cy="85" r="8" fill="#8b5cf6"/>
    <text x="50" y="90" class="text-md">Service bypass (service_role)</text>

    <circle cx="30" cy="115" r="8" fill="#ef4444"/>
    <text x="50" y="120" class="text-md">Denied access (no permission)</text>

    <line x1="20" y1="140" x2="80" y2="140" stroke="#8b5cf6" stroke-width="2" stroke-dasharray="5,3"/>
    <text x="90" y="145" class="text-md">RLS bypass (dashed line)</text>

    <circle cx="30" cy="160" r="6" fill="#eab308"/>
    <text x="50" y="165" class="text-md">Special protection (immutable)</text>
  </g>

  <!-- ==================== KEY PRINCIPLES (y=250, h=200) ==================== -->
  <g transform="translate(960, 250)">
    <rect x="0" y="0" width="400" height="200" rx="8" fill="#1e293b" stroke="#475569"/>
    <text x="200" y="25" text-anchor="middle" class="heading">Key Security Principles</text>
    <line x1="20" y1="35" x2="380" y2="35" stroke="#475569"/>

    <text x="20" y="58" class="text-md" fill="#22c55e">1. Data Isolation (FR-006 to FR-010)</text>
    <text x="30" y="75" class="text-sm">Users can only access their own records</text>

    <text x="20" y="100" class="text-md" fill="#8b5cf6">2. Service Bypass (FR-011 to FR-014)</text>
    <text x="30" y="117" class="text-sm">Backend ops use service_role with audit trail</text>

    <text x="20" y="142" class="text-md" fill="#eab308">3. Audit Immutability (FR-015 to FR-018)</text>
    <text x="30" y="159" class="text-sm">Audit logs: INSERT only, no UPDATE/DELETE</text>

    <text x="20" y="184" class="text-md" fill="#ef4444">4. Anonymous Restrictions (FR-019 to FR-021)</text>
    <text x="30" y="201" class="text-sm">Anon users: public read only, no writes</text>
  </g>

  <!-- ==================== COMPLIANCE BADGES (y=470, h=120) ==================== -->
  <g transform="translate(960, 470)">
    <rect x="0" y="0" width="400" height="120" rx="8" fill="#1e293b" stroke="#475569"/>
    <text x="200" y="25" text-anchor="middle" class="heading">Compliance &amp; Success Criteria</text>
    <line x1="20" y1="35" x2="380" y2="35" stroke="#475569"/>

    <rect x="20" y="48" width="110" height="28" rx="4" fill="#334155" stroke="#22c55e"/>
    <text x="75" y="67" text-anchor="middle" class="text-sm" fill="#22c55e">GDPR Ready</text>

    <rect x="145" y="48" width="110" height="28" rx="4" fill="#334155" stroke="#22c55e"/>
    <text x="200" y="67" text-anchor="middle" class="text-sm" fill="#22c55e">SOC 2 Ready</text>

    <rect x="270" y="48" width="110" height="28" rx="4" fill="#334155" stroke="#22c55e"/>
    <text x="325" y="67" text-anchor="middle" class="text-sm" fill="#22c55e">99.9% SLA</text>

    <text x="20" y="98" class="text-muted">SC-001: All tables protected | SC-002: 100% isolation | SC-004: &lt;10ms overhead</text>
  </g>

  <!-- ==================== FOOTER ==================== -->
  <text x="700" y="780" text-anchor="middle" class="text-muted">000-rls-implementation | Row Level Security Foundation | ScriptHammer</text>
</svg>
