<svg xmlns="http://www.w3.org/2000/svg" viewBox="0 0 1600 1000" width="1600" height="1000">
  <!-- ============================================================
       GENERATED BY: /wireframe skill
       SOURCE: features/foundation/000-rls-implementation/spec.md
       DATE: 2026-01-03
       THEME: Dark (Backend/Architecture)
       REGENERATED WITH FEEDBACK: features/foundation/000-rls-implementation/WIREFRAME_ISSUES.md
       DO NOT MANUALLY EDIT - Regenerate with /wireframe command
       ============================================================ -->
  <defs>
    <linearGradient id="bgGrad" x1="0%" y1="0%" x2="100%" y2="100%">
      <stop offset="0%" style="stop-color:#0f172a"/>
      <stop offset="100%" style="stop-color:#1e293b"/>
    </linearGradient>
    <linearGradient id="accentGrad" x1="0%" y1="0%" x2="100%" y2="0%">
      <stop offset="0%" style="stop-color:#8b5cf6"/>
      <stop offset="100%" style="stop-color:#d946ef"/>
    </linearGradient>
    <linearGradient id="cardGrad" x1="0%" y1="0%" x2="0%" y2="100%">
      <stop offset="0%" style="stop-color:#334155"/>
      <stop offset="100%" style="stop-color:#1e293b"/>
    </linearGradient>
    <style>
      /* Typography - Dark Theme - AAA compliant */
      .heading-lg { fill: #ffffff; font-family: system-ui, sans-serif; font-size: 24px; font-weight: bold; }
      .heading { fill: #ffffff; font-family: system-ui, sans-serif; font-size: 16px; font-weight: bold; }
      .heading-sm { fill: #ffffff; font-family: system-ui, sans-serif; font-size: 14px; font-weight: bold; }
      .text-md { fill: #cbd5e1; font-family: system-ui, sans-serif; font-size: 14px; }
      .text-sm { fill: #94a3b8; font-family: system-ui, sans-serif; font-size: 13px; }
      .text-muted { fill: #b4bcc8; font-family: system-ui, sans-serif; font-size: 12px; }
      .annotation { fill: #c4b5fd; font-family: monospace; font-size: 12px; font-weight: bold; }
      /* Requirements Legend styles (dark theme) */
      .legend-header { fill: #c4b5fd; font-family: monospace; font-size: 13px; font-weight: bold; }
      .legend-code { fill: #8b5cf6; font-family: monospace; font-size: 11px; font-weight: bold; }
      .legend-text { fill: #94a3b8; font-family: system-ui, sans-serif; font-size: 11px; }
      /* Badge text for colored backgrounds - WCAG AA compliant */
      .badge-text-on-green { fill: #052e16; font-weight: bold; }
      .badge-text-on-yellow { fill: #1a1a2e; font-weight: bold; }
    </style>
  </defs>

  <!-- Background -->
  <rect width="1600" height="1000" fill="url(#bgGrad)"/>

  <!-- Dot grid pattern -->
  <g opacity="0.05">
    <pattern id="dots" width="30" height="30" patternUnits="userSpaceOnUse">
      <circle cx="15" cy="15" r="1" fill="#fff"/>
    </pattern>
    <rect width="1600" height="1000" fill="url(#dots)"/>
  </g>

  <!-- Accent line top -->
  <rect x="0" y="0" width="1600" height="3" fill="url(#accentGrad)"/>

  <!-- Title -->
  <text x="800" y="32" text-anchor="middle" class="heading-lg">Row Level Security (RLS) Architecture</text>
  <text x="800" y="52" text-anchor="middle" fill="#8494a8" font-family="system-ui, sans-serif" font-size="13">Foundation security layer for all Supabase tables • FR-001 through FR-025</text>

  <!-- ===== COLUMN 1: Security Roles (x=40, width=300) ===== -->
  <g id="security-roles">
    <text x="40" y="90" class="heading">Security Roles</text>

    <!-- ANONYMOUS Role Card -->
    <rect x="40" y="110" width="300" height="180" rx="8" fill="url(#cardGrad)" stroke="#475569"/>
    <rect x="40" y="110" width="300" height="36" rx="8" fill="#64748b"/>
    <rect x="40" y="138" width="300" height="8" fill="url(#cardGrad)"/>
    <text x="55" y="135" fill="#fff" font-family="system-ui, sans-serif" font-size="14" font-weight="600">ANONYMOUS</text>
    <text x="55" y="165" class="text-sm">Unauthenticated visitors</text>
    <text x="55" y="190" fill="#10b981" font-family="monospace" font-size="11">✓ SELECT public tables only</text>
    <text x="55" y="210" fill="#ef4444" font-family="monospace" font-size="11">✗ DENY all write operations</text>
    <text x="55" y="230" fill="#ef4444" font-family="monospace" font-size="11">✗ DENY user enumeration</text>
    <rect x="55" y="250" width="85" height="24" rx="4" fill="#1e293b" stroke="#475569"/>
    <text x="97" y="267" text-anchor="middle" fill="#64748b" font-family="monospace" font-size="10">FR-019-021</text>

    <!-- AUTHENTICATED Role Card -->
    <rect x="40" y="305" width="300" height="200" rx="8" fill="url(#cardGrad)" stroke="#475569"/>
    <rect x="40" y="305" width="300" height="36" rx="8" fill="#8b5cf6"/>
    <rect x="40" y="333" width="300" height="8" fill="url(#cardGrad)"/>
    <text x="55" y="330" fill="#fff" font-family="system-ui, sans-serif" font-size="14" font-weight="600">AUTHENTICATED</text>
    <text x="55" y="360" class="text-sm">Logged-in users with valid session</text>
    <text x="55" y="385" fill="#10b981" font-family="monospace" font-size="11">✓ SELECT own records only</text>
    <text x="55" y="405" fill="#10b981" font-family="monospace" font-size="11">✓ UPDATE own profile only</text>
    <text x="55" y="425" fill="#ef4444" font-family="monospace" font-size="11">✗ DENY access to other users</text>
    <text x="55" y="445" fill="#fbbf24" font-family="monospace" font-size="11">○ INSERT via service only</text>
    <rect x="55" y="465" width="85" height="24" rx="4" fill="#1e293b" stroke="#8b5cf6"/>
    <text x="97" y="482" text-anchor="middle" fill="#8b5cf6" font-family="monospace" font-size="10">FR-006-010</text>

    <!-- SERVICE ROLE Card -->
    <rect x="40" y="520" width="300" height="180" rx="8" fill="url(#cardGrad)" stroke="#475569"/>
    <rect x="40" y="520" width="300" height="36" rx="8" fill="#d946ef"/>
    <rect x="40" y="548" width="300" height="8" fill="url(#cardGrad)"/>
    <text x="55" y="545" fill="#fff" font-family="system-ui, sans-serif" font-size="14" font-weight="600">SERVICE ROLE</text>
    <text x="55" y="575" class="text-sm">Backend service account</text>
    <text x="55" y="600" fill="#10b981" font-family="monospace" font-size="11">✓ BYPASS all RLS policies</text>
    <text x="55" y="620" fill="#10b981" font-family="monospace" font-size="11">✓ ALL operations permitted</text>
    <text x="55" y="640" fill="#fbbf24" font-family="monospace" font-size="11">○ Backend/Edge Functions only</text>
    <text x="55" y="660" fill="#fbbf24" font-family="monospace" font-size="11">○ Audit logged operations</text>
    <rect x="55" y="675" width="85" height="24" rx="4" fill="#1e293b" stroke="#d946ef"/>
    <text x="97" y="692" text-anchor="middle" fill="#d946ef" font-family="monospace" font-size="10">FR-011-014</text>
  </g>

  <!-- ===== COLUMN 2: Policy Evaluation Flow (x=360, width=420) ===== -->
  <g id="policy-evaluation">
    <text x="360" y="90" class="heading">RLS Policy Evaluation Flow</text>

    <!-- Flow container -->
    <rect x="360" y="110" width="420" height="280" rx="8" fill="url(#cardGrad)" stroke="#475569"/>

    <!-- Incoming Query -->
    <rect x="385" y="135" width="140" height="44" rx="6" fill="#1e293b" stroke="#8b5cf6" stroke-width="2"/>
    <text x="455" y="162" text-anchor="middle" fill="#fff" font-family="system-ui, sans-serif" font-size="13" font-weight="500">Incoming Query</text>

    <!-- Arrow down -->
    <line x1="455" y1="179" x2="455" y2="210" stroke="#8b5cf6" stroke-width="2"/>
    <polygon points="455,220 448,208 462,208" fill="#8b5cf6"/>

    <!-- Role Check Diamond -->
    <polygon points="455,230 520,265 455,300 390,265" fill="#1e293b" stroke="#d946ef" stroke-width="2"/>
    <text x="455" y="270" text-anchor="middle" fill="#fff" font-family="system-ui, sans-serif" font-size="12" font-weight="500">Role?</text>

    <!-- Service Role Path (right) -->
    <line x1="520" y1="265" x2="580" y2="265" stroke="#d946ef" stroke-width="2"/>
    <text x="550" y="255" text-anchor="middle" fill="#d946ef" font-family="system-ui, sans-serif" font-size="10">service</text>
    <rect x="580" y="245" width="110" height="40" rx="4" fill="#1e293b" stroke="#10b981" stroke-width="2"/>
    <text x="635" y="270" text-anchor="middle" fill="#10b981" font-family="system-ui, sans-serif" font-size="11" font-weight="500">BYPASS RLS</text>

    <!-- Auth/Anon Path (down) -->
    <line x1="455" y1="300" x2="455" y2="330" stroke="#8b5cf6" stroke-width="2"/>
    <text x="470" y="320" fill="#94a3b8" font-family="system-ui, sans-serif" font-size="10">auth/anon</text>
    <polygon points="455,340 448,328 462,328" fill="#8b5cf6"/>

    <!-- Apply RLS Policies -->
    <rect x="385" y="340" width="140" height="44" rx="6" fill="#1e293b" stroke="#8b5cf6" stroke-width="2"/>
    <text x="455" y="367" text-anchor="middle" fill="#fff" font-family="system-ui, sans-serif" font-size="13" font-weight="500">Apply RLS Policies</text>

    <!-- Arrow to result -->
    <line x1="525" y1="362" x2="580" y2="362" stroke="#8b5cf6" stroke-width="2"/>
    <polygon points="590,362 578,355 578,369" fill="#8b5cf6"/>

    <!-- Filtered Result -->
    <rect x="590" y="340" width="100" height="44" rx="4" fill="#1e293b" stroke="#10b981" stroke-width="2"/>
    <text x="640" y="360" text-anchor="middle" fill="#10b981" font-family="system-ui, sans-serif" font-size="11" font-weight="500">Filtered</text>
    <text x="640" y="375" text-anchor="middle" fill="#10b981" font-family="system-ui, sans-serif" font-size="11" font-weight="500">Result</text>

    <!-- Standard Policy Patterns -->
    <text x="360" y="420" class="heading">Standard Policy Patterns</text>
    <text x="360" y="440" class="text-muted">FR-022 through FR-025 • Reusable templates</text>

    <rect x="360" y="455" width="420" height="245" rx="8" fill="url(#cardGrad)" stroke="#475569"/>

    <!-- Pattern 1: Owner Isolation -->
    <rect x="375" y="470" width="185" height="100" rx="6" fill="#1e293b" stroke="#8b5cf6"/>
    <text x="390" y="490" fill="#8b5cf6" font-family="system-ui, sans-serif" font-size="12" font-weight="600">Owner Isolation</text>
    <text x="390" y="510" fill="#94a3b8" font-family="monospace" font-size="10">user_id = auth.uid()</text>
    <text x="390" y="528" fill="#64748b" font-family="system-ui, sans-serif" font-size="10">SELECT/UPDATE own only</text>
    <rect x="390" y="545" width="60" height="18" rx="3" fill="#0f172a" stroke="#475569"/>
    <text x="420" y="557" text-anchor="middle" fill="#64748b" font-family="monospace" font-size="9">FR-022</text>

    <!-- Pattern 2: Service Bypass -->
    <rect x="575" y="470" width="185" height="100" rx="6" fill="#1e293b" stroke="#d946ef"/>
    <text x="590" y="490" fill="#d946ef" font-family="system-ui, sans-serif" font-size="12" font-weight="600">Service Bypass</text>
    <text x="590" y="510" fill="#94a3b8" font-family="monospace" font-size="10">role() = 'service_role'</text>
    <text x="590" y="528" fill="#64748b" font-family="system-ui, sans-serif" font-size="10">Backend operations</text>
    <rect x="590" y="545" width="60" height="18" rx="3" fill="#0f172a" stroke="#475569"/>
    <text x="620" y="557" text-anchor="middle" fill="#64748b" font-family="monospace" font-size="9">FR-023</text>

    <!-- Pattern 3: Soft Delete -->
    <rect x="375" y="585" width="185" height="100" rx="6" fill="#1e293b" stroke="#fbbf24"/>
    <text x="390" y="605" fill="#fbbf24" font-family="system-ui, sans-serif" font-size="12" font-weight="600">Soft Delete</text>
    <text x="390" y="625" fill="#94a3b8" font-family="monospace" font-size="10">deleted_at IS NULL</text>
    <text x="390" y="643" fill="#64748b" font-family="system-ui, sans-serif" font-size="10">No hard DELETE allowed</text>
    <rect x="390" y="660" width="60" height="18" rx="3" fill="#0f172a" stroke="#475569"/>
    <text x="420" y="672" text-anchor="middle" fill="#64748b" font-family="monospace" font-size="9">FR-024</text>

    <!-- Pattern 4: Immutable Audit -->
    <rect x="575" y="585" width="185" height="100" rx="6" fill="#1e293b" stroke="#ef4444"/>
    <text x="590" y="605" fill="#ef4444" font-family="system-ui, sans-serif" font-size="12" font-weight="600">Immutable Audit</text>
    <text x="590" y="625" fill="#94a3b8" font-family="monospace" font-size="10">INSERT only (service)</text>
    <text x="590" y="643" fill="#64748b" font-family="system-ui, sans-serif" font-size="10">No UPDATE/DELETE ever</text>
    <rect x="590" y="660" width="60" height="18" rx="3" fill="#0f172a" stroke="#475569"/>
    <text x="620" y="672" text-anchor="middle" fill="#64748b" font-family="monospace" font-size="9">FR-025</text>
  </g>

  <!-- ===== COLUMN 3: Protected Tables (x=800, width=280) ===== -->
  <g id="protected-tables">
    <text x="800" y="90" class="heading">Protected Tables</text>
    <text x="800" y="108" class="text-muted">FR-001 through FR-005</text>

    <!-- users table -->
    <rect x="800" y="125" width="280" height="130" rx="8" fill="url(#cardGrad)" stroke="#475569"/>
    <rect x="815" y="140" width="70" height="24" rx="4" fill="#10b981"/>
    <text x="850" y="157" text-anchor="middle" class="badge-text-on-green" font-family="system-ui, sans-serif" font-size="11">RLS ON</text>
    <text x="900" y="157" fill="#fff" font-family="system-ui, sans-serif" font-size="14" font-weight="600">users</text>
    <text x="815" y="180" class="text-sm">Authentication records</text>
    <text x="815" y="200" fill="#64748b" font-family="monospace" font-size="10">id, email, created_at</text>
    <text x="815" y="220" fill="#8b5cf6" font-family="system-ui, sans-serif" font-size="10">Policy: Owner SELECT only</text>
    <rect x="815" y="235" width="60" height="16" rx="3" fill="#0f172a" stroke="#475569"/>
    <text x="845" y="246" text-anchor="middle" fill="#64748b" font-family="monospace" font-size="9">FR-001</text>

    <!-- profiles table -->
    <rect x="800" y="265" width="280" height="130" rx="8" fill="url(#cardGrad)" stroke="#475569"/>
    <rect x="815" y="280" width="70" height="24" rx="4" fill="#10b981"/>
    <text x="850" y="297" text-anchor="middle" class="badge-text-on-green" font-family="system-ui, sans-serif" font-size="11">RLS ON</text>
    <text x="900" y="297" fill="#fff" font-family="system-ui, sans-serif" font-size="14" font-weight="600">profiles</text>
    <text x="815" y="320" class="text-sm">User-customizable info</text>
    <text x="815" y="340" fill="#64748b" font-family="monospace" font-size="10">display_name, avatar, bio</text>
    <text x="815" y="360" fill="#8b5cf6" font-family="system-ui, sans-serif" font-size="10">Policy: Owner SELECT/UPDATE</text>
    <rect x="815" y="375" width="60" height="16" rx="3" fill="#0f172a" stroke="#475569"/>
    <text x="845" y="386" text-anchor="middle" fill="#64748b" font-family="monospace" font-size="9">FR-002</text>

    <!-- sessions table -->
    <rect x="800" y="405" width="280" height="130" rx="8" fill="url(#cardGrad)" stroke="#475569"/>
    <rect x="815" y="420" width="70" height="24" rx="4" fill="#10b981"/>
    <text x="850" y="437" text-anchor="middle" class="badge-text-on-green" font-family="system-ui, sans-serif" font-size="11">RLS ON</text>
    <text x="900" y="437" fill="#fff" font-family="system-ui, sans-serif" font-size="14" font-weight="600">sessions</text>
    <text x="815" y="460" class="text-sm">Active user sessions</text>
    <text x="815" y="480" fill="#64748b" font-family="monospace" font-size="10">token, expires_at, ip</text>
    <text x="815" y="500" fill="#8b5cf6" font-family="system-ui, sans-serif" font-size="10">Policy: Owner SELECT only</text>
    <rect x="815" y="515" width="60" height="16" rx="3" fill="#0f172a" stroke="#475569"/>
    <text x="845" y="526" text-anchor="middle" fill="#64748b" font-family="monospace" font-size="9">FR-003</text>

    <!-- audit_logs table -->
    <rect x="800" y="545" width="280" height="155" rx="8" fill="url(#cardGrad)" stroke="#475569"/>
    <rect x="815" y="560" width="95" height="24" rx="4" fill="#fbbf24"/>
    <text x="862" y="577" text-anchor="middle" class="badge-text-on-yellow" font-family="system-ui, sans-serif" font-size="11">IMMUTABLE</text>
    <text x="925" y="577" fill="#fff" font-family="system-ui, sans-serif" font-size="14" font-weight="600">audit_logs</text>
    <text x="815" y="600" class="text-sm">Security event records</text>
    <text x="815" y="620" fill="#64748b" font-family="monospace" font-size="10">user_id, event, timestamp</text>
    <text x="815" y="640" fill="#ef4444" font-family="system-ui, sans-serif" font-size="10">Policy: INSERT only (service)</text>
    <text x="815" y="660" fill="#ef4444" font-family="system-ui, sans-serif" font-size="10">No UPDATE/DELETE permitted</text>
    <rect x="815" y="680" width="60" height="16" rx="3" fill="#0f172a" stroke="#475569"/>
    <text x="845" y="691" text-anchor="middle" fill="#64748b" font-family="monospace" font-size="9">FR-004</text>
  </g>

  <!-- ===== COLUMN 4: Success Criteria (x=1100, width=460) ===== -->
  <g id="success-criteria">
    <text x="1100" y="90" class="heading">Success Criteria</text>
    <text x="1100" y="108" class="text-muted">SC-001 through SC-008 • Measurable outcomes</text>

    <rect x="1100" y="125" width="460" height="450" rx="8" fill="url(#cardGrad)" stroke="#475569"/>

    <!-- SC-001 -->
    <rect x="1115" y="140" width="430" height="48" rx="6" fill="#1e293b" stroke="#10b981"/>
    <text x="1130" y="162" fill="#10b981" font-family="monospace" font-size="11" font-weight="600">SC-001</text>
    <text x="1190" y="162" fill="#fff" font-family="system-ui, sans-serif" font-size="12">All core tables RLS enabled before production</text>
    <text x="1130" y="180" fill="#64748b" font-family="system-ui, sans-serif" font-size="10">Deployment gate: no table without policies</text>

    <!-- SC-002 -->
    <rect x="1115" y="198" width="430" height="48" rx="6" fill="#1e293b" stroke="#10b981"/>
    <text x="1130" y="220" fill="#10b981" font-family="monospace" font-size="11" font-weight="600">SC-002</text>
    <text x="1190" y="220" fill="#fff" font-family="system-ui, sans-serif" font-size="12">100% user data isolation in security testing</text>
    <text x="1130" y="238" fill="#64748b" font-family="system-ui, sans-serif" font-size="10">Zero cross-user access attempts succeed</text>

    <!-- SC-003 -->
    <rect x="1115" y="256" width="430" height="48" rx="6" fill="#1e293b" stroke="#10b981"/>
    <text x="1130" y="278" fill="#10b981" font-family="monospace" font-size="11" font-weight="600">SC-003</text>
    <text x="1190" y="278" fill="#fff" font-family="system-ui, sans-serif" font-size="12">Service role operations pass for all use cases</text>
    <text x="1130" y="296" fill="#64748b" font-family="system-ui, sans-serif" font-size="10">Backend functions verified in integration tests</text>

    <!-- SC-004 -->
    <rect x="1115" y="314" width="430" height="48" rx="6" fill="#1e293b" stroke="#fbbf24"/>
    <text x="1130" y="336" fill="#fbbf24" font-family="monospace" font-size="11" font-weight="600">SC-004</text>
    <text x="1190" y="336" fill="#fff" font-family="system-ui, sans-serif" font-size="12">Policy overhead under 10ms per query</text>
    <text x="1130" y="354" fill="#64748b" font-family="system-ui, sans-serif" font-size="10">Performance tested under load conditions</text>

    <!-- SC-005 -->
    <rect x="1115" y="372" width="430" height="48" rx="6" fill="#1e293b" stroke="#10b981"/>
    <text x="1130" y="394" fill="#10b981" font-family="monospace" font-size="11" font-weight="600">SC-005</text>
    <text x="1190" y="394" fill="#fff" font-family="system-ui, sans-serif" font-size="12">100% test coverage of all access scenarios</text>
    <text x="1130" y="412" fill="#64748b" font-family="system-ui, sans-serif" font-size="10">Integration tests for every role × table combo</text>

    <!-- SC-006 -->
    <rect x="1115" y="430" width="430" height="48" rx="6" fill="#1e293b" stroke="#8b5cf6"/>
    <text x="1130" y="452" fill="#8b5cf6" font-family="monospace" font-size="11" font-weight="600">SC-006</text>
    <text x="1190" y="452" fill="#fff" font-family="system-ui, sans-serif" font-size="12">Security review approved before deployment</text>
    <text x="1130" y="470" fill="#64748b" font-family="system-ui, sans-serif" font-size="10">External audit sign-off required</text>

    <!-- SC-007 -->
    <rect x="1115" y="488" width="430" height="48" rx="6" fill="#1e293b" stroke="#ef4444"/>
    <text x="1130" y="510" fill="#ef4444" font-family="monospace" font-size="11" font-weight="600">SC-007</text>
    <text x="1190" y="510" fill="#fff" font-family="system-ui, sans-serif" font-size="12">Audit log integrity - zero tampering in tests</text>
    <text x="1130" y="528" fill="#64748b" font-family="system-ui, sans-serif" font-size="10">Immutable audit verified via modification attempts</text>

    <!-- SC-008 -->
    <rect x="1115" y="546" width="430" height="48" rx="6" fill="#1e293b" stroke="#ef4444"/>
    <text x="1130" y="568" fill="#ef4444" font-family="monospace" font-size="11" font-weight="600">SC-008</text>
    <text x="1190" y="568" fill="#fff" font-family="system-ui, sans-serif" font-size="12">Zero user enumeration by anonymous users</text>
    <text x="1130" y="586" fill="#64748b" font-family="system-ui, sans-serif" font-size="10">Reconnaissance attacks return no identifiers</text>

    <!-- Compliance Badges -->
    <text x="1100" y="630" fill="#fff" font-family="system-ui, sans-serif" font-size="14" font-weight="600">Compliance Framework</text>

    <rect x="1100" y="645" width="460" height="55" rx="8" fill="url(#cardGrad)" stroke="#475569"/>
    <rect x="1120" y="660" width="100" height="28" rx="4" fill="#3b82f6"/>
    <text x="1170" y="679" text-anchor="middle" fill="#fff" font-family="system-ui, sans-serif" font-size="12" font-weight="600">GDPR</text>
    <rect x="1240" y="660" width="100" height="28" rx="4" fill="#10b981"/>
    <text x="1290" y="679" text-anchor="middle" class="badge-text-on-green" font-family="system-ui, sans-serif" font-size="12">SOC 2</text>
    <text x="1360" y="679" class="text-sm">EU data protection + SaaS controls</text>
  </g>

  <!-- ===== REQUIREMENTS KEY (y=730) ===== -->
  <g id="requirements-key" transform="translate(40, 730)">
    <rect width="1520" height="100" rx="8" fill="#0f172a" stroke="#475569"/>
    <text x="20" y="22" class="legend-header">REQUIREMENTS KEY</text>

    <!-- FR Groups - Row 1 -->
    <text x="20" y="48" class="legend-text">Functional Requirements:</text>
    <rect x="170" y="35" width="85" height="22" rx="3" fill="#1e293b" stroke="#475569"/>
    <text x="212" y="50" text-anchor="middle" fill="#94a3b8" font-family="monospace" font-size="10">FR-001-005</text>
    <text x="265" y="50" class="legend-text">Tables</text>

    <rect x="320" y="35" width="85" height="22" rx="3" fill="#1e293b" stroke="#8b5cf6"/>
    <text x="362" y="50" text-anchor="middle" fill="#8b5cf6" font-family="monospace" font-size="10">FR-006-010</text>
    <text x="415" y="50" class="legend-text">Auth</text>

    <rect x="460" y="35" width="85" height="22" rx="3" fill="#1e293b" stroke="#d946ef"/>
    <text x="502" y="50" text-anchor="middle" fill="#d946ef" font-family="monospace" font-size="10">FR-011-014</text>
    <text x="555" y="50" class="legend-text">Service</text>

    <rect x="610" y="35" width="85" height="22" rx="3" fill="#1e293b" stroke="#ef4444"/>
    <text x="652" y="50" text-anchor="middle" fill="#ef4444" font-family="monospace" font-size="10">FR-015-018</text>
    <text x="705" y="50" class="legend-text">Audit</text>

    <rect x="755" y="35" width="85" height="22" rx="3" fill="#1e293b" stroke="#64748b"/>
    <text x="797" y="50" text-anchor="middle" fill="#64748b" font-family="monospace" font-size="10">FR-019-021</text>
    <text x="850" y="50" class="legend-text">Anon</text>

    <rect x="895" y="35" width="85" height="22" rx="3" fill="#1e293b" stroke="#fbbf24"/>
    <text x="937" y="50" text-anchor="middle" fill="#fbbf24" font-family="monospace" font-size="10">FR-022-025</text>
    <text x="990" y="50" class="legend-text">Patterns</text>

    <!-- Legend - Row 2 -->
    <text x="20" y="78" class="legend-text">Legend:</text>
    <rect x="70" y="65" width="14" height="14" rx="2" fill="#10b981"/>
    <text x="92" y="78" class="legend-text">Allow</text>
    <rect x="140" y="65" width="14" height="14" rx="2" fill="#ef4444"/>
    <text x="162" y="78" class="legend-text">Deny</text>
    <rect x="200" y="65" width="14" height="14" rx="2" fill="#fbbf24"/>
    <text x="222" y="78" class="legend-text">Conditional</text>
    <rect x="300" y="65" width="14" height="14" rx="2" fill="#8b5cf6"/>
    <text x="322" y="78" class="legend-text">Auth Role</text>
    <rect x="400" y="65" width="14" height="14" rx="2" fill="#d946ef"/>
    <text x="422" y="78" class="legend-text">Service Role</text>
  </g>

  <!-- ===== FOOTER (y=860, x=60 LEFT-ALIGNED) ===== -->
  <g id="footer">
    <line x1="40" y1="850" x2="1560" y2="850" stroke="#475569"/>
    <text x="60" y="875" text-anchor="start" class="text-muted">000:01 | RLS Architecture Overview | ScriptHammer</text>
    <text x="60" y="895" text-anchor="start" fill="#475569" font-family="system-ui, sans-serif" font-size="10">Dark Theme • 1600×1000 • Generated 2026-01-03</text>
  </g>
</svg>
