<svg xmlns="http://www.w3.org/2000/svg" viewBox="0 0 1400 800" width="1400" height="800">
  <!-- ============================================================
       GENERATED BY: /wireframe skill
       SOURCE: features/foundation/000-rls-implementation/spec.md
       DATE: 2025-12-31
       THEME: Dark (Backend/Architecture)
       DO NOT MANUALLY EDIT - Regenerate with /wireframe command
       ============================================================ -->
  <defs>
    <linearGradient id="bgGrad" x1="0%" y1="0%" x2="100%" y2="100%">
      <stop offset="0%" style="stop-color:#0f172a"/>
      <stop offset="100%" style="stop-color:#1e293b"/>
    </linearGradient>
    <linearGradient id="accentGrad" x1="0%" y1="0%" x2="100%" y2="0%">
      <stop offset="0%" style="stop-color:#8b5cf6"/>
      <stop offset="100%" style="stop-color:#d946ef"/>
    </linearGradient>
    <style>
      /* Typography - AAA compliant */
      .heading-lg { fill: #ffffff; font-family: system-ui, sans-serif; font-size: 20px; font-weight: bold; }
      .heading { fill: #ffffff; font-family: system-ui, sans-serif; font-size: 14px; font-weight: bold; }
      .text-md { fill: #cbd5e1; font-family: system-ui, sans-serif; font-size: 12px; }
      .text-sm { fill: #94a3b8; font-family: system-ui, sans-serif; font-size: 10px; }
      .text-muted { fill: #8494a8; font-family: system-ui, sans-serif; font-size: 10px; }
      .annotation { fill: #8b5cf6; font-family: monospace; font-size: 10px; }
      .label-section { fill: #8b5cf6; font-family: monospace; font-size: 11px; font-weight: bold; }
    </style>
    <!-- Arrow markers -->
    <marker id="arrowPurple" markerWidth="10" markerHeight="7" refX="9" refY="3.5" orient="auto">
      <polygon points="0 0, 10 3.5, 0 7" fill="#8b5cf6"/>
    </marker>
    <marker id="arrowGreen" markerWidth="10" markerHeight="7" refX="9" refY="3.5" orient="auto">
      <polygon points="0 0, 10 3.5, 0 7" fill="#22c55e"/>
    </marker>
    <marker id="arrowRed" markerWidth="10" markerHeight="7" refX="9" refY="3.5" orient="auto">
      <polygon points="0 0, 10 3.5, 0 7" fill="#ef4444"/>
    </marker>
    <marker id="arrowYellow" markerWidth="10" markerHeight="7" refX="9" refY="3.5" orient="auto">
      <polygon points="0 0, 10 3.5, 0 7" fill="#eab308"/>
    </marker>
  </defs>

  <!-- Background -->
  <rect width="1400" height="800" fill="url(#bgGrad)"/>

  <!-- Dot grid pattern -->
  <g opacity="0.05">
    <pattern id="dots" width="30" height="30" patternUnits="userSpaceOnUse">
      <circle cx="15" cy="15" r="1" fill="#fff"/>
    </pattern>
    <rect width="1400" height="800" fill="url(#dots)"/>
  </g>

  <!-- Accent line top -->
  <rect x="0" y="0" width="1400" height="3" fill="url(#accentGrad)"/>

  <!-- Title -->
  <text x="700" y="28" text-anchor="middle" font-family="system-ui, sans-serif" font-size="14" font-weight="600" fill="#8494a8" letter-spacing="1">ROW LEVEL SECURITY - POLICY ENFORCEMENT FLOW</text>

  <!-- STEP 1: Query Origin -->
  <text x="40" y="60" class="label-section">STEP 1: QUERY ORIGIN</text>

  <g transform="translate(40, 80)">
    <rect width="300" height="180" rx="8" fill="#1e293b" stroke="#475569"/>
    <text x="150" y="30" text-anchor="middle" class="heading">Client Request</text>

    <!-- Query example -->
    <g transform="translate(20, 50)">
      <rect width="260" height="60" rx="6" fill="#0f172a"/>
      <text x="10" y="20" class="annotation">SQL Query:</text>
      <text x="10" y="38" fill="#22c55e" font-family="monospace" font-size="10">SELECT * FROM profiles</text>
      <text x="10" y="52" fill="#22c55e" font-family="monospace" font-size="10">WHERE user_id = 'abc-123'</text>
    </g>

    <!-- User context -->
    <g transform="translate(20, 120)">
      <rect width="260" height="45" rx="6" fill="#334155"/>
      <text x="10" y="18" class="text-sm">Request Context:</text>
      <text x="10" y="35" class="text-muted">auth.uid() = 'abc-123' (authenticated)</text>
    </g>
  </g>

  <!-- STEP 2: RLS Check -->
  <text x="400" y="60" class="label-section">STEP 2: POLICY EVALUATION</text>

  <g transform="translate(400, 80)">
    <rect width="300" height="180" rx="8" fill="#1e293b" stroke="#8b5cf6" stroke-width="2"/>
    <text x="150" y="30" text-anchor="middle" class="heading">RLS Policy Engine</text>

    <!-- Policy check -->
    <g transform="translate(20, 50)">
      <rect width="260" height="70" rx="6" fill="#0f172a"/>
      <text x="130" y="18" text-anchor="middle" class="annotation">Policy Applied:</text>
      <text x="130" y="38" text-anchor="middle" fill="#8b5cf6" font-family="monospace" font-size="10">profiles_select_policy</text>
      <text x="130" y="55" text-anchor="middle" class="text-muted">USING (auth.uid() = user_id)</text>
    </g>

    <!-- Decision diamond -->
    <g transform="translate(100, 135)">
      <polygon points="50,0 100,25 50,50 0,25" fill="#334155" stroke="#8b5cf6"/>
      <text x="50" y="30" text-anchor="middle" class="text-sm">Match?</text>
    </g>
  </g>

  <!-- STEP 3: Results -->
  <text x="760" y="60" class="label-section">STEP 3: FILTERED RESULTS</text>

  <!-- Success Path -->
  <g transform="translate(760, 80)">
    <rect width="280" height="80" rx="8" fill="#1e293b" stroke="#22c55e"/>
    <text x="140" y="25" text-anchor="middle" fill="#22c55e" font-size="12" font-weight="bold">ALLOWED - Own Data</text>
    <text x="140" y="48" text-anchor="middle" class="text-sm">Returns: User's profile row</text>
    <text x="140" y="65" text-anchor="middle" class="text-muted">{ display_name, avatar_url, bio }</text>
  </g>

  <!-- Deny Path -->
  <g transform="translate(760, 175)">
    <rect width="280" height="80" rx="8" fill="#1e293b" stroke="#ef4444"/>
    <text x="140" y="25" text-anchor="middle" fill="#ef4444" font-size="12" font-weight="bold">DENIED - Other User Data</text>
    <text x="140" y="48" text-anchor="middle" class="text-sm">Returns: Empty result set</text>
    <text x="140" y="65" text-anchor="middle" class="text-muted">[] (not an error)</text>
  </g>

  <!-- Flow Arrows -->
  <line x1="340" y1="170" x2="400" y2="170" stroke="#8b5cf6" stroke-width="2" marker-end="url(#arrowPurple)"/>
  <line x1="700" y1="145" x2="760" y2="120" stroke="#22c55e" stroke-width="2" marker-end="url(#arrowGreen)"/>
  <line x1="700" y1="195" x2="760" y2="215" stroke="#ef4444" stroke-width="2" marker-end="url(#arrowRed)"/>

  <!-- Labels on arrows -->
  <text x="720" y="110" fill="#22c55e" font-size="10">YES</text>
  <text x="720" y="230" fill="#ef4444" font-size="10">NO</text>

  <!-- USER STORY SCENARIOS (Bottom Section) -->
  <text x="40" y="310" class="label-section">USER STORY SCENARIOS</text>

  <!-- Scenario 1: User Data Isolation -->
  <g transform="translate(40, 330)">
    <rect width="420" height="200" rx="8" fill="#1e293b" stroke="#475569"/>
    <rect x="0" y="0" width="420" height="35" rx="8" fill="#334155"/>
    <text x="210" y="23" text-anchor="middle" class="heading">US1: User Data Isolation (P0)</text>

    <g transform="translate(20, 50)">
      <circle cx="10" cy="10" r="6" fill="#22c55e"/>
      <text x="25" y="14" class="text-md">User A queries own profile</text>
      <text x="25" y="30" class="text-muted">Result: Returns User A's data</text>
    </g>

    <g transform="translate(20, 90)">
      <circle cx="10" cy="10" r="6" fill="#ef4444"/>
      <text x="25" y="14" class="text-md">User A queries User B's profile</text>
      <text x="25" y="30" class="text-muted">Result: Empty set (no error)</text>
    </g>

    <g transform="translate(20, 130)">
      <circle cx="10" cy="10" r="6" fill="#ef4444"/>
      <text x="25" y="14" class="text-md">Anonymous queries any profile</text>
      <text x="25" y="30" class="text-muted">Result: Access denied</text>
    </g>

    <g transform="translate(20, 165)">
      <rect width="380" height="25" rx="4" fill="#22c55e" opacity="0.15"/>
      <text x="190" y="17" text-anchor="middle" fill="#22c55e" font-size="10">Test: Create 2 users, verify isolation</text>
    </g>
  </g>

  <!-- Scenario 2: Profile Self-Management -->
  <g transform="translate(490, 330)">
    <rect width="420" height="200" rx="8" fill="#1e293b" stroke="#475569"/>
    <rect x="0" y="0" width="420" height="35" rx="8" fill="#334155"/>
    <text x="210" y="23" text-anchor="middle" class="heading">US2: Profile Self-Management (P0)</text>

    <g transform="translate(20, 50)">
      <circle cx="10" cy="10" r="6" fill="#22c55e"/>
      <text x="25" y="14" class="text-md">User updates own display_name</text>
      <text x="25" y="30" class="text-muted">Result: Update succeeds</text>
    </g>

    <g transform="translate(20, 90)">
      <circle cx="10" cy="10" r="6" fill="#ef4444"/>
      <text x="25" y="14" class="text-md">User updates another's profile</text>
      <text x="25" y="30" class="text-muted">Result: Update denied (0 rows)</text>
    </g>

    <g transform="translate(20, 130)">
      <circle cx="10" cy="10" r="6" fill="#22c55e"/>
      <text x="25" y="14" class="text-md">User views own activity history</text>
      <text x="25" y="30" class="text-muted">Result: Own activity only</text>
    </g>

    <g transform="translate(20, 165)">
      <rect width="380" height="25" rx="4" fill="#22c55e" opacity="0.15"/>
      <text x="190" y="17" text-anchor="middle" fill="#22c55e" font-size="10">Test: Attempt cross-user update</text>
    </g>
  </g>

  <!-- Scenario 3: Service Role -->
  <g transform="translate(940, 330)">
    <rect width="420" height="200" rx="8" fill="#1e293b" stroke="#eab308"/>
    <rect x="0" y="0" width="420" height="35" rx="8" fill="#334155"/>
    <text x="210" y="23" text-anchor="middle" class="heading">US3: Service Role Operations (P1)</text>

    <g transform="translate(20, 50)">
      <circle cx="10" cy="10" r="6" fill="#eab308"/>
      <text x="25" y="14" class="text-md">Backend sends user notifications</text>
      <text x="25" y="30" class="text-muted">Result: Access granted (bypass)</text>
    </g>

    <g transform="translate(20, 90)">
      <circle cx="10" cy="10" r="6" fill="#eab308"/>
      <text x="25" y="14" class="text-md">Webhook updates payment status</text>
      <text x="25" y="30" class="text-muted">Result: Cross-user update works</text>
    </g>

    <g transform="translate(20, 130)">
      <circle cx="10" cy="10" r="6" fill="#22c55e"/>
      <text x="25" y="14" class="text-md">Service operation logged</text>
      <text x="25" y="30" class="text-muted">Result: Audit trail created</text>
    </g>

    <g transform="translate(20, 165)">
      <rect width="380" height="25" rx="4" fill="#eab308" opacity="0.15"/>
      <text x="190" y="17" text-anchor="middle" fill="#eab308" font-size="10">Note: Service creds never exposed to client</text>
    </g>
  </g>

  <!-- EDGE CASES Section -->
  <text x="40" y="560" class="label-section">EDGE CASES</text>

  <g transform="translate(40, 580)">
    <rect width="650" height="180" rx="8" fill="#1e293b" stroke="#475569"/>

    <g transform="translate(20, 25)">
      <text x="0" y="0" fill="#eab308" font-size="12" font-weight="bold">Session Expiration Mid-Operation</text>
      <text x="0" y="18" class="text-sm">Operation fails with "session expired" error</text>
      <text x="0" y="34" class="text-muted">No partial data exposed - atomic evaluation</text>
    </g>

    <g transform="translate(20, 75)">
      <text x="0" y="0" fill="#eab308" font-size="12" font-weight="bold">Orphaned Data (User Deleted)</text>
      <text x="0" y="18" class="text-sm">Data remains protected by policies</text>
      <text x="0" y="34" class="text-muted">Only service_role can clean up orphaned records</text>
    </g>

    <g transform="translate(20, 125)">
      <text x="0" y="0" fill="#eab308" font-size="12" font-weight="bold">Concurrent Policy Evaluation</text>
      <text x="0" y="18" class="text-sm">Policies evaluated atomically per query</text>
      <text x="0" y="34" class="text-muted">No race conditions - database guarantees isolation</text>
    </g>

    <g transform="translate(350, 25)">
      <text x="0" y="0" fill="#ef4444" font-size="12" font-weight="bold">Conflicting Policies</text>
      <text x="0" y="18" class="text-sm">Most restrictive policy wins</text>
      <text x="0" y="34" class="text-muted">Explicit denials cannot be overridden</text>
    </g>
  </g>

  <!-- Query Rewrite Visualization -->
  <g transform="translate(720, 580)">
    <rect width="640" height="180" rx="8" fill="#1e293b" stroke="#8b5cf6"/>
    <text x="320" y="25" text-anchor="middle" class="heading">How RLS Rewrites Queries</text>

    <g transform="translate(20, 45)">
      <text x="0" y="0" class="annotation">Original Query:</text>
      <rect x="0" y="8" width="280" height="40" rx="4" fill="#0f172a"/>
      <text x="10" y="32" fill="#cbd5e1" font-family="monospace" font-size="10">SELECT * FROM profiles</text>
    </g>

    <text x="320" y="80" text-anchor="middle" fill="#8b5cf6" font-size="20">→</text>

    <g transform="translate(340, 45)">
      <text x="0" y="0" class="annotation">Rewritten Query (with RLS):</text>
      <rect x="0" y="8" width="280" height="55" rx="4" fill="#0f172a"/>
      <text x="10" y="28" fill="#cbd5e1" font-family="monospace" font-size="10">SELECT * FROM profiles</text>
      <text x="10" y="43" fill="#22c55e" font-family="monospace" font-size="10">WHERE auth.uid() = user_id</text>
      <text x="10" y="58" fill="#8494a8" font-family="monospace" font-size="9">-- Policy injected automatically</text>
    </g>

    <text x="320" y="145" text-anchor="middle" class="text-muted">RLS policies are invisible to application code - security enforced at database layer</text>
    <text x="320" y="165" text-anchor="middle" class="text-muted">Performance: Less than 10ms overhead per query (SC-004)</text>
  </g>

  <!-- Footer -->
  <text x="700" y="780" text-anchor="middle" class="text-muted">Feature 000 - Row Level Security Foundation | Policy Enforcement Flow</text>
</svg>
