<svg xmlns="http://www.w3.org/2000/svg" viewBox="0 0 1400 800" width="1400" height="800">
  <!-- ============================================================
       GENERATED BY: /wireframe skill
       SOURCE: features/foundation/000-rls-implementation/spec.md
       DATE: 2026-01-01
       THEME: Dark (Backend/Architecture)
       REGENERATED WITH FEEDBACK: features/foundation/000-rls-implementation/WIREFRAME_ISSUES.md
       DO NOT MANUALLY EDIT - Regenerate with /wireframe command
       ============================================================ -->
  <defs>
    <linearGradient id="bgGrad" x1="0%" y1="0%" x2="100%" y2="100%">
      <stop offset="0%" style="stop-color:#0f172a"/>
      <stop offset="100%" style="stop-color:#1e293b"/>
    </linearGradient>
    <linearGradient id="accentGrad" x1="0%" y1="0%" x2="100%" y2="0%">
      <stop offset="0%" style="stop-color:#8b5cf6"/>
      <stop offset="100%" style="stop-color:#d946ef"/>
    </linearGradient>
    <style>
      /* Typography - MANDATORY SIZES - DO NOT REDUCE */
      .heading-lg { fill: #ffffff; font-family: system-ui, sans-serif; font-size: 24px; font-weight: bold; }
      .heading { fill: #ffffff; font-family: system-ui, sans-serif; font-size: 16px; font-weight: bold; }
      .heading-sm { fill: #ffffff; font-family: system-ui, sans-serif; font-size: 14px; font-weight: bold; }
      .text-md { fill: #cbd5e1; font-family: system-ui, sans-serif; font-size: 14px; }
      .text-sm { fill: #94a3b8; font-family: system-ui, sans-serif; font-size: 13px; }
      .text-muted { fill: #b4bcc8; font-family: system-ui, sans-serif; font-size: 12px; }
      .code { fill: #e2e8f0; font-family: monospace; font-size: 13px; }
      .annotation { fill: #c4b5fd; font-family: monospace; font-size: 12px; font-weight: bold; }
      .table-header { fill: #ffffff; font-family: system-ui, sans-serif; font-size: 14px; font-weight: bold; }
    </style>
  </defs>

  <!-- Background -->
  <rect width="1400" height="800" fill="url(#bgGrad)"/>

  <!-- Dot grid pattern -->
  <g opacity="0.05">
    <pattern id="dots" width="30" height="30" patternUnits="userSpaceOnUse">
      <circle cx="15" cy="15" r="1" fill="#fff"/>
    </pattern>
    <rect width="1400" height="800" fill="url(#dots)"/>
  </g>

  <!-- Accent line top -->
  <rect x="0" y="0" width="1400" height="3" fill="url(#accentGrad)"/>

  <!-- Title -->
  <text x="700" y="32" text-anchor="middle" class="heading-lg">ACCESS CONTROL MATRIX</text>
  <text x="700" y="54" text-anchor="middle" class="text-muted">Role-Based Permissions for Protected Tables</text>

  <!-- ==================== MATRIX TABLE (y=80-580) ==================== -->
  <rect x="40" y="80" width="1020" height="500" rx="8" fill="#1e293b" stroke="#475569"/>

  <!-- Table Header Row -->
  <rect x="40" y="80" width="1020" height="50" rx="8" fill="#334155"/>
  <text x="130" y="112" text-anchor="middle" class="table-header">TABLE</text>
  <text x="280" y="112" text-anchor="middle" class="table-header">SELECT</text>
  <text x="420" y="112" text-anchor="middle" class="table-header">INSERT</text>
  <text x="560" y="112" text-anchor="middle" class="table-header">UPDATE</text>
  <text x="700" y="112" text-anchor="middle" class="table-header">DELETE</text>
  <text x="880" y="112" text-anchor="middle" class="table-header">NOTES</text>

  <!-- Divider lines -->
  <line x1="200" y1="80" x2="200" y2="580" stroke="#475569" stroke-width="1"/>
  <line x1="350" y1="80" x2="350" y2="580" stroke="#475569" stroke-width="1"/>
  <line x1="490" y1="80" x2="490" y2="580" stroke="#475569" stroke-width="1"/>
  <line x1="630" y1="80" x2="630" y2="580" stroke="#475569" stroke-width="1"/>
  <line x1="770" y1="80" x2="770" y2="580" stroke="#475569" stroke-width="1"/>

  <!-- ==================== AUTHENTICATED SECTION (y=130-280) ==================== -->
  <rect x="40" y="130" width="1020" height="35" fill="#22c55e" opacity="0.2"/>
  <text x="60" y="155" class="heading" fill="#22c55e">AUTHENTICATED</text>
  <text x="200" y="155" class="annotation">FR-006 to FR-010</text>

  <!-- users row -->
  <rect x="40" y="165" width="1020" height="38" fill="#0f172a" opacity="0.5"/>
  <text x="60" y="190" class="code">users</text>
  <rect x="250" y="172" width="60" height="24" rx="4" fill="#8b5cf6"/>
  <text x="280" y="190" text-anchor="middle" class="text-sm" fill="#ffffff">OWN</text>
  <rect x="390" y="172" width="60" height="24" rx="4" fill="#ef4444"/>
  <text x="420" y="190" text-anchor="middle" class="text-sm" fill="#ffffff">DENY</text>
  <rect x="530" y="172" width="60" height="24" rx="4" fill="#ef4444"/>
  <text x="560" y="190" text-anchor="middle" class="text-sm" fill="#ffffff">DENY</text>
  <rect x="670" y="172" width="60" height="24" rx="4" fill="#ef4444"/>
  <text x="700" y="190" text-anchor="middle" class="text-sm" fill="#ffffff">DENY</text>
  <text x="785" y="190" class="text-sm">System-managed</text>

  <!-- profiles row -->
  <rect x="40" y="203" width="1020" height="38" fill="transparent"/>
  <text x="60" y="228" class="code">profiles</text>
  <rect x="250" y="210" width="60" height="24" rx="4" fill="#8b5cf6"/>
  <text x="280" y="228" text-anchor="middle" class="text-sm" fill="#ffffff">OWN</text>
  <rect x="390" y="210" width="60" height="24" rx="4" fill="#ef4444"/>
  <text x="420" y="228" text-anchor="middle" class="text-sm" fill="#ffffff">DENY</text>
  <rect x="530" y="210" width="60" height="24" rx="4" fill="#8b5cf6"/>
  <text x="560" y="228" text-anchor="middle" class="text-sm" fill="#ffffff">OWN</text>
  <rect x="670" y="210" width="60" height="24" rx="4" fill="#ef4444"/>
  <text x="700" y="228" text-anchor="middle" class="text-sm" fill="#ffffff">DENY</text>
  <text x="785" y="228" class="text-sm">Self-management</text>

  <!-- sessions row -->
  <rect x="40" y="241" width="1020" height="38" fill="#0f172a" opacity="0.5"/>
  <text x="60" y="266" class="code">sessions</text>
  <rect x="250" y="248" width="60" height="24" rx="4" fill="#8b5cf6"/>
  <text x="280" y="266" text-anchor="middle" class="text-sm" fill="#ffffff">OWN</text>
  <rect x="390" y="248" width="60" height="24" rx="4" fill="#ef4444"/>
  <text x="420" y="266" text-anchor="middle" class="text-sm" fill="#ffffff">DENY</text>
  <rect x="530" y="248" width="60" height="24" rx="4" fill="#ef4444"/>
  <text x="560" y="266" text-anchor="middle" class="text-sm" fill="#ffffff">DENY</text>
  <rect x="670" y="248" width="60" height="24" rx="4" fill="#ef4444"/>
  <text x="700" y="266" text-anchor="middle" class="text-sm" fill="#ffffff">DENY</text>
  <text x="785" y="266" class="text-sm">Read-only</text>

  <!-- audit_logs row -->
  <rect x="40" y="279" width="1020" height="38" fill="transparent"/>
  <text x="60" y="304" class="code">audit_logs</text>
  <rect x="250" y="286" width="60" height="24" rx="4" fill="#8b5cf6"/>
  <text x="280" y="304" text-anchor="middle" class="text-sm" fill="#ffffff">OWN</text>
  <rect x="390" y="286" width="60" height="24" rx="4" fill="#ef4444"/>
  <text x="420" y="304" text-anchor="middle" class="text-sm" fill="#ffffff">DENY</text>
  <rect x="530" y="286" width="60" height="24" rx="4" fill="#ef4444"/>
  <text x="560" y="304" text-anchor="middle" class="text-sm" fill="#ffffff">DENY</text>
  <rect x="670" y="286" width="60" height="24" rx="4" fill="#ef4444"/>
  <text x="700" y="304" text-anchor="middle" class="text-sm" fill="#ffffff">DENY</text>
  <text x="785" y="304" class="text-sm">Immutable</text>

  <!-- ==================== SERVICE_ROLE SECTION (y=320-430) ==================== -->
  <rect x="40" y="330" width="1020" height="35" fill="#8b5cf6" opacity="0.2"/>
  <text x="60" y="355" class="heading" fill="#8b5cf6">SERVICE_ROLE</text>
  <text x="200" y="355" class="annotation">FR-011 to FR-014</text>

  <!-- users row -->
  <rect x="40" y="365" width="1020" height="38" fill="#0f172a" opacity="0.5"/>
  <text x="60" y="390" class="code">users</text>
  <rect x="250" y="372" width="60" height="24" rx="4" fill="#22c55e"/>
  <text x="280" y="390" text-anchor="middle" class="text-sm" fill="#ffffff">ALL</text>
  <rect x="390" y="372" width="60" height="24" rx="4" fill="#22c55e"/>
  <text x="420" y="390" text-anchor="middle" class="text-sm" fill="#ffffff">ALL</text>
  <rect x="530" y="372" width="60" height="24" rx="4" fill="#22c55e"/>
  <text x="560" y="390" text-anchor="middle" class="text-sm" fill="#ffffff">ALL</text>
  <rect x="670" y="372" width="60" height="24" rx="4" fill="#22c55e"/>
  <text x="700" y="390" text-anchor="middle" class="text-sm" fill="#ffffff">ALL</text>
  <text x="785" y="390" class="text-sm">Full access</text>

  <!-- profiles row -->
  <rect x="40" y="403" width="1020" height="38" fill="transparent"/>
  <text x="60" y="428" class="code">profiles</text>
  <rect x="250" y="410" width="60" height="24" rx="4" fill="#22c55e"/>
  <text x="280" y="428" text-anchor="middle" class="text-sm" fill="#ffffff">ALL</text>
  <rect x="390" y="410" width="60" height="24" rx="4" fill="#22c55e"/>
  <text x="420" y="428" text-anchor="middle" class="text-sm" fill="#ffffff">ALL</text>
  <rect x="530" y="410" width="60" height="24" rx="4" fill="#22c55e"/>
  <text x="560" y="428" text-anchor="middle" class="text-sm" fill="#ffffff">ALL</text>
  <rect x="670" y="410" width="60" height="24" rx="4" fill="#22c55e"/>
  <text x="700" y="428" text-anchor="middle" class="text-sm" fill="#ffffff">ALL</text>
  <text x="785" y="428" class="text-sm">Full access</text>

  <!-- audit_logs row (special) -->
  <rect x="40" y="441" width="1020" height="38" fill="#0f172a" opacity="0.5"/>
  <text x="60" y="466" class="code" fill="#fca5a5">audit_logs</text>
  <rect x="250" y="448" width="60" height="24" rx="4" fill="#22c55e"/>
  <text x="280" y="466" text-anchor="middle" class="text-sm" fill="#ffffff">ALL</text>
  <rect x="390" y="448" width="60" height="24" rx="4" fill="#22c55e"/>
  <text x="420" y="466" text-anchor="middle" class="text-sm" fill="#ffffff">ALL</text>
  <rect x="530" y="448" width="60" height="24" rx="4" fill="#ef4444"/>
  <text x="560" y="466" text-anchor="middle" class="text-sm" fill="#ffffff">DENY</text>
  <rect x="670" y="448" width="60" height="24" rx="4" fill="#ef4444"/>
  <text x="700" y="466" text-anchor="middle" class="text-sm" fill="#ffffff">DENY</text>
  <text x="785" y="466" class="text-sm" fill="#fca5a5">INSERT only!</text>

  <!-- ==================== ANON SECTION (y=480-580) ==================== -->
  <rect x="40" y="492" width="1020" height="35" fill="#64748b" opacity="0.2"/>
  <text x="60" y="517" class="heading" fill="#94a3b8">ANON (Unauthenticated)</text>
  <text x="280" y="517" class="annotation">FR-019 to FR-021</text>

  <!-- All tables row -->
  <rect x="40" y="527" width="1020" height="50" fill="#0f172a" opacity="0.5"/>
  <text x="60" y="558" class="code">*all tables*</text>
  <rect x="250" y="540" width="60" height="24" rx="4" fill="#ef4444"/>
  <text x="280" y="558" text-anchor="middle" class="text-sm" fill="#ffffff">DENY</text>
  <rect x="390" y="540" width="60" height="24" rx="4" fill="#ef4444"/>
  <text x="420" y="558" text-anchor="middle" class="text-sm" fill="#ffffff">DENY</text>
  <rect x="530" y="540" width="60" height="24" rx="4" fill="#ef4444"/>
  <text x="560" y="558" text-anchor="middle" class="text-sm" fill="#ffffff">DENY</text>
  <rect x="670" y="540" width="60" height="24" rx="4" fill="#ef4444"/>
  <text x="700" y="558" text-anchor="middle" class="text-sm" fill="#ffffff">DENY</text>
  <text x="785" y="558" class="text-sm">No access to protected tables</text>

  <!-- ==================== LEGEND & REQUIREMENTS (y=80-580) ==================== -->
  <rect x="1080" y="80" width="280" height="200" rx="8" fill="#1e293b" stroke="#475569"/>
  <text x="1100" y="115" class="heading">LEGEND</text>

  <rect x="1100" y="135" width="50" height="24" rx="4" fill="#22c55e"/>
  <text x="1125" y="153" text-anchor="middle" class="text-sm" fill="#ffffff">ALL</text>
  <text x="1165" y="153" class="text-md">Full access</text>

  <rect x="1100" y="170" width="50" height="24" rx="4" fill="#8b5cf6"/>
  <text x="1125" y="188" text-anchor="middle" class="text-sm" fill="#ffffff">OWN</text>
  <text x="1165" y="188" class="text-md">Own rows only</text>

  <rect x="1100" y="205" width="50" height="24" rx="4" fill="#ef4444"/>
  <text x="1125" y="223" text-anchor="middle" class="text-sm" fill="#ffffff">DENY</text>
  <text x="1165" y="223" class="text-md">No access</text>

  <text x="1100" y="258" class="text-sm">OWN = auth.uid() = user_id</text>

  <!-- Success Criteria Panel -->
  <rect x="1080" y="300" width="280" height="280" rx="8" fill="#1e293b" stroke="#8b5cf6"/>
  <text x="1100" y="335" class="heading" fill="#c4b5fd">SUCCESS CRITERIA</text>

  <text x="1100" y="365" class="code">SC-001</text>
  <text x="1160" y="365" class="text-sm">All tables protected</text>

  <text x="1100" y="395" class="code">SC-002</text>
  <text x="1160" y="395" class="text-sm">Zero cross-user access</text>

  <text x="1100" y="425" class="code">SC-003</text>
  <text x="1160" y="425" class="text-sm">Service role works</text>

  <text x="1100" y="455" class="code">SC-004</text>
  <text x="1160" y="455" class="text-sm">&lt;10ms policy overhead</text>

  <text x="1100" y="485" class="code">SC-005</text>
  <text x="1160" y="485" class="text-sm">100% test coverage</text>

  <text x="1100" y="515" class="code">SC-007</text>
  <text x="1160" y="515" class="text-sm">Audit log immutable</text>

  <text x="1100" y="545" class="code">SC-008</text>
  <text x="1160" y="545" class="text-sm">No user enumeration</text>

  <!-- ==================== COMPLIANCE FOOTER (y=600-740) ==================== -->
  <rect x="40" y="610" width="1320" height="130" rx="8" fill="#1e293b" stroke="#8b5cf6"/>
  <text x="60" y="645" class="heading" fill="#c4b5fd">COMPLIANCE &amp; KEY BEHAVIORS</text>

  <text x="60" y="680" class="text-md">GDPR + SOC 2 Compliant</text>
  <text x="60" y="705" class="text-sm">Audit logs immutable (FR-015-018) | Data isolation verified (SC-002) | 99.9% uptime target</text>

  <text x="500" y="680" class="text-md">Policy Violation Behavior (FR-010)</text>
  <text x="500" y="705" class="text-sm">Unauthorized queries return EMPTY RESULTS (not errors) - prevents enumeration attacks</text>

  <text x="960" y="680" class="text-md">Service Role Security (FR-014)</text>
  <text x="960" y="705" class="text-sm">Credentials NEVER exposed to client - .env only | All usage logged</text>

  <!-- Footer (MUST be at y=780) -->
  <text x="700" y="780" text-anchor="middle" class="text-muted">000-rls-implementation | Access Control Matrix | ScriptHammer</text>
</svg>
