<svg xmlns="http://www.w3.org/2000/svg" viewBox="0 0 1400 800" width="1400" height="800">
  <!-- ============================================================
       GENERATED BY: /wireframe skill
       SOURCE: features/foundation/000-rls-implementation/spec.md
       DATE: 2026-01-01
       THEME: Dark (Backend/Architecture)
       REGENERATED WITH FEEDBACK: features/foundation/000-rls-implementation/WIREFRAME_ISSUES.md
       DO NOT MANUALLY EDIT - Regenerate with /wireframe command
       ============================================================ -->
  <defs>
    <linearGradient id="bgGrad" x1="0%" y1="0%" x2="100%" y2="100%">
      <stop offset="0%" style="stop-color:#0f172a"/>
      <stop offset="100%" style="stop-color:#1e293b"/>
    </linearGradient>
    <linearGradient id="accentGrad" x1="0%" y1="0%" x2="100%" y2="0%">
      <stop offset="0%" style="stop-color:#8b5cf6"/>
      <stop offset="100%" style="stop-color:#d946ef"/>
    </linearGradient>
    <style>
      .heading-lg { fill: #ffffff; font-family: system-ui, sans-serif; font-size: 20px; font-weight: bold; }
      .heading { fill: #ffffff; font-family: system-ui, sans-serif; font-size: 14px; font-weight: bold; }
      .heading-sm { fill: #ffffff; font-family: system-ui, sans-serif; font-size: 12px; font-weight: bold; }
      .text-md { fill: #cbd5e1; font-family: system-ui, sans-serif; font-size: 12px; }
      .text-sm { fill: #94a3b8; font-family: system-ui, sans-serif; font-size: 10px; }
      .text-muted { fill: #b4bcc8; font-family: system-ui, sans-serif; font-size: 10px; }
      .table-header { fill: #ffffff; font-family: system-ui, sans-serif; font-size: 12px; font-weight: bold; }
      .table-cell { fill: #cbd5e1; font-family: monospace; font-size: 11px; }
      .cell-allow { fill: #22c55e; }
      .cell-deny { fill: #ef4444; }
      .cell-own { fill: #8b5cf6; }
      .cell-partial { fill: #f59e0b; }
    </style>
  </defs>

  <!-- Background -->
  <rect width="1400" height="800" fill="url(#bgGrad)"/>

  <!-- Dot grid pattern -->
  <g opacity="0.05">
    <pattern id="dots" width="30" height="30" patternUnits="userSpaceOnUse">
      <circle cx="15" cy="15" r="1" fill="#fff"/>
    </pattern>
    <rect width="1400" height="800" fill="url(#dots)"/>
  </g>

  <!-- Accent line top -->
  <rect x="0" y="0" width="1400" height="3" fill="url(#accentGrad)"/>

  <!-- Title -->
  <text x="700" y="28" text-anchor="middle" font-family="system-ui, sans-serif" font-size="14" font-weight="600" fill="#8494a8" letter-spacing="1">ACCESS CONTROL MATRIX - ROLE x TABLE x OPERATION</text>

  <!-- ==================== MAIN MATRIX TABLE ==================== -->
  <g transform="translate(40, 50)">
    <!-- Table background -->
    <rect x="0" y="0" width="1000" height="530" rx="8" fill="#1e293b" stroke="#475569"/>

    <!-- Column headers (operations) -->
    <rect x="0" y="0" width="1000" height="40" rx="8" fill="#334155"/>
    <rect x="0" y="32" width="1000" height="8" fill="#334155"/>
    <text x="180" y="26" text-anchor="middle" class="table-header">TABLE</text>
    <text x="340" y="26" text-anchor="middle" class="table-header">SELECT</text>
    <text x="480" y="26" text-anchor="middle" class="table-header">INSERT</text>
    <text x="620" y="26" text-anchor="middle" class="table-header">UPDATE</text>
    <text x="760" y="26" text-anchor="middle" class="table-header">DELETE</text>
    <text x="900" y="26" text-anchor="middle" class="table-header">NOTES</text>

    <!-- Vertical dividers -->
    <line x1="260" y1="40" x2="260" y2="530" stroke="#475569"/>
    <line x1="410" y1="40" x2="410" y2="530" stroke="#475569"/>
    <line x1="550" y1="40" x2="550" y2="530" stroke="#475569"/>
    <line x1="690" y1="40" x2="690" y2="530" stroke="#475569"/>
    <line x1="830" y1="40" x2="830" y2="530" stroke="#475569"/>

    <!-- ==================== AUTHENTICATED ROLE SECTION ==================== -->
    <rect x="5" y="50" width="990" height="35" rx="4" fill="#22c55e" opacity="0.15"/>
    <text x="20" y="73" class="heading" fill="#22c55e">AUTHENTICATED (auth.uid() present) - FR-006 to FR-010</text>

    <!-- Row: users table -->
    <rect x="5" y="90" width="990" height="35" fill="transparent"/>
    <text x="180" y="112" text-anchor="middle" class="table-cell">users</text>
    <g transform="translate(310, 97)">
      <rect x="0" y="0" width="60" height="22" rx="4" fill="#8b5cf6"/>
      <text x="30" y="16" text-anchor="middle" class="text-sm" fill="#ffffff">OWN</text>
    </g>
    <g transform="translate(450, 97)">
      <rect x="0" y="0" width="60" height="22" rx="4" fill="#ef4444"/>
      <text x="30" y="16" text-anchor="middle" class="text-sm" fill="#ffffff">DENY</text>
    </g>
    <g transform="translate(590, 97)">
      <rect x="0" y="0" width="60" height="22" rx="4" fill="#ef4444"/>
      <text x="30" y="16" text-anchor="middle" class="text-sm" fill="#ffffff">DENY</text>
    </g>
    <g transform="translate(730, 97)">
      <rect x="0" y="0" width="60" height="22" rx="4" fill="#ef4444"/>
      <text x="30" y="16" text-anchor="middle" class="text-sm" fill="#ffffff">DENY</text>
    </g>
    <text x="840" y="112" class="text-sm">System-managed</text>

    <!-- Row: profiles table -->
    <line x1="10" y1="125" x2="990" y2="125" stroke="#475569" stroke-opacity="0.5"/>
    <rect x="5" y="130" width="990" height="35" fill="transparent"/>
    <text x="180" y="152" text-anchor="middle" class="table-cell">profiles</text>
    <g transform="translate(310, 137)">
      <rect x="0" y="0" width="60" height="22" rx="4" fill="#8b5cf6"/>
      <text x="30" y="16" text-anchor="middle" class="text-sm" fill="#ffffff">OWN</text>
    </g>
    <g transform="translate(450, 137)">
      <rect x="0" y="0" width="60" height="22" rx="4" fill="#ef4444"/>
      <text x="30" y="16" text-anchor="middle" class="text-sm" fill="#ffffff">DENY</text>
    </g>
    <g transform="translate(590, 137)">
      <rect x="0" y="0" width="60" height="22" rx="4" fill="#8b5cf6"/>
      <text x="30" y="16" text-anchor="middle" class="text-sm" fill="#ffffff">OWN</text>
    </g>
    <g transform="translate(730, 137)">
      <rect x="0" y="0" width="60" height="22" rx="4" fill="#ef4444"/>
      <text x="30" y="16" text-anchor="middle" class="text-sm" fill="#ffffff">DENY</text>
    </g>
    <text x="840" y="152" class="text-sm">Can edit own profile</text>

    <!-- Row: sessions table -->
    <line x1="10" y1="165" x2="990" y2="165" stroke="#475569" stroke-opacity="0.5"/>
    <rect x="5" y="170" width="990" height="35" fill="transparent"/>
    <text x="180" y="192" text-anchor="middle" class="table-cell">sessions</text>
    <g transform="translate(310, 177)">
      <rect x="0" y="0" width="60" height="22" rx="4" fill="#8b5cf6"/>
      <text x="30" y="16" text-anchor="middle" class="text-sm" fill="#ffffff">OWN</text>
    </g>
    <g transform="translate(450, 177)">
      <rect x="0" y="0" width="60" height="22" rx="4" fill="#ef4444"/>
      <text x="30" y="16" text-anchor="middle" class="text-sm" fill="#ffffff">DENY</text>
    </g>
    <g transform="translate(590, 177)">
      <rect x="0" y="0" width="60" height="22" rx="4" fill="#ef4444"/>
      <text x="30" y="16" text-anchor="middle" class="text-sm" fill="#ffffff">DENY</text>
    </g>
    <g transform="translate(730, 177)">
      <rect x="0" y="0" width="60" height="22" rx="4" fill="#ef4444"/>
      <text x="30" y="16" text-anchor="middle" class="text-sm" fill="#ffffff">DENY</text>
    </g>
    <text x="840" y="192" class="text-sm">Read-only sessions</text>

    <!-- Row: audit_logs table -->
    <line x1="10" y1="205" x2="990" y2="205" stroke="#475569" stroke-opacity="0.5"/>
    <rect x="5" y="210" width="990" height="35" fill="transparent"/>
    <text x="180" y="232" text-anchor="middle" class="table-cell">audit_logs</text>
    <g transform="translate(310, 217)">
      <rect x="0" y="0" width="60" height="22" rx="4" fill="#8b5cf6"/>
      <text x="30" y="16" text-anchor="middle" class="text-sm" fill="#ffffff">OWN</text>
    </g>
    <g transform="translate(450, 217)">
      <rect x="0" y="0" width="60" height="22" rx="4" fill="#ef4444"/>
      <text x="30" y="16" text-anchor="middle" class="text-sm" fill="#ffffff">DENY</text>
    </g>
    <g transform="translate(590, 217)">
      <rect x="0" y="0" width="60" height="22" rx="4" fill="#ef4444"/>
      <text x="30" y="16" text-anchor="middle" class="text-sm" fill="#ffffff">DENY</text>
    </g>
    <g transform="translate(730, 217)">
      <rect x="0" y="0" width="60" height="22" rx="4" fill="#ef4444"/>
      <text x="30" y="16" text-anchor="middle" class="text-sm" fill="#ffffff">DENY</text>
    </g>
    <text x="840" y="232" class="text-sm">IMMUTABLE - read own</text>

    <!-- ==================== SERVICE_ROLE SECTION ==================== -->
    <rect x="5" y="255" width="990" height="35" rx="4" fill="#8b5cf6" opacity="0.15"/>
    <text x="20" y="278" class="heading" fill="#8b5cf6">SERVICE_ROLE (backend operations) - FR-011 to FR-014</text>

    <!-- Row: users table -->
    <rect x="5" y="295" width="990" height="35" fill="transparent"/>
    <text x="180" y="317" text-anchor="middle" class="table-cell">users</text>
    <g transform="translate(310, 302)">
      <rect x="0" y="0" width="60" height="22" rx="4" fill="#22c55e"/>
      <text x="30" y="16" text-anchor="middle" class="text-sm" fill="#ffffff">ALL</text>
    </g>
    <g transform="translate(450, 302)">
      <rect x="0" y="0" width="60" height="22" rx="4" fill="#22c55e"/>
      <text x="30" y="16" text-anchor="middle" class="text-sm" fill="#ffffff">ALL</text>
    </g>
    <g transform="translate(590, 302)">
      <rect x="0" y="0" width="60" height="22" rx="4" fill="#22c55e"/>
      <text x="30" y="16" text-anchor="middle" class="text-sm" fill="#ffffff">ALL</text>
    </g>
    <g transform="translate(730, 302)">
      <rect x="0" y="0" width="60" height="22" rx="4" fill="#22c55e"/>
      <text x="30" y="16" text-anchor="middle" class="text-sm" fill="#ffffff">ALL</text>
    </g>
    <text x="840" y="317" class="text-sm">Full access + audit</text>

    <!-- Row: profiles table -->
    <line x1="10" y1="330" x2="990" y2="330" stroke="#475569" stroke-opacity="0.5"/>
    <rect x="5" y="335" width="990" height="35" fill="transparent"/>
    <text x="180" y="357" text-anchor="middle" class="table-cell">profiles</text>
    <g transform="translate(310, 342)">
      <rect x="0" y="0" width="60" height="22" rx="4" fill="#22c55e"/>
      <text x="30" y="16" text-anchor="middle" class="text-sm" fill="#ffffff">ALL</text>
    </g>
    <g transform="translate(450, 342)">
      <rect x="0" y="0" width="60" height="22" rx="4" fill="#22c55e"/>
      <text x="30" y="16" text-anchor="middle" class="text-sm" fill="#ffffff">ALL</text>
    </g>
    <g transform="translate(590, 342)">
      <rect x="0" y="0" width="60" height="22" rx="4" fill="#22c55e"/>
      <text x="30" y="16" text-anchor="middle" class="text-sm" fill="#ffffff">ALL</text>
    </g>
    <g transform="translate(730, 342)">
      <rect x="0" y="0" width="60" height="22" rx="4" fill="#22c55e"/>
      <text x="30" y="16" text-anchor="middle" class="text-sm" fill="#ffffff">ALL</text>
    </g>
    <text x="840" y="357" class="text-sm">Full access + audit</text>

    <!-- Row: sessions table (ADDED - was missing) -->
    <line x1="10" y1="370" x2="990" y2="370" stroke="#475569" stroke-opacity="0.5"/>
    <rect x="5" y="375" width="990" height="35" fill="transparent"/>
    <text x="180" y="397" text-anchor="middle" class="table-cell">sessions</text>
    <g transform="translate(310, 382)">
      <rect x="0" y="0" width="60" height="22" rx="4" fill="#22c55e"/>
      <text x="30" y="16" text-anchor="middle" class="text-sm" fill="#ffffff">ALL</text>
    </g>
    <g transform="translate(450, 382)">
      <rect x="0" y="0" width="60" height="22" rx="4" fill="#22c55e"/>
      <text x="30" y="16" text-anchor="middle" class="text-sm" fill="#ffffff">ALL</text>
    </g>
    <g transform="translate(590, 382)">
      <rect x="0" y="0" width="60" height="22" rx="4" fill="#22c55e"/>
      <text x="30" y="16" text-anchor="middle" class="text-sm" fill="#ffffff">ALL</text>
    </g>
    <g transform="translate(730, 382)">
      <rect x="0" y="0" width="60" height="22" rx="4" fill="#22c55e"/>
      <text x="30" y="16" text-anchor="middle" class="text-sm" fill="#ffffff">ALL</text>
    </g>
    <text x="840" y="397" class="text-sm">Full access + audit</text>

    <!-- Row: audit_logs table (special) -->
    <line x1="10" y1="410" x2="990" y2="410" stroke="#475569" stroke-opacity="0.5"/>
    <rect x="5" y="415" width="990" height="35" fill="transparent"/>
    <text x="180" y="437" text-anchor="middle" class="table-cell">audit_logs</text>
    <g transform="translate(310, 422)">
      <rect x="0" y="0" width="60" height="22" rx="4" fill="#22c55e"/>
      <text x="30" y="16" text-anchor="middle" class="text-sm" fill="#ffffff">ALL</text>
    </g>
    <g transform="translate(450, 422)">
      <rect x="0" y="0" width="60" height="22" rx="4" fill="#22c55e"/>
      <text x="30" y="16" text-anchor="middle" class="text-sm" fill="#ffffff">ALL</text>
    </g>
    <g transform="translate(590, 422)">
      <rect x="0" y="0" width="60" height="22" rx="4" fill="#ef4444"/>
      <text x="30" y="16" text-anchor="middle" class="text-sm" fill="#ffffff">DENY</text>
    </g>
    <g transform="translate(730, 422)">
      <rect x="0" y="0" width="60" height="22" rx="4" fill="#ef4444"/>
      <text x="30" y="16" text-anchor="middle" class="text-sm" fill="#ffffff">DENY</text>
    </g>
    <text x="840" y="437" class="text-sm">INSERT only - immutable</text>

    <!-- ==================== ANONYMOUS SECTION (with FR references) ==================== -->
    <rect x="5" y="460" width="990" height="35" rx="4" fill="#64748b" opacity="0.15"/>
    <text x="20" y="483" class="heading" fill="#b4bcc8">ANON (unauthenticated) - FR-019 to FR-021</text>

    <!-- Row: All protected tables (shortened text) -->
    <rect x="5" y="500" width="990" height="35" fill="transparent"/>
    <text x="180" y="522" text-anchor="middle" class="table-cell">All protected tables</text>
    <g transform="translate(310, 507)">
      <rect x="0" y="0" width="60" height="22" rx="4" fill="#ef4444"/>
      <text x="30" y="16" text-anchor="middle" class="text-sm" fill="#ffffff">DENY</text>
    </g>
    <g transform="translate(450, 507)">
      <rect x="0" y="0" width="60" height="22" rx="4" fill="#ef4444"/>
      <text x="30" y="16" text-anchor="middle" class="text-sm" fill="#ffffff">DENY</text>
    </g>
    <g transform="translate(590, 507)">
      <rect x="0" y="0" width="60" height="22" rx="4" fill="#ef4444"/>
      <text x="30" y="16" text-anchor="middle" class="text-sm" fill="#ffffff">DENY</text>
    </g>
    <g transform="translate(730, 507)">
      <rect x="0" y="0" width="60" height="22" rx="4" fill="#ef4444"/>
      <text x="30" y="16" text-anchor="middle" class="text-sm" fill="#ffffff">DENY</text>
    </g>
    <text x="840" y="522" class="text-sm">No protected access</text>
  </g>

  <!-- ==================== LEGEND ==================== -->
  <g transform="translate(1070, 50)">
    <rect x="0" y="0" width="290" height="165" rx="8" fill="#1e293b" stroke="#475569"/>
    <text x="145" y="25" text-anchor="middle" class="heading">Legend</text>
    <line x1="20" y1="35" x2="270" y2="35" stroke="#475569"/>

    <g transform="translate(20, 50)">
      <rect x="0" y="0" width="50" height="22" rx="4" fill="#22c55e"/>
      <text x="25" y="16" text-anchor="middle" class="text-sm" fill="#ffffff">ALL</text>
      <text x="65" y="16" class="text-md">Full access (all rows)</text>
    </g>

    <g transform="translate(20, 85)">
      <rect x="0" y="0" width="50" height="22" rx="4" fill="#8b5cf6"/>
      <text x="25" y="16" text-anchor="middle" class="text-sm" fill="#ffffff">OWN</text>
      <text x="65" y="16" class="text-md">Own rows only (auth.uid())</text>
    </g>

    <g transform="translate(20, 120)">
      <rect x="0" y="0" width="50" height="22" rx="4" fill="#ef4444"/>
      <text x="25" y="16" text-anchor="middle" class="text-sm" fill="#ffffff">DENY</text>
      <text x="65" y="16" class="text-md">Operation blocked</text>
    </g>
  </g>

  <!-- ==================== KEY REQUIREMENTS (with consistent styling) ==================== -->
  <g transform="translate(1070, 235)">
    <rect x="0" y="0" width="290" height="280" rx="8" fill="#1e293b" stroke="#475569"/>
    <text x="145" y="25" text-anchor="middle" class="heading">Key Requirements</text>
    <line x1="20" y1="35" x2="270" y2="35" stroke="#475569"/>

    <text x="20" y="58" class="text-md" fill="#22c55e">FR-006 to FR-010</text>
    <text x="20" y="75" class="text-sm">User data isolation enforced</text>

    <text x="20" y="100" class="text-md" fill="#8b5cf6">FR-011 to FR-014</text>
    <text x="20" y="117" class="text-sm">Service role bypass with audit</text>

    <text x="20" y="142" class="text-md" fill="#ef4444">FR-015 to FR-018</text>
    <text x="20" y="159" class="text-sm">Audit log immutability</text>

    <text x="20" y="184" class="text-md" fill="#64748b">FR-019 to FR-021</text>
    <text x="20" y="201" class="text-sm">Anonymous access restrictions</text>

    <line x1="20" y1="220" x2="270" y2="220" stroke="#475569"/>

    <text x="20" y="243" class="text-md" fill="#eab308">Critical Behaviors</text>
    <text x="20" y="260" class="text-sm">Empty result on unauthorized query</text>
    <text x="20" y="277" class="text-sm">No user enumeration possible</text>
  </g>

  <!-- ==================== COMPLIANCE SECTION ==================== -->
  <g transform="translate(40, 600)">
    <rect x="0" y="0" width="1320" height="130" rx="8" fill="#1e293b" stroke="#475569"/>
    <text x="660" y="25" text-anchor="middle" class="heading">Compliance &amp; Success Criteria</text>
    <line x1="20" y1="35" x2="1300" y2="35" stroke="#475569"/>

    <!-- Success criteria boxes -->
    <g transform="translate(20, 50)">
      <rect x="0" y="0" width="200" height="65" rx="6" fill="#334155"/>
      <text x="100" y="20" text-anchor="middle" class="text-md" fill="#22c55e">SC-002</text>
      <text x="100" y="38" text-anchor="middle" class="text-sm">0 cross-user access</text>
      <text x="100" y="55" text-anchor="middle" class="text-muted">100% data isolation</text>
    </g>

    <g transform="translate(240, 50)">
      <rect x="0" y="0" width="200" height="65" rx="6" fill="#334155"/>
      <text x="100" y="20" text-anchor="middle" class="text-md" fill="#8b5cf6">SC-003</text>
      <text x="100" y="38" text-anchor="middle" class="text-sm">Service ops succeed</text>
      <text x="100" y="55" text-anchor="middle" class="text-muted">All documented use cases</text>
    </g>

    <g transform="translate(460, 50)">
      <rect x="0" y="0" width="200" height="65" rx="6" fill="#334155"/>
      <text x="100" y="20" text-anchor="middle" class="text-md" fill="#f59e0b">SC-004</text>
      <text x="100" y="38" text-anchor="middle" class="text-sm">&lt;10ms policy overhead</text>
      <text x="100" y="55" text-anchor="middle" class="text-muted">Per query latency</text>
    </g>

    <g transform="translate(680, 50)">
      <rect x="0" y="0" width="200" height="65" rx="6" fill="#334155"/>
      <text x="100" y="20" text-anchor="middle" class="text-md" fill="#ef4444">SC-007</text>
      <text x="100" y="38" text-anchor="middle" class="text-sm">Audit integrity</text>
      <text x="100" y="55" text-anchor="middle" class="text-muted">0 modify/delete success</text>
    </g>

    <g transform="translate(900, 50)">
      <rect x="0" y="0" width="200" height="65" rx="6" fill="#334155"/>
      <text x="100" y="20" text-anchor="middle" class="text-md" fill="#64748b">SC-008</text>
      <text x="100" y="38" text-anchor="middle" class="text-sm">No enumeration</text>
      <text x="100" y="55" text-anchor="middle" class="text-muted">0 user IDs exposed</text>
    </g>

    <g transform="translate(1120, 50)">
      <rect x="0" y="0" width="180" height="65" rx="6" fill="#334155" stroke="#22c55e"/>
      <text x="90" y="20" text-anchor="middle" class="text-md" fill="#22c55e">GDPR + SOC 2</text>
      <text x="90" y="38" text-anchor="middle" class="text-sm">Compliance ready</text>
      <text x="90" y="55" text-anchor="middle" class="text-muted">99.9% SLA target</text>
    </g>
  </g>

  <!-- ==================== FOOTER ==================== -->
  <text x="700" y="780" text-anchor="middle" class="text-muted">000-rls-implementation | Access Control Matrix | ScriptHammer</text>
</svg>
