<svg xmlns="http://www.w3.org/2000/svg" viewBox="0 0 1400 800" width="1400" height="800">
  <!-- ============================================================
       GENERATED BY: /wireframe skill
       SOURCE: features/foundation/000-rls-implementation/spec.md
       DATE: 2026-01-02
       THEME: Dark (Backend/Architecture)
       REGENERATED WITH FEEDBACK: features/foundation/000-rls-implementation/WIREFRAME_ISSUES.md
       PASS 9 FIXES: Text overlap, red badge contrast, GDPR soft delete
       PASS 10 FIXES: Purple OWN badge contrast (dark text #1e1b4b on #8b5cf6)
       DO NOT MANUALLY EDIT - Regenerate with /wireframe command
       ============================================================ -->
  <defs>
    <linearGradient id="bgGrad" x1="0%" y1="0%" x2="100%" y2="100%">
      <stop offset="0%" style="stop-color:#0f172a"/>
      <stop offset="100%" style="stop-color:#1e293b"/>
    </linearGradient>
    <linearGradient id="accentGrad" x1="0%" y1="0%" x2="100%" y2="0%">
      <stop offset="0%" style="stop-color:#8b5cf6"/>
      <stop offset="100%" style="stop-color:#d946ef"/>
    </linearGradient>
    <style>
      /* Typography - MANDATORY SIZES - DO NOT REDUCE */
      .heading-lg { fill: #ffffff; font-family: system-ui, sans-serif; font-size: 24px; font-weight: bold; }
      .heading { fill: #ffffff; font-family: system-ui, sans-serif; font-size: 16px; font-weight: bold; }
      .heading-sm { fill: #ffffff; font-family: system-ui, sans-serif; font-size: 14px; font-weight: bold; }
      .text-md { fill: #cbd5e1; font-family: system-ui, sans-serif; font-size: 14px; }
      .text-sm { fill: #94a3b8; font-family: system-ui, sans-serif; font-size: 13px; }
      .text-muted { fill: #b4bcc8; font-family: system-ui, sans-serif; font-size: 12px; }
      .code { fill: #e2e8f0; font-family: monospace; font-size: 13px; }
      .annotation { fill: #c4b5fd; font-family: monospace; font-size: 12px; font-weight: bold; }
      .table-header { fill: #ffffff; font-family: system-ui, sans-serif; font-size: 14px; font-weight: bold; }
      /* Dark text on green - WCAG AA compliant (~12:1 ratio) */
      .badge-text-on-green { fill: #052e16; font-family: system-ui, sans-serif; font-size: 13px; font-weight: bold; }
      /* Dark text on red - WCAG AA compliant (~10:1 ratio) */
      .badge-text-on-red { fill: #450a0a; font-family: system-ui, sans-serif; font-size: 13px; font-weight: bold; }
      /* Dark text on amber - WCAG AA compliant */
      .badge-text-on-amber { fill: #451a03; font-family: system-ui, sans-serif; font-size: 13px; font-weight: bold; }
      /* Dark text on purple - WCAG AA compliant (~5:1 ratio) */
      .badge-text-on-purple { fill: #1e1b4b; font-family: system-ui, sans-serif; font-size: 13px; font-weight: bold; }
    </style>
  </defs>

  <!-- Background -->
  <rect width="1400" height="800" fill="url(#bgGrad)"/>

  <!-- Dot grid pattern -->
  <g opacity="0.05">
    <pattern id="dots" width="30" height="30" patternUnits="userSpaceOnUse">
      <circle cx="15" cy="15" r="1" fill="#fff"/>
    </pattern>
    <rect width="1400" height="800" fill="url(#dots)"/>
  </g>

  <!-- Accent line top -->
  <rect x="0" y="0" width="1400" height="3" fill="url(#accentGrad)"/>

  <!-- Title -->
  <text x="700" y="32" text-anchor="middle" class="heading-lg">ACCESS CONTROL MATRIX</text>
  <text x="700" y="54" text-anchor="middle" class="text-muted">Role-Based Permissions for Protected Tables</text>

  <!-- ==================== MATRIX TABLE (y=75-565) ==================== -->
  <rect x="40" y="75" width="1020" height="490" rx="8" fill="#1e293b" stroke="#475569"/>

  <!-- Table Header Row -->
  <rect x="40" y="75" width="1020" height="45" rx="8" fill="#334155"/>
  <text x="130" y="105" text-anchor="middle" class="table-header">TABLE</text>
  <text x="280" y="105" text-anchor="middle" class="table-header">SELECT</text>
  <text x="420" y="105" text-anchor="middle" class="table-header">INSERT</text>
  <text x="560" y="105" text-anchor="middle" class="table-header">UPDATE</text>
  <text x="700" y="105" text-anchor="middle" class="table-header">DELETE</text>
  <text x="880" y="105" text-anchor="middle" class="table-header">NOTES</text>

  <!-- Divider lines -->
  <line x1="200" y1="75" x2="200" y2="565" stroke="#475569" stroke-width="1"/>
  <line x1="350" y1="75" x2="350" y2="565" stroke="#475569" stroke-width="1"/>
  <line x1="490" y1="75" x2="490" y2="565" stroke="#475569" stroke-width="1"/>
  <line x1="630" y1="75" x2="630" y2="565" stroke="#475569" stroke-width="1"/>
  <line x1="770" y1="75" x2="770" y2="565" stroke="#475569" stroke-width="1"/>

  <!-- ==================== AUTHENTICATED SECTION (y=120-296) ==================== -->
  <rect x="40" y="120" width="1020" height="32" fill="#22c55e" opacity="0.2"/>
  <text x="60" y="143" class="heading" fill="#22c55e">AUTHENTICATED</text>
  <text x="200" y="143" class="annotation">FR-006 to FR-010</text>

  <!-- users row -->
  <rect x="40" y="152" width="1020" height="36" fill="#0f172a" opacity="0.5"/>
  <text x="60" y="177" class="code">users</text>
  <rect x="250" y="159" width="60" height="24" rx="4" fill="#8b5cf6"/>
  <text x="280" y="177" text-anchor="middle" class="badge-text-on-purple">OWN</text>
  <rect x="390" y="159" width="60" height="24" rx="4" fill="#ef4444"/>
  <text x="420" y="177" text-anchor="middle" class="badge-text-on-red">DENY</text>
  <rect x="530" y="159" width="60" height="24" rx="4" fill="#ef4444"/>
  <text x="560" y="177" text-anchor="middle" class="badge-text-on-red">DENY</text>
  <rect x="670" y="159" width="60" height="24" rx="4" fill="#ef4444"/>
  <text x="700" y="177" text-anchor="middle" class="badge-text-on-red">DENY</text>
  <text x="785" y="177" class="text-sm">System-managed</text>

  <!-- profiles row (SOFT* for DELETE - GDPR compliance) -->
  <rect x="40" y="188" width="1020" height="36" fill="transparent"/>
  <text x="60" y="213" class="code">profiles</text>
  <rect x="250" y="195" width="60" height="24" rx="4" fill="#8b5cf6"/>
  <text x="280" y="213" text-anchor="middle" class="badge-text-on-purple">OWN</text>
  <rect x="390" y="195" width="60" height="24" rx="4" fill="#ef4444"/>
  <text x="420" y="213" text-anchor="middle" class="badge-text-on-red">DENY</text>
  <rect x="530" y="195" width="60" height="24" rx="4" fill="#8b5cf6"/>
  <text x="560" y="213" text-anchor="middle" class="badge-text-on-purple">OWN</text>
  <rect x="670" y="195" width="60" height="24" rx="4" fill="#f59e0b"/>
  <text x="700" y="213" text-anchor="middle" class="badge-text-on-amber">SOFT*</text>
  <text x="785" y="213" class="text-sm">Self-management</text>

  <!-- sessions row -->
  <rect x="40" y="224" width="1020" height="36" fill="#0f172a" opacity="0.5"/>
  <text x="60" y="249" class="code">sessions</text>
  <rect x="250" y="231" width="60" height="24" rx="4" fill="#8b5cf6"/>
  <text x="280" y="249" text-anchor="middle" class="badge-text-on-purple">OWN</text>
  <rect x="390" y="231" width="60" height="24" rx="4" fill="#ef4444"/>
  <text x="420" y="249" text-anchor="middle" class="badge-text-on-red">DENY</text>
  <rect x="530" y="231" width="60" height="24" rx="4" fill="#ef4444"/>
  <text x="560" y="249" text-anchor="middle" class="badge-text-on-red">DENY</text>
  <rect x="670" y="231" width="60" height="24" rx="4" fill="#ef4444"/>
  <text x="700" y="249" text-anchor="middle" class="badge-text-on-red">DENY</text>
  <text x="785" y="249" class="text-sm">Read-only</text>

  <!-- audit_logs row -->
  <rect x="40" y="260" width="1020" height="36" fill="transparent"/>
  <text x="60" y="285" class="code">audit_logs</text>
  <rect x="250" y="267" width="60" height="24" rx="4" fill="#8b5cf6"/>
  <text x="280" y="285" text-anchor="middle" class="badge-text-on-purple">OWN</text>
  <rect x="390" y="267" width="60" height="24" rx="4" fill="#ef4444"/>
  <text x="420" y="285" text-anchor="middle" class="badge-text-on-red">DENY</text>
  <rect x="530" y="267" width="60" height="24" rx="4" fill="#ef4444"/>
  <text x="560" y="285" text-anchor="middle" class="badge-text-on-red">DENY</text>
  <rect x="670" y="267" width="60" height="24" rx="4" fill="#ef4444"/>
  <text x="700" y="285" text-anchor="middle" class="badge-text-on-red">DENY</text>
  <text x="785" y="285" class="text-sm">Immutable</text>

  <!-- ==================== SERVICE_ROLE SECTION (y=310-450) ==================== -->
  <rect x="40" y="310" width="1020" height="32" fill="#8b5cf6" opacity="0.2"/>
  <text x="60" y="333" class="heading" fill="#8b5cf6">SERVICE_ROLE</text>
  <text x="200" y="333" class="annotation">FR-011 to FR-014</text>

  <!-- users row (DARK TEXT on green badges - WCAG AA) -->
  <rect x="40" y="342" width="1020" height="36" fill="#0f172a" opacity="0.5"/>
  <text x="60" y="367" class="code">users</text>
  <rect x="250" y="349" width="60" height="24" rx="4" fill="#22c55e"/>
  <text x="280" y="367" text-anchor="middle" class="badge-text-on-green">ALL</text>
  <rect x="390" y="349" width="60" height="24" rx="4" fill="#22c55e"/>
  <text x="420" y="367" text-anchor="middle" class="badge-text-on-green">ALL</text>
  <rect x="530" y="349" width="60" height="24" rx="4" fill="#22c55e"/>
  <text x="560" y="367" text-anchor="middle" class="badge-text-on-green">ALL</text>
  <rect x="670" y="349" width="60" height="24" rx="4" fill="#22c55e"/>
  <text x="700" y="367" text-anchor="middle" class="badge-text-on-green">ALL</text>
  <text x="785" y="367" class="text-sm">Full access</text>

  <!-- profiles row -->
  <rect x="40" y="378" width="1020" height="36" fill="transparent"/>
  <text x="60" y="403" class="code">profiles</text>
  <rect x="250" y="385" width="60" height="24" rx="4" fill="#22c55e"/>
  <text x="280" y="403" text-anchor="middle" class="badge-text-on-green">ALL</text>
  <rect x="390" y="385" width="60" height="24" rx="4" fill="#22c55e"/>
  <text x="420" y="403" text-anchor="middle" class="badge-text-on-green">ALL</text>
  <rect x="530" y="385" width="60" height="24" rx="4" fill="#22c55e"/>
  <text x="560" y="403" text-anchor="middle" class="badge-text-on-green">ALL</text>
  <rect x="670" y="385" width="60" height="24" rx="4" fill="#22c55e"/>
  <text x="700" y="403" text-anchor="middle" class="badge-text-on-green">ALL</text>
  <text x="785" y="403" class="text-sm">Full access</text>

  <!-- audit_logs row (special - INSERT only) -->
  <rect x="40" y="414" width="1020" height="36" fill="#0f172a" opacity="0.5"/>
  <text x="60" y="439" class="code" fill="#fca5a5">audit_logs</text>
  <rect x="250" y="421" width="60" height="24" rx="4" fill="#22c55e"/>
  <text x="280" y="439" text-anchor="middle" class="badge-text-on-green">ALL</text>
  <rect x="390" y="421" width="60" height="24" rx="4" fill="#22c55e"/>
  <text x="420" y="439" text-anchor="middle" class="badge-text-on-green">ALL</text>
  <rect x="530" y="421" width="60" height="24" rx="4" fill="#ef4444"/>
  <text x="560" y="439" text-anchor="middle" class="badge-text-on-red">DENY</text>
  <rect x="670" y="421" width="60" height="24" rx="4" fill="#ef4444"/>
  <text x="700" y="439" text-anchor="middle" class="badge-text-on-red">DENY</text>
  <text x="785" y="439" class="text-sm" fill="#fca5a5">INSERT only!</text>

  <!-- ==================== ANON SECTION (y=460-565) ==================== -->
  <rect x="40" y="465" width="1020" height="32" fill="#64748b" opacity="0.2"/>
  <text x="60" y="488" class="heading" fill="#94a3b8">ANON (Unauthenticated)</text>
  <text x="280" y="488" class="annotation">FR-019 to FR-021</text>

  <!-- All tables row -->
  <rect x="40" y="497" width="1020" height="50" fill="#0f172a" opacity="0.5"/>
  <text x="60" y="528" class="code">*all tables*</text>
  <rect x="250" y="510" width="60" height="24" rx="4" fill="#ef4444"/>
  <text x="280" y="528" text-anchor="middle" class="badge-text-on-red">DENY</text>
  <rect x="390" y="510" width="60" height="24" rx="4" fill="#ef4444"/>
  <text x="420" y="528" text-anchor="middle" class="badge-text-on-red">DENY</text>
  <rect x="530" y="510" width="60" height="24" rx="4" fill="#ef4444"/>
  <text x="560" y="528" text-anchor="middle" class="badge-text-on-red">DENY</text>
  <rect x="670" y="510" width="60" height="24" rx="4" fill="#ef4444"/>
  <text x="700" y="528" text-anchor="middle" class="badge-text-on-red">DENY</text>
  <text x="785" y="528" class="text-sm">No access to protected tables</text>

  <!-- ==================== LEGEND (y=75-285) ==================== -->
  <rect x="1080" y="75" width="280" height="210" rx="8" fill="#1e293b" stroke="#475569"/>
  <text x="1100" y="105" class="heading">LEGEND</text>

  <!-- ALL badge (DARK TEXT on green) -->
  <rect x="1100" y="125" width="50" height="24" rx="4" fill="#22c55e"/>
  <text x="1125" y="143" text-anchor="middle" class="badge-text-on-green">ALL</text>
  <text x="1165" y="143" class="text-md">Full access</text>

  <rect x="1100" y="160" width="50" height="24" rx="4" fill="#8b5cf6"/>
  <text x="1125" y="178" text-anchor="middle" class="badge-text-on-purple">OWN</text>
  <text x="1165" y="178" class="text-md">Own rows only</text>

  <rect x="1100" y="195" width="50" height="24" rx="4" fill="#ef4444"/>
  <text x="1125" y="213" text-anchor="middle" class="badge-text-on-red">DENY</text>
  <text x="1165" y="213" class="text-md">No access</text>

  <!-- SOFT badge (GDPR soft delete) -->
  <rect x="1100" y="230" width="50" height="24" rx="4" fill="#f59e0b"/>
  <text x="1125" y="248" text-anchor="middle" class="badge-text-on-amber">SOFT*</text>
  <text x="1165" y="248" class="text-md">Soft delete</text>

  <text x="1100" y="275" class="text-sm">OWN = auth.uid() = user_id</text>

  <!-- Success Criteria Panel -->
  <rect x="1080" y="305" width="280" height="260" rx="8" fill="#1e293b" stroke="#8b5cf6"/>
  <text x="1100" y="335" class="heading" fill="#c4b5fd">SUCCESS CRITERIA</text>

  <text x="1100" y="365" class="code">SC-001</text>
  <text x="1160" y="365" class="text-sm">All tables protected</text>

  <text x="1100" y="395" class="code">SC-002</text>
  <text x="1160" y="395" class="text-sm">Zero cross-user access</text>

  <text x="1100" y="425" class="code">SC-003</text>
  <text x="1160" y="425" class="text-sm">Service role works</text>

  <text x="1100" y="455" class="code">SC-004</text>
  <text x="1160" y="455" class="text-sm">&lt;10ms policy overhead</text>

  <text x="1100" y="485" class="code">SC-005</text>
  <text x="1160" y="485" class="text-sm">100% test coverage</text>

  <text x="1100" y="515" class="code">SC-007</text>
  <text x="1160" y="515" class="text-sm">Audit log immutable</text>

  <text x="1100" y="545" class="code">SC-008</text>
  <text x="1160" y="545" class="text-sm">No user enumeration</text>

  <!-- ==================== COMPLIANCE FOOTER (y=590-740) - TEXT OVERLAP FIXED ==================== -->
  <rect x="40" y="590" width="1320" height="140" rx="8" fill="#1e293b" stroke="#8b5cf6"/>
  <text x="60" y="620" class="heading" fill="#c4b5fd">COMPLIANCE &amp; KEY BEHAVIORS</text>

  <!-- Left column (x=60) - SPLIT INTO 3 LINES to avoid overlap -->
  <text x="60" y="650" class="text-md">GDPR (EU Data Protection) + SOC 2 (Security Audit)</text>
  <text x="60" y="675" class="text-sm">Audit logs immutable (FR-015-018)</text>
  <text x="60" y="695" class="text-sm">Data isolation verified (SC-002) | 99.9% uptime</text>

  <!-- Middle column (x=520) - shifted right to avoid collision -->
  <text x="520" y="650" class="text-md">Policy Violation Behavior (FR-010)</text>
  <text x="520" y="675" class="text-sm">Unauthorized queries return EMPTY RESULTS</text>
  <text x="520" y="695" class="text-sm">(not errors) - Prevents enumeration attacks</text>

  <!-- Right column (x=950) -->
  <text x="950" y="650" class="text-md">Service Role Security (FR-014)</text>
  <text x="950" y="675" class="text-sm">Credentials NEVER exposed to client</text>
  <text x="950" y="695" class="text-sm">.env only | All usage logged</text>

  <!-- GDPR footnote for SOFT* badge -->
  <text x="60" y="720" class="text-sm" fill="#fcd34d">* SOFT = User can request deletion (sets deleted_at), actual erasure via service_role for GDPR Article 17 compliance</text>

  <!-- Footer (MUST be at y=780, LEFT-ALIGNED at x=60) -->
  <text x="60" y="780" text-anchor="start" class="text-muted">000:03 | Access Control Matrix | ScriptHammer</text>
</svg>
