<svg xmlns="http://www.w3.org/2000/svg" viewBox="0 0 1400 800" width="1400" height="800">
  <!-- ============================================================
       GENERATED BY: /wireframe skill
       SOURCE: features/foundation/000-rls-implementation/spec.md
       DATE: 2025-12-31
       THEME: Dark (Backend/Architecture)
       DO NOT MANUALLY EDIT - Regenerate with /wireframe command
       ============================================================ -->
  <defs>
    <linearGradient id="bgGrad" x1="0%" y1="0%" x2="100%" y2="100%">
      <stop offset="0%" style="stop-color:#0f172a"/>
      <stop offset="100%" style="stop-color:#1e293b"/>
    </linearGradient>
    <linearGradient id="accentGrad" x1="0%" y1="0%" x2="100%" y2="0%">
      <stop offset="0%" style="stop-color:#8b5cf6"/>
      <stop offset="100%" style="stop-color:#d946ef"/>
    </linearGradient>
    <style>
      /* Typography - AAA compliant */
      .heading-lg { fill: #ffffff; font-family: system-ui, sans-serif; font-size: 20px; font-weight: bold; }
      .heading { fill: #ffffff; font-family: system-ui, sans-serif; font-size: 14px; font-weight: bold; }
      .text-md { fill: #cbd5e1; font-family: system-ui, sans-serif; font-size: 12px; }
      .text-sm { fill: #94a3b8; font-family: system-ui, sans-serif; font-size: 10px; }
      .text-muted { fill: #8494a8; font-family: system-ui, sans-serif; font-size: 10px; }
      .annotation { fill: #8b5cf6; font-family: monospace; font-size: 10px; }
      .label-section { fill: #8b5cf6; font-family: monospace; font-size: 11px; font-weight: bold; }
    </style>
  </defs>

  <!-- Background -->
  <rect width="1400" height="800" fill="url(#bgGrad)"/>

  <!-- Dot grid pattern -->
  <g opacity="0.05">
    <pattern id="dots" width="30" height="30" patternUnits="userSpaceOnUse">
      <circle cx="15" cy="15" r="1" fill="#fff"/>
    </pattern>
    <rect width="1400" height="800" fill="url(#dots)"/>
  </g>

  <!-- Accent line top -->
  <rect x="0" y="0" width="1400" height="3" fill="url(#accentGrad)"/>

  <!-- Title -->
  <text x="700" y="28" text-anchor="middle" font-family="system-ui, sans-serif" font-size="14" font-weight="600" fill="#8494a8" letter-spacing="1">ROW LEVEL SECURITY - ROLE ACCESS MATRIX</text>

  <!-- ACCESS MATRIX TABLE -->
  <text x="40" y="60" class="label-section">PERMISSION MATRIX BY ROLE</text>

  <g transform="translate(40, 80)">
    <!-- Table Header Row -->
    <rect width="900" height="45" rx="0" fill="#334155"/>
    <line x1="0" y1="45" x2="900" y2="45" stroke="#475569" stroke-width="1"/>

    <!-- Column Headers -->
    <text x="90" y="30" text-anchor="middle" class="heading">Table</text>
    <line x1="180" y1="5" x2="180" y2="45" stroke="#475569"/>

    <text x="270" y="20" text-anchor="middle" class="heading">anon</text>
    <text x="270" y="35" text-anchor="middle" class="text-muted">(unauthenticated)</text>
    <line x1="360" y1="5" x2="360" y2="45" stroke="#475569"/>

    <text x="450" y="20" text-anchor="middle" class="heading">authenticated</text>
    <text x="450" y="35" text-anchor="middle" class="text-muted">(logged-in user)</text>
    <line x1="540" y1="5" x2="540" y2="45" stroke="#475569"/>

    <text x="630" y="20" text-anchor="middle" class="heading">service_role</text>
    <text x="630" y="35" text-anchor="middle" class="text-muted">(backend)</text>
    <line x1="720" y1="5" x2="720" y2="45" stroke="#475569"/>

    <text x="810" y="28" text-anchor="middle" class="heading">Policy Pattern</text>

    <!-- Row 1: users -->
    <g transform="translate(0, 45)">
      <rect width="900" height="55" fill="#1e293b"/>
      <line x1="0" y1="55" x2="900" y2="55" stroke="#475569"/>

      <text x="90" y="32" text-anchor="middle" class="heading">users</text>
      <line x1="180" y1="0" x2="180" y2="55" stroke="#475569"/>

      <!-- anon permissions -->
      <g transform="translate(225, 15)">
        <rect width="30" height="25" rx="4" fill="#ef4444" opacity="0.2"/>
        <text x="15" y="17" text-anchor="middle" fill="#ef4444" font-size="10">—</text>
        <text x="60" y="17" class="text-muted">No access</text>
      </g>
      <line x1="360" y1="0" x2="360" y2="55" stroke="#475569"/>

      <!-- authenticated permissions -->
      <g transform="translate(390, 15)">
        <rect width="30" height="25" rx="4" fill="#22c55e" opacity="0.2"/>
        <text x="15" y="17" text-anchor="middle" fill="#22c55e" font-size="10">S</text>
        <text x="45" y="17" class="text-muted">Own only</text>
      </g>
      <line x1="540" y1="0" x2="540" y2="55" stroke="#475569"/>

      <!-- service_role permissions -->
      <g transform="translate(570, 15)">
        <rect width="30" height="25" rx="4" fill="#eab308" opacity="0.2"/>
        <text x="15" y="17" text-anchor="middle" fill="#eab308" font-size="10">*</text>
        <text x="45" y="17" class="text-muted">Full</text>
      </g>
      <line x1="720" y1="0" x2="720" y2="55" stroke="#475569"/>

      <text x="810" y="32" text-anchor="middle" class="text-sm">Owner Isolation</text>
    </g>

    <!-- Row 2: profiles -->
    <g transform="translate(0, 100)">
      <rect width="900" height="55" fill="#0f172a"/>
      <line x1="0" y1="55" x2="900" y2="55" stroke="#475569"/>

      <text x="90" y="32" text-anchor="middle" class="heading">profiles</text>
      <line x1="180" y1="0" x2="180" y2="55" stroke="#475569"/>

      <!-- anon permissions -->
      <g transform="translate(225, 15)">
        <rect width="30" height="25" rx="4" fill="#ef4444" opacity="0.2"/>
        <text x="15" y="17" text-anchor="middle" fill="#ef4444" font-size="10">—</text>
        <text x="60" y="17" class="text-muted">No access</text>
      </g>
      <line x1="360" y1="0" x2="360" y2="55" stroke="#475569"/>

      <!-- authenticated permissions -->
      <g transform="translate(390, 8)">
        <rect width="30" height="20" rx="4" fill="#22c55e" opacity="0.2"/>
        <text x="15" y="14" text-anchor="middle" fill="#22c55e" font-size="10">S</text>
        <rect x="35" y="0" width="30" height="20" rx="4" fill="#3b82f6" opacity="0.2"/>
        <text x="50" y="14" text-anchor="middle" fill="#3b82f6" font-size="10">U</text>
        <text x="80" y="14" class="text-muted">Own</text>
      </g>
      <line x1="540" y1="0" x2="540" y2="55" stroke="#475569"/>

      <!-- service_role permissions -->
      <g transform="translate(570, 15)">
        <rect width="30" height="25" rx="4" fill="#eab308" opacity="0.2"/>
        <text x="15" y="17" text-anchor="middle" fill="#eab308" font-size="10">*</text>
        <text x="45" y="17" class="text-muted">Full</text>
      </g>
      <line x1="720" y1="0" x2="720" y2="55" stroke="#475569"/>

      <text x="810" y="32" text-anchor="middle" class="text-sm">Owner Isolation</text>
    </g>

    <!-- Row 3: sessions -->
    <g transform="translate(0, 155)">
      <rect width="900" height="55" fill="#1e293b"/>
      <line x1="0" y1="55" x2="900" y2="55" stroke="#475569"/>

      <text x="90" y="32" text-anchor="middle" class="heading">sessions</text>
      <line x1="180" y1="0" x2="180" y2="55" stroke="#475569"/>

      <!-- anon permissions -->
      <g transform="translate(225, 15)">
        <rect width="30" height="25" rx="4" fill="#ef4444" opacity="0.2"/>
        <text x="15" y="17" text-anchor="middle" fill="#ef4444" font-size="10">—</text>
        <text x="60" y="17" class="text-muted">No access</text>
      </g>
      <line x1="360" y1="0" x2="360" y2="55" stroke="#475569"/>

      <!-- authenticated permissions -->
      <g transform="translate(390, 15)">
        <rect width="30" height="25" rx="4" fill="#22c55e" opacity="0.2"/>
        <text x="15" y="17" text-anchor="middle" fill="#22c55e" font-size="10">S</text>
        <text x="45" y="17" class="text-muted">Own only</text>
      </g>
      <line x1="540" y1="0" x2="540" y2="55" stroke="#475569"/>

      <!-- service_role permissions -->
      <g transform="translate(570, 15)">
        <rect width="30" height="25" rx="4" fill="#eab308" opacity="0.2"/>
        <text x="15" y="17" text-anchor="middle" fill="#eab308" font-size="10">*</text>
        <text x="45" y="17" class="text-muted">Full</text>
      </g>
      <line x1="720" y1="0" x2="720" y2="55" stroke="#475569"/>

      <text x="810" y="32" text-anchor="middle" class="text-sm">System Managed</text>
    </g>

    <!-- Row 4: audit_logs -->
    <g transform="translate(0, 210)">
      <rect width="900" height="55" fill="#0f172a"/>
      <rect x="0" y="0" width="900" height="55" fill="#ef4444" opacity="0.05"/>
      <line x1="0" y1="55" x2="900" y2="55" stroke="#ef4444"/>

      <text x="90" y="32" text-anchor="middle" class="heading">audit_logs</text>
      <line x1="180" y1="0" x2="180" y2="55" stroke="#475569"/>

      <!-- anon permissions -->
      <g transform="translate(225, 15)">
        <rect width="30" height="25" rx="4" fill="#ef4444" opacity="0.2"/>
        <text x="15" y="17" text-anchor="middle" fill="#ef4444" font-size="10">—</text>
        <text x="60" y="17" class="text-muted">No access</text>
      </g>
      <line x1="360" y1="0" x2="360" y2="55" stroke="#475569"/>

      <!-- authenticated permissions -->
      <g transform="translate(390, 15)">
        <rect width="30" height="25" rx="4" fill="#22c55e" opacity="0.2"/>
        <text x="15" y="17" text-anchor="middle" fill="#22c55e" font-size="10">S</text>
        <text x="45" y="17" class="text-muted">Own only</text>
      </g>
      <line x1="540" y1="0" x2="540" y2="55" stroke="#475569"/>

      <!-- service_role permissions -->
      <g transform="translate(570, 15)">
        <rect width="30" height="25" rx="4" fill="#eab308" opacity="0.2"/>
        <text x="15" y="17" text-anchor="middle" fill="#eab308" font-size="10">I</text>
        <text x="45" y="17" class="text-muted">Insert</text>
      </g>
      <line x1="720" y1="0" x2="720" y2="55" stroke="#475569"/>

      <text x="810" y="32" text-anchor="middle" fill="#ef4444" font-size="10">IMMUTABLE</text>
    </g>

    <!-- Table border -->
    <rect width="900" height="265" rx="0" fill="none" stroke="#475569"/>
  </g>

  <!-- LEGEND -->
  <g transform="translate(960, 80)">
    <rect width="400" height="265" rx="8" fill="#1e293b" stroke="#475569"/>
    <text x="200" y="30" text-anchor="middle" class="heading">Permission Legend</text>

    <g transform="translate(20, 55)">
      <rect width="35" height="25" rx="4" fill="#22c55e" opacity="0.2"/>
      <text x="17" y="17" text-anchor="middle" fill="#22c55e" font-size="11">S</text>
      <text x="50" y="17" class="text-md">SELECT (Read)</text>
    </g>

    <g transform="translate(200, 55)">
      <rect width="35" height="25" rx="4" fill="#3b82f6" opacity="0.2"/>
      <text x="17" y="17" text-anchor="middle" fill="#3b82f6" font-size="11">U</text>
      <text x="50" y="17" class="text-md">UPDATE</text>
    </g>

    <g transform="translate(20, 95)">
      <rect width="35" height="25" rx="4" fill="#eab308" opacity="0.2"/>
      <text x="17" y="17" text-anchor="middle" fill="#eab308" font-size="11">I</text>
      <text x="50" y="17" class="text-md">INSERT</text>
    </g>

    <g transform="translate(200, 95)">
      <rect width="35" height="25" rx="4" fill="#d946ef" opacity="0.2"/>
      <text x="17" y="17" text-anchor="middle" fill="#d946ef" font-size="11">D</text>
      <text x="50" y="17" class="text-md">DELETE</text>
    </g>

    <g transform="translate(20, 135)">
      <rect width="35" height="25" rx="4" fill="#eab308" opacity="0.2"/>
      <text x="17" y="17" text-anchor="middle" fill="#eab308" font-size="11">*</text>
      <text x="50" y="17" class="text-md">Full Access (bypass)</text>
    </g>

    <g transform="translate(200, 135)">
      <rect width="35" height="25" rx="4" fill="#ef4444" opacity="0.2"/>
      <text x="17" y="17" text-anchor="middle" fill="#ef4444" font-size="11">—</text>
      <text x="50" y="17" class="text-md">No Access</text>
    </g>

    <line x1="20" y1="175" x2="380" y2="175" stroke="#475569"/>

    <text x="200" y="200" text-anchor="middle" class="text-sm">Scope Indicators:</text>
    <text x="200" y="220" text-anchor="middle" class="text-muted">"Own" = auth.uid() = user_id</text>
    <text x="200" y="240" text-anchor="middle" class="text-muted">"Full" = service_role bypass</text>
  </g>

  <!-- POLICY PATTERNS Section -->
  <text x="40" y="380" class="label-section">STANDARD POLICY PATTERNS (TEMPLATES)</text>

  <!-- Pattern 1: Owner Isolation -->
  <g transform="translate(40, 400)">
    <rect width="320" height="160" rx="8" fill="#1e293b" stroke="#22c55e"/>
    <rect x="0" y="0" width="320" height="35" rx="8" fill="#22c55e" opacity="0.15"/>
    <text x="160" y="23" text-anchor="middle" fill="#22c55e" font-size="12" font-weight="bold">FR-022: Owner Isolation</text>

    <g transform="translate(15, 50)">
      <rect width="290" height="55" rx="4" fill="#0f172a"/>
      <text x="10" y="18" fill="#8b5cf6" font-family="monospace" font-size="9">CREATE POLICY "owner_select"</text>
      <text x="10" y="32" fill="#cbd5e1" font-family="monospace" font-size="9">ON table FOR SELECT</text>
      <text x="10" y="46" fill="#22c55e" font-family="monospace" font-size="9">USING (auth.uid() = user_id)</text>
    </g>

    <text x="160" y="130" text-anchor="middle" class="text-sm">Users can only see their own rows</text>
    <text x="160" y="148" text-anchor="middle" class="text-muted">Applied to: users, profiles, sessions</text>
  </g>

  <!-- Pattern 2: Service Bypass -->
  <g transform="translate(380, 400)">
    <rect width="320" height="160" rx="8" fill="#1e293b" stroke="#eab308"/>
    <rect x="0" y="0" width="320" height="35" rx="8" fill="#eab308" opacity="0.15"/>
    <text x="160" y="23" text-anchor="middle" fill="#eab308" font-size="12" font-weight="bold">FR-023: Service Bypass</text>

    <g transform="translate(15, 50)">
      <rect width="290" height="55" rx="4" fill="#0f172a"/>
      <text x="10" y="18" fill="#8b5cf6" font-family="monospace" font-size="9">CREATE POLICY "service_all"</text>
      <text x="10" y="32" fill="#cbd5e1" font-family="monospace" font-size="9">ON table FOR ALL</text>
      <text x="10" y="46" fill="#eab308" font-family="monospace" font-size="9">TO service_role USING (true)</text>
    </g>

    <text x="160" y="130" text-anchor="middle" class="text-sm">Backend services bypass RLS</text>
    <text x="160" y="148" text-anchor="middle" class="text-muted">Logged in audit_logs (FR-012)</text>
  </g>

  <!-- Pattern 3: Immutable Audit -->
  <g transform="translate(720, 400)">
    <rect width="320" height="160" rx="8" fill="#1e293b" stroke="#ef4444"/>
    <rect x="0" y="0" width="320" height="35" rx="8" fill="#ef4444" opacity="0.15"/>
    <text x="160" y="23" text-anchor="middle" fill="#ef4444" font-size="12" font-weight="bold">FR-025: Immutable Audit</text>

    <g transform="translate(15, 50)">
      <rect width="290" height="55" rx="4" fill="#0f172a"/>
      <text x="10" y="18" fill="#8b5cf6" font-family="monospace" font-size="9">-- No UPDATE policy</text>
      <text x="10" y="32" fill="#8b5cf6" font-family="monospace" font-size="9">-- No DELETE policy</text>
      <text x="10" y="46" fill="#ef4444" font-family="monospace" font-size="9">-- INSERT via service_role only</text>
    </g>

    <text x="160" y="130" text-anchor="middle" class="text-sm">Audit logs cannot be modified</text>
    <text x="160" y="148" text-anchor="middle" class="text-muted">Compliance: GDPR + SOC 2</text>
  </g>

  <!-- Pattern 4: Soft Delete -->
  <g transform="translate(1060, 400)">
    <rect width="300" height="160" rx="8" fill="#1e293b" stroke="#8b5cf6"/>
    <rect x="0" y="0" width="300" height="35" rx="8" fill="#8b5cf6" opacity="0.15"/>
    <text x="150" y="23" text-anchor="middle" fill="#8b5cf6" font-size="12" font-weight="bold">FR-024: Soft Delete</text>

    <g transform="translate(15, 50)">
      <rect width="270" height="55" rx="4" fill="#0f172a"/>
      <text x="10" y="18" fill="#8b5cf6" font-family="monospace" font-size="9">-- No DELETE policy</text>
      <text x="10" y="32" fill="#cbd5e1" font-family="monospace" font-size="9">UPDATE table SET</text>
      <text x="10" y="46" fill="#8b5cf6" font-family="monospace" font-size="9">  status = 'deleted'</text>
    </g>

    <text x="150" y="130" text-anchor="middle" class="text-sm">Data preserved, marked deleted</text>
    <text x="150" y="148" text-anchor="middle" class="text-muted">Supports data recovery</text>
  </g>

  <!-- FUNCTIONAL REQUIREMENTS Summary -->
  <text x="40" y="595" class="label-section">FUNCTIONAL REQUIREMENTS COVERAGE</text>

  <g transform="translate(40, 615)">
    <rect width="1320" height="140" rx="8" fill="#1e293b" stroke="#475569"/>

    <!-- FR Groups -->
    <g transform="translate(20, 25)">
      <text x="0" y="0" class="heading">Core Table Security (FR-001 to FR-005)</text>
      <text x="0" y="18" class="text-muted">All tables have RLS enabled before production</text>
    </g>

    <g transform="translate(340, 25)">
      <text x="0" y="0" class="heading">User Isolation (FR-006 to FR-010)</text>
      <text x="0" y="18" class="text-muted">auth.uid() = user_id on all queries</text>
    </g>

    <g transform="translate(660, 25)">
      <text x="0" y="0" class="heading">Service Role (FR-011 to FR-014)</text>
      <text x="0" y="18" class="text-muted">Bypass + audit + credential security</text>
    </g>

    <g transform="translate(980, 25)">
      <text x="0" y="0" class="heading">Audit Protection (FR-015 to FR-018)</text>
      <text x="0" y="18" class="text-muted">Immutable logs, user-scoped reads</text>
    </g>

    <g transform="translate(20, 70)">
      <text x="0" y="0" class="heading">Anonymous Restrictions (FR-019 to FR-021)</text>
      <text x="0" y="18" class="text-muted">No writes, public read only, no enumeration</text>
    </g>

    <g transform="translate(340, 70)">
      <text x="0" y="0" class="heading">Standard Patterns (FR-022 to FR-025)</text>
      <text x="0" y="18" class="text-muted">Templates for future feature tables</text>
    </g>

    <!-- Test coverage indicator -->
    <g transform="translate(660, 60)">
      <rect width="640" height="60" rx="6" fill="#22c55e" opacity="0.1"/>
      <text x="320" y="25" text-anchor="middle" fill="#22c55e" font-size="14" font-weight="bold">SC-005: 100% Test Coverage Required</text>
      <text x="320" y="45" text-anchor="middle" class="text-muted">All 25 functional requirements must have passing integration tests</text>
    </g>
  </g>

  <!-- Footer -->
  <text x="700" y="780" text-anchor="middle" class="text-muted">Feature 000 - Row Level Security Foundation | Role Access Matrix</text>
</svg>
