<svg xmlns="http://www.w3.org/2000/svg" viewBox="0 0 1400 800" width="1400" height="800">
  <!-- ============================================================
       GENERATED BY: /wireframe skill
       SOURCE: features/foundation/000-rls-implementation/spec.md
       DATE: 2025-12-30
       DO NOT MANUALLY EDIT - Regenerate with /wireframe command
       ============================================================ -->
  <defs>
    <linearGradient id="bgGrad" x1="0%" y1="0%" x2="100%" y2="100%">
      <stop offset="0%" style="stop-color:#0f172a"/>
      <stop offset="100%" style="stop-color:#1e293b"/>
    </linearGradient>
    <linearGradient id="accentGrad" x1="0%" y1="0%" x2="100%" y2="0%">
      <stop offset="0%" style="stop-color:#8b5cf6"/>
      <stop offset="100%" style="stop-color:#d946ef"/>
    </linearGradient>
    <marker id="arrowGreen" markerWidth="10" markerHeight="10" refX="9" refY="3" orient="auto" markerUnits="strokeWidth">
      <path d="M0,0 L0,6 L9,3 z" fill="#22c55e"/>
    </marker>
    <marker id="arrowRed" markerWidth="10" markerHeight="10" refX="9" refY="3" orient="auto" markerUnits="strokeWidth">
      <path d="M0,0 L0,6 L9,3 z" fill="#ef4444"/>
    </marker>
    <marker id="arrowViolet" markerWidth="10" markerHeight="10" refX="9" refY="3" orient="auto" markerUnits="strokeWidth">
      <path d="M0,0 L0,6 L9,3 z" fill="#8b5cf6"/>
    </marker>
    <style>
      .heading-lg { fill: #ffffff; font-family: system-ui, sans-serif; font-size: 20px; font-weight: bold; }
      .heading { fill: #ffffff; font-family: system-ui, sans-serif; font-size: 14px; font-weight: bold; }
      .text-md { fill: #cbd5e1; font-family: system-ui, sans-serif; font-size: 12px; }
      .text-sm { fill: #94a3b8; font-family: system-ui, sans-serif; font-size: 10px; }
      .text-muted { fill: #64748b; font-family: system-ui, sans-serif; font-size: 10px; }
      .annotation { fill: #8b5cf6; font-family: monospace; font-size: 10px; }
      .role-label { fill: #ffffff; font-family: monospace; font-size: 11px; font-weight: bold; }
      .table-name { fill: #ffffff; font-family: monospace; font-size: 12px; font-weight: bold; }
      .policy-text { fill: #94a3b8; font-family: monospace; font-size: 9px; }
      .allow { fill: #22c55e; }
      .deny { fill: #ef4444; }
    </style>
  </defs>

  <!-- Background -->
  <rect width="1400" height="800" fill="url(#bgGrad)"/>

  <!-- Dot grid pattern -->
  <g opacity="0.05">
    <pattern id="dots" width="30" height="30" patternUnits="userSpaceOnUse">
      <circle cx="15" cy="15" r="1" fill="#fff"/>
    </pattern>
    <rect width="1400" height="800" fill="url(#dots)"/>
  </g>

  <!-- Accent line top -->
  <rect x="0" y="0" width="1400" height="3" fill="url(#accentGrad)"/>

  <!-- Title -->
  <text x="700" y="32" text-anchor="middle" class="heading-lg">ROW LEVEL SECURITY ARCHITECTURE</text>
  <text x="700" y="52" text-anchor="middle" class="text-muted">Data isolation patterns for Supabase tables</text>

  <!-- ==================== ROLES SECTION (LEFT) ==================== -->
  <text x="60" y="90" class="heading">SECURITY ROLES</text>

  <!-- Authenticated Role -->
  <g transform="translate(40, 110)">
    <rect width="180" height="100" rx="8" fill="#1e293b" stroke="#22c55e" stroke-width="2"/>
    <circle cx="30" cy="30" r="16" fill="#334155"/>
    <text x="30" y="35" text-anchor="middle" fill="#22c55e" font-size="16">👤</text>
    <text x="60" y="28" class="role-label">authenticated</text>
    <text x="60" y="44" class="text-sm">Logged-in users</text>
    <line x1="15" y1="60" x2="165" y2="60" stroke="#475569" stroke-width="1"/>
    <text x="15" y="76" class="policy-text">• Own data only</text>
    <text x="15" y="90" class="policy-text">• SELECT/UPDATE self</text>
  </g>

  <!-- Service Role -->
  <g transform="translate(40, 230)">
    <rect width="180" height="100" rx="8" fill="#1e293b" stroke="#8b5cf6" stroke-width="2"/>
    <circle cx="30" cy="30" r="16" fill="#334155"/>
    <text x="30" y="35" text-anchor="middle" fill="#8b5cf6" font-size="16">⚙️</text>
    <text x="60" y="28" class="role-label">service_role</text>
    <text x="60" y="44" class="text-sm">Backend services</text>
    <line x1="15" y1="60" x2="165" y2="60" stroke="#475569" stroke-width="1"/>
    <text x="15" y="76" class="policy-text">• Bypass RLS</text>
    <text x="15" y="90" class="policy-text">• Audited operations</text>
  </g>

  <!-- Anon Role -->
  <g transform="translate(40, 350)">
    <rect width="180" height="100" rx="8" fill="#1e293b" stroke="#ef4444" stroke-width="2"/>
    <circle cx="30" cy="30" r="16" fill="#334155"/>
    <text x="30" y="35" text-anchor="middle" fill="#ef4444" font-size="16">🚫</text>
    <text x="60" y="28" class="role-label">anon</text>
    <text x="60" y="44" class="text-sm">Unauthenticated</text>
    <line x1="15" y1="60" x2="165" y2="60" stroke="#475569" stroke-width="1"/>
    <text x="15" y="76" class="policy-text">• Public read only</text>
    <text x="15" y="90" class="policy-text">• No write access</text>
  </g>

  <!-- ==================== TABLES SECTION (CENTER) ==================== -->
  <text x="500" y="90" class="heading">PROTECTED TABLES</text>

  <!-- Users Table -->
  <g transform="translate(320, 110)">
    <rect width="200" height="90" rx="8" fill="#1e293b" stroke="#475569" stroke-width="1"/>
    <rect width="200" height="28" rx="8" fill="#334155"/>
    <text x="100" y="19" text-anchor="middle" class="table-name">users</text>
    <text x="15" y="48" class="text-sm">id, email, created_at</text>
    <line x1="15" y1="58" x2="185" y2="58" stroke="#475569" stroke-width="1"/>
    <text x="15" y="75" class="policy-text allow">✓ SELECT own record</text>
    <text x="115" y="75" class="policy-text deny">✗ UPDATE/DELETE</text>
  </g>

  <!-- Profiles Table -->
  <g transform="translate(320, 220)">
    <rect width="200" height="90" rx="8" fill="#1e293b" stroke="#475569" stroke-width="1"/>
    <rect width="200" height="28" rx="8" fill="#334155"/>
    <text x="100" y="19" text-anchor="middle" class="table-name">profiles</text>
    <text x="15" y="48" class="text-sm">user_id, display_name, avatar</text>
    <line x1="15" y1="58" x2="185" y2="58" stroke="#475569" stroke-width="1"/>
    <text x="15" y="75" class="policy-text allow">✓ SELECT/UPDATE own</text>
    <text x="125" y="75" class="policy-text deny">✗ Others</text>
  </g>

  <!-- Sessions Table -->
  <g transform="translate(320, 330)">
    <rect width="200" height="90" rx="8" fill="#1e293b" stroke="#475569" stroke-width="1"/>
    <rect width="200" height="28" rx="8" fill="#334155"/>
    <text x="100" y="19" text-anchor="middle" class="table-name">sessions</text>
    <text x="15" y="48" class="text-sm">user_id, token, expires_at</text>
    <line x1="15" y1="58" x2="185" y2="58" stroke="#475569" stroke-width="1"/>
    <text x="15" y="75" class="policy-text allow">✓ SELECT own sessions</text>
    <text x="130" y="75" class="policy-text deny">✗ Write</text>
  </g>

  <!-- Audit Logs Table -->
  <g transform="translate(320, 440)">
    <rect width="200" height="100" rx="8" fill="#1e293b" stroke="#eab308" stroke-width="2"/>
    <rect width="200" height="28" rx="8" fill="#334155"/>
    <text x="100" y="19" text-anchor="middle" class="table-name">audit_logs</text>
    <text x="15" y="48" class="text-sm">user_id, event, timestamp</text>
    <line x1="15" y1="58" x2="185" y2="58" stroke="#475569" stroke-width="1"/>
    <text x="15" y="75" class="policy-text allow">✓ SELECT own entries</text>
    <text x="15" y="90" class="policy-text deny">✗ UPDATE/DELETE (immutable)</text>
  </g>

  <!-- ==================== POLICY PATTERNS (RIGHT) ==================== -->
  <text x="620" y="90" class="heading">POLICY PATTERNS</text>

  <!-- Owner Isolation Pattern -->
  <g transform="translate(580, 110)">
    <rect width="220" height="80" rx="8" fill="#1e293b" stroke="#8b5cf6" stroke-width="1"/>
    <text x="15" y="22" class="annotation">OWNER ISOLATION</text>
    <text x="15" y="42" class="policy-text">auth.uid() = user_id</text>
    <text x="15" y="58" class="text-muted">User can only access own rows</text>
    <text x="15" y="72" class="text-muted">Returns empty set, not error</text>
  </g>

  <!-- Service Bypass Pattern -->
  <g transform="translate(580, 210)">
    <rect width="220" height="80" rx="8" fill="#1e293b" stroke="#8b5cf6" stroke-width="1"/>
    <text x="15" y="22" class="annotation">SERVICE BYPASS</text>
    <text x="15" y="42" class="policy-text">role = 'service_role'</text>
    <text x="15" y="58" class="text-muted">Backend can access all rows</text>
    <text x="15" y="72" class="text-muted">All operations logged</text>
  </g>

  <!-- Immutable Audit Pattern -->
  <g transform="translate(580, 310)">
    <rect width="220" height="80" rx="8" fill="#1e293b" stroke="#eab308" stroke-width="1"/>
    <text x="15" y="22" class="annotation">IMMUTABLE AUDIT</text>
    <text x="15" y="42" class="policy-text">INSERT: service_role only</text>
    <text x="15" y="58" class="policy-text">UPDATE/DELETE: DENIED all</text>
    <text x="15" y="72" class="text-muted">Tamper-proof logs</text>
  </g>

  <!-- Soft Delete Pattern -->
  <g transform="translate(580, 410)">
    <rect width="220" height="80" rx="8" fill="#1e293b" stroke="#8b5cf6" stroke-width="1"/>
    <text x="15" y="22" class="annotation">SOFT DELETE</text>
    <text x="15" y="42" class="policy-text">DELETE: DENIED</text>
    <text x="15" y="58" class="policy-text">UPDATE status = 'deleted'</text>
    <text x="15" y="72" class="text-muted">Data preservation</text>
  </g>

  <!-- ==================== DATA FLOW SECTION (FAR RIGHT) ==================== -->
  <text x="900" y="90" class="heading">ACCESS MATRIX</text>

  <!-- Access Matrix Table -->
  <g transform="translate(860, 110)">
    <!-- Header -->
    <rect width="500" height="30" rx="4" fill="#334155"/>
    <text x="80" y="20" text-anchor="middle" class="text-sm" fill="#fff">Role</text>
    <text x="180" y="20" text-anchor="middle" class="text-sm" fill="#fff">users</text>
    <text x="260" y="20" text-anchor="middle" class="text-sm" fill="#fff">profiles</text>
    <text x="340" y="20" text-anchor="middle" class="text-sm" fill="#fff">sessions</text>
    <text x="430" y="20" text-anchor="middle" class="text-sm" fill="#fff">audit_logs</text>

    <!-- authenticated row -->
    <rect y="35" width="500" height="30" fill="#1e293b"/>
    <text x="80" y="55" text-anchor="middle" class="text-sm" fill="#22c55e">authenticated</text>
    <text x="180" y="55" text-anchor="middle" class="text-sm" fill="#22c55e">S</text>
    <text x="260" y="55" text-anchor="middle" class="text-sm" fill="#22c55e">S/U</text>
    <text x="340" y="55" text-anchor="middle" class="text-sm" fill="#22c55e">S</text>
    <text x="430" y="55" text-anchor="middle" class="text-sm" fill="#22c55e">S</text>

    <!-- service_role row -->
    <rect y="70" width="500" height="30" fill="#0f172a"/>
    <text x="80" y="90" text-anchor="middle" class="text-sm" fill="#8b5cf6">service_role</text>
    <text x="180" y="90" text-anchor="middle" class="text-sm" fill="#8b5cf6">ALL</text>
    <text x="260" y="90" text-anchor="middle" class="text-sm" fill="#8b5cf6">ALL</text>
    <text x="340" y="90" text-anchor="middle" class="text-sm" fill="#8b5cf6">ALL</text>
    <text x="430" y="90" text-anchor="middle" class="text-sm" fill="#eab308">S/I</text>

    <!-- anon row -->
    <rect y="105" width="500" height="30" fill="#1e293b"/>
    <text x="80" y="125" text-anchor="middle" class="text-sm" fill="#ef4444">anon</text>
    <text x="180" y="125" text-anchor="middle" class="text-sm" fill="#ef4444">—</text>
    <text x="260" y="125" text-anchor="middle" class="text-sm" fill="#ef4444">—</text>
    <text x="340" y="125" text-anchor="middle" class="text-sm" fill="#ef4444">—</text>
    <text x="430" y="125" text-anchor="middle" class="text-sm" fill="#ef4444">—</text>

    <!-- Legend -->
    <text x="0" y="160" class="text-muted">S=SELECT  U=UPDATE  I=INSERT  D=DELETE  ALL=Full access  —=No access</text>
  </g>

  <!-- ==================== KEY PRINCIPLES (BOTTOM) ==================== -->
  <g transform="translate(40, 560)">
    <rect width="1320" height="200" rx="8" fill="#1e293b" stroke="#475569" stroke-width="1"/>
    <text x="20" y="30" class="heading">KEY SECURITY PRINCIPLES</text>

    <!-- Principle 1 -->
    <g transform="translate(20, 50)">
      <circle cx="10" cy="10" r="10" fill="#22c55e"/>
      <text x="10" y="14" text-anchor="middle" fill="#fff" font-size="12" font-weight="bold">1</text>
      <text x="30" y="14" class="text-md">Data Isolation: Users can ONLY access their own data (auth.uid() = user_id)</text>
    </g>

    <!-- Principle 2 -->
    <g transform="translate(20, 80)">
      <circle cx="10" cy="10" r="10" fill="#8b5cf6"/>
      <text x="10" y="14" text-anchor="middle" fill="#fff" font-size="12" font-weight="bold">2</text>
      <text x="30" y="14" class="text-md">Service Bypass: Backend operations use service_role with full audit logging</text>
    </g>

    <!-- Principle 3 -->
    <g transform="translate(20, 110)">
      <circle cx="10" cy="10" r="10" fill="#eab308"/>
      <text x="10" y="14" text-anchor="middle" fill="#fff" font-size="12" font-weight="bold">3</text>
      <text x="30" y="14" class="text-md">Immutable Audit: Security logs cannot be modified or deleted by any user</text>
    </g>

    <!-- Principle 4 -->
    <g transform="translate(20, 140)">
      <circle cx="10" cy="10" r="10" fill="#ef4444"/>
      <text x="10" y="14" text-anchor="middle" fill="#fff" font-size="12" font-weight="bold">4</text>
      <text x="30" y="14" class="text-md">Anonymous Restriction: Unauthenticated users have NO access to protected data</text>
    </g>

    <!-- Principle 5 -->
    <g transform="translate(20, 170)">
      <circle cx="10" cy="10" r="10" fill="#06b6d4"/>
      <text x="10" y="14" text-anchor="middle" fill="#fff" font-size="12" font-weight="bold">5</text>
      <text x="30" y="14" class="text-md">Empty Results: Unauthorized queries return empty sets, not errors (prevents enumeration)</text>
    </g>

    <!-- Compliance badges -->
    <g transform="translate(900, 50)">
      <rect width="80" height="24" rx="12" fill="#334155" stroke="#22c55e" stroke-width="1"/>
      <text x="40" y="16" text-anchor="middle" class="text-sm" fill="#22c55e">GDPR</text>
    </g>
    <g transform="translate(990, 50)">
      <rect width="80" height="24" rx="12" fill="#334155" stroke="#8b5cf6" stroke-width="1"/>
      <text x="40" y="16" text-anchor="middle" class="text-sm" fill="#8b5cf6">SOC 2</text>
    </g>
    <g transform="translate(1080, 50)">
      <rect width="100" height="24" rx="12" fill="#334155" stroke="#eab308" stroke-width="1"/>
      <text x="50" y="16" text-anchor="middle" class="text-sm" fill="#eab308">99.9% SLA</text>
    </g>
  </g>

  <!-- Flow arrows from roles to tables -->
  <g id="flow-arrows">
    <!-- authenticated to tables -->
    <line x1="220" y1="160" x2="318" y2="155" stroke="#22c55e" stroke-width="2" marker-end="url(#arrowGreen)"/>
    <line x1="220" y1="180" x2="318" y2="265" stroke="#22c55e" stroke-width="2" marker-end="url(#arrowGreen)"/>
    <line x1="220" y1="200" x2="318" y2="375" stroke="#22c55e" stroke-width="2" marker-end="url(#arrowGreen)"/>

    <!-- service_role to tables (dashed) -->
    <line x1="220" y1="280" x2="318" y2="180" stroke="#8b5cf6" stroke-width="2" stroke-dasharray="5,3" marker-end="url(#arrowViolet)"/>
    <line x1="220" y1="290" x2="318" y2="290" stroke="#8b5cf6" stroke-width="2" stroke-dasharray="5,3" marker-end="url(#arrowViolet)"/>
    <line x1="220" y1="300" x2="318" y2="400" stroke="#8b5cf6" stroke-width="2" stroke-dasharray="5,3" marker-end="url(#arrowViolet)"/>
    <line x1="220" y1="310" x2="318" y2="490" stroke="#8b5cf6" stroke-width="2" stroke-dasharray="5,3" marker-end="url(#arrowViolet)"/>

    <!-- anon blocked -->
    <line x1="220" y1="400" x2="280" y2="400" stroke="#ef4444" stroke-width="2"/>
    <text x="260" y="390" fill="#ef4444" font-size="16">✕</text>
  </g>
</svg>
