<svg xmlns="http://www.w3.org/2000/svg" viewBox="0 0 1400 800" width="1400" height="800">
  <!-- ============================================================
       GENERATED BY: /wireframe skill
       SOURCE: features/payments/043-group-service/spec.md
       DATE: 2026-01-01
       THEME: Dark (Backend/Architecture)
       DO NOT MANUALLY EDIT - Regenerate with /wireframe command
       ============================================================ -->
  <defs>
    <linearGradient id="bgGrad" x1="0%" y1="0%" x2="100%" y2="100%">
      <stop offset="0%" style="stop-color:#0f172a"/>
      <stop offset="100%" style="stop-color:#1e293b"/>
    </linearGradient>
    <linearGradient id="accentGrad" x1="0%" y1="0%" x2="100%" y2="0%">
      <stop offset="0%" style="stop-color:#8b5cf6"/>
      <stop offset="100%" style="stop-color:#d946ef"/>
    </linearGradient>
    <style>
      .heading-lg { fill: #ffffff; font-family: system-ui, sans-serif; font-size: 20px; font-weight: bold; }
      .heading { fill: #ffffff; font-family: system-ui, sans-serif; font-size: 14px; font-weight: bold; }
      .text-md { fill: #cbd5e1; font-family: system-ui, sans-serif; font-size: 12px; }
      .text-sm { fill: #94a3b8; font-family: system-ui, sans-serif; font-size: 10px; }
      .text-muted { fill: #8494a8; font-family: system-ui, sans-serif; font-size: 10px; }
      .annotation { fill: #8b5cf6; font-family: monospace; font-size: 10px; }
      .code { fill: #22c55e; font-family: monospace; font-size: 10px; }
    </style>
    <marker id="arrowhead" markerWidth="10" markerHeight="7" refX="9" refY="3.5" orient="auto">
      <polygon points="0 0, 10 3.5, 0 7" fill="#8b5cf6"/>
    </marker>
    <marker id="arrowhead-green" markerWidth="10" markerHeight="7" refX="9" refY="3.5" orient="auto">
      <polygon points="0 0, 10 3.5, 0 7" fill="#22c55e"/>
    </marker>
    <marker id="arrowhead-yellow" markerWidth="10" markerHeight="7" refX="9" refY="3.5" orient="auto">
      <polygon points="0 0, 10 3.5, 0 7" fill="#eab308"/>
    </marker>
  </defs>

  <!-- Background -->
  <rect width="1400" height="800" fill="url(#bgGrad)"/>

  <!-- Dot grid pattern -->
  <g opacity="0.05">
    <pattern id="dots" width="30" height="30" patternUnits="userSpaceOnUse">
      <circle cx="15" cy="15" r="1" fill="#fff"/>
    </pattern>
    <rect width="1400" height="800" fill="url(#dots)"/>
  </g>

  <!-- Accent line top -->
  <rect x="0" y="0" width="1400" height="3" fill="url(#accentGrad)"/>

  <!-- Title -->
  <text x="700" y="28" text-anchor="middle" font-family="system-ui, sans-serif" font-size="14" font-weight="600" fill="#8494a8" letter-spacing="1">GROUP SERVICE ARCHITECTURE - 8 CORE OPERATIONS</text>

  <!-- ==================== CLIENT REQUEST LAYER ==================== -->
  <g transform="translate(40, 50)">
    <text x="0" y="0" class="heading-lg">Client Requests</text>

    <rect x="0" y="15" width="200" height="130" rx="8" fill="#1e293b" stroke="#475569"/>
    <text x="100" y="40" text-anchor="middle" class="heading">🖥️ Client App</text>
    <text x="15" y="65" class="text-sm">Authenticated requests with JWT</text>
    <text x="15" y="85" class="text-md" fill="#fff">Calls GroupService via:</text>
    <text x="15" y="105" class="code">POST /api/groups/:id/members</text>
    <text x="15" y="120" class="code">DELETE /api/groups/:id/members/:userId</text>
    <text x="15" y="135" class="code">PUT /api/groups/:id/...</text>
  </g>

  <!-- ==================== GROUP SERVICE CORE ==================== -->
  <g transform="translate(280, 50)">
    <text x="0" y="0" class="heading-lg">GroupService (Edge Function)</text>

    <rect x="0" y="15" width="520" height="280" rx="8" fill="#1e293b" stroke="#8b5cf6" stroke-width="2"/>

    <!-- 8 Operations Grid - 2 columns -->
    <g transform="translate(15, 35)">
      <text x="0" y="0" class="heading" fill="#8b5cf6">8 Core Operations</text>

      <!-- Column 1: Member Operations -->
      <rect x="0" y="15" width="240" height="230" rx="6" fill="#334155"/>
      <text x="120" y="35" text-anchor="middle" class="text-md" fill="#fff" font-weight="600">Member Operations</text>

      <g transform="translate(10, 50)">
        <rect x="0" y="0" width="220" height="38" rx="4" fill="#1e293b"/>
        <text x="10" y="18" class="code">addMembers()</text>
        <text x="10" y="32" class="text-muted">FR-001-005 | Owner only</text>

        <rect x="0" y="45" width="220" height="38" rx="4" fill="#1e293b"/>
        <text x="10" y="63" class="code">getMembers()</text>
        <text x="10" y="77" class="text-muted">FR-006-009 | Any member</text>

        <rect x="0" y="90" width="220" height="38" rx="4" fill="#1e293b"/>
        <text x="10" y="108" class="code">removeMember()</text>
        <text x="10" y="122" class="text-muted">FR-010-014 | Owner/Admin</text>

        <rect x="0" y="135" width="220" height="38" rx="4" fill="#1e293b"/>
        <text x="10" y="153" class="code">leaveGroup()</text>
        <text x="10" y="167" class="text-muted">FR-015-018 | Any member</text>
      </g>

      <!-- Column 2: Group Operations -->
      <rect x="250" y="15" width="240" height="230" rx="6" fill="#334155"/>
      <text x="370" y="35" text-anchor="middle" class="text-md" fill="#fff" font-weight="600">Group Operations</text>

      <g transform="translate(260, 50)">
        <rect x="0" y="0" width="220" height="38" rx="4" fill="#1e293b"/>
        <text x="10" y="18" class="code">transferOwnership()</text>
        <text x="10" y="32" class="text-muted">FR-019-022 | Owner only</text>

        <rect x="0" y="45" width="220" height="38" rx="4" fill="#1e293b"/>
        <text x="10" y="63" class="code">upgradeToGroup()</text>
        <text x="10" y="77" class="text-muted">FR-023-026 | DM participant</text>

        <rect x="0" y="90" width="220" height="38" rx="4" fill="#1e293b"/>
        <text x="10" y="108" class="code">renameGroup()</text>
        <text x="10" y="122" class="text-muted">FR-027-030 | Owner only</text>

        <rect x="0" y="135" width="220" height="38" rx="4" fill="#1e293b"/>
        <text x="10" y="153" class="code">deleteGroup()</text>
        <text x="10" y="167" class="text-muted">FR-031-035 | Owner only</text>
      </g>
    </g>
  </g>

  <!-- ==================== PERMISSION HIERARCHY ==================== -->
  <g transform="translate(840, 50)">
    <text x="0" y="0" class="heading-lg">Permission Hierarchy</text>

    <rect x="0" y="15" width="240" height="200" rx="8" fill="#1e293b" stroke="#d946ef"/>
    <text x="120" y="40" text-anchor="middle" class="heading" fill="#d946ef">Role-Based Access</text>

    <!-- Owner -->
    <g transform="translate(20, 55)">
      <rect x="0" y="0" width="200" height="40" rx="6" fill="#22c55e" opacity="0.2" stroke="#22c55e"/>
      <text x="15" y="18" class="heading" fill="#22c55e">👑 Owner</text>
      <text x="15" y="33" class="text-sm">All operations • Full control</text>
    </g>

    <!-- Admin -->
    <g transform="translate(20, 105)">
      <rect x="0" y="0" width="200" height="40" rx="6" fill="#eab308" opacity="0.2" stroke="#eab308"/>
      <text x="15" y="18" class="heading" fill="#eab308">🛡️ Admin</text>
      <text x="15" y="33" class="text-sm">Remove members • Moderate</text>
    </g>

    <!-- Member -->
    <g transform="translate(20, 155)">
      <rect x="0" y="0" width="200" height="40" rx="6" fill="#8b5cf6" opacity="0.2" stroke="#8b5cf6"/>
      <text x="15" y="18" class="heading" fill="#8b5cf6">👤 Member</text>
      <text x="15" y="33" class="text-sm">View • Leave • Send messages</text>
    </g>
  </g>

  <!-- ==================== SECURITY LAYER ==================== -->
  <g transform="translate(840, 270)">
    <rect x="0" y="0" width="240" height="75" rx="8" fill="#1e293b" stroke="#ef4444"/>
    <text x="120" y="25" text-anchor="middle" class="heading" fill="#ef4444">🔒 Security Layer</text>
    <text x="15" y="45" class="text-sm">NFR-001: JWT required</text>
    <text x="15" y="60" class="text-sm">NFR-002: Permission check first</text>
    <text x="15" y="75" class="text-sm">NFR-003: Access revocation</text>
  </g>

  <!-- ==================== DATA LAYER ==================== -->
  <g transform="translate(40, 360)">
    <text x="0" y="0" class="heading-lg">Data Layer (Supabase PostgreSQL)</text>

    <!-- Groups Table -->
    <rect x="0" y="20" width="260" height="180" rx="8" fill="#1e293b" stroke="#8b5cf6"/>
    <text x="130" y="45" text-anchor="middle" class="heading">📊 conversations</text>
    <rect x="15" y="60" width="230" height="130" rx="4" fill="#334155"/>
    <text x="25" y="80" class="code">id: uuid (PK)</text>
    <text x="25" y="95" class="code">type: 'direct' | 'group'</text>
    <text x="25" y="110" class="code">name: text (nullable)</text>
    <text x="25" y="125" class="code">owner_id: uuid (FK)</text>
    <text x="25" y="140" class="code">archived_at: timestamptz</text>
    <text x="25" y="155" class="code">created_at: timestamptz</text>
    <text x="25" y="170" class="code">updated_at: timestamptz</text>

    <!-- Members Table -->
    <rect x="280" y="20" width="260" height="180" rx="8" fill="#1e293b" stroke="#8b5cf6"/>
    <text x="410" y="45" text-anchor="middle" class="heading">📊 conversation_members</text>
    <rect x="295" y="60" width="230" height="130" rx="4" fill="#334155"/>
    <text x="305" y="80" class="code">conversation_id: uuid (FK)</text>
    <text x="305" y="95" class="code">user_id: uuid (FK)</text>
    <text x="305" y="110" class="code">role: 'owner'|'admin'|'member'</text>
    <text x="305" y="125" class="code">joined_at: timestamptz</text>
    <text x="305" y="140" class="code">invited_by: uuid (FK)</text>
    <text x="305" y="155" class="text-muted">PK: (conversation_id, user_id)</text>
    <text x="305" y="170" class="text-muted">RLS: user_id = auth.uid()</text>

    <!-- Messages Table -->
    <rect x="560" y="20" width="260" height="180" rx="8" fill="#1e293b" stroke="#8b5cf6"/>
    <text x="690" y="45" text-anchor="middle" class="heading">📊 messages</text>
    <rect x="575" y="60" width="230" height="130" rx="4" fill="#334155"/>
    <text x="585" y="80" class="code">id: uuid (PK)</text>
    <text x="585" y="95" class="code">conversation_id: uuid (FK)</text>
    <text x="585" y="110" class="code">sender_id: uuid (FK)</text>
    <text x="585" y="125" class="code">content: text (encrypted)</text>
    <text x="585" y="140" class="code">created_at: timestamptz</text>
    <text x="585" y="155" class="text-muted">RLS: is_member(conversation_id)</text>
    <text x="585" y="170" class="text-muted">Soft delete on group archive</text>
  </g>

  <!-- ==================== NOTIFICATION & AUDIT LAYER ==================== -->
  <g transform="translate(840, 360)">
    <text x="0" y="0" class="heading-lg">Side Effects</text>

    <!-- Notifications -->
    <rect x="0" y="20" width="240" height="110" rx="8" fill="#1e293b" stroke="#22c55e"/>
    <text x="120" y="45" text-anchor="middle" class="heading" fill="#22c55e">🔔 Notifications</text>
    <text x="15" y="65" class="text-sm">• Member added → notify new member</text>
    <text x="15" y="80" class="text-sm">• Member removed → notify affected</text>
    <text x="15" y="95" class="text-sm">• Ownership transferred → both parties</text>
    <text x="15" y="110" class="text-sm">• Group deleted → all members</text>
    <text x="15" y="125" class="text-muted">NFR-005: Batched for efficiency</text>

    <!-- Audit Log -->
    <rect x="0" y="145" width="240" height="95" rx="8" fill="#1e293b" stroke="#eab308"/>
    <text x="120" y="170" text-anchor="middle" class="heading" fill="#eab308">📝 Audit Log</text>
    <text x="15" y="190" class="text-sm">NFR-007: All operations logged</text>
    <text x="15" y="205" class="code">{ action, actor, target, timestamp }</text>
    <text x="15" y="220" class="text-sm">Compliance + debugging support</text>
    <text x="15" y="235" class="text-muted">Immutable append-only log</text>
  </g>

  <!-- ==================== TRANSACTION BOUNDARIES ==================== -->
  <g transform="translate(40, 560)">
    <text x="0" y="0" class="heading-lg">Transaction Boundaries (NFR-006)</text>

    <rect x="0" y="20" width="780" height="100" rx="8" fill="#1e293b" stroke="#d946ef"/>
    <text x="390" y="45" text-anchor="middle" class="heading" fill="#d946ef">All-or-Nothing Operations</text>

    <!-- Transaction examples -->
    <g transform="translate(20, 55)">
      <rect x="0" y="0" width="240" height="55" rx="4" fill="#334155"/>
      <text x="10" y="18" class="code">addMembers()</text>
      <text x="10" y="35" class="text-sm">1. Validate all users exist</text>
      <text x="10" y="50" class="text-sm">2. Insert all memberships</text>

      <rect x="260" y="0" width="240" height="55" rx="4" fill="#334155"/>
      <text x="270" y="18" class="code">deleteGroup()</text>
      <text x="270" y="35" class="text-sm">1. Archive conversation</text>
      <text x="270" y="50" class="text-sm">2. Archive all messages</text>

      <rect x="520" y="0" width="240" height="55" rx="4" fill="#334155"/>
      <text x="530" y="18" class="code">transferOwnership()</text>
      <text x="530" y="35" class="text-sm">1. Demote current owner</text>
      <text x="530" y="50" class="text-sm">2. Promote new owner</text>
    </g>
  </g>

  <!-- ==================== PERFORMANCE REQUIREMENTS ==================== -->
  <g transform="translate(840, 560)">
    <rect x="0" y="20" width="240" height="100" rx="8" fill="#1e293b" stroke="#475569"/>
    <text x="120" y="45" text-anchor="middle" class="heading">⚡ Performance</text>
    <text x="15" y="70" class="text-sm">NFR-004: &lt;500ms operations</text>
    <text x="15" y="90" class="text-md" fill="#fff">SC-005: 95th percentile</text>
    <text x="15" y="110" class="text-muted">Indexed queries + connection pooling</text>
  </g>

  <!-- ==================== DEPENDENCIES ==================== -->
  <g transform="translate(40, 680)">
    <rect x="0" y="0" width="520" height="70" rx="8" fill="#1e293b" stroke="#475569"/>
    <text x="260" y="25" text-anchor="middle" class="heading">Dependencies</text>
    <text x="20" y="50" class="text-sm">• Feature 009: user-messaging-system (base messaging)</text>
    <text x="280" y="50" class="text-sm">• Feature 011: group-chats (group conversation support)</text>
    <text x="20" y="65" class="text-muted">Authentication system provides verified user identity</text>
  </g>

  <!-- ==================== SUCCESS CRITERIA ==================== -->
  <g transform="translate(580, 680)">
    <rect x="0" y="0" width="500" height="70" rx="8" fill="#1e293b" stroke="#22c55e"/>
    <text x="250" y="25" text-anchor="middle" class="heading" fill="#22c55e">✓ Success Criteria</text>
    <g transform="translate(20, 40)">
      <text x="0" y="0" class="text-sm">SC-001: 8 ops functional</text>
      <text x="120" y="0" class="text-sm">SC-002: 100% permission checks</text>
      <text x="260" y="0" class="text-sm">SC-003: Notifications sent</text>
      <text x="380" y="0" class="text-sm">SC-006: Zero bypasses</text>
    </g>
    <text x="20" y="60" class="text-muted">SC-004: Access updated on membership changes | SC-005: &lt;500ms 95th percentile</text>
  </g>

  <!-- Data flow arrows -->
  <g id="data-flows">
    <!-- Client to Service -->
    <line x1="240" y1="115" x2="280" y2="180" stroke="#8b5cf6" stroke-width="2" marker-end="url(#arrowhead)"/>

    <!-- Service to Data Layer -->
    <line x1="540" y1="345" x2="540" y2="380" stroke="#8b5cf6" stroke-width="2" marker-end="url(#arrowhead)"/>

    <!-- Service to Notifications -->
    <line x1="800" y1="200" x2="840" y2="430" stroke="#22c55e" stroke-width="2" stroke-dasharray="5,3" marker-end="url(#arrowhead-green)"/>

    <!-- Service to Audit -->
    <line x1="800" y1="280" x2="840" y2="505" stroke="#eab308" stroke-width="2" stroke-dasharray="5,3" marker-end="url(#arrowhead-yellow)"/>
  </g>
</svg>