<svg xmlns="http://www.w3.org/2000/svg" viewBox="0 0 1400 800" width="1400" height="800">
  <!-- ============================================================
       GENERATED BY: /wireframe skill
       SOURCE: features/payments/043-group-service/spec.md
       DATE: 2025-12-31
       DO NOT MANUALLY EDIT - Regenerate with /wireframe command
       ============================================================ -->
  <defs>
    <linearGradient id="bgGrad" x1="0%" y1="0%" x2="100%" y2="100%">
      <stop offset="0%" style="stop-color:#0f172a"/>
      <stop offset="100%" style="stop-color:#1e293b"/>
    </linearGradient>
    <linearGradient id="accentGrad" x1="0%" y1="0%" x2="100%" y2="0%">
      <stop offset="0%" style="stop-color:#8b5cf6"/>
      <stop offset="100%" style="stop-color:#d946ef"/>
    </linearGradient>
    <linearGradient id="serviceGrad" x1="0%" y1="0%" x2="0%" y2="100%">
      <stop offset="0%" style="stop-color:#8b5cf6"/>
      <stop offset="100%" style="stop-color:#6d28d9"/>
    </linearGradient>
    <linearGradient id="dbGrad" x1="0%" y1="0%" x2="0%" y2="100%">
      <stop offset="0%" style="stop-color:#22c55e"/>
      <stop offset="100%" style="stop-color:#16a34a"/>
    </linearGradient>
    <style>
      .heading-lg { fill: #ffffff; font-family: system-ui, sans-serif; font-size: 20px; font-weight: bold; }
      .heading { fill: #ffffff; font-family: system-ui, sans-serif; font-size: 14px; font-weight: bold; }
      .text-md { fill: #cbd5e1; font-family: system-ui, sans-serif; font-size: 12px; }
      .text-sm { fill: #94a3b8; font-family: system-ui, sans-serif; font-size: 10px; }
      .text-muted { fill: #64748b; font-family: system-ui, sans-serif; font-size: 10px; }
      .annotation { fill: #8b5cf6; font-family: monospace; font-size: 10px; }
      .label-section { fill: #8b5cf6; font-family: monospace; font-size: 11px; font-weight: bold; }
      .code { fill: #f1fa8c; font-family: monospace; font-size: 9px; }
    </style>
    <!-- Arrow marker -->
    <marker id="arrowhead" markerWidth="10" markerHeight="7" refX="9" refY="3.5" orient="auto">
      <polygon points="0 0, 10 3.5, 0 7" fill="#8b5cf6"/>
    </marker>
    <marker id="arrowhead-green" markerWidth="10" markerHeight="7" refX="9" refY="3.5" orient="auto">
      <polygon points="0 0, 10 3.5, 0 7" fill="#22c55e"/>
    </marker>
    <marker id="arrowhead-yellow" markerWidth="10" markerHeight="7" refX="9" refY="3.5" orient="auto">
      <polygon points="0 0, 10 3.5, 0 7" fill="#eab308"/>
    </marker>
  </defs>

  <!-- Background -->
  <rect width="1400" height="800" fill="url(#bgGrad)"/>

  <!-- Dot grid pattern -->
  <g opacity="0.05">
    <pattern id="dots" width="30" height="30" patternUnits="userSpaceOnUse">
      <circle cx="15" cy="15" r="1" fill="#fff"/>
    </pattern>
    <rect width="1400" height="800" fill="url(#dots)"/>
  </g>

  <!-- Accent line top -->
  <rect x="0" y="0" width="1400" height="3" fill="url(#accentGrad)"/>

  <!-- Title -->
  <text x="700" y="28" text-anchor="middle" font-family="system-ui, sans-serif" font-size="14" font-weight="600" fill="#64748b" letter-spacing="1">GROUP SERVICE - ARCHITECTURE OVERVIEW</text>

  <!-- CLIENT LAYER -->
  <text x="40" y="60" class="label-section">CLIENT LAYER</text>

  <!-- Client box -->
  <rect x="40" y="75" width="200" height="100" rx="8" fill="#1e293b" stroke="#475569" stroke-width="1"/>
  <text x="140" y="105" text-anchor="middle" class="heading">Client Application</text>
  <text x="140" y="125" text-anchor="middle" class="text-sm">React Components</text>
  <text x="140" y="145" text-anchor="middle" class="text-sm">Group Chat UI (F011)</text>
  <text x="140" y="160" text-anchor="middle" class="text-muted">useGroupService hook</text>

  <!-- Arrow from client to API -->
  <line x1="240" y1="125" x2="310" y2="125" stroke="#8b5cf6" stroke-width="2" marker-end="url(#arrowhead)"/>
  <text x="275" y="115" text-anchor="middle" class="text-muted">HTTP</text>

  <!-- API GATEWAY -->
  <text x="320" y="60" class="label-section">API GATEWAY</text>

  <rect x="320" y="75" width="280" height="100" rx="8" fill="#334155" stroke="#8b5cf6" stroke-width="2"/>
  <text x="460" y="100" text-anchor="middle" class="heading">Edge Functions API</text>

  <!-- API endpoints -->
  <g transform="translate(335, 110)">
    <text x="0" y="12" class="code">POST /groups/:id/members</text>
    <text x="0" y="26" class="code">GET  /groups/:id/members</text>
    <text x="0" y="40" class="code">DELETE /groups/:id/members/:uid</text>
    <text x="0" y="54" class="code">PATCH /groups/:id</text>
  </g>

  <!-- Arrow from API to Auth -->
  <line x1="460" y1="175" x2="460" y2="220" stroke="#eab308" stroke-width="2" marker-end="url(#arrowhead-yellow)"/>
  <text x="480" y="200" class="text-muted">Verify JWT</text>

  <!-- AUTH SERVICE -->
  <rect x="360" y="225" width="200" height="70" rx="8" fill="#1e293b" stroke="#eab308" stroke-width="2"/>
  <text x="460" y="255" text-anchor="middle" class="heading" fill="#eab308">Auth Service</text>
  <text x="460" y="275" text-anchor="middle" class="text-sm">Supabase Auth</text>

  <!-- Arrow from Auth to Group Service -->
  <line x1="460" y1="295" x2="460" y2="340" stroke="#8b5cf6" stroke-width="2" marker-end="url(#arrowhead)"/>
  <text x="480" y="320" class="text-muted">user_id</text>

  <!-- GROUP SERVICE (Main) -->
  <text x="320" y="335" class="label-section">SERVICE LAYER</text>

  <rect x="280" y="350" width="360" height="200" rx="12" fill="url(#serviceGrad)" fill-opacity="0.15" stroke="#8b5cf6" stroke-width="2"/>
  <text x="460" y="380" text-anchor="middle" class="heading-lg" fill="#8b5cf6">GroupService</text>

  <!-- Service methods -->
  <g transform="translate(300, 395)">
    <rect x="0" y="0" width="150" height="65" rx="6" fill="#1e293b" stroke="#475569"/>
    <text x="75" y="20" text-anchor="middle" class="heading">Member Ops</text>
    <text x="75" y="38" text-anchor="middle" class="code">addMembers()</text>
    <text x="75" y="52" text-anchor="middle" class="code">removeMember()</text>

    <rect x="165" y="0" width="150" height="65" rx="6" fill="#1e293b" stroke="#475569"/>
    <text x="240" y="20" text-anchor="middle" class="heading">Admin Ops</text>
    <text x="240" y="38" text-anchor="middle" class="code">transferOwnership()</text>
    <text x="240" y="52" text-anchor="middle" class="code">deleteGroup()</text>
  </g>

  <g transform="translate(300, 470)">
    <rect x="0" y="0" width="150" height="65" rx="6" fill="#1e293b" stroke="#475569"/>
    <text x="75" y="20" text-anchor="middle" class="heading">Group Ops</text>
    <text x="75" y="38" text-anchor="middle" class="code">renameGroup()</text>
    <text x="75" y="52" text-anchor="middle" class="code">upgradeToGroup()</text>

    <rect x="165" y="0" width="150" height="65" rx="6" fill="#1e293b" stroke="#475569"/>
    <text x="240" y="20" text-anchor="middle" class="heading">Query Ops</text>
    <text x="240" y="38" text-anchor="middle" class="code">getMembers()</text>
    <text x="240" y="52" text-anchor="middle" class="code">getMemberRole()</text>
  </g>

  <!-- DATA LAYER -->
  <text x="700" y="335" class="label-section">DATA LAYER</text>

  <!-- Arrow from Service to DB -->
  <line x1="640" y1="450" x2="700" y2="450" stroke="#22c55e" stroke-width="2" marker-end="url(#arrowhead-green)"/>
  <text x="670" y="440" class="text-muted">RLS</text>

  <!-- Database -->
  <rect x="710" y="350" width="280" height="200" rx="12" fill="url(#dbGrad)" fill-opacity="0.15" stroke="#22c55e" stroke-width="2"/>
  <text x="850" y="380" text-anchor="middle" class="heading-lg" fill="#22c55e">Supabase PostgreSQL</text>

  <!-- Tables -->
  <g transform="translate(725, 395)">
    <rect x="0" y="0" width="120" height="70" rx="6" fill="#1e293b" stroke="#475569"/>
    <text x="60" y="20" text-anchor="middle" class="heading">conversations</text>
    <text x="10" y="38" class="text-muted">id</text>
    <text x="10" y="52" class="text-muted">type (dm|group)</text>
    <text x="10" y="66" class="text-muted">name, settings</text>

    <rect x="130" y="0" width="120" height="70" rx="6" fill="#1e293b" stroke="#475569"/>
    <text x="190" y="20" text-anchor="middle" class="heading">members</text>
    <text x="140" y="38" class="text-muted">user_id</text>
    <text x="140" y="52" class="text-muted">conversation_id</text>
    <text x="140" y="66" class="text-muted">role, joined_at</text>
  </g>

  <g transform="translate(725, 475)">
    <rect x="0" y="0" width="120" height="55" rx="6" fill="#1e293b" stroke="#475569"/>
    <text x="60" y="20" text-anchor="middle" class="heading">messages</text>
    <text x="10" y="38" class="text-muted">id, content</text>
    <text x="10" y="52" class="text-muted">sender_id</text>

    <rect x="130" y="0" width="120" height="55" rx="6" fill="#1e293b" stroke="#475569"/>
    <text x="190" y="20" text-anchor="middle" class="heading">audit_log</text>
    <text x="140" y="38" class="text-muted">action, user_id</text>
    <text x="140" y="52" class="text-muted">details, timestamp</text>
  </g>

  <!-- NOTIFICATION LAYER -->
  <text x="1020" y="60" class="label-section">NOTIFICATION LAYER</text>

  <!-- Arrow from Service to Notifications -->
  <line x1="600" y1="380" x2="1040" y2="100" stroke="#d946ef" stroke-width="2" stroke-dasharray="4,4" marker-end="url(#arrowhead)"/>

  <rect x="1020" y="75" width="200" height="100" rx="8" fill="#1e293b" stroke="#d946ef" stroke-width="2"/>
  <text x="1120" y="105" text-anchor="middle" class="heading" fill="#d946ef">Notification Service</text>
  <text x="1120" y="130" text-anchor="middle" class="text-sm">Supabase Realtime</text>
  <text x="1120" y="150" text-anchor="middle" class="text-muted">Push to members</text>

  <!-- DEPENDENCIES -->
  <text x="1020" y="210" class="label-section">DEPENDENCIES</text>

  <rect x="1020" y="225" width="200" height="120" rx="8" fill="#1e293b" stroke="#475569"/>
  <text x="1035" y="250" class="text-sm" fill="#8b5cf6">F009 - User Messaging</text>
  <text x="1035" y="270" class="text-muted">Base messaging infra</text>
  <text x="1035" y="300" class="text-sm" fill="#8b5cf6">F011 - Group Chats</text>
  <text x="1035" y="320" class="text-muted">Group conversation type</text>

  <!-- LEGEND -->
  <text x="40" y="600" class="label-section">LEGEND</text>

  <g transform="translate(40, 620)">
    <rect x="0" y="0" width="300" height="150" rx="8" fill="#1e293b" stroke="#475569"/>

    <!-- HTTP flow -->
    <line x1="20" y1="25" x2="60" y2="25" stroke="#8b5cf6" stroke-width="2" marker-end="url(#arrowhead)"/>
    <text x="75" y="29" class="text-sm">HTTP Request/Response</text>

    <!-- Auth flow -->
    <line x1="20" y1="55" x2="60" y2="55" stroke="#eab308" stroke-width="2" marker-end="url(#arrowhead-yellow)"/>
    <text x="75" y="59" class="text-sm">Authentication flow</text>

    <!-- DB flow -->
    <line x1="20" y1="85" x2="60" y2="85" stroke="#22c55e" stroke-width="2" marker-end="url(#arrowhead-green)"/>
    <text x="75" y="89" class="text-sm">Database (RLS protected)</text>

    <!-- Notification flow -->
    <line x1="20" y1="115" x2="60" y2="115" stroke="#d946ef" stroke-width="2" stroke-dasharray="4,4"/>
    <text x="75" y="119" class="text-sm">Async notification</text>

    <!-- NFR ref -->
    <text x="20" y="145" class="text-muted">NFR-001/002: Auth required for all ops</text>
  </g>

  <!-- REQUIREMENTS BOX -->
  <rect x="360" y="600" width="320" height="150" rx="8" fill="#1e293b" stroke="#8b5cf6"/>
  <text x="375" y="625" class="annotation">KEY REQUIREMENTS</text>

  <text x="375" y="650" class="text-muted">FR-001-005: Add members (owner only)</text>
  <text x="375" y="670" class="text-muted">FR-010-014: Remove members (owner/admin)</text>
  <text x="375" y="690" class="text-muted">FR-019-022: Transfer ownership (owner only)</text>
  <text x="375" y="710" class="text-muted">FR-031-035: Delete group (owner only)</text>
  <text x="375" y="735" class="text-muted">NFR-004: All ops complete in &lt;500ms</text>

  <!-- SUCCESS CRITERIA -->
  <rect x="700" y="600" width="320" height="150" rx="8" fill="#1e293b" stroke="#22c55e"/>
  <text x="715" y="625" class="annotation" fill="#22c55e">SUCCESS CRITERIA</text>

  <text x="715" y="650" class="text-muted">SC-001: 8 operations functional</text>
  <text x="715" y="670" class="text-muted">SC-002: 100% permission enforcement</text>
  <text x="715" y="690" class="text-muted">SC-003: Notifications for all changes</text>
  <text x="715" y="710" class="text-muted">SC-004: Message access updated correctly</text>
  <text x="715" y="735" class="text-muted">SC-006: Zero permission bypasses</text>
</svg>