<svg xmlns="http://www.w3.org/2000/svg" viewBox="0 0 1400 800" width="1400" height="800">
  <!-- ============================================================
       GENERATED BY: /wireframe skill
       SOURCE: features/payments/043-group-service/spec.md
       DATE: 2026-01-01
       THEME: Dark (Backend/Architecture)
       DO NOT MANUALLY EDIT - Regenerate with /wireframe command
       ============================================================ -->
  <defs>
    <linearGradient id="bgGrad" x1="0%" y1="0%" x2="100%" y2="100%">
      <stop offset="0%" style="stop-color:#0f172a"/>
      <stop offset="100%" style="stop-color:#1e293b"/>
    </linearGradient>
    <linearGradient id="accentGrad" x1="0%" y1="0%" x2="100%" y2="0%">
      <stop offset="0%" style="stop-color:#8b5cf6"/>
      <stop offset="100%" style="stop-color:#d946ef"/>
    </linearGradient>
    <style>
      .heading-lg { fill: #ffffff; font-family: system-ui, sans-serif; font-size: 20px; font-weight: bold; }
      .heading { fill: #ffffff; font-family: system-ui, sans-serif; font-size: 14px; font-weight: bold; }
      .text-md { fill: #cbd5e1; font-family: system-ui, sans-serif; font-size: 12px; }
      .text-sm { fill: #94a3b8; font-family: system-ui, sans-serif; font-size: 10px; }
      .text-muted { fill: #8494a8; font-family: system-ui, sans-serif; font-size: 10px; }
      .annotation { fill: #8b5cf6; font-family: monospace; font-size: 10px; }
      .code { fill: #22c55e; font-family: monospace; font-size: 10px; }
    </style>
    <marker id="arrowhead" markerWidth="10" markerHeight="7" refX="9" refY="3.5" orient="auto">
      <polygon points="0 0, 10 3.5, 0 7" fill="#8b5cf6"/>
    </marker>
    <marker id="arrowhead-green" markerWidth="10" markerHeight="7" refX="9" refY="3.5" orient="auto">
      <polygon points="0 0, 10 3.5, 0 7" fill="#22c55e"/>
    </marker>
    <marker id="arrowhead-red" markerWidth="10" markerHeight="7" refX="9" refY="3.5" orient="auto">
      <polygon points="0 0, 10 3.5, 0 7" fill="#ef4444"/>
    </marker>
    <marker id="arrowhead-yellow" markerWidth="10" markerHeight="7" refX="9" refY="3.5" orient="auto">
      <polygon points="0 0, 10 3.5, 0 7" fill="#eab308"/>
    </marker>
  </defs>

  <!-- Background -->
  <rect width="1400" height="800" fill="url(#bgGrad)"/>

  <!-- Dot grid pattern -->
  <g opacity="0.05">
    <pattern id="dots" width="30" height="30" patternUnits="userSpaceOnUse">
      <circle cx="15" cy="15" r="1" fill="#fff"/>
    </pattern>
    <rect width="1400" height="800" fill="url(#dots)"/>
  </g>

  <!-- Accent line top -->
  <rect x="0" y="0" width="1400" height="3" fill="url(#accentGrad)"/>

  <!-- Title -->
  <text x="700" y="28" text-anchor="middle" font-family="system-ui, sans-serif" font-size="14" font-weight="600" fill="#8494a8" letter-spacing="1">MEMBER LIFECYCLE &amp; STATE MACHINE</text>

  <!-- ==================== MEMBER STATES ==================== -->
  <g transform="translate(40, 50)">
    <text x="0" y="0" class="heading-lg">Member State Machine</text>

    <!-- Non-Member State -->
    <g transform="translate(0, 30)">
      <circle cx="60" cy="60" r="50" fill="#334155" stroke="#475569" stroke-width="2"/>
      <text x="60" y="55" text-anchor="middle" class="heading">🚫</text>
      <text x="60" y="75" text-anchor="middle" class="text-md" fill="#fff">Non-Member</text>
    </g>

    <!-- Member State -->
    <g transform="translate(200, 30)">
      <circle cx="60" cy="60" r="50" fill="#8b5cf6" opacity="0.3" stroke="#8b5cf6" stroke-width="2"/>
      <text x="60" y="55" text-anchor="middle" class="heading" fill="#8b5cf6">👤</text>
      <text x="60" y="75" text-anchor="middle" class="text-md" fill="#fff">Member</text>
    </g>

    <!-- Admin State -->
    <g transform="translate(400, 30)">
      <circle cx="60" cy="60" r="50" fill="#eab308" opacity="0.3" stroke="#eab308" stroke-width="2"/>
      <text x="60" y="55" text-anchor="middle" class="heading" fill="#eab308">🛡️</text>
      <text x="60" y="75" text-anchor="middle" class="text-md" fill="#fff">Admin</text>
    </g>

    <!-- Owner State -->
    <g transform="translate(600, 30)">
      <circle cx="60" cy="60" r="50" fill="#22c55e" opacity="0.3" stroke="#22c55e" stroke-width="2"/>
      <text x="60" y="55" text-anchor="middle" class="heading" fill="#22c55e">👑</text>
      <text x="60" y="75" text-anchor="middle" class="text-md" fill="#fff">Owner</text>
    </g>

    <!-- State Transitions Arrows -->
    <g transform="translate(0, 30)">
      <!-- Non-Member → Member (addMembers) -->
      <path d="M 110 60 L 200 60" fill="none" stroke="#22c55e" stroke-width="2" marker-end="url(#arrowhead-green)"/>
      <text x="155" y="50" text-anchor="middle" class="code">addMembers()</text>

      <!-- Member → Admin (promote) -->
      <path d="M 310 60 L 400 60" fill="none" stroke="#eab308" stroke-width="2" marker-end="url(#arrowhead-yellow)"/>
      <text x="355" y="50" text-anchor="middle" class="code">promote()</text>

      <!-- Admin → Owner (transferOwnership) -->
      <path d="M 510 60 L 600 60" fill="none" stroke="#22c55e" stroke-width="2" marker-end="url(#arrowhead-green)"/>
      <text x="555" y="50" text-anchor="middle" class="code">transfer()</text>

      <!-- Member/Admin → Non-Member (leave/remove) -->
      <path d="M 260 140 Q 150 200 60 140" fill="none" stroke="#ef4444" stroke-width="2" marker-end="url(#arrowhead-red)"/>
      <text x="130" y="180" text-anchor="middle" class="code" fill="#ef4444">leave() / remove()</text>

      <!-- Owner → Admin (transfer) - demotion -->
      <path d="M 660 120 Q 550 180 480 120" fill="none" stroke="#eab308" stroke-width="2" stroke-dasharray="5,3" marker-end="url(#arrowhead-yellow)"/>
      <text x="560" y="170" text-anchor="middle" class="text-sm" fill="#eab308">After transfer → demoted</text>
    </g>
  </g>

  <!-- ==================== JOIN FLOW ==================== -->
  <g transform="translate(780, 50)">
    <text x="0" y="0" class="heading-lg">Join Flow (FR-001-005)</text>

    <rect x="0" y="20" width="280" height="170" rx="8" fill="#1e293b" stroke="#22c55e"/>

    <g transform="translate(15, 40)">
      <circle cx="12" cy="12" r="12" fill="#22c55e"/>
      <text x="12" y="17" text-anchor="middle" fill="#fff" font-size="11" font-weight="bold">1</text>
      <text x="30" y="17" class="text-sm">Owner calls addMembers(userIds[])</text>

      <circle cx="12" cy="47" r="12" fill="#22c55e"/>
      <text x="12" y="52" text-anchor="middle" fill="#fff" font-size="11" font-weight="bold">2</text>
      <text x="30" y="52" class="text-sm">Validate requester is owner (FR-001)</text>

      <circle cx="12" cy="82" r="12" fill="#22c55e"/>
      <text x="12" y="87" text-anchor="middle" fill="#fff" font-size="11" font-weight="bold">3</text>
      <text x="30" y="87" class="text-sm">Validate all userIds exist (FR-002)</text>

      <circle cx="12" cy="117" r="12" fill="#22c55e"/>
      <text x="12" y="122" text-anchor="middle" fill="#fff" font-size="11" font-weight="bold">4</text>
      <text x="30" y="122" class="text-sm">Insert memberships (FR-003)</text>

      <circle cx="12" cy="152" r="12" fill="#22c55e"/>
      <text x="12" y="157" text-anchor="middle" fill="#fff" font-size="11" font-weight="bold">5</text>
      <text x="30" y="157" class="text-sm">Notify new members (FR-005)</text>
    </g>
  </g>

  <!-- ==================== LEAVE FLOW ==================== -->
  <g transform="translate(780, 240)">
    <text x="0" y="0" class="heading-lg">Leave Flow (FR-015-018)</text>

    <rect x="0" y="20" width="280" height="135" rx="8" fill="#1e293b" stroke="#8b5cf6"/>

    <g transform="translate(15, 40)">
      <circle cx="12" cy="12" r="12" fill="#8b5cf6"/>
      <text x="12" y="17" text-anchor="middle" fill="#fff" font-size="11" font-weight="bold">1</text>
      <text x="30" y="17" class="text-sm">Member calls leaveGroup()</text>

      <circle cx="12" cy="47" r="12" fill="#8b5cf6"/>
      <text x="12" y="52" text-anchor="middle" fill="#fff" font-size="11" font-weight="bold">2</text>
      <text x="30" y="52" class="text-sm">Check if requester is owner (FR-016)</text>

      <circle cx="12" cy="82" r="12" fill="#8b5cf6"/>
      <text x="12" y="87" text-anchor="middle" fill="#fff" font-size="11" font-weight="bold">3</text>
      <text x="30" y="87" class="text-sm">Delete membership (FR-017)</text>

      <circle cx="12" cy="117" r="12" fill="#8b5cf6"/>
      <text x="12" y="122" text-anchor="middle" fill="#fff" font-size="11" font-weight="bold">4</text>
      <text x="30" y="122" class="text-sm">Revoke message access (FR-018)</text>
    </g>
  </g>

  <!-- ==================== REMOVE FLOW ==================== -->
  <g transform="translate(1080, 50)">
    <text x="0" y="0" class="heading-lg">Remove Flow (FR-010-014)</text>

    <rect x="0" y="20" width="280" height="170" rx="8" fill="#1e293b" stroke="#ef4444"/>

    <g transform="translate(15, 40)">
      <circle cx="12" cy="12" r="12" fill="#ef4444"/>
      <text x="12" y="17" text-anchor="middle" fill="#fff" font-size="11" font-weight="bold">1</text>
      <text x="30" y="17" class="text-sm">Owner/Admin calls removeMember()</text>

      <circle cx="12" cy="47" r="12" fill="#ef4444"/>
      <text x="12" y="52" text-anchor="middle" fill="#fff" font-size="11" font-weight="bold">2</text>
      <text x="30" y="52" class="text-sm">Validate permission (FR-010)</text>

      <circle cx="12" cy="82" r="12" fill="#ef4444"/>
      <text x="12" y="87" text-anchor="middle" fill="#fff" font-size="11" font-weight="bold">3</text>
      <text x="30" y="87" class="text-sm">Prevent self-removal if owner (FR-011)</text>

      <circle cx="12" cy="117" r="12" fill="#ef4444"/>
      <text x="12" y="122" text-anchor="middle" fill="#fff" font-size="11" font-weight="bold">4</text>
      <text x="30" y="122" class="text-sm">Delete membership (FR-012-013)</text>

      <circle cx="12" cy="152" r="12" fill="#ef4444"/>
      <text x="12" y="157" text-anchor="middle" fill="#fff" font-size="11" font-weight="bold">5</text>
      <text x="30" y="157" class="text-sm">Notify removed member (FR-014)</text>
    </g>
  </g>

  <!-- ==================== OWNERSHIP TRANSFER ==================== -->
  <g transform="translate(1080, 240)">
    <text x="0" y="0" class="heading-lg">Transfer Flow (FR-019-022)</text>

    <rect x="0" y="20" width="280" height="135" rx="8" fill="#1e293b" stroke="#eab308"/>

    <g transform="translate(15, 40)">
      <circle cx="12" cy="12" r="12" fill="#eab308"/>
      <text x="12" y="17" text-anchor="middle" fill="#1a1a2e" font-size="11" font-weight="bold">1</text>
      <text x="30" y="17" class="text-sm">Owner calls transferOwnership()</text>

      <circle cx="12" cy="47" r="12" fill="#eab308"/>
      <text x="12" y="52" text-anchor="middle" fill="#1a1a2e" font-size="11" font-weight="bold">2</text>
      <text x="30" y="52" class="text-sm">Validate new owner is member (FR-020)</text>

      <circle cx="12" cy="82" r="12" fill="#eab308"/>
      <text x="12" y="87" text-anchor="middle" fill="#1a1a2e" font-size="11" font-weight="bold">3</text>
      <text x="30" y="87" class="text-sm">Update ownership (FR-021)</text>

      <circle cx="12" cy="117" r="12" fill="#eab308"/>
      <text x="12" y="122" text-anchor="middle" fill="#1a1a2e" font-size="11" font-weight="bold">4</text>
      <text x="30" y="122" class="text-sm">Notify both parties (FR-022)</text>
    </g>
  </g>

  <!-- ==================== EDGE CASES ==================== -->
  <g transform="translate(40, 250)">
    <text x="0" y="0" class="heading-lg">Edge Cases &amp; Error Handling</text>

    <rect x="0" y="20" width="700" height="200" rx="8" fill="#1e293b" stroke="#ef4444"/>

    <!-- Row 1 -->
    <g transform="translate(20, 45)">
      <rect x="0" y="0" width="320" height="35" rx="4" fill="#334155"/>
      <text x="10" y="15" class="text-sm" fill="#ef4444">❌ Owner tries to remove themselves</text>
      <text x="10" y="30" class="text-muted">→ Denied - must transfer ownership first (FR-011)</text>

      <rect x="340" y="0" width="320" height="35" rx="4" fill="#334155"/>
      <text x="350" y="15" class="text-sm" fill="#ef4444">❌ Non-owner attempts to add members</text>
      <text x="350" y="30" class="text-muted">→ Permission denied error (FR-001)</text>
    </g>

    <!-- Row 2 -->
    <g transform="translate(20, 90)">
      <rect x="0" y="0" width="320" height="35" rx="4" fill="#334155"/>
      <text x="10" y="15" class="text-sm" fill="#eab308">⚠️ Transfer to non-member</text>
      <text x="10" y="30" class="text-muted">→ Denied - new owner must be member (FR-020)</text>

      <rect x="340" y="0" width="320" height="35" rx="4" fill="#334155"/>
      <text x="350" y="15" class="text-sm" fill="#eab308">⚠️ Add already-member user</text>
      <text x="350" y="30" class="text-muted">→ No-op with success (idempotent)</text>
    </g>

    <!-- Row 3 -->
    <g transform="translate(20, 135)">
      <rect x="0" y="0" width="320" height="35" rx="4" fill="#334155"/>
      <text x="10" y="15" class="text-sm" fill="#eab308">⚠️ Owner leaves without transfer</text>
      <text x="10" y="30" class="text-muted">→ Blocked - requires ownership transfer (FR-016)</text>

      <rect x="340" y="0" width="320" height="35" rx="4" fill="#334155"/>
      <text x="350" y="15" class="text-sm" fill="#8b5cf6">📋 Network fails during removal</text>
      <text x="350" y="30" class="text-muted">→ Transaction rollback - member remains (NFR-006)</text>
    </g>

    <!-- Row 4 -->
    <g transform="translate(20, 180)">
      <rect x="0" y="0" width="320" height="35" rx="4" fill="#334155"/>
      <text x="10" y="15" class="text-sm" fill="#8b5cf6">📋 All members leave group</text>
      <text x="10" y="30" class="text-muted">→ Orphaned - cleaned up by system job</text>

      <rect x="340" y="0" width="320" height="35" rx="4" fill="#334155"/>
      <text x="350" y="15" class="text-sm" fill="#8b5cf6">📋 Access deleted group</text>
      <text x="350" y="30" class="text-muted">→ Archived view, no interaction (FR-032)</text>
    </g>
  </g>

  <!-- ==================== GROUP LIFECYCLE ==================== -->
  <g transform="translate(40, 480)">
    <text x="0" y="0" class="heading-lg">Group Lifecycle (FR-023-035)</text>

    <rect x="0" y="20" width="700" height="120" rx="8" fill="#1e293b" stroke="#d946ef"/>

    <!-- States -->
    <g transform="translate(30, 50)">
      <!-- DM State -->
      <rect x="0" y="0" width="100" height="60" rx="8" fill="#334155" stroke="#475569"/>
      <text x="50" y="25" text-anchor="middle" class="text-md" fill="#fff">💬 DM</text>
      <text x="50" y="45" text-anchor="middle" class="text-muted">type: direct</text>

      <!-- Arrow -->
      <path d="M 100 30 L 150 30" fill="none" stroke="#d946ef" stroke-width="2" marker-end="url(#arrowhead)"/>
      <text x="125" y="20" text-anchor="middle" class="code" fill="#d946ef">upgrade()</text
      >

      <!-- Group Active State -->
      <rect x="150" y="0" width="120" height="60" rx="8" fill="#22c55e" opacity="0.2" stroke="#22c55e"/>
      <text x="210" y="25" text-anchor="middle" class="text-md" fill="#fff">👥 Group</text>
      <text x="210" y="45" text-anchor="middle" class="text-muted">type: group</text>

      <!-- Arrow to Renamed -->
      <path d="M 270 30 L 320 30" fill="none" stroke="#8b5cf6" stroke-width="2" marker-end="url(#arrowhead)"/>
      <text x="295" y="20" text-anchor="middle" class="code">rename()</text>

      <!-- Renamed State -->
      <rect x="320" y="0" width="120" height="60" rx="8" fill="#8b5cf6" opacity="0.2" stroke="#8b5cf6"/>
      <text x="380" y="25" text-anchor="middle" class="text-md" fill="#fff">✏️ Renamed</text>
      <text x="380" y="45" text-anchor="middle" class="text-muted">name updated</text>

      <!-- Arrow to Archived -->
      <path d="M 440 30 L 490 30" fill="none" stroke="#ef4444" stroke-width="2" marker-end="url(#arrowhead-red)"/>
      <text x="465" y="20" text-anchor="middle" class="code" fill="#ef4444">delete()</text>

      <!-- Archived State -->
      <rect x="490" y="0" width="120" height="60" rx="8" fill="#ef4444" opacity="0.2" stroke="#ef4444"/>
      <text x="550" y="25" text-anchor="middle" class="text-md" fill="#fff">🗄️ Archived</text>
      <text x="550" y="45" text-anchor="middle" class="text-muted">archived_at set</text>
    </g>

    <!-- Notes -->
    <g transform="translate(30, 120)">
      <text x="0" y="0" class="text-sm">FR-023-026: DM upgrade preserves history</text>
      <text x="230" y="0" class="text-sm">FR-027-030: Rename with validation</text>
      <text x="420" y="0" class="text-sm">FR-031-035: Soft delete (archive)</text>
    </g>
  </g>

  <!-- ==================== OPERATION PERMISSION MATRIX ==================== -->
  <g transform="translate(780, 400)">
    <text x="0" y="0" class="heading-lg">Permission Matrix</text>

    <rect x="0" y="20" width="580" height="200" rx="8" fill="#1e293b" stroke="#475569"/>

    <!-- Header -->
    <g transform="translate(15, 45)">
      <text x="0" y="0" class="text-md" fill="#fff" font-weight="600">Operation</text>
      <text x="180" y="0" text-anchor="middle" fill="#22c55e" class="text-md" font-weight="600">Owner</text>
      <text x="280" y="0" text-anchor="middle" fill="#eab308" class="text-md" font-weight="600">Admin</text>
      <text x="380" y="0" text-anchor="middle" fill="#8b5cf6" class="text-md" font-weight="600">Member</text>
      <text x="480" y="0" text-anchor="middle" fill="#475569" class="text-md" font-weight="600">Non-Member</text>
    </g>

    <!-- Divider -->
    <line x1="15" y1="70" x2="565" y2="70" stroke="#475569"/>

    <!-- Operations -->
    <g transform="translate(15, 85)">
      <text x="0" y="0" class="text-sm">addMembers()</text>
      <text x="180" y="0" text-anchor="middle" fill="#22c55e">✓</text>
      <text x="280" y="0" text-anchor="middle" fill="#ef4444">✗</text>
      <text x="380" y="0" text-anchor="middle" fill="#ef4444">✗</text>
      <text x="480" y="0" text-anchor="middle" fill="#ef4444">✗</text>

      <text x="0" y="20" class="text-sm">getMembers()</text>
      <text x="180" y="20" text-anchor="middle" fill="#22c55e">✓</text>
      <text x="280" y="20" text-anchor="middle" fill="#22c55e">✓</text>
      <text x="380" y="20" text-anchor="middle" fill="#22c55e">✓</text>
      <text x="480" y="20" text-anchor="middle" fill="#ef4444">✗</text>

      <text x="0" y="40" class="text-sm">removeMember()</text>
      <text x="180" y="40" text-anchor="middle" fill="#22c55e">✓</text>
      <text x="280" y="40" text-anchor="middle" fill="#22c55e">✓</text>
      <text x="380" y="40" text-anchor="middle" fill="#ef4444">✗</text>
      <text x="480" y="40" text-anchor="middle" fill="#ef4444">✗</text>

      <text x="0" y="60" class="text-sm">leaveGroup()</text>
      <text x="180" y="60" text-anchor="middle" fill="#eab308">⚠</text>
      <text x="280" y="60" text-anchor="middle" fill="#22c55e">✓</text>
      <text x="380" y="60" text-anchor="middle" fill="#22c55e">✓</text>
      <text x="480" y="60" text-anchor="middle" fill="#ef4444">✗</text>

      <text x="0" y="80" class="text-sm">transferOwnership()</text>
      <text x="180" y="80" text-anchor="middle" fill="#22c55e">✓</text>
      <text x="280" y="80" text-anchor="middle" fill="#ef4444">✗</text>
      <text x="380" y="80" text-anchor="middle" fill="#ef4444">✗</text>
      <text x="480" y="80" text-anchor="middle" fill="#ef4444">✗</text>

      <text x="0" y="100" class="text-sm">renameGroup()</text>
      <text x="180" y="100" text-anchor="middle" fill="#22c55e">✓</text>
      <text x="280" y="100" text-anchor="middle" fill="#ef4444">✗</text>
      <text x="380" y="100" text-anchor="middle" fill="#ef4444">✗</text>
      <text x="480" y="100" text-anchor="middle" fill="#ef4444">✗</text>

      <text x="0" y="120" class="text-sm">deleteGroup()</text>
      <text x="180" y="120" text-anchor="middle" fill="#22c55e">✓</text>
      <text x="280" y="120" text-anchor="middle" fill="#ef4444">✗</text>
      <text x="380" y="120" text-anchor="middle" fill="#ef4444">✗</text>
      <text x="480" y="120" text-anchor="middle" fill="#ef4444">✗</text>
    </g>

    <!-- Legend -->
    <g transform="translate(15, 215)">
      <text x="0" y="0" class="text-muted">✓ Allowed | ✗ Denied | ⚠ Requires transfer first</text>
    </g>
  </g>

  <!-- ==================== AUDIT EVENTS ==================== -->
  <g transform="translate(40, 620)">
    <rect x="0" y="0" width="700" height="130" rx="8" fill="#1e293b" stroke="#eab308"/>
    <text x="350" y="25" text-anchor="middle" class="heading" fill="#eab308">📝 Audit Events (NFR-007)</text>

    <g transform="translate(20, 45)">
      <rect x="0" y="0" width="160" height="70" rx="4" fill="#334155"/>
      <text x="80" y="18" text-anchor="middle" class="code">MEMBER_ADDED</text>
      <text x="10" y="38" class="text-muted">actor: owner_id</text>
      <text x="10" y="52" class="text-muted">target: user_id</text>
      <text x="10" y="66" class="text-muted">group: conversation_id</text>

      <rect x="175" y="0" width="160" height="70" rx="4" fill="#334155"/>
      <text x="255" y="18" text-anchor="middle" class="code">MEMBER_REMOVED</text>
      <text x="185" y="38" class="text-muted">actor: admin_id</text>
      <text x="185" y="52" class="text-muted">target: user_id</text>
      <text x="185" y="66" class="text-muted">reason: 'kicked'|'left'</text>

      <rect x="350" y="0" width="160" height="70" rx="4" fill="#334155"/>
      <text x="430" y="18" text-anchor="middle" class="code">OWNERSHIP_TRANSFER</text>
      <text x="360" y="38" class="text-muted">from: old_owner_id</text>
      <text x="360" y="52" class="text-muted">to: new_owner_id</text>
      <text x="360" y="66" class="text-muted">timestamp: ISO8601</text>

      <rect x="525" y="0" width="160" height="70" rx="4" fill="#334155"/>
      <text x="605" y="18" text-anchor="middle" class="code">GROUP_ARCHIVED</text>
      <text x="535" y="38" class="text-muted">actor: owner_id</text>
      <text x="535" y="52" class="text-muted">group: conversation_id</text>
      <text x="535" y="66" class="text-muted">member_count: N</text>
    </g>
  </g>

  <!-- Dependencies note -->
  <g transform="translate(780, 620)">
    <rect x="0" y="0" width="580" height="130" rx="8" fill="#1e293b" stroke="#475569"/>
    <text x="290" y="25" text-anchor="middle" class="heading">Feature Integration</text>

    <g transform="translate(20, 50)">
      <text x="0" y="0" class="text-md" fill="#fff">Depends on:</text>
      <text x="0" y="20" class="text-sm">• 009-user-messaging-system: Base messaging infrastructure</text>
      <text x="0" y="38" class="text-sm">• 011-group-chats: Group conversation type support</text>

      <text x="280" y="0" class="text-md" fill="#fff">Provides:</text>
      <text x="280" y="20" class="text-sm">• 8 group management operations</text>
      <text x="280" y="38" class="text-sm">• Role-based permission system</text>
      <text x="280" y="56" class="text-sm">• Audit logging for compliance</text>
    </g>

    <text x="20" y="115" class="text-muted">SC-001: All 8 operations functional | SC-002: 100% permission checks | SC-006: Zero bypass vulnerabilities</text>
  </g>
</svg>