<svg xmlns="http://www.w3.org/2000/svg" viewBox="0 0 1400 900" width="1400" height="900">
  <!-- ============================================================
       GENERATED BY: /wireframe skill
       SOURCE: features/payments/043-group-service/spec.md
       DATE: 2025-12-31
       DO NOT MANUALLY EDIT - Regenerate with /wireframe command
       ============================================================ -->
  <defs>
    <linearGradient id="bgGrad" x1="0%" y1="0%" x2="100%" y2="100%">
      <stop offset="0%" style="stop-color:#0f172a"/>
      <stop offset="100%" style="stop-color:#1e293b"/>
    </linearGradient>
    <linearGradient id="accentGrad" x1="0%" y1="0%" x2="100%" y2="0%">
      <stop offset="0%" style="stop-color:#8b5cf6"/>
      <stop offset="100%" style="stop-color:#d946ef"/>
    </linearGradient>
    <style>
      .heading-lg { fill: #ffffff; font-family: system-ui, sans-serif; font-size: 20px; font-weight: bold; }
      .heading { fill: #ffffff; font-family: system-ui, sans-serif; font-size: 14px; font-weight: bold; }
      .text-md { fill: #cbd5e1; font-family: system-ui, sans-serif; font-size: 12px; }
      .text-sm { fill: #94a3b8; font-family: system-ui, sans-serif; font-size: 10px; }
      .text-muted { fill: #64748b; font-family: system-ui, sans-serif; font-size: 10px; }
      .annotation { fill: #8b5cf6; font-family: monospace; font-size: 10px; }
      .label-section { fill: #8b5cf6; font-family: monospace; font-size: 11px; font-weight: bold; }
      .code { fill: #f1fa8c; font-family: monospace; font-size: 9px; }
      .step-num { fill: #8b5cf6; font-family: system-ui, sans-serif; font-size: 12px; font-weight: bold; }
    </style>
    <marker id="arrowhead" markerWidth="10" markerHeight="7" refX="9" refY="3.5" orient="auto">
      <polygon points="0 0, 10 3.5, 0 7" fill="#8b5cf6"/>
    </marker>
    <marker id="arrowhead-green" markerWidth="10" markerHeight="7" refX="9" refY="3.5" orient="auto">
      <polygon points="0 0, 10 3.5, 0 7" fill="#22c55e"/>
    </marker>
    <marker id="arrowhead-red" markerWidth="10" markerHeight="7" refX="9" refY="3.5" orient="auto">
      <polygon points="0 0, 10 3.5, 0 7" fill="#ef4444"/>
    </marker>
  </defs>

  <!-- Background -->
  <rect width="1400" height="900" fill="url(#bgGrad)"/>

  <!-- Dot grid pattern -->
  <g opacity="0.05">
    <pattern id="dots" width="30" height="30" patternUnits="userSpaceOnUse">
      <circle cx="15" cy="15" r="1" fill="#fff"/>
    </pattern>
    <rect width="1400" height="900" fill="url(#dots)"/>
  </g>

  <!-- Accent line top -->
  <rect x="0" y="0" width="1400" height="3" fill="url(#accentGrad)"/>

  <!-- Title -->
  <text x="700" y="28" text-anchor="middle" font-family="system-ui, sans-serif" font-size="14" font-weight="600" fill="#64748b" letter-spacing="1">GROUP SERVICE - 8 CORE OPERATIONS</text>

  <!-- ROW 1: Member Operations -->
  <text x="40" y="55" class="label-section">MEMBER OPERATIONS</text>

  <!-- Operation 1: Add Members -->
  <g transform="translate(40, 70)">
    <rect x="0" y="0" width="300" height="180" rx="8" fill="#1e293b" stroke="#8b5cf6" stroke-width="2"/>
    <text x="15" y="25" class="heading">1. addMembers()</text>
    <text x="15" y="45" class="text-muted">FR-001 to FR-005</text>

    <!-- Flow steps -->
    <circle cx="25" cy="70" r="10" fill="#334155" stroke="#8b5cf6"/>
    <text x="25" y="74" text-anchor="middle" class="step-num">1</text>
    <text x="45" y="74" class="text-sm">Verify requester is owner</text>

    <circle cx="25" cy="95" r="10" fill="#334155" stroke="#8b5cf6"/>
    <text x="25" y="99" text-anchor="middle" class="step-num">2</text>
    <text x="45" y="99" class="text-sm">Validate user IDs exist</text>

    <circle cx="25" cy="120" r="10" fill="#334155" stroke="#8b5cf6"/>
    <text x="25" y="124" text-anchor="middle" class="step-num">3</text>
    <text x="45" y="124" class="text-sm">Insert member records</text>

    <circle cx="25" cy="145" r="10" fill="#334155" stroke="#22c55e"/>
    <text x="25" y="149" text-anchor="middle" class="step-num">4</text>
    <text x="45" y="149" class="text-sm" fill="#22c55e">Notify new members</text>

    <rect x="200" y="160" width="90" height="16" rx="4" fill="#22c55e" fill-opacity="0.2"/>
    <text x="245" y="172" text-anchor="middle" class="text-sm" fill="#22c55e">Owner only</text>
  </g>

  <!-- Operation 2: Get Members -->
  <g transform="translate(360, 70)">
    <rect x="0" y="0" width="300" height="180" rx="8" fill="#1e293b" stroke="#22c55e" stroke-width="2"/>
    <text x="15" y="25" class="heading">2. getMembers()</text>
    <text x="15" y="45" class="text-muted">FR-006 to FR-009</text>

    <circle cx="25" cy="70" r="10" fill="#334155" stroke="#22c55e"/>
    <text x="25" y="74" text-anchor="middle" class="step-num">1</text>
    <text x="45" y="74" class="text-sm">Verify requester is member</text>

    <circle cx="25" cy="95" r="10" fill="#334155" stroke="#22c55e"/>
    <text x="25" y="99" text-anchor="middle" class="step-num">2</text>
    <text x="45" y="99" class="text-sm">Query members table</text>

    <circle cx="25" cy="120" r="10" fill="#334155" stroke="#22c55e"/>
    <text x="25" y="124" text-anchor="middle" class="step-num">3</text>
    <text x="45" y="124" class="text-sm">Include roles + join dates</text>

    <circle cx="25" cy="145" r="10" fill="#334155" stroke="#22c55e"/>
    <text x="25" y="149" text-anchor="middle" class="step-num">4</text>
    <text x="45" y="149" class="text-sm">Return member list</text>

    <rect x="200" y="160" width="90" height="16" rx="4" fill="#22c55e" fill-opacity="0.2"/>
    <text x="245" y="172" text-anchor="middle" class="text-sm" fill="#22c55e">All members</text>
  </g>

  <!-- Operation 3: Remove Member -->
  <g transform="translate(680, 70)">
    <rect x="0" y="0" width="300" height="180" rx="8" fill="#1e293b" stroke="#ef4444" stroke-width="2"/>
    <text x="15" y="25" class="heading">3. removeMember()</text>
    <text x="15" y="45" class="text-muted">FR-010 to FR-014</text>

    <circle cx="25" cy="70" r="10" fill="#334155" stroke="#ef4444"/>
    <text x="25" y="74" text-anchor="middle" class="step-num">1</text>
    <text x="45" y="74" class="text-sm">Verify owner/admin permission</text>

    <circle cx="25" cy="95" r="10" fill="#334155" stroke="#ef4444"/>
    <text x="25" y="99" text-anchor="middle" class="step-num">2</text>
    <text x="45" y="99" class="text-sm">Block if target is owner</text>

    <circle cx="25" cy="120" r="10" fill="#334155" stroke="#ef4444"/>
    <text x="25" y="124" text-anchor="middle" class="step-num">3</text>
    <text x="45" y="124" class="text-sm">Delete member record</text>

    <circle cx="25" cy="145" r="10" fill="#334155" stroke="#ef4444"/>
    <text x="25" y="149" text-anchor="middle" class="step-num">4</text>
    <text x="45" y="149" class="text-sm" fill="#ef4444">Revoke access + notify</text>

    <rect x="185" y="160" width="105" height="16" rx="4" fill="#ef4444" fill-opacity="0.2"/>
    <text x="237" y="172" text-anchor="middle" class="text-sm" fill="#ef4444">Owner/Admin</text>
  </g>

  <!-- Operation 4: Leave Group -->
  <g transform="translate(1000, 70)">
    <rect x="0" y="0" width="300" height="180" rx="8" fill="#1e293b" stroke="#eab308" stroke-width="2"/>
    <text x="15" y="25" class="heading">4. leaveGroup()</text>
    <text x="15" y="45" class="text-muted">FR-015 to FR-018</text>

    <circle cx="25" cy="70" r="10" fill="#334155" stroke="#eab308"/>
    <text x="25" y="74" text-anchor="middle" class="step-num">1</text>
    <text x="45" y="74" class="text-sm">Check if owner (block if so)</text>

    <circle cx="25" cy="95" r="10" fill="#334155" stroke="#eab308"/>
    <text x="25" y="99" text-anchor="middle" class="step-num">2</text>
    <text x="45" y="99" class="text-sm">Require ownership transfer</text>

    <circle cx="25" cy="120" r="10" fill="#334155" stroke="#eab308"/>
    <text x="25" y="124" text-anchor="middle" class="step-num">3</text>
    <text x="45" y="124" class="text-sm">Delete own member record</text>

    <circle cx="25" cy="145" r="10" fill="#334155" stroke="#eab308"/>
    <text x="25" y="149" text-anchor="middle" class="step-num">4</text>
    <text x="45" y="149" class="text-sm">Revoke own access</text>

    <rect x="200" y="160" width="90" height="16" rx="4" fill="#eab308" fill-opacity="0.2"/>
    <text x="245" y="172" text-anchor="middle" class="text-sm" fill="#eab308">Self only</text>
  </g>

  <!-- ROW 2: Admin Operations -->
  <text x="40" y="275" class="label-section">ADMIN OPERATIONS</text>

  <!-- Operation 5: Transfer Ownership -->
  <g transform="translate(40, 290)">
    <rect x="0" y="0" width="300" height="180" rx="8" fill="#1e293b" stroke="#d946ef" stroke-width="2"/>
    <text x="15" y="25" class="heading">5. transferOwnership()</text>
    <text x="15" y="45" class="text-muted">FR-019 to FR-022</text>

    <circle cx="25" cy="70" r="10" fill="#334155" stroke="#d946ef"/>
    <text x="25" y="74" text-anchor="middle" class="step-num">1</text>
    <text x="45" y="74" class="text-sm">Verify requester is owner</text>

    <circle cx="25" cy="95" r="10" fill="#334155" stroke="#d946ef"/>
    <text x="25" y="99" text-anchor="middle" class="step-num">2</text>
    <text x="45" y="99" class="text-sm">Verify target is member</text>

    <circle cx="25" cy="120" r="10" fill="#334155" stroke="#d946ef"/>
    <text x="25" y="124" text-anchor="middle" class="step-num">3</text>
    <text x="45" y="124" class="text-sm">Update ownership record</text>

    <circle cx="25" cy="145" r="10" fill="#334155" stroke="#d946ef"/>
    <text x="25" y="149" text-anchor="middle" class="step-num">4</text>
    <text x="45" y="149" class="text-sm" fill="#d946ef">Notify both parties</text>

    <rect x="200" y="160" width="90" height="16" rx="4" fill="#d946ef" fill-opacity="0.2"/>
    <text x="245" y="172" text-anchor="middle" class="text-sm" fill="#d946ef">Owner only</text>
  </g>

  <!-- Operation 6: Rename Group -->
  <g transform="translate(360, 290)">
    <rect x="0" y="0" width="300" height="180" rx="8" fill="#1e293b" stroke="#8b5cf6" stroke-width="2"/>
    <text x="15" y="25" class="heading">6. renameGroup()</text>
    <text x="15" y="45" class="text-muted">FR-027 to FR-030</text>

    <circle cx="25" cy="70" r="10" fill="#334155" stroke="#8b5cf6"/>
    <text x="25" y="74" text-anchor="middle" class="step-num">1</text>
    <text x="45" y="74" class="text-sm">Verify requester is owner</text>

    <circle cx="25" cy="95" r="10" fill="#334155" stroke="#8b5cf6"/>
    <text x="25" y="99" text-anchor="middle" class="step-num">2</text>
    <text x="45" y="99" class="text-sm">Validate name (length, chars)</text>

    <circle cx="25" cy="120" r="10" fill="#334155" stroke="#8b5cf6"/>
    <text x="25" y="124" text-anchor="middle" class="step-num">3</text>
    <text x="45" y="124" class="text-sm">Update group name</text>

    <circle cx="25" cy="145" r="10" fill="#334155" stroke="#8b5cf6"/>
    <text x="25" y="149" text-anchor="middle" class="step-num">4</text>
    <text x="45" y="149" class="text-sm">Notify all members</text>

    <rect x="200" y="160" width="90" height="16" rx="4" fill="#8b5cf6" fill-opacity="0.2"/>
    <text x="245" y="172" text-anchor="middle" class="text-sm" fill="#8b5cf6">Owner only</text>
  </g>

  <!-- Operation 7: Delete Group -->
  <g transform="translate(680, 290)">
    <rect x="0" y="0" width="300" height="180" rx="8" fill="#1e293b" stroke="#ef4444" stroke-width="2"/>
    <text x="15" y="25" class="heading">7. deleteGroup()</text>
    <text x="15" y="45" class="text-muted">FR-031 to FR-035</text>

    <circle cx="25" cy="70" r="10" fill="#334155" stroke="#ef4444"/>
    <text x="25" y="74" text-anchor="middle" class="step-num">1</text>
    <text x="45" y="74" class="text-sm">Verify requester is owner</text>

    <circle cx="25" cy="95" r="10" fill="#334155" stroke="#ef4444"/>
    <text x="25" y="99" text-anchor="middle" class="step-num">2</text>
    <text x="45" y="99" class="text-sm">Archive group (soft delete)</text>

    <circle cx="25" cy="120" r="10" fill="#334155" stroke="#ef4444"/>
    <text x="25" y="124" text-anchor="middle" class="step-num">3</text>
    <text x="45" y="124" class="text-sm">Archive all messages</text>

    <circle cx="25" cy="145" r="10" fill="#334155" stroke="#ef4444"/>
    <text x="25" y="149" text-anchor="middle" class="step-num">4</text>
    <text x="45" y="149" class="text-sm" fill="#ef4444">Revoke all + notify</text>

    <rect x="200" y="160" width="90" height="16" rx="4" fill="#ef4444" fill-opacity="0.2"/>
    <text x="245" y="172" text-anchor="middle" class="text-sm" fill="#ef4444">Owner only</text>
  </g>

  <!-- Operation 8: Upgrade to Group -->
  <g transform="translate(1000, 290)">
    <rect x="0" y="0" width="300" height="180" rx="8" fill="#1e293b" stroke="#22c55e" stroke-width="2"/>
    <text x="15" y="25" class="heading">8. upgradeToGroup()</text>
    <text x="15" y="45" class="text-muted">FR-023 to FR-026</text>

    <circle cx="25" cy="70" r="10" fill="#334155" stroke="#22c55e"/>
    <text x="25" y="74" text-anchor="middle" class="step-num">1</text>
    <text x="45" y="74" class="text-sm">Verify is DM conversation</text>

    <circle cx="25" cy="95" r="10" fill="#334155" stroke="#22c55e"/>
    <text x="25" y="99" text-anchor="middle" class="step-num">2</text>
    <text x="45" y="99" class="text-sm">Change type to 'group'</text>

    <circle cx="25" cy="120" r="10" fill="#334155" stroke="#22c55e"/>
    <text x="25" y="124" text-anchor="middle" class="step-num">3</text>
    <text x="45" y="124" class="text-sm">Preserve message history</text>

    <circle cx="25" cy="145" r="10" fill="#334155" stroke="#22c55e"/>
    <text x="25" y="149" text-anchor="middle" class="step-num">4</text>
    <text x="45" y="149" class="text-sm">Set owner + default name</text>

    <rect x="180" y="160" width="110" height="16" rx="4" fill="#22c55e" fill-opacity="0.2"/>
    <text x="235" y="172" text-anchor="middle" class="text-sm" fill="#22c55e">DM participant</text>
  </g>

  <!-- EDGE CASES -->
  <text x="40" y="495" class="label-section">EDGE CASES &amp; ERROR HANDLING</text>

  <rect x="40" y="510" width="620" height="160" rx="8" fill="#1e293b" stroke="#ef4444"/>
  <text x="55" y="535" class="heading" fill="#ef4444">Denied Operations</text>

  <g transform="translate(55, 550)">
    <circle cx="8" cy="8" r="4" fill="#ef4444"/>
    <text x="20" y="12" class="text-sm">Owner removes self → "Transfer ownership first"</text>

    <circle cx="8" cy="32" r="4" fill="#ef4444"/>
    <text x="20" y="36" class="text-sm">Non-owner adds members → "Permission denied"</text>

    <circle cx="8" cy="56" r="4" fill="#ef4444"/>
    <text x="20" y="60" class="text-sm">Transfer to non-member → "User not in group"</text>

    <circle cx="8" cy="80" r="4" fill="#ef4444"/>
    <text x="20" y="84" class="text-sm">Invalid user ID → "User not found"</text>

    <circle cx="8" cy="104" r="4" fill="#ef4444"/>
    <text x="20" y="108" class="text-sm">Name too long → "Max 100 characters"</text>
  </g>

  <g transform="translate(350, 550)">
    <circle cx="8" cy="8" r="4" fill="#eab308"/>
    <text x="20" y="12" class="text-sm">Network failure → Transaction rollback</text>

    <circle cx="8" cy="32" r="4" fill="#eab308"/>
    <text x="20" y="36" class="text-sm">Add existing member → No-op (idempotent)</text>

    <circle cx="8" cy="56" r="4" fill="#eab308"/>
    <text x="20" y="60" class="text-sm">Deleted group access → Archived view only</text>

    <circle cx="8" cy="80" r="4" fill="#eab308"/>
    <text x="20" y="84" class="text-sm">All members leave → Orphaned, cleanup job</text>
  </g>

  <!-- NFR Requirements -->
  <rect x="680" y="510" width="320" height="160" rx="8" fill="#1e293b" stroke="#8b5cf6"/>
  <text x="695" y="535" class="annotation">NON-FUNCTIONAL REQUIREMENTS</text>

  <text x="695" y="560" class="text-sm">NFR-001: All ops require authentication</text>
  <text x="695" y="580" class="text-sm">NFR-002: Permission check before data change</text>
  <text x="695" y="600" class="text-sm">NFR-004: Complete in &lt;500ms (95th %ile)</text>
  <text x="695" y="620" class="text-sm">NFR-005: Batch notifications for efficiency</text>
  <text x="695" y="640" class="text-sm">NFR-006: Multi-step ops are transactional</text>
  <text x="695" y="660" class="text-sm">NFR-007: All actions logged for audit</text>

  <!-- Success Criteria summary -->
  <rect x="1020" y="510" width="280" height="160" rx="8" fill="#1e293b" stroke="#22c55e"/>
  <text x="1035" y="535" class="annotation" fill="#22c55e">SUCCESS METRICS</text>

  <text x="1035" y="560" class="text-sm">SC-001: 8/8 operations functional</text>
  <text x="1035" y="580" class="text-sm">SC-002: 100% permission enforcement</text>
  <text x="1035" y="600" class="text-sm">SC-005: &lt;500ms response time</text>
  <text x="1035" y="620" class="text-sm">SC-006: 0 permission bypasses</text>

  <rect x="1035" y="640" width="250" height="22" rx="4" fill="#22c55e" fill-opacity="0.2"/>
  <text x="1160" y="656" text-anchor="middle" class="heading" fill="#22c55e">TESTABLE</text>
</svg>