<svg xmlns="http://www.w3.org/2000/svg" viewBox="0 0 1400 800" width="1400" height="800">
  <!-- ============================================================
       GENERATED BY: /wireframe skill
       SOURCE: features/payments/043-group-service/spec.md
       DATE: 2025-12-31
       DO NOT MANUALLY EDIT - Regenerate with /wireframe command
       ============================================================ -->
  <defs>
    <linearGradient id="bgGrad" x1="0%" y1="0%" x2="100%" y2="100%">
      <stop offset="0%" style="stop-color:#0f172a"/>
      <stop offset="100%" style="stop-color:#1e293b"/>
    </linearGradient>
    <linearGradient id="accentGrad" x1="0%" y1="0%" x2="100%" y2="0%">
      <stop offset="0%" style="stop-color:#8b5cf6"/>
      <stop offset="100%" style="stop-color:#d946ef"/>
    </linearGradient>
    <linearGradient id="ownerGrad" x1="0%" y1="0%" x2="0%" y2="100%">
      <stop offset="0%" style="stop-color:#d946ef"/>
      <stop offset="100%" style="stop-color:#a21caf"/>
    </linearGradient>
    <linearGradient id="adminGrad" x1="0%" y1="0%" x2="0%" y2="100%">
      <stop offset="0%" style="stop-color:#8b5cf6"/>
      <stop offset="100%" style="stop-color:#6d28d9"/>
    </linearGradient>
    <linearGradient id="memberGrad" x1="0%" y1="0%" x2="0%" y2="100%">
      <stop offset="0%" style="stop-color:#22c55e"/>
      <stop offset="100%" style="stop-color:#16a34a"/>
    </linearGradient>
    <style>
      .heading-lg { fill: #ffffff; font-family: system-ui, sans-serif; font-size: 20px; font-weight: bold; }
      .heading { fill: #ffffff; font-family: system-ui, sans-serif; font-size: 14px; font-weight: bold; }
      .text-md { fill: #cbd5e1; font-family: system-ui, sans-serif; font-size: 12px; }
      .text-sm { fill: #94a3b8; font-family: system-ui, sans-serif; font-size: 10px; }
      .text-muted { fill: #64748b; font-family: system-ui, sans-serif; font-size: 10px; }
      .annotation { fill: #8b5cf6; font-family: monospace; font-size: 10px; }
      .label-section { fill: #8b5cf6; font-family: monospace; font-size: 11px; font-weight: bold; }
    </style>
    <marker id="arrowhead" markerWidth="10" markerHeight="7" refX="9" refY="3.5" orient="auto">
      <polygon points="0 0, 10 3.5, 0 7" fill="#8b5cf6"/>
    </marker>
  </defs>

  <!-- Background -->
  <rect width="1400" height="800" fill="url(#bgGrad)"/>

  <!-- Dot grid pattern -->
  <g opacity="0.05">
    <pattern id="dots" width="30" height="30" patternUnits="userSpaceOnUse">
      <circle cx="15" cy="15" r="1" fill="#fff"/>
    </pattern>
    <rect width="1400" height="800" fill="url(#dots)"/>
  </g>

  <!-- Accent line top -->
  <rect x="0" y="0" width="1400" height="3" fill="url(#accentGrad)"/>

  <!-- Title -->
  <text x="700" y="28" text-anchor="middle" font-family="system-ui, sans-serif" font-size="14" font-weight="600" fill="#64748b" letter-spacing="1">GROUP SERVICE - PERMISSION MODEL</text>

  <!-- ROLE HIERARCHY -->
  <text x="40" y="55" class="label-section">ROLE HIERARCHY</text>

  <!-- Owner role -->
  <g transform="translate(40, 70)">
    <rect x="0" y="0" width="200" height="120" rx="12" fill="url(#ownerGrad)" fill-opacity="0.2" stroke="#d946ef" stroke-width="3"/>
    <circle cx="100" cy="45" r="30" fill="#334155" stroke="#d946ef" stroke-width="2"/>
    <text x="100" y="52" text-anchor="middle" class="heading-lg" fill="#d946ef">O</text>
    <text x="100" y="95" text-anchor="middle" class="heading" fill="#d946ef">OWNER</text>
    <text x="100" y="112" text-anchor="middle" class="text-sm">Full control</text>
  </g>

  <!-- Arrow down -->
  <line x1="140" y1="195" x2="140" y2="230" stroke="#8b5cf6" stroke-width="2" marker-end="url(#arrowhead)"/>
  <text x="155" y="215" class="text-muted">inherits</text>

  <!-- Admin role -->
  <g transform="translate(40, 240)">
    <rect x="0" y="0" width="200" height="120" rx="12" fill="url(#adminGrad)" fill-opacity="0.2" stroke="#8b5cf6" stroke-width="2"/>
    <circle cx="100" cy="45" r="30" fill="#334155" stroke="#8b5cf6" stroke-width="2"/>
    <text x="100" y="52" text-anchor="middle" class="heading-lg" fill="#8b5cf6">A</text>
    <text x="100" y="95" text-anchor="middle" class="heading" fill="#8b5cf6">ADMIN</text>
    <text x="100" y="112" text-anchor="middle" class="text-sm">Moderate members</text>
  </g>

  <!-- Arrow down -->
  <line x1="140" y1="365" x2="140" y2="400" stroke="#22c55e" stroke-width="2" marker-end="url(#arrowhead)"/>
  <text x="155" y="385" class="text-muted">inherits</text>

  <!-- Member role -->
  <g transform="translate(40, 410)">
    <rect x="0" y="0" width="200" height="120" rx="12" fill="url(#memberGrad)" fill-opacity="0.2" stroke="#22c55e" stroke-width="2"/>
    <circle cx="100" cy="45" r="30" fill="#334155" stroke="#22c55e" stroke-width="2"/>
    <text x="100" y="52" text-anchor="middle" class="heading-lg" fill="#22c55e">M</text>
    <text x="100" y="95" text-anchor="middle" class="heading" fill="#22c55e">MEMBER</text>
    <text x="100" y="112" text-anchor="middle" class="text-sm">Read + participate</text>
  </g>

  <!-- PERMISSION MATRIX -->
  <text x="280" y="55" class="label-section">PERMISSION MATRIX</text>

  <!-- Matrix container -->
  <rect x="280" y="70" width="700" height="460" rx="8" fill="#1e293b" stroke="#475569"/>

  <!-- Header row -->
  <rect x="280" y="70" width="700" height="40" rx="8" fill="#334155"/>
  <rect x="280" y="100" width="700" height="10" fill="#334155"/>
  <text x="450" y="96" text-anchor="middle" class="heading">Operation</text>
  <text x="630" y="96" text-anchor="middle" class="heading" fill="#d946ef">Owner</text>
  <text x="750" y="96" text-anchor="middle" class="heading" fill="#8b5cf6">Admin</text>
  <text x="870" y="96" text-anchor="middle" class="heading" fill="#22c55e">Member</text>

  <!-- Divider -->
  <line x1="570" y1="70" x2="570" y2="530" stroke="#475569" stroke-width="1"/>
  <line x1="690" y1="70" x2="690" y2="530" stroke="#475569" stroke-width="1"/>
  <line x1="810" y1="70" x2="810" y2="530" stroke="#475569" stroke-width="1"/>

  <!-- Row template: Operation | Owner | Admin | Member -->
  <!-- Row 1: Add Members -->
  <g transform="translate(295, 120)">
    <text x="0" y="20" class="text-md">addMembers()</text>
    <text x="155" y="20" class="text-muted">FR-001</text>
    <!-- Owner -->
    <circle cx="335" cy="15" r="12" fill="#22c55e" fill-opacity="0.2"/>
    <text x="335" y="20" text-anchor="middle" class="text-md" fill="#22c55e">YES</text>
    <!-- Admin -->
    <circle cx="455" cy="15" r="12" fill="#ef4444" fill-opacity="0.2"/>
    <text x="455" y="20" text-anchor="middle" class="text-md" fill="#ef4444">NO</text>
    <!-- Member -->
    <circle cx="575" cy="15" r="12" fill="#ef4444" fill-opacity="0.2"/>
    <text x="575" y="20" text-anchor="middle" class="text-md" fill="#ef4444">NO</text>
  </g>

  <!-- Row 2: Get Members -->
  <g transform="translate(295, 155)">
    <text x="0" y="20" class="text-md">getMembers()</text>
    <text x="155" y="20" class="text-muted">FR-006</text>
    <circle cx="335" cy="15" r="12" fill="#22c55e" fill-opacity="0.2"/>
    <text x="335" y="20" text-anchor="middle" class="text-md" fill="#22c55e">YES</text>
    <circle cx="455" cy="15" r="12" fill="#22c55e" fill-opacity="0.2"/>
    <text x="455" y="20" text-anchor="middle" class="text-md" fill="#22c55e">YES</text>
    <circle cx="575" cy="15" r="12" fill="#22c55e" fill-opacity="0.2"/>
    <text x="575" y="20" text-anchor="middle" class="text-md" fill="#22c55e">YES</text>
  </g>

  <!-- Row 3: Remove Member -->
  <g transform="translate(295, 190)">
    <text x="0" y="20" class="text-md">removeMember()</text>
    <text x="155" y="20" class="text-muted">FR-010</text>
    <circle cx="335" cy="15" r="12" fill="#22c55e" fill-opacity="0.2"/>
    <text x="335" y="20" text-anchor="middle" class="text-md" fill="#22c55e">YES</text>
    <circle cx="455" cy="15" r="12" fill="#22c55e" fill-opacity="0.2"/>
    <text x="455" y="20" text-anchor="middle" class="text-md" fill="#22c55e">YES*</text>
    <circle cx="575" cy="15" r="12" fill="#ef4444" fill-opacity="0.2"/>
    <text x="575" y="20" text-anchor="middle" class="text-md" fill="#ef4444">NO</text>
  </g>

  <!-- Row 4: Leave Group -->
  <g transform="translate(295, 225)">
    <text x="0" y="20" class="text-md">leaveGroup()</text>
    <text x="155" y="20" class="text-muted">FR-015</text>
    <circle cx="335" cy="15" r="12" fill="#eab308" fill-opacity="0.2"/>
    <text x="335" y="20" text-anchor="middle" class="text-md" fill="#eab308">**</text>
    <circle cx="455" cy="15" r="12" fill="#22c55e" fill-opacity="0.2"/>
    <text x="455" y="20" text-anchor="middle" class="text-md" fill="#22c55e">YES</text>
    <circle cx="575" cy="15" r="12" fill="#22c55e" fill-opacity="0.2"/>
    <text x="575" y="20" text-anchor="middle" class="text-md" fill="#22c55e">YES</text>
  </g>

  <!-- Row 5: Transfer Ownership -->
  <g transform="translate(295, 260)">
    <text x="0" y="20" class="text-md">transferOwnership()</text>
    <text x="155" y="20" class="text-muted">FR-019</text>
    <circle cx="335" cy="15" r="12" fill="#22c55e" fill-opacity="0.2"/>
    <text x="335" y="20" text-anchor="middle" class="text-md" fill="#22c55e">YES</text>
    <circle cx="455" cy="15" r="12" fill="#ef4444" fill-opacity="0.2"/>
    <text x="455" y="20" text-anchor="middle" class="text-md" fill="#ef4444">NO</text>
    <circle cx="575" cy="15" r="12" fill="#ef4444" fill-opacity="0.2"/>
    <text x="575" y="20" text-anchor="middle" class="text-md" fill="#ef4444">NO</text>
  </g>

  <!-- Row 6: Rename Group -->
  <g transform="translate(295, 295)">
    <text x="0" y="20" class="text-md">renameGroup()</text>
    <text x="155" y="20" class="text-muted">FR-027</text>
    <circle cx="335" cy="15" r="12" fill="#22c55e" fill-opacity="0.2"/>
    <text x="335" y="20" text-anchor="middle" class="text-md" fill="#22c55e">YES</text>
    <circle cx="455" cy="15" r="12" fill="#ef4444" fill-opacity="0.2"/>
    <text x="455" y="20" text-anchor="middle" class="text-md" fill="#ef4444">NO</text>
    <circle cx="575" cy="15" r="12" fill="#ef4444" fill-opacity="0.2"/>
    <text x="575" y="20" text-anchor="middle" class="text-md" fill="#ef4444">NO</text>
  </g>

  <!-- Row 7: Delete Group -->
  <g transform="translate(295, 330)">
    <text x="0" y="20" class="text-md">deleteGroup()</text>
    <text x="155" y="20" class="text-muted">FR-031</text>
    <circle cx="335" cy="15" r="12" fill="#22c55e" fill-opacity="0.2"/>
    <text x="335" y="20" text-anchor="middle" class="text-md" fill="#22c55e">YES</text>
    <circle cx="455" cy="15" r="12" fill="#ef4444" fill-opacity="0.2"/>
    <text x="455" y="20" text-anchor="middle" class="text-md" fill="#ef4444">NO</text>
    <circle cx="575" cy="15" r="12" fill="#ef4444" fill-opacity="0.2"/>
    <text x="575" y="20" text-anchor="middle" class="text-md" fill="#ef4444">NO</text>
  </g>

  <!-- Row 8: Upgrade to Group -->
  <g transform="translate(295, 365)">
    <text x="0" y="20" class="text-md">upgradeToGroup()</text>
    <text x="155" y="20" class="text-muted">FR-023</text>
    <circle cx="335" cy="15" r="12" fill="#22c55e" fill-opacity="0.2"/>
    <text x="335" y="20" text-anchor="middle" class="text-md" fill="#22c55e">YES</text>
    <circle cx="455" cy="15" r="12" fill="#22c55e" fill-opacity="0.2"/>
    <text x="455" y="20" text-anchor="middle" class="text-md" fill="#22c55e">YES</text>
    <circle cx="575" cy="15" r="12" fill="#22c55e" fill-opacity="0.2"/>
    <text x="575" y="20" text-anchor="middle" class="text-md" fill="#22c55e">YES</text>
  </g>

  <!-- Footnotes -->
  <g transform="translate(295, 410)">
    <line x1="0" y1="0" x2="670" y2="0" stroke="#475569"/>
    <text x="0" y="25" class="text-muted">* Admin can remove members but NOT other admins or owner</text>
    <text x="0" y="45" class="text-muted">** Owner must transfer ownership before leaving (FR-016)</text>
  </g>

  <!-- Summary counts -->
  <g transform="translate(295, 470)">
    <rect x="0" y="0" width="200" height="50" rx="6" fill="#d946ef" fill-opacity="0.1" stroke="#d946ef"/>
    <text x="100" y="22" text-anchor="middle" class="heading" fill="#d946ef">Owner: 8/8</text>
    <text x="100" y="40" text-anchor="middle" class="text-sm">Full access</text>

    <rect x="220" y="0" width="200" height="50" rx="6" fill="#8b5cf6" fill-opacity="0.1" stroke="#8b5cf6"/>
    <text x="320" y="22" text-anchor="middle" class="heading" fill="#8b5cf6">Admin: 4/8</text>
    <text x="320" y="40" text-anchor="middle" class="text-sm">Read + moderate</text>

    <rect x="440" y="0" width="200" height="50" rx="6" fill="#22c55e" fill-opacity="0.1" stroke="#22c55e"/>
    <text x="540" y="22" text-anchor="middle" class="heading" fill="#22c55e">Member: 3/8</text>
    <text x="540" y="40" text-anchor="middle" class="text-sm">Read + leave + upgrade</text>
  </g>

  <!-- RLS ENFORCEMENT -->
  <text x="1010" y="55" class="label-section">RLS ENFORCEMENT</text>

  <rect x="1010" y="70" width="350" height="280" rx="8" fill="#1e293b" stroke="#22c55e"/>
  <text x="1025" y="100" class="heading" fill="#22c55e">Row-Level Security</text>

  <text x="1025" y="125" class="text-sm">All permission checks enforced at DB level:</text>

  <!-- RLS policies list -->
  <g transform="translate(1025, 140)">
    <rect x="0" y="0" width="320" height="30" rx="4" fill="#334155"/>
    <text x="10" y="20" class="text-sm" fill="#22c55e">SELECT</text>
    <text x="70" y="20" class="text-sm">→ member check</text>

    <rect x="0" y="40" width="320" height="30" rx="4" fill="#334155"/>
    <text x="10" y="60" class="text-sm" fill="#8b5cf6">INSERT</text>
    <text x="70" y="60" class="text-sm">→ owner check (add members)</text>

    <rect x="0" y="80" width="320" height="30" rx="4" fill="#334155"/>
    <text x="10" y="100" class="text-sm" fill="#eab308">UPDATE</text>
    <text x="70" y="100" class="text-sm">→ owner check (rename, transfer)</text>

    <rect x="0" y="120" width="320" height="30" rx="4" fill="#334155"/>
    <text x="10" y="140" class="text-sm" fill="#ef4444">DELETE</text>
    <text x="70" y="140" class="text-sm">→ owner/admin check (remove)</text>
  </g>

  <text x="1025" y="315" class="text-muted">See Feature 000 (RLS Implementation)</text>
  <text x="1025" y="335" class="text-muted">NFR-002: Permission check before data mod</text>

  <!-- SECURITY REQUIREMENTS -->
  <text x="1010" y="375" class="label-section">SECURITY REQUIREMENTS</text>

  <rect x="1010" y="390" width="350" height="140" rx="8" fill="#1e293b" stroke="#ef4444"/>

  <g transform="translate(1025, 410)">
    <circle cx="8" cy="8" r="4" fill="#ef4444"/>
    <text x="20" y="12" class="text-sm">NFR-001: Auth required for all ops</text>

    <circle cx="8" cy="35" r="4" fill="#ef4444"/>
    <text x="20" y="39" class="text-sm">NFR-002: Permission before modification</text>

    <circle cx="8" cy="62" r="4" fill="#ef4444"/>
    <text x="20" y="66" class="text-sm">NFR-003: Access revoked on removal</text>

    <circle cx="8" cy="89" r="4" fill="#ef4444"/>
    <text x="20" y="93" class="text-sm">SC-006: Zero permission bypasses</text>
  </g>

  <!-- AUDIT LOGGING -->
  <rect x="40" y="560" width="400" height="120" rx="8" fill="#1e293b" stroke="#475569"/>
  <text x="55" y="585" class="annotation">AUDIT LOGGING (NFR-007)</text>

  <text x="55" y="610" class="text-sm">Every permission-gated operation logged:</text>
  <g transform="translate(55, 625)">
    <text x="0" y="12" class="text-muted">• action: 'add_member' | 'remove_member' | ...</text>
    <text x="0" y="30" class="text-muted">• user_id: UUID of actor</text>
    <text x="0" y="48" class="text-muted">• details: { group_id, target_id, result }</text>
  </g>

  <!-- SUCCESS CRITERIA -->
  <rect x="460" y="560" width="500" height="120" rx="8" fill="#1e293b" stroke="#22c55e"/>
  <text x="475" y="585" class="annotation" fill="#22c55e">SUCCESS CRITERIA MET</text>

  <g transform="translate(475, 600)">
    <rect x="0" y="0" width="150" height="30" rx="4" fill="#22c55e" fill-opacity="0.2"/>
    <text x="75" y="20" text-anchor="middle" class="text-md" fill="#22c55e">SC-002</text>

    <rect x="160" y="0" width="150" height="30" rx="4" fill="#22c55e" fill-opacity="0.2"/>
    <text x="235" y="20" text-anchor="middle" class="text-md" fill="#22c55e">SC-006</text>

    <rect x="320" y="0" width="150" height="30" rx="4" fill="#22c55e" fill-opacity="0.2"/>
    <text x="395" y="20" text-anchor="middle" class="text-md" fill="#22c55e">SC-004</text>
  </g>

  <text x="475" y="660" class="text-sm">100% permission enforcement | Zero bypasses | Correct access control</text>
</svg>