<svg xmlns="http://www.w3.org/2000/svg" viewBox="0 0 1400 800" width="1400" height="800">
  <!-- ============================================================
       GENERATED BY: /wireframe skill
       SOURCE: features/payments/038-payment-dashboard/spec.md
       DATE: 2026-01-01
       THEME: Light (UX/Frontend) - v3 True Parchment
       DO NOT MANUALLY EDIT - Regenerate with /wireframe command
       ============================================================ -->
  <defs>
    <linearGradient id="bgGrad" x1="0%" y1="0%" x2="100%" y2="100%">
      <stop offset="0%" style="stop-color:#c7ddf5"/>
      <stop offset="100%" style="stop-color:#b8d4f0"/>
    </linearGradient>
    <linearGradient id="accentGrad" x1="0%" y1="0%" x2="100%" y2="0%">
      <stop offset="0%" style="stop-color:#8b5cf6"/>
      <stop offset="100%" style="stop-color:#d946ef"/>
    </linearGradient>
    <style>
      .heading-lg { fill: #1a1a2e; font-family: system-ui, sans-serif; font-size: 24px; font-weight: 800; }
      .heading { fill: #1a1a2e; font-family: system-ui, sans-serif; font-size: 16px; font-weight: 700; }
      .text-md { fill: #2d3748; font-family: system-ui, sans-serif; font-size: 14px; font-weight: 500; }
      .text-sm { fill: #374151; font-family: system-ui, sans-serif; font-size: 12px; font-weight: 500; }
      .text-muted { fill: #4b5563; font-family: system-ui, sans-serif; font-size: 11px; font-weight: 500; }
      .annotation { fill: #6d28d9; font-family: monospace; font-size: 12px; font-weight: 600; }
      .label-desktop { fill: #8b5cf6; font-family: monospace; font-size: 13px; font-weight: bold; }
      .label-mobile { fill: #d946ef; font-family: monospace; font-size: 13px; font-weight: bold; }
    </style>
  </defs>

  <!-- Background -->
  <rect width="1400" height="800" fill="url(#bgGrad)"/>

  <!-- Dot grid pattern -->
  <g opacity="0.35">
    <pattern id="dots" width="30" height="30" patternUnits="userSpaceOnUse">
      <circle cx="15" cy="15" r="1" fill="#6b8cba"/>
    </pattern>
    <rect width="1400" height="800" fill="url(#dots)"/>
  </g>

  <!-- Accent line top -->
  <rect x="0" y="0" width="1400" height="3" fill="url(#accentGrad)"/>

  <!-- Title -->
  <text x="700" y="28" text-anchor="middle" font-family="system-ui, sans-serif" font-size="14" font-weight="600" fill="#4b5563" letter-spacing="1">PAYMENT DASHBOARD - MAIN VIEW</text>

  <!-- DESKTOP SECTION -->
  <text x="40" y="52" class="label-desktop">DESKTOP</text>
  <g id="desktop-view">
    <!-- Main dashboard container -->
    <rect x="40" y="60" width="900" height="720" rx="12" fill="#e8d4b8" stroke="#b8a080" stroke-width="1"/>

    <!-- Header bar -->
    <rect x="50" y="70" width="880" height="50" rx="8" fill="#dcc8a8"/>
    <text x="70" y="102" class="heading-lg">Payment Dashboard</text>
    <text x="730" y="100" class="text-sm">● Connected</text>
    <circle cx="720" cy="96" r="5" fill="#22c55e"/>
    <!-- Export button -->
    <rect x="810" y="80" width="110" height="32" rx="6" fill="#8b5cf6"/>
    <text x="865" y="102" text-anchor="middle" fill="#fff" font-family="system-ui, sans-serif" font-size="13" font-weight="600">Export CSV</text>

    <!-- Summary Stats Row -->
    <g id="stats-row">
      <!-- Total Spent -->
      <rect x="50" y="130" width="210" height="80" rx="8" fill="#f5f0e6" stroke="#b8a080" stroke-width="1"/>
      <text x="70" y="155" class="text-muted">Total Spent (This Month)</text>
      <text x="70" y="185" class="heading-lg">$2,847.50</text>
      <text x="200" y="185" class="text-sm" fill="#22c55e">↑ 12%</text>

      <!-- Transaction Count -->
      <rect x="270" y="130" width="210" height="80" rx="8" fill="#f5f0e6" stroke="#b8a080" stroke-width="1"/>
      <text x="290" y="155" class="text-muted">Transactions</text>
      <text x="290" y="185" class="heading-lg">47</text>

      <!-- Average -->
      <rect x="490" y="130" width="210" height="80" rx="8" fill="#f5f0e6" stroke="#b8a080" stroke-width="1"/>
      <text x="510" y="155" class="text-muted">Average Payment</text>
      <text x="510" y="185" class="heading-lg">$60.58</text>

      <!-- Pending -->
      <rect x="710" y="130" width="220" height="80" rx="8" fill="#f5f0e6" stroke="#b8a080" stroke-width="1"/>
      <text x="730" y="155" class="text-muted">Pending</text>
      <text x="730" y="185" class="heading-lg">2</text>
      <rect x="780" y="168" width="60" height="22" rx="11" fill="#eab308" opacity="0.2"/>
      <text x="810" y="183" text-anchor="middle" fill="#92400e" font-family="system-ui, sans-serif" font-size="11" font-weight="600">In Progress</text>
    </g>

    <!-- Filter Bar -->
    <g id="filter-bar">
      <rect x="50" y="220" width="880" height="45" rx="8" fill="#dcc8a8"/>
      <!-- Date Range -->
      <rect x="60" y="228" width="160" height="30" rx="6" fill="#f5f0e6" stroke="#b8a080" stroke-width="1"/>
      <text x="75" y="248" class="text-sm">Dec 1 - Dec 31, 2025</text>
      <text x="205" y="248" class="text-muted">▼</text>

      <!-- Status Filter -->
      <rect x="230" y="228" width="120" height="30" rx="6" fill="#f5f0e6" stroke="#b8a080" stroke-width="1"/>
      <text x="245" y="248" class="text-sm">All Status</text>
      <text x="335" y="248" class="text-muted">▼</text>

      <!-- Payment Method -->
      <rect x="360" y="228" width="130" height="30" rx="6" fill="#f5f0e6" stroke="#b8a080" stroke-width="1"/>
      <text x="375" y="248" class="text-sm">All Methods</text>
      <text x="475" y="248" class="text-muted">▼</text>

      <!-- Search -->
      <rect x="500" y="228" width="200" height="30" rx="6" fill="#f5f0e6" stroke="#b8a080" stroke-width="1"/>
      <text x="515" y="248" class="text-muted">🔍 Search transaction ID...</text>

      <!-- Clear Filters -->
      <text x="720" y="248" class="annotation">Clear Filters</text>
    </g>

    <!-- Payment History Table -->
    <g id="payment-table">
      <rect x="50" y="275" width="620" height="320" rx="8" fill="#f5f0e6" stroke="#b8a080" stroke-width="1"/>
      <text x="70" y="300" class="heading">Payment History</text>

      <!-- Table Header -->
      <rect x="60" y="310" width="600" height="30" rx="4" fill="#dcc8a8"/>
      <text x="75" y="330" class="text-sm" font-weight="700">Date</text>
      <text x="170" y="330" class="text-sm" font-weight="700">Description</text>
      <text x="350" y="330" class="text-sm" font-weight="700">Amount</text>
      <text x="450" y="330" class="text-sm" font-weight="700">Status</text>
      <text x="550" y="330" class="text-sm" font-weight="700">Method</text>

      <!-- Table Rows -->
      <!-- Row 1 -->
      <rect x="60" y="345" width="600" height="40" rx="0" fill="#f5f0e6"/>
      <line x1="60" y1="385" x2="660" y2="385" stroke="#dcc8a8" stroke-width="1"/>
      <text x="75" y="370" class="text-sm">Dec 28</text>
      <text x="170" y="370" class="text-md">Pro Plan - Monthly</text>
      <text x="350" y="370" class="text-md">$29.99</text>
      <rect x="445" y="358" width="70" height="22" rx="11" fill="#22c55e" opacity="0.2"/>
      <text x="480" y="373" text-anchor="middle" fill="#166534" font-family="system-ui, sans-serif" font-size="11" font-weight="600">Completed</text>
      <text x="550" y="370" class="text-sm">•••• 4242</text>
      <text x="630" y="370" class="text-muted">›</text>

      <!-- Row 2 -->
      <rect x="60" y="385" width="600" height="40" rx="0" fill="#e8d4b8"/>
      <line x1="60" y1="425" x2="660" y2="425" stroke="#dcc8a8" stroke-width="1"/>
      <text x="75" y="410" class="text-sm">Dec 25</text>
      <text x="170" y="410" class="text-md">Add-on: Extra Storage</text>
      <text x="350" y="410" class="text-md">$9.99</text>
      <rect x="445" y="398" width="70" height="22" rx="11" fill="#22c55e" opacity="0.2"/>
      <text x="480" y="413" text-anchor="middle" fill="#166534" font-family="system-ui, sans-serif" font-size="11" font-weight="600">Completed</text>
      <text x="550" y="410" class="text-sm">•••• 4242</text>
      <text x="630" y="410" class="text-muted">›</text>

      <!-- Row 3 - Processing -->
      <rect x="60" y="425" width="600" height="40" rx="0" fill="#f5f0e6"/>
      <line x1="60" y1="465" x2="660" y2="465" stroke="#dcc8a8" stroke-width="1"/>
      <text x="75" y="450" class="text-sm">Dec 24</text>
      <text x="170" y="450" class="text-md">API Credits Bundle</text>
      <text x="350" y="450" class="text-md">$49.00</text>
      <rect x="445" y="438" width="75" height="22" rx="11" fill="#eab308" opacity="0.2"/>
      <text x="483" y="453" text-anchor="middle" fill="#92400e" font-family="system-ui, sans-serif" font-size="11" font-weight="600">Processing</text>
      <text x="550" y="450" class="text-sm">PayPal</text>
      <text x="630" y="450" class="text-muted">›</text>

      <!-- Row 4 - Refunded -->
      <rect x="60" y="465" width="600" height="40" rx="0" fill="#e8d4b8"/>
      <line x1="60" y1="505" x2="660" y2="505" stroke="#dcc8a8" stroke-width="1"/>
      <text x="75" y="490" class="text-sm">Dec 20</text>
      <text x="170" y="490" class="text-md">Workshop: Advanced CSS</text>
      <text x="350" y="490" class="text-md">$79.00</text>
      <rect x="445" y="478" width="65" height="22" rx="11" fill="#94a3b8" opacity="0.3"/>
      <text x="478" y="493" text-anchor="middle" fill="#475569" font-family="system-ui, sans-serif" font-size="11" font-weight="600">Refunded</text>
      <text x="550" y="490" class="text-sm">•••• 1234</text>
      <text x="630" y="490" class="text-muted">›</text>

      <!-- Row 5 -->
      <rect x="60" y="505" width="600" height="40" rx="0" fill="#f5f0e6"/>
      <line x1="60" y1="545" x2="660" y2="545" stroke="#dcc8a8" stroke-width="1"/>
      <text x="75" y="530" class="text-sm">Dec 15</text>
      <text x="170" y="530" class="text-md">Team License Upgrade</text>
      <text x="350" y="530" class="text-md">$199.00</text>
      <rect x="445" y="518" width="70" height="22" rx="11" fill="#22c55e" opacity="0.2"/>
      <text x="480" y="533" text-anchor="middle" fill="#166534" font-family="system-ui, sans-serif" font-size="11" font-weight="600">Completed</text>
      <text x="550" y="530" class="text-sm">•••• 4242</text>
      <text x="630" y="530" class="text-muted">›</text>

      <!-- Pagination -->
      <g transform="translate(60, 555)">
        <text x="0" y="20" class="text-muted">Showing 1-5 of 47 transactions</text>
        <rect x="400" y="5" width="30" height="24" rx="4" fill="#dcc8a8" stroke="#b8a080" stroke-width="1"/>
        <text x="415" y="22" text-anchor="middle" class="text-sm">‹</text>
        <rect x="435" y="5" width="30" height="24" rx="4" fill="#8b5cf6"/>
        <text x="450" y="22" text-anchor="middle" fill="#fff" font-size="12">1</text>
        <rect x="470" y="5" width="30" height="24" rx="4" fill="#f5f0e6" stroke="#b8a080" stroke-width="1"/>
        <text x="485" y="22" text-anchor="middle" class="text-sm">2</text>
        <rect x="505" y="5" width="30" height="24" rx="4" fill="#f5f0e6" stroke="#b8a080" stroke-width="1"/>
        <text x="520" y="22" text-anchor="middle" class="text-sm">3</text>
        <text x="545" y="22" class="text-muted">...</text>
        <rect x="560" y="5" width="30" height="24" rx="4" fill="#dcc8a8" stroke="#b8a080" stroke-width="1"/>
        <text x="575" y="22" text-anchor="middle" class="text-sm">›</text>
      </g>
    </g>

    <!-- Right Column: Subscriptions + Recent -->
    <g id="right-column">
      <!-- Subscription Card -->
      <rect x="680" y="275" width="250" height="145" rx="8" fill="#f5f0e6" stroke="#b8a080" stroke-width="1"/>
      <text x="700" y="300" class="heading">Active Subscription</text>
      <rect x="690" y="315" width="230" height="95" rx="6" fill="#e8d4b8" stroke="#8b5cf6" stroke-width="2"/>
      <text x="710" y="340" class="heading" fill="#8b5cf6">Pro Plan</text>
      <text x="710" y="362" class="text-md">$29.99/month</text>
      <text x="710" y="385" class="text-sm">Next billing: Jan 28, 2026</text>
      <rect x="710" y="395" width="80" height="24" rx="4" fill="#dcc8a8"/>
      <text x="750" y="412" text-anchor="middle" class="text-sm">Manage</text>
      <rect x="800" y="395" width="80" height="24" rx="4" fill="#8b5cf6"/>
      <text x="840" y="412" text-anchor="middle" fill="#fff" font-size="12">Upgrade</text>

      <!-- Recent Transactions Widget -->
      <rect x="680" y="430" width="250" height="165" rx="8" fill="#f5f0e6" stroke="#b8a080" stroke-width="1"/>
      <text x="700" y="455" class="heading">Recent Activity</text>
      <circle cx="900" cy="450" r="6" fill="#22c55e"/>
      <text x="875" y="455" class="text-muted">Live</text>

      <!-- Recent item 1 -->
      <rect x="690" y="465" width="230" height="38" rx="4" fill="#e8d4b8"/>
      <text x="710" y="485" class="text-sm">Pro Plan - Monthly</text>
      <text x="880" y="485" text-anchor="end" class="text-md">$29.99</text>
      <text x="710" y="498" class="text-muted">Just now</text>

      <!-- Recent item 2 -->
      <rect x="690" y="508" width="230" height="38" rx="4" fill="#f5f0e6"/>
      <text x="710" y="528" class="text-sm">Extra Storage</text>
      <text x="880" y="528" text-anchor="end" class="text-md">$9.99</text>
      <text x="710" y="541" class="text-muted">3 days ago</text>

      <!-- Recent item 3 -->
      <rect x="690" y="551" width="230" height="38" rx="4" fill="#e8d4b8"/>
      <text x="710" y="571" class="text-sm">API Credits</text>
      <text x="880" y="571" text-anchor="end" class="text-md">$49.00</text>
      <text x="710" y="584" class="text-muted">4 days ago • Processing</text>
    </g>

    <!-- Footer Help -->
    <rect x="50" y="605" width="880" height="35" rx="6" fill="#dcc8a8"/>
    <text x="70" y="628" class="text-muted">💡 Click on any transaction to view details, download receipt, or request refund.</text>
  </g>

  <!-- MOBILE SECTION -->
  <text x="980" y="52" class="label-mobile">MOBILE</text>
  <g id="mobile-view" transform="translate(980, 60)">
    <!-- Phone frame -->
    <rect x="0" y="0" width="360" height="700" rx="24" fill="#c8b898" stroke="#a08860" stroke-width="2"/>
    <rect x="10" y="10" width="340" height="680" rx="16" fill="#e8d4b8"/>

    <!-- Status bar -->
    <rect x="10" y="10" width="340" height="28" rx="16" fill="#dcc8a8"/>
    <text x="30" y="28" class="text-sm">9:41</text>
    <text x="300" y="28" class="text-sm">●</text>
    <circle cx="296" cy="24" r="4" fill="#22c55e"/>

    <!-- Header -->
    <rect x="20" y="48" width="320" height="45" rx="8" fill="#dcc8a8"/>
    <text x="40" y="78" class="heading">Payment Dashboard</text>
    <rect x="280" y="58" width="50" height="26" rx="4" fill="#8b5cf6"/>
    <text x="305" y="76" text-anchor="middle" fill="#fff" font-size="10">Export</text>

    <!-- Summary Stats (horizontal scroll indicator) -->
    <g transform="translate(20, 103)">
      <rect x="0" y="0" width="150" height="60" rx="6" fill="#f5f0e6" stroke="#b8a080" stroke-width="1"/>
      <text x="15" y="20" class="text-muted">Total Spent</text>
      <text x="15" y="45" class="heading">$2,847.50</text>

      <rect x="160" y="0" width="100" height="60" rx="6" fill="#f5f0e6" stroke="#b8a080" stroke-width="1"/>
      <text x="175" y="20" class="text-muted">Count</text>
      <text x="175" y="45" class="heading">47</text>

      <rect x="270" y="0" width="60" height="60" rx="6" fill="#dcc8a8" opacity="0.5"/>
      <text x="285" y="35" class="text-muted">→</text>
    </g>

    <!-- Filter Row -->
    <g transform="translate(20, 173)">
      <rect x="0" y="0" width="100" height="28" rx="6" fill="#f5f0e6" stroke="#b8a080" stroke-width="1"/>
      <text x="15" y="19" class="text-sm">Dec 2025 ▼</text>

      <rect x="110" y="0" width="80" height="28" rx="6" fill="#f5f0e6" stroke="#b8a080" stroke-width="1"/>
      <text x="125" y="19" class="text-sm">Status ▼</text>

      <rect x="200" y="0" width="120" height="28" rx="6" fill="#f5f0e6" stroke="#b8a080" stroke-width="1"/>
      <text x="215" y="19" class="text-muted">🔍 Search...</text>
    </g>

    <!-- Subscription Card -->
    <g transform="translate(20, 211)">
      <rect x="0" y="0" width="320" height="65" rx="8" fill="#f5f0e6" stroke="#8b5cf6" stroke-width="2"/>
      <text x="15" y="22" class="heading" fill="#8b5cf6">Pro Plan</text>
      <text x="250" y="22" class="text-md">$29.99/mo</text>
      <text x="15" y="42" class="text-sm">Next billing: Jan 28, 2026</text>
      <rect x="220" y="35" width="85" height="22" rx="4" fill="#8b5cf6"/>
      <text x="262" y="50" text-anchor="middle" fill="#fff" font-size="10">Manage Plan</text>
    </g>

    <!-- Transaction List -->
    <g transform="translate(20, 286)">
      <text x="0" y="0" class="heading">Recent Transactions</text>

      <!-- Transaction 1 -->
      <rect x="0" y="15" width="320" height="55" rx="6" fill="#f5f0e6" stroke="#b8a080" stroke-width="1"/>
      <text x="15" y="38" class="text-md">Pro Plan - Monthly</text>
      <text x="280" y="38" text-anchor="end" class="heading">$29.99</text>
      <text x="15" y="55" class="text-muted">Dec 28 • •••• 4242</text>
      <rect x="230" y="45" width="55" height="18" rx="9" fill="#22c55e" opacity="0.2"/>
      <text x="257" y="57" text-anchor="middle" fill="#166534" font-size="9">Completed</text>
      <text x="305" y="55" class="text-muted">›</text>

      <!-- Transaction 2 -->
      <rect x="0" y="78" width="320" height="55" rx="6" fill="#f5f0e6" stroke="#b8a080" stroke-width="1"/>
      <text x="15" y="101" class="text-md">Extra Storage</text>
      <text x="280" y="101" text-anchor="end" class="heading">$9.99</text>
      <text x="15" y="118" class="text-muted">Dec 25 • •••• 4242</text>
      <rect x="230" y="108" width="55" height="18" rx="9" fill="#22c55e" opacity="0.2"/>
      <text x="257" y="120" text-anchor="middle" fill="#166534" font-size="9">Completed</text>
      <text x="305" y="118" class="text-muted">›</text>

      <!-- Transaction 3 - Processing -->
      <rect x="0" y="141" width="320" height="55" rx="6" fill="#f5f0e6" stroke="#eab308" stroke-width="1"/>
      <text x="15" y="164" class="text-md">API Credits Bundle</text>
      <text x="280" y="164" text-anchor="end" class="heading">$49.00</text>
      <text x="15" y="181" class="text-muted">Dec 24 • PayPal</text>
      <rect x="225" y="171" width="60" height="18" rx="9" fill="#eab308" opacity="0.2"/>
      <text x="255" y="183" text-anchor="middle" fill="#92400e" font-size="9">Processing</text>
      <text x="305" y="181" class="text-muted">›</text>

      <!-- Transaction 4 -->
      <rect x="0" y="204" width="320" height="55" rx="6" fill="#f5f0e6" stroke="#b8a080" stroke-width="1"/>
      <text x="15" y="227" class="text-md">Workshop: Advanced CSS</text>
      <text x="280" y="227" text-anchor="end" class="heading">$79.00</text>
      <text x="15" y="244" class="text-muted">Dec 20 • •••• 1234</text>
      <rect x="230" y="234" width="55" height="18" rx="9" fill="#94a3b8" opacity="0.3"/>
      <text x="257" y="246" text-anchor="middle" fill="#475569" font-size="9">Refunded</text>
      <text x="305" y="244" class="text-muted">›</text>
    </g>

    <!-- Load More -->
    <rect x="100" y="560" width="160" height="32" rx="6" fill="#dcc8a8" stroke="#b8a080" stroke-width="1"/>
    <text x="180" y="581" text-anchor="middle" class="text-md">Load More (43)</text>

    <!-- Bottom Navigation -->
    <rect x="10" y="605" width="340" height="60" rx="0" fill="#dcc8a8"/>
    <g transform="translate(40, 620)">
      <text x="0" y="25" text-anchor="middle" fill="#8b5cf6" font-size="11" font-weight="700">Dashboard</text>
      <text x="90" y="25" text-anchor="middle" class="text-muted">Payments</text>
      <text x="180" y="25" text-anchor="middle" class="text-muted">Settings</text>
      <text x="270" y="25" text-anchor="middle" class="text-muted">Profile</text>
    </g>
  </g>

  <!-- Annotations -->
  <g id="annotations">
    <rect x="960" y="115" width="10" height="60" rx="2" fill="#8b5cf6" opacity="0.3"/>
    <text x="950" y="150" text-anchor="end" class="annotation">FR-004</text>
    <text x="950" y="165" text-anchor="end" class="text-muted">Stats cards</text>
  </g>

  <!-- Leader lines -->
  <g id="leader-lines">
    <line x1="945" y1="145" x2="980" y2="145" stroke="#8b5cf6" stroke-width="1" stroke-dasharray="4,2"/>
  </g>
</svg>