<svg xmlns="http://www.w3.org/2000/svg" viewBox="0 0 1400 800" width="1400" height="800">
  <!-- ============================================================
       GENERATED BY: /wireframe skill
       SOURCE: features/payments/038-payment-dashboard/spec.md
       DATE: 2025-12-31
       DO NOT MANUALLY EDIT - Regenerate with /wireframe command
       ============================================================ -->
  <defs>
    <linearGradient id="bgGrad" x1="0%" y1="0%" x2="100%" y2="100%">
      <stop offset="0%" style="stop-color:#0f172a"/>
      <stop offset="100%" style="stop-color:#1e293b"/>
    </linearGradient>
    <linearGradient id="accentGrad" x1="0%" y1="0%" x2="100%" y2="0%">
      <stop offset="0%" style="stop-color:#8b5cf6"/>
      <stop offset="100%" style="stop-color:#d946ef"/>
    </linearGradient>
    <linearGradient id="successGrad" x1="0%" y1="0%" x2="100%" y2="0%">
      <stop offset="0%" style="stop-color:#22c55e"/>
      <stop offset="100%" style="stop-color:#16a34a"/>
    </linearGradient>
    <style>
      .heading-lg { fill: #ffffff; font-family: system-ui, sans-serif; font-size: 20px; font-weight: bold; }
      .heading { fill: #ffffff; font-family: system-ui, sans-serif; font-size: 14px; font-weight: bold; }
      .heading-sm { fill: #ffffff; font-family: system-ui, sans-serif; font-size: 12px; font-weight: bold; }
      .text-md { fill: #cbd5e1; font-family: system-ui, sans-serif; font-size: 12px; }
      .text-sm { fill: #94a3b8; font-family: system-ui, sans-serif; font-size: 10px; }
      .text-muted { fill: #64748b; font-family: system-ui, sans-serif; font-size: 10px; }
      .annotation { fill: #8b5cf6; font-family: monospace; font-size: 10px; }
      .code { fill: #22c55e; font-family: monospace; font-size: 10px; }
      .label-desktop { fill: #8b5cf6; font-family: monospace; font-size: 11px; font-weight: bold; }
      .label-mobile { fill: #d946ef; font-family: monospace; font-size: 11px; font-weight: bold; }
    </style>
  </defs>

  <!-- Background -->
  <rect width="1400" height="800" fill="url(#bgGrad)"/>

  <!-- Dot grid pattern -->
  <g opacity="0.05">
    <pattern id="dots" width="30" height="30" patternUnits="userSpaceOnUse">
      <circle cx="15" cy="15" r="1" fill="#fff"/>
    </pattern>
    <rect width="1400" height="800" fill="url(#dots)"/>
  </g>

  <!-- Accent line top -->
  <rect x="0" y="0" width="1400" height="3" fill="url(#accentGrad)"/>

  <!-- Title -->
  <text x="700" y="32" text-anchor="middle" class="heading-lg">PAYMENT DASHBOARD - OVERVIEW</text>
  <text x="700" y="52" text-anchor="middle" class="text-muted">Feature 038 - Payment history, subscriptions, summary stats, real-time updates</text>

  <!-- ==================== DESKTOP SECTION ==================== -->
  <text x="40" y="75" class="label-desktop">DESKTOP</text>

  <!-- Desktop Header -->
  <g transform="translate(40, 85)">
    <rect width="900" height="50" rx="8" fill="#1e293b" stroke="#475569"/>
    <text x="20" y="30" class="heading">Payment Dashboard</text>
    <text x="700" y="30" class="text-sm">Last updated: Just now</text>
    <!-- Real-time indicator -->
    <circle cx="860" cy="25" r="6" fill="#22c55e"/>
    <text x="875" y="30" class="text-sm">Live</text>
  </g>

  <!-- Summary Stats Row -->
  <g transform="translate(40, 145)">
    <!-- Total Spent -->
    <rect width="215" height="80" rx="8" fill="#1e293b" stroke="#475569"/>
    <text x="15" y="25" class="text-sm">Total Spent</text>
    <text x="15" y="55" style="fill:#fff;font-family:system-ui;font-size:24px;font-weight:bold">$2,847.50</text>
    <text x="15" y="72" class="text-muted">All time</text>

    <!-- This Month -->
    <rect x="225" width="215" height="80" rx="8" fill="#1e293b" stroke="#475569"/>
    <text x="240" y="25" class="text-sm">This Month</text>
    <text x="240" y="55" style="fill:#8b5cf6;font-family:system-ui;font-size:24px;font-weight:bold">$349.00</text>
    <text x="240" y="72" class="text-muted">December 2025</text>

    <!-- Transaction Count -->
    <rect x="450" width="215" height="80" rx="8" fill="#1e293b" stroke="#475569"/>
    <text x="465" y="25" class="text-sm">Transactions</text>
    <text x="465" y="55" style="fill:#fff;font-family:system-ui;font-size:24px;font-weight:bold">47</text>
    <text x="465" y="72" class="text-muted">Total count</text>

    <!-- Active Subscriptions -->
    <rect x="675" width="225" height="80" rx="8" fill="#1e293b" stroke="#22c55e"/>
    <text x="690" y="25" class="text-sm">Active Subscriptions</text>
    <text x="690" y="55" style="fill:#22c55e;font-family:system-ui;font-size:24px;font-weight:bold">2</text>
    <text x="690" y="72" class="text-muted">Pro + Team plan</text>
  </g>

  <!-- Payment History Table -->
  <g transform="translate(40, 240)">
    <rect width="620" height="300" rx="8" fill="#1e293b" stroke="#475569"/>

    <!-- Table header -->
    <rect width="620" height="36" rx="8" fill="#334155"/>
    <text x="15" y="24" class="heading-sm">Recent Transactions</text>
    <text x="540" y="24" class="text-sm">View All →</text>

    <!-- Column headers -->
    <text x="15" y="58" class="text-muted">DATE</text>
    <text x="120" y="58" class="text-muted">DESCRIPTION</text>
    <text x="350" y="58" class="text-muted">AMOUNT</text>
    <text x="450" y="58" class="text-muted">STATUS</text>
    <text x="550" y="58" class="text-muted">METHOD</text>

    <!-- Transaction row 1 -->
    <rect x="5" y="68" width="610" height="40" rx="4" fill="#0f172a" opacity="0.5"/>
    <text x="15" y="93" class="text-sm">Dec 31</text>
    <text x="120" y="93" class="text-md">Pro Plan - Monthly</text>
    <text x="350" y="93" style="fill:#fff;font-family:system-ui;font-size:12px">$29.00</text>
    <rect x="450" y="80" width="70" height="22" rx="11" fill="#22c55e" opacity="0.2"/>
    <text x="458" y="95" style="fill:#22c55e;font-family:system-ui;font-size:10px">Completed</text>
    <text x="550" y="93" class="text-sm">•••• 4242</text>

    <!-- Transaction row 2 -->
    <rect x="5" y="113" width="610" height="40" rx="4" fill="transparent"/>
    <text x="15" y="138" class="text-sm">Dec 28</text>
    <text x="120" y="138" class="text-md">One-time donation</text>
    <text x="350" y="138" style="fill:#fff;font-family:system-ui;font-size:12px">$50.00</text>
    <rect x="450" y="125" width="70" height="22" rx="11" fill="#22c55e" opacity="0.2"/>
    <text x="458" y="140" style="fill:#22c55e;font-family:system-ui;font-size:10px">Completed</text>
    <text x="550" y="138" class="text-sm">PayPal</text>

    <!-- Transaction row 3 -->
    <rect x="5" y="158" width="610" height="40" rx="4" fill="#0f172a" opacity="0.5"/>
    <text x="15" y="183" class="text-sm">Dec 25</text>
    <text x="120" y="183" class="text-md">Team Plan - Yearly</text>
    <text x="350" y="183" style="fill:#fff;font-family:system-ui;font-size:12px">$199.00</text>
    <rect x="450" y="170" width="70" height="22" rx="11" fill="#22c55e" opacity="0.2"/>
    <text x="458" y="185" style="fill:#22c55e;font-family:system-ui;font-size:10px">Completed</text>
    <text x="550" y="183" class="text-sm">•••• 4242</text>

    <!-- Transaction row 4 - Failed -->
    <rect x="5" y="203" width="610" height="40" rx="4" fill="transparent"/>
    <text x="15" y="228" class="text-sm">Dec 20</text>
    <text x="120" y="228" class="text-md">Add-on purchase</text>
    <text x="350" y="228" style="fill:#fff;font-family:system-ui;font-size:12px">$15.00</text>
    <rect x="450" y="215" width="55" height="22" rx="11" fill="#ef4444" opacity="0.2"/>
    <text x="458" y="230" style="fill:#ef4444;font-family:system-ui;font-size:10px">Failed</text>
    <text x="550" y="228" class="text-sm">•••• 1234</text>

    <!-- Transaction row 5 - Refunded -->
    <rect x="5" y="248" width="610" height="40" rx="4" fill="#0f172a" opacity="0.5"/>
    <text x="15" y="273" class="text-sm">Dec 15</text>
    <text x="120" y="273" class="text-md">Premium feature</text>
    <text x="350" y="273" style="fill:#fff;font-family:system-ui;font-size:12px">$25.00</text>
    <rect x="450" y="260" width="65" height="22" rx="11" fill="#eab308" opacity="0.2"/>
    <text x="458" y="275" style="fill:#eab308;font-family:system-ui;font-size:10px">Refunded</text>
    <text x="550" y="273" class="text-sm">•••• 4242</text>
  </g>

  <!-- Subscription Cards -->
  <g transform="translate(670, 240)">
    <rect width="270" height="300" rx="8" fill="#1e293b" stroke="#475569"/>
    <rect width="270" height="36" rx="8" fill="#334155"/>
    <text x="15" y="24" class="heading-sm">Active Subscriptions</text>

    <!-- Pro Plan Card -->
    <g transform="translate(10, 50)">
      <rect width="250" height="110" rx="8" fill="#0f172a" stroke="#8b5cf6"/>
      <text x="15" y="25" class="heading">Pro Plan</text>
      <rect x="180" y="10" width="55" height="22" rx="11" fill="#22c55e" opacity="0.2"/>
      <text x="188" y="25" style="fill:#22c55e;font-family:system-ui;font-size:10px">Active</text>
      <text x="15" y="50" class="text-sm">$29/month</text>
      <text x="15" y="70" class="text-muted">Next billing: Jan 31, 2026</text>
      <rect x="15" y="85" width="80" height="18" rx="4" fill="#334155"/>
      <text x="27" y="98" class="text-sm">Manage</text>
      <rect x="105" y="85" width="80" height="18" rx="4" fill="#334155"/>
      <text x="117" y="98" class="text-sm">Cancel</text>
    </g>

    <!-- Team Plan Card -->
    <g transform="translate(10, 175)">
      <rect width="250" height="110" rx="8" fill="#0f172a" stroke="#d946ef"/>
      <text x="15" y="25" class="heading">Team Plan</text>
      <rect x="180" y="10" width="55" height="22" rx="11" fill="#22c55e" opacity="0.2"/>
      <text x="188" y="25" style="fill:#22c55e;font-family:system-ui;font-size:10px">Active</text>
      <text x="15" y="50" class="text-sm">$199/year (5 seats)</text>
      <text x="15" y="70" class="text-muted">Next billing: Dec 25, 2026</text>
      <rect x="15" y="85" width="80" height="18" rx="4" fill="#334155"/>
      <text x="27" y="98" class="text-sm">Manage</text>
      <rect x="105" y="85" width="80" height="18" rx="4" fill="#334155"/>
      <text x="117" y="98" class="text-sm">Upgrade</text>
    </g>
  </g>

  <!-- Export Button -->
  <g transform="translate(40, 555)">
    <rect width="140" height="36" rx="6" fill="#8b5cf6"/>
    <text x="70" y="23" text-anchor="middle" style="fill:#fff;font-family:system-ui;font-size:12px;font-weight:bold">Export History</text>
  </g>

  <!-- ==================== MOBILE SECTION ==================== -->
  <text x="980" y="75" class="label-mobile">MOBILE</text>

  <g id="mobile-view" transform="translate(980, 85)">
    <!-- Phone frame -->
    <rect x="0" y="0" width="360" height="680" rx="24" fill="#1e293b" stroke="#475569" stroke-width="2"/>
    <rect x="10" y="10" width="340" height="660" rx="16" fill="#0f172a"/>

    <!-- Status bar -->
    <rect x="10" y="10" width="340" height="28" rx="16" fill="#1e293b"/>
    <text x="30" y="28" class="text-sm">9:41</text>
    <circle cx="310" cy="24" r="5" fill="#22c55e"/>

    <!-- Header -->
    <rect x="20" y="48" width="320" height="40" rx="8" fill="#1e293b"/>
    <text x="35" y="73" class="heading-sm">Payment Dashboard</text>
    <text x="280" y="73" class="text-sm">Live ●</text>

    <!-- Summary Cards (horizontal scroll hint) -->
    <g transform="translate(20, 98)">
      <!-- Total Spent -->
      <rect width="145" height="70" rx="8" fill="#1e293b" stroke="#475569"/>
      <text x="12" y="22" class="text-muted">Total Spent</text>
      <text x="12" y="48" style="fill:#fff;font-family:system-ui;font-size:18px;font-weight:bold">$2,847.50</text>
      <text x="12" y="62" class="text-muted">All time</text>

      <!-- This Month -->
      <rect x="155" width="145" height="70" rx="8" fill="#1e293b" stroke="#475569"/>
      <text x="167" y="22" class="text-muted">This Month</text>
      <text x="167" y="48" style="fill:#8b5cf6;font-family:system-ui;font-size:18px;font-weight:bold">$349.00</text>
      <text x="167" y="62" class="text-muted">December</text>
    </g>

    <!-- Active Subscription -->
    <g transform="translate(20, 180)">
      <rect width="320" height="65" rx="8" fill="#1e293b" stroke="#8b5cf6"/>
      <text x="12" y="22" class="heading-sm">Pro Plan</text>
      <rect x="260" y="8" width="48" height="20" rx="10" fill="#22c55e" opacity="0.2"/>
      <text x="266" y="22" style="fill:#22c55e;font-family:system-ui;font-size:9px">Active</text>
      <text x="12" y="42" class="text-sm">$29/month • Next: Jan 31</text>
      <text x="12" y="58" class="text-muted">Tap to manage subscription</text>
    </g>

    <!-- Recent Transactions -->
    <g transform="translate(20, 258)">
      <text x="0" y="15" class="heading-sm">Recent Transactions</text>
      <text x="260" y="15" class="annotation">View All</text>

      <!-- Transaction 1 -->
      <rect y="25" width="320" height="55" rx="6" fill="#1e293b"/>
      <text x="12" y="45" class="text-md">Pro Plan - Monthly</text>
      <text x="12" y="62" class="text-muted">Dec 31 • •••• 4242</text>
      <text x="260" y="50" style="fill:#fff;font-family:system-ui;font-size:12px">$29.00</text>
      <circle cx="308" cy="48" r="5" fill="#22c55e"/>

      <!-- Transaction 2 -->
      <rect y="88" width="320" height="55" rx="6" fill="#1e293b"/>
      <text x="12" y="108" class="text-md">One-time donation</text>
      <text x="12" y="125" class="text-muted">Dec 28 • PayPal</text>
      <text x="260" y="113" style="fill:#fff;font-family:system-ui;font-size:12px">$50.00</text>
      <circle cx="308" cy="111" r="5" fill="#22c55e"/>

      <!-- Transaction 3 -->
      <rect y="151" width="320" height="55" rx="6" fill="#1e293b"/>
      <text x="12" y="171" class="text-md">Team Plan - Yearly</text>
      <text x="12" y="188" class="text-muted">Dec 25 • •••• 4242</text>
      <text x="260" y="176" style="fill:#fff;font-family:system-ui;font-size:12px">$199.00</text>
      <circle cx="308" cy="174" r="5" fill="#22c55e"/>

      <!-- Transaction 4 - Failed -->
      <rect y="214" width="320" height="55" rx="6" fill="#1e293b"/>
      <text x="12" y="234" class="text-md">Add-on purchase</text>
      <text x="12" y="251" class="text-muted">Dec 20 • •••• 1234</text>
      <text x="260" y="239" style="fill:#fff;font-family:system-ui;font-size:12px">$15.00</text>
      <circle cx="308" cy="237" r="5" fill="#ef4444"/>
    </g>

    <!-- Bottom Export Button -->
    <g transform="translate(20, 620)">
      <rect width="320" height="40" rx="8" fill="#8b5cf6"/>
      <text x="160" y="26" text-anchor="middle" style="fill:#fff;font-family:system-ui;font-size:14px;font-weight:bold">Export Payment History</text>
    </g>
  </g>

  <!-- Legend -->
  <g transform="translate(40, 780)">
    <circle cx="6" cy="0" r="5" fill="#22c55e"/>
    <text x="18" y="4" class="text-sm">Completed</text>
    <circle cx="96" cy="0" r="5" fill="#ef4444"/>
    <text x="108" y="4" class="text-sm">Failed</text>
    <circle cx="166" cy="0" r="5" fill="#eab308"/>
    <text x="178" y="4" class="text-sm">Refunded</text>
    <circle cx="256" cy="0" r="5" fill="#8b5cf6"/>
    <text x="268" y="4" class="text-sm">Processing</text>
  </g>

  <!-- Dependencies -->
  <g transform="translate(600, 780)">
    <text x="0" y="4" class="text-muted">Dependencies: 024-Payment Integration | 042-Payment RLS Policies</text>
  </g>
</svg>