<svg xmlns="http://www.w3.org/2000/svg" viewBox="0 0 1400 800" width="1400" height="800">
  <!-- ============================================================
       GENERATED BY: /wireframe skill
       SOURCE: features/payments/038-payment-dashboard/spec.md
       DATE: 2025-12-31
       DO NOT MANUALLY EDIT - Regenerate with /wireframe command
       ============================================================ -->
  <defs>
    <linearGradient id="bgGrad" x1="0%" y1="0%" x2="100%" y2="100%">
      <stop offset="0%" style="stop-color:#0f172a"/>
      <stop offset="100%" style="stop-color:#1e293b"/>
    </linearGradient>
    <linearGradient id="accentGrad" x1="0%" y1="0%" x2="100%" y2="0%">
      <stop offset="0%" style="stop-color:#8b5cf6"/>
      <stop offset="100%" style="stop-color:#d946ef"/>
    </linearGradient>
    <style>
      .heading-lg { fill: #ffffff; font-family: system-ui, sans-serif; font-size: 20px; font-weight: bold; }
      .heading { fill: #ffffff; font-family: system-ui, sans-serif; font-size: 14px; font-weight: bold; }
      .heading-sm { fill: #ffffff; font-family: system-ui, sans-serif; font-size: 12px; font-weight: bold; }
      .text-md { fill: #cbd5e1; font-family: system-ui, sans-serif; font-size: 12px; }
      .text-sm { fill: #94a3b8; font-family: system-ui, sans-serif; font-size: 10px; }
      .text-muted { fill: #64748b; font-family: system-ui, sans-serif; font-size: 10px; }
      .annotation { fill: #8b5cf6; font-family: monospace; font-size: 10px; }
      .code { fill: #22c55e; font-family: monospace; font-size: 10px; }
      .label-desktop { fill: #8b5cf6; font-family: monospace; font-size: 11px; font-weight: bold; }
      .label-mobile { fill: #d946ef; font-family: monospace; font-size: 11px; font-weight: bold; }
    </style>
  </defs>

  <!-- Background -->
  <rect width="1400" height="800" fill="url(#bgGrad)"/>

  <!-- Dot grid pattern -->
  <g opacity="0.05">
    <pattern id="dots" width="30" height="30" patternUnits="userSpaceOnUse">
      <circle cx="15" cy="15" r="1" fill="#fff"/>
    </pattern>
    <rect width="1400" height="800" fill="url(#dots)"/>
  </g>

  <!-- Accent line top -->
  <rect x="0" y="0" width="1400" height="3" fill="url(#accentGrad)"/>

  <!-- Title -->
  <text x="700" y="32" text-anchor="middle" class="heading-lg">PAYMENT DASHBOARD - TRANSACTION DETAILS &amp; FILTERING</text>
  <text x="700" y="52" text-anchor="middle" class="text-muted">Expandable rows, filters, search, date range selection</text>

  <!-- ==================== DESKTOP SECTION ==================== -->
  <text x="40" y="75" class="label-desktop">DESKTOP - FILTERS &amp; EXPANDED ROW</text>

  <!-- Filter Bar -->
  <g transform="translate(40, 85)">
    <rect width="900" height="60" rx="8" fill="#1e293b" stroke="#475569"/>

    <!-- Search Input -->
    <rect x="15" y="12" width="200" height="36" rx="6" fill="#0f172a" stroke="#475569"/>
    <text x="30" y="35" class="text-muted">🔍 Search transactions...</text>

    <!-- Date Range -->
    <rect x="230" y="12" width="180" height="36" rx="6" fill="#0f172a" stroke="#475569"/>
    <text x="245" y="35" class="text-sm">Dec 1 - Dec 31, 2025</text>
    <text x="390" y="35" class="text-muted">▼</text>

    <!-- Status Filter -->
    <rect x="425" y="12" width="120" height="36" rx="6" fill="#0f172a" stroke="#475569"/>
    <text x="440" y="35" class="text-sm">All Statuses</text>
    <text x="525" y="35" class="text-muted">▼</text>

    <!-- Method Filter -->
    <rect x="560" y="12" width="120" height="36" rx="6" fill="#0f172a" stroke="#475569"/>
    <text x="575" y="35" class="text-sm">All Methods</text>
    <text x="660" y="35" class="text-muted">▼</text>

    <!-- Clear Filters -->
    <rect x="700" y="12" width="100" height="36" rx="6" fill="#334155"/>
    <text x="720" y="35" class="text-sm">Clear Filters</text>

    <!-- Results count -->
    <text x="820" y="35" class="text-muted">47 transactions</text>
  </g>

  <!-- Transaction Table with Expanded Row -->
  <g transform="translate(40, 160)">
    <rect width="900" height="380" rx="8" fill="#1e293b" stroke="#475569"/>

    <!-- Table header -->
    <rect width="900" height="36" rx="8" fill="#334155"/>
    <text x="30" y="24" class="text-muted">DATE</text>
    <text x="130" y="24" class="text-muted">TRANSACTION ID</text>
    <text x="300" y="24" class="text-muted">DESCRIPTION</text>
    <text x="520" y="24" class="text-muted">AMOUNT</text>
    <text x="620" y="24" class="text-muted">STATUS</text>
    <text x="740" y="24" class="text-muted">METHOD</text>
    <text x="860" y="24" class="text-muted">RECEIPT</text>

    <!-- Regular row 1 -->
    <rect x="5" y="45" width="890" height="40" rx="4" fill="#0f172a" opacity="0.5"/>
    <text x="15" y="70" class="text-sm">▶</text>
    <text x="30" y="70" class="text-sm">Dec 31, 2025</text>
    <text x="130" y="70" class="code">TXN-2025-0047</text>
    <text x="300" y="70" class="text-md">Pro Plan - Monthly</text>
    <text x="520" y="70" style="fill:#fff;font-family:system-ui;font-size:12px">$29.00</text>
    <rect x="620" y="57" width="70" height="22" rx="11" fill="#22c55e" opacity="0.2"/>
    <text x="630" y="72" style="fill:#22c55e;font-family:system-ui;font-size:10px">Completed</text>
    <text x="740" y="70" class="text-sm">Visa •••• 4242</text>
    <text x="865" y="70" class="annotation">PDF ↓</text>

    <!-- EXPANDED ROW (clicked) -->
    <rect x="5" y="90" width="890" height="40" rx="4" fill="#8b5cf6" opacity="0.1" stroke="#8b5cf6"/>
    <text x="15" y="115" class="annotation">▼</text>
    <text x="30" y="115" class="text-sm">Dec 28, 2025</text>
    <text x="130" y="115" class="code">TXN-2025-0046</text>
    <text x="300" y="115" class="text-md">One-time donation</text>
    <text x="520" y="115" style="fill:#fff;font-family:system-ui;font-size:12px">$50.00</text>
    <rect x="620" y="102" width="70" height="22" rx="11" fill="#22c55e" opacity="0.2"/>
    <text x="630" y="117" style="fill:#22c55e;font-family:system-ui;font-size:10px">Completed</text>
    <text x="740" y="115" class="text-sm">PayPal</text>
    <text x="865" y="115" class="annotation">PDF ↓</text>

    <!-- Expanded Details Panel -->
    <rect x="20" y="135" width="860" height="120" rx="8" fill="#0f172a" stroke="#8b5cf6"/>

    <!-- Details grid -->
    <g transform="translate(40, 155)">
      <text x="0" y="0" class="text-muted">Transaction ID</text>
      <text x="0" y="18" class="code">TXN-2025-0046</text>

      <text x="180" y="0" class="text-muted">Payment Provider</text>
      <text x="180" y="18" class="text-md">PayPal</text>

      <text x="360" y="0" class="text-muted">Processed At</text>
      <text x="360" y="18" class="text-md">Dec 28, 2025 14:32:15 UTC</text>

      <text x="580" y="0" class="text-muted">IP Address</text>
      <text x="580" y="18" class="text-md">192.168.1.***</text>

      <text x="0" y="45" class="text-muted">Description</text>
      <text x="0" y="63" class="text-md">One-time donation to support project development</text>

      <text x="360" y="45" class="text-muted">Currency</text>
      <text x="360" y="63" class="text-md">USD</text>

      <text x="500" y="45" class="text-muted">Fee</text>
      <text x="500" y="63" class="text-md">$1.75</text>

      <text x="600" y="45" class="text-muted">Net Amount</text>
      <text x="600" y="63" style="fill:#22c55e;font-family:system-ui;font-size:12px">$48.25</text>
    </g>

    <!-- Action buttons in expanded panel -->
    <g transform="translate(720, 230)">
      <rect width="70" height="24" rx="4" fill="#334155"/>
      <text x="10" y="17" class="text-sm">Receipt</text>
      <rect x="80" width="70" height="24" rx="4" fill="#334155"/>
      <text x="90" y="17" class="text-sm">Refund</text>
    </g>

    <!-- Regular row 3 -->
    <rect x="5" y="265" width="890" height="40" rx="4" fill="#0f172a" opacity="0.5"/>
    <text x="15" y="290" class="text-sm">▶</text>
    <text x="30" y="290" class="text-sm">Dec 25, 2025</text>
    <text x="130" y="290" class="code">TXN-2025-0045</text>
    <text x="300" y="290" class="text-md">Team Plan - Yearly</text>
    <text x="520" y="290" style="fill:#fff;font-family:system-ui;font-size:12px">$199.00</text>
    <rect x="620" y="277" width="70" height="22" rx="11" fill="#22c55e" opacity="0.2"/>
    <text x="630" y="292" style="fill:#22c55e;font-family:system-ui;font-size:10px">Completed</text>
    <text x="740" y="290" class="text-sm">Visa •••• 4242</text>
    <text x="865" y="290" class="annotation">PDF ↓</text>

    <!-- Regular row 4 - Failed with retry -->
    <rect x="5" y="310" width="890" height="40" rx="4" fill="transparent"/>
    <text x="15" y="335" class="text-sm">▶</text>
    <text x="30" y="335" class="text-sm">Dec 20, 2025</text>
    <text x="130" y="335" class="code">TXN-2025-0044</text>
    <text x="300" y="335" class="text-md">Add-on purchase</text>
    <text x="520" y="335" style="fill:#fff;font-family:system-ui;font-size:12px">$15.00</text>
    <rect x="620" y="322" width="55" height="22" rx="11" fill="#ef4444" opacity="0.2"/>
    <text x="630" y="337" style="fill:#ef4444;font-family:system-ui;font-size:10px">Failed</text>
    <text x="740" y="335" class="text-sm">Visa •••• 1234</text>
    <rect x="840" y="322" width="50" height="22" rx="4" fill="#ef4444"/>
    <text x="850" y="337" style="fill:#fff;font-family:system-ui;font-size:10px">Retry</text>
  </g>

  <!-- Pagination -->
  <g transform="translate(40, 555)">
    <text x="0" y="15" class="text-muted">Showing 1-10 of 47 transactions</text>
    <rect x="700" y="0" width="32" height="32" rx="6" fill="#334155"/>
    <text x="712" y="22" class="text-sm">←</text>
    <rect x="740" y="0" width="32" height="32" rx="6" fill="#8b5cf6"/>
    <text x="752" y="22" style="fill:#fff;font-family:system-ui;font-size:12px">1</text>
    <rect x="780" y="0" width="32" height="32" rx="6" fill="#334155"/>
    <text x="792" y="22" class="text-sm">2</text>
    <rect x="820" y="0" width="32" height="32" rx="6" fill="#334155"/>
    <text x="832" y="22" class="text-sm">3</text>
    <text x="860" y="22" class="text-muted">...</text>
    <rect x="880" y="0" width="32" height="32" rx="6" fill="#334155"/>
    <text x="892" y="22" class="text-sm">5</text>
    <rect x="920" y="0" width="32" height="32" rx="6" fill="#334155"/>
    <text x="932" y="22" class="text-sm">→</text>
  </g>

  <!-- ==================== MOBILE SECTION ==================== -->
  <text x="980" y="75" class="label-mobile">MOBILE - TRANSACTION DETAIL</text>

  <g id="mobile-view" transform="translate(980, 85)">
    <!-- Phone frame -->
    <rect x="0" y="0" width="360" height="680" rx="24" fill="#1e293b" stroke="#475569" stroke-width="2"/>
    <rect x="10" y="10" width="340" height="660" rx="16" fill="#0f172a"/>

    <!-- Status bar -->
    <rect x="10" y="10" width="340" height="28" rx="16" fill="#1e293b"/>
    <text x="30" y="28" class="text-sm">9:41</text>

    <!-- Header with back -->
    <rect x="20" y="48" width="320" height="40" rx="8" fill="#1e293b"/>
    <text x="35" y="73" class="text-sm">← Back</text>
    <text x="140" y="73" class="heading-sm">Transaction Details</text>

    <!-- Transaction Card -->
    <g transform="translate(20, 100)">
      <rect width="320" height="120" rx="8" fill="#1e293b" stroke="#8b5cf6"/>

      <!-- Amount -->
      <text x="160" y="35" text-anchor="middle" style="fill:#fff;font-family:system-ui;font-size:32px;font-weight:bold">$50.00</text>
      <text x="160" y="55" text-anchor="middle" class="text-muted">One-time donation</text>

      <!-- Status badge -->
      <rect x="115" y="70" width="90" height="28" rx="14" fill="#22c55e" opacity="0.2"/>
      <text x="130" y="89" style="fill:#22c55e;font-family:system-ui;font-size:12px">✓ Completed</text>

      <text x="160" y="112" text-anchor="middle" class="text-muted">Dec 28, 2025 at 14:32 UTC</text>
    </g>

    <!-- Details List -->
    <g transform="translate(20, 235)">
      <rect width="320" height="280" rx="8" fill="#1e293b"/>

      <!-- Row 1 -->
      <rect y="0" width="320" height="45" rx="8" fill="transparent"/>
      <text x="15" y="28" class="text-muted">Transaction ID</text>
      <text x="240" y="28" class="code">TXN-2025-0046</text>
      <rect x="10" y="44" width="300" height="1" fill="#475569"/>

      <!-- Row 2 -->
      <rect y="45" width="320" height="45" rx="0" fill="transparent"/>
      <text x="15" y="73" class="text-muted">Payment Method</text>
      <text x="270" y="73" class="text-md">PayPal</text>
      <rect x="10" y="89" width="300" height="1" fill="#475569"/>

      <!-- Row 3 -->
      <rect y="90" width="320" height="45" rx="0" fill="transparent"/>
      <text x="15" y="118" class="text-muted">Currency</text>
      <text x="290" y="118" class="text-md">USD</text>
      <rect x="10" y="134" width="300" height="1" fill="#475569"/>

      <!-- Row 4 -->
      <rect y="135" width="320" height="45" rx="0" fill="transparent"/>
      <text x="15" y="163" class="text-muted">Processing Fee</text>
      <text x="280" y="163" class="text-md">$1.75</text>
      <rect x="10" y="179" width="300" height="1" fill="#475569"/>

      <!-- Row 5 -->
      <rect y="180" width="320" height="45" rx="0" fill="transparent"/>
      <text x="15" y="208" class="text-muted">Net Amount</text>
      <text x="270" y="208" style="fill:#22c55e;font-family:system-ui;font-size:12px">$48.25</text>
      <rect x="10" y="224" width="300" height="1" fill="#475569"/>

      <!-- Row 6 -->
      <rect y="225" width="320" height="50" rx="0" fill="transparent"/>
      <text x="15" y="253" class="text-muted">Description</text>
      <text x="15" y="270" class="text-sm">Support project development</text>
    </g>

    <!-- Action Buttons -->
    <g transform="translate(20, 530)">
      <rect width="155" height="44" rx="8" fill="#334155"/>
      <text x="50" y="28" class="text-md">Download Receipt</text>

      <rect x="165" width="155" height="44" rx="8" fill="#334155"/>
      <text x="200" y="28" class="text-md">Request Refund</text>
    </g>

    <!-- Receipt Preview Button -->
    <g transform="translate(20, 590)">
      <rect width="320" height="44" rx="8" fill="#8b5cf6"/>
      <text x="125" y="28" style="fill:#fff;font-family:system-ui;font-size:14px">View Receipt PDF</text>
    </g>
  </g>

  <!-- Annotations -->
  <g transform="translate(40, 620)">
    <rect width="200" height="60" rx="6" fill="#1e293b" stroke="#8b5cf6"/>
    <text x="15" y="22" class="annotation">FR-010</text>
    <text x="15" y="38" class="text-sm">Expandable transaction</text>
    <text x="15" y="52" class="text-sm">rows for full details</text>
  </g>

  <g transform="translate(260, 620)">
    <rect width="200" height="60" rx="6" fill="#1e293b" stroke="#8b5cf6"/>
    <text x="15" y="22" class="annotation">FR-014-017</text>
    <text x="15" y="38" class="text-sm">Date, status, method</text>
    <text x="15" y="52" class="text-sm">and search filters</text>
  </g>

  <g transform="translate(480, 620)">
    <rect width="200" height="60" rx="6" fill="#1e293b" stroke="#8b5cf6"/>
    <text x="15" y="22" class="annotation">FR-012</text>
    <text x="15" y="38" class="text-sm">Receipt information</text>
    <text x="15" y="52" class="text-sm">with PDF download</text>
  </g>

  <g transform="translate(700, 620)">
    <rect width="200" height="60" rx="6" fill="#1e293b" stroke="#ef4444"/>
    <text x="15" y="22" style="fill:#ef4444;font-family:monospace;font-size:10px">FAILED RETRY</text>
    <text x="15" y="38" class="text-sm">Failed payments show</text>
    <text x="15" y="52" class="text-sm">retry button (FR-013)</text>
  </g>

  <!-- Legend -->
  <g transform="translate(40, 780)">
    <text x="0" y="0" class="text-muted">NFR-003: Paginated for performance | NFR-004: Screen reader navigation | NFR-005: Keyboard accessible</text>
  </g>
</svg>