<svg xmlns="http://www.w3.org/2000/svg" viewBox="0 0 1400 800" width="1400" height="800">
  <!-- ============================================================
       GENERATED BY: /wireframe skill
       SOURCE: features/payments/038-payment-dashboard/spec.md
       DATE: 2026-01-01
       THEME: Light (UX/Frontend) - v3 True Parchment
       DO NOT MANUALLY EDIT - Regenerate with /wireframe command
       ============================================================ -->
  <defs>
    <linearGradient id="bgGrad" x1="0%" y1="0%" x2="100%" y2="100%">
      <stop offset="0%" style="stop-color:#c7ddf5"/>
      <stop offset="100%" style="stop-color:#b8d4f0"/>
    </linearGradient>
    <linearGradient id="accentGrad" x1="0%" y1="0%" x2="100%" y2="0%">
      <stop offset="0%" style="stop-color:#8b5cf6"/>
      <stop offset="100%" style="stop-color:#d946ef"/>
    </linearGradient>
    <style>
      .heading-lg { fill: #1a1a2e; font-family: system-ui, sans-serif; font-size: 24px; font-weight: 800; }
      .heading { fill: #1a1a2e; font-family: system-ui, sans-serif; font-size: 16px; font-weight: 700; }
      .text-md { fill: #2d3748; font-family: system-ui, sans-serif; font-size: 14px; font-weight: 500; }
      .text-sm { fill: #374151; font-family: system-ui, sans-serif; font-size: 12px; font-weight: 500; }
      .text-muted { fill: #4b5563; font-family: system-ui, sans-serif; font-size: 11px; font-weight: 500; }
      .annotation { fill: #6d28d9; font-family: monospace; font-size: 12px; font-weight: 600; }
      .label-desktop { fill: #8b5cf6; font-family: monospace; font-size: 13px; font-weight: bold; }
      .label-mobile { fill: #d946ef; font-family: monospace; font-size: 13px; font-weight: bold; }
    </style>
  </defs>

  <!-- Background -->
  <rect width="1400" height="800" fill="url(#bgGrad)"/>

  <!-- Dot grid pattern -->
  <g opacity="0.35">
    <pattern id="dots" width="30" height="30" patternUnits="userSpaceOnUse">
      <circle cx="15" cy="15" r="1" fill="#6b8cba"/>
    </pattern>
    <rect width="1400" height="800" fill="url(#dots)"/>
  </g>

  <!-- Accent line top -->
  <rect x="0" y="0" width="1400" height="3" fill="url(#accentGrad)"/>

  <!-- Title -->
  <text x="700" y="28" text-anchor="middle" font-family="system-ui, sans-serif" font-size="14" font-weight="600" fill="#4b5563" letter-spacing="1">PAYMENT DASHBOARD - TRANSACTION DETAIL</text>

  <!-- DESKTOP SECTION -->
  <text x="40" y="52" class="label-desktop">DESKTOP (Expanded Row View)</text>
  <g id="desktop-view">
    <!-- Main container -->
    <rect x="40" y="60" width="900" height="720" rx="12" fill="#e8d4b8" stroke="#b8a080" stroke-width="1"/>

    <!-- Header bar -->
    <rect x="50" y="70" width="880" height="50" rx="8" fill="#dcc8a8"/>
    <text x="70" y="100" class="text-md">← Back to Dashboard</text>
    <text x="400" y="102" class="heading-lg">Transaction Details</text>

    <!-- Transaction Summary Card -->
    <g id="transaction-summary">
      <rect x="50" y="130" width="880" height="120" rx="8" fill="#f5f0e6" stroke="#8b5cf6" stroke-width="2"/>

      <!-- Left: Basic Info -->
      <g transform="translate(70, 150)">
        <text x="0" y="0" class="text-muted">Transaction ID</text>
        <text x="0" y="22" class="heading">TXN-2025-12-28-A7B3C9</text>
        <text x="0" y="50" class="text-muted">Date &amp; Time</text>
        <text x="0" y="72" class="text-md">December 28, 2025 at 3:42 PM EST</text>
      </g>

      <!-- Center: Amount -->
      <g transform="translate(400, 150)">
        <text x="0" y="0" class="text-muted">Amount</text>
        <text x="0" y="35" class="heading-lg" font-size="32">$29.99</text>
        <text x="0" y="55" class="text-sm">USD</text>
      </g>

      <!-- Right: Status -->
      <g transform="translate(600, 150)">
        <text x="0" y="0" class="text-muted">Status</text>
        <rect x="0" y="15" width="100" height="32" rx="16" fill="#22c55e" opacity="0.2"/>
        <text x="50" y="37" text-anchor="middle" fill="#166534" font-family="system-ui, sans-serif" font-size="14" font-weight="700">✓ Completed</text>
        <text x="0" y="70" class="text-sm">Processed in 2.3 seconds</text>
      </g>
    </g>

    <!-- Two Column Layout -->
    <g id="detail-columns">
      <!-- Left Column: Payment Details -->
      <rect x="50" y="260" width="430" height="280" rx="8" fill="#f5f0e6" stroke="#b8a080" stroke-width="1"/>
      <text x="70" y="290" class="heading">Payment Details</text>

      <!-- Detail Rows -->
      <g transform="translate(70, 310)">
        <text x="0" y="0" class="text-muted">Description</text>
        <text x="0" y="20" class="text-md">Pro Plan - Monthly Subscription</text>

        <text x="0" y="50" class="text-muted">Payment Method</text>
        <rect x="0" y="60" width="200" height="45" rx="6" fill="#e8d4b8"/>
        <text x="50" y="82" class="text-md">•••• •••• •••• 4242</text>
        <text x="50" y="98" class="text-sm">Visa • Expires 12/27</text>
        <rect x="15" y="70" width="28" height="18" rx="3" fill="#1a1a2e"/>
        <text x="29" y="83" text-anchor="middle" fill="#fff" font-size="8" font-weight="bold">VISA</text>

        <text x="0" y="130" class="text-muted">Billing Address</text>
        <text x="0" y="150" class="text-md">John Doe</text>
        <text x="0" y="168" class="text-sm">123 Main Street, Apt 4B</text>
        <text x="0" y="184" class="text-sm">New York, NY 10001</text>

        <text x="0" y="215" class="text-muted">Invoice Number</text>
        <text x="0" y="235" class="text-md">INV-2025-001234</text>
      </g>

      <!-- Right Column: Receipt & Actions -->
      <rect x="490" y="260" width="440" height="280" rx="8" fill="#f5f0e6" stroke="#b8a080" stroke-width="1"/>
      <text x="510" y="290" class="heading">Receipt &amp; Actions</text>

      <!-- Receipt Preview -->
      <g transform="translate(510, 310)">
        <rect x="0" y="0" width="400" height="130" rx="6" fill="#fff" stroke="#dcc8a8" stroke-width="1"/>
        <text x="200" y="25" text-anchor="middle" class="heading">RECEIPT</text>
        <line x1="20" y1="35" x2="380" y2="35" stroke="#dcc8a8" stroke-width="1"/>
        <text x="30" y="55" class="text-sm">Pro Plan - Monthly</text>
        <text x="370" y="55" text-anchor="end" class="text-sm">$29.99</text>
        <line x1="20" y1="70" x2="380" y2="70" stroke="#dcc8a8" stroke-width="1" stroke-dasharray="4,2"/>
        <text x="30" y="90" class="text-md" font-weight="700">Total</text>
        <text x="370" y="90" text-anchor="end" class="text-md" font-weight="700">$29.99</text>
        <text x="200" y="115" text-anchor="middle" class="text-muted">Thank you for your purchase!</text>
      </g>

      <!-- Action Buttons -->
      <g transform="translate(510, 455)">
        <rect x="0" y="0" width="130" height="36" rx="6" fill="#8b5cf6"/>
        <text x="65" y="23" text-anchor="middle" fill="#fff" font-family="system-ui, sans-serif" font-size="13" font-weight="600">📄 Download PDF</text>

        <rect x="140" y="0" width="130" height="36" rx="6" fill="#dcc8a8" stroke="#b8a080" stroke-width="1"/>
        <text x="205" y="23" text-anchor="middle" class="text-md">📧 Email Receipt</text>

        <rect x="280" y="0" width="130" height="36" rx="6" fill="#dcc8a8" stroke="#b8a080" stroke-width="1"/>
        <text x="345" y="23" text-anchor="middle" class="text-md">🖨️ Print</text>
      </g>

      <g transform="translate(510, 505)">
        <rect x="0" y="0" width="190" height="28" rx="4" fill="#ef4444" opacity="0.1"/>
        <text x="95" y="19" text-anchor="middle" fill="#dc2626" font-family="system-ui, sans-serif" font-size="12" font-weight="500">Request Refund</text>
      </g>
    </g>

    <!-- Timeline Section -->
    <g id="timeline">
      <rect x="50" y="550" width="880" height="120" rx="8" fill="#f5f0e6" stroke="#b8a080" stroke-width="1"/>
      <text x="70" y="580" class="heading">Transaction Timeline</text>

      <!-- Timeline Steps -->
      <g transform="translate(70, 600)">
        <!-- Step 1: Initiated -->
        <circle cx="0" cy="15" r="10" fill="#22c55e"/>
        <text x="0" y="19" text-anchor="middle" fill="#fff" font-size="10">✓</text>
        <text x="0" y="45" text-anchor="middle" class="text-sm">Initiated</text>
        <text x="0" y="60" text-anchor="middle" class="text-muted">3:42:01 PM</text>

        <!-- Connector -->
        <line x1="20" y1="15" x2="200" y2="15" stroke="#22c55e" stroke-width="2"/>

        <!-- Step 2: Processing -->
        <circle cx="220" cy="15" r="10" fill="#22c55e"/>
        <text x="220" y="19" text-anchor="middle" fill="#fff" font-size="10">✓</text>
        <text x="220" y="45" text-anchor="middle" class="text-sm">Processing</text>
        <text x="220" y="60" text-anchor="middle" class="text-muted">3:42:02 PM</text>

        <!-- Connector -->
        <line x1="240" y1="15" x2="420" y2="15" stroke="#22c55e" stroke-width="2"/>

        <!-- Step 3: Authorized -->
        <circle cx="440" cy="15" r="10" fill="#22c55e"/>
        <text x="440" y="19" text-anchor="middle" fill="#fff" font-size="10">✓</text>
        <text x="440" y="45" text-anchor="middle" class="text-sm">Authorized</text>
        <text x="440" y="60" text-anchor="middle" class="text-muted">3:42:03 PM</text>

        <!-- Connector -->
        <line x1="460" y1="15" x2="640" y2="15" stroke="#22c55e" stroke-width="2"/>

        <!-- Step 4: Completed -->
        <circle cx="660" cy="15" r="12" fill="#22c55e" stroke="#166534" stroke-width="2"/>
        <text x="660" y="19" text-anchor="middle" fill="#fff" font-size="10">✓</text>
        <text x="660" y="45" text-anchor="middle" class="text-sm" font-weight="700">Completed</text>
        <text x="660" y="60" text-anchor="middle" class="text-muted">3:42:04 PM</text>
      </g>
    </g>

    <!-- Related Transactions -->
    <g id="related">
      <rect x="50" y="680" width="880" height="90" rx="8" fill="#dcc8a8"/>
      <text x="70" y="710" class="heading">Related Transactions</text>
      <text x="70" y="735" class="text-sm">Nov 28, 2025 • Pro Plan - Monthly • $29.99 • Completed</text>
      <text x="70" y="755" class="text-sm">Oct 28, 2025 • Pro Plan - Monthly • $29.99 • Completed</text>
      <text x="650" y="745" class="annotation">View All →</text>
    </g>
  </g>

  <!-- MOBILE SECTION -->
  <text x="980" y="52" class="label-mobile">MOBILE</text>
  <g id="mobile-view" transform="translate(980, 60)">
    <!-- Phone frame -->
    <rect x="0" y="0" width="360" height="700" rx="24" fill="#c8b898" stroke="#a08860" stroke-width="2"/>
    <rect x="10" y="10" width="340" height="680" rx="16" fill="#e8d4b8"/>

    <!-- Status bar -->
    <rect x="10" y="10" width="340" height="28" rx="16" fill="#dcc8a8"/>
    <text x="30" y="28" class="text-sm">9:41</text>

    <!-- Header -->
    <rect x="20" y="48" width="320" height="45" rx="8" fill="#dcc8a8"/>
    <text x="40" y="76" class="text-md">← Back</text>
    <text x="180" y="76" text-anchor="middle" class="heading">Details</text>

    <!-- Amount Card -->
    <rect x="20" y="103" width="320" height="90" rx="8" fill="#f5f0e6" stroke="#8b5cf6" stroke-width="2"/>
    <text x="170" y="140" text-anchor="middle" class="heading-lg">$29.99</text>
    <rect x="130" y="150" width="100" height="28" rx="14" fill="#22c55e" opacity="0.2"/>
    <text x="180" y="169" text-anchor="middle" fill="#166534" font-family="system-ui, sans-serif" font-size="12" font-weight="700">✓ Completed</text>

    <!-- Transaction Info -->
    <g transform="translate(20, 203)">
      <rect x="0" y="0" width="320" height="150" rx="8" fill="#f5f0e6" stroke="#b8a080" stroke-width="1"/>

      <text x="20" y="25" class="text-muted">Transaction ID</text>
      <text x="20" y="45" class="text-sm">TXN-2025-12-28-A7B3C9</text>

      <line x1="20" y1="58" x2="300" y2="58" stroke="#dcc8a8" stroke-width="1"/>

      <text x="20" y="78" class="text-muted">Date</text>
      <text x="20" y="98" class="text-sm">Dec 28, 2025 • 3:42 PM</text>

      <line x1="20" y1="111" x2="300" y2="111" stroke="#dcc8a8" stroke-width="1"/>

      <text x="20" y="130" class="text-muted">Description</text>
      <text x="20" y="145" class="text-sm">Pro Plan - Monthly</text>
    </g>

    <!-- Payment Method -->
    <g transform="translate(20, 363)">
      <rect x="0" y="0" width="320" height="70" rx="8" fill="#f5f0e6" stroke="#b8a080" stroke-width="1"/>
      <text x="20" y="25" class="text-muted">Payment Method</text>
      <rect x="20" y="35" width="28" height="18" rx="3" fill="#1a1a2e"/>
      <text x="34" y="48" text-anchor="middle" fill="#fff" font-size="8" font-weight="bold">VISA</text>
      <text x="60" y="48" class="text-md">•••• 4242</text>
      <text x="60" y="62" class="text-muted">Expires 12/27</text>
    </g>

    <!-- Action Buttons -->
    <g transform="translate(20, 443)">
      <rect x="0" y="0" width="155" height="40" rx="6" fill="#8b5cf6"/>
      <text x="77" y="26" text-anchor="middle" fill="#fff" font-family="system-ui, sans-serif" font-size="12" font-weight="600">📄 Download</text>

      <rect x="165" y="0" width="155" height="40" rx="6" fill="#dcc8a8" stroke="#b8a080" stroke-width="1"/>
      <text x="242" y="26" text-anchor="middle" class="text-md">📧 Email</text>
    </g>

    <!-- Timeline (Collapsed) -->
    <g transform="translate(20, 493)">
      <rect x="0" y="0" width="320" height="55" rx="8" fill="#f5f0e6" stroke="#b8a080" stroke-width="1"/>
      <text x="20" y="25" class="heading">Timeline</text>
      <text x="300" y="25" text-anchor="end" class="text-muted">›</text>
      <g transform="translate(20, 35)">
        <circle cx="0" cy="8" r="5" fill="#22c55e"/>
        <line x1="10" y1="8" x2="60" y2="8" stroke="#22c55e" stroke-width="2"/>
        <circle cx="70" cy="8" r="5" fill="#22c55e"/>
        <line x1="80" y1="8" x2="130" y2="8" stroke="#22c55e" stroke-width="2"/>
        <circle cx="140" cy="8" r="5" fill="#22c55e"/>
        <line x1="150" y1="8" x2="200" y2="8" stroke="#22c55e" stroke-width="2"/>
        <circle cx="210" cy="8" r="6" fill="#22c55e" stroke="#166534" stroke-width="2"/>
      </g>
    </g>

    <!-- Refund Link -->
    <g transform="translate(20, 558)">
      <rect x="0" y="0" width="320" height="36" rx="4" fill="#ef4444" opacity="0.1"/>
      <text x="160" y="23" text-anchor="middle" fill="#dc2626" font-family="system-ui, sans-serif" font-size="12" font-weight="500">Request Refund</text>
    </g>

    <!-- Bottom Navigation -->
    <rect x="10" y="605" width="340" height="60" rx="0" fill="#dcc8a8"/>
    <g transform="translate(40, 620)">
      <text x="0" y="25" text-anchor="middle" class="text-muted">Dashboard</text>
      <text x="90" y="25" text-anchor="middle" fill="#8b5cf6" font-size="11" font-weight="700">Payments</text>
      <text x="180" y="25" text-anchor="middle" class="text-muted">Settings</text>
      <text x="270" y="25" text-anchor="middle" class="text-muted">Profile</text>
    </g>
  </g>

  <!-- Annotations -->
  <g id="annotations">
    <rect x="15" y="270" width="18" height="270" rx="4" fill="#8b5cf6" opacity="0.15"/>
    <text x="12" y="400" text-anchor="end" transform="rotate(-90, 12, 400)" class="annotation">FR-010, FR-011, FR-012</text>
  </g>
</svg>