<svg xmlns="http://www.w3.org/2000/svg" viewBox="0 0 1600 1000" width="1600" height="1000">
  <!-- ============================================================
       GENERATED BY: /wireframe skill
       SOURCE: features/payments/038-payment-dashboard/spec.md
       DATE: 2026-01-01
       THEME: Light (UX/Frontend) - v3 True Parchment
       DO NOT MANUALLY EDIT - Regenerate with /wireframe command
       ============================================================ -->
  <defs>
    <linearGradient id="bgGrad" x1="0%" y1="0%" x2="100%" y2="100%">
      <stop offset="0%" style="stop-color:#c7ddf5"/>
      <stop offset="100%" style="stop-color:#b8d4f0"/>
    </linearGradient>
    <linearGradient id="accentGrad" x1="0%" y1="0%" x2="100%" y2="0%">
      <stop offset="0%" style="stop-color:#8b5cf6"/>
      <stop offset="100%" style="stop-color:#d946ef"/>
    </linearGradient>
    <style>
      .heading-lg { fill: #1a1a2e; font-family: system-ui, sans-serif; font-size: 24px; font-weight: 800; }
      .heading { fill: #1a1a2e; font-family: system-ui, sans-serif; font-size: 16px; font-weight: 700; }
      .text-md { fill: #2d3748; font-family: system-ui, sans-serif; font-size: 14px; font-weight: 500; }
      .text-sm { fill: #374151; font-family: system-ui, sans-serif; font-size: 12px; font-weight: 500; }
      .text-muted { fill: #4b5563; font-family: system-ui, sans-serif; font-size: 11px; font-weight: 500; }
      .annotation { fill: #6d28d9; font-family: monospace; font-size: 12px; font-weight: 600; }
      .label-state { fill: #8b5cf6; font-family: monospace; font-size: 14px; font-weight: bold; }
    </style>
  </defs>

  <!-- Background -->
  <rect width="1600" height="1000" fill="url(#bgGrad)"/>

  <!-- Dot grid pattern -->
  <g opacity="0.35">
    <pattern id="dots" width="30" height="30" patternUnits="userSpaceOnUse">
      <circle cx="15" cy="15" r="1" fill="#6b8cba"/>
    </pattern>
    <rect width="1600" height="1000" fill="url(#dots)"/>
  </g>

  <!-- Accent line top -->
  <rect x="0" y="0" width="1600" height="3" fill="url(#accentGrad)"/>

  <!-- Title -->
  <text x="800" y="28" text-anchor="middle" font-family="system-ui, sans-serif" font-size="14" font-weight="600" fill="#4b5563" letter-spacing="1">PAYMENT DASHBOARD - STATE VARIATIONS (NFR-008, Edge Cases)</text>

  <!-- STATE 1: EMPTY STATE -->
  <g id="empty-state" transform="translate(40, 60)">
    <text x="0" y="-10" class="label-state">1. EMPTY STATE (No Payment History)</text>
    <rect x="0" y="0" width="360" height="420" rx="12" fill="#e8d4b8" stroke="#b8a080" stroke-width="1"/>

    <!-- Header -->
    <rect x="10" y="10" width="340" height="45" rx="8" fill="#dcc8a8"/>
    <text x="30" y="40" class="heading">Payment Dashboard</text>

    <!-- Empty Stats -->
    <g transform="translate(10, 65)">
      <rect x="0" y="0" width="165" height="55" rx="6" fill="#f5f0e6" stroke="#b8a080" stroke-width="1"/>
      <text x="15" y="22" class="text-muted">Total Spent</text>
      <text x="15" y="44" class="heading">$0.00</text>

      <rect x="175" y="0" width="165" height="55" rx="6" fill="#f5f0e6" stroke="#b8a080" stroke-width="1"/>
      <text x="190" y="22" class="text-muted">Transactions</text>
      <text x="190" y="44" class="heading">0</text>
    </g>

    <!-- Empty Illustration -->
    <g transform="translate(80, 150)">
      <rect x="0" y="0" width="200" height="180" rx="8" fill="#f5f0e6" stroke="#b8a080" stroke-width="1" stroke-dasharray="4,4"/>

      <!-- Wallet icon placeholder -->
      <rect x="70" y="30" width="60" height="50" rx="8" fill="#dcc8a8" stroke="#b8a080" stroke-width="2"/>
      <line x1="70" y1="50" x2="130" y2="50" stroke="#b8a080" stroke-width="2"/>
      <circle cx="100" cy="65" r="8" fill="#b8a080"/>

      <text x="100" y="110" text-anchor="middle" class="heading">No Payments Yet</text>
      <text x="100" y="135" text-anchor="middle" class="text-sm">Your payment history will</text>
      <text x="100" y="152" text-anchor="middle" class="text-sm">appear here once you</text>
      <text x="100" y="169" text-anchor="middle" class="text-sm">make your first purchase.</text>
    </g>

    <!-- CTA -->
    <rect x="80" y="350" width="200" height="40" rx="8" fill="#8b5cf6"/>
    <text x="180" y="376" text-anchor="middle" fill="#fff" font-family="system-ui, sans-serif" font-size="14" font-weight="600">Browse Plans</text>
  </g>

  <!-- STATE 2: LOADING STATE -->
  <g id="loading-state" transform="translate(420, 60)">
    <text x="0" y="-10" class="label-state">2. LOADING STATE (Skeleton Placeholders)</text>
    <rect x="0" y="0" width="360" height="420" rx="12" fill="#e8d4b8" stroke="#b8a080" stroke-width="1"/>

    <!-- Header -->
    <rect x="10" y="10" width="340" height="45" rx="8" fill="#dcc8a8"/>
    <text x="30" y="40" class="heading">Payment Dashboard</text>

    <!-- Skeleton Stats -->
    <g transform="translate(10, 65)">
      <rect x="0" y="0" width="165" height="55" rx="6" fill="#f5f0e6"/>
      <rect x="15" y="15" width="80" height="12" rx="4" fill="#dcc8a8">
        <animate attributeName="opacity" values="0.5;1;0.5" dur="1.5s" repeatCount="indefinite"/>
      </rect>
      <rect x="15" y="35" width="100" height="16" rx="4" fill="#dcc8a8">
        <animate attributeName="opacity" values="0.5;1;0.5" dur="1.5s" repeatCount="indefinite"/>
      </rect>

      <rect x="175" y="0" width="165" height="55" rx="6" fill="#f5f0e6"/>
      <rect x="190" y="15" width="70" height="12" rx="4" fill="#dcc8a8">
        <animate attributeName="opacity" values="0.5;1;0.5" dur="1.5s" repeatCount="indefinite"/>
      </rect>
      <rect x="190" y="35" width="50" height="16" rx="4" fill="#dcc8a8">
        <animate attributeName="opacity" values="0.5;1;0.5" dur="1.5s" repeatCount="indefinite"/>
      </rect>
    </g>

    <!-- Skeleton Filter Bar -->
    <rect x="10" y="130" width="340" height="35" rx="6" fill="#dcc8a8"/>
    <rect x="20" y="140" width="100" height="16" rx="4" fill="#f5f0e6">
      <animate attributeName="opacity" values="0.6;1;0.6" dur="1.5s" repeatCount="indefinite"/>
    </rect>
    <rect x="130" y="140" width="80" height="16" rx="4" fill="#f5f0e6">
      <animate attributeName="opacity" values="0.6;1;0.6" dur="1.5s" repeatCount="indefinite"/>
    </rect>

    <!-- Skeleton Table Rows -->
    <g transform="translate(10, 175)">
      <rect x="0" y="0" width="340" height="220" rx="6" fill="#f5f0e6"/>

      <!-- Skeleton Row 1 -->
      <rect x="15" y="20" width="310" height="35" rx="4" fill="#dcc8a8">
        <animate attributeName="opacity" values="0.4;0.8;0.4" dur="1.5s" repeatCount="indefinite"/>
      </rect>

      <!-- Skeleton Row 2 -->
      <rect x="15" y="65" width="310" height="35" rx="4" fill="#dcc8a8">
        <animate attributeName="opacity" values="0.4;0.8;0.4" dur="1.5s" repeatCount="indefinite"/>
      </rect>

      <!-- Skeleton Row 3 -->
      <rect x="15" y="110" width="310" height="35" rx="4" fill="#dcc8a8">
        <animate attributeName="opacity" values="0.4;0.8;0.4" dur="1.5s" repeatCount="indefinite"/>
      </rect>

      <!-- Skeleton Row 4 -->
      <rect x="15" y="155" width="310" height="35" rx="4" fill="#dcc8a8">
        <animate attributeName="opacity" values="0.4;0.8;0.4" dur="1.5s" repeatCount="indefinite"/>
      </rect>
    </g>

    <!-- Loading Spinner Indicator -->
    <g transform="translate(155, 400)">
      <circle cx="25" cy="0" r="6" fill="#8b5cf6" opacity="0.3"/>
      <circle cx="25" cy="0" r="6" fill="#8b5cf6" opacity="0.9">
        <animateTransform attributeName="transform" type="rotate" values="0 25 0;360 25 0" dur="1s" repeatCount="indefinite"/>
      </circle>
      <text x="50" y="5" class="text-muted">Loading...</text>
    </g>
  </g>

  <!-- STATE 3: OFFLINE STATE -->
  <g id="offline-state" transform="translate(800, 60)">
    <text x="0" y="-10" class="label-state">3. OFFLINE STATE (Connection Lost)</text>
    <rect x="0" y="0" width="360" height="420" rx="12" fill="#e8d4b8" stroke="#b8a080" stroke-width="1"/>

    <!-- Header with Offline Indicator -->
    <rect x="10" y="10" width="340" height="45" rx="8" fill="#dcc8a8"/>
    <text x="30" y="40" class="heading">Payment Dashboard</text>
    <circle cx="320" cy="32" r="6" fill="#ef4444"/>
    <text x="295" y="37" text-anchor="end" class="text-sm" fill="#dc2626">Offline</text>

    <!-- Offline Banner -->
    <rect x="10" y="60" width="340" height="50" rx="6" fill="#fef2f2" stroke="#fecaca" stroke-width="1"/>
    <text x="50" y="85" class="text-md" fill="#dc2626">⚠️ You're offline</text>
    <text x="50" y="102" class="text-sm" fill="#b91c1c">Updates will sync when connected</text>

    <!-- Cached Stats (stale indicator) -->
    <g transform="translate(10, 120)">
      <rect x="0" y="0" width="165" height="55" rx="6" fill="#f5f0e6" stroke="#b8a080" stroke-width="1" opacity="0.6"/>
      <text x="15" y="22" class="text-muted">Total Spent</text>
      <text x="15" y="44" class="heading" opacity="0.7">$2,847.50</text>
      <text x="140" y="22" class="text-muted">📴</text>

      <rect x="175" y="0" width="165" height="55" rx="6" fill="#f5f0e6" stroke="#b8a080" stroke-width="1" opacity="0.6"/>
      <text x="190" y="22" class="text-muted">Transactions</text>
      <text x="190" y="44" class="heading" opacity="0.7">47</text>
    </g>

    <!-- Cached Table (read-only) -->
    <g transform="translate(10, 185)">
      <rect x="0" y="0" width="340" height="180" rx="6" fill="#f5f0e6" stroke="#b8a080" stroke-width="1" opacity="0.6"/>
      <text x="20" y="25" class="heading" opacity="0.7">Payment History (Cached)</text>

      <!-- Stale row indicator -->
      <rect x="15" y="40" width="310" height="35" rx="4" fill="#e8d4b8" opacity="0.5"/>
      <text x="25" y="62" class="text-sm" opacity="0.7">Dec 28 • Pro Plan</text>
      <text x="290" y="62" text-anchor="end" class="text-md" opacity="0.7">$29.99</text>

      <rect x="15" y="80" width="310" height="35" rx="4" fill="#e8d4b8" opacity="0.5"/>
      <text x="25" y="102" class="text-sm" opacity="0.7">Dec 25 • Extra Storage</text>
      <text x="290" y="102" text-anchor="end" class="text-md" opacity="0.7">$9.99</text>

      <rect x="15" y="120" width="310" height="35" rx="4" fill="#e8d4b8" opacity="0.5"/>
      <text x="25" y="142" class="text-sm" opacity="0.7">Dec 24 • API Credits</text>
      <text x="290" y="142" text-anchor="end" class="text-md" opacity="0.7">$49.00</text>
    </g>

    <!-- Retry Button -->
    <rect x="80" y="375" width="200" height="36" rx="6" fill="#dcc8a8" stroke="#b8a080" stroke-width="1"/>
    <text x="180" y="399" text-anchor="middle" class="text-md">🔄 Retry Connection</text>
  </g>

  <!-- STATE 4: PROCESSING STATE -->
  <g id="processing-state" transform="translate(1180, 60)">
    <text x="0" y="-10" class="label-state">4. PROCESSING STATE (In-Flight Payment)</text>
    <rect x="0" y="0" width="360" height="420" rx="12" fill="#e8d4b8" stroke="#b8a080" stroke-width="1"/>

    <!-- Header -->
    <rect x="10" y="10" width="340" height="45" rx="8" fill="#dcc8a8"/>
    <text x="30" y="40" class="heading">Payment Dashboard</text>
    <circle cx="320" cy="32" r="6" fill="#22c55e"/>

    <!-- Processing Banner -->
    <rect x="10" y="60" width="340" height="70" rx="6" fill="#fef9c3" stroke="#fde047" stroke-width="2"/>
    <g transform="translate(25, 75)">
      <circle cx="12" cy="12" r="10" fill="none" stroke="#eab308" stroke-width="2" stroke-dasharray="20 10">
        <animateTransform attributeName="transform" type="rotate" values="0 12 12;360 12 12" dur="1s" repeatCount="indefinite"/>
      </circle>
    </g>
    <text x="55" y="90" class="text-md" fill="#92400e">Payment Processing...</text>
    <text x="55" y="110" class="text-sm" fill="#a16207">API Credits Bundle • $49.00</text>
    <text x="55" y="125" class="text-muted">Est. completion: ~30 seconds</text>

    <!-- Stats with pending indicator -->
    <g transform="translate(10, 140)">
      <rect x="0" y="0" width="165" height="55" rx="6" fill="#f5f0e6" stroke="#b8a080" stroke-width="1"/>
      <text x="15" y="22" class="text-muted">Pending</text>
      <text x="15" y="44" class="heading" fill="#eab308">+$49.00</text>

      <rect x="175" y="0" width="165" height="55" rx="6" fill="#f5f0e6" stroke="#b8a080" stroke-width="1"/>
      <text x="190" y="22" class="text-muted">Processing</text>
      <text x="190" y="44" class="heading">1</text>
    </g>

    <!-- Transaction Table with Processing Row Highlighted -->
    <g transform="translate(10, 205)">
      <rect x="0" y="0" width="340" height="165" rx="6" fill="#f5f0e6" stroke="#b8a080" stroke-width="1"/>
      <text x="20" y="25" class="heading">Recent Transactions</text>

      <!-- Processing Row (highlighted) -->
      <rect x="15" y="40" width="310" height="45" rx="4" fill="#fef9c3" stroke="#eab308" stroke-width="2"/>
      <g transform="translate(25, 50)">
        <circle cx="8" cy="12" r="6" fill="none" stroke="#eab308" stroke-width="2" stroke-dasharray="12 6">
          <animateTransform attributeName="transform" type="rotate" values="0 8 12;360 8 12" dur="1s" repeatCount="indefinite"/>
        </circle>
      </g>
      <text x="50" y="60" class="text-sm">API Credits Bundle</text>
      <text x="280" y="60" text-anchor="end" class="text-md">$49.00</text>
      <text x="50" y="78" class="text-muted">Processing...</text>

      <!-- Completed Row -->
      <rect x="15" y="90" width="310" height="35" rx="4" fill="#e8d4b8"/>
      <text x="25" y="112" class="text-sm">Pro Plan - Monthly</text>
      <rect x="220" y="100" width="55" height="18" rx="9" fill="#22c55e" opacity="0.2"/>
      <text x="247" y="112" text-anchor="middle" fill="#166534" font-size="9">Completed</text>
      <text x="290" y="112" text-anchor="end" class="text-md">$29.99</text>

      <!-- Completed Row 2 -->
      <rect x="15" y="130" width="310" height="35" rx="4" fill="#f5f0e6"/>
      <text x="25" y="152" class="text-sm">Extra Storage</text>
      <rect x="220" y="140" width="55" height="18" rx="9" fill="#22c55e" opacity="0.2"/>
      <text x="247" y="152" text-anchor="middle" fill="#166534" font-size="9">Completed</text>
      <text x="290" y="152" text-anchor="end" class="text-md">$9.99</text>
    </g>

    <!-- Info Text -->
    <text x="180" y="395" text-anchor="middle" class="text-muted">Page will update automatically</text>
  </g>

  <!-- STATE 5: ERROR STATE -->
  <g id="error-state" transform="translate(40, 520)">
    <text x="0" y="-10" class="label-state">5. ERROR STATE (Failed Payment)</text>
    <rect x="0" y="0" width="360" height="420" rx="12" fill="#e8d4b8" stroke="#b8a080" stroke-width="1"/>

    <!-- Header -->
    <rect x="10" y="10" width="340" height="45" rx="8" fill="#dcc8a8"/>
    <text x="30" y="40" class="heading">Payment Dashboard</text>

    <!-- Error Banner -->
    <rect x="10" y="60" width="340" height="80" rx="6" fill="#fef2f2" stroke="#ef4444" stroke-width="2"/>
    <circle cx="35" cy="100" r="15" fill="#ef4444"/>
    <text x="35" y="106" text-anchor="middle" fill="#fff" font-size="16" font-weight="bold">!</text>
    <text x="60" y="85" class="text-md" fill="#dc2626">Payment Failed</text>
    <text x="60" y="105" class="text-sm" fill="#b91c1c">Your card was declined. Please try</text>
    <text x="60" y="120" class="text-sm" fill="#b91c1c">another payment method.</text>
    <text x="310" y="100" text-anchor="end" class="annotation">Dismiss</text>

    <!-- Transaction List with Failed Item -->
    <g transform="translate(10, 150)">
      <rect x="0" y="0" width="340" height="200" rx="6" fill="#f5f0e6" stroke="#b8a080" stroke-width="1"/>
      <text x="20" y="25" class="heading">Recent Transactions</text>

      <!-- Failed Row -->
      <rect x="15" y="40" width="310" height="50" rx="4" fill="#fef2f2" stroke="#fecaca" stroke-width="1"/>
      <text x="25" y="62" class="text-md" fill="#dc2626">API Credits Bundle</text>
      <text x="290" y="62" text-anchor="end" class="text-md">$49.00</text>
      <rect x="25" y="70" width="45" height="16" rx="8" fill="#ef4444" opacity="0.2"/>
      <text x="47" y="82" text-anchor="middle" fill="#dc2626" font-size="9">Failed</text>
      <rect x="240" y="68" width="60" height="20" rx="4" fill="#8b5cf6"/>
      <text x="270" y="82" text-anchor="middle" fill="#fff" font-size="10">Retry</text>

      <!-- Normal Row -->
      <rect x="15" y="100" width="310" height="40" rx="4" fill="#e8d4b8"/>
      <text x="25" y="125" class="text-sm">Pro Plan - Monthly</text>
      <rect x="220" y="113" width="55" height="18" rx="9" fill="#22c55e" opacity="0.2"/>
      <text x="247" y="125" text-anchor="middle" fill="#166534" font-size="9">Completed</text>
      <text x="290" y="125" text-anchor="end" class="text-md">$29.99</text>

      <!-- Normal Row 2 -->
      <rect x="15" y="145" width="310" height="40" rx="4" fill="#f5f0e6"/>
      <text x="25" y="170" class="text-sm">Extra Storage</text>
      <rect x="220" y="158" width="55" height="18" rx="9" fill="#22c55e" opacity="0.2"/>
      <text x="247" y="170" text-anchor="middle" fill="#166534" font-size="9">Completed</text>
      <text x="290" y="170" text-anchor="end" class="text-md">$9.99</text>
    </g>

    <!-- Help Link -->
    <text x="180" y="385" text-anchor="middle" class="annotation">Need help? Contact Support</text>
  </g>

  <!-- STATE 6: INVALID FILTER STATE -->
  <g id="invalid-filter-state" transform="translate(420, 520)">
    <text x="0" y="-10" class="label-state">6. INVALID FILTER (Date Range Error)</text>
    <rect x="0" y="0" width="360" height="420" rx="12" fill="#e8d4b8" stroke="#b8a080" stroke-width="1"/>

    <!-- Header -->
    <rect x="10" y="10" width="340" height="45" rx="8" fill="#dcc8a8"/>
    <text x="30" y="40" class="heading">Payment Dashboard</text>

    <!-- Filter Bar with Error -->
    <rect x="10" y="60" width="340" height="90" rx="6" fill="#f5f0e6" stroke="#b8a080" stroke-width="1"/>
    <text x="25" y="85" class="text-muted">Date Range</text>

    <!-- Start Date -->
    <rect x="25" y="95" width="140" height="32" rx="6" fill="#fef2f2" stroke="#ef4444" stroke-width="2"/>
    <text x="40" y="116" class="text-sm" fill="#dc2626">Dec 31, 2025</text>

    <!-- End Date -->
    <rect x="175" y="95" width="140" height="32" rx="6" fill="#fef2f2" stroke="#ef4444" stroke-width="2"/>
    <text x="190" y="116" class="text-sm" fill="#dc2626">Dec 1, 2025</text>

    <!-- Error Message -->
    <text x="25" y="145" class="text-sm" fill="#dc2626">⚠️ End date must be after start date</text>

    <!-- Empty Results -->
    <g transform="translate(10, 160)">
      <rect x="0" y="0" width="340" height="200" rx="6" fill="#f5f0e6" stroke="#b8a080" stroke-width="1"/>
      <text x="20" y="25" class="heading">Payment History</text>

      <!-- No Results -->
      <g transform="translate(80, 60)">
        <rect x="0" y="0" width="180" height="100" rx="8" fill="#dcc8a8" stroke="#b8a080" stroke-width="1" stroke-dasharray="4,4"/>
        <text x="90" y="40" text-anchor="middle" fill="#4b5563" font-size="24">🔍</text>
        <text x="90" y="65" text-anchor="middle" class="text-md">Invalid Filter</text>
        <text x="90" y="85" text-anchor="middle" class="text-muted">Please fix the date range</text>
      </g>
    </g>

    <!-- Clear Filters Button -->
    <rect x="80" y="375" width="200" height="36" rx="6" fill="#8b5cf6"/>
    <text x="180" y="399" text-anchor="middle" fill="#fff" font-family="system-ui, sans-serif" font-size="13" font-weight="600">Clear Filters</text>
  </g>

  <!-- STATE 7: REAL-TIME UPDATE TOAST -->
  <g id="realtime-toast" transform="translate(800, 520)">
    <text x="0" y="-10" class="label-state">7. REAL-TIME UPDATE (Toast Notification)</text>
    <rect x="0" y="0" width="360" height="420" rx="12" fill="#e8d4b8" stroke="#b8a080" stroke-width="1"/>

    <!-- Header -->
    <rect x="10" y="10" width="340" height="45" rx="8" fill="#dcc8a8"/>
    <text x="30" y="40" class="heading">Payment Dashboard</text>
    <circle cx="320" cy="32" r="6" fill="#22c55e"/>

    <!-- Real-Time Toast (slides in from top) -->
    <rect x="30" y="65" width="300" height="60" rx="8" fill="#f0fdf4" stroke="#22c55e" stroke-width="2">
      <animate attributeName="y" values="20;65" dur="0.3s" fill="freeze"/>
    </rect>
    <circle cx="55" cy="95" r="12" fill="#22c55e"/>
    <text x="55" y="100" text-anchor="middle" fill="#fff" font-size="12">✓</text>
    <text x="80" y="90" class="text-md" fill="#166534">Payment Completed</text>
    <text x="80" y="108" class="text-sm" fill="#15803d">Pro Plan - $29.99 just now</text>
    <text x="305" y="95" class="text-muted">×</text>

    <!-- Updated Transaction List (new item highlighted) -->
    <g transform="translate(10, 135)">
      <rect x="0" y="0" width="340" height="230" rx="6" fill="#f5f0e6" stroke="#b8a080" stroke-width="1"/>
      <text x="20" y="25" class="heading">Recent Transactions</text>
      <text x="290" y="25" class="text-muted">● Live</text>
      <circle cx="275" cy="21" r="4" fill="#22c55e">
        <animate attributeName="opacity" values="1;0.3;1" dur="2s" repeatCount="indefinite"/>
      </circle>

      <!-- New Row (animated highlight) -->
      <rect x="15" y="40" width="310" height="45" rx="4" fill="#f0fdf4" stroke="#22c55e" stroke-width="2">
        <animate attributeName="fill" values="#dcfce7;#f0fdf4" dur="2s" fill="freeze"/>
      </rect>
      <text x="25" y="58" class="text-sm" font-weight="700">Pro Plan - Monthly</text>
      <text x="290" y="58" text-anchor="end" class="heading">$29.99</text>
      <text x="25" y="76" class="text-muted">Just now</text>
      <rect x="220" y="64" width="55" height="18" rx="9" fill="#22c55e" opacity="0.3"/>
      <text x="247" y="76" text-anchor="middle" fill="#166534" font-size="9">NEW</text>

      <!-- Existing Rows -->
      <rect x="15" y="95" width="310" height="40" rx="4" fill="#e8d4b8"/>
      <text x="25" y="120" class="text-sm">Extra Storage</text>
      <text x="290" y="120" text-anchor="end" class="text-md">$9.99</text>
      <text x="25" y="132" class="text-muted">3 days ago</text>

      <rect x="15" y="140" width="310" height="40" rx="4" fill="#f5f0e6"/>
      <text x="25" y="165" class="text-sm">API Credits Bundle</text>
      <text x="290" y="165" text-anchor="end" class="text-md">$49.00</text>
      <text x="25" y="177" class="text-muted">4 days ago</text>

      <rect x="15" y="185" width="310" height="40" rx="4" fill="#e8d4b8"/>
      <text x="25" y="210" class="text-sm">Workshop: Advanced CSS</text>
      <text x="290" y="210" text-anchor="end" class="text-md">$79.00</text>
    </g>

    <!-- Updated Stats -->
    <text x="180" y="395" text-anchor="middle" class="text-muted">Stats automatically updated</text>
  </g>

  <!-- STATE 8: LARGE EXPORT WARNING -->
  <g id="export-warning" transform="translate(1180, 520)">
    <text x="0" y="-10" class="label-state">8. LARGE EXPORT (Progress Modal)</text>
    <rect x="0" y="0" width="360" height="420" rx="12" fill="#e8d4b8" stroke="#b8a080" stroke-width="1"/>

    <!-- Header (dimmed) -->
    <rect x="10" y="10" width="340" height="45" rx="8" fill="#dcc8a8" opacity="0.5"/>
    <text x="30" y="40" class="heading" opacity="0.5">Payment Dashboard</text>

    <!-- Dimmed Content -->
    <rect x="10" y="60" width="340" height="290" rx="6" fill="#f5f0e6" opacity="0.3"/>

    <!-- Modal Overlay -->
    <rect x="30" y="100" width="300" height="220" rx="12" fill="#f5f0e6" stroke="#8b5cf6" stroke-width="2" filter="drop-shadow(0 4px 6px rgba(0,0,0,0.1))"/>

    <!-- Modal Content -->
    <text x="180" y="135" text-anchor="middle" class="heading">Exporting Data</text>

    <!-- Progress Bar -->
    <rect x="60" y="160" width="240" height="12" rx="6" fill="#dcc8a8"/>
    <rect x="60" y="160" width="156" height="12" rx="6" fill="#8b5cf6">
      <animate attributeName="width" values="60;156;240" dur="3s" fill="freeze"/>
    </rect>

    <text x="180" y="195" text-anchor="middle" class="text-md">Exporting 1,247 transactions...</text>
    <text x="180" y="215" text-anchor="middle" class="text-muted">65% complete • ~12 seconds remaining</text>

    <!-- File Info -->
    <rect x="60" y="235" width="240" height="40" rx="6" fill="#e8d4b8"/>
    <text x="90" y="258" class="text-sm">📄 payments_2025.csv</text>
    <text x="270" y="258" text-anchor="end" class="text-muted">~2.4 MB</text>

    <!-- Cancel Button -->
    <rect x="110" y="285" width="140" height="28" rx="4" fill="#dcc8a8" stroke="#b8a080" stroke-width="1"/>
    <text x="180" y="304" text-anchor="middle" class="text-sm">Cancel Export</text>

    <!-- Bottom text -->
    <text x="180" y="395" text-anchor="middle" class="text-muted">Edge case: Large dataset export</text>
  </g>

  <!-- Annotations -->
  <g id="annotations">
    <rect x="0" y="500" width="1600" height="3" fill="url(#accentGrad)" opacity="0.3"/>
  </g>
</svg>