<svg xmlns="http://www.w3.org/2000/svg" viewBox="0 0 1400 900" width="1400" height="900">
  <!-- ============================================================
       GENERATED BY: /wireframe skill
       SOURCE: features/payments/038-payment-dashboard/spec.md
       DATE: 2025-12-31
       DO NOT MANUALLY EDIT - Regenerate with /wireframe command
       ============================================================ -->
  <defs>
    <linearGradient id="bgGrad" x1="0%" y1="0%" x2="100%" y2="100%">
      <stop offset="0%" style="stop-color:#0f172a"/>
      <stop offset="100%" style="stop-color:#1e293b"/>
    </linearGradient>
    <linearGradient id="accentGrad" x1="0%" y1="0%" x2="100%" y2="0%">
      <stop offset="0%" style="stop-color:#8b5cf6"/>
      <stop offset="100%" style="stop-color:#d946ef"/>
    </linearGradient>
    <style>
      .heading-lg { fill: #ffffff; font-family: system-ui, sans-serif; font-size: 20px; font-weight: bold; }
      .heading { fill: #ffffff; font-family: system-ui, sans-serif; font-size: 14px; font-weight: bold; }
      .heading-sm { fill: #ffffff; font-family: system-ui, sans-serif; font-size: 12px; font-weight: bold; }
      .text-md { fill: #cbd5e1; font-family: system-ui, sans-serif; font-size: 12px; }
      .text-sm { fill: #94a3b8; font-family: system-ui, sans-serif; font-size: 10px; }
      .text-muted { fill: #64748b; font-family: system-ui, sans-serif; font-size: 10px; }
      .annotation { fill: #8b5cf6; font-family: monospace; font-size: 10px; }
      .code { fill: #22c55e; font-family: monospace; font-size: 10px; }
      .label-section { fill: #8b5cf6; font-family: monospace; font-size: 11px; font-weight: bold; }
    </style>
  </defs>

  <!-- Background -->
  <rect width="1400" height="900" fill="url(#bgGrad)"/>

  <!-- Dot grid pattern -->
  <g opacity="0.05">
    <pattern id="dots" width="30" height="30" patternUnits="userSpaceOnUse">
      <circle cx="15" cy="15" r="1" fill="#fff"/>
    </pattern>
    <rect width="1400" height="900" fill="url(#dots)"/>
  </g>

  <!-- Accent line top -->
  <rect x="0" y="0" width="1400" height="3" fill="url(#accentGrad)"/>

  <!-- Title -->
  <text x="700" y="32" text-anchor="middle" class="heading-lg">PAYMENT DASHBOARD - UI STATES</text>
  <text x="700" y="52" text-anchor="middle" class="text-muted">Empty, Loading, Offline, Real-time Updates, Processing States</text>

  <!-- ==================== EMPTY STATE ==================== -->
  <text x="40" y="85" class="label-section">EMPTY STATE</text>

  <g transform="translate(40, 100)">
    <rect width="320" height="280" rx="8" fill="#1e293b" stroke="#475569"/>

    <!-- Header -->
    <rect width="320" height="40" rx="8" fill="#334155"/>
    <text x="15" y="26" class="heading-sm">Payment Dashboard</text>
    <text x="260" y="26" class="text-sm">● Live</text>

    <!-- Empty illustration placeholder -->
    <g transform="translate(110, 80)">
      <circle cx="50" cy="50" r="40" fill="#334155" stroke="#475569"/>
      <rect x="30" y="35" width="40" height="5" rx="2" fill="#475569"/>
      <rect x="25" y="45" width="50" height="5" rx="2" fill="#475569"/>
      <rect x="30" y="55" width="40" height="5" rx="2" fill="#475569"/>
    </g>

    <!-- Empty message -->
    <text x="160" y="200" text-anchor="middle" class="heading-sm">No Payments Yet</text>
    <text x="160" y="220" text-anchor="middle" class="text-muted">Your payment history will appear here</text>
    <text x="160" y="235" text-anchor="middle" class="text-muted">once you make your first purchase.</text>

    <!-- CTA -->
    <rect x="95" y="250" width="130" height="32" rx="6" fill="#8b5cf6"/>
    <text x="160" y="271" text-anchor="middle" style="fill:#fff;font-family:system-ui;font-size:12px">View Plans</text>
  </g>

  <!-- ==================== LOADING STATE ==================== -->
  <text x="380" y="85" class="label-section">LOADING STATE (NFR-008)</text>

  <g transform="translate(380, 100)">
    <rect width="320" height="280" rx="8" fill="#1e293b" stroke="#475569"/>

    <!-- Header -->
    <rect width="320" height="40" rx="8" fill="#334155"/>
    <text x="15" y="26" class="heading-sm">Payment Dashboard</text>

    <!-- Skeleton stats row -->
    <g transform="translate(15, 55)">
      <rect width="90" height="45" rx="6" fill="#334155">
        <animate attributeName="opacity" values="0.5;1;0.5" dur="1.5s" repeatCount="indefinite"/>
      </rect>
      <rect x="100" width="90" height="45" rx="6" fill="#334155">
        <animate attributeName="opacity" values="0.5;1;0.5" dur="1.5s" repeatCount="indefinite" begin="0.2s"/>
      </rect>
      <rect x="200" width="90" height="45" rx="6" fill="#334155">
        <animate attributeName="opacity" values="0.5;1;0.5" dur="1.5s" repeatCount="indefinite" begin="0.4s"/>
      </rect>
    </g>

    <!-- Skeleton table rows -->
    <g transform="translate(15, 115)">
      <rect width="290" height="35" rx="6" fill="#334155">
        <animate attributeName="opacity" values="0.5;1;0.5" dur="1.5s" repeatCount="indefinite"/>
      </rect>
      <rect y="45" width="290" height="35" rx="6" fill="#334155">
        <animate attributeName="opacity" values="0.5;1;0.5" dur="1.5s" repeatCount="indefinite" begin="0.15s"/>
      </rect>
      <rect y="90" width="290" height="35" rx="6" fill="#334155">
        <animate attributeName="opacity" values="0.5;1;0.5" dur="1.5s" repeatCount="indefinite" begin="0.3s"/>
      </rect>
    </g>

    <!-- Loading spinner -->
    <g transform="translate(160, 250)">
      <circle cx="0" cy="0" r="12" fill="none" stroke="#334155" stroke-width="2"/>
      <path d="M 0 -12 A 12 12 0 0 1 12 0" fill="none" stroke="#8b5cf6" stroke-width="2" stroke-linecap="round">
        <animateTransform attributeName="transform" type="rotate" from="0" to="360" dur="1s" repeatCount="indefinite"/>
      </path>
    </g>
  </g>

  <!-- ==================== OFFLINE STATE ==================== -->
  <text x="720" y="85" class="label-section">OFFLINE STATE</text>

  <g transform="translate(720, 100)">
    <rect width="320" height="280" rx="8" fill="#1e293b" stroke="#ef4444"/>

    <!-- Offline Banner -->
    <rect width="320" height="40" rx="8" fill="#ef4444" opacity="0.2"/>
    <text x="30" y="26" style="fill:#ef4444;font-family:system-ui;font-size:12px;font-weight:bold">⚠ You're offline</text>
    <text x="270" y="26" class="text-sm">Retry →</text>

    <!-- Cached content indicator -->
    <rect x="15" y="55" width="290" height="30" rx="6" fill="#334155"/>
    <text x="30" y="75" class="text-muted">Showing cached data • Last sync: 5m ago</text>

    <!-- Dimmed content -->
    <g opacity="0.6">
      <!-- Stats -->
      <rect x="15" y="100" width="90" height="45" rx="6" fill="#334155"/>
      <text x="30" y="130" class="heading-sm">$2,847</text>

      <rect x="115" y="100" width="90" height="45" rx="6" fill="#334155"/>
      <text x="130" y="130" class="heading-sm">$349</text>

      <!-- Transaction list -->
      <rect x="15" y="160" width="290" height="35" rx="6" fill="#0f172a"/>
      <text x="30" y="183" class="text-sm">Pro Plan - Monthly</text>
      <text x="250" y="183" class="text-sm">$29.00</text>

      <rect x="15" y="200" width="290" height="35" rx="6" fill="#0f172a"/>
      <text x="30" y="223" class="text-sm">One-time donation</text>
      <text x="250" y="223" class="text-sm">$50.00</text>
    </g>

    <!-- Queued updates indicator -->
    <rect x="15" y="245" width="290" height="25" rx="4" fill="#eab308" opacity="0.2"/>
    <text x="30" y="263" style="fill:#eab308;font-family:system-ui;font-size:10px">2 updates queued • Will sync when online</text>
  </g>

  <!-- ==================== REAL-TIME UPDATE ==================== -->
  <text x="1060" y="85" class="label-section">REAL-TIME UPDATE (FR-006/007)</text>

  <g transform="translate(1060, 100)">
    <rect width="320" height="280" rx="8" fill="#1e293b" stroke="#22c55e"/>

    <!-- Header with live indicator -->
    <rect width="320" height="40" rx="8" fill="#334155"/>
    <text x="15" y="26" class="heading-sm">Payment Dashboard</text>
    <circle cx="280" cy="20" r="5" fill="#22c55e">
      <animate attributeName="opacity" values="1;0.5;1" dur="1s" repeatCount="indefinite"/>
    </circle>
    <text x="293" y="26" class="text-sm">Live</text>

    <!-- New transaction animation -->
    <rect x="15" y="55" width="290" height="50" rx="6" fill="#22c55e" opacity="0.15" stroke="#22c55e">
      <animate attributeName="opacity" values="0.3;0.15" dur="2s" fill="freeze"/>
    </rect>
    <text x="30" y="75" class="code">NEW</text>
    <text x="60" y="75" class="text-md">Pro Plan - Monthly</text>
    <text x="250" y="75" style="fill:#22c55e;font-family:system-ui;font-size:12px">$29.00</text>
    <text x="30" y="93" class="text-muted">Just now • Completed</text>

    <!-- Existing transactions -->
    <rect x="15" y="115" width="290" height="40" rx="6" fill="#0f172a"/>
    <text x="30" y="140" class="text-md">One-time donation</text>
    <text x="250" y="140" class="text-sm">$50.00</text>

    <rect x="15" y="165" width="290" height="40" rx="6" fill="#0f172a"/>
    <text x="30" y="190" class="text-md">Team Plan - Yearly</text>
    <text x="245" y="190" class="text-sm">$199.00</text>

    <!-- Toast notification -->
    <g transform="translate(60, 220)">
      <rect width="200" height="45" rx="8" fill="#22c55e" opacity="0.9"/>
      <text x="15" y="18" style="fill:#fff;font-family:system-ui;font-size:11px;font-weight:bold">✓ Payment received!</text>
      <text x="15" y="35" style="fill:#fff;font-family:system-ui;font-size:10px;opacity:0.9">Pro Plan - $29.00</text>
      <text x="175" y="18" style="fill:#fff;font-family:system-ui;font-size:10px">×</text>
    </g>
  </g>

  <!-- ==================== PROCESSING STATE ==================== -->
  <text x="40" y="410" class="label-section">PROCESSING STATE (FR-008)</text>

  <g transform="translate(40, 425)">
    <rect width="420" height="200" rx="8" fill="#1e293b" stroke="#475569"/>

    <!-- Header -->
    <rect width="420" height="40" rx="8" fill="#334155"/>
    <text x="15" y="26" class="heading-sm">Recent Transactions</text>

    <!-- Processing transaction -->
    <rect x="15" y="55" width="390" height="55" rx="6" fill="#8b5cf6" opacity="0.1" stroke="#8b5cf6" stroke-dasharray="4,2">
      <animate attributeName="stroke-dashoffset" values="0;8" dur="0.5s" repeatCount="indefinite"/>
    </rect>
    <g transform="translate(30, 75)">
      <circle cx="0" cy="5" r="8" fill="none" stroke="#334155" stroke-width="2"/>
      <path d="M 0 -3 A 8 8 0 0 1 8 5" fill="none" stroke="#8b5cf6" stroke-width="2" stroke-linecap="round">
        <animateTransform attributeName="transform" type="rotate" from="0" to="360" dur="1s" repeatCount="indefinite"/>
      </path>
    </g>
    <text x="55" y="80" class="text-md">Processing payment...</text>
    <text x="55" y="98" class="text-muted">Pro Plan renewal • Usually takes 10-30 seconds</text>
    <text x="340" y="85" style="fill:#8b5cf6;font-family:system-ui;font-size:12px">$29.00</text>

    <!-- Regular transaction -->
    <rect x="15" y="120" width="390" height="45" rx="6" fill="#0f172a"/>
    <circle cx="32" cy="143" r="6" fill="#22c55e"/>
    <text x="55" y="148" class="text-md">One-time donation</text>
    <text x="340" y="148" class="text-sm">$50.00</text>

    <!-- Another regular transaction -->
    <rect x="15" y="170" width="390" height="20" rx="6" fill="transparent"/>
    <text x="15" y="185" class="text-muted">Dec 25 - Team Plan • $199.00 • Completed</text>
  </g>

  <!-- ==================== SUBSCRIPTION RENEWAL ==================== -->
  <text x="480" y="410" class="label-section">SUBSCRIPTION RENEWAL (FR-009)</text>

  <g transform="translate(480, 425)">
    <rect width="420" height="200" rx="8" fill="#1e293b" stroke="#475569"/>

    <!-- Header -->
    <rect width="420" height="40" rx="8" fill="#334155"/>
    <text x="15" y="26" class="heading-sm">Subscription Status</text>

    <!-- Upcoming renewal card -->
    <rect x="15" y="55" width="390" height="80" rx="8" fill="#eab308" opacity="0.1" stroke="#eab308"/>
    <text x="30" y="80" style="fill:#eab308;font-family:system-ui;font-size:12px;font-weight:bold">⚡ Upcoming Renewal</text>
    <text x="30" y="100" class="text-md">Pro Plan will renew in 3 days</text>
    <text x="30" y="120" class="text-muted">Jan 3, 2026 • $29.00 will be charged to Visa •••• 4242</text>

    <!-- Action buttons -->
    <rect x="15" y="145" width="120" height="32" rx="6" fill="#334155"/>
    <text x="40" y="166" class="text-sm">Update Card</text>
    <rect x="145" y="145" width="120" height="32" rx="6" fill="#334155"/>
    <text x="170" y="166" class="text-sm">Change Plan</text>
    <rect x="275" y="145" width="130" height="32" rx="6" fill="#ef4444" opacity="0.2"/>
    <text x="295" y="166" style="fill:#ef4444;font-family:system-ui;font-size:10px">Cancel Renewal</text>
  </g>

  <!-- ==================== ERROR STATE ==================== -->
  <text x="920" y="410" class="label-section">ERROR STATE</text>

  <g transform="translate(920, 425)">
    <rect width="420" height="200" rx="8" fill="#1e293b" stroke="#ef4444"/>

    <!-- Error banner -->
    <rect width="420" height="50" rx="8" fill="#ef4444" opacity="0.2"/>
    <text x="30" y="32" style="fill:#ef4444;font-family:system-ui;font-size:14px;font-weight:bold">⚠ Unable to load transactions</text>

    <!-- Error details -->
    <text x="20" y="80" class="text-md">We couldn't retrieve your payment history.</text>
    <text x="20" y="100" class="text-muted">This might be due to a connection issue or server problem.</text>

    <!-- Error code -->
    <rect x="20" y="115" width="380" height="30" rx="4" fill="#0f172a"/>
    <text x="35" y="135" class="code">Error code: PAYMENTS_FETCH_FAILED • Request ID: req_abc123</text>

    <!-- Action buttons -->
    <rect x="20" y="160" width="100" height="32" rx="6" fill="#ef4444"/>
    <text x="45" y="181" style="fill:#fff;font-family:system-ui;font-size:12px">Retry</text>
    <rect x="130" y="160" width="130" height="32" rx="6" fill="#334155"/>
    <text x="155" y="181" class="text-sm">Contact Support</text>
  </g>

  <!-- ==================== ANALYTICS PREVIEW ==================== -->
  <text x="40" y="655" class="label-section">ANALYTICS PREVIEW (P3 - FR-004)</text>

  <g transform="translate(40, 670)">
    <rect width="600" height="180" rx="8" fill="#1e293b" stroke="#475569"/>

    <!-- Header -->
    <rect width="600" height="36" rx="8" fill="#334155"/>
    <text x="15" y="24" class="heading-sm">Spending Summary</text>
    <text x="500" y="24" class="text-sm">Last 6 months ▼</text>

    <!-- Simple bar chart -->
    <g transform="translate(30, 55)">
      <!-- Y axis labels -->
      <text x="-5" y="5" text-anchor="end" class="text-muted">$400</text>
      <text x="-5" y="50" text-anchor="end" class="text-muted">$200</text>
      <text x="-5" y="95" text-anchor="end" class="text-muted">$0</text>

      <!-- Bars -->
      <rect x="20" y="60" width="60" height="35" rx="4" fill="#8b5cf6" opacity="0.6"/>
      <text x="50" y="110" text-anchor="middle" class="text-muted">Jul</text>

      <rect x="95" y="40" width="60" height="55" rx="4" fill="#8b5cf6" opacity="0.6"/>
      <text x="125" y="110" text-anchor="middle" class="text-muted">Aug</text>

      <rect x="170" y="25" width="60" height="70" rx="4" fill="#8b5cf6" opacity="0.6"/>
      <text x="200" y="110" text-anchor="middle" class="text-muted">Sep</text>

      <rect x="245" y="50" width="60" height="45" rx="4" fill="#8b5cf6" opacity="0.6"/>
      <text x="275" y="110" text-anchor="middle" class="text-muted">Oct</text>

      <rect x="320" y="30" width="60" height="65" rx="4" fill="#8b5cf6" opacity="0.6"/>
      <text x="350" y="110" text-anchor="middle" class="text-muted">Nov</text>

      <rect x="395" y="15" width="60" height="80" rx="4" fill="#8b5cf6"/>
      <text x="425" y="110" text-anchor="middle" class="text-muted">Dec</text>
    </g>

    <!-- Stats sidebar -->
    <g transform="translate(480, 55)">
      <text x="0" y="15" class="text-muted">Total (6 months)</text>
      <text x="0" y="35" style="fill:#fff;font-family:system-ui;font-size:18px;font-weight:bold">$1,847.50</text>

      <text x="0" y="65" class="text-muted">Monthly Average</text>
      <text x="0" y="85" style="fill:#8b5cf6;font-family:system-ui;font-size:18px;font-weight:bold">$307.92</text>

      <rect y="100" width="100" height="28" rx="6" fill="#334155"/>
      <text x="20" y="118" class="text-sm">Export CSV</text>
    </g>
  </g>

  <!-- State transition notes -->
  <g transform="translate(680, 670)">
    <rect width="680" height="180" rx="8" fill="#1e293b" stroke="#475569"/>
    <text x="15" y="25" class="heading-sm">State Transition Notes</text>

    <text x="20" y="55" class="annotation">Initial Load:</text>
    <text x="100" y="55" class="text-sm">Loading → (success) Dashboard / (error) Error State</text>

    <text x="20" y="80" class="annotation">Network Loss:</text>
    <text x="100" y="80" class="text-sm">Dashboard → Offline (cached data) → Reconnect → Sync queued updates</text>

    <text x="20" y="105" class="annotation">Payment Event:</text>
    <text x="100" y="105" class="text-sm">Supabase Realtime → New transaction animates into list (FR-007)</text>

    <text x="20" y="130" class="annotation">Processing:</text>
    <text x="100" y="130" class="text-sm">Transaction shows spinner → Status updates in-place → Toast notification</text>

    <text x="20" y="155" class="annotation">Performance:</text>
    <text x="100" y="155" class="text-sm">NFR-001: &lt;2s initial load | NFR-002: &lt;500ms realtime updates</text>

    <text x="20" y="175" class="annotation">Accessibility:</text>
    <text x="100" y="175" class="text-sm">NFR-006: Live regions announce new transactions to screen readers</text>
  </g>
</svg>