<svg xmlns="http://www.w3.org/2000/svg" viewBox="0 0 1400 800" width="1400" height="800">
  <!-- ============================================================
       GENERATED BY: /wireframe skill
       SOURCE: features/testing/035-messaging-service-tests/spec.md
       DATE: 2026-01-01
       THEME: Dark (Backend/Architecture)
       DO NOT MANUALLY EDIT - Regenerate with /wireframe command
       ============================================================ -->
  <defs>
    <linearGradient id="bgGrad" x1="0%" y1="0%" x2="100%" y2="100%">
      <stop offset="0%" style="stop-color:#0f172a"/>
      <stop offset="100%" style="stop-color:#1e293b"/>
    </linearGradient>
    <linearGradient id="accentGrad" x1="0%" y1="0%" x2="100%" y2="0%">
      <stop offset="0%" style="stop-color:#8b5cf6"/>
      <stop offset="100%" style="stop-color:#d946ef"/>
    </linearGradient>
    <linearGradient id="successGrad" x1="0%" y1="0%" x2="100%" y2="0%">
      <stop offset="0%" style="stop-color:#22c55e"/>
      <stop offset="100%" style="stop-color:#16a34a"/>
    </linearGradient>
    <style>
      .heading-lg { fill: #ffffff; font-family: system-ui, sans-serif; font-size: 20px; font-weight: bold; }
      .heading { fill: #ffffff; font-family: system-ui, sans-serif; font-size: 14px; font-weight: bold; }
      .heading-sm { fill: #ffffff; font-family: system-ui, sans-serif; font-size: 12px; font-weight: bold; }
      .text-md { fill: #cbd5e1; font-family: system-ui, sans-serif; font-size: 12px; }
      .text-sm { fill: #94a3b8; font-family: system-ui, sans-serif; font-size: 10px; }
      .text-muted { fill: #8494a8; font-family: system-ui, sans-serif; font-size: 10px; }
      .code { fill: #8b5cf6; font-family: monospace; font-size: 11px; }
      .code-sm { fill: #d946ef; font-family: monospace; font-size: 10px; }
      .annotation { fill: #6d28d9; font-family: monospace; font-size: 10px; }
      .success { fill: #22c55e; font-family: system-ui, sans-serif; font-size: 11px; font-weight: bold; }
      .priority-p1 { fill: #ef4444; font-family: monospace; font-size: 9px; font-weight: bold; }
      .priority-p2 { fill: #eab308; font-family: monospace; font-size: 9px; font-weight: bold; }
    </style>
  </defs>

  <!-- Background -->
  <rect width="1400" height="800" fill="url(#bgGrad)"/>

  <!-- Dot grid pattern -->
  <g opacity="0.05">
    <pattern id="dots" width="30" height="30" patternUnits="userSpaceOnUse">
      <circle cx="15" cy="15" r="1" fill="#fff"/>
    </pattern>
    <rect width="1400" height="800" fill="url(#dots)"/>
  </g>

  <!-- Accent line top -->
  <rect x="0" y="0" width="1400" height="3" fill="url(#accentGrad)"/>

  <!-- Title -->
  <text x="700" y="28" text-anchor="middle" font-family="system-ui, sans-serif" font-size="14" font-weight="600" fill="#8494a8" letter-spacing="1">035 - MESSAGING SERVICE TESTS ARCHITECTURE</text>

  <!-- Main Container -->
  <g id="diagram-content">

    <!-- Left Column: Test Files -->
    <g transform="translate(40, 50)">
      <text x="140" y="20" text-anchor="middle" class="heading-lg">Test Files</text>

      <!-- message-service.test.ts -->
      <g transform="translate(0, 40)">
        <rect x="0" y="0" width="280" height="140" rx="8" fill="#1e293b" stroke="#8b5cf6" stroke-width="2"/>
        <rect x="0" y="0" width="280" height="28" rx="8" fill="#334155"/>
        <rect x="0" y="20" width="280" height="8" fill="#334155"/>
        <text x="15" y="18" class="code">message-service.test.ts</text>
        <text x="250" y="18" class="priority-p1">P1</text>

        <text x="15" y="50" class="text-md">FR-001: Encryption produces ciphertext</text>
        <text x="15" y="68" class="text-md">FR-002: Decryption recovers plaintext</text>
        <text x="15" y="86" class="text-md">FR-003: Send triggers DB storage</text>
        <text x="15" y="104" class="text-md">FR-004: Retrieval returns messages</text>
        <text x="15" y="122" class="text-md">FR-005: Conversation lookup works</text>
      </g>

      <!-- key-service.test.ts -->
      <g transform="translate(0, 195)">
        <rect x="0" y="0" width="280" height="140" rx="8" fill="#1e293b" stroke="#8b5cf6" stroke-width="2"/>
        <rect x="0" y="0" width="280" height="28" rx="8" fill="#334155"/>
        <rect x="0" y="20" width="280" height="8" fill="#334155"/>
        <text x="15" y="18" class="code">key-service.test.ts</text>
        <text x="250" y="18" class="priority-p1">P1</text>

        <text x="15" y="50" class="text-md">FR-007: Key pair generation valid</text>
        <text x="15" y="68" class="text-md">FR-008: Public key export format</text>
        <text x="15" y="86" class="text-md">FR-009: Private key storage</text>
        <text x="15" y="104" class="text-md">FR-010: Key derivation functions</text>
        <text x="15" y="122" class="text-md">FR-011: Key validation rejects bad</text>
      </g>

      <!-- group-key-service.test.ts -->
      <g transform="translate(0, 350)">
        <rect x="0" y="0" width="280" height="120" rx="8" fill="#1e293b" stroke="#d946ef" stroke-width="2"/>
        <rect x="0" y="0" width="280" height="28" rx="8" fill="#334155"/>
        <rect x="0" y="20" width="280" height="8" fill="#334155"/>
        <text x="15" y="18" class="code">group-key-service.test.ts</text>
        <text x="250" y="18" class="priority-p2">P2</text>

        <text x="15" y="50" class="text-md">FR-013: Group key generation</text>
        <text x="15" y="68" class="text-md">FR-014: Key distribution to members</text>
        <text x="15" y="86" class="text-md">FR-015: Key rotation on removal</text>
        <text x="15" y="104" class="text-md">FR-016: Backward compatibility</text>
      </g>

      <!-- audit-logger.test.ts -->
      <g transform="translate(0, 485)">
        <rect x="0" y="0" width="280" height="120" rx="8" fill="#1e293b" stroke="#d946ef" stroke-width="2"/>
        <rect x="0" y="0" width="280" height="28" rx="8" fill="#334155"/>
        <rect x="0" y="20" width="280" height="8" fill="#334155"/>
        <text x="15" y="18" class="code">audit-logger.test.ts</text>
        <text x="250" y="18" class="priority-p2">P2</text>

        <text x="15" y="50" class="text-md">FR-018: Event logging metadata</text>
        <text x="15" y="68" class="text-md">FR-019: Event filtering/querying</text>
        <text x="15" y="86" class="text-md">FR-020: PII redaction</text>
        <text x="15" y="104" class="text-md">FR-021: Timestamp accuracy</text>
      </g>
    </g>

    <!-- Center: Arrows to Services -->
    <g transform="translate(335, 50)">
      <!-- Arrow labels -->
      <text x="60" y="20" text-anchor="middle" class="text-muted">tests</text>

      <!-- Arrows from test files to services -->
      <line x1="0" y1="110" x2="120" y2="110" stroke="#475569" stroke-width="2" marker-end="url(#arrowhead)"/>
      <line x1="0" y1="265" x2="120" y2="200" stroke="#475569" stroke-width="2" marker-end="url(#arrowhead)"/>
      <line x1="0" y1="410" x2="120" y2="355" stroke="#475569" stroke-width="2" marker-end="url(#arrowhead)"/>
      <line x1="0" y1="545" x2="120" y2="510" stroke="#475569" stroke-width="2" marker-end="url(#arrowhead)"/>

      <defs>
        <marker id="arrowhead" markerWidth="10" markerHeight="7" refX="9" refY="3.5" orient="auto">
          <polygon points="0 0, 10 3.5, 0 7" fill="#475569"/>
        </marker>
      </defs>
    </g>

    <!-- Center Column: Services Under Test -->
    <g transform="translate(470, 50)">
      <text x="130" y="20" text-anchor="middle" class="heading-lg">Services Under Test</text>

      <!-- message-service.ts -->
      <g transform="translate(0, 40)">
        <rect x="0" y="0" width="260" height="100" rx="8" fill="#334155" stroke="#22c55e" stroke-width="2"/>
        <text x="15" y="22" class="code-sm">message-service.ts</text>
        <text x="15" y="45" class="text-sm">encrypt()</text>
        <text x="15" y="60" class="text-sm">decrypt()</text>
        <text x="15" y="75" class="text-sm">send()</text>
        <text x="130" y="45" class="text-sm">retrieve()</text>
        <text x="130" y="60" class="text-sm">getConversation()</text>
        <text x="130" y="75" class="text-sm">handleError()</text>
      </g>

      <!-- key-service.ts -->
      <g transform="translate(0, 155)">
        <rect x="0" y="0" width="260" height="100" rx="8" fill="#334155" stroke="#22c55e" stroke-width="2"/>
        <text x="15" y="22" class="code-sm">key-service.ts</text>
        <text x="15" y="45" class="text-sm">generateKeyPair()</text>
        <text x="15" y="60" class="text-sm">exportPublicKey()</text>
        <text x="15" y="75" class="text-sm">storePrivateKey()</text>
        <text x="145" y="45" class="text-sm">deriveKey()</text>
        <text x="145" y="60" class="text-sm">validateKey()</text>
        <text x="145" y="75" class="text-sm">cleanup()</text>
      </g>

      <!-- group-key-service.ts -->
      <g transform="translate(0, 270)">
        <rect x="0" y="0" width="260" height="100" rx="8" fill="#334155" stroke="#22c55e" stroke-width="2"/>
        <text x="15" y="22" class="code-sm">group-key-service.ts</text>
        <text x="15" y="45" class="text-sm">generateGroupKey()</text>
        <text x="15" y="60" class="text-sm">distributeKey()</text>
        <text x="15" y="75" class="text-sm">rotateKey()</text>
        <text x="145" y="45" class="text-sm">addMember()</text>
        <text x="145" y="60" class="text-sm">removeMember()</text>
        <text x="145" y="75" class="text-sm">getHistoricalKey()</text>
      </g>

      <!-- audit-logger.ts -->
      <g transform="translate(0, 385)">
        <rect x="0" y="0" width="260" height="100" rx="8" fill="#334155" stroke="#22c55e" stroke-width="2"/>
        <text x="15" y="22" class="code-sm">audit-logger.ts</text>
        <text x="15" y="45" class="text-sm">logEvent()</text>
        <text x="15" y="60" class="text-sm">filterEvents()</text>
        <text x="15" y="75" class="text-sm">redactPII()</text>
        <text x="145" y="45" class="text-sm">getTimestamp()</text>
        <text x="145" y="60" class="text-sm">queryLogs()</text>
        <text x="145" y="75" class="text-sm">setRetention()</text>
      </g>
    </g>

    <!-- Right Column: Test Infrastructure -->
    <g transform="translate(770, 50)">
      <text x="290" y="20" text-anchor="middle" class="heading-lg">Test Infrastructure</text>

      <!-- Security Requirements Box -->
      <g transform="translate(0, 40)">
        <rect x="0" y="0" width="280" height="140" rx="8" fill="#1e293b" stroke="#ef4444" stroke-width="2"/>
        <rect x="0" y="0" width="280" height="28" rx="8" fill="#334155"/>
        <rect x="0" y="20" width="280" height="8" fill="#334155"/>
        <text x="15" y="18" class="heading-sm">Security Requirements</text>

        <text x="15" y="50" class="text-md">FR-023: Deterministic test vectors</text>
        <text x="15" y="68" class="text-md">FR-024: No key logging</text>
        <text x="15" y="86" class="text-md">FR-025: Key material zeroed</text>
        <text x="15" y="104" class="text-md">FR-026: Mock external deps</text>
        <text x="15" y="122" class="text-md">NFR-007: No PII in output</text>
      </g>

      <!-- Coverage Targets -->
      <g transform="translate(0, 195)">
        <rect x="0" y="0" width="280" height="100" rx="8" fill="#1e293b" stroke="#22c55e" stroke-width="2"/>
        <rect x="0" y="0" width="280" height="28" rx="8" fill="#334155"/>
        <rect x="0" y="20" width="280" height="8" fill="#334155"/>
        <text x="15" y="18" class="heading-sm">Coverage Targets</text>

        <text x="15" y="50" class="text-md">NFR-001: 100% line coverage</text>
        <text x="15" y="68" class="text-md">NFR-002: All public funcs tested</text>
        <text x="15" y="86" class="text-md">NFR-003: All error paths covered</text>
      </g>

      <!-- Performance Requirements -->
      <g transform="translate(0, 310)">
        <rect x="0" y="0" width="280" height="100" rx="8" fill="#1e293b" stroke="#eab308" stroke-width="2"/>
        <rect x="0" y="0" width="280" height="28" rx="8" fill="#334155"/>
        <rect x="0" y="20" width="280" height="8" fill="#334155"/>
        <text x="15" y="18" class="heading-sm">Performance</text>

        <text x="15" y="50" class="text-md">NFR-004: Suite &lt; 10 seconds</text>
        <text x="15" y="68" class="text-md">NFR-005: Each test &lt; 500ms</text>
        <text x="15" y="86" class="text-md">NFR-006: No network/DB calls</text>
      </g>

      <!-- Test Fixtures -->
      <g transform="translate(0, 425)">
        <rect x="0" y="0" width="280" height="120" rx="8" fill="#1e293b" stroke="#8b5cf6" stroke-width="2"/>
        <rect x="0" y="0" width="280" height="28" rx="8" fill="#334155"/>
        <rect x="0" y="20" width="280" height="8" fill="#334155"/>
        <text x="15" y="18" class="heading-sm">Test Fixtures</text>

        <text x="15" y="50" class="code-sm">test-vectors.ts</text>
        <text x="15" y="68" class="code-sm">mock-messages.ts</text>
        <text x="15" y="86" class="code-sm">mock-users.ts</text>
        <text x="15" y="104" class="code-sm">audit-samples.ts</text>
      </g>
    </g>

    <!-- Right Edge: Dependencies -->
    <g transform="translate(1080, 50)">
      <text x="150" y="20" text-anchor="middle" class="heading-lg">Dependencies</text>

      <!-- 009-User Messaging -->
      <g transform="translate(0, 40)">
        <rect x="0" y="0" width="280" height="60" rx="8" fill="#334155" stroke="#8b5cf6" stroke-width="1"/>
        <text x="15" y="22" class="code">009-user-messaging-system</text>
        <text x="15" y="42" class="text-muted">Services being tested</text>
      </g>

      <!-- 007-E2E Testing -->
      <g transform="translate(0, 115)">
        <rect x="0" y="0" width="280" height="60" rx="8" fill="#334155" stroke="#8b5cf6" stroke-width="1"/>
        <text x="15" y="22" class="code">007-e2e-testing-framework</text>
        <text x="15" y="42" class="text-muted">Test runner and utilities</text>
      </g>

      <!-- Success Criteria -->
      <g transform="translate(0, 200)">
        <rect x="0" y="0" width="280" height="160" rx="8" fill="#1e293b" stroke="#22c55e" stroke-width="2"/>
        <rect x="0" y="0" width="280" height="28" rx="8" fill="#334155"/>
        <rect x="0" y="20" width="280" height="8" fill="#334155"/>
        <text x="15" y="18" class="success">Success Criteria</text>

        <text x="15" y="50" class="text-sm">SC-001: 100% coverage all services</text>
        <text x="15" y="68" class="text-sm">SC-002: Deterministic test vectors</text>
        <text x="15" y="86" class="text-sm">SC-003: Zero sensitive data leaks</text>
        <text x="15" y="104" class="text-sm">SC-004: Suite &lt; 10s runtime</text>
        <text x="15" y="122" class="text-sm">SC-006: Reproducible results</text>
        <text x="15" y="140" class="text-sm">SC-007: CI pipeline green</text>
      </g>
    </g>

    <!-- Legend -->
    <g transform="translate(40, 640)">
      <rect x="0" y="0" width="400" height="80" rx="8" fill="#1e293b" stroke="#475569" stroke-width="1"/>
      <text x="15" y="22" class="heading-sm">Legend</text>

      <rect x="15" y="35" width="12" height="12" rx="2" fill="none" stroke="#8b5cf6" stroke-width="2"/>
      <text x="35" y="45" class="text-sm">P1 Priority (Core)</text>

      <rect x="130" y="35" width="12" height="12" rx="2" fill="none" stroke="#d946ef" stroke-width="2"/>
      <text x="150" y="45" class="text-sm">P2 Priority (Important)</text>

      <rect x="270" y="35" width="12" height="12" rx="2" fill="none" stroke="#22c55e" stroke-width="2"/>
      <text x="290" y="45" class="text-sm">Service Under Test</text>

      <rect x="15" y="55" width="12" height="12" rx="2" fill="none" stroke="#ef4444" stroke-width="2"/>
      <text x="35" y="65" class="text-sm">Security Critical</text>

      <rect x="130" y="55" width="12" height="12" rx="2" fill="none" stroke="#eab308" stroke-width="2"/>
      <text x="150" y="65" class="text-sm">Performance Target</text>
    </g>

    <!-- Out of Scope -->
    <g transform="translate(470, 540)">
      <rect x="0" y="0" width="260" height="100" rx="8" fill="#1e293b" stroke="#475569" stroke-width="1" stroke-dasharray="4,4"/>
      <text x="15" y="22" class="text-muted">OUT OF SCOPE</text>
      <text x="15" y="42" class="text-sm">Integration tests with Supabase</text>
      <text x="15" y="57" class="text-sm">Load/stress testing</text>
      <text x="15" y="72" class="text-sm">Penetration testing</text>
      <text x="15" y="87" class="text-sm">E2E messaging workflows</text>
    </g>

  </g>
</svg>