<svg xmlns="http://www.w3.org/2000/svg" viewBox="0 0 1400 800" width="1400" height="800">
  <!-- ============================================================
       GENERATED BY: /wireframe skill
       SOURCE: features/enhancements/019-google-analytics/spec.md
       DATE: 2026-01-01
       THEME: Dark (Backend/Architecture)
       DO NOT MANUALLY EDIT - Regenerate with /wireframe command
       ============================================================ -->
  <defs>
    <linearGradient id="bgGrad" x1="0%" y1="0%" x2="100%" y2="100%">
      <stop offset="0%" style="stop-color:#0f172a"/>
      <stop offset="100%" style="stop-color:#1e293b"/>
    </linearGradient>
    <linearGradient id="accentGrad" x1="0%" y1="0%" x2="100%" y2="0%">
      <stop offset="0%" style="stop-color:#8b5cf6"/>
      <stop offset="100%" style="stop-color:#d946ef"/>
    </linearGradient>
    <linearGradient id="consentGrad" x1="0%" y1="0%" x2="0%" y2="100%">
      <stop offset="0%" style="stop-color:#22c55e"/>
      <stop offset="100%" style="stop-color:#16a34a"/>
    </linearGradient>
    <linearGradient id="deniedGrad" x1="0%" y1="0%" x2="0%" y2="100%">
      <stop offset="0%" style="stop-color:#ef4444"/>
      <stop offset="100%" style="stop-color:#dc2626"/>
    </linearGradient>
    <linearGradient id="analyticsGrad" x1="0%" y1="0%" x2="0%" y2="100%">
      <stop offset="0%" style="stop-color:#3b82f6"/>
      <stop offset="100%" style="stop-color:#2563eb"/>
    </linearGradient>
    <style>
      .heading-lg { fill: #ffffff; font-family: system-ui, sans-serif; font-size: 20px; font-weight: bold; }
      .heading { fill: #ffffff; font-family: system-ui, sans-serif; font-size: 14px; font-weight: bold; }
      .text-md { fill: #cbd5e1; font-family: system-ui, sans-serif; font-size: 12px; }
      .text-sm { fill: #94a3b8; font-family: system-ui, sans-serif; font-size: 10px; }
      .text-muted { fill: #8494a8; font-family: system-ui, sans-serif; font-size: 10px; }
      .annotation { fill: #6d28d9; font-family: monospace; font-size: 10px; }
      .code { fill: #fbbf24; font-family: monospace; font-size: 10px; }
      .label { fill: #94a3b8; font-family: monospace; font-size: 9px; text-transform: uppercase; letter-spacing: 1px; }
    </style>
    <marker id="arrowhead" markerWidth="10" markerHeight="7" refX="9" refY="3.5" orient="auto">
      <polygon points="0 0, 10 3.5, 0 7" fill="#8b5cf6"/>
    </marker>
    <marker id="arrowheadGreen" markerWidth="10" markerHeight="7" refX="9" refY="3.5" orient="auto">
      <polygon points="0 0, 10 3.5, 0 7" fill="#22c55e"/>
    </marker>
    <marker id="arrowheadRed" markerWidth="10" markerHeight="7" refX="9" refY="3.5" orient="auto">
      <polygon points="0 0, 10 3.5, 0 7" fill="#ef4444"/>
    </marker>
  </defs>

  <!-- Background -->
  <rect width="1400" height="800" fill="url(#bgGrad)"/>

  <!-- Dot grid pattern -->
  <g opacity="0.05">
    <pattern id="dots" width="30" height="30" patternUnits="userSpaceOnUse">
      <circle cx="15" cy="15" r="1" fill="#fff"/>
    </pattern>
    <rect width="1400" height="800" fill="url(#dots)"/>
  </g>

  <!-- Accent line top -->
  <rect x="0" y="0" width="1400" height="3" fill="url(#accentGrad)"/>

  <!-- Title -->
  <text x="700" y="28" text-anchor="middle" font-family="system-ui, sans-serif" font-size="14" font-weight="600" fill="#8494a8" letter-spacing="1">019 - GOOGLE ANALYTICS 4 - CONSENT-GATED ARCHITECTURE</text>

  <!-- Left Column: User Layer -->
  <g id="user-layer">
    <text x="120" y="70" class="label">USER LAYER</text>

    <!-- User Browser -->
    <rect x="40" y="90" width="200" height="120" rx="8" fill="#1e293b" stroke="#475569" stroke-width="1"/>
    <text x="140" y="115" text-anchor="middle" class="heading">User Browser</text>
    <rect x="55" y="130" width="170" height="30" rx="4" fill="#334155"/>
    <text x="140" y="150" text-anchor="middle" class="text-md">Page Load Event</text>
    <rect x="55" y="165" width="170" height="30" rx="4" fill="#334155"/>
    <text x="140" y="185" text-anchor="middle" class="text-md">User Interactions</text>

    <!-- Cookie Consent Banner -->
    <rect x="40" y="240" width="200" height="140" rx="8" fill="#1e293b" stroke="#8b5cf6" stroke-width="2"/>
    <text x="140" y="265" text-anchor="middle" class="heading">Cookie Consent</text>
    <text x="140" y="285" text-anchor="middle" class="text-sm">(Feature 002)</text>
    <rect x="55" y="300" width="75" height="28" rx="4" fill="url(#consentGrad)"/>
    <text x="92" y="318" text-anchor="middle" class="text-sm" fill="#fff">Accept</text>
    <rect x="140" y="300" width="85" height="28" rx="4" fill="url(#deniedGrad)"/>
    <text x="182" y="318" text-anchor="middle" class="text-sm" fill="#fff">Decline</text>
    <rect x="55" y="340" width="170" height="25" rx="4" fill="#334155"/>
    <text x="140" y="357" text-anchor="middle" class="text-sm">analytics_consent: true/false</text>
  </g>

  <!-- Center Column: Application Layer -->
  <g id="app-layer">
    <text x="520" y="70" class="label">APPLICATION LAYER</text>

    <!-- Consent Check -->
    <polygon points="520,120 590,170 520,220 450,170" fill="#1e293b" stroke="#8b5cf6" stroke-width="2"/>
    <text x="520" y="165" text-anchor="middle" class="heading">Consent</text>
    <text x="520" y="180" text-anchor="middle" class="heading">Check</text>

    <!-- Consent Granted Path -->
    <rect x="420" y="260" width="200" height="80" rx="8" fill="#1e293b" stroke="#22c55e" stroke-width="2"/>
    <text x="520" y="290" text-anchor="middle" class="heading" fill="#22c55e">Load GA4 Script</text>
    <text x="520" y="310" text-anchor="middle" class="code">gtag.js async</text>
    <text x="520" y="325" text-anchor="middle" class="text-muted">FR-001, FR-019</text>

    <!-- Privacy Mode Path -->
    <rect x="680" y="110" width="180" height="80" rx="8" fill="#1e293b" stroke="#ef4444" stroke-width="2"/>
    <text x="770" y="140" text-anchor="middle" class="heading" fill="#ef4444">Privacy Mode</text>
    <text x="770" y="160" text-anchor="middle" class="text-md">Zero Tracking</text>
    <text x="770" y="175" text-anchor="middle" class="text-muted">FR-004</text>

    <!-- Analytics Provider -->
    <rect x="420" y="370" width="200" height="100" rx="8" fill="#1e293b" stroke="#475569" stroke-width="1"/>
    <text x="520" y="400" text-anchor="middle" class="heading">Analytics Provider</text>
    <rect x="435" y="415" width="170" height="20" rx="4" fill="#334155"/>
    <text x="520" y="430" text-anchor="middle" class="code">useAnalytics()</text>
    <rect x="435" y="440" width="170" height="20" rx="4" fill="#334155"/>
    <text x="520" y="455" text-anchor="middle" class="text-sm">Context + Hooks</text>

    <!-- Event Queue -->
    <rect x="420" y="500" width="200" height="90" rx="8" fill="#1e293b" stroke="#475569" stroke-width="1"/>
    <text x="520" y="525" text-anchor="middle" class="heading">Event Queue</text>
    <text x="520" y="545" text-anchor="middle" class="text-md">Graceful Degradation</text>
    <text x="520" y="565" text-anchor="middle" class="text-sm">Silent fail if blocked</text>
    <text x="520" y="580" text-anchor="middle" class="text-muted">FR-017, FR-018</text>

    <!-- Ad Blocker Detection -->
    <rect x="680" y="500" width="180" height="70" rx="8" fill="#1e293b" stroke="#eab308" stroke-width="1" stroke-dasharray="4,2"/>
    <text x="770" y="525" text-anchor="middle" class="heading" fill="#eab308">Ad Blocker</text>
    <text x="770" y="545" text-anchor="middle" class="text-md">No errors thrown</text>
    <text x="770" y="560" text-anchor="middle" class="text-muted">Site functions normally</text>
  </g>

  <!-- Right Column: Analytics Layer -->
  <g id="analytics-layer">
    <text x="1050" y="70" class="label">GOOGLE ANALYTICS 4</text>

    <!-- GA4 Cloud -->
    <rect x="950" y="90" width="220" height="180" rx="12" fill="#1e293b" stroke="url(#analyticsGrad)" stroke-width="2"/>
    <text x="1060" y="120" text-anchor="middle" class="heading" fill="#3b82f6">GA4 Property</text>

    <rect x="965" y="135" width="190" height="25" rx="4" fill="#334155"/>
    <text x="1060" y="152" text-anchor="middle" class="text-md">Measurement ID</text>

    <rect x="965" y="165" width="190" height="25" rx="4" fill="#334155"/>
    <text x="1060" y="182" text-anchor="middle" class="text-md">Real-time Reports</text>

    <rect x="965" y="195" width="190" height="25" rx="4" fill="#334155"/>
    <text x="1060" y="212" text-anchor="middle" class="text-md">Custom Events</text>

    <rect x="965" y="225" width="190" height="25" rx="4" fill="#334155"/>
    <text x="1060" y="242" text-anchor="middle" class="text-md">Web Vitals Data</text>

    <!-- Data Retention -->
    <rect x="950" y="300" width="220" height="60" rx="8" fill="#1e293b" stroke="#475569" stroke-width="1"/>
    <text x="1060" y="325" text-anchor="middle" class="heading">Data Retention</text>
    <text x="1060" y="345" text-anchor="middle" class="text-muted">Compliant with privacy regs</text>
  </g>

  <!-- Session Storage -->
  <g id="storage">
    <text x="120" y="430" class="label">PERSISTENT STORAGE</text>

    <rect x="40" y="450" width="200" height="100" rx="8" fill="#1e293b" stroke="#475569" stroke-width="1"/>
    <text x="140" y="475" text-anchor="middle" class="heading">Consent Cookie</text>
    <rect x="55" y="490" width="170" height="20" rx="4" fill="#334155"/>
    <text x="140" y="505" text-anchor="middle" class="code">sh_consent</text>
    <rect x="55" y="515" width="170" height="20" rx="4" fill="#334155"/>
    <text x="140" y="530" text-anchor="middle" class="text-sm">Device-specific state</text>
  </g>

  <!-- Flow Arrows -->
  <g id="arrows">
    <!-- User to Consent -->
    <line x1="140" y1="210" x2="140" y2="235" stroke="#8b5cf6" stroke-width="2" marker-end="url(#arrowhead)"/>

    <!-- Consent to Check -->
    <line x1="240" y1="310" x2="450" y2="170" stroke="#8b5cf6" stroke-width="2" marker-end="url(#arrowhead)"/>

    <!-- Check to Load (granted) -->
    <line x1="520" y1="220" x2="520" y2="255" stroke="#22c55e" stroke-width="2" marker-end="url(#arrowheadGreen)"/>
    <text x="540" y="240" class="text-sm" fill="#22c55e">granted</text>

    <!-- Check to Privacy (denied) -->
    <line x1="590" y1="150" x2="675" y2="150" stroke="#ef4444" stroke-width="2" marker-end="url(#arrowheadRed)"/>
    <text x="630" y="140" class="text-sm" fill="#ef4444">denied</text>

    <!-- Load to Provider -->
    <line x1="520" y1="340" x2="520" y2="365" stroke="#8b5cf6" stroke-width="2" marker-end="url(#arrowhead)"/>

    <!-- Provider to Queue -->
    <line x1="520" y1="470" x2="520" y2="495" stroke="#8b5cf6" stroke-width="2" marker-end="url(#arrowhead)"/>

    <!-- Queue to GA4 -->
    <path d="M620,545 Q850,545 950,200" fill="none" stroke="#3b82f6" stroke-width="2" marker-end="url(#arrowhead)"/>

    <!-- Consent to Storage -->
    <line x1="140" y1="380" x2="140" y2="445" stroke="#8b5cf6" stroke-width="2" marker-end="url(#arrowhead)"/>

    <!-- Ad Blocker to Queue -->
    <line x1="680" y1="535" x2="625" y2="535" stroke="#eab308" stroke-width="1" stroke-dasharray="4,2"/>
    <text x="650" y="525" class="text-sm" fill="#eab308">blocks</text>
  </g>

  <!-- Legend -->
  <g id="legend" transform="translate(950, 400)">
    <rect x="0" y="0" width="220" height="160" rx="8" fill="#1e293b" stroke="#475569" stroke-width="1"/>
    <text x="110" y="25" text-anchor="middle" class="heading">Legend</text>

    <line x1="20" y1="45" x2="50" y2="45" stroke="#22c55e" stroke-width="2"/>
    <text x="60" y="50" class="text-sm">Consent Granted Flow</text>

    <line x1="20" y1="70" x2="50" y2="70" stroke="#ef4444" stroke-width="2"/>
    <text x="60" y="75" class="text-sm">Consent Denied Flow</text>

    <line x1="20" y1="95" x2="50" y2="95" stroke="#8b5cf6" stroke-width="2"/>
    <text x="60" y="100" class="text-sm">Data Flow</text>

    <line x1="20" y1="120" x2="50" y2="120" stroke="#eab308" stroke-width="1" stroke-dasharray="4,2"/>
    <text x="60" y="125" class="text-sm">Blocked/Optional</text>

    <rect x="20" y="135" width="15" height="15" rx="2" fill="#1e293b" stroke="#8b5cf6" stroke-width="2"/>
    <text x="45" y="147" class="text-sm">Integration Point</text>
  </g>

  <!-- Key Requirements callout -->
  <g id="requirements" transform="translate(950, 580)">
    <rect x="0" y="0" width="220" height="100" rx="8" fill="#1e293b" stroke="#8b5cf6" stroke-width="1"/>
    <text x="110" y="25" text-anchor="middle" class="annotation">KEY REQUIREMENTS</text>
    <text x="15" y="45" class="text-sm">FR-001: No scripts before consent</text>
    <text x="15" y="60" class="text-sm">FR-004: Privacy mode on denial</text>
    <text x="15" y="75" class="text-sm">FR-017: Silent fail on block</text>
    <text x="15" y="90" class="text-sm">FR-019: Async loading</text>
  </g>

  <!-- Dependencies callout -->
  <g id="dependencies" transform="translate(40, 580)">
    <rect x="0" y="0" width="200" height="80" rx="8" fill="#1e293b" stroke="#d946ef" stroke-width="1"/>
    <text x="100" y="25" text-anchor="middle" class="annotation" fill="#d946ef">DEPENDENCIES</text>
    <text x="15" y="45" class="text-sm">Feature 002: Cookie Consent</text>
    <text x="15" y="60" class="text-sm">Feature 017: PWA (install events)</text>
  </g>
</svg>
