<svg xmlns="http://www.w3.org/2000/svg" viewBox="0 0 1400 800" width="1400" height="800">
  <!-- ============================================================
       GENERATED BY: /wireframe skill
       SOURCE: features/enhancements/019-google-analytics/spec.md
       DATE: 2025-12-31
       DO NOT MANUALLY EDIT - Regenerate with /wireframe command
       ============================================================ -->
  <defs>
    <linearGradient id="bgGrad" x1="0%" y1="0%" x2="100%" y2="100%">
      <stop offset="0%" style="stop-color:#0f172a"/>
      <stop offset="100%" style="stop-color:#1e293b"/>
    </linearGradient>
    <linearGradient id="accentGrad" x1="0%" y1="0%" x2="100%" y2="0%">
      <stop offset="0%" style="stop-color:#8b5cf6"/>
      <stop offset="100%" style="stop-color:#d946ef"/>
    </linearGradient>
    <linearGradient id="consentGrad" x1="0%" y1="0%" x2="0%" y2="100%">
      <stop offset="0%" style="stop-color:#22c55e"/>
      <stop offset="100%" style="stop-color:#16a34a"/>
    </linearGradient>
    <linearGradient id="deniedGrad" x1="0%" y1="0%" x2="0%" y2="100%">
      <stop offset="0%" style="stop-color:#ef4444"/>
      <stop offset="100%" style="stop-color:#dc2626"/>
    </linearGradient>
    <linearGradient id="gaGrad" x1="0%" y1="0%" x2="0%" y2="100%">
      <stop offset="0%" style="stop-color:#f59e0b"/>
      <stop offset="100%" style="stop-color:#d97706"/>
    </linearGradient>
    <style>
      .heading-lg { fill: #ffffff; font-family: system-ui, sans-serif; font-size: 20px; font-weight: bold; }
      .heading { fill: #ffffff; font-family: system-ui, sans-serif; font-size: 14px; font-weight: bold; }
      .text-md { fill: #cbd5e1; font-family: system-ui, sans-serif; font-size: 12px; }
      .text-sm { fill: #94a3b8; font-family: system-ui, sans-serif; font-size: 10px; }
      .text-muted { fill: #64748b; font-family: system-ui, sans-serif; font-size: 10px; }
      .annotation { fill: #8b5cf6; font-family: monospace; font-size: 10px; }
      .label-section { fill: #8b5cf6; font-family: monospace; font-size: 11px; font-weight: bold; }
    </style>
    <marker id="arrowhead" markerWidth="10" markerHeight="7" refX="9" refY="3.5" orient="auto">
      <polygon points="0 0, 10 3.5, 0 7" fill="#8b5cf6"/>
    </marker>
    <marker id="arrowheadGreen" markerWidth="10" markerHeight="7" refX="9" refY="3.5" orient="auto">
      <polygon points="0 0, 10 3.5, 0 7" fill="#22c55e"/>
    </marker>
    <marker id="arrowheadRed" markerWidth="10" markerHeight="7" refX="9" refY="3.5" orient="auto">
      <polygon points="0 0, 10 3.5, 0 7" fill="#ef4444"/>
    </marker>
  </defs>

  <!-- Background -->
  <rect width="1400" height="800" fill="url(#bgGrad)"/>

  <!-- Dot grid pattern -->
  <g opacity="0.05">
    <pattern id="dots" width="30" height="30" patternUnits="userSpaceOnUse">
      <circle cx="15" cy="15" r="1" fill="#fff"/>
    </pattern>
    <rect width="1400" height="800" fill="url(#dots)"/>
  </g>

  <!-- Accent line top -->
  <rect x="0" y="0" width="1400" height="3" fill="url(#accentGrad)"/>

  <!-- Title -->
  <text x="700" y="32" text-anchor="middle" font-family="system-ui, sans-serif" font-size="16" font-weight="600" fill="#64748b" letter-spacing="1">CONSENT-GATED ANALYTICS FLOW</text>

  <!-- Section Label: User Entry -->
  <text x="60" y="70" class="label-section">USER ENTRY</text>

  <!-- User icon -->
  <g transform="translate(110, 130)">
    <circle cx="0" cy="-15" r="20" fill="#334155"/>
    <circle cx="0" cy="-20" r="12" fill="#64748b"/>
    <ellipse cx="0" cy="10" rx="20" ry="12" fill="#64748b"/>
    <text x="0" y="45" text-anchor="middle" class="heading">User</text>
    <text x="0" y="60" text-anchor="middle" class="text-sm">Visits Page</text>
  </g>

  <!-- Arrow: User to Page Load -->
  <line x1="150" y1="140" x2="210" y2="140" stroke="#8b5cf6" stroke-width="2" marker-end="url(#arrowhead)"/>

  <!-- Page Load box -->
  <g transform="translate(220, 100)">
    <rect x="0" y="0" width="140" height="80" rx="8" fill="#1e293b" stroke="#475569" stroke-width="1"/>
    <text x="70" y="35" text-anchor="middle" class="heading">Page Load</text>
    <text x="70" y="55" text-anchor="middle" class="text-sm">Check consent</text>
    <text x="70" y="70" text-anchor="middle" class="text-sm">state</text>
  </g>

  <!-- Section Label: Consent Check -->
  <text x="420" y="70" class="label-section">CONSENT CHECK</text>

  <!-- Arrow: Page Load to Consent Decision -->
  <line x1="360" y1="140" x2="420" y2="140" stroke="#8b5cf6" stroke-width="2" marker-end="url(#arrowhead)"/>

  <!-- Consent Decision Diamond -->
  <g transform="translate(500, 140)">
    <polygon points="0,-50 70,0 0,50 -70,0" fill="#1e293b" stroke="#f59e0b" stroke-width="2"/>
    <text x="0" y="-5" text-anchor="middle" class="heading">Consent</text>
    <text x="0" y="12" text-anchor="middle" class="heading">Granted?</text>
  </g>

  <!-- Feature 002 Integration -->
  <g transform="translate(500, 250)">
    <rect x="-60" y="0" width="120" height="50" rx="6" fill="#334155" stroke="#8b5cf6" stroke-width="1" stroke-dasharray="4,2"/>
    <text x="0" y="22" text-anchor="middle" class="text-sm">Feature 002</text>
    <text x="0" y="38" text-anchor="middle" class="annotation">Cookie Consent</text>
  </g>
  <line x1="500" y1="190" x2="500" y2="250" stroke="#8b5cf6" stroke-width="1" stroke-dasharray="4,2"/>

  <!-- YES Path - Consent Granted -->
  <text x="590" y="100" fill="#22c55e" font-family="system-ui, sans-serif" font-size="12" font-weight="bold">YES</text>
  <path d="M 570 140 Q 620 140 620 180 L 620 280" stroke="#22c55e" stroke-width="2" fill="none" marker-end="url(#arrowheadGreen)"/>

  <!-- NO Path - Consent Denied -->
  <text x="395" y="100" fill="#ef4444" font-family="system-ui, sans-serif" font-size="12" font-weight="bold">NO</text>
  <path d="M 430 140 Q 380 140 380 180 L 380 280" stroke="#ef4444" stroke-width="2" fill="none" marker-end="url(#arrowheadRed)"/>

  <!-- Section Label: Consent Paths -->
  <text x="320" y="320" class="label-section">PRIVACY MODE</text>
  <text x="580" y="320" class="label-section">ANALYTICS MODE</text>

  <!-- Privacy Mode Box (NO path) -->
  <g transform="translate(320, 340)">
    <rect x="0" y="0" width="160" height="100" rx="8" fill="#1e293b" stroke="#ef4444" stroke-width="2"/>
    <rect x="0" y="0" width="160" height="28" rx="8" fill="url(#deniedGrad)"/>
    <rect x="0" y="20" width="160" height="8" fill="url(#deniedGrad)"/>
    <text x="80" y="19" text-anchor="middle" font-family="system-ui, sans-serif" font-size="11" font-weight="bold" fill="#fff">PRIVACY MODE</text>
    <text x="80" y="55" text-anchor="middle" class="text-md">Zero Tracking</text>
    <text x="80" y="72" text-anchor="middle" class="text-sm">No scripts loaded</text>
    <text x="80" y="87" text-anchor="middle" class="text-sm">Full functionality</text>
  </g>

  <!-- FR-004 Annotation -->
  <g transform="translate(260, 360)">
    <rect x="0" y="0" width="50" height="30" rx="4" fill="#1e293b" stroke="#8b5cf6" stroke-width="1"/>
    <text x="25" y="19" text-anchor="middle" class="annotation">FR-004</text>
  </g>

  <!-- GA4 Initialization Box (YES path) -->
  <g transform="translate(540, 340)">
    <rect x="0" y="0" width="180" height="100" rx="8" fill="#1e293b" stroke="#22c55e" stroke-width="2"/>
    <rect x="0" y="0" width="180" height="28" rx="8" fill="url(#consentGrad)"/>
    <rect x="0" y="20" width="180" height="8" fill="url(#consentGrad)"/>
    <text x="90" y="19" text-anchor="middle" font-family="system-ui, sans-serif" font-size="11" font-weight="bold" fill="#fff">GA4 INITIALIZATION</text>
    <text x="90" y="55" text-anchor="middle" class="text-md">Load gtag.js async</text>
    <text x="90" y="72" text-anchor="middle" class="text-sm">Initialize dataLayer</text>
    <text x="90" y="87" text-anchor="middle" class="text-sm">Configure tracking ID</text>
  </g>

  <!-- FR-001 Annotation -->
  <g transform="translate(730, 360)">
    <rect x="0" y="0" width="50" height="30" rx="4" fill="#1e293b" stroke="#8b5cf6" stroke-width="1"/>
    <text x="25" y="19" text-anchor="middle" class="annotation">FR-001</text>
  </g>

  <!-- Arrow: GA4 Init to Event Pipeline -->
  <line x1="630" y1="440" x2="630" y2="480" stroke="#22c55e" stroke-width="2" marker-end="url(#arrowheadGreen)"/>

  <!-- Section Label: Event Pipeline -->
  <text x="540" y="510" class="label-section">EVENT PIPELINE</text>

  <!-- Event Tracking Pipeline -->
  <g transform="translate(540, 530)">
    <rect x="0" y="0" width="180" height="120" rx="8" fill="#1e293b" stroke="#f59e0b" stroke-width="2"/>
    <rect x="0" y="0" width="180" height="28" rx="8" fill="url(#gaGrad)"/>
    <rect x="0" y="20" width="180" height="8" fill="url(#gaGrad)"/>
    <text x="90" y="19" text-anchor="middle" font-family="system-ui, sans-serif" font-size="11" font-weight="bold" fill="#fff">EVENT TRACKING</text>
    <!-- Event types list -->
    <text x="20" y="50" class="text-sm">Page Views (FR-005)</text>
    <text x="20" y="67" class="text-sm">Custom Events (FR-012-16)</text>
    <text x="20" y="84" class="text-sm">Web Vitals (FR-009)</text>
    <text x="20" y="101" class="text-sm">Error Events (FR-016)</text>
  </g>

  <!-- Arrow: Event Pipeline to GA4 -->
  <line x1="720" y1="590" x2="830" y2="590" stroke="#f59e0b" stroke-width="2" marker-end="url(#arrowhead)"/>

  <!-- GA4 Cloud -->
  <g transform="translate(900, 540)">
    <ellipse cx="60" cy="50" rx="70" ry="50" fill="#1e293b" stroke="#f59e0b" stroke-width="2"/>
    <text x="60" y="45" text-anchor="middle" font-family="system-ui, sans-serif" font-size="14" font-weight="bold" fill="#f59e0b">GA4</text>
    <text x="60" y="62" text-anchor="middle" class="text-sm">Google Analytics</text>
  </g>

  <!-- Consent State Persistence -->
  <text x="60" y="510" class="label-section">PERSISTENCE</text>
  <g transform="translate(60, 530)">
    <rect x="0" y="0" width="180" height="90" rx="8" fill="#1e293b" stroke="#475569" stroke-width="1"/>
    <text x="90" y="25" text-anchor="middle" class="heading">Consent State</text>
    <text x="20" y="48" class="text-sm">localStorage</text>
    <text x="20" y="65" class="text-sm">Cookie: analytics_consent</text>
    <text x="20" y="82" class="text-sm">Persists across sessions</text>
  </g>

  <!-- FR-003 Annotation -->
  <g transform="translate(250, 550)">
    <rect x="0" y="0" width="50" height="30" rx="4" fill="#1e293b" stroke="#8b5cf6" stroke-width="1"/>
    <text x="25" y="19" text-anchor="middle" class="annotation">FR-003</text>
  </g>

  <!-- Arrow: Persistence to Consent Check -->
  <path d="M 150 530 L 150 250 Q 150 200 200 200 L 420 160" stroke="#64748b" stroke-width="1" stroke-dasharray="4,2" marker-end="url(#arrowhead)"/>
  <text x="180" y="230" class="text-muted">Restore state</text>

  <!-- Consent Withdrawal Flow -->
  <text x="1020" y="320" class="label-section">CONSENT WITHDRAWAL</text>
  <g transform="translate(1020, 340)">
    <rect x="0" y="0" width="160" height="100" rx="8" fill="#1e293b" stroke="#ef4444" stroke-width="1"/>
    <text x="80" y="30" text-anchor="middle" class="heading">User Withdraws</text>
    <text x="80" y="50" text-anchor="middle" class="text-sm">Clear consent state</text>
    <text x="80" y="67" text-anchor="middle" class="text-sm">Stop tracking</text>
    <text x="80" y="84" text-anchor="middle" class="text-sm">Next load: Privacy mode</text>
  </g>

  <!-- FR-002 Annotation -->
  <g transform="translate(1190, 360)">
    <rect x="0" y="0" width="50" height="30" rx="4" fill="#1e293b" stroke="#8b5cf6" stroke-width="1"/>
    <text x="25" y="19" text-anchor="middle" class="annotation">FR-002</text>
  </g>

  <!-- Arrow: GA4 to Withdrawal -->
  <path d="M 960 560 Q 1050 560 1050 500 L 1050 440" stroke="#ef4444" stroke-width="1" stroke-dasharray="4,2" marker-end="url(#arrowheadRed)"/>
  <text x="1050" y="480" text-anchor="middle" class="text-muted">User action</text>

  <!-- Legend -->
  <g transform="translate(1150, 680)">
    <rect x="0" y="0" width="200" height="100" rx="6" fill="#1e293b" stroke="#475569" stroke-width="1"/>
    <text x="100" y="20" text-anchor="middle" class="heading">Legend</text>
    <line x1="15" y1="40" x2="45" y2="40" stroke="#22c55e" stroke-width="2"/>
    <text x="55" y="44" class="text-sm">Consent Granted</text>
    <line x1="15" y1="60" x2="45" y2="60" stroke="#ef4444" stroke-width="2"/>
    <text x="55" y="64" class="text-sm">Consent Denied</text>
    <line x1="15" y1="80" x2="45" y2="80" stroke="#64748b" stroke-width="1" stroke-dasharray="4,2"/>
    <text x="55" y="84" class="text-sm">State Restoration</text>
  </g>

  <!-- Key Requirements Summary -->
  <g transform="translate(60, 680)">
    <rect x="0" y="0" width="300" height="100" rx="6" fill="#1e293b" stroke="#8b5cf6" stroke-width="1"/>
    <text x="150" y="20" text-anchor="middle" class="heading">Privacy-First Principles</text>
    <text x="15" y="42" class="text-sm">No scripts before consent (FR-001)</text>
    <text x="15" y="58" class="text-sm">Respects withdrawal (FR-002)</text>
    <text x="15" y="74" class="text-sm">Persists state across sessions (FR-003)</text>
    <text x="15" y="90" class="text-sm">Zero tracking in privacy mode (FR-004)</text>
  </g>
</svg>
