<svg xmlns="http://www.w3.org/2000/svg" viewBox="0 0 1400 800" width="1400" height="800">
  <!-- ============================================================
       GENERATED BY: /wireframe skill
       SOURCE: features/enhancements/019-google-analytics/spec.md
       DATE: 2026-01-01
       THEME: Dark (Backend/Architecture)
       DO NOT MANUALLY EDIT - Regenerate with /wireframe command
       ============================================================ -->
  <defs>
    <linearGradient id="bgGrad" x1="0%" y1="0%" x2="100%" y2="100%">
      <stop offset="0%" style="stop-color:#0f172a"/>
      <stop offset="100%" style="stop-color:#1e293b"/>
    </linearGradient>
    <linearGradient id="accentGrad" x1="0%" y1="0%" x2="100%" y2="0%">
      <stop offset="0%" style="stop-color:#8b5cf6"/>
      <stop offset="100%" style="stop-color:#d946ef"/>
    </linearGradient>
    <linearGradient id="pageViewGrad" x1="0%" y1="0%" x2="0%" y2="100%">
      <stop offset="0%" style="stop-color:#3b82f6"/>
      <stop offset="100%" style="stop-color:#2563eb"/>
    </linearGradient>
    <linearGradient id="vitalsGrad" x1="0%" y1="0%" x2="0%" y2="100%">
      <stop offset="0%" style="stop-color:#22c55e"/>
      <stop offset="100%" style="stop-color:#16a34a"/>
    </linearGradient>
    <linearGradient id="customGrad" x1="0%" y1="0%" x2="0%" y2="100%">
      <stop offset="0%" style="stop-color:#f59e0b"/>
      <stop offset="100%" style="stop-color:#d97706"/>
    </linearGradient>
    <linearGradient id="errorGrad" x1="0%" y1="0%" x2="0%" y2="100%">
      <stop offset="0%" style="stop-color:#ef4444"/>
      <stop offset="100%" style="stop-color:#dc2626"/>
    </linearGradient>
    <style>
      .heading-lg { fill: #ffffff; font-family: system-ui, sans-serif; font-size: 20px; font-weight: bold; }
      .heading { fill: #ffffff; font-family: system-ui, sans-serif; font-size: 14px; font-weight: bold; }
      .text-md { fill: #cbd5e1; font-family: system-ui, sans-serif; font-size: 12px; }
      .text-sm { fill: #94a3b8; font-family: system-ui, sans-serif; font-size: 10px; }
      .text-muted { fill: #8494a8; font-family: system-ui, sans-serif; font-size: 10px; }
      .annotation { fill: #8b5cf6; font-family: monospace; font-size: 10px; }
      .code { fill: #fbbf24; font-family: monospace; font-size: 10px; }
      .label { fill: #94a3b8; font-family: monospace; font-size: 9px; text-transform: uppercase; letter-spacing: 1px; }
    </style>
    <marker id="arrowhead" markerWidth="10" markerHeight="7" refX="9" refY="3.5" orient="auto">
      <polygon points="0 0, 10 3.5, 0 7" fill="#8b5cf6"/>
    </marker>
  </defs>

  <!-- Background -->
  <rect width="1400" height="800" fill="url(#bgGrad)"/>

  <!-- Dot grid pattern -->
  <g opacity="0.05">
    <pattern id="dots" width="30" height="30" patternUnits="userSpaceOnUse">
      <circle cx="15" cy="15" r="1" fill="#fff"/>
    </pattern>
    <rect width="1400" height="800" fill="url(#dots)"/>
  </g>

  <!-- Accent line top -->
  <rect x="0" y="0" width="1400" height="3" fill="url(#accentGrad)"/>

  <!-- Title -->
  <text x="700" y="28" text-anchor="middle" font-family="system-ui, sans-serif" font-size="14" font-weight="600" fill="#8494a8" letter-spacing="1">019 - GOOGLE ANALYTICS 4 - EVENT TRACKING FLOW</text>

  <!-- Event Sources Row -->
  <g id="event-sources">
    <text x="700" y="65" text-anchor="middle" class="label">EVENT SOURCES (USER INTERACTIONS)</text>

    <!-- Page View Events -->
    <g transform="translate(40, 85)">
      <rect x="0" y="0" width="180" height="130" rx="8" fill="#1e293b" stroke="url(#pageViewGrad)" stroke-width="2"/>
      <rect x="0" y="0" width="180" height="30" rx="8" fill="url(#pageViewGrad)"/>
      <rect x="0" y="15" width="180" height="15" fill="url(#pageViewGrad)"/>
      <text x="90" y="20" text-anchor="middle" class="heading" fill="#fff">Page Views</text>
      <text x="90" y="55" text-anchor="middle" class="code">page_view</text>
      <text x="15" y="75" class="text-sm">Initial page load</text>
      <text x="15" y="90" class="text-sm">SPA route changes</text>
      <text x="15" y="105" class="text-sm">Browser back/forward</text>
      <text x="90" y="125" text-anchor="middle" class="text-muted">FR-005, FR-007, FR-008</text>
    </g>

    <!-- Web Vitals Events -->
    <g transform="translate(240, 85)">
      <rect x="0" y="0" width="180" height="130" rx="8" fill="#1e293b" stroke="url(#vitalsGrad)" stroke-width="2"/>
      <rect x="0" y="0" width="180" height="30" rx="8" fill="url(#vitalsGrad)"/>
      <rect x="0" y="15" width="180" height="15" fill="url(#vitalsGrad)"/>
      <text x="90" y="20" text-anchor="middle" class="heading" fill="#fff">Web Vitals</text>
      <text x="90" y="55" text-anchor="middle" class="code">web_vitals</text>
      <text x="15" y="75" class="text-sm">CLS (Layout Shift)</text>
      <text x="15" y="90" class="text-sm">FCP (First Paint)</text>
      <text x="15" y="105" class="text-sm">LCP (Largest Paint)</text>
      <text x="90" y="125" text-anchor="middle" class="text-muted">FR-009, FR-010</text>
    </g>

    <!-- Theme Events -->
    <g transform="translate(440, 85)">
      <rect x="0" y="0" width="180" height="130" rx="8" fill="#1e293b" stroke="url(#customGrad)" stroke-width="2"/>
      <rect x="0" y="0" width="180" height="30" rx="8" fill="url(#customGrad)"/>
      <rect x="0" y="15" width="180" height="15" fill="url(#customGrad)"/>
      <text x="90" y="20" text-anchor="middle" class="heading" fill="#fff">Theme Events</text>
      <text x="90" y="55" text-anchor="middle" class="code">theme_change</text>
      <text x="15" y="75" class="text-sm">Light/Dark toggle</text>
      <text x="15" y="90" class="text-sm">Theme preference</text>
      <text x="15" y="105" class="text-sm">System sync</text>
      <text x="90" y="125" text-anchor="middle" class="text-muted">FR-012</text>
    </g>

    <!-- Form Events -->
    <g transform="translate(640, 85)">
      <rect x="0" y="0" width="180" height="130" rx="8" fill="#1e293b" stroke="url(#customGrad)" stroke-width="2"/>
      <rect x="0" y="0" width="180" height="30" rx="8" fill="url(#customGrad)"/>
      <rect x="0" y="15" width="180" height="15" fill="url(#customGrad)"/>
      <text x="90" y="20" text-anchor="middle" class="heading" fill="#fff">Form Events</text>
      <text x="90" y="55" text-anchor="middle" class="code">form_submit</text>
      <text x="15" y="75" class="text-sm">Contact form</text>
      <text x="15" y="90" class="text-sm">Newsletter signup</text>
      <text x="15" y="105" class="text-sm">Search queries</text>
      <text x="90" y="125" text-anchor="middle" class="text-muted">FR-013, FR-015</text>
    </g>

    <!-- PWA Events -->
    <g transform="translate(840, 85)">
      <rect x="0" y="0" width="180" height="130" rx="8" fill="#1e293b" stroke="url(#customGrad)" stroke-width="2"/>
      <rect x="0" y="0" width="180" height="30" rx="8" fill="url(#customGrad)"/>
      <rect x="0" y="15" width="180" height="15" fill="url(#customGrad)"/>
      <text x="90" y="20" text-anchor="middle" class="heading" fill="#fff">PWA Events</text>
      <text x="90" y="55" text-anchor="middle" class="code">pwa_install</text>
      <text x="15" y="75" class="text-sm">Install prompt</text>
      <text x="15" y="90" class="text-sm">Install complete</text>
      <text x="15" y="105" class="text-sm">Standalone launch</text>
      <text x="90" y="125" text-anchor="middle" class="text-muted">FR-014</text>
    </g>

    <!-- Error Events -->
    <g transform="translate(1040, 85)">
      <rect x="0" y="0" width="180" height="130" rx="8" fill="#1e293b" stroke="url(#errorGrad)" stroke-width="2"/>
      <rect x="0" y="0" width="180" height="30" rx="8" fill="url(#errorGrad)"/>
      <rect x="0" y="15" width="180" height="15" fill="url(#errorGrad)"/>
      <text x="90" y="20" text-anchor="middle" class="heading" fill="#fff">Error Events</text>
      <text x="90" y="55" text-anchor="middle" class="code">error</text>
      <text x="15" y="75" class="text-sm">JS errors</text>
      <text x="15" y="90" class="text-sm">Network failures</text>
      <text x="15" y="105" class="text-sm">API errors</text>
      <text x="90" y="125" text-anchor="middle" class="text-muted">FR-016</text>
    </g>
  </g>

  <!-- Collector arrows -->
  <g id="collector-arrows">
    <line x1="130" y1="215" x2="130" y2="280" stroke="#8b5cf6" stroke-width="1"/>
    <line x1="330" y1="215" x2="330" y2="280" stroke="#8b5cf6" stroke-width="1"/>
    <line x1="530" y1="215" x2="530" y2="280" stroke="#8b5cf6" stroke-width="1"/>
    <line x1="730" y1="215" x2="730" y2="280" stroke="#8b5cf6" stroke-width="1"/>
    <line x1="930" y1="215" x2="930" y2="280" stroke="#8b5cf6" stroke-width="1"/>
    <line x1="1130" y1="215" x2="1130" y2="280" stroke="#8b5cf6" stroke-width="1"/>
    <!-- Horizontal collector line -->
    <line x1="130" y1="280" x2="1130" y2="280" stroke="#8b5cf6" stroke-width="2"/>
    <!-- Down to Analytics Provider -->
    <line x1="630" y1="280" x2="630" y2="310" stroke="#8b5cf6" stroke-width="2" marker-end="url(#arrowhead)"/>
  </g>

  <!-- Analytics Provider -->
  <g id="analytics-provider" transform="translate(380, 320)">
    <rect x="0" y="0" width="500" height="120" rx="8" fill="#1e293b" stroke="#8b5cf6" stroke-width="2"/>
    <text x="250" y="30" text-anchor="middle" class="heading">Analytics Provider Hook</text>

    <!-- Hook API -->
    <rect x="20" y="50" width="220" height="55" rx="6" fill="#334155"/>
    <text x="130" y="75" text-anchor="middle" class="code">useAnalytics()</text>
    <text x="130" y="95" text-anchor="middle" class="text-sm">trackEvent(name, params)</text>

    <!-- Context -->
    <rect x="260" y="50" width="220" height="55" rx="6" fill="#334155"/>
    <text x="370" y="75" text-anchor="middle" class="code">AnalyticsContext</text>
    <text x="370" y="95" text-anchor="middle" class="text-sm">isEnabled, consent state</text>
  </g>

  <!-- Event Processing -->
  <g id="event-processing" transform="translate(100, 470)">
    <text x="600" y="0" text-anchor="middle" class="label">EVENT PROCESSING PIPELINE</text>

    <!-- Consent Gate -->
    <rect x="0" y="20" width="160" height="80" rx="8" fill="#1e293b" stroke="#22c55e" stroke-width="2"/>
    <text x="80" y="50" text-anchor="middle" class="heading">Consent Gate</text>
    <text x="80" y="70" text-anchor="middle" class="text-sm">Check analytics_consent</text>
    <text x="80" y="85" text-anchor="middle" class="text-muted">FR-001</text>

    <!-- Enrichment -->
    <rect x="200" y="20" width="160" height="80" rx="8" fill="#1e293b" stroke="#475569" stroke-width="1"/>
    <text x="280" y="50" text-anchor="middle" class="heading">Enrichment</text>
    <text x="280" y="70" text-anchor="middle" class="text-sm">Add page path, title</text>
    <text x="280" y="85" text-anchor="middle" class="text-muted">FR-006</text>

    <!-- Validation -->
    <rect x="400" y="20" width="160" height="80" rx="8" fill="#1e293b" stroke="#475569" stroke-width="1"/>
    <text x="480" y="50" text-anchor="middle" class="heading">Validation</text>
    <text x="480" y="70" text-anchor="middle" class="text-sm">Schema check</text>
    <text x="480" y="85" text-anchor="middle" class="text-muted">Prevent bad data</text>

    <!-- Queue -->
    <rect x="600" y="20" width="160" height="80" rx="8" fill="#1e293b" stroke="#475569" stroke-width="1"/>
    <text x="680" y="50" text-anchor="middle" class="heading">Event Queue</text>
    <text x="680" y="70" text-anchor="middle" class="text-sm">Batch + retry</text>
    <text x="680" y="85" text-anchor="middle" class="text-muted">Graceful fail</text>

    <!-- Dispatch -->
    <rect x="800" y="20" width="160" height="80" rx="8" fill="#1e293b" stroke="#3b82f6" stroke-width="2"/>
    <text x="880" y="50" text-anchor="middle" class="heading">gtag Dispatch</text>
    <text x="880" y="70" text-anchor="middle" class="code">gtag('event', ...)</text>
    <text x="880" y="85" text-anchor="middle" class="text-muted">FR-019 async</text>

    <!-- GA4 Cloud -->
    <rect x="1000" y="10" width="160" height="100" rx="8" fill="#1e293b" stroke="#3b82f6" stroke-width="2"/>
    <text x="1080" y="40" text-anchor="middle" class="heading" fill="#3b82f6">GA4 Cloud</text>
    <text x="1080" y="60" text-anchor="middle" class="text-sm">Real-time reports</text>
    <text x="1080" y="75" text-anchor="middle" class="text-sm">Custom events</text>
    <text x="1080" y="90" text-anchor="middle" class="text-sm">Web Vitals</text>

    <!-- Arrows -->
    <line x1="160" y1="60" x2="195" y2="60" stroke="#8b5cf6" stroke-width="2" marker-end="url(#arrowhead)"/>
    <line x1="360" y1="60" x2="395" y2="60" stroke="#8b5cf6" stroke-width="2" marker-end="url(#arrowhead)"/>
    <line x1="560" y1="60" x2="595" y2="60" stroke="#8b5cf6" stroke-width="2" marker-end="url(#arrowhead)"/>
    <line x1="760" y1="60" x2="795" y2="60" stroke="#8b5cf6" stroke-width="2" marker-end="url(#arrowhead)"/>
    <line x1="960" y1="60" x2="995" y2="60" stroke="#3b82f6" stroke-width="2" marker-end="url(#arrowhead)"/>
  </g>

  <!-- Event Data Schema -->
  <g id="schema" transform="translate(100, 600)">
    <rect x="0" y="0" width="280" height="140" rx="8" fill="#1e293b" stroke="#475569" stroke-width="1"/>
    <text x="140" y="25" text-anchor="middle" class="heading">Event Data Schema</text>
    <text x="20" y="50" class="code">interface AnalyticsEvent {</text>
    <text x="30" y="68" class="text-md">name: string</text>
    <text x="30" y="86" class="text-md">params?: Record&lt;string, any&gt;</text>
    <text x="30" y="104" class="text-md">timestamp: number</text>
    <text x="30" y="122" class="text-md">page_path: string</text>
    <text x="20" y="138" class="code">}</text>
  </g>

  <!-- Web Vitals Detail -->
  <g id="vitals-detail" transform="translate(420, 600)">
    <rect x="0" y="0" width="280" height="140" rx="8" fill="#1e293b" stroke="url(#vitalsGrad)" stroke-width="1"/>
    <text x="140" y="25" text-anchor="middle" class="heading" fill="#22c55e">Web Vitals Metrics</text>
    <text x="20" y="50" class="text-md">CLS: Cumulative Layout Shift</text>
    <text x="20" y="70" class="text-md">FCP: First Contentful Paint</text>
    <text x="20" y="90" class="text-md">LCP: Largest Contentful Paint</text>
    <text x="20" y="110" class="text-md">TTFB: Time to First Byte</text>
    <text x="140" y="135" text-anchor="middle" class="text-muted">Dev mode: console.log()</text>
  </g>

  <!-- Success Criteria -->
  <g id="success" transform="translate(740, 600)">
    <rect x="0" y="0" width="280" height="140" rx="8" fill="#1e293b" stroke="#8b5cf6" stroke-width="1"/>
    <text x="140" y="25" text-anchor="middle" class="annotation">SUCCESS CRITERIA</text>
    <text x="20" y="50" class="text-sm">SC-001: No scripts before consent</text>
    <text x="20" y="70" class="text-sm">SC-002: 100% page view coverage</text>
    <text x="20" y="90" class="text-sm">SC-005: No performance regression</text>
    <text x="20" y="110" class="text-sm">SC-006: Zero errors on block</text>
    <text x="20" y="130" class="text-sm">SC-007: Persistent consent state</text>
  </g>

  <!-- Debug Mode -->
  <g id="debug" transform="translate(1060, 600)">
    <rect x="0" y="0" width="180" height="140" rx="8" fill="#1e293b" stroke="#eab308" stroke-width="1" stroke-dasharray="4,2"/>
    <text x="90" y="25" text-anchor="middle" class="heading" fill="#eab308">Dev Mode</text>
    <text x="20" y="50" class="text-sm">Console logging</text>
    <text x="20" y="70" class="text-sm">Web Vitals debug</text>
    <text x="20" y="90" class="text-sm">Event inspector</text>
    <text x="90" y="130" text-anchor="middle" class="text-muted">FR-011</text>
  </g>

  <!-- Arrow from provider to pipeline -->
  <line x1="630" y1="440" x2="630" y2="460" stroke="#8b5cf6" stroke-width="2" marker-end="url(#arrowhead)"/>
</svg>
