<svg xmlns="http://www.w3.org/2000/svg" viewBox="0 0 1400 800" width="1400" height="800">
  <!-- ============================================================
       GENERATED BY: /wireframe skill
       SOURCE: features/payments/039-payment-offline-queue/spec.md
       DATE: 2025-12-31
       DO NOT MANUALLY EDIT - Regenerate with /wireframe command
       ============================================================ -->
  <defs>
    <linearGradient id="bgGrad" x1="0%" y1="0%" x2="100%" y2="100%">
      <stop offset="0%" style="stop-color:#0f172a"/>
      <stop offset="100%" style="stop-color:#1e293b"/>
    </linearGradient>
    <linearGradient id="accentGrad" x1="0%" y1="0%" x2="100%" y2="0%">
      <stop offset="0%" style="stop-color:#8b5cf6"/>
      <stop offset="100%" style="stop-color:#d946ef"/>
    </linearGradient>
    <style>
      .heading-lg { fill: #ffffff; font-family: system-ui, sans-serif; font-size: 20px; font-weight: bold; }
      .heading { fill: #ffffff; font-family: system-ui, sans-serif; font-size: 14px; font-weight: bold; }
      .heading-sm { fill: #ffffff; font-family: system-ui, sans-serif; font-size: 12px; font-weight: bold; }
      .text-md { fill: #cbd5e1; font-family: system-ui, sans-serif; font-size: 12px; }
      .text-sm { fill: #94a3b8; font-family: system-ui, sans-serif; font-size: 10px; }
      .text-muted { fill: #64748b; font-family: system-ui, sans-serif; font-size: 10px; }
      .annotation { fill: #8b5cf6; font-family: monospace; font-size: 10px; }
      .code { fill: #22c55e; font-family: monospace; font-size: 10px; }
      .label-desktop { fill: #8b5cf6; font-family: monospace; font-size: 11px; font-weight: bold; }
      .label-mobile { fill: #d946ef; font-family: monospace; font-size: 11px; font-weight: bold; }
    </style>
  </defs>

  <!-- Background -->
  <rect width="1400" height="800" fill="url(#bgGrad)"/>

  <!-- Dot grid pattern -->
  <g opacity="0.05">
    <pattern id="dots" width="30" height="30" patternUnits="userSpaceOnUse">
      <circle cx="15" cy="15" r="1" fill="#fff"/>
    </pattern>
    <rect width="1400" height="800" fill="url(#dots)"/>
  </g>

  <!-- Accent line top -->
  <rect x="0" y="0" width="1400" height="3" fill="url(#accentGrad)"/>

  <!-- Title -->
  <text x="700" y="32" text-anchor="middle" class="heading-lg">PAYMENT OFFLINE QUEUE - UI OVERVIEW</text>
  <text x="700" y="52" text-anchor="middle" class="text-muted">Feature 039 - Queue status, pending list, management actions</text>

  <!-- ==================== DESKTOP SECTION ==================== -->
  <text x="40" y="75" class="label-desktop">DESKTOP</text>

  <!-- Desktop Header with Queue Badge -->
  <g transform="translate(40, 85)">
    <rect width="900" height="50" rx="8" fill="#1e293b" stroke="#475569"/>
    <text x="20" y="30" class="heading">Payment Dashboard</text>

    <!-- Offline indicator -->
    <rect x="600" y="12" width="90" height="26" rx="13" fill="#eab308" opacity="0.2"/>
    <text x="618" y="30" style="fill:#eab308;font-family:system-ui;font-size:11px">⚡ Offline</text>

    <!-- Queue badge with count -->
    <g transform="translate(710, 12)">
      <rect width="130" height="26" rx="13" fill="#8b5cf6" opacity="0.3" stroke="#8b5cf6"/>
      <text x="15" y="18" style="fill:#fff;font-family:system-ui;font-size:11px">📦 Queue</text>
      <circle cx="105" cy="13" r="11" fill="#ef4444"/>
      <text x="105" y="17" text-anchor="middle" style="fill:#fff;font-family:system-ui;font-size:10px;font-weight:bold">3</text>
    </g>

    <!-- Syncing indicator (alternative state) -->
    <text x="860" y="30" class="text-muted">● Waiting</text>
  </g>

  <!-- Queue Status Panel -->
  <g transform="translate(40, 150)">
    <rect width="900" height="70" rx="8" fill="#eab308" opacity="0.1" stroke="#eab308"/>

    <text x="20" y="28" style="fill:#eab308;font-family:system-ui;font-size:14px;font-weight:bold">⏳ 3 payments waiting to sync</text>
    <text x="20" y="50" class="text-md">These payments will process automatically when you're back online.</text>

    <!-- Sync now button (disabled when offline) -->
    <rect x="720" y="15" width="100" height="36" rx="6" fill="#334155" opacity="0.5"/>
    <text x="745" y="38" class="text-muted">Sync Now</text>

    <!-- View queue -->
    <rect x="830" y="15" width="55" height="36" rx="6" fill="#8b5cf6"/>
    <text x="845" y="38" style="fill:#fff;font-family:system-ui;font-size:11px">View</text>
  </g>

  <!-- Pending Payment List -->
  <g transform="translate(40, 235)">
    <rect width="620" height="360" rx="8" fill="#1e293b" stroke="#475569"/>

    <!-- Header -->
    <rect width="620" height="40" rx="8" fill="#334155"/>
    <text x="15" y="26" class="heading-sm">Pending Payments (3)</text>
    <text x="450" y="26" class="text-sm">Sort: Queue Order ▼</text>
    <rect x="545" y="8" width="65" height="24" rx="4" fill="#ef4444" opacity="0.2"/>
    <text x="555" y="24" style="fill:#ef4444;font-family:system-ui;font-size:10px">Clear All</text>

    <!-- Payment Item 1 - Pending -->
    <g transform="translate(10, 50)">
      <rect width="600" height="90" rx="8" fill="#0f172a" stroke="#eab308" stroke-dasharray="4,2"/>
      <rect x="10" y="10" width="6" height="70" rx="3" fill="#eab308"/>

      <text x="30" y="30" class="heading-sm">Pro Plan - Monthly</text>
      <rect x="180" y="15" width="60" height="20" rx="10" fill="#eab308" opacity="0.2"/>
      <text x="190" y="29" style="fill:#eab308;font-family:system-ui;font-size:9px">Pending</text>

      <text x="30" y="50" class="text-sm">Queued: 2 min ago</text>
      <text x="150" y="50" class="text-muted">• Attempt 1/3</text>

      <text x="30" y="70" class="text-muted">Will process when online</text>

      <!-- Amount -->
      <text x="450" y="40" style="fill:#fff;font-family:system-ui;font-size:18px;font-weight:bold">$29.00</text>

      <!-- Actions -->
      <rect x="530" y="55" width="60" height="26" rx="4" fill="#334155"/>
      <text x="545" y="72" class="text-sm">Cancel</text>
    </g>

    <!-- Payment Item 2 - Failed (retry available) -->
    <g transform="translate(10, 150)">
      <rect width="600" height="90" rx="8" fill="#0f172a" stroke="#ef4444"/>
      <rect x="10" y="10" width="6" height="70" rx="3" fill="#ef4444"/>

      <text x="30" y="30" class="heading-sm">One-time donation</text>
      <rect x="165" y="15" width="50" height="20" rx="10" fill="#ef4444" opacity="0.2"/>
      <text x="175" y="29" style="fill:#ef4444;font-family:system-ui;font-size:9px">Failed</text>

      <text x="30" y="50" class="text-sm">Queued: 15 min ago</text>
      <text x="150" y="50" class="text-muted">• Attempt 2/3</text>
      <text x="250" y="50" style="fill:#ef4444;font-family:system-ui;font-size:10px">Card declined</text>

      <text x="30" y="70" class="text-muted">Last retry: 5 min ago</text>

      <!-- Amount -->
      <text x="450" y="40" style="fill:#fff;font-family:system-ui;font-size:18px;font-weight:bold">$50.00</text>

      <!-- Actions -->
      <rect x="450" y="55" width="60" height="26" rx="4" fill="#ef4444"/>
      <text x="467" y="72" style="fill:#fff;font-family:system-ui;font-size:10px">Retry</text>
      <rect x="520" y="55" width="70" height="26" rx="4" fill="#334155"/>
      <text x="535" y="72" class="text-sm">Cancel</text>
    </g>

    <!-- Payment Item 3 - Processing -->
    <g transform="translate(10, 250)">
      <rect width="600" height="90" rx="8" fill="#0f172a" stroke="#8b5cf6" stroke-dasharray="4,2">
        <animate attributeName="stroke-dashoffset" values="0;8" dur="0.5s" repeatCount="indefinite"/>
      </rect>
      <rect x="10" y="10" width="6" height="70" rx="3" fill="#8b5cf6"/>

      <text x="30" y="30" class="heading-sm">Team Plan - Yearly</text>
      <rect x="175" y="15" width="75" height="20" rx="10" fill="#8b5cf6" opacity="0.2"/>
      <g transform="translate(185, 23)">
        <circle cx="0" cy="0" r="5" fill="none" stroke="#334155" stroke-width="1.5"/>
        <path d="M 0 -5 A 5 5 0 0 1 5 0" fill="none" stroke="#8b5cf6" stroke-width="1.5" stroke-linecap="round">
          <animateTransform attributeName="transform" type="rotate" from="0" to="360" dur="1s" repeatCount="indefinite"/>
        </path>
      </g>
      <text x="200" y="29" style="fill:#8b5cf6;font-family:system-ui;font-size:9px">Processing</text>

      <text x="30" y="50" class="text-sm">Queued: 1 min ago</text>
      <text x="150" y="50" class="text-muted">• Attempt 1/3</text>

      <text x="30" y="70" class="text-muted">Processing payment...</text>

      <!-- Amount -->
      <text x="450" y="40" style="fill:#fff;font-family:system-ui;font-size:18px;font-weight:bold">$199.00</text>

      <!-- Cancel disabled during processing -->
      <rect x="530" y="55" width="60" height="26" rx="4" fill="#334155" opacity="0.3"/>
      <text x="542" y="72" class="text-muted">Cancel</text>
    </g>
  </g>

  <!-- Queue Summary Panel -->
  <g transform="translate(680, 235)">
    <rect width="260" height="180" rx="8" fill="#1e293b" stroke="#475569"/>

    <text x="15" y="30" class="heading-sm">Queue Summary</text>

    <text x="15" y="60" class="text-muted">Total Pending</text>
    <text x="200" y="60" style="fill:#fff;font-family:system-ui;font-size:14px;font-weight:bold">$278.00</text>

    <text x="15" y="85" class="text-muted">Payments</text>
    <text x="220" y="85" class="text-md">3</text>

    <text x="15" y="110" class="text-muted">Failed</text>
    <text x="220" y="110" style="fill:#ef4444;font-family:system-ui;font-size:12px">1</text>

    <text x="15" y="135" class="text-muted">Processing</text>
    <text x="220" y="135" style="fill:#8b5cf6;font-family:system-ui;font-size:12px">1</text>

    <rect x="15" y="150" width="230" height="1" fill="#475569"/>

    <rect x="15" y="158" width="230" height="15" rx="4" fill="#334155"/>
    <rect x="15" y="158" width="76" height="15" rx="4" fill="#8b5cf6"/>
    <text x="125" y="170" text-anchor="middle" class="text-muted">1 of 3 processing</text>
  </g>

  <!-- Retry All Button -->
  <g transform="translate(680, 430)">
    <rect width="260" height="50" rx="8" fill="#8b5cf6"/>
    <text x="130" y="32" text-anchor="middle" style="fill:#fff;font-family:system-ui;font-size:14px;font-weight:bold">Retry All Failed (1)</text>
  </g>

  <!-- ==================== MOBILE SECTION ==================== -->
  <text x="980" y="75" class="label-mobile">MOBILE</text>

  <g id="mobile-view" transform="translate(980, 85)">
    <!-- Phone frame -->
    <rect x="0" y="0" width="360" height="680" rx="24" fill="#1e293b" stroke="#475569" stroke-width="2"/>
    <rect x="10" y="10" width="340" height="660" rx="16" fill="#0f172a"/>

    <!-- Status bar -->
    <rect x="10" y="10" width="340" height="28" rx="16" fill="#1e293b"/>
    <text x="30" y="28" class="text-sm">9:41</text>
    <text x="280" y="28" style="fill:#eab308;font-family:system-ui;font-size:10px">⚡ Offline</text>

    <!-- Header -->
    <rect x="20" y="48" width="320" height="44" rx="8" fill="#1e293b"/>
    <text x="35" y="75" class="heading-sm">← Payment Queue</text>
    <!-- Badge -->
    <circle cx="310" cy="70" r="12" fill="#ef4444"/>
    <text x="310" y="74" text-anchor="middle" style="fill:#fff;font-family:system-ui;font-size:10px;font-weight:bold">3</text>

    <!-- Queue Status Banner -->
    <rect x="20" y="102" width="320" height="50" rx="8" fill="#eab308" opacity="0.15" stroke="#eab308"/>
    <text x="35" y="125" style="fill:#eab308;font-family:system-ui;font-size:11px;font-weight:bold">⏳ 3 payments waiting</text>
    <text x="35" y="142" class="text-muted">Will sync when online</text>

    <!-- Payment Item 1 -->
    <g transform="translate(20, 162)">
      <rect width="320" height="75" rx="8" fill="#1e293b" stroke="#eab308" stroke-dasharray="4,2"/>
      <rect x="8" y="8" width="4" height="59" rx="2" fill="#eab308"/>

      <text x="22" y="25" class="heading-sm">Pro Plan - Monthly</text>
      <rect x="160" y="10" width="55" height="18" rx="9" fill="#eab308" opacity="0.2"/>
      <text x="170" y="23" style="fill:#eab308;font-family:system-ui;font-size:8px">Pending</text>

      <text x="22" y="45" class="text-muted">Queued 2 min ago • Attempt 1/3</text>

      <text x="260" y="25" style="fill:#fff;font-family:system-ui;font-size:14px;font-weight:bold">$29.00</text>

      <rect x="250" y="50" width="60" height="22" rx="4" fill="#334155"/>
      <text x="268" y="65" class="text-sm">Cancel</text>
    </g>

    <!-- Payment Item 2 - Failed -->
    <g transform="translate(20, 247)">
      <rect width="320" height="85" rx="8" fill="#1e293b" stroke="#ef4444"/>
      <rect x="8" y="8" width="4" height="69" rx="2" fill="#ef4444"/>

      <text x="22" y="25" class="heading-sm">One-time donation</text>
      <rect x="150" y="10" width="45" height="18" rx="9" fill="#ef4444" opacity="0.2"/>
      <text x="160" y="23" style="fill:#ef4444;font-family:system-ui;font-size:8px">Failed</text>

      <text x="22" y="45" class="text-muted">15 min ago • Card declined</text>
      <text x="22" y="60" class="text-muted">Attempt 2/3 • Last retry: 5 min ago</text>

      <text x="260" y="25" style="fill:#fff;font-family:system-ui;font-size:14px;font-weight:bold">$50.00</text>

      <rect x="190" y="65" width="50" height="22" rx="4" fill="#ef4444"/>
      <text x="203" y="80" style="fill:#fff;font-family:system-ui;font-size:9px">Retry</text>
      <rect x="250" y="65" width="60" height="22" rx="4" fill="#334155"/>
      <text x="268" y="80" class="text-sm">Cancel</text>
    </g>

    <!-- Payment Item 3 - Processing -->
    <g transform="translate(20, 342)">
      <rect width="320" height="75" rx="8" fill="#1e293b" stroke="#8b5cf6" stroke-dasharray="4,2">
        <animate attributeName="stroke-dashoffset" values="0;8" dur="0.5s" repeatCount="indefinite"/>
      </rect>
      <rect x="8" y="8" width="4" height="59" rx="2" fill="#8b5cf6"/>

      <text x="22" y="25" class="heading-sm">Team Plan - Yearly</text>
      <rect x="165" y="10" width="70" height="18" rx="9" fill="#8b5cf6" opacity="0.2"/>
      <g transform="translate(175, 18)">
        <circle cx="0" cy="0" r="4" fill="none" stroke="#334155" stroke-width="1"/>
        <path d="M 0 -4 A 4 4 0 0 1 4 0" fill="none" stroke="#8b5cf6" stroke-width="1" stroke-linecap="round">
          <animateTransform attributeName="transform" type="rotate" from="0" to="360" dur="1s" repeatCount="indefinite"/>
        </path>
      </g>
      <text x="190" y="23" style="fill:#8b5cf6;font-family:system-ui;font-size:8px">Processing</text>

      <text x="22" y="45" class="text-muted">Queued 1 min ago • Processing...</text>

      <text x="250" y="25" style="fill:#fff;font-family:system-ui;font-size:14px;font-weight:bold">$199.00</text>

      <rect x="250" y="50" width="60" height="22" rx="4" fill="#334155" opacity="0.3"/>
      <text x="268" y="65" class="text-muted">Cancel</text>
    </g>

    <!-- Summary -->
    <g transform="translate(20, 430)">
      <rect width="320" height="55" rx="8" fill="#1e293b"/>
      <text x="15" y="25" class="text-muted">Total Pending:</text>
      <text x="250" y="25" style="fill:#fff;font-family:system-ui;font-size:14px;font-weight:bold">$278.00</text>
      <rect x="15" y="35" width="290" height="10" rx="5" fill="#334155"/>
      <rect x="15" y="35" width="97" height="10" rx="5" fill="#8b5cf6"/>
    </g>

    <!-- Bottom Actions -->
    <g transform="translate(20, 500)">
      <rect width="155" height="44" rx="8" fill="#ef4444" opacity="0.2" stroke="#ef4444"/>
      <text x="50" y="28" style="fill:#ef4444;font-family:system-ui;font-size:12px">Clear All</text>

      <rect x="165" width="155" height="44" rx="8" fill="#8b5cf6"/>
      <text x="200" y="28" style="fill:#fff;font-family:system-ui;font-size:12px">Retry All (1)</text>
    </g>
  </g>

  <!-- Legend -->
  <g transform="translate(40, 620)">
    <rect width="300" height="100" rx="8" fill="#1e293b" stroke="#475569"/>
    <text x="15" y="25" class="heading-sm">Status Legend</text>

    <rect x="15" y="40" width="6" height="15" rx="3" fill="#eab308"/>
    <text x="30" y="52" class="text-sm">Pending - Waiting for connection</text>

    <rect x="15" y="60" width="6" height="15" rx="3" fill="#8b5cf6"/>
    <text x="30" y="72" class="text-sm">Processing - Currently syncing</text>

    <rect x="15" y="80" width="6" height="15" rx="3" fill="#ef4444"/>
    <text x="30" y="92" class="text-sm">Failed - Retry available</text>
  </g>

  <!-- FR References -->
  <g transform="translate(360, 620)">
    <rect width="280" height="100" rx="8" fill="#1e293b" stroke="#475569"/>
    <text x="15" y="25" class="heading-sm">Functional Requirements</text>
    <text x="15" y="50" class="code">FR-001-004</text>
    <text x="100" y="50" class="text-sm">Queue status display</text>
    <text x="15" y="70" class="code">FR-005-009</text>
    <text x="100" y="70" class="text-sm">Pending payment list</text>
    <text x="15" y="90" class="code">FR-015-017</text>
    <text x="100" y="90" class="text-sm">Queue management</text>
  </g>

  <!-- Dependencies -->
  <g transform="translate(660, 620)">
    <rect width="280" height="100" rx="8" fill="#1e293b" stroke="#475569"/>
    <text x="15" y="25" class="heading-sm">Dependencies</text>
    <text x="15" y="50" class="text-sm">024-Payment Integration</text>
    <text x="15" y="70" class="text-sm">020-PWA Background Sync</text>
    <text x="15" y="90" class="text-muted">IndexedDB for queue persistence</text>
  </g>
</svg>