<svg xmlns="http://www.w3.org/2000/svg" viewBox="0 0 1400 800" width="1400" height="800">
  <!-- ============================================================
       GENERATED BY: /wireframe skill
       SOURCE: features/payments/039-payment-offline-queue/spec.md
       DATE: 2026-01-01
       THEME: Light (UX/Frontend) - v3 True Parchment
       DO NOT MANUALLY EDIT - Regenerate with /wireframe command
       ============================================================ -->
  <defs>
    <linearGradient id="bgGrad" x1="0%" y1="0%" x2="100%" y2="100%">
      <stop offset="0%" style="stop-color:#c7ddf5"/>
      <stop offset="100%" style="stop-color:#b8d4f0"/>
    </linearGradient>
    <linearGradient id="accentGrad" x1="0%" y1="0%" x2="100%" y2="0%">
      <stop offset="0%" style="stop-color:#8b5cf6"/>
      <stop offset="100%" style="stop-color:#d946ef"/>
    </linearGradient>
    <style>
      .heading-lg { fill: #1a1a2e; font-family: system-ui, sans-serif; font-size: 24px; font-weight: 800; }
      .heading { fill: #1a1a2e; font-family: system-ui, sans-serif; font-size: 16px; font-weight: 700; }
      .text-md { fill: #2d3748; font-family: system-ui, sans-serif; font-size: 14px; font-weight: 500; }
      .text-sm { fill: #374151; font-family: system-ui, sans-serif; font-size: 12px; font-weight: 500; }
      .text-muted { fill: #4b5563; font-family: system-ui, sans-serif; font-size: 11px; font-weight: 500; }
      .annotation { fill: #6d28d9; font-family: monospace; font-size: 12px; font-weight: 600; }
      .label-desktop { fill: #8b5cf6; font-family: monospace; font-size: 13px; font-weight: bold; }
      .label-mobile { fill: #d946ef; font-family: monospace; font-size: 13px; font-weight: bold; }
    </style>
  </defs>

  <!-- Background -->
  <rect width="1400" height="800" fill="url(#bgGrad)"/>

  <!-- Dot grid pattern -->
  <g opacity="0.35">
    <pattern id="dots" width="30" height="30" patternUnits="userSpaceOnUse">
      <circle cx="15" cy="15" r="1" fill="#6b8cba"/>
    </pattern>
    <rect width="1400" height="800" fill="url(#dots)"/>
  </g>

  <!-- Accent line top -->
  <rect x="0" y="0" width="1400" height="3" fill="url(#accentGrad)"/>

  <!-- Title -->
  <text x="700" y="28" text-anchor="middle" font-family="system-ui, sans-serif" font-size="14" font-weight="600" fill="#4b5563" letter-spacing="1">039 PAYMENT OFFLINE QUEUE - STATUS INDICATOR</text>

  <!-- DESKTOP SECTION -->
  <text x="40" y="52" class="label-desktop">DESKTOP</text>

  <!-- Desktop Header Bar showing queue indicator -->
  <g id="desktop-view">
    <!-- Main app header -->
    <rect x="40" y="60" width="900" height="56" rx="8" fill="#e8d4b8" stroke="#b8a080" stroke-width="1"/>

    <!-- Logo/Brand -->
    <rect x="56" y="76" width="120" height="24" rx="4" fill="#dcc8a8"/>
    <text x="116" y="93" text-anchor="middle" class="heading">ScriptHammer</text>

    <!-- Navigation items -->
    <text x="220" y="93" class="text-md">Dashboard</text>
    <text x="320" y="93" class="text-md">Payments</text>
    <text x="420" y="93" class="text-md">History</text>

    <!-- Queue Status Indicator (highlighted) -->
    <g id="queue-indicator-active">
      <rect x="780" y="72" width="140" height="32" rx="16" fill="#8b5cf6" stroke="#7c3aed" stroke-width="2"/>
      <text x="805" y="93" fill="#fff" font-family="system-ui" font-size="13" font-weight="600">Queue</text>
      <!-- Badge with count -->
      <circle cx="890" cy="88" r="14" fill="#ef4444"/>
      <text x="890" y="93" text-anchor="middle" fill="#fff" font-family="system-ui" font-size="12" font-weight="bold">3</text>
    </g>

    <!-- Annotation for queue indicator -->
    <rect x="750" y="120" width="200" height="70" rx="6" fill="#e8d4b8" stroke="#8b5cf6" stroke-width="2" stroke-dasharray="4,2"/>
    <text x="760" y="142" class="annotation">FR-001, FR-002:</text>
    <text x="760" y="160" class="text-sm">Badge shows pending count</text>
    <text x="760" y="178" class="text-sm">Visible in navigation area</text>

    <!-- Main content area showing different indicator states -->
    <rect x="40" y="210" width="900" height="520" rx="8" fill="#e8d4b8" stroke="#b8a080" stroke-width="1"/>
    <text x="60" y="245" class="heading-lg">Queue Status Indicator States</text>

    <!-- State 1: Empty Queue -->
    <g transform="translate(60, 270)">
      <text x="0" y="0" class="heading">1. Empty Queue (No Badge)</text>
      <rect x="0" y="15" width="380" height="50" rx="8" fill="#dcc8a8" stroke="#b8a080"/>
      <rect x="280" y="24" width="80" height="32" rx="16" fill="#94a3b8"/>
      <text x="320" y="45" text-anchor="middle" fill="#fff" font-family="system-ui" font-size="13">Queue</text>
      <text x="0" y="90" class="text-muted">No badge shown when queue is empty</text>
    </g>

    <!-- State 2: Pending Payments -->
    <g transform="translate(480, 270)">
      <text x="0" y="0" class="heading">2. Pending Payments</text>
      <rect x="0" y="15" width="380" height="50" rx="8" fill="#dcc8a8" stroke="#b8a080"/>
      <rect x="280" y="24" width="80" height="32" rx="16" fill="#8b5cf6"/>
      <text x="295" y="45" fill="#fff" font-family="system-ui" font-size="13">Queue</text>
      <circle cx="350" cy="40" r="12" fill="#ef4444"/>
      <text x="350" y="45" text-anchor="middle" fill="#fff" font-family="system-ui" font-size="11" font-weight="bold">5</text>
      <text x="0" y="90" class="text-muted">Red badge with count (FR-001)</text>
    </g>

    <!-- State 3: Syncing -->
    <g transform="translate(60, 400)">
      <text x="0" y="0" class="heading">3. Queue Syncing</text>
      <rect x="0" y="15" width="380" height="50" rx="8" fill="#dcc8a8" stroke="#b8a080"/>
      <rect x="260" y="24" width="100" height="32" rx="16" fill="#22c55e"/>
      <text x="275" y="45" fill="#fff" font-family="system-ui" font-size="13">Syncing...</text>
      <!-- Animated dots representation -->
      <circle cx="355" cy="40" r="3" fill="#fff" opacity="0.5"/>
      <circle cx="365" cy="40" r="3" fill="#fff" opacity="0.75"/>
      <circle cx="375" cy="40" r="3" fill="#fff"/>
      <text x="0" y="90" class="text-muted">Progress indicator during sync (FR-003)</text>
    </g>

    <!-- State 4: Processing with count -->
    <g transform="translate(480, 400)">
      <text x="0" y="0" class="heading">4. Processing (2 of 5)</text>
      <rect x="0" y="15" width="380" height="50" rx="8" fill="#dcc8a8" stroke="#b8a080"/>
      <rect x="240" y="24" width="120" height="32" rx="16" fill="#eab308"/>
      <text x="255" y="45" fill="#1a1a2e" font-family="system-ui" font-size="13">Processing</text>
      <text x="345" y="45" fill="#1a1a2e" font-family="system-ui" font-size="12" font-weight="bold">2/5</text>
      <text x="0" y="90" class="text-muted">Real-time count update (FR-004)</text>
    </g>

    <!-- State 5: Error State -->
    <g transform="translate(60, 530)">
      <text x="0" y="0" class="heading">5. Queue Error</text>
      <rect x="0" y="15" width="380" height="50" rx="8" fill="#dcc8a8" stroke="#b8a080"/>
      <rect x="270" y="24" width="90" height="32" rx="16" fill="#ef4444"/>
      <text x="285" y="45" fill="#fff" font-family="system-ui" font-size="13">Error</text>
      <!-- Warning icon -->
      <text x="355" y="47" fill="#fff" font-family="system-ui" font-size="16">!</text>
      <text x="0" y="90" class="text-muted">Failed payments need attention</text>
    </g>

    <!-- Accessibility Note -->
    <g transform="translate(480, 530)">
      <rect x="0" y="0" width="380" height="80" rx="8" fill="#f5f0e6" stroke="#8b5cf6" stroke-width="1"/>
      <text x="15" y="25" class="annotation">NFR-008 Accessibility:</text>
      <text x="15" y="48" class="text-sm">Screen reader announces:</text>
      <text x="15" y="68" class="text-muted">"3 payments pending in offline queue"</text>
    </g>
  </g>

  <!-- MOBILE SECTION -->
  <text x="980" y="52" class="label-mobile">MOBILE</text>
  <g id="mobile-view" transform="translate(980, 60)">
    <!-- Phone frame -->
    <rect x="0" y="0" width="360" height="700" rx="24" fill="#c8b898" stroke="#a08860" stroke-width="2"/>
    <rect x="10" y="10" width="340" height="680" rx="16" fill="#e8d4b8"/>

    <!-- Status bar -->
    <rect x="10" y="10" width="340" height="28" rx="16" fill="#dcc8a8"/>
    <text x="30" y="28" class="text-sm">9:41</text>
    <text x="310" y="28" class="text-sm">100%</text>

    <!-- Mobile header with queue indicator -->
    <rect x="10" y="48" width="340" height="50" fill="#dcc8a8"/>

    <!-- Hamburger menu -->
    <rect x="25" y="63" width="20" height="3" rx="1" fill="#374151"/>
    <rect x="25" y="70" width="20" height="3" rx="1" fill="#374151"/>
    <rect x="25" y="77" width="20" height="3" rx="1" fill="#374151"/>

    <!-- App title -->
    <text x="170" y="80" text-anchor="middle" class="heading">Payments</text>

    <!-- Queue indicator (mobile) -->
    <g transform="translate(290, 58)">
      <rect x="0" y="0" width="44" height="34" rx="17" fill="#8b5cf6"/>
      <!-- Cloud with arrow icon representation -->
      <circle cx="18" cy="14" r="8" fill="none" stroke="#fff" stroke-width="2"/>
      <line x1="18" y1="8" x2="18" y2="20" stroke="#fff" stroke-width="2"/>
      <polyline points="14,12 18,8 22,12" fill="none" stroke="#fff" stroke-width="2"/>
      <!-- Badge -->
      <circle cx="36" cy="10" r="10" fill="#ef4444"/>
      <text x="36" y="14" text-anchor="middle" fill="#fff" font-family="system-ui" font-size="10" font-weight="bold">3</text>
    </g>

    <!-- Mobile indicator states list -->
    <rect x="20" y="110" width="320" height="560" rx="8" fill="#f5f0e6"/>

    <text x="35" y="140" class="heading">Indicator States</text>

    <!-- State examples on mobile -->
    <g transform="translate(35, 160)">
      <!-- Empty -->
      <rect x="0" y="0" width="280" height="40" rx="6" fill="#e8d4b8" stroke="#b8a080"/>
      <text x="15" y="26" class="text-sm">Empty</text>
      <rect x="200" y="8" width="60" height="24" rx="12" fill="#94a3b8"/>
      <circle cx="218" cy="20" r="6" fill="none" stroke="#fff" stroke-width="1.5"/>
    </g>

    <g transform="translate(35, 215)">
      <!-- Pending -->
      <rect x="0" y="0" width="280" height="40" rx="6" fill="#e8d4b8" stroke="#b8a080"/>
      <text x="15" y="26" class="text-sm">Pending (3)</text>
      <rect x="200" y="8" width="60" height="24" rx="12" fill="#8b5cf6"/>
      <circle cx="245" cy="20" r="8" fill="#ef4444"/>
      <text x="245" y="24" text-anchor="middle" fill="#fff" font-size="9" font-weight="bold">3</text>
    </g>

    <g transform="translate(35, 270)">
      <!-- Syncing -->
      <rect x="0" y="0" width="280" height="40" rx="6" fill="#e8d4b8" stroke="#b8a080"/>
      <text x="15" y="26" class="text-sm">Syncing</text>
      <rect x="200" y="8" width="60" height="24" rx="12" fill="#22c55e"/>
      <circle cx="230" cy="20" r="3" fill="#fff"/>
    </g>

    <g transform="translate(35, 325)">
      <!-- Processing -->
      <rect x="0" y="0" width="280" height="40" rx="6" fill="#e8d4b8" stroke="#b8a080"/>
      <text x="15" y="26" class="text-sm">Processing</text>
      <rect x="180" y="8" width="80" height="24" rx="12" fill="#eab308"/>
      <text x="220" y="25" text-anchor="middle" fill="#1a1a2e" font-size="10" font-weight="bold">2/5</text>
    </g>

    <g transform="translate(35, 380)">
      <!-- Error -->
      <rect x="0" y="0" width="280" height="40" rx="6" fill="#e8d4b8" stroke="#b8a080"/>
      <text x="15" y="26" class="text-sm">Error</text>
      <rect x="200" y="8" width="60" height="24" rx="12" fill="#ef4444"/>
      <text x="230" y="25" text-anchor="middle" fill="#fff" font-size="14" font-weight="bold">!</text>
    </g>

    <!-- Mobile annotation -->
    <rect x="35" y="440" width="280" height="80" rx="6" fill="#e8d4b8" stroke="#8b5cf6" stroke-width="1"/>
    <text x="50" y="465" class="annotation">Mobile Accessibility</text>
    <text x="50" y="488" class="text-sm">Tap indicator to open queue</text>
    <text x="50" y="506" class="text-muted">Haptic feedback on state change</text>

    <!-- Bottom nav hint -->
    <rect x="20" y="600" width="320" height="60" rx="8" fill="#dcc8a8"/>
    <text x="180" y="638" text-anchor="middle" class="text-muted">Alternative: Bottom nav with queue icon</text>
  </g>

  <!-- Leader lines -->
  <g id="leader-lines">
    <line x1="850" y1="88" x2="850" y2="120" stroke="#8b5cf6" stroke-width="1" stroke-dasharray="4,2"/>
  </g>
</svg>
