<svg xmlns="http://www.w3.org/2000/svg" viewBox="0 0 1400 800" width="1400" height="800">
  <!-- ============================================================
       GENERATED BY: /wireframe skill
       SOURCE: features/payments/039-payment-offline-queue/spec.md
       DATE: 2026-01-01
       THEME: Light (UX/Frontend) - v3 True Parchment
       DO NOT MANUALLY EDIT - Regenerate with /wireframe command
       ============================================================ -->
  <defs>
    <linearGradient id="bgGrad" x1="0%" y1="0%" x2="100%" y2="100%">
      <stop offset="0%" style="stop-color:#c7ddf5"/>
      <stop offset="100%" style="stop-color:#b8d4f0"/>
    </linearGradient>
    <linearGradient id="accentGrad" x1="0%" y1="0%" x2="100%" y2="0%">
      <stop offset="0%" style="stop-color:#8b5cf6"/>
      <stop offset="100%" style="stop-color:#d946ef"/>
    </linearGradient>
    <style>
      .heading-lg { fill: #1a1a2e; font-family: system-ui, sans-serif; font-size: 24px; font-weight: 800; }
      .heading { fill: #1a1a2e; font-family: system-ui, sans-serif; font-size: 16px; font-weight: 700; }
      .text-md { fill: #2d3748; font-family: system-ui, sans-serif; font-size: 14px; font-weight: 500; }
      .text-sm { fill: #374151; font-family: system-ui, sans-serif; font-size: 12px; font-weight: 500; }
      .text-muted { fill: #4b5563; font-family: system-ui, sans-serif; font-size: 11px; font-weight: 500; }
      .annotation { fill: #6d28d9; font-family: monospace; font-size: 12px; font-weight: 600; }
      .label-desktop { fill: #8b5cf6; font-family: monospace; font-size: 13px; font-weight: bold; }
      .label-mobile { fill: #d946ef; font-family: monospace; font-size: 13px; font-weight: bold; }
    </style>
  </defs>

  <!-- Background -->
  <rect width="1400" height="800" fill="url(#bgGrad)"/>

  <!-- Dot grid pattern -->
  <g opacity="0.35">
    <pattern id="dots" width="30" height="30" patternUnits="userSpaceOnUse">
      <circle cx="15" cy="15" r="1" fill="#6b8cba"/>
    </pattern>
    <rect width="1400" height="800" fill="url(#dots)"/>
  </g>

  <!-- Accent line top -->
  <rect x="0" y="0" width="1400" height="3" fill="url(#accentGrad)"/>

  <!-- Title -->
  <text x="700" y="28" text-anchor="middle" font-family="system-ui, sans-serif" font-size="14" font-weight="600" fill="#4b5563" letter-spacing="1">039 PAYMENT OFFLINE QUEUE - PENDING PAYMENT LIST</text>

  <!-- DESKTOP SECTION -->
  <text x="40" y="52" class="label-desktop">DESKTOP</text>

  <g id="desktop-view">
    <!-- Sidebar -->
    <rect x="40" y="60" width="200" height="680" rx="8" fill="#e8d4b8" stroke="#b8a080" stroke-width="1"/>

    <!-- Sidebar nav items -->
    <text x="60" y="95" class="heading">Payments</text>

    <rect x="50" y="115" width="180" height="36" rx="6" fill="#dcc8a8"/>
    <text x="70" y="138" class="text-md">Dashboard</text>

    <rect x="50" y="160" width="180" height="36" rx="6" fill="#8b5cf6"/>
    <text x="70" y="183" fill="#fff" font-family="system-ui" font-size="14" font-weight="500">Offline Queue</text>
    <circle cx="200" cy="178" r="10" fill="#ef4444"/>
    <text x="200" y="182" text-anchor="middle" fill="#fff" font-size="10" font-weight="bold">3</text>

    <rect x="50" y="205" width="180" height="36" rx="6" fill="#dcc8a8"/>
    <text x="70" y="228" class="text-md">History</text>

    <rect x="50" y="250" width="180" height="36" rx="6" fill="#dcc8a8"/>
    <text x="70" y="273" class="text-md">Settings</text>

    <!-- Main content area -->
    <rect x="250" y="60" width="690" height="680" rx="8" fill="#e8d4b8" stroke="#b8a080" stroke-width="1"/>

    <!-- Header -->
    <text x="275" y="100" class="heading-lg">Offline Payment Queue</text>
    <text x="275" y="125" class="text-muted">3 payments pending - Last sync: 2 min ago</text>

    <!-- Action bar -->
    <g transform="translate(275, 140)">
      <!-- Retry All button -->
      <rect x="0" y="0" width="100" height="36" rx="6" fill="#8b5cf6"/>
      <text x="50" y="23" text-anchor="middle" fill="#fff" font-family="system-ui" font-size="13" font-weight="600">Retry All</text>

      <!-- Clear All button -->
      <rect x="115" y="0" width="100" height="36" rx="6" fill="#ef4444"/>
      <text x="165" y="23" text-anchor="middle" fill="#fff" font-family="system-ui" font-size="13" font-weight="600">Clear All</text>

      <!-- Sort dropdown -->
      <rect x="520" y="0" width="140" height="36" rx="6" fill="#f5f0e6" stroke="#b8a080"/>
      <text x="540" y="23" class="text-sm">Sort: Queue Order</text>
      <text x="645" y="23" class="text-sm">v</text>
    </g>

    <!-- FR annotation -->
    <rect x="700" y="90" width="220" height="50" rx="4" fill="#f5f0e6" stroke="#8b5cf6" stroke-width="1"/>
    <text x="715" y="112" class="annotation">FR-009, FR-011, FR-016</text>
    <text x="715" y="130" class="text-muted">Sort, Retry All, Clear All</text>

    <!-- Payment list -->
    <g transform="translate(275, 195)">
      <!-- Payment item 1 - Pending -->
      <rect x="0" y="0" width="650" height="100" rx="8" fill="#f5f0e6" stroke="#b8a080" stroke-width="1"/>
      <rect x="0" y="0" width="6" height="100" rx="3" fill="#eab308"/>

      <!-- Status badge -->
      <rect x="20" y="15" width="70" height="22" rx="11" fill="#eab308"/>
      <text x="55" y="31" text-anchor="middle" fill="#1a1a2e" font-size="11" font-weight="600">Pending</text>

      <!-- Payment details -->
      <text x="110" y="32" class="heading">Monthly Subscription</text>
      <text x="110" y="55" class="text-sm">Queued: Today at 10:32 AM</text>
      <text x="110" y="75" class="text-muted">Retry attempts: 0</text>

      <!-- Amount -->
      <text x="450" y="45" text-anchor="end" font-family="system-ui" font-size="20" font-weight="bold" fill="#1a1a2e">$29.99</text>

      <!-- Actions -->
      <rect x="480" y="25" width="70" height="30" rx="6" fill="#8b5cf6"/>
      <text x="515" y="45" text-anchor="middle" fill="#fff" font-size="11" font-weight="600">Retry</text>

      <rect x="560" y="25" width="70" height="30" rx="6" fill="none" stroke="#ef4444" stroke-width="1"/>
      <text x="595" y="45" text-anchor="middle" fill="#ef4444" font-size="11" font-weight="600">Cancel</text>
    </g>

    <!-- Payment item 2 - Failed -->
    <g transform="translate(275, 305)">
      <rect x="0" y="0" width="650" height="100" rx="8" fill="#f5f0e6" stroke="#ef4444" stroke-width="2"/>
      <rect x="0" y="0" width="6" height="100" rx="3" fill="#ef4444"/>

      <rect x="20" y="15" width="60" height="22" rx="11" fill="#ef4444"/>
      <text x="50" y="31" text-anchor="middle" fill="#fff" font-size="11" font-weight="600">Failed</text>

      <text x="100" y="32" class="heading">API Access Fee</text>
      <text x="100" y="55" class="text-sm">Queued: Yesterday at 3:15 PM</text>
      <text x="100" y="75" fill="#ef4444" font-family="system-ui" font-size="11">Error: Card declined - Retry attempts: 2</text>

      <text x="450" y="45" text-anchor="end" font-family="system-ui" font-size="20" font-weight="bold" fill="#1a1a2e">$99.00</text>

      <rect x="480" y="25" width="70" height="30" rx="6" fill="#8b5cf6"/>
      <text x="515" y="45" text-anchor="middle" fill="#fff" font-size="11" font-weight="600">Retry</text>

      <rect x="560" y="25" width="70" height="30" rx="6" fill="none" stroke="#ef4444" stroke-width="1"/>
      <text x="595" y="45" text-anchor="middle" fill="#ef4444" font-size="11" font-weight="600">Cancel</text>
    </g>

    <!-- Payment item 3 - Processing -->
    <g transform="translate(275, 415)">
      <rect x="0" y="0" width="650" height="100" rx="8" fill="#f5f0e6" stroke="#22c55e" stroke-width="2"/>
      <rect x="0" y="0" width="6" height="100" rx="3" fill="#22c55e"/>

      <rect x="20" y="15" width="85" height="22" rx="11" fill="#22c55e"/>
      <text x="62" y="31" text-anchor="middle" fill="#fff" font-size="11" font-weight="600">Processing</text>

      <text x="120" y="32" class="heading">Storage Upgrade</text>
      <text x="120" y="55" class="text-sm">Queued: Today at 9:45 AM</text>
      <text x="120" y="75" class="text-muted">Processing now...</text>

      <text x="450" y="45" text-anchor="end" font-family="system-ui" font-size="20" font-weight="bold" fill="#1a1a2e">$4.99</text>

      <!-- Disabled buttons during processing -->
      <rect x="480" y="25" width="70" height="30" rx="6" fill="#94a3b8"/>
      <text x="515" y="45" text-anchor="middle" fill="#fff" font-size="11">Retry</text>

      <rect x="560" y="25" width="70" height="30" rx="6" fill="#94a3b8"/>
      <text x="595" y="45" text-anchor="middle" fill="#fff" font-size="11">Cancel</text>
    </g>

    <!-- FR annotation for list items -->
    <rect x="275" y="530" width="650" height="70" rx="6" fill="#e8d4b8" stroke="#8b5cf6" stroke-width="1"/>
    <text x="295" y="555" class="annotation">FR-005 to FR-008, FR-010, FR-012, FR-013, FR-015:</text>
    <text x="295" y="580" class="text-sm">List items show: amount, description, queue time, status, retry count, retry button, cancel button</text>

    <!-- Queue summary footer -->
    <rect x="275" y="615" width="650" height="50" rx="6" fill="#dcc8a8"/>
    <text x="295" y="645" class="text-md">Total Pending: $133.98</text>
    <text x="600" y="645" class="text-muted">Queue persists across sessions (NFR-001, NFR-002)</text>
  </g>

  <!-- MOBILE SECTION -->
  <text x="980" y="52" class="label-mobile">MOBILE</text>
  <g id="mobile-view" transform="translate(980, 60)">
    <!-- Phone frame -->
    <rect x="0" y="0" width="360" height="700" rx="24" fill="#c8b898" stroke="#a08860" stroke-width="2"/>
    <rect x="10" y="10" width="340" height="680" rx="16" fill="#e8d4b8"/>

    <!-- Status bar -->
    <rect x="10" y="10" width="340" height="28" rx="16" fill="#dcc8a8"/>
    <text x="30" y="28" class="text-sm">9:41</text>
    <text x="310" y="28" class="text-sm">100%</text>

    <!-- Mobile header -->
    <rect x="10" y="48" width="340" height="50" fill="#dcc8a8"/>
    <text x="30" y="70" class="text-sm">&lt;</text>
    <text x="170" y="80" text-anchor="middle" class="heading">Offline Queue</text>

    <!-- Action buttons -->
    <rect x="20" y="108" width="155" height="36" rx="6" fill="#8b5cf6"/>
    <text x="97" y="131" text-anchor="middle" fill="#fff" font-size="12" font-weight="600">Retry All (3)</text>

    <rect x="185" y="108" width="155" height="36" rx="6" fill="#ef4444"/>
    <text x="262" y="131" text-anchor="middle" fill="#fff" font-size="12" font-weight="600">Clear All</text>

    <!-- Mobile payment list -->
    <g transform="translate(20, 155)">
      <!-- Item 1 -->
      <rect x="0" y="0" width="320" height="80" rx="8" fill="#f5f0e6" stroke="#b8a080"/>
      <rect x="0" y="0" width="4" height="80" rx="2" fill="#eab308"/>

      <rect x="15" y="10" width="55" height="18" rx="9" fill="#eab308"/>
      <text x="42" y="23" text-anchor="middle" fill="#1a1a2e" font-size="9" font-weight="600">Pending</text>

      <text x="80" y="24" font-family="system-ui" font-size="12" font-weight="600" fill="#1a1a2e">Monthly Subscription</text>
      <text x="15" y="48" class="text-muted">Today 10:32 AM</text>
      <text x="15" y="65" class="text-muted">Retries: 0</text>

      <text x="305" y="24" text-anchor="end" font-family="system-ui" font-size="14" font-weight="bold" fill="#1a1a2e">$29.99</text>

      <!-- Swipe hint -->
      <text x="260" y="60" class="text-muted">Swipe →</text>
    </g>

    <!-- Item 2 - Failed -->
    <g transform="translate(20, 245)">
      <rect x="0" y="0" width="320" height="80" rx="8" fill="#f5f0e6" stroke="#ef4444" stroke-width="2"/>
      <rect x="0" y="0" width="4" height="80" rx="2" fill="#ef4444"/>

      <rect x="15" y="10" width="45" height="18" rx="9" fill="#ef4444"/>
      <text x="37" y="23" text-anchor="middle" fill="#fff" font-size="9" font-weight="600">Failed</text>

      <text x="70" y="24" font-family="system-ui" font-size="12" font-weight="600" fill="#1a1a2e">API Access Fee</text>
      <text x="15" y="48" fill="#ef4444" font-size="10">Card declined</text>
      <text x="15" y="65" class="text-muted">Retries: 2</text>

      <text x="305" y="24" text-anchor="end" font-family="system-ui" font-size="14" font-weight="bold" fill="#1a1a2e">$99.00</text>
    </g>

    <!-- Item 3 - Processing -->
    <g transform="translate(20, 335)">
      <rect x="0" y="0" width="320" height="80" rx="8" fill="#f5f0e6" stroke="#22c55e" stroke-width="2"/>
      <rect x="0" y="0" width="4" height="80" rx="2" fill="#22c55e"/>

      <rect x="15" y="10" width="70" height="18" rx="9" fill="#22c55e"/>
      <text x="50" y="23" text-anchor="middle" fill="#fff" font-size="9" font-weight="600">Processing</text>

      <text x="95" y="24" font-family="system-ui" font-size="12" font-weight="600" fill="#1a1a2e">Storage Upgrade</text>
      <text x="15" y="48" class="text-muted">Processing...</text>

      <text x="305" y="24" text-anchor="end" font-family="system-ui" font-size="14" font-weight="bold" fill="#1a1a2e">$4.99</text>
    </g>

    <!-- Swipe actions hint -->
    <rect x="20" y="430" width="320" height="50" rx="8" fill="#dcc8a8"/>
    <text x="180" y="450" text-anchor="middle" class="text-sm">Swipe left: Cancel</text>
    <text x="180" y="468" text-anchor="middle" class="text-sm">Swipe right: Retry</text>

    <!-- Summary -->
    <rect x="20" y="495" width="320" height="60" rx="8" fill="#f5f0e6" stroke="#b8a080"/>
    <text x="40" y="525" class="text-md">Total Pending</text>
    <text x="300" y="525" text-anchor="end" font-family="system-ui" font-size="18" font-weight="bold" fill="#1a1a2e">$133.98</text>
    <text x="40" y="545" class="text-muted">3 payments waiting</text>

    <!-- Keyboard accessible note -->
    <rect x="20" y="570" width="320" height="45" rx="6" fill="#e8d4b8" stroke="#8b5cf6"/>
    <text x="40" y="595" class="annotation">NFR-009: Keyboard accessible</text>
    <text x="40" y="610" class="text-muted">Tab navigation + Enter to action</text>

    <!-- Bottom nav -->
    <rect x="10" y="630" width="340" height="60" rx="16" fill="#dcc8a8"/>
    <text x="70" y="665" text-anchor="middle" class="text-muted">Home</text>
    <text x="170" y="665" text-anchor="middle" fill="#8b5cf6" font-family="system-ui" font-size="11" font-weight="600">Queue</text>
    <text x="280" y="665" text-anchor="middle" class="text-muted">History</text>
  </g>
</svg>
