<svg xmlns="http://www.w3.org/2000/svg" viewBox="0 0 1400 900" width="1400" height="900">
  <!-- ============================================================
       GENERATED BY: /wireframe skill
       SOURCE: features/payments/039-payment-offline-queue/spec.md
       DATE: 2025-12-31
       DO NOT MANUALLY EDIT - Regenerate with /wireframe command
       ============================================================ -->
  <defs>
    <linearGradient id="bgGrad" x1="0%" y1="0%" x2="100%" y2="100%">
      <stop offset="0%" style="stop-color:#0f172a"/>
      <stop offset="100%" style="stop-color:#1e293b"/>
    </linearGradient>
    <linearGradient id="accentGrad" x1="0%" y1="0%" x2="100%" y2="0%">
      <stop offset="0%" style="stop-color:#8b5cf6"/>
      <stop offset="100%" style="stop-color:#d946ef"/>
    </linearGradient>
    <style>
      .heading-lg { fill: #ffffff; font-family: system-ui, sans-serif; font-size: 20px; font-weight: bold; }
      .heading { fill: #ffffff; font-family: system-ui, sans-serif; font-size: 14px; font-weight: bold; }
      .heading-sm { fill: #ffffff; font-family: system-ui, sans-serif; font-size: 12px; font-weight: bold; }
      .text-md { fill: #cbd5e1; font-family: system-ui, sans-serif; font-size: 12px; }
      .text-sm { fill: #94a3b8; font-family: system-ui, sans-serif; font-size: 10px; }
      .text-muted { fill: #64748b; font-family: system-ui, sans-serif; font-size: 10px; }
      .annotation { fill: #8b5cf6; font-family: monospace; font-size: 10px; }
      .code { fill: #22c55e; font-family: monospace; font-size: 10px; }
      .label-section { fill: #8b5cf6; font-family: monospace; font-size: 11px; font-weight: bold; }
    </style>
    <marker id="arrowhead" markerWidth="10" markerHeight="7" refX="9" refY="3.5" orient="auto">
      <polygon points="0 0, 10 3.5, 0 7" fill="#8b5cf6"/>
    </marker>
    <marker id="arrowGreen" markerWidth="10" markerHeight="7" refX="9" refY="3.5" orient="auto">
      <polygon points="0 0, 10 3.5, 0 7" fill="#22c55e"/>
    </marker>
  </defs>

  <!-- Background -->
  <rect width="1400" height="900" fill="url(#bgGrad)"/>

  <!-- Dot grid pattern -->
  <g opacity="0.05">
    <pattern id="dots" width="30" height="30" patternUnits="userSpaceOnUse">
      <circle cx="15" cy="15" r="1" fill="#fff"/>
    </pattern>
    <rect width="1400" height="900" fill="url(#dots)"/>
  </g>

  <!-- Accent line top -->
  <rect x="0" y="0" width="1400" height="3" fill="url(#accentGrad)"/>

  <!-- Title -->
  <text x="700" y="32" text-anchor="middle" class="heading-lg">PAYMENT OFFLINE QUEUE - RETRY STATES &amp; CONFIRMATIONS</text>
  <text x="700" y="52" text-anchor="middle" class="text-muted">Retry flow, processing states, error handling, confirmation dialogs</text>

  <!-- ==================== RETRY FLOW ==================== -->
  <text x="40" y="85" class="label-section">RETRY FLOW (FR-010 to FR-014)</text>

  <!-- State 1: Failed -->
  <g transform="translate(40, 100)">
    <rect width="200" height="140" rx="8" fill="#1e293b" stroke="#ef4444"/>
    <text x="100" y="25" text-anchor="middle" class="heading-sm">1. FAILED</text>

    <rect x="15" y="40" width="170" height="60" rx="6" fill="#0f172a"/>
    <text x="25" y="60" class="text-sm">One-time donation</text>
    <text x="25" y="78" class="text-muted">Card declined</text>
    <text x="140" y="70" style="fill:#fff;font-family:system-ui;font-size:12px">$50.00</text>

    <rect x="50" y="108" width="100" height="26" rx="6" fill="#ef4444"/>
    <text x="85" y="125" style="fill:#fff;font-family:system-ui;font-size:11px">Retry</text>
  </g>

  <!-- Arrow -->
  <line x1="250" y1="170" x2="290" y2="170" stroke="#8b5cf6" stroke-width="2" marker-end="url(#arrowhead)"/>
  <text x="265" y="160" class="annotation">click</text>

  <!-- State 2: Retrying -->
  <g transform="translate(300, 100)">
    <rect width="200" height="140" rx="8" fill="#1e293b" stroke="#8b5cf6" stroke-dasharray="4,2">
      <animate attributeName="stroke-dashoffset" values="0;8" dur="0.5s" repeatCount="indefinite"/>
    </rect>
    <text x="100" y="25" text-anchor="middle" class="heading-sm">2. RETRYING</text>

    <rect x="15" y="40" width="170" height="60" rx="6" fill="#0f172a"/>
    <text x="25" y="60" class="text-sm">One-time donation</text>
    <g transform="translate(25, 75)">
      <circle cx="0" cy="0" r="6" fill="none" stroke="#334155" stroke-width="1.5"/>
      <path d="M 0 -6 A 6 6 0 0 1 6 0" fill="none" stroke="#8b5cf6" stroke-width="1.5" stroke-linecap="round">
        <animateTransform attributeName="transform" type="rotate" from="0" to="360" dur="1s" repeatCount="indefinite"/>
      </path>
    </g>
    <text x="40" y="78" class="text-muted">Processing...</text>
    <text x="140" y="70" style="fill:#fff;font-family:system-ui;font-size:12px">$50.00</text>

    <rect x="50" y="108" width="100" height="26" rx="6" fill="#334155" opacity="0.5"/>
    <text x="85" y="125" class="text-muted">Retrying...</text>
  </g>

  <!-- Arrows for success/failure -->
  <line x1="510" y1="140" x2="560" y2="120" stroke="#22c55e" stroke-width="2" marker-end="url(#arrowGreen)"/>
  <text x="530" y="115" class="code">success</text>
  <line x1="510" y1="200" x2="560" y2="220" stroke="#ef4444" stroke-width="2"/>
  <text x="520" y="230" style="fill:#ef4444;font-family:monospace;font-size:10px">fail</text>

  <!-- State 3a: Success -->
  <g transform="translate(570, 70)">
    <rect width="200" height="110" rx="8" fill="#1e293b" stroke="#22c55e"/>
    <text x="100" y="25" text-anchor="middle" class="heading-sm">3a. SUCCESS</text>

    <rect x="15" y="40" width="170" height="60" rx="6" fill="#22c55e" opacity="0.1"/>
    <text x="25" y="60" class="text-sm">One-time donation</text>
    <text x="25" y="78" style="fill:#22c55e;font-family:system-ui;font-size:10px">✓ Payment completed</text>
    <text x="140" y="70" style="fill:#22c55e;font-family:system-ui;font-size:12px">$50.00</text>
  </g>

  <!-- State 3b: Failed Again -->
  <g transform="translate(570, 190)">
    <rect width="200" height="110" rx="8" fill="#1e293b" stroke="#ef4444"/>
    <text x="100" y="25" text-anchor="middle" class="heading-sm">3b. FAILED AGAIN</text>

    <rect x="15" y="40" width="170" height="60" rx="6" fill="#0f172a"/>
    <text x="25" y="60" class="text-sm">One-time donation</text>
    <text x="25" y="78" style="fill:#ef4444;font-family:system-ui;font-size:10px">Attempt 3/3 exhausted</text>
    <text x="140" y="70" style="fill:#fff;font-family:system-ui;font-size:12px">$50.00</text>
  </g>

  <!-- ==================== CONFIRMATION DIALOGS ==================== -->
  <text x="800" y="85" class="label-section">CONFIRMATION DIALOGS (NFR-007)</text>

  <!-- Cancel Single Payment -->
  <g transform="translate(800, 100)">
    <rect width="280" height="160" rx="12" fill="#1e293b" stroke="#ef4444" stroke-width="2"/>

    <text x="140" y="30" text-anchor="middle" class="heading">Cancel Payment?</text>

    <text x="20" y="60" class="text-md">Are you sure you want to cancel this</text>
    <text x="20" y="78" class="text-md">pending payment?</text>

    <rect x="20" y="90" width="240" height="30" rx="6" fill="#0f172a"/>
    <text x="30" y="110" class="text-sm">Pro Plan - Monthly</text>
    <text x="210" y="110" class="text-sm">$29.00</text>

    <rect x="20" y="130" width="115" height="24" rx="4" fill="#334155"/>
    <text x="55" y="146" class="text-sm">Keep</text>
    <rect x="145" y="130" width="115" height="24" rx="4" fill="#ef4444"/>
    <text x="182" y="146" style="fill:#fff;font-family:system-ui;font-size:10px">Cancel Payment</text>
  </g>

  <!-- Clear All Confirmation -->
  <g transform="translate(1100, 100)">
    <rect width="280" height="180" rx="12" fill="#1e293b" stroke="#ef4444" stroke-width="2"/>

    <text x="140" y="30" text-anchor="middle" class="heading">Clear All Payments?</text>

    <text x="20" y="60" class="text-md">This will remove all 3 pending</text>
    <text x="20" y="78" class="text-md">payments from the queue.</text>

    <rect x="20" y="95" width="240" height="40" rx="6" fill="#ef4444" opacity="0.1"/>
    <text x="30" y="115" style="fill:#ef4444;font-family:system-ui;font-size:11px;font-weight:bold">⚠ This action cannot be undone</text>
    <text x="30" y="130" class="text-muted">Total: $278.00 will not be charged</text>

    <rect x="20" y="145" width="115" height="24" rx="4" fill="#334155"/>
    <text x="55" y="161" class="text-sm">Keep All</text>
    <rect x="145" y="145" width="115" height="24" rx="4" fill="#ef4444"/>
    <text x="175" y="161" style="fill:#fff;font-family:system-ui;font-size:10px">Clear All (3)</text>
  </g>

  <!-- ==================== RETRY ALL FLOW ==================== -->
  <text x="40" y="320" class="label-section">RETRY ALL FLOW (FR-011)</text>

  <g transform="translate(40, 340)">
    <rect width="400" height="200" rx="8" fill="#1e293b" stroke="#475569"/>
    <text x="200" y="25" text-anchor="middle" class="heading-sm">Batch Retry Progress</text>

    <!-- Progress bar -->
    <rect x="20" y="45" width="360" height="8" rx="4" fill="#334155"/>
    <rect x="20" y="45" width="180" height="8" rx="4" fill="#8b5cf6"/>
    <text x="200" y="68" text-anchor="middle" class="text-sm">Retrying 2 of 4 failed payments...</text>

    <!-- Item statuses -->
    <g transform="translate(20, 85)">
      <rect width="360" height="30" rx="4" fill="#22c55e" opacity="0.1"/>
      <circle cx="15" cy="15" r="6" fill="#22c55e"/>
      <text x="30" y="20" class="text-sm">Payment #1 - $29.00</text>
      <text x="300" y="20" style="fill:#22c55e;font-family:system-ui;font-size:10px">✓ Done</text>
    </g>

    <g transform="translate(20, 120)">
      <rect width="360" height="30" rx="4" fill="#8b5cf6" opacity="0.1"/>
      <g transform="translate(15, 15)">
        <circle cx="0" cy="0" r="6" fill="none" stroke="#334155" stroke-width="1.5"/>
        <path d="M 0 -6 A 6 6 0 0 1 6 0" fill="none" stroke="#8b5cf6" stroke-width="1.5" stroke-linecap="round">
          <animateTransform attributeName="transform" type="rotate" from="0" to="360" dur="1s" repeatCount="indefinite"/>
        </path>
      </g>
      <text x="30" y="20" class="text-sm">Payment #2 - $50.00</text>
      <text x="280" y="20" style="fill:#8b5cf6;font-family:system-ui;font-size:10px">Processing</text>
    </g>

    <g transform="translate(20, 155)">
      <rect width="360" height="30" rx="4" fill="#334155"/>
      <circle cx="15" cy="15" r="6" fill="#475569"/>
      <text x="30" y="20" class="text-muted">Payment #3 - $15.00</text>
      <text x="300" y="20" class="text-muted">Waiting</text>
    </g>
  </g>

  <!-- ==================== ERROR STATES ==================== -->
  <text x="480" y="320" class="label-section">ERROR STATES</text>

  <!-- Network Error -->
  <g transform="translate(480, 340)">
    <rect width="280" height="120" rx="8" fill="#1e293b" stroke="#ef4444"/>
    <text x="140" y="25" text-anchor="middle" class="heading-sm">Network Error</text>

    <text x="20" y="55" class="text-md">Unable to connect to payment</text>
    <text x="20" y="73" class="text-md">server. Please try again.</text>

    <rect x="20" y="88" width="240" height="24" rx="4" fill="#334155"/>
    <text x="140" y="104" text-anchor="middle" class="text-sm">Waiting for connection...</text>
  </g>

  <!-- Rate Limited -->
  <g transform="translate(780, 340)">
    <rect width="280" height="120" rx="8" fill="#1e293b" stroke="#eab308"/>
    <text x="140" y="25" text-anchor="middle" class="heading-sm">Rate Limited (FR-014)</text>

    <text x="20" y="55" style="fill:#eab308;font-family:system-ui;font-size:12px">Too many retry attempts.</text>
    <text x="20" y="73" class="text-md">Please wait before trying again.</text>

    <rect x="20" y="88" width="240" height="24" rx="4" fill="#eab308" opacity="0.2"/>
    <text x="140" y="104" text-anchor="middle" style="fill:#eab308;font-family:system-ui;font-size:10px">Retry available in 2:34</text>
  </g>

  <!-- Card Invalid -->
  <g transform="translate(1080, 340)">
    <rect width="280" height="120" rx="8" fill="#1e293b" stroke="#ef4444"/>
    <text x="140" y="25" text-anchor="middle" class="heading-sm">Payment Method Invalid</text>

    <text x="20" y="55" class="text-md">Your card ending in •••• 1234</text>
    <text x="20" y="73" class="text-md">has expired or been removed.</text>

    <rect x="20" y="88" width="115" height="24" rx="4" fill="#334155"/>
    <text x="52" y="104" class="text-sm">Cancel</text>
    <rect x="145" y="88" width="115" height="24" rx="4" fill="#8b5cf6"/>
    <text x="175" y="104" style="fill:#fff;font-family:system-ui;font-size:10px">Update Card</text>
  </g>

  <!-- ==================== AUTOMATIC SYNC ==================== -->
  <text x="40" y="570" class="label-section">AUTOMATIC SYNC BEHAVIOR (NFR-003)</text>

  <g transform="translate(40, 590)">
    <rect width="620" height="140" rx="8" fill="#1e293b" stroke="#475569"/>

    <!-- Timeline -->
    <line x1="30" y1="70" x2="590" y2="70" stroke="#475569" stroke-width="2"/>

    <!-- State 1: Offline -->
    <g transform="translate(50, 30)">
      <circle cy="40" r="12" fill="#ef4444"/>
      <text x="0" y="0" text-anchor="middle" class="text-muted">OFFLINE</text>
      <text x="0" y="75" text-anchor="middle" class="text-sm">Queue builds</text>
    </g>

    <!-- State 2: Connection Detected -->
    <g transform="translate(200, 30)">
      <circle cy="40" r="12" fill="#eab308"/>
      <text x="0" y="0" text-anchor="middle" class="text-muted">DETECTED</text>
      <text x="0" y="75" text-anchor="middle" class="text-sm">Connection found</text>
    </g>

    <!-- State 3: Auto-Syncing -->
    <g transform="translate(350, 30)">
      <circle cy="40" r="12" fill="#8b5cf6">
        <animate attributeName="opacity" values="1;0.5;1" dur="1s" repeatCount="indefinite"/>
      </circle>
      <text x="0" y="0" text-anchor="middle" class="text-muted">SYNCING</text>
      <text x="0" y="75" text-anchor="middle" class="text-sm">Auto-processing</text>
    </g>

    <!-- State 4: Complete -->
    <g transform="translate(500, 30)">
      <circle cy="40" r="12" fill="#22c55e"/>
      <text x="0" y="0" text-anchor="middle" class="text-muted">COMPLETE</text>
      <text x="0" y="75" text-anchor="middle" class="text-sm">Queue cleared</text>
    </g>

    <!-- Arrows -->
    <line x1="65" y1="70" x2="185" y2="70" stroke="#8b5cf6" stroke-width="2" marker-end="url(#arrowhead)"/>
    <line x1="215" y1="70" x2="335" y2="70" stroke="#8b5cf6" stroke-width="2" marker-end="url(#arrowhead)"/>
    <line x1="365" y1="70" x2="485" y2="70" stroke="#8b5cf6" stroke-width="2" marker-end="url(#arrowhead)"/>

    <text x="310" y="130" text-anchor="middle" class="text-muted">Automatic - no user action required when connection is restored</text>
  </g>

  <!-- ==================== ACCESSIBILITY NOTES ==================== -->
  <text x="700" y="570" class="label-section">ACCESSIBILITY (NFR-008, NFR-009)</text>

  <g transform="translate(700, 590)">
    <rect width="340" height="140" rx="8" fill="#1e293b" stroke="#475569"/>

    <text x="15" y="30" class="heading-sm">Screen Reader Announcements</text>

    <text x="15" y="55" class="code">aria-live="polite"</text>
    <text x="15" y="75" class="text-sm">"3 payments pending. 1 failed."</text>

    <text x="15" y="100" class="code">aria-live="assertive"</text>
    <text x="15" y="120" class="text-sm">"Payment failed: Card declined. Retry available."</text>
  </g>

  <g transform="translate(1060, 590)">
    <rect width="300" height="140" rx="8" fill="#1e293b" stroke="#475569"/>

    <text x="15" y="30" class="heading-sm">Keyboard Navigation</text>

    <text x="15" y="55" class="text-sm">Tab → Navigate queue items</text>
    <text x="15" y="75" class="text-sm">Enter → Expand/collapse details</text>
    <text x="15" y="95" class="text-sm">R → Retry focused payment</text>
    <text x="15" y="115" class="text-sm">Delete → Cancel (shows confirm)</text>
    <text x="15" y="135" class="text-sm">Escape → Close dialogs</text>
  </g>

  <!-- Footer -->
  <g transform="translate(40, 860)">
    <text x="0" y="0" class="text-muted">Success Criteria: SC-001 Badge accuracy | SC-002 All payments visible | SC-003 Retry works | SC-004 Persists across sessions | SC-005 Clear feedback</text>
  </g>
</svg>