<svg xmlns="http://www.w3.org/2000/svg" viewBox="0 0 1400 800" width="1400" height="800">
  <!-- ============================================================
       GENERATED BY: /wireframe skill
       SOURCE: features/payments/039-payment-offline-queue/spec.md
       DATE: 2026-01-01
       THEME: Light (UX/Frontend) - v3 True Parchment
       DO NOT MANUALLY EDIT - Regenerate with /wireframe command
       ============================================================ -->
  <defs>
    <linearGradient id="bgGrad" x1="0%" y1="0%" x2="100%" y2="100%">
      <stop offset="0%" style="stop-color:#c7ddf5"/>
      <stop offset="100%" style="stop-color:#b8d4f0"/>
    </linearGradient>
    <linearGradient id="accentGrad" x1="0%" y1="0%" x2="100%" y2="0%">
      <stop offset="0%" style="stop-color:#8b5cf6"/>
      <stop offset="100%" style="stop-color:#d946ef"/>
    </linearGradient>
    <style>
      .heading-lg { fill: #1a1a2e; font-family: system-ui, sans-serif; font-size: 24px; font-weight: 800; }
      .heading { fill: #1a1a2e; font-family: system-ui, sans-serif; font-size: 16px; font-weight: 700; }
      .text-md { fill: #2d3748; font-family: system-ui, sans-serif; font-size: 14px; font-weight: 500; }
      .text-sm { fill: #374151; font-family: system-ui, sans-serif; font-size: 12px; font-weight: 500; }
      .text-muted { fill: #4b5563; font-family: system-ui, sans-serif; font-size: 11px; font-weight: 500; }
      .annotation { fill: #6d28d9; font-family: monospace; font-size: 12px; font-weight: 600; }
      .label-desktop { fill: #8b5cf6; font-family: monospace; font-size: 13px; font-weight: bold; }
      .label-mobile { fill: #d946ef; font-family: monospace; font-size: 13px; font-weight: bold; }
    </style>
  </defs>

  <!-- Background -->
  <rect width="1400" height="800" fill="url(#bgGrad)"/>

  <!-- Dot grid pattern -->
  <g opacity="0.35">
    <pattern id="dots" width="30" height="30" patternUnits="userSpaceOnUse">
      <circle cx="15" cy="15" r="1" fill="#6b8cba"/>
    </pattern>
    <rect width="1400" height="800" fill="url(#dots)"/>
  </g>

  <!-- Accent line top -->
  <rect x="0" y="0" width="1400" height="3" fill="url(#accentGrad)"/>

  <!-- Title -->
  <text x="700" y="28" text-anchor="middle" font-family="system-ui, sans-serif" font-size="14" font-weight="600" fill="#4b5563" letter-spacing="1">039 PAYMENT OFFLINE QUEUE - STATES &amp; DIALOGS</text>

  <!-- DESKTOP SECTION -->
  <text x="40" y="52" class="label-desktop">DESKTOP STATES</text>

  <g id="desktop-view">
    <!-- Empty State -->
    <g transform="translate(40, 70)">
      <rect x="0" y="0" width="420" height="280" rx="8" fill="#e8d4b8" stroke="#b8a080" stroke-width="1"/>
      <text x="20" y="30" class="heading">Empty Queue State</text>

      <!-- Empty illustration placeholder -->
      <rect x="130" y="60" width="160" height="100" rx="8" fill="#dcc8a8"/>
      <circle cx="210" cy="100" r="25" fill="none" stroke="#94a3b8" stroke-width="2" stroke-dasharray="4,2"/>
      <text x="210" y="106" text-anchor="middle" fill="#94a3b8" font-size="20">$</text>
      <text x="210" y="145" text-anchor="middle" class="text-muted">No icon</text>

      <text x="210" y="185" text-anchor="middle" class="heading">No Pending Payments</text>
      <text x="210" y="210" text-anchor="middle" class="text-sm">All your offline payments have been processed.</text>
      <text x="210" y="230" text-anchor="middle" class="text-sm">New payments made offline will appear here.</text>

      <rect x="130" y="245" width="160" height="30" rx="6" fill="#8b5cf6"/>
      <text x="210" y="265" text-anchor="middle" fill="#fff" font-size="12">Go to Dashboard</text>
    </g>

    <!-- Syncing State -->
    <g transform="translate(480, 70)">
      <rect x="0" y="0" width="420" height="280" rx="8" fill="#e8d4b8" stroke="#22c55e" stroke-width="2"/>
      <text x="20" y="30" class="heading">Syncing State (FR-003)</text>

      <!-- Progress indicator -->
      <rect x="20" y="60" width="380" height="8" rx="4" fill="#dcc8a8"/>
      <rect x="20" y="60" width="228" height="8" rx="4" fill="#22c55e"/>

      <text x="210" y="95" text-anchor="middle" class="text-md">Processing 3 of 5 payments...</text>

      <!-- Current payment being processed -->
      <rect x="20" y="115" width="380" height="70" rx="6" fill="#f5f0e6" stroke="#22c55e" stroke-width="1"/>
      <text x="40" y="140" class="text-sm">Currently processing:</text>
      <text x="40" y="165" class="heading">Monthly Subscription - $29.99</text>

      <!-- Spinner representation -->
      <circle cx="370" cy="150" r="15" fill="none" stroke="#22c55e" stroke-width="3" stroke-dasharray="70,30"/>

      <!-- Cancel sync option -->
      <rect x="140" y="200" width="140" height="36" rx="6" fill="none" stroke="#ef4444" stroke-width="1"/>
      <text x="210" y="223" text-anchor="middle" fill="#ef4444" font-size="12">Cancel Sync</text>

      <text x="210" y="260" text-anchor="middle" class="text-muted">Estimated time: ~30 seconds</text>
    </g>

    <!-- Error State -->
    <g transform="translate(40, 370)">
      <rect x="0" y="0" width="420" height="280" rx="8" fill="#e8d4b8" stroke="#ef4444" stroke-width="2"/>
      <text x="20" y="30" class="heading">Queue Error State</text>

      <!-- Error icon -->
      <circle cx="210" cy="90" r="30" fill="#fee2e2"/>
      <text x="210" y="100" text-anchor="middle" fill="#ef4444" font-size="28" font-weight="bold">!</text>

      <text x="210" y="145" text-anchor="middle" fill="#ef4444" font-family="system-ui" font-size="16" font-weight="700">Queue Storage Error</text>
      <text x="210" y="170" text-anchor="middle" class="text-sm">Unable to load your payment queue.</text>
      <text x="210" y="190" text-anchor="middle" class="text-sm">Your data may be corrupted or unavailable.</text>

      <!-- Recovery options -->
      <rect x="40" y="210" width="160" height="36" rx="6" fill="#8b5cf6"/>
      <text x="120" y="233" text-anchor="middle" fill="#fff" font-size="12">Try Again</text>

      <rect x="220" y="210" width="160" height="36" rx="6" fill="none" stroke="#374151" stroke-width="1"/>
      <text x="300" y="233" text-anchor="middle" class="text-md">Contact Support</text>

      <text x="210" y="270" text-anchor="middle" class="text-muted">Edge case: storage corruption recovery</text>
    </g>

    <!-- Confirmation Dialog: Clear All -->
    <g transform="translate(480, 370)">
      <rect x="0" y="0" width="420" height="280" rx="8" fill="#e8d4b8" stroke="#b8a080" stroke-width="1"/>
      <text x="20" y="30" class="heading">Clear All Confirmation (NFR-007)</text>

      <!-- Modal overlay simulation -->
      <rect x="30" y="50" width="360" height="200" rx="8" fill="#f5f0e6" stroke="#ef4444" stroke-width="2"/>

      <!-- Warning icon -->
      <circle cx="210" cy="85" r="20" fill="#fee2e2"/>
      <text x="210" y="92" text-anchor="middle" fill="#ef4444" font-size="18" font-weight="bold">!</text>

      <text x="210" y="125" text-anchor="middle" class="heading">Clear All Payments?</text>
      <text x="210" y="150" text-anchor="middle" class="text-sm">This will remove all 3 pending payments.</text>
      <text x="210" y="170" text-anchor="middle" class="text-sm">This action cannot be undone.</text>

      <!-- Dialog buttons -->
      <rect x="75" y="190" width="120" height="36" rx="6" fill="none" stroke="#374151" stroke-width="1"/>
      <text x="135" y="213" text-anchor="middle" class="text-md">Cancel</text>

      <rect x="215" y="190" width="120" height="36" rx="6" fill="#ef4444"/>
      <text x="275" y="213" text-anchor="middle" fill="#fff" font-size="12">Clear All</text>

      <text x="210" y="270" text-anchor="middle" class="text-muted">User Story 4: Destructive action requires confirmation</text>
    </g>
  </g>

  <!-- MOBILE SECTION -->
  <text x="980" y="52" class="label-mobile">MOBILE STATES</text>
  <g id="mobile-view" transform="translate(950, 60)">
    <!-- Phone 1: Empty State -->
    <g transform="translate(0, 0)">
      <rect x="0" y="0" width="200" height="340" rx="16" fill="#c8b898" stroke="#a08860" stroke-width="1"/>
      <rect x="6" y="6" width="188" height="328" rx="12" fill="#e8d4b8"/>

      <!-- Status bar -->
      <rect x="6" y="6" width="188" height="20" rx="12" fill="#dcc8a8"/>
      <text x="20" y="20" font-size="9" fill="#374151">9:41</text>

      <!-- Header -->
      <text x="100" y="48" text-anchor="middle" font-size="12" font-weight="bold" fill="#1a1a2e">Offline Queue</text>

      <!-- Empty state -->
      <circle cx="100" cy="120" r="25" fill="none" stroke="#94a3b8" stroke-width="1.5" stroke-dasharray="3,2"/>
      <text x="100" y="126" text-anchor="middle" fill="#94a3b8" font-size="16">$</text>

      <text x="100" y="170" text-anchor="middle" font-size="11" font-weight="600" fill="#1a1a2e">No Payments</text>
      <text x="100" y="190" text-anchor="middle" font-size="9" fill="#4b5563">Queue is empty</text>

      <rect x="50" y="210" width="100" height="28" rx="6" fill="#8b5cf6"/>
      <text x="100" y="229" text-anchor="middle" fill="#fff" font-size="9">Dashboard</text>

      <text x="100" y="320" text-anchor="middle" font-size="9" fill="#8b5cf6" font-weight="600">EMPTY</text>
    </g>

    <!-- Phone 2: Syncing -->
    <g transform="translate(220, 0)">
      <rect x="0" y="0" width="200" height="340" rx="16" fill="#c8b898" stroke="#a08860" stroke-width="1"/>
      <rect x="6" y="6" width="188" height="328" rx="12" fill="#e8d4b8"/>

      <rect x="6" y="6" width="188" height="20" rx="12" fill="#dcc8a8"/>
      <text x="20" y="20" font-size="9" fill="#374151">9:41</text>

      <text x="100" y="48" text-anchor="middle" font-size="12" font-weight="bold" fill="#1a1a2e">Syncing...</text>

      <!-- Progress bar -->
      <rect x="20" y="70" width="160" height="6" rx="3" fill="#dcc8a8"/>
      <rect x="20" y="70" width="96" height="6" rx="3" fill="#22c55e"/>

      <text x="100" y="100" text-anchor="middle" font-size="10" fill="#2d3748">3 of 5 payments</text>

      <!-- Current item -->
      <rect x="15" y="115" width="170" height="50" rx="6" fill="#f5f0e6" stroke="#22c55e"/>
      <text x="25" y="135" font-size="9" fill="#374151">Processing:</text>
      <text x="25" y="152" font-size="10" font-weight="600" fill="#1a1a2e">Subscription $29.99</text>

      <!-- Spinner -->
      <circle cx="165" cy="140" r="10" fill="none" stroke="#22c55e" stroke-width="2" stroke-dasharray="50,20"/>

      <rect x="50" y="180" width="100" height="28" rx="6" fill="none" stroke="#ef4444"/>
      <text x="100" y="199" text-anchor="middle" fill="#ef4444" font-size="9">Cancel</text>

      <text x="100" y="320" text-anchor="middle" font-size="9" fill="#22c55e" font-weight="600">SYNCING</text>
    </g>

    <!-- Phone 3: Confirmation dialog -->
    <g transform="translate(110, 360)">
      <rect x="0" y="0" width="200" height="340" rx="16" fill="#c8b898" stroke="#a08860" stroke-width="1"/>
      <rect x="6" y="6" width="188" height="328" rx="12" fill="#e8d4b8"/>

      <!-- Dimmed background -->
      <rect x="6" y="6" width="188" height="328" rx="12" fill="#1a1a2e" opacity="0.3"/>

      <!-- Modal -->
      <rect x="20" y="90" width="160" height="160" rx="12" fill="#f5f0e6" stroke="#ef4444" stroke-width="2"/>

      <circle cx="100" cy="120" r="15" fill="#fee2e2"/>
      <text x="100" y="126" text-anchor="middle" fill="#ef4444" font-size="14" font-weight="bold">!</text>

      <text x="100" y="155" text-anchor="middle" font-size="11" font-weight="700" fill="#1a1a2e">Clear All?</text>
      <text x="100" y="175" text-anchor="middle" font-size="9" fill="#374151">Remove 3 payments</text>

      <rect x="30" y="195" width="60" height="28" rx="6" fill="none" stroke="#374151"/>
      <text x="60" y="214" text-anchor="middle" font-size="9" fill="#374151">No</text>

      <rect x="105" y="195" width="65" height="28" rx="6" fill="#ef4444"/>
      <text x="137" y="214" text-anchor="middle" fill="#fff" font-size="9">Clear</text>

      <text x="100" y="320" text-anchor="middle" font-size="9" fill="#ef4444" font-weight="600">CONFIRM</text>
    </g>
  </g>

  <!-- Edge Cases annotation box -->
  <g transform="translate(920, 480)">
    <rect x="0" y="0" width="460" height="280" rx="8" fill="#e8d4b8" stroke="#8b5cf6" stroke-width="2"/>
    <text x="20" y="30" class="heading">Edge Cases Handled</text>

    <text x="20" y="60" class="annotation">1. Device comes online during viewing</text>
    <text x="35" y="80" class="text-sm">→ Auto-begin processing; real-time UI update</text>

    <text x="20" y="110" class="annotation">2. Payment becomes invalid (expired card)</text>
    <text x="35" y="130" class="text-sm">→ Show error status with specific reason</text>

    <text x="20" y="160" class="annotation">3. Intermittent network during retry</text>
    <text x="35" y="180" class="text-sm">→ Queue retry; show "waiting for connection"</text>

    <text x="20" y="210" class="annotation">4. Cancel during processing</text>
    <text x="35" y="230" class="text-sm">→ Disable cancel; show processing status</text>

    <text x="20" y="260" class="annotation">5. Queue storage corrupted</text>
    <text x="35" y="275" class="text-sm">→ Error state with recovery options</text>
  </g>
</svg>
