<svg xmlns="http://www.w3.org/2000/svg" viewBox="0 0 1400 800" width="1400" height="800">
  <!-- ============================================================
       GENERATED BY: /wireframe skill
       SOURCE: features/integrations/023-emailjs-integration/spec.md
       DATE: 2025-12-31
       DO NOT MANUALLY EDIT - Regenerate with /wireframe command
       ============================================================ -->
  <defs>
    <linearGradient id="bgGrad" x1="0%" y1="0%" x2="100%" y2="100%">
      <stop offset="0%" style="stop-color:#0f172a"/>
      <stop offset="100%" style="stop-color:#1e293b"/>
    </linearGradient>
    <linearGradient id="accentGrad" x1="0%" y1="0%" x2="100%" y2="0%">
      <stop offset="0%" style="stop-color:#8b5cf6"/>
      <stop offset="100%" style="stop-color:#d946ef"/>
    </linearGradient>
    <linearGradient id="successGrad" x1="0%" y1="0%" x2="100%" y2="0%">
      <stop offset="0%" style="stop-color:#22c55e"/>
      <stop offset="100%" style="stop-color:#16a34a"/>
    </linearGradient>
    <marker id="arrowhead" markerWidth="10" markerHeight="7" refX="9" refY="3.5" orient="auto">
      <polygon points="0 0, 10 3.5, 0 7" fill="#8b5cf6"/>
    </marker>
    <marker id="arrowheadGreen" markerWidth="10" markerHeight="7" refX="9" refY="3.5" orient="auto">
      <polygon points="0 0, 10 3.5, 0 7" fill="#22c55e"/>
    </marker>
    <marker id="arrowheadRed" markerWidth="10" markerHeight="7" refX="9" refY="3.5" orient="auto">
      <polygon points="0 0, 10 3.5, 0 7" fill="#ef4444"/>
    </marker>
    <marker id="arrowheadYellow" markerWidth="10" markerHeight="7" refX="9" refY="3.5" orient="auto">
      <polygon points="0 0, 10 3.5, 0 7" fill="#eab308"/>
    </marker>
    <style>
      .heading-lg { fill: #ffffff; font-family: system-ui, sans-serif; font-size: 20px; font-weight: bold; }
      .heading { fill: #ffffff; font-family: system-ui, sans-serif; font-size: 14px; font-weight: bold; }
      .heading-sm { fill: #ffffff; font-family: system-ui, sans-serif; font-size: 12px; font-weight: bold; }
      .text-md { fill: #cbd5e1; font-family: system-ui, sans-serif; font-size: 12px; }
      .text-sm { fill: #94a3b8; font-family: system-ui, sans-serif; font-size: 10px; }
      .text-muted { fill: #64748b; font-family: system-ui, sans-serif; font-size: 10px; }
      .annotation { fill: #8b5cf6; font-family: monospace; font-size: 10px; }
      .label-primary { fill: #22c55e; font-family: monospace; font-size: 10px; font-weight: bold; }
      .label-backup { fill: #eab308; font-family: monospace; font-size: 10px; font-weight: bold; }
      .label-error { fill: #ef4444; font-family: monospace; font-size: 10px; font-weight: bold; }
    </style>
  </defs>

  <!-- Background -->
  <rect width="1400" height="800" fill="url(#bgGrad)"/>

  <!-- Dot grid pattern -->
  <g opacity="0.05">
    <pattern id="dots" width="30" height="30" patternUnits="userSpaceOnUse">
      <circle cx="15" cy="15" r="1" fill="#fff"/>
    </pattern>
    <rect width="1400" height="800" fill="url(#dots)"/>
  </g>

  <!-- Accent line top -->
  <rect x="0" y="0" width="1400" height="3" fill="url(#accentGrad)"/>

  <!-- Title -->
  <text x="700" y="32" text-anchor="middle" class="heading-lg">EMAIL SERVICE REDUNDANCY - FAILOVER ARCHITECTURE</text>
  <text x="700" y="52" text-anchor="middle" class="text-muted">Feature 023 - Automatic Provider Failover with Intelligent Retry</text>

  <!-- ========== LEFT SIDE: USER/FORM INPUT ========== -->
  <g transform="translate(40, 80)">
    <rect width="160" height="120" rx="8" fill="#1e293b" stroke="#8b5cf6" stroke-width="2"/>
    <text x="80" y="30" text-anchor="middle" class="heading">Contact Form</text>
    <!-- Form icon -->
    <rect x="40" y="45" width="80" height="60" rx="4" fill="#334155"/>
    <rect x="48" y="52" width="64" height="8" rx="2" fill="#64748b"/>
    <rect x="48" y="64" width="64" height="8" rx="2" fill="#64748b"/>
    <rect x="48" y="76" width="40" height="8" rx="2" fill="#64748b"/>
    <rect x="48" y="90" width="64" height="12" rx="2" fill="#8b5cf6"/>
    <text x="80" y="100" text-anchor="middle" font-size="8" fill="#fff">SEND</text>
  </g>

  <!-- Arrow from form to service -->
  <line x1="200" y1="140" x2="280" y2="140" stroke="#8b5cf6" stroke-width="2" marker-end="url(#arrowhead)"/>
  <text x="240" y="130" text-anchor="middle" class="text-sm">Submit</text>

  <!-- ========== CENTER: EMAIL SERVICE ABSTRACTION ========== -->
  <g transform="translate(280, 80)">
    <rect width="200" height="120" rx="8" fill="#1e293b" stroke="#d946ef" stroke-width="2"/>
    <text x="100" y="25" text-anchor="middle" class="heading">Email Service</text>
    <text x="100" y="42" text-anchor="middle" class="text-sm">Abstraction Layer</text>
    <!-- Interface icon -->
    <rect x="60" y="55" width="80" height="50" rx="4" fill="#334155" stroke="#d946ef" stroke-width="1"/>
    <text x="100" y="75" text-anchor="middle" class="annotation">IEmailProvider</text>
    <text x="100" y="90" text-anchor="middle" class="text-muted">.send(message)</text>
  </g>

  <!-- ========== DECISION DIAMOND: TRY PRIMARY ========== -->
  <g transform="translate(530, 100)">
    <polygon points="70,0 140,50 70,100 0,50" fill="#1e293b" stroke="#22c55e" stroke-width="2"/>
    <text x="70" y="45" text-anchor="middle" class="heading-sm">Try</text>
    <text x="70" y="60" text-anchor="middle" class="text-sm">Primary?</text>
  </g>

  <!-- Arrow from service to primary decision -->
  <line x1="480" y1="140" x2="530" y2="150" stroke="#8b5cf6" stroke-width="2" marker-end="url(#arrowhead)"/>

  <!-- ========== PRIMARY PROVIDER (Web3Forms) ========== -->
  <g transform="translate(720, 60)">
    <rect width="160" height="80" rx="8" fill="#1e293b" stroke="#22c55e" stroke-width="2"/>
    <rect x="0" y="0" width="160" height="24" rx="8" fill="#22c55e" opacity="0.2"/>
    <text x="80" y="17" text-anchor="middle" class="label-primary">PRIMARY</text>
    <text x="80" y="42" text-anchor="middle" class="heading">Web3Forms</text>
    <text x="80" y="58" text-anchor="middle" class="text-sm">Priority: 1</text>
    <text x="80" y="72" text-anchor="middle" class="text-muted">api.web3forms.com</text>
  </g>

  <!-- Arrow to primary -->
  <line x1="670" y1="150" x2="720" y2="100" stroke="#22c55e" stroke-width="2" marker-end="url(#arrowheadGreen)"/>
  <text x="695" y="110" text-anchor="middle" class="label-primary">YES</text>

  <!-- ========== SUCCESS PATH FROM PRIMARY ========== -->
  <g transform="translate(920, 60)">
    <rect width="120" height="80" rx="8" fill="#22c55e" opacity="0.15" stroke="#22c55e" stroke-width="2"/>
    <circle cx="60" cy="30" r="16" fill="#22c55e" opacity="0.3"/>
    <path d="M50 30 L56 36 L70 22" stroke="#22c55e" stroke-width="3" fill="none"/>
    <text x="60" y="58" text-anchor="middle" class="heading-sm" fill="#22c55e">Delivered</text>
    <text x="60" y="72" text-anchor="middle" class="text-sm">Reset counters</text>
  </g>

  <!-- Arrow from primary to success -->
  <line x1="880" y1="100" x2="920" y2="100" stroke="#22c55e" stroke-width="2" marker-end="url(#arrowheadGreen)"/>

  <!-- ========== RETRY LOGIC SECTION ========== -->
  <g transform="translate(720, 180)">
    <rect width="160" height="100" rx="8" fill="#1e293b" stroke="#eab308" stroke-width="2"/>
    <text x="80" y="22" text-anchor="middle" class="heading-sm">Retry Logic</text>
    <text x="80" y="42" text-anchor="middle" class="text-sm">Exponential backoff</text>
    <!-- Retry attempts -->
    <g transform="translate(20, 50)">
      <rect width="35" height="20" rx="4" fill="#eab308" opacity="0.2"/>
      <text x="17" y="14" text-anchor="middle" class="text-muted">1s</text>
    </g>
    <g transform="translate(62, 50)">
      <rect width="35" height="20" rx="4" fill="#eab308" opacity="0.3"/>
      <text x="17" y="14" text-anchor="middle" class="text-muted">2s</text>
    </g>
    <g transform="translate(104, 50)">
      <rect width="35" height="20" rx="4" fill="#eab308" opacity="0.4"/>
      <text x="17" y="14" text-anchor="middle" class="text-muted">4s</text>
    </g>
    <text x="80" y="88" text-anchor="middle" class="text-muted">Max: 3 attempts</text>
  </g>

  <!-- Arrow from primary fail to retry -->
  <path d="M 800 140 L 800 180" stroke="#eab308" stroke-width="2" marker-end="url(#arrowheadYellow)"/>
  <text x="815" y="160" class="label-error">FAIL</text>

  <!-- Arrow retry loop back to primary -->
  <path d="M 720 230 L 680 230 L 680 150 L 720 100" stroke="#eab308" stroke-width="2" stroke-dasharray="4,2" marker-end="url(#arrowheadYellow)"/>
  <text x="660" y="190" text-anchor="end" class="text-muted">retry</text>

  <!-- ========== FAILOVER DECISION ========== -->
  <g transform="translate(550, 320)">
    <polygon points="70,0 140,50 70,100 0,50" fill="#1e293b" stroke="#ef4444" stroke-width="2"/>
    <text x="70" y="40" text-anchor="middle" class="heading-sm">Max</text>
    <text x="70" y="55" text-anchor="middle" class="heading-sm">Retries?</text>
    <text x="70" y="72" text-anchor="middle" class="text-muted">(3 attempts)</text>
  </g>

  <!-- Arrow from retry to failover decision -->
  <path d="M 800 280 L 800 330 L 690 370" stroke="#ef4444" stroke-width="2" marker-end="url(#arrowheadRed)"/>

  <!-- ========== BACKUP PROVIDER (EmailJS) ========== -->
  <g transform="translate(720, 350)">
    <rect width="160" height="80" rx="8" fill="#1e293b" stroke="#eab308" stroke-width="2"/>
    <rect x="0" y="0" width="160" height="24" rx="8" fill="#eab308" opacity="0.2"/>
    <text x="80" y="17" text-anchor="middle" class="label-backup">BACKUP</text>
    <text x="80" y="42" text-anchor="middle" class="heading">EmailJS</text>
    <text x="80" y="58" text-anchor="middle" class="text-sm">Priority: 2</text>
    <text x="80" y="72" text-anchor="middle" class="text-muted">api.emailjs.com</text>
  </g>

  <!-- Arrow to backup -->
  <line x1="690" y1="370" x2="720" y2="390" stroke="#eab308" stroke-width="2" marker-end="url(#arrowheadYellow)"/>
  <text x="710" y="360" class="label-error">YES → Failover</text>

  <!-- Arrow from backup to success -->
  <line x1="880" y1="390" x2="980" y2="140" stroke="#22c55e" stroke-width="2" marker-end="url(#arrowheadGreen)"/>

  <!-- ========== BOTH FAIL - LOCAL QUEUE ========== -->
  <g transform="translate(720, 480)">
    <rect width="160" height="80" rx="8" fill="#1e293b" stroke="#ef4444" stroke-width="2"/>
    <text x="80" y="22" text-anchor="middle" class="heading-sm" fill="#ef4444">Both Failed</text>
    <text x="80" y="42" text-anchor="middle" class="text-sm">Queue locally</text>
    <!-- Database icon -->
    <ellipse cx="80" cy="58" rx="20" ry="6" fill="#334155" stroke="#ef4444" stroke-width="1"/>
    <rect x="60" y="58" width="40" height="12" fill="#334155"/>
    <ellipse cx="80" cy="70" rx="20" ry="6" fill="#334155" stroke="#ef4444" stroke-width="1"/>
  </g>

  <!-- Arrow from backup fail to queue -->
  <path d="M 800 430 L 800 480" stroke="#ef4444" stroke-width="2" marker-end="url(#arrowheadRed)"/>

  <!-- ========== USER FEEDBACK ========== -->
  <g transform="translate(920, 480)">
    <rect width="140" height="80" rx="8" fill="#1e293b" stroke="#ef4444" stroke-width="2"/>
    <text x="70" y="22" text-anchor="middle" class="heading-sm" fill="#ef4444">User Error</text>
    <text x="70" y="42" text-anchor="middle" class="text-sm">"Saved offline"</text>
    <rect x="20" y="50" width="100" height="24" rx="4" fill="#ef4444" opacity="0.2"/>
    <text x="70" y="66" text-anchor="middle" class="text-sm" fill="#ef4444">RETRY LATER</text>
  </g>

  <!-- Arrow to user error -->
  <line x1="880" y1="520" x2="920" y2="520" stroke="#ef4444" stroke-width="2" marker-end="url(#arrowheadRed)"/>

  <!-- ========== RECOVERY PATH ========== -->
  <g transform="translate(40, 400)">
    <rect width="180" height="160" rx="8" fill="#1e293b" stroke="#22c55e" stroke-width="2" stroke-dasharray="4,2"/>
    <text x="90" y="25" text-anchor="middle" class="heading-sm">Recovery Logic</text>

    <text x="15" y="50" class="text-sm">When primary recovers:</text>
    <text x="15" y="70" class="text-muted">1. Health check succeeds</text>
    <text x="15" y="86" class="text-muted">2. Failure count resets</text>
    <text x="15" y="102" class="text-muted">3. Status → Healthy</text>
    <text x="15" y="118" class="text-muted">4. Next request uses</text>
    <text x="15" y="134" class="text-muted">   primary again (FR-007)</text>

    <!-- Recovery icon -->
    <path d="M 140 130 A 15 15 0 1 1 155 115" fill="none" stroke="#22c55e" stroke-width="2"/>
    <polygon points="155,115 160,120 150,120" fill="#22c55e"/>
  </g>

  <!-- ========== LEGEND ========== -->
  <g transform="translate(40, 600)">
    <rect width="350" height="160" rx="8" fill="#1e293b" stroke="#475569" stroke-width="1"/>
    <text x="20" y="25" class="heading">LEGEND</text>

    <line x1="20" y1="50" x2="60" y2="50" stroke="#22c55e" stroke-width="2"/>
    <text x="70" y="54" class="text-sm">Success path / Primary provider</text>

    <line x1="20" y1="75" x2="60" y2="75" stroke="#eab308" stroke-width="2"/>
    <text x="70" y="79" class="text-sm">Retry / Backup provider</text>

    <line x1="20" y1="100" x2="60" y2="100" stroke="#ef4444" stroke-width="2"/>
    <text x="70" y="104" class="text-sm">Error / Failure path</text>

    <line x1="20" y1="125" x2="60" y2="125" stroke="#8b5cf6" stroke-width="2" stroke-dasharray="4,2"/>
    <text x="70" y="129" class="text-sm">Optional / Async flow</text>

    <rect x="200" y="40" width="60" height="20" rx="4" fill="#22c55e" opacity="0.2"/>
    <text x="230" y="54" text-anchor="middle" class="text-muted">PRIMARY</text>

    <rect x="200" y="70" width="60" height="20" rx="4" fill="#eab308" opacity="0.2"/>
    <text x="230" y="84" text-anchor="middle" class="text-muted">BACKUP</text>

    <rect x="280" y="40" width="50" height="50" rx="4" fill="none" stroke="#d946ef" stroke-width="1"/>
    <text x="305" y="70" text-anchor="middle" class="annotation">Layer</text>
  </g>

  <!-- ========== KEY REQUIREMENTS ========== -->
  <g transform="translate(420, 600)">
    <rect width="540" height="160" rx="8" fill="#1e293b" stroke="#475569" stroke-width="1"/>
    <text x="20" y="25" class="heading">KEY REQUIREMENTS</text>

    <g transform="translate(20, 45)">
      <text x="0" y="0" class="annotation">FR-005</text>
      <text x="50" y="0" class="text-sm">Auto-switch to backup when primary fails</text>
    </g>
    <g transform="translate(20, 65)">
      <text x="0" y="0" class="annotation">FR-006</text>
      <text x="50" y="0" class="text-sm">Provider switching invisible to users</text>
    </g>
    <g transform="translate(20, 85)">
      <text x="0" y="0" class="annotation">FR-007</text>
      <text x="50" y="0" class="text-sm">Return to primary when it recovers</text>
    </g>
    <g transform="translate(20, 105)">
      <text x="0" y="0" class="annotation">FR-010</text>
      <text x="50" y="0" class="text-sm">Exponential backoff between retries</text>
    </g>

    <g transform="translate(290, 45)">
      <text x="0" y="0" class="annotation">SC-002</text>
      <text x="50" y="0" class="text-sm">Failover within 5 seconds</text>
    </g>
    <g transform="translate(290, 65)">
      <text x="0" y="0" class="annotation">SC-003</text>
      <text x="50" y="0" class="text-sm">User response within 10 seconds</text>
    </g>
    <g transform="translate(290, 85)">
      <text x="0" y="0" class="annotation">SC-004</text>
      <text x="50" y="0" class="text-sm">0% user awareness of switching</text>
    </g>
    <g transform="translate(290, 105)">
      <text x="0" y="0" class="annotation">SC-005</text>
      <text x="50" y="0" class="text-sm">100% identical message content</text>
    </g>

    <text x="20" y="140" class="text-muted">Integrates with: F020 (Offline Queue), F022 (Web3Forms Contact Form)</text>
  </g>

  <!-- ========== TIMING INFO ========== -->
  <g transform="translate(1000, 600)">
    <rect width="360" height="160" rx="8" fill="#1e293b" stroke="#475569" stroke-width="1"/>
    <text x="20" y="25" class="heading">TIMING BUDGET</text>

    <g transform="translate(20, 50)">
      <rect width="80" height="30" rx="4" fill="#22c55e" opacity="0.2"/>
      <text x="40" y="20" text-anchor="middle" class="text-sm" fill="#22c55e">Primary</text>
    </g>
    <g transform="translate(110, 50)">
      <rect width="40" height="30" rx="4" fill="#eab308" opacity="0.2"/>
      <text x="20" y="20" text-anchor="middle" class="text-sm">1s</text>
    </g>
    <g transform="translate(160, 50)">
      <rect width="40" height="30" rx="4" fill="#eab308" opacity="0.3"/>
      <text x="20" y="20" text-anchor="middle" class="text-sm">2s</text>
    </g>
    <g transform="translate(210, 50)">
      <rect width="40" height="30" rx="4" fill="#eab308" opacity="0.4"/>
      <text x="20" y="20" text-anchor="middle" class="text-sm">4s</text>
    </g>
    <g transform="translate(260, 50)">
      <rect width="80" height="30" rx="4" fill="#eab308" opacity="0.5"/>
      <text x="40" y="20" text-anchor="middle" class="text-sm" fill="#eab308">Backup</text>
    </g>

    <text x="20" y="105" class="text-sm">Total max time: ~10 seconds</text>
    <text x="20" y="125" class="text-muted">• Primary attempt: ~2s timeout</text>
    <text x="20" y="140" class="text-muted">• 3 retries with backoff: ~7s</text>
  </g>
</svg>