<svg xmlns="http://www.w3.org/2000/svg" viewBox="0 0 1400 800" width="1400" height="800">
  <!-- ============================================================
       GENERATED BY: /wireframe skill
       SOURCE: features/integrations/023-emailjs-integration/spec.md
       DATE: 2026-01-01
       THEME: Dark (Backend/Architecture)
       DO NOT MANUALLY EDIT - Regenerate with /wireframe command
       ============================================================ -->
  <defs>
    <linearGradient id="bgGrad" x1="0%" y1="0%" x2="100%" y2="100%">
      <stop offset="0%" style="stop-color:#0f172a"/>
      <stop offset="100%" style="stop-color:#1e293b"/>
    </linearGradient>
    <linearGradient id="accentGrad" x1="0%" y1="0%" x2="100%" y2="0%">
      <stop offset="0%" style="stop-color:#8b5cf6"/>
      <stop offset="100%" style="stop-color:#d946ef"/>
    </linearGradient>
    <linearGradient id="primaryGrad" x1="0%" y1="0%" x2="0%" y2="100%">
      <stop offset="0%" style="stop-color:#22c55e"/>
      <stop offset="100%" style="stop-color:#16a34a"/>
    </linearGradient>
    <linearGradient id="backupGrad" x1="0%" y1="0%" x2="0%" y2="100%">
      <stop offset="0%" style="stop-color:#f59e0b"/>
      <stop offset="100%" style="stop-color:#d97706"/>
    </linearGradient>
    <linearGradient id="errorGrad" x1="0%" y1="0%" x2="0%" y2="100%">
      <stop offset="0%" style="stop-color:#ef4444"/>
      <stop offset="100%" style="stop-color:#dc2626"/>
    </linearGradient>
    <style>
      .heading-lg { fill: #ffffff; font-family: system-ui, sans-serif; font-size: 20px; font-weight: bold; }
      .heading { fill: #ffffff; font-family: system-ui, sans-serif; font-size: 14px; font-weight: bold; }
      .text-md { fill: #cbd5e1; font-family: system-ui, sans-serif; font-size: 12px; }
      .text-sm { fill: #94a3b8; font-family: system-ui, sans-serif; font-size: 10px; }
      .text-muted { fill: #8494a8; font-family: system-ui, sans-serif; font-size: 10px; }
      .annotation { fill: #6d28d9; font-family: monospace; font-size: 10px; }
      .code { fill: #fbbf24; font-family: monospace; font-size: 10px; }
      .label { fill: #94a3b8; font-family: monospace; font-size: 9px; text-transform: uppercase; letter-spacing: 1px; }
    </style>
    <marker id="arrowhead" markerWidth="10" markerHeight="7" refX="9" refY="3.5" orient="auto">
      <polygon points="0 0, 10 3.5, 0 7" fill="#8b5cf6"/>
    </marker>
    <marker id="arrowheadGreen" markerWidth="10" markerHeight="7" refX="9" refY="3.5" orient="auto">
      <polygon points="0 0, 10 3.5, 0 7" fill="#22c55e"/>
    </marker>
    <marker id="arrowheadOrange" markerWidth="10" markerHeight="7" refX="9" refY="3.5" orient="auto">
      <polygon points="0 0, 10 3.5, 0 7" fill="#f59e0b"/>
    </marker>
    <marker id="arrowheadRed" markerWidth="10" markerHeight="7" refX="9" refY="3.5" orient="auto">
      <polygon points="0 0, 10 3.5, 0 7" fill="#ef4444"/>
    </marker>
  </defs>

  <!-- Background -->
  <rect width="1400" height="800" fill="url(#bgGrad)"/>

  <!-- Dot grid pattern -->
  <g opacity="0.05">
    <pattern id="dots" width="30" height="30" patternUnits="userSpaceOnUse">
      <circle cx="15" cy="15" r="1" fill="#fff"/>
    </pattern>
    <rect width="1400" height="800" fill="url(#dots)"/>
  </g>

  <!-- Accent line top -->
  <rect x="0" y="0" width="1400" height="3" fill="url(#accentGrad)"/>

  <!-- Title -->
  <text x="700" y="28" text-anchor="middle" font-family="system-ui, sans-serif" font-size="14" font-weight="600" fill="#8494a8" letter-spacing="1">023 - EMAIL SERVICE REDUNDANCY - FAILOVER ARCHITECTURE</text>

  <!-- Layer 1: User Submission -->
  <g id="user-layer">
    <text x="60" y="60" class="label">USER SUBMISSION</text>

    <!-- Contact Form -->
    <rect x="40" y="75" width="180" height="120" rx="8" fill="#1e293b" stroke="#475569" stroke-width="1"/>
    <text x="130" y="100" text-anchor="middle" class="heading">Contact Form</text>
    <rect x="55" y="115" width="150" height="20" rx="4" fill="#334155"/>
    <text x="130" y="130" text-anchor="middle" class="text-sm">name, email, message</text>
    <rect x="55" y="145" width="150" height="28" rx="4" fill="#8b5cf6"/>
    <text x="130" y="164" text-anchor="middle" class="text-sm" fill="#fff">Submit</text>
    <text x="130" y="185" text-anchor="middle" class="text-muted">Feature 022</text>
  </g>

  <!-- Layer 2: Email Router -->
  <g id="router-layer">
    <text x="320" y="60" class="label">EMAIL ROUTER</text>

    <!-- Router Box -->
    <rect x="280" y="75" width="200" height="180" rx="8" fill="#1e293b" stroke="#8b5cf6" stroke-width="2"/>
    <text x="380" y="100" text-anchor="middle" class="heading">Email Router</text>

    <!-- Priority Check -->
    <polygon points="380,120 420,145 380,170 340,145" fill="#334155" stroke="#475569" stroke-width="1"/>
    <text x="380" y="150" text-anchor="middle" class="text-sm">Priority</text>

    <!-- Abstract Interface -->
    <rect x="295" y="185" width="170" height="55" rx="6" fill="#334155"/>
    <text x="380" y="205" text-anchor="middle" class="code">EmailProvider</text>
    <text x="380" y="220" text-anchor="middle" class="text-sm">interface</text>
    <text x="380" y="235" text-anchor="middle" class="text-muted">FR-004</text>
  </g>

  <!-- Layer 3: Providers -->
  <g id="providers-layer">
    <text x="560" y="60" class="label">EMAIL PROVIDERS</text>

    <!-- Primary Provider (Web3Forms) -->
    <rect x="540" y="75" width="180" height="100" rx="8" fill="#1e293b" stroke="url(#primaryGrad)" stroke-width="2"/>
    <rect x="540" y="75" width="180" height="28" rx="8" fill="url(#primaryGrad)"/>
    <rect x="540" y="90" width="180" height="13" fill="url(#primaryGrad)"/>
    <text x="630" y="95" text-anchor="middle" class="heading" fill="#fff">PRIMARY</text>
    <text x="630" y="120" text-anchor="middle" class="text-md">Web3Forms</text>
    <text x="630" y="140" text-anchor="middle" class="text-sm">Priority: 1</text>
    <text x="630" y="160" text-anchor="middle" class="text-muted">Feature 022</text>

    <!-- Backup Provider (EmailJS) -->
    <rect x="540" y="190" width="180" height="100" rx="8" fill="#1e293b" stroke="url(#backupGrad)" stroke-width="2"/>
    <rect x="540" y="190" width="180" height="28" rx="8" fill="url(#backupGrad)"/>
    <rect x="540" y="205" width="180" height="13" fill="url(#backupGrad)"/>
    <text x="630" y="210" text-anchor="middle" class="heading" fill="#fff">BACKUP</text>
    <text x="630" y="235" text-anchor="middle" class="text-md">EmailJS</text>
    <text x="630" y="255" text-anchor="middle" class="text-sm">Priority: 2</text>
    <text x="630" y="275" text-anchor="middle" class="text-muted">Failover target</text>
  </g>

  <!-- Layer 4: Delivery -->
  <g id="delivery-layer">
    <text x="800" y="60" class="label">DELIVERY</text>

    <!-- Recipient Inbox -->
    <rect x="780" y="75" width="160" height="100" rx="8" fill="#1e293b" stroke="#475569" stroke-width="1"/>
    <text x="860" y="100" text-anchor="middle" class="heading">Recipient</text>
    <rect x="795" y="115" width="130" height="45" rx="6" fill="#334155"/>
    <text x="860" y="135" text-anchor="middle" class="text-sm">Inbox</text>
    <text x="860" y="150" text-anchor="middle" class="text-muted">Consistent format</text>
    <text x="860" y="165" text-anchor="middle" class="text-muted">FR-017, FR-018</text>
  </g>

  <!-- Flow Arrows (Happy Path) -->
  <g id="happy-path">
    <line x1="220" y1="135" x2="275" y2="135" stroke="#22c55e" stroke-width="2" marker-end="url(#arrowheadGreen)"/>
    <line x1="480" y1="125" x2="535" y2="125" stroke="#22c55e" stroke-width="2" marker-end="url(#arrowheadGreen)"/>
    <line x1="720" y1="125" x2="775" y2="125" stroke="#22c55e" stroke-width="2" marker-end="url(#arrowheadGreen)"/>
  </g>

  <!-- Flow Arrows (Failover Path) -->
  <g id="failover-path">
    <path d="M480,145 Q510,145 510,200 L535,240" fill="none" stroke="#f59e0b" stroke-width="2" stroke-dasharray="4,2" marker-end="url(#arrowheadOrange)"/>
    <line x1="720" y1="240" x2="860" y2="175" stroke="#f59e0b" stroke-width="2" stroke-dasharray="4,2" marker-end="url(#arrowheadOrange)"/>
  </g>

  <!-- Retry Logic Section -->
  <g id="retry-logic" transform="translate(40, 320)">
    <rect x="0" y="0" width="440" height="200" rx="8" fill="#1e293b" stroke="#8b5cf6" stroke-width="1"/>
    <text x="220" y="25" text-anchor="middle" class="heading">Retry Logic with Exponential Backoff</text>
    <text x="220" y="42" text-anchor="middle" class="text-muted">FR-009, FR-010, FR-011</text>

    <!-- Retry Flow -->
    <g transform="translate(20, 60)">
      <!-- Attempt 1 -->
      <rect x="0" y="0" width="80" height="40" rx="6" fill="#334155"/>
      <text x="40" y="25" text-anchor="middle" class="text-sm">Attempt 1</text>

      <!-- Delay 1 -->
      <rect x="95" y="5" width="60" height="30" rx="4" fill="#1e293b" stroke="#475569" stroke-width="1"/>
      <text x="125" y="25" text-anchor="middle" class="code">1s</text>

      <!-- Attempt 2 -->
      <rect x="170" y="0" width="80" height="40" rx="6" fill="#334155"/>
      <text x="210" y="25" text-anchor="middle" class="text-sm">Attempt 2</text>

      <!-- Delay 2 -->
      <rect x="265" y="5" width="60" height="30" rx="4" fill="#1e293b" stroke="#475569" stroke-width="1"/>
      <text x="295" y="25" text-anchor="middle" class="code">2s</text>

      <!-- Attempt 3 -->
      <rect x="340" y="0" width="80" height="40" rx="6" fill="#334155"/>
      <text x="380" y="25" text-anchor="middle" class="text-sm">Attempt 3</text>

      <!-- Arrows -->
      <line x1="80" y1="20" x2="90" y2="20" stroke="#8b5cf6" stroke-width="1"/>
      <line x1="155" y1="20" x2="165" y2="20" stroke="#8b5cf6" stroke-width="1"/>
      <line x1="250" y1="20" x2="260" y2="20" stroke="#8b5cf6" stroke-width="1"/>
      <line x1="325" y1="20" x2="335" y2="20" stroke="#8b5cf6" stroke-width="1"/>
    </g>

    <!-- After max retries -->
    <g transform="translate(20, 120)">
      <rect x="0" y="0" width="100" height="40" rx="6" fill="#334155" stroke="#ef4444" stroke-width="1"/>
      <text x="50" y="18" text-anchor="middle" class="text-sm">Max retries</text>
      <text x="50" y="32" text-anchor="middle" class="text-sm">exceeded</text>

      <line x1="100" y1="20" x2="140" y2="20" stroke="#ef4444" stroke-width="2" marker-end="url(#arrowheadRed)"/>

      <polygon points="200,20 240,0 280,20 240,40" fill="#1e293b" stroke="#f59e0b" stroke-width="2"/>
      <text x="240" y="25" text-anchor="middle" class="text-sm" fill="#f59e0b">Failover</text>

      <line x1="280" y1="20" x2="320" y2="20" stroke="#f59e0b" stroke-width="2" marker-end="url(#arrowheadOrange)"/>

      <rect x="330" y="0" width="90" height="40" rx="6" fill="#334155" stroke="#f59e0b" stroke-width="1"/>
      <text x="375" y="18" text-anchor="middle" class="text-sm" fill="#f59e0b">Backup</text>
      <text x="375" y="32" text-anchor="middle" class="text-sm" fill="#f59e0b">Provider</text>
    </g>
  </g>

  <!-- Health Monitoring Section -->
  <g id="health-monitoring" transform="translate(500, 320)">
    <rect x="0" y="0" width="440" height="200" rx="8" fill="#1e293b" stroke="#475569" stroke-width="1"/>
    <text x="220" y="25" text-anchor="middle" class="heading">Provider Health Monitoring</text>
    <text x="220" y="42" text-anchor="middle" class="text-muted">FR-013, FR-014, FR-015, FR-016</text>

    <!-- Primary Health -->
    <g transform="translate(20, 60)">
      <rect x="0" y="0" width="190" height="80" rx="6" fill="#334155"/>
      <text x="95" y="20" text-anchor="middle" class="text-sm" fill="#22c55e">Web3Forms</text>
      <text x="30" y="42" class="text-sm">Status:</text>
      <rect x="70" y="30" width="60" height="18" rx="9" fill="#22c55e"/>
      <text x="100" y="43" text-anchor="middle" class="text-sm" fill="#fff">Healthy</text>
      <text x="30" y="62" class="text-sm">Failures: 0</text>
      <text x="30" y="75" class="text-muted">Priority: 1</text>
    </g>

    <!-- Backup Health -->
    <g transform="translate(230, 60)">
      <rect x="0" y="0" width="190" height="80" rx="6" fill="#334155"/>
      <text x="95" y="20" text-anchor="middle" class="text-sm" fill="#f59e0b">EmailJS</text>
      <text x="30" y="42" class="text-sm">Status:</text>
      <rect x="70" y="30" width="60" height="18" rx="9" fill="#22c55e"/>
      <text x="100" y="43" text-anchor="middle" class="text-sm" fill="#fff">Ready</text>
      <text x="30" y="62" class="text-sm">Failures: 0</text>
      <text x="30" y="75" class="text-muted">Priority: 2</text>
    </g>

    <!-- Degraded state example -->
    <g transform="translate(20, 150)">
      <rect x="0" y="0" width="400" height="35" rx="6" fill="#1e293b" stroke="#ef4444" stroke-width="1"/>
      <text x="15" y="22" class="text-sm" fill="#ef4444">Degraded:</text>
      <text x="85" y="22" class="text-sm">Provider deprioritized after 3+ consecutive failures</text>
    </g>
  </g>

  <!-- Rate Limiting Section -->
  <g id="rate-limiting" transform="translate(960, 320)">
    <rect x="0" y="0" width="400" height="200" rx="8" fill="#1e293b" stroke="#475569" stroke-width="1"/>
    <text x="200" y="25" text-anchor="middle" class="heading">Rate Limiting</text>
    <text x="200" y="42" text-anchor="middle" class="text-muted">FR-020, FR-021</text>

    <!-- Rate limit visualization -->
    <g transform="translate(20, 60)">
      <text x="0" y="15" class="text-sm">Requests/minute:</text>

      <!-- Progress bar -->
      <rect x="0" y="25" width="360" height="20" rx="4" fill="#334155"/>
      <rect x="0" y="25" width="280" height="20" rx="4" fill="url(#primaryGrad)"/>
      <text x="180" y="40" text-anchor="middle" class="text-sm" fill="#fff">78% (78/100)</text>

      <!-- Threshold warning -->
      <line x1="324" y1="20" x2="324" y2="50" stroke="#eab308" stroke-width="2" stroke-dasharray="4,2"/>
      <text x="324" y="60" text-anchor="middle" class="text-muted">90%</text>
    </g>

    <!-- Rate limit reached -->
    <g transform="translate(20, 120)">
      <rect x="0" y="0" width="360" height="60" rx="6" fill="#1e293b" stroke="#ef4444" stroke-width="1"/>
      <text x="180" y="20" text-anchor="middle" class="text-sm" fill="#ef4444">Rate Limit Reached</text>
      <text x="180" y="38" text-anchor="middle" class="text-sm">→ Automatic failover to backup</text>
      <text x="180" y="52" text-anchor="middle" class="text-muted">Reset in: 45s</text>
    </g>
  </g>

  <!-- Both Providers Down -->
  <g id="both-down" transform="translate(40, 540)">
    <rect x="0" y="0" width="440" height="120" rx="8" fill="#1e293b" stroke="#ef4444" stroke-width="2"/>
    <text x="220" y="25" text-anchor="middle" class="heading" fill="#ef4444">Edge Case: Both Providers Unavailable</text>

    <g transform="translate(20, 45)">
      <rect x="0" y="0" width="120" height="50" rx="6" fill="#334155" stroke="#ef4444" stroke-width="1"/>
      <text x="60" y="20" text-anchor="middle" class="text-sm" fill="#ef4444">Primary</text>
      <text x="60" y="35" text-anchor="middle" class="text-sm" fill="#ef4444">DOWN</text>
    </g>

    <g transform="translate(140, 45)">
      <rect x="0" y="0" width="120" height="50" rx="6" fill="#334155" stroke="#ef4444" stroke-width="1"/>
      <text x="60" y="20" text-anchor="middle" class="text-sm" fill="#ef4444">Backup</text>
      <text x="60" y="35" text-anchor="middle" class="text-sm" fill="#ef4444">DOWN</text>
    </g>

    <line x1="260" y1="70" x2="290" y2="70" stroke="#8b5cf6" stroke-width="2" marker-end="url(#arrowhead)"/>

    <g transform="translate(300, 45)">
      <rect x="0" y="0" width="120" height="50" rx="6" fill="#334155" stroke="#8b5cf6" stroke-width="1"/>
      <text x="60" y="20" text-anchor="middle" class="text-sm">Queue Local</text>
      <text x="60" y="35" text-anchor="middle" class="text-muted">Feature 020</text>
    </g>
  </g>

  <!-- Success Criteria -->
  <g id="success-criteria" transform="translate(500, 540)">
    <rect x="0" y="0" width="440" height="120" rx="8" fill="#1e293b" stroke="#22c55e" stroke-width="1"/>
    <text x="220" y="25" text-anchor="middle" class="annotation" fill="#22c55e">SUCCESS CRITERIA</text>

    <text x="20" y="50" class="text-sm">SC-001: 99.9% delivery when 1+ provider available</text>
    <text x="20" y="70" class="text-sm">SC-002: Failover within 5 seconds</text>
    <text x="20" y="90" class="text-sm">SC-003: User sees result within 10 seconds</text>
    <text x="20" y="110" class="text-sm">SC-004: Provider switching invisible to users</text>
  </g>

  <!-- Legend -->
  <g id="legend" transform="translate(960, 540)">
    <rect x="0" y="0" width="400" height="120" rx="8" fill="#1e293b" stroke="#475569" stroke-width="1"/>
    <text x="200" y="25" text-anchor="middle" class="heading">Legend</text>

    <line x1="20" y1="50" x2="60" y2="50" stroke="#22c55e" stroke-width="2"/>
    <text x="70" y="55" class="text-sm">Primary (happy) path</text>

    <line x1="20" y1="75" x2="60" y2="75" stroke="#f59e0b" stroke-width="2" stroke-dasharray="4,2"/>
    <text x="70" y="80" class="text-sm">Failover path</text>

    <line x1="220" y1="50" x2="260" y2="50" stroke="#ef4444" stroke-width="2"/>
    <text x="270" y="55" class="text-sm">Error / Degraded</text>

    <line x1="220" y1="75" x2="260" y2="75" stroke="#8b5cf6" stroke-width="2"/>
    <text x="270" y="80" class="text-sm">Data flow</text>

    <text x="20" y="105" class="text-muted">FR-005: Automatic failover | FR-006: Invisible switching | FR-007: Auto-recovery</text>
  </g>
</svg>
