<svg xmlns="http://www.w3.org/2000/svg" viewBox="0 0 1400 800" width="1400" height="800">
  <!-- ============================================================
       GENERATED BY: /wireframe skill
       SOURCE: features/integrations/023-emailjs-integration/spec.md
       DATE: 2025-12-31
       DO NOT MANUALLY EDIT - Regenerate with /wireframe command
       ============================================================ -->
  <defs>
    <linearGradient id="bgGrad" x1="0%" y1="0%" x2="100%" y2="100%">
      <stop offset="0%" style="stop-color:#0f172a"/>
      <stop offset="100%" style="stop-color:#1e293b"/>
    </linearGradient>
    <linearGradient id="accentGrad" x1="0%" y1="0%" x2="100%" y2="0%">
      <stop offset="0%" style="stop-color:#8b5cf6"/>
      <stop offset="100%" style="stop-color:#d946ef"/>
    </linearGradient>
    <style>
      .heading-lg { fill: #ffffff; font-family: system-ui, sans-serif; font-size: 20px; font-weight: bold; }
      .heading { fill: #ffffff; font-family: system-ui, sans-serif; font-size: 14px; font-weight: bold; }
      .heading-sm { fill: #ffffff; font-family: system-ui, sans-serif; font-size: 12px; font-weight: bold; }
      .text-md { fill: #cbd5e1; font-family: system-ui, sans-serif; font-size: 12px; }
      .text-sm { fill: #94a3b8; font-family: system-ui, sans-serif; font-size: 10px; }
      .text-muted { fill: #64748b; font-family: system-ui, sans-serif; font-size: 10px; }
      .annotation { fill: #8b5cf6; font-family: monospace; font-size: 10px; }
      .label-desktop { fill: #8b5cf6; font-family: monospace; font-size: 11px; font-weight: bold; }
      .label-mobile { fill: #d946ef; font-family: monospace; font-size: 11px; font-weight: bold; }
    </style>
  </defs>

  <!-- Background -->
  <rect width="1400" height="800" fill="url(#bgGrad)"/>

  <!-- Dot grid pattern -->
  <g opacity="0.05">
    <pattern id="dots" width="30" height="30" patternUnits="userSpaceOnUse">
      <circle cx="15" cy="15" r="1" fill="#fff"/>
    </pattern>
    <rect width="1400" height="800" fill="url(#dots)"/>
  </g>

  <!-- Accent line top -->
  <rect x="0" y="0" width="1400" height="3" fill="url(#accentGrad)"/>

  <!-- Title -->
  <text x="700" y="28" text-anchor="middle" font-family="system-ui, sans-serif" font-size="14" font-weight="600" fill="#64748b" letter-spacing="1">ADMIN HEALTH DASHBOARD - PROVIDER MONITORING</text>

  <!-- DESKTOP SECTION (left) -->
  <text x="40" y="52" class="label-desktop">DESKTOP - ADMIN VIEW</text>
  <g id="desktop-view">
    <!-- Desktop browser frame -->
    <rect x="40" y="60" width="900" height="700" rx="8" fill="#1e293b" stroke="#475569" stroke-width="1"/>

    <!-- Header -->
    <rect x="50" y="70" width="880" height="50" rx="4" fill="#0f172a"/>
    <text x="70" y="100" class="heading">Email Provider Health</text>
    <text x="70" y="115" class="text-muted">Real-time monitoring for system administrators</text>

    <!-- Last updated -->
    <rect x="760" y="80" width="160" height="30" rx="4" fill="#334155"/>
    <text x="775" y="100" class="text-sm">Last updated: 2 sec ago</text>
    <!-- Refresh icon -->
    <g transform="translate(900, 95)">
      <circle cx="0" cy="0" r="8" fill="none" stroke="#8b5cf6" stroke-width="1.5"/>
      <path d="M 0 -8 A 8 8 0 0 1 8 0" fill="none" stroke="#8b5cf6" stroke-width="1.5" stroke-linecap="round">
        <animateTransform attributeName="transform" type="rotate" from="0" to="360" dur="2s" repeatCount="indefinite"/>
      </path>
    </g>

    <!-- ========== PROVIDER CARDS ROW ========== -->
    <!-- Primary Provider Card -->
    <g transform="translate(50, 130)">
      <rect width="420" height="180" rx="8" fill="#0f172a" stroke="#22c55e" stroke-width="2"/>
      <!-- Status badge -->
      <rect x="330" y="10" width="80" height="24" rx="12" fill="#22c55e" opacity="0.2"/>
      <circle cx="350" cy="22" r="4" fill="#22c55e"/>
      <text x="390" y="26" text-anchor="middle" font-size="10" fill="#22c55e" font-weight="bold">HEALTHY</text>

      <text x="20" y="30" class="heading">Web3Forms</text>
      <rect x="20" y="40" width="60" height="18" rx="9" fill="#22c55e" opacity="0.2"/>
      <text x="50" y="52" text-anchor="middle" font-size="9" fill="#22c55e">PRIMARY</text>

      <!-- Stats row -->
      <g transform="translate(20, 70)">
        <!-- Success rate -->
        <rect width="90" height="50" rx="4" fill="#1e293b"/>
        <text x="10" y="18" class="text-muted">Success Rate</text>
        <text x="10" y="38" font-family="system-ui" font-size="18" fill="#22c55e" font-weight="bold">99.8%</text>
      </g>
      <g transform="translate(120, 70)">
        <!-- Total sent -->
        <rect width="90" height="50" rx="4" fill="#1e293b"/>
        <text x="10" y="18" class="text-muted">Total Sent</text>
        <text x="10" y="38" font-family="system-ui" font-size="18" fill="#fff" font-weight="bold">1,247</text>
      </g>
      <g transform="translate(220, 70)">
        <!-- Failures -->
        <rect width="90" height="50" rx="4" fill="#1e293b"/>
        <text x="10" y="18" class="text-muted">Failures</text>
        <text x="10" y="38" font-family="system-ui" font-size="18" fill="#ef4444" font-weight="bold">2</text>
      </g>
      <g transform="translate(320, 70)">
        <!-- Avg response -->
        <rect width="90" height="50" rx="4" fill="#1e293b"/>
        <text x="10" y="18" class="text-muted">Avg Time</text>
        <text x="10" y="38" font-family="system-ui" font-size="18" fill="#8b5cf6" font-weight="bold">340ms</text>
      </g>

      <!-- Mini chart placeholder -->
      <rect x="20" y="130" width="390" height="40" rx="4" fill="#1e293b"/>
      <polyline points="30,160 60,155 90,158 120,145 150,150 180,142 210,148 240,140 270,145 300,138 330,144 360,135 390,140" fill="none" stroke="#22c55e" stroke-width="2"/>
      <text x="30" y="166" class="text-muted">24h activity</text>
    </g>

    <!-- Backup Provider Card -->
    <g transform="translate(490, 130)">
      <rect width="420" height="180" rx="8" fill="#0f172a" stroke="#eab308" stroke-width="2"/>
      <!-- Status badge -->
      <rect x="330" y="10" width="80" height="24" rx="12" fill="#eab308" opacity="0.2"/>
      <circle cx="350" cy="22" r="4" fill="#eab308"/>
      <text x="390" y="26" text-anchor="middle" font-size="10" fill="#eab308" font-weight="bold">STANDBY</text>

      <text x="20" y="30" class="heading">EmailJS</text>
      <rect x="20" y="40" width="60" height="18" rx="9" fill="#eab308" opacity="0.2"/>
      <text x="50" y="52" text-anchor="middle" font-size="9" fill="#eab308">BACKUP</text>

      <!-- Stats row -->
      <g transform="translate(20, 70)">
        <rect width="90" height="50" rx="4" fill="#1e293b"/>
        <text x="10" y="18" class="text-muted">Success Rate</text>
        <text x="10" y="38" font-family="system-ui" font-size="18" fill="#22c55e" font-weight="bold">100%</text>
      </g>
      <g transform="translate(120, 70)">
        <rect width="90" height="50" rx="4" fill="#1e293b"/>
        <text x="10" y="18" class="text-muted">Total Sent</text>
        <text x="10" y="38" font-family="system-ui" font-size="18" fill="#fff" font-weight="bold">12</text>
      </g>
      <g transform="translate(220, 70)">
        <rect width="90" height="50" rx="4" fill="#1e293b"/>
        <text x="10" y="18" class="text-muted">Failures</text>
        <text x="10" y="38" font-family="system-ui" font-size="18" fill="#64748b" font-weight="bold">0</text>
      </g>
      <g transform="translate(320, 70)">
        <rect width="90" height="50" rx="4" fill="#1e293b"/>
        <text x="10" y="18" class="text-muted">Avg Time</text>
        <text x="10" y="38" font-family="system-ui" font-size="18" fill="#8b5cf6" font-weight="bold">420ms</text>
      </g>

      <!-- Mini chart -->
      <rect x="20" y="130" width="390" height="40" rx="4" fill="#1e293b"/>
      <polyline points="30,160 90,160 150,160 210,155 270,160 330,160 390,160" fill="none" stroke="#eab308" stroke-width="2" stroke-dasharray="4,4"/>
      <text x="30" y="166" class="text-muted">24h activity (mostly idle)</text>
    </g>

    <!-- ========== RECENT ACTIVITY LOG ========== -->
    <g transform="translate(50, 330)">
      <rect width="640" height="280" rx="8" fill="#0f172a" stroke="#475569" stroke-width="1"/>
      <text x="20" y="28" class="heading">Recent Activity</text>

      <!-- Log entries -->
      <g transform="translate(20, 45)">
        <!-- Success entry -->
        <rect width="600" height="36" rx="4" fill="#22c55e" opacity="0.1"/>
        <circle cx="15" cy="18" r="6" fill="#22c55e"/>
        <path d="M12 18 L14 20 L18 16" stroke="#fff" stroke-width="1.5" fill="none"/>
        <text x="30" y="15" class="text-sm" fill="#22c55e">SUCCESS</text>
        <text x="95" y="15" class="text-md">Contact form from john@example.com</text>
        <text x="30" y="30" class="text-muted">Web3Forms • 340ms • 2 minutes ago</text>
      </g>

      <g transform="translate(20, 90)">
        <rect width="600" height="36" rx="4" fill="#22c55e" opacity="0.1"/>
        <circle cx="15" cy="18" r="6" fill="#22c55e"/>
        <path d="M12 18 L14 20 L18 16" stroke="#fff" stroke-width="1.5" fill="none"/>
        <text x="30" y="15" class="text-sm" fill="#22c55e">SUCCESS</text>
        <text x="95" y="15" class="text-md">Newsletter signup from sarah@company.co</text>
        <text x="30" y="30" class="text-muted">Web3Forms • 285ms • 15 minutes ago</text>
      </g>

      <g transform="translate(20, 135)">
        <!-- Failover entry -->
        <rect width="600" height="36" rx="4" fill="#eab308" opacity="0.1"/>
        <circle cx="15" cy="18" r="6" fill="#eab308"/>
        <text x="15" y="22" text-anchor="middle" font-size="8" fill="#0f172a" font-weight="bold">!</text>
        <text x="30" y="15" class="text-sm" fill="#eab308">FAILOVER</text>
        <text x="100" y="15" class="text-md">Primary timeout → Used EmailJS backup</text>
        <text x="30" y="30" class="text-muted">EmailJS • 420ms • 2 hours ago</text>
      </g>

      <g transform="translate(20, 180)">
        <!-- Retry entry -->
        <rect width="600" height="36" rx="4" fill="#8b5cf6" opacity="0.1"/>
        <circle cx="15" cy="18" r="6" fill="#8b5cf6"/>
        <text x="15" y="22" text-anchor="middle" font-size="10" fill="#fff">↻</text>
        <text x="30" y="15" class="text-sm" fill="#8b5cf6">RETRY</text>
        <text x="80" y="15" class="text-md">Attempt 2/3 succeeded after 1s backoff</text>
        <text x="30" y="30" class="text-muted">Web3Forms • 890ms total • 2 hours ago</text>
      </g>

      <g transform="translate(20, 225)">
        <rect width="600" height="36" rx="4" fill="#22c55e" opacity="0.1"/>
        <circle cx="15" cy="18" r="6" fill="#22c55e"/>
        <path d="M12 18 L14 20 L18 16" stroke="#fff" stroke-width="1.5" fill="none"/>
        <text x="30" y="15" class="text-sm" fill="#22c55e">SUCCESS</text>
        <text x="95" y="15" class="text-md">Contact form from mike@startup.io</text>
        <text x="30" y="30" class="text-muted">Web3Forms • 310ms • 3 hours ago</text>
      </g>
    </g>

    <!-- ========== FAILOVER EVENTS ========== -->
    <g transform="translate(710, 330)">
      <rect width="210" height="280" rx="8" fill="#0f172a" stroke="#475569" stroke-width="1"/>
      <text x="20" y="28" class="heading">Failover Events</text>
      <text x="20" y="45" class="text-muted">Last 7 days</text>

      <!-- Failover stats -->
      <g transform="translate(20, 60)">
        <rect width="170" height="60" rx="4" fill="#1e293b"/>
        <text x="85" y="25" text-anchor="middle" font-family="system-ui" font-size="28" fill="#eab308" font-weight="bold">3</text>
        <text x="85" y="48" text-anchor="middle" class="text-sm">Total failovers</text>
      </g>

      <g transform="translate(20, 130)">
        <rect width="170" height="50" rx="4" fill="#22c55e" opacity="0.1"/>
        <text x="15" y="22" class="text-sm">Recovery rate</text>
        <text x="15" y="40" font-family="system-ui" font-size="16" fill="#22c55e" font-weight="bold">100%</text>
      </g>

      <g transform="translate(20, 190)">
        <rect width="170" height="50" rx="4" fill="#1e293b"/>
        <text x="15" y="22" class="text-sm">Avg failover time</text>
        <text x="15" y="40" font-family="system-ui" font-size="16" fill="#8b5cf6" font-weight="bold">4.2 seconds</text>
      </g>

      <text x="20" y="260" class="text-muted">Last: 2 hours ago</text>
    </g>

    <!-- ========== CONFIGURATION SUMMARY ========== -->
    <g transform="translate(50, 620)">
      <rect width="860" height="130" rx="8" fill="#0f172a" stroke="#475569" stroke-width="1"/>
      <text x="20" y="28" class="heading">Configuration</text>

      <g transform="translate(20, 45)">
        <text x="0" y="15" class="text-sm">Primary Provider:</text>
        <text x="110" y="15" class="text-md">Web3Forms</text>
        <text x="0" y="35" class="text-sm">Backup Provider:</text>
        <text x="110" y="35" class="text-md">EmailJS</text>
        <text x="0" y="55" class="text-sm">Max Retries:</text>
        <text x="110" y="55" class="text-md">3</text>
        <text x="0" y="75" class="text-sm">Backoff Strategy:</text>
        <text x="110" y="75" class="text-md">Exponential (1s, 2s, 4s)</text>
      </g>

      <g transform="translate(280, 45)">
        <text x="0" y="15" class="text-sm">Request Timeout:</text>
        <text x="110" y="15" class="text-md">5000ms</text>
        <text x="0" y="35" class="text-sm">Health Check:</text>
        <text x="110" y="35" class="text-md">Every 60 seconds</text>
        <text x="0" y="55" class="text-sm">Degradation Threshold:</text>
        <text x="110" y="55" class="text-md">3 consecutive failures</text>
        <text x="0" y="75" class="text-sm">Rate Limit:</text>
        <text x="110" y="75" class="text-md">100/hour per provider</text>
      </g>

      <g transform="translate(540, 45)">
        <text x="0" y="15" class="text-sm">Logging Level:</text>
        <text x="110" y="15" class="text-md">Info</text>
        <text x="0" y="35" class="text-sm">Alert Threshold:</text>
        <text x="110" y="35" class="text-md">95% success rate</text>
        <text x="0" y="55" class="text-sm">Queue Enabled:</text>
        <text x="110" y="55" class="text-md" fill="#22c55e">Yes (IndexedDB)</text>
        <text x="0" y="75" class="text-sm">Integration:</text>
        <text x="110" y="75" class="text-md">F020, F022</text>
      </g>
    </g>
  </g>

  <!-- MOBILE SECTION (right) -->
  <text x="980" y="52" class="label-mobile">MOBILE - STATUS QUICK VIEW</text>
  <g id="mobile-view" transform="translate(980, 60)">
    <!-- Phone frame -->
    <rect x="0" y="0" width="360" height="700" rx="24" fill="#1e293b" stroke="#475569" stroke-width="2"/>
    <!-- Screen area -->
    <rect x="10" y="10" width="340" height="680" rx="16" fill="#0f172a"/>
    <!-- Status bar -->
    <rect x="10" y="10" width="340" height="28" rx="16" fill="#1e293b"/>
    <text x="30" y="28" class="text-sm">9:41</text>
    <text x="320" y="28" text-anchor="end" class="text-sm">100%</text>

    <!-- Header -->
    <rect x="20" y="48" width="320" height="44" rx="4" fill="#1e293b"/>
    <text x="40" y="76" class="heading">Provider Status</text>

    <!-- Overall status -->
    <g transform="translate(20, 102)">
      <rect width="320" height="70" rx="8" fill="#22c55e" opacity="0.1" stroke="#22c55e" stroke-width="1"/>
      <circle cx="30" cy="35" r="16" fill="#22c55e" opacity="0.3"/>
      <path d="M24 35 L28 39 L36 31" stroke="#22c55e" stroke-width="2.5" fill="none"/>
      <text x="55" y="30" class="heading-sm" fill="#22c55e">All Systems Operational</text>
      <text x="55" y="50" class="text-sm">Last check: 2 seconds ago</text>
    </g>

    <!-- Primary provider card -->
    <g transform="translate(20, 182)">
      <rect width="320" height="100" rx="8" fill="#1e293b" stroke="#22c55e" stroke-width="1"/>
      <rect x="0" y="0" width="320" height="30" rx="8" fill="#22c55e" opacity="0.1"/>
      <text x="15" y="20" class="heading-sm">Web3Forms</text>
      <rect x="240" y="8" width="70" height="18" rx="9" fill="#22c55e" opacity="0.2"/>
      <text x="275" y="20" text-anchor="middle" font-size="9" fill="#22c55e">PRIMARY</text>

      <g transform="translate(15, 40)">
        <text x="0" y="15" class="text-muted">Success</text>
        <text x="0" y="32" font-size="14" fill="#22c55e" font-weight="bold">99.8%</text>
      </g>
      <g transform="translate(90, 40)">
        <text x="0" y="15" class="text-muted">Sent</text>
        <text x="0" y="32" font-size="14" fill="#fff" font-weight="bold">1,247</text>
      </g>
      <g transform="translate(160, 40)">
        <text x="0" y="15" class="text-muted">Failures</text>
        <text x="0" y="32" font-size="14" fill="#ef4444" font-weight="bold">2</text>
      </g>
      <g transform="translate(240, 40)">
        <text x="0" y="15" class="text-muted">Avg</text>
        <text x="0" y="32" font-size="14" fill="#8b5cf6" font-weight="bold">340ms</text>
      </g>
    </g>

    <!-- Backup provider card -->
    <g transform="translate(20, 292)">
      <rect width="320" height="100" rx="8" fill="#1e293b" stroke="#eab308" stroke-width="1"/>
      <rect x="0" y="0" width="320" height="30" rx="8" fill="#eab308" opacity="0.1"/>
      <text x="15" y="20" class="heading-sm">EmailJS</text>
      <rect x="240" y="8" width="70" height="18" rx="9" fill="#eab308" opacity="0.2"/>
      <text x="275" y="20" text-anchor="middle" font-size="9" fill="#eab308">BACKUP</text>

      <g transform="translate(15, 40)">
        <text x="0" y="15" class="text-muted">Success</text>
        <text x="0" y="32" font-size="14" fill="#22c55e" font-weight="bold">100%</text>
      </g>
      <g transform="translate(90, 40)">
        <text x="0" y="15" class="text-muted">Sent</text>
        <text x="0" y="32" font-size="14" fill="#fff" font-weight="bold">12</text>
      </g>
      <g transform="translate(160, 40)">
        <text x="0" y="15" class="text-muted">Failures</text>
        <text x="0" y="32" font-size="14" fill="#64748b" font-weight="bold">0</text>
      </g>
      <g transform="translate(240, 40)">
        <text x="0" y="15" class="text-muted">Avg</text>
        <text x="0" y="32" font-size="14" fill="#8b5cf6" font-weight="bold">420ms</text>
      </g>
    </g>

    <!-- Recent events (compact) -->
    <g transform="translate(20, 402)">
      <rect width="320" height="170" rx="8" fill="#1e293b" stroke="#475569" stroke-width="1"/>
      <text x="15" y="25" class="heading-sm">Recent Events</text>

      <!-- Event 1 -->
      <g transform="translate(15, 40)">
        <circle cx="8" cy="8" r="5" fill="#22c55e"/>
        <text x="20" y="12" class="text-sm">john@example.com</text>
        <text x="280" y="12" text-anchor="end" class="text-muted">2m ago</text>
      </g>

      <!-- Event 2 -->
      <g transform="translate(15, 65)">
        <circle cx="8" cy="8" r="5" fill="#22c55e"/>
        <text x="20" y="12" class="text-sm">sarah@company.co</text>
        <text x="280" y="12" text-anchor="end" class="text-muted">15m ago</text>
      </g>

      <!-- Event 3 - Failover -->
      <g transform="translate(15, 90)">
        <circle cx="8" cy="8" r="5" fill="#eab308"/>
        <text x="20" y="12" class="text-sm" fill="#eab308">Failover to EmailJS</text>
        <text x="280" y="12" text-anchor="end" class="text-muted">2h ago</text>
      </g>

      <!-- Event 4 -->
      <g transform="translate(15, 115)">
        <circle cx="8" cy="8" r="5" fill="#8b5cf6"/>
        <text x="20" y="12" class="text-sm">Retry succeeded</text>
        <text x="280" y="12" text-anchor="end" class="text-muted">2h ago</text>
      </g>

      <rect x="15" y="135" width="290" height="24" rx="4" fill="#0f172a"/>
      <text x="160" y="151" text-anchor="middle" class="text-sm" fill="#8b5cf6">View All Events →</text>
    </g>

    <!-- Bottom stats -->
    <g transform="translate(20, 582)">
      <rect width="155" height="80" rx="8" fill="#1e293b"/>
      <text x="15" y="25" class="text-muted">Failovers (7d)</text>
      <text x="15" y="55" font-size="24" fill="#eab308" font-weight="bold">3</text>
      <text x="50" y="55" class="text-sm">events</text>
    </g>

    <g transform="translate(185, 582)">
      <rect width="155" height="80" rx="8" fill="#1e293b"/>
      <text x="15" y="25" class="text-muted">Uptime</text>
      <text x="15" y="55" font-size="24" fill="#22c55e" font-weight="bold">99.9%</text>
      <text x="90" y="55" class="text-sm">combined</text>
    </g>
  </g>
</svg>