<svg xmlns="http://www.w3.org/2000/svg" viewBox="0 0 1400 800" width="1400" height="800">
  <!-- ============================================================
       GENERATED BY: /wireframe skill
       SOURCE: features/integrations/023-emailjs-integration/spec.md
       DATE: 2026-01-01
       THEME: Light (UX/Frontend) - v3 True Parchment
       DO NOT MANUALLY EDIT - Regenerate with /wireframe command
       ============================================================ -->
  <defs>
    <linearGradient id="bgGrad" x1="0%" y1="0%" x2="100%" y2="100%">
      <stop offset="0%" style="stop-color:#c7ddf5"/>
      <stop offset="100%" style="stop-color:#b8d4f0"/>
    </linearGradient>
    <linearGradient id="accentGrad" x1="0%" y1="0%" x2="100%" y2="0%">
      <stop offset="0%" style="stop-color:#8b5cf6"/>
      <stop offset="100%" style="stop-color:#d946ef"/>
    </linearGradient>
    <style>
      .heading-lg { fill: #1a1a2e; font-family: system-ui, sans-serif; font-size: 24px; font-weight: 800; }
      .heading { fill: #1a1a2e; font-family: system-ui, sans-serif; font-size: 16px; font-weight: 700; }
      .text-md { fill: #2d3748; font-family: system-ui, sans-serif; font-size: 14px; font-weight: 500; }
      .text-sm { fill: #374151; font-family: system-ui, sans-serif; font-size: 12px; font-weight: 500; }
      .text-muted { fill: #4b5563; font-family: system-ui, sans-serif; font-size: 11px; font-weight: 500; }
      .annotation { fill: #6d28d9; font-family: monospace; font-size: 12px; font-weight: 600; }
      .label-desktop { fill: #8b5cf6; font-family: monospace; font-size: 13px; font-weight: bold; }
      .label-mobile { fill: #d946ef; font-family: monospace; font-size: 13px; font-weight: bold; }
    </style>
  </defs>

  <!-- Background -->
  <rect width="1400" height="800" fill="url(#bgGrad)"/>

  <!-- Dot grid pattern -->
  <g opacity="0.35">
    <pattern id="dots" width="30" height="30" patternUnits="userSpaceOnUse">
      <circle cx="15" cy="15" r="1" fill="#6b8cba"/>
    </pattern>
    <rect width="1400" height="800" fill="url(#dots)"/>
  </g>

  <!-- Accent line top -->
  <rect x="0" y="0" width="1400" height="3" fill="url(#accentGrad)"/>

  <!-- Title -->
  <text x="700" y="28" text-anchor="middle" font-family="system-ui, sans-serif" font-size="14" font-weight="600" fill="#4b5563" letter-spacing="1">023 - EMAIL SERVICE REDUNDANCY - PROVIDER HEALTH DASHBOARD</text>

  <!-- DESKTOP SECTION -->
  <text x="40" y="52" class="label-desktop">DESKTOP (ADMIN VIEW)</text>
  <g id="desktop-view">
    <!-- Main container -->
    <rect x="40" y="60" width="900" height="700" rx="12" fill="#e8d4b8" stroke="#b8a080" stroke-width="2"/>

    <!-- Header -->
    <rect x="50" y="70" width="880" height="50" rx="8" fill="#dcc8a8"/>
    <text x="70" y="102" class="heading">Email Provider Health Dashboard</text>
    <text x="800" y="100" text-anchor="end" class="text-sm">Last updated: 2 min ago</text>
    <circle cx="920" cy="95" r="6" fill="#22c55e"/>

    <!-- Overall Status Banner -->
    <rect x="50" y="130" width="880" height="60" rx="8" fill="#dcfce7" stroke="#22c55e" stroke-width="1"/>
    <text x="70" y="160" class="heading" fill="#16a34a">System Status: All Providers Operational</text>
    <text x="70" y="178" class="text-sm" fill="#22c55e">99.8% delivery success rate (last 24h)</text>
    <rect x="780" y="145" width="140" height="30" rx="6" fill="#22c55e"/>
    <text x="850" y="165" text-anchor="middle" class="text-sm" fill="#fff">SC-001: 99.9%</text>

    <!-- Provider Cards Row -->
    <g transform="translate(50, 210)">
      <!-- Primary Provider Card -->
      <rect x="0" y="0" width="430" height="180" rx="8" fill="#f5f0e6" stroke="#22c55e" stroke-width="2"/>
      <rect x="0" y="0" width="430" height="40" rx="8" fill="#22c55e"/>
      <rect x="0" y="28" width="430" height="12" fill="#22c55e"/>
      <text x="20" y="28" class="heading" fill="#fff">Primary: Web3Forms</text>
      <rect x="340" y="8" width="80" height="24" rx="12" fill="#fff"/>
      <text x="380" y="25" text-anchor="middle" class="text-sm" fill="#22c55e">ACTIVE</text>

      <!-- Stats -->
      <text x="20" y="70" class="text-md">Status</text>
      <rect x="100" y="55" width="80" height="24" rx="12" fill="#dcfce7"/>
      <text x="140" y="72" text-anchor="middle" class="text-sm" fill="#16a34a">Healthy</text>

      <text x="200" y="70" class="text-md">Priority</text>
      <text x="270" y="70" class="heading">1</text>

      <text x="320" y="70" class="text-md">Failures</text>
      <text x="390" y="70" class="heading">0</text>

      <!-- Success Rate Bar -->
      <text x="20" y="100" class="text-sm">Success Rate (24h)</text>
      <rect x="20" y="110" width="390" height="16" rx="4" fill="#dcc8a8"/>
      <rect x="20" y="110" width="385" height="16" rx="4" fill="#22c55e"/>
      <text x="210" y="122" text-anchor="middle" class="text-sm" fill="#fff">98.7%</text>

      <!-- Last Activity -->
      <text x="20" y="150" class="text-sm">Last success: 5 min ago</text>
      <text x="220" y="150" class="text-sm">Rate limit: 78/100</text>
      <text x="20" y="170" class="text-muted">FR-013: Success/failure tracking</text>
    </g>

    <!-- Backup Provider Card -->
    <g transform="translate(500, 210)">
      <rect x="0" y="0" width="430" height="180" rx="8" fill="#f5f0e6" stroke="#f59e0b" stroke-width="2"/>
      <rect x="0" y="0" width="430" height="40" rx="8" fill="#f59e0b"/>
      <rect x="0" y="28" width="430" height="12" fill="#f59e0b"/>
      <text x="20" y="28" class="heading" fill="#fff">Backup: EmailJS</text>
      <rect x="340" y="8" width="80" height="24" rx="12" fill="#fff"/>
      <text x="380" y="25" text-anchor="middle" class="text-sm" fill="#f59e0b">STANDBY</text>

      <!-- Stats -->
      <text x="20" y="70" class="text-md">Status</text>
      <rect x="100" y="55" width="80" height="24" rx="12" fill="#fef3c7"/>
      <text x="140" y="72" text-anchor="middle" class="text-sm" fill="#d97706">Ready</text>

      <text x="200" y="70" class="text-md">Priority</text>
      <text x="270" y="70" class="heading">2</text>

      <text x="320" y="70" class="text-md">Failures</text>
      <text x="390" y="70" class="heading">0</text>

      <!-- Success Rate Bar -->
      <text x="20" y="100" class="text-sm">Success Rate (24h)</text>
      <rect x="20" y="110" width="390" height="16" rx="4" fill="#dcc8a8"/>
      <rect x="20" y="110" width="390" height="16" rx="4" fill="#22c55e"/>
      <text x="210" y="122" text-anchor="middle" class="text-sm" fill="#fff">100%</text>

      <!-- Last Activity -->
      <text x="20" y="150" class="text-sm">Last used: 3 days ago (failover)</text>
      <text x="20" y="170" class="text-muted">FR-002: Designated backup provider</text>
    </g>

    <!-- Recent Events Log -->
    <g transform="translate(50, 410)">
      <rect x="0" y="0" width="880" height="200" rx="8" fill="#f5f0e6" stroke="#b8a080" stroke-width="1"/>
      <rect x="0" y="0" width="880" height="36" rx="8" fill="#dcc8a8"/>
      <rect x="0" y="28" width="880" height="8" fill="#dcc8a8"/>
      <text x="20" y="25" class="heading">Recent Events</text>
      <text x="860" y="25" text-anchor="end" class="text-sm">View all →</text>

      <!-- Event rows -->
      <g transform="translate(10, 50)">
        <!-- Success event -->
        <rect x="0" y="0" width="860" height="36" rx="4" fill="#dcfce7"/>
        <circle cx="20" cy="18" r="6" fill="#22c55e"/>
        <text x="40" y="22" class="text-sm">Email delivered via Web3Forms</text>
        <text x="500" y="22" class="text-muted">Contact form submission</text>
        <text x="750" y="22" class="text-sm">5 min ago</text>
      </g>

      <g transform="translate(10, 92)">
        <!-- Success event -->
        <rect x="0" y="0" width="860" height="36" rx="4" fill="#dcfce7"/>
        <circle cx="20" cy="18" r="6" fill="#22c55e"/>
        <text x="40" y="22" class="text-sm">Email delivered via Web3Forms</text>
        <text x="500" y="22" class="text-muted">Contact form submission</text>
        <text x="750" y="22" class="text-sm">1 hour ago</text>
      </g>

      <g transform="translate(10, 134)">
        <!-- Failover event -->
        <rect x="0" y="0" width="860" height="36" rx="4" fill="#fef3c7"/>
        <circle cx="20" cy="18" r="6" fill="#f59e0b"/>
        <text x="40" y="22" class="text-sm" fill="#d97706">Failover: Web3Forms → EmailJS</text>
        <text x="500" y="22" class="text-muted">Primary provider timeout</text>
        <text x="750" y="22" class="text-sm">3 days ago</text>
      </g>
    </g>

    <!-- Failover History -->
    <g transform="translate(50, 630)">
      <rect x="0" y="0" width="430" height="120" rx="8" fill="#f5f0e6" stroke="#b8a080" stroke-width="1"/>
      <text x="20" y="30" class="heading">Failover Statistics (30 days)</text>

      <text x="20" y="60" class="text-md">Total failovers:</text>
      <text x="150" y="60" class="heading">2</text>

      <text x="220" y="60" class="text-md">Avg recovery:</text>
      <text x="340" y="60" class="heading">3.2s</text>

      <text x="20" y="90" class="text-md">Messages via backup:</text>
      <text x="180" y="90" class="heading">12</text>

      <text x="20" y="110" class="text-muted">SC-002: Failover within 5 seconds</text>
    </g>

    <!-- Configuration -->
    <g transform="translate(500, 630)">
      <rect x="0" y="0" width="430" height="120" rx="8" fill="#f5f0e6" stroke="#b8a080" stroke-width="1"/>
      <text x="20" y="30" class="heading">Configuration</text>

      <text x="20" y="55" class="text-sm">Max retries before failover:</text>
      <rect x="200" y="40" width="60" height="24" rx="4" fill="#fff" stroke="#b8a080" stroke-width="1"/>
      <text x="230" y="57" text-anchor="middle" class="text-md">3</text>

      <text x="20" y="85" class="text-sm">Backoff multiplier:</text>
      <rect x="200" y="70" width="60" height="24" rx="4" fill="#fff" stroke="#b8a080" stroke-width="1"/>
      <text x="230" y="87" text-anchor="middle" class="text-md">2x</text>

      <text x="20" y="110" class="text-muted">FR-008, FR-010, FR-011</text>
    </g>
  </g>

  <!-- MOBILE SECTION -->
  <text x="980" y="52" class="label-mobile">MOBILE</text>
  <g id="mobile-view" transform="translate(980, 60)">
    <!-- Phone frame -->
    <rect x="0" y="0" width="360" height="700" rx="24" fill="#c8b898" stroke="#a08860" stroke-width="2"/>
    <!-- Screen area -->
    <rect x="10" y="10" width="340" height="680" rx="16" fill="#e8d4b8"/>
    <!-- Status bar -->
    <rect x="10" y="10" width="340" height="28" rx="16" fill="#dcc8a8"/>
    <text x="30" y="28" class="text-sm">9:41</text>
    <text x="330" y="28" text-anchor="end" class="text-sm">100%</text>

    <!-- Header -->
    <rect x="20" y="48" width="320" height="44" rx="8" fill="#dcc8a8"/>
    <text x="40" y="76" class="heading">Provider Health</text>

    <!-- Overall status -->
    <rect x="20" y="102" width="320" height="40" rx="6" fill="#dcfce7" stroke="#22c55e" stroke-width="1"/>
    <circle cx="40" cy="122" r="8" fill="#22c55e"/>
    <text x="60" y="127" class="text-sm" fill="#16a34a">All Systems Operational</text>

    <!-- Primary provider card (compact) -->
    <rect x="20" y="152" width="320" height="90" rx="8" fill="#f5f0e6" stroke="#22c55e" stroke-width="2"/>
    <rect x="20" y="152" width="320" height="30" rx="8" fill="#22c55e"/>
    <rect x="20" y="172" width="320" height="10" fill="#22c55e"/>
    <text x="35" y="172" class="text-sm" fill="#fff">Web3Forms (Primary)</text>
    <rect x="260" y="158" width="70" height="20" rx="10" fill="#fff"/>
    <text x="295" y="172" text-anchor="middle" class="text-muted" fill="#22c55e">ACTIVE</text>

    <text x="35" y="205" class="text-sm">Success: 98.7%</text>
    <text x="180" y="205" class="text-sm">Failures: 0</text>

    <!-- Success bar -->
    <rect x="35" y="215" width="270" height="12" rx="3" fill="#dcc8a8"/>
    <rect x="35" y="215" width="266" height="12" rx="3" fill="#22c55e"/>

    <!-- Backup provider card (compact) -->
    <rect x="20" y="252" width="320" height="90" rx="8" fill="#f5f0e6" stroke="#f59e0b" stroke-width="2"/>
    <rect x="20" y="252" width="320" height="30" rx="8" fill="#f59e0b"/>
    <rect x="20" y="272" width="320" height="10" fill="#f59e0b"/>
    <text x="35" y="272" class="text-sm" fill="#fff">EmailJS (Backup)</text>
    <rect x="250" y="258" width="80" height="20" rx="10" fill="#fff"/>
    <text x="290" y="272" text-anchor="middle" class="text-muted" fill="#f59e0b">STANDBY</text>

    <text x="35" y="305" class="text-sm">Success: 100%</text>
    <text x="180" y="305" class="text-sm">Failures: 0</text>

    <!-- Success bar -->
    <rect x="35" y="315" width="270" height="12" rx="3" fill="#dcc8a8"/>
    <rect x="35" y="315" width="270" height="12" rx="3" fill="#22c55e"/>

    <!-- Recent events (compact) -->
    <rect x="20" y="352" width="320" height="180" rx="8" fill="#f5f0e6" stroke="#b8a080" stroke-width="1"/>
    <text x="35" y="378" class="heading">Recent Events</text>

    <g transform="translate(30, 395)">
      <rect x="0" y="0" width="300" height="35" rx="4" fill="#dcfce7"/>
      <circle cx="15" cy="17" r="5" fill="#22c55e"/>
      <text x="30" y="15" class="text-sm">Delivered</text>
      <text x="30" y="28" class="text-muted">5 min ago</text>
    </g>

    <g transform="translate(30, 438)">
      <rect x="0" y="0" width="300" height="35" rx="4" fill="#dcfce7"/>
      <circle cx="15" cy="17" r="5" fill="#22c55e"/>
      <text x="30" y="15" class="text-sm">Delivered</text>
      <text x="30" y="28" class="text-muted">1 hour ago</text>
    </g>

    <g transform="translate(30, 481)">
      <rect x="0" y="0" width="300" height="35" rx="4" fill="#fef3c7"/>
      <circle cx="15" cy="17" r="5" fill="#f59e0b"/>
      <text x="30" y="15" class="text-sm" fill="#d97706">Failover</text>
      <text x="30" y="28" class="text-muted">3 days ago</text>
    </g>

    <!-- Stats summary -->
    <rect x="20" y="542" width="320" height="80" rx="8" fill="#f5f0e6" stroke="#b8a080" stroke-width="1"/>
    <text x="35" y="568" class="heading">30-Day Stats</text>
    <text x="35" y="590" class="text-sm">Failovers: 2</text>
    <text x="150" y="590" class="text-sm">Avg recovery: 3.2s</text>
    <text x="35" y="610" class="text-muted">FR-014: Health status exposed</text>

    <!-- Bottom nav hint -->
    <rect x="20" y="632" width="320" height="48" rx="8" fill="#dcc8a8"/>
    <text x="180" y="662" text-anchor="middle" class="text-sm">Pull to refresh</text>
  </g>

  <!-- Annotations -->
  <g id="annotations" transform="translate(40, 760)">
    <rect x="0" y="0" width="280" height="35" rx="6" fill="#e8d4b8" stroke="#8b5cf6" stroke-width="1"/>
    <text x="140" y="15" text-anchor="middle" class="annotation">FR-014</text>
    <text x="140" y="30" text-anchor="middle" class="text-muted">Provider health for debugging</text>

    <rect x="300" y="0" width="280" height="35" rx="6" fill="#e8d4b8" stroke="#8b5cf6" stroke-width="1"/>
    <text x="440" y="15" text-anchor="middle" class="annotation">FR-015</text>
    <text x="440" y="30" text-anchor="middle" class="text-muted">Errors logged without secrets</text>

    <rect x="600" y="0" width="280" height="35" rx="6" fill="#e8d4b8" stroke="#8b5cf6" stroke-width="1"/>
    <text x="740" y="15" text-anchor="middle" class="annotation">FR-016</text>
    <text x="740" y="30" text-anchor="middle" class="text-muted">Failing providers deprioritized</text>
  </g>
</svg>
