<svg xmlns="http://www.w3.org/2000/svg" viewBox="0 0 1600 900" width="1600" height="900">
  <!-- ============================================================
       GENERATED BY: /wireframe skill
       SOURCE: features/testing/034-blog-library-tests/spec.md
       DATE: 2025-12-31
       DO NOT MANUALLY EDIT - Regenerate with /wireframe command
       ============================================================ -->
  <defs>
    <linearGradient id="bgGrad" x1="0%" y1="0%" x2="100%" y2="100%">
      <stop offset="0%" style="stop-color:#0f172a"/>
      <stop offset="100%" style="stop-color:#1e293b"/>
    </linearGradient>
    <linearGradient id="accentGrad" x1="0%" y1="0%" x2="100%" y2="0%">
      <stop offset="0%" style="stop-color:#8b5cf6"/>
      <stop offset="100%" style="stop-color:#d946ef"/>
    </linearGradient>
    <linearGradient id="seoGrad" x1="0%" y1="0%" x2="100%" y2="0%">
      <stop offset="0%" style="stop-color:#22c55e"/>
      <stop offset="100%" style="stop-color:#16a34a"/>
    </linearGradient>
    <linearGradient id="tocGrad" x1="0%" y1="0%" x2="100%" y2="0%">
      <stop offset="0%" style="stop-color:#3b82f6"/>
      <stop offset="100%" style="stop-color:#1d4ed8"/>
    </linearGradient>
    <linearGradient id="mdGrad" x1="0%" y1="0%" x2="100%" y2="0%">
      <stop offset="0%" style="stop-color:#f97316"/>
      <stop offset="100%" style="stop-color:#ea580c"/>
    </linearGradient>
    <style>
      .heading-lg { fill: #ffffff; font-family: system-ui, sans-serif; font-size: 20px; font-weight: bold; }
      .heading { fill: #ffffff; font-family: system-ui, sans-serif; font-size: 14px; font-weight: bold; }
      .text-md { fill: #cbd5e1; font-family: system-ui, sans-serif; font-size: 12px; }
      .text-sm { fill: #94a3b8; font-family: system-ui, sans-serif; font-size: 10px; }
      .text-muted { fill: #64748b; font-family: system-ui, sans-serif; font-size: 10px; }
      .annotation { fill: #8b5cf6; font-family: monospace; font-size: 10px; }
      .code { fill: #22c55e; font-family: monospace; font-size: 10px; }
      .label-section { fill: #d946ef; font-family: monospace; font-size: 11px; font-weight: bold; }
    </style>
  </defs>

  <!-- Background -->
  <rect width="1600" height="900" fill="url(#bgGrad)"/>

  <!-- Dot grid pattern -->
  <g opacity="0.05">
    <pattern id="dots" width="30" height="30" patternUnits="userSpaceOnUse">
      <circle cx="15" cy="15" r="1" fill="#fff"/>
    </pattern>
    <rect width="1600" height="900" fill="url(#dots)"/>
  </g>

  <!-- Accent line top -->
  <rect x="0" y="0" width="1600" height="3" fill="url(#accentGrad)"/>

  <!-- Title -->
  <text x="800" y="28" text-anchor="middle" font-family="system-ui, sans-serif" font-size="14" font-weight="600" fill="#64748b" letter-spacing="1">BLOG LIBRARY TESTS - MODULE TEST ARCHITECTURE</text>

  <!-- MODULE 1: SEO Analyzer -->
  <g transform="translate(40, 50)">
    <text x="0" y="16" class="label-section">MODULE 1: SEO ANALYZER (P1)</text>

    <rect x="0" y="30" width="480" height="400" rx="12" fill="#1e293b" stroke="#22c55e" stroke-width="2"/>

    <!-- Module Header -->
    <rect x="0" y="30" width="480" height="35" rx="12" fill="url(#seoGrad)"/>
    <rect x="0" y="55" width="480" height="10" fill="url(#seoGrad)"/>
    <text x="240" y="52" text-anchor="middle" fill="#fff" font-family="system-ui, sans-serif" font-size="12px" font-weight="bold">seo-analyzer.ts → seo-analyzer.test.ts</text>

    <!-- Functions Under Test -->
    <g transform="translate(15, 80)">
      <rect x="0" y="0" width="450" height="130" rx="6" fill="#0f172a"/>
      <text x="225" y="20" text-anchor="middle" class="annotation">FUNCTIONS UNDER TEST</text>

      <text x="15" y="45" class="code">calculateSEOScore(post) → 0-100</text>
      <text x="15" y="65" class="code">validateFrontmatter(fm) → {valid, errors[]}</text>
      <text x="15" y="85" class="code">generateSuggestions(post) → string[]</text>
      <text x="15" y="105" class="code">analyzeCategories(cats) → {count, valid}</text>
      <text x="15" y="125" class="code">checkImageAlt(content) → {missing: string[]}</text>
    </g>

    <!-- Test Cases -->
    <g transform="translate(15, 220)">
      <rect x="0" y="0" width="450" height="195" rx="6" fill="#0f172a"/>
      <text x="225" y="20" text-anchor="middle" class="annotation">TEST CASES (FR-001 to FR-005)</text>

      <text x="15" y="45" class="text-sm">✓ calculates score for well-optimized post (90+)</text>
      <text x="15" y="63" class="text-sm">✓ calculates score for poor post (30-50)</text>
      <text x="15" y="81" class="text-sm">✓ validates required frontmatter: title, date, description</text>
      <text x="15" y="99" class="text-sm">✓ identifies missing title field</text>
      <text x="15" y="117" class="text-sm">✓ generates suggestion for missing meta description</text>
      <text x="15" y="135" class="text-sm">✓ validates category count (1-3 recommended)</text>
      <text x="15" y="153" class="text-sm">✓ validates tag usage (3-7 recommended)</text>
      <text x="15" y="171" class="text-sm">✓ detects images without alt text</text>
      <text x="15" y="189" class="text-sm">✓ passes when all images have alt text</text>
    </g>
  </g>

  <!-- MODULE 2: TOC Generator -->
  <g transform="translate(560, 50)">
    <text x="0" y="16" class="label-section">MODULE 2: TOC GENERATOR (P1)</text>

    <rect x="0" y="30" width="480" height="400" rx="12" fill="#1e293b" stroke="#3b82f6" stroke-width="2"/>

    <!-- Module Header -->
    <rect x="0" y="30" width="480" height="35" rx="12" fill="url(#tocGrad)"/>
    <rect x="0" y="55" width="480" height="10" fill="url(#tocGrad)"/>
    <text x="240" y="52" text-anchor="middle" fill="#fff" font-family="system-ui, sans-serif" font-size="12px" font-weight="bold">toc-generator.ts → toc-generator.test.ts</text>

    <!-- Functions Under Test -->
    <g transform="translate(15, 80)">
      <rect x="0" y="0" width="450" height="130" rx="6" fill="#0f172a"/>
      <text x="225" y="20" text-anchor="middle" class="annotation">FUNCTIONS UNDER TEST</text>

      <text x="15" y="45" class="code">extractHeadings(md) → Heading[]</text>
      <text x="15" y="65" class="code">buildHierarchy(headings) → TOCNode[]</text>
      <text x="15" y="85" class="code">generateUniqueId(text) → string</text>
      <text x="15" y="105" class="code">createAnchorLinks(toc) → TOCWithLinks[]</text>
      <text x="15" y="125" class="code">filterByLevel(toc, min, max) → TOCNode[]</text>
    </g>

    <!-- Test Cases -->
    <g transform="translate(15, 220)">
      <rect x="0" y="0" width="450" height="195" rx="6" fill="#0f172a"/>
      <text x="225" y="20" text-anchor="middle" class="annotation">TEST CASES (FR-006 to FR-010)</text>

      <text x="15" y="45" class="text-sm">✓ extracts all H1-H6 headings in order</text>
      <text x="15" y="63" class="text-sm">✓ extracts headings preserving original text</text>
      <text x="15" y="81" class="text-sm">✓ builds hierarchy for H1→H2→H3 nesting</text>
      <text x="15" y="99" class="text-sm">✓ handles skip levels (H1→H3, no H2)</text>
      <text x="15" y="117" class="text-sm">✓ generates unique IDs: "intro", "intro-1", "intro-2"</text>
      <text x="15" y="135" class="text-sm">✓ sanitizes special chars: "What's New?" → "whats-new"</text>
      <text x="15" y="153" class="text-sm">✓ creates URL-safe anchor links</text>
      <text x="15" y="171" class="text-sm">✓ filters to show only H2-H3 when configured</text>
      <text x="15" y="189" class="text-sm">✓ returns empty array for no-heading content</text>
    </g>
  </g>

  <!-- MODULE 3: Markdown Processor -->
  <g transform="translate(1080, 50)">
    <text x="0" y="16" class="label-section">MODULE 3: MARKDOWN PROCESSOR (P2)</text>

    <rect x="0" y="30" width="480" height="400" rx="12" fill="#1e293b" stroke="#f97316" stroke-width="2"/>

    <!-- Module Header -->
    <rect x="0" y="30" width="480" height="35" rx="12" fill="url(#mdGrad)"/>
    <rect x="0" y="55" width="480" height="10" fill="url(#mdGrad)"/>
    <text x="240" y="52" text-anchor="middle" fill="#fff" font-family="system-ui, sans-serif" font-size="12px" font-weight="bold">markdown-processor.ts → markdown-processor.test.ts</text>

    <!-- Functions Under Test -->
    <g transform="translate(15, 80)">
      <rect x="0" y="0" width="450" height="130" rx="6" fill="#0f172a"/>
      <text x="225" y="20" text-anchor="middle" class="annotation">FUNCTIONS UNDER TEST</text>

      <text x="15" y="45" class="code">processMarkdown(md) → {html, meta}</text>
      <text x="15" y="65" class="code">extractFrontmatter(md) → FrontMatter</text>
      <text x="15" y="85" class="code">applyCodeHighlighting(html) → string</text>
      <text x="15" y="105" class="code">transformLinks(html, base) → string</text>
      <text x="15" y="125" class="code">resolveImagePaths(html, base) → string</text>
    </g>

    <!-- Test Cases -->
    <g transform="translate(15, 220)">
      <rect x="0" y="0" width="450" height="195" rx="6" fill="#0f172a"/>
      <text x="225" y="20" text-anchor="middle" class="annotation">TEST CASES (FR-011 to FR-016)</text>

      <text x="15" y="45" class="text-sm">✓ converts **bold** to &lt;strong&gt;</text>
      <text x="15" y="63" class="text-sm">✓ converts *italic* to &lt;em&gt;</text>
      <text x="15" y="81" class="text-sm">✓ applies language-js class to JS code blocks</text>
      <text x="15" y="99" class="text-sm">✓ handles code blocks without language spec</text>
      <text x="15" y="117" class="text-sm">✓ extracts YAML frontmatter as object</text>
      <text x="15" y="135" class="text-sm">✓ adds target="_blank" to external links</text>
      <text x="15" y="153" class="text-sm">✓ keeps internal links relative</text>
      <text x="15" y="171" class="text-sm">✓ resolves relative image paths</text>
      <text x="15" y="189" class="text-sm">✓ renders ordered and unordered lists</text>
    </g>
  </g>

  <!-- TEST ASSERTION STRATEGIES -->
  <g transform="translate(40, 480)">
    <text x="0" y="16" class="label-section">TEST ASSERTION STRATEGIES (FR-022 to FR-024)</text>

    <rect x="0" y="30" width="1520" height="180" rx="12" fill="#1e293b" stroke="#475569" stroke-width="1"/>

    <!-- Strategy 1: Structural Assertions -->
    <g transform="translate(30, 50)">
      <rect x="0" y="0" width="350" height="140" rx="8" fill="#0f172a" stroke="#22c55e" stroke-width="2"/>
      <text x="175" y="25" text-anchor="middle" class="heading" fill="#22c55e">STRUCTURAL ASSERTIONS</text>
      <text x="175" y="45" text-anchor="middle" class="text-muted">Preferred approach - resilient to changes</text>

      <text x="15" y="70" class="code">expect(html).toContain('&lt;strong&gt;')</text>
      <text x="15" y="90" class="code">expect(headings).toHaveLength(5)</text>
      <text x="15" y="110" class="code">expect(score).toBeGreaterThan(80)</text>
      <text x="15" y="130" class="code">expect(errors).toContainEqual({field: 'title'})</text>
    </g>

    <!-- Strategy 2: Inline Snapshots -->
    <g transform="translate(410, 50)">
      <rect x="0" y="0" width="350" height="140" rx="8" fill="#0f172a" stroke="#eab308" stroke-width="2"/>
      <text x="175" y="25" text-anchor="middle" class="heading" fill="#eab308">INLINE SNAPSHOTS</text>
      <text x="175" y="45" text-anchor="middle" class="text-muted">Only for stable structures</text>

      <text x="15" y="70" class="code">expect(toc).toMatchInlineSnapshot(`</text>
      <text x="15" y="90" class="code">  [{"id":"intro","level":1},</text>
      <text x="15" y="110" class="code">   {"id":"setup","level":2}]</text>
      <text x="15" y="130" class="code">`)</text>
    </g>

    <!-- Strategy 3: Value Assertions -->
    <g transform="translate(790, 50)">
      <rect x="0" y="0" width="350" height="140" rx="8" fill="#0f172a" stroke="#3b82f6" stroke-width="2"/>
      <text x="175" y="25" text-anchor="middle" class="heading" fill="#3b82f6">VALUE ASSERTIONS</text>
      <text x="175" y="45" text-anchor="middle" class="text-muted">For scores, counts, flags</text>

      <text x="15" y="70" class="code">expect(score).toBe(85)</text>
      <text x="15" y="90" class="code">expect(isValid).toBe(true)</text>
      <text x="15" y="110" class="code">expect(categoryCount).toBe(3)</text>
      <text x="15" y="130" class="code">expect(missingAlt).toEqual([])</text>
    </g>

    <!-- Anti-pattern -->
    <g transform="translate(1170, 50)">
      <rect x="0" y="0" width="320" height="140" rx="8" fill="#0f172a" stroke="#ef4444" stroke-width="2"/>
      <text x="160" y="25" text-anchor="middle" class="heading" fill="#ef4444">AVOID: FULL HTML SNAPSHOTS</text>
      <text x="160" y="45" text-anchor="middle" class="text-muted">Brittle - breaks on whitespace</text>

      <text x="15" y="70" class="text-sm" fill="#ef4444">✗ toMatchSnapshot() for HTML</text>
      <text x="15" y="90" class="text-sm" fill="#ef4444">✗ Large multiline snapshots</text>
      <text x="15" y="110" class="text-sm" fill="#ef4444">✗ Snapshots without comments</text>
      <text x="15" y="130" class="text-sm" fill="#ef4444">✗ Comparing exact formatting</text>
    </g>
  </g>

  <!-- TEST FILE ORGANIZATION -->
  <g transform="translate(40, 690)">
    <text x="0" y="16" class="label-section">TEST FILE ORGANIZATION</text>

    <rect x="0" y="30" width="1520" height="160" rx="12" fill="#1e293b" stroke="#475569" stroke-width="1"/>

    <!-- File Tree -->
    <g transform="translate(30, 50)">
      <text x="0" y="20" class="code">src/lib/blog/</text>
      <text x="20" y="40" class="code">├── seo-analyzer.ts</text>
      <text x="20" y="60" class="code">├── toc-generator.ts</text>
      <text x="20" y="80" class="code">├── markdown-processor.ts</text>
      <text x="20" y="100" class="code">└── __tests__/</text>
      <text x="40" y="120" class="code">├── seo-analyzer.test.ts</text>
      <text x="40" y="140" class="code">├── toc-generator.test.ts</text>
      <text x="220" y="140" class="code">└── markdown-processor.test.ts</text>
    </g>

    <!-- Test Fixtures -->
    <g transform="translate(450, 50)">
      <rect x="0" y="0" width="350" height="130" rx="6" fill="#0f172a"/>
      <text x="175" y="20" text-anchor="middle" class="annotation">TEST FIXTURES</text>

      <text x="15" y="45" class="text-sm">fixtures/</text>
      <text x="30" y="65" class="text-sm">├── well-optimized-post.md (score 90+)</text>
      <text x="30" y="85" class="text-sm">├── poor-seo-post.md (score 30-50)</text>
      <text x="30" y="105" class="text-sm">├── nested-headings.md (H1→H6)</text>
      <text x="30" y="125" class="text-sm">└── malformed-markdown.md (edge cases)</text>
    </g>

    <!-- Test Runner Config -->
    <g transform="translate(830, 50)">
      <rect x="0" y="0" width="350" height="130" rx="6" fill="#0f172a"/>
      <text x="175" y="20" text-anchor="middle" class="annotation">VITEST CONFIG</text>

      <text x="15" y="45" class="code">// vitest.config.ts</text>
      <text x="15" y="65" class="code">test: {</text>
      <text x="25" y="85" class="code">  include: ['**/*.test.ts'],</text>
      <text x="25" y="105" class="code">  coverage: { threshold: { lines: 90 } }</text>
      <text x="15" y="125" class="code">}</text>
    </g>

    <!-- NFR Summary -->
    <g transform="translate(1210, 50)">
      <rect x="0" y="0" width="280" height="130" rx="6" fill="#0f172a" stroke="#22c55e" stroke-width="1"/>
      <text x="140" y="20" text-anchor="middle" class="annotation">NFR TARGETS</text>

      <text x="15" y="45" class="text-sm">Coverage: 90%+ per module</text>
      <text x="15" y="65" class="text-sm">Suite runtime: &lt;5 seconds</text>
      <text x="15" y="85" class="text-sm">Per test: &lt;100ms</text>
      <text x="15" y="105" class="text-sm">Deterministic: 100%</text>
      <text x="15" y="125" class="text-sm">No flaky tests</text>
    </g>
  </g>

</svg>