<svg xmlns="http://www.w3.org/2000/svg" viewBox="0 0 1400 800" width="1400" height="800">
  <!-- ============================================================
       GENERATED BY: /wireframe skill
       SOURCE: features/code-quality/044-error-handler-integrations/spec.md
       DATE: 2026-01-01
       THEME: Dark (Backend/Architecture)
       DO NOT MANUALLY EDIT - Regenerate with /wireframe command
       ============================================================ -->
  <defs>
    <linearGradient id="bgGrad" x1="0%" y1="0%" x2="100%" y2="100%">
      <stop offset="0%" style="stop-color:#0f172a"/>
      <stop offset="100%" style="stop-color:#1e293b"/>
    </linearGradient>
    <linearGradient id="accentGrad" x1="0%" y1="0%" x2="100%" y2="0%">
      <stop offset="0%" style="stop-color:#8b5cf6"/>
      <stop offset="100%" style="stop-color:#d946ef"/>
    </linearGradient>
    <linearGradient id="errorGrad" x1="0%" y1="0%" x2="100%" y2="0%">
      <stop offset="0%" style="stop-color:#ef4444"/>
      <stop offset="100%" style="stop-color:#f97316"/>
    </linearGradient>
    <linearGradient id="successGrad" x1="0%" y1="0%" x2="100%" y2="0%">
      <stop offset="0%" style="stop-color:#22c55e"/>
      <stop offset="100%" style="stop-color:#10b981"/>
    </linearGradient>
    <marker id="arrowhead" markerWidth="10" markerHeight="7" refX="9" refY="3.5" orient="auto">
      <polygon points="0 0, 10 3.5, 0 7" fill="#8b5cf6"/>
    </marker>
    <marker id="arrowheadError" markerWidth="10" markerHeight="7" refX="9" refY="3.5" orient="auto">
      <polygon points="0 0, 10 3.5, 0 7" fill="#ef4444"/>
    </marker>
    <marker id="arrowheadSuccess" markerWidth="10" markerHeight="7" refX="9" refY="3.5" orient="auto">
      <polygon points="0 0, 10 3.5, 0 7" fill="#22c55e"/>
    </marker>
    <style>
      .heading-lg { fill: #ffffff; font-family: system-ui, sans-serif; font-size: 20px; font-weight: bold; }
      .heading { fill: #ffffff; font-family: system-ui, sans-serif; font-size: 14px; font-weight: bold; }
      .heading-sm { fill: #ffffff; font-family: system-ui, sans-serif; font-size: 12px; font-weight: bold; }
      .text-md { fill: #cbd5e1; font-family: system-ui, sans-serif; font-size: 12px; }
      .text-sm { fill: #94a3b8; font-family: system-ui, sans-serif; font-size: 10px; }
      .text-muted { fill: #8494a8; font-family: system-ui, sans-serif; font-size: 10px; }
      .annotation { fill: #8b5cf6; font-family: monospace; font-size: 10px; font-weight: 600; }
      .label-section { fill: #8b5cf6; font-family: monospace; font-size: 11px; font-weight: bold; letter-spacing: 1px; }
      .label-error { fill: #ef4444; font-family: monospace; font-size: 10px; font-weight: bold; }
      .label-success { fill: #22c55e; font-family: monospace; font-size: 10px; font-weight: bold; }
    </style>
  </defs>

  <!-- Background -->
  <rect width="1400" height="800" fill="url(#bgGrad)"/>

  <!-- Dot grid pattern -->
  <g opacity="0.05">
    <pattern id="dots" width="30" height="30" patternUnits="userSpaceOnUse">
      <circle cx="15" cy="15" r="1" fill="#fff"/>
    </pattern>
    <rect width="1400" height="800" fill="url(#dots)"/>
  </g>

  <!-- Accent line top -->
  <rect x="0" y="0" width="1400" height="3" fill="url(#accentGrad)"/>

  <!-- Title -->
  <text x="700" y="28" text-anchor="middle" font-family="system-ui, sans-serif" font-size="14" font-weight="600" fill="#8494a8" letter-spacing="1">ERROR HANDLER INTEGRATIONS - SYSTEM ARCHITECTURE</text>

  <!-- ===== ERROR SOURCES (Left) ===== -->
  <text x="60" y="65" class="label-section">ERROR SOURCES</text>

  <!-- Unhandled Exception Box -->
  <rect x="40" y="80" width="180" height="70" rx="8" fill="#1e293b" stroke="#ef4444" stroke-width="2"/>
  <text x="130" y="105" text-anchor="middle" class="heading-sm">Unhandled Exception</text>
  <text x="130" y="122" text-anchor="middle" class="text-sm">window.onerror</text>
  <text x="130" y="137" text-anchor="middle" class="text-muted">JavaScript runtime errors</text>

  <!-- Promise Rejection Box -->
  <rect x="40" y="165" width="180" height="70" rx="8" fill="#1e293b" stroke="#ef4444" stroke-width="2"/>
  <text x="130" y="190" text-anchor="middle" class="heading-sm">Promise Rejection</text>
  <text x="130" y="207" text-anchor="middle" class="text-sm">unhandledrejection</text>
  <text x="130" y="222" text-anchor="middle" class="text-muted">Async operation failures</text>

  <!-- Error Boundary Box -->
  <rect x="40" y="250" width="180" height="70" rx="8" fill="#1e293b" stroke="#f97316" stroke-width="2"/>
  <text x="130" y="275" text-anchor="middle" class="heading-sm">Error Boundary</text>
  <text x="130" y="292" text-anchor="middle" class="text-sm">componentDidCatch</text>
  <text x="130" y="307" text-anchor="middle" class="text-muted">React render errors</text>

  <!-- Manual Capture Box -->
  <rect x="40" y="335" width="180" height="70" rx="8" fill="#1e293b" stroke="#eab308" stroke-width="2"/>
  <text x="130" y="360" text-anchor="middle" class="heading-sm">Manual Capture</text>
  <text x="130" y="377" text-anchor="middle" class="text-sm">captureException()</text>
  <text x="130" y="392" text-anchor="middle" class="text-muted">Explicit error logging</text>

  <!-- ===== CENTRAL PROCESSING ===== -->
  <text x="330" y="65" class="label-section">ERROR PROCESSING</text>

  <!-- Error Handler Core -->
  <rect x="300" y="150" width="200" height="180" rx="12" fill="#334155" stroke="#8b5cf6" stroke-width="2"/>
  <text x="400" y="175" text-anchor="middle" class="heading">Error Handler</text>

  <!-- Processing steps -->
  <rect x="320" y="190" width="160" height="28" rx="4" fill="#1e293b"/>
  <text x="400" y="209" text-anchor="middle" class="text-sm">1. Capture &amp; Normalize</text>

  <rect x="320" y="225" width="160" height="28" rx="4" fill="#1e293b"/>
  <text x="400" y="244" text-anchor="middle" class="text-sm">2. PII Scrubbing</text>

  <rect x="320" y="260" width="160" height="28" rx="4" fill="#1e293b"/>
  <text x="400" y="279" text-anchor="middle" class="text-sm">3. Context Enrichment</text>

  <rect x="320" y="295" width="160" height="28" rx="4" fill="#1e293b"/>
  <text x="400" y="314" text-anchor="middle" class="text-sm">4. Severity Classification</text>

  <!-- ===== CONSENT GATE ===== -->
  <text x="330" y="365" class="label-section">CONSENT GATE</text>

  <!-- Consent Decision Diamond -->
  <polygon points="400,395 460,440 400,485 340,440" fill="#1e293b" stroke="#d946ef" stroke-width="2"/>
  <text x="400" y="436" text-anchor="middle" class="heading-sm">Consent?</text>
  <text x="400" y="450" text-anchor="middle" class="text-muted">Check status</text>

  <!-- ===== OFFLINE QUEUE ===== -->
  <text x="60" y="470" class="label-section">OFFLINE QUEUE</text>

  <!-- Queue Box -->
  <rect x="40" y="485" width="180" height="100" rx="8" fill="#1e293b" stroke="#eab308" stroke-width="2"/>
  <text x="130" y="510" text-anchor="middle" class="heading-sm">Local Queue</text>
  <text x="130" y="530" text-anchor="middle" class="text-sm">IndexedDB Storage</text>
  <rect x="60" y="545" width="140" height="28" rx="4" fill="#334155"/>
  <text x="130" y="564" text-anchor="middle" class="text-muted">Persist across refresh</text>

  <!-- ===== MONITORING SERVICES (Right) ===== -->
  <text x="600" y="65" class="label-section">MONITORING SERVICES</text>

  <!-- Error Tracking Service -->
  <rect x="570" y="80" width="220" height="130" rx="8" fill="#1e293b" stroke="#8b5cf6" stroke-width="2"/>
  <text x="680" y="105" text-anchor="middle" class="heading">Error Tracking</text>
  <text x="680" y="125" text-anchor="middle" class="text-sm">Sentry / LogRocket</text>

  <rect x="590" y="140" width="180" height="24" rx="4" fill="#334155"/>
  <text x="680" y="157" text-anchor="middle" class="text-muted">Stack traces + context</text>

  <rect x="590" y="170" width="180" height="24" rx="4" fill="#334155"/>
  <text x="680" y="187" text-anchor="middle" class="text-muted">Breadcrumbs + user ID</text>

  <!-- Session Replay Service -->
  <rect x="570" y="225" width="220" height="130" rx="8" fill="#1e293b" stroke="#d946ef" stroke-width="2"/>
  <text x="680" y="250" text-anchor="middle" class="heading">Session Replay</text>
  <text x="680" y="270" text-anchor="middle" class="text-sm">LogRocket / FullStory</text>

  <rect x="590" y="285" width="180" height="24" rx="4" fill="#334155"/>
  <text x="680" y="302" text-anchor="middle" class="text-muted">User interactions</text>

  <rect x="590" y="315" width="180" height="24" rx="4" fill="#334155"/>
  <text x="680" y="332" text-anchor="middle" class="text-muted">Masked sensitive inputs</text>

  <!-- ===== USER FEEDBACK (Right) ===== -->
  <text x="600" y="385" class="label-section">USER FEEDBACK</text>

  <!-- Toast System -->
  <rect x="570" y="400" width="220" height="100" rx="8" fill="#1e293b" stroke="#22c55e" stroke-width="2"/>
  <text x="680" y="425" text-anchor="middle" class="heading">Toast Notifications</text>

  <g transform="translate(590, 440)">
    <rect width="40" height="20" rx="4" fill="#ef4444"/>
    <text x="20" y="14" text-anchor="middle" class="text-muted" fill="#fff">error</text>
  </g>
  <g transform="translate(640, 440)">
    <rect width="40" height="20" rx="4" fill="#eab308"/>
    <text x="20" y="14" text-anchor="middle" class="text-muted" fill="#1a1a2e">warn</text>
  </g>
  <g transform="translate(690, 440)">
    <rect width="40" height="20" rx="4" fill="#22c55e"/>
    <text x="20" y="14" text-anchor="middle" class="text-muted" fill="#fff">success</text>
  </g>
  <g transform="translate(740, 440)">
    <rect width="40" height="20" rx="4" fill="#3b82f6"/>
    <text x="20" y="14" text-anchor="middle" class="text-muted" fill="#fff">info</text>
  </g>

  <text x="680" y="485" text-anchor="middle" class="text-muted">Queue + Auto-dismiss</text>

  <!-- ===== ERROR CONTEXT ENRICHMENT ===== -->
  <text x="870" y="65" class="label-section">CONTEXT ENRICHMENT</text>

  <!-- Context Sources -->
  <rect x="850" y="80" width="180" height="200" rx="8" fill="#1e293b" stroke="#475569" stroke-width="1"/>
  <text x="940" y="105" text-anchor="middle" class="heading-sm">Error Context</text>

  <rect x="870" y="120" width="140" height="24" rx="4" fill="#334155"/>
  <text x="940" y="137" text-anchor="middle" class="text-sm">User ID</text>

  <rect x="870" y="150" width="140" height="24" rx="4" fill="#334155"/>
  <text x="940" y="167" text-anchor="middle" class="text-sm">Session ID</text>

  <rect x="870" y="180" width="140" height="24" rx="4" fill="#334155"/>
  <text x="940" y="197" text-anchor="middle" class="text-sm">Navigation Path</text>

  <rect x="870" y="210" width="140" height="24" rx="4" fill="#334155"/>
  <text x="940" y="227" text-anchor="middle" class="text-sm">Environment</text>

  <rect x="870" y="240" width="140" height="24" rx="4" fill="#334155"/>
  <text x="940" y="257" text-anchor="middle" class="text-sm">App Version</text>

  <!-- ===== PII SCRUBBING ===== -->
  <text x="870" y="310" class="label-section">PII SCRUBBING</text>

  <rect x="850" y="325" width="180" height="150" rx="8" fill="#1e293b" stroke="#ef4444" stroke-width="1"/>
  <text x="940" y="350" text-anchor="middle" class="heading-sm">Scrubbed Fields</text>

  <rect x="870" y="365" width="140" height="20" rx="4" fill="#334155"/>
  <text x="940" y="380" text-anchor="middle" class="text-muted">email → [EMAIL]</text>

  <rect x="870" y="390" width="140" height="20" rx="4" fill="#334155"/>
  <text x="940" y="405" text-anchor="middle" class="text-muted">password → [REDACTED]</text>

  <rect x="870" y="415" width="140" height="20" rx="4" fill="#334155"/>
  <text x="940" y="430" text-anchor="middle" class="text-muted">token → [TOKEN]</text>

  <rect x="870" y="440" width="140" height="20" rx="4" fill="#334155"/>
  <text x="940" y="455" text-anchor="middle" class="text-muted">credit_card → [CC]</text>

  <!-- ===== CONSENT FLOW DETAIL ===== -->
  <text x="1100" y="65" class="label-section">CONSENT STATES</text>

  <!-- Consent Granted -->
  <rect x="1070" y="80" width="160" height="70" rx="8" fill="#1e293b" stroke="#22c55e" stroke-width="2"/>
  <text x="1150" y="105" text-anchor="middle" class="heading-sm" fill="#22c55e">CONSENTED</text>
  <text x="1150" y="125" text-anchor="middle" class="text-sm">Initialize SDKs</text>
  <text x="1150" y="140" text-anchor="middle" class="text-muted">Send immediately</text>

  <!-- Consent Pending -->
  <rect x="1070" y="165" width="160" height="70" rx="8" fill="#1e293b" stroke="#eab308" stroke-width="2"/>
  <text x="1150" y="190" text-anchor="middle" class="heading-sm" fill="#eab308">PENDING</text>
  <text x="1150" y="210" text-anchor="middle" class="text-sm">Queue locally</text>
  <text x="1150" y="225" text-anchor="middle" class="text-muted">Wait for decision</text>

  <!-- Consent Denied -->
  <rect x="1070" y="250" width="160" height="70" rx="8" fill="#1e293b" stroke="#ef4444" stroke-width="2"/>
  <text x="1150" y="275" text-anchor="middle" class="heading-sm" fill="#ef4444">DENIED</text>
  <text x="1150" y="295" text-anchor="middle" class="text-sm">Local only</text>
  <text x="1150" y="310" text-anchor="middle" class="text-muted">No external sends</text>

  <!-- Consent Withdrawn -->
  <rect x="1070" y="335" width="160" height="70" rx="8" fill="#1e293b" stroke="#f97316" stroke-width="2"/>
  <text x="1150" y="360" text-anchor="middle" class="heading-sm" fill="#f97316">WITHDRAWN</text>
  <text x="1150" y="380" text-anchor="middle" class="text-sm">Stop recording</text>
  <text x="1150" y="395" text-anchor="middle" class="text-muted">Flush &amp; disconnect</text>

  <!-- ===== DATA FLOW LEGEND ===== -->
  <text x="1100" y="445" class="label-section">LEGEND</text>

  <rect x="1070" y="460" width="160" height="100" rx="8" fill="#1e293b" stroke="#475569" stroke-width="1"/>

  <line x1="1090" y1="480" x2="1140" y2="480" stroke="#8b5cf6" stroke-width="2" marker-end="url(#arrowhead)"/>
  <text x="1155" y="484" class="text-sm">Data flow</text>

  <line x1="1090" y1="505" x2="1140" y2="505" stroke="#ef4444" stroke-width="2" marker-end="url(#arrowheadError)"/>
  <text x="1155" y="509" class="text-sm">Error path</text>

  <line x1="1090" y1="530" x2="1140" y2="530" stroke="#22c55e" stroke-width="2" marker-end="url(#arrowheadSuccess)"/>
  <text x="1155" y="534" class="text-sm">Success path</text>

  <!-- ===== FLOW ARROWS ===== -->

  <!-- Error sources to handler -->
  <line x1="220" y1="115" x2="295" y2="200" stroke="#ef4444" stroke-width="2" marker-end="url(#arrowheadError)"/>
  <line x1="220" y1="200" x2="295" y2="220" stroke="#ef4444" stroke-width="2" marker-end="url(#arrowheadError)"/>
  <line x1="220" y1="285" x2="295" y2="260" stroke="#f97316" stroke-width="2"/>
  <line x1="220" y1="370" x2="295" y2="290" stroke="#eab308" stroke-width="2"/>

  <!-- Handler to consent gate -->
  <line x1="400" y1="330" x2="400" y2="390" stroke="#8b5cf6" stroke-width="2" marker-end="url(#arrowhead)"/>

  <!-- Consent gate to services (consented) -->
  <line x1="460" y1="420" x2="565" y2="145" stroke="#22c55e" stroke-width="2" marker-end="url(#arrowheadSuccess)"/>
  <line x1="460" y1="440" x2="565" y2="290" stroke="#22c55e" stroke-width="2" marker-end="url(#arrowheadSuccess)"/>
  <line x1="460" y1="460" x2="565" y2="450" stroke="#22c55e" stroke-width="2" marker-end="url(#arrowheadSuccess)"/>

  <!-- Consent gate to offline queue (pending/denied) -->
  <line x1="340" y1="460" x2="225" y2="520" stroke="#eab308" stroke-width="2" stroke-dasharray="4,2"/>
  <text x="265" y="475" class="text-muted">No consent</text>

  <!-- Context enrichment arrows -->
  <line x1="500" y1="200" x2="845" y2="160" stroke="#8b5cf6" stroke-width="1" stroke-dasharray="4,2"/>

  <!-- Scrubbing arrows -->
  <line x1="500" y1="240" x2="845" y2="390" stroke="#ef4444" stroke-width="1" stroke-dasharray="4,2"/>

  <!-- ===== SEVERITY LEVELS (Bottom) ===== -->
  <text x="60" y="630" class="label-section">ERROR SEVERITY LEVELS</text>

  <g transform="translate(40, 645)">
    <rect width="140" height="50" rx="6" fill="#1e293b" stroke="#64748b" stroke-width="1"/>
    <text x="70" y="22" text-anchor="middle" class="heading-sm">INFO</text>
    <text x="70" y="38" text-anchor="middle" class="text-muted">Debug logging</text>
  </g>

  <g transform="translate(195, 645)">
    <rect width="140" height="50" rx="6" fill="#1e293b" stroke="#eab308" stroke-width="2"/>
    <text x="70" y="22" text-anchor="middle" class="heading-sm" fill="#eab308">WARNING</text>
    <text x="70" y="38" text-anchor="middle" class="text-muted">Recoverable issues</text>
  </g>

  <g transform="translate(350, 645)">
    <rect width="140" height="50" rx="6" fill="#1e293b" stroke="#ef4444" stroke-width="2"/>
    <text x="70" y="22" text-anchor="middle" class="heading-sm" fill="#ef4444">ERROR</text>
    <text x="70" y="38" text-anchor="middle" class="text-muted">Unhandled exceptions</text>
  </g>

  <g transform="translate(505, 645)">
    <rect width="140" height="50" rx="6" fill="#ef4444" stroke="#ef4444" stroke-width="2"/>
    <text x="70" y="22" text-anchor="middle" class="heading-sm" fill="#fff">FATAL</text>
    <text x="70" y="38" text-anchor="middle" class="text-sm" fill="#fff">App crash</text>
  </g>

  <!-- ===== RATE LIMITING (Bottom) ===== -->
  <text x="720" y="630" class="label-section">RATE LIMITING &amp; DEDUP</text>

  <rect x="700" y="645" width="320" height="50" rx="6" fill="#1e293b" stroke="#475569" stroke-width="1"/>
  <text x="860" y="667" text-anchor="middle" class="text-sm">Max 10 errors/minute per source</text>
  <text x="860" y="683" text-anchor="middle" class="text-muted">Duplicate detection via error fingerprint</text>

  <!-- ===== OFFLINE BEHAVIOR (Bottom) ===== -->
  <text x="1100" y="630" class="label-section">OFFLINE BEHAVIOR</text>

  <rect x="1070" y="645" width="160" height="50" rx="6" fill="#1e293b" stroke="#eab308" stroke-width="1"/>
  <text x="1150" y="667" text-anchor="middle" class="text-sm">Queue in IndexedDB</text>
  <text x="1150" y="683" text-anchor="middle" class="text-muted">Sync on reconnect</text>

  <!-- Footer -->
  <text x="700" y="780" text-anchor="middle" class="text-muted">Feature 044 - Error Handler Integrations Architecture</text>
</svg>
