<svg xmlns="http://www.w3.org/2000/svg" viewBox="0 0 1400 800" width="1400" height="800">
  <!-- ============================================================
       GENERATED BY: /wireframe skill
       SOURCE: features/code-quality/044-error-handler-integrations/spec.md
       DATE: 2025-12-31
       DO NOT MANUALLY EDIT - Regenerate with /wireframe command
       ============================================================ -->
  <defs>
    <linearGradient id="bgGrad" x1="0%" y1="0%" x2="100%" y2="100%">
      <stop offset="0%" style="stop-color:#0f172a"/>
      <stop offset="100%" style="stop-color:#1e293b"/>
    </linearGradient>
    <linearGradient id="accentGrad" x1="0%" y1="0%" x2="100%" y2="0%">
      <stop offset="0%" style="stop-color:#8b5cf6"/>
      <stop offset="100%" style="stop-color:#d946ef"/>
    </linearGradient>
    <style>
      .heading-lg { fill: #ffffff; font-family: system-ui, sans-serif; font-size: 20px; font-weight: bold; }
      .heading { fill: #ffffff; font-family: system-ui, sans-serif; font-size: 14px; font-weight: bold; }
      .text-md { fill: #cbd5e1; font-family: system-ui, sans-serif; font-size: 12px; }
      .text-sm { fill: #94a3b8; font-family: system-ui, sans-serif; font-size: 10px; }
      .text-muted { fill: #64748b; font-family: system-ui, sans-serif; font-size: 10px; }
      .annotation { fill: #8b5cf6; font-family: monospace; font-size: 10px; }
      .code { fill: #22c55e; font-family: monospace; font-size: 9px; }
    </style>
    <marker id="arrowhead" markerWidth="10" markerHeight="7" refX="9" refY="3.5" orient="auto">
      <polygon points="0 0, 10 3.5, 0 7" fill="#8b5cf6"/>
    </marker>
    <marker id="arrowhead-green" markerWidth="10" markerHeight="7" refX="9" refY="3.5" orient="auto">
      <polygon points="0 0, 10 3.5, 0 7" fill="#22c55e"/>
    </marker>
    <marker id="arrowhead-red" markerWidth="10" markerHeight="7" refX="9" refY="3.5" orient="auto">
      <polygon points="0 0, 10 3.5, 0 7" fill="#ef4444"/>
    </marker>
  </defs>

  <!-- Background -->
  <rect width="1400" height="800" fill="url(#bgGrad)"/>

  <!-- Dot grid pattern -->
  <g opacity="0.05">
    <pattern id="dots" width="30" height="30" patternUnits="userSpaceOnUse">
      <circle cx="15" cy="15" r="1" fill="#fff"/>
    </pattern>
    <rect width="1400" height="800" fill="url(#dots)"/>
  </g>

  <!-- Accent line top -->
  <rect x="0" y="0" width="1400" height="3" fill="url(#accentGrad)"/>

  <!-- Title -->
  <text x="700" y="35" text-anchor="middle" class="heading-lg">ERROR MONITORING ARCHITECTURE</text>
  <text x="700" y="55" text-anchor="middle" class="text-sm">Consent-Gated Error Capture with PII Scrubbing</text>

  <!-- Application Layer -->
  <g transform="translate(50, 80)">
    <rect x="0" y="0" width="320" height="300" rx="8" fill="#1e293b" stroke="#8b5cf6" stroke-width="2"/>
    <rect x="0" y="0" width="320" height="35" rx="8" fill="#334155"/>
    <rect x="0" y="27" width="320" height="8" fill="#334155"/>
    <text x="160" y="23" text-anchor="middle" class="heading">Application Layer</text>

    <!-- Error sources -->
    <rect x="20" y="50" width="130" height="50" rx="6" fill="#0f172a" stroke="#ef4444" stroke-width="1"/>
    <text x="85" y="75" text-anchor="middle" class="text-sm" fill="#ef4444">Unhandled Exception</text>
    <text x="85" y="90" text-anchor="middle" class="code">window.onerror</text>

    <rect x="170" y="50" width="130" height="50" rx="6" fill="#0f172a" stroke="#ef4444" stroke-width="1"/>
    <text x="235" y="75" text-anchor="middle" class="text-sm" fill="#ef4444">Promise Rejection</text>
    <text x="235" y="90" text-anchor="middle" class="code">unhandledrejection</text>

    <rect x="20" y="115" width="130" height="50" rx="6" fill="#0f172a" stroke="#eab308" stroke-width="1"/>
    <text x="85" y="140" text-anchor="middle" class="text-sm" fill="#eab308">Error Boundary</text>
    <text x="85" y="155" text-anchor="middle" class="code">componentDidCatch</text>

    <rect x="170" y="115" width="130" height="50" rx="6" fill="#0f172a" stroke="#8b5cf6" stroke-width="1"/>
    <text x="235" y="140" text-anchor="middle" class="text-sm" fill="#8b5cf6">Manual Capture</text>
    <text x="235" y="155" text-anchor="middle" class="code">captureException()</text>

    <!-- User context -->
    <rect x="20" y="180" width="280" height="50" rx="6" fill="#0f172a" stroke="#475569" stroke-width="1"/>
    <text x="160" y="200" text-anchor="middle" class="text-sm">User Context Enrichment</text>
    <text x="160" y="218" text-anchor="middle" class="code">userId, sessionId, breadcrumbs</text>

    <!-- Breadcrumbs -->
    <rect x="20" y="245" width="280" height="40" rx="6" fill="#0f172a" stroke="#475569" stroke-width="1"/>
    <text x="160" y="265" text-anchor="middle" class="text-sm">Navigation Breadcrumbs</text>
    <text x="160" y="280" text-anchor="middle" class="text-muted">Page views, clicks, API calls</text>
  </g>

  <!-- Consent Gate -->
  <g transform="translate(420, 120)">
    <rect x="0" y="0" width="180" height="220" rx="8" fill="#1e293b" stroke="#eab308" stroke-width="2"/>
    <rect x="0" y="0" width="180" height="35" rx="8" fill="#334155"/>
    <rect x="0" y="27" width="180" height="8" fill="#334155"/>
    <text x="90" y="23" text-anchor="middle" class="heading" fill="#eab308">Consent Gate</text>

    <!-- Check -->
    <rect x="20" y="50" width="140" height="40" rx="6" fill="#0f172a" stroke="#eab308" stroke-width="1"/>
    <text x="90" y="75" text-anchor="middle" class="text-sm" fill="#eab308">Check Consent</text>

    <!-- Decision -->
    <polygon points="90,110 140,140 90,170 40,140" fill="#0f172a" stroke="#eab308" stroke-width="1"/>
    <text x="90" y="145" text-anchor="middle" class="text-sm" fill="#eab308">?</text>

    <!-- Yes/No paths -->
    <text x="155" y="130" class="text-sm" fill="#22c55e">Yes</text>
    <text x="25" y="130" class="text-sm" fill="#ef4444">No</text>

    <!-- Queue for later -->
    <rect x="20" y="180" width="140" height="30" rx="6" fill="#0f172a" stroke="#475569" stroke-width="1"/>
    <text x="90" y="200" text-anchor="middle" class="text-muted">Queue Locally</text>
  </g>

  <!-- PII Scrubber -->
  <g transform="translate(650, 80)">
    <rect x="0" y="0" width="220" height="180" rx="8" fill="#1e293b" stroke="#22c55e" stroke-width="2"/>
    <rect x="0" y="0" width="220" height="35" rx="8" fill="#334155"/>
    <rect x="0" y="27" width="220" height="8" fill="#334155"/>
    <text x="110" y="23" text-anchor="middle" class="heading" fill="#22c55e">PII Scrubber</text>

    <text x="20" y="55" class="text-sm">Patterns Scrubbed:</text>

    <rect x="20" y="65" width="180" height="20" rx="4" fill="#0f172a"/>
    <text x="30" y="79" class="code">email: /[\w.-]+@[\w.-]+/</text>

    <rect x="20" y="90" width="180" height="20" rx="4" fill="#0f172a"/>
    <text x="30" y="104" class="code">password: /password[=:].*/i</text>

    <rect x="20" y="115" width="180" height="20" rx="4" fill="#0f172a"/>
    <text x="30" y="129" class="code">token: /Bearer\s+\S+/</text>

    <rect x="20" y="140" width="180" height="20" rx="4" fill="#0f172a"/>
    <text x="30" y="154" class="code">cc: /\d{4}[\s-]?\d{4}[\s-]?\d{4}/</text>
  </g>

  <!-- Monitoring Services -->
  <g transform="translate(920, 80)">
    <rect x="0" y="0" width="430" height="300" rx="8" fill="#1e293b" stroke="#d946ef" stroke-width="2"/>
    <rect x="0" y="0" width="430" height="35" rx="8" fill="#334155"/>
    <rect x="0" y="27" width="430" height="8" fill="#334155"/>
    <text x="215" y="23" text-anchor="middle" class="heading" fill="#d946ef">Monitoring Services (Lazy Loaded)</text>

    <!-- Sentry -->
    <rect x="20" y="50" width="190" height="110" rx="6" fill="#0f172a" stroke="#d946ef" stroke-width="1"/>
    <text x="115" y="75" text-anchor="middle" class="heading">Sentry</text>
    <text x="115" y="95" text-anchor="middle" class="text-sm">Error Tracking</text>
    <text x="30" y="115" class="text-muted">• Stack traces</text>
    <text x="30" y="130" class="text-muted">• Breadcrumbs</text>
    <text x="30" y="145" class="text-muted">• User context</text>

    <!-- LogRocket -->
    <rect x="220" y="50" width="190" height="110" rx="6" fill="#0f172a" stroke="#d946ef" stroke-width="1"/>
    <text x="315" y="75" text-anchor="middle" class="heading">LogRocket</text>
    <text x="315" y="95" text-anchor="middle" class="text-sm">Session Replay</text>
    <text x="230" y="115" class="text-muted">• User actions</text>
    <text x="230" y="130" class="text-muted">• Masked inputs</text>
    <text x="230" y="145" class="text-muted">• Error linking</text>

    <!-- Environment context -->
    <rect x="20" y="175" width="390" height="50" rx="6" fill="#0f172a" stroke="#475569" stroke-width="1"/>
    <text x="215" y="195" text-anchor="middle" class="text-sm">Environment Context</text>
    <text x="215" y="213" text-anchor="middle" class="code">env: production | staging | development</text>

    <!-- Severity levels -->
    <rect x="20" y="240" width="90" height="45" rx="6" fill="#3b82f6" opacity="0.2" stroke="#3b82f6"/>
    <text x="65" y="268" text-anchor="middle" class="text-sm" fill="#3b82f6">INFO</text>

    <rect x="120" y="240" width="90" height="45" rx="6" fill="#eab308" opacity="0.2" stroke="#eab308"/>
    <text x="165" y="268" text-anchor="middle" class="text-sm" fill="#eab308">WARNING</text>

    <rect x="220" y="240" width="90" height="45" rx="6" fill="#ef4444" opacity="0.2" stroke="#ef4444"/>
    <text x="265" y="268" text-anchor="middle" class="text-sm" fill="#ef4444">ERROR</text>

    <rect x="320" y="240" width="90" height="45" rx="6" fill="#ef4444" stroke="#ef4444"/>
    <text x="365" y="268" text-anchor="middle" class="text-sm" fill="#fff">FATAL</text>
  </g>

  <!-- Consent Flow Detail -->
  <g transform="translate(50, 410)">
    <rect x="0" y="0" width="600" height="350" rx="8" fill="#1e293b" stroke="#475569" stroke-width="1"/>
    <text x="300" y="30" text-anchor="middle" class="heading">Consent Integration Flow (FR-029 to FR-031)</text>
    <line x1="20" y1="45" x2="580" y2="45" stroke="#475569" stroke-width="1"/>

    <!-- Flow steps -->
    <rect x="30" y="65" width="140" height="50" rx="6" fill="#334155" stroke="#8b5cf6" stroke-width="1"/>
    <text x="100" y="90" text-anchor="middle" class="text-sm">App Start</text>
    <text x="100" y="105" text-anchor="middle" class="text-muted">Check cookie</text>

    <line x1="170" y1="90" x2="200" y2="90" stroke="#8b5cf6" stroke-width="2" marker-end="url(#arrowhead)"/>

    <polygon points="270,65 320,90 270,115 220,90" fill="#334155" stroke="#eab308" stroke-width="1"/>
    <text x="270" y="95" text-anchor="middle" class="text-sm" fill="#eab308">Consent?</text>

    <!-- Yes path -->
    <line x1="320" y1="90" x2="370" y2="90" stroke="#22c55e" stroke-width="2" marker-end="url(#arrowhead-green)"/>
    <text x="345" y="82" class="text-sm" fill="#22c55e">Yes</text>

    <rect x="380" y="65" width="140" height="50" rx="6" fill="#22c55e" opacity="0.2" stroke="#22c55e" stroke-width="1"/>
    <text x="450" y="85" text-anchor="middle" class="text-sm" fill="#22c55e">Initialize</text>
    <text x="450" y="100" text-anchor="middle" class="text-sm" fill="#22c55e">Sentry + LogRocket</text>

    <!-- No path -->
    <line x1="270" y1="115" x2="270" y2="150" stroke="#ef4444" stroke-width="2" marker-end="url(#arrowhead-red)"/>
    <text x="285" y="135" class="text-sm" fill="#ef4444">No</text>

    <rect x="200" y="155" width="140" height="50" rx="6" fill="#ef4444" opacity="0.2" stroke="#ef4444" stroke-width="1"/>
    <text x="270" y="175" text-anchor="middle" class="text-sm" fill="#ef4444">Skip Services</text>
    <text x="270" y="190" text-anchor="middle" class="text-sm" fill="#ef4444">Local fallback only</text>

    <!-- Consent withdrawn -->
    <rect x="30" y="230" width="540" height="100" rx="6" fill="#0f172a" stroke="#ef4444" stroke-width="1"/>
    <text x="300" y="255" text-anchor="middle" class="heading" fill="#ef4444">Consent Withdrawal (NFR-004)</text>
    <text x="50" y="280" class="text-sm">1. Stop session recording immediately</text>
    <text x="50" y="300" class="text-sm">2. Disable error sending</text>
    <text x="50" y="320" class="text-sm">3. Clear queued errors</text>
    <text x="300" y="280" class="text-sm">4. Remove user context</text>
    <text x="300" y="300" class="text-sm">5. Keep local fallback UI working</text>
  </g>

  <!-- Requirements Mapping -->
  <g transform="translate(700, 410)">
    <rect x="0" y="0" width="650" height="350" rx="8" fill="#1e293b" stroke="#475569" stroke-width="1"/>
    <text x="325" y="30" text-anchor="middle" class="heading">Requirements Coverage</text>
    <line x1="20" y1="45" x2="630" y2="45" stroke="#475569" stroke-width="1"/>

    <!-- FR columns -->
    <text x="30" y="70" class="text-md" fill="#8b5cf6">Error Logging (FR-001 to FR-008)</text>
    <text x="40" y="90" class="text-sm">• Unhandled exceptions (FR-001)</text>
    <text x="40" y="105" class="text-sm">• Promise rejections (FR-002)</text>
    <text x="40" y="120" class="text-sm">• User ID context (FR-003)</text>
    <text x="40" y="135" class="text-sm">• Breadcrumbs (FR-004)</text>
    <text x="40" y="150" class="text-sm">• PII scrubbing (FR-005)</text>
    <text x="40" y="165" class="text-sm">• Severity levels (FR-006)</text>
    <text x="40" y="180" class="text-sm">• Environment (FR-007)</text>
    <text x="40" y="195" class="text-sm">• Offline queue (FR-008)</text>

    <text x="240" y="70" class="text-md" fill="#d946ef">Session Replay (FR-009 to FR-014)</text>
    <text x="250" y="90" class="text-sm">• Record interactions (FR-009)</text>
    <text x="250" y="105" class="text-sm">• Mask sensitive inputs (FR-010)</text>
    <text x="250" y="120" class="text-sm">• Link to errors (FR-011)</text>
    <text x="250" y="135" class="text-sm">• Respect opt-out (FR-012)</text>
    <text x="250" y="150" class="text-sm">• Retention period (FR-013)</text>
    <text x="250" y="165" class="text-sm">• Stop on withdrawal (FR-014)</text>

    <text x="450" y="70" class="text-md" fill="#eab308">Consent (FR-029 to FR-031)</text>
    <text x="460" y="90" class="text-sm">• No init without consent</text>
    <text x="460" y="105" class="text-sm">• Check before send</text>
    <text x="460" y="120" class="text-sm">• Immediate withdrawal</text>

    <!-- NFR -->
    <line x1="20" y1="210" x2="630" y2="210" stroke="#475569" stroke-width="1"/>
    <text x="30" y="235" class="text-md" fill="#22c55e">Non-Functional Requirements</text>

    <rect x="30" y="250" width="140" height="80" rx="6" fill="#0f172a" stroke="#22c55e" stroke-width="1"/>
    <text x="100" y="275" text-anchor="middle" class="text-sm" fill="#22c55e">Privacy</text>
    <text x="100" y="295" text-anchor="middle" class="text-muted">NFR-001 to 004</text>
    <text x="100" y="315" text-anchor="middle" class="text-muted">PII, GDPR, Consent</text>

    <rect x="190" y="250" width="140" height="80" rx="6" fill="#0f172a" stroke="#8b5cf6" stroke-width="1"/>
    <text x="260" y="275" text-anchor="middle" class="text-sm" fill="#8b5cf6">Performance</text>
    <text x="260" y="295" text-anchor="middle" class="text-muted">NFR-005 to 008</text>
    <text x="260" y="315" text-anchor="middle" class="text-muted">&lt;50ms, Lazy load</text>

    <rect x="350" y="250" width="140" height="80" rx="6" fill="#0f172a" stroke="#eab308" stroke-width="1"/>
    <text x="420" y="275" text-anchor="middle" class="text-sm" fill="#eab308">Reliability</text>
    <text x="420" y="295" text-anchor="middle" class="text-muted">NFR-009 to 012</text>
    <text x="420" y="315" text-anchor="middle" class="text-muted">Offline, Rate limit</text>

    <rect x="510" y="250" width="120" height="80" rx="6" fill="#22c55e" opacity="0.2" stroke="#22c55e" stroke-width="1"/>
    <text x="570" y="275" text-anchor="middle" class="text-sm" fill="#22c55e">Target</text>
    <text x="570" y="295" text-anchor="middle" class="text-muted">&lt;50ms overhead</text>
    <text x="570" y="315" text-anchor="middle" class="text-muted">60fps toasts</text>
  </g>

  <!-- Flow arrows -->
  <line x1="370" y1="230" x2="410" y2="230" stroke="#8b5cf6" stroke-width="2" marker-end="url(#arrowhead)"/>
  <line x1="600" y1="230" x2="640" y2="170" stroke="#22c55e" stroke-width="2" marker-end="url(#arrowhead-green)"/>
  <line x1="870" y1="170" x2="910" y2="170" stroke="#d946ef" stroke-width="2" marker-end="url(#arrowhead)"/>
</svg>
