<svg xmlns="http://www.w3.org/2000/svg" viewBox="0 0 1400 800" width="1400" height="800">
  <!-- ============================================================
       GENERATED BY: /wireframe skill
       SOURCE: features/code-quality/044-error-handler-integrations/spec.md
       DATE: 2026-01-01
       THEME: Light (UX/Frontend) - v3 True Parchment
       DO NOT MANUALLY EDIT - Regenerate with /wireframe command
       ============================================================ -->
  <defs>
    <linearGradient id="bgGrad" x1="0%" y1="0%" x2="100%" y2="100%">
      <stop offset="0%" style="stop-color:#c7ddf5"/>
      <stop offset="100%" style="stop-color:#b8d4f0"/>
    </linearGradient>
    <linearGradient id="accentGrad" x1="0%" y1="0%" x2="100%" y2="0%">
      <stop offset="0%" style="stop-color:#8b5cf6"/>
      <stop offset="100%" style="stop-color:#d946ef"/>
    </linearGradient>
    <style>
      .heading-lg { fill: #1a1a2e; font-family: system-ui, sans-serif; font-size: 24px; font-weight: 800; }
      .heading { fill: #1a1a2e; font-family: system-ui, sans-serif; font-size: 16px; font-weight: 700; }
      .heading-sm { fill: #1a1a2e; font-family: system-ui, sans-serif; font-size: 14px; font-weight: 600; }
      .text-md { fill: #2d3748; font-family: system-ui, sans-serif; font-size: 14px; font-weight: 500; }
      .text-sm { fill: #374151; font-family: system-ui, sans-serif; font-size: 12px; font-weight: 500; }
      .text-muted { fill: #4b5563; font-family: system-ui, sans-serif; font-size: 11px; font-weight: 500; }
      .annotation { fill: #6d28d9; font-family: monospace; font-size: 12px; font-weight: 600; }
      .label-desktop { fill: #8b5cf6; font-family: monospace; font-size: 13px; font-weight: bold; }
      .label-mobile { fill: #d946ef; font-family: monospace; font-size: 13px; font-weight: bold; }
    </style>
  </defs>

  <!-- Background -->
  <rect width="1400" height="800" fill="url(#bgGrad)"/>

  <!-- Dot grid pattern -->
  <g opacity="0.35">
    <pattern id="dots" width="30" height="30" patternUnits="userSpaceOnUse">
      <circle cx="15" cy="15" r="1" fill="#6b8cba"/>
    </pattern>
    <rect width="1400" height="800" fill="url(#dots)"/>
  </g>

  <!-- Accent line top -->
  <rect x="0" y="0" width="1400" height="3" fill="url(#accentGrad)"/>

  <!-- Title -->
  <text x="700" y="28" text-anchor="middle" font-family="system-ui, sans-serif" font-size="14" font-weight="600" fill="#4b5563" letter-spacing="1">TOAST NOTIFICATION SYSTEM - UI COMPONENTS</text>

  <!-- ===== DESKTOP SECTION ===== -->
  <text x="40" y="52" class="label-desktop">DESKTOP - TOAST TYPES &amp; POSITIONING</text>

  <!-- Desktop Browser Frame -->
  <rect x="40" y="65" width="900" height="500" rx="8" fill="#e8d4b8" stroke="#b8a080" stroke-width="2"/>

  <!-- Browser Header -->
  <rect x="40" y="65" width="900" height="35" rx="8" fill="#dcc8a8"/>
  <circle cx="60" cy="82" r="6" fill="#ef4444"/>
  <circle cx="80" cy="82" r="6" fill="#eab308"/>
  <circle cx="100" cy="82" r="6" fill="#22c55e"/>
  <rect x="130" y="73" width="300" height="18" rx="9" fill="#f5f0e6"/>
  <text x="280" y="86" text-anchor="middle" class="text-muted">scripthammer.com/dashboard</text>

  <!-- App Content Area -->
  <rect x="50" y="110" width="880" height="445" rx="6" fill="#f5f0e6"/>

  <!-- Sidebar placeholder -->
  <rect x="60" y="120" width="180" height="425" rx="6" fill="#e8d4b8" stroke="#b8a080" stroke-width="1"/>
  <text x="150" y="145" text-anchor="middle" class="text-sm">Navigation</text>
  <rect x="75" y="160" width="150" height="30" rx="4" fill="#dcc8a8"/>
  <rect x="75" y="200" width="150" height="30" rx="4" fill="#dcc8a8"/>
  <rect x="75" y="240" width="150" height="30" rx="4" fill="#dcc8a8"/>

  <!-- Main content placeholder -->
  <rect x="250" y="120" width="500" height="425" rx="6" fill="#e8d4b8" stroke="#b8a080" stroke-width="1"/>
  <text x="500" y="145" text-anchor="middle" class="heading-sm">Dashboard Content</text>
  <text x="500" y="165" text-anchor="middle" class="text-muted">Main application area</text>

  <!-- RIGHT SIDE: Detail panel placeholder -->
  <rect x="760" y="120" width="160" height="425" rx="6" fill="#e8d4b8" stroke="#b8a080" stroke-width="1"/>
  <text x="840" y="145" text-anchor="middle" class="text-sm">Details</text>

  <!-- ===== TOAST TYPES (Top-Right Position) ===== -->

  <!-- Error Toast -->
  <g transform="translate(595, 130)">
    <rect width="320" height="70" rx="8" fill="#fef2f2" stroke="#ef4444" stroke-width="2"/>
    <!-- Icon -->
    <circle cx="30" cy="35" r="16" fill="#ef4444"/>
    <text x="30" y="40" text-anchor="middle" fill="#fff" font-size="16" font-weight="bold">!</text>
    <!-- Content -->
    <text x="55" y="25" class="heading-sm" fill="#991b1b">Payment Failed</text>
    <text x="55" y="45" class="text-sm" fill="#7f1d1d">Your card was declined. Please try again.</text>
    <!-- Actions -->
    <rect x="55" y="52" width="60" height="22" rx="4" fill="#ef4444"/>
    <text x="85" y="67" text-anchor="middle" fill="#fff" font-size="11" font-weight="600">Retry</text>
    <text x="135" y="67" class="text-sm" fill="#991b1b">Dismiss</text>
    <!-- Close button -->
    <text x="300" y="25" fill="#991b1b" font-size="16" font-weight="bold">×</text>
  </g>

  <!-- Warning Toast -->
  <g transform="translate(595, 210)">
    <rect width="320" height="70" rx="8" fill="#fefce8" stroke="#eab308" stroke-width="2"/>
    <circle cx="30" cy="35" r="16" fill="#eab308"/>
    <text x="30" y="40" text-anchor="middle" fill="#1a1a2e" font-size="16" font-weight="bold">⚠</text>
    <text x="55" y="25" class="heading-sm" fill="#854d0e">Session Expiring</text>
    <text x="55" y="45" class="text-sm" fill="#713f12">Your session expires in 5 minutes.</text>
    <rect x="55" y="52" width="80" height="22" rx="4" fill="#eab308"/>
    <text x="95" y="67" text-anchor="middle" fill="#1a1a2e" font-size="11" font-weight="600">Extend</text>
    <text x="300" y="25" fill="#854d0e" font-size="16" font-weight="bold">×</text>
  </g>

  <!-- Success Toast -->
  <g transform="translate(595, 290)">
    <rect width="320" height="60" rx="8" fill="#f0fdf4" stroke="#22c55e" stroke-width="2"/>
    <circle cx="30" cy="30" r="16" fill="#22c55e"/>
    <text x="30" y="35" text-anchor="middle" fill="#fff" font-size="16" font-weight="bold">✓</text>
    <text x="55" y="22" class="heading-sm" fill="#166534">Changes Saved</text>
    <text x="55" y="42" class="text-sm" fill="#15803d">Your profile has been updated.</text>
    <text x="300" y="22" fill="#166534" font-size="16" font-weight="bold">×</text>
    <!-- Auto-dismiss indicator -->
    <rect x="0" y="56" width="200" height="4" rx="2" fill="#22c55e" opacity="0.5"/>
  </g>

  <!-- Info Toast -->
  <g transform="translate(595, 360)">
    <rect width="320" height="60" rx="8" fill="#eff6ff" stroke="#3b82f6" stroke-width="2"/>
    <circle cx="30" cy="30" r="16" fill="#3b82f6"/>
    <text x="30" y="35" text-anchor="middle" fill="#fff" font-size="14" font-weight="bold">i</text>
    <text x="55" y="22" class="heading-sm" fill="#1e40af">New Feature Available</text>
    <text x="55" y="42" class="text-sm" fill="#1d4ed8">Try dark mode in settings.</text>
    <rect x="55" y="48" width="70" height="20" rx="4" fill="#3b82f6"/>
    <text x="90" y="62" text-anchor="middle" fill="#fff" font-size="10" font-weight="600">Learn More</text>
    <text x="300" y="22" fill="#1e40af" font-size="16" font-weight="bold">×</text>
  </g>

  <!-- Annotation: Toast Position -->
  <rect x="40" y="600" width="180" height="60" rx="6" fill="#e8d4b8" stroke="#8b5cf6" stroke-width="1"/>
  <text x="130" y="622" text-anchor="middle" class="annotation">POSITION: top-right</text>
  <text x="130" y="642" text-anchor="middle" class="text-muted">Default toast location</text>

  <!-- Annotation: Queue Behavior -->
  <rect x="240" y="600" width="180" height="60" rx="6" fill="#e8d4b8" stroke="#8b5cf6" stroke-width="1"/>
  <text x="330" y="622" text-anchor="middle" class="annotation">QUEUE: sequential</text>
  <text x="330" y="642" text-anchor="middle" class="text-muted">Max 4 visible toasts</text>

  <!-- Annotation: Auto-dismiss -->
  <rect x="440" y="600" width="180" height="60" rx="6" fill="#e8d4b8" stroke="#8b5cf6" stroke-width="1"/>
  <text x="530" y="622" text-anchor="middle" class="annotation">AUTO-DISMISS</text>
  <text x="530" y="642" text-anchor="middle" class="text-muted">Success: 3s, Info: 5s</text>

  <!-- Annotation: A11y -->
  <rect x="640" y="600" width="180" height="60" rx="6" fill="#e8d4b8" stroke="#8b5cf6" stroke-width="1"/>
  <text x="730" y="622" text-anchor="middle" class="annotation">aria-live="polite"</text>
  <text x="730" y="642" text-anchor="middle" class="text-muted">Screen reader announce</text>

  <!-- ===== TOAST ANATOMY (Bottom Left) ===== -->
  <text x="40" y="695" class="label-desktop">TOAST ANATOMY</text>

  <g transform="translate(40, 710)">
    <rect width="400" height="65" rx="8" fill="#e8d4b8" stroke="#8b5cf6" stroke-width="2"/>

    <!-- Icon zone -->
    <rect x="10" y="10" width="45" height="45" rx="6" fill="#dcc8a8" stroke="#8b5cf6" stroke-dasharray="4,2"/>
    <text x="32" y="38" text-anchor="middle" class="text-muted">Icon</text>

    <!-- Content zone -->
    <rect x="65" y="10" width="200" height="45" rx="6" fill="#dcc8a8" stroke="#8b5cf6" stroke-dasharray="4,2"/>
    <text x="165" y="28" text-anchor="middle" class="text-sm">Title</text>
    <text x="165" y="45" text-anchor="middle" class="text-muted">Description text</text>

    <!-- Action zone -->
    <rect x="275" y="10" width="70" height="45" rx="6" fill="#dcc8a8" stroke="#8b5cf6" stroke-dasharray="4,2"/>
    <text x="310" y="38" text-anchor="middle" class="text-muted">Action</text>

    <!-- Close zone -->
    <rect x="355" y="10" width="35" height="45" rx="6" fill="#dcc8a8" stroke="#8b5cf6" stroke-dasharray="4,2"/>
    <text x="372" y="38" text-anchor="middle" class="text-muted">×</text>
  </g>

  <!-- ===== MOBILE SECTION ===== -->
  <text x="980" y="52" class="label-mobile">MOBILE</text>

  <!-- Phone frame -->
  <rect x="980" y="60" width="360" height="700" rx="24" fill="#c8b898" stroke="#a08860" stroke-width="2"/>
  <rect x="990" y="70" width="340" height="680" rx="16" fill="#e8d4b8"/>

  <!-- Status bar -->
  <rect x="990" y="70" width="340" height="28" rx="16" fill="#dcc8a8"/>
  <text x="1010" y="88" class="text-sm">9:41</text>
  <text x="1300" y="88" text-anchor="end" class="text-sm">100%</text>

  <!-- Mobile App Header -->
  <rect x="990" y="98" width="340" height="50" fill="#8b5cf6"/>
  <text x="1160" y="128" text-anchor="middle" fill="#fff" font-size="16" font-weight="600">Dashboard</text>

  <!-- Mobile Content Area -->
  <rect x="1000" y="158" width="320" height="400" rx="8" fill="#f5f0e6"/>
  <text x="1160" y="200" text-anchor="middle" class="text-sm">App Content</text>

  <!-- Mobile Error Toast (Bottom Position) -->
  <g transform="translate(1000, 570)">
    <rect width="320" height="70" rx="12" fill="#fef2f2" stroke="#ef4444" stroke-width="2"/>
    <circle cx="25" cy="35" r="14" fill="#ef4444"/>
    <text x="25" y="40" text-anchor="middle" fill="#fff" font-size="14" font-weight="bold">!</text>
    <text x="50" y="22" font-size="13" font-weight="600" fill="#991b1b">Network Error</text>
    <text x="50" y="42" font-size="11" fill="#7f1d1d">Please check your connection.</text>
    <rect x="50" y="50" width="55" height="20" rx="4" fill="#ef4444"/>
    <text x="77" y="64" text-anchor="middle" fill="#fff" font-size="10" font-weight="600">Retry</text>
    <text x="295" y="22" fill="#991b1b" font-size="16" font-weight="bold">×</text>
  </g>

  <!-- Mobile Success Toast (Stacked) -->
  <g transform="translate(1000, 650)">
    <rect width="320" height="55" rx="12" fill="#f0fdf4" stroke="#22c55e" stroke-width="2"/>
    <circle cx="25" cy="27" r="14" fill="#22c55e"/>
    <text x="25" y="32" text-anchor="middle" fill="#fff" font-size="14" font-weight="bold">✓</text>
    <text x="50" y="22" font-size="13" font-weight="600" fill="#166534">Message Sent</text>
    <text x="50" y="40" font-size="11" fill="#15803d">Your message was delivered.</text>
    <text x="295" y="22" fill="#166534" font-size="16" font-weight="bold">×</text>
    <!-- Progress bar -->
    <rect x="0" y="51" width="180" height="4" rx="2" fill="#22c55e" opacity="0.5"/>
  </g>

  <!-- Mobile Tab Bar -->
  <rect x="990" y="710" width="340" height="40" rx="16" fill="#dcc8a8"/>
  <text x="1050" y="735" text-anchor="middle" class="text-muted">Home</text>
  <text x="1160" y="735" text-anchor="middle" class="text-muted">Search</text>
  <text x="1270" y="735" text-anchor="middle" class="text-muted">Profile</text>

  <!-- Mobile Annotation -->
  <rect x="840" y="710" width="120" height="55" rx="6" fill="#e8d4b8" stroke="#d946ef" stroke-width="1"/>
  <text x="900" y="730" text-anchor="middle" class="annotation" fill="#d946ef">MOBILE</text>
  <text x="900" y="750" text-anchor="middle" class="text-muted">Bottom position</text>

  <!-- Footer -->
  <text x="700" y="785" text-anchor="middle" class="text-muted">Feature 044 - Toast Notification System</text>
</svg>
