<svg xmlns="http://www.w3.org/2000/svg" viewBox="0 0 1400 800" width="1400" height="800">
  <!-- ============================================================
       GENERATED BY: /wireframe skill
       SOURCE: features/code-quality/044-error-handler-integrations/spec.md
       DATE: 2025-12-31
       DO NOT MANUALLY EDIT - Regenerate with /wireframe command
       ============================================================ -->
  <defs>
    <linearGradient id="bgGrad" x1="0%" y1="0%" x2="100%" y2="100%">
      <stop offset="0%" style="stop-color:#0f172a"/>
      <stop offset="100%" style="stop-color:#1e293b"/>
    </linearGradient>
    <linearGradient id="accentGrad" x1="0%" y1="0%" x2="100%" y2="0%">
      <stop offset="0%" style="stop-color:#8b5cf6"/>
      <stop offset="100%" style="stop-color:#d946ef"/>
    </linearGradient>
    <style>
      .heading-lg { fill: #ffffff; font-family: system-ui, sans-serif; font-size: 20px; font-weight: bold; }
      .heading { fill: #ffffff; font-family: system-ui, sans-serif; font-size: 14px; font-weight: bold; }
      .text-md { fill: #cbd5e1; font-family: system-ui, sans-serif; font-size: 12px; }
      .text-sm { fill: #94a3b8; font-family: system-ui, sans-serif; font-size: 10px; }
      .text-muted { fill: #64748b; font-family: system-ui, sans-serif; font-size: 10px; }
      .annotation { fill: #8b5cf6; font-family: monospace; font-size: 10px; }
      .label-desktop { fill: #8b5cf6; font-family: monospace; font-size: 11px; font-weight: bold; }
      .label-mobile { fill: #d946ef; font-family: monospace; font-size: 11px; font-weight: bold; }
    </style>
  </defs>

  <!-- Background -->
  <rect width="1400" height="800" fill="url(#bgGrad)"/>

  <!-- Dot grid pattern -->
  <g opacity="0.05">
    <pattern id="dots" width="30" height="30" patternUnits="userSpaceOnUse">
      <circle cx="15" cy="15" r="1" fill="#fff"/>
    </pattern>
    <rect width="1400" height="800" fill="url(#dots)"/>
  </g>

  <!-- Accent line top -->
  <rect x="0" y="0" width="1400" height="3" fill="url(#accentGrad)"/>

  <!-- Title -->
  <text x="700" y="28" text-anchor="middle" font-family="system-ui, sans-serif" font-size="14" font-weight="600" fill="#64748b" letter-spacing="1">TOAST NOTIFICATION SYSTEM</text>

  <!-- DESKTOP SECTION -->
  <text x="40" y="52" class="label-desktop">DESKTOP - Toast Variants</text>
  <g id="desktop-view">
    <!-- App background mockup -->
    <rect x="40" y="60" width="900" height="680" rx="8" fill="#0f172a" stroke="#475569" stroke-width="1"/>

    <!-- Toast container - top right -->
    <g transform="translate(580, 80)">
      <!-- Success toast -->
      <rect x="0" y="0" width="340" height="70" rx="8" fill="#1e293b" stroke="#22c55e" stroke-width="2"/>
      <circle cx="30" cy="35" r="16" fill="#22c55e" opacity="0.2"/>
      <text x="30" y="40" text-anchor="middle" fill="#22c55e" font-size="16">✓</text>
      <text x="60" y="28" class="heading" fill="#22c55e">Changes Saved</text>
      <text x="60" y="48" class="text-md">Your profile has been updated successfully.</text>
      <rect x="280" y="22" width="40" height="26" rx="4" fill="none" stroke="#475569" stroke-width="1"/>
      <text x="300" y="40" text-anchor="middle" class="text-sm">×</text>

      <!-- Error toast -->
      <rect x="0" y="85" width="340" height="90" rx="8" fill="#1e293b" stroke="#ef4444" stroke-width="2"/>
      <circle cx="30" cy="45" r="16" fill="#ef4444" opacity="0.2"/>
      <text x="30" y="50" text-anchor="middle" fill="#ef4444" font-size="16">!</text>
      <text x="60" y="35" class="heading" fill="#ef4444">Payment Failed</text>
      <text x="60" y="55" class="text-md">Unable to process your payment. Please try again.</text>
      <rect x="60" y="70" width="70" height="28" rx="4" fill="#ef4444"/>
      <text x="95" y="88" text-anchor="middle" class="text-sm" fill="#fff">Retry</text>
      <rect x="140" y="70" width="70" height="28" rx="4" fill="none" stroke="#475569" stroke-width="1"/>
      <text x="175" y="88" text-anchor="middle" class="text-sm">Dismiss</text>
      <rect x="280" y="32" width="40" height="26" rx="4" fill="none" stroke="#475569" stroke-width="1"/>
      <text x="300" y="50" text-anchor="middle" class="text-sm">×</text>

      <!-- Warning toast -->
      <rect x="0" y="190" width="340" height="70" rx="8" fill="#1e293b" stroke="#eab308" stroke-width="2"/>
      <circle cx="30" cy="35" r="16" fill="#eab308" opacity="0.2"/>
      <text x="30" y="40" text-anchor="middle" fill="#eab308" font-size="16">⚠</text>
      <text x="60" y="28" class="heading" fill="#eab308">Session Expiring</text>
      <text x="60" y="48" class="text-md">Your session will expire in 5 minutes.</text>
      <rect x="280" y="22" width="40" height="26" rx="4" fill="none" stroke="#475569" stroke-width="1"/>
      <text x="300" y="40" text-anchor="middle" class="text-sm">×</text>

      <!-- Info toast -->
      <rect x="0" y="275" width="340" height="70" rx="8" fill="#1e293b" stroke="#3b82f6" stroke-width="2"/>
      <circle cx="30" cy="35" r="16" fill="#3b82f6" opacity="0.2"/>
      <text x="30" y="40" text-anchor="middle" fill="#3b82f6" font-size="14">i</text>
      <text x="60" y="28" class="heading" fill="#3b82f6">New Update Available</text>
      <text x="60" y="48" class="text-md">Version 2.1 includes performance improvements.</text>
      <rect x="280" y="22" width="40" height="26" rx="4" fill="none" stroke="#475569" stroke-width="1"/>
      <text x="300" y="40" text-anchor="middle" class="text-sm">×</text>
    </g>

    <!-- Toast anatomy -->
    <g transform="translate(60, 470)">
      <rect x="0" y="0" width="400" height="200" rx="8" fill="#1e293b" stroke="#8b5cf6" stroke-width="1"/>
      <text x="200" y="25" text-anchor="middle" class="heading">Toast Anatomy (FR-015 to FR-021)</text>
      <line x1="20" y1="40" x2="380" y2="40" stroke="#475569" stroke-width="1"/>

      <!-- Anatomy diagram -->
      <rect x="30" y="60" width="340" height="80" rx="8" fill="#0f172a" stroke="#475569" stroke-width="1"/>

      <circle cx="55" cy="100" r="12" fill="#8b5cf6" opacity="0.3" stroke="#8b5cf6"/>
      <text x="55" y="105" text-anchor="middle" class="text-sm">1</text>

      <rect x="80" y="75" width="120" height="15" rx="2" fill="#334155"/>
      <text x="140" y="86" text-anchor="middle" class="text-muted">Title</text>

      <rect x="80" y="95" width="200" height="25" rx="2" fill="#334155"/>
      <text x="180" y="112" text-anchor="middle" class="text-muted">Message body</text>

      <rect x="300" y="80" width="50" height="40" rx="4" fill="#334155"/>
      <text x="325" y="105" text-anchor="middle" class="text-muted">Actions</text>

      <!-- Legend -->
      <text x="30" y="165" class="text-sm">1. Icon (type indicator)</text>
      <text x="30" y="180" class="text-sm">2. Title + Message</text>
      <text x="200" y="165" class="text-sm">3. Action buttons</text>
      <text x="200" y="180" class="text-sm">4. Dismiss button</text>
    </g>

    <!-- Queue behavior -->
    <g transform="translate(480, 470)">
      <rect x="0" y="0" width="440" height="200" rx="8" fill="#1e293b" stroke="#8b5cf6" stroke-width="1"/>
      <text x="220" y="25" text-anchor="middle" class="heading">Queue &amp; Timing (FR-016, FR-017)</text>
      <line x1="20" y1="40" x2="420" y2="40" stroke="#475569" stroke-width="1"/>

      <!-- Queue visualization -->
      <rect x="30" y="55" width="80" height="40" rx="4" fill="#22c55e" opacity="0.2" stroke="#22c55e"/>
      <text x="70" y="80" text-anchor="middle" class="text-sm" fill="#22c55e">Showing</text>

      <text x="120" y="80" class="text-muted">→</text>

      <rect x="140" y="55" width="60" height="40" rx="4" fill="#eab308" opacity="0.2" stroke="#eab308"/>
      <text x="170" y="80" text-anchor="middle" class="text-sm" fill="#eab308">Next</text>

      <rect x="210" y="55" width="60" height="40" rx="4" fill="#475569" opacity="0.3" stroke="#475569"/>
      <text x="240" y="80" text-anchor="middle" class="text-muted">Queue</text>

      <rect x="280" y="55" width="60" height="40" rx="4" fill="#475569" opacity="0.2" stroke="#475569"/>
      <text x="310" y="80" text-anchor="middle" class="text-muted">Queue</text>

      <!-- Timing -->
      <text x="30" y="120" class="text-md" fill="#fff">Auto-dismiss Timers:</text>
      <text x="50" y="140" class="text-sm">Success: 3 seconds</text>
      <text x="50" y="155" class="text-sm">Info: 5 seconds</text>
      <text x="200" y="140" class="text-sm">Warning: 8 seconds</text>
      <text x="200" y="155" class="text-sm">Error: Manual dismiss only</text>

      <text x="30" y="180" class="text-muted">FR-020: aria-live="polite" for screen readers</text>
    </g>
  </g>

  <!-- MOBILE SECTION -->
  <text x="980" y="52" class="label-mobile">MOBILE</text>
  <g id="mobile-view" transform="translate(980, 60)">
    <!-- Phone frame -->
    <rect x="0" y="0" width="360" height="700" rx="24" fill="#1e293b" stroke="#475569" stroke-width="2"/>
    <rect x="10" y="10" width="340" height="680" rx="16" fill="#0f172a"/>

    <!-- Status bar -->
    <rect x="10" y="10" width="340" height="28" rx="16" fill="#1e293b"/>
    <text x="30" y="28" class="text-sm">9:41</text>
    <text x="320" y="28" text-anchor="end" class="text-sm">100%</text>

    <!-- Mobile toast - bottom position -->
    <g transform="translate(20, 580)">
      <rect x="0" y="0" width="320" height="80" rx="8" fill="#1e293b" stroke="#ef4444" stroke-width="2"/>
      <circle cx="25" cy="40" r="14" fill="#ef4444" opacity="0.2"/>
      <text x="25" y="45" text-anchor="middle" fill="#ef4444" font-size="14">!</text>
      <text x="50" y="30" class="heading" fill="#ef4444">Connection Lost</text>
      <text x="50" y="50" class="text-sm">Check your internet connection.</text>
      <rect x="50" y="58" width="60" height="24" rx="4" fill="#ef4444"/>
      <text x="80" y="74" text-anchor="middle" class="text-sm" fill="#fff">Retry</text>
      <rect x="280" y="28" width="30" height="24" rx="4" fill="none" stroke="#475569" stroke-width="1"/>
      <text x="295" y="44" text-anchor="middle" class="text-sm">×</text>
    </g>

    <!-- Position indicator -->
    <text x="180" y="560" text-anchor="middle" class="annotation">Bottom position for mobile</text>
    <text x="180" y="575" text-anchor="middle" class="text-muted">FR-019: Configurable positioning</text>

    <!-- Swipe gesture -->
    <rect x="30" y="480" width="300" height="50" rx="6" fill="#1e293b" stroke="#475569" stroke-width="1"/>
    <text x="180" y="505" text-anchor="middle" class="text-sm">Swipe to dismiss</text>
    <text x="180" y="520" text-anchor="middle" class="text-muted">← →</text>

    <!-- App content mockup -->
    <rect x="30" y="50" width="300" height="40" rx="6" fill="#334155"/>
    <text x="180" y="75" text-anchor="middle" class="text-muted">App Header</text>

    <rect x="30" y="110" width="300" height="120" rx="6" fill="#1e293b" stroke="#475569" stroke-width="1"/>
    <text x="180" y="175" text-anchor="middle" class="text-muted">Content Area</text>

    <rect x="30" y="250" width="300" height="80" rx="6" fill="#1e293b" stroke="#475569" stroke-width="1"/>
    <text x="180" y="295" text-anchor="middle" class="text-muted">Card Component</text>

    <rect x="30" y="350" width="300" height="80" rx="6" fill="#1e293b" stroke="#475569" stroke-width="1"/>
    <text x="180" y="395" text-anchor="middle" class="text-muted">Another Card</text>
  </g>

  <!-- Annotations -->
  <g class="annotations">
    <rect x="40" y="370" width="120" height="70" rx="4" fill="#1e293b" stroke="#8b5cf6" stroke-width="1"/>
    <text x="100" y="395" text-anchor="middle" class="annotation">Toast Types</text>
    <text x="100" y="410" text-anchor="middle" class="text-muted">success</text>
    <text x="100" y="423" text-anchor="middle" class="text-muted">error</text>
    <text x="100" y="436" text-anchor="middle" class="text-muted">warning / info</text>

    <rect x="180" y="370" width="120" height="70" rx="4" fill="#1e293b" stroke="#22c55e" stroke-width="1"/>
    <text x="240" y="395" text-anchor="middle" class="annotation" fill="#22c55e">Actions</text>
    <text x="240" y="410" text-anchor="middle" class="text-muted">Retry (FR-018)</text>
    <text x="240" y="423" text-anchor="middle" class="text-muted">Dismiss</text>
    <text x="240" y="436" text-anchor="middle" class="text-muted">Custom</text>

    <rect x="320" y="370" width="120" height="70" rx="4" fill="#1e293b" stroke="#eab308" stroke-width="1"/>
    <text x="380" y="395" text-anchor="middle" class="annotation" fill="#eab308">A11y</text>
    <text x="380" y="410" text-anchor="middle" class="text-muted">aria-live</text>
    <text x="380" y="423" text-anchor="middle" class="text-muted">role="alert"</text>
    <text x="380" y="436" text-anchor="middle" class="text-muted">FR-020</text>
  </g>
</svg>
