<svg xmlns="http://www.w3.org/2000/svg" viewBox="0 0 1400 800" width="1400" height="800">
  <!-- ============================================================
       GENERATED BY: /wireframe skill
       SOURCE: features/code-quality/044-error-handler-integrations/spec.md
       DATE: 2025-12-31
       DO NOT MANUALLY EDIT - Regenerate with /wireframe command
       ============================================================ -->
  <defs>
    <linearGradient id="bgGrad" x1="0%" y1="0%" x2="100%" y2="100%">
      <stop offset="0%" style="stop-color:#0f172a"/>
      <stop offset="100%" style="stop-color:#1e293b"/>
    </linearGradient>
    <linearGradient id="accentGrad" x1="0%" y1="0%" x2="100%" y2="0%">
      <stop offset="0%" style="stop-color:#8b5cf6"/>
      <stop offset="100%" style="stop-color:#d946ef"/>
    </linearGradient>
    <style>
      .heading-lg { fill: #ffffff; font-family: system-ui, sans-serif; font-size: 20px; font-weight: bold; }
      .heading { fill: #ffffff; font-family: system-ui, sans-serif; font-size: 14px; font-weight: bold; }
      .text-md { fill: #cbd5e1; font-family: system-ui, sans-serif; font-size: 12px; }
      .text-sm { fill: #94a3b8; font-family: system-ui, sans-serif; font-size: 10px; }
      .text-muted { fill: #64748b; font-family: system-ui, sans-serif; font-size: 10px; }
      .annotation { fill: #8b5cf6; font-family: monospace; font-size: 10px; }
      .label-desktop { fill: #8b5cf6; font-family: monospace; font-size: 11px; font-weight: bold; }
      .label-mobile { fill: #d946ef; font-family: monospace; font-size: 11px; font-weight: bold; }
    </style>
  </defs>

  <!-- Background -->
  <rect width="1400" height="800" fill="url(#bgGrad)"/>

  <!-- Dot grid pattern -->
  <g opacity="0.05">
    <pattern id="dots" width="30" height="30" patternUnits="userSpaceOnUse">
      <circle cx="15" cy="15" r="1" fill="#fff"/>
    </pattern>
    <rect width="1400" height="800" fill="url(#dots)"/>
  </g>

  <!-- Accent line top -->
  <rect x="0" y="0" width="1400" height="3" fill="url(#accentGrad)"/>

  <!-- Title -->
  <text x="700" y="28" text-anchor="middle" font-family="system-ui, sans-serif" font-size="14" font-weight="600" fill="#64748b" letter-spacing="1">ERROR BOUNDARY FALLBACK UIs</text>

  <!-- Component-level error boundary -->
  <text x="60" y="60" class="label-desktop">COMPONENT-LEVEL FALLBACK (FR-023)</text>
  <g transform="translate(40, 75)">
    <!-- App mockup with working areas -->
    <rect x="0" y="0" width="420" height="350" rx="8" fill="#0f172a" stroke="#475569" stroke-width="1"/>

    <!-- Header -->
    <rect x="0" y="0" width="420" height="40" rx="8" fill="#334155"/>
    <rect x="0" y="32" width="420" height="8" fill="#334155"/>
    <text x="20" y="26" class="heading">Dashboard</text>

    <!-- Sidebar (working) -->
    <rect x="10" y="50" width="100" height="290" rx="6" fill="#1e293b" stroke="#475569" stroke-width="1"/>
    <text x="60" y="75" text-anchor="middle" class="text-sm">Navigation</text>
    <rect x="20" y="90" width="80" height="24" rx="4" fill="#334155"/>
    <rect x="20" y="120" width="80" height="24" rx="4" fill="#334155"/>
    <rect x="20" y="150" width="80" height="24" rx="4" fill="#8b5cf6"/>
    <rect x="20" y="180" width="80" height="24" rx="4" fill="#334155"/>
    <text x="60" y="320" text-anchor="middle" class="text-muted">Working ✓</text>

    <!-- Main content (working) -->
    <rect x="120" y="50" width="180" height="290" rx="6" fill="#1e293b" stroke="#475569" stroke-width="1"/>
    <text x="210" y="75" text-anchor="middle" class="text-sm">Main Content</text>
    <rect x="130" y="90" width="160" height="60" rx="4" fill="#334155"/>
    <rect x="130" y="160" width="160" height="60" rx="4" fill="#334155"/>
    <rect x="130" y="230" width="160" height="60" rx="4" fill="#334155"/>
    <text x="210" y="320" text-anchor="middle" class="text-muted">Working ✓</text>

    <!-- Detail panel (crashed - component boundary) -->
    <rect x="310" y="50" width="100" height="290" rx="6" fill="#1e293b" stroke="#ef4444" stroke-width="2"/>

    <!-- Error fallback UI -->
    <circle cx="360" cy="130" r="25" fill="#ef4444" opacity="0.1"/>
    <text x="360" y="138" text-anchor="middle" fill="#ef4444" font-size="24">!</text>

    <text x="360" y="175" text-anchor="middle" class="text-sm" fill="#ef4444">Widget Error</text>
    <text x="360" y="195" text-anchor="middle" class="text-muted">Something went</text>
    <text x="360" y="210" text-anchor="middle" class="text-muted">wrong here.</text>

    <rect x="325" y="225" width="70" height="26" rx="4" fill="#8b5cf6"/>
    <text x="360" y="243" text-anchor="middle" class="text-sm" fill="#fff">Retry</text>

    <rect x="325" y="260" width="70" height="26" rx="4" fill="none" stroke="#475569" stroke-width="1"/>
    <text x="360" y="278" text-anchor="middle" class="text-muted">Report</text>

    <text x="360" y="320" text-anchor="middle" class="text-sm" fill="#ef4444">Crashed ✗</text>
  </g>

  <!-- Feature-level error boundary -->
  <text x="500" y="60" class="label-desktop">FEATURE-LEVEL FALLBACK (FR-023)</text>
  <g transform="translate(480, 75)">
    <rect x="0" y="0" width="420" height="350" rx="8" fill="#0f172a" stroke="#475569" stroke-width="1"/>

    <!-- Header (working) -->
    <rect x="0" y="0" width="420" height="40" rx="8" fill="#334155"/>
    <rect x="0" y="32" width="420" height="8" fill="#334155"/>
    <text x="20" y="26" class="heading">Payment Page</text>
    <text x="350" y="26" text-anchor="end" class="text-muted">Step 2/3</text>

    <!-- Payment form crashed -->
    <rect x="30" y="60" width="360" height="220" rx="8" fill="#1e293b" stroke="#ef4444" stroke-width="2"/>

    <!-- Error fallback for entire feature -->
    <circle cx="210" cy="120" r="35" fill="#ef4444" opacity="0.1"/>
    <text x="210" y="130" text-anchor="middle" fill="#ef4444" font-size="32">!</text>

    <text x="210" y="175" text-anchor="middle" class="heading" fill="#ef4444">Payment Form Unavailable</text>
    <text x="210" y="200" text-anchor="middle" class="text-md">We couldn't load the payment form.</text>
    <text x="210" y="220" text-anchor="middle" class="text-md">Please try again or use a different browser.</text>

    <rect x="130" y="240" width="80" height="30" rx="6" fill="#8b5cf6"/>
    <text x="170" y="260" text-anchor="middle" class="heading">Try Again</text>

    <rect x="220" y="240" width="80" height="30" rx="6" fill="none" stroke="#475569" stroke-width="1"/>
    <text x="260" y="260" text-anchor="middle" class="text-md">Go Back</text>

    <!-- Navigation still works -->
    <rect x="30" y="300" width="360" height="40" rx="6" fill="#1e293b" stroke="#475569" stroke-width="1"/>
    <text x="100" y="325" text-anchor="middle" class="text-sm">< Back to Cart</text>
    <text x="320" y="325" text-anchor="middle" class="text-muted">Navigation works</text>
  </g>

  <!-- Global error boundary / Full page error -->
  <text x="940" y="60" class="label-desktop">GLOBAL FALLBACK (FR-022, FR-027)</text>
  <g transform="translate(920, 75)">
    <rect x="0" y="0" width="420" height="350" rx="8" fill="#0f172a" stroke="#ef4444" stroke-width="2"/>

    <!-- Full page error state -->
    <circle cx="210" cy="100" r="50" fill="#ef4444" opacity="0.1"/>
    <text x="210" y="115" text-anchor="middle" fill="#ef4444" font-size="48">!</text>

    <text x="210" y="175" text-anchor="middle" class="heading-lg" fill="#ef4444">Something Went Wrong</text>
    <text x="210" y="205" text-anchor="middle" class="text-md">We're sorry, but the application encountered</text>
    <text x="210" y="225" text-anchor="middle" class="text-md">an unexpected error.</text>

    <rect x="120" y="250" width="180" height="40" rx="6" fill="#8b5cf6"/>
    <text x="210" y="276" text-anchor="middle" class="heading">Reload Application</text>

    <rect x="120" y="300" width="180" height="36" rx="6" fill="none" stroke="#475569" stroke-width="1"/>
    <text x="210" y="323" text-anchor="middle" class="text-md">Contact Support</text>

    <text x="210" y="365" text-anchor="middle" class="text-muted">Error ID: ERR-2025-ABC123</text>
  </g>

  <!-- Error boundary hierarchy -->
  <g transform="translate(40, 450)">
    <rect x="0" y="0" width="600" height="310" rx="8" fill="#1e293b" stroke="#8b5cf6" stroke-width="1"/>
    <text x="300" y="30" text-anchor="middle" class="heading">Error Boundary Hierarchy (FR-022 to FR-028)</text>
    <line x1="20" y1="45" x2="580" y2="45" stroke="#475569" stroke-width="1"/>

    <!-- Hierarchy diagram -->
    <rect x="220" y="60" width="160" height="40" rx="6" fill="#ef4444" opacity="0.2" stroke="#ef4444"/>
    <text x="300" y="85" text-anchor="middle" class="text-sm" fill="#ef4444">Global Boundary</text>

    <line x1="300" y1="100" x2="300" y2="120" stroke="#475569" stroke-width="2"/>

    <rect x="120" y="125" width="120" height="35" rx="6" fill="#eab308" opacity="0.2" stroke="#eab308"/>
    <text x="180" y="148" text-anchor="middle" class="text-sm" fill="#eab308">Feature Boundary</text>

    <rect x="360" y="125" width="120" height="35" rx="6" fill="#eab308" opacity="0.2" stroke="#eab308"/>
    <text x="420" y="148" text-anchor="middle" class="text-sm" fill="#eab308">Feature Boundary</text>

    <line x1="180" y1="160" x2="180" y2="180" stroke="#475569" stroke-width="2"/>
    <line x1="420" y1="160" x2="420" y2="180" stroke="#475569" stroke-width="2"/>

    <rect x="80" y="185" width="80" height="30" rx="4" fill="#22c55e" opacity="0.2" stroke="#22c55e"/>
    <text x="120" y="205" text-anchor="middle" class="text-sm" fill="#22c55e">Widget</text>

    <rect x="170" y="185" width="80" height="30" rx="4" fill="#22c55e" opacity="0.2" stroke="#22c55e"/>
    <text x="210" y="205" text-anchor="middle" class="text-sm" fill="#22c55e">Widget</text>

    <rect x="350" y="185" width="80" height="30" rx="4" fill="#22c55e" opacity="0.2" stroke="#22c55e"/>
    <text x="390" y="205" text-anchor="middle" class="text-sm" fill="#22c55e">Widget</text>

    <rect x="440" y="185" width="80" height="30" rx="4" fill="#22c55e" opacity="0.2" stroke="#22c55e"/>
    <text x="480" y="205" text-anchor="middle" class="text-sm" fill="#22c55e">Widget</text>

    <!-- Catch behavior -->
    <text x="30" y="250" class="text-md" fill="#fff">Error Propagation:</text>
    <text x="40" y="270" class="text-sm">1. Component throws during render</text>
    <text x="40" y="290" class="text-sm">2. Nearest boundary catches error</text>
    <text x="300" y="270" class="text-sm">3. Fallback UI rendered</text>
    <text x="300" y="290" class="text-sm">4. Error logged (if consent)</text>
  </g>

  <!-- Fallback UI requirements -->
  <g transform="translate(680, 450)">
    <rect x="0" y="0" width="660" height="310" rx="8" fill="#1e293b" stroke="#475569" stroke-width="1"/>
    <text x="330" y="30" text-anchor="middle" class="heading">Fallback UI Requirements</text>
    <line x1="20" y1="45" x2="640" y2="45" stroke="#475569" stroke-width="1"/>

    <!-- FR-024: Fallback UI -->
    <rect x="20" y="60" width="200" height="100" rx="6" fill="#0f172a" stroke="#8b5cf6" stroke-width="1"/>
    <text x="120" y="85" text-anchor="middle" class="heading" fill="#8b5cf6">FR-024</text>
    <text x="120" y="105" text-anchor="middle" class="text-sm">Display fallback UI</text>
    <text x="120" y="120" text-anchor="middle" class="text-muted">• Error icon</text>
    <text x="120" y="135" text-anchor="middle" class="text-muted">• User-friendly message</text>
    <text x="120" y="150" text-anchor="middle" class="text-muted">• No blank screen</text>

    <!-- FR-025: Retry -->
    <rect x="230" y="60" width="200" height="100" rx="6" fill="#0f172a" stroke="#22c55e" stroke-width="1"/>
    <text x="330" y="85" text-anchor="middle" class="heading" fill="#22c55e">FR-025</text>
    <text x="330" y="105" text-anchor="middle" class="text-sm">Retry functionality</text>
    <text x="330" y="120" text-anchor="middle" class="text-muted">• Retry button</text>
    <text x="330" y="135" text-anchor="middle" class="text-muted">• Re-mount component</text>
    <text x="330" y="150" text-anchor="middle" class="text-muted">• Reset error state</text>

    <!-- FR-026: Logging -->
    <rect x="440" y="60" width="200" height="100" rx="6" fill="#0f172a" stroke="#eab308" stroke-width="1"/>
    <text x="540" y="85" text-anchor="middle" class="heading" fill="#eab308">FR-026</text>
    <text x="540" y="105" text-anchor="middle" class="text-sm">Log to monitoring</text>
    <text x="540" y="120" text-anchor="middle" class="text-muted">• If consent granted</text>
    <text x="540" y="135" text-anchor="middle" class="text-muted">• Include stack trace</text>
    <text x="540" y="150" text-anchor="middle" class="text-muted">• Include component tree</text>

    <!-- FR-027: Redirect -->
    <rect x="20" y="175" width="200" height="100" rx="6" fill="#0f172a" stroke="#ef4444" stroke-width="1"/>
    <text x="120" y="200" text-anchor="middle" class="heading" fill="#ef4444">FR-027</text>
    <text x="120" y="220" text-anchor="middle" class="text-sm">Redirect unrecoverable</text>
    <text x="120" y="235" text-anchor="middle" class="text-muted">• Global crash → error page</text>
    <text x="120" y="250" text-anchor="middle" class="text-muted">• Support contact link</text>
    <text x="120" y="265" text-anchor="middle" class="text-muted">• Error reference ID</text>

    <!-- FR-028: No consent fallback -->
    <rect x="230" y="175" width="200" height="100" rx="6" fill="#0f172a" stroke="#d946ef" stroke-width="1"/>
    <text x="330" y="200" text-anchor="middle" class="heading" fill="#d946ef">FR-028</text>
    <text x="330" y="220" text-anchor="middle" class="text-sm">Works without consent</text>
    <text x="330" y="235" text-anchor="middle" class="text-muted">• Local fallback only</text>
    <text x="330" y="250" text-anchor="middle" class="text-muted">• No external calls</text>
    <text x="330" y="265" text-anchor="middle" class="text-muted">• Privacy preserved</text>

    <!-- Success criteria -->
    <rect x="440" y="175" width="200" height="100" rx="6" fill="#22c55e" opacity="0.1" stroke="#22c55e" stroke-width="1"/>
    <text x="540" y="200" text-anchor="middle" class="heading" fill="#22c55e">SC-004</text>
    <text x="540" y="220" text-anchor="middle" class="text-sm" fill="#22c55e">100% crash prevention</text>
    <text x="540" y="240" text-anchor="middle" class="text-muted">All component errors</text>
    <text x="540" y="255" text-anchor="middle" class="text-muted">caught and handled</text>
    <text x="540" y="270" text-anchor="middle" class="text-muted">gracefully</text>
  </g>
</svg>
