<svg xmlns="http://www.w3.org/2000/svg" viewBox="0 0 1400 800" width="1400" height="800">
  <!-- ============================================================
       GENERATED BY: /wireframe skill
       SOURCE: features/code-quality/044-error-handler-integrations/spec.md
       DATE: 2026-01-01
       THEME: Light (UX/Frontend) - v3 True Parchment
       DO NOT MANUALLY EDIT - Regenerate with /wireframe command
       ============================================================ -->
  <defs>
    <linearGradient id="bgGrad" x1="0%" y1="0%" x2="100%" y2="100%">
      <stop offset="0%" style="stop-color:#c7ddf5"/>
      <stop offset="100%" style="stop-color:#b8d4f0"/>
    </linearGradient>
    <linearGradient id="accentGrad" x1="0%" y1="0%" x2="100%" y2="0%">
      <stop offset="0%" style="stop-color:#8b5cf6"/>
      <stop offset="100%" style="stop-color:#d946ef"/>
    </linearGradient>
    <style>
      .heading-lg { fill: #1a1a2e; font-family: system-ui, sans-serif; font-size: 24px; font-weight: 800; }
      .heading { fill: #1a1a2e; font-family: system-ui, sans-serif; font-size: 16px; font-weight: 700; }
      .heading-sm { fill: #1a1a2e; font-family: system-ui, sans-serif; font-size: 14px; font-weight: 600; }
      .text-md { fill: #2d3748; font-family: system-ui, sans-serif; font-size: 14px; font-weight: 500; }
      .text-sm { fill: #374151; font-family: system-ui, sans-serif; font-size: 12px; font-weight: 500; }
      .text-muted { fill: #4b5563; font-family: system-ui, sans-serif; font-size: 11px; font-weight: 500; }
      .annotation { fill: #6d28d9; font-family: monospace; font-size: 12px; font-weight: 600; }
      .label-desktop { fill: #8b5cf6; font-family: monospace; font-size: 13px; font-weight: bold; }
      .label-mobile { fill: #d946ef; font-family: monospace; font-size: 13px; font-weight: bold; }
    </style>
  </defs>

  <!-- Background -->
  <rect width="1400" height="800" fill="url(#bgGrad)"/>

  <!-- Dot grid pattern -->
  <g opacity="0.35">
    <pattern id="dots" width="30" height="30" patternUnits="userSpaceOnUse">
      <circle cx="15" cy="15" r="1" fill="#6b8cba"/>
    </pattern>
    <rect width="1400" height="800" fill="url(#dots)"/>
  </g>

  <!-- Accent line top -->
  <rect x="0" y="0" width="1400" height="3" fill="url(#accentGrad)"/>

  <!-- Title -->
  <text x="700" y="28" text-anchor="middle" font-family="system-ui, sans-serif" font-size="14" font-weight="600" fill="#4b5563" letter-spacing="1">ERROR BOUNDARY SYSTEM - FALLBACK UI COMPONENTS</text>

  <!-- ===== DESKTOP SECTION ===== -->
  <text x="40" y="52" class="label-desktop">DESKTOP - ERROR BOUNDARY STATES</text>

  <!-- Desktop Browser Frame -->
  <rect x="40" y="65" width="900" height="540" rx="8" fill="#e8d4b8" stroke="#b8a080" stroke-width="2"/>

  <!-- Browser Header -->
  <rect x="40" y="65" width="900" height="35" rx="8" fill="#dcc8a8"/>
  <circle cx="60" cy="82" r="6" fill="#ef4444"/>
  <circle cx="80" cy="82" r="6" fill="#eab308"/>
  <circle cx="100" cy="82" r="6" fill="#22c55e"/>
  <rect x="130" y="73" width="300" height="18" rx="9" fill="#f5f0e6"/>
  <text x="280" y="86" text-anchor="middle" class="text-muted">scripthammer.com/dashboard</text>

  <!-- App Content Area -->
  <rect x="50" y="110" width="880" height="485" rx="6" fill="#f5f0e6"/>

  <!-- ===== WORKING SIDEBAR (Left) ===== -->
  <rect x="60" y="120" width="180" height="465" rx="6" fill="#e8d4b8" stroke="#22c55e" stroke-width="2"/>
  <text x="150" y="145" text-anchor="middle" class="heading-sm">Navigation</text>
  <text x="150" y="162" text-anchor="middle" class="text-muted" fill="#22c55e">✓ Working</text>

  <rect x="75" y="180" width="150" height="35" rx="4" fill="#f5f0e6" stroke="#b8a080" stroke-width="1"/>
  <text x="150" y="203" text-anchor="middle" class="text-sm">Dashboard</text>

  <rect x="75" y="225" width="150" height="35" rx="4" fill="#8b5cf6"/>
  <text x="150" y="248" text-anchor="middle" fill="#fff" font-size="12" font-weight="600">Analytics</text>

  <rect x="75" y="270" width="150" height="35" rx="4" fill="#f5f0e6" stroke="#b8a080" stroke-width="1"/>
  <text x="150" y="293" text-anchor="middle" class="text-sm">Messages</text>

  <rect x="75" y="315" width="150" height="35" rx="4" fill="#f5f0e6" stroke="#b8a080" stroke-width="1"/>
  <text x="150" y="338" text-anchor="middle" class="text-sm">Settings</text>

  <!-- ===== ERROR FALLBACK (Main Area - Component Error) ===== -->
  <rect x="250" y="120" width="480" height="280" rx="6" fill="#fef2f2" stroke="#ef4444" stroke-width="2"/>

  <!-- Error Icon -->
  <circle cx="490" cy="180" r="35" fill="#fee2e2" stroke="#ef4444" stroke-width="2"/>
  <text x="490" y="192" text-anchor="middle" fill="#ef4444" font-size="36" font-weight="bold">!</text>

  <!-- Error Message -->
  <text x="490" y="240" text-anchor="middle" class="heading" fill="#991b1b">Something went wrong</text>
  <text x="490" y="265" text-anchor="middle" class="text-md" fill="#7f1d1d">The analytics component couldn't load.</text>
  <text x="490" y="285" text-anchor="middle" class="text-sm" fill="#991b1b">Error: ChartDataError - Invalid dataset</text>

  <!-- Action Buttons -->
  <g transform="translate(370, 310)">
    <rect width="100" height="40" rx="6" fill="#ef4444"/>
    <text x="50" y="26" text-anchor="middle" fill="#fff" font-size="14" font-weight="600">Try Again</text>
  </g>

  <g transform="translate(490, 310)">
    <rect width="100" height="40" rx="6" fill="#f5f0e6" stroke="#991b1b" stroke-width="1"/>
    <text x="50" y="26" text-anchor="middle" fill="#991b1b" font-size="14" font-weight="500">Report Issue</text>
  </g>

  <!-- Error ID for support -->
  <text x="490" y="380" text-anchor="middle" class="text-muted">Error ID: ERR-2026-0101-ABC123</text>

  <!-- ===== WORKING DETAIL PANEL (Right) ===== -->
  <rect x="740" y="120" width="190" height="280" rx="6" fill="#e8d4b8" stroke="#22c55e" stroke-width="2"/>
  <text x="835" y="145" text-anchor="middle" class="heading-sm">Quick Stats</text>
  <text x="835" y="162" text-anchor="middle" class="text-muted" fill="#22c55e">✓ Working</text>

  <!-- Stats Cards -->
  <rect x="755" y="180" width="160" height="55" rx="4" fill="#f5f0e6"/>
  <text x="835" y="200" text-anchor="middle" class="text-muted">Total Users</text>
  <text x="835" y="222" text-anchor="middle" class="heading">12,847</text>

  <rect x="755" y="245" width="160" height="55" rx="4" fill="#f5f0e6"/>
  <text x="835" y="265" text-anchor="middle" class="text-muted">Revenue</text>
  <text x="835" y="287" text-anchor="middle" class="heading">$48,291</text>

  <rect x="755" y="310" width="160" height="55" rx="4" fill="#f5f0e6"/>
  <text x="835" y="330" text-anchor="middle" class="text-muted">Growth</text>
  <text x="835" y="352" text-anchor="middle" class="heading" fill="#22c55e">+24%</text>

  <!-- ===== SECOND ROW: Working and Crashed Components ===== -->

  <!-- Working Messages Component -->
  <rect x="250" y="410" width="230" height="185" rx="6" fill="#e8d4b8" stroke="#22c55e" stroke-width="2"/>
  <text x="365" y="435" text-anchor="middle" class="heading-sm">Recent Messages</text>
  <text x="365" y="452" text-anchor="middle" class="text-muted" fill="#22c55e">✓ Working</text>

  <rect x="265" y="465" width="200" height="40" rx="4" fill="#f5f0e6"/>
  <text x="275" y="485" class="text-sm">Alice: Great progress!</text>
  <text x="275" y="498" class="text-muted">2 min ago</text>

  <rect x="265" y="515" width="200" height="40" rx="4" fill="#f5f0e6"/>
  <text x="275" y="535" class="text-sm">Bob: Review ready</text>
  <text x="275" y="548" class="text-muted">15 min ago</text>

  <rect x="265" y="565" width="200" height="20" rx="4" fill="#8b5cf6"/>
  <text x="365" y="579" text-anchor="middle" fill="#fff" font-size="11" font-weight="500">View All</text>

  <!-- Crashed Tasks Component -->
  <rect x="490" y="410" width="230" height="185" rx="6" fill="#fef2f2" stroke="#ef4444" stroke-width="2" stroke-dasharray="4,2"/>
  <text x="605" y="435" text-anchor="middle" class="heading-sm" fill="#991b1b">Tasks Widget</text>
  <text x="605" y="452" text-anchor="middle" class="text-muted" fill="#ef4444">✗ Error</text>

  <!-- Mini error state -->
  <circle cx="605" cy="500" r="25" fill="#fee2e2"/>
  <text x="605" y="508" text-anchor="middle" fill="#ef4444" font-size="20" font-weight="bold">!</text>

  <text x="605" y="545" text-anchor="middle" class="text-sm" fill="#991b1b">Failed to load</text>

  <rect x="545" y="560" width="120" height="28" rx="4" fill="#ef4444"/>
  <text x="605" y="578" text-anchor="middle" fill="#fff" font-size="12" font-weight="500">Retry</text>

  <!-- Working Calendar Component -->
  <rect x="730" y="410" width="200" height="185" rx="6" fill="#e8d4b8" stroke="#22c55e" stroke-width="2"/>
  <text x="830" y="435" text-anchor="middle" class="heading-sm">Calendar</text>
  <text x="830" y="452" text-anchor="middle" class="text-muted" fill="#22c55e">✓ Working</text>

  <!-- Mini calendar -->
  <rect x="745" y="465" width="170" height="120" rx="4" fill="#f5f0e6"/>
  <text x="830" y="485" text-anchor="middle" class="text-sm">January 2026</text>
  <line x1="755" y1="495" x2="905" y2="495" stroke="#b8a080" stroke-width="1"/>

  <!-- Calendar grid placeholder -->
  <g transform="translate(755, 505)">
    <text x="0" y="10" class="text-muted">S</text>
    <text x="25" y="10" class="text-muted">M</text>
    <text x="50" y="10" class="text-muted">T</text>
    <text x="75" y="10" class="text-muted">W</text>
    <text x="100" y="10" class="text-muted">T</text>
    <text x="125" y="10" class="text-muted">F</text>
    <text x="150" y="10" class="text-muted">S</text>

    <text x="50" y="35" class="text-sm">1</text>
    <circle cx="54" cy="31" r="12" fill="#8b5cf6" opacity="0.2"/>
  </g>

  <!-- ===== ANNOTATIONS ===== -->

  <!-- Boundary Isolation Annotation -->
  <rect x="40" y="620" width="200" height="70" rx="6" fill="#e8d4b8" stroke="#8b5cf6" stroke-width="1"/>
  <text x="140" y="642" text-anchor="middle" class="annotation">ISOLATED FAILURES</text>
  <text x="140" y="662" text-anchor="middle" class="text-sm">Component crash doesn't</text>
  <text x="140" y="678" text-anchor="middle" class="text-sm">affect other areas</text>

  <!-- Retry Mechanism Annotation -->
  <rect x="260" y="620" width="200" height="70" rx="6" fill="#e8d4b8" stroke="#8b5cf6" stroke-width="1"/>
  <text x="360" y="642" text-anchor="middle" class="annotation">RETRY MECHANISM</text>
  <text x="360" y="662" text-anchor="middle" class="text-sm">Users can attempt</text>
  <text x="360" y="678" text-anchor="middle" class="text-sm">recovery themselves</text>

  <!-- Error Reporting Annotation -->
  <rect x="480" y="620" width="200" height="70" rx="6" fill="#e8d4b8" stroke="#8b5cf6" stroke-width="1"/>
  <text x="580" y="642" text-anchor="middle" class="annotation">ERROR CONTEXT</text>
  <text x="580" y="662" text-anchor="middle" class="text-sm">Error ID enables</text>
  <text x="580" y="678" text-anchor="middle" class="text-sm">support lookup</text>

  <!-- Graceful Degradation Annotation -->
  <rect x="700" y="620" width="200" height="70" rx="6" fill="#e8d4b8" stroke="#8b5cf6" stroke-width="1"/>
  <text x="800" y="642" text-anchor="middle" class="annotation">GRACEFUL DEGRADE</text>
  <text x="800" y="662" text-anchor="middle" class="text-sm">App continues working</text>
  <text x="800" y="678" text-anchor="middle" class="text-sm">with reduced features</text>

  <!-- ===== MOBILE SECTION ===== -->
  <text x="980" y="52" class="label-mobile">MOBILE</text>

  <!-- Phone frame -->
  <rect x="980" y="60" width="360" height="700" rx="24" fill="#c8b898" stroke="#a08860" stroke-width="2"/>
  <rect x="990" y="70" width="340" height="680" rx="16" fill="#e8d4b8"/>

  <!-- Status bar -->
  <rect x="990" y="70" width="340" height="28" rx="16" fill="#dcc8a8"/>
  <text x="1010" y="88" class="text-sm">9:41</text>
  <text x="1300" y="88" text-anchor="end" class="text-sm">100%</text>

  <!-- Mobile App Header -->
  <rect x="990" y="98" width="340" height="50" fill="#8b5cf6"/>
  <text x="1020" y="128" fill="#fff" font-size="18">←</text>
  <text x="1160" y="128" text-anchor="middle" fill="#fff" font-size="16" font-weight="600">Analytics</text>

  <!-- Mobile Full-Page Error State -->
  <rect x="1000" y="158" width="320" height="430" rx="8" fill="#fef2f2"/>

  <!-- Error Icon -->
  <circle cx="1160" cy="260" r="50" fill="#fee2e2" stroke="#ef4444" stroke-width="2"/>
  <text x="1160" y="278" text-anchor="middle" fill="#ef4444" font-size="48" font-weight="bold">!</text>

  <!-- Error Message -->
  <text x="1160" y="340" text-anchor="middle" font-size="18" font-weight="700" fill="#991b1b">Oops!</text>
  <text x="1160" y="365" text-anchor="middle" font-size="14" fill="#7f1d1d">Something went wrong</text>
  <text x="1160" y="390" text-anchor="middle" font-size="12" fill="#991b1b">This section couldn't load.</text>

  <!-- Mobile Action Buttons -->
  <rect x="1030" y="420" width="260" height="45" rx="8" fill="#ef4444"/>
  <text x="1160" y="448" text-anchor="middle" fill="#fff" font-size="14" font-weight="600">Try Again</text>

  <rect x="1030" y="475" width="260" height="45" rx="8" fill="#f5f0e6" stroke="#991b1b" stroke-width="1"/>
  <text x="1160" y="503" text-anchor="middle" fill="#991b1b" font-size="14" font-weight="500">Go to Dashboard</text>

  <rect x="1030" y="530" width="260" height="45" rx="8" fill="#f5f0e6" stroke="#b8a080" stroke-width="1"/>
  <text x="1160" y="558" text-anchor="middle" class="text-sm">Report This Issue</text>

  <!-- Error ID -->
  <text x="1160" y="595" text-anchor="middle" class="text-muted">Error ID: ERR-2026-0101-ABC123</text>

  <!-- Mobile Tab Bar -->
  <rect x="990" y="710" width="340" height="40" rx="16" fill="#dcc8a8"/>
  <text x="1050" y="735" text-anchor="middle" class="text-muted">Home</text>
  <text x="1160" y="735" text-anchor="middle" fill="#ef4444" font-weight="600">Analytics</text>
  <text x="1270" y="735" text-anchor="middle" class="text-muted">Profile</text>

  <!-- Mobile Annotation -->
  <rect x="990" y="620" width="180" height="70" rx="6" fill="#e8d4b8" stroke="#d946ef" stroke-width="1"/>
  <text x="1080" y="642" text-anchor="middle" class="annotation" fill="#d946ef">FULL-PAGE FALLBACK</text>
  <text x="1080" y="662" text-anchor="middle" class="text-sm">When critical component</text>
  <text x="1080" y="678" text-anchor="middle" class="text-sm">fails, show full error</text>

  <!-- Footer -->
  <text x="700" y="785" text-anchor="middle" class="text-muted">Feature 044 - Error Boundary Fallback UI</text>
</svg>
