<svg xmlns="http://www.w3.org/2000/svg" viewBox="0 0 1400 800" width="1400" height="800">
  <!-- ============================================================
       GENERATED BY: /wireframe skill
       SOURCE: features/foundation/004-mobile-first-design/spec.md
       DATE: 2025-12-31
       DO NOT MANUALLY EDIT - Regenerate with /wireframe command
       ============================================================ -->
  <defs>
    <linearGradient id="bgGrad" x1="0%" y1="0%" x2="100%" y2="100%">
      <stop offset="0%" style="stop-color:#0f172a"/>
      <stop offset="100%" style="stop-color:#1e293b"/>
    </linearGradient>
    <linearGradient id="accentGrad" x1="0%" y1="0%" x2="100%" y2="0%">
      <stop offset="0%" style="stop-color:#8b5cf6"/>
      <stop offset="100%" style="stop-color:#d946ef"/>
    </linearGradient>
    <style>
      .heading-lg { fill: #ffffff; font-family: system-ui, sans-serif; font-size: 20px; font-weight: bold; }
      .heading { fill: #ffffff; font-family: system-ui, sans-serif; font-size: 14px; font-weight: bold; }
      .text-md { fill: #cbd5e1; font-family: system-ui, sans-serif; font-size: 12px; }
      .text-sm { fill: #94a3b8; font-family: system-ui, sans-serif; font-size: 10px; }
      .text-muted { fill: #64748b; font-family: system-ui, sans-serif; font-size: 10px; }
      .annotation { fill: #8b5cf6; font-family: monospace; font-size: 10px; }
      .label-mobile { fill: #d946ef; font-family: monospace; font-size: 11px; font-weight: bold; }
      .label-tablet { fill: #f59e0b; font-family: monospace; font-size: 11px; font-weight: bold; }
      .label-desktop { fill: #22c55e; font-family: monospace; font-size: 11px; font-weight: bold; }
    </style>
  </defs>

  <!-- Background -->
  <rect width="1400" height="800" fill="url(#bgGrad)"/>

  <!-- Dot grid pattern -->
  <g opacity="0.05">
    <pattern id="dots" width="30" height="30" patternUnits="userSpaceOnUse">
      <circle cx="15" cy="15" r="1" fill="#fff"/>
    </pattern>
    <rect width="1400" height="800" fill="url(#dots)"/>
  </g>

  <!-- Accent line top -->
  <rect x="0" y="0" width="1400" height="3" fill="url(#accentGrad)"/>

  <!-- Title -->
  <text x="700" y="28" text-anchor="middle" font-family="system-ui, sans-serif" font-size="14" font-weight="600" fill="#64748b" letter-spacing="1">MOBILE-FIRST BREAKPOINT SYSTEM (NFR-001, NFR-002)</text>

  <!-- Breakpoint Scale Bar -->
  <rect x="40" y="55" width="1320" height="40" rx="6" fill="#1e293b" stroke="#475569" stroke-width="1"/>

  <!-- Mobile Section (pink) -->
  <rect x="40" y="55" width="350" height="40" rx="6" fill="#d946ef" opacity="0.2"/>
  <text x="215" y="80" text-anchor="middle" class="label-mobile">MOBILE: 320px - 767px</text>

  <!-- Tablet Section (amber) -->
  <rect x="390" y="55" width="300" height="40" fill="#f59e0b" opacity="0.2"/>
  <text x="540" y="80" text-anchor="middle" class="label-tablet">TABLET: 768px - 1023px</text>

  <!-- Desktop Section (green) -->
  <rect x="690" y="55" width="670" height="40" rx="6" fill="#22c55e" opacity="0.2"/>
  <text x="1025" y="80" text-anchor="middle" class="label-desktop">DESKTOP: 1024px+</text>

  <!-- Breakpoint markers -->
  <line x1="390" y1="50" x2="390" y2="100" stroke="#d946ef" stroke-width="2"/>
  <text x="390" y="115" text-anchor="middle" class="text-sm" fill="#d946ef">768px</text>

  <line x1="690" y1="50" x2="690" y2="100" stroke="#f59e0b" stroke-width="2"/>
  <text x="690" y="115" text-anchor="middle" class="text-sm" fill="#f59e0b">1024px</text>

  <!-- MOBILE DEVICE EXAMPLES -->
  <text x="40" y="150" class="heading-lg">Mobile Viewports (Base Design)</text>

  <!-- 320px - iPhone SE -->
  <g transform="translate(40, 170)">
    <rect x="0" y="0" width="80" height="160" rx="8" fill="#1e293b" stroke="#d946ef" stroke-width="2"/>
    <rect x="4" y="4" width="72" height="152" rx="6" fill="#0f172a"/>
    <text x="40" y="180" text-anchor="middle" class="text-sm" fill="#d946ef">320px</text>
    <text x="40" y="195" text-anchor="middle" class="text-muted">iPhone SE</text>
    <!-- Mini layout -->
    <rect x="8" y="10" width="64" height="12" rx="2" fill="#334155"/>
    <rect x="8" y="28" width="64" height="40" rx="2" fill="#334155"/>
    <rect x="8" y="74" width="64" height="20" rx="2" fill="#334155"/>
    <rect x="8" y="100" width="64" height="20" rx="2" fill="#334155"/>
    <rect x="8" y="126" width="64" height="20" rx="2" fill="#334155"/>
  </g>

  <!-- 375px - iPhone 13 Mini -->
  <g transform="translate(150, 170)">
    <rect x="0" y="0" width="94" height="160" rx="8" fill="#1e293b" stroke="#d946ef" stroke-width="2"/>
    <rect x="4" y="4" width="86" height="152" rx="6" fill="#0f172a"/>
    <text x="47" y="180" text-anchor="middle" class="text-sm" fill="#d946ef">375px</text>
    <text x="47" y="195" text-anchor="middle" class="text-muted">iPhone 13 Mini</text>
    <!-- Mini layout -->
    <rect x="8" y="10" width="78" height="12" rx="2" fill="#334155"/>
    <rect x="8" y="28" width="78" height="40" rx="2" fill="#334155"/>
    <rect x="8" y="74" width="78" height="20" rx="2" fill="#334155"/>
    <rect x="8" y="100" width="78" height="20" rx="2" fill="#334155"/>
    <rect x="8" y="126" width="78" height="20" rx="2" fill="#334155"/>
  </g>

  <!-- 390px - iPhone 12/13/14 -->
  <g transform="translate(275, 170)">
    <rect x="0" y="0" width="98" height="160" rx="8" fill="#1e293b" stroke="#d946ef" stroke-width="2"/>
    <rect x="4" y="4" width="90" height="152" rx="6" fill="#0f172a"/>
    <text x="49" y="180" text-anchor="middle" class="text-sm" fill="#d946ef">390px</text>
    <text x="49" y="195" text-anchor="middle" class="text-muted">iPhone 12/13/14</text>
    <!-- Star indicator - most common -->
    <text x="49" y="210" text-anchor="middle" fill="#d946ef" font-size="10">★ Most Common</text>
    <!-- Mini layout -->
    <rect x="8" y="10" width="82" height="12" rx="2" fill="#334155"/>
    <rect x="8" y="28" width="82" height="40" rx="2" fill="#334155"/>
    <rect x="8" y="74" width="82" height="20" rx="2" fill="#334155"/>
    <rect x="8" y="100" width="82" height="20" rx="2" fill="#334155"/>
    <rect x="8" y="126" width="82" height="20" rx="2" fill="#334155"/>
  </g>

  <!-- 428px - iPhone 14 Pro Max -->
  <g transform="translate(405, 170)">
    <rect x="0" y="0" width="107" height="160" rx="8" fill="#1e293b" stroke="#d946ef" stroke-width="2"/>
    <rect x="4" y="4" width="99" height="152" rx="6" fill="#0f172a"/>
    <text x="53" y="180" text-anchor="middle" class="text-sm" fill="#d946ef">428px</text>
    <text x="53" y="195" text-anchor="middle" class="text-muted">iPhone 14 Pro Max</text>
    <!-- Mini layout -->
    <rect x="8" y="10" width="91" height="12" rx="2" fill="#334155"/>
    <rect x="8" y="28" width="91" height="40" rx="2" fill="#334155"/>
    <rect x="8" y="74" width="91" height="20" rx="2" fill="#334155"/>
    <rect x="8" y="100" width="91" height="20" rx="2" fill="#334155"/>
    <rect x="8" y="126" width="91" height="20" rx="2" fill="#334155"/>
  </g>

  <!-- TABLET -->
  <text x="550" y="150" class="heading-lg">Tablet (768px)</text>
  <g transform="translate(550, 170)">
    <rect x="0" y="0" width="160" height="200" rx="8" fill="#1e293b" stroke="#f59e0b" stroke-width="2"/>
    <rect x="4" y="4" width="152" height="192" rx="6" fill="#0f172a"/>
    <!-- 2-column layout -->
    <rect x="8" y="10" width="144" height="16" rx="2" fill="#334155"/>
    <rect x="8" y="32" width="68" height="70" rx="2" fill="#334155"/>
    <rect x="82" y="32" width="68" height="70" rx="2" fill="#334155"/>
    <rect x="8" y="108" width="68" height="70" rx="2" fill="#334155"/>
    <rect x="82" y="108" width="68" height="70" rx="2" fill="#334155"/>
    <text x="80" y="220" text-anchor="middle" class="text-sm" fill="#f59e0b">768px - 1023px</text>
    <text x="80" y="235" text-anchor="middle" class="text-muted">2-column grid</text>
  </g>

  <!-- DESKTOP -->
  <text x="750" y="150" class="heading-lg">Desktop (1024px+)</text>
  <g transform="translate(750, 170)">
    <rect x="0" y="0" width="280" height="180" rx="8" fill="#1e293b" stroke="#22c55e" stroke-width="2"/>
    <rect x="4" y="4" width="272" height="172" rx="6" fill="#0f172a"/>
    <!-- 3-column layout -->
    <rect x="8" y="10" width="256" height="16" rx="2" fill="#334155"/>
    <!-- Sidebar -->
    <rect x="8" y="32" width="60" height="136" rx="2" fill="#334155"/>
    <!-- Main -->
    <rect x="74" y="32" width="120" height="136" rx="2" fill="#334155"/>
    <!-- Detail -->
    <rect x="200" y="32" width="64" height="136" rx="2" fill="#334155"/>
    <text x="140" y="200" text-anchor="middle" class="text-sm" fill="#22c55e">1024px+</text>
    <text x="140" y="215" text-anchor="middle" class="text-muted">3-column layout</text>
  </g>

  <!-- MOBILE-FIRST PRINCIPLES -->
  <rect x="40" y="420" width="620" height="350" rx="8" fill="#1e293b" stroke="#475569" stroke-width="1"/>
  <text x="60" y="450" class="heading-lg">Mobile-First CSS Strategy (FR-017)</text>

  <!-- Code block -->
  <rect x="60" y="470" width="580" height="280" rx="6" fill="#0f172a"/>
  <text x="80" y="495" fill="#64748b" font-family="monospace" font-size="11">/* Base styles (mobile-first) */</text>
  <text x="80" y="515" fill="#d946ef" font-family="monospace" font-size="11">.container {</text>
  <text x="100" y="535" fill="#cbd5e1" font-family="monospace" font-size="11">padding: 16px;</text>
  <text x="100" y="555" fill="#cbd5e1" font-family="monospace" font-size="11">display: flex;</text>
  <text x="100" y="575" fill="#cbd5e1" font-family="monospace" font-size="11">flex-direction: column;</text>
  <text x="80" y="595" fill="#d946ef" font-family="monospace" font-size="11">}</text>

  <text x="80" y="625" fill="#64748b" font-family="monospace" font-size="11">/* Tablet enhancement */</text>
  <text x="80" y="645" fill="#f59e0b" font-family="monospace" font-size="11">@media (min-width: 768px) {</text>
  <text x="100" y="665" fill="#cbd5e1" font-family="monospace" font-size="11">.container { flex-direction: row; }</text>
  <text x="80" y="685" fill="#f59e0b" font-family="monospace" font-size="11">}</text>

  <text x="80" y="715" fill="#64748b" font-family="monospace" font-size="11">/* Desktop enhancement */</text>
  <text x="80" y="735" fill="#22c55e" font-family="monospace" font-size="11">@media (min-width: 1024px) {</text>
  <text x="100" y="755" fill="#cbd5e1" font-family="monospace" font-size="11">.container { max-width: 1200px; }</text>
  <text x="80" y="775" fill="#22c55e" font-family="monospace" font-size="11">}</text>

  <!-- KEY METRICS -->
  <rect x="680" y="420" width="680" height="170" rx="8" fill="#1e293b" stroke="#475569" stroke-width="1"/>
  <text x="700" y="450" class="heading-lg">Core Web Vitals Targets (FR-023, FR-024)</text>

  <!-- LCP -->
  <rect x="700" y="470" width="200" height="100" rx="6" fill="#0f172a"/>
  <text x="800" y="500" text-anchor="middle" class="heading" fill="#22c55e">LCP</text>
  <text x="800" y="530" text-anchor="middle" fill="#22c55e" font-size="24" font-weight="bold">&lt; 2.5s</text>
  <text x="800" y="555" text-anchor="middle" class="text-muted">Largest Contentful Paint</text>

  <!-- FID -->
  <rect x="920" y="470" width="200" height="100" rx="6" fill="#0f172a"/>
  <text x="1020" y="500" text-anchor="middle" class="heading" fill="#22c55e">FID</text>
  <text x="1020" y="530" text-anchor="middle" fill="#22c55e" font-size="24" font-weight="bold">&lt; 100ms</text>
  <text x="1020" y="555" text-anchor="middle" class="text-muted">First Input Delay</text>

  <!-- CLS -->
  <rect x="1140" y="470" width="200" height="100" rx="6" fill="#0f172a"/>
  <text x="1240" y="500" text-anchor="middle" class="heading" fill="#22c55e">CLS</text>
  <text x="1240" y="530" text-anchor="middle" fill="#22c55e" font-size="24" font-weight="bold">&lt; 0.1</text>
  <text x="1240" y="555" text-anchor="middle" class="text-muted">Cumulative Layout Shift</text>

  <!-- ORIENTATION NOTE -->
  <rect x="680" y="610" width="680" height="160" rx="8" fill="#1e293b" stroke="#475569" stroke-width="1"/>
  <text x="700" y="640" class="heading-lg">Device Orientation (FR-019)</text>

  <g transform="translate(720, 660)">
    <!-- Portrait phone -->
    <rect x="0" y="0" width="40" height="70" rx="6" fill="#0f172a" stroke="#d946ef" stroke-width="2"/>
    <text x="20" y="90" text-anchor="middle" class="text-muted">Portrait</text>
  </g>

  <text x="800" y="700" fill="#64748b" font-size="20">→</text>

  <g transform="translate(840, 680)">
    <!-- Landscape phone -->
    <rect x="0" y="0" width="70" height="40" rx="6" fill="#0f172a" stroke="#d946ef" stroke-width="2"/>
    <text x="35" y="60" text-anchor="middle" class="text-muted">Landscape</text>
  </g>

  <rect x="960" y="660" width="380" height="80" rx="6" fill="#1e3a5f" stroke="#3b82f6" stroke-width="1"/>
  <text x="980" y="690" fill="#60a5fa" font-size="11">Physical device type determines UI mode</text>
  <text x="980" y="710" class="text-sm">iPhone 12 rotated to 844×390 landscape</text>
  <text x="980" y="730" class="text-sm" fill="#d946ef">→ Stays in MOBILE mode (not tablet)</text>
</svg>
