<svg xmlns="http://www.w3.org/2000/svg" viewBox="0 0 1400 800" width="1400" height="800">
  <!-- ============================================================
       GENERATED BY: /wireframe skill
       SOURCE: features/foundation/004-mobile-first-design/spec.md
       DATE: 2025-12-31
       THEME: Light (UX/Frontend)
       DO NOT MANUALLY EDIT - Regenerate with /wireframe command
       ============================================================ -->
  <defs>
    <linearGradient id="bgGrad" x1="0%" y1="0%" x2="100%" y2="100%">
      <stop offset="0%" style="stop-color:#ffffff"/>
      <stop offset="100%" style="stop-color:#f0f4f8"/>
    </linearGradient>
    <linearGradient id="accentGrad" x1="0%" y1="0%" x2="100%" y2="0%">
      <stop offset="0%" style="stop-color:#8b5cf6"/>
      <stop offset="100%" style="stop-color:#d946ef"/>
    </linearGradient>
    <style>
      .heading-lg { fill: #1f2937; font-family: system-ui, sans-serif; font-size: 20px; font-weight: bold; }
      .heading { fill: #1f2937; font-family: system-ui, sans-serif; font-size: 14px; font-weight: bold; }
      .heading-sm { fill: #1f2937; font-family: system-ui, sans-serif; font-size: 12px; font-weight: bold; }
      .text-md { fill: #374151; font-family: system-ui, sans-serif; font-size: 12px; }
      .text-sm { fill: #6b7280; font-family: system-ui, sans-serif; font-size: 10px; }
      .text-muted { fill: #9ca3af; font-family: system-ui, sans-serif; font-size: 10px; }
      .annotation { fill: #8b5cf6; font-family: monospace; font-size: 10px; }
      .label-desktop { fill: #8b5cf6; font-family: monospace; font-size: 11px; font-weight: bold; }
      .label-mobile { fill: #d946ef; font-family: monospace; font-size: 11px; font-weight: bold; }
      .label-tablet { fill: #f59e0b; font-family: monospace; font-size: 11px; font-weight: bold; }
      .code { fill: #6366f1; font-family: monospace; font-size: 10px; }
    </style>
  </defs>

  <!-- Background -->
  <rect width="1400" height="800" fill="url(#bgGrad)"/>

  <!-- Dot grid pattern -->
  <g opacity="0.4">
    <pattern id="dots" width="30" height="30" patternUnits="userSpaceOnUse">
      <circle cx="15" cy="15" r="1" fill="#a5b4fc"/>
    </pattern>
    <rect width="1400" height="800" fill="url(#dots)"/>
  </g>

  <!-- Accent line top -->
  <rect x="0" y="0" width="1400" height="3" fill="url(#accentGrad)"/>

  <!-- Title -->
  <text x="700" y="28" text-anchor="middle" font-family="system-ui, sans-serif" font-size="14" font-weight="600" fill="#9ca3af" letter-spacing="1">MOBILE-FIRST BREAKPOINT SYSTEM</text>

  <!-- Breakpoint Ruler at top -->
  <g id="breakpoint-ruler" transform="translate(40, 50)">
    <!-- Base line -->
    <line x1="0" y1="20" x2="1320" y2="20" stroke="#d1d5db" stroke-width="2"/>

    <!-- Mobile zone: 320-767px -->
    <rect x="0" y="0" width="447" height="40" rx="4" fill="#fce7f3" stroke="#d946ef" stroke-width="2"/>
    <text x="223" y="15" text-anchor="middle" class="label-mobile">MOBILE</text>
    <text x="223" y="32" text-anchor="middle" class="text-sm">320px - 767px</text>

    <!-- Tablet zone: 768-1023px -->
    <rect x="457" y="0" width="256" height="40" rx="4" fill="#fef3c7" stroke="#f59e0b" stroke-width="2"/>
    <text x="585" y="15" text-anchor="middle" class="label-tablet">TABLET</text>
    <text x="585" y="32" text-anchor="middle" class="text-sm">768px - 1023px</text>

    <!-- Desktop zone: 1024px+ -->
    <rect x="723" y="0" width="597" height="40" rx="4" fill="#ede9fe" stroke="#8b5cf6" stroke-width="2"/>
    <text x="1021" y="15" text-anchor="middle" class="label-desktop">DESKTOP</text>
    <text x="1021" y="32" text-anchor="middle" class="text-sm">1024px+</text>

    <!-- Breakpoint markers -->
    <line x1="0" y1="45" x2="0" y2="55" stroke="#d946ef" stroke-width="2"/>
    <text x="0" y="68" text-anchor="middle" class="code">320</text>

    <line x1="447" y1="45" x2="447" y2="55" stroke="#d946ef" stroke-width="2"/>
    <text x="447" y="68" text-anchor="middle" class="code">767</text>

    <line x1="457" y1="45" x2="457" y2="55" stroke="#f59e0b" stroke-width="2"/>
    <text x="457" y="68" text-anchor="middle" class="code">768</text>

    <line x1="713" y1="45" x2="713" y2="55" stroke="#f59e0b" stroke-width="2"/>
    <text x="713" y="68" text-anchor="middle" class="code">1023</text>

    <line x1="723" y1="45" x2="723" y2="55" stroke="#8b5cf6" stroke-width="2"/>
    <text x="723" y="68" text-anchor="middle" class="code">1024</text>
  </g>

  <!-- Mobile Viewport Examples -->
  <g id="mobile-viewports" transform="translate(40, 140)">
    <text x="0" y="0" class="heading">Common Mobile Viewports (320-428px)</text>

    <!-- iPhone SE (320px) -->
    <g transform="translate(0, 25)">
      <rect x="0" y="0" width="100" height="180" rx="12" fill="#ffffff" stroke="#d946ef" stroke-width="2"/>
      <rect x="5" y="5" width="90" height="170" rx="8" fill="#fce7f3"/>
      <rect x="5" y="5" width="90" height="20" rx="8" fill="#ffffff"/>
      <text x="50" y="18" text-anchor="middle" class="text-muted">9:41</text>
      <!-- Content placeholder -->
      <rect x="10" y="30" width="80" height="10" rx="2" fill="#d1d5db"/>
      <rect x="10" y="45" width="60" height="6" rx="2" fill="#e5e7eb"/>
      <rect x="10" y="55" width="70" height="6" rx="2" fill="#e5e7eb"/>
      <rect x="10" y="70" width="80" height="40" rx="4" fill="#e5e7eb"/>
      <rect x="10" y="115" width="80" height="6" rx="2" fill="#e5e7eb"/>
      <rect x="10" y="125" width="60" height="6" rx="2" fill="#e5e7eb"/>
      <text x="50" y="210" text-anchor="middle" class="heading-sm">iPhone SE</text>
      <text x="50" y="225" text-anchor="middle" class="code">320px</text>
      <text x="50" y="240" text-anchor="middle" class="text-muted">Minimum width</text>
    </g>

    <!-- iPhone 13 Mini (375px) -->
    <g transform="translate(130, 25)">
      <rect x="0" y="0" width="117" height="180" rx="12" fill="#ffffff" stroke="#d946ef" stroke-width="2"/>
      <rect x="5" y="5" width="107" height="170" rx="8" fill="#fce7f3"/>
      <rect x="5" y="5" width="107" height="20" rx="8" fill="#ffffff"/>
      <text x="58" y="18" text-anchor="middle" class="text-muted">9:41</text>
      <rect x="10" y="30" width="97" height="10" rx="2" fill="#d1d5db"/>
      <rect x="10" y="45" width="70" height="6" rx="2" fill="#e5e7eb"/>
      <rect x="10" y="55" width="85" height="6" rx="2" fill="#e5e7eb"/>
      <rect x="10" y="70" width="97" height="40" rx="4" fill="#e5e7eb"/>
      <rect x="10" y="115" width="97" height="6" rx="2" fill="#e5e7eb"/>
      <rect x="10" y="125" width="70" height="6" rx="2" fill="#e5e7eb"/>
      <text x="58" y="210" text-anchor="middle" class="heading-sm">iPhone 13 Mini</text>
      <text x="58" y="225" text-anchor="middle" class="code">375px</text>
    </g>

    <!-- iPhone 12/13/14 (390px) -->
    <g transform="translate(275, 25)">
      <rect x="0" y="0" width="122" height="180" rx="12" fill="#ffffff" stroke="#d946ef" stroke-width="2"/>
      <rect x="5" y="5" width="112" height="170" rx="8" fill="#fce7f3"/>
      <rect x="5" y="5" width="112" height="20" rx="8" fill="#ffffff"/>
      <text x="61" y="18" text-anchor="middle" class="text-muted">9:41</text>
      <rect x="10" y="30" width="102" height="10" rx="2" fill="#d1d5db"/>
      <rect x="10" y="45" width="80" height="6" rx="2" fill="#e5e7eb"/>
      <rect x="10" y="55" width="92" height="6" rx="2" fill="#e5e7eb"/>
      <rect x="10" y="70" width="102" height="40" rx="4" fill="#e5e7eb"/>
      <rect x="10" y="115" width="102" height="6" rx="2" fill="#e5e7eb"/>
      <rect x="10" y="125" width="80" height="6" rx="2" fill="#e5e7eb"/>
      <text x="61" y="210" text-anchor="middle" class="heading-sm">iPhone 12/13/14</text>
      <text x="61" y="225" text-anchor="middle" class="code">390px</text>
      <text x="61" y="240" text-anchor="middle" class="text-muted">Most common</text>
    </g>

    <!-- iPhone 14 Pro Max (428px) -->
    <g transform="translate(425, 25)">
      <rect x="0" y="0" width="134" height="180" rx="12" fill="#ffffff" stroke="#d946ef" stroke-width="2"/>
      <rect x="5" y="5" width="124" height="170" rx="8" fill="#fce7f3"/>
      <rect x="5" y="5" width="124" height="20" rx="8" fill="#ffffff"/>
      <text x="67" y="18" text-anchor="middle" class="text-muted">9:41</text>
      <rect x="10" y="30" width="114" height="10" rx="2" fill="#d1d5db"/>
      <rect x="10" y="45" width="90" height="6" rx="2" fill="#e5e7eb"/>
      <rect x="10" y="55" width="100" height="6" rx="2" fill="#e5e7eb"/>
      <rect x="10" y="70" width="114" height="40" rx="4" fill="#e5e7eb"/>
      <rect x="10" y="115" width="114" height="6" rx="2" fill="#e5e7eb"/>
      <rect x="10" y="125" width="90" height="6" rx="2" fill="#e5e7eb"/>
      <text x="67" y="210" text-anchor="middle" class="heading-sm">iPhone 14 Pro Max</text>
      <text x="67" y="225" text-anchor="middle" class="code">428px</text>
      <text x="67" y="240" text-anchor="middle" class="text-muted">Largest mobile</text>
    </g>
  </g>

  <!-- Tablet Example -->
  <g id="tablet-viewport" transform="translate(600, 140)">
    <text x="0" y="0" class="heading">Tablet (768-1023px)</text>

    <g transform="translate(0, 25)">
      <rect x="0" y="0" width="280" height="200" rx="12" fill="#ffffff" stroke="#f59e0b" stroke-width="2"/>
      <rect x="5" y="5" width="270" height="190" rx="8" fill="#fef3c7"/>

      <!-- Two-column layout -->
      <rect x="10" y="10" width="80" height="175" rx="4" fill="#ffffff"/>
      <rect x="15" y="20" width="70" height="8" rx="2" fill="#d1d5db"/>
      <rect x="15" y="35" width="60" height="6" rx="2" fill="#e5e7eb"/>
      <rect x="15" y="50" width="50" height="6" rx="2" fill="#e5e7eb"/>
      <rect x="15" y="65" width="70" height="6" rx="2" fill="#e5e7eb"/>

      <rect x="100" y="10" width="165" height="175" rx="4" fill="#ffffff"/>
      <rect x="110" y="20" width="145" height="12" rx="2" fill="#d1d5db"/>
      <rect x="110" y="40" width="120" height="6" rx="2" fill="#e5e7eb"/>
      <rect x="110" y="52" width="145" height="6" rx="2" fill="#e5e7eb"/>
      <rect x="110" y="64" width="100" height="6" rx="2" fill="#e5e7eb"/>
      <rect x="110" y="80" width="145" height="60" rx="4" fill="#e5e7eb"/>
      <rect x="110" y="150" width="145" height="6" rx="2" fill="#e5e7eb"/>
      <rect x="110" y="162" width="100" height="6" rx="2" fill="#e5e7eb"/>

      <text x="140" y="235" text-anchor="middle" class="heading-sm">iPad Mini / iPad</text>
      <text x="140" y="250" text-anchor="middle" class="code">768px - 1023px</text>
      <text x="140" y="265" text-anchor="middle" class="text-muted">2-column layout</text>
    </g>
  </g>

  <!-- Desktop Example -->
  <g id="desktop-viewport" transform="translate(920, 140)">
    <text x="0" y="0" class="heading">Desktop (1024px+)</text>

    <g transform="translate(0, 25)">
      <rect x="0" y="0" width="420" height="240" rx="8" fill="#ffffff" stroke="#8b5cf6" stroke-width="2"/>
      <rect x="5" y="5" width="410" height="230" rx="4" fill="#ede9fe"/>

      <!-- Three-column layout -->
      <rect x="10" y="10" width="100" height="215" rx="4" fill="#ffffff"/>
      <rect x="15" y="20" width="90" height="10" rx="2" fill="#d1d5db"/>
      <rect x="15" y="40" width="70" height="6" rx="2" fill="#e5e7eb"/>
      <rect x="15" y="52" width="80" height="6" rx="2" fill="#e5e7eb"/>
      <rect x="15" y="64" width="60" height="6" rx="2" fill="#e5e7eb"/>
      <rect x="15" y="76" width="75" height="6" rx="2" fill="#e5e7eb"/>

      <rect x="120" y="10" width="180" height="215" rx="4" fill="#ffffff"/>
      <rect x="130" y="20" width="160" height="14" rx="2" fill="#d1d5db"/>
      <rect x="130" y="44" width="140" height="6" rx="2" fill="#e5e7eb"/>
      <rect x="130" y="56" width="160" height="6" rx="2" fill="#e5e7eb"/>
      <rect x="130" y="68" width="120" height="6" rx="2" fill="#e5e7eb"/>
      <rect x="130" y="86" width="160" height="80" rx="4" fill="#e5e7eb"/>
      <rect x="130" y="176" width="160" height="6" rx="2" fill="#e5e7eb"/>
      <rect x="130" y="188" width="140" height="6" rx="2" fill="#e5e7eb"/>
      <rect x="130" y="200" width="100" height="6" rx="2" fill="#e5e7eb"/>

      <rect x="310" y="10" width="100" height="215" rx="4" fill="#ffffff"/>
      <rect x="320" y="20" width="80" height="10" rx="2" fill="#d1d5db"/>
      <rect x="320" y="40" width="80" height="50" rx="4" fill="#e5e7eb"/>
      <rect x="320" y="100" width="80" height="10" rx="2" fill="#d1d5db"/>
      <rect x="320" y="120" width="80" height="50" rx="4" fill="#e5e7eb"/>

      <text x="210" y="280" text-anchor="middle" class="heading-sm">Desktop / Laptop</text>
      <text x="210" y="295" text-anchor="middle" class="code">1024px+</text>
      <text x="210" y="310" text-anchor="middle" class="text-muted">3-column layout</text>
    </g>
  </g>

  <!-- CSS Implementation -->
  <g id="css-implementation" transform="translate(40, 460)">
    <text x="0" y="0" class="heading">CSS Implementation (Mobile-First)</text>

    <g transform="translate(0, 20)">
      <rect x="0" y="0" width="420" height="200" rx="8" fill="#1f2937"/>

      <text x="15" y="25" class="code" fill="#94a3b8">/* Base styles - Mobile (320px+) */</text>
      <text x="15" y="45" class="code" fill="#f472b6">.container</text>
      <text x="100" y="45" class="code" fill="#94a3b8">{</text>
      <text x="25" y="62" class="code" fill="#22d3ee">padding</text>
      <text x="68" y="62" class="code" fill="#94a3b8">:</text>
      <text x="78" y="62" class="code" fill="#fbbf24">1rem</text>
      <text x="110" y="62" class="code" fill="#94a3b8">;</text>
      <text x="25" y="79" class="code" fill="#22d3ee">display</text>
      <text x="65" y="79" class="code" fill="#94a3b8">:</text>
      <text x="75" y="79" class="code" fill="#fbbf24">flex</text>
      <text x="100" y="79" class="code" fill="#94a3b8">;</text>
      <text x="25" y="96" class="code" fill="#22d3ee">flex-direction</text>
      <text x="115" y="96" class="code" fill="#94a3b8">:</text>
      <text x="125" y="96" class="code" fill="#fbbf24">column</text>
      <text x="170" y="96" class="code" fill="#94a3b8">;</text>
      <text x="15" y="113" class="code" fill="#94a3b8">}</text>

      <text x="15" y="138" class="code" fill="#94a3b8">/* Tablet (768px+) */</text>
      <text x="15" y="155" class="code" fill="#a78bfa">@media</text>
      <text x="55" y="155" class="code" fill="#94a3b8">(</text>
      <text x="60" y="155" class="code" fill="#22d3ee">min-width</text>
      <text x="110" y="155" class="code" fill="#94a3b8">:</text>
      <text x="120" y="155" class="code" fill="#fbbf24">768px</text>
      <text x="155" y="155" class="code" fill="#94a3b8">) { ... }</text>

      <text x="15" y="180" class="code" fill="#94a3b8">/* Desktop (1024px+) */</text>
      <text x="15" y="197" class="code" fill="#a78bfa">@media</text>
      <text x="55" y="197" class="code" fill="#94a3b8">(</text>
      <text x="60" y="197" class="code" fill="#22d3ee">min-width</text>
      <text x="110" y="197" class="code" fill="#94a3b8">:</text>
      <text x="120" y="197" class="code" fill="#fbbf24">1024px</text>
      <text x="165" y="197" class="code" fill="#94a3b8">) { ... }</text>
    </g>
  </g>

  <!-- Key Principles -->
  <g id="principles" transform="translate(500, 460)">
    <text x="0" y="0" class="heading">Mobile-First Principles (FR-017)</text>

    <g transform="translate(0, 20)">
      <!-- Principle 1 -->
      <rect x="0" y="0" width="420" height="55" rx="6" fill="#ffffff" stroke="#e5e7eb"/>
      <circle cx="25" cy="27" r="12" fill="#22c55e"/>
      <text x="25" y="32" text-anchor="middle" fill="#ffffff" font-size="14" font-weight="bold">1</text>
      <text x="50" y="22" class="heading-sm">Start Small</text>
      <text x="50" y="40" class="text-sm">Design for 320px first, then progressively enhance</text>

      <!-- Principle 2 -->
      <rect x="0" y="65" width="420" height="55" rx="6" fill="#ffffff" stroke="#e5e7eb"/>
      <circle cx="25" cy="92" r="12" fill="#22c55e"/>
      <text x="25" y="97" text-anchor="middle" fill="#ffffff" font-size="14" font-weight="bold">2</text>
      <text x="50" y="87" class="heading-sm">Add Complexity</text>
      <text x="50" y="105" class="text-sm">Add layouts and features as viewport grows</text>

      <!-- Principle 3 -->
      <rect x="0" y="130" width="420" height="55" rx="6" fill="#ffffff" stroke="#e5e7eb"/>
      <circle cx="25" cy="157" r="12" fill="#22c55e"/>
      <text x="25" y="162" text-anchor="middle" fill="#ffffff" font-size="14" font-weight="bold">3</text>
      <text x="50" y="152" class="heading-sm">Zero Horizontal Scroll</text>
      <text x="50" y="170" class="text-sm">Content fits viewport at all mobile widths (SC-001)</text>
    </g>
  </g>

  <!-- Requirements mapping -->
  <g id="requirements" transform="translate(960, 460)">
    <text x="0" y="0" class="heading">Key Requirements</text>

    <g transform="translate(0, 20)">
      <rect x="0" y="0" width="380" height="200" rx="8" fill="#ffffff" stroke="#e5e7eb"/>

      <text x="15" y="25" class="annotation">NFR-001: Breakpoints</text>
      <text x="15" y="42" class="text-sm">Mobile: 320-767px | Tablet: 768-1023px | Desktop: 1024px+</text>

      <line x1="15" y1="55" x2="365" y2="55" stroke="#e5e7eb"/>

      <text x="15" y="75" class="annotation">NFR-002: Mobile-First</text>
      <text x="15" y="92" class="text-sm">Design decisions start from mobile-first principles</text>

      <line x1="15" y1="105" x2="365" y2="105" stroke="#e5e7eb"/>

      <text x="15" y="125" class="annotation">NFR-003: Minimum Width</text>
      <text x="15" y="142" class="text-sm">320px minimum supported; narrower = degraded experience</text>

      <line x1="15" y1="155" x2="365" y2="155" stroke="#e5e7eb"/>

      <text x="15" y="175" class="annotation">SC-010: Visual Regression</text>
      <text x="15" y="192" class="text-sm">Tests at 320px, 375px, 390px, 428px breakpoints</text>
    </g>
  </g>

  <!-- Feature reference -->
  <text x="1360" y="780" text-anchor="end" class="text-muted">004-mobile-first-design | 01 of 04</text>
</svg>
