<svg xmlns="http://www.w3.org/2000/svg" viewBox="0 0 1400 800" width="1400" height="800">
  <!-- ============================================================
       GENERATED BY: /wireframe skill
       SOURCE: features/foundation/004-mobile-first-design/spec.md
       DATE: 2026-01-01
       THEME: Light (UX/Frontend) - v3 True Parchment
       DO NOT MANUALLY EDIT - Regenerate with /wireframe command
       ============================================================ -->
  <defs>
    <linearGradient id="bgGrad" x1="0%" y1="0%" x2="100%" y2="100%">
      <stop offset="0%" style="stop-color:#c7ddf5"/>
      <stop offset="100%" style="stop-color:#b8d4f0"/>
    </linearGradient>
    <linearGradient id="accentGrad" x1="0%" y1="0%" x2="100%" y2="0%">
      <stop offset="0%" style="stop-color:#8b5cf6"/>
      <stop offset="100%" style="stop-color:#d946ef"/>
    </linearGradient>
    <style>
      .heading-lg { fill: #1a1a2e; font-family: system-ui, sans-serif; font-size: 24px; font-weight: 800; }
      .heading { fill: #1a1a2e; font-family: system-ui, sans-serif; font-size: 16px; font-weight: 700; }
      .text-md { fill: #2d3748; font-family: system-ui, sans-serif; font-size: 14px; font-weight: 500; }
      .text-sm { fill: #4a5568; font-family: system-ui, sans-serif; font-size: 12px; font-weight: 500; }
      .text-muted { fill: #5a6577; font-family: system-ui, sans-serif; font-size: 11px; font-weight: 500; }
      .annotation { fill: #8b5cf6; font-family: monospace; font-size: 12px; font-weight: 600; }
      .label-desktop { fill: #8b5cf6; font-family: monospace; font-size: 13px; font-weight: bold; }
      .label-mobile { fill: #d946ef; font-family: monospace; font-size: 13px; font-weight: bold; }
      .spec-label { fill: #22c55e; font-family: monospace; font-size: 10px; font-weight: 600; }
      .dimension { fill: #ef4444; font-family: monospace; font-size: 10px; font-weight: 600; }
    </style>
  </defs>

  <!-- Background -->
  <rect width="1400" height="800" fill="url(#bgGrad)"/>

  <!-- Dot grid pattern -->
  <g opacity="0.35">
    <pattern id="dots" width="30" height="30" patternUnits="userSpaceOnUse">
      <circle cx="15" cy="15" r="1" fill="#6b8cba"/>
    </pattern>
    <rect width="1400" height="800" fill="url(#dots)"/>
  </g>

  <!-- Accent line top -->
  <rect x="0" y="0" width="1400" height="3" fill="url(#accentGrad)"/>

  <!-- Title -->
  <text x="700" y="28" text-anchor="middle" font-family="system-ui, sans-serif" font-size="14" font-weight="600" fill="#5a6577" letter-spacing="1">RESPONSIVE NAVIGATION — VIEWPORT-SAFE HEADER</text>

  <!-- DESKTOP SECTION -->
  <text x="40" y="52" class="label-desktop">DESKTOP (1024px+)</text>
  <g id="desktop-view">
    <!-- Desktop header panel -->
    <rect x="40" y="60" width="580" height="80" rx="8" fill="#e8d4b8" stroke="#b8a080" stroke-width="1"/>

    <!-- Logo -->
    <rect x="60" y="80" width="120" height="40" rx="6" fill="#8b5cf6"/>
    <text x="120" y="105" text-anchor="middle" fill="#fff" font-family="system-ui" font-size="14" font-weight="700">ScriptHammer</text>

    <!-- Nav links - full width desktop -->
    <text x="210" y="105" class="text-md">Home</text>
    <text x="270" y="105" class="text-md">Blog</text>
    <text x="330" y="105" class="text-md">Projects</text>
    <text x="410" y="105" class="text-md">About</text>

    <!-- Control buttons - full size -->
    <rect x="480" y="80" width="44" height="40" rx="6" fill="#dcc8a8" stroke="#b8a080"/>
    <text x="502" y="105" text-anchor="middle" class="text-sm">🔍</text>
    <rect x="530" y="80" width="44" height="40" rx="6" fill="#dcc8a8" stroke="#b8a080"/>
    <text x="552" y="105" text-anchor="middle" class="text-sm">⚙️</text>

    <!-- Annotation: Full nav visible -->
    <rect x="40" y="155" width="180" height="35" rx="4" fill="#e8d4b8" stroke="#8b5cf6" stroke-width="1"/>
    <text x="130" y="177" text-anchor="middle" class="annotation">All nav links visible</text>
  </g>

  <!-- TABLET SECTION -->
  <text x="640" y="52" class="label-desktop">TABLET (768px)</text>
  <g id="tablet-view">
    <!-- Tablet header panel -->
    <rect x="640" y="60" width="340" height="80" rx="8" fill="#e8d4b8" stroke="#b8a080" stroke-width="1"/>

    <!-- Logo smaller -->
    <rect x="660" y="80" width="80" height="40" rx="6" fill="#8b5cf6"/>
    <text x="700" y="105" text-anchor="middle" fill="#fff" font-family="system-ui" font-size="12" font-weight="700">Script</text>

    <!-- Condensed nav -->
    <text x="760" y="105" class="text-sm">Home</text>
    <text x="810" y="105" class="text-sm">Blog</text>
    <text x="855" y="105" class="text-sm">More ▾</text>

    <!-- Buttons slightly smaller -->
    <rect x="905" y="80" width="36" height="40" rx="6" fill="#dcc8a8" stroke="#b8a080"/>
    <text x="923" y="105" text-anchor="middle" class="text-sm">🔍</text>
    <rect x="945" y="80" width="28" height="40" rx="6" fill="#dcc8a8" stroke="#b8a080"/>
    <text x="959" y="105" text-anchor="middle" class="text-sm">⚙</text>

    <!-- Annotation -->
    <rect x="640" y="155" width="160" height="35" rx="4" fill="#e8d4b8" stroke="#8b5cf6" stroke-width="1"/>
    <text x="720" y="177" text-anchor="middle" class="annotation">Overflow menu</text>
  </g>

  <!-- MOBILE SECTIONS - Multiple widths -->
  <text x="40" y="220" class="label-mobile">MOBILE BREAKPOINTS — PROPORTIONAL SHRINKING</text>

  <!-- 428px - Large mobile -->
  <g id="mobile-428" transform="translate(40, 240)">
    <text x="0" y="0" class="text-muted">428px (iPhone 14 Pro Max)</text>
    <rect x="0" y="10" width="280" height="60" rx="8" fill="#e8d4b8" stroke="#b8a080" stroke-width="1"/>

    <!-- Hamburger -->
    <rect x="15" y="23" width="44" height="34" rx="6" fill="#dcc8a8" stroke="#b8a080"/>
    <line x1="25" y1="35" x2="49" y2="35" stroke="#4a5568" stroke-width="2"/>
    <line x1="25" y1="40" x2="49" y2="40" stroke="#4a5568" stroke-width="2"/>
    <line x1="25" y1="45" x2="49" y2="45" stroke="#4a5568" stroke-width="2"/>

    <!-- Logo -->
    <rect x="70" y="23" width="100" height="34" rx="6" fill="#8b5cf6"/>
    <text x="120" y="45" text-anchor="middle" fill="#fff" font-family="system-ui" font-size="11" font-weight="700">ScriptHammer</text>

    <!-- Buttons -->
    <rect x="180" y="23" width="44" height="34" rx="6" fill="#dcc8a8" stroke="#b8a080"/>
    <text x="202" y="45" text-anchor="middle" class="text-sm">🔍</text>
    <rect x="230" y="23" width="40" height="34" rx="6" fill="#dcc8a8" stroke="#b8a080"/>
    <text x="250" y="45" text-anchor="middle" class="text-sm">⚙️</text>

    <!-- Touch target indicator -->
    <rect x="15" y="23" width="44" height="34" rx="6" fill="none" stroke="#22c55e" stroke-width="2" stroke-dasharray="4,2"/>
    <text x="37" y="85" text-anchor="middle" class="spec-label">44x44 ✓</text>
  </g>

  <!-- 390px - Standard mobile -->
  <g id="mobile-390" transform="translate(350, 240)">
    <text x="0" y="0" class="text-muted">390px (iPhone 12/13/14)</text>
    <rect x="0" y="10" width="250" height="60" rx="8" fill="#e8d4b8" stroke="#b8a080" stroke-width="1"/>

    <!-- Hamburger -->
    <rect x="12" y="23" width="44" height="34" rx="6" fill="#dcc8a8" stroke="#b8a080"/>
    <line x1="22" y1="35" x2="46" y2="35" stroke="#4a5568" stroke-width="2"/>
    <line x1="22" y1="40" x2="46" y2="40" stroke="#4a5568" stroke-width="2"/>
    <line x1="22" y1="45" x2="46" y2="45" stroke="#4a5568" stroke-width="2"/>

    <!-- Logo -->
    <rect x="64" y="23" width="90" height="34" rx="6" fill="#8b5cf6"/>
    <text x="109" y="45" text-anchor="middle" fill="#fff" font-family="system-ui" font-size="10" font-weight="700">ScriptHammer</text>

    <!-- Buttons -->
    <rect x="160" y="23" width="40" height="34" rx="6" fill="#dcc8a8" stroke="#b8a080"/>
    <text x="180" y="45" text-anchor="middle" class="text-sm">🔍</text>
    <rect x="204" y="23" width="38" height="34" rx="6" fill="#dcc8a8" stroke="#b8a080"/>
    <text x="223" y="45" text-anchor="middle" class="text-sm">⚙</text>

    <!-- 8px spacing indicator -->
    <line x1="153" y1="40" x2="160" y2="40" stroke="#ef4444" stroke-width="2"/>
    <text x="156" y="85" text-anchor="middle" class="dimension">8px</text>
  </g>

  <!-- 375px - Mini mobile -->
  <g id="mobile-375" transform="translate(630, 240)">
    <text x="0" y="0" class="text-muted">375px (iPhone 13 Mini)</text>
    <rect x="0" y="10" width="230" height="60" rx="8" fill="#e8d4b8" stroke="#b8a080" stroke-width="1"/>

    <!-- Hamburger shrunk -->
    <rect x="10" y="25" width="40" height="30" rx="6" fill="#dcc8a8" stroke="#b8a080"/>
    <line x1="18" y1="36" x2="42" y2="36" stroke="#4a5568" stroke-width="2"/>
    <line x1="18" y1="40" x2="42" y2="40" stroke="#4a5568" stroke-width="2"/>
    <line x1="18" y1="44" x2="42" y2="44" stroke="#4a5568" stroke-width="2"/>

    <!-- Logo shrunk -->
    <rect x="58" y="25" width="80" height="30" rx="6" fill="#8b5cf6"/>
    <text x="98" y="44" text-anchor="middle" fill="#fff" font-family="system-ui" font-size="9" font-weight="700">ScriptHammer</text>

    <!-- Buttons shrunk -->
    <rect x="146" y="25" width="36" height="30" rx="6" fill="#dcc8a8" stroke="#b8a080"/>
    <text x="164" y="44" text-anchor="middle" class="text-sm">🔍</text>
    <rect x="188" y="25" width="34" height="30" rx="6" fill="#dcc8a8" stroke="#b8a080"/>
    <text x="205" y="44" text-anchor="middle" class="text-sm">⚙</text>
  </g>

  <!-- 320px - Minimum mobile -->
  <g id="mobile-320" transform="translate(890, 240)">
    <text x="0" y="0" class="text-muted">320px (iPhone SE) — MIN</text>
    <rect x="0" y="10" width="200" height="60" rx="8" fill="#e8d4b8" stroke="#b8a080" stroke-width="1"/>

    <!-- All buttons shrunk but visible -->
    <rect x="8" y="27" width="36" height="26" rx="6" fill="#dcc8a8" stroke="#b8a080"/>
    <line x1="16" y1="36" x2="36" y2="36" stroke="#4a5568" stroke-width="2"/>
    <line x1="16" y1="40" x2="36" y2="40" stroke="#4a5568" stroke-width="2"/>
    <line x1="16" y1="44" x2="36" y2="44" stroke="#4a5568" stroke-width="2"/>

    <!-- Logo minimal -->
    <rect x="50" y="27" width="60" height="26" rx="6" fill="#8b5cf6"/>
    <text x="80" y="44" text-anchor="middle" fill="#fff" font-family="system-ui" font-size="8" font-weight="700">Script</text>

    <!-- Buttons minimal -->
    <rect x="116" y="27" width="34" height="26" rx="6" fill="#dcc8a8" stroke="#b8a080"/>
    <text x="133" y="44" text-anchor="middle" class="text-sm">🔍</text>
    <rect x="156" y="27" width="34" height="26" rx="6" fill="#dcc8a8" stroke="#b8a080"/>
    <text x="173" y="44" text-anchor="middle" class="text-sm">⚙</text>

    <!-- All controls visible annotation -->
    <rect x="0" y="80" width="200" height="28" rx="4" fill="#f5f0e6" stroke="#22c55e" stroke-width="1"/>
    <text x="100" y="98" text-anchor="middle" class="spec-label">✓ All controls visible (FR-002)</text>
  </g>

  <!-- MOBILE PHONE FRAME with expanded nav -->
  <text x="980" y="220" class="label-mobile">MOBILE EXPANDED NAV</text>
  <g id="mobile-expanded" transform="translate(980, 240)">
    <!-- Phone frame -->
    <rect x="0" y="0" width="360" height="500" rx="24" fill="#c8b898" stroke="#a08860" stroke-width="2"/>
    <rect x="10" y="10" width="340" height="480" rx="16" fill="#e8d4b8"/>

    <!-- Status bar -->
    <rect x="10" y="10" width="340" height="28" rx="16" fill="#dcc8a8"/>
    <text x="30" y="28" class="text-sm">9:41</text>
    <text x="300" y="28" class="text-sm">📶 🔋</text>

    <!-- Header with hamburger open -->
    <rect x="20" y="48" width="320" height="50" rx="8" fill="#dcc8a8" stroke="#b8a080"/>

    <!-- Close button -->
    <rect x="30" y="58" width="44" height="30" rx="6" fill="#8b5cf6"/>
    <text x="52" y="77" text-anchor="middle" fill="#fff" font-family="system-ui" font-size="14" font-weight="700">✕</text>

    <!-- Logo -->
    <rect x="84" y="58" width="100" height="30" rx="6" fill="#8b5cf6"/>
    <text x="134" y="77" text-anchor="middle" fill="#fff" font-family="system-ui" font-size="10" font-weight="700">ScriptHammer</text>

    <!-- Expanded menu panel -->
    <rect x="20" y="108" width="320" height="280" rx="8" fill="#f5f0e6" stroke="#b8a080"/>

    <!-- Nav items with 44x44 touch targets -->
    <g id="nav-items">
      <rect x="30" y="118" width="300" height="50" rx="6" fill="#e8d4b8" stroke="#b8a080"/>
      <text x="50" y="150" class="heading">🏠  Home</text>
      <rect x="30" y="118" width="300" height="50" rx="6" fill="none" stroke="#22c55e" stroke-width="1" stroke-dasharray="4,2"/>

      <rect x="30" y="176" width="300" height="50" rx="6" fill="#e8d4b8" stroke="#b8a080"/>
      <text x="50" y="208" class="heading">📝  Blog</text>

      <rect x="30" y="234" width="300" height="50" rx="6" fill="#e8d4b8" stroke="#b8a080"/>
      <text x="50" y="266" class="heading">📁  Projects</text>

      <rect x="30" y="292" width="300" height="50" rx="6" fill="#e8d4b8" stroke="#b8a080"/>
      <text x="50" y="324" class="heading">👤  About</text>

      <rect x="30" y="350" width="300" height="30" rx="6" fill="#dcc8a8" stroke="#b8a080"/>
      <text x="180" y="370" text-anchor="middle" class="text-muted">Settings</text>
    </g>

    <!-- Touch target annotation -->
    <rect x="30" y="400" width="130" height="40" rx="4" fill="#e8d4b8" stroke="#8b5cf6" stroke-width="1"/>
    <text x="95" y="418" text-anchor="middle" class="annotation">50px height</text>
    <text x="95" y="432" text-anchor="middle" class="spec-label">≥44px ✓</text>

    <!-- Spacing annotation -->
    <rect x="170" y="400" width="130" height="40" rx="4" fill="#e8d4b8" stroke="#8b5cf6" stroke-width="1"/>
    <text x="235" y="418" text-anchor="middle" class="annotation">8px gaps</text>
    <text x="235" y="432" text-anchor="middle" class="spec-label">FR-005 ✓</text>
  </g>

  <!-- Key Requirements -->
  <g id="requirements" transform="translate(40, 390)">
    <rect x="0" y="0" width="900" height="360" rx="8" fill="#f5f0e6" stroke="#b8a080" stroke-width="1"/>
    <text x="20" y="30" class="heading-lg">Navigation Requirements (FR-001 to FR-005)</text>

    <!-- Requirements grid -->
    <g transform="translate(20, 50)">
      <!-- FR-001 -->
      <rect x="0" y="0" width="280" height="70" rx="6" fill="#e8d4b8" stroke="#22c55e" stroke-width="2"/>
      <text x="15" y="25" class="spec-label">FR-001</text>
      <text x="15" y="45" class="text-md">Header fits viewport</text>
      <text x="15" y="60" class="text-muted">320px-428px, no h-scroll</text>

      <!-- FR-002 -->
      <rect x="295" y="0" width="280" height="70" rx="6" fill="#e8d4b8" stroke="#22c55e" stroke-width="2"/>
      <text x="310" y="25" class="spec-label">FR-002</text>
      <text x="310" y="45" class="text-md">Proportional shrinking</text>
      <text x="310" y="60" class="text-muted">Controls shrink, none hidden</text>

      <!-- FR-003 -->
      <rect x="590" y="0" width="280" height="70" rx="6" fill="#e8d4b8" stroke="#22c55e" stroke-width="2"/>
      <text x="605" y="25" class="spec-label">FR-003</text>
      <text x="605" y="45" class="text-md">Accessible navigation</text>
      <text x="605" y="60" class="text-muted">Hamburger, logo, essential btns</text>

      <!-- FR-004 -->
      <rect x="0" y="85" width="280" height="70" rx="6" fill="#e8d4b8" stroke="#22c55e" stroke-width="2"/>
      <text x="15" y="110" class="spec-label">FR-004</text>
      <text x="15" y="130" class="text-md">44x44px touch targets</text>
      <text x="15" y="145" class="text-muted">Apple HIG standard</text>

      <!-- FR-005 -->
      <rect x="295" y="85" width="280" height="70" rx="6" fill="#e8d4b8" stroke="#22c55e" stroke-width="2"/>
      <text x="310" y="110" class="spec-label">FR-005</text>
      <text x="310" y="130" class="text-md">8px spacing minimum</text>
      <text x="310" y="145" class="text-muted">Between tappable controls</text>

      <!-- Visual example -->
      <rect x="590" y="85" width="280" height="70" rx="6" fill="#dcc8a8" stroke="#8b5cf6" stroke-width="2"/>
      <text x="605" y="110" class="annotation">VISUAL EXAMPLE</text>
      <rect x="610" y="120" width="44" height="30" rx="6" fill="#8b5cf6"/>
      <text x="632" y="140" text-anchor="middle" fill="#fff" font-size="10">44</text>
      <rect x="662" y="125" width="8" height="20" rx="2" fill="#ef4444" opacity="0.5"/>
      <text x="666" y="140" text-anchor="middle" fill="#ef4444" font-size="8">8</text>
      <rect x="678" y="120" width="44" height="30" rx="6" fill="#8b5cf6"/>
      <text x="700" y="140" text-anchor="middle" fill="#fff" font-size="10">44</text>
    </g>

    <!-- Breakpoint reference -->
    <g transform="translate(20, 220)">
      <text x="0" y="0" class="heading">Supported Breakpoints</text>

      <rect x="0" y="15" width="200" height="40" rx="6" fill="#e8d4b8" stroke="#b8a080"/>
      <text x="15" y="40" class="text-md">320px - iPhone SE (min)</text>

      <rect x="215" y="15" width="200" height="40" rx="6" fill="#e8d4b8" stroke="#b8a080"/>
      <text x="230" y="40" class="text-md">375px - iPhone 13 Mini</text>

      <rect x="430" y="15" width="200" height="40" rx="6" fill="#e8d4b8" stroke="#b8a080"/>
      <text x="445" y="40" class="text-md">390px - iPhone 12/13/14</text>

      <rect x="645" y="15" width="225" height="40" rx="6" fill="#e8d4b8" stroke="#b8a080"/>
      <text x="660" y="40" class="text-md">428px - iPhone 14 Pro Max</text>
    </g>

    <!-- No horizontal scroll indicator -->
    <g transform="translate(20, 285)">
      <rect x="0" y="0" width="860" height="50" rx="6" fill="#22c55e" opacity="0.15" stroke="#22c55e" stroke-width="2"/>
      <text x="430" y="30" text-anchor="middle" class="heading" fill="#22c55e">✓ ZERO HORIZONTAL SCROLL AT ALL MOBILE WIDTHS (SC-001)</text>
    </g>
  </g>

  <!-- Leader lines -->
  <g id="leader-lines">
    <line x1="120" y1="145" x2="120" y2="155" stroke="#8b5cf6" stroke-width="1" stroke-dasharray="4,2"/>
  </g>
</svg>
