<svg xmlns="http://www.w3.org/2000/svg" viewBox="0 0 1400 800" width="1400" height="800">
  <!-- ============================================================
       GENERATED BY: /wireframe skill
       SOURCE: features/foundation/004-mobile-first-design/spec.md
       DATE: 2026-01-01
       THEME: Light (UX/Frontend) - v3 True Parchment
       ============================================================ -->
  <defs>
    <linearGradient id="bgGrad" x1="0%" y1="0%" x2="100%" y2="100%">
      <stop offset="0%" style="stop-color:#c7ddf5"/>
      <stop offset="100%" style="stop-color:#b8d4f0"/>
    </linearGradient>
    <linearGradient id="accentGrad" x1="0%" y1="0%" x2="100%" y2="0%">
      <stop offset="0%" style="stop-color:#8b5cf6"/>
      <stop offset="100%" style="stop-color:#d946ef"/>
    </linearGradient>
    <style>
      .heading-lg { fill: #1a1a2e; font-family: system-ui, sans-serif; font-size: 24px; font-weight: 800; }
      .heading { fill: #1a1a2e; font-family: system-ui, sans-serif; font-size: 16px; font-weight: 700; }
      .text-md { fill: #2d3748; font-family: system-ui, sans-serif; font-size: 14px; font-weight: 500; }
      .text-sm { fill: #4a5568; font-family: system-ui, sans-serif; font-size: 12px; font-weight: 500; }
      .text-muted { fill: #5a6577; font-family: system-ui, sans-serif; font-size: 11px; font-weight: 500; }
      .annotation { fill: #6d28d9; font-family: monospace; font-size: 11px; font-weight: 600; }
      .label-desktop { fill: #8b5cf6; font-family: monospace; font-size: 13px; font-weight: bold; }
      .label-mobile { fill: #d946ef; font-family: monospace; font-size: 13px; font-weight: bold; }
      .spec-label { fill: #22c55e; font-family: monospace; font-size: 10px; font-weight: 600; }
    </style>
  </defs>

  <!-- Background -->
  <rect width="1400" height="800" fill="url(#bgGrad)"/>
  <g opacity="0.35">
    <pattern id="dots" width="30" height="30" patternUnits="userSpaceOnUse">
      <circle cx="15" cy="15" r="1" fill="#6b8cba"/>
    </pattern>
    <rect width="1400" height="800" fill="url(#dots)"/>
  </g>
  <rect x="0" y="0" width="1400" height="3" fill="url(#accentGrad)"/>

  <!-- Title -->
  <text x="700" y="28" text-anchor="middle" font-family="system-ui, sans-serif" font-size="14" font-weight="600" fill="#5a6577" letter-spacing="1">VIEWPORT-SAFE NAVIGATION — FR-001 TO FR-005</text>

  <!-- DESKTOP SECTION -->
  <text x="40" y="52" class="label-desktop">DESKTOP (1024px+)</text>

  <!-- Desktop Header -->
  <g transform="translate(40, 60)">
    <rect x="0" y="0" width="900" height="70" rx="8" fill="#e8d4b8" stroke="#b8a080"/>

    <!-- Logo -->
    <rect x="20" y="15" width="140" height="40" rx="6" fill="#8b5cf6"/>
    <text x="90" y="40" text-anchor="middle" fill="#fff" font-family="system-ui" font-size="14" font-weight="700">ScriptHammer</text>

    <!-- Nav Links -->
    <text x="200" y="40" class="text-md">Home</text>
    <text x="270" y="40" class="text-md">Blog</text>
    <text x="340" y="40" class="text-md">Projects</text>
    <text x="430" y="40" class="text-md">About</text>
    <text x="510" y="40" class="text-md">Contact</text>

    <!-- Right controls -->
    <rect x="750" y="15" width="44" height="40" rx="6" fill="#dcc8a8" stroke="#b8a080"/>
    <text x="772" y="40" text-anchor="middle" class="text-sm">🔍</text>
    <rect x="804" y="15" width="44" height="40" rx="6" fill="#dcc8a8" stroke="#b8a080"/>
    <text x="826" y="40" text-anchor="middle" class="text-sm">⚙️</text>
    <rect x="858" y="15" width="32" height="40" rx="6" fill="#8b5cf6"/>
    <text x="874" y="40" text-anchor="middle" fill="#fff" font-size="12">👤</text>
  </g>

  <!-- Desktop annotation -->
  <rect x="40" y="145" width="200" height="30" rx="4" fill="#e8d4b8" stroke="#8b5cf6"/>
  <text x="140" y="165" text-anchor="middle" class="annotation">Full navigation visible</text>

  <!-- Tablet Header (768px) -->
  <text x="40" y="200" class="label-desktop">TABLET (768px)</text>
  <g transform="translate(40, 210)">
    <rect x="0" y="0" width="600" height="60" rx="8" fill="#e8d4b8" stroke="#b8a080"/>

    <rect x="15" y="10" width="100" height="40" rx="6" fill="#8b5cf6"/>
    <text x="65" y="35" text-anchor="middle" fill="#fff" font-family="system-ui" font-size="12" font-weight="700">Script</text>

    <text x="140" y="35" class="text-sm">Home</text>
    <text x="195" y="35" class="text-sm">Blog</text>
    <text x="250" y="35" class="text-sm">More ▾</text>

    <rect x="500" y="10" width="40" height="40" rx="6" fill="#dcc8a8" stroke="#b8a080"/>
    <text x="520" y="35" text-anchor="middle" class="text-sm">🔍</text>
    <rect x="550" y="10" width="40" height="40" rx="6" fill="#dcc8a8" stroke="#b8a080"/>
    <text x="570" y="35" text-anchor="middle" class="text-sm">☰</text>
  </g>

  <!-- Mobile breakpoints comparison -->
  <text x="40" y="310" class="label-mobile">MOBILE BREAKPOINTS</text>

  <!-- 428px -->
  <g transform="translate(40, 325)">
    <text x="0" y="0" class="text-muted">428px (iPhone 14 Pro Max)</text>
    <rect x="0" y="10" width="320" height="50" rx="6" fill="#e8d4b8" stroke="#b8a080"/>
    <rect x="10" y="18" width="44" height="34" rx="4" fill="#dcc8a8" stroke="#b8a080"/>
    <text x="32" y="40" text-anchor="middle" class="text-sm">☰</text>
    <rect x="62" y="18" width="110" height="34" rx="4" fill="#8b5cf6"/>
    <text x="117" y="40" text-anchor="middle" fill="#fff" font-size="11">ScriptHammer</text>
    <rect x="180" y="18" width="44" height="34" rx="4" fill="#dcc8a8" stroke="#b8a080"/>
    <text x="202" y="40" text-anchor="middle" class="text-sm">🔍</text>
    <rect x="232" y="18" width="44" height="34" rx="4" fill="#dcc8a8" stroke="#b8a080"/>
    <text x="254" y="40" text-anchor="middle" class="text-sm">⚙️</text>
    <rect x="284" y="18" width="28" height="34" rx="4" fill="#8b5cf6"/>
    <text x="298" y="40" text-anchor="middle" fill="#fff" font-size="10">👤</text>
  </g>

  <!-- 375px -->
  <g transform="translate(40, 405)">
    <text x="0" y="0" class="text-muted">375px (iPhone 13 Mini)</text>
    <rect x="0" y="10" width="280" height="50" rx="6" fill="#e8d4b8" stroke="#b8a080"/>
    <rect x="8" y="18" width="40" height="34" rx="4" fill="#dcc8a8" stroke="#b8a080"/>
    <text x="28" y="40" text-anchor="middle" class="text-sm">☰</text>
    <rect x="56" y="18" width="90" height="34" rx="4" fill="#8b5cf6"/>
    <text x="101" y="40" text-anchor="middle" fill="#fff" font-size="10">ScriptHammer</text>
    <rect x="154" y="18" width="40" height="34" rx="4" fill="#dcc8a8" stroke="#b8a080"/>
    <text x="174" y="40" text-anchor="middle" class="text-sm">🔍</text>
    <rect x="202" y="18" width="36" height="34" rx="4" fill="#dcc8a8" stroke="#b8a080"/>
    <text x="220" y="40" text-anchor="middle" class="text-sm">⚙</text>
    <rect x="246" y="18" width="26" height="34" rx="4" fill="#8b5cf6"/>
    <text x="259" y="40" text-anchor="middle" fill="#fff" font-size="9">👤</text>
  </g>

  <!-- 320px -->
  <g transform="translate(40, 485)">
    <text x="0" y="0" class="text-muted">320px (iPhone SE) — MINIMUM</text>
    <rect x="0" y="10" width="240" height="50" rx="6" fill="#e8d4b8" stroke="#b8a080"/>
    <rect x="6" y="18" width="36" height="34" rx="4" fill="#dcc8a8" stroke="#b8a080"/>
    <text x="24" y="40" text-anchor="middle" class="text-sm">☰</text>
    <rect x="48" y="18" width="70" height="34" rx="4" fill="#8b5cf6"/>
    <text x="83" y="40" text-anchor="middle" fill="#fff" font-size="9">Script</text>
    <rect x="124" y="18" width="36" height="34" rx="4" fill="#dcc8a8" stroke="#b8a080"/>
    <text x="142" y="40" text-anchor="middle" class="text-sm">🔍</text>
    <rect x="166" y="18" width="32" height="34" rx="4" fill="#dcc8a8" stroke="#b8a080"/>
    <text x="182" y="40" text-anchor="middle" class="text-sm">⚙</text>
    <rect x="204" y="18" width="30" height="34" rx="4" fill="#8b5cf6"/>
    <text x="219" y="40" text-anchor="middle" fill="#fff" font-size="9">👤</text>
  </g>

  <!-- Requirements Panel -->
  <g transform="translate(40, 570)">
    <rect x="0" y="0" width="550" height="200" rx="8" fill="#f5f0e6" stroke="#b8a080"/>
    <text x="20" y="30" class="heading">Navigation Requirements</text>

    <rect x="20" y="50" width="250" height="55" rx="4" fill="#e8d4b8" stroke="#22c55e" stroke-width="2"/>
    <text x="35" y="72" class="spec-label">FR-001</text>
    <text x="35" y="90" class="text-sm">Header fits viewport 320-428px</text>

    <rect x="285" y="50" width="250" height="55" rx="4" fill="#e8d4b8" stroke="#22c55e" stroke-width="2"/>
    <text x="300" y="72" class="spec-label">FR-002</text>
    <text x="300" y="90" class="text-sm">Proportional shrinking</text>

    <rect x="20" y="115" width="250" height="55" rx="4" fill="#e8d4b8" stroke="#22c55e" stroke-width="2"/>
    <text x="35" y="137" class="spec-label">FR-004</text>
    <text x="35" y="155" class="text-sm">44x44px touch targets</text>

    <rect x="285" y="115" width="250" height="55" rx="4" fill="#e8d4b8" stroke="#22c55e" stroke-width="2"/>
    <text x="300" y="137" class="spec-label">FR-005</text>
    <text x="300" y="155" class="text-sm">8px spacing minimum</text>
  </g>

  <!-- MOBILE SECTION -->
  <text x="980" y="52" class="label-mobile">MOBILE EXPANDED</text>
  <g transform="translate(980, 60)">
    <rect x="0" y="0" width="360" height="700" rx="24" fill="#c8b898" stroke="#a08860" stroke-width="2"/>
    <rect x="10" y="10" width="340" height="680" rx="16" fill="#e8d4b8"/>

    <!-- Status bar -->
    <rect x="10" y="10" width="340" height="28" rx="16" fill="#dcc8a8"/>
    <text x="30" y="28" class="text-sm">9:41</text>
    <text x="310" y="28" class="text-sm">📶 🔋</text>

    <!-- Header -->
    <rect x="20" y="48" width="320" height="50" rx="8" fill="#dcc8a8" stroke="#b8a080"/>
    <rect x="30" y="56" width="44" height="34" rx="6" fill="#8b5cf6"/>
    <text x="52" y="78" text-anchor="middle" fill="#fff" font-size="16" font-weight="700">✕</text>
    <rect x="82" y="56" width="100" height="34" rx="6" fill="#8b5cf6"/>
    <text x="132" y="78" text-anchor="middle" fill="#fff" font-size="10" font-weight="700">ScriptHammer</text>

    <!-- Expanded nav menu -->
    <rect x="20" y="108" width="320" height="300" rx="8" fill="#f5f0e6" stroke="#b8a080"/>

    <!-- Nav items - 50px height each for touch targets -->
    <rect x="30" y="118" width="300" height="50" rx="6" fill="#e8d4b8" stroke="#b8a080"/>
    <text x="50" y="150" class="heading">🏠  Home</text>

    <rect x="30" y="176" width="300" height="50" rx="6" fill="#e8d4b8" stroke="#b8a080"/>
    <text x="50" y="208" class="heading">📝  Blog</text>

    <rect x="30" y="234" width="300" height="50" rx="6" fill="#e8d4b8" stroke="#b8a080"/>
    <text x="50" y="266" class="heading">📁  Projects</text>

    <rect x="30" y="292" width="300" height="50" rx="6" fill="#e8d4b8" stroke="#b8a080"/>
    <text x="50" y="324" class="heading">👤  About</text>

    <rect x="30" y="350" width="300" height="50" rx="6" fill="#e8d4b8" stroke="#b8a080"/>
    <text x="50" y="382" class="heading">📧  Contact</text>

    <!-- Touch target annotation -->
    <rect x="30" y="118" width="300" height="50" fill="none" stroke="#22c55e" stroke-width="2" stroke-dasharray="4,2"/>
    <text x="255" y="150" class="spec-label">50px ≥ 44 ✓</text>

    <!-- Settings section -->
    <rect x="20" y="420" width="320" height="80" rx="8" fill="#dcc8a8" stroke="#b8a080"/>
    <text x="40" y="450" class="text-md">Settings</text>
    <rect x="30" y="465" width="80" height="28" rx="4" fill="#e8d4b8" stroke="#b8a080"/>
    <text x="70" y="484" text-anchor="middle" class="text-sm">🌙 Dark</text>
    <rect x="120" y="465" width="80" height="28" rx="4" fill="#e8d4b8" stroke="#b8a080"/>
    <text x="160" y="484" text-anchor="middle" class="text-sm">🔤 Font</text>

    <!-- Page content preview -->
    <rect x="20" y="510" width="320" height="170" rx="8" fill="#f5f0e6" stroke="#b8a080"/>
    <text x="180" y="600" text-anchor="middle" class="text-muted">Page content beneath</text>
  </g>
</svg>
