<svg xmlns="http://www.w3.org/2000/svg" viewBox="0 0 1400 800" width="1400" height="800">
  <!-- ============================================================
       GENERATED BY: /wireframe skill
       SOURCE: features/foundation/004-mobile-first-design/spec.md
       DATE: 2026-01-01
       THEME: Light (UX/Frontend) - v3 True Parchment
       ============================================================ -->
  <defs>
    <linearGradient id="bgGrad" x1="0%" y1="0%" x2="100%" y2="100%">
      <stop offset="0%" style="stop-color:#c7ddf5"/>
      <stop offset="100%" style="stop-color:#b8d4f0"/>
    </linearGradient>
    <linearGradient id="accentGrad" x1="0%" y1="0%" x2="100%" y2="0%">
      <stop offset="0%" style="stop-color:#8b5cf6"/>
      <stop offset="100%" style="stop-color:#d946ef"/>
    </linearGradient>
    <style>
      .heading-lg { fill: #1a1a2e; font-family: system-ui, sans-serif; font-size: 24px; font-weight: 800; }
      .heading { fill: #1a1a2e; font-family: system-ui, sans-serif; font-size: 16px; font-weight: 700; }
      .text-md { fill: #2d3748; font-family: system-ui, sans-serif; font-size: 14px; font-weight: 500; }
      .text-sm { fill: #4a5568; font-family: system-ui, sans-serif; font-size: 12px; font-weight: 500; }
      .text-muted { fill: #5a6577; font-family: system-ui, sans-serif; font-size: 11px; font-weight: 500; }
      .annotation { fill: #6d28d9; font-family: monospace; font-size: 11px; font-weight: 600; }
      .label-desktop { fill: #8b5cf6; font-family: monospace; font-size: 13px; font-weight: bold; }
      .label-mobile { fill: #d946ef; font-family: monospace; font-size: 13px; font-weight: bold; }
      .spec-label { fill: #22c55e; font-family: monospace; font-size: 10px; font-weight: 600; }
      .code-text { fill: #e8d4b8; font-family: monospace; font-size: 11px; }
    </style>
  </defs>

  <!-- Background -->
  <rect width="1400" height="800" fill="url(#bgGrad)"/>
  <g opacity="0.35">
    <pattern id="dots" width="30" height="30" patternUnits="userSpaceOnUse">
      <circle cx="15" cy="15" r="1" fill="#6b8cba"/>
    </pattern>
    <rect width="1400" height="800" fill="url(#dots)"/>
  </g>
  <rect x="0" y="0" width="1400" height="3" fill="url(#accentGrad)"/>

  <!-- Title -->
  <text x="700" y="28" text-anchor="middle" font-family="system-ui, sans-serif" font-size="14" font-weight="600" fill="#5a6577" letter-spacing="1">READABLE CONTENT — FR-006 TO FR-016</text>

  <!-- DESKTOP SECTION -->
  <text x="40" y="52" class="label-desktop">DESKTOP BLOG POST</text>

  <g transform="translate(40, 60)">
    <!-- Blog content area -->
    <rect x="0" y="0" width="900" height="700" rx="8" fill="#f5f0e6" stroke="#b8a080"/>

    <!-- Article header -->
    <rect x="20" y="20" width="860" height="100" rx="6" fill="#e8d4b8"/>
    <text x="40" y="55" class="heading-lg">Mobile-First Design Principles</text>
    <text x="40" y="80" class="text-muted">Published: Dec 30, 2025 • 8 min read</text>
    <text x="40" y="105" class="text-sm">By ScriptHammer Team</text>

    <!-- Body text with proper sizing -->
    <text x="40" y="150" class="text-md">Mobile-first design ensures your website looks great on all devices.</text>
    <text x="40" y="175" class="text-md">Starting with the smallest screen forces you to prioritize content</text>
    <text x="40" y="200" class="text-md">and create a streamlined user experience.</text>

    <!-- Typography specs annotation -->
    <rect x="650" y="140" width="200" height="70" rx="4" fill="#e8d4b8" stroke="#8b5cf6"/>
    <text x="665" y="160" class="annotation">FR-006: 16px min</text>
    <text x="665" y="180" class="annotation">FR-008: 1.5 line-height</text>
    <text x="665" y="200" class="spec-label">Body text readable ✓</text>

    <!-- Code block example -->
    <text x="40" y="240" class="heading">Code Example</text>
    <rect x="40" y="255" width="600" height="120" rx="6" fill="#1e293b"/>
    <text x="55" y="280" class="code-text">@media (max-width: 767px) {</text>
    <text x="55" y="300" class="code-text">  .nav-links { display: none; }</text>
    <text x="55" y="320" class="code-text">  .hamburger { display: flex; }</text>
    <text x="55" y="340" class="code-text">  body { font-size: 16px; }</text>
    <text x="55" y="360" class="code-text">}</text>

    <!-- Code block annotation -->
    <rect x="650" y="255" width="200" height="50" rx="4" fill="#e8d4b8" stroke="#8b5cf6"/>
    <text x="665" y="275" class="annotation">FR-014: overflow-x</text>
    <text x="665" y="295" class="spec-label">Internal scroll ✓</text>

    <!-- Scroll indicator on code block -->
    <rect x="620" y="355" width="15" height="15" rx="2" fill="#475569"/>
    <text x="627" y="367" text-anchor="middle" fill="#fff" font-size="8">→</text>

    <!-- Image example -->
    <text x="40" y="410" class="heading">Responsive Image</text>
    <rect x="40" y="425" width="400" height="180" rx="6" fill="#dcc8a8" stroke="#b8a080"/>
    <text x="240" y="520" text-anchor="middle" class="text-muted">Responsive image</text>
    <text x="240" y="540" text-anchor="middle" class="text-muted">srcset with multiple sizes</text>

    <!-- Image annotation -->
    <rect x="460" y="425" width="200" height="70" rx="4" fill="#e8d4b8" stroke="#8b5cf6"/>
    <text x="475" y="445" class="annotation">FR-012: srcset</text>
    <text x="475" y="465" class="annotation">FR-013: WebP/AVIF</text>
    <text x="475" y="485" class="spec-label">Responsive ✓</text>

    <!-- Heading hierarchy -->
    <text x="40" y="640" class="heading">Heading Hierarchy</text>
    <rect x="40" y="655" width="400" height="30" rx="4" fill="#e8d4b8"/>
    <text x="55" y="675" font-size="18" font-weight="700" fill="#1a1a2e">H1: 24px → 18px mobile</text>
    <rect x="450" y="655" width="200" height="30" rx="4" fill="#e8d4b8" stroke="#8b5cf6"/>
    <text x="465" y="675" class="annotation">FR-009: 60-75%</text>
  </g>

  <!-- MOBILE SECTION -->
  <text x="980" y="52" class="label-mobile">MOBILE (390px)</text>
  <g transform="translate(980, 60)">
    <rect x="0" y="0" width="360" height="700" rx="24" fill="#c8b898" stroke="#a08860" stroke-width="2"/>
    <rect x="10" y="10" width="340" height="680" rx="16" fill="#e8d4b8"/>

    <!-- Status bar -->
    <rect x="10" y="10" width="340" height="28" rx="16" fill="#dcc8a8"/>
    <text x="30" y="28" class="text-sm">9:41</text>
    <text x="310" y="28" class="text-sm">📶 🔋</text>

    <!-- Mobile header -->
    <rect x="20" y="48" width="320" height="44" rx="6" fill="#dcc8a8" stroke="#b8a080"/>
    <rect x="30" y="55" width="36" height="30" rx="4" fill="#e8d4b8" stroke="#b8a080"/>
    <text x="48" y="75" text-anchor="middle" class="text-sm">☰</text>
    <rect x="74" y="55" width="80" height="30" rx="4" fill="#8b5cf6"/>
    <text x="114" y="75" text-anchor="middle" fill="#fff" font-size="10">Script</text>

    <!-- Article content mobile -->
    <rect x="20" y="102" width="320" height="580" rx="8" fill="#f5f0e6" stroke="#b8a080"/>

    <!-- Mobile article header -->
    <text x="35" y="130" font-size="16" font-weight="700" fill="#1a1a2e">Mobile-First Design</text>
    <text x="35" y="150" class="text-muted">Dec 30, 2025 • 8 min</text>

    <!-- Mobile body text - 16px minimum -->
    <text x="35" y="180" class="text-md">Mobile-first design ensures</text>
    <text x="35" y="200" class="text-md">your website looks great on</text>
    <text x="35" y="220" class="text-md">all devices. Starting small</text>
    <text x="35" y="240" class="text-md">forces content priority.</text>

    <!-- Annotation for mobile text -->
    <rect x="35" y="255" width="150" height="25" rx="4" fill="#e8d4b8" stroke="#22c55e"/>
    <text x="110" y="272" text-anchor="middle" class="spec-label">16px min ✓ (FR-006)</text>

    <!-- Mobile code block with scroll -->
    <rect x="35" y="295" width="280" height="80" rx="4" fill="#1e293b"/>
    <text x="45" y="315" font-family="monospace" font-size="10" fill="#e8d4b8">@media (max-width:</text>
    <text x="45" y="330" font-family="monospace" font-size="10" fill="#e8d4b8">  767px) {</text>
    <text x="45" y="345" font-family="monospace" font-size="10" fill="#e8d4b8">  .nav { ... }</text>
    <text x="45" y="360" font-family="monospace" font-size="10" fill="#e8d4b8">}</text>

    <!-- Scroll indicator -->
    <rect x="295" y="355" width="15" height="15" rx="2" fill="#475569"/>
    <text x="302" y="367" text-anchor="middle" fill="#fff" font-size="8">→</text>

    <!-- Mobile image -->
    <rect x="35" y="390" width="280" height="120" rx="4" fill="#dcc8a8" stroke="#b8a080"/>
    <text x="175" y="455" text-anchor="middle" class="text-muted">Responsive image</text>

    <!-- Image fits viewport annotation -->
    <rect x="35" y="520" width="170" height="25" rx="4" fill="#e8d4b8" stroke="#22c55e"/>
    <text x="120" y="537" text-anchor="middle" class="spec-label">Fits viewport ✓ (FR-012)</text>

    <!-- Mobile heading example -->
    <text x="35" y="575" font-size="14" font-weight="700" fill="#1a1a2e">H1 at 75% scale</text>
    <rect x="35" y="585" width="140" height="22" rx="4" fill="#e8d4b8" stroke="#22c55e"/>
    <text x="105" y="600" text-anchor="middle" class="spec-label">FR-009 ✓</text>

    <!-- Line length annotation -->
    <rect x="35" y="620" width="280" height="50" rx="4" fill="#e8d4b8" stroke="#8b5cf6"/>
    <text x="50" y="640" class="annotation">Max line length: ~65ch</text>
    <text x="50" y="660" class="spec-label">Comfortable reading ✓</text>
  </g>
</svg>
