<svg xmlns="http://www.w3.org/2000/svg" viewBox="0 0 1400 800" width="1400" height="800">
  <!-- ============================================================
       GENERATED BY: /wireframe skill
       SOURCE: features/foundation/004-mobile-first-design/spec.md
       DATE: 2026-01-01
       THEME: Light (UX/Frontend) - v3 True Parchment
       REGENERATED WITH FEEDBACK: features/foundation/004-mobile-first-design/WIREFRAME_ISSUES.md
       DO NOT MANUALLY EDIT - Regenerate with /wireframe command
       ============================================================ -->
  <defs>
    <linearGradient id="bgGrad" x1="0%" y1="0%" x2="100%" y2="100%">
      <stop offset="0%" style="stop-color:#c7ddf5"/>
      <stop offset="100%" style="stop-color:#b8d4f0"/>
    </linearGradient>
    <linearGradient id="accentGrad" x1="0%" y1="0%" x2="100%" y2="0%">
      <stop offset="0%" style="stop-color:#8b5cf6"/>
      <stop offset="100%" style="stop-color:#d946ef"/>
    </linearGradient>
    <style>
      .heading-lg { fill: #1a1a2e; font-family: system-ui, sans-serif; font-size: 24px; font-weight: 800; }
      .heading { fill: #1a1a2e; font-family: system-ui, sans-serif; font-size: 16px; font-weight: 700; }
      .heading-sm { fill: #1a1a2e; font-family: system-ui, sans-serif; font-size: 14px; font-weight: 700; }
      .text-md { fill: #2d3748; font-family: system-ui, sans-serif; font-size: 14px; font-weight: 500; }
      .text-sm { fill: #374151; font-family: system-ui, sans-serif; font-size: 12px; font-weight: 500; }
      .text-muted { fill: #374151; font-family: system-ui, sans-serif; font-size: 11px; font-weight: 500; }
      .annotation { fill: #6d28d9; font-family: monospace; font-size: 11px; font-weight: 600; }
      .label-desktop { fill: #8b5cf6; font-family: monospace; font-size: 13px; font-weight: bold; }
      .label-mobile { fill: #d946ef; font-family: monospace; font-size: 13px; font-weight: bold; }
      .spec-label { fill: #22c55e; font-family: monospace; font-size: 10px; font-weight: 600; }
      .code-text { fill: #e8d4b8; font-family: monospace; font-size: 11px; }
    </style>
  </defs>

  <!-- Background -->
  <rect width="1400" height="800" fill="url(#bgGrad)"/>
  <g opacity="0.35">
    <pattern id="dots" width="30" height="30" patternUnits="userSpaceOnUse">
      <circle cx="15" cy="15" r="1" fill="#6b8cba"/>
    </pattern>
    <rect width="1400" height="800" fill="url(#dots)"/>
  </g>
  <rect x="0" y="0" width="1400" height="3" fill="url(#accentGrad)"/>

  <!-- Title -->
  <text x="700" y="28" text-anchor="middle" font-family="system-ui, sans-serif" font-size="14" font-weight="600" fill="#374151" letter-spacing="1">READABLE CONTENT — FR-006 TO FR-016</text>

  <!-- DESKTOP SECTION -->
  <text x="40" y="52" class="label-desktop">DESKTOP BLOG POST</text>

  <g transform="translate(40, 60)">
    <!-- Blog content area -->
    <rect x="0" y="0" width="580" height="700" rx="8" fill="#f5f0e6" stroke="#b8a080"/>

    <!-- Article header -->
    <rect x="15" y="15" width="550" height="85" rx="6" fill="#e8d4b8"/>
    <text x="30" y="45" class="heading-lg">Mobile-First Design Principles</text>
    <text x="30" y="70" class="text-muted">Published: Dec 30, 2025 • 8 min read</text>
    <text x="30" y="90" class="text-sm">By ScriptHammer Team</text>

    <!-- Body text with proper sizing -->
    <text x="30" y="130" class="text-md">Mobile-first design ensures your website looks great on all</text>
    <text x="30" y="150" class="text-md">devices. Starting with the smallest screen forces you to</text>
    <text x="30" y="170" class="text-md">prioritize content and create a streamlined user experience.</text>

    <!-- Typography specs annotation -->
    <rect x="400" y="115" width="165" height="65" rx="4" fill="#e8d4b8" stroke="#8b5cf6"/>
    <text x="410" y="135" class="annotation">FR-006: 16px min</text>
    <text x="410" y="152" class="annotation">FR-008: 1.5 line-height</text>
    <text x="410" y="172" class="spec-label">Body text readable ✓</text>

    <!-- Code block example -->
    <text x="30" y="205" class="heading-sm">Code Example</text>
    <rect x="30" y="215" width="380" height="100" rx="6" fill="#1e293b"/>
    <text x="42" y="238" class="code-text">@media (max-width: 767px) {</text>
    <text x="42" y="255" class="code-text">  .nav-links { display: none; }</text>
    <text x="42" y="272" class="code-text">  .hamburger { display: flex; }</text>
    <text x="42" y="289" class="code-text">  body { font-size: 16px; }</text>
    <text x="42" y="306" class="code-text">}</text>

    <!-- Internal scroll indicator -->
    <rect x="395" y="295" width="12" height="12" rx="2" fill="#475569"/>
    <text x="401" y="305" text-anchor="middle" fill="#fff" font-size="7">→</text>

    <!-- Code block annotation -->
    <rect x="420" y="215" width="140" height="45" rx="4" fill="#e8d4b8" stroke="#8b5cf6"/>
    <text x="430" y="235" class="annotation">FR-014: overflow-x</text>
    <text x="430" y="252" class="spec-label">Internal scroll ✓</text>

    <!-- Responsive Image -->
    <text x="30" y="345" class="heading-sm">Responsive Image</text>
    <rect x="30" y="355" width="300" height="130" rx="6" fill="#dcc8a8" stroke="#b8a080"/>
    <text x="180" y="415" text-anchor="middle" class="text-muted">Responsive image</text>
    <text x="180" y="432" text-anchor="middle" class="text-muted">srcset with WebP/AVIF</text>

    <!-- Image annotation -->
    <rect x="345" y="355" width="130" height="55" rx="4" fill="#e8d4b8" stroke="#8b5cf6"/>
    <text x="355" y="375" class="annotation">FR-012: srcset</text>
    <text x="355" y="392" class="annotation">FR-013: WebP/AVIF</text>
    <text x="355" y="405" class="spec-label">Responsive ✓</text>

    <!-- Image Error State (FR-016a/b) - NEW -->
    <text x="30" y="510" class="heading-sm">Image Error State (FR-016a/b)</text>
    <rect x="30" y="520" width="220" height="100" rx="6" fill="#fee2e2" stroke="#ef4444" stroke-dasharray="4,2"/>
    <text x="140" y="555" text-anchor="middle" class="text-muted">Image failed to load</text>
    <text x="140" y="575" text-anchor="middle" fill="#ef4444" font-size="10">[Alt: Product photo]</text>
    <rect x="90" y="585" width="100" height="28" rx="4" fill="#ef4444"/>
    <text x="140" y="604" text-anchor="middle" fill="#fff" font-size="10">Retry Load</text>

    <!-- Image error annotation -->
    <rect x="265" y="520" width="145" height="75" rx="4" fill="#e8d4b8" stroke="#8b5cf6"/>
    <text x="275" y="542" class="annotation">FR-016a: Placeholder</text>
    <text x="275" y="559" class="annotation">+ alt text + retry</text>
    <text x="275" y="576" class="annotation">FR-016b: Swappable</text>
    <text x="275" y="590" class="spec-label">Error handling ✓</text>

    <!-- Heading hierarchy -->
    <text x="30" y="650" class="heading-sm">Heading Hierarchy (FR-009)</text>
    <rect x="30" y="660" width="250" height="25" rx="4" fill="#e8d4b8"/>
    <text x="40" y="678" font-size="16" font-weight="700" fill="#1a1a2e">H1: 24px → 18px mobile</text>
    <rect x="290" y="660" width="130" height="25" rx="4" fill="#e8d4b8" stroke="#8b5cf6"/>
    <text x="300" y="678" class="annotation">60-75% scale ✓</text>
  </g>

  <!-- FR-007 Panel (Font Size Cap) - NEW -->
  <g transform="translate(640, 60)">
    <rect x="0" y="0" width="320" height="140" rx="8" fill="#f5f0e6" stroke="#b8a080"/>
    <text x="20" y="30" class="heading-sm">Font Size Cap (FR-007)</text>

    <text x="20" y="60" class="text-sm">Screen width &lt;375px:</text>

    <rect x="20" y="75" width="130" height="30" rx="4" fill="#22c55e" opacity="0.15" stroke="#22c55e"/>
    <text x="85" y="96" text-anchor="middle" class="text-sm">Small ✓</text>

    <rect x="160" y="75" width="140" height="30" rx="4" fill="#22c55e" opacity="0.15" stroke="#22c55e"/>
    <text x="230" y="96" text-anchor="middle" class="text-sm">Medium ✓</text>

    <rect x="20" y="110" width="130" height="20" rx="4" fill="#22c55e" opacity="0.15" stroke="#22c55e"/>
    <text x="85" y="125" text-anchor="middle" class="text-sm">Large ✓</text>

    <rect x="160" y="110" width="140" height="20" rx="4" fill="#fee2e2" stroke="#ef4444"/>
    <text x="230" y="125" text-anchor="middle" fill="#ef4444" font-size="10">X-Large disabled</text>
  </g>

  <!-- FR-010 Panel (No H-Scroll) - NEW -->
  <g transform="translate(640, 215)">
    <rect x="0" y="0" width="320" height="100" rx="8" fill="#f5f0e6" stroke="#b8a080"/>
    <text x="20" y="30" class="heading-sm">No Horizontal Scroll (FR-010)</text>

    <rect x="20" y="45" width="280" height="40" rx="4" fill="#22c55e" opacity="0.15" stroke="#22c55e"/>
    <text x="160" y="72" text-anchor="middle" class="text-md">Text content reflows</text>
    <text x="250" y="88" class="spec-label">zero h-scroll ✓</text>
  </g>

  <!-- MOBILE SECTION -->
  <text x="980" y="52" class="label-mobile">MOBILE (390px)</text>
  <g transform="translate(980, 60)">
    <rect x="0" y="0" width="360" height="700" rx="24" fill="#c8b898" stroke="#a08860" stroke-width="2"/>
    <rect x="10" y="10" width="340" height="680" rx="16" fill="#e8d4b8"/>

    <!-- Status bar -->
    <rect x="10" y="10" width="340" height="28" rx="16" fill="#dcc8a8"/>
    <text x="30" y="28" class="text-sm">9:41</text>
    <text x="310" y="28" text-anchor="end" class="text-sm">100%</text>

    <!-- Mobile header - 44px height -->
    <rect x="20" y="48" width="320" height="54" rx="6" fill="#dcc8a8" stroke="#b8a080"/>
    <rect x="28" y="53" width="44" height="44" rx="4" fill="#e8d4b8" stroke="#b8a080"/>
    <text x="50" y="81" text-anchor="middle" class="text-sm">☰</text>
    <rect x="80" y="53" width="90" height="44" rx="4" fill="#8b5cf6"/>
    <text x="125" y="81" text-anchor="middle" fill="#fff" font-size="10">Script</text>

    <!-- 44px indicator -->
    <rect x="28" y="53" width="44" height="44" fill="none" stroke="#22c55e" stroke-width="2" stroke-dasharray="4,2"/>
    <text x="50" y="110" text-anchor="middle" class="spec-label">44px ✓</text>

    <!-- Article content mobile -->
    <rect x="20" y="118" width="320" height="560" rx="8" fill="#f5f0e6" stroke="#b8a080"/>

    <!-- Mobile article header -->
    <text x="35" y="145" font-size="16" font-weight="700" fill="#1a1a2e">Mobile-First Design</text>
    <text x="35" y="163" class="text-muted">Dec 30, 2025 • 8 min</text>

    <!-- Mobile body text - 16px minimum -->
    <text x="35" y="190" class="text-md">Mobile-first design ensures</text>
    <text x="35" y="210" class="text-md">your website looks great on</text>
    <text x="35" y="230" class="text-md">all devices. Starting small</text>
    <text x="35" y="250" class="text-md">forces content priority.</text>

    <!-- Annotation for mobile text -->
    <rect x="35" y="265" width="160" height="25" rx="4" fill="#e8d4b8" stroke="#22c55e"/>
    <text x="115" y="282" text-anchor="middle" class="spec-label">16px min ✓ (FR-006)</text>

    <!-- Mobile code block with scroll -->
    <rect x="35" y="305" width="280" height="75" rx="4" fill="#1e293b"/>
    <text x="45" y="325" font-family="monospace" font-size="10" fill="#e8d4b8">@media (max-width:</text>
    <text x="45" y="340" font-family="monospace" font-size="10" fill="#e8d4b8">  767px) { ... }</text>
    <text x="45" y="355" font-family="monospace" font-size="10" fill="#e8d4b8">/* scrolls internally */</text>
    <text x="45" y="370" font-family="monospace" font-size="10" fill="#e8d4b8">}</text>

    <!-- Scroll indicator -->
    <rect x="298" y="362" width="12" height="12" rx="2" fill="#475569"/>
    <text x="304" y="372" text-anchor="middle" fill="#fff" font-size="7">→</text>

    <!-- Mobile image -->
    <rect x="35" y="395" width="280" height="100" rx="4" fill="#dcc8a8" stroke="#b8a080"/>
    <text x="175" y="450" text-anchor="middle" class="text-muted">Responsive image</text>

    <!-- Image fits viewport annotation -->
    <rect x="35" y="505" width="180" height="25" rx="4" fill="#e8d4b8" stroke="#22c55e"/>
    <text x="125" y="522" text-anchor="middle" class="spec-label">Fits viewport ✓ (FR-012)</text>

    <!-- Mobile heading example -->
    <text x="35" y="555" font-size="14" font-weight="700" fill="#1a1a2e">H1 at 75% scale</text>
    <rect x="35" y="565" width="140" height="22" rx="4" fill="#e8d4b8" stroke="#22c55e"/>
    <text x="105" y="580" text-anchor="middle" class="spec-label">FR-009 ✓</text>

    <!-- Line length annotation -->
    <rect x="35" y="598" width="280" height="70" rx="4" fill="#e8d4b8" stroke="#8b5cf6"/>
    <text x="50" y="620" class="annotation">FR-010: No h-scroll</text>
    <text x="50" y="640" class="annotation">Max line: ~65 chars</text>
    <text x="50" y="658" class="spec-label">Comfortable reading ✓</text>
  </g>

  <!-- Footer -->
  <text x="700" y="785" text-anchor="middle" class="text-muted">Content Typography • Feature 004 • ScriptHammer</text>
</svg>
