<svg xmlns="http://www.w3.org/2000/svg" viewBox="0 0 1400 800" width="1400" height="800">
  <!-- ============================================================
       GENERATED BY: /wireframe skill
       SOURCE: features/foundation/004-mobile-first-design/spec.md
       DATE: 2025-12-31
       THEME: Light (UX/Frontend)
       DO NOT MANUALLY EDIT - Regenerate with /wireframe command
       ============================================================ -->
  <defs>
    <linearGradient id="bgGrad" x1="0%" y1="0%" x2="100%" y2="100%">
      <stop offset="0%" style="stop-color:#ffffff"/>
      <stop offset="100%" style="stop-color:#f0f4f8"/>
    </linearGradient>
    <linearGradient id="accentGrad" x1="0%" y1="0%" x2="100%" y2="0%">
      <stop offset="0%" style="stop-color:#8b5cf6"/>
      <stop offset="100%" style="stop-color:#d946ef"/>
    </linearGradient>
    <style>
      .heading-lg { fill: #1f2937; font-family: system-ui, sans-serif; font-size: 20px; font-weight: bold; }
      .heading { fill: #1f2937; font-family: system-ui, sans-serif; font-size: 14px; font-weight: bold; }
      .heading-sm { fill: #1f2937; font-family: system-ui, sans-serif; font-size: 12px; font-weight: bold; }
      .text-md { fill: #374151; font-family: system-ui, sans-serif; font-size: 12px; }
      .text-sm { fill: #6b7280; font-family: system-ui, sans-serif; font-size: 10px; }
      .text-muted { fill: #9ca3af; font-family: system-ui, sans-serif; font-size: 10px; }
      .annotation { fill: #8b5cf6; font-family: monospace; font-size: 10px; }
      .label-desktop { fill: #8b5cf6; font-family: monospace; font-size: 11px; font-weight: bold; }
      .label-mobile { fill: #d946ef; font-family: monospace; font-size: 11px; font-weight: bold; }
      .code { fill: #6366f1; font-family: monospace; font-size: 10px; }
    </style>
  </defs>

  <!-- Background -->
  <rect width="1400" height="800" fill="url(#bgGrad)"/>

  <!-- Dot grid pattern -->
  <g opacity="0.4">
    <pattern id="dots" width="30" height="30" patternUnits="userSpaceOnUse">
      <circle cx="15" cy="15" r="1" fill="#a5b4fc"/>
    </pattern>
    <rect width="1400" height="800" fill="url(#dots)"/>
  </g>

  <!-- Accent line top -->
  <rect x="0" y="0" width="1400" height="3" fill="url(#accentGrad)"/>

  <!-- Title -->
  <text x="700" y="28" text-anchor="middle" font-family="system-ui, sans-serif" font-size="14" font-weight="600" fill="#9ca3af" letter-spacing="1">RESPONSIVE NAVIGATION - TOUCH TARGETS &amp; SHRINKING CONTROLS</text>

  <!-- Desktop Navigation (Full Width) -->
  <g id="desktop-nav" transform="translate(40, 60)">
    <text x="0" y="0" class="label-desktop">DESKTOP NAVIGATION (1024px+)</text>

    <g transform="translate(0, 15)">
      <rect x="0" y="0" width="1000" height="64" rx="8" fill="#ffffff" stroke="#e5e7eb" stroke-width="2"/>

      <!-- Logo -->
      <rect x="16" y="12" width="40" height="40" rx="8" fill="#8b5cf6"/>
      <text x="36" y="38" text-anchor="middle" fill="#ffffff" font-weight="bold" font-size="14">SH</text>

      <!-- Nav links -->
      <text x="80" y="38" class="heading-sm">Home</text>
      <text x="140" y="38" class="heading-sm">Blog</text>
      <text x="190" y="38" class="heading-sm">About</text>
      <text x="250" y="38" class="heading-sm">Contact</text>

      <!-- Search -->
      <rect x="600" y="14" width="200" height="36" rx="6" fill="#f3f4f6" stroke="#d1d5db"/>
      <text x="620" y="38" class="text-sm">Search...</text>

      <!-- Action buttons (full size) -->
      <rect x="820" y="14" width="80" height="36" rx="6" fill="#ffffff" stroke="#d1d5db"/>
      <text x="860" y="38" text-anchor="middle" class="text-md">Settings</text>

      <rect x="910" y="14" width="80" height="36" rx="6" fill="#8b5cf6"/>
      <text x="950" y="38" text-anchor="middle" fill="#ffffff" class="text-md">Login</text>
    </g>

    <text x="500" y="105" text-anchor="middle" class="text-muted">Full navigation with all controls visible - no shrinking needed</text>
  </g>

  <!-- Tablet Navigation -->
  <g id="tablet-nav" transform="translate(40, 190)">
    <text x="0" y="0" class="label-tablet" fill="#f59e0b">TABLET NAVIGATION (768px)</text>

    <g transform="translate(0, 15)">
      <rect x="0" y="0" width="768" height="60" rx="8" fill="#ffffff" stroke="#f59e0b" stroke-width="2"/>

      <!-- Logo -->
      <rect x="12" y="10" width="40" height="40" rx="8" fill="#8b5cf6"/>
      <text x="32" y="36" text-anchor="middle" fill="#ffffff" font-weight="bold" font-size="14">SH</text>

      <!-- Collapsed nav links -->
      <text x="70" y="35" class="heading-sm">Home</text>
      <text x="120" y="35" class="heading-sm">Blog</text>
      <text x="165" y="35" class="text-sm" fill="#9ca3af">More ▾</text>

      <!-- Compact search -->
      <rect x="460" y="12" width="150" height="36" rx="6" fill="#f3f4f6" stroke="#d1d5db"/>
      <text x="480" y="35" class="text-sm">Search...</text>

      <!-- Smaller action buttons -->
      <rect x="625" y="12" width="60" height="36" rx="6" fill="#ffffff" stroke="#d1d5db"/>
      <text x="655" y="35" text-anchor="middle" font-size="16">⚙️</text>

      <rect x="695" y="12" width="60" height="36" rx="6" fill="#8b5cf6"/>
      <text x="725" y="35" text-anchor="middle" fill="#ffffff" class="text-md">Login</text>
    </g>

    <text x="384" y="100" text-anchor="middle" class="text-muted">Some nav items collapsed into dropdown, buttons slightly smaller</text>
  </g>

  <!-- Mobile Navigation 390px -->
  <g id="mobile-nav-390" transform="translate(40, 320)">
    <text x="0" y="0" class="label-mobile">MOBILE NAVIGATION (390px - iPhone 12/13/14)</text>

    <g transform="translate(0, 15)">
      <rect x="0" y="0" width="390" height="56" rx="8" fill="#ffffff" stroke="#d946ef" stroke-width="2"/>

      <!-- Hamburger menu -->
      <rect x="8" y="8" width="44" height="40" rx="6" fill="#f3f4f6"/>
      <line x1="18" y1="22" x2="42" y2="22" stroke="#374151" stroke-width="2" stroke-linecap="round"/>
      <line x1="18" y1="28" x2="42" y2="28" stroke="#374151" stroke-width="2" stroke-linecap="round"/>
      <line x1="18" y1="34" x2="42" y2="34" stroke="#374151" stroke-width="2" stroke-linecap="round"/>

      <!-- Logo -->
      <rect x="60" y="8" width="40" height="40" rx="8" fill="#8b5cf6"/>
      <text x="80" y="34" text-anchor="middle" fill="#ffffff" font-weight="bold" font-size="14">SH</text>

      <!-- Site name (truncated if needed) -->
      <text x="110" y="34" class="heading-sm">ScriptHammer</text>

      <!-- Action buttons (44x44 touch targets) -->
      <rect x="280" y="6" width="44" height="44" rx="6" fill="#f3f4f6"/>
      <text x="302" y="34" text-anchor="middle" font-size="18">🔍</text>

      <rect x="334" y="6" width="48" height="44" rx="6" fill="#8b5cf6"/>
      <text x="358" y="34" text-anchor="middle" fill="#ffffff" class="text-md">Login</text>
    </g>

    <!-- Touch target annotations -->
    <g transform="translate(0, 80)">
      <rect x="8" y="0" width="44" height="20" rx="4" fill="#fce7f3" stroke="#d946ef" stroke-dasharray="3,2"/>
      <text x="30" y="14" text-anchor="middle" class="code" fill="#d946ef">44px</text>

      <rect x="280" y="0" width="44" height="20" rx="4" fill="#fce7f3" stroke="#d946ef" stroke-dasharray="3,2"/>
      <text x="302" y="14" text-anchor="middle" class="code" fill="#d946ef">44px</text>

      <rect x="334" y="0" width="48" height="20" rx="4" fill="#fce7f3" stroke="#d946ef" stroke-dasharray="3,2"/>
      <text x="358" y="14" text-anchor="middle" class="code" fill="#d946ef">48px</text>
    </g>

    <text x="195" y="120" text-anchor="middle" class="text-sm">All touch targets meet 44x44px minimum (FR-004, NFR-005)</text>
  </g>

  <!-- Mobile Navigation 320px (Minimum) -->
  <g id="mobile-nav-320" transform="translate(40, 470)">
    <text x="0" y="0" class="label-mobile">MOBILE NAVIGATION (320px - Minimum Width)</text>

    <g transform="translate(0, 15)">
      <rect x="0" y="0" width="320" height="52" rx="8" fill="#ffffff" stroke="#ef4444" stroke-width="2"/>

      <!-- Hamburger menu (shrunk but still 44px touch target) -->
      <rect x="4" y="4" width="44" height="44" rx="6" fill="#f3f4f6"/>
      <line x1="14" y1="18" x2="38" y2="18" stroke="#374151" stroke-width="2" stroke-linecap="round"/>
      <line x1="14" y1="26" x2="38" y2="26" stroke="#374151" stroke-width="2" stroke-linecap="round"/>
      <line x1="14" y1="34" x2="38" y2="34" stroke="#374151" stroke-width="2" stroke-linecap="round"/>

      <!-- Logo (shrunk) -->
      <rect x="56" y="6" width="36" height="40" rx="6" fill="#8b5cf6"/>
      <text x="74" y="32" text-anchor="middle" fill="#ffffff" font-weight="bold" font-size="12">SH</text>

      <!-- Title hidden or very short -->
      <text x="100" y="30" class="text-sm">ScriptH...</text>

      <!-- Compact action buttons (still 44px height) -->
      <rect x="220" y="4" width="44" height="44" rx="6" fill="#f3f4f6"/>
      <text x="242" y="32" text-anchor="middle" font-size="16">🔍</text>

      <rect x="272" y="4" width="44" height="44" rx="6" fill="#8b5cf6"/>
      <text x="294" y="32" text-anchor="middle" fill="#ffffff" font-size="16">👤</text>
    </g>

    <!-- Spacing annotations -->
    <g transform="translate(0, 75)">
      <!-- Show 8px spacing -->
      <line x1="48" y1="0" x2="56" y2="0" stroke="#22c55e" stroke-width="2"/>
      <rect x="48" y="-8" width="8" height="16" rx="2" fill="none" stroke="#22c55e" stroke-dasharray="2,2"/>
      <text x="52" y="20" text-anchor="middle" class="code" fill="#22c55e">8px</text>

      <line x1="264" y1="0" x2="272" y2="0" stroke="#22c55e" stroke-width="2"/>
      <rect x="264" y="-8" width="8" height="16" rx="2" fill="none" stroke="#22c55e" stroke-dasharray="2,2"/>
      <text x="268" y="20" text-anchor="middle" class="code" fill="#22c55e">8px</text>
    </g>

    <text x="160" y="115" text-anchor="middle" class="text-sm" fill="#ef4444">Buttons shrink but maintain 44px touch targets, 8px spacing (FR-002, FR-005)</text>
  </g>

  <!-- Touch Target Specification -->
  <g id="touch-spec" transform="translate(500, 320)">
    <text x="0" y="0" class="heading">Touch Target Requirements</text>

    <g transform="translate(0, 25)">
      <!-- Size requirement -->
      <rect x="0" y="0" width="250" height="120" rx="8" fill="#ffffff" stroke="#22c55e" stroke-width="2"/>

      <!-- Visual target vs touch area -->
      <rect x="100" y="50" width="30" height="30" rx="4" fill="#8b5cf6"/>
      <text x="115" y="70" text-anchor="middle" fill="#ffffff" font-size="10">Btn</text>

      <!-- Touch area outline -->
      <rect x="93" y="43" width="44" height="44" rx="6" fill="none" stroke="#22c55e" stroke-width="2" stroke-dasharray="4,2"/>

      <text x="125" y="25" text-anchor="middle" class="heading-sm">44×44px Minimum</text>
      <text x="125" y="105" text-anchor="middle" class="text-sm">Visual can be smaller</text>
      <text x="125" y="118" text-anchor="middle" class="text-sm">Touch area must be 44px</text>
    </g>

    <!-- Spacing requirement -->
    <g transform="translate(270, 25)">
      <rect x="0" y="0" width="250" height="120" rx="8" fill="#ffffff" stroke="#22c55e" stroke-width="2"/>

      <text x="125" y="25" text-anchor="middle" class="heading-sm">8px Minimum Spacing</text>

      <!-- Two buttons with spacing -->
      <rect x="55" y="50" width="44" height="44" rx="6" fill="#8b5cf6"/>
      <rect x="107" y="50" width="44" height="44" rx="6" fill="#8b5cf6"/>

      <!-- Spacing indicator -->
      <line x1="99" y1="72" x2="107" y2="72" stroke="#22c55e" stroke-width="2"/>
      <text x="103" y="105" text-anchor="middle" class="code" fill="#22c55e">8px</text>
      <text x="125" y="118" text-anchor="middle" class="text-sm">Prevents accidental taps</text>
    </g>
  </g>

  <!-- Mobile Menu Open State -->
  <g id="mobile-menu-open" transform="translate(960, 320)">
    <text x="0" y="0" class="heading">Mobile Menu (Expanded)</text>

    <g transform="translate(0, 25)">
      <!-- Phone frame -->
      <rect x="0" y="0" width="200" height="340" rx="16" fill="#ffffff" stroke="#d946ef" stroke-width="2"/>

      <!-- Header -->
      <rect x="5" y="5" width="190" height="44" rx="12" fill="#f9fafb"/>
      <rect x="12" y="12" width="30" height="30" rx="4" fill="#8b5cf6"/>
      <text x="27" y="32" text-anchor="middle" fill="#ffffff" font-size="10">X</text>
      <text x="100" y="32" text-anchor="middle" class="heading-sm">Menu</text>

      <!-- Menu items with 44px height -->
      <g transform="translate(10, 60)">
        <rect x="0" y="0" width="180" height="44" rx="6" fill="#ede9fe"/>
        <text x="20" y="28" class="heading-sm" fill="#8b5cf6">Home</text>

        <rect x="0" y="52" width="180" height="44" rx="6" fill="#f3f4f6"/>
        <text x="20" y="80" class="heading-sm">Blog</text>

        <rect x="0" y="104" width="180" height="44" rx="6" fill="#f3f4f6"/>
        <text x="20" y="132" class="heading-sm">About</text>

        <rect x="0" y="156" width="180" height="44" rx="6" fill="#f3f4f6"/>
        <text x="20" y="184" class="heading-sm">Contact</text>

        <rect x="0" y="208" width="180" height="44" rx="6" fill="#f3f4f6"/>
        <text x="20" y="236" class="heading-sm">Settings</text>
      </g>
    </g>

    <text x="100" y="390" text-anchor="middle" class="text-sm">Each menu item: 44px height</text>
    <text x="100" y="405" text-anchor="middle" class="text-sm">8px vertical spacing (FR-020)</text>
  </g>

  <!-- No Hover Dependency -->
  <g id="no-hover" transform="translate(1180, 320)">
    <text x="0" y="0" class="heading-sm">No Hover Required</text>
    <text x="0" y="16" class="text-muted">(FR-021)</text>

    <g transform="translate(0, 35)">
      <rect x="0" y="0" width="180" height="80" rx="8" fill="#ffffff" stroke="#e5e7eb"/>

      <text x="90" y="25" text-anchor="middle" class="text-sm" fill="#ef4444">❌ Hover-only</text>
      <rect x="20" y="35" width="140" height="30" rx="4" fill="#f3f4f6" stroke="#d1d5db"/>
      <text x="90" y="55" text-anchor="middle" class="text-muted">Hidden until hover</text>
    </g>

    <g transform="translate(0, 130)">
      <rect x="0" y="0" width="180" height="80" rx="8" fill="#ffffff" stroke="#22c55e"/>

      <text x="90" y="25" text-anchor="middle" class="text-sm" fill="#22c55e">✓ Touch-accessible</text>
      <rect x="20" y="35" width="140" height="30" rx="4" fill="#8b5cf6"/>
      <text x="90" y="55" text-anchor="middle" fill="#ffffff" class="text-sm">Always visible</text>
    </g>
  </g>

  <!-- Requirements Summary -->
  <g id="requirements" transform="translate(40, 620)">
    <rect x="0" y="0" width="1320" height="130" rx="8" fill="#ffffff" stroke="#e5e7eb"/>

    <text x="20" y="25" class="heading">Navigation Requirements Summary</text>

    <g transform="translate(20, 45)">
      <text x="0" y="0" class="annotation">FR-001</text>
      <text x="55" y="0" class="text-sm">Header fits viewport 320-428px without horizontal scroll</text>

      <text x="0" y="22" class="annotation">FR-002</text>
      <text x="55" y="22" class="text-sm">Controls shrink proportionally while maintaining all controls visible</text>

      <text x="0" y="44" class="annotation">FR-004</text>
      <text x="55" y="44" class="text-sm">All touch targets minimum 44×44px (Apple HIG)</text>

      <text x="0" y="66" class="annotation">FR-005</text>
      <text x="55" y="66" class="text-sm">Minimum 8px spacing between tappable controls</text>
    </g>

    <g transform="translate(700, 45)">
      <text x="0" y="0" class="annotation">FR-020</text>
      <text x="55" y="0" class="text-sm">All interactive elements accessible via touch</text>

      <text x="0" y="22" class="annotation">FR-021</text>
      <text x="55" y="22" class="text-sm">No reliance on hover states for essential interactions</text>

      <text x="0" y="44" class="annotation">SC-002</text>
      <text x="55" y="44" class="text-sm">100% of elements meet 44px touch target</text>

      <text x="0" y="66" class="annotation">SC-003</text>
      <text x="55" y="66" class="text-sm">100% of touch targets have 8px minimum spacing</text>
    </g>
  </g>

  <!-- Feature reference -->
  <text x="1360" y="780" text-anchor="end" class="text-muted">004-mobile-first-design | 02 of 04</text>
</svg>
