<svg xmlns="http://www.w3.org/2000/svg" viewBox="0 0 1400 800" width="1400" height="800">
  <!-- ============================================================
       GENERATED BY: /wireframe skill
       SOURCE: features/foundation/004-mobile-first-design/spec.md
       DATE: 2025-12-31
       DO NOT MANUALLY EDIT - Regenerate with /wireframe command
       ============================================================ -->
  <defs>
    <linearGradient id="bgGrad" x1="0%" y1="0%" x2="100%" y2="100%">
      <stop offset="0%" style="stop-color:#0f172a"/>
      <stop offset="100%" style="stop-color:#1e293b"/>
    </linearGradient>
    <linearGradient id="accentGrad" x1="0%" y1="0%" x2="100%" y2="0%">
      <stop offset="0%" style="stop-color:#8b5cf6"/>
      <stop offset="100%" style="stop-color:#d946ef"/>
    </linearGradient>
    <style>
      .heading-lg { fill: #ffffff; font-family: system-ui, sans-serif; font-size: 20px; font-weight: bold; }
      .heading { fill: #ffffff; font-family: system-ui, sans-serif; font-size: 14px; font-weight: bold; }
      .text-md { fill: #cbd5e1; font-family: system-ui, sans-serif; font-size: 12px; }
      .text-sm { fill: #94a3b8; font-family: system-ui, sans-serif; font-size: 10px; }
      .text-muted { fill: #64748b; font-family: system-ui, sans-serif; font-size: 10px; }
      .annotation { fill: #8b5cf6; font-family: monospace; font-size: 10px; }
      .label-desktop { fill: #8b5cf6; font-family: monospace; font-size: 11px; font-weight: bold; }
      .label-mobile { fill: #d946ef; font-family: monospace; font-size: 11px; font-weight: bold; }
    </style>
  </defs>

  <!-- Background -->
  <rect width="1400" height="800" fill="url(#bgGrad)"/>

  <!-- Dot grid pattern -->
  <g opacity="0.05">
    <pattern id="dots" width="30" height="30" patternUnits="userSpaceOnUse">
      <circle cx="15" cy="15" r="1" fill="#fff"/>
    </pattern>
    <rect width="1400" height="800" fill="url(#dots)"/>
  </g>

  <!-- Accent line top -->
  <rect x="0" y="0" width="1400" height="3" fill="url(#accentGrad)"/>

  <!-- Title -->
  <text x="700" y="28" text-anchor="middle" font-family="system-ui, sans-serif" font-size="14" font-weight="600" fill="#64748b" letter-spacing="1">RESPONSIVE NAVIGATION - VIEWPORT-SAFE CONTROLS (FR-001 to FR-005)</text>

  <!-- DESKTOP NAVIGATION -->
  <text x="40" y="55" class="label-desktop">DESKTOP NAVIGATION (1024px+)</text>
  <g id="desktop-nav">
    <rect x="40" y="65" width="900" height="60" rx="8" fill="#1e293b" stroke="#475569" stroke-width="1"/>

    <!-- Logo -->
    <circle cx="85" cy="95" r="20" fill="#8b5cf6"/>
    <text x="85" y="100" text-anchor="middle" fill="#fff" font-size="12" font-weight="bold">SH</text>
    <text x="115" y="100" class="heading">ScriptHammer</text>

    <!-- Nav links -->
    <text x="280" y="100" class="text-md">Home</text>
    <text x="350" y="100" class="text-md">Blog</text>
    <text x="410" y="100" class="text-md">About</text>
    <text x="480" y="100" class="text-md">Contact</text>

    <!-- Control buttons (full size) -->
    <rect x="600" y="78" width="80" height="36" rx="6" fill="#334155"/>
    <text x="640" y="101" text-anchor="middle" class="text-sm" fill="#fff">☀️ Theme</text>

    <rect x="690" y="78" width="80" height="36" rx="6" fill="#334155"/>
    <text x="730" y="101" text-anchor="middle" class="text-sm" fill="#fff">Aa Font</text>

    <rect x="780" y="78" width="80" height="36" rx="6" fill="#334155"/>
    <text x="820" y="101" text-anchor="middle" class="text-sm" fill="#fff">🎨 Color</text>

    <rect x="870" y="78" width="60" height="36" rx="6" fill="#8b5cf6"/>
    <text x="900" y="101" text-anchor="middle" fill="#fff" font-size="12">Sign In</text>
  </g>

  <!-- MOBILE AT 428px -->
  <text x="40" y="160" class="label-mobile">MOBILE 428px (iPhone 14 Pro Max)</text>
  <g transform="translate(40, 170)">
    <rect x="0" y="0" width="428" height="60" rx="8" fill="#1e293b" stroke="#d946ef" stroke-width="2"/>

    <!-- Hamburger -->
    <rect x="15" y="18" width="30" height="24" rx="4" fill="#334155"/>
    <rect x="20" y="24" width="20" height="2" fill="#fff"/>
    <rect x="20" y="29" width="20" height="2" fill="#fff"/>
    <rect x="20" y="34" width="20" height="2" fill="#fff"/>

    <!-- Logo -->
    <circle cx="75" cy="30" r="16" fill="#8b5cf6"/>
    <text x="75" y="35" text-anchor="middle" fill="#fff" font-size="10" font-weight="bold">SH</text>

    <!-- Controls (normal size) -->
    <rect x="200" y="12" width="44" height="36" rx="6" fill="#334155"/>
    <text x="222" y="35" text-anchor="middle" fill="#fff" font-size="14">☀️</text>

    <rect x="252" y="12" width="44" height="36" rx="6" fill="#334155"/>
    <text x="274" y="35" text-anchor="middle" fill="#fff" font-size="11">Aa</text>

    <rect x="304" y="12" width="44" height="36" rx="6" fill="#334155"/>
    <text x="326" y="35" text-anchor="middle" fill="#fff" font-size="14">🎨</text>

    <rect x="356" y="12" width="60" height="36" rx="6" fill="#8b5cf6"/>
    <text x="386" y="35" text-anchor="middle" fill="#fff" font-size="11">Sign In</text>

    <text x="214" y="75" text-anchor="middle" class="text-sm" fill="#22c55e">✓ All controls visible, no scroll</text>
  </g>

  <!-- MOBILE AT 375px -->
  <text x="40" y="280" class="label-mobile">MOBILE 375px (iPhone 13 Mini)</text>
  <g transform="translate(40, 290)">
    <rect x="0" y="0" width="375" height="60" rx="8" fill="#1e293b" stroke="#d946ef" stroke-width="2"/>

    <!-- Hamburger -->
    <rect x="12" y="18" width="28" height="24" rx="4" fill="#334155"/>
    <rect x="16" y="24" width="20" height="2" fill="#fff"/>
    <rect x="16" y="29" width="20" height="2" fill="#fff"/>
    <rect x="16" y="34" width="20" height="2" fill="#fff"/>

    <!-- Logo (smaller) -->
    <circle cx="62" cy="30" r="14" fill="#8b5cf6"/>
    <text x="62" y="34" text-anchor="middle" fill="#fff" font-size="9" font-weight="bold">SH</text>

    <!-- Controls (slightly compressed) -->
    <rect x="160" y="12" width="40" height="36" rx="6" fill="#334155"/>
    <text x="180" y="35" text-anchor="middle" fill="#fff" font-size="13">☀️</text>

    <rect x="206" y="12" width="40" height="36" rx="6" fill="#334155"/>
    <text x="226" y="35" text-anchor="middle" fill="#fff" font-size="10">Aa</text>

    <rect x="252" y="12" width="40" height="36" rx="6" fill="#334155"/>
    <text x="272" y="35" text-anchor="middle" fill="#fff" font-size="13">🎨</text>

    <rect x="298" y="12" width="65" height="36" rx="6" fill="#8b5cf6"/>
    <text x="330" y="35" text-anchor="middle" fill="#fff" font-size="10">Sign In</text>

    <text x="187" y="75" text-anchor="middle" class="text-sm" fill="#22c55e">✓ Controls shrink proportionally</text>
  </g>

  <!-- MOBILE AT 320px - MOST CONSTRAINED -->
  <text x="40" y="400" class="label-mobile">MOBILE 320px (iPhone SE) - MINIMUM SUPPORTED</text>
  <g transform="translate(40, 410)">
    <rect x="0" y="0" width="320" height="60" rx="8" fill="#1e293b" stroke="#ef4444" stroke-width="2"/>

    <!-- Hamburger (compact) -->
    <rect x="8" y="18" width="26" height="24" rx="4" fill="#334155"/>
    <rect x="12" y="24" width="18" height="2" fill="#fff"/>
    <rect x="12" y="29" width="18" height="2" fill="#fff"/>
    <rect x="12" y="34" width="18" height="2" fill="#fff"/>

    <!-- Logo (minimum) -->
    <circle cx="52" cy="30" r="12" fill="#8b5cf6"/>
    <text x="52" y="34" text-anchor="middle" fill="#fff" font-size="8" font-weight="bold">SH</text>

    <!-- Controls (maximum compression, still 44px touch) -->
    <rect x="130" y="8" width="44" height="44" rx="6" fill="#334155"/>
    <text x="152" y="35" text-anchor="middle" fill="#fff" font-size="12">☀️</text>

    <rect x="178" y="8" width="44" height="44" rx="6" fill="#334155"/>
    <text x="200" y="35" text-anchor="middle" fill="#fff" font-size="9">Aa</text>

    <rect x="226" y="8" width="44" height="44" rx="6" fill="#334155"/>
    <text x="248" y="35" text-anchor="middle" fill="#fff" font-size="12">🎨</text>

    <rect x="274" y="8" width="44" height="44" rx="6" fill="#8b5cf6"/>
    <text x="296" y="35" text-anchor="middle" fill="#fff" font-size="10">→</text>

    <text x="160" y="75" text-anchor="middle" class="text-sm" fill="#f59e0b">⚠️ Maximum compression, 44px touch maintained</text>
  </g>

  <!-- TOUCH TARGET SPECIFICATION -->
  <rect x="500" y="160" width="450" height="320" rx="8" fill="#1e293b" stroke="#475569" stroke-width="1"/>
  <text x="520" y="190" class="heading-lg">Touch Target Requirements (FR-004, FR-005)</text>

  <!-- 44x44 minimum -->
  <g transform="translate(520, 210)">
    <rect x="0" y="0" width="44" height="44" rx="6" fill="#8b5cf6" opacity="0.3" stroke="#8b5cf6" stroke-width="2" stroke-dasharray="4,2"/>
    <rect x="6" y="6" width="32" height="32" rx="4" fill="#334155"/>
    <text x="22" y="27" text-anchor="middle" fill="#fff" font-size="14">☀️</text>

    <text x="60" y="15" class="heading">Minimum Touch Target</text>
    <text x="60" y="32" class="text-md">44×44px (Apple HIG Standard)</text>
    <text x="60" y="48" class="text-muted">Visual button can be smaller</text>
  </g>

  <!-- 8px spacing -->
  <g transform="translate(520, 280)">
    <rect x="0" y="0" width="44" height="44" rx="6" fill="#334155"/>
    <text x="22" y="27" text-anchor="middle" fill="#fff" font-size="14">A</text>

    <!-- Spacing indicator -->
    <rect x="44" y="15" width="8" height="14" fill="#22c55e" opacity="0.5"/>
    <line x1="44" y1="22" x2="52" y2="22" stroke="#22c55e" stroke-width="1"/>
    <text x="48" y="38" text-anchor="middle" fill="#22c55e" font-size="8">8px</text>

    <rect x="52" y="0" width="44" height="44" rx="6" fill="#334155"/>
    <text x="74" y="27" text-anchor="middle" fill="#fff" font-size="14">B</text>

    <text x="110" y="15" class="heading">Minimum Spacing</text>
    <text x="110" y="32" class="text-md">8px between tappable controls</text>
    <text x="110" y="48" class="text-muted">Prevents accidental taps</text>
  </g>

  <!-- NO HOVER dependency -->
  <g transform="translate(520, 360)">
    <rect x="0" y="0" width="100" height="44" rx="6" fill="#334155" stroke="#ef4444" stroke-width="2" stroke-dasharray="4,2"/>
    <text x="50" y="27" text-anchor="middle" fill="#ef4444" font-size="11">:hover only</text>

    <text x="116" y="10" fill="#ef4444" font-size="20">✕</text>

    <text x="140" y="15" class="heading" fill="#ef4444">No Hover Dependencies</text>
    <text x="140" y="32" class="text-md">FR-021: Essential interactions must</text>
    <text x="140" y="48" class="text-md">work without hover states</text>
  </g>

  <!-- Correct pattern -->
  <g transform="translate(520, 420)">
    <rect x="0" y="0" width="100" height="44" rx="6" fill="#334155"/>
    <text x="50" y="22" text-anchor="middle" fill="#fff" font-size="10">Tap to open</text>
    <text x="50" y="36" text-anchor="middle" fill="#8b5cf6" font-size="10">menu ▼</text>

    <text x="116" y="10" fill="#22c55e" font-size="20">✓</text>

    <text x="140" y="15" class="heading" fill="#22c55e">Touch-First Pattern</text>
    <text x="140" y="32" class="text-md">Tap actions, visible affordances</text>
    <text x="140" y="48" class="text-md">Hover enhances, doesn't enable</text>
  </g>

  <!-- HAMBURGER MENU EXPANDED -->
  <text x="980" y="55" class="label-mobile">MOBILE MENU EXPANDED</text>
  <g id="mobile-menu" transform="translate(980, 65)">
    <!-- Phone frame -->
    <rect x="0" y="0" width="360" height="700" rx="24" fill="#1e293b" stroke="#475569" stroke-width="2"/>
    <rect x="10" y="10" width="340" height="680" rx="16" fill="#0f172a"/>

    <!-- Status bar -->
    <rect x="10" y="10" width="340" height="28" rx="16" fill="#1e293b"/>
    <text x="30" y="28" class="text-sm">9:41</text>
    <text x="300" y="28" class="text-sm">📶 🔋</text>

    <!-- Header with X close -->
    <rect x="10" y="38" width="340" height="56" fill="#1e293b"/>
    <rect x="24" y="52" width="28" height="28" rx="4" fill="#334155"/>
    <text x="38" y="71" text-anchor="middle" fill="#fff" font-size="16">✕</text>
    <circle cx="80" cy="66" r="14" fill="#8b5cf6"/>
    <text x="80" y="71" text-anchor="middle" fill="#fff" font-size="9" font-weight="bold">SH</text>

    <!-- Menu items (44px height each with 8px gap) -->
    <rect x="20" y="110" width="320" height="44" rx="6" fill="#334155"/>
    <text x="40" y="138" fill="#fff" font-size="14">🏠 Home</text>

    <rect x="20" y="162" width="320" height="44" rx="6" fill="#334155"/>
    <text x="40" y="190" fill="#fff" font-size="14">📝 Blog</text>

    <rect x="20" y="214" width="320" height="44" rx="6" fill="#334155"/>
    <text x="40" y="242" fill="#fff" font-size="14">ℹ️ About</text>

    <rect x="20" y="266" width="320" height="44" rx="6" fill="#334155"/>
    <text x="40" y="294" fill="#fff" font-size="14">✉️ Contact</text>

    <!-- Divider -->
    <line x1="40" y1="330" x2="320" y2="330" stroke="#475569" stroke-width="1"/>

    <!-- Settings section -->
    <text x="40" y="360" class="text-sm">SETTINGS</text>

    <rect x="20" y="375" width="320" height="44" rx="6" fill="#334155"/>
    <text x="40" y="403" fill="#fff" font-size="14">☀️ Theme</text>
    <text x="300" y="403" fill="#64748b" font-size="12">Dark ▼</text>

    <rect x="20" y="427" width="320" height="44" rx="6" fill="#334155"/>
    <text x="40" y="455" fill="#fff" font-size="14">Aa Font Size</text>
    <text x="300" y="455" fill="#64748b" font-size="12">Medium</text>

    <rect x="20" y="479" width="320" height="44" rx="6" fill="#334155"/>
    <text x="40" y="507" fill="#fff" font-size="14">🎨 Color Mode</text>
    <text x="300" y="507" fill="#64748b" font-size="12">Normal</text>

    <!-- Sign in button -->
    <rect x="20" y="560" width="320" height="50" rx="8" fill="#8b5cf6"/>
    <text x="180" y="591" text-anchor="middle" fill="#fff" font-weight="bold" font-size="16">Sign In</text>

    <!-- Annotation -->
    <rect x="20" y="630" width="320" height="50" rx="6" fill="#1e3a5f" stroke="#3b82f6" stroke-width="1"/>
    <text x="40" y="655" fill="#60a5fa" font-size="10">✓ All items 44px+ height</text>
    <text x="40" y="672" fill="#60a5fa" font-size="10">✓ 8px spacing between items</text>
  </g>
</svg>
