<svg xmlns="http://www.w3.org/2000/svg" viewBox="0 0 1400 800" width="1400" height="800">
  <!-- ============================================================
       GENERATED BY: /wireframe skill
       SOURCE: features/foundation/004-mobile-first-design/spec.md
       DATE: 2025-12-31
       DO NOT MANUALLY EDIT - Regenerate with /wireframe command
       ============================================================ -->
  <defs>
    <linearGradient id="bgGrad" x1="0%" y1="0%" x2="100%" y2="100%">
      <stop offset="0%" style="stop-color:#0f172a"/>
      <stop offset="100%" style="stop-color:#1e293b"/>
    </linearGradient>
    <linearGradient id="accentGrad" x1="0%" y1="0%" x2="100%" y2="0%">
      <stop offset="0%" style="stop-color:#8b5cf6"/>
      <stop offset="100%" style="stop-color:#d946ef"/>
    </linearGradient>
    <style>
      .heading-lg { fill: #ffffff; font-family: system-ui, sans-serif; font-size: 20px; font-weight: bold; }
      .heading { fill: #ffffff; font-family: system-ui, sans-serif; font-size: 14px; font-weight: bold; }
      .text-md { fill: #cbd5e1; font-family: system-ui, sans-serif; font-size: 12px; }
      .text-sm { fill: #94a3b8; font-family: system-ui, sans-serif; font-size: 10px; }
      .text-muted { fill: #64748b; font-family: system-ui, sans-serif; font-size: 10px; }
      .annotation { fill: #8b5cf6; font-family: monospace; font-size: 10px; }
      .label-desktop { fill: #8b5cf6; font-family: monospace; font-size: 11px; font-weight: bold; }
      .label-mobile { fill: #d946ef; font-family: monospace; font-size: 11px; font-weight: bold; }
    </style>
  </defs>

  <!-- Background -->
  <rect width="1400" height="800" fill="url(#bgGrad)"/>

  <!-- Dot grid pattern -->
  <g opacity="0.05">
    <pattern id="dots" width="30" height="30" patternUnits="userSpaceOnUse">
      <circle cx="15" cy="15" r="1" fill="#fff"/>
    </pattern>
    <rect width="1400" height="800" fill="url(#dots)"/>
  </g>

  <!-- Accent line top -->
  <rect x="0" y="0" width="1400" height="3" fill="url(#accentGrad)"/>

  <!-- Title -->
  <text x="700" y="28" text-anchor="middle" font-family="system-ui, sans-serif" font-size="14" font-weight="600" fill="#64748b" letter-spacing="1">READABLE CONTENT - BLOG POST MOBILE LAYOUT (FR-006 to FR-016)</text>

  <!-- DESKTOP BLOG VIEW -->
  <text x="40" y="52" class="label-desktop">DESKTOP BLOG POST</text>
  <g id="desktop-view">
    <rect x="40" y="60" width="900" height="700" rx="8" fill="#0f172a" stroke="#475569" stroke-width="1"/>

    <!-- Header -->
    <rect x="40" y="60" width="900" height="50" rx="8" fill="#1e293b"/>
    <circle cx="80" cy="85" r="16" fill="#8b5cf6"/>
    <text x="80" y="90" text-anchor="middle" fill="#fff" font-size="10" font-weight="bold">SH</text>
    <text x="110" y="90" class="heading">ScriptHammer</text>

    <!-- 3-column layout -->
    <!-- Sidebar -->
    <rect x="50" y="120" width="180" height="630" rx="6" fill="#1e293b"/>
    <text x="60" y="145" class="text-sm">TABLE OF CONTENTS</text>
    <text x="60" y="170" class="text-muted">Introduction</text>
    <text x="60" y="190" class="text-muted">Getting Started</text>
    <text x="60" y="210" class="text-muted">Code Examples</text>
    <text x="60" y="230" class="text-muted">Best Practices</text>
    <text x="60" y="250" class="text-muted">Conclusion</text>

    <!-- Main content -->
    <rect x="240" y="120" width="480" height="630" rx="6" fill="#1e293b"/>

    <!-- Article header -->
    <text x="260" y="155" fill="#fff" font-size="24" font-weight="bold">Mobile-First CSS Guide</text>
    <text x="260" y="180" class="text-muted">Published Dec 30, 2025 • 8 min read</text>

    <!-- Image -->
    <rect x="260" y="200" width="440" height="150" rx="6" fill="#334155"/>
    <text x="480" y="280" text-anchor="middle" class="text-muted">Hero Image (srcset responsive)</text>

    <!-- Body text -->
    <text x="260" y="380" fill="#fff" font-size="14" font-weight="bold">Introduction</text>
    <rect x="260" y="390" width="440" height="10" rx="2" fill="#475569"/>
    <rect x="260" y="406" width="420" height="10" rx="2" fill="#475569"/>
    <rect x="260" y="422" width="380" height="10" rx="2" fill="#475569"/>

    <!-- Code block -->
    <text x="260" y="460" fill="#fff" font-size="14" font-weight="bold">Code Example</text>
    <rect x="260" y="470" width="440" height="100" rx="6" fill="#0f172a" stroke="#475569" stroke-width="1"/>
    <text x="275" y="495" fill="#d946ef" font-family="monospace" font-size="10">.container {</text>
    <text x="290" y="515" fill="#cbd5e1" font-family="monospace" font-size="10">display: flex;</text>
    <text x="290" y="535" fill="#cbd5e1" font-family="monospace" font-size="10">flex-direction: column;</text>
    <text x="275" y="555" fill="#d946ef" font-family="monospace" font-size="10">}</text>

    <!-- More text -->
    <rect x="260" y="590" width="440" height="10" rx="2" fill="#475569"/>
    <rect x="260" y="606" width="400" height="10" rx="2" fill="#475569"/>
    <rect x="260" y="622" width="420" height="10" rx="2" fill="#475569"/>

    <!-- Related posts sidebar -->
    <rect x="730" y="120" width="200" height="300" rx="6" fill="#1e293b"/>
    <text x="745" y="145" class="text-sm">RELATED POSTS</text>
    <rect x="745" y="160" width="170" height="60" rx="4" fill="#334155"/>
    <rect x="745" y="230" width="170" height="60" rx="4" fill="#334155"/>
    <rect x="745" y="300" width="170" height="60" rx="4" fill="#334155"/>
  </g>

  <!-- MOBILE BLOG VIEW -->
  <text x="980" y="52" class="label-mobile">MOBILE (390px)</text>
  <g id="mobile-view" transform="translate(980, 60)">
    <!-- Phone frame -->
    <rect x="0" y="0" width="360" height="700" rx="24" fill="#1e293b" stroke="#475569" stroke-width="2"/>
    <rect x="10" y="10" width="340" height="680" rx="16" fill="#0f172a"/>

    <!-- Status bar -->
    <rect x="10" y="10" width="340" height="28" rx="16" fill="#1e293b"/>
    <text x="30" y="28" class="text-sm">9:41</text>
    <text x="300" y="28" class="text-sm">📶 🔋</text>

    <!-- Header -->
    <rect x="10" y="38" width="340" height="44" fill="#1e293b"/>
    <text x="30" y="66" class="text-sm">← Back</text>

    <!-- Article content -->
    <g transform="translate(10, 90)">
      <!-- Title - scaled to ~70% of desktop -->
      <text x="15" y="25" fill="#fff" font-size="18" font-weight="bold">Mobile-First CSS</text>
      <text x="15" y="48" fill="#fff" font-size="18" font-weight="bold">Guide</text>
      <text x="15" y="70" class="text-muted">Dec 30, 2025 • 8 min read</text>

      <!-- Responsive image -->
      <rect x="15" y="85" width="310" height="120" rx="6" fill="#334155"/>
      <text x="170" y="150" text-anchor="middle" class="text-muted">srcset: 320w, 640w, 960w</text>

      <!-- Body text - 16px minimum -->
      <text x="15" y="230" fill="#fff" font-size="14" font-weight="bold">Introduction</text>
      <rect x="15" y="245" width="310" height="12" rx="2" fill="#475569"/>
      <rect x="15" y="263" width="290" height="12" rx="2" fill="#475569"/>
      <rect x="15" y="281" width="300" height="12" rx="2" fill="#475569"/>

      <!-- Code block with internal scroll -->
      <text x="15" y="320" fill="#fff" font-size="14" font-weight="bold">Code Example</text>
      <rect x="15" y="335" width="310" height="90" rx="6" fill="#0f172a" stroke="#475569" stroke-width="1"/>

      <!-- Code content -->
      <text x="25" y="358" fill="#d946ef" font-family="monospace" font-size="10">.container {</text>
      <text x="35" y="376" fill="#cbd5e1" font-family="monospace" font-size="10">display: flex;</text>
      <text x="35" y="394" fill="#cbd5e1" font-family="monospace" font-size="10">flex-direction: column;</text>
      <text x="25" y="412" fill="#d946ef" font-family="monospace" font-size="10">}</text>

      <!-- Scroll indicator for code -->
      <rect x="305" y="340" width="15" height="80" rx="4" fill="#1e293b"/>
      <rect x="307" y="345" width="11" height="30" rx="3" fill="#475569"/>

      <!-- More text -->
      <rect x="15" y="445" width="310" height="12" rx="2" fill="#475569"/>
      <rect x="15" y="463" width="280" height="12" rx="2" fill="#475569"/>
      <rect x="15" y="481" width="295" height="12" rx="2" fill="#475569"/>

      <!-- TOC collapsed to bottom -->
      <rect x="15" y="520" width="310" height="44" rx="6" fill="#334155"/>
      <text x="170" y="547" text-anchor="middle" class="text-sm" fill="#fff">📑 Table of Contents ▼</text>
    </g>
  </g>

  <!-- Typography Specs Box -->
  <rect x="40" y="770" width="450" height="25" rx="4" fill="#1e293b" stroke="#8b5cf6" stroke-width="1"/>
  <text x="60" y="787" class="annotation">FR-006: Body text ≥16px | FR-008: line-height ≥1.5 | FR-009: Headings 60-75% of desktop</text>

  <!-- Code Block Specs Box -->
  <rect x="500" y="770" width="320" height="25" rx="4" fill="#1e293b" stroke="#8b5cf6" stroke-width="1"/>
  <text x="520" y="787" class="annotation">FR-014: Code overflow-x: auto (internal scroll)</text>

  <!-- Image Specs Box -->
  <rect x="830" y="770" width="280" height="25" rx="4" fill="#1e293b" stroke="#8b5cf6" stroke-width="1"/>
  <text x="850" y="787" class="annotation">FR-012/13: srcset + WebP/AVIF</text>
</svg>
