<svg xmlns="http://www.w3.org/2000/svg" viewBox="0 0 1400 800" width="1400" height="800">
  <!-- ============================================================
       GENERATED BY: /wireframe skill
       SOURCE: features/foundation/004-mobile-first-design/spec.md
       DATE: 2025-12-31
       THEME: Light (UX/Frontend)
       DO NOT MANUALLY EDIT - Regenerate with /wireframe command
       ============================================================ -->
  <defs>
    <linearGradient id="bgGrad" x1="0%" y1="0%" x2="100%" y2="100%">
      <stop offset="0%" style="stop-color:#ffffff"/>
      <stop offset="100%" style="stop-color:#f0f4f8"/>
    </linearGradient>
    <linearGradient id="accentGrad" x1="0%" y1="0%" x2="100%" y2="0%">
      <stop offset="0%" style="stop-color:#8b5cf6"/>
      <stop offset="100%" style="stop-color:#d946ef"/>
    </linearGradient>
    <style>
      .heading-lg { fill: #1f2937; font-family: system-ui, sans-serif; font-size: 20px; font-weight: bold; }
      .heading { fill: #1f2937; font-family: system-ui, sans-serif; font-size: 14px; font-weight: bold; }
      .heading-sm { fill: #1f2937; font-family: system-ui, sans-serif; font-size: 12px; font-weight: bold; }
      .text-md { fill: #374151; font-family: system-ui, sans-serif; font-size: 12px; }
      .text-sm { fill: #6b7280; font-family: system-ui, sans-serif; font-size: 10px; }
      .text-muted { fill: #9ca3af; font-family: system-ui, sans-serif; font-size: 10px; }
      .annotation { fill: #8b5cf6; font-family: monospace; font-size: 10px; }
      .label-desktop { fill: #8b5cf6; font-family: monospace; font-size: 11px; font-weight: bold; }
      .label-mobile { fill: #d946ef; font-family: monospace; font-size: 11px; font-weight: bold; }
      .code { fill: #6366f1; font-family: monospace; font-size: 10px; }
    </style>
  </defs>

  <!-- Background -->
  <rect width="1400" height="800" fill="url(#bgGrad)"/>

  <!-- Dot grid pattern -->
  <g opacity="0.4">
    <pattern id="dots" width="30" height="30" patternUnits="userSpaceOnUse">
      <circle cx="15" cy="15" r="1" fill="#a5b4fc"/>
    </pattern>
    <rect width="1400" height="800" fill="url(#dots)"/>
  </g>

  <!-- Accent line top -->
  <rect x="0" y="0" width="1400" height="3" fill="url(#accentGrad)"/>

  <!-- Title -->
  <text x="700" y="28" text-anchor="middle" font-family="system-ui, sans-serif" font-size="14" font-weight="600" fill="#9ca3af" letter-spacing="1">CONTENT LAYOUT - BLOG POST, CODE BLOCKS, IMAGES</text>

  <!-- DESKTOP: Blog Post Layout -->
  <g id="desktop-content" transform="translate(40, 50)">
    <text x="0" y="0" class="label-desktop">DESKTOP BLOG POST (1024px)</text>

    <g transform="translate(0, 15)">
      <!-- Main container -->
      <rect x="0" y="0" width="700" height="500" rx="8" fill="#ffffff" stroke="#e5e7eb" stroke-width="2"/>

      <!-- Article Header -->
      <text x="30" y="35" class="heading-lg">Understanding Mobile-First Design</text>
      <text x="30" y="55" class="text-sm">Published Dec 30, 2025 • 8 min read</text>

      <!-- Body text at desktop size -->
      <g transform="translate(30, 80)">
        <text x="0" y="0" class="text-md">Mobile-first design is a philosophy that prioritizes the mobile</text>
        <text x="0" y="18" class="text-md">experience as the foundation for all other breakpoints. This</text>
        <text x="0" y="36" class="text-md">approach ensures that content is accessible and usable on the</text>
        <text x="0" y="54" class="text-md">smallest screens first.</text>
      </g>

      <!-- Code Block -->
      <g transform="translate(30, 160)">
        <text x="0" y="-10" class="heading-sm">Code Block (desktop)</text>
        <rect x="0" y="0" width="640" height="100" rx="6" fill="#1f2937"/>
        <text x="15" y="22" class="code" fill="#94a3b8">// Responsive container</text>
        <text x="15" y="40" class="code" fill="#f472b6">.container</text>
        <text x="75" y="40" class="code" fill="#94a3b8">{</text>
        <text x="25" y="58" class="code" fill="#22d3ee">width</text>
        <text x="55" y="58" class="code" fill="#94a3b8">:</text>
        <text x="65" y="58" class="code" fill="#fbbf24">100%</text>
        <text x="95" y="58" class="code" fill="#94a3b8">;</text>
        <text x="25" y="76" class="code" fill="#22d3ee">max-width</text>
        <text x="85" y="76" class="code" fill="#94a3b8">:</text>
        <text x="95" y="76" class="code" fill="#fbbf24">1200px</text>
        <text x="140" y="76" class="code" fill="#94a3b8">;</text>
        <text x="15" y="94" class="code" fill="#94a3b8">}</text>
      </g>

      <!-- Image -->
      <g transform="translate(30, 280)">
        <text x="0" y="-10" class="heading-sm">Responsive Image (srcset)</text>
        <rect x="0" y="0" width="640" height="180" rx="6" fill="#f3f4f6" stroke="#e5e7eb"/>
        <rect x="220" y="70" width="200" height="40" rx="4" fill="#e5e7eb"/>
        <text x="320" y="95" text-anchor="middle" class="text-muted">1200×800 image</text>
        <text x="320" y="135" text-anchor="middle" class="text-sm">FR-012: Fits viewport with srcset</text>
      </g>

      <!-- Typography annotation -->
      <g transform="translate(680, 80)">
        <line x1="0" y1="0" x2="-20" y2="0" stroke="#8b5cf6" stroke-dasharray="3,2"/>
        <rect x="5" y="-15" width="90" height="30" rx="4" fill="#ffffff" stroke="#8b5cf6"/>
        <text x="50" y="5" text-anchor="middle" class="annotation">18px body</text>
      </g>
    </g>
  </g>

  <!-- MOBILE: Blog Post Layout -->
  <g id="mobile-content" transform="translate(800, 50)">
    <text x="0" y="0" class="label-mobile">MOBILE BLOG POST (390px)</text>

    <g transform="translate(0, 15)">
      <!-- Phone frame -->
      <rect x="0" y="0" width="360" height="700" rx="24" fill="#ffffff" stroke="#d946ef" stroke-width="2"/>

      <!-- Status bar -->
      <rect x="10" y="10" width="340" height="28" rx="14" fill="#f9fafb"/>
      <text x="30" y="28" class="text-sm">9:41</text>

      <!-- Content area -->
      <g transform="translate(20, 50)">
        <!-- Title (scaled to 60-75% of desktop) -->
        <text x="0" y="20" class="heading" font-size="16" font-weight="bold">Understanding Mobile-</text>
        <text x="0" y="38" class="heading" font-size="16" font-weight="bold">First Design</text>
        <text x="0" y="56" class="text-sm">Dec 30, 2025 • 8 min</text>

        <!-- Body text (16px minimum - FR-006) -->
        <g transform="translate(0, 80)">
          <text x="0" y="0" font-family="system-ui" font-size="11" fill="#374151">Mobile-first design is a</text>
          <text x="0" y="16" font-family="system-ui" font-size="11" fill="#374151">philosophy that prioritizes the</text>
          <text x="0" y="32" font-family="system-ui" font-size="11" fill="#374151">mobile experience as the</text>
          <text x="0" y="48" font-family="system-ui" font-size="11" fill="#374151">foundation for all breakpoints.</text>
        </g>

        <!-- Code Block with horizontal scroll -->
        <g transform="translate(0, 155)">
          <text x="0" y="-8" class="text-sm">Code Block (scrollable)</text>
          <rect x="0" y="0" width="320" height="80" rx="6" fill="#1f2937"/>

          <!-- Scroll indicator -->
          <rect x="280" y="65" width="30" height="8" rx="4" fill="#8b5cf6" opacity="0.5"/>

          <text x="10" y="18" class="code" fill="#94a3b8" font-size="9">// Responsive container</text>
          <text x="10" y="32" class="code" fill="#f472b6" font-size="9">.container</text>
          <text x="58" y="32" class="code" fill="#94a3b8" font-size="9">{ width: 100%;</text>
          <text x="10" y="46" class="code" fill="#22d3ee" font-size="9">  max-width: 1200px;</text>
          <text x="10" y="60" class="code" fill="#94a3b8" font-size="9">}</text>

          <!-- overflow-x indicator -->
          <text x="160" y="95" text-anchor="middle" class="annotation">overflow-x: auto</text>
        </g>

        <!-- Image (full width) -->
        <g transform="translate(0, 270)">
          <text x="0" y="-8" class="text-sm">Responsive Image</text>
          <rect x="0" y="0" width="320" height="140" rx="6" fill="#f3f4f6" stroke="#e5e7eb"/>
          <rect x="100" y="50" width="120" height="30" rx="4" fill="#e5e7eb"/>
          <text x="160" y="70" text-anchor="middle" class="text-muted">390w image</text>
          <text x="160" y="110" text-anchor="middle" class="text-sm">FR-012: srcset selects</text>
          <text x="160" y="125" text-anchor="middle" class="text-sm">mobile-sized image</text>
        </g>

        <!-- More text -->
        <g transform="translate(0, 430)">
          <text x="0" y="0" font-family="system-ui" font-size="11" fill="#374151">This approach ensures that</text>
          <text x="0" y="16" font-family="system-ui" font-size="11" fill="#374151">content remains accessible on</text>
          <text x="0" y="32" font-family="system-ui" font-size="11" fill="#374151">the smallest screens first.</text>
        </g>
      </g>

      <!-- Typography annotation -->
      <g transform="translate(330, 140)">
        <line x1="0" y1="0" x2="30" y2="0" stroke="#d946ef" stroke-dasharray="3,2"/>
      </g>
    </g>

    <!-- Mobile annotations -->
    <g transform="translate(370, 140)">
      <rect x="0" y="0" width="90" height="55" rx="4" fill="#ffffff" stroke="#d946ef"/>
      <text x="45" y="18" text-anchor="middle" class="annotation" fill="#d946ef">16px min</text>
      <text x="45" y="35" text-anchor="middle" class="text-sm">FR-006</text>
      <text x="45" y="50" text-anchor="middle" class="text-muted">Body text</text>
    </g>

    <g transform="translate(370, 210)">
      <rect x="0" y="0" width="90" height="55" rx="4" fill="#ffffff" stroke="#d946ef"/>
      <text x="45" y="18" text-anchor="middle" class="annotation" fill="#d946ef">60-75%</text>
      <text x="45" y="35" text-anchor="middle" class="text-sm">FR-009</text>
      <text x="45" y="50" text-anchor="middle" class="text-muted">Heading scale</text>
    </g>

    <g transform="translate(370, 320)">
      <rect x="0" y="0" width="90" height="55" rx="4" fill="#ffffff" stroke="#22c55e"/>
      <text x="45" y="18" text-anchor="middle" class="annotation" fill="#22c55e">Internal</text>
      <text x="45" y="35" text-anchor="middle" class="text-sm">FR-014</text>
      <text x="45" y="50" text-anchor="middle" class="text-muted">Code scroll</text>
    </g>
  </g>

  <!-- Code Block Behavior -->
  <g id="code-block-behavior" transform="translate(40, 590)">
    <text x="0" y="0" class="heading">Code Block Behavior (FR-014)</text>

    <g transform="translate(0, 25)">
      <!-- Wrong: page scrolls -->
      <rect x="0" y="0" width="300" height="120" rx="8" fill="#ffffff" stroke="#ef4444" stroke-width="2"/>
      <text x="150" y="25" text-anchor="middle" class="heading-sm" fill="#ef4444">❌ Page-Wide Scroll</text>

      <rect x="20" y="40" width="350" height="60" rx="4" fill="#1f2937"/>
      <text x="30" y="65" class="code" fill="#94a3b8" font-size="9">const longVariableName = "This code extends...</text>
      <text x="30" y="80" class="code" fill="#94a3b8" font-size="9">→ CAUSES HORIZONTAL PAGE SCROLL</text>

      <!-- Arrow indicating page scroll -->
      <line x1="300" y1="70" x2="330" y2="70" stroke="#ef4444" stroke-width="2"/>
      <polygon points="330,65 340,70 330,75" fill="#ef4444"/>
    </g>

    <g transform="translate(370, 25)">
      <!-- Correct: internal scroll -->
      <rect x="0" y="0" width="300" height="120" rx="8" fill="#ffffff" stroke="#22c55e" stroke-width="2"/>
      <text x="150" y="25" text-anchor="middle" class="heading-sm" fill="#22c55e">✓ Internal Scroll</text>

      <rect x="20" y="40" width="260" height="60" rx="4" fill="#1f2937"/>
      <text x="30" y="65" class="code" fill="#94a3b8" font-size="9">const longVariableName = "...</text>
      <text x="30" y="80" class="code" fill="#94a3b8" font-size="9">→ overflow-x: auto</text>

      <!-- Scroll bar indicator -->
      <rect x="240" y="85" width="30" height="6" rx="3" fill="#8b5cf6"/>
    </g>
  </g>

  <!-- Typography Scale -->
  <g id="typography" transform="translate(700, 590)">
    <text x="0" y="0" class="heading">Typography Scale (Mobile vs Desktop)</text>

    <g transform="translate(0, 25)">
      <rect x="0" y="0" width="340" height="150" rx="8" fill="#ffffff" stroke="#e5e7eb"/>

      <!-- Header row -->
      <rect x="0" y="0" width="340" height="28" rx="8" fill="#f3f4f6"/>
      <text x="70" y="18" text-anchor="middle" class="heading-sm">Element</text>
      <text x="170" y="18" text-anchor="middle" class="heading-sm">Desktop</text>
      <text x="280" y="18" text-anchor="middle" class="heading-sm">Mobile</text>

      <!-- H1 -->
      <text x="70" y="50" text-anchor="middle" class="text-md">H1</text>
      <text x="170" y="50" text-anchor="middle" class="text-md">36px</text>
      <text x="280" y="50" text-anchor="middle" class="text-md" fill="#d946ef">22-27px</text>

      <!-- H2 -->
      <text x="70" y="72" text-anchor="middle" class="text-md">H2</text>
      <text x="170" y="72" text-anchor="middle" class="text-md">28px</text>
      <text x="280" y="72" text-anchor="middle" class="text-md" fill="#d946ef">17-21px</text>

      <!-- H3 -->
      <text x="70" y="94" text-anchor="middle" class="text-md">H3</text>
      <text x="170" y="94" text-anchor="middle" class="text-md">22px</text>
      <text x="280" y="94" text-anchor="middle" class="text-md" fill="#d946ef">14-17px</text>

      <!-- Body -->
      <text x="70" y="116" text-anchor="middle" class="text-md">Body</text>
      <text x="170" y="116" text-anchor="middle" class="text-md">18px</text>
      <text x="280" y="116" text-anchor="middle" class="text-md" fill="#22c55e">16px min</text>

      <!-- Line height -->
      <text x="70" y="138" text-anchor="middle" class="text-md">Line-height</text>
      <text x="170" y="138" text-anchor="middle" class="text-md">1.6</text>
      <text x="280" y="138" text-anchor="middle" class="text-md" fill="#22c55e">1.5 min</text>
    </g>

    <text x="170" y="195" text-anchor="middle" class="text-muted">FR-009: 60-75% of desktop | FR-006: 16px min | FR-008: 1.5 line-height</text>
  </g>

  <!-- Image srcset -->
  <g id="srcset" transform="translate(1080, 590)">
    <text x="0" y="0" class="heading">Image srcset (FR-012)</text>

    <g transform="translate(0, 25)">
      <rect x="0" y="0" width="260" height="150" rx="8" fill="#1f2937"/>

      <text x="15" y="22" class="code" fill="#f472b6">&lt;img</text>
      <text x="15" y="40" class="code" fill="#22d3ee">  src</text>
      <text x="38" y="40" class="code" fill="#94a3b8">="hero.jpg"</text>
      <text x="15" y="58" class="code" fill="#22d3ee">  srcset</text>
      <text x="55" y="58" class="code" fill="#94a3b8">="</text>
      <text x="25" y="76" class="code" fill="#fbbf24">hero-320w.jpg 320w,</text>
      <text x="25" y="94" class="code" fill="#fbbf24">hero-640w.jpg 640w,</text>
      <text x="25" y="112" class="code" fill="#fbbf24">hero-1200w.jpg 1200w</text>
      <text x="15" y="130" class="code" fill="#94a3b8">" sizes="100vw" /&gt;</text>
    </g>

    <text x="130" y="195" text-anchor="middle" class="text-muted">Browser picks optimal size</text>
  </g>

  <!-- Feature reference -->
  <text x="1360" y="780" text-anchor="end" class="text-muted">004-mobile-first-design | 03 of 04</text>
</svg>
