<svg xmlns="http://www.w3.org/2000/svg" viewBox="0 0 1400 800" width="1400" height="800">
  <!-- ============================================================
       GENERATED BY: /wireframe skill
       SOURCE: features/foundation/004-mobile-first-design/spec.md
       DATE: 2026-01-01
       THEME: Light (UX/Frontend) - v3 True Parchment
       DO NOT MANUALLY EDIT - Regenerate with /wireframe command
       ============================================================ -->
  <defs>
    <linearGradient id="bgGrad" x1="0%" y1="0%" x2="100%" y2="100%">
      <stop offset="0%" style="stop-color:#c7ddf5"/>
      <stop offset="100%" style="stop-color:#b8d4f0"/>
    </linearGradient>
    <linearGradient id="accentGrad" x1="0%" y1="0%" x2="100%" y2="0%">
      <stop offset="0%" style="stop-color:#8b5cf6"/>
      <stop offset="100%" style="stop-color:#d946ef"/>
    </linearGradient>
    <style>
      .heading-lg { fill: #1a1a2e; font-family: system-ui, sans-serif; font-size: 24px; font-weight: 800; }
      .heading { fill: #1a1a2e; font-family: system-ui, sans-serif; font-size: 16px; font-weight: 700; }
      .text-md { fill: #2d3748; font-family: system-ui, sans-serif; font-size: 14px; font-weight: 500; }
      .text-sm { fill: #374151; font-family: system-ui, sans-serif; font-size: 12px; font-weight: 500; }
      .text-muted { fill: #4b5563; font-family: system-ui, sans-serif; font-size: 11px; font-weight: 500; }
      .annotation { fill: #6d28d9; font-family: monospace; font-size: 12px; font-weight: 600; }
      .label-desktop { fill: #8b5cf6; font-family: monospace; font-size: 13px; font-weight: bold; }
      .label-mobile { fill: #d946ef; font-family: monospace; font-size: 13px; font-weight: bold; }
      .spec-label { fill: #22c55e; font-family: monospace; font-size: 10px; font-weight: 600; }
      .dimension { fill: #ef4444; font-family: monospace; font-size: 11px; font-weight: 600; }
      .warn-label { fill: #eab308; font-family: monospace; font-size: 10px; font-weight: 600; }
    </style>
  </defs>

  <!-- Background -->
  <rect width="1400" height="800" fill="url(#bgGrad)"/>

  <!-- Dot grid pattern -->
  <g opacity="0.35">
    <pattern id="dots" width="30" height="30" patternUnits="userSpaceOnUse">
      <circle cx="15" cy="15" r="1" fill="#6b8cba"/>
    </pattern>
    <rect width="1400" height="800" fill="url(#dots)"/>
  </g>

  <!-- Accent line top -->
  <rect x="0" y="0" width="1400" height="3" fill="url(#accentGrad)"/>

  <!-- Title -->
  <text x="700" y="28" text-anchor="middle" font-family="system-ui, sans-serif" font-size="14" font-weight="600" fill="#4b5563" letter-spacing="1">TOUCH TARGETS — 44x44px MINIMUM &amp; 8px SPACING</text>

  <!-- TOUCH TARGET SPECIFICATIONS PANEL -->
  <text x="40" y="52" class="label-desktop">APPLE HIG STANDARDS (FR-004, FR-005)</text>
  <g id="touch-specs">
    <rect x="40" y="60" width="400" height="280" rx="8" fill="#e8d4b8" stroke="#b8a080" stroke-width="1"/>

    <!-- Minimum size demo -->
    <g transform="translate(60, 80)">
      <text x="0" y="0" class="heading">Minimum Touch Target</text>

      <!-- 44x44 box -->
      <rect x="0" y="15" width="44" height="44" rx="6" fill="#8b5cf6" stroke="#22c55e" stroke-width="2"/>
      <text x="22" y="42" text-anchor="middle" fill="#fff" font-size="12" font-weight="bold">Btn</text>

      <!-- Dimensions -->
      <line x1="0" y1="68" x2="44" y2="68" stroke="#ef4444" stroke-width="2"/>
      <line x1="0" y1="65" x2="0" y2="71" stroke="#ef4444" stroke-width="2"/>
      <line x1="44" y1="65" x2="44" y2="71" stroke="#ef4444" stroke-width="2"/>
      <text x="22" y="85" text-anchor="middle" class="dimension">44px</text>

      <line x1="52" y1="15" x2="52" y2="59" stroke="#ef4444" stroke-width="2"/>
      <line x1="49" y1="15" x2="55" y2="15" stroke="#ef4444" stroke-width="2"/>
      <line x1="49" y1="59" x2="55" y2="59" stroke="#ef4444" stroke-width="2"/>
      <text x="70" y="42" class="dimension">44px</text>

      <!-- Standard reference -->
      <rect x="110" y="20" width="250" height="60" rx="6" fill="#f5f0e6" stroke="#22c55e" stroke-width="1"/>
      <text x="125" y="42" class="spec-label">✓ Apple Human Interface Guidelines</text>
      <text x="125" y="60" class="text-muted">Minimum recommended tap target</text>
    </g>

    <!-- Spacing demo -->
    <g transform="translate(60, 190)">
      <text x="0" y="0" class="heading">Minimum Spacing Between Targets</text>

      <!-- Two buttons with spacing -->
      <rect x="0" y="15" width="44" height="44" rx="6" fill="#8b5cf6"/>
      <text x="22" y="42" text-anchor="middle" fill="#fff" font-size="12">A</text>

      <!-- Spacing indicator -->
      <rect x="44" y="25" width="16" height="24" rx="2" fill="#eab308" opacity="0.3"/>
      <line x1="44" y1="37" x2="60" y2="37" stroke="#eab308" stroke-width="2"/>
      <text x="52" y="20" text-anchor="middle" class="warn-label">8px</text>

      <rect x="60" y="15" width="44" height="44" rx="6" fill="#8b5cf6"/>
      <text x="82" y="42" text-anchor="middle" fill="#fff" font-size="12">B</text>

      <!-- Another spacing -->
      <rect x="104" y="25" width="16" height="24" rx="2" fill="#eab308" opacity="0.3"/>
      <line x1="104" y1="37" x2="120" y2="37" stroke="#eab308" stroke-width="2"/>
      <text x="112" y="20" text-anchor="middle" class="warn-label">8px</text>

      <rect x="120" y="15" width="44" height="44" rx="6" fill="#8b5cf6"/>
      <text x="142" y="42" text-anchor="middle" fill="#fff" font-size="12">C</text>

      <!-- Explanation -->
      <rect x="180" y="20" width="180" height="45" rx="6" fill="#f5f0e6" stroke="#eab308" stroke-width="1"/>
      <text x="195" y="38" class="warn-label">⚠ Prevents mis-taps</text>
      <text x="195" y="55" class="text-muted">FR-005 requirement</text>
    </g>
  </g>

  <!-- GOOD vs BAD EXAMPLES -->
  <text x="460" y="52" class="label-desktop">EXAMPLES — GOOD vs BAD</text>
  <g id="examples" transform="translate(460, 60)">
    <rect x="0" y="0" width="500" height="280" rx="8" fill="#f5f0e6" stroke="#b8a080" stroke-width="1"/>

    <!-- Good example -->
    <g transform="translate(20, 20)">
      <rect x="0" y="0" width="220" height="120" rx="6" fill="#22c55e" opacity="0.1" stroke="#22c55e" stroke-width="2"/>
      <text x="110" y="25" text-anchor="middle" class="spec-label">✓ GOOD — ACCESSIBLE</text>

      <!-- Properly sized buttons -->
      <rect x="15" y="40" width="80" height="44" rx="6" fill="#8b5cf6"/>
      <text x="55" y="67" text-anchor="middle" fill="#fff" font-size="12">Save</text>

      <rect x="115" y="40" width="90" height="44" rx="6" fill="#dcc8a8" stroke="#b8a080"/>
      <text x="160" y="67" text-anchor="middle" class="text-md">Cancel</text>

      <text x="15" y="105" class="text-muted">80x44 + 20px gap</text>
    </g>

    <!-- Bad example -->
    <g transform="translate(260, 20)">
      <rect x="0" y="0" width="220" height="120" rx="6" fill="#ef4444" opacity="0.1" stroke="#ef4444" stroke-width="2"/>
      <text x="110" y="25" text-anchor="middle" class="dimension">✕ BAD — INACCESSIBLE</text>

      <!-- Too small, too close buttons -->
      <rect x="40" y="45" width="50" height="30" rx="4" fill="#8b5cf6"/>
      <text x="65" y="65" text-anchor="middle" fill="#fff" font-size="10">Save</text>

      <rect x="95" y="45" width="60" height="30" rx="4" fill="#dcc8a8" stroke="#b8a080"/>
      <text x="125" y="65" text-anchor="middle" class="text-sm">Cancel</text>

      <text x="40" y="95" class="dimension">50x30, 5px gap</text>
      <text x="40" y="110" class="text-muted">Too small, too close</text>
    </g>

    <!-- Link spacing example -->
    <g transform="translate(20, 155)">
      <text x="0" y="0" class="heading">Link Spacing in Lists</text>

      <!-- Good list -->
      <rect x="0" y="15" width="220" height="100" rx="6" fill="#e8d4b8" stroke="#22c55e" stroke-width="1"/>
      <rect x="10" y="25" width="200" height="44" rx="4" fill="#f5f0e6"/>
      <text x="25" y="52" class="text-md">🏠 Home</text>
      <rect x="10" y="77" width="200" height="28" rx="4" fill="#f5f0e6"/>
      <text x="25" y="96" class="text-md">📝 Blog</text>
      <text x="220" y="85" class="spec-label">✓</text>
    </g>

    <!-- Bad list -->
    <g transform="translate(260, 155)">
      <text x="0" y="0" class="heading">Crowded Links</text>

      <rect x="0" y="15" width="220" height="100" rx="6" fill="#e8d4b8" stroke="#ef4444" stroke-width="1"/>
      <text x="15" y="38" class="text-sm">Home</text>
      <text x="15" y="52" class="text-sm">Blog</text>
      <text x="15" y="66" class="text-sm">Projects</text>
      <text x="15" y="80" class="text-sm">About</text>
      <text x="15" y="94" class="text-sm">Contact</text>
      <text x="220" y="65" class="dimension">✕</text>
      <text x="100" y="60" class="text-muted">14px line height</text>
    </g>
  </g>

  <!-- MOBILE PHONE with touch targets highlighted -->
  <text x="980" y="52" class="label-mobile">MOBILE TOUCH INTERFACE</text>
  <g id="mobile-view" transform="translate(980, 60)">
    <!-- Phone frame -->
    <rect x="0" y="0" width="360" height="700" rx="24" fill="#c8b898" stroke="#a08860" stroke-width="2"/>
    <rect x="10" y="10" width="340" height="680" rx="16" fill="#e8d4b8"/>

    <!-- Status bar -->
    <rect x="10" y="10" width="340" height="28" rx="16" fill="#dcc8a8"/>
    <text x="30" y="28" class="text-sm">9:41</text>
    <text x="300" y="28" class="text-sm">📶 🔋</text>

    <!-- Header with touch targets -->
    <rect x="20" y="48" width="320" height="50" rx="6" fill="#dcc8a8" stroke="#b8a080"/>

    <!-- Hamburger - with target highlight -->
    <rect x="30" y="55" width="44" height="36" rx="6" fill="#8b5cf6"/>
    <line x1="40" y1="67" x2="64" y2="67" stroke="#fff" stroke-width="2"/>
    <line x1="40" y1="73" x2="64" y2="73" stroke="#fff" stroke-width="2"/>
    <line x1="40" y1="79" x2="64" y2="79" stroke="#fff" stroke-width="2"/>
    <rect x="30" y="55" width="44" height="36" rx="6" fill="none" stroke="#22c55e" stroke-width="2" stroke-dasharray="4,2"/>

    <!-- Logo -->
    <text x="180" y="78" text-anchor="middle" class="heading">ScriptHammer</text>

    <!-- Search button -->
    <rect x="286" y="55" width="44" height="36" rx="6" fill="#8b5cf6"/>
    <text x="308" y="79" text-anchor="middle" fill="#fff" font-size="16">🔍</text>
    <rect x="286" y="55" width="44" height="36" rx="6" fill="none" stroke="#22c55e" stroke-width="2" stroke-dasharray="4,2"/>

    <!-- Touch target annotations -->
    <text x="52" y="50" text-anchor="middle" class="spec-label">44×36</text>
    <text x="308" y="50" text-anchor="middle" class="spec-label">44×36</text>

    <!-- Content area with various touch targets -->
    <g transform="translate(20, 110)">
      <text x="0" y="15" class="heading">Recent Posts</text>

      <!-- List items with proper touch targets -->
      <rect x="0" y="25" width="320" height="70" rx="6" fill="#f5f0e6" stroke="#b8a080"/>
      <text x="15" y="50" class="text-md">Getting Started with React 19</text>
      <text x="15" y="70" class="text-muted">5 min read • 2 days ago</text>
      <rect x="0" y="25" width="320" height="70" rx="6" fill="none" stroke="#22c55e" stroke-width="1" stroke-dasharray="4,2"/>
      <text x="280" y="80" class="spec-label">70px ✓</text>

      <rect x="0" y="103" width="320" height="70" rx="6" fill="#f5f0e6" stroke="#b8a080"/>
      <text x="15" y="128" class="text-md">Mobile-First CSS Strategies</text>
      <text x="15" y="148" class="text-muted">8 min read • 1 week ago</text>

      <rect x="0" y="181" width="320" height="70" rx="6" fill="#f5f0e6" stroke="#b8a080"/>
      <text x="15" y="206" class="text-md">Supabase Authentication Guide</text>
      <text x="15" y="226" class="text-muted">12 min read • 2 weeks ago</text>

      <!-- 8px spacing between items -->
      <text x="160" y="100" text-anchor="middle" class="warn-label">↕ 8px</text>
      <text x="160" y="178" text-anchor="middle" class="warn-label">↕ 8px</text>
    </g>

    <!-- FAB button -->
    <circle cx="290" cy="600" r="28" fill="#8b5cf6"/>
    <text x="290" y="606" text-anchor="middle" fill="#fff" font-size="20">+</text>
    <circle cx="290" cy="600" r="28" fill="none" stroke="#22c55e" stroke-width="2" stroke-dasharray="4,2"/>
    <text x="290" y="570" text-anchor="middle" class="spec-label">56px ✓</text>

    <!-- Bottom nav with touch targets -->
    <rect x="20" y="640" width="320" height="48" rx="6" fill="#dcc8a8" stroke="#b8a080"/>

    <g transform="translate(35, 648)">
      <!-- Nav items -->
      <rect x="0" y="0" width="56" height="32" rx="4" fill="#8b5cf6" opacity="0.2"/>
      <text x="28" y="22" text-anchor="middle" class="text-sm">🏠</text>
      <rect x="0" y="0" width="56" height="32" rx="4" fill="none" stroke="#22c55e" stroke-width="1"/>

      <rect x="72" y="0" width="56" height="32" rx="4" fill="transparent"/>
      <text x="100" y="22" text-anchor="middle" class="text-sm">📝</text>
      <rect x="72" y="0" width="56" height="32" rx="4" fill="none" stroke="#22c55e" stroke-width="1"/>

      <rect x="144" y="0" width="56" height="32" rx="4" fill="transparent"/>
      <text x="172" y="22" text-anchor="middle" class="text-sm">📁</text>

      <rect x="216" y="0" width="56" height="32" rx="4" fill="transparent"/>
      <text x="244" y="22" text-anchor="middle" class="text-sm">⚙️</text>
    </g>

    <!-- Spacing annotation for bottom nav -->
    <text x="100" y="695" text-anchor="middle" class="warn-label">16px gaps between icons</text>
  </g>

  <!-- HOVER STATE ALTERNATIVES -->
  <text x="40" y="370" class="label-desktop">NO HOVER DEPENDENCY (FR-021)</text>
  <g id="hover-alternatives" transform="translate(40, 390)">
    <rect x="0" y="0" width="400" height="200" rx="8" fill="#f5f0e6" stroke="#b8a080" stroke-width="1"/>

    <text x="20" y="30" class="heading">Mobile Has No Hover States</text>
    <text x="20" y="50" class="text-muted">Essential interactions must be accessible via tap</text>

    <!-- Example: Dropdown on desktop vs mobile -->
    <g transform="translate(20, 70)">
      <text x="0" y="0" class="text-md">Desktop: Hover reveals options</text>
      <rect x="0" y="10" width="100" height="30" rx="4" fill="#e8d4b8" stroke="#b8a080"/>
      <text x="50" y="30" text-anchor="middle" class="text-sm">Menu ▾</text>
      <rect x="0" y="42" width="100" height="60" rx="4" fill="#dcc8a8" stroke="#b8a080" stroke-dasharray="4,2"/>
      <text x="10" y="62" class="text-muted">Option 1</text>
      <text x="10" y="82" class="text-muted">Option 2</text>
    </g>

    <g transform="translate(200, 70)">
      <text x="0" y="0" class="text-md">Mobile: Tap reveals options</text>
      <rect x="0" y="10" width="100" height="30" rx="4" fill="#8b5cf6"/>
      <text x="50" y="30" text-anchor="middle" fill="#fff" font-size="12">Menu ▾</text>
      <text x="110" y="30" class="spec-label">← Tap</text>
      <rect x="0" y="42" width="100" height="60" rx="4" fill="#dcc8a8" stroke="#8b5cf6" stroke-width="2"/>
      <text x="10" y="62" class="text-md">Option 1</text>
      <text x="10" y="82" class="text-md">Option 2</text>
    </g>

    <!-- Key principle -->
    <rect x="20" y="150" width="360" height="35" rx="4" fill="#22c55e" opacity="0.15" stroke="#22c55e"/>
    <text x="200" y="173" text-anchor="middle" class="spec-label">✓ All essential interactions work without hover</text>
  </g>

  <!-- ZOOM SUPPORT -->
  <text x="460" y="370" class="label-desktop">USER ZOOM SUPPORT (FR-022)</text>
  <g id="zoom-support" transform="translate(460, 390)">
    <rect x="0" y="0" width="500" height="200" rx="8" fill="#e8d4b8" stroke="#b8a080" stroke-width="1"/>

    <text x="20" y="30" class="heading">Layouts Support 200% Zoom</text>

    <!-- Zoom levels visualization -->
    <g transform="translate(20, 50)">
      <!-- 100% zoom -->
      <rect x="0" y="0" width="80" height="60" rx="4" fill="#f5f0e6" stroke="#b8a080"/>
      <text x="40" y="25" text-anchor="middle" class="text-md">100%</text>
      <text x="40" y="45" text-anchor="middle" class="text-muted">Normal</text>

      <!-- 150% zoom -->
      <rect x="100" y="0" width="100" height="75" rx="4" fill="#f5f0e6" stroke="#b8a080"/>
      <text x="150" y="30" text-anchor="middle" class="heading">150%</text>
      <text x="150" y="55" text-anchor="middle" class="text-muted">Enlarged</text>

      <!-- 200% zoom -->
      <rect x="220" y="0" width="120" height="90" rx="4" fill="#f5f0e6" stroke="#22c55e" stroke-width="2"/>
      <text x="280" y="35" text-anchor="middle" class="heading-lg">200%</text>
      <text x="280" y="65" text-anchor="middle" class="text-md">Maximum</text>
      <text x="280" y="85" text-anchor="middle" class="spec-label">Still works ✓</text>
    </g>

    <!-- Requirements -->
    <g transform="translate(20, 155)">
      <rect x="0" y="0" width="220" height="30" rx="4" fill="#f5f0e6" stroke="#22c55e"/>
      <text x="110" y="20" text-anchor="middle" class="spec-label">✓ Text remains readable</text>

      <rect x="240" y="0" width="220" height="30" rx="4" fill="#f5f0e6" stroke="#22c55e"/>
      <text x="350" y="20" text-anchor="middle" class="spec-label">✓ Layouts don't break</text>
    </g>
  </g>

  <!-- SUCCESS CRITERIA SUMMARY -->
  <g id="success-criteria" transform="translate(40, 610)">
    <rect x="0" y="0" width="920" height="150" rx="8" fill="#22c55e" opacity="0.1" stroke="#22c55e" stroke-width="2"/>
    <text x="20" y="30" class="heading-lg" fill="#22c55e">Touch Target Success Criteria</text>

    <g transform="translate(20, 50)">
      <rect x="0" y="0" width="280" height="40" rx="4" fill="#e8d4b8"/>
      <text x="15" y="25" class="spec-label">SC-002</text>
      <text x="80" y="25" class="text-md">100% meet 44x44px min</text>

      <rect x="300" y="0" width="280" height="40" rx="4" fill="#e8d4b8"/>
      <text x="315" y="25" class="spec-label">SC-003</text>
      <text x="380" y="25" class="text-md">100% have 8px spacing</text>

      <rect x="600" y="0" width="300" height="40" rx="4" fill="#e8d4b8"/>
      <text x="615" y="25" class="spec-label">FR-026</text>
      <text x="680" y="25" class="text-md">Automated size validation</text>
    </g>

    <g transform="translate(20, 100)">
      <rect x="0" y="0" width="280" height="40" rx="4" fill="#e8d4b8"/>
      <text x="15" y="25" class="spec-label">FR-021</text>
      <text x="80" y="25" class="text-md">No hover dependency</text>

      <rect x="300" y="0" width="280" height="40" rx="4" fill="#e8d4b8"/>
      <text x="315" y="25" class="spec-label">FR-022</text>
      <text x="380" y="25" class="text-md">200% zoom support</text>

      <rect x="600" y="0" width="300" height="40" rx="4" fill="#e8d4b8"/>
      <text x="615" y="25" class="spec-label">NFR-005</text>
      <text x="680" y="25" class="text-md">Apple HIG compliance</text>
    </g>
  </g>

  <!-- Leader lines -->
  <g id="leader-lines">
  </g>
</svg>
