<svg xmlns="http://www.w3.org/2000/svg" viewBox="0 0 1400 800" width="1400" height="800">
  <!-- ============================================================
       GENERATED BY: /wireframe skill
       SOURCE: features/foundation/004-mobile-first-design/spec.md
       DATE: 2026-01-01
       THEME: Light (UX/Frontend) - v3 True Parchment
       REGENERATED WITH FEEDBACK: features/foundation/004-mobile-first-design/WIREFRAME_ISSUES.md
       DO NOT MANUALLY EDIT - Regenerate with /wireframe command
       ============================================================ -->
  <defs>
    <linearGradient id="bgGrad" x1="0%" y1="0%" x2="100%" y2="100%">
      <stop offset="0%" style="stop-color:#c7ddf5"/>
      <stop offset="100%" style="stop-color:#b8d4f0"/>
    </linearGradient>
    <linearGradient id="accentGrad" x1="0%" y1="0%" x2="100%" y2="0%">
      <stop offset="0%" style="stop-color:#8b5cf6"/>
      <stop offset="100%" style="stop-color:#d946ef"/>
    </linearGradient>
    <style>
      .heading-lg { fill: #1a1a2e; font-family: system-ui, sans-serif; font-size: 24px; font-weight: 800; }
      .heading { fill: #1a1a2e; font-family: system-ui, sans-serif; font-size: 16px; font-weight: 700; }
      .heading-sm { fill: #1a1a2e; font-family: system-ui, sans-serif; font-size: 14px; font-weight: 700; }
      .text-md { fill: #2d3748; font-family: system-ui, sans-serif; font-size: 14px; font-weight: 500; }
      .text-sm { fill: #374151; font-family: system-ui, sans-serif; font-size: 12px; font-weight: 500; }
      .text-muted { fill: #374151; font-family: system-ui, sans-serif; font-size: 11px; font-weight: 500; }
      .annotation { fill: #6d28d9; font-family: monospace; font-size: 11px; font-weight: 600; }
      .label-desktop { fill: #8b5cf6; font-family: monospace; font-size: 13px; font-weight: bold; }
      .label-mobile { fill: #d946ef; font-family: monospace; font-size: 13px; font-weight: bold; }
      .spec-label { fill: #22c55e; font-family: monospace; font-size: 10px; font-weight: 600; }
      .fail-label { fill: #ef4444; font-family: monospace; font-size: 10px; font-weight: 600; }
      .dimension { fill: #ef4444; font-family: monospace; font-size: 10px; font-weight: 600; }
    </style>
  </defs>

  <!-- Background -->
  <rect width="1400" height="800" fill="url(#bgGrad)"/>
  <g opacity="0.35">
    <pattern id="dots" width="30" height="30" patternUnits="userSpaceOnUse">
      <circle cx="15" cy="15" r="1" fill="#6b8cba"/>
    </pattern>
    <rect width="1400" height="800" fill="url(#dots)"/>
  </g>
  <rect x="0" y="0" width="1400" height="3" fill="url(#accentGrad)"/>

  <!-- Title -->
  <text x="700" y="28" text-anchor="middle" font-family="system-ui, sans-serif" font-size="14" font-weight="600" fill="#374151" letter-spacing="1">TOUCH-FRIENDLY INTERACTIONS — FR-020 TO FR-022</text>

  <!-- DESKTOP SECTION -->
  <text x="40" y="52" class="label-desktop">TOUCH TARGET COMPARISON</text>

  <!-- Good vs Bad comparison -->
  <g transform="translate(40, 70)">
    <rect x="0" y="0" width="900" height="300" rx="8" fill="#f5f0e6" stroke="#b8a080"/>

    <!-- Good examples -->
    <text x="20" y="30" class="heading">✓ GOOD — Meets 44×44px Minimum (Apple HIG)</text>

    <!-- Good button - 44px -->
    <rect x="30" y="50" width="120" height="44" rx="6" fill="#8b5cf6"/>
    <text x="90" y="78" text-anchor="middle" fill="#fff" font-size="14">Submit</text>
    <rect x="30" y="50" width="120" height="44" fill="none" stroke="#22c55e" stroke-width="2" stroke-dasharray="4,2"/>
    <text x="90" y="110" text-anchor="middle" class="spec-label">120×44 ✓</text>

    <!-- Good icon button - 44px -->
    <rect x="180" y="50" width="44" height="44" rx="6" fill="#dcc8a8" stroke="#b8a080"/>
    <text x="202" y="78" text-anchor="middle" class="text-md">🔍</text>
    <rect x="180" y="50" width="44" height="44" fill="none" stroke="#22c55e" stroke-width="2" stroke-dasharray="4,2"/>
    <text x="202" y="110" text-anchor="middle" class="spec-label">44×44 ✓</text>

    <!-- Good nav item - 50px -->
    <rect x="260" y="50" width="200" height="50" rx="6" fill="#e8d4b8" stroke="#b8a080"/>
    <text x="280" y="82" class="heading-sm">📁 Projects</text>
    <rect x="260" y="50" width="200" height="50" fill="none" stroke="#22c55e" stroke-width="2" stroke-dasharray="4,2"/>
    <text x="360" y="115" text-anchor="middle" class="spec-label">200×50 ✓</text>

    <!-- Good with 8px spacing -->
    <rect x="500" y="50" width="44" height="44" rx="6" fill="#8b5cf6"/>
    <text x="522" y="78" text-anchor="middle" fill="#fff">A</text>
    <rect x="552" y="50" width="44" height="44" rx="6" fill="#8b5cf6"/>
    <text x="574" y="78" text-anchor="middle" fill="#fff">B</text>
    <rect x="604" y="50" width="44" height="44" rx="6" fill="#8b5cf6"/>
    <text x="626" y="78" text-anchor="middle" fill="#fff">C</text>

    <!-- 8px gap indicators -->
    <rect x="544" y="65" width="8" height="14" fill="#22c55e" opacity="0.5"/>
    <rect x="596" y="65" width="8" height="14" fill="#22c55e" opacity="0.5"/>
    <text x="548" y="110" text-anchor="middle" class="spec-label">8px ✓</text>
    <text x="600" y="110" text-anchor="middle" class="spec-label">8px ✓</text>

    <!-- Bad examples -->
    <text x="20" y="155" class="heading">✗ BAD — Fails Touch Requirements</text>

    <!-- Bad small button - 28px -->
    <rect x="30" y="175" width="60" height="28" rx="4" fill="#ef4444" opacity="0.7"/>
    <text x="60" y="194" text-anchor="middle" fill="#fff" font-size="11">Go</text>
    <rect x="30" y="175" width="60" height="28" fill="none" stroke="#ef4444" stroke-width="2" stroke-dasharray="4,2"/>
    <text x="60" y="220" text-anchor="middle" class="fail-label">60×28 ✗</text>

    <!-- Bad tiny icon - 28px -->
    <rect x="130" y="175" width="28" height="28" rx="4" fill="#ef4444" opacity="0.7"/>
    <text x="144" y="194" text-anchor="middle" fill="#fff" font-size="10">🔍</text>
    <rect x="130" y="175" width="28" height="28" fill="none" stroke="#ef4444" stroke-width="2" stroke-dasharray="4,2"/>
    <text x="144" y="220" text-anchor="middle" class="fail-label">28×28 ✗</text>

    <!-- Bad cramped spacing - 2px -->
    <rect x="200" y="175" width="36" height="44" rx="4" fill="#ef4444" opacity="0.7"/>
    <text x="218" y="203" text-anchor="middle" fill="#fff">A</text>
    <rect x="238" y="175" width="36" height="44" rx="4" fill="#ef4444" opacity="0.7"/>
    <text x="256" y="203" text-anchor="middle" fill="#fff">B</text>
    <rect x="276" y="175" width="36" height="44" rx="4" fill="#ef4444" opacity="0.7"/>
    <text x="294" y="203" text-anchor="middle" fill="#fff">C</text>

    <!-- 2px gap indicator (bad) -->
    <rect x="236" y="190" width="2" height="14" fill="#ef4444"/>
    <rect x="274" y="190" width="2" height="14" fill="#ef4444"/>
    <text x="256" y="240" text-anchor="middle" class="fail-label">2px gaps ✗</text>

    <!-- Requirements summary -->
    <rect x="500" y="145" width="380" height="140" rx="6" fill="#e8d4b8" stroke="#8b5cf6"/>
    <text x="520" y="170" class="heading-sm">Touch Target Requirements</text>
    <text x="520" y="195" class="text-md">• Minimum size: 44×44px (Apple HIG)</text>
    <text x="520" y="215" class="text-md">• Minimum spacing: 8px between targets</text>
    <text x="520" y="235" class="text-md">• No hover-dependent interactions</text>
    <text x="520" y="255" class="text-md">• Support 200% zoom without breaks</text>
    <text x="520" y="275" class="spec-label">FR-020, FR-021, FR-022, NFR-005</text>
  </g>

  <!-- Spacing visualization -->
  <g transform="translate(40, 390)">
    <rect x="0" y="0" width="400" height="170" rx="8" fill="#f5f0e6" stroke="#b8a080"/>
    <text x="20" y="30" class="heading-sm">8px Minimum Spacing (FR-005)</text>

    <!-- Visual spacing example -->
    <rect x="30" y="50" width="80" height="44" rx="6" fill="#8b5cf6"/>
    <text x="70" y="78" text-anchor="middle" fill="#fff" font-size="12">Button</text>

    <!-- 8px gap visual -->
    <rect x="110" y="50" width="8" height="44" fill="#22c55e" opacity="0.4"/>
    <line x1="114" y1="45" x2="114" y2="100" stroke="#22c55e" stroke-width="1" stroke-dasharray="2,2"/>
    <text x="114" y="115" text-anchor="middle" class="dimension">8px</text>

    <rect x="118" y="50" width="80" height="44" rx="6" fill="#8b5cf6"/>
    <text x="158" y="78" text-anchor="middle" fill="#fff" font-size="12">Button</text>

    <!-- Dimension arrows -->
    <text x="70" y="150" text-anchor="middle" class="text-muted">80px</text>
    <text x="158" y="150" text-anchor="middle" class="text-muted">80px</text>
  </g>

  <!-- No hover states panel -->
  <g transform="translate(460, 390)">
    <rect x="0" y="0" width="480" height="170" rx="8" fill="#f5f0e6" stroke="#b8a080"/>
    <text x="20" y="30" class="heading-sm">No Hover Dependencies (FR-021)</text>

    <!-- Desktop with hover -->
    <text x="20" y="55" class="text-muted">Desktop: Hover reveals tooltip</text>
    <rect x="20" y="65" width="100" height="44" rx="4" fill="#dcc8a8" stroke="#b8a080"/>
    <text x="70" y="92" text-anchor="middle" class="text-sm">Settings</text>
    <rect x="130" y="65" width="80" height="30" rx="4" fill="#1e293b"/>
    <text x="170" y="85" text-anchor="middle" fill="#e8d4b8" font-size="10">Tooltip</text>
    <line x1="120" y1="87" x2="130" y2="80" stroke="#1e293b" stroke-width="1"/>

    <!-- Mobile: tap reveals same info -->
    <text x="250" y="55" class="text-muted">Mobile: Tap shows same info</text>
    <rect x="250" y="65" width="100" height="44" rx="4" fill="#8b5cf6"/>
    <text x="300" y="92" text-anchor="middle" fill="#fff" font-size="12">Settings</text>
    <rect x="360" y="65" width="100" height="44" rx="4" fill="#e8d4b8" stroke="#b8a080"/>
    <text x="410" y="85" text-anchor="middle" class="text-sm">Info shown</text>
    <text x="410" y="102" text-anchor="middle" class="text-sm">on tap</text>

    <!-- Annotation -->
    <rect x="20" y="120" width="440" height="35" rx="4" fill="#e8d4b8" stroke="#22c55e"/>
    <text x="240" y="143" text-anchor="middle" class="spec-label">Essential interactions accessible without hover ✓</text>
  </g>

  <!-- 200% Zoom Demo (FR-022) - NEW -->
  <g transform="translate(40, 580)">
    <rect x="0" y="0" width="400" height="180" rx="8" fill="#f5f0e6" stroke="#b8a080"/>
    <text x="20" y="30" class="heading-sm">200% Zoom Support (FR-022)</text>

    <!-- 100% view -->
    <text x="30" y="55" class="text-muted">100% zoom</text>
    <rect x="30" y="65" width="150" height="80" rx="4" fill="#e8d4b8" stroke="#b8a080"/>
    <rect x="40" y="75" width="60" height="24" rx="3" fill="#8b5cf6"/>
    <text x="70" y="92" text-anchor="middle" fill="#fff" font-size="9">Submit</text>
    <rect x="40" y="105" width="130" height="14" rx="2" fill="#dcc8a8"/>
    <rect x="40" y="125" width="100" height="14" rx="2" fill="#dcc8a8"/>

    <!-- 200% view (scaled 2x) -->
    <text x="200" y="55" class="text-muted">200% zoom - still usable</text>
    <rect x="200" y="65" width="180" height="100" rx="4" fill="#e8d4b8" stroke="#b8a080"/>
    <rect x="210" y="80" width="80" height="30" rx="4" fill="#8b5cf6"/>
    <text x="250" y="100" text-anchor="middle" fill="#fff" font-size="11">Submit</text>
    <rect x="210" y="120" width="160" height="16" rx="2" fill="#dcc8a8"/>
    <rect x="210" y="142" width="120" height="16" rx="2" fill="#dcc8a8"/>

    <rect x="30" y="155" width="350" height="20" rx="4" fill="#22c55e" opacity="0.15" stroke="#22c55e"/>
    <text x="205" y="169" text-anchor="middle" class="spec-label">Layouts support 200% user zoom ✓</text>
  </g>

  <!-- MOBILE SECTION -->
  <text x="980" y="52" class="label-mobile">MOBILE (390px)</text>
  <g transform="translate(980, 60)">
    <rect x="0" y="0" width="360" height="700" rx="24" fill="#c8b898" stroke="#a08860" stroke-width="2"/>
    <rect x="10" y="10" width="340" height="680" rx="16" fill="#e8d4b8"/>

    <!-- Status bar -->
    <rect x="10" y="10" width="340" height="28" rx="16" fill="#dcc8a8"/>
    <text x="30" y="28" class="text-sm">9:41</text>
    <text x="310" y="28" text-anchor="end" class="text-sm">100%</text>

    <!-- Header with proper 44px touch targets -->
    <rect x="20" y="48" width="320" height="54" rx="8" fill="#dcc8a8" stroke="#b8a080"/>
    <rect x="28" y="53" width="44" height="44" rx="6" fill="#e8d4b8" stroke="#b8a080"/>
    <text x="50" y="81" text-anchor="middle" class="text-sm">☰</text>
    <rect x="80" y="53" width="100" height="44" rx="6" fill="#8b5cf6"/>
    <text x="130" y="81" text-anchor="middle" fill="#fff" font-size="10">Script</text>
    <rect x="248" y="53" width="44" height="44" rx="6" fill="#e8d4b8" stroke="#b8a080"/>
    <text x="270" y="81" text-anchor="middle" class="text-sm">🔍</text>
    <rect x="300" y="53" width="44" height="44" rx="6" fill="#8b5cf6"/>
    <text x="322" y="81" text-anchor="middle" fill="#fff" font-size="10">👤</text>

    <!-- Touch target overlay -->
    <rect x="28" y="53" width="44" height="44" fill="none" stroke="#22c55e" stroke-width="2" stroke-dasharray="4,2"/>
    <text x="50" y="110" text-anchor="middle" class="spec-label">44px ✓</text>

    <!-- Content with tappable cards -->
    <rect x="20" y="120" width="320" height="540" rx="8" fill="#f5f0e6" stroke="#b8a080"/>

    <text x="35" y="145" class="heading-sm">Touch Targets Demo</text>

    <!-- Card 1 - full width tappable -->
    <rect x="30" y="160" width="300" height="70" rx="6" fill="#e8d4b8" stroke="#b8a080"/>
    <text x="50" y="190" class="text-md">Blog Post Title</text>
    <text x="50" y="210" class="text-muted">Tap anywhere on card</text>
    <rect x="30" y="160" width="300" height="70" fill="none" stroke="#22c55e" stroke-width="1" stroke-dasharray="4,2"/>
    <text x="280" y="220" class="spec-label">70px ✓</text>

    <!-- 10px gap -->
    <text x="180" y="245" text-anchor="middle" class="spec-label">10px gap</text>

    <!-- Card 2 -->
    <rect x="30" y="250" width="300" height="70" rx="6" fill="#e8d4b8" stroke="#b8a080"/>
    <text x="50" y="280" class="text-md">Another Post</text>
    <text x="50" y="300" class="text-muted">Full card is tap target</text>

    <!-- 10px gap -->
    <text x="180" y="335" text-anchor="middle" class="spec-label">10px gap</text>

    <!-- Card 3 -->
    <rect x="30" y="340" width="300" height="70" rx="6" fill="#e8d4b8" stroke="#b8a080"/>
    <text x="50" y="370" class="text-md">Third Post Here</text>
    <text x="50" y="390" class="text-muted">Easy to tap accurately</text>

    <!-- Action buttons row - ALL 44px -->
    <text x="35" y="435" class="heading-sm">Action Buttons (44px)</text>

    <rect x="30" y="450" width="95" height="44" rx="6" fill="#8b5cf6"/>
    <text x="77" y="478" text-anchor="middle" fill="#fff" font-size="12">Save</text>

    <rect x="135" y="450" width="95" height="44" rx="6" fill="#dcc8a8" stroke="#b8a080"/>
    <text x="182" y="478" text-anchor="middle" class="text-md">Cancel</text>

    <rect x="240" y="450" width="90" height="44" rx="6" fill="#ef4444"/>
    <text x="285" y="478" text-anchor="middle" fill="#fff" font-size="12">Delete</text>

    <!-- Spacing labels -->
    <text x="130" y="510" text-anchor="middle" class="spec-label">10px</text>
    <text x="235" y="510" text-anchor="middle" class="spec-label">10px</text>

    <!-- FAB example -->
    <circle cx="300" cy="600" r="28" fill="#8b5cf6"/>
    <text x="300" y="606" text-anchor="middle" fill="#fff" font-size="20">+</text>
    <circle cx="300" cy="600" r="28" fill="none" stroke="#22c55e" stroke-width="2" stroke-dasharray="4,2"/>
    <text x="300" y="640" text-anchor="middle" class="spec-label">56px ✓</text>
  </g>

  <!-- Requirements panel -->
  <g transform="translate(460, 580)">
    <rect x="0" y="0" width="480" height="180" rx="8" fill="#f5f0e6" stroke="#b8a080"/>
    <text x="20" y="30" class="heading-sm">Touch Interaction Requirements</text>

    <rect x="20" y="50" width="220" height="50" rx="4" fill="#e8d4b8" stroke="#22c55e" stroke-width="2"/>
    <text x="35" y="72" class="spec-label">FR-020</text>
    <text x="35" y="90" class="text-sm">All interactive ≥ 44×44px</text>

    <rect x="250" y="50" width="210" height="50" rx="4" fill="#e8d4b8" stroke="#22c55e" stroke-width="2"/>
    <text x="265" y="72" class="spec-label">FR-021</text>
    <text x="265" y="90" class="text-sm">No hover-only interactions</text>

    <rect x="20" y="110" width="220" height="50" rx="4" fill="#e8d4b8" stroke="#22c55e" stroke-width="2"/>
    <text x="35" y="132" class="spec-label">FR-022</text>
    <text x="35" y="150" class="text-sm">200% zoom without breaks</text>

    <rect x="250" y="110" width="210" height="50" rx="4" fill="#22c55e" opacity="0.15" stroke="#22c55e"/>
    <text x="355" y="140" text-anchor="middle" class="heading-sm" fill="#22c55e">✓ Apple HIG</text>
  </g>

  <!-- Footer -->
  <text x="700" y="785" text-anchor="middle" class="text-muted">Touch Targets • Feature 004 • ScriptHammer</text>
</svg>
