<svg xmlns="http://www.w3.org/2000/svg" viewBox="0 0 1400 800" width="1400" height="800">
  <!-- ============================================================
       GENERATED BY: /wireframe skill
       SOURCE: features/foundation/004-mobile-first-design/spec.md
       DATE: 2026-01-01
       THEME: Light (UX/Frontend) - v3 True Parchment
       ============================================================ -->
  <defs>
    <linearGradient id="bgGrad" x1="0%" y1="0%" x2="100%" y2="100%">
      <stop offset="0%" style="stop-color:#c7ddf5"/>
      <stop offset="100%" style="stop-color:#b8d4f0"/>
    </linearGradient>
    <linearGradient id="accentGrad" x1="0%" y1="0%" x2="100%" y2="0%">
      <stop offset="0%" style="stop-color:#8b5cf6"/>
      <stop offset="100%" style="stop-color:#d946ef"/>
    </linearGradient>
    <style>
      .heading-lg { fill: #1a1a2e; font-family: system-ui, sans-serif; font-size: 24px; font-weight: 800; }
      .heading { fill: #1a1a2e; font-family: system-ui, sans-serif; font-size: 16px; font-weight: 700; }
      .text-md { fill: #2d3748; font-family: system-ui, sans-serif; font-size: 14px; font-weight: 500; }
      .text-sm { fill: #4a5568; font-family: system-ui, sans-serif; font-size: 12px; font-weight: 500; }
      .text-muted { fill: #5a6577; font-family: system-ui, sans-serif; font-size: 11px; font-weight: 500; }
      .annotation { fill: #6d28d9; font-family: monospace; font-size: 11px; font-weight: 600; }
      .label-desktop { fill: #8b5cf6; font-family: monospace; font-size: 13px; font-weight: bold; }
      .label-mobile { fill: #d946ef; font-family: monospace; font-size: 13px; font-weight: bold; }
      .spec-label { fill: #22c55e; font-family: monospace; font-size: 10px; font-weight: 600; }
      .fail-label { fill: #ef4444; font-family: monospace; font-size: 10px; font-weight: 600; }
      .dimension { fill: #ef4444; font-family: monospace; font-size: 10px; font-weight: 600; }
    </style>
  </defs>

  <!-- Background -->
  <rect width="1400" height="800" fill="url(#bgGrad)"/>
  <g opacity="0.35">
    <pattern id="dots" width="30" height="30" patternUnits="userSpaceOnUse">
      <circle cx="15" cy="15" r="1" fill="#6b8cba"/>
    </pattern>
    <rect width="1400" height="800" fill="url(#dots)"/>
  </g>
  <rect x="0" y="0" width="1400" height="3" fill="url(#accentGrad)"/>

  <!-- Title -->
  <text x="700" y="28" text-anchor="middle" font-family="system-ui, sans-serif" font-size="14" font-weight="600" fill="#5a6577" letter-spacing="1">TOUCH-FRIENDLY INTERACTIONS — FR-020 TO FR-022</text>

  <!-- DESKTOP SECTION -->
  <text x="40" y="52" class="label-desktop">TOUCH TARGET COMPARISON</text>

  <!-- Good vs Bad comparison -->
  <g transform="translate(40, 70)">
    <rect x="0" y="0" width="900" height="320" rx="8" fill="#f5f0e6" stroke="#b8a080"/>

    <!-- Good examples -->
    <text x="20" y="35" class="heading">✓ GOOD — Meets 44x44px Minimum</text>

    <!-- Good button -->
    <rect x="30" y="55" width="120" height="44" rx="6" fill="#8b5cf6"/>
    <text x="90" y="82" text-anchor="middle" fill="#fff" font-size="14">Submit</text>
    <rect x="30" y="55" width="120" height="44" fill="none" stroke="#22c55e" stroke-width="2" stroke-dasharray="4,2"/>
    <text x="90" y="115" text-anchor="middle" class="spec-label">120x44 ✓</text>

    <!-- Good icon button -->
    <rect x="180" y="55" width="44" height="44" rx="6" fill="#dcc8a8" stroke="#b8a080"/>
    <text x="202" y="82" text-anchor="middle" class="text-md">🔍</text>
    <rect x="180" y="55" width="44" height="44" fill="none" stroke="#22c55e" stroke-width="2" stroke-dasharray="4,2"/>
    <text x="202" y="115" text-anchor="middle" class="spec-label">44x44 ✓</text>

    <!-- Good nav item -->
    <rect x="260" y="55" width="200" height="50" rx="6" fill="#e8d4b8" stroke="#b8a080"/>
    <text x="280" y="85" class="heading">📁 Projects</text>
    <rect x="260" y="55" width="200" height="50" fill="none" stroke="#22c55e" stroke-width="2" stroke-dasharray="4,2"/>
    <text x="360" y="120" text-anchor="middle" class="spec-label">200x50 ✓</text>

    <!-- Good with 8px spacing -->
    <rect x="500" y="55" width="44" height="44" rx="6" fill="#8b5cf6"/>
    <text x="522" y="82" text-anchor="middle" fill="#fff">A</text>
    <rect x="552" y="55" width="44" height="44" rx="6" fill="#8b5cf6"/>
    <text x="574" y="82" text-anchor="middle" fill="#fff">B</text>
    <rect x="604" y="55" width="44" height="44" rx="6" fill="#8b5cf6"/>
    <text x="626" y="82" text-anchor="middle" fill="#fff">C</text>

    <!-- 8px gap indicators -->
    <rect x="544" y="70" width="8" height="14" fill="#22c55e" opacity="0.3"/>
    <rect x="596" y="70" width="8" height="14" fill="#22c55e" opacity="0.3"/>
    <text x="548" y="115" text-anchor="middle" class="spec-label">8px ✓</text>
    <text x="600" y="115" text-anchor="middle" class="spec-label">8px ✓</text>

    <!-- Bad examples -->
    <text x="20" y="165" class="heading">✗ BAD — Fails Touch Requirements</text>

    <!-- Bad small button -->
    <rect x="30" y="185" width="60" height="28" rx="4" fill="#ef4444" opacity="0.7"/>
    <text x="60" y="204" text-anchor="middle" fill="#fff" font-size="11">Go</text>
    <rect x="30" y="185" width="60" height="28" fill="none" stroke="#ef4444" stroke-width="2" stroke-dasharray="4,2"/>
    <text x="60" y="230" text-anchor="middle" class="fail-label">60x28 ✗</text>

    <!-- Bad tiny icon -->
    <rect x="130" y="185" width="28" height="28" rx="4" fill="#ef4444" opacity="0.7"/>
    <text x="144" y="204" text-anchor="middle" fill="#fff" font-size="10">🔍</text>
    <rect x="130" y="185" width="28" height="28" fill="none" stroke="#ef4444" stroke-width="2" stroke-dasharray="4,2"/>
    <text x="144" y="230" text-anchor="middle" class="fail-label">28x28 ✗</text>

    <!-- Bad cramped spacing -->
    <rect x="200" y="185" width="36" height="44" rx="4" fill="#ef4444" opacity="0.7"/>
    <text x="218" y="212" text-anchor="middle" fill="#fff">A</text>
    <rect x="238" y="185" width="36" height="44" rx="4" fill="#ef4444" opacity="0.7"/>
    <text x="256" y="212" text-anchor="middle" fill="#fff">B</text>
    <rect x="276" y="185" width="36" height="44" rx="4" fill="#ef4444" opacity="0.7"/>
    <text x="294" y="212" text-anchor="middle" fill="#fff">C</text>

    <!-- 2px gap indicator (bad) -->
    <rect x="236" y="200" width="2" height="14" fill="#ef4444"/>
    <rect x="274" y="200" width="2" height="14" fill="#ef4444"/>
    <text x="256" y="250" text-anchor="middle" class="fail-label">2px gaps ✗</text>

    <!-- Requirements summary -->
    <rect x="500" y="165" width="380" height="130" rx="6" fill="#e8d4b8" stroke="#8b5cf6"/>
    <text x="520" y="190" class="heading">Touch Target Requirements</text>
    <text x="520" y="215" class="text-md">• Minimum size: 44x44px (Apple HIG)</text>
    <text x="520" y="240" class="text-md">• Minimum spacing: 8px between targets</text>
    <text x="520" y="265" class="text-md">• No hover-dependent interactions</text>
    <text x="520" y="285" class="spec-label">FR-020, FR-021, NFR-005</text>
  </g>

  <!-- Spacing visualization -->
  <g transform="translate(40, 410)">
    <rect x="0" y="0" width="400" height="180" rx="8" fill="#f5f0e6" stroke="#b8a080"/>
    <text x="20" y="30" class="heading">8px Minimum Spacing (FR-005)</text>

    <!-- Visual spacing example -->
    <rect x="30" y="50" width="80" height="44" rx="6" fill="#8b5cf6"/>
    <text x="70" y="77" text-anchor="middle" fill="#fff" font-size="12">Button</text>

    <!-- 8px gap visual -->
    <rect x="110" y="50" width="8" height="44" fill="#22c55e" opacity="0.4"/>
    <line x1="114" y1="45" x2="114" y2="100" stroke="#22c55e" stroke-width="1" stroke-dasharray="2,2"/>
    <text x="114" y="115" text-anchor="middle" class="dimension">8px</text>

    <rect x="118" y="50" width="80" height="44" rx="6" fill="#8b5cf6"/>
    <text x="158" y="77" text-anchor="middle" fill="#fff" font-size="12">Button</text>

    <!-- Dimension arrows -->
    <line x1="30" y1="140" x2="110" y2="140" stroke="#5a6577" stroke-width="1"/>
    <line x1="118" y1="140" x2="198" y2="140" stroke="#5a6577" stroke-width="1"/>
    <text x="70" y="160" text-anchor="middle" class="text-muted">80px</text>
    <text x="158" y="160" text-anchor="middle" class="text-muted">80px</text>
  </g>

  <!-- No hover states panel -->
  <g transform="translate(460, 410)">
    <rect x="0" y="0" width="480" height="180" rx="8" fill="#f5f0e6" stroke="#b8a080"/>
    <text x="20" y="30" class="heading">No Hover Dependencies (FR-021)</text>

    <!-- Desktop with hover -->
    <text x="20" y="60" class="text-muted">Desktop: Hover reveals tooltip</text>
    <rect x="20" y="70" width="100" height="36" rx="4" fill="#dcc8a8" stroke="#b8a080"/>
    <text x="70" y="93" text-anchor="middle" class="text-sm">Settings</text>
    <rect x="130" y="65" width="80" height="28" rx="4" fill="#1e293b"/>
    <text x="170" y="84" text-anchor="middle" fill="#e8d4b8" font-size="10">Tooltip</text>
    <line x1="120" y1="88" x2="130" y2="79" stroke="#1e293b" stroke-width="1"/>

    <!-- Mobile: tap reveals same info -->
    <text x="250" y="60" class="text-muted">Mobile: Tap shows same info</text>
    <rect x="250" y="70" width="100" height="44" rx="4" fill="#8b5cf6"/>
    <text x="300" y="97" text-anchor="middle" fill="#fff" font-size="12">Settings</text>
    <rect x="360" y="70" width="100" height="44" rx="4" fill="#e8d4b8" stroke="#b8a080"/>
    <text x="410" y="90" text-anchor="middle" class="text-sm">Info shown</text>
    <text x="410" y="105" text-anchor="middle" class="text-sm">on tap</text>

    <!-- Annotation -->
    <rect x="20" y="125" width="440" height="40" rx="4" fill="#e8d4b8" stroke="#22c55e"/>
    <text x="240" y="150" text-anchor="middle" class="spec-label">Essential interactions accessible without hover ✓</text>
  </g>

  <!-- MOBILE SECTION -->
  <text x="980" y="52" class="label-mobile">MOBILE (390px)</text>
  <g transform="translate(980, 60)">
    <rect x="0" y="0" width="360" height="700" rx="24" fill="#c8b898" stroke="#a08860" stroke-width="2"/>
    <rect x="10" y="10" width="340" height="680" rx="16" fill="#e8d4b8"/>

    <!-- Status bar -->
    <rect x="10" y="10" width="340" height="28" rx="16" fill="#dcc8a8"/>
    <text x="30" y="28" class="text-sm">9:41</text>
    <text x="310" y="28" class="text-sm">📶 🔋</text>

    <!-- Header with proper touch targets -->
    <rect x="20" y="48" width="320" height="50" rx="8" fill="#dcc8a8" stroke="#b8a080"/>
    <rect x="30" y="53" width="44" height="40" rx="6" fill="#e8d4b8" stroke="#b8a080"/>
    <text x="52" y="78" text-anchor="middle" class="text-sm">☰</text>
    <rect x="82" y="53" width="90" height="40" rx="6" fill="#8b5cf6"/>
    <text x="127" y="78" text-anchor="middle" fill="#fff" font-size="10">Script</text>
    <rect x="250" y="53" width="44" height="40" rx="6" fill="#e8d4b8" stroke="#b8a080"/>
    <text x="272" y="78" text-anchor="middle" class="text-sm">🔍</text>
    <rect x="300" y="53" width="36" height="40" rx="6" fill="#8b5cf6"/>
    <text x="318" y="78" text-anchor="middle" fill="#fff" font-size="10">👤</text>

    <!-- Touch target overlay -->
    <rect x="30" y="53" width="44" height="40" fill="none" stroke="#22c55e" stroke-width="2" stroke-dasharray="4,2"/>

    <!-- Content with tappable cards -->
    <rect x="20" y="108" width="320" height="540" rx="8" fill="#f5f0e6" stroke="#b8a080"/>

    <text x="35" y="135" class="heading">Touch Targets Demo</text>

    <!-- Card 1 - full width tappable -->
    <rect x="30" y="150" width="300" height="70" rx="6" fill="#e8d4b8" stroke="#b8a080"/>
    <text x="50" y="180" class="text-md">Blog Post Title</text>
    <text x="50" y="200" class="text-muted">Tap anywhere on card</text>
    <rect x="30" y="150" width="300" height="70" fill="none" stroke="#22c55e" stroke-width="1" stroke-dasharray="4,2"/>
    <text x="280" y="210" class="spec-label">70px ✓</text>

    <!-- Card 2 -->
    <rect x="30" y="230" width="300" height="70" rx="6" fill="#e8d4b8" stroke="#b8a080"/>
    <text x="50" y="260" class="text-md">Another Post</text>
    <text x="50" y="280" class="text-muted">Full card is tap target</text>

    <!-- 8px gap indicator between cards -->
    <text x="180" y="225" text-anchor="middle" class="dimension">8px gap</text>

    <!-- Card 3 -->
    <rect x="30" y="310" width="300" height="70" rx="6" fill="#e8d4b8" stroke="#b8a080"/>
    <text x="50" y="340" class="text-md">Third Post Here</text>
    <text x="50" y="360" class="text-muted">Easy to tap accurately</text>

    <!-- Action buttons row -->
    <text x="35" y="415" class="heading">Action Buttons</text>

    <rect x="30" y="430" width="100" height="44" rx="6" fill="#8b5cf6"/>
    <text x="80" y="457" text-anchor="middle" fill="#fff" font-size="12">Save</text>

    <rect x="140" y="430" width="100" height="44" rx="6" fill="#dcc8a8" stroke="#b8a080"/>
    <text x="190" y="457" text-anchor="middle" class="text-md">Cancel</text>

    <rect x="250" y="430" width="80" height="44" rx="6" fill="#ef4444"/>
    <text x="290" y="457" text-anchor="middle" fill="#fff" font-size="12">Delete</text>

    <!-- 10px gaps between buttons -->
    <text x="135" y="490" text-anchor="middle" class="spec-label">10px</text>
    <text x="245" y="490" text-anchor="middle" class="spec-label">10px</text>

    <!-- FAB example -->
    <circle cx="300" cy="600" r="28" fill="#8b5cf6"/>
    <text x="300" y="606" text-anchor="middle" fill="#fff" font-size="18">+</text>
    <circle cx="300" cy="600" r="28" fill="none" stroke="#22c55e" stroke-width="2" stroke-dasharray="4,2"/>
    <text x="300" y="640" text-anchor="middle" class="spec-label">56px ✓</text>
  </g>

  <!-- Requirements panel -->
  <g transform="translate(40, 610)">
    <rect x="0" y="0" width="900" height="160" rx="8" fill="#f5f0e6" stroke="#b8a080"/>
    <text x="20" y="30" class="heading">Touch Interaction Requirements</text>

    <rect x="20" y="50" width="270" height="50" rx="4" fill="#e8d4b8" stroke="#22c55e" stroke-width="2"/>
    <text x="35" y="72" class="spec-label">FR-020</text>
    <text x="35" y="90" class="text-sm">All interactive ≥ 44x44px</text>

    <rect x="310" y="50" width="270" height="50" rx="4" fill="#e8d4b8" stroke="#22c55e" stroke-width="2"/>
    <text x="325" y="72" class="spec-label">FR-021</text>
    <text x="325" y="90" class="text-sm">No hover-only interactions</text>

    <rect x="600" y="50" width="280" height="50" rx="4" fill="#e8d4b8" stroke="#22c55e" stroke-width="2"/>
    <text x="615" y="72" class="spec-label">FR-022</text>
    <text x="615" y="90" class="text-sm">200% zoom without breaks</text>

    <rect x="20" y="110" width="860" height="35" rx="4" fill="#22c55e" opacity="0.15" stroke="#22c55e"/>
    <text x="450" y="133" text-anchor="middle" class="heading" fill="#22c55e">✓ All touch targets meet Apple Human Interface Guidelines</text>
  </g>
</svg>
