<svg xmlns="http://www.w3.org/2000/svg" viewBox="0 0 1400 800" width="1400" height="800">
  <!-- ============================================================
       GENERATED BY: /wireframe skill
       SOURCE: features/foundation/004-mobile-first-design/spec.md
       DATE: 2026-01-01
       THEME: Light (UX/Frontend) - v3 True Parchment
       ============================================================ -->
  <defs>
    <linearGradient id="bgGrad" x1="0%" y1="0%" x2="100%" y2="100%">
      <stop offset="0%" style="stop-color:#c7ddf5"/>
      <stop offset="100%" style="stop-color:#b8d4f0"/>
    </linearGradient>
    <linearGradient id="accentGrad" x1="0%" y1="0%" x2="100%" y2="0%">
      <stop offset="0%" style="stop-color:#8b5cf6"/>
      <stop offset="100%" style="stop-color:#d946ef"/>
    </linearGradient>
    <style>
      .heading-lg { fill: #1a1a2e; font-family: system-ui, sans-serif; font-size: 24px; font-weight: 800; }
      .heading { fill: #1a1a2e; font-family: system-ui, sans-serif; font-size: 16px; font-weight: 700; }
      .text-md { fill: #2d3748; font-family: system-ui, sans-serif; font-size: 14px; font-weight: 500; }
      .text-sm { fill: #4a5568; font-family: system-ui, sans-serif; font-size: 12px; font-weight: 500; }
      .text-muted { fill: #5a6577; font-family: system-ui, sans-serif; font-size: 11px; font-weight: 500; }
      .annotation { fill: #6d28d9; font-family: monospace; font-size: 11px; font-weight: 600; }
      .label-desktop { fill: #8b5cf6; font-family: monospace; font-size: 13px; font-weight: bold; }
      .label-mobile { fill: #d946ef; font-family: monospace; font-size: 13px; font-weight: bold; }
      .spec-label { fill: #22c55e; font-family: monospace; font-size: 10px; font-weight: 600; }
      .code-text { fill: #cbd5e1; font-family: monospace; font-size: 10px; }
    </style>
  </defs>

  <!-- Background -->
  <rect width="1400" height="800" fill="url(#bgGrad)"/>
  <g opacity="0.35">
    <pattern id="dots" width="30" height="30" patternUnits="userSpaceOnUse">
      <circle cx="15" cy="15" r="1" fill="#6b8cba"/>
    </pattern>
    <rect width="1400" height="800" fill="url(#dots)"/>
  </g>
  <rect x="0" y="0" width="1400" height="3" fill="url(#accentGrad)"/>

  <!-- Title -->
  <text x="700" y="28" text-anchor="middle" font-family="system-ui, sans-serif" font-size="14" font-weight="600" fill="#5a6577" letter-spacing="1">BREAKPOINT SYSTEM — NFR-001 MOBILE-FIRST CSS</text>

  <!-- Breakpoint spectrum bar -->
  <g transform="translate(40, 50)">
    <text x="0" y="0" class="heading">Breakpoint Spectrum</text>

    <!-- Base bar -->
    <rect x="0" y="15" width="1320" height="40" rx="6" fill="#e8d4b8" stroke="#b8a080"/>

    <!-- Mobile section (320-767) -->
    <rect x="0" y="15" width="400" height="40" rx="6" fill="#d946ef" opacity="0.3"/>
    <text x="200" y="42" text-anchor="middle" class="label-mobile">MOBILE (320-767px)</text>

    <!-- Tablet section (768-1023) -->
    <rect x="400" y="15" width="350" height="40" fill="#8b5cf6" opacity="0.3"/>
    <text x="575" y="42" text-anchor="middle" class="label-desktop">TABLET (768-1023px)</text>

    <!-- Desktop section (1024+) -->
    <rect x="750" y="15" width="570" height="40" rx="6" fill="#22c55e" opacity="0.2"/>
    <text x="1035" y="42" text-anchor="middle" fill="#22c55e" font-family="monospace" font-size="13px" font-weight="bold">DESKTOP (1024px+)</text>

    <!-- Breakpoint markers -->
    <line x1="0" y1="60" x2="0" y2="75" stroke="#d946ef" stroke-width="2"/>
    <text x="0" y="90" text-anchor="middle" class="text-muted">320px</text>

    <line x1="400" y1="60" x2="400" y2="75" stroke="#8b5cf6" stroke-width="2"/>
    <text x="400" y="90" text-anchor="middle" class="text-muted">768px</text>

    <line x1="750" y1="60" x2="750" y2="75" stroke="#22c55e" stroke-width="2"/>
    <text x="750" y="90" text-anchor="middle" class="text-muted">1024px</text>
  </g>

  <!-- CSS Code Panel -->
  <g transform="translate(40, 160)">
    <rect x="0" y="0" width="600" height="280" rx="8" fill="#1e293b"/>
    <text x="20" y="25" fill="#8b5cf6" font-family="monospace" font-size="12" font-weight="bold">/* Mobile-First CSS (NFR-002) */</text>

    <text x="20" y="55" class="code-text">/* Base styles (mobile-first) */</text>
    <text x="20" y="75" class="code-text">.nav-links { display: none; }</text>
    <text x="20" y="95" class="code-text">.hamburger { display: flex; }</text>
    <text x="20" y="115" class="code-text">body { font-size: 16px; }</text>

    <text x="20" y="145" class="code-text">/* Tablet enhancement */</text>
    <text x="20" y="165" class="code-text">@media (min-width: 768px) {</text>
    <text x="30" y="185" class="code-text">  .nav-links { display: flex; }</text>
    <text x="30" y="205" class="code-text">  .hamburger { display: none; }</text>
    <text x="20" y="225" class="code-text">}</text>

    <text x="20" y="255" class="code-text">/* Desktop enhancement */</text>
    <text x="20" y="275" class="code-text">@media (min-width: 1024px) { ... }</text>

    <!-- Annotation -->
    <rect x="420" y="60" width="160" height="50" rx="4" fill="#334155" stroke="#8b5cf6"/>
    <text x="500" y="85" text-anchor="middle" class="annotation">Mobile base</text>
    <text x="500" y="100" text-anchor="middle" class="spec-label">NFR-002 ✓</text>
  </g>

  <!-- Device comparison -->
  <g transform="translate(660, 160)">
    <rect x="0" y="0" width="700" height="280" rx="8" fill="#f5f0e6" stroke="#b8a080"/>
    <text x="20" y="30" class="heading">Progressive Enhancement</text>

    <!-- Mobile preview -->
    <g transform="translate(20, 50)">
      <text x="0" y="0" class="label-mobile">320px</text>
      <rect x="0" y="10" width="120" height="200" rx="12" fill="#c8b898" stroke="#a08860"/>
      <rect x="5" y="15" width="110" height="190" rx="8" fill="#e8d4b8"/>

      <!-- Mobile header -->
      <rect x="10" y="25" width="100" height="25" rx="4" fill="#dcc8a8"/>
      <rect x="15" y="30" width="15" height="15" rx="2" fill="#8b5cf6"/>
      <rect x="35" y="30" width="40" height="15" rx="2" fill="#8b5cf6"/>
      <rect x="90" y="30" width="15" height="15" rx="2" fill="#dcc8a8" stroke="#b8a080"/>

      <!-- Mobile content -->
      <rect x="10" y="55" width="100" height="140" rx="4" fill="#f5f0e6"/>
      <rect x="15" y="60" width="90" height="8" rx="1" fill="#dcc8a8"/>
      <rect x="15" y="73" width="70" height="6" rx="1" fill="#dcc8a8"/>
      <rect x="15" y="84" width="85" height="6" rx="1" fill="#dcc8a8"/>
    </g>

    <!-- Arrow -->
    <text x="165" y="165" fill="#8b5cf6" font-size="24">→</text>

    <!-- Tablet preview -->
    <g transform="translate(200, 50)">
      <text x="0" y="0" class="label-desktop">768px</text>
      <rect x="0" y="10" width="180" height="200" rx="8" fill="#c8b898" stroke="#a08860"/>
      <rect x="5" y="15" width="170" height="190" rx="4" fill="#e8d4b8"/>

      <!-- Tablet header -->
      <rect x="10" y="25" width="155" height="25" rx="4" fill="#dcc8a8"/>
      <rect x="15" y="30" width="50" height="15" rx="2" fill="#8b5cf6"/>
      <text x="75" y="42" class="text-muted">Home</text>
      <text x="105" y="42" class="text-muted">Blog</text>
      <rect x="140" y="30" width="20" height="15" rx="2" fill="#dcc8a8" stroke="#b8a080"/>

      <!-- Tablet content - 2 columns -->
      <rect x="10" y="55" width="155" height="140" rx="4" fill="#f5f0e6"/>
      <rect x="15" y="60" width="70" height="60" rx="2" fill="#dcc8a8"/>
      <rect x="90" y="60" width="70" height="60" rx="2" fill="#dcc8a8"/>
      <rect x="15" y="125" width="145" height="8" rx="1" fill="#dcc8a8"/>
    </g>

    <!-- Arrow -->
    <text x="405" y="165" fill="#22c55e" font-size="24">→</text>

    <!-- Desktop preview -->
    <g transform="translate(440, 50)">
      <text x="0" y="0" fill="#22c55e" font-family="monospace" font-size="13px" font-weight="bold">1024px+</text>
      <rect x="0" y="10" width="240" height="200" rx="4" fill="#c8b898" stroke="#a08860"/>
      <rect x="5" y="15" width="230" height="190" rx="2" fill="#e8d4b8"/>

      <!-- Desktop header -->
      <rect x="10" y="25" width="220" height="25" rx="4" fill="#dcc8a8"/>
      <rect x="15" y="30" width="60" height="15" rx="2" fill="#8b5cf6"/>
      <text x="85" y="42" class="text-muted">Home</text>
      <text x="115" y="42" class="text-muted">Blog</text>
      <text x="145" y="42" class="text-muted">About</text>
      <rect x="185" y="30" width="20" height="15" rx="2" fill="#dcc8a8" stroke="#b8a080"/>
      <rect x="210" y="30" width="15" height="15" rx="2" fill="#8b5cf6"/>

      <!-- Desktop content - 3 columns -->
      <rect x="10" y="55" width="220" height="140" rx="4" fill="#f5f0e6"/>
      <rect x="15" y="60" width="65" height="90" rx="2" fill="#dcc8a8"/>
      <rect x="85" y="60" width="65" height="90" rx="2" fill="#dcc8a8"/>
      <rect x="155" y="60" width="70" height="90" rx="2" fill="#dcc8a8"/>
      <rect x="15" y="160" width="210" height="8" rx="1" fill="#dcc8a8"/>
    </g>
  </g>

  <!-- Mobile Breakpoints Detail -->
  <g transform="translate(40, 460)">
    <rect x="0" y="0" width="650" height="310" rx="8" fill="#f5f0e6" stroke="#b8a080"/>
    <text x="20" y="30" class="heading">Mobile Device Breakpoints (FR-028)</text>

    <!-- 320px -->
    <g transform="translate(20, 50)">
      <rect x="0" y="0" width="140" height="120" rx="6" fill="#e8d4b8" stroke="#d946ef" stroke-width="2"/>
      <text x="70" y="25" text-anchor="middle" class="label-mobile">320px</text>
      <text x="70" y="45" text-anchor="middle" class="text-muted">iPhone SE</text>
      <text x="70" y="65" text-anchor="middle" class="text-muted">Min width</text>
      <rect x="20" y="80" width="100" height="30" rx="4" fill="#dcc8a8" stroke="#b8a080"/>
      <text x="70" y="100" text-anchor="middle" class="text-sm">Constrained</text>
    </g>

    <!-- 375px -->
    <g transform="translate(175, 50)">
      <rect x="0" y="0" width="140" height="120" rx="6" fill="#e8d4b8" stroke="#d946ef" stroke-width="2"/>
      <text x="70" y="25" text-anchor="middle" class="label-mobile">375px</text>
      <text x="70" y="45" text-anchor="middle" class="text-muted">iPhone 13 Mini</text>
      <text x="70" y="65" text-anchor="middle" class="text-muted">Compact</text>
      <rect x="20" y="80" width="100" height="30" rx="4" fill="#dcc8a8" stroke="#b8a080"/>
      <text x="70" y="100" text-anchor="middle" class="text-sm">Comfortable</text>
    </g>

    <!-- 390px -->
    <g transform="translate(330, 50)">
      <rect x="0" y="0" width="140" height="120" rx="6" fill="#e8d4b8" stroke="#d946ef" stroke-width="2"/>
      <text x="70" y="25" text-anchor="middle" class="label-mobile">390px</text>
      <text x="70" y="45" text-anchor="middle" class="text-muted">iPhone 12-14</text>
      <text x="70" y="65" text-anchor="middle" class="text-muted">Most common</text>
      <rect x="20" y="80" width="100" height="30" rx="4" fill="#8b5cf6"/>
      <text x="70" y="100" text-anchor="middle" fill="#fff" font-size="11">Primary</text>
    </g>

    <!-- 428px -->
    <g transform="translate(485, 50)">
      <rect x="0" y="0" width="140" height="120" rx="6" fill="#e8d4b8" stroke="#d946ef" stroke-width="2"/>
      <text x="70" y="25" text-anchor="middle" class="label-mobile">428px</text>
      <text x="70" y="45" text-anchor="middle" class="text-muted">iPhone Pro Max</text>
      <text x="70" y="65" text-anchor="middle" class="text-muted">Large mobile</text>
      <rect x="20" y="80" width="100" height="30" rx="4" fill="#dcc8a8" stroke="#b8a080"/>
      <text x="70" y="100" text-anchor="middle" class="text-sm">Spacious</text>
    </g>

    <!-- Test requirement -->
    <rect x="20" y="185" width="610" height="50" rx="4" fill="#e8d4b8" stroke="#22c55e" stroke-width="2"/>
    <text x="325" y="210" text-anchor="middle" class="text-md">✓ Automated tests validate layouts at all 4 breakpoints</text>
    <text x="325" y="225" text-anchor="middle" class="spec-label">FR-028: Test 320px, 375px, 390px, 428px</text>

    <!-- Landscape note -->
    <rect x="20" y="245" width="610" height="50" rx="4" fill="#e8d4b8" stroke="#8b5cf6"/>
    <text x="325" y="270" text-anchor="middle" class="text-md">FR-019: Landscape mobile maintains mobile styles</text>
    <text x="325" y="285" text-anchor="middle" class="annotation">iPhone 12 @ 844x390 landscape → still mobile UI</text>
  </g>

  <!-- Requirements panel -->
  <g transform="translate(710, 460)">
    <rect x="0" y="0" width="650" height="310" rx="8" fill="#f5f0e6" stroke="#b8a080"/>
    <text x="20" y="30" class="heading">Breakpoint Requirements</text>

    <rect x="20" y="50" width="300" height="60" rx="4" fill="#e8d4b8" stroke="#22c55e" stroke-width="2"/>
    <text x="35" y="72" class="spec-label">NFR-001</text>
    <text x="35" y="92" class="text-sm">320-767px mobile, 768-1023px tablet, 1024px+ desktop</text>

    <rect x="330" y="50" width="300" height="60" rx="4" fill="#e8d4b8" stroke="#22c55e" stroke-width="2"/>
    <text x="345" y="72" class="spec-label">NFR-002</text>
    <text x="345" y="92" class="text-sm">Mobile-first CSS: base styles for mobile</text>

    <rect x="20" y="120" width="300" height="60" rx="4" fill="#e8d4b8" stroke="#22c55e" stroke-width="2"/>
    <text x="35" y="142" class="spec-label">NFR-003</text>
    <text x="35" y="162" class="text-sm">320px minimum, narrower = degraded</text>

    <rect x="330" y="120" width="300" height="60" rx="4" fill="#e8d4b8" stroke="#22c55e" stroke-width="2"/>
    <text x="345" y="142" class="spec-label">FR-017</text>
    <text x="345" y="162" class="text-sm">Start from 320px, enhance progressively</text>

    <rect x="20" y="190" width="300" height="60" rx="4" fill="#e8d4b8" stroke="#22c55e" stroke-width="2"/>
    <text x="35" y="212" class="spec-label">FR-018</text>
    <text x="35" y="232" class="text-sm">Purpose-built mobile layouts (not scaled)</text>

    <rect x="330" y="190" width="300" height="60" rx="4" fill="#e8d4b8" stroke="#22c55e" stroke-width="2"/>
    <text x="345" y="212" class="spec-label">FR-011</text>
    <text x="345" y="232" class="text-sm">Zero horizontal scroll 320-428px</text>

    <!-- Success banner -->
    <rect x="20" y="260" width="610" height="35" rx="4" fill="#22c55e" opacity="0.15" stroke="#22c55e"/>
    <text x="325" y="283" text-anchor="middle" class="heading" fill="#22c55e">✓ Mobile-First Progressive Enhancement</text>
  </g>
</svg>
