<svg xmlns="http://www.w3.org/2000/svg" viewBox="0 0 1600 1000" width="1600" height="1000">
  <!-- ============================================================
       GENERATED BY: /wireframe skill
       SOURCE: features/foundation/004-mobile-first-design/spec.md
       DATE: 2026-01-01
       THEME: Light (UX/Frontend) - v3 True Parchment
       CANVAS: Extended (1600x1000) for breakpoint comparison
       DO NOT MANUALLY EDIT - Regenerate with /wireframe command
       ============================================================ -->
  <defs>
    <linearGradient id="bgGrad" x1="0%" y1="0%" x2="100%" y2="100%">
      <stop offset="0%" style="stop-color:#c7ddf5"/>
      <stop offset="100%" style="stop-color:#b8d4f0"/>
    </linearGradient>
    <linearGradient id="accentGrad" x1="0%" y1="0%" x2="100%" y2="0%">
      <stop offset="0%" style="stop-color:#8b5cf6"/>
      <stop offset="100%" style="stop-color:#d946ef"/>
    </linearGradient>
    <style>
      .heading-lg { fill: #1a1a2e; font-family: system-ui, sans-serif; font-size: 24px; font-weight: 800; }
      .heading { fill: #1a1a2e; font-family: system-ui, sans-serif; font-size: 16px; font-weight: 700; }
      .text-md { fill: #2d3748; font-family: system-ui, sans-serif; font-size: 14px; font-weight: 500; }
      .text-sm { fill: #374151; font-family: system-ui, sans-serif; font-size: 12px; font-weight: 500; }
      .text-muted { fill: #4b5563; font-family: system-ui, sans-serif; font-size: 11px; font-weight: 500; }
      .annotation { fill: #6d28d9; font-family: monospace; font-size: 12px; font-weight: 600; }
      .label-desktop { fill: #8b5cf6; font-family: monospace; font-size: 13px; font-weight: bold; }
      .label-mobile { fill: #d946ef; font-family: monospace; font-size: 13px; font-weight: bold; }
      .spec-label { fill: #22c55e; font-family: monospace; font-size: 10px; font-weight: 600; }
      .dimension { fill: #ef4444; font-family: monospace; font-size: 11px; font-weight: 600; }
      .breakpoint-label { fill: #8b5cf6; font-family: monospace; font-size: 14px; font-weight: bold; }
    </style>
  </defs>

  <!-- Background -->
  <rect width="1600" height="1000" fill="url(#bgGrad)"/>

  <!-- Dot grid pattern -->
  <g opacity="0.35">
    <pattern id="dots" width="30" height="30" patternUnits="userSpaceOnUse">
      <circle cx="15" cy="15" r="1" fill="#6b8cba"/>
    </pattern>
    <rect width="1600" height="1000" fill="url(#dots)"/>
  </g>

  <!-- Accent line top -->
  <rect x="0" y="0" width="1600" height="3" fill="url(#accentGrad)"/>

  <!-- Title -->
  <text x="800" y="28" text-anchor="middle" font-family="system-ui, sans-serif" font-size="14" font-weight="600" fill="#4b5563" letter-spacing="1">BREAKPOINT SYSTEM — MOBILE-FIRST PROGRESSIVE ENHANCEMENT</text>

  <!-- BREAKPOINT SCALE VISUALIZATION -->
  <g id="breakpoint-scale" transform="translate(40, 45)">
    <rect x="0" y="0" width="1520" height="100" rx="8" fill="#e8d4b8" stroke="#b8a080" stroke-width="1"/>

    <!-- Scale bar -->
    <rect x="20" y="50" width="1480" height="30" rx="4" fill="#f5f0e6"/>

    <!-- Mobile zone -->
    <rect x="20" y="50" width="350" height="30" rx="4" fill="#d946ef" opacity="0.3"/>
    <text x="195" y="70" text-anchor="middle" class="label-mobile">MOBILE: 320-767px</text>

    <!-- Tablet zone -->
    <rect x="370" y="50" width="250" height="30" rx="0" fill="#8b5cf6" opacity="0.3"/>
    <text x="495" y="70" text-anchor="middle" class="label-desktop">TABLET: 768-1023px</text>

    <!-- Desktop zone -->
    <rect x="620" y="50" width="880" height="30" rx="4" fill="#22c55e" opacity="0.3"/>
    <text x="1060" y="70" text-anchor="middle" class="spec-label" font-size="12">DESKTOP: 1024px+</text>

    <!-- Breakpoint markers -->
    <line x1="20" y1="45" x2="20" y2="85" stroke="#ef4444" stroke-width="2"/>
    <text x="20" y="35" text-anchor="middle" class="dimension">320</text>

    <line x1="370" y1="45" x2="370" y2="85" stroke="#ef4444" stroke-width="2"/>
    <text x="370" y="35" text-anchor="middle" class="dimension">768</text>

    <line x1="620" y1="45" x2="620" y2="85" stroke="#ef4444" stroke-width="2"/>
    <text x="620" y="35" text-anchor="middle" class="dimension">1024</text>

    <!-- Common device markers -->
    <line x1="60" y1="83" x2="60" y2="90" stroke="#4b5563" stroke-width="1"/>
    <text x="60" y="20" text-anchor="middle" class="text-muted">SE</text>

    <line x1="145" y1="83" x2="145" y2="90" stroke="#4b5563" stroke-width="1"/>
    <text x="145" y="20" text-anchor="middle" class="text-muted">375</text>

    <line x1="200" y1="83" x2="200" y2="90" stroke="#4b5563" stroke-width="1"/>
    <text x="200" y="20" text-anchor="middle" class="text-muted">390</text>

    <line x1="280" y1="83" x2="280" y2="90" stroke="#4b5563" stroke-width="1"/>
    <text x="280" y="20" text-anchor="middle" class="text-muted">428</text>
  </g>

  <!-- MOBILE DEVICES COMPARISON -->
  <text x="40" y="170" class="label-mobile">MOBILE WIDTHS — 320px to 428px (Zero Horizontal Scroll)</text>

  <!-- 320px iPhone SE -->
  <g id="device-320" transform="translate(40, 190)">
    <text x="80" y="0" text-anchor="middle" class="breakpoint-label">320px</text>
    <text x="80" y="18" text-anchor="middle" class="text-muted">iPhone SE (MIN)</text>

    <!-- Phone frame scaled -->
    <rect x="0" y="25" width="160" height="340" rx="16" fill="#c8b898" stroke="#a08860" stroke-width="2"/>
    <rect x="8" y="33" width="144" height="324" rx="12" fill="#e8d4b8"/>

    <!-- Status bar -->
    <rect x="8" y="33" width="144" height="20" rx="12" fill="#dcc8a8"/>
    <text x="20" y="47" font-size="8" fill="#374151">9:41</text>

    <!-- Header - cramped -->
    <rect x="14" y="58" width="132" height="36" rx="4" fill="#dcc8a8" stroke="#b8a080"/>
    <rect x="20" y="64" width="24" height="24" rx="4" fill="#8b5cf6"/>
    <text x="32" y="81" text-anchor="middle" fill="#fff" font-size="10">☰</text>
    <rect x="50" y="68" width="40" height="16" rx="3" fill="#8b5cf6"/>
    <rect x="96" y="64" width="24" height="24" rx="4" fill="#dcc8a8" stroke="#b8a080"/>
    <rect x="122" y="64" width="20" height="24" rx="4" fill="#dcc8a8" stroke="#b8a080"/>

    <!-- Content cards - single column -->
    <rect x="14" y="100" width="132" height="80" rx="4" fill="#f5f0e6" stroke="#b8a080"/>
    <text x="24" y="120" font-size="10" font-weight="bold" fill="#1a1a2e">Post Title</text>
    <text x="24" y="135" font-size="8" fill="#374151">Content preview here...</text>
    <text x="24" y="150" font-size="8" fill="#374151">with more text.</text>

    <rect x="14" y="188" width="132" height="80" rx="4" fill="#f5f0e6" stroke="#b8a080"/>
    <text x="24" y="208" font-size="10" font-weight="bold" fill="#1a1a2e">Another Post</text>
    <text x="24" y="223" font-size="8" fill="#374151">More preview text...</text>

    <rect x="14" y="276" width="132" height="70" rx="4" fill="#f5f0e6" stroke="#b8a080"/>
    <text x="24" y="296" font-size="10" font-weight="bold" fill="#1a1a2e">Third Item</text>

    <!-- Annotation -->
    <rect x="0" y="375" width="160" height="25" rx="4" fill="#22c55e" opacity="0.15" stroke="#22c55e"/>
    <text x="80" y="392" text-anchor="middle" class="spec-label">✓ No h-scroll</text>
  </g>

  <!-- 375px iPhone 13 Mini -->
  <g id="device-375" transform="translate(220, 190)">
    <text x="94" y="0" text-anchor="middle" class="breakpoint-label">375px</text>
    <text x="94" y="18" text-anchor="middle" class="text-muted">iPhone 13 Mini</text>

    <!-- Phone frame -->
    <rect x="0" y="25" width="188" height="340" rx="18" fill="#c8b898" stroke="#a08860" stroke-width="2"/>
    <rect x="8" y="33" width="172" height="324" rx="14" fill="#e8d4b8"/>

    <!-- Status bar -->
    <rect x="8" y="33" width="172" height="22" rx="14" fill="#dcc8a8"/>
    <text x="22" y="48" font-size="9" fill="#374151">9:41</text>

    <!-- Header - more space -->
    <rect x="14" y="60" width="160" height="40" rx="5" fill="#dcc8a8" stroke="#b8a080"/>
    <rect x="22" y="68" width="28" height="24" rx="4" fill="#8b5cf6"/>
    <text x="36" y="85" text-anchor="middle" fill="#fff" font-size="12">☰</text>
    <rect x="58" y="70" width="60" height="20" rx="4" fill="#8b5cf6"/>
    <text x="88" y="84" text-anchor="middle" fill="#fff" font-size="8">Script</text>
    <rect x="126" y="68" width="20" height="24" rx="4" fill="#dcc8a8" stroke="#b8a080"/>
    <rect x="150" y="68" width="20" height="24" rx="4" fill="#dcc8a8" stroke="#b8a080"/>

    <!-- Content cards -->
    <rect x="14" y="106" width="160" height="85" rx="5" fill="#f5f0e6" stroke="#b8a080"/>
    <text x="26" y="128" font-size="11" font-weight="bold" fill="#1a1a2e">Blog Post Title</text>
    <text x="26" y="145" font-size="9" fill="#374151">Content preview with</text>
    <text x="26" y="160" font-size="9" fill="#374151">more room to breathe.</text>

    <rect x="14" y="199" width="160" height="85" rx="5" fill="#f5f0e6" stroke="#b8a080"/>
    <text x="26" y="221" font-size="11" font-weight="bold" fill="#1a1a2e">Another Article</text>
    <text x="26" y="238" font-size="9" fill="#374151">Additional preview...</text>

    <rect x="14" y="292" width="160" height="55" rx="5" fill="#f5f0e6" stroke="#b8a080"/>
    <text x="26" y="314" font-size="11" font-weight="bold" fill="#1a1a2e">Third Post</text>

    <!-- Annotation -->
    <rect x="0" y="375" width="188" height="25" rx="4" fill="#22c55e" opacity="0.15" stroke="#22c55e"/>
    <text x="94" y="392" text-anchor="middle" class="spec-label">✓ No h-scroll</text>
  </g>

  <!-- 390px iPhone 12/13/14 -->
  <g id="device-390" transform="translate(428, 190)">
    <text x="98" y="0" text-anchor="middle" class="breakpoint-label">390px</text>
    <text x="98" y="18" text-anchor="middle" class="text-muted">iPhone 12/13/14</text>

    <!-- Phone frame -->
    <rect x="0" y="25" width="195" height="340" rx="18" fill="#c8b898" stroke="#a08860" stroke-width="2"/>
    <rect x="8" y="33" width="179" height="324" rx="14" fill="#e8d4b8"/>

    <!-- Status bar -->
    <rect x="8" y="33" width="179" height="22" rx="14" fill="#dcc8a8"/>
    <text x="22" y="48" font-size="9" fill="#374151">9:41</text>
    <text x="155" y="48" font-size="8" fill="#374151">📶🔋</text>

    <!-- Header -->
    <rect x="14" y="60" width="167" height="42" rx="5" fill="#dcc8a8" stroke="#b8a080"/>
    <rect x="22" y="69" width="30" height="26" rx="4" fill="#8b5cf6"/>
    <text x="37" y="87" text-anchor="middle" fill="#fff" font-size="12">☰</text>
    <rect x="60" y="71" width="70" height="22" rx="4" fill="#8b5cf6"/>
    <text x="95" y="86" text-anchor="middle" fill="#fff" font-size="9">ScriptHammer</text>
    <rect x="138" y="69" width="18" height="26" rx="4" fill="#dcc8a8" stroke="#b8a080"/>
    <rect x="160" y="69" width="18" height="26" rx="4" fill="#dcc8a8" stroke="#b8a080"/>

    <!-- Content cards -->
    <rect x="14" y="108" width="167" height="90" rx="5" fill="#f5f0e6" stroke="#b8a080"/>
    <text x="26" y="130" font-size="12" font-weight="bold" fill="#1a1a2e">Blog Post Title Here</text>
    <text x="26" y="150" font-size="10" fill="#374151">Content preview text that</text>
    <text x="26" y="168" font-size="10" fill="#374151">fits nicely on screen.</text>
    <text x="26" y="188" font-size="8" fill="#4b5563">5 min read • 2 days ago</text>

    <rect x="14" y="206" width="167" height="90" rx="5" fill="#f5f0e6" stroke="#b8a080"/>
    <text x="26" y="228" font-size="12" font-weight="bold" fill="#1a1a2e">Another Great Post</text>
    <text x="26" y="248" font-size="10" fill="#374151">More preview text...</text>

    <rect x="14" y="304" width="167" height="45" rx="5" fill="#f5f0e6" stroke="#b8a080"/>
    <text x="26" y="326" font-size="12" font-weight="bold" fill="#1a1a2e">Third Article</text>

    <!-- Annotation -->
    <rect x="0" y="375" width="195" height="25" rx="4" fill="#22c55e" opacity="0.15" stroke="#22c55e"/>
    <text x="98" y="392" text-anchor="middle" class="spec-label">✓ No h-scroll (MOST COMMON)</text>
  </g>

  <!-- 428px iPhone 14 Pro Max -->
  <g id="device-428" transform="translate(643, 190)">
    <text x="107" y="0" text-anchor="middle" class="breakpoint-label">428px</text>
    <text x="107" y="18" text-anchor="middle" class="text-muted">iPhone 14 Pro Max</text>

    <!-- Phone frame -->
    <rect x="0" y="25" width="214" height="340" rx="20" fill="#c8b898" stroke="#a08860" stroke-width="2"/>
    <rect x="8" y="33" width="198" height="324" rx="16" fill="#e8d4b8"/>

    <!-- Status bar -->
    <rect x="8" y="33" width="198" height="24" rx="16" fill="#dcc8a8"/>
    <text x="24" y="49" font-size="10" fill="#374151">9:41</text>
    <text x="175" y="49" font-size="9" fill="#374151">📶 🔋</text>

    <!-- Header - most spacious -->
    <rect x="14" y="62" width="186" height="44" rx="6" fill="#dcc8a8" stroke="#b8a080"/>
    <rect x="24" y="72" width="32" height="28" rx="5" fill="#8b5cf6"/>
    <text x="40" y="91" text-anchor="middle" fill="#fff" font-size="14">☰</text>
    <rect x="64" y="74" width="80" height="24" rx="5" fill="#8b5cf6"/>
    <text x="104" y="91" text-anchor="middle" fill="#fff" font-size="10">ScriptHammer</text>
    <rect x="152" y="72" width="20" height="28" rx="4" fill="#dcc8a8" stroke="#b8a080"/>
    <rect x="176" y="72" width="20" height="28" rx="4" fill="#dcc8a8" stroke="#b8a080"/>

    <!-- Content cards -->
    <rect x="14" y="112" width="186" height="95" rx="6" fill="#f5f0e6" stroke="#b8a080"/>
    <text x="28" y="136" font-size="13" font-weight="bold" fill="#1a1a2e">Featured Blog Post</text>
    <text x="28" y="158" font-size="11" fill="#374151">Full content preview with</text>
    <text x="28" y="178" font-size="11" fill="#374151">plenty of reading space.</text>
    <text x="28" y="198" font-size="9" fill="#4b5563">5 min read • 2 days ago</text>

    <rect x="14" y="215" width="186" height="95" rx="6" fill="#f5f0e6" stroke="#b8a080"/>
    <text x="28" y="239" font-size="13" font-weight="bold" fill="#1a1a2e">Another Article</text>
    <text x="28" y="261" font-size="11" fill="#374151">More preview text here...</text>

    <rect x="14" y="318" width="186" height="30" rx="6" fill="#f5f0e6" stroke="#b8a080"/>
    <text x="28" y="338" font-size="12" font-weight="bold" fill="#1a1a2e">Third Post</text>

    <!-- Annotation -->
    <rect x="0" y="375" width="214" height="25" rx="4" fill="#22c55e" opacity="0.15" stroke="#22c55e"/>
    <text x="107" y="392" text-anchor="middle" class="spec-label">✓ No h-scroll</text>
  </g>

  <!-- TABLET PREVIEW -->
  <g id="tablet-preview" transform="translate(877, 190)">
    <text x="165" y="0" text-anchor="middle" class="label-desktop">768px TABLET</text>
    <text x="165" y="18" text-anchor="middle" class="text-muted">Progressive Enhancement</text>

    <!-- Tablet frame -->
    <rect x="0" y="25" width="330" height="240" rx="12" fill="#c8b898" stroke="#a08860" stroke-width="2"/>
    <rect x="10" y="35" width="310" height="220" rx="8" fill="#e8d4b8"/>

    <!-- Status bar -->
    <rect x="10" y="35" width="310" height="20" rx="8" fill="#dcc8a8"/>
    <text x="24" y="49" font-size="10" fill="#374151">9:41</text>

    <!-- Header with horizontal nav -->
    <rect x="18" y="60" width="294" height="36" rx="5" fill="#dcc8a8" stroke="#b8a080"/>
    <rect x="26" y="68" width="60" height="20" rx="4" fill="#8b5cf6"/>
    <text x="56" y="82" text-anchor="middle" fill="#fff" font-size="9">Script</text>
    <text x="110" y="82" font-size="10" fill="#2d3748">Home</text>
    <text x="155" y="82" font-size="10" fill="#2d3748">Blog</text>
    <text x="205" y="82" font-size="10" fill="#2d3748">Projects</text>
    <rect x="270" y="68" width="36" height="20" rx="4" fill="#dcc8a8" stroke="#b8a080"/>

    <!-- Two-column grid -->
    <rect x="18" y="102" width="143" height="70" rx="4" fill="#f5f0e6" stroke="#b8a080"/>
    <text x="30" y="120" font-size="11" font-weight="bold" fill="#1a1a2e">Blog Post</text>
    <text x="30" y="138" font-size="9" fill="#374151">Preview text...</text>

    <rect x="169" y="102" width="143" height="70" rx="4" fill="#f5f0e6" stroke="#b8a080"/>
    <text x="181" y="120" font-size="11" font-weight="bold" fill="#1a1a2e">Another Post</text>
    <text x="181" y="138" font-size="9" fill="#374151">More text...</text>

    <rect x="18" y="180" width="143" height="65" rx="4" fill="#f5f0e6" stroke="#b8a080"/>
    <text x="30" y="198" font-size="11" font-weight="bold" fill="#1a1a2e">Third Article</text>

    <rect x="169" y="180" width="143" height="65" rx="4" fill="#f5f0e6" stroke="#b8a080"/>
    <text x="181" y="198" font-size="11" font-weight="bold" fill="#1a1a2e">Fourth Article</text>

    <!-- Annotation -->
    <rect x="0" y="275" width="330" height="25" rx="4" fill="#8b5cf6" opacity="0.15" stroke="#8b5cf6"/>
    <text x="165" y="292" text-anchor="middle" class="annotation">2-column grid, horizontal nav</text>
  </g>

  <!-- DESKTOP PREVIEW -->
  <g id="desktop-preview" transform="translate(1227, 190)">
    <text x="165" y="0" text-anchor="middle" class="spec-label" font-size="12">1024px+ DESKTOP</text>
    <text x="165" y="18" text-anchor="middle" class="text-muted">Full Enhancement</text>

    <!-- Desktop frame -->
    <rect x="0" y="25" width="330" height="240" rx="8" fill="#c8b898" stroke="#a08860" stroke-width="2"/>
    <rect x="10" y="35" width="310" height="220" rx="6" fill="#e8d4b8"/>

    <!-- Header with full nav -->
    <rect x="18" y="40" width="294" height="34" rx="4" fill="#dcc8a8" stroke="#b8a080"/>
    <rect x="26" y="47" width="70" height="20" rx="4" fill="#8b5cf6"/>
    <text x="61" y="61" text-anchor="middle" fill="#fff" font-size="9">ScriptHammer</text>
    <text x="120" y="61" font-size="10" fill="#2d3748">Home</text>
    <text x="160" y="61" font-size="10" fill="#2d3748">Blog</text>
    <text x="200" y="61" font-size="10" fill="#2d3748">Projects</text>
    <text x="250" y="61" font-size="10" fill="#2d3748">About</text>
    <rect x="286" y="47" width="20" height="20" rx="3" fill="#dcc8a8" stroke="#b8a080"/>

    <!-- Sidebar + 2-column grid -->
    <rect x="18" y="80" width="60" height="170" rx="4" fill="#dcc8a8" stroke="#b8a080"/>
    <text x="48" y="100" text-anchor="middle" font-size="8" fill="#374151">Sidebar</text>
    <text x="48" y="115" text-anchor="middle" font-size="7" fill="#4b5563">Links</text>
    <text x="48" y="130" text-anchor="middle" font-size="7" fill="#4b5563">Tags</text>

    <rect x="84" y="80" width="108" height="80" rx="4" fill="#f5f0e6" stroke="#b8a080"/>
    <text x="94" y="98" font-size="10" font-weight="bold" fill="#1a1a2e">Featured</text>
    <text x="94" y="115" font-size="8" fill="#374151">Preview...</text>

    <rect x="198" y="80" width="108" height="80" rx="4" fill="#f5f0e6" stroke="#b8a080"/>
    <text x="208" y="98" font-size="10" font-weight="bold" fill="#1a1a2e">Second</text>
    <text x="208" y="115" font-size="8" fill="#374151">Preview...</text>

    <rect x="84" y="166" width="108" height="80" rx="4" fill="#f5f0e6" stroke="#b8a080"/>
    <text x="94" y="184" font-size="10" font-weight="bold" fill="#1a1a2e">Third</text>

    <rect x="198" y="166" width="108" height="80" rx="4" fill="#f5f0e6" stroke="#b8a080"/>
    <text x="208" y="184" font-size="10" font-weight="bold" fill="#1a1a2e">Fourth</text>

    <!-- Annotation -->
    <rect x="0" y="275" width="330" height="25" rx="4" fill="#22c55e" opacity="0.15" stroke="#22c55e"/>
    <text x="165" y="292" text-anchor="middle" class="spec-label">Sidebar + 2-col, full nav</text>
  </g>

  <!-- LANDSCAPE ORIENTATION -->
  <text x="40" y="630" class="label-mobile">LANDSCAPE ORIENTATION (FR-019)</text>
  <g id="landscape" transform="translate(40, 650)">
    <rect x="0" y="0" width="700" height="200" rx="8" fill="#e8d4b8" stroke="#b8a080" stroke-width="1"/>

    <text x="20" y="30" class="heading">iPhone 12 Landscape: 844×390</text>
    <text x="20" y="50" class="text-muted">Physical device type determines UI mode, not just viewport width</text>

    <!-- Landscape phone frame -->
    <rect x="20" y="65" width="420" height="125" rx="16" fill="#c8b898" stroke="#a08860" stroke-width="2"/>
    <rect x="30" y="75" width="400" height="105" rx="12" fill="#e8d4b8"/>

    <!-- Landscape content - mobile styles maintained -->
    <rect x="40" y="80" width="380" height="30" rx="4" fill="#dcc8a8" stroke="#b8a080"/>
    <rect x="50" y="86" width="24" height="18" rx="3" fill="#8b5cf6"/>
    <text x="62" y="99" text-anchor="middle" fill="#fff" font-size="10">☰</text>
    <rect x="82" y="86" width="60" height="18" rx="3" fill="#8b5cf6"/>
    <text x="112" y="99" text-anchor="middle" fill="#fff" font-size="8">Script</text>

    <!-- Landscape card row -->
    <rect x="40" y="115" width="180" height="55" rx="4" fill="#f5f0e6" stroke="#b8a080"/>
    <text x="55" y="135" font-size="10" font-weight="bold" fill="#1a1a2e">Post Title</text>
    <text x="55" y="150" font-size="8" fill="#374151">Preview text...</text>

    <rect x="230" y="115" width="180" height="55" rx="4" fill="#f5f0e6" stroke="#b8a080"/>
    <text x="245" y="135" font-size="10" font-weight="bold" fill="#1a1a2e">Another Post</text>
    <text x="245" y="150" font-size="8" fill="#374151">More text...</text>

    <!-- Key insight box -->
    <rect x="460" y="70" width="220" height="110" rx="6" fill="#f5f0e6" stroke="#22c55e" stroke-width="2"/>
    <text x="570" y="95" text-anchor="middle" class="spec-label">KEY BEHAVIOR</text>
    <text x="480" y="120" class="text-md">844px viewport</text>
    <text x="480" y="140" class="text-md">BUT device is mobile</text>
    <text x="480" y="160" class="text-md">→ Uses MOBILE styles</text>
  </g>

  <!-- PERFORMANCE REQUIREMENTS -->
  <text x="760" y="630" class="label-desktop">PERFORMANCE (FR-023, FR-024)</text>
  <g id="performance" transform="translate(760, 650)">
    <rect x="0" y="0" width="380" height="200" rx="8" fill="#f5f0e6" stroke="#b8a080" stroke-width="1"/>

    <text x="20" y="30" class="heading">Mobile Network Performance</text>

    <!-- Core Web Vitals -->
    <g transform="translate(20, 50)">
      <rect x="0" y="0" width="160" height="55" rx="4" fill="#22c55e" opacity="0.15" stroke="#22c55e"/>
      <text x="80" y="20" text-anchor="middle" class="spec-label">LCP</text>
      <text x="80" y="42" text-anchor="middle" class="heading">&lt; 2.5s</text>

      <rect x="175" y="0" width="160" height="55" rx="4" fill="#22c55e" opacity="0.15" stroke="#22c55e"/>
      <text x="255" y="20" text-anchor="middle" class="spec-label">FID</text>
      <text x="255" y="42" text-anchor="middle" class="heading">&lt; 100ms</text>
    </g>

    <g transform="translate(20, 115)">
      <rect x="0" y="0" width="160" height="55" rx="4" fill="#22c55e" opacity="0.15" stroke="#22c55e"/>
      <text x="80" y="20" text-anchor="middle" class="spec-label">CLS</text>
      <text x="80" y="42" text-anchor="middle" class="heading">&lt; 0.1</text>

      <rect x="175" y="0" width="160" height="55" rx="4" fill="#22c55e" opacity="0.15" stroke="#22c55e"/>
      <text x="255" y="20" text-anchor="middle" class="spec-label">TTI (3G)</text>
      <text x="255" y="42" text-anchor="middle" class="heading">&lt; 5s</text>
    </g>
  </g>

  <!-- PAGE WEIGHT -->
  <g id="page-weight" transform="translate(1160, 650)">
    <rect x="0" y="0" width="380" height="200" rx="8" fill="#e8d4b8" stroke="#b8a080" stroke-width="1"/>

    <text x="20" y="30" class="heading">Page Weight Budget</text>

    <!-- Weight bars -->
    <g transform="translate(20, 50)">
      <text x="0" y="0" class="text-md">Total Page</text>
      <rect x="0" y="10" width="340" height="25" rx="4" fill="#dcc8a8"/>
      <rect x="0" y="10" width="340" height="25" rx="4" fill="#22c55e" opacity="0.3"/>
      <text x="170" y="28" text-anchor="middle" class="heading">≤ 1MB</text>

      <text x="0" y="55" class="text-md">Critical Content</text>
      <rect x="0" y="65" width="340" height="25" rx="4" fill="#dcc8a8"/>
      <rect x="0" y="65" width="170" height="25" rx="4" fill="#8b5cf6" opacity="0.3"/>
      <text x="85" y="83" text-anchor="middle" class="heading">≤ 500KB</text>

      <text x="0" y="110" class="text-md">Images</text>
      <rect x="0" y="120" width="340" height="25" rx="4" fill="#dcc8a8"/>
      <text x="170" y="138" text-anchor="middle" class="text-md">WebP + AVIF + srcset</text>
    </g>
  </g>

  <!-- SUCCESS CRITERIA -->
  <g id="success-box" transform="translate(40, 870)">
    <rect x="0" y="0" width="1520" height="100" rx="8" fill="#22c55e" opacity="0.1" stroke="#22c55e" stroke-width="2"/>
    <text x="760" y="30" text-anchor="middle" class="heading-lg" fill="#22c55e">Mobile-First Success Criteria</text>

    <g transform="translate(20, 50)">
      <rect x="0" y="0" width="230" height="35" rx="4" fill="#e8d4b8"/>
      <text x="15" y="23" class="spec-label">SC-001</text>
      <text x="80" y="23" class="text-md">Zero h-scroll 320-428px</text>

      <rect x="250" y="0" width="230" height="35" rx="4" fill="#e8d4b8"/>
      <text x="265" y="23" class="spec-label">NFR-001</text>
      <text x="330" y="23" class="text-md">Mobile: 320-767px</text>

      <rect x="500" y="0" width="230" height="35" rx="4" fill="#e8d4b8"/>
      <text x="515" y="23" class="spec-label">NFR-001</text>
      <text x="580" y="23" class="text-md">Tablet: 768-1023px</text>

      <rect x="750" y="0" width="230" height="35" rx="4" fill="#e8d4b8"/>
      <text x="765" y="23" class="spec-label">NFR-001</text>
      <text x="830" y="23" class="text-md">Desktop: 1024px+</text>

      <rect x="1000" y="0" width="230" height="35" rx="4" fill="#e8d4b8"/>
      <text x="1015" y="23" class="spec-label">SC-010</text>
      <text x="1080" y="23" class="text-md">Visual regression tests</text>

      <rect x="1250" y="0" width="230" height="35" rx="4" fill="#e8d4b8"/>
      <text x="1265" y="23" class="spec-label">FR-028</text>
      <text x="1320" y="23" class="text-md">Test all 4 widths</text>
    </g>
  </g>
</svg>
