<svg xmlns="http://www.w3.org/2000/svg" viewBox="0 0 1400 800" width="1400" height="800">
  <!-- ============================================================
       GENERATED BY: /wireframe skill
       SOURCE: features/foundation/004-mobile-first-design/spec.md
       DATE: 2026-01-01
       THEME: Light (UX/Frontend) - v3 True Parchment
       REGENERATED WITH FEEDBACK: features/foundation/004-mobile-first-design/WIREFRAME_ISSUES.md
       DO NOT MANUALLY EDIT - Regenerate with /wireframe command
       ============================================================ -->
  <defs>
    <linearGradient id="bgGrad" x1="0%" y1="0%" x2="100%" y2="100%">
      <stop offset="0%" style="stop-color:#c7ddf5"/>
      <stop offset="100%" style="stop-color:#b8d4f0"/>
    </linearGradient>
    <linearGradient id="accentGrad" x1="0%" y1="0%" x2="100%" y2="0%">
      <stop offset="0%" style="stop-color:#8b5cf6"/>
      <stop offset="100%" style="stop-color:#d946ef"/>
    </linearGradient>
    <style>
      .heading-lg { fill: #1a1a2e; font-family: system-ui, sans-serif; font-size: 24px; font-weight: 800; }
      .heading { fill: #1a1a2e; font-family: system-ui, sans-serif; font-size: 16px; font-weight: 700; }
      .heading-sm { fill: #1a1a2e; font-family: system-ui, sans-serif; font-size: 14px; font-weight: 700; }
      .text-md { fill: #2d3748; font-family: system-ui, sans-serif; font-size: 14px; font-weight: 500; }
      .text-sm { fill: #374151; font-family: system-ui, sans-serif; font-size: 12px; font-weight: 500; }
      .text-muted { fill: #374151; font-family: system-ui, sans-serif; font-size: 11px; font-weight: 500; }
      .annotation { fill: #6d28d9; font-family: monospace; font-size: 11px; font-weight: 600; }
      .label-desktop { fill: #8b5cf6; font-family: monospace; font-size: 13px; font-weight: bold; }
      .label-mobile { fill: #d946ef; font-family: monospace; font-size: 13px; font-weight: bold; }
      .spec-label { fill: #22c55e; font-family: monospace; font-size: 10px; font-weight: 600; }
      .code-text { fill: #cbd5e1; font-family: monospace; font-size: 10px; }
    </style>
  </defs>

  <!-- Background -->
  <rect width="1400" height="800" fill="url(#bgGrad)"/>
  <g opacity="0.35">
    <pattern id="dots" width="30" height="30" patternUnits="userSpaceOnUse">
      <circle cx="15" cy="15" r="1" fill="#6b8cba"/>
    </pattern>
    <rect width="1400" height="800" fill="url(#dots)"/>
  </g>
  <rect x="0" y="0" width="1400" height="3" fill="url(#accentGrad)"/>

  <!-- Title -->
  <text x="700" y="28" text-anchor="middle" font-family="system-ui, sans-serif" font-size="14" font-weight="600" fill="#374151" letter-spacing="1">BREAKPOINT SYSTEM — NFR-001 MOBILE-FIRST CSS</text>

  <!-- Breakpoint spectrum bar -->
  <g transform="translate(40, 50)">
    <text x="0" y="0" class="heading-sm">Breakpoint Spectrum</text>

    <!-- Base bar -->
    <rect x="0" y="15" width="1320" height="40" rx="6" fill="#e8d4b8" stroke="#b8a080"/>

    <!-- Mobile section (320-767) -->
    <rect x="0" y="15" width="400" height="40" rx="6" fill="#d946ef" opacity="0.3"/>
    <text x="200" y="42" text-anchor="middle" class="label-mobile">MOBILE (320-767px)</text>

    <!-- Tablet section (768-1023) -->
    <rect x="400" y="15" width="350" height="40" fill="#8b5cf6" opacity="0.3"/>
    <text x="575" y="42" text-anchor="middle" class="label-desktop">TABLET (768-1023px)</text>

    <!-- Desktop section (1024+) -->
    <rect x="750" y="15" width="570" height="40" rx="6" fill="#22c55e" opacity="0.2"/>
    <text x="1035" y="42" text-anchor="middle" fill="#22c55e" font-family="monospace" font-size="13px" font-weight="bold">DESKTOP (1024px+)</text>

    <!-- Breakpoint markers -->
    <line x1="0" y1="60" x2="0" y2="75" stroke="#d946ef" stroke-width="2"/>
    <text x="0" y="90" text-anchor="middle" class="text-muted">320px</text>

    <line x1="400" y1="60" x2="400" y2="75" stroke="#8b5cf6" stroke-width="2"/>
    <text x="400" y="90" text-anchor="middle" class="text-muted">768px</text>

    <line x1="750" y1="60" x2="750" y2="75" stroke="#22c55e" stroke-width="2"/>
    <text x="750" y="90" text-anchor="middle" class="text-muted">1024px</text>
  </g>

  <!-- CSS Code Panel -->
  <g transform="translate(40, 160)">
    <rect x="0" y="0" width="450" height="250" rx="8" fill="#1e293b"/>
    <text x="20" y="25" fill="#8b5cf6" font-family="monospace" font-size="12" font-weight="bold">/* Mobile-First CSS (NFR-002) */</text>

    <text x="20" y="50" class="code-text">/* Base styles (mobile-first) */</text>
    <text x="20" y="68" class="code-text">.nav-links { display: none; }</text>
    <text x="20" y="86" class="code-text">.hamburger { display: flex; }</text>
    <text x="20" y="104" class="code-text">body { font-size: 16px; }</text>

    <text x="20" y="130" class="code-text">/* Tablet enhancement */</text>
    <text x="20" y="148" class="code-text">@media (min-width: 768px) {</text>
    <text x="30" y="166" class="code-text">  .nav-links { display: flex; }</text>
    <text x="30" y="184" class="code-text">  .hamburger { display: none; }</text>
    <text x="20" y="202" class="code-text">}</text>

    <text x="20" y="228" class="code-text">/* Desktop enhancement */</text>
    <text x="20" y="246" class="code-text">@media (min-width: 1024px) { ... }</text>

    <!-- Annotation -->
    <rect x="300" y="50" width="140" height="45" rx="4" fill="#334155" stroke="#8b5cf6"/>
    <text x="370" y="73" text-anchor="middle" class="annotation">Mobile base</text>
    <text x="370" y="88" text-anchor="middle" class="spec-label">NFR-002 ✓</text>
  </g>

  <!-- Device comparison -->
  <g transform="translate(510, 160)">
    <rect x="0" y="0" width="550" height="250" rx="8" fill="#f5f0e6" stroke="#b8a080"/>
    <text x="20" y="28" class="heading-sm">Progressive Enhancement</text>

    <!-- Mobile preview -->
    <g transform="translate(20, 45)">
      <text x="0" y="0" class="label-mobile">320px</text>
      <rect x="0" y="10" width="100" height="170" rx="10" fill="#c8b898" stroke="#a08860"/>
      <rect x="5" y="15" width="90" height="160" rx="6" fill="#e8d4b8"/>

      <!-- Mobile header -->
      <rect x="10" y="25" width="80" height="22" rx="3" fill="#dcc8a8"/>
      <rect x="15" y="29" width="14" height="14" rx="2" fill="#8b5cf6"/>
      <rect x="33" y="29" width="35" height="14" rx="2" fill="#8b5cf6"/>
      <rect x="72" y="29" width="14" height="14" rx="2" fill="#dcc8a8" stroke="#b8a080"/>

      <!-- Mobile content -->
      <rect x="10" y="52" width="80" height="115" rx="3" fill="#f5f0e6"/>
      <rect x="15" y="57" width="70" height="8" rx="1" fill="#dcc8a8"/>
      <rect x="15" y="70" width="55" height="6" rx="1" fill="#dcc8a8"/>
      <rect x="15" y="81" width="65" height="6" rx="1" fill="#dcc8a8"/>
    </g>

    <!-- Arrow -->
    <text x="145" y="140" fill="#8b5cf6" font-size="20">→</text>

    <!-- Tablet preview -->
    <g transform="translate(175, 45)">
      <text x="0" y="0" class="label-desktop">768px</text>
      <rect x="0" y="10" width="150" height="170" rx="6" fill="#c8b898" stroke="#a08860"/>
      <rect x="5" y="15" width="140" height="160" rx="4" fill="#e8d4b8"/>

      <!-- Tablet header -->
      <rect x="10" y="25" width="125" height="22" rx="3" fill="#dcc8a8"/>
      <rect x="15" y="29" width="40" height="14" rx="2" fill="#8b5cf6"/>
      <text x="62" y="40" class="text-muted">Home</text>
      <text x="90" y="40" class="text-muted">Blog</text>
      <rect x="115" y="29" width="16" height="14" rx="2" fill="#dcc8a8" stroke="#b8a080"/>

      <!-- Tablet content - 2 columns -->
      <rect x="10" y="52" width="125" height="115" rx="3" fill="#f5f0e6"/>
      <rect x="15" y="57" width="55" height="50" rx="2" fill="#dcc8a8"/>
      <rect x="75" y="57" width="55" height="50" rx="2" fill="#dcc8a8"/>
      <rect x="15" y="115" width="115" height="8" rx="1" fill="#dcc8a8"/>
    </g>

    <!-- Arrow -->
    <text x="345" y="140" fill="#22c55e" font-size="20">→</text>

    <!-- Desktop preview -->
    <g transform="translate(375, 45)">
      <text x="0" y="0" fill="#22c55e" font-family="monospace" font-size="12px" font-weight="bold">1024px+</text>
      <rect x="0" y="10" width="160" height="170" rx="4" fill="#c8b898" stroke="#a08860"/>
      <rect x="5" y="15" width="150" height="160" rx="2" fill="#e8d4b8"/>

      <!-- Desktop header -->
      <rect x="10" y="25" width="140" height="22" rx="3" fill="#dcc8a8"/>
      <rect x="15" y="29" width="45" height="14" rx="2" fill="#8b5cf6"/>
      <text x="67" y="40" class="text-muted">Home</text>
      <text x="93" y="40" class="text-muted">Blog</text>
      <text x="117" y="40" class="text-muted">About</text>

      <!-- Desktop content - 3 columns -->
      <rect x="10" y="52" width="140" height="115" rx="3" fill="#f5f0e6"/>
      <rect x="15" y="57" width="40" height="75" rx="2" fill="#dcc8a8"/>
      <rect x="60" y="57" width="40" height="75" rx="2" fill="#dcc8a8"/>
      <rect x="105" y="57" width="40" height="75" rx="2" fill="#dcc8a8"/>
      <rect x="15" y="140" width="130" height="8" rx="1" fill="#dcc8a8"/>
    </g>
  </g>

  <!-- Performance Metrics Panel (NEW - FR-023, FR-024) -->
  <g transform="translate(1080, 160)">
    <rect x="0" y="0" width="280" height="250" rx="8" fill="#f5f0e6" stroke="#b8a080"/>
    <text x="20" y="28" class="heading-sm">Performance (FR-023/24)</text>

    <!-- LCP -->
    <rect x="20" y="45" width="240" height="45" rx="4" fill="#e8d4b8" stroke="#22c55e" stroke-width="2"/>
    <text x="35" y="65" class="annotation">LCP (NFR-007)</text>
    <text x="35" y="82" class="text-md">&lt; 2.5s on mobile</text>

    <!-- FID -->
    <rect x="20" y="100" width="240" height="45" rx="4" fill="#e8d4b8" stroke="#22c55e" stroke-width="2"/>
    <text x="35" y="120" class="annotation">FID (NFR-008)</text>
    <text x="35" y="137" class="text-md">&lt; 100ms response</text>

    <!-- CLS -->
    <rect x="20" y="155" width="240" height="45" rx="4" fill="#e8d4b8" stroke="#22c55e" stroke-width="2"/>
    <text x="35" y="175" class="annotation">CLS (FR-023)</text>
    <text x="35" y="192" class="text-md">&lt; 0.1 layout shift</text>

    <!-- TTI -->
    <rect x="20" y="210" width="240" height="35" rx="4" fill="#e8d4b8" stroke="#22c55e" stroke-width="2"/>
    <text x="140" y="233" text-anchor="middle" class="text-sm">TTI &lt; 5s on 3G (FR-024)</text>
  </g>

  <!-- Mobile Breakpoints Detail -->
  <g transform="translate(40, 430)">
    <rect x="0" y="0" width="650" height="340" rx="8" fill="#f5f0e6" stroke="#b8a080"/>
    <text x="20" y="28" class="heading-sm">Mobile Device Breakpoints (FR-028)</text>

    <!-- 320px -->
    <g transform="translate(20, 45)">
      <rect x="0" y="0" width="140" height="110" rx="6" fill="#e8d4b8" stroke="#d946ef" stroke-width="2"/>
      <text x="70" y="25" text-anchor="middle" class="label-mobile">320px</text>
      <text x="70" y="45" text-anchor="middle" class="text-muted">iPhone SE</text>
      <text x="70" y="62" text-anchor="middle" class="text-muted">Min width</text>
      <rect x="20" y="75" width="100" height="28" rx="4" fill="#dcc8a8" stroke="#b8a080"/>
      <text x="70" y="94" text-anchor="middle" class="text-sm">Constrained</text>
    </g>

    <!-- 375px -->
    <g transform="translate(175, 45)">
      <rect x="0" y="0" width="140" height="110" rx="6" fill="#e8d4b8" stroke="#d946ef" stroke-width="2"/>
      <text x="70" y="25" text-anchor="middle" class="label-mobile">375px</text>
      <text x="70" y="45" text-anchor="middle" class="text-muted">iPhone 13 Mini</text>
      <text x="70" y="62" text-anchor="middle" class="text-muted">Compact</text>
      <rect x="20" y="75" width="100" height="28" rx="4" fill="#dcc8a8" stroke="#b8a080"/>
      <text x="70" y="94" text-anchor="middle" class="text-sm">Comfortable</text>
    </g>

    <!-- 390px -->
    <g transform="translate(330, 45)">
      <rect x="0" y="0" width="140" height="110" rx="6" fill="#e8d4b8" stroke="#d946ef" stroke-width="2"/>
      <text x="70" y="25" text-anchor="middle" class="label-mobile">390px</text>
      <text x="70" y="45" text-anchor="middle" class="text-muted">iPhone 12-14</text>
      <text x="70" y="62" text-anchor="middle" class="text-muted">Most common</text>
      <rect x="20" y="75" width="100" height="28" rx="4" fill="#8b5cf6"/>
      <text x="70" y="94" text-anchor="middle" fill="#fff" font-size="11">Primary</text>
    </g>

    <!-- 428px -->
    <g transform="translate(485, 45)">
      <rect x="0" y="0" width="140" height="110" rx="6" fill="#e8d4b8" stroke="#d946ef" stroke-width="2"/>
      <text x="70" y="25" text-anchor="middle" class="label-mobile">428px</text>
      <text x="70" y="45" text-anchor="middle" class="text-muted">iPhone Pro Max</text>
      <text x="70" y="62" text-anchor="middle" class="text-muted">Large mobile</text>
      <rect x="20" y="75" width="100" height="28" rx="4" fill="#dcc8a8" stroke="#b8a080"/>
      <text x="70" y="94" text-anchor="middle" class="text-sm">Spacious</text>
    </g>

    <!-- Test requirement -->
    <rect x="20" y="170" width="610" height="45" rx="4" fill="#e8d4b8" stroke="#22c55e" stroke-width="2"/>
    <text x="325" y="193" text-anchor="middle" class="text-md">✓ Automated tests validate layouts at all 4 breakpoints</text>
    <text x="325" y="208" text-anchor="middle" class="spec-label">FR-028: Test 320px, 375px, 390px, 428px</text>

    <!-- Landscape note -->
    <rect x="20" y="225" width="610" height="45" rx="4" fill="#e8d4b8" stroke="#8b5cf6"/>
    <text x="325" y="248" text-anchor="middle" class="text-md">FR-019: Landscape mobile maintains mobile styles</text>
    <text x="325" y="263" text-anchor="middle" class="annotation">iPhone 12 @ 844×390 landscape → still mobile UI</text>

    <!-- Zero H-Scroll -->
    <rect x="20" y="280" width="610" height="45" rx="4" fill="#22c55e" opacity="0.15" stroke="#22c55e"/>
    <text x="325" y="308" text-anchor="middle" class="heading-sm" fill="#22c55e">✓ SC-001: Zero horizontal scroll 320-428px</text>
  </g>

  <!-- Requirements panel -->
  <g transform="translate(710, 430)">
    <rect x="0" y="0" width="650" height="340" rx="8" fill="#f5f0e6" stroke="#b8a080"/>
    <text x="20" y="28" class="heading-sm">Breakpoint Requirements</text>

    <rect x="20" y="45" width="300" height="55" rx="4" fill="#e8d4b8" stroke="#22c55e" stroke-width="2"/>
    <text x="35" y="68" class="spec-label">NFR-001</text>
    <text x="35" y="88" class="text-sm">320-767px mobile, 768-1023px tablet, 1024px+ desktop</text>

    <rect x="330" y="45" width="300" height="55" rx="4" fill="#e8d4b8" stroke="#22c55e" stroke-width="2"/>
    <text x="345" y="68" class="spec-label">NFR-002</text>
    <text x="345" y="88" class="text-sm">Mobile-first CSS: base styles for mobile</text>

    <rect x="20" y="110" width="300" height="55" rx="4" fill="#e8d4b8" stroke="#22c55e" stroke-width="2"/>
    <text x="35" y="133" class="spec-label">NFR-003</text>
    <text x="35" y="153" class="text-sm">320px minimum, narrower = degraded</text>

    <rect x="330" y="110" width="300" height="55" rx="4" fill="#e8d4b8" stroke="#22c55e" stroke-width="2"/>
    <text x="345" y="133" class="spec-label">FR-017</text>
    <text x="345" y="153" class="text-sm">Start from 320px, enhance progressively</text>

    <rect x="20" y="175" width="300" height="55" rx="4" fill="#e8d4b8" stroke="#22c55e" stroke-width="2"/>
    <text x="35" y="198" class="spec-label">FR-018</text>
    <text x="35" y="218" class="text-sm">Purpose-built mobile layouts (not scaled)</text>

    <rect x="330" y="175" width="300" height="55" rx="4" fill="#e8d4b8" stroke="#22c55e" stroke-width="2"/>
    <text x="345" y="198" class="spec-label">FR-011</text>
    <text x="345" y="218" class="text-sm">Zero horizontal scroll 320-428px</text>

    <!-- Testing requirements -->
    <rect x="20" y="240" width="300" height="55" rx="4" fill="#e8d4b8" stroke="#22c55e" stroke-width="2"/>
    <text x="35" y="263" class="spec-label">FR-025 + FR-026</text>
    <text x="35" y="283" class="text-sm">H-scroll + touch target auto-tests</text>

    <rect x="330" y="240" width="300" height="55" rx="4" fill="#e8d4b8" stroke="#22c55e" stroke-width="2"/>
    <text x="345" y="263" class="spec-label">FR-027</text>
    <text x="345" y="283" class="text-sm">Visual regression baselines</text>

    <!-- Success banner -->
    <rect x="20" y="305" width="610" height="28" rx="4" fill="#22c55e" opacity="0.15" stroke="#22c55e"/>
    <text x="325" y="324" text-anchor="middle" class="heading-sm" fill="#22c55e">✓ Mobile-First Progressive Enhancement</text>
  </g>

  <!-- Footer -->
  <text x="700" y="785" text-anchor="middle" class="text-muted">Breakpoint System • Feature 004 • ScriptHammer</text>
</svg>
