<svg xmlns="http://www.w3.org/2000/svg" viewBox="0 0 1400 800" width="1400" height="800">
  <!-- ============================================================
       GENERATED BY: /wireframe skill
       SOURCE: features/foundation/004-mobile-first-design/spec.md
       DATE: 2025-12-31
       THEME: Light (UX/Frontend)
       DO NOT MANUALLY EDIT - Regenerate with /wireframe command
       ============================================================ -->
  <defs>
    <linearGradient id="bgGrad" x1="0%" y1="0%" x2="100%" y2="100%">
      <stop offset="0%" style="stop-color:#ffffff"/>
      <stop offset="100%" style="stop-color:#f0f4f8"/>
    </linearGradient>
    <linearGradient id="accentGrad" x1="0%" y1="0%" x2="100%" y2="0%">
      <stop offset="0%" style="stop-color:#8b5cf6"/>
      <stop offset="100%" style="stop-color:#d946ef"/>
    </linearGradient>
    <style>
      .heading-lg { fill: #1f2937; font-family: system-ui, sans-serif; font-size: 20px; font-weight: bold; }
      .heading { fill: #1f2937; font-family: system-ui, sans-serif; font-size: 14px; font-weight: bold; }
      .heading-sm { fill: #1f2937; font-family: system-ui, sans-serif; font-size: 12px; font-weight: bold; }
      .text-md { fill: #374151; font-family: system-ui, sans-serif; font-size: 12px; }
      .text-sm { fill: #6b7280; font-family: system-ui, sans-serif; font-size: 10px; }
      .text-muted { fill: #9ca3af; font-family: system-ui, sans-serif; font-size: 10px; }
      .annotation { fill: #8b5cf6; font-family: monospace; font-size: 10px; }
      .label-desktop { fill: #8b5cf6; font-family: monospace; font-size: 11px; font-weight: bold; }
      .label-mobile { fill: #d946ef; font-family: monospace; font-size: 11px; font-weight: bold; }
      .code { fill: #6366f1; font-family: monospace; font-size: 10px; }
    </style>
  </defs>

  <!-- Background -->
  <rect width="1400" height="800" fill="url(#bgGrad)"/>

  <!-- Dot grid pattern -->
  <g opacity="0.4">
    <pattern id="dots" width="30" height="30" patternUnits="userSpaceOnUse">
      <circle cx="15" cy="15" r="1" fill="#a5b4fc"/>
    </pattern>
    <rect width="1400" height="800" fill="url(#dots)"/>
  </g>

  <!-- Accent line top -->
  <rect x="0" y="0" width="1400" height="3" fill="url(#accentGrad)"/>

  <!-- Title -->
  <text x="700" y="28" text-anchor="middle" font-family="system-ui, sans-serif" font-size="14" font-weight="600" fill="#9ca3af" letter-spacing="1">IMAGE ERROR STATES - FALLBACK, RETRY, ZOOM SUPPORT</text>

  <!-- Default Behavior: Styled Placeholder with Retry -->
  <g id="default-behavior" transform="translate(40, 60)">
    <text x="0" y="0" class="heading">Default Behavior: Styled Placeholder + Retry (FR-016a)</text>
    <text x="0" y="18" class="text-muted">Single swappable component with documented alternatives (FR-016b)</text>

    <!-- Desktop version -->
    <g transform="translate(0, 40)">
      <text x="0" y="0" class="label-desktop">DESKTOP</text>

      <g transform="translate(0, 15)">
        <!-- Image container with error state -->
        <rect x="0" y="0" width="450" height="250" rx="8" fill="#fef2f2" stroke="#ef4444" stroke-width="2"/>

        <!-- Broken image icon -->
        <g transform="translate(175, 60)">
          <rect x="0" y="0" width="100" height="75" rx="6" fill="#fee2e2" stroke="#fca5a5" stroke-width="2"/>
          <line x1="15" y1="15" x2="85" y2="60" stroke="#f87171" stroke-width="3" stroke-linecap="round"/>
          <line x1="85" y1="15" x2="15" y2="60" stroke="#f87171" stroke-width="3" stroke-linecap="round"/>
          <!-- Mountain icon placeholder -->
          <polygon points="30,55 50,35 70,55" fill="#fca5a5"/>
          <circle cx="70" cy="30" r="8" fill="#fca5a5"/>
        </g>

        <!-- Alt text (visible) -->
        <rect x="75" y="150" width="300" height="30" rx="4" fill="#ffffff"/>
        <text x="225" y="170" text-anchor="middle" class="text-md" fill="#374151">"A diagram showing responsive breakpoints"</text>

        <!-- Retry button -->
        <rect x="150" y="195" width="150" height="40" rx="6" fill="#ef4444"/>
        <text x="225" y="220" text-anchor="middle" fill="#ffffff" font-family="system-ui" font-size="12" font-weight="600">↻ Retry Loading</text>
      </g>
    </g>

    <!-- Mobile version -->
    <g transform="translate(500, 40)">
      <text x="0" y="0" class="label-mobile">MOBILE</text>

      <g transform="translate(0, 15)">
        <!-- Phone frame snippet -->
        <rect x="0" y="0" width="280" height="220" rx="12" fill="#ffffff" stroke="#d946ef" stroke-width="2"/>

        <!-- Error state in mobile -->
        <rect x="15" y="15" width="250" height="190" rx="8" fill="#fef2f2" stroke="#ef4444"/>

        <!-- Broken image icon (smaller) -->
        <g transform="translate(90, 30)">
          <rect x="0" y="0" width="70" height="55" rx="4" fill="#fee2e2" stroke="#fca5a5"/>
          <line x1="10" y1="10" x2="60" y2="45" stroke="#f87171" stroke-width="2"/>
          <line x1="60" y1="10" x2="10" y2="45" stroke="#f87171" stroke-width="2"/>
        </g>

        <!-- Alt text -->
        <rect x="30" y="100" width="190" height="24" rx="3" fill="#ffffff"/>
        <text x="125" y="117" text-anchor="middle" class="text-sm" fill="#374151">"Responsive breakpoints"</text>

        <!-- Retry button (44px touch target) -->
        <rect x="65" y="135" width="120" height="44" rx="6" fill="#ef4444"/>
        <text x="125" y="162" text-anchor="middle" fill="#ffffff" font-family="system-ui" font-size="11" font-weight="600">↻ Retry</text>
      </g>

      <!-- Touch target annotation -->
      <g transform="translate(200, 150)">
        <line x1="0" y1="0" x2="60" y2="0" stroke="#d946ef" stroke-dasharray="3,2"/>
        <rect x="65" y="-12" width="60" height="24" rx="4" fill="#fce7f3" stroke="#d946ef"/>
        <text x="95" y="4" text-anchor="middle" class="code" fill="#d946ef">44px</text>
      </g>
    </g>
  </g>

  <!-- Alternative Behaviors (for fork customization) -->
  <g id="alternative-behaviors" transform="translate(40, 370)">
    <text x="0" y="0" class="heading">Alternative Behaviors (NFR-013: Documented for Fork Customization)</text>

    <!-- Option 1: LQIP Blur-up -->
    <g transform="translate(0, 30)">
      <rect x="0" y="0" width="250" height="180" rx="8" fill="#ffffff" stroke="#e5e7eb"/>
      <text x="125" y="25" text-anchor="middle" class="heading-sm">LQIP Blur-Up</text>

      <!-- Blurred placeholder transitioning to clear -->
      <rect x="25" y="45" width="200" height="100" rx="6" fill="#f3f4f6"/>

      <!-- Blur effect representation -->
      <g opacity="0.6">
        <rect x="35" y="55" width="50" height="35" rx="4" fill="#d1d5db"/>
        <rect x="95" y="55" width="50" height="35" rx="4" fill="#d1d5db"/>
        <rect x="155" y="55" width="50" height="35" rx="4" fill="#d1d5db"/>
        <rect x="65" y="95" width="80" height="30" rx="4" fill="#d1d5db"/>
      </g>

      <!-- Arrow indicating transition -->
      <text x="125" y="120" text-anchor="middle" class="text-sm">Low quality → Clear</text>

      <text x="125" y="160" text-anchor="middle" class="text-muted">Shows blurred preview</text>
      <text x="125" y="175" text-anchor="middle" class="text-muted">while loading full image</text>
    </g>

    <!-- Option 2: Hide on Error -->
    <g transform="translate(280, 30)">
      <rect x="0" y="0" width="250" height="180" rx="8" fill="#ffffff" stroke="#e5e7eb"/>
      <text x="125" y="25" text-anchor="middle" class="heading-sm">Hide on Error</text>

      <!-- Content flows around missing image -->
      <rect x="25" y="45" width="200" height="100" rx="6" fill="#f9fafb" stroke="#e5e7eb" stroke-dasharray="4,2"/>

      <text x="125" y="85" text-anchor="middle" class="text-sm" fill="#9ca3af">Image removed</text>
      <text x="125" y="105" text-anchor="middle" class="text-sm" fill="#9ca3af">Content reflows</text>

      <text x="125" y="160" text-anchor="middle" class="text-muted">Removes failed image</text>
      <text x="125" y="175" text-anchor="middle" class="text-muted">Layout adjusts</text>
    </g>

    <!-- Option 3: Custom Component -->
    <g transform="translate(560, 30)">
      <rect x="0" y="0" width="250" height="180" rx="8" fill="#ffffff" stroke="#8b5cf6"/>
      <text x="125" y="25" text-anchor="middle" class="heading-sm" fill="#8b5cf6">Custom Component</text>

      <!-- Custom placeholder representation -->
      <rect x="25" y="45" width="200" height="100" rx="6" fill="#ede9fe" stroke="#8b5cf6"/>

      <text x="125" y="80" text-anchor="middle" class="annotation">Your Logo</text>
      <text x="125" y="100" text-anchor="middle" class="text-sm" fill="#8b5cf6">Brand-specific</text>
      <text x="125" y="115" text-anchor="middle" class="text-sm" fill="#8b5cf6">placeholder</text>

      <text x="125" y="160" text-anchor="middle" class="text-muted">Fork customizable via</text>
      <text x="125" y="175" text-anchor="middle" class="text-muted">ImageErrorFallback.tsx</text>
    </g>
  </g>

  <!-- User Zoom Support -->
  <g id="zoom-support" transform="translate(860, 60)">
    <text x="0" y="0" class="heading">User Zoom Support (FR-022)</text>
    <text x="0" y="18" class="text-muted">Layouts support up to 200% zoom without breaking</text>

    <!-- Normal view -->
    <g transform="translate(0, 40)">
      <text x="0" y="0" class="heading-sm">100% Zoom</text>

      <rect x="0" y="15" width="200" height="150" rx="8" fill="#ffffff" stroke="#e5e7eb"/>

      <!-- Content at normal size -->
      <rect x="10" y="25" width="180" height="14" rx="2" fill="#374151"/>
      <rect x="10" y="45" width="160" height="10" rx="2" fill="#9ca3af"/>
      <rect x="10" y="60" width="140" height="10" rx="2" fill="#9ca3af"/>
      <rect x="10" y="80" width="180" height="70" rx="4" fill="#f3f4f6"/>
    </g>

    <!-- 200% zoom view -->
    <g transform="translate(230, 40)">
      <text x="0" y="0" class="heading-sm" fill="#22c55e">200% Zoom</text>

      <rect x="0" y="15" width="260" height="200" rx="8" fill="#ffffff" stroke="#22c55e" stroke-width="2"/>

      <!-- Content at 2x size - still fits -->
      <rect x="10" y="25" width="240" height="28" rx="4" fill="#374151"/>
      <rect x="10" y="60" width="200" height="20" rx="3" fill="#9ca3af"/>
      <rect x="10" y="85" width="180" height="20" rx="3" fill="#9ca3af"/>
      <rect x="10" y="115" width="240" height="80" rx="6" fill="#f3f4f6"/>

      <!-- Check mark -->
      <circle cx="240" cy="35" r="12" fill="#22c55e"/>
      <text x="240" y="40" text-anchor="middle" fill="#ffffff" font-size="14">✓</text>
    </g>

    <!-- Annotation -->
    <g transform="translate(0, 280)">
      <rect x="0" y="0" width="490" height="55" rx="6" fill="#f0fdf4" stroke="#22c55e"/>
      <text x="15" y="22" class="text-md" fill="#166534">✓ Text remains readable at all zoom levels</text>
      <text x="15" y="42" class="text-md" fill="#166534">✓ Layouts reflow instead of requiring horizontal scroll</text>
    </g>
  </g>

  <!-- Component Architecture -->
  <g id="component-architecture" transform="translate(860, 400)">
    <text x="0" y="0" class="heading">Component Architecture (FR-016b)</text>

    <g transform="translate(0, 25)">
      <rect x="0" y="0" width="490" height="180" rx="8" fill="#1f2937"/>

      <text x="15" y="25" class="code" fill="#94a3b8">// components/ImageErrorFallback.tsx</text>
      <text x="15" y="50" class="code" fill="#a78bfa">interface</text>
      <text x="70" y="50" class="code" fill="#fbbf24">ImageErrorProps</text>
      <text x="175" y="50" class="code" fill="#94a3b8">{</text>

      <text x="25" y="70" class="code" fill="#22d3ee">alt</text>
      <text x="45" y="70" class="code" fill="#94a3b8">:</text>
      <text x="55" y="70" class="code" fill="#fbbf24">string</text>
      <text x="95" y="70" class="code" fill="#94a3b8">;</text>

      <text x="25" y="90" class="code" fill="#22d3ee">onRetry</text>
      <text x="70" y="90" class="code" fill="#94a3b8">?:</text>
      <text x="85" y="90" class="code" fill="#fbbf24">() =&gt; void</text>
      <text x="145" y="90" class="code" fill="#94a3b8">;</text>

      <text x="25" y="110" class="code" fill="#22d3ee">variant</text>
      <text x="70" y="110" class="code" fill="#94a3b8">?:</text>
      <text x="85" y="110" class="code" fill="#fbbf24">'placeholder'</text>
      <text x="155" y="110" class="code" fill="#94a3b8">|</text>
      <text x="165" y="110" class="code" fill="#fbbf24">'hide'</text>
      <text x="195" y="110" class="code" fill="#94a3b8">|</text>
      <text x="205" y="110" class="code" fill="#fbbf24">'lqip'</text>
      <text x="235" y="110" class="code" fill="#94a3b8">;</text>

      <text x="15" y="130" class="code" fill="#94a3b8">}</text>

      <text x="15" y="155" class="code" fill="#94a3b8">// Default: 'placeholder' with retry button</text>
      <text x="15" y="170" class="code" fill="#94a3b8">// Fork: Override in your ImageErrorFallback.tsx</text>
    </g>
  </g>

  <!-- Requirements Summary -->
  <g id="requirements" transform="translate(40, 600)">
    <text x="0" y="0" class="heading">Image Handling Requirements Summary</text>

    <g transform="translate(0, 25)">
      <rect x="0" y="0" width="700" height="130" rx="8" fill="#ffffff" stroke="#e5e7eb"/>

      <g transform="translate(20, 20)">
        <text x="0" y="0" class="annotation">FR-012</text>
        <text x="60" y="0" class="text-md">Images fit within mobile viewport using responsive srcset</text>

        <text x="0" y="25" class="annotation">FR-013</text>
        <text x="60" y="25" class="text-md">Images served in modern formats (WebP, AVIF) with fallbacks</text>

        <text x="0" y="50" class="annotation">FR-016a</text>
        <text x="60" y="50" class="text-md">Failed images display styled placeholder with alt text + retry button</text>

        <text x="0" y="75" class="annotation">FR-016b</text>
        <text x="60" y="75" class="text-md">Image error handling in single swappable component</text>

        <text x="0" y="100" class="annotation">FR-022</text>
        <text x="60" y="100" class="text-md">Support user zoom up to 200% without breaking layouts</text>
      </g>
    </g>

    <!-- NFR box -->
    <g transform="translate(720, 25)">
      <rect x="0" y="0" width="330" height="130" rx="8" fill="#ffffff" stroke="#8b5cf6"/>

      <g transform="translate(15, 20)">
        <text x="0" y="0" class="annotation">NFR-009</text>
        <text x="60" y="0" class="text-md">Responsive srcset with multiple sizes</text>

        <text x="0" y="25" class="annotation">NFR-013</text>
        <text x="60" y="25" class="text-md">Documented alternatives for forks:</text>
        <text x="60" y="42" class="text-sm">• LQIP blur-up</text>
        <text x="60" y="58" class="text-sm">• Hide on error</text>
        <text x="60" y="74" class="text-sm">• Custom component</text>

        <text x="0" y="100" class="annotation">SC-001</text>
        <text x="60" y="100" class="text-md">Zero horizontal scroll at all widths</text>
      </g>
    </g>
  </g>

  <!-- Feature reference -->
  <text x="1360" y="780" text-anchor="end" class="text-muted">004-mobile-first-design | 04 of 04</text>
</svg>
