<svg xmlns="http://www.w3.org/2000/svg" viewBox="0 0 1400 800" width="1400" height="800">
  <!-- ============================================================
       GENERATED BY: /wireframe skill
       SOURCE: features/enhancements/018-font-switcher/spec.md
       DATE: 2025-12-31
       DO NOT MANUALLY EDIT - Regenerate with /wireframe command
       ============================================================ -->
  <defs>
    <linearGradient id="bgGrad" x1="0%" y1="0%" x2="100%" y2="100%">
      <stop offset="0%" style="stop-color:#0f172a"/>
      <stop offset="100%" style="stop-color:#1e293b"/>
    </linearGradient>
    <linearGradient id="accentGrad" x1="0%" y1="0%" x2="100%" y2="0%">
      <stop offset="0%" style="stop-color:#8b5cf6"/>
      <stop offset="100%" style="stop-color:#d946ef"/>
    </linearGradient>
    <linearGradient id="successGrad" x1="0%" y1="0%" x2="100%" y2="0%">
      <stop offset="0%" style="stop-color:#22c55e"/>
      <stop offset="100%" style="stop-color:#10b981"/>
    </linearGradient>
    <style>
      .heading-lg { fill: #ffffff; font-family: system-ui, sans-serif; font-size: 20px; font-weight: bold; }
      .heading { fill: #ffffff; font-family: system-ui, sans-serif; font-size: 14px; font-weight: bold; }
      .text-md { fill: #cbd5e1; font-family: system-ui, sans-serif; font-size: 12px; }
      .text-sm { fill: #94a3b8; font-family: system-ui, sans-serif; font-size: 10px; }
      .text-muted { fill: #64748b; font-family: system-ui, sans-serif; font-size: 10px; }
      .annotation { fill: #8b5cf6; font-family: monospace; font-size: 10px; }
      .label { fill: #d946ef; font-family: monospace; font-size: 11px; font-weight: bold; }
      .font-system { font-family: system-ui, -apple-system, sans-serif; }
      .font-sans { font-family: 'Inter', 'Segoe UI', sans-serif; }
      .font-dyslexia { font-family: 'OpenDyslexic', 'Comic Sans MS', sans-serif; letter-spacing: 0.5px; }
      .font-readable { font-family: 'Atkinson Hyperlegible', 'Verdana', sans-serif; }
      .font-serif { font-family: 'Georgia', 'Times New Roman', serif; }
      .font-mono { font-family: 'JetBrains Mono', 'Consolas', monospace; }
    </style>
  </defs>

  <!-- Background -->
  <rect width="1400" height="800" fill="url(#bgGrad)"/>

  <!-- Dot grid pattern -->
  <g opacity="0.05">
    <pattern id="dots" width="30" height="30" patternUnits="userSpaceOnUse">
      <circle cx="15" cy="15" r="1" fill="#fff"/>
    </pattern>
    <rect width="1400" height="800" fill="url(#dots)"/>
  </g>

  <!-- Accent line top -->
  <rect x="0" y="0" width="1400" height="3" fill="url(#accentGrad)"/>

  <!-- Title -->
  <text x="700" y="28" text-anchor="middle" font-family="system-ui, sans-serif" font-size="14" font-weight="600" fill="#64748b" letter-spacing="1">018 - FONT SWITCHER</text>
  <text x="700" y="52" text-anchor="middle" class="heading-lg">Font Selection Panel with Live Preview</text>

  <!-- ==================== DESKTOP VIEW ==================== -->
  <g id="desktop" transform="translate(40, 80)">
    <text x="0" y="0" class="label">DESKTOP - SETTINGS PANEL</text>

    <!-- Browser chrome -->
    <rect x="0" y="15" width="880" height="520" rx="8" fill="#1e293b" stroke="#475569" stroke-width="1"/>
    <rect x="0" y="15" width="880" height="30" rx="8" fill="#334155"/>
    <rect x="0" y="37" width="880" height="8" fill="#334155"/>
    <circle cx="20" cy="30" r="5" fill="#ef4444"/>
    <circle cx="40" cy="30" r="5" fill="#eab308"/>
    <circle cx="60" cy="30" r="5" fill="#22c55e"/>
    <rect x="120" y="23" width="200" height="14" rx="7" fill="#1e293b"/>
    <text x="220" y="33" text-anchor="middle" class="text-sm">scripthammer.com/settings</text>

    <!-- Settings sidebar -->
    <rect x="0" y="45" width="180" height="490" fill="#0f172a"/>
    <text x="20" y="75" class="heading">Settings</text>

    <rect x="10" y="90" width="160" height="32" rx="4" fill="#334155"/>
    <text x="20" y="110" class="text-md" fill="#fff">Account</text>

    <rect x="10" y="130" width="160" height="32" rx="4" fill="#334155"/>
    <text x="20" y="150" class="text-md" fill="#fff">Privacy</text>

    <rect x="10" y="170" width="160" height="32" rx="4" fill="#8b5cf6" opacity="0.3"/>
    <rect x="10" y="170" width="160" height="32" rx="4" fill="none" stroke="#8b5cf6" stroke-width="2"/>
    <text x="20" y="190" class="text-md" fill="#8b5cf6">Appearance</text>

    <rect x="10" y="210" width="160" height="32" rx="4" fill="#334155"/>
    <text x="20" y="230" class="text-md" fill="#fff">Notifications</text>

    <rect x="10" y="250" width="160" height="32" rx="4" fill="#334155"/>
    <text x="20" y="270" class="text-md" fill="#fff">Accessibility</text>

    <!-- Main content area -->
    <g transform="translate(200, 60)">
      <text x="0" y="20" class="heading-lg">Appearance</text>
      <text x="0" y="40" class="text-md">Customize how the application looks for you</text>

      <!-- Theme section (collapsed) -->
      <rect x="0" y="60" width="660" height="50" rx="8" fill="#334155"/>
      <text x="20" y="90" class="heading">Theme</text>
      <text x="400" y="90" class="text-sm">Dark Mode</text>
      <rect x="580" y="78" width="60" height="24" rx="12" fill="#8b5cf6"/>
      <circle cx="622" cy="90" r="10" fill="#fff"/>

      <!-- FONT SECTION (Expanded) -->
      <rect x="0" y="120" width="660" height="340" rx="8" fill="#1e293b" stroke="#8b5cf6" stroke-width="2"/>

      <g transform="translate(20, 140)">
        <text x="0" y="0" class="heading">Font Family</text>
        <text x="0" y="18" class="text-sm">Choose the typography style for all text in the application</text>

        <!-- Font options grid (3x2) -->
        <g transform="translate(0, 35)">
          <!-- Row 1 -->
          <!-- System Default (selected) -->
          <rect x="0" y="0" width="200" height="80" rx="6" fill="#0f172a" stroke="#8b5cf6" stroke-width="2"/>
          <circle cx="180" cy="15" r="8" fill="#8b5cf6"/>
          <text x="174" y="19" fill="#fff" font-size="10" font-weight="bold">&#10003;</text>
          <text x="15" y="25" fill="#fff" font-size="14" class="font-system">System Default</text>
          <text x="15" y="45" fill="#94a3b8" font-size="11" class="font-system">The quick brown fox jumps</text>
          <text x="15" y="65" class="text-muted">Uses device's native fonts</text>

          <!-- Screen-Optimized Sans -->
          <rect x="215" y="0" width="200" height="80" rx="6" fill="#0f172a" stroke="#475569" stroke-width="1"/>
          <text x="230" y="25" fill="#fff" font-size="14" class="font-sans">Screen Sans</text>
          <text x="230" y="45" fill="#94a3b8" font-size="11" class="font-sans">The quick brown fox jumps</text>
          <text x="230" y="65" class="text-muted">Optimized for digital screens</text>

          <!-- Dyslexia-Friendly -->
          <rect x="430" y="0" width="200" height="80" rx="6" fill="#0f172a" stroke="#22c55e" stroke-width="1"/>
          <rect x="510" y="5" width="60" height="16" rx="8" fill="#22c55e" opacity="0.2"/>
          <text x="520" y="16" fill="#22c55e" font-size="8" font-weight="bold">A11Y</text>
          <text x="445" y="25" fill="#fff" font-size="14" class="font-dyslexia">Dyslexia-Friendly</text>
          <text x="445" y="45" fill="#94a3b8" font-size="11" class="font-dyslexia">The quick brown fox jumps</text>
          <text x="445" y="65" class="text-muted">Designed for dyslexic readers</text>

          <!-- Row 2 -->
          <!-- High-Readability -->
          <rect x="0" y="95" width="200" height="80" rx="6" fill="#0f172a" stroke="#22c55e" stroke-width="1"/>
          <rect x="80" y="100" width="60" height="16" rx="8" fill="#22c55e" opacity="0.2"/>
          <text x="90" y="111" fill="#22c55e" font-size="8" font-weight="bold">A11Y</text>
          <text x="15" y="120" fill="#fff" font-size="14" class="font-readable">High-Readability</text>
          <text x="15" y="140" fill="#94a3b8" font-size="11" class="font-readable">The quick brown fox jumps</text>
          <text x="15" y="160" class="text-muted">Maximum character distinction</text>

          <!-- Serif -->
          <rect x="215" y="95" width="200" height="80" rx="6" fill="#0f172a" stroke="#475569" stroke-width="1"/>
          <text x="230" y="120" fill="#fff" font-size="14" class="font-serif">Classic Serif</text>
          <text x="230" y="140" fill="#94a3b8" font-size="11" class="font-serif">The quick brown fox jumps</text>
          <text x="230" y="160" class="text-muted">Traditional long-form reading</text>

          <!-- Monospace -->
          <rect x="430" y="95" width="200" height="80" rx="6" fill="#0f172a" stroke="#475569" stroke-width="1"/>
          <text x="445" y="120" fill="#fff" font-size="14" class="font-mono">Monospace</text>
          <text x="445" y="140" fill="#94a3b8" font-size="11" class="font-mono">The quick brown fox jumps</text>
          <text x="445" y="160" class="text-muted">Code and technical content</text>
        </g>

        <!-- Reset to default -->
        <g transform="translate(0, 220)">
          <rect x="0" y="0" width="140" height="32" rx="6" fill="#334155" stroke="#475569" stroke-width="1"/>
          <text x="20" y="21" class="text-md" fill="#cbd5e1">Reset to Default</text>
        </g>
      </g>
    </g>
  </g>

  <!-- ==================== MOBILE VIEW ==================== -->
  <g id="mobile" transform="translate(960, 80)">
    <text x="0" y="0" class="label">MOBILE - FONT PICKER</text>

    <!-- Phone frame -->
    <rect x="0" y="15" width="360" height="700" rx="24" fill="#1e293b" stroke="#475569" stroke-width="2"/>

    <!-- Status bar -->
    <text x="20" y="40" fill="#fff" font-size="12" font-weight="600">9:41</text>
    <g transform="translate(280, 32)">
      <rect x="0" y="0" width="18" height="10" rx="2" fill="none" stroke="#fff" stroke-width="1"/>
      <rect x="18" y="3" width="2" height="4" rx="1" fill="#fff"/>
      <rect x="2" y="2" width="12" height="6" rx="1" fill="#fff"/>
    </g>

    <!-- Header -->
    <rect x="0" y="52" width="360" height="50" fill="#0f172a"/>
    <text x="30" y="82" fill="#8b5cf6" font-size="20">&larr;</text>
    <text x="180" y="84" text-anchor="middle" class="heading" fill="#fff">Font Family</text>

    <!-- Font list -->
    <g transform="translate(15, 115)">
      <!-- System Default (selected) -->
      <rect x="0" y="0" width="330" height="70" rx="8" fill="#0f172a" stroke="#8b5cf6" stroke-width="2"/>
      <text x="15" y="25" fill="#fff" font-size="15" class="font-system">System Default</text>
      <text x="15" y="45" fill="#94a3b8" font-size="12" class="font-system">The quick brown fox jumps over</text>
      <text x="15" y="60" class="text-muted">Uses device's native fonts</text>
      <circle cx="305" cy="35" r="10" fill="#8b5cf6"/>
      <text x="299" y="39" fill="#fff" font-size="12" font-weight="bold">&#10003;</text>

      <!-- Screen Sans -->
      <rect x="0" y="80" width="330" height="70" rx="8" fill="#0f172a" stroke="#475569" stroke-width="1"/>
      <text x="15" y="105" fill="#fff" font-size="15" class="font-sans">Screen Sans</text>
      <text x="15" y="125" fill="#94a3b8" font-size="12" class="font-sans">The quick brown fox jumps over</text>
      <text x="15" y="140" class="text-muted">Optimized for digital screens</text>

      <!-- Dyslexia-Friendly with badge -->
      <rect x="0" y="160" width="330" height="70" rx="8" fill="#0f172a" stroke="#22c55e" stroke-width="1"/>
      <rect x="240" y="168" width="75" height="18" rx="9" fill="#22c55e" opacity="0.2"/>
      <text x="256" y="181" fill="#22c55e" font-size="10" font-weight="bold">Accessibility</text>
      <text x="15" y="185" fill="#fff" font-size="15" class="font-dyslexia">Dyslexia-Friendly</text>
      <text x="15" y="205" fill="#94a3b8" font-size="12" class="font-dyslexia">The quick brown fox jumps over</text>
      <text x="15" y="220" class="text-muted">Designed for dyslexic readers</text>

      <!-- High-Readability with badge -->
      <rect x="0" y="240" width="330" height="70" rx="8" fill="#0f172a" stroke="#22c55e" stroke-width="1"/>
      <rect x="240" y="248" width="75" height="18" rx="9" fill="#22c55e" opacity="0.2"/>
      <text x="256" y="261" fill="#22c55e" font-size="10" font-weight="bold">Accessibility</text>
      <text x="15" y="265" fill="#fff" font-size="15" class="font-readable">High-Readability</text>
      <text x="15" y="285" fill="#94a3b8" font-size="12" class="font-readable">The quick brown fox jumps over</text>
      <text x="15" y="300" class="text-muted">Maximum character distinction</text>

      <!-- Serif -->
      <rect x="0" y="320" width="330" height="70" rx="8" fill="#0f172a" stroke="#475569" stroke-width="1"/>
      <text x="15" y="345" fill="#fff" font-size="15" class="font-serif">Classic Serif</text>
      <text x="15" y="365" fill="#94a3b8" font-size="12" class="font-serif">The quick brown fox jumps over</text>
      <text x="15" y="380" class="text-muted">Traditional long-form reading</text>

      <!-- Monospace -->
      <rect x="0" y="400" width="330" height="70" rx="8" fill="#0f172a" stroke="#475569" stroke-width="1"/>
      <text x="15" y="425" fill="#fff" font-size="15" class="font-mono">Monospace</text>
      <text x="15" y="445" fill="#94a3b8" font-size="12" class="font-mono">The quick brown fox jumps over</text>
      <text x="15" y="460" class="text-muted">Code and technical content</text>
    </g>

    <!-- Bottom nav hint -->
    <rect x="100" y="675" width="160" height="5" rx="2" fill="#475569"/>
  </g>

  <!-- ==================== ANNOTATIONS ==================== -->
  <g id="annotations" transform="translate(40, 620)">
    <text x="0" y="0" class="label">KEY REQUIREMENTS</text>

    <rect x="0" y="15" width="440" height="140" rx="8" fill="#1e293b" stroke="#475569" stroke-width="1"/>

    <g transform="translate(20, 40)">
      <text x="0" y="0" class="annotation">FR-001</text>
      <text x="55" y="0" class="text-md">6+ font options available</text>
    </g>
    <g transform="translate(20, 60)">
      <text x="0" y="0" class="annotation">FR-002</text>
      <text x="55" y="0" class="text-md">Dyslexia-friendly font included</text>
    </g>
    <g transform="translate(20, 80)">
      <text x="0" y="0" class="annotation">FR-003</text>
      <text x="55" y="0" class="text-md">High-readability font included</text>
    </g>
    <g transform="translate(20, 100)">
      <text x="0" y="0" class="annotation">FR-010</text>
      <text x="55" y="0" class="text-md">Each option rendered in its own typeface</text>
    </g>
    <g transform="translate(20, 120)">
      <text x="0" y="0" class="annotation">FR-011</text>
      <text x="55" y="0" class="text-md">Accessibility-optimized fonts labeled</text>
    </g>
  </g>

  <g id="success-criteria" transform="translate(500, 620)">
    <text x="0" y="0" class="label">SUCCESS CRITERIA</text>

    <rect x="0" y="15" width="440" height="140" rx="8" fill="#1e293b" stroke="#22c55e" stroke-width="1"/>

    <g transform="translate(20, 40)">
      <circle cx="8" cy="-4" r="6" fill="#22c55e"/>
      <text x="24" y="0" class="text-md">SC-001: All fonts selectable and render correctly</text>
    </g>
    <g transform="translate(20, 60)">
      <circle cx="8" cy="-4" r="6" fill="#22c55e"/>
      <text x="24" y="0" class="text-md">SC-003: No layout shift during font changes</text>
    </g>
    <g transform="translate(20, 80)">
      <circle cx="8" cy="-4" r="6" fill="#22c55e"/>
      <text x="24" y="0" class="text-md">SC-005: A11y fonts clearly labeled &amp; discoverable</text>
    </g>
    <g transform="translate(20, 100)">
      <circle cx="8" cy="-4" r="6" fill="#22c55e"/>
      <text x="24" y="0" class="text-md">SC-006: Font changes apply instantly</text>
    </g>
  </g>

  <g id="font-categories" transform="translate(960, 620)">
    <text x="0" y="0" class="label">FONT CATEGORIES</text>

    <rect x="0" y="15" width="390" height="140" rx="8" fill="#1e293b" stroke="#d946ef" stroke-width="1"/>

    <g transform="translate(20, 38)">
      <rect x="0" y="0" width="80" height="20" rx="4" fill="#334155"/>
      <text x="10" y="14" class="text-sm" fill="#fff">Sans-Serif</text>
      <text x="95" y="14" class="text-sm">System, Screen Sans, Dyslexia, Readable</text>
    </g>
    <g transform="translate(20, 68)">
      <rect x="0" y="0" width="80" height="20" rx="4" fill="#334155"/>
      <text x="10" y="14" class="text-sm" fill="#fff">Serif</text>
      <text x="95" y="14" class="text-sm">Classic Serif for long-form reading</text>
    </g>
    <g transform="translate(20, 98)">
      <rect x="0" y="0" width="80" height="20" rx="4" fill="#334155"/>
      <text x="10" y="14" class="text-sm" fill="#fff">Monospace</text>
      <text x="95" y="14" class="text-sm">Code blocks and technical content</text>
    </g>
    <g transform="translate(20, 128)">
      <rect x="0" y="0" width="80" height="20" rx="4" fill="#22c55e" opacity="0.3"/>
      <text x="10" y="14" class="text-sm" fill="#22c55e">A11Y</text>
      <text x="95" y="14" class="text-sm">Green border = accessibility-optimized</text>
    </g>
  </g>

  <!-- Version badge -->
  <rect x="1280" y="770" width="110" height="22" rx="11" fill="#334155"/>
  <text x="1335" y="785" text-anchor="middle" class="text-muted">v1.0 | 2025-12-31</text>
</svg>
