<svg xmlns="http://www.w3.org/2000/svg" viewBox="0 0 1400 800" width="1400" height="800">
  <!-- ============================================================
       GENERATED BY: /wireframe skill
       SOURCE: features/enhancements/018-font-switcher/spec.md
       DATE: 2026-01-01
       THEME: Light (UX/Frontend) - v3 True Parchment
       DO NOT MANUALLY EDIT - Regenerate with /wireframe command
       ============================================================ -->
  <defs>
    <linearGradient id="bgGrad" x1="0%" y1="0%" x2="100%" y2="100%">
      <stop offset="0%" style="stop-color:#c7ddf5"/>
      <stop offset="100%" style="stop-color:#b8d4f0"/>
    </linearGradient>
    <linearGradient id="accentGrad" x1="0%" y1="0%" x2="100%" y2="0%">
      <stop offset="0%" style="stop-color:#8b5cf6"/>
      <stop offset="100%" style="stop-color:#d946ef"/>
    </linearGradient>
    <style>
      .heading-lg { fill: #1a1a2e; font-family: system-ui, sans-serif; font-size: 24px; font-weight: 800; }
      .heading { fill: #1a1a2e; font-family: system-ui, sans-serif; font-size: 16px; font-weight: 700; }
      .text-md { fill: #2d3748; font-family: system-ui, sans-serif; font-size: 14px; font-weight: 500; }
      .text-sm { fill: #4a5568; font-family: system-ui, sans-serif; font-size: 12px; font-weight: 500; }
      .text-muted { fill: #5a6577; font-family: system-ui, sans-serif; font-size: 11px; font-weight: 500; }
      .annotation { fill: #8b5cf6; font-family: monospace; font-size: 12px; font-weight: 600; }
      .label-desktop { fill: #8b5cf6; font-family: monospace; font-size: 13px; font-weight: bold; }
      .label-mobile { fill: #d946ef; font-family: monospace; font-size: 13px; font-weight: bold; }
    </style>
  </defs>

  <!-- Background -->
  <rect width="1400" height="800" fill="url(#bgGrad)"/>

  <!-- Dot grid pattern -->
  <g opacity="0.35">
    <pattern id="dots" width="30" height="30" patternUnits="userSpaceOnUse">
      <circle cx="15" cy="15" r="1" fill="#6b8cba"/>
    </pattern>
    <rect width="1400" height="800" fill="url(#dots)"/>
  </g>

  <!-- Accent line top -->
  <rect x="0" y="0" width="1400" height="3" fill="url(#accentGrad)"/>

  <!-- Title -->
  <text x="700" y="28" text-anchor="middle" font-family="system-ui, sans-serif" font-size="14" font-weight="600" fill="#5a6577" letter-spacing="1">FONT SWITCHER - SELECTION UI</text>

  <!-- DESKTOP SECTION -->
  <text x="40" y="52" class="label-desktop">DESKTOP</text>
  <g id="desktop-view">
    <!-- Main panel -->
    <rect x="40" y="60" width="900" height="680" rx="8" fill="#e8d4b8" stroke="#b8a080" stroke-width="1"/>

    <!-- Header -->
    <rect x="40" y="60" width="900" height="50" rx="8" fill="#dcc8a8"/>
    <text x="60" y="92" class="heading">Settings</text>
    <text x="140" y="92" class="text-muted">/ Appearance</text>

    <!-- Settings sidebar -->
    <rect x="50" y="120" width="180" height="600" rx="6" fill="#dcc8a8"/>
    <text x="70" y="150" class="text-md">General</text>
    <rect x="60" y="165" width="160" height="35" rx="4" fill="#8b5cf6"/>
    <text x="80" y="188" fill="#fff" font-size="13" font-weight="600">Appearance</text>
    <text x="70" y="225" class="text-md">Notifications</text>
    <text x="70" y="260" class="text-md">Privacy</text>
    <text x="70" y="295" class="text-md">Account</text>

    <!-- Main content area -->
    <g transform="translate(250, 120)">
      <text x="0" y="25" class="heading-lg">Appearance</text>
      <text x="0" y="50" class="text-muted">Customize how ScriptHammer looks for you</text>

      <!-- Font Section -->
      <g transform="translate(0, 80)">
        <text x="0" y="0" class="heading">Font</text>
        <text x="0" y="22" class="text-sm">Choose your preferred typography</text>

        <!-- Font dropdown (expanded) -->
        <rect x="0" y="40" width="400" height="380" rx="8" fill="#f5f0e6" stroke="#8b5cf6" stroke-width="2"/>

        <!-- Current selection -->
        <rect x="0" y="40" width="400" height="50" rx="8" fill="#f5f0e6" stroke="#8b5cf6" stroke-width="2"/>
        <text x="20" y="72" class="heading">Screen-Optimized Sans</text>
        <text x="360" y="72" class="text-sm">▼</text>

        <!-- Font Options List -->
        <g transform="translate(10, 100)">
          <!-- Option 1: System Default -->
          <g transform="translate(0, 0)">
            <rect x="0" y="0" width="380" height="50" rx="4" fill="#e8d4b8"/>
            <text x="15" y="22" font-family="system-ui, sans-serif" font-size="14" fill="#1a1a2e">System Default</text>
            <text x="15" y="40" class="text-muted">Uses your device's native fonts</text>
            <rect x="300" y="12" width="70" height="22" rx="11" fill="#8b5cf6" opacity="0.2"/>
            <text x="335" y="27" text-anchor="middle" font-size="9" fill="#8b5cf6">OS Settings</text>
          </g>

          <!-- Option 2: Screen-Optimized (selected) -->
          <g transform="translate(0, 55)">
            <rect x="0" y="0" width="380" height="50" rx="4" fill="#8b5cf6" opacity="0.2" stroke="#8b5cf6"/>
            <text x="15" y="22" font-family="Inter, system-ui, sans-serif" font-size="14" fill="#1a1a2e">Screen-Optimized Sans</text>
            <text x="15" y="40" class="text-muted">Designed for digital screens</text>
            <text x="360" y="28" fill="#8b5cf6" font-size="14">✓</text>
          </g>

          <!-- Option 3: Dyslexia-Friendly -->
          <g transform="translate(0, 110)">
            <rect x="0" y="0" width="380" height="50" rx="4" fill="#e8d4b8"/>
            <text x="15" y="22" font-family="OpenDyslexic, Comic Sans MS, sans-serif" font-size="14" fill="#1a1a2e">Dyslexia-Friendly</text>
            <text x="15" y="40" class="text-muted">Designed for dyslexic readers</text>
            <rect x="270" y="12" width="100" height="22" rx="11" fill="#22c55e" opacity="0.2"/>
            <text x="320" y="27" text-anchor="middle" font-size="9" fill="#22c55e">♿ Accessibility</text>
          </g>

          <!-- Option 4: High-Readability -->
          <g transform="translate(0, 165)">
            <rect x="0" y="0" width="380" height="50" rx="4" fill="#e8d4b8"/>
            <text x="15" y="22" font-family="Atkinson Hyperlegible, system-ui, sans-serif" font-size="14" fill="#1a1a2e">High-Readability</text>
            <text x="15" y="40" class="text-muted">Maximum character distinction</text>
            <rect x="270" y="12" width="100" height="22" rx="11" fill="#22c55e" opacity="0.2"/>
            <text x="320" y="27" text-anchor="middle" font-size="9" fill="#22c55e">♿ Accessibility</text>
          </g>

          <!-- Option 5: Serif -->
          <g transform="translate(0, 220)">
            <rect x="0" y="0" width="380" height="50" rx="4" fill="#e8d4b8"/>
            <text x="15" y="22" font-family="Georgia, serif" font-size="14" fill="#1a1a2e">Serif</text>
            <text x="15" y="40" class="text-muted">Traditional long-form reading</text>
          </g>

          <!-- Option 6: Monospace -->
          <g transform="translate(0, 275)">
            <rect x="0" y="0" width="380" height="50" rx="4" fill="#e8d4b8"/>
            <text x="15" y="22" font-family="monospace" font-size="14" fill="#1a1a2e">Monospace</text>
            <text x="15" y="40" class="text-muted">Code and technical content</text>
          </g>
        </g>
      </g>

      <!-- Reset button -->
      <g transform="translate(420, 120)">
        <rect x="0" y="0" width="150" height="36" rx="6" fill="#dcc8a8" stroke="#b8a080"/>
        <text x="75" y="23" text-anchor="middle" class="text-sm">Reset to Default</text>
        <text x="75" y="50" class="annotation">FR-008</text>
      </g>
    </g>

    <!-- Annotations -->
    <g transform="translate(680, 200)">
      <rect x="0" y="0" width="180" height="80" rx="4" fill="#e8d4b8" stroke="#8b5cf6"/>
      <text x="90" y="20" text-anchor="middle" class="annotation">FR-001</text>
      <text x="90" y="40" text-anchor="middle" class="text-sm">6+ font options</text>
      <text x="90" y="55" text-anchor="middle" class="annotation">FR-010</text>
      <text x="90" y="72" text-anchor="middle" class="text-sm">Rendered in own typeface</text>
    </g>

    <g transform="translate(680, 300)">
      <rect x="0" y="0" width="180" height="65" rx="4" fill="#22c55e" opacity="0.15" stroke="#22c55e"/>
      <text x="90" y="20" text-anchor="middle" class="annotation" fill="#22c55e">FR-002, FR-003</text>
      <text x="90" y="40" text-anchor="middle" class="text-sm">Dyslexia-friendly</text>
      <text x="90" y="55" text-anchor="middle" class="text-sm">High-readability</text>
    </g>

    <g transform="translate(680, 385)">
      <rect x="0" y="0" width="180" height="50" rx="4" fill="#e8d4b8" stroke="#8b5cf6"/>
      <text x="90" y="20" text-anchor="middle" class="annotation">FR-011</text>
      <text x="90" y="40" text-anchor="middle" class="text-sm">Accessibility labels</text>
    </g>
  </g>

  <!-- MOBILE SECTION -->
  <text x="980" y="52" class="label-mobile">MOBILE</text>
  <g id="mobile-view" transform="translate(980, 60)">
    <!-- Phone frame -->
    <rect x="0" y="0" width="360" height="700" rx="24" fill="#c8b898" stroke="#a08860" stroke-width="2"/>
    <rect x="10" y="10" width="340" height="680" rx="16" fill="#e8d4b8"/>

    <!-- Status bar -->
    <rect x="10" y="10" width="340" height="28" rx="16" fill="#dcc8a8"/>
    <text x="30" y="28" class="text-sm">9:41</text>

    <!-- Header -->
    <rect x="10" y="38" width="340" height="45" fill="#dcc8a8"/>
    <text x="30" y="68" class="heading">Appearance</text>

    <!-- Font section -->
    <g transform="translate(20, 95)">
      <text x="0" y="0" class="heading">Font</text>
      <text x="0" y="20" class="text-muted">Choose typography</text>

      <!-- Dropdown trigger -->
      <rect x="0" y="35" width="320" height="50" rx="8" fill="#f5f0e6" stroke="#b8a080"/>
      <text x="15" y="65" class="text-md">Screen-Optimized Sans</text>
      <text x="300" y="65" class="text-sm">▼</text>

      <!-- Expanded options -->
      <rect x="0" y="90" width="320" height="320" rx="8" fill="#f5f0e6" stroke="#8b5cf6" stroke-width="2"/>

      <!-- Options -->
      <g transform="translate(10, 100)">
        <rect x="0" y="0" width="300" height="45" rx="4" fill="#e8d4b8"/>
        <text x="10" y="20" font-family="system-ui" font-size="12" fill="#1a1a2e">System Default</text>
        <text x="10" y="36" class="text-muted" font-size="9">Device native fonts</text>

        <rect x="0" y="50" width="300" height="45" rx="4" fill="#8b5cf6" opacity="0.2"/>
        <text x="10" y="70" font-family="Inter" font-size="12" fill="#1a1a2e">Screen-Optimized</text>
        <text x="280" y="75" fill="#8b5cf6" font-size="12">✓</text>

        <rect x="0" y="100" width="300" height="45" rx="4" fill="#e8d4b8"/>
        <text x="10" y="120" font-size="12" fill="#1a1a2e">Dyslexia-Friendly</text>
        <rect x="220" y="108" width="70" height="18" rx="9" fill="#22c55e" opacity="0.3"/>
        <text x="255" y="120" text-anchor="middle" font-size="8" fill="#22c55e">♿ a11y</text>

        <rect x="0" y="150" width="300" height="45" rx="4" fill="#e8d4b8"/>
        <text x="10" y="170" font-size="12" fill="#1a1a2e">High-Readability</text>
        <rect x="220" y="158" width="70" height="18" rx="9" fill="#22c55e" opacity="0.3"/>
        <text x="255" y="170" text-anchor="middle" font-size="8" fill="#22c55e">♿ a11y</text>

        <rect x="0" y="200" width="300" height="45" rx="4" fill="#e8d4b8"/>
        <text x="10" y="220" font-family="Georgia, serif" font-size="12" fill="#1a1a2e">Serif</text>

        <rect x="0" y="250" width="300" height="45" rx="4" fill="#e8d4b8"/>
        <text x="10" y="270" font-family="monospace" font-size="12" fill="#1a1a2e">Monospace</text>
      </g>
    </g>

    <!-- Bottom nav -->
    <rect x="10" y="640" width="340" height="50" rx="16" fill="#dcc8a8"/>
    <text x="85" y="670" text-anchor="middle" class="text-muted">Home</text>
    <text x="180" y="670" text-anchor="middle" class="text-muted">Settings</text>
    <text x="275" y="670" text-anchor="middle" class="text-muted">Profile</text>
  </g>

  <!-- Requirements footer -->
  <g transform="translate(40, 765)">
    <text x="0" y="0" class="annotation">FR-001: 6+ fonts</text>
    <text x="130" y="0" class="annotation">FR-002: Dyslexia font</text>
    <text x="290" y="0" class="annotation">FR-003: High-read font</text>
    <text x="460" y="0" class="annotation">FR-010: Preview in typeface</text>
    <text x="650" y="0" class="annotation">FR-011: A11y labels</text>
    <text x="810" y="0" class="annotation">FR-012: Current shown</text>
  </g>
</svg>
