<svg xmlns="http://www.w3.org/2000/svg" viewBox="0 0 1600 900" width="1600" height="900">
  <!-- ============================================================
       GENERATED BY: /wireframe skill
       SOURCE: features/enhancements/018-font-switcher/spec.md
       DATE: 2026-01-01
       THEME: Light (UX/Frontend) - v3 True Parchment
       DO NOT MANUALLY EDIT - Regenerate with /wireframe command
       ============================================================ -->
  <defs>
    <linearGradient id="bgGrad" x1="0%" y1="0%" x2="100%" y2="100%">
      <stop offset="0%" style="stop-color:#c7ddf5"/>
      <stop offset="100%" style="stop-color:#b8d4f0"/>
    </linearGradient>
    <linearGradient id="accentGrad" x1="0%" y1="0%" x2="100%" y2="0%">
      <stop offset="0%" style="stop-color:#8b5cf6"/>
      <stop offset="100%" style="stop-color:#d946ef"/>
    </linearGradient>
    <style>
      .heading-lg { fill: #1a1a2e; font-family: system-ui, sans-serif; font-size: 24px; font-weight: 800; }
      .heading { fill: #1a1a2e; font-family: system-ui, sans-serif; font-size: 16px; font-weight: 700; }
      .text-md { fill: #2d3748; font-family: system-ui, sans-serif; font-size: 14px; font-weight: 500; }
      .text-sm { fill: #4a5568; font-family: system-ui, sans-serif; font-size: 12px; font-weight: 500; }
      .text-muted { fill: #5a6577; font-family: system-ui, sans-serif; font-size: 11px; font-weight: 500; }
      .annotation { fill: #8b5cf6; font-family: monospace; font-size: 12px; font-weight: 600; }
      .label-section { fill: #d946ef; font-family: monospace; font-size: 13px; font-weight: bold; }
    </style>
  </defs>

  <!-- Background -->
  <rect width="1600" height="900" fill="url(#bgGrad)"/>

  <!-- Dot grid pattern -->
  <g opacity="0.35">
    <pattern id="dots" width="30" height="30" patternUnits="userSpaceOnUse">
      <circle cx="15" cy="15" r="1" fill="#6b8cba"/>
    </pattern>
    <rect width="1600" height="900" fill="url(#dots)"/>
  </g>

  <!-- Accent line top -->
  <rect x="0" y="0" width="1600" height="3" fill="url(#accentGrad)"/>

  <!-- Title -->
  <text x="800" y="28" text-anchor="middle" font-family="system-ui, sans-serif" font-size="14" font-weight="600" fill="#5a6577" letter-spacing="1">FONT COMPARISON &amp; PERSISTENCE</text>

  <!-- FONT COMPARISON GRID -->
  <text x="40" y="55" class="label-section">FONT COMPARISON - ALL 6 OPTIONS</text>

  <!-- Row 1: Sans-serif fonts -->
  <g transform="translate(40, 70)">
    <!-- System Default -->
    <g transform="translate(0, 0)">
      <rect x="0" y="0" width="360" height="200" rx="8" fill="#e8d4b8" stroke="#b8a080"/>
      <rect x="0" y="0" width="360" height="40" rx="8" fill="#dcc8a8"/>
      <text x="180" y="26" text-anchor="middle" class="heading">System Default</text>
      <text x="330" y="26" class="text-muted">FR-004</text>

      <g transform="translate(20, 55)">
        <text x="0" y="0" font-family="system-ui, -apple-system, sans-serif" font-size="22" fill="#1a1a2e">The quick brown fox</text>
        <text x="0" y="30" font-family="system-ui, -apple-system, sans-serif" font-size="22" fill="#1a1a2e">jumps over the lazy dog</text>
        <text x="0" y="70" font-family="system-ui, -apple-system, sans-serif" font-size="14" fill="#4a5568">ABCDEFGHIJ 0123456789</text>
        <text x="0" y="95" font-family="system-ui, -apple-system, sans-serif" font-size="14" fill="#4a5568">abcdefghij !@#$%</text>
        <text x="0" y="125" class="text-muted">Uses device native fonts</text>
      </g>
    </g>

    <!-- Screen-Optimized Sans -->
    <g transform="translate(380, 0)">
      <rect x="0" y="0" width="360" height="200" rx="8" fill="#e8d4b8" stroke="#8b5cf6" stroke-width="2"/>
      <rect x="0" y="0" width="360" height="40" rx="8" fill="#8b5cf6" opacity="0.2"/>
      <text x="180" y="26" text-anchor="middle" class="heading">Screen-Optimized Sans</text>
      <text x="330" y="26" fill="#8b5cf6" font-size="14">✓</text>

      <g transform="translate(20, 55)">
        <text x="0" y="0" font-family="Inter, Roboto, sans-serif" font-size="22" fill="#1a1a2e">The quick brown fox</text>
        <text x="0" y="30" font-family="Inter, Roboto, sans-serif" font-size="22" fill="#1a1a2e">jumps over the lazy dog</text>
        <text x="0" y="70" font-family="Inter, Roboto, sans-serif" font-size="14" fill="#4a5568">ABCDEFGHIJ 0123456789</text>
        <text x="0" y="95" font-family="Inter, Roboto, sans-serif" font-size="14" fill="#4a5568">abcdefghij !@#$%</text>
        <text x="0" y="125" class="text-muted">Optimized for digital screens</text>
      </g>
    </g>

    <!-- Dyslexia-Friendly -->
    <g transform="translate(760, 0)">
      <rect x="0" y="0" width="360" height="200" rx="8" fill="#e8d4b8" stroke="#22c55e"/>
      <rect x="0" y="0" width="360" height="40" rx="8" fill="#22c55e" opacity="0.2"/>
      <text x="140" y="26" text-anchor="middle" class="heading">Dyslexia-Friendly</text>
      <rect x="260" y="10" width="80" height="22" rx="11" fill="#22c55e" opacity="0.4"/>
      <text x="300" y="25" text-anchor="middle" font-size="10" fill="#22c55e">♿ a11y</text>

      <g transform="translate(20, 55)">
        <text x="0" y="0" font-family="OpenDyslexic, Comic Sans MS, sans-serif" font-size="20" fill="#1a1a2e">The quick brown fox</text>
        <text x="0" y="30" font-family="OpenDyslexic, Comic Sans MS, sans-serif" font-size="20" fill="#1a1a2e">jumps over the lazy dog</text>
        <text x="0" y="70" font-family="OpenDyslexic, Comic Sans MS, sans-serif" font-size="13" fill="#4a5568">ABCDEFGHIJ 0123456789</text>
        <text x="0" y="95" font-family="OpenDyslexic, Comic Sans MS, sans-serif" font-size="13" fill="#4a5568">abcdefghij !@#$%</text>
        <text x="0" y="125" class="text-muted">Weighted bottoms for dyslexia</text>
      </g>
    </g>

    <!-- High-Readability -->
    <g transform="translate(1140, 0)">
      <rect x="0" y="0" width="360" height="200" rx="8" fill="#e8d4b8" stroke="#22c55e"/>
      <rect x="0" y="0" width="360" height="40" rx="8" fill="#22c55e" opacity="0.2"/>
      <text x="140" y="26" text-anchor="middle" class="heading">High-Readability</text>
      <rect x="260" y="10" width="80" height="22" rx="11" fill="#22c55e" opacity="0.4"/>
      <text x="300" y="25" text-anchor="middle" font-size="10" fill="#22c55e">♿ a11y</text>

      <g transform="translate(20, 55)">
        <text x="0" y="0" font-family="Atkinson Hyperlegible, Verdana, sans-serif" font-size="22" fill="#1a1a2e">The quick brown fox</text>
        <text x="0" y="30" font-family="Atkinson Hyperlegible, Verdana, sans-serif" font-size="22" fill="#1a1a2e">jumps over the lazy dog</text>
        <text x="0" y="70" font-family="Atkinson Hyperlegible, Verdana, sans-serif" font-size="14" fill="#4a5568">ABCDEFGHIJ 0123456789</text>
        <text x="0" y="95" font-family="Atkinson Hyperlegible, Verdana, sans-serif" font-size="14" fill="#4a5568">abcdefghij !@#$%</text>
        <text x="0" y="125" class="text-muted">Max character distinction</text>
      </g>
    </g>
  </g>

  <!-- Row 2: Serif and Monospace -->
  <g transform="translate(40, 290)">
    <!-- Serif -->
    <g transform="translate(0, 0)">
      <rect x="0" y="0" width="360" height="200" rx="8" fill="#e8d4b8" stroke="#b8a080"/>
      <rect x="0" y="0" width="360" height="40" rx="8" fill="#dcc8a8"/>
      <text x="180" y="26" text-anchor="middle" class="heading">Serif</text>

      <g transform="translate(20, 55)">
        <text x="0" y="0" font-family="Georgia, Times New Roman, serif" font-size="22" fill="#1a1a2e">The quick brown fox</text>
        <text x="0" y="30" font-family="Georgia, Times New Roman, serif" font-size="22" fill="#1a1a2e">jumps over the lazy dog</text>
        <text x="0" y="70" font-family="Georgia, Times New Roman, serif" font-size="14" fill="#4a5568">ABCDEFGHIJ 0123456789</text>
        <text x="0" y="95" font-family="Georgia, Times New Roman, serif" font-size="14" fill="#4a5568">abcdefghij !@#$%</text>
        <text x="0" y="125" class="text-muted">Traditional long-form reading</text>
      </g>
    </g>

    <!-- Monospace -->
    <g transform="translate(380, 0)">
      <rect x="0" y="0" width="360" height="200" rx="8" fill="#e8d4b8" stroke="#b8a080"/>
      <rect x="0" y="0" width="360" height="40" rx="8" fill="#dcc8a8"/>
      <text x="180" y="26" text-anchor="middle" class="heading">Monospace</text>

      <g transform="translate(20, 55)">
        <text x="0" y="0" font-family="monospace" font-size="18" fill="#1a1a2e">The quick brown fox</text>
        <text x="0" y="28" font-family="monospace" font-size="18" fill="#1a1a2e">jumps over the lazy</text>
        <text x="0" y="65" font-family="monospace" font-size="13" fill="#4a5568">ABCDEFGHIJ 0123456789</text>
        <text x="0" y="90" font-family="monospace" font-size="13" fill="#4a5568">abcdefghij !@#$%</text>
        <text x="0" y="125" class="text-muted">Code and technical content</text>
      </g>
    </g>

    <!-- Requirements summary -->
    <g transform="translate(760, 0)">
      <rect x="0" y="0" width="740" height="200" rx="8" fill="#8b5cf6" opacity="0.1" stroke="#8b5cf6"/>
      <text x="370" y="30" text-anchor="middle" class="heading" fill="#8b5cf6">REQUIREMENTS COVERAGE</text>

      <!-- Grid of requirements -->
      <g transform="translate(30, 55)">
        <rect x="0" y="0" width="160" height="55" rx="4" fill="#e8d4b8"/>
        <text x="80" y="22" text-anchor="middle" class="annotation">FR-001</text>
        <text x="80" y="42" text-anchor="middle" class="text-sm">6+ font options ✓</text>

        <rect x="180" y="0" width="160" height="55" rx="4" fill="#e8d4b8"/>
        <text x="260" y="22" text-anchor="middle" class="annotation">FR-002</text>
        <text x="260" y="42" text-anchor="middle" class="text-sm">Dyslexia font ✓</text>

        <rect x="360" y="0" width="160" height="55" rx="4" fill="#e8d4b8"/>
        <text x="440" y="22" text-anchor="middle" class="annotation">FR-003</text>
        <text x="440" y="42" text-anchor="middle" class="text-sm">High-read font ✓</text>

        <rect x="540" y="0" width="160" height="55" rx="4" fill="#e8d4b8"/>
        <text x="620" y="22" text-anchor="middle" class="annotation">FR-004</text>
        <text x="620" y="42" text-anchor="middle" class="text-sm">System default ✓</text>
      </g>

      <g transform="translate(30, 125)">
        <rect x="0" y="0" width="160" height="55" rx="4" fill="#e8d4b8"/>
        <text x="80" y="22" text-anchor="middle" class="annotation">FR-005</text>
        <text x="80" y="42" text-anchor="middle" class="text-sm">Instant apply ✓</text>

        <rect x="180" y="0" width="160" height="55" rx="4" fill="#e8d4b8"/>
        <text x="260" y="22" text-anchor="middle" class="annotation">FR-010</text>
        <text x="260" y="42" text-anchor="middle" class="text-sm">Preview in font ✓</text>

        <rect x="360" y="0" width="160" height="55" rx="4" fill="#e8d4b8"/>
        <text x="440" y="22" text-anchor="middle" class="annotation">FR-011</text>
        <text x="440" y="42" text-anchor="middle" class="text-sm">A11y labels ✓</text>

        <rect x="540" y="0" width="160" height="55" rx="4" fill="#e8d4b8"/>
        <text x="620" y="22" text-anchor="middle" class="annotation">SC-001</text>
        <text x="620" y="42" text-anchor="middle" class="text-sm">All render ✓</text>
      </g>
    </g>
  </g>

  <!-- PERSISTENCE FLOW -->
  <text x="40" y="520" class="label-section">PERSISTENCE FLOW</text>

  <g transform="translate(40, 540)">
    <rect x="0" y="0" width="1520" height="160" rx="8" fill="#e8d4b8" stroke="#b8a080"/>
    <text x="760" y="30" text-anchor="middle" class="heading">Font Preference Persistence (FR-006, FR-007)</text>

    <!-- Flow steps -->
    <g transform="translate(40, 55)">
      <!-- Step 1 -->
      <rect x="0" y="0" width="200" height="80" rx="6" fill="#dcc8a8"/>
      <text x="100" y="25" text-anchor="middle" class="text-md">User selects font</text>
      <text x="100" y="50" text-anchor="middle" font-size="20">🖱️</text>
      <text x="100" y="75" text-anchor="middle" class="annotation">FR-005</text>

      <!-- Arrow -->
      <line x1="200" y1="40" x2="280" y2="40" stroke="#8b5cf6" stroke-width="2"/>
      <polygon points="280,40 270,35 270,45" fill="#8b5cf6"/>

      <!-- Step 2 -->
      <rect x="280" y="0" width="200" height="80" rx="6" fill="#dcc8a8"/>
      <text x="380" y="25" text-anchor="middle" class="text-md">Apply immediately</text>
      <text x="380" y="50" text-anchor="middle" font-size="20">⚡</text>
      <text x="380" y="75" text-anchor="middle" class="text-muted">No page reload</text>

      <!-- Arrow -->
      <line x1="480" y1="40" x2="560" y2="40" stroke="#8b5cf6" stroke-width="2"/>
      <polygon points="560,40 550,35 550,45" fill="#8b5cf6"/>

      <!-- Step 3 -->
      <rect x="560" y="0" width="200" height="80" rx="6" fill="#dcc8a8"/>
      <text x="660" y="25" text-anchor="middle" class="text-md">Save to localStorage</text>
      <text x="660" y="50" text-anchor="middle" font-size="20">💾</text>
      <text x="660" y="75" text-anchor="middle" class="annotation">FR-006</text>

      <!-- Arrow -->
      <line x1="760" y1="40" x2="840" y2="40" stroke="#8b5cf6" stroke-width="2"/>
      <polygon points="840,40 830,35 830,45" fill="#8b5cf6"/>

      <!-- Step 4 -->
      <rect x="840" y="0" width="200" height="80" rx="6" fill="#22c55e" opacity="0.2" stroke="#22c55e"/>
      <text x="940" y="25" text-anchor="middle" class="text-md">Browser closed</text>
      <text x="940" y="50" text-anchor="middle" font-size="20">🚪</text>
      <text x="940" y="75" text-anchor="middle" class="text-muted">Session ends</text>

      <!-- Arrow -->
      <line x1="1040" y1="40" x2="1120" y2="40" stroke="#22c55e" stroke-width="2"/>
      <polygon points="1120,40 1110,35 1110,45" fill="#22c55e"/>

      <!-- Step 5 -->
      <rect x="1120" y="0" width="200" height="80" rx="6" fill="#22c55e" opacity="0.2" stroke="#22c55e"/>
      <text x="1220" y="25" text-anchor="middle" class="text-md">User returns</text>
      <text x="1220" y="50" text-anchor="middle" font-size="20">🔄</text>
      <text x="1220" y="75" text-anchor="middle" class="annotation">FR-007</text>

      <!-- Arrow -->
      <line x1="1320" y1="40" x2="1400" y2="40" stroke="#22c55e" stroke-width="2"/>
      <polygon points="1400,40 1390,35 1390,45" fill="#22c55e"/>

      <!-- Step 6 -->
      <rect x="1400" y="0" width="80" height="80" rx="6" fill="#22c55e"/>
      <text x="1440" y="45" text-anchor="middle" fill="#fff" font-size="24">✓</text>
      <text x="1440" y="70" text-anchor="middle" fill="#fff" font-size="10">Restored</text>
    </g>
  </g>

  <!-- THEME COMPATIBILITY -->
  <text x="40" y="730" class="label-section">THEME COMPATIBILITY</text>

  <g transform="translate(40, 750)">
    <rect x="0" y="0" width="1520" height="120" rx="8" fill="#e8d4b8" stroke="#b8a080"/>
    <text x="760" y="30" text-anchor="middle" class="heading">Font + Theme Combinations (FR-013, FR-014, SC-004)</text>

    <!-- Theme examples -->
    <g transform="translate(40, 45)">
      <!-- Light theme -->
      <rect x="0" y="0" width="340" height="60" rx="6" fill="#f5f0e6" stroke="#b8a080"/>
      <text x="170" y="20" text-anchor="middle" class="text-sm">Light Theme + Screen Sans</text>
      <text x="170" y="45" text-anchor="middle" font-family="Inter, sans-serif" font-size="16" fill="#1a1a2e">Readable text sample</text>

      <!-- Dark theme -->
      <rect x="380" y="0" width="340" height="60" rx="6" fill="#1e293b"/>
      <text x="550" y="20" text-anchor="middle" class="text-sm" fill="#94a3b8">Dark Theme + Serif</text>
      <text x="550" y="45" text-anchor="middle" font-family="Georgia, serif" font-size="16" fill="#fff">Readable text sample</text>

      <!-- High contrast -->
      <rect x="760" y="0" width="340" height="60" rx="6" fill="#000"/>
      <text x="930" y="20" text-anchor="middle" font-size="11" fill="#fff">High Contrast + Dyslexia</text>
      <text x="930" y="45" text-anchor="middle" font-family="Comic Sans MS, sans-serif" font-size="16" fill="#ffff00">Readable text sample</text>

      <!-- Success indicator -->
      <rect x="1140" y="0" width="340" height="60" rx="6" fill="#22c55e" opacity="0.2" stroke="#22c55e"/>
      <text x="1310" y="25" text-anchor="middle" class="heading" fill="#22c55e">SC-004 ✓</text>
      <text x="1310" y="48" text-anchor="middle" class="text-sm" fill="#22c55e">Works with 100% of themes</text>
    </g>
  </g>
</svg>
