<svg xmlns="http://www.w3.org/2000/svg" viewBox="0 0 1400 800" width="1400" height="800">
  <!-- ============================================================
       GENERATED BY: /wireframe skill
       SOURCE: features/enhancements/018-font-switcher/spec.md
       DATE: 2025-12-31
       DO NOT MANUALLY EDIT - Regenerate with /wireframe command
       ============================================================ -->
  <defs>
    <linearGradient id="bgGrad" x1="0%" y1="0%" x2="100%" y2="100%">
      <stop offset="0%" style="stop-color:#0f172a"/>
      <stop offset="100%" style="stop-color:#1e293b"/>
    </linearGradient>
    <linearGradient id="accentGrad" x1="0%" y1="0%" x2="100%" y2="0%">
      <stop offset="0%" style="stop-color:#8b5cf6"/>
      <stop offset="100%" style="stop-color:#d946ef"/>
    </linearGradient>
    <linearGradient id="successGrad" x1="0%" y1="0%" x2="100%" y2="0%">
      <stop offset="0%" style="stop-color:#22c55e"/>
      <stop offset="100%" style="stop-color:#10b981"/>
    </linearGradient>
    <marker id="arrowhead" markerWidth="10" markerHeight="7" refX="9" refY="3.5" orient="auto">
      <polygon points="0 0, 10 3.5, 0 7" fill="#8b5cf6"/>
    </marker>
    <marker id="arrowhead-success" markerWidth="10" markerHeight="7" refX="9" refY="3.5" orient="auto">
      <polygon points="0 0, 10 3.5, 0 7" fill="#22c55e"/>
    </marker>
    <style>
      .heading-lg { fill: #ffffff; font-family: system-ui, sans-serif; font-size: 20px; font-weight: bold; }
      .heading { fill: #ffffff; font-family: system-ui, sans-serif; font-size: 14px; font-weight: bold; }
      .text-md { fill: #cbd5e1; font-family: system-ui, sans-serif; font-size: 12px; }
      .text-sm { fill: #94a3b8; font-family: system-ui, sans-serif; font-size: 10px; }
      .text-muted { fill: #64748b; font-family: system-ui, sans-serif; font-size: 10px; }
      .annotation { fill: #8b5cf6; font-family: monospace; font-size: 10px; }
      .code { fill: #22c55e; font-family: monospace; font-size: 9px; }
      .label { fill: #d946ef; font-family: monospace; font-size: 11px; font-weight: bold; }
    </style>
  </defs>

  <!-- Background -->
  <rect width="1400" height="800" fill="url(#bgGrad)"/>

  <!-- Dot grid pattern -->
  <g opacity="0.05">
    <pattern id="dots" width="30" height="30" patternUnits="userSpaceOnUse">
      <circle cx="15" cy="15" r="1" fill="#fff"/>
    </pattern>
    <rect width="1400" height="800" fill="url(#dots)"/>
  </g>

  <!-- Accent line top -->
  <rect x="0" y="0" width="1400" height="3" fill="url(#accentGrad)"/>

  <!-- Title -->
  <text x="700" y="28" text-anchor="middle" font-family="system-ui, sans-serif" font-size="14" font-weight="600" fill="#64748b" letter-spacing="1">018 - FONT SWITCHER</text>
  <text x="700" y="52" text-anchor="middle" class="heading-lg">Font Persistence &amp; Theme Compatibility</text>

  <!-- ==================== LEFT: PERSISTENCE FLOW ==================== -->
  <g id="persistence" transform="translate(40, 90)">
    <text x="200" y="0" text-anchor="middle" class="label">PERSISTENCE FLOW</text>

    <!-- Flow diagram -->
    <rect x="0" y="20" width="400" height="440" rx="8" fill="#1e293b" stroke="#475569" stroke-width="1"/>

    <!-- Step 1: User selects font -->
    <rect x="20" y="40" width="360" height="60" rx="6" fill="#0f172a" stroke="#8b5cf6" stroke-width="1"/>
    <text x="40" y="65" class="heading">1. User Selects Font</text>
    <text x="40" y="85" class="code">fontFamily = "Dyslexia-Friendly"</text>

    <!-- Arrow down -->
    <line x1="200" y1="105" x2="200" y2="125" stroke="#8b5cf6" stroke-width="2" marker-end="url(#arrowhead)"/>

    <!-- Step 2: Apply immediately -->
    <rect x="20" y="130" width="360" height="70" rx="6" fill="#0f172a" stroke="#d946ef" stroke-width="1"/>
    <text x="40" y="155" class="heading" fill="#d946ef">2. Apply Immediately (FR-005)</text>
    <text x="40" y="175" class="code">document.body.style.fontFamily = font</text>
    <text x="40" y="190" class="text-sm">No page reload required</text>

    <!-- Arrow down -->
    <line x1="200" y1="205" x2="200" y2="225" stroke="#8b5cf6" stroke-width="2" marker-end="url(#arrowhead)"/>

    <!-- Step 3: Save to storage -->
    <rect x="20" y="230" width="360" height="70" rx="6" fill="#0f172a" stroke="#22c55e" stroke-width="1"/>
    <text x="40" y="255" class="heading" fill="#22c55e">3. Persist to LocalStorage (FR-006)</text>
    <text x="40" y="275" class="code">localStorage.setItem('font-preference',</text>
    <text x="60" y="290" class="code">'{ "font": "dyslexia", "updated": "..." }')</text>

    <!-- Arrow down -->
    <line x1="200" y1="305" x2="200" y2="325" stroke="#8b5cf6" stroke-width="2" marker-end="url(#arrowhead)"/>

    <!-- Step 4: On next visit -->
    <rect x="20" y="330" width="360" height="70" rx="6" fill="#0f172a" stroke="#475569" stroke-width="1"/>
    <text x="40" y="355" class="heading">4. On App Load (FR-007)</text>
    <text x="40" y="375" class="code">const pref = localStorage.getItem('font-preference')</text>
    <text x="40" y="390" class="code">if (pref) applyFont(pref.font)</text>

    <!-- Arrow down -->
    <line x1="200" y1="405" x2="200" y2="425" stroke="#22c55e" stroke-width="2" marker-end="url(#arrowhead-success)"/>

    <!-- Result -->
    <rect x="80" y="430" width="240" height="24" rx="12" fill="#22c55e" opacity="0.2"/>
    <text x="200" y="447" text-anchor="middle" class="text-md" fill="#22c55e">User sees their preferred font!</text>
  </g>

  <!-- ==================== CENTER: THEME COMPATIBILITY ==================== -->
  <g id="theme-compat" transform="translate(480, 90)">
    <text x="220" y="0" text-anchor="middle" class="label">THEME + FONT COMBINATIONS</text>

    <rect x="0" y="20" width="440" height="440" rx="8" fill="#1e293b" stroke="#475569" stroke-width="1"/>

    <!-- Light theme example -->
    <g transform="translate(20, 40)">
      <text x="0" y="15" class="heading">Light Theme + Various Fonts</text>

      <!-- Light theme card 1 -->
      <rect x="0" y="30" width="190" height="80" rx="6" fill="#f8fafc" stroke="#e2e8f0" stroke-width="1"/>
      <text x="10" y="52" fill="#1e293b" font-size="12" font-family="system-ui">System Default</text>
      <text x="10" y="70" fill="#64748b" font-size="10" font-family="system-ui">The quick brown fox</text>
      <text x="10" y="85" fill="#64748b" font-size="10" font-family="system-ui">jumps over the lazy dog</text>
      <rect x="140" y="35" width="40" height="16" rx="8" fill="#22c55e" opacity="0.2"/>
      <text x="148" y="47" fill="#22c55e" font-size="8" font-weight="bold">4.5:1</text>

      <!-- Light theme card 2 -->
      <rect x="210" y="30" width="190" height="80" rx="6" fill="#f8fafc" stroke="#e2e8f0" stroke-width="1"/>
      <text x="220" y="52" fill="#1e293b" font-size="12" font-family="Georgia, serif">Classic Serif</text>
      <text x="220" y="70" fill="#64748b" font-size="10" font-family="Georgia, serif">The quick brown fox</text>
      <text x="220" y="85" fill="#64748b" font-size="10" font-family="Georgia, serif">jumps over the lazy dog</text>
      <rect x="350" y="35" width="40" height="16" rx="8" fill="#22c55e" opacity="0.2"/>
      <text x="358" y="47" fill="#22c55e" font-size="8" font-weight="bold">4.5:1</text>
    </g>

    <!-- Dark theme example -->
    <g transform="translate(20, 160)">
      <text x="0" y="15" class="heading">Dark Theme + Various Fonts</text>

      <!-- Dark theme card 1 -->
      <rect x="0" y="30" width="190" height="80" rx="6" fill="#1e293b" stroke="#475569" stroke-width="1"/>
      <text x="10" y="52" fill="#fff" font-size="12" font-family="system-ui">System Default</text>
      <text x="10" y="70" fill="#94a3b8" font-size="10" font-family="system-ui">The quick brown fox</text>
      <text x="10" y="85" fill="#94a3b8" font-size="10" font-family="system-ui">jumps over the lazy dog</text>
      <rect x="140" y="35" width="40" height="16" rx="8" fill="#22c55e" opacity="0.2"/>
      <text x="148" y="47" fill="#22c55e" font-size="8" font-weight="bold">7.2:1</text>

      <!-- Dark theme card 2 -->
      <rect x="210" y="30" width="190" height="80" rx="6" fill="#1e293b" stroke="#475569" stroke-width="1"/>
      <text x="220" y="52" fill="#fff" font-size="12" font-family="'Consolas', monospace">Monospace</text>
      <text x="220" y="70" fill="#94a3b8" font-size="10" font-family="'Consolas', monospace">The quick brown fox</text>
      <text x="220" y="85" fill="#94a3b8" font-size="10" font-family="'Consolas', monospace">jumps over the lazy</text>
      <rect x="350" y="35" width="40" height="16" rx="8" fill="#22c55e" opacity="0.2"/>
      <text x="358" y="47" fill="#22c55e" font-size="8" font-weight="bold">7.2:1</text>
    </g>

    <!-- Requirements callout -->
    <g transform="translate(20, 290)">
      <rect x="0" y="0" width="400" height="80" rx="6" fill="#0f172a" stroke="#d946ef" stroke-width="1"/>
      <text x="20" y="25" class="heading" fill="#d946ef">Theme Compatibility (FR-013, FR-014)</text>
      <g transform="translate(20, 40)">
        <circle cx="6" cy="4" r="4" fill="#22c55e"/>
        <text x="18" y="8" class="text-sm">Font works with ALL themes</text>
      </g>
      <g transform="translate(20, 58)">
        <circle cx="6" cy="4" r="4" fill="#22c55e"/>
        <text x="18" y="8" class="text-sm">Layout remains stable during font switch</text>
      </g>
    </g>

    <!-- Switch theme indicator -->
    <g transform="translate(20, 390)">
      <rect x="0" y="0" width="400" height="50" rx="6" fill="#334155"/>
      <text x="20" y="22" class="text-md" fill="#fff">Switch Theme:</text>
      <rect x="120" y="8" width="80" height="32" rx="16" fill="#8b5cf6" opacity="0.3"/>
      <text x="145" y="28" fill="#8b5cf6" font-size="11">Dark</text>
      <rect x="210" y="8" width="80" height="32" rx="16" fill="#334155" stroke="#475569"/>
      <text x="235" y="28" fill="#94a3b8" font-size="11">Light</text>
      <text x="310" y="28" class="text-sm">Font preference preserved!</text>
    </g>
  </g>

  <!-- ==================== RIGHT: EDGE CASES & FALLBACKS ==================== -->
  <g id="edge-cases" transform="translate(960, 90)">
    <text x="200" y="0" text-anchor="middle" class="label">FALLBACK &amp; EDGE CASES</text>

    <rect x="0" y="20" width="400" height="280" rx="8" fill="#1e293b" stroke="#eab308" stroke-width="1"/>

    <g transform="translate(20, 45)">
      <text x="0" y="0" class="heading" fill="#eab308">Edge Case Handling</text>

      <!-- Case 1 -->
      <g transform="translate(0, 25)">
        <text x="0" y="0" class="text-sm" fill="#eab308">Font fails to load?</text>
        <text x="0" y="15" class="text-sm">Fallback to similar category font</text>
        <text x="0" y="28" class="code">font-family: 'OpenDyslexic', 'Comic Sans MS', sans-serif</text>
      </g>

      <!-- Case 2 -->
      <g transform="translate(0, 75)">
        <text x="0" y="0" class="text-sm" fill="#eab308">Limited device font support?</text>
        <text x="0" y="15" class="text-sm">Graceful fallback to device defaults</text>
        <text x="0" y="28" class="code">System fonts provide acceptable fallback</text>
      </g>

      <!-- Case 3 -->
      <g transform="translate(0, 125)">
        <text x="0" y="0" class="text-sm" fill="#eab308">OS-level accessibility fonts?</text>
        <text x="0" y="15" class="text-sm">Respect OS settings as default (FR-016)</text>
        <text x="0" y="28" class="code">window.matchMedia('prefers-reduced-motion')</text>
      </g>

      <!-- Case 4 -->
      <g transform="translate(0, 175)">
        <text x="0" y="0" class="text-sm" fill="#eab308">Printing the page?</text>
        <text x="0" y="15" class="text-sm">Print stylesheet uses print-friendly fonts</text>
        <text x="0" y="28" class="code">@media print { body { font-family: serif; } }</text>
      </g>
    </g>

    <!-- CSS Variables approach -->
    <text x="200" y="340" text-anchor="middle" class="label">CSS IMPLEMENTATION</text>

    <rect x="0" y="360" width="400" height="100" rx="8" fill="#1e293b" stroke="#8b5cf6" stroke-width="1"/>

    <g transform="translate(20, 380)">
      <text x="0" y="0" class="code">:root {</text>
      <text x="20" y="15" class="code">--font-primary: 'System Default', system-ui;</text>
      <text x="20" y="30" class="code">--font-heading: var(--font-primary);</text>
      <text x="20" y="45" class="code">--font-body: var(--font-primary);</text>
      <text x="0" y="60" class="code">}</text>
    </g>
  </g>

  <!-- ==================== BOTTOM: STORAGE STRUCTURE ==================== -->
  <g id="storage" transform="translate(40, 560)">
    <text x="0" y="0" class="label">LOCALSTORAGE STRUCTURE</text>

    <rect x="0" y="15" width="440" height="100" rx="8" fill="#1e293b" stroke="#22c55e" stroke-width="1"/>

    <g transform="translate(20, 40)">
      <text x="0" y="0" class="code">// Key: "scripthammer-font-preference"</text>
      <text x="0" y="18" class="code">{</text>
      <text x="20" y="36" class="code">"fontId": "dyslexia-friendly",</text>
      <text x="20" y="54" class="code">"updatedAt": "2025-12-31T12:00:00Z"</text>
      <text x="0" y="72" class="code">}</text>
    </g>
  </g>

  <!-- ==================== BOTTOM: SUCCESS CRITERIA ==================== -->
  <g id="success" transform="translate(500, 560)">
    <text x="0" y="0" class="label">SUCCESS CRITERIA</text>

    <rect x="0" y="15" width="420" height="100" rx="8" fill="#1e293b" stroke="#22c55e" stroke-width="1"/>

    <g transform="translate(20, 40)">
      <circle cx="8" cy="4" r="6" fill="#22c55e"/>
      <text x="24" y="8" class="text-md">SC-002: Preference persists across sessions</text>
    </g>
    <g transform="translate(20, 65)">
      <circle cx="8" cy="4" r="6" fill="#22c55e"/>
      <text x="24" y="8" class="text-md">SC-004: Works with 100% of available themes</text>
    </g>
    <g transform="translate(20, 90)">
      <circle cx="8" cy="4" r="6" fill="#22c55e"/>
      <text x="24" y="8" class="text-md">SC-006: Font changes apply instantly (&lt;50ms)</text>
    </g>
  </g>

  <!-- ==================== BOTTOM: CONSTRAINTS ==================== -->
  <g id="constraints" transform="translate(960, 560)">
    <text x="0" y="0" class="label">CONSTRAINTS</text>

    <rect x="0" y="15" width="400" height="100" rx="8" fill="#1e293b" stroke="#f97316" stroke-width="1"/>

    <g transform="translate(20, 40)">
      <text x="0" y="0" class="text-md" fill="#f97316">Font applies globally</text>
      <text x="190" y="0" class="text-sm">(no per-section customization)</text>
    </g>
    <g transform="translate(20, 60)">
      <text x="0" y="0" class="text-md" fill="#f97316">Font size separate</text>
      <text x="190" y="0" class="text-sm">(handled by accessibility features)</text>
    </g>
    <g transform="translate(20, 80)">
      <text x="0" y="0" class="text-md" fill="#f97316">No custom uploads</text>
      <text x="190" y="0" class="text-sm">(only preset font options)</text>
    </g>
  </g>

  <!-- ==================== DEPENDENCIES ==================== -->
  <g id="dependencies" transform="translate(960, 490)">
    <text x="0" y="0" class="label">DEPENDENCIES</text>

    <rect x="0" y="15" width="400" height="50" rx="8" fill="#1e293b" stroke="#475569" stroke-width="1"/>
    <text x="20" y="40" class="text-sm">Theme System | Accessibility Settings | OS Preferences</text>
    <text x="20" y="55" class="text-muted">Must integrate seamlessly with existing features</text>
  </g>

  <!-- Version badge -->
  <rect x="1280" y="770" width="110" height="22" rx="11" fill="#334155"/>
  <text x="1335" y="785" text-anchor="middle" class="text-muted">v1.0 | 2025-12-31</text>
</svg>
