<svg xmlns="http://www.w3.org/2000/svg" viewBox="0 0 1400 800" width="1400" height="800">
  <!-- ============================================================
       GENERATED BY: /wireframe skill
       SOURCE: features/foundation/005-security-hardening/spec.md
       DATE: 2026-01-01
       THEME: Dark (Backend/Architecture)
       DO NOT MANUALLY EDIT - Regenerate with /wireframe command
       ============================================================ -->
  <defs>
    <linearGradient id="bgGrad" x1="0%" y1="0%" x2="100%" y2="100%">
      <stop offset="0%" style="stop-color:#0f172a"/>
      <stop offset="100%" style="stop-color:#1e293b"/>
    </linearGradient>
    <linearGradient id="accentGrad" x1="0%" y1="0%" x2="100%" y2="0%">
      <stop offset="0%" style="stop-color:#8b5cf6"/>
      <stop offset="100%" style="stop-color:#d946ef"/>
    </linearGradient>
    <linearGradient id="successGrad" x1="0%" y1="0%" x2="100%" y2="0%">
      <stop offset="0%" style="stop-color:#22c55e"/>
      <stop offset="100%" style="stop-color:#16a34a"/>
    </linearGradient>
    <linearGradient id="errorGrad" x1="0%" y1="0%" x2="100%" y2="0%">
      <stop offset="0%" style="stop-color:#ef4444"/>
      <stop offset="100%" style="stop-color:#dc2626"/>
    </linearGradient>
    <style>
      .heading-lg { fill: #ffffff; font-family: system-ui, sans-serif; font-size: 20px; font-weight: bold; }
      .heading { fill: #ffffff; font-family: system-ui, sans-serif; font-size: 14px; font-weight: bold; }
      .text-md { fill: #cbd5e1; font-family: system-ui, sans-serif; font-size: 12px; }
      .text-sm { fill: #94a3b8; font-family: system-ui, sans-serif; font-size: 10px; }
      .text-muted { fill: #8494a8; font-family: system-ui, sans-serif; font-size: 10px; }
      .annotation { fill: #8b5cf6; font-family: monospace; font-size: 10px; }
      .label { fill: #8b5cf6; font-family: monospace; font-size: 11px; font-weight: bold; }
    </style>
    <marker id="arrowhead" markerWidth="10" markerHeight="7" refX="9" refY="3.5" orient="auto">
      <polygon points="0 0, 10 3.5, 0 7" fill="#8b5cf6"/>
    </marker>
    <marker id="arrowSuccess" markerWidth="10" markerHeight="7" refX="9" refY="3.5" orient="auto">
      <polygon points="0 0, 10 3.5, 0 7" fill="#22c55e"/>
    </marker>
    <marker id="arrowError" markerWidth="10" markerHeight="7" refX="9" refY="3.5" orient="auto">
      <polygon points="0 0, 10 3.5, 0 7" fill="#ef4444"/>
    </marker>
  </defs>

  <!-- Background -->
  <rect width="1400" height="800" fill="url(#bgGrad)"/>

  <!-- Dot grid pattern -->
  <g opacity="0.05">
    <pattern id="dots" width="30" height="30" patternUnits="userSpaceOnUse">
      <circle cx="15" cy="15" r="1" fill="#fff"/>
    </pattern>
    <rect width="1400" height="800" fill="url(#dots)"/>
  </g>

  <!-- Accent line top -->
  <rect x="0" y="0" width="1400" height="3" fill="url(#accentGrad)"/>

  <!-- Title -->
  <text x="700" y="32" text-anchor="middle" class="heading-lg">SECURITY HARDENING ARCHITECTURE</text>
  <text x="700" y="52" text-anchor="middle" class="text-muted">Data Isolation • OAuth CSRF Protection • Rate Limiting • Audit Logging</text>

  <!-- ========== SECTION 1: DATA ISOLATION ========== -->
  <g transform="translate(40, 80)">
    <rect x="0" y="0" width="320" height="180" rx="8" fill="#1e293b" stroke="#475569" stroke-width="2"/>
    <text x="160" y="25" text-anchor="middle" class="label">DATA ISOLATION (RLS)</text>

    <!-- User A -->
    <g transform="translate(20, 45)">
      <circle cx="25" cy="20" r="15" fill="#334155" stroke="#8b5cf6"/>
      <text x="25" y="24" text-anchor="middle" fill="#fff" font-size="10">A</text>
      <text x="55" y="24" class="text-sm">User A</text>
    </g>

    <!-- User B -->
    <g transform="translate(20, 90)">
      <circle cx="25" cy="20" r="15" fill="#334155" stroke="#d946ef"/>
      <text x="25" y="24" text-anchor="middle" fill="#fff" font-size="10">B</text>
      <text x="55" y="24" class="text-sm">User B</text>
    </g>

    <!-- Database with RLS -->
    <g transform="translate(150, 50)">
      <rect x="0" y="0" width="150" height="110" rx="6" fill="#334155" stroke="#22c55e" stroke-width="2"/>
      <text x="75" y="20" text-anchor="middle" class="heading">Database + RLS</text>

      <rect x="10" y="35" width="130" height="25" rx="4" fill="#1e293b" stroke="#8b5cf6"/>
      <text x="75" y="52" text-anchor="middle" class="text-sm">User A's Payments</text>

      <rect x="10" y="70" width="130" height="25" rx="4" fill="#1e293b" stroke="#d946ef"/>
      <text x="75" y="87" text-anchor="middle" class="text-sm">User B's Payments</text>
    </g>

    <!-- Access arrows -->
    <line x1="70" y1="65" x2="145" y2="75" stroke="#8b5cf6" stroke-width="2" marker-end="url(#arrowhead)"/>
    <line x1="70" y1="110" x2="145" y2="105" stroke="#d946ef" stroke-width="2"/>
    <line x1="130" y1="85" x2="145" y2="75" stroke="#ef4444" stroke-width="2" stroke-dasharray="4,2"/>
    <text x="105" y="100" class="text-sm" fill="#ef4444">✕ Blocked</text>

    <text x="160" y="170" text-anchor="middle" class="text-muted">FR-001, FR-002: Permanent user association</text>
  </g>

  <!-- ========== SECTION 2: OAUTH CSRF PROTECTION ========== -->
  <g transform="translate(380, 80)">
    <rect x="0" y="0" width="320" height="180" rx="8" fill="#1e293b" stroke="#475569" stroke-width="2"/>
    <text x="160" y="25" text-anchor="middle" class="label">OAUTH CSRF PROTECTION</text>

    <!-- Flow steps -->
    <g transform="translate(15, 45)">
      <!-- Step 1: Initiate -->
      <rect x="0" y="0" width="85" height="50" rx="4" fill="#334155" stroke="#8b5cf6"/>
      <text x="42" y="20" text-anchor="middle" class="heading">1. Init</text>
      <text x="42" y="38" text-anchor="middle" class="text-muted">state=abc123</text>

      <!-- Arrow -->
      <line x1="90" y1="25" x2="110" y2="25" stroke="#8b5cf6" stroke-width="2" marker-end="url(#arrowhead)"/>

      <!-- Step 2: Provider -->
      <rect x="115" y="0" width="85" height="50" rx="4" fill="#334155" stroke="#8b5cf6"/>
      <text x="157" y="20" text-anchor="middle" class="heading">2. OAuth</text>
      <text x="157" y="38" text-anchor="middle" class="text-muted">Provider</text>

      <!-- Arrow -->
      <line x1="205" y1="25" x2="225" y2="25" stroke="#8b5cf6" stroke-width="2" marker-end="url(#arrowhead)"/>

      <!-- Step 3: Callback -->
      <rect x="230" y="0" width="55" height="50" rx="4" fill="#334155" stroke="#8b5cf6"/>
      <text x="257" y="20" text-anchor="middle" class="heading">3.</text>
      <text x="257" y="38" text-anchor="middle" class="text-muted">Callback</text>
    </g>

    <!-- Verification box -->
    <g transform="translate(15, 105)">
      <rect x="0" y="0" width="290" height="55" rx="4" fill="#334155" stroke="#22c55e" stroke-width="2"/>
      <text x="145" y="20" text-anchor="middle" class="heading">State Token Verification</text>
      <text x="145" y="40" text-anchor="middle" class="text-sm">Validate: state matches session • Single-use • Not expired</text>
    </g>

    <text x="160" y="170" text-anchor="middle" class="text-muted">FR-005, FR-006, FR-007: Session verification</text>
  </g>

  <!-- ========== SECTION 3: RATE LIMITING ========== -->
  <g transform="translate(720, 80)">
    <rect x="0" y="0" width="320" height="180" rx="8" fill="#1e293b" stroke="#475569" stroke-width="2"/>
    <text x="160" y="25" text-anchor="middle" class="label">RATE LIMITING (SERVER-SIDE)</text>

    <!-- Attempt counter -->
    <g transform="translate(20, 45)">
      <rect x="0" y="0" width="130" height="70" rx="4" fill="#334155" stroke="#eab308"/>
      <text x="65" y="20" text-anchor="middle" class="heading">Attempt Tracker</text>
      <text x="65" y="40" text-anchor="middle" class="text-sm">email: user@test.com</text>
      <text x="65" y="55" text-anchor="middle" class="text-sm">attempts: 4 / 5</text>
    </g>

    <!-- Blocked state -->
    <g transform="translate(170, 45)">
      <rect x="0" y="0" width="130" height="70" rx="4" fill="#334155" stroke="#ef4444" stroke-width="2"/>
      <text x="65" y="20" text-anchor="middle" class="heading" fill="#ef4444">BLOCKED</text>
      <text x="65" y="40" text-anchor="middle" class="text-sm">5+ failed attempts</text>
      <text x="65" y="55" text-anchor="middle" class="text-sm">Lockout: 15 min</text>
    </g>

    <!-- Note -->
    <g transform="translate(20, 125)">
      <text x="0" y="0" class="text-sm">✓ Persists across browser sessions</text>
      <text x="0" y="16" class="text-sm">✓ Tracks by email/IP server-side</text>
      <text x="0" y="32" class="text-sm">✓ Cannot be bypassed by client</text>
    </g>

    <text x="160" y="170" text-anchor="middle" class="text-muted">FR-009, FR-010, FR-011: Brute force prevention</text>
  </g>

  <!-- ========== SECTION 4: CSRF PROTECTION ========== -->
  <g transform="translate(1060, 80)">
    <rect x="0" y="0" width="300" height="180" rx="8" fill="#1e293b" stroke="#475569" stroke-width="2"/>
    <text x="150" y="25" text-anchor="middle" class="label">CSRF TOKEN VALIDATION</text>

    <!-- Form with token -->
    <g transform="translate(20, 45)">
      <rect x="0" y="0" width="120" height="65" rx="4" fill="#334155" stroke="#8b5cf6"/>
      <text x="60" y="20" text-anchor="middle" class="heading">Form</text>
      <rect x="10" y="30" width="100" height="25" rx="3" fill="#1e293b" stroke="#475569"/>
      <text x="60" y="47" text-anchor="middle" class="text-muted">token=xyz789</text>
    </g>

    <!-- Validation -->
    <g transform="translate(160, 45)">
      <rect x="0" y="0" width="120" height="65" rx="4" fill="#334155" stroke="#22c55e"/>
      <text x="60" y="20" text-anchor="middle" class="heading">Validate</text>
      <text x="60" y="40" text-anchor="middle" class="text-sm">✓ Token valid</text>
      <text x="60" y="55" text-anchor="middle" class="text-sm">✓ Not expired</text>
    </g>

    <!-- Arrow -->
    <line x1="145" y1="77" x2="155" y2="77" stroke="#8b5cf6" stroke-width="2" marker-end="url(#arrowhead)"/>

    <!-- Rejection case -->
    <g transform="translate(20, 120)">
      <rect x="0" y="0" width="260" height="40" rx="4" fill="#1e293b" stroke="#ef4444"/>
      <text x="130" y="15" text-anchor="middle" class="text-sm" fill="#ef4444">Missing/Invalid/Used Token → 403 Forbidden</text>
      <text x="130" y="32" text-anchor="middle" class="text-muted">FR-013, FR-014, FR-015</text>
    </g>
  </g>

  <!-- ========== SECTION 5: INPUT VALIDATION ========== -->
  <g transform="translate(40, 280)">
    <rect x="0" y="0" width="320" height="160" rx="8" fill="#1e293b" stroke="#475569" stroke-width="2"/>
    <text x="160" y="25" text-anchor="middle" class="label">INPUT VALIDATION</text>

    <!-- Dangerous patterns -->
    <g transform="translate(20, 45)">
      <rect x="0" y="0" width="280" height="95" rx="4" fill="#334155" stroke="#ef4444"/>
      <text x="140" y="20" text-anchor="middle" class="heading">Blocked Patterns</text>
      <text x="15" y="40" class="text-sm">• __proto__, constructor, prototype</text>
      <text x="15" y="56" class="text-sm">• Circular references</text>
      <text x="15" y="72" class="text-sm">• Nesting depth &gt; 2 levels</text>
      <text x="15" y="88" class="text-sm">• Oversized arrays/strings</text>
    </g>

    <text x="160" y="152" text-anchor="middle" class="text-muted">FR-017, FR-018, FR-019, FR-020</text>
  </g>

  <!-- ========== SECTION 6: EMAIL VALIDATION ========== -->
  <g transform="translate(380, 280)">
    <rect x="0" y="0" width="320" height="160" rx="8" fill="#1e293b" stroke="#475569" stroke-width="2"/>
    <text x="160" y="25" text-anchor="middle" class="label">EMAIL VALIDATION</text>

    <g transform="translate(20, 45)">
      <!-- Valid -->
      <rect x="0" y="0" width="135" height="45" rx="4" fill="#334155" stroke="#22c55e"/>
      <text x="67" y="18" text-anchor="middle" class="heading" fill="#22c55e">✓ Valid</text>
      <text x="67" y="36" text-anchor="middle" class="text-muted">user@domain.com</text>

      <!-- Warning -->
      <rect x="145" y="0" width="135" height="45" rx="4" fill="#334155" stroke="#eab308"/>
      <text x="212" y="18" text-anchor="middle" class="heading" fill="#eab308">⚠ Warning</text>
      <text x="212" y="36" text-anchor="middle" class="text-muted">temp@mailinator.com</text>

      <!-- Rejected -->
      <rect x="0" y="55" width="280" height="45" rx="4" fill="#334155" stroke="#ef4444"/>
      <text x="140" y="73" text-anchor="middle" class="heading" fill="#ef4444">✕ Rejected</text>
      <text x="140" y="91" text-anchor="middle" class="text-muted">no-domain, user..@bad</text>
    </g>

    <text x="160" y="152" text-anchor="middle" class="text-muted">FR-021, FR-022, FR-023, FR-024</text>
  </g>

  <!-- ========== SECTION 7: AUDIT LOGGING ========== -->
  <g transform="translate(720, 280)">
    <rect x="0" y="0" width="320" height="160" rx="8" fill="#1e293b" stroke="#475569" stroke-width="2"/>
    <text x="160" y="25" text-anchor="middle" class="label">SECURITY AUDIT LOGGING</text>

    <!-- Log entries -->
    <g transform="translate(15, 45)">
      <rect x="0" y="0" width="290" height="90" rx="4" fill="#334155" stroke="#8b5cf6"/>

      <rect x="5" y="5" width="280" height="24" rx="3" fill="#1e293b"/>
      <text x="15" y="20" class="text-sm" fill="#22c55e">✓ SIGN_IN</text>
      <text x="100" y="20" class="text-muted">user_123 • 2026-01-01 10:30 • 192.168.1.1</text>

      <rect x="5" y="33" width="280" height="24" rx="3" fill="#1e293b"/>
      <text x="15" y="48" class="text-sm" fill="#ef4444">✕ SIGN_IN_FAILED</text>
      <text x="130" y="48" class="text-muted">user@test.com • Invalid password</text>

      <rect x="5" y="61" width="280" height="24" rx="3" fill="#1e293b"/>
      <text x="15" y="76" class="text-sm" fill="#8b5cf6">⊳ SIGN_OUT</text>
      <text x="100" y="76" class="text-muted">user_456 • Session ended</text>
    </g>

    <text x="160" y="152" text-anchor="middle" class="text-muted">FR-025, FR-026, FR-027: 90-day retention</text>
  </g>

  <!-- ========== SECTION 8: SESSION MANAGEMENT ========== -->
  <g transform="translate(1060, 280)">
    <rect x="0" y="0" width="300" height="160" rx="8" fill="#1e293b" stroke="#475569" stroke-width="2"/>
    <text x="150" y="25" text-anchor="middle" class="label">SESSION MANAGEMENT</text>

    <g transform="translate(20, 45)">
      <!-- Standard session -->
      <rect x="0" y="0" width="125" height="60" rx="4" fill="#334155" stroke="#8b5cf6"/>
      <text x="62" y="18" text-anchor="middle" class="heading">Standard</text>
      <text x="62" y="38" text-anchor="middle" class="text-sm">24h inactivity</text>
      <text x="62" y="52" text-anchor="middle" class="text-muted">timeout</text>

      <!-- Remember Me -->
      <rect x="135" y="0" width="125" height="60" rx="4" fill="#334155" stroke="#d946ef"/>
      <text x="197" y="18" text-anchor="middle" class="heading">Remember</text>
      <text x="197" y="38" text-anchor="middle" class="text-sm">7 day inactivity</text>
      <text x="197" y="52" text-anchor="middle" class="text-muted">timeout</text>

      <!-- Warning -->
      <rect x="0" y="70" width="260" height="35" rx="4" fill="#334155" stroke="#eab308"/>
      <text x="130" y="92" text-anchor="middle" class="text-sm" fill="#eab308">⚠ 1 min warning before expiry</text>
    </g>

    <text x="150" y="152" text-anchor="middle" class="text-muted">FR-029, FR-030, FR-031, FR-032</text>
  </g>

  <!-- ========== SECTION 9: RETRY MECHANISM ========== -->
  <g transform="translate(40, 460)">
    <rect x="0" y="0" width="400" height="130" rx="8" fill="#1e293b" stroke="#475569" stroke-width="2"/>
    <text x="200" y="25" text-anchor="middle" class="label">BACKGROUND PROCESS RETRY</text>

    <g transform="translate(20, 45)">
      <!-- Retry flow -->
      <rect x="0" y="0" width="70" height="40" rx="4" fill="#334155" stroke="#8b5cf6"/>
      <text x="35" y="24" text-anchor="middle" class="text-sm">Try 1</text>

      <line x1="75" y1="20" x2="95" y2="20" stroke="#ef4444" stroke-width="2" marker-end="url(#arrowError)"/>

      <rect x="100" y="0" width="70" height="40" rx="4" fill="#334155" stroke="#8b5cf6"/>
      <text x="135" y="24" text-anchor="middle" class="text-sm">Try 2</text>

      <line x1="175" y1="20" x2="195" y2="20" stroke="#ef4444" stroke-width="2" marker-end="url(#arrowError)"/>

      <rect x="200" y="0" width="70" height="40" rx="4" fill="#334155" stroke="#8b5cf6"/>
      <text x="235" y="24" text-anchor="middle" class="text-sm">Try 3</text>

      <line x1="275" y1="20" x2="295" y2="20" stroke="#22c55e" stroke-width="2" marker-end="url(#arrowSuccess)"/>

      <rect x="300" y="0" width="70" height="40" rx="4" fill="#334155" stroke="#22c55e"/>
      <text x="335" y="24" text-anchor="middle" class="text-sm" fill="#22c55e">Success</text>

      <text x="0" y="60" class="text-sm">Delay: 1s → 5s → 15s (exponential backoff)</text>
      <text x="0" y="75" class="text-muted">All retries fail → Admin notified via email + DB flag</text>
    </g>
  </g>

  <!-- ========== SECTION 10: SUCCESS METRICS ========== -->
  <g transform="translate(460, 460)">
    <rect x="0" y="0" width="500" height="130" rx="8" fill="#1e293b" stroke="#22c55e" stroke-width="2"/>
    <text x="250" y="25" text-anchor="middle" class="label" fill="#22c55e">SUCCESS METRICS</text>

    <g transform="translate(20, 45)">
      <text x="0" y="0" class="text-sm" fill="#22c55e">✓ SC-001: Zero cross-user data access</text>
      <text x="0" y="18" class="text-sm" fill="#22c55e">✓ SC-002: Zero OAuth hijacking attacks</text>
      <text x="0" y="36" class="text-sm" fill="#22c55e">✓ SC-003: Zero brute force successes</text>
      <text x="0" y="54" class="text-sm" fill="#22c55e">✓ SC-004: 100% CSRF protection coverage</text>
      <text x="0" y="72" class="text-sm" fill="#22c55e">✓ SC-005: 100% security events logged</text>

      <text x="260" y="0" class="text-sm" fill="#22c55e">✓ SC-006: 90+ day log retention</text>
      <text x="260" y="18" class="text-sm" fill="#22c55e">✓ SC-007: &lt;100ms password feedback</text>
      <text x="260" y="36" class="text-sm" fill="#22c55e">✓ SC-008: 95%+ retry success rate</text>
      <text x="260" y="54" class="text-sm" fill="#22c55e">✓ SC-009: Clear lockout messaging</text>
      <text x="260" y="72" class="text-sm" fill="#22c55e">✓ SC-010: 1 min session warning</text>
    </g>
  </g>

  <!-- ========== SECTION 11: DATA CLEANUP ========== -->
  <g transform="translate(980, 460)">
    <rect x="0" y="0" width="380" height="130" rx="8" fill="#1e293b" stroke="#475569" stroke-width="2"/>
    <text x="190" y="25" text-anchor="middle" class="label">AUTOMATED CLEANUP</text>

    <g transform="translate(20, 45)">
      <rect x="0" y="0" width="160" height="65" rx="4" fill="#334155" stroke="#8b5cf6"/>
      <text x="80" y="20" text-anchor="middle" class="heading">Weekly Cleanup</text>
      <text x="80" y="40" text-anchor="middle" class="text-sm">Expired sessions</text>
      <text x="80" y="55" text-anchor="middle" class="text-sm">Used OAuth tokens</text>

      <rect x="180" y="0" width="160" height="65" rx="4" fill="#334155" stroke="#8b5cf6"/>
      <text x="260" y="20" text-anchor="middle" class="heading">Idempotent</text>
      <text x="260" y="40" text-anchor="middle" class="text-sm">Safe to re-run</text>
      <text x="260" y="55" text-anchor="middle" class="text-sm">No data loss</text>
    </g>

    <text x="190" y="120" text-anchor="middle" class="text-muted">FR-040, FR-041: Configurable schedule</text>
  </g>

  <!-- Footer -->
  <text x="700" y="620" text-anchor="middle" class="text-muted">Security Hardening Architecture • Feature 005 • ScriptHammer</text>
</svg>
