<svg xmlns="http://www.w3.org/2000/svg" viewBox="0 0 1400 800" width="1400" height="800">
  <!-- ============================================================
       GENERATED BY: /wireframe skill
       SOURCE: features/foundation/005-security-hardening/spec.md
       DATE: 2025-12-30
       DO NOT MANUALLY EDIT - Regenerate with /wireframe command
       ============================================================ -->
  <defs>
    <linearGradient id="bgGrad" x1="0%" y1="0%" x2="100%" y2="100%">
      <stop offset="0%" style="stop-color:#0f172a"/>
      <stop offset="100%" style="stop-color:#1e293b"/>
    </linearGradient>
    <linearGradient id="accentGrad" x1="0%" y1="0%" x2="100%" y2="0%">
      <stop offset="0%" style="stop-color:#8b5cf6"/>
      <stop offset="100%" style="stop-color:#d946ef"/>
    </linearGradient>
    <linearGradient id="secureGrad" x1="0%" y1="0%" x2="100%" y2="0%">
      <stop offset="0%" style="stop-color:#22c55e"/>
      <stop offset="100%" style="stop-color:#16a34a"/>
    </linearGradient>
    <linearGradient id="dangerGrad" x1="0%" y1="0%" x2="100%" y2="0%">
      <stop offset="0%" style="stop-color:#ef4444"/>
      <stop offset="100%" style="stop-color:#dc2626"/>
    </linearGradient>
    <style>
      .heading-lg { fill: #ffffff; font-family: system-ui, sans-serif; font-size: 20px; font-weight: bold; }
      .heading { fill: #ffffff; font-family: system-ui, sans-serif; font-size: 14px; font-weight: bold; }
      .text-md { fill: #cbd5e1; font-family: system-ui, sans-serif; font-size: 12px; }
      .text-sm { fill: #94a3b8; font-family: system-ui, sans-serif; font-size: 10px; }
      .text-muted { fill: #64748b; font-family: system-ui, sans-serif; font-size: 10px; }
      .annotation { fill: #8b5cf6; font-family: monospace; font-size: 10px; }
      .label-section { fill: #8b5cf6; font-family: monospace; font-size: 11px; font-weight: bold; }
    </style>
    <!-- Arrow marker -->
    <marker id="arrowhead" markerWidth="10" markerHeight="7" refX="9" refY="3.5" orient="auto">
      <polygon points="0 0, 10 3.5, 0 7" fill="#8b5cf6"/>
    </marker>
    <marker id="arrowhead-green" markerWidth="10" markerHeight="7" refX="9" refY="3.5" orient="auto">
      <polygon points="0 0, 10 3.5, 0 7" fill="#22c55e"/>
    </marker>
    <marker id="arrowhead-red" markerWidth="10" markerHeight="7" refX="9" refY="3.5" orient="auto">
      <polygon points="0 0, 10 3.5, 0 7" fill="#ef4444"/>
    </marker>
  </defs>

  <!-- Background -->
  <rect width="1400" height="800" fill="url(#bgGrad)"/>

  <!-- Dot grid pattern -->
  <g opacity="0.05">
    <pattern id="dots" width="30" height="30" patternUnits="userSpaceOnUse">
      <circle cx="15" cy="15" r="1" fill="#fff"/>
    </pattern>
    <rect width="1400" height="800" fill="url(#dots)"/>
  </g>

  <!-- Accent line top -->
  <rect x="0" y="0" width="1400" height="3" fill="url(#accentGrad)"/>

  <!-- Title -->
  <text x="700" y="28" text-anchor="middle" font-family="system-ui, sans-serif" font-size="14" font-weight="600" fill="#64748b" letter-spacing="1">SECURITY ARCHITECTURE - DEFENSE IN DEPTH</text>

  <!-- Layer 1: Client/Browser -->
  <text x="40" y="60" class="label-section">LAYER 1: CLIENT</text>

  <rect x="40" y="75" width="180" height="120" rx="8" fill="#1e293b" stroke="#475569" stroke-width="1"/>
  <text x="130" y="100" text-anchor="middle" class="heading">Browser</text>
  <text x="130" y="120" text-anchor="middle" class="text-sm">User Actions</text>

  <!-- CSRF Token box -->
  <rect x="55" y="135" width="150" height="45" rx="6" fill="#334155" stroke="#8b5cf6" stroke-width="1"/>
  <text x="130" y="155" text-anchor="middle" class="text-sm" fill="#8b5cf6">CSRF Token</text>
  <text x="130" y="170" text-anchor="middle" class="text-muted">FR-013: All forms</text>

  <!-- Layer 2: Edge/Gateway -->
  <text x="260" y="60" class="label-section">LAYER 2: EDGE</text>

  <rect x="260" y="75" width="200" height="180" rx="8" fill="#1e293b" stroke="#475569" stroke-width="1"/>
  <text x="360" y="100" text-anchor="middle" class="heading">Rate Limiter</text>

  <!-- Rate limit counter -->
  <rect x="275" y="115" width="170" height="55" rx="6" fill="#334155"/>
  <text x="360" y="135" text-anchor="middle" class="text-sm">Failed Attempts: 3/5</text>
  <text x="360" y="150" text-anchor="middle" class="text-muted">FR-009: Server-side tracking</text>
  <text x="360" y="165" text-anchor="middle" class="text-muted">FR-011: Client-proof</text>

  <!-- Blocked state -->
  <rect x="275" y="180" width="170" height="35" rx="6" fill="#7f1d1d" stroke="#ef4444" stroke-width="1"/>
  <text x="360" y="202" text-anchor="middle" fill="#fca5a5" font-family="system-ui, sans-serif" font-size="11">🚫 Blocked: 14:32 remaining</text>

  <text x="360" y="245" text-anchor="middle" class="text-muted">FR-010: 5 attempts → block</text>

  <!-- Layer 3: Authentication -->
  <text x="500" y="60" class="label-section">LAYER 3: AUTH</text>

  <rect x="500" y="75" width="200" height="180" rx="8" fill="#1e293b" stroke="#475569" stroke-width="1"/>
  <text x="600" y="100" text-anchor="middle" class="heading">OAuth Validator</text>

  <!-- Session state check -->
  <rect x="515" y="115" width="170" height="60" rx="6" fill="#334155"/>
  <text x="600" y="135" text-anchor="middle" class="text-sm">Session State</text>
  <text x="600" y="150" text-anchor="middle" class="text-muted">FR-005: Unique ID</text>
  <text x="600" y="165" text-anchor="middle" class="text-muted">FR-006: Verify ownership</text>

  <!-- Token validation -->
  <rect x="515" y="185" width="170" height="35" rx="6" fill="#14532d" stroke="#22c55e" stroke-width="1"/>
  <text x="600" y="207" text-anchor="middle" fill="#86efac" font-family="system-ui, sans-serif" font-size="11">✓ Token: Single-use only</text>

  <text x="600" y="245" text-anchor="middle" class="text-muted">FR-008: No replay attacks</text>

  <!-- Layer 4: Input Validation -->
  <text x="740" y="60" class="label-section">LAYER 4: VALIDATION</text>

  <rect x="740" y="75" width="200" height="180" rx="8" fill="#1e293b" stroke="#475569" stroke-width="1"/>
  <text x="840" y="100" text-anchor="middle" class="heading">Input Validator</text>

  <rect x="755" y="115" width="170" height="70" rx="6" fill="#334155"/>
  <text x="840" y="135" text-anchor="middle" class="text-sm">Sanitization Rules</text>
  <text x="840" y="150" text-anchor="middle" class="text-muted">FR-017: No __proto__</text>
  <text x="840" y="165" text-anchor="middle" class="text-muted">FR-018: No circular refs</text>
  <text x="840" y="180" text-anchor="middle" class="text-muted">FR-019: Max depth: 2</text>

  <rect x="755" y="195" width="170" height="35" rx="6" fill="#334155"/>
  <text x="840" y="217" text-anchor="middle" class="text-sm">FR-021: Email validation</text>

  <!-- Layer 5: Database with RLS -->
  <text x="980" y="60" class="label-section">LAYER 5: DATA</text>

  <rect x="980" y="75" width="380" height="180" rx="8" fill="#1e293b" stroke="#22c55e" stroke-width="2"/>
  <text x="1170" y="100" text-anchor="middle" class="heading">Supabase + RLS</text>

  <!-- User A data -->
  <rect x="1000" y="115" width="160" height="70" rx="6" fill="#14532d" stroke="#22c55e" stroke-width="1"/>
  <text x="1080" y="135" text-anchor="middle" fill="#86efac" font-family="system-ui, sans-serif" font-size="12">User A Data</text>
  <text x="1080" y="155" text-anchor="middle" class="text-sm">Payments: 12</text>
  <text x="1080" y="170" text-anchor="middle" class="text-muted">auth.uid() = user_a</text>

  <!-- User B data -->
  <rect x="1180" y="115" width="160" height="70" rx="6" fill="#14532d" stroke="#22c55e" stroke-width="1"/>
  <text x="1260" y="135" text-anchor="middle" fill="#86efac" font-family="system-ui, sans-serif" font-size="12">User B Data</text>
  <text x="1260" y="155" text-anchor="middle" class="text-sm">Payments: 8</text>
  <text x="1260" y="170" text-anchor="middle" class="text-muted">auth.uid() = user_b</text>

  <!-- RLS policy note -->
  <rect x="1000" y="195" width="340" height="35" rx="6" fill="#334155"/>
  <text x="1170" y="217" text-anchor="middle" class="text-sm">FR-001/002: Database-level isolation enforced</text>

  <!-- Audit Log section (bottom) -->
  <text x="40" y="290" class="label-section">AUDIT &amp; MONITORING</text>

  <rect x="40" y="305" width="600" height="160" rx="8" fill="#1e293b" stroke="#475569" stroke-width="1"/>
  <text x="340" y="330" text-anchor="middle" class="heading">Security Audit Log (FR-025-028)</text>

  <!-- Log entries -->
  <rect x="55" y="345" width="570" height="100" rx="6" fill="#0f172a"/>
  <text x="70" y="365" class="text-sm" fill="#22c55e">✓ 2025-12-30 14:32:01 | SIGN_IN  | user_abc123 | 192.168.1.42 | Chrome/Mac</text>
  <text x="70" y="385" class="text-sm" fill="#eab308">⚠ 2025-12-30 14:31:45 | FAILED   | user_abc123 | 192.168.1.42 | Attempt 3/5</text>
  <text x="70" y="405" class="text-sm" fill="#ef4444">✕ 2025-12-30 14:31:30 | BLOCKED  | unknown     | 10.0.0.15    | Rate limit</text>
  <text x="70" y="425" class="text-sm" fill="#94a3b8">○ 2025-12-30 14:30:00 | SIGN_OUT | user_xyz789 | 192.168.1.50 | Explicit</text>

  <text x="340" y="460" text-anchor="middle" class="text-muted">Retention: 90 days (FR-027) | Append-only | Queryable</text>

  <!-- Session Management (bottom right) -->
  <text x="680" y="290" class="label-section">SESSION MANAGEMENT</text>

  <rect x="680" y="305" width="340" height="160" rx="8" fill="#1e293b" stroke="#475569" stroke-width="1"/>
  <text x="850" y="330" text-anchor="middle" class="heading">Session Lifecycle (FR-029-033)</text>

  <!-- Session timeline -->
  <rect x="700" y="350" width="300" height="80" rx="6" fill="#334155"/>

  <!-- Active session -->
  <rect x="715" y="365" width="120" height="25" rx="4" fill="#14532d"/>
  <text x="775" y="382" text-anchor="middle" class="text-sm" fill="#86efac">Active</text>

  <!-- Warning zone -->
  <rect x="845" y="365" width="60" height="25" rx="4" fill="#854d0e"/>
  <text x="875" y="382" text-anchor="middle" class="text-sm" fill="#fde047">Warn</text>

  <!-- Expired -->
  <rect x="915" y="365" width="70" height="25" rx="4" fill="#7f1d1d"/>
  <text x="950" y="382" text-anchor="middle" class="text-sm" fill="#fca5a5">Expired</text>

  <text x="775" y="415" text-anchor="middle" class="text-muted">Standard: 24h idle</text>
  <text x="875" y="415" text-anchor="middle" class="text-muted">1 min</text>
  <text x="950" y="415" text-anchor="middle" class="text-muted">Logout</text>

  <text x="850" y="455" text-anchor="middle" class="text-sm">"Remember Me": 7 days | Explicit sign-out invalidates</text>

  <!-- Background Process Retry (bottom right corner) -->
  <text x="1040" y="290" class="label-section">RELIABILITY</text>

  <rect x="1040" y="305" width="320" height="160" rx="8" fill="#1e293b" stroke="#475569" stroke-width="1"/>
  <text x="1200" y="330" text-anchor="middle" class="heading">Retry &amp; Recovery (FR-038-041)</text>

  <!-- Retry flow -->
  <rect x="1060" y="350" width="55" height="35" rx="6" fill="#334155"/>
  <text x="1088" y="372" text-anchor="middle" class="text-sm">Try 1</text>

  <rect x="1130" y="350" width="55" height="35" rx="6" fill="#334155"/>
  <text x="1158" y="372" text-anchor="middle" class="text-sm">Try 2</text>

  <rect x="1200" y="350" width="55" height="35" rx="6" fill="#334155"/>
  <text x="1228" y="372" text-anchor="middle" class="text-sm">Try 3</text>

  <rect x="1270" y="350" width="75" height="35" rx="6" fill="#7f1d1d" stroke="#ef4444" stroke-width="1"/>
  <text x="1308" y="372" text-anchor="middle" fill="#fca5a5" font-family="system-ui, sans-serif" font-size="10">Alert Admin</text>

  <!-- Delay indicators -->
  <text x="1120" y="400" text-anchor="middle" class="text-muted">1s</text>
  <text x="1190" y="400" text-anchor="middle" class="text-muted">5s</text>
  <text x="1260" y="400" text-anchor="middle" class="text-muted">15s</text>

  <text x="1200" y="430" text-anchor="middle" class="text-sm">Idempotent operations (FR-041)</text>
  <text x="1200" y="450" text-anchor="middle" class="text-muted">Email + DB flag on final failure</text>

  <!-- Flow arrows between layers -->
  <g id="flow-arrows">
    <path d="M220 135 L255 135" stroke="#8b5cf6" stroke-width="2" fill="none" marker-end="url(#arrowhead)"/>
    <path d="M460 135 L495 135" stroke="#8b5cf6" stroke-width="2" fill="none" marker-end="url(#arrowhead)"/>
    <path d="M700 135 L735 135" stroke="#8b5cf6" stroke-width="2" fill="none" marker-end="url(#arrowhead)"/>
    <path d="M940 135 L975 135" stroke="#22c55e" stroke-width="2" fill="none" marker-end="url(#arrowhead-green)"/>
  </g>

  <!-- Legend -->
  <rect x="40" y="490" width="300" height="100" rx="8" fill="#1e293b" stroke="#475569" stroke-width="1"/>
  <text x="60" y="515" class="heading">Legend</text>
  <rect x="60" y="530" width="20" height="12" rx="2" fill="#22c55e"/>
  <text x="90" y="540" class="text-sm">Protected / Success</text>
  <rect x="60" y="550" width="20" height="12" rx="2" fill="#ef4444"/>
  <text x="90" y="560" class="text-sm">Blocked / Failed</text>
  <rect x="60" y="570" width="20" height="12" rx="2" fill="#eab308"/>
  <text x="90" y="580" class="text-sm">Warning / Rate Limited</text>

  <rect x="200" y="530" width="20" height="12" rx="2" fill="#8b5cf6"/>
  <text x="230" y="540" class="text-sm">Security Token</text>
  <text x="200" y="560" class="text-sm">→ Data Flow</text>

  <!-- Key metrics -->
  <rect x="360" y="490" width="280" height="100" rx="8" fill="#1e293b" stroke="#475569" stroke-width="1"/>
  <text x="380" y="515" class="heading">Success Criteria</text>
  <text x="380" y="540" class="text-sm">SC-001: 0 cross-user data access</text>
  <text x="380" y="558" class="text-sm">SC-002: 0 OAuth hijacking</text>
  <text x="380" y="576" class="text-sm">SC-003: 0 brute force success</text>

  <!-- OWASP reference -->
  <rect x="40" y="610" width="1320" height="60" rx="8" fill="#334155"/>
  <text x="700" y="635" text-anchor="middle" class="heading">OWASP Top 10 Coverage</text>
  <text x="700" y="655" text-anchor="middle" class="text-sm">A01:Broken Access Control (RLS) | A02:Crypto Failures (OAuth) | A03:Injection (Input Val) | A04:Insecure Design (CSRF) | A07:Auth Failures (Rate Limit)</text>
</svg>