<svg xmlns="http://www.w3.org/2000/svg" viewBox="0 0 1400 800" width="1400" height="800">
  <!-- ============================================================
       GENERATED BY: /wireframe skill
       SOURCE: features/foundation/005-security-hardening/spec.md
       DATE: 2025-12-31
       THEME: Dark (Backend/Architecture)
       DO NOT MANUALLY EDIT - Regenerate with /wireframe command
       ============================================================ -->
  <defs>
    <linearGradient id="bgGrad" x1="0%" y1="0%" x2="100%" y2="100%">
      <stop offset="0%" style="stop-color:#0f172a"/>
      <stop offset="100%" style="stop-color:#1e293b"/>
    </linearGradient>
    <linearGradient id="accentGrad" x1="0%" y1="0%" x2="100%" y2="0%">
      <stop offset="0%" style="stop-color:#8b5cf6"/>
      <stop offset="100%" style="stop-color:#d946ef"/>
    </linearGradient>
    <linearGradient id="securityGrad" x1="0%" y1="0%" x2="0%" y2="100%">
      <stop offset="0%" style="stop-color:#22c55e"/>
      <stop offset="100%" style="stop-color:#16a34a"/>
    </linearGradient>
    <marker id="arrowhead" markerWidth="10" markerHeight="7" refX="9" refY="3.5" orient="auto">
      <polygon points="0 0, 10 3.5, 0 7" fill="#8b5cf6"/>
    </marker>
    <marker id="arrowhead-success" markerWidth="10" markerHeight="7" refX="9" refY="3.5" orient="auto">
      <polygon points="0 0, 10 3.5, 0 7" fill="#22c55e"/>
    </marker>
    <marker id="arrowhead-error" markerWidth="10" markerHeight="7" refX="9" refY="3.5" orient="auto">
      <polygon points="0 0, 10 3.5, 0 7" fill="#ef4444"/>
    </marker>
    <style>
      .heading-lg { fill: #ffffff; font-family: system-ui, sans-serif; font-size: 20px; font-weight: bold; }
      .heading { fill: #ffffff; font-family: system-ui, sans-serif; font-size: 14px; font-weight: bold; }
      .heading-sm { fill: #ffffff; font-family: system-ui, sans-serif; font-size: 12px; font-weight: bold; }
      .text-md { fill: #cbd5e1; font-family: system-ui, sans-serif; font-size: 12px; }
      .text-sm { fill: #94a3b8; font-family: system-ui, sans-serif; font-size: 10px; }
      .text-muted { fill: #64748b; font-family: system-ui, sans-serif; font-size: 10px; }
      .annotation { fill: #8b5cf6; font-family: monospace; font-size: 10px; }
      .code { fill: #a5b4fc; font-family: monospace; font-size: 10px; }
      .success { fill: #22c55e; }
      .error { fill: #ef4444; }
      .warning { fill: #eab308; }
    </style>
  </defs>

  <!-- Background -->
  <rect width="1400" height="800" fill="url(#bgGrad)"/>

  <!-- Dot grid pattern -->
  <g opacity="0.05">
    <pattern id="dots" width="30" height="30" patternUnits="userSpaceOnUse">
      <circle cx="15" cy="15" r="1" fill="#fff"/>
    </pattern>
    <rect width="1400" height="800" fill="url(#dots)"/>
  </g>

  <!-- Accent line top -->
  <rect x="0" y="0" width="1400" height="3" fill="url(#accentGrad)"/>

  <!-- Title -->
  <text x="700" y="32" text-anchor="middle" font-family="system-ui, sans-serif" font-size="16" font-weight="600" fill="#64748b" letter-spacing="1">SECURITY ARCHITECTURE</text>

  <!-- ==================== LAYER LABELS ==================== -->
  <text x="40" y="70" class="text-muted">REQUEST LAYER</text>
  <line x1="150" y1="66" x2="1360" y2="66" stroke="#334155" stroke-width="1" stroke-dasharray="4,4"/>

  <text x="40" y="320" class="text-muted">SECURITY LAYER</text>
  <line x1="170" y1="316" x2="1360" y2="316" stroke="#334155" stroke-width="1" stroke-dasharray="4,4"/>

  <text x="40" y="570" class="text-muted">DATA LAYER</text>
  <line x1="130" y1="566" x2="1360" y2="566" stroke="#334155" stroke-width="1" stroke-dasharray="4,4"/>

  <!-- ==================== REQUEST LAYER ==================== -->

  <!-- Client -->
  <rect x="60" y="90" width="120" height="80" rx="8" fill="#1e293b" stroke="#475569"/>
  <text x="120" y="120" text-anchor="middle" class="heading">Client</text>
  <text x="120" y="140" text-anchor="middle" class="text-sm">Browser/App</text>
  <text x="120" y="157" text-anchor="middle" class="text-muted">Session ID</text>

  <!-- OAuth Provider -->
  <rect x="250" y="90" width="140" height="80" rx="8" fill="#1e293b" stroke="#475569"/>
  <text x="320" y="120" text-anchor="middle" class="heading">OAuth Provider</text>
  <text x="320" y="140" text-anchor="middle" class="text-sm">GitHub / Google</text>
  <text x="320" y="157" text-anchor="middle" class="text-muted">Auth Code</text>

  <!-- API Gateway -->
  <rect x="460" y="90" width="160" height="80" rx="8" fill="#1e293b" stroke="#8b5cf6" stroke-width="2"/>
  <text x="540" y="120" text-anchor="middle" class="heading" fill="#8b5cf6">API Gateway</text>
  <text x="540" y="140" text-anchor="middle" class="text-sm">Request Validation</text>
  <text x="540" y="157" text-anchor="middle" class="text-muted">CSRF Check</text>

  <!-- Rate Limiter -->
  <rect x="690" y="90" width="140" height="80" rx="8" fill="#1e293b" stroke="#eab308" stroke-width="2"/>
  <text x="760" y="120" text-anchor="middle" class="heading warning">Rate Limiter</text>
  <text x="760" y="140" text-anchor="middle" class="text-sm">5 attempts / 15 min</text>
  <text x="760" y="157" text-anchor="middle" class="text-muted">Server-side</text>

  <!-- Input Validator -->
  <rect x="900" y="90" width="160" height="80" rx="8" fill="#1e293b" stroke="#475569"/>
  <text x="980" y="120" text-anchor="middle" class="heading">Input Validator</text>
  <text x="980" y="140" text-anchor="middle" class="text-sm">Injection Prevention</text>
  <text x="980" y="157" text-anchor="middle" class="text-muted">Depth: 2, Size limits</text>

  <!-- Auth Handler -->
  <rect x="1130" y="90" width="140" height="80" rx="8" fill="#1e293b" stroke="#475569"/>
  <text x="1200" y="120" text-anchor="middle" class="heading">Auth Handler</text>
  <text x="1200" y="140" text-anchor="middle" class="text-sm">Session Mgmt</text>
  <text x="1200" y="157" text-anchor="middle" class="text-muted">24h / 7d timeout</text>

  <!-- Request Flow Arrows -->
  <line x1="180" y1="130" x2="245" y2="130" stroke="#8b5cf6" stroke-width="2" marker-end="url(#arrowhead)"/>
  <line x1="390" y1="130" x2="455" y2="130" stroke="#8b5cf6" stroke-width="2" marker-end="url(#arrowhead)"/>
  <line x1="620" y1="130" x2="685" y2="130" stroke="#8b5cf6" stroke-width="2" marker-end="url(#arrowhead)"/>
  <line x1="830" y1="130" x2="895" y2="130" stroke="#8b5cf6" stroke-width="2" marker-end="url(#arrowhead)"/>
  <line x1="1060" y1="130" x2="1125" y2="130" stroke="#8b5cf6" stroke-width="2" marker-end="url(#arrowhead)"/>

  <!-- ==================== SECURITY MECHANISMS (Middle) ==================== -->

  <!-- OAuth State Verification -->
  <rect x="60" y="200" width="260" height="100" rx="8" fill="#1e293b" stroke="#22c55e" stroke-width="2"/>
  <text x="190" y="225" text-anchor="middle" class="heading success">OAuth State Verification</text>
  <rect x="80" y="240" width="220" height="45" rx="4" fill="#0f172a"/>
  <text x="95" y="260" class="code">1. Generate state token</text>
  <text x="95" y="275" class="code">2. Verify on callback</text>

  <!-- CSRF Protection -->
  <rect x="340" y="200" width="260" height="100" rx="8" fill="#1e293b" stroke="#8b5cf6" stroke-width="2"/>
  <text x="470" y="225" text-anchor="middle" class="heading" fill="#8b5cf6">CSRF Protection</text>
  <rect x="360" y="240" width="220" height="45" rx="4" fill="#0f172a"/>
  <text x="375" y="260" class="code">Token in form: ✓</text>
  <text x="375" y="275" class="code">Validate before action</text>

  <!-- Rate Limit Tracker -->
  <rect x="620" y="200" width="260" height="100" rx="8" fill="#1e293b" stroke="#eab308" stroke-width="2"/>
  <text x="750" y="225" text-anchor="middle" class="heading warning">Rate Limit Tracker</text>
  <rect x="640" y="240" width="220" height="45" rx="4" fill="#0f172a"/>
  <text x="655" y="260" class="code">email → attempt_count</text>
  <text x="655" y="275" class="code">Lockout: 15 min window</text>

  <!-- Input Sanitization -->
  <rect x="900" y="200" width="260" height="100" rx="8" fill="#1e293b" stroke="#475569"/>
  <text x="1030" y="225" text-anchor="middle" class="heading">Input Sanitization</text>
  <rect x="920" y="240" width="220" height="45" rx="4" fill="#0f172a"/>
  <text x="935" y="260" class="code">Block: __proto__, constructor</text>
  <text x="935" y="275" class="code">Reject: circular, deep nest</text>

  <!-- ==================== SECURITY ENFORCEMENT ==================== -->

  <!-- RLS Box -->
  <rect x="60" y="340" width="400" height="200" rx="8" fill="#1e293b" stroke="#22c55e" stroke-width="2"/>
  <text x="260" y="370" text-anchor="middle" class="heading-lg success">Row-Level Security (RLS)</text>
  <text x="260" y="395" text-anchor="middle" class="text-sm">Database-enforced data isolation</text>

  <!-- RLS Policy Examples -->
  <rect x="80" y="410" width="360" height="115" rx="4" fill="#0f172a"/>
  <text x="95" y="430" class="code" fill="#22c55e">-- Payment isolation policy</text>
  <text x="95" y="448" class="code">CREATE POLICY user_payments ON payments</text>
  <text x="95" y="466" class="code">  USING (user_id = auth.uid());</text>
  <text x="95" y="490" class="code" fill="#64748b">-- User A cannot see User B's data</text>
  <text x="95" y="508" class="code" fill="#64748b">-- Enforced at database level</text>

  <!-- Audit Logging -->
  <rect x="480" y="340" width="400" height="200" rx="8" fill="#1e293b" stroke="#8b5cf6" stroke-width="2"/>
  <text x="680" y="370" text-anchor="middle" class="heading-lg" fill="#8b5cf6">Audit Logging</text>
  <text x="680" y="395" text-anchor="middle" class="text-sm">90-day retention, immutable</text>

  <!-- Audit Events -->
  <g transform="translate(500, 410)">
    <rect x="0" y="0" width="170" height="25" rx="4" fill="#334155"/>
    <text x="10" y="17" class="text-sm">🔐 auth.sign_in</text>

    <rect x="180" y="0" width="170" height="25" rx="4" fill="#334155"/>
    <text x="190" y="17" class="text-sm">📤 auth.sign_out</text>

    <rect x="0" y="35" width="170" height="25" rx="4" fill="#334155"/>
    <text x="10" y="52" class="text-sm">🔑 auth.password_change</text>

    <rect x="180" y="35" width="170" height="25" rx="4" fill="#334155"/>
    <text x="190" y="52" class="text-sm">⚠️ auth.failed_attempt</text>

    <rect x="0" y="70" width="350" height="40" rx="4" fill="#0f172a"/>
    <text x="15" y="88" class="code">{ user_id, event, timestamp, ip, user_agent }</text>
    <text x="15" y="103" class="code" fill="#64748b">Queryable for security review</text>
  </g>

  <!-- Session Manager -->
  <rect x="900" y="340" width="260" height="200" rx="8" fill="#1e293b" stroke="#475569"/>
  <text x="1030" y="370" text-anchor="middle" class="heading">Session Manager</text>

  <g transform="translate(920, 390)">
    <rect x="0" y="0" width="220" height="30" rx="4" fill="#334155"/>
    <text x="15" y="20" class="text-sm">Standard: 24h inactivity</text>

    <rect x="0" y="40" width="220" height="30" rx="4" fill="#334155"/>
    <text x="15" y="60" class="text-sm">Remember Me: 7d inactivity</text>

    <rect x="0" y="80" width="220" height="30" rx="4" fill="#fffbeb"/>
    <text x="15" y="100" class="text-sm" fill="#92400e">⏱ 1 min warning before expiry</text>

    <rect x="0" y="120" width="220" height="25" rx="4" fill="#0f172a"/>
    <text x="15" y="138" class="code">Activity resets timer</text>
  </g>

  <!-- ==================== DATA LAYER ==================== -->

  <!-- Users Table -->
  <rect x="60" y="590" width="200" height="120" rx="8" fill="#1e293b" stroke="#475569"/>
  <text x="160" y="620" text-anchor="middle" class="heading">users</text>
  <rect x="80" y="635" width="160" height="60" rx="4" fill="#0f172a"/>
  <text x="95" y="655" class="code">id (PK)</text>
  <text x="95" y="670" class="code">email (unique)</text>
  <text x="95" y="685" class="code">verified_at</text>

  <!-- Payments Table -->
  <rect x="300" y="590" width="200" height="120" rx="8" fill="#1e293b" stroke="#22c55e"/>
  <text x="400" y="620" text-anchor="middle" class="heading success">payments</text>
  <rect x="320" y="635" width="160" height="60" rx="4" fill="#0f172a"/>
  <text x="335" y="655" class="code">id (PK)</text>
  <text x="335" y="670" class="code success">user_id (FK) ← RLS</text>
  <text x="335" y="685" class="code">amount, status</text>

  <!-- Sessions Table -->
  <rect x="540" y="590" width="200" height="120" rx="8" fill="#1e293b" stroke="#475569"/>
  <text x="640" y="620" text-anchor="middle" class="heading">sessions</text>
  <rect x="560" y="635" width="160" height="60" rx="4" fill="#0f172a"/>
  <text x="575" y="655" class="code">id (PK)</text>
  <text x="575" y="670" class="code">user_id (FK)</text>
  <text x="575" y="685" class="code">expires_at</text>

  <!-- Rate Limits Table -->
  <rect x="780" y="590" width="200" height="120" rx="8" fill="#1e293b" stroke="#eab308"/>
  <text x="880" y="620" text-anchor="middle" class="heading warning">rate_limits</text>
  <rect x="800" y="635" width="160" height="60" rx="4" fill="#0f172a"/>
  <text x="815" y="655" class="code">identifier (email)</text>
  <text x="815" y="670" class="code">attempts: 5</text>
  <text x="815" y="685" class="code">locked_until</text>

  <!-- Audit Logs Table -->
  <rect x="1020" y="590" width="200" height="120" rx="8" fill="#1e293b" stroke="#8b5cf6"/>
  <text x="1120" y="620" text-anchor="middle" class="heading" fill="#8b5cf6">audit_logs</text>
  <rect x="1040" y="635" width="160" height="60" rx="4" fill="#0f172a"/>
  <text x="1055" y="655" class="code">event_type</text>
  <text x="1055" y="670" class="code">user_id, timestamp</text>
  <text x="1055" y="685" class="code">ip, details (JSON)</text>

  <!-- ==================== LEGEND ==================== -->
  <rect x="1240" y="90" width="120" height="140" rx="8" fill="#1e293b" stroke="#475569"/>
  <text x="1300" y="115" text-anchor="middle" class="heading-sm">Legend</text>

  <circle cx="1260" cy="140" r="6" fill="#22c55e"/>
  <text x="1275" y="144" class="text-sm">RLS Protected</text>

  <circle cx="1260" cy="165" r="6" fill="#8b5cf6"/>
  <text x="1275" y="169" class="text-sm">Security Check</text>

  <circle cx="1260" cy="190" r="6" fill="#eab308"/>
  <text x="1275" y="194" class="text-sm">Rate Limited</text>

  <circle cx="1260" cy="215" r="6" fill="#ef4444"/>
  <text x="1275" y="219" class="text-sm">Blocked</text>

  <!-- FR References -->
  <text x="60" y="740" class="annotation">FR-001..004: Data Isolation</text>
  <text x="280" y="740" class="annotation">FR-005..008: OAuth State</text>
  <text x="500" y="740" class="annotation">FR-009..012: Rate Limiting</text>
  <text x="720" y="740" class="annotation">FR-013..016: CSRF</text>
  <text x="940" y="740" class="annotation">FR-025..028: Audit Logging</text>
</svg>