<svg xmlns="http://www.w3.org/2000/svg" viewBox="0 0 1400 800" width="1400" height="800">
  <!-- ============================================================
       GENERATED BY: /wireframe skill
       SOURCE: features/foundation/005-security-hardening/spec.md
       DATE: 2026-01-01
       THEME: Light (UX/Frontend) - v3 True Parchment
       REGENERATED WITH FEEDBACK: features/foundation/005-security-hardening/WIREFRAME_ISSUES.md
       DO NOT MANUALLY EDIT - Regenerate with /wireframe command
       ============================================================ -->
  <defs>
    <linearGradient id="bgGrad" x1="0%" y1="0%" x2="100%" y2="100%">
      <stop offset="0%" style="stop-color:#c7ddf5"/>
      <stop offset="100%" style="stop-color:#b8d4f0"/>
    </linearGradient>
    <linearGradient id="accentGrad" x1="0%" y1="0%" x2="100%" y2="0%">
      <stop offset="0%" style="stop-color:#8b5cf6"/>
      <stop offset="100%" style="stop-color:#d946ef"/>
    </linearGradient>
    <style>
      .heading-lg { fill: #1a1a2e; font-family: system-ui, sans-serif; font-size: 24px; font-weight: 800; }
      .heading { fill: #1a1a2e; font-family: system-ui, sans-serif; font-size: 16px; font-weight: 700; }
      .heading-sm { fill: #1a1a2e; font-family: system-ui, sans-serif; font-size: 14px; font-weight: 700; }
      .text-md { fill: #2d3748; font-family: system-ui, sans-serif; font-size: 14px; font-weight: 500; }
      .text-sm { fill: #374151; font-family: system-ui, sans-serif; font-size: 12px; font-weight: 500; }
      .text-muted { fill: #4b5563; font-family: system-ui, sans-serif; font-size: 11px; font-weight: 500; }
      .annotation { fill: #6d28d9; font-family: monospace; font-size: 12px; font-weight: 600; }
      .label-desktop { fill: #8b5cf6; font-family: monospace; font-size: 13px; font-weight: bold; }
      .label-mobile { fill: #d946ef; font-family: monospace; font-size: 13px; font-weight: bold; }
    </style>
  </defs>

  <!-- Background -->
  <rect width="1400" height="800" fill="url(#bgGrad)"/>

  <!-- Dot grid pattern -->
  <g opacity="0.35">
    <pattern id="dots" width="30" height="30" patternUnits="userSpaceOnUse">
      <circle cx="15" cy="15" r="1" fill="#6b8cba"/>
    </pattern>
    <rect width="1400" height="800" fill="url(#dots)"/>
  </g>

  <!-- Accent line top -->
  <rect x="0" y="0" width="1400" height="3" fill="url(#accentGrad)"/>

  <!-- Title -->
  <text x="700" y="28" text-anchor="middle" font-family="system-ui, sans-serif" font-size="14" font-weight="600" fill="#4b5563" letter-spacing="1">SECURITY UX - PASSWORD STRENGTH • LOCKOUT • SESSION TIMEOUT • ERROR RECOVERY</text>

  <!-- DESKTOP SECTION -->
  <text x="40" y="52" class="label-desktop">DESKTOP</text>

  <g id="desktop-view">
    <!-- ========== CARD 1: PASSWORD STRENGTH ========== -->
    <rect x="40" y="60" width="290" height="360" rx="8" fill="#e8d4b8" stroke="#b8a080" stroke-width="1"/>
    <text x="185" y="90" text-anchor="middle" class="heading">Password Strength</text>

    <!-- Password input - 44px height for WCAG AAA -->
    <text x="60" y="120" class="text-sm">Create Password</text>
    <rect x="60" y="130" width="250" height="44" rx="6" fill="#f5f0e6" stroke="#b8a080"/>
    <text x="75" y="158" class="text-md">••••••••••</text>
    <text x="290" y="158" text-anchor="end" class="text-muted">👁</text>

    <!-- Strength indicator - WEAK -->
    <rect x="60" y="184" width="250" height="8" rx="4" fill="#dcc8a8"/>
    <rect x="60" y="184" width="70" height="8" rx="4" fill="#ef4444"/>
    <text x="60" y="210" class="text-sm" fill="#ef4444">Weak</text>

    <!-- Requirements checklist -->
    <text x="60" y="240" class="heading-sm">Requirements</text>
    <text x="75" y="263" class="text-sm" fill="#ef4444">✗ At least 8 characters</text>
    <text x="75" y="283" class="text-sm" fill="#22c55e">✓ Contains uppercase</text>
    <text x="75" y="303" class="text-sm" fill="#22c55e">✓ Contains lowercase</text>
    <text x="75" y="323" class="text-sm" fill="#ef4444">✗ Contains number</text>
    <text x="75" y="343" class="text-sm" fill="#ef4444">✗ Contains symbol</text>

    <!-- Strength levels legend -->
    <text x="60" y="375" class="text-muted">Strength levels: Weak → Medium → Strong</text>
    <text x="60" y="393" class="annotation">FR-034, FR-035: Real-time feedback</text>
    <text x="60" y="410" class="annotation">SC-007: &lt;100ms feedback</text>

    <!-- ========== CARD 2: LOCKOUT NOTIFICATION ========== -->
    <rect x="345" y="60" width="290" height="360" rx="8" fill="#e8d4b8" stroke="#b8a080" stroke-width="1"/>
    <text x="490" y="90" text-anchor="middle" class="heading">Account Lockout</text>

    <!-- Lockout alert -->
    <rect x="365" y="110" width="250" height="120" rx="8" fill="#fee2e2" stroke="#ef4444" stroke-width="2"/>
    <text x="490" y="140" text-anchor="middle" class="heading" fill="#ef4444">🔒 Account Locked</text>
    <text x="490" y="165" text-anchor="middle" class="text-md">Too many failed attempts</text>
    <text x="490" y="190" text-anchor="middle" class="text-sm">Please wait before trying again</text>
    <text x="490" y="218" text-anchor="middle" font-family="system-ui" font-size="20" font-weight="700" fill="#ef4444">14:32</text>

    <!-- Attempt counter -->
    <text x="365" y="260" class="heading-sm">Failed Attempts</text>
    <rect x="365" y="275" width="250" height="44" rx="6" fill="#f5f0e6" stroke="#b8a080"/>
    <text x="380" y="302" class="text-sm">Attempts: 5 / 5</text>
    <rect x="505" y="285" width="95" height="24" rx="12" fill="#ef4444"/>
    <text x="553" y="301" text-anchor="middle" fill="#fff" font-size="10">Max reached</text>

    <!-- Recovery button - 44px height -->
    <text x="365" y="345" class="heading-sm">Recovery Options</text>
    <rect x="365" y="358" width="250" height="44" rx="6" fill="#8b5cf6"/>
    <text x="490" y="386" text-anchor="middle" fill="#fff" font-size="13" font-weight="600">Reset Password via Email</text>

    <text x="365" y="420" class="annotation">FR-012, SC-009: Clear lockout messaging</text>

    <!-- ========== CARD 3: SESSION TIMEOUT ========== -->
    <rect x="650" y="60" width="290" height="360" rx="8" fill="#e8d4b8" stroke="#b8a080" stroke-width="1"/>
    <text x="795" y="90" text-anchor="middle" class="heading">Session Timeout</text>

    <!-- Timeout warning modal -->
    <rect x="670" y="110" width="250" height="140" rx="8" fill="#fef3c7" stroke="#eab308" stroke-width="2"/>
    <text x="795" y="138" text-anchor="middle" class="heading" fill="#92400e">⚠️ Session Expiring</text>
    <text x="795" y="165" text-anchor="middle" class="text-md">Your session will expire in</text>
    <text x="795" y="200" text-anchor="middle" font-family="system-ui" font-size="32" font-weight="700" fill="#92400e">0:59</text>

    <!-- Action buttons - 44px height each -->
    <rect x="678" y="218" width="115" height="44" rx="6" fill="#22c55e"/>
    <text x="736" y="246" text-anchor="middle" fill="#fff" font-size="12" font-weight="600">Stay Signed In</text>
    <rect x="798" y="218" width="115" height="44" rx="6" fill="#dcc8a8" stroke="#b8a080"/>
    <text x="856" y="246" text-anchor="middle" class="text-sm">Sign Out</text>

    <!-- Session info - display only, not buttons -->
    <text x="670" y="290" class="heading-sm">Session Type (display only)</text>
    <rect x="670" y="305" width="120" height="30" rx="6" fill="#f5f0e6" stroke="#8b5cf6"/>
    <text x="730" y="325" text-anchor="middle" class="text-sm">Standard</text>
    <rect x="800" y="305" width="120" height="30" rx="6" fill="#f5f0e6" stroke="#b8a080"/>
    <text x="860" y="325" text-anchor="middle" class="text-sm">Remember Me</text>

    <text x="670" y="360" class="text-muted">Standard: 24h • Remember: 7d inactivity</text>
    <text x="670" y="380" class="annotation">FR-029, FR-030, FR-031, SC-010</text>

    <!-- ========== CARD 4: EMAIL VALIDATION ========== -->
    <rect x="40" y="435" width="290" height="280" rx="8" fill="#e8d4b8" stroke="#b8a080" stroke-width="1"/>
    <text x="185" y="465" text-anchor="middle" class="heading">Email Validation</text>

    <!-- Valid email -->
    <rect x="60" y="485" width="250" height="50" rx="6" fill="#f5f0e6" stroke="#22c55e" stroke-width="2"/>
    <text x="75" y="507" class="text-sm" font-weight="600">user@company.com</text>
    <text x="75" y="525" class="text-muted" fill="#22c55e">✓ Valid email format</text>

    <!-- Warning email -->
    <rect x="60" y="545" width="250" height="50" rx="6" fill="#fef3c7" stroke="#eab308" stroke-width="2"/>
    <text x="75" y="567" class="text-sm" font-weight="600">test@tempmail.io</text>
    <text x="75" y="585" class="text-muted" fill="#92400e">⚠ Disposable email detected</text>

    <!-- Invalid email -->
    <rect x="60" y="605" width="250" height="50" rx="6" fill="#fee2e2" stroke="#ef4444" stroke-width="2"/>
    <text x="75" y="627" class="text-sm" font-weight="600">user..invalid@</text>
    <text x="75" y="645" class="text-muted" fill="#ef4444">✗ Invalid email format</text>

    <!-- Normalization note -->
    <rect x="60" y="665" width="250" height="35" rx="6" fill="#dcc8a8"/>
    <text x="185" y="687" text-anchor="middle" class="text-muted">Emails normalized to lowercase</text>

    <!-- ========== CARD 5: ERROR RECOVERY ========== -->
    <rect x="345" y="435" width="290" height="280" rx="8" fill="#e8d4b8" stroke="#b8a080" stroke-width="1"/>
    <text x="490" y="465" text-anchor="middle" class="heading">Error Recovery</text>

    <!-- OAuth error -->
    <rect x="365" y="485" width="250" height="100" rx="6" fill="#fee2e2" stroke="#ef4444"/>
    <text x="380" y="510" class="heading-sm" fill="#ef4444">OAuth Provider Error</text>
    <text x="380" y="530" class="text-sm">Could not connect to Google</text>
    <!-- Buttons - 44px height -->
    <rect x="380" y="540" width="100" height="44" rx="6" fill="#8b5cf6"/>
    <text x="430" y="568" text-anchor="middle" fill="#fff" font-size="12" font-weight="600">Retry</text>
    <rect x="490" y="540" width="120" height="44" rx="6" fill="#dcc8a8" stroke="#b8a080"/>
    <text x="550" y="568" text-anchor="middle" class="text-sm">Email Login</text>

    <!-- Email delivery error -->
    <rect x="365" y="595" width="250" height="80" rx="6" fill="#fef3c7" stroke="#eab308"/>
    <text x="380" y="620" class="heading-sm" fill="#92400e">Email Not Received?</text>
    <text x="380" y="640" class="text-sm">Check spam folder</text>
    <!-- Button - 44px height -->
    <rect x="380" y="648" width="130" height="44" rx="6" fill="#8b5cf6"/>
    <text x="445" y="676" text-anchor="middle" fill="#fff" font-size="12" font-weight="600">Resend Email</text>

    <text x="365" y="705" class="annotation">FR-036, FR-037: Clear error recovery</text>

    <!-- ========== CARD 6: CSRF TOKEN ========== -->
    <rect x="650" y="435" width="290" height="280" rx="8" fill="#e8d4b8" stroke="#b8a080" stroke-width="1"/>
    <text x="795" y="465" text-anchor="middle" class="heading">Form Protection</text>

    <!-- Hidden token indicator -->
    <rect x="670" y="485" width="250" height="80" rx="6" fill="#f5f0e6" stroke="#b8a080"/>
    <text x="685" y="510" class="text-muted">Form contains:</text>
    <rect x="685" y="520" width="220" height="30" rx="4" fill="#1e293b"/>
    <text x="695" y="540" fill="#22c55e" font-family="monospace" font-size="10">&lt;input type="hidden" name="_csrf"</text>

    <!-- Protected actions -->
    <text x="670" y="595" class="heading-sm">Protected Actions</text>
    <text x="685" y="618" class="text-sm">✓ Sign up form</text>
    <text x="685" y="638" class="text-sm">✓ Profile updates</text>
    <text x="685" y="658" class="text-sm">✓ Payment submissions</text>
    <text x="685" y="678" class="text-sm">✓ Password changes</text>

    <text x="670" y="705" class="annotation">FR-013, FR-014, SC-004: 100% CSRF coverage</text>
  </g>

  <!-- MOBILE SECTION -->
  <text x="980" y="52" class="label-mobile">MOBILE</text>

  <g id="mobile-view" transform="translate(980, 60)">
    <!-- Phone frame -->
    <rect x="0" y="0" width="360" height="700" rx="24" fill="#c8b898" stroke="#a08860" stroke-width="2"/>
    <rect x="10" y="10" width="340" height="680" rx="16" fill="#e8d4b8"/>

    <!-- Status bar -->
    <rect x="10" y="10" width="340" height="28" rx="16" fill="#dcc8a8"/>
    <text x="30" y="28" class="text-sm">9:41</text>
    <text x="310" y="28" text-anchor="end" class="text-sm">100%</text>

    <!-- Header -->
    <rect x="10" y="38" width="340" height="50" fill="#8b5cf6"/>
    <text x="25" y="55" fill="rgba(255,255,255,0.8)" font-size="12">←</text>
    <text x="60" y="68" fill="#fff" font-family="system-ui" font-size="16" font-weight="700">Create Password</text>

    <!-- Password input - 44px height -->
    <text x="25" y="115" class="text-sm">New Password</text>
    <rect x="25" y="125" width="310" height="44" rx="6" fill="#f5f0e6" stroke="#b8a080"/>
    <text x="40" y="153" class="text-md">••••••••••</text>
    <text x="310" y="153" text-anchor="end" class="text-muted">👁</text>

    <!-- Strength bar - Medium -->
    <rect x="25" y="180" width="310" height="8" rx="4" fill="#dcc8a8"/>
    <rect x="25" y="180" width="180" height="8" rx="4" fill="#eab308"/>
    <text x="25" y="205" class="text-sm" fill="#92400e">Medium Strength</text>

    <!-- Requirements -->
    <rect x="25" y="220" width="310" height="130" rx="8" fill="#f5f0e6"/>
    <text x="40" y="245" class="heading-sm">Requirements</text>
    <text x="55" y="270" class="text-sm" fill="#22c55e">✓ 8+ characters</text>
    <text x="55" y="290" class="text-sm" fill="#22c55e">✓ Uppercase letter</text>
    <text x="55" y="310" class="text-sm" fill="#22c55e">✓ Lowercase letter</text>
    <text x="55" y="330" class="text-sm" fill="#ef4444">✗ Number</text>

    <!-- Confirm password - 44px height -->
    <text x="25" y="375" class="text-sm">Confirm Password</text>
    <rect x="25" y="385" width="310" height="44" rx="6" fill="#f5f0e6" stroke="#b8a080"/>
    <text x="40" y="413" class="text-md">••••••••••</text>

    <!-- Submit button - 48px height (exceeds 44px min) -->
    <rect x="25" y="450" width="310" height="48" rx="6" fill="#8b5cf6"/>
    <text x="180" y="480" text-anchor="middle" fill="#fff" font-size="14" font-weight="600">Set Password</text>

    <!-- Session timeout warning (overlay) -->
    <rect x="30" y="520" width="300" height="130" rx="12" fill="#fef3c7" stroke="#eab308" stroke-width="2"/>
    <text x="180" y="550" text-anchor="middle" class="heading-sm" fill="#92400e">⚠️ Session Expiring</text>
    <text x="180" y="580" text-anchor="middle" font-family="system-ui" font-size="24" font-weight="700" fill="#92400e">0:45</text>
    <!-- Session buttons - 44px height each -->
    <rect x="45" y="595" width="120" height="44" rx="6" fill="#22c55e"/>
    <text x="105" y="623" text-anchor="middle" fill="#fff" font-size="12" font-weight="600">Stay In</text>
    <rect x="175" y="595" width="120" height="44" rx="6" fill="#dcc8a8" stroke="#b8a080"/>
    <text x="235" y="623" text-anchor="middle" class="text-sm">Sign Out</text>

    <!-- Footer info -->
    <text x="180" y="675" text-anchor="middle" class="text-muted">Password tips and session management</text>
  </g>

  <!-- Footer -->
  <text x="700" y="780" text-anchor="middle" class="text-muted">Security UX • Feature 005 • ScriptHammer</text>

  <!-- Leader lines -->
  <g id="leader-lines">
    <line x1="310" y1="195" x2="335" y2="195" stroke="#8b5cf6" stroke-width="1" stroke-dasharray="4,2"/>
  </g>
</svg>
