<svg xmlns="http://www.w3.org/2000/svg" viewBox="0 0 1400 800" width="1400" height="800">
  <!-- ============================================================
       GENERATED BY: /wireframe skill
       SOURCE: features/foundation/005-security-hardening/spec.md
       DATE: 2025-12-30
       DO NOT MANUALLY EDIT - Regenerate with /wireframe command
       ============================================================ -->
  <defs>
    <linearGradient id="bgGrad" x1="0%" y1="0%" x2="100%" y2="100%">
      <stop offset="0%" style="stop-color:#0f172a"/>
      <stop offset="100%" style="stop-color:#1e293b"/>
    </linearGradient>
    <linearGradient id="accentGrad" x1="0%" y1="0%" x2="100%" y2="0%">
      <stop offset="0%" style="stop-color:#8b5cf6"/>
      <stop offset="100%" style="stop-color:#d946ef"/>
    </linearGradient>
    <style>
      .heading-lg { fill: #ffffff; font-family: system-ui, sans-serif; font-size: 20px; font-weight: bold; }
      .heading { fill: #ffffff; font-family: system-ui, sans-serif; font-size: 14px; font-weight: bold; }
      .text-md { fill: #cbd5e1; font-family: system-ui, sans-serif; font-size: 12px; }
      .text-sm { fill: #94a3b8; font-family: system-ui, sans-serif; font-size: 10px; }
      .text-muted { fill: #64748b; font-family: system-ui, sans-serif; font-size: 10px; }
      .annotation { fill: #8b5cf6; font-family: monospace; font-size: 10px; }
      .label-desktop { fill: #8b5cf6; font-family: monospace; font-size: 11px; font-weight: bold; }
      .label-mobile { fill: #d946ef; font-family: monospace; font-size: 11px; font-weight: bold; }
    </style>
  </defs>

  <!-- Background -->
  <rect width="1400" height="800" fill="url(#bgGrad)"/>

  <!-- Dot grid pattern -->
  <g opacity="0.05">
    <pattern id="dots" width="30" height="30" patternUnits="userSpaceOnUse">
      <circle cx="15" cy="15" r="1" fill="#fff"/>
    </pattern>
    <rect width="1400" height="800" fill="url(#dots)"/>
  </g>

  <!-- Accent line top -->
  <rect x="0" y="0" width="1400" height="3" fill="url(#accentGrad)"/>

  <!-- Title -->
  <text x="700" y="28" text-anchor="middle" font-family="system-ui, sans-serif" font-size="14" font-weight="600" fill="#64748b" letter-spacing="1">SECURITY UX - USER-FACING FEEDBACK</text>

  <!-- DESKTOP SECTION - Password Strength + Rate Limiting -->
  <text x="40" y="52" class="label-desktop">DESKTOP - PASSWORD &amp; LOCKOUT</text>

  <g id="desktop-view">
    <!-- Password Creation Card -->
    <rect x="40" y="70" width="420" height="340" rx="12" fill="#1e293b" stroke="#475569" stroke-width="1"/>
    <text x="250" y="100" text-anchor="middle" class="heading">Create Password (FR-034/035)</text>

    <!-- Password field -->
    <text x="60" y="135" class="text-sm">New Password</text>
    <rect x="60" y="145" width="380" height="40" rx="6" fill="#0f172a" stroke="#475569" stroke-width="1"/>
    <text x="75" y="170" class="text-muted">●●●●●●●●●●</text>
    <text x="415" y="170" text-anchor="end" class="text-sm">👁</text>

    <!-- Real-time strength indicator -->
    <rect x="60" y="200" width="95" height="6" rx="3" fill="#ef4444"/>
    <rect x="160" y="200" width="95" height="6" rx="3" fill="#eab308"/>
    <rect x="260" y="200" width="95" height="6" rx="3" fill="#22c55e"/>
    <rect x="360" y="200" width="80" height="6" rx="3" fill="#334155"/>

    <text x="60" y="225" class="text-sm" fill="#22c55e">Strong Password</text>
    <text x="440" y="225" text-anchor="end" class="text-muted">SC-007: &lt;100ms</text>

    <!-- Requirements checklist -->
    <rect x="60" y="240" width="380" height="120" rx="6" fill="#334155"/>
    <text x="80" y="265" class="text-sm" fill="#22c55e">✓ At least 8 characters</text>
    <text x="80" y="285" class="text-sm" fill="#22c55e">✓ One uppercase letter (A-Z)</text>
    <text x="80" y="305" class="text-sm" fill="#22c55e">✓ One lowercase letter (a-z)</text>
    <text x="80" y="325" class="text-sm" fill="#22c55e">✓ One number (0-9)</text>
    <text x="80" y="345" class="text-sm" fill="#64748b">○ One special character (!@#$)</text>

    <!-- Submit button -->
    <rect x="60" y="375" width="380" height="40" rx="8" fill="url(#accentGrad)"/>
    <text x="250" y="401" text-anchor="middle" fill="#fff" font-family="system-ui, sans-serif" font-size="14" font-weight="600">Create Password</text>

    <!-- Rate Limit / Lockout Card -->
    <rect x="480" y="70" width="420" height="340" rx="12" fill="#1e293b" stroke="#ef4444" stroke-width="2"/>
    <text x="690" y="100" text-anchor="middle" class="heading" fill="#ef4444">Account Locked (FR-012)</text>

    <!-- Lock icon -->
    <circle cx="690" cy="160" r="40" fill="#7f1d1d"/>
    <rect x="670" y="150" width="40" height="30" rx="4" fill="#ef4444"/>
    <rect x="665" y="135" width="50" height="25" rx="12" fill="none" stroke="#ef4444" stroke-width="4"/>

    <!-- Lockout message -->
    <text x="690" y="230" text-anchor="middle" class="heading">Too Many Failed Attempts</text>
    <text x="690" y="255" text-anchor="middle" class="text-md">Your account is temporarily locked</text>
    <text x="690" y="275" text-anchor="middle" class="text-md">for security reasons.</text>

    <!-- Countdown timer -->
    <rect x="580" y="295" width="220" height="50" rx="8" fill="#7f1d1d"/>
    <text x="690" y="325" text-anchor="middle" fill="#fca5a5" font-family="system-ui, sans-serif" font-size="18" font-weight="600">Try again in 14:32</text>

    <!-- Recovery options -->
    <text x="690" y="375" text-anchor="middle" fill="#8b5cf6" font-family="system-ui, sans-serif" font-size="12">Forgot Password?</text>
    <text x="690" y="395" text-anchor="middle" class="text-muted">FR-010: 5 attempts → 15 min block</text>

    <!-- Session Timeout Warning -->
    <rect x="40" y="430" width="420" height="150" rx="12" fill="#1e293b" stroke="#eab308" stroke-width="2"/>
    <text x="250" y="460" text-anchor="middle" class="heading" fill="#eab308">Session Expiring Soon (FR-031)</text>

    <!-- Warning content -->
    <text x="250" y="495" text-anchor="middle" class="text-md">Your session will expire in</text>

    <rect x="175" y="510" width="150" height="40" rx="8" fill="#854d0e"/>
    <text x="250" y="537" text-anchor="middle" fill="#fde047" font-family="system-ui, sans-serif" font-size="20" font-weight="600">0:58</text>

    <!-- Action buttons -->
    <rect x="80" y="560" width="140" height="35" rx="6" fill="url(#accentGrad)"/>
    <text x="150" y="583" text-anchor="middle" fill="#fff" font-family="system-ui, sans-serif" font-size="12">Stay Signed In</text>

    <rect x="230" y="560" width="140" height="35" rx="6" fill="#334155"/>
    <text x="300" y="583" text-anchor="middle" class="text-md">Sign Out</text>

    <!-- Email Validation Feedback -->
    <rect x="480" y="430" width="420" height="150" rx="12" fill="#1e293b" stroke="#475569" stroke-width="1"/>
    <text x="690" y="460" text-anchor="middle" class="heading">Email Validation (FR-021-024)</text>

    <!-- Valid email -->
    <rect x="500" y="480" width="380" height="35" rx="6" fill="#0f172a" stroke="#22c55e" stroke-width="1"/>
    <text x="515" y="502" class="text-md">john.doe@gmail.com</text>
    <text x="865" y="502" text-anchor="end" fill="#22c55e" font-family="system-ui, sans-serif" font-size="11">✓ Valid</text>

    <!-- Disposable email warning -->
    <rect x="500" y="525" width="380" height="45" rx="6" fill="#0f172a" stroke="#eab308" stroke-width="1"/>
    <text x="515" y="545" class="text-md">user@tempmail.io</text>
    <text x="865" y="545" text-anchor="end" fill="#eab308" font-family="system-ui, sans-serif" font-size="11">⚠ Temp Email</text>
    <text x="515" y="562" class="text-muted">FR-023: Warning shown, can proceed</text>
  </g>

  <!-- MOBILE SECTION -->
  <text x="920" y="52" class="label-mobile">MOBILE - ERROR RECOVERY</text>

  <g id="mobile-view" transform="translate(920, 60)">
    <!-- Phone frame -->
    <rect x="0" y="0" width="360" height="700" rx="24" fill="#1e293b" stroke="#475569" stroke-width="2"/>
    <rect x="10" y="10" width="340" height="680" rx="16" fill="#0f172a"/>

    <!-- Status bar -->
    <rect x="10" y="10" width="340" height="28" rx="16" fill="#1e293b"/>
    <text x="30" y="28" class="text-sm">9:41</text>
    <text x="320" y="28" text-anchor="end" class="text-sm">📶 🔋</text>

    <!-- Error recovery screen -->
    <text x="30" y="65" fill="#8b5cf6" font-family="system-ui, sans-serif" font-size="14">← Back</text>

    <!-- Error icon -->
    <circle cx="180" cy="140" r="40" fill="#7f1d1d"/>
    <text x="180" y="150" text-anchor="middle" fill="#ef4444" font-size="32">!</text>

    <text x="180" y="200" text-anchor="middle" class="heading">Authentication Error</text>
    <text x="180" y="225" text-anchor="middle" class="text-md">Unable to connect to GitHub</text>

    <!-- Error details card -->
    <rect x="30" y="245" width="300" height="100" rx="8" fill="#1e293b"/>
    <text x="50" y="270" class="text-sm">What happened:</text>
    <text x="50" y="290" class="text-muted">The OAuth provider is temporarily</text>
    <text x="50" y="305" class="text-muted">unavailable. This may be due to</text>
    <text x="50" y="320" class="text-muted">network issues or service outage.</text>
    <text x="50" y="335" class="text-muted">FR-036: Clear explanation</text>

    <!-- Recovery options -->
    <text x="30" y="370" class="heading">What you can do:</text>

    <rect x="30" y="385" width="300" height="44" rx="8" fill="url(#accentGrad)"/>
    <text x="180" y="413" text-anchor="middle" fill="#fff" font-family="system-ui, sans-serif" font-size="14" font-weight="600">Try Again</text>

    <rect x="30" y="440" width="300" height="44" rx="8" fill="#334155" stroke="#475569" stroke-width="1"/>
    <text x="180" y="468" text-anchor="middle" class="text-md">Sign in with Google instead</text>

    <rect x="30" y="495" width="300" height="44" rx="8" fill="#334155" stroke="#475569" stroke-width="1"/>
    <text x="180" y="523" text-anchor="middle" class="text-md">Use Email &amp; Password</text>

    <!-- Help link -->
    <text x="180" y="570" text-anchor="middle" fill="#8b5cf6" font-family="system-ui, sans-serif" font-size="12">Contact Support</text>

    <!-- CSRF hidden token indicator -->
    <rect x="30" y="600" width="300" height="65" rx="8" fill="#334155"/>
    <text x="50" y="625" class="text-sm">🔒 Security Active</text>
    <text x="50" y="645" class="text-muted">CSRF token: ●●●●●●●● (FR-013)</text>
    <text x="50" y="660" class="text-muted">Session verified (FR-006)</text>
  </g>

  <!-- Annotations -->
  <g id="annotations">
    <rect x="40" y="610" width="200" height="60" rx="4" fill="#1e293b" stroke="#8b5cf6" stroke-width="1"/>
    <text x="140" y="635" text-anchor="middle" class="annotation">User Story 8</text>
    <text x="140" y="650" text-anchor="middle" class="text-muted">Password strength feedback</text>
    <text x="140" y="665" text-anchor="middle" class="text-muted">Real-time, non-blocking</text>

    <rect x="260" y="610" width="200" height="60" rx="4" fill="#1e293b" stroke="#ef4444" stroke-width="1"/>
    <text x="360" y="635" text-anchor="middle" class="annotation" fill="#ef4444">User Story 3</text>
    <text x="360" y="650" text-anchor="middle" class="text-muted">Brute force prevention</text>
    <text x="360" y="665" text-anchor="middle" class="text-muted">Clear lockout feedback</text>

    <rect x="480" y="610" width="200" height="60" rx="4" fill="#1e293b" stroke="#eab308" stroke-width="1"/>
    <text x="580" y="635" text-anchor="middle" class="annotation" fill="#eab308">User Story 9</text>
    <text x="580" y="650" text-anchor="middle" class="text-muted">Session timeout warning</text>
    <text x="580" y="665" text-anchor="middle" class="text-muted">1 minute before expiry</text>

    <rect x="700" y="610" width="200" height="60" rx="4" fill="#1e293b" stroke="#22c55e" stroke-width="1"/>
    <text x="800" y="635" text-anchor="middle" class="annotation" fill="#22c55e">User Story 10</text>
    <text x="800" y="650" text-anchor="middle" class="text-muted">Error recovery options</text>
    <text x="800" y="665" text-anchor="middle" class="text-muted">Alternative auth methods</text>
  </g>

  <!-- Screen reader note -->
  <rect x="40" y="700" width="860" height="50" rx="8" fill="#334155"/>
  <text x="470" y="725" text-anchor="middle" class="heading">Accessibility: FR-037</text>
  <text x="470" y="745" text-anchor="middle" class="text-sm">All form errors announced to screen readers | Focus management on error | ARIA live regions for dynamic updates</text>
</svg>