<svg xmlns="http://www.w3.org/2000/svg" viewBox="0 0 1400 800" width="1400" height="800">
  <!-- ============================================================
       GENERATED BY: /wireframe skill
       SOURCE: features/foundation/005-security-hardening/spec.md
       DATE: 2025-12-31
       THEME: Light (UX/Frontend)
       DO NOT MANUALLY EDIT - Regenerate with /wireframe command
       ============================================================ -->
  <defs>
    <linearGradient id="bgGrad" x1="0%" y1="0%" x2="100%" y2="100%">
      <stop offset="0%" style="stop-color:#ffffff"/>
      <stop offset="100%" style="stop-color:#f0f4f8"/>
    </linearGradient>
    <linearGradient id="accentGrad" x1="0%" y1="0%" x2="100%" y2="0%">
      <stop offset="0%" style="stop-color:#8b5cf6"/>
      <stop offset="100%" style="stop-color:#d946ef"/>
    </linearGradient>
    <style>
      .heading-lg { fill: #1f2937; font-family: system-ui, sans-serif; font-size: 20px; font-weight: bold; }
      .heading { fill: #1f2937; font-family: system-ui, sans-serif; font-size: 14px; font-weight: bold; }
      .heading-sm { fill: #1f2937; font-family: system-ui, sans-serif; font-size: 12px; font-weight: bold; }
      .text-md { fill: #374151; font-family: system-ui, sans-serif; font-size: 12px; }
      .text-sm { fill: #6b7280; font-family: system-ui, sans-serif; font-size: 10px; }
      .text-muted { fill: #9ca3af; font-family: system-ui, sans-serif; font-size: 10px; }
      .annotation { fill: #8b5cf6; font-family: monospace; font-size: 10px; }
      .label-desktop { fill: #8b5cf6; font-family: monospace; font-size: 11px; font-weight: bold; }
      .label-mobile { fill: #d946ef; font-family: monospace; font-size: 11px; font-weight: bold; }
      .error-text { fill: #ef4444; font-family: system-ui, sans-serif; font-size: 10px; }
      .success-text { fill: #22c55e; font-family: system-ui, sans-serif; font-size: 10px; }
      .warning-text { fill: #eab308; font-family: system-ui, sans-serif; font-size: 10px; }
      .link-text { fill: #8b5cf6; font-family: system-ui, sans-serif; font-size: 11px; }
    </style>
  </defs>

  <!-- Background -->
  <rect width="1400" height="800" fill="url(#bgGrad)"/>

  <!-- Dot grid pattern -->
  <g opacity="0.4">
    <pattern id="dots" width="30" height="30" patternUnits="userSpaceOnUse">
      <circle cx="15" cy="15" r="1" fill="#a5b4fc"/>
    </pattern>
    <rect width="1400" height="800" fill="url(#dots)"/>
  </g>

  <!-- Accent line top -->
  <rect x="0" y="0" width="1400" height="3" fill="url(#accentGrad)"/>

  <!-- Title -->
  <text x="700" y="28" text-anchor="middle" font-family="system-ui, sans-serif" font-size="14" font-weight="600" fill="#9ca3af" letter-spacing="1">SECURITY UX STATES</text>

  <!-- DESKTOP SECTION -->
  <text x="40" y="52" class="label-desktop">DESKTOP - SECURITY FEEDBACK</text>

  <g id="desktop-view">
    <!-- Password Strength Panel -->
    <rect x="40" y="70" width="300" height="340" rx="8" fill="#ffffff" stroke="#e5e7eb"/>
    <text x="190" y="100" text-anchor="middle" class="heading">Password Strength</text>
    <text x="190" y="120" text-anchor="middle" class="text-muted">Real-time feedback (FR-034)</text>

    <!-- Weak Password -->
    <rect x="60" y="140" width="260" height="55" rx="6" fill="#fef2f2" stroke="#fecaca"/>
    <text x="75" y="160" class="heading-sm">Weak</text>
    <rect x="75" y="170" width="60" height="6" rx="3" fill="#ef4444"/>
    <rect x="140" y="170" width="60" height="6" rx="3" fill="#e5e7eb"/>
    <rect x="205" y="170" width="60" height="6" rx="3" fill="#e5e7eb"/>
    <text x="280" y="175" class="error-text">✗</text>
    <text x="75" y="188" class="error-text">Add uppercase, number, special char</text>

    <!-- Medium Password -->
    <rect x="60" y="205" width="260" height="55" rx="6" fill="#fffbeb" stroke="#fef08a"/>
    <text x="75" y="225" class="heading-sm">Medium</text>
    <rect x="75" y="235" width="60" height="6" rx="3" fill="#eab308"/>
    <rect x="140" y="235" width="60" height="6" rx="3" fill="#eab308"/>
    <rect x="205" y="235" width="60" height="6" rx="3" fill="#e5e7eb"/>
    <text x="280" y="240" class="warning-text">!</text>
    <text x="75" y="253" class="warning-text">Add special character</text>

    <!-- Strong Password -->
    <rect x="60" y="270" width="260" height="55" rx="6" fill="#f0fdf4" stroke="#86efac"/>
    <text x="75" y="290" class="heading-sm">Strong</text>
    <rect x="75" y="300" width="60" height="6" rx="3" fill="#22c55e"/>
    <rect x="140" y="300" width="60" height="6" rx="3" fill="#22c55e"/>
    <rect x="205" y="300" width="60" height="6" rx="3" fill="#22c55e"/>
    <text x="280" y="305" class="success-text">✓</text>
    <text x="75" y="318" class="success-text">Password meets all requirements</text>

    <!-- Requirements List -->
    <rect x="60" y="335" width="260" height="60" rx="6" fill="#f9fafb"/>
    <text x="75" y="355" class="success-text">✓ 8+ characters</text>
    <text x="165" y="355" class="success-text">✓ Uppercase</text>
    <text x="75" y="375" class="success-text">✓ Number</text>
    <text x="165" y="375" class="success-text">✓ Special char</text>

    <!-- Account Lockout Panel -->
    <rect x="360" y="70" width="300" height="340" rx="8" fill="#ffffff" stroke="#e5e7eb"/>
    <text x="510" y="100" text-anchor="middle" class="heading">Account Lockout</text>
    <text x="510" y="120" text-anchor="middle" class="text-muted">5 attempts / 15 min (FR-012)</text>

    <!-- Attempt Counter -->
    <rect x="380" y="140" width="260" height="70" rx="6" fill="#fffbeb" stroke="#fef08a"/>
    <text x="400" y="165" class="heading-sm">Warning: 2 attempts remaining</text>
    <text x="400" y="185" class="text-sm">3 failed attempts detected</text>
    <rect x="400" y="192" width="180" height="8" rx="4" fill="#e5e7eb"/>
    <rect x="400" y="192" width="108" height="8" rx="4" fill="#eab308"/>

    <!-- Locked Out State -->
    <rect x="380" y="220" width="260" height="90" rx="6" fill="#fef2f2" stroke="#fecaca"/>
    <text x="510" y="245" text-anchor="middle" font-size="24">🔒</text>
    <text x="400" y="270" class="heading-sm" fill="#dc2626">Account Temporarily Locked</text>
    <text x="400" y="290" class="text-sm">Too many failed attempts.</text>
    <text x="400" y="305" class="text-md" fill="#dc2626">Try again in 12:34</text>

    <!-- After Lockout -->
    <rect x="380" y="320" width="260" height="75" rx="6" fill="#f0fdf4" stroke="#86efac"/>
    <text x="510" y="345" text-anchor="middle" font-size="20">✓</text>
    <text x="510" y="370" text-anchor="middle" class="heading-sm" fill="#166534">Lockout Expired</text>
    <text x="510" y="390" text-anchor="middle" class="text-sm">You can try signing in again.</text>

    <!-- Session Timeout Panel -->
    <rect x="680" y="70" width="300" height="340" rx="8" fill="#ffffff" stroke="#e5e7eb"/>
    <text x="830" y="100" text-anchor="middle" class="heading">Session Timeout</text>
    <text x="830" y="120" text-anchor="middle" class="text-muted">Warning before expiry (FR-031)</text>

    <!-- Session Warning Modal -->
    <rect x="700" y="140" width="260" height="130" rx="8" fill="#ffffff" stroke="#eab308" stroke-width="2"/>
    <rect x="700" y="140" width="260" height="35" rx="8" fill="#fffbeb"/>
    <rect x="700" y="167" width="260" height="8" fill="#ffffff"/>
    <text x="830" y="163" text-anchor="middle" class="heading-sm" fill="#92400e">⏱ Session Expiring Soon</text>
    <text x="830" y="195" text-anchor="middle" class="text-md">Your session will expire in</text>
    <text x="830" y="220" text-anchor="middle" font-family="system-ui" font-size="24" font-weight="bold" fill="#eab308">0:58</text>
    <rect x="720" y="235" width="100" height="28" rx="6" fill="#8b5cf6"/>
    <text x="770" y="254" text-anchor="middle" fill="#ffffff" font-size="11" font-weight="bold">Stay Signed In</text>
    <rect x="830" y="235" width="100" height="28" rx="6" fill="#ffffff" stroke="#e5e7eb"/>
    <text x="880" y="254" text-anchor="middle" class="text-md">Sign Out</text>

    <!-- Session Expired -->
    <rect x="700" y="285" width="260" height="110" rx="8" fill="#f9fafb" stroke="#e5e7eb"/>
    <text x="830" y="315" text-anchor="middle" font-size="24">🔓</text>
    <text x="830" y="345" text-anchor="middle" class="heading-sm">Session Expired</text>
    <text x="830" y="365" text-anchor="middle" class="text-sm">Please sign in again to continue.</text>
    <rect x="760" y="375" width="140" height="28" rx="6" fill="#8b5cf6"/>
    <text x="830" y="394" text-anchor="middle" fill="#ffffff" font-size="11" font-weight="bold">Sign In</text>

    <!-- Error Recovery Panel -->
    <rect x="40" y="430" width="450" height="320" rx="8" fill="#ffffff" stroke="#e5e7eb"/>
    <text x="265" y="460" text-anchor="middle" class="heading">Error Recovery Options</text>
    <text x="265" y="480" text-anchor="middle" class="text-muted">Clear messages with recovery paths (FR-036)</text>

    <!-- OAuth Provider Down -->
    <rect x="60" y="500" width="410" height="70" rx="6" fill="#fef2f2" stroke="#fecaca"/>
    <text x="80" y="525" class="heading-sm" fill="#dc2626">⚠ Cannot Connect to GitHub</text>
    <text x="80" y="545" class="text-sm">The authentication provider is temporarily unavailable.</text>
    <rect x="80" y="550" width="100" height="24" rx="6" fill="#ef4444"/>
    <text x="130" y="567" text-anchor="middle" fill="#ffffff" font-size="10" font-weight="bold">Try Again</text>
    <rect x="190" y="550" width="120" height="24" rx="6" fill="#ffffff" stroke="#e5e7eb"/>
    <text x="250" y="567" text-anchor="middle" class="text-sm">Use Email Instead</text>

    <!-- Email Delivery Failed -->
    <rect x="60" y="580" width="410" height="70" rx="6" fill="#fffbeb" stroke="#fef08a"/>
    <text x="80" y="605" class="heading-sm" fill="#92400e">📧 Email Delivery Failed</text>
    <text x="80" y="625" class="text-sm">We couldn't send your verification email.</text>
    <rect x="80" y="630" width="120" height="24" rx="6" fill="#eab308"/>
    <text x="140" y="647" text-anchor="middle" fill="#ffffff" font-size="10" font-weight="bold">Resend Email</text>
    <text x="220" y="647" class="text-muted">Check spam folder</text>

    <!-- Payment Status Update Failed -->
    <rect x="60" y="660" width="410" height="70" rx="6" fill="#eff6ff" stroke="#bfdbfe"/>
    <text x="80" y="685" class="heading-sm" fill="#1d4ed8">💳 Payment Status Updating</text>
    <text x="80" y="705" class="text-sm">We're retrying to update your payment status.</text>
    <rect x="80" y="710" width="12" height="12" rx="2" fill="#3b82f6">
      <animate attributeName="opacity" values="1;0.3;1" dur="1s" repeatCount="indefinite"/>
    </rect>
    <text x="100" y="720" class="text-sm" fill="#3b82f6">Retry 2 of 3...</text>

    <!-- Email Validation Panel -->
    <rect x="510" y="430" width="470" height="320" rx="8" fill="#ffffff" stroke="#e5e7eb"/>
    <text x="745" y="460" text-anchor="middle" class="heading">Email Validation</text>
    <text x="745" y="480" text-anchor="middle" class="text-muted">Format checks &amp; warnings (FR-021..024)</text>

    <!-- Valid Email -->
    <rect x="530" y="500" width="430" height="50" rx="6" fill="#f0fdf4" stroke="#86efac"/>
    <text x="550" y="520" class="heading-sm">Email</text>
    <rect x="550" y="528" width="300" height="16" rx="3" fill="#dcfce7"/>
    <text x="560" y="540" class="text-sm">john.doe@company.com</text>
    <text x="920" y="530" class="success-text">✓ Valid</text>

    <!-- Invalid Format -->
    <rect x="530" y="560" width="430" height="50" rx="6" fill="#fef2f2" stroke="#fecaca"/>
    <text x="550" y="580" class="heading-sm">Email</text>
    <rect x="550" y="588" width="300" height="16" rx="3" fill="#fecaca"/>
    <text x="560" y="600" class="text-sm">john..doe@company</text>
    <text x="920" y="590" class="error-text">✗ Invalid</text>

    <!-- Disposable Warning -->
    <rect x="530" y="620" width="430" height="65" rx="6" fill="#fffbeb" stroke="#fef08a"/>
    <text x="550" y="640" class="heading-sm">Email</text>
    <rect x="550" y="648" width="300" height="16" rx="3" fill="#fef9c3"/>
    <text x="560" y="660" class="text-sm">user@tempmail.com</text>
    <text x="920" y="650" class="warning-text">⚠ Warning</text>
    <text x="550" y="680" class="warning-text">Disposable email detected - you may not receive account emails</text>

    <!-- Screen Reader Announcement -->
    <rect x="530" y="695" width="430" height="40" rx="6" fill="#f3f4f6"/>
    <text x="550" y="720" class="text-sm">🔊 "Error: Invalid email format. Please check for consecutive dots or missing domain."</text>
  </g>

  <!-- MOBILE SECTION -->
  <text x="1020" y="52" class="label-mobile">MOBILE</text>

  <g id="mobile-view" transform="translate(1020, 60)">
    <!-- Phone frame -->
    <rect x="0" y="0" width="340" height="690" rx="24" fill="#ffffff" stroke="#e5e7eb" stroke-width="2"/>
    <rect x="10" y="10" width="320" height="670" rx="16" fill="#f3f4f6"/>

    <!-- Status bar -->
    <rect x="10" y="10" width="320" height="28" rx="16" fill="#ffffff"/>
    <text x="30" y="28" class="text-sm">9:41</text>

    <!-- Header -->
    <rect x="10" y="38" width="320" height="50" fill="#ffffff"/>
    <text x="170" y="68" text-anchor="middle" class="heading">Security</text>

    <!-- Session Warning Toast (Mobile) -->
    <rect x="25" y="100" width="290" height="60" rx="8" fill="#fffbeb" stroke="#eab308" stroke-width="2"/>
    <text x="40" y="125" class="heading-sm" fill="#92400e">⏱ Session expires in 0:58</text>
    <rect x="40" y="135" width="80" height="20" rx="4" fill="#eab308"/>
    <text x="80" y="149" text-anchor="middle" fill="#ffffff" font-size="9" font-weight="bold">Extend</text>
    <rect x="130" y="135" width="60" height="20" rx="4" fill="#ffffff" stroke="#e5e7eb"/>
    <text x="160" y="149" text-anchor="middle" class="text-sm">Dismiss</text>

    <!-- Password Strength (Mobile) -->
    <rect x="25" y="175" width="290" height="100" rx="8" fill="#ffffff"/>
    <text x="40" y="200" class="heading-sm">Password</text>
    <rect x="40" y="210" width="260" height="36" rx="6" fill="#f9fafb" stroke="#22c55e" stroke-width="2"/>
    <text x="55" y="233" class="text-muted">••••••••••••</text>

    <!-- Strength Bar -->
    <rect x="40" y="255" width="80" height="6" rx="3" fill="#22c55e"/>
    <rect x="125" y="255" width="80" height="6" rx="3" fill="#22c55e"/>
    <rect x="210" y="255" width="90" height="6" rx="3" fill="#22c55e"/>
    <text x="40" y="275" class="success-text">Strong password ✓</text>

    <!-- Lockout Alert (Mobile) -->
    <rect x="25" y="295" width="290" height="80" rx="8" fill="#fef2f2" stroke="#fecaca"/>
    <text x="170" y="325" text-anchor="middle" font-size="20">🔒</text>
    <text x="170" y="350" text-anchor="middle" class="heading-sm" fill="#dc2626">Account Locked</text>
    <text x="170" y="370" text-anchor="middle" class="text-sm">Try again in 12:34</text>

    <!-- Error Recovery (Mobile) -->
    <rect x="25" y="390" width="290" height="85" rx="8" fill="#ffffff"/>
    <text x="40" y="415" class="heading-sm" fill="#dc2626">⚠ Cannot Connect</text>
    <text x="40" y="435" class="text-sm">GitHub is temporarily unavailable.</text>
    <rect x="40" y="445" width="80" height="24" rx="6" fill="#ef4444"/>
    <text x="80" y="462" text-anchor="middle" fill="#ffffff" font-size="10" font-weight="bold">Retry</text>
    <rect x="130" y="445" width="100" height="24" rx="6" fill="#ffffff" stroke="#e5e7eb"/>
    <text x="180" y="462" text-anchor="middle" class="text-sm">Use Email</text>

    <!-- Email Validation (Mobile) -->
    <rect x="25" y="490" width="290" height="80" rx="8" fill="#ffffff"/>
    <text x="40" y="515" class="heading-sm">Email</text>
    <rect x="40" y="525" width="260" height="32" rx="6" fill="#fef9c3" stroke="#fef08a"/>
    <text x="55" y="546" class="text-sm">user@tempmail.com</text>
    <text x="40" y="570" class="warning-text">⚠ Disposable email - proceed with caution</text>

    <!-- Accessibility Note -->
    <rect x="25" y="585" width="290" height="45" rx="8" fill="#f9fafb"/>
    <text x="40" y="608" class="text-muted">🔊 Screen reader: Errors announced</text>
    <text x="40" y="625" class="text-muted">via ARIA live regions (FR-037)</text>

    <!-- Bottom nav hint -->
    <rect x="130" y="665" width="80" height="5" rx="2" fill="#9ca3af"/>
  </g>

  <!-- Annotations -->
  <g id="annotations">
    <rect x="40" y="765" width="130" height="22" rx="4" fill="#ffffff" stroke="#8b5cf6"/>
    <text x="105" y="780" text-anchor="middle" class="annotation">FR-034, FR-035</text>

    <rect x="190" y="765" width="150" height="22" rx="4" fill="#ffffff" stroke="#8b5cf6"/>
    <text x="265" y="780" text-anchor="middle" class="annotation">FR-010..012: Lockout</text>

    <rect x="360" y="765" width="150" height="22" rx="4" fill="#ffffff" stroke="#8b5cf6"/>
    <text x="435" y="780" text-anchor="middle" class="annotation">FR-029..033: Session</text>

    <rect x="530" y="765" width="140" height="22" rx="4" fill="#ffffff" stroke="#8b5cf6"/>
    <text x="600" y="780" text-anchor="middle" class="annotation">FR-036: Recovery</text>
  </g>
</svg>