<?xml version="1.0" encoding="UTF-8"?>
<svg xmlns="http://www.w3.org/2000/svg" xmlns:xlink="http://www.w3.org/1999/xlink"
     viewBox="0 0 1920 1080" width="1920" height="1080">
  <defs>
    <linearGradient id="bg" x1="0%" y1="0%" x2="0%" y2="100%">
      <stop offset="0%" stop-color="#c7ddf5"/>
      <stop offset="100%" stop-color="#b8d4f0"/>
    </linearGradient>
  </defs>

  <!-- Background -->
  <rect width="1920" height="1080" fill="url(#bg)"/>

  <!-- CENTERED TITLE text-anchor="middle" -->
  <text text-anchor="middle" x="960" y="28" font-family="system-ui, sans-serif"
        font-size="18" font-weight="700" fill="#4b5563" letter-spacing="1">SECURITY HARDENING - ADMIN SECURITY DASHBOARD</text>

  <!-- Section labels -->
  <text x="40" y="52" fill="#8b5cf6" font-family="system-ui, sans-serif"
        font-size="18" font-weight="bold">DESKTOP (16:9)</text>
  <text x="1500" y="52" fill="#d946ef" font-family="system-ui, sans-serif"
        font-size="15" font-weight="bold">MOBILE</text>

  <!-- DESKTOP (1280x720) -->
  <g id="desktop" transform="translate(40, 60)">
    <rect width="1280" height="720" rx="8" fill="#e8d4b8" stroke="#b8a080"/>
    <use href="includes/header-desktop.svg#desktop-header" x="0" y="0"/>

    <!-- Page Title -->
    <text x="100" y="85" font-family="system-ui, sans-serif" font-size="24" font-weight="bold" fill="#374151">Security Dashboard</text>
    <text x="100" y="110" font-family="system-ui, sans-serif" font-size="14" fill="#4b5563">Admin view - Security monitoring and audit logs</text>

    <!-- Status Cards Row -->
    <!-- Secret Detection Status -->
    <rect x="100" y="130" width="280" height="100" rx="8" fill="#dcc8a8" stroke="#b8a080"/>
    <text x="120" y="160" font-family="system-ui, sans-serif" font-size="16" font-weight="600" fill="#374151">Secret Detection</text>
    <circle cx="130" cy="190" r="10" fill="#22c55e"/>
    <text x="150" y="195" font-family="system-ui, sans-serif" font-size="14" fill="#22c55e">Active - No secrets found</text>
    <text x="120" y="215" font-family="system-ui, sans-serif" font-size="14" fill="#4b5563">Last scan: 2 min ago</text>

    <!-- Input Validation Status -->
    <rect x="400" y="130" width="280" height="100" rx="8" fill="#dcc8a8" stroke="#b8a080"/>
    <text x="420" y="160" font-family="system-ui, sans-serif" font-size="16" font-weight="600" fill="#374151">Input Validation</text>
    <circle cx="430" cy="190" r="10" fill="#22c55e"/>
    <text x="450" y="195" font-family="system-ui, sans-serif" font-size="14" fill="#22c55e">All checks passing</text>
    <text x="420" y="215" font-family="system-ui, sans-serif" font-size="14" fill="#4b5563">3 blocked today</text>

    <!-- Background Jobs Status -->
    <rect x="700" y="130" width="280" height="100" rx="8" fill="#dcc8a8" stroke="#b8a080"/>
    <text x="720" y="160" font-family="system-ui, sans-serif" font-size="16" font-weight="600" fill="#374151">Background Jobs</text>
    <circle cx="730" cy="190" r="10" fill="#f59e0b"/>
    <text x="750" y="195" font-family="system-ui, sans-serif" font-size="14" fill="#f59e0b">1 job retrying</text>
    <text x="720" y="215" font-family="system-ui, sans-serif" font-size="14" fill="#4b5563">Attempt 2/3</text>

    <!-- Audit Retention -->
    <rect x="1000" y="130" width="180" height="100" rx="8" fill="#dcc8a8" stroke="#b8a080"/>
    <text x="1020" y="160" font-family="system-ui, sans-serif" font-size="16" font-weight="600" fill="#374151">Audit Retention</text>
    <text x="1020" y="190" font-family="system-ui, sans-serif" font-size="28" font-weight="bold" fill="#374151">90+</text>
    <text x="1060" y="190" font-family="system-ui, sans-serif" font-size="14" fill="#4b5563">days</text>
    <text x="1020" y="215" font-family="system-ui, sans-serif" font-size="14" fill="#22c55e">Compliant</text>

    <!-- Audit Log Section -->
    <text x="100" y="265" font-family="system-ui, sans-serif" font-size="18" font-weight="600" fill="#374151">Security Audit Log</text>

    <!-- Filter Row -->
    <rect x="100" y="280" width="1080" height="40" rx="4" fill="#dcc8a8" stroke="#b8a080"/>
    <text x="120" y="305" font-family="system-ui, sans-serif" font-size="14" fill="#374151">Filter:</text>
    <rect x="170" y="288" width="150" height="26" rx="4" fill="#f5f0e6" stroke="#b8a080"/>
    <text x="180" y="306" font-family="system-ui, sans-serif" font-size="14" fill="#6b7280">All Events</text>
    <rect x="340" y="288" width="150" height="26" rx="4" fill="#f5f0e6" stroke="#b8a080"/>
    <text x="350" y="306" font-family="system-ui, sans-serif" font-size="14" fill="#6b7280">Last 24 hours</text>
    <rect x="510" y="288" width="120" height="26" rx="4" fill="#8b5cf6"/>
    <text x="545" y="306" font-family="system-ui, sans-serif" font-size="14" font-weight="600" fill="#ffffff" text-anchor="middle">Search</text>

    <!-- Table Header -->
    <rect x="100" y="330" width="1080" height="35" rx="0" fill="#b8a080"/>
    <text x="120" y="353" font-family="system-ui, sans-serif" font-size="14" font-weight="600" fill="#374151">Timestamp</text>
    <text x="280" y="353" font-family="system-ui, sans-serif" font-size="14" font-weight="600" fill="#374151">Event Type</text>
    <text x="450" y="353" font-family="system-ui, sans-serif" font-size="14" font-weight="600" fill="#374151">User</text>
    <text x="620" y="353" font-family="system-ui, sans-serif" font-size="14" font-weight="600" fill="#374151">IP Address</text>
    <text x="800" y="353" font-family="system-ui, sans-serif" font-size="14" font-weight="600" fill="#374151">Details</text>

    <!-- Table Rows -->
    <rect x="100" y="365" width="1080" height="35" fill="#f5f0e6"/>
    <text x="120" y="388" font-family="system-ui, sans-serif" font-size="14" fill="#374151">2024-01-15 14:32:15</text>
    <text x="280" y="388" font-family="system-ui, sans-serif" font-size="14" fill="#22c55e">Sign In</text>
    <text x="450" y="388" font-family="system-ui, sans-serif" font-size="14" fill="#374151">user@example.com</text>
    <text x="620" y="388" font-family="system-ui, sans-serif" font-size="14" fill="#374151">192.168.1.100</text>
    <text x="800" y="388" font-family="system-ui, sans-serif" font-size="14" fill="#374151">Successful authentication</text>

    <rect x="100" y="400" width="1080" height="35" fill="#e8d4b8"/>
    <text x="120" y="423" font-family="system-ui, sans-serif" font-size="14" fill="#374151">2024-01-15 14:30:45</text>
    <text x="280" y="423" font-family="system-ui, sans-serif" font-size="14" fill="#dc2626">Failed Login</text>
    <text x="450" y="423" font-family="system-ui, sans-serif" font-size="14" fill="#374151">admin@example.com</text>
    <text x="620" y="423" font-family="system-ui, sans-serif" font-size="14" fill="#374151">203.0.113.50</text>
    <text x="800" y="423" font-family="system-ui, sans-serif" font-size="14" fill="#374151">Invalid credentials (attempt 3/5)</text>

    <rect x="100" y="435" width="1080" height="35" fill="#f5f0e6"/>
    <text x="120" y="458" font-family="system-ui, sans-serif" font-size="14" fill="#374151">2024-01-15 14:25:00</text>
    <text x="280" y="458" font-family="system-ui, sans-serif" font-size="14" fill="#6b7280">Sign Out</text>
    <text x="450" y="458" font-family="system-ui, sans-serif" font-size="14" fill="#374151">user2@example.com</text>
    <text x="620" y="458" font-family="system-ui, sans-serif" font-size="14" fill="#374151">10.0.0.25</text>
    <text x="800" y="458" font-family="system-ui, sans-serif" font-size="14" fill="#374151">Session terminated</text>

    <rect x="100" y="470" width="1080" height="35" fill="#e8d4b8"/>
    <text x="120" y="493" font-family="system-ui, sans-serif" font-size="14" fill="#374151">2024-01-15 14:20:12</text>
    <text x="280" y="493" font-family="system-ui, sans-serif" font-size="14" fill="#f59e0b">Password Change</text>
    <text x="450" y="493" font-family="system-ui, sans-serif" font-size="14" fill="#374151">manager@example.com</text>
    <text x="620" y="493" font-family="system-ui, sans-serif" font-size="14" fill="#374151">172.16.0.10</text>
    <text x="800" y="493" font-family="system-ui, sans-serif" font-size="14" fill="#374151">Password updated successfully</text>

    <!-- Pagination -->
    <text x="100" y="535" font-family="system-ui, sans-serif" font-size="14" fill="#4b5563">Showing 1-4 of 1,247 events</text>
    <rect x="1040" y="515" width="60" height="30" rx="4" fill="#8b5cf6"/>
    <text x="1070" y="535" font-family="system-ui, sans-serif" font-size="14" font-weight="600" fill="#ffffff" text-anchor="middle">Next</text>
    <rect x="1110" y="515" width="70" height="30" rx="4" fill="#dcc8a8" stroke="#b8a080"/>
    <text x="1145" y="535" font-family="system-ui, sans-serif" font-size="14" fill="#374151" text-anchor="middle">Export</text>

    <use href="includes/footer-desktop.svg#site-footer" x="0" y="640"/>
  </g>

  <!--
    ============================================================================
    ============================================================================
    DESKTOP CALLOUTS SECTION
    ============================================================================
    Positioned to indicate UI elements corresponding to annotation groups.
    ============================================================================
    ============================================================================
  -->

  <!-- Desktop callouts -->
  <g id="desktop-callouts" transform="translate(40, 60)">
    <circle cx="1200" cy="265" r="14" fill="#dc2626"/>
    <text x="1200" y="270" font-family="system-ui, sans-serif" font-size="14" font-weight="bold" fill="#ffffff" text-anchor="middle">1</text>

    <circle cx="395" cy="175" r="14" fill="#dc2626"/>
    <text x="395" y="180" font-family="system-ui, sans-serif" font-size="14" font-weight="bold" fill="#ffffff" text-anchor="middle">2</text>

    <circle cx="695" cy="175" r="14" fill="#dc2626"/>
    <text x="695" y="180" font-family="system-ui, sans-serif" font-size="14" font-weight="bold" fill="#ffffff" text-anchor="middle">3</text>

    <circle cx="995" cy="175" r="14" fill="#dc2626"/>
    <text x="995" y="180" font-family="system-ui, sans-serif" font-size="14" font-weight="bold" fill="#ffffff" text-anchor="middle">4</text>
  </g>

  <!-- MOBILE (360x720) -->
  <g id="mobile" transform="translate(1360, 60)">
    <rect width="360" height="720" rx="24" fill="#e8d4b8" stroke="#b8a080"/>
    <use href="includes/header-mobile.svg#mobile-header-group" x="0" y="0"/>

    <!-- Page Title -->
    <text x="20" y="105" font-family="system-ui, sans-serif" font-size="18" font-weight="bold" fill="#374151">Security Dashboard</text>

    <!-- Status Cards - Compact -->
    <rect x="15" y="120" width="160" height="70" rx="6" fill="#dcc8a8" stroke="#b8a080"/>
    <text x="25" y="145" font-family="system-ui, sans-serif" font-size="14" font-weight="600" fill="#374151">Secret Detection</text>
    <circle cx="25" cy="170" r="8" fill="#22c55e"/>
    <text x="40" y="175" font-family="system-ui, sans-serif" font-size="14" fill="#22c55e">Active</text>

    <rect x="185" y="120" width="160" height="70" rx="6" fill="#dcc8a8" stroke="#b8a080"/>
    <text x="195" y="145" font-family="system-ui, sans-serif" font-size="14" font-weight="600" fill="#374151">Input Validation</text>
    <circle cx="195" cy="170" r="8" fill="#22c55e"/>
    <text x="210" y="175" font-family="system-ui, sans-serif" font-size="14" fill="#22c55e">Passing</text>

    <rect x="15" y="200" width="160" height="70" rx="6" fill="#dcc8a8" stroke="#b8a080"/>
    <text x="25" y="225" font-family="system-ui, sans-serif" font-size="14" font-weight="600" fill="#374151">Background Jobs</text>
    <circle cx="25" cy="250" r="8" fill="#f59e0b"/>
    <text x="40" y="255" font-family="system-ui, sans-serif" font-size="14" fill="#f59e0b">1 retrying</text>

    <rect x="185" y="200" width="160" height="70" rx="6" fill="#dcc8a8" stroke="#b8a080"/>
    <text x="195" y="225" font-family="system-ui, sans-serif" font-size="14" font-weight="600" fill="#374151">Audit Retention</text>
    <text x="195" y="255" font-family="system-ui, sans-serif" font-size="18" font-weight="bold" fill="#22c55e">90+ days</text>

    <!-- Audit Log Title -->
    <text x="20" y="305" font-family="system-ui, sans-serif" font-size="16" font-weight="600" fill="#374151">Recent Events</text>

    <!-- Simplified Log Entries -->
    <rect x="15" y="320" width="330" height="60" rx="6" fill="#f5f0e6" stroke="#b8a080"/>
    <text x="25" y="345" font-family="system-ui, sans-serif" font-size="14" font-weight="600" fill="#22c55e">Sign In</text>
    <text x="100" y="345" font-family="system-ui, sans-serif" font-size="14" fill="#374151">user@example.com</text>
    <text x="25" y="365" font-family="system-ui, sans-serif" font-size="14" fill="#4b5563">14:32 - 192.168.1.100</text>

    <rect x="15" y="390" width="330" height="60" rx="6" fill="#fef2f2" stroke="#dc2626"/>
    <text x="25" y="415" font-family="system-ui, sans-serif" font-size="14" font-weight="600" fill="#dc2626">Failed Login</text>
    <text x="120" y="415" font-family="system-ui, sans-serif" font-size="14" fill="#374151">admin@example.com</text>
    <text x="25" y="435" font-family="system-ui, sans-serif" font-size="14" fill="#4b5563">14:30 - Attempt 3/5</text>

    <rect x="15" y="460" width="330" height="60" rx="6" fill="#f5f0e6" stroke="#b8a080"/>
    <text x="25" y="485" font-family="system-ui, sans-serif" font-size="14" font-weight="600" fill="#6b7280">Sign Out</text>
    <text x="100" y="485" font-family="system-ui, sans-serif" font-size="14" fill="#374151">user2@example.com</text>
    <text x="25" y="505" font-family="system-ui, sans-serif" font-size="14" fill="#4b5563">14:25 - Session ended</text>

    <!-- View All button -->
    <rect x="100" y="540" width="160" height="40" rx="8" fill="#8b5cf6"/>
    <text x="180" y="565" font-family="system-ui, sans-serif" font-size="14" font-weight="600" fill="#ffffff" text-anchor="middle">View All Events</text>

    <use href="includes/footer-mobile.svg#mobile-bottom-nav" x="0" y="664"/>
  </g>

  <!--
    ============================================================================
    ============================================================================
    MOBILE CALLOUTS SECTION
    ============================================================================
  -->

  <!-- Mobile callouts -->
  <g id="mobile-callouts" transform="translate(1680, 60)">
    <circle cx="0" cy="150" r="12" fill="#dc2626"/>
    <text x="0" y="154" font-family="system-ui, sans-serif" font-size="14" font-weight="bold" fill="#ffffff" text-anchor="middle">2</text>

    <circle cx="0" cy="235" r="12" fill="#dc2626"/>
    <text x="0" y="239" font-family="system-ui, sans-serif" font-size="14" font-weight="bold" fill="#ffffff" text-anchor="middle">4</text>

    <circle cx="0" cy="360" r="12" fill="#dc2626"/>
    <text x="0" y="364" font-family="system-ui, sans-serif" font-size="14" font-weight="bold" fill="#ffffff" text-anchor="middle">1</text>
  </g>

  <!-- ANNOTATIONS -->
  <g id="annotations" transform="translate(40, 800)">
    <rect width="1840" height="220" rx="8" fill="#dcc8a8" stroke="#b8a080"/>

    <!-- Column 1: Security Audit Trail -->
    <g transform="translate(20, 20)">
      <circle cx="14" cy="14" r="14" fill="#dc2626"/>
      <text x="14" y="19" fill="#ffffff" font-size="14" font-weight="bold" text-anchor="middle">1</text>
      <text x="40" y="18" fill="#374151" font-family="system-ui, sans-serif" font-size="16" font-weight="bold">Security Audit Trail</text>
      <text x="40" y="40" fill="#4b5563" font-family="system-ui, sans-serif" font-size="14">As a security admin, I need all auth events</text>
      <text x="40" y="58" fill="#4b5563" font-family="system-ui, sans-serif" font-size="14">logged for investigation and compliance.</text>
      <g transform="translate(40, 70)">
        <a href="#US-006"><rect x="0" y="0" width="55" height="22" rx="4" fill="#0891b2"/><text x="27" y="15" fill="#ffffff" font-size="14" text-anchor="middle">US-006</text></a>
        <a href="#FR-025"><rect x="61" y="0" width="55" height="22" rx="4" fill="#2563eb"/><text x="88" y="15" fill="#ffffff" font-size="14" text-anchor="middle">FR-025</text></a>
        <a href="#FR-026"><rect x="122" y="0" width="55" height="22" rx="4" fill="#2563eb"/><text x="149" y="15" fill="#ffffff" font-size="14" text-anchor="middle">FR-026</text></a>
        <a href="#FR-027"><rect x="183" y="0" width="55" height="22" rx="4" fill="#2563eb"/><text x="210" y="15" fill="#ffffff" font-size="14" text-anchor="middle">FR-027</text></a>
      </g>
      <g transform="translate(40, 98)">
        <a href="#FR-028"><rect x="0" y="0" width="55" height="22" rx="4" fill="#2563eb"/><text x="27" y="15" fill="#ffffff" font-size="14" text-anchor="middle">FR-028</text></a>
        <a href="#SC-005"><rect x="61" y="0" width="55" height="22" rx="4" fill="#ea580c"/><text x="88" y="15" fill="#ffffff" font-size="14" text-anchor="middle">SC-005</text></a>
        <a href="#SC-006"><rect x="122" y="0" width="55" height="22" rx="4" fill="#ea580c"/><text x="149" y="15" fill="#ffffff" font-size="14" text-anchor="middle">SC-006</text></a>
      </g>
    </g>

    <!-- Column 2: Pre-commit Secret Detection -->
    <g transform="translate(470, 20)">
      <circle cx="14" cy="14" r="14" fill="#dc2626"/>
      <text x="14" y="19" fill="#ffffff" font-size="14" font-weight="bold" text-anchor="middle">2</text>
      <text x="40" y="18" fill="#374151" font-family="system-ui, sans-serif" font-size="16" font-weight="bold">Pre-commit Secret Detection</text>
      <text x="40" y="40" fill="#4b5563" font-family="system-ui, sans-serif" font-size="14">As a developer, I need commits scanned for</text>
      <text x="40" y="58" fill="#4b5563" font-family="system-ui, sans-serif" font-size="14">secrets to prevent credential exposure.</text>
      <g transform="translate(40, 70)">
        <a href="#US-011"><rect x="0" y="0" width="55" height="22" rx="4" fill="#0891b2"/><text x="27" y="15" fill="#ffffff" font-size="14" text-anchor="middle">US-011</text></a>
        <a href="#FR-042"><rect x="61" y="0" width="55" height="22" rx="4" fill="#2563eb"/><text x="88" y="15" fill="#ffffff" font-size="14" text-anchor="middle">FR-042</text></a>
        <a href="#FR-043"><rect x="122" y="0" width="55" height="22" rx="4" fill="#2563eb"/><text x="149" y="15" fill="#ffffff" font-size="14" text-anchor="middle">FR-043</text></a>
        <a href="#FR-044"><rect x="183" y="0" width="55" height="22" rx="4" fill="#2563eb"/><text x="210" y="15" fill="#ffffff" font-size="14" text-anchor="middle">FR-044</text></a>
      </g>
      <g transform="translate(40, 98)">
        <a href="#FR-045"><rect x="0" y="0" width="55" height="22" rx="4" fill="#2563eb"/><text x="27" y="15" fill="#ffffff" font-size="14" text-anchor="middle">FR-045</text></a>
        <a href="#FR-046"><rect x="61" y="0" width="55" height="22" rx="4" fill="#2563eb"/><text x="88" y="15" fill="#ffffff" font-size="14" text-anchor="middle">FR-046</text></a>
        <a href="#FR-047"><rect x="122" y="0" width="55" height="22" rx="4" fill="#2563eb"/><text x="149" y="15" fill="#ffffff" font-size="14" text-anchor="middle">FR-047</text></a>
        <a href="#SC-011"><rect x="183" y="0" width="55" height="22" rx="4" fill="#ea580c"/><text x="210" y="15" fill="#ffffff" font-size="14" text-anchor="middle">SC-011</text></a>
      </g>
    </g>

    <!-- Column 3: Malicious Data Prevention -->
    <g transform="translate(920, 20)">
      <circle cx="14" cy="14" r="14" fill="#dc2626"/>
      <text x="14" y="19" fill="#ffffff" font-size="14" font-weight="bold" text-anchor="middle">3</text>
      <text x="40" y="18" fill="#374151" font-family="system-ui, sans-serif" font-size="16" font-weight="bold">Malicious Data Prevention</text>
      <text x="40" y="40" fill="#4b5563" font-family="system-ui, sans-serif" font-size="14">As a system operator, I need user data</text>
      <text x="40" y="58" fill="#4b5563" font-family="system-ui, sans-serif" font-size="14">validated against injection attacks.</text>
      <g transform="translate(40, 70)">
        <a href="#US-005"><rect x="0" y="0" width="55" height="22" rx="4" fill="#0891b2"/><text x="27" y="15" fill="#ffffff" font-size="14" text-anchor="middle">US-005</text></a>
        <a href="#FR-017"><rect x="61" y="0" width="55" height="22" rx="4" fill="#2563eb"/><text x="88" y="15" fill="#ffffff" font-size="14" text-anchor="middle">FR-017</text></a>
        <a href="#FR-018"><rect x="122" y="0" width="55" height="22" rx="4" fill="#2563eb"/><text x="149" y="15" fill="#ffffff" font-size="14" text-anchor="middle">FR-018</text></a>
        <a href="#FR-019"><rect x="183" y="0" width="55" height="22" rx="4" fill="#2563eb"/><text x="210" y="15" fill="#ffffff" font-size="14" text-anchor="middle">FR-019</text></a>
      </g>
      <g transform="translate(40, 98)">
        <a href="#FR-020"><rect x="0" y="0" width="55" height="22" rx="4" fill="#2563eb"/><text x="27" y="15" fill="#ffffff" font-size="14" text-anchor="middle">FR-020</text></a>
      </g>
    </g>

    <!-- Column 4: Background Process Monitoring -->
    <g transform="translate(1370, 20)">
      <circle cx="14" cy="14" r="14" fill="#dc2626"/>
      <text x="14" y="19" fill="#ffffff" font-size="14" font-weight="bold" text-anchor="middle">4</text>
      <text x="40" y="18" fill="#374151" font-family="system-ui, sans-serif" font-size="16" font-weight="bold">Background Process Monitoring</text>
      <text x="40" y="40" fill="#4b5563" font-family="system-ui, sans-serif" font-size="14">Retry failed processes with admin alerts</text>
      <text x="40" y="58" fill="#4b5563" font-family="system-ui, sans-serif" font-size="14">and idempotent cleanup.</text>
      <g transform="translate(40, 70)">
        <a href="#US-010"><rect x="0" y="0" width="55" height="22" rx="4" fill="#0891b2"/><text x="27" y="15" fill="#ffffff" font-size="14" text-anchor="middle">US-010</text></a>
        <a href="#FR-038"><rect x="61" y="0" width="55" height="22" rx="4" fill="#2563eb"/><text x="88" y="15" fill="#ffffff" font-size="14" text-anchor="middle">FR-038</text></a>
        <a href="#FR-039"><rect x="122" y="0" width="55" height="22" rx="4" fill="#2563eb"/><text x="149" y="15" fill="#ffffff" font-size="14" text-anchor="middle">FR-039</text></a>
        <a href="#FR-040"><rect x="183" y="0" width="55" height="22" rx="4" fill="#2563eb"/><text x="210" y="15" fill="#ffffff" font-size="14" text-anchor="middle">FR-040</text></a>
      </g>
      <g transform="translate(40, 98)">
        <a href="#FR-041"><rect x="0" y="0" width="55" height="22" rx="4" fill="#2563eb"/><text x="27" y="15" fill="#ffffff" font-size="14" text-anchor="middle">FR-041</text></a>
        <a href="#SC-008"><rect x="61" y="0" width="55" height="22" rx="4" fill="#ea580c"/><text x="88" y="15" fill="#ffffff" font-size="14" text-anchor="middle">SC-008</text></a>
      </g>
    </g>
  </g>

  <!-- SIGNATURE -->
  <text x="40" y="1060" fill="#374151" font-family="system-ui, sans-serif"
        font-size="18" font-weight="bold">005:03 | Security Hardening | ScriptHammer</text>
</svg>
