<svg xmlns="http://www.w3.org/2000/svg" viewBox="0 0 1400 800" width="1400" height="800">
  <!-- ============================================================
       GENERATED BY: /wireframe skill
       SOURCE: features/testing/033-seo-library-tests/spec.md
       DATE: 2026-01-01
       THEME: Dark (Backend/Architecture)
       DO NOT MANUALLY EDIT - Regenerate with /wireframe command
       ============================================================ -->
  <defs>
    <linearGradient id="bgGrad" x1="0%" y1="0%" x2="100%" y2="100%">
      <stop offset="0%" style="stop-color:#0f172a"/>
      <stop offset="100%" style="stop-color:#1e293b"/>
    </linearGradient>
    <linearGradient id="accentGrad" x1="0%" y1="0%" x2="100%" y2="0%">
      <stop offset="0%" style="stop-color:#8b5cf6"/>
      <stop offset="100%" style="stop-color:#d946ef"/>
    </linearGradient>
    <marker id="arrowhead" markerWidth="10" markerHeight="7" refX="9" refY="3.5" orient="auto">
      <polygon points="0 0, 10 3.5, 0 7" fill="#8b5cf6"/>
    </marker>
    <style>
      .heading-lg { fill: #ffffff; font-family: system-ui, sans-serif; font-size: 20px; font-weight: bold; }
      .heading { fill: #ffffff; font-family: system-ui, sans-serif; font-size: 14px; font-weight: bold; }
      .text-md { fill: #cbd5e1; font-family: system-ui, sans-serif; font-size: 12px; }
      .text-sm { fill: #94a3b8; font-family: system-ui, sans-serif; font-size: 10px; }
      .text-muted { fill: #8494a8; font-family: system-ui, sans-serif; font-size: 10px; }
      .annotation { fill: #6d28d9; font-family: monospace; font-size: 10px; }
      .code { fill: #fbbf24; font-family: monospace; font-size: 10px; }
      .label { fill: #8b5cf6; font-family: monospace; font-size: 11px; font-weight: bold; }
    </style>
  </defs>

  <!-- Background -->
  <rect width="1400" height="800" fill="url(#bgGrad)"/>

  <!-- Dot grid pattern -->
  <g opacity="0.05">
    <pattern id="dots" width="30" height="30" patternUnits="userSpaceOnUse">
      <circle cx="15" cy="15" r="1" fill="#fff"/>
    </pattern>
    <rect width="1400" height="800" fill="url(#dots)"/>
  </g>

  <!-- Accent line top -->
  <rect x="0" y="0" width="1400" height="3" fill="url(#accentGrad)"/>

  <!-- Title -->
  <text x="700" y="28" text-anchor="middle" font-family="system-ui, sans-serif" font-size="14" font-weight="600" fill="#8494a8" letter-spacing="1">033 - SEO LIBRARY TESTS: TEST SUITE ARCHITECTURE</text>

  <!-- Main Label -->
  <text x="40" y="60" class="label">4 SEO MODULES UNDER TEST</text>

  <!-- Module 1: Readability -->
  <g id="readability-module">
    <rect x="40" y="80" width="320" height="200" rx="8" fill="#1e293b" stroke="#3b82f6" stroke-width="2"/>
    <rect x="40" y="80" width="320" height="36" rx="8" fill="#3b82f6"/>
    <rect x="40" y="104" width="320" height="12" fill="#3b82f6"/>
    <text x="200" y="104" text-anchor="middle" class="heading">📖 readability.ts</text>
    <text x="320" y="100" class="text-sm" fill="#fff">P1</text>

    <text x="60" y="135" class="text-sm" fill="#94a3b8">Functions to Test:</text>
    <text x="60" y="155" class="code">• calculateFleschScore()</text>
    <text x="60" y="173" class="code">• averageSentenceLength()</text>
    <text x="60" y="191" class="code">• passiveVoicePercentage()</text>
    <text x="60" y="209" class="code">• paragraphLengthAnalysis()</text>

    <text x="60" y="235" class="text-sm" fill="#94a3b8">Acceptance: ±1 point tolerance</text>
    <text x="60" y="255" class="text-sm" fill="#22c55e">→ readability.test.ts</text>
    <rect x="270" y="240" width="70" height="22" rx="11" fill="#22c55e"/>
    <text x="305" y="255" text-anchor="middle" fill="#000" font-size="9" font-weight="bold">100% COV</text>
  </g>

  <!-- Module 2: Keywords -->
  <g id="keywords-module">
    <rect x="380" y="80" width="320" height="200" rx="8" fill="#1e293b" stroke="#22c55e" stroke-width="2"/>
    <rect x="380" y="80" width="320" height="36" rx="8" fill="#22c55e"/>
    <rect x="380" y="104" width="320" height="12" fill="#22c55e"/>
    <text x="540" y="104" text-anchor="middle" class="heading" fill="#000">🔑 keywords.ts</text>
    <text x="660" y="100" fill="#000" font-size="10" font-weight="bold">P1</text>

    <text x="400" y="135" class="text-sm" fill="#94a3b8">Functions to Test:</text>
    <text x="400" y="155" class="code">• keywordDensity()</text>
    <text x="400" y="173" class="code">• focusKeywordInTitle()</text>
    <text x="400" y="191" class="code">• keywordDistribution()</text>
    <text x="400" y="209" class="code">• keywordStemming()</text>

    <text x="400" y="235" class="text-sm" fill="#94a3b8">Formula: (N × len / total × 100)</text>
    <text x="400" y="255" class="text-sm" fill="#22c55e">→ keywords.test.ts</text>
    <rect x="610" y="240" width="70" height="22" rx="11" fill="#22c55e"/>
    <text x="645" y="255" text-anchor="middle" fill="#000" font-size="9" font-weight="bold">100% COV</text>
  </g>

  <!-- Module 3: Content -->
  <g id="content-module">
    <rect x="720" y="80" width="320" height="200" rx="8" fill="#1e293b" stroke="#eab308" stroke-width="2"/>
    <rect x="720" y="80" width="320" height="36" rx="8" fill="#eab308"/>
    <rect x="720" y="104" width="320" height="12" fill="#eab308"/>
    <text x="880" y="104" text-anchor="middle" class="heading" fill="#000">📝 content.ts</text>
    <text x="1000" y="100" fill="#000" font-size="10" font-weight="bold">P2</text>

    <text x="740" y="135" class="text-sm" fill="#94a3b8">Functions to Test:</text>
    <text x="740" y="155" class="code">• wordCount()</text>
    <text x="740" y="173" class="code">• extractHeadings()</text>
    <text x="740" y="191" class="code">• countLinks()</text>
    <text x="740" y="209" class="code">• imageAltAnalysis()</text>

    <text x="740" y="235" class="text-sm" fill="#94a3b8">Exclude HTML tags from count</text>
    <text x="740" y="255" class="text-sm" fill="#22c55e">→ content.test.ts</text>
    <rect x="950" y="240" width="70" height="22" rx="11" fill="#22c55e"/>
    <text x="985" y="255" text-anchor="middle" fill="#000" font-size="9" font-weight="bold">100% COV</text>
  </g>

  <!-- Module 4: Technical -->
  <g id="technical-module">
    <rect x="1060" y="80" width="300" height="200" rx="8" fill="#1e293b" stroke="#d946ef" stroke-width="2"/>
    <rect x="1060" y="80" width="300" height="36" rx="8" fill="#d946ef"/>
    <rect x="1060" y="104" width="300" height="12" fill="#d946ef"/>
    <text x="1210" y="104" text-anchor="middle" class="heading" fill="#fff">⚙️ technical.ts</text>
    <text x="1320" y="100" fill="#fff" font-size="10" font-weight="bold">P2</text>

    <text x="1080" y="135" class="text-sm" fill="#94a3b8">Functions to Test:</text>
    <text x="1080" y="155" class="code">• validateTitleLength()</text>
    <text x="1080" y="173" class="code">• validateMetaDesc()</text>
    <text x="1080" y="191" class="code">• checkHeadingHierarchy()</text>
    <text x="1080" y="209" class="code">• checkCanonicalURL()</text>

    <text x="1080" y="235" class="text-sm" fill="#94a3b8">Optimal: 50-60 / 150-160 chars</text>
    <text x="1080" y="255" class="text-sm" fill="#22c55e">→ technical.test.ts</text>
    <rect x="1270" y="240" width="70" height="22" rx="11" fill="#22c55e"/>
    <text x="1305" y="255" text-anchor="middle" fill="#000" font-size="9" font-weight="bold">100% COV</text>
  </g>

  <!-- Test Fixtures Section -->
  <text x="40" y="320" class="label">TEST FIXTURES</text>

  <g id="fixtures">
    <rect x="40" y="340" width="420" height="180" rx="8" fill="#1e293b" stroke="#475569" stroke-width="1"/>
    <rect x="40" y="340" width="420" height="36" rx="8" fill="#334155"/>
    <rect x="40" y="364" width="420" height="12" fill="#334155"/>
    <text x="250" y="364" text-anchor="middle" class="heading">📦 Test Fixture Types</text>

    <!-- Sample Text -->
    <rect x="60" y="390" width="180" height="55" rx="4" fill="#0f172a"/>
    <text x="150" y="410" text-anchor="middle" class="text-md" fill="#3b82f6">Sample Text</text>
    <text x="70" y="428" class="text-sm">Known syllable counts</text>
    <text x="70" y="442" class="text-sm">Known word counts</text>

    <!-- HTML Snippets -->
    <rect x="260" y="390" width="180" height="55" rx="4" fill="#0f172a"/>
    <text x="350" y="410" text-anchor="middle" class="text-md" fill="#22c55e">HTML Snippets</text>
    <text x="270" y="428" class="text-sm">Known headings</text>
    <text x="270" y="442" class="text-sm">Known link counts</text>

    <!-- Edge Cases -->
    <rect x="60" y="460" width="180" height="50" rx="4" fill="#0f172a"/>
    <text x="150" y="480" text-anchor="middle" class="text-md" fill="#eab308">Edge Cases</text>
    <text x="70" y="498" class="text-sm">Empty, long, unicode</text>

    <!-- Malformed -->
    <rect x="260" y="460" width="180" height="50" rx="4" fill="#0f172a"/>
    <text x="350" y="480" text-anchor="middle" class="text-md" fill="#ef4444">Malformed HTML</text>
    <text x="270" y="498" class="text-sm">Unclosed tags, invalid</text>
  </g>

  <!-- Test Pattern -->
  <text x="480" y="320" class="label">TEST PATTERN (AAA)</text>

  <g id="test-pattern">
    <rect x="480" y="340" width="240" height="180" rx="8" fill="#1e293b" stroke="#475569" stroke-width="1"/>

    <!-- Arrange -->
    <rect x="500" y="360" width="200" height="40" rx="4" fill="#334155" stroke="#8b5cf6" stroke-width="1"/>
    <text x="600" y="377" text-anchor="middle" class="text-md" fill="#8b5cf6">ARRANGE</text>
    <text x="600" y="393" text-anchor="middle" class="text-sm">Setup test fixtures</text>

    <path d="M 600 400 L 600 420" stroke="#8b5cf6" stroke-width="2" marker-end="url(#arrowhead)"/>

    <!-- Act -->
    <rect x="500" y="425" width="200" height="40" rx="4" fill="#334155" stroke="#22c55e" stroke-width="1"/>
    <text x="600" y="442" text-anchor="middle" class="text-md" fill="#22c55e">ACT</text>
    <text x="600" y="458" text-anchor="middle" class="text-sm">Call function under test</text>

    <path d="M 600 465 L 600 485" stroke="#22c55e" stroke-width="2" marker-end="url(#arrowhead)"/>

    <!-- Assert -->
    <rect x="500" y="490" width="200" height="40" rx="4" fill="#334155" stroke="#d946ef" stroke-width="1"/>
    <text x="600" y="507" text-anchor="middle" class="text-md" fill="#d946ef">ASSERT</text>
    <text x="600" y="523" text-anchor="middle" class="text-sm">Verify expected result</text>
  </g>

  <!-- Test Organization -->
  <text x="740" y="320" class="label">TEST FILE ORGANIZATION</text>

  <g id="test-org">
    <rect x="740" y="340" width="620" height="180" rx="8" fill="#1e293b" stroke="#475569" stroke-width="1"/>

    <!-- File tree -->
    <text x="760" y="370" class="code">src/lib/seo/</text>
    <text x="780" y="390" class="code">├── readability.ts</text>
    <text x="780" y="408" class="code">├── keywords.ts</text>
    <text x="780" y="426" class="code">├── content.ts</text>
    <text x="780" y="444" class="code">└── technical.ts</text>

    <text x="950" y="370" class="code">src/lib/seo/__tests__/</text>
    <text x="970" y="390" class="code">├── readability.test.ts</text>
    <text x="970" y="408" class="code">├── keywords.test.ts</text>
    <text x="970" y="426" class="code">├── content.test.ts</text>
    <text x="970" y="444" class="code">└── technical.test.ts</text>

    <!-- Arrows showing 1:1 relationship -->
    <path d="M 900 385 L 935 385" stroke="#8b5cf6" stroke-width="1" stroke-dasharray="4,2"/>
    <path d="M 890 403 L 935 403" stroke="#8b5cf6" stroke-width="1" stroke-dasharray="4,2"/>
    <path d="M 885 421 L 935 421" stroke="#8b5cf6" stroke-width="1" stroke-dasharray="4,2"/>
    <path d="M 890 439 L 935 439" stroke="#8b5cf6" stroke-width="1" stroke-dasharray="4,2"/>

    <!-- FR refs -->
    <text x="760" y="480" class="text-sm" fill="#94a3b8">FR-021: Separate test files by module</text>
    <text x="760" y="498" class="text-sm" fill="#94a3b8">FR-022: Clear, descriptive test names</text>
    <text x="1050" y="480" class="text-sm" fill="#94a3b8">FR-023: Arrange-Act-Assert pattern</text>
    <text x="1050" y="498" class="text-sm" fill="#94a3b8">FR-024: Positive + negative cases</text>
  </g>

  <!-- Coverage Requirements -->
  <text x="40" y="560" class="label">COVERAGE REQUIREMENTS (NFR)</text>

  <g id="coverage">
    <rect x="40" y="580" width="600" height="180" rx="8" fill="#1e293b" stroke="#475569" stroke-width="1"/>

    <!-- Coverage meters -->
    <g transform="translate(60, 610)">
      <text x="0" y="0" class="text-md">Line Coverage</text>
      <rect x="120" y="-12" width="200" height="16" rx="4" fill="#334155"/>
      <rect x="120" y="-12" width="200" height="16" rx="4" fill="#22c55e"/>
      <text x="330" y="0" class="heading" fill="#22c55e">100%</text>
      <text x="400" y="0" class="text-sm">NFR-001</text>
    </g>

    <g transform="translate(60, 645)">
      <text x="0" y="0" class="text-md">Function Coverage</text>
      <rect x="120" y="-12" width="200" height="16" rx="4" fill="#334155"/>
      <rect x="120" y="-12" width="200" height="16" rx="4" fill="#22c55e"/>
      <text x="330" y="0" class="heading" fill="#22c55e">100%</text>
      <text x="400" y="0" class="text-sm">NFR-002</text>
    </g>

    <g transform="translate(60, 680)">
      <text x="0" y="0" class="text-md">Branch Coverage</text>
      <rect x="120" y="-12" width="200" height="16" rx="4" fill="#334155"/>
      <rect x="120" y="-12" width="200" height="16" rx="4" fill="#22c55e"/>
      <text x="330" y="0" class="heading" fill="#22c55e">100%</text>
      <text x="400" y="0" class="text-sm">NFR-003</text>
    </g>

    <!-- Performance -->
    <rect x="480" y="600" width="140" height="70" rx="4" fill="#0f172a"/>
    <text x="550" y="625" text-anchor="middle" class="text-md" fill="#eab308">⏱️ Performance</text>
    <text x="550" y="645" text-anchor="middle" class="text-sm">Suite: &lt;5 seconds</text>
    <text x="550" y="660" text-anchor="middle" class="text-sm">Each: &lt;100ms</text>

    <text x="60" y="740" class="text-sm" fill="#94a3b8">NFR-006: No external network calls</text>
    <text x="280" y="740" class="text-sm" fill="#94a3b8">NFR-007: Deterministic results</text>
    <text x="480" y="740" class="text-sm" fill="#94a3b8">NFR-008: No interdependencies</text>
  </g>

  <!-- Dependencies -->
  <text x="680" y="560" class="label">DEPENDENCIES</text>

  <g id="dependencies">
    <rect x="680" y="580" width="320" height="180" rx="8" fill="#1e293b" stroke="#475569" stroke-width="1"/>

    <rect x="700" y="610" width="280" height="40" rx="4" fill="#334155"/>
    <text x="840" y="635" text-anchor="middle" class="text-md">029-SEO Editorial Assistant</text>
    <text x="840" y="648" text-anchor="middle" class="text-muted">SEO modules being tested</text>

    <rect x="700" y="665" width="280" height="40" rx="4" fill="#334155"/>
    <text x="840" y="690" text-anchor="middle" class="text-md">007-E2E Testing Framework</text>
    <text x="840" y="703" text-anchor="middle" class="text-muted">Test runner and utilities</text>

    <text x="700" y="740" class="text-sm" fill="#94a3b8">Test framework: Vitest</text>
  </g>

  <!-- Summary Stats -->
  <text x="1020" y="560" class="label">TEST SUITE SUMMARY</text>

  <g id="summary">
    <rect x="1020" y="580" width="340" height="180" rx="8" fill="#1e293b" stroke="#22c55e" stroke-width="2"/>

    <g transform="translate(1040, 610)">
      <rect x="0" y="0" width="80" height="60" rx="6" fill="#334155"/>
      <text x="40" y="28" text-anchor="middle" class="heading-lg" fill="#3b82f6">4</text>
      <text x="40" y="48" text-anchor="middle" class="text-sm">Modules</text>
    </g>

    <g transform="translate(1130, 610)">
      <rect x="0" y="0" width="80" height="60" rx="6" fill="#334155"/>
      <text x="40" y="28" text-anchor="middle" class="heading-lg" fill="#22c55e">4</text>
      <text x="40" y="48" text-anchor="middle" class="text-sm">Test Files</text>
    </g>

    <g transform="translate(1220, 610)">
      <rect x="0" y="0" width="80" height="60" rx="6" fill="#334155"/>
      <text x="40" y="28" text-anchor="middle" class="heading-lg" fill="#eab308">16</text>
      <text x="40" y="48" text-anchor="middle" class="text-sm">Functions</text>
    </g>

    <g transform="translate(1040, 690)">
      <rect x="0" y="0" width="120" height="50" rx="6" fill="#0f172a"/>
      <text x="60" y="22" text-anchor="middle" class="text-md" fill="#22c55e">100%</text>
      <text x="60" y="40" text-anchor="middle" class="text-sm">Coverage Goal</text>
    </g>

    <g transform="translate(1180, 690)">
      <rect x="0" y="0" width="120" height="50" rx="6" fill="#0f172a"/>
      <text x="60" y="22" text-anchor="middle" class="text-md" fill="#22c55e">&lt;5s</text>
      <text x="60" y="40" text-anchor="middle" class="text-sm">Suite Runtime</text>
    </g>
  </g>
</svg>
