<svg xmlns="http://www.w3.org/2000/svg" viewBox="0 0 1400 800" width="1400" height="800">
  <!-- ============================================================
       GENERATED BY: /wireframe skill
       SOURCE: features/polish/029-seo-editorial-assistant/spec.md
       DATE: 2025-12-31
       DO NOT MANUALLY EDIT - Regenerate with /wireframe command
       ============================================================ -->
  <defs>
    <linearGradient id="bgGrad" x1="0%" y1="0%" x2="100%" y2="100%">
      <stop offset="0%" style="stop-color:#0f172a"/>
      <stop offset="100%" style="stop-color:#1e293b"/>
    </linearGradient>
    <linearGradient id="accentGrad" x1="0%" y1="0%" x2="100%" y2="0%">
      <stop offset="0%" style="stop-color:#8b5cf6"/>
      <stop offset="100%" style="stop-color:#d946ef"/>
    </linearGradient>
    <style>
      .heading-lg { fill: #ffffff; font-family: system-ui, sans-serif; font-size: 20px; font-weight: bold; }
      .heading { fill: #ffffff; font-family: system-ui, sans-serif; font-size: 14px; font-weight: bold; }
      .text-md { fill: #cbd5e1; font-family: system-ui, sans-serif; font-size: 12px; }
      .text-sm { fill: #94a3b8; font-family: system-ui, sans-serif; font-size: 10px; }
      .text-muted { fill: #64748b; font-family: system-ui, sans-serif; font-size: 10px; }
      .annotation { fill: #8b5cf6; font-family: monospace; font-size: 10px; }
      .label-desktop { fill: #8b5cf6; font-family: monospace; font-size: 11px; font-weight: bold; }
      .label-mobile { fill: #d946ef; font-family: monospace; font-size: 11px; font-weight: bold; }
      .code { fill: #94a3b8; font-family: monospace; font-size: 10px; }
    </style>
  </defs>

  <!-- Background -->
  <rect width="1400" height="800" fill="url(#bgGrad)"/>

  <!-- Dot grid pattern -->
  <g opacity="0.05">
    <pattern id="dots" width="30" height="30" patternUnits="userSpaceOnUse">
      <circle cx="15" cy="15" r="1" fill="#fff"/>
    </pattern>
    <rect width="1400" height="800" fill="url(#dots)"/>
  </g>

  <!-- Accent line top -->
  <rect x="0" y="0" width="1400" height="3" fill="url(#accentGrad)"/>

  <!-- Title -->
  <text x="700" y="28" text-anchor="middle" font-family="system-ui, sans-serif" font-size="14" font-weight="600" fill="#64748b" letter-spacing="1">SEO EDITORIAL ASSISTANT - EDITOR VIEW</text>

  <!-- DESKTOP SECTION (left) -->
  <text x="40" y="52" class="label-desktop">DESKTOP</text>
  <g id="desktop-view">
    <!-- Desktop container -->
    <rect x="40" y="60" width="900" height="680" rx="8" fill="#1e293b" stroke="#475569" stroke-width="1"/>

    <!-- Header bar -->
    <rect x="40" y="60" width="900" height="50" rx="8" fill="#334155"/>
    <rect x="40" y="102" width="900" height="8" fill="#1e293b"/>

    <!-- Back button -->
    <text x="60" y="90" class="text-md">← Back to Posts</text>

    <!-- Post title in header -->
    <text x="200" y="90" class="heading">Editing: getting-started-with-nextjs.md</text>

    <!-- Save button -->
    <rect x="800" y="75" width="80" height="32" rx="6" fill="#8b5cf6"/>
    <text x="840" y="96" text-anchor="middle" fill="#fff" font-family="system-ui, sans-serif" font-size="12" font-weight="600">Save</text>

    <!-- Autosave indicator -->
    <circle cx="895" y="91" r="4" fill="#22c55e"/>
    <text x="905" y="95" class="text-sm">Saved</text>

    <!-- Split pane layout -->
    <!-- Left: Markdown Editor (60%) -->
    <rect x="50" y="120" width="520" height="610" rx="6" fill="#0f172a" stroke="#475569" stroke-width="1"/>

    <!-- Editor toolbar -->
    <rect x="50" y="120" width="520" height="36" rx="6" fill="#334155"/>
    <rect x="50" y="150" width="520" height="6" fill="#0f172a"/>

    <!-- Toolbar buttons -->
    <rect x="60" y="128" width="28" height="20" rx="4" fill="#475569"/>
    <text x="74" y="142" text-anchor="middle" fill="#94a3b8" font-family="monospace" font-size="10" font-weight="bold">B</text>

    <rect x="94" y="128" width="28" height="20" rx="4" fill="#475569"/>
    <text x="108" y="142" text-anchor="middle" fill="#94a3b8" font-family="monospace" font-size="10" font-style="italic">I</text>

    <rect x="128" y="128" width="28" height="20" rx="4" fill="#475569"/>
    <text x="142" y="142" text-anchor="middle" fill="#94a3b8" font-family="monospace" font-size="10">H1</text>

    <rect x="162" y="128" width="28" height="20" rx="4" fill="#475569"/>
    <text x="176" y="142" text-anchor="middle" fill="#94a3b8" font-family="monospace" font-size="10">H2</text>

    <rect x="196" y="128" width="28" height="20" rx="4" fill="#475569"/>
    <text x="210" y="142" text-anchor="middle" fill="#94a3b8" font-family="monospace" font-size="10">🔗</text>

    <!-- Frontmatter section -->
    <rect x="60" y="166" width="500" height="90" rx="4" fill="#1e293b" stroke="#475569" stroke-width="1"/>
    <text x="70" y="182" class="code">---</text>
    <text x="70" y="196" class="code">title: "Getting Started with Next.js 15"</text>
    <text x="70" y="210" class="code">description: "A comprehensive guide to..."</text>
    <text x="70" y="224" class="code">focusKeyword: "Next.js 15"</text>
    <text x="70" y="238" class="code">date: "2025-01-15"</text>
    <text x="70" y="252" class="code">---</text>

    <!-- Markdown content -->
    <text x="60" y="280" class="heading"># Getting Started with Next.js 15</text>
    <text x="60" y="300" class="text-md">Next.js 15 introduces revolutionary features</text>
    <text x="60" y="316" class="text-md">for modern web development. This guide walks</text>
    <text x="60" y="332" class="text-md">you through the setup process step by step.</text>
    <text x="60" y="360" class="heading">## Why Choose Next.js 15?</text>
    <text x="60" y="380" class="text-md">The latest version brings significant</text>
    <text x="60" y="396" class="text-md">improvements in performance and developer</text>
    <text x="60" y="412" class="text-md">experience. Server components are now...</text>
    <text x="60" y="440" class="heading">## Installation</text>
    <text x="60" y="460" class="text-md">To get started, run the following command:</text>
    <rect x="60" y="475" width="480" height="30" rx="4" fill="#334155"/>
    <text x="70" y="495" class="code">npx create-next-app@latest my-app</text>
    <text x="60" y="530" class="text-md">This will scaffold a new Next.js project with</text>
    <text x="60" y="546" class="text-md">all the recommended configurations...</text>

    <!-- Cursor/caret indicator -->
    <rect x="350" y="540" width="2" height="14" fill="#8b5cf6">
      <animate attributeName="opacity" values="1;0;1" dur="1s" repeatCount="indefinite"/>
    </rect>

    <!-- Right: SEO Analysis Panel (40%) -->
    <rect x="580" y="120" width="350" height="610" rx="6" fill="#0f172a" stroke="#475569" stroke-width="1"/>

    <!-- SEO Panel Header -->
    <rect x="580" y="120" width="350" height="36" rx="6" fill="#334155"/>
    <rect x="580" y="150" width="350" height="6" fill="#0f172a"/>
    <text x="600" y="144" class="heading">SEO Analysis</text>

    <!-- Overall Score -->
    <rect x="590" y="166" width="330" height="80" rx="6" fill="#1e293b" stroke="#22c55e" stroke-width="2"/>
    <text x="610" y="190" class="text-sm">OVERALL SCORE</text>
    <text x="610" y="230" fill="#22c55e" font-family="system-ui, sans-serif" font-size="36" font-weight="bold">78</text>
    <text x="660" y="230" fill="#22c55e" font-family="system-ui, sans-serif" font-size="16">/100</text>
    <!-- Traffic light indicator -->
    <circle cx="880" y="210" r="20" fill="#22c55e" opacity="0.2"/>
    <circle cx="880" y="210" r="12" fill="#22c55e"/>
    <text x="750" y="236" class="text-sm">Good - Minor improvements possible</text>

    <!-- Metrics List -->
    <text x="600" y="270" class="heading">Metrics</text>

    <!-- Readability -->
    <rect x="590" y="280" width="330" height="44" rx="4" fill="#1e293b"/>
    <circle cx="610" y="302" r="8" fill="#22c55e"/>
    <text x="628" y="298" class="text-md">Readability Score</text>
    <text x="628" y="314" class="text-muted">Flesch: 65 (Target: 60-70)</text>
    <text x="890" y="306" text-anchor="end" fill="#22c55e" font-family="system-ui, sans-serif" font-size="14" font-weight="bold">✓</text>

    <!-- Sentence Length -->
    <rect x="590" y="330" width="330" height="44" rx="4" fill="#1e293b"/>
    <circle cx="610" y="352" r="8" fill="#22c55e"/>
    <text x="628" y="348" class="text-md">Sentence Length</text>
    <text x="628" y="364" class="text-muted">Avg: 16 words (Target: 15-20)</text>
    <text x="890" y="356" text-anchor="end" fill="#22c55e" font-family="system-ui, sans-serif" font-size="14" font-weight="bold">✓</text>

    <!-- Passive Voice -->
    <rect x="590" y="380" width="330" height="44" rx="4" fill="#1e293b"/>
    <circle cx="610" y="402" r="8" fill="#eab308"/>
    <text x="628" y="398" class="text-md">Passive Voice</text>
    <text x="628" y="414" class="text-muted">12% detected (Target: &lt;10%)</text>
    <text x="890" y="406" text-anchor="end" fill="#eab308" font-family="system-ui, sans-serif" font-size="14" font-weight="bold">!</text>

    <!-- Keyword Density -->
    <rect x="590" y="430" width="330" height="44" rx="4" fill="#1e293b"/>
    <circle cx="610" y="452" r="8" fill="#22c55e"/>
    <text x="628" y="448" class="text-md">Keyword Density</text>
    <text x="628" y="464" class="text-muted">"Next.js 15" - 2.4% (Target: 2-3%)</text>
    <text x="890" y="456" text-anchor="end" fill="#22c55e" font-family="system-ui, sans-serif" font-size="14" font-weight="bold">✓</text>

    <!-- Title Length -->
    <rect x="590" y="480" width="330" height="44" rx="4" fill="#1e293b"/>
    <circle cx="610" y="502" r="8" fill="#ef4444"/>
    <text x="628" y="498" class="text-md">Title Length</text>
    <text x="628" y="514" class="text-muted">72 chars (Target: 50-60)</text>
    <text x="890" y="506" text-anchor="end" fill="#ef4444" font-family="system-ui, sans-serif" font-size="14" font-weight="bold">✗</text>

    <!-- Heading Hierarchy -->
    <rect x="590" y="530" width="330" height="44" rx="4" fill="#1e293b"/>
    <circle cx="610" y="552" r="8" fill="#22c55e"/>
    <text x="628" y="548" class="text-md">Heading Hierarchy</text>
    <text x="628" y="564" class="text-muted">H1 → H2 (Valid structure)</text>
    <text x="890" y="556" text-anchor="end" fill="#22c55e" font-family="system-ui, sans-serif" font-size="14" font-weight="bold">✓</text>

    <!-- Suggestions Section -->
    <text x="600" y="600" class="heading">Suggestions</text>
    <rect x="590" y="610" width="330" height="110" rx="4" fill="#1e293b" stroke="#eab308" stroke-width="1"/>
    <text x="605" y="632" class="text-md">1. Shorten title to 50-60 characters</text>
    <text x="605" y="652" class="text-sm" fill="#64748b">   Current: 72 → Target: 55</text>
    <text x="605" y="676" class="text-md">2. Reduce passive voice usage</text>
    <text x="605" y="696" class="text-sm" fill="#64748b">   Rewrite: "are now" → "now include"</text>
  </g>

  <!-- MOBILE SECTION (right) -->
  <text x="980" y="52" class="label-mobile">MOBILE</text>
  <g id="mobile-view" transform="translate(980, 60)">
    <!-- Phone frame -->
    <rect x="0" y="0" width="360" height="700" rx="24" fill="#1e293b" stroke="#475569" stroke-width="2"/>
    <rect x="10" y="10" width="340" height="680" rx="16" fill="#0f172a"/>

    <!-- Status bar -->
    <rect x="10" y="10" width="340" height="28" rx="16" fill="#1e293b"/>
    <text x="30" y="28" class="text-sm">9:41</text>
    <text x="310" y="28" text-anchor="end" class="text-sm">100%</text>

    <!-- Mobile header -->
    <rect x="10" y="38" width="340" height="44" fill="#334155"/>
    <text x="30" y="65" class="text-md">← Back</text>
    <text x="175" y="65" text-anchor="middle" class="heading">Edit Post</text>
    <rect x="290" y="50" width="50" height="24" rx="4" fill="#8b5cf6"/>
    <text x="315" y="66" text-anchor="middle" fill="#fff" font-family="system-ui, sans-serif" font-size="10">Save</text>

    <!-- Tab switcher -->
    <rect x="20" y="92" width="320" height="36" rx="6" fill="#1e293b"/>
    <rect x="24" y="96" width="154" height="28" rx="4" fill="#8b5cf6"/>
    <text x="101" y="114" text-anchor="middle" fill="#fff" font-family="system-ui, sans-serif" font-size="11" font-weight="600">Editor</text>
    <text x="255" y="114" text-anchor="middle" class="text-md">SEO Panel</text>

    <!-- Mobile editor (simplified) -->
    <rect x="20" y="138" width="320" height="530" rx="6" fill="#1e293b"/>

    <!-- Frontmatter collapsed -->
    <rect x="30" y="148" width="300" height="36" rx="4" fill="#334155"/>
    <text x="45" y="170" class="text-sm">▼ Frontmatter (4 fields)</text>

    <!-- Content area -->
    <text x="30" y="206" class="code"># Getting Started with</text>
    <text x="30" y="220" class="code">   Next.js 15</text>
    <text x="30" y="246" class="text-sm">Next.js 15 introduces</text>
    <text x="30" y="260" class="text-sm">revolutionary features...</text>
    <text x="30" y="286" class="code">## Why Choose Next.js?</text>
    <text x="30" y="312" class="text-sm">The latest version brings</text>
    <text x="30" y="326" class="text-sm">significant improvements...</text>

    <!-- Floating SEO score badge -->
    <rect x="260" y="620" width="70" height="36" rx="18" fill="#22c55e"/>
    <text x="295" y="643" text-anchor="middle" fill="#fff" font-family="system-ui, sans-serif" font-size="14" font-weight="bold">78</text>

    <!-- Bottom toolbar -->
    <rect x="10" y="648" width="340" height="42" rx="0" fill="#334155"/>
    <rect x="30" y="658" width="24" height="24" rx="4" fill="#475569"/>
    <text x="42" y="674" text-anchor="middle" fill="#94a3b8" font-family="monospace" font-size="10" font-weight="bold">B</text>
    <rect x="64" y="658" width="24" height="24" rx="4" fill="#475569"/>
    <text x="76" y="674" text-anchor="middle" fill="#94a3b8" font-family="monospace" font-size="10" font-style="italic">I</text>
    <rect x="98" y="658" width="24" height="24" rx="4" fill="#475569"/>
    <text x="110" y="674" text-anchor="middle" fill="#94a3b8" font-family="monospace" font-size="10">H</text>
    <rect x="132" y="658" width="24" height="24" rx="4" fill="#475569"/>
    <text x="144" y="674" text-anchor="middle" fill="#94a3b8" font-family="monospace" font-size="10">🔗</text>
  </g>

  <!-- Leader lines -->
  <g id="leader-lines">
  </g>
</svg>