<svg xmlns="http://www.w3.org/2000/svg" viewBox="0 0 1400 800" width="1400" height="800">
  <!-- ============================================================
       GENERATED BY: /wireframe skill
       SOURCE: features/polish/029-seo-editorial-assistant/spec.md
       DATE: 2026-01-01
       THEME: Light (UX/Frontend) - v3 True Parchment
       DO NOT MANUALLY EDIT - Regenerate with /wireframe command
       ============================================================ -->
  <defs>
    <linearGradient id="bgGrad" x1="0%" y1="0%" x2="100%" y2="100%">
      <stop offset="0%" style="stop-color:#c7ddf5"/>
      <stop offset="100%" style="stop-color:#b8d4f0"/>
    </linearGradient>
    <linearGradient id="accentGrad" x1="0%" y1="0%" x2="100%" y2="0%">
      <stop offset="0%" style="stop-color:#8b5cf6"/>
      <stop offset="100%" style="stop-color:#d946ef"/>
    </linearGradient>
    <linearGradient id="scoreGrad" x1="0%" y1="0%" x2="100%" y2="0%">
      <stop offset="0%" style="stop-color:#22c55e"/>
      <stop offset="50%" style="stop-color:#eab308"/>
      <stop offset="100%" style="stop-color:#ef4444"/>
    </linearGradient>
    <style>
      .heading-lg { fill: #1a1a2e; font-family: system-ui, sans-serif; font-size: 24px; font-weight: 800; }
      .heading { fill: #1a1a2e; font-family: system-ui, sans-serif; font-size: 16px; font-weight: 700; }
      .heading-sm { fill: #1a1a2e; font-family: system-ui, sans-serif; font-size: 14px; font-weight: 700; }
      .text-md { fill: #2d3748; font-family: system-ui, sans-serif; font-size: 14px; font-weight: 500; }
      .text-sm { fill: #374151; font-family: system-ui, sans-serif; font-size: 12px; font-weight: 500; }
      .text-muted { fill: #4b5563; font-family: system-ui, sans-serif; font-size: 11px; font-weight: 500; }
      .annotation { fill: #6d28d9; font-family: monospace; font-size: 12px; font-weight: 600; }
      .label-desktop { fill: #8b5cf6; font-family: monospace; font-size: 13px; font-weight: bold; }
      .label-mobile { fill: #d946ef; font-family: monospace; font-size: 13px; font-weight: bold; }
      .code { fill: #374151; font-family: monospace; font-size: 11px; }
      .score-good { fill: #22c55e; }
      .score-warn { fill: #eab308; }
      .score-bad { fill: #ef4444; }
    </style>
  </defs>

  <!-- Background -->
  <rect width="1400" height="800" fill="url(#bgGrad)"/>

  <!-- Dot grid pattern -->
  <g opacity="0.35">
    <pattern id="dots" width="30" height="30" patternUnits="userSpaceOnUse">
      <circle cx="15" cy="15" r="1" fill="#6b8cba"/>
    </pattern>
    <rect width="1400" height="800" fill="url(#dots)"/>
  </g>

  <!-- Accent line top -->
  <rect x="0" y="0" width="1400" height="3" fill="url(#accentGrad)"/>

  <!-- Title -->
  <text x="700" y="28" text-anchor="middle" font-family="system-ui, sans-serif" font-size="14" font-weight="600" fill="#4b5563" letter-spacing="1">SEO EDITORIAL ASSISTANT — EDITOR WITH SEO PANEL</text>

  <!-- DESKTOP SECTION -->
  <text x="40" y="52" class="label-desktop">DESKTOP</text>
  <g id="desktop-view">
    <!-- Post List Sidebar -->
    <rect x="40" y="60" width="180" height="680" rx="8" fill="#e8d4b8" stroke="#b8a080" stroke-width="1"/>
    <text x="55" y="85" class="heading-sm">Blog Posts</text>

    <!-- Search -->
    <rect x="50" y="95" width="160" height="32" rx="6" fill="#f5f0e6" stroke="#b8a080" stroke-width="1"/>
    <text x="60" y="116" class="text-muted">Search posts...</text>

    <!-- Post list items -->
    <g>
      <rect x="50" y="140" width="160" height="50" rx="6" fill="#8b5cf6" opacity="0.15" stroke="#8b5cf6" stroke-width="1"/>
      <text x="60" y="160" class="text-sm" fill="#1a1a2e" font-weight="600">Getting Started Guide</text>
      <text x="60" y="178" class="text-muted">Score: 82/100</text>
      <circle cx="195" cy="165" r="6" fill="#22c55e"/>
    </g>

    <g>
      <rect x="50" y="200" width="160" height="50" rx="6" fill="#dcc8a8"/>
      <text x="60" y="220" class="text-sm">API Documentation</text>
      <text x="60" y="238" class="text-muted">Score: 65/100</text>
      <circle cx="195" cy="225" r="6" fill="#eab308"/>
    </g>

    <g>
      <rect x="50" y="260" width="160" height="50" rx="6" fill="#dcc8a8"/>
      <text x="60" y="280" class="text-sm">Performance Tips</text>
      <text x="60" y="298" class="text-muted">Score: 45/100</text>
      <circle cx="195" cy="285" r="6" fill="#ef4444"/>
    </g>

    <g>
      <rect x="50" y="320" width="160" height="50" rx="6" fill="#dcc8a8"/>
      <text x="60" y="340" class="text-sm">Security Best Practices</text>
      <text x="60" y="358" class="text-muted">Score: 78/100</text>
      <circle cx="195" cy="345" r="6" fill="#22c55e"/>
    </g>

    <!-- Export button -->
    <rect x="50" y="690" width="160" height="36" rx="6" fill="#8b5cf6"/>
    <text x="130" y="713" text-anchor="middle" fill="#fff" font-family="system-ui, sans-serif" font-size="13" font-weight="600">Export Selected</text>
  </g>

  <!-- Main Editor Area -->
  <g id="editor-area">
    <rect x="230" y="60" width="460" height="680" rx="8" fill="#e8d4b8" stroke="#b8a080" stroke-width="1"/>

    <!-- Editor header -->
    <rect x="230" y="60" width="460" height="50" rx="8" fill="#dcc8a8"/>
    <text x="250" y="90" class="heading">Getting Started Guide</text>
    <text x="585" y="90" class="text-muted" text-anchor="end">Auto-saved 2s ago</text>

    <!-- Toolbar -->
    <rect x="240" y="120" width="440" height="36" rx="6" fill="#f5f0e6" stroke="#b8a080" stroke-width="1"/>
    <text x="255" y="143" class="text-sm" font-weight="bold">B</text>
    <text x="280" y="143" class="text-sm" font-style="italic">I</text>
    <text x="305" y="143" class="text-sm" text-decoration="underline">U</text>
    <line x1="325" y1="128" x2="325" y2="148" stroke="#b8a080" stroke-width="1"/>
    <text x="340" y="143" class="text-sm">H1</text>
    <text x="370" y="143" class="text-sm">H2</text>
    <text x="400" y="143" class="text-sm">H3</text>
    <line x1="425" y1="128" x2="425" y2="148" stroke="#b8a080" stroke-width="1"/>
    <text x="440" y="143" class="text-sm">🔗</text>
    <text x="470" y="143" class="text-sm">📷</text>
    <text x="500" y="143" class="text-sm">📝</text>

    <!-- Frontmatter section -->
    <rect x="240" y="166" width="440" height="90" rx="6" fill="#f5f0e6" stroke="#b8a080" stroke-width="1"/>
    <text x="250" y="186" class="code">---</text>
    <text x="250" y="202" class="code">title: "Getting Started Guide"</text>
    <text x="250" y="218" class="code">description: "Learn the basics..."</text>
    <text x="250" y="234" class="code">focus_keyword: "getting started"</text>
    <text x="250" y="250" class="code">---</text>

    <!-- Content area -->
    <rect x="240" y="266" width="440" height="400" rx="6" fill="#f5f0e6" stroke="#b8a080" stroke-width="1"/>
    <text x="250" y="290" class="text-md"># Getting Started Guide</text>
    <text x="250" y="320" class="text-sm">Welcome to our comprehensive guide</text>
    <text x="250" y="340" class="text-sm">for getting started with the platform.</text>
    <text x="250" y="360" class="text-sm">This tutorial covers all the basics you</text>
    <text x="250" y="380" class="text-sm">need to know.</text>
    <text x="250" y="420" class="text-md">## Installation</text>
    <text x="250" y="450" class="text-sm">First, ensure you have Node.js installed</text>
    <text x="250" y="470" class="text-sm">on your system. Then run the following</text>
    <text x="250" y="490" class="text-sm">command to install the package:</text>
    <rect x="250" y="505" width="420" height="30" rx="4" fill="#dcc8a8"/>
    <text x="260" y="525" class="code">npm install @scripthammer/core</text>
    <text x="250" y="560" class="text-sm">After installation, you can import the</text>
    <text x="250" y="580" class="text-sm">module in your project and start...</text>

    <!-- Cursor blink indicator -->
    <rect x="393" y="570" width="2" height="16" fill="#8b5cf6"/>

    <!-- Word count footer -->
    <rect x="240" y="676" width="440" height="24" rx="4" fill="#dcc8a8"/>
    <text x="250" y="693" class="text-muted">Words: 1,247 | Characters: 7,892 | Reading time: 5 min</text>
  </g>

  <!-- SEO Panel -->
  <g id="seo-panel">
    <rect x="700" y="60" width="240" height="680" rx="8" fill="#e8d4b8" stroke="#b8a080" stroke-width="1"/>

    <!-- Panel header -->
    <rect x="700" y="60" width="240" height="50" rx="8" fill="#dcc8a8"/>
    <text x="720" y="90" class="heading">SEO Analysis</text>

    <!-- Overall score -->
    <g transform="translate(820, 160)">
      <circle cx="0" cy="0" r="50" fill="none" stroke="#dcc8a8" stroke-width="8"/>
      <circle cx="0" cy="0" r="50" fill="none" stroke="#22c55e" stroke-width="8"
              stroke-dasharray="258" stroke-dashoffset="46" transform="rotate(-90)"/>
      <text x="0" y="8" text-anchor="middle" class="heading-lg" fill="#22c55e">82</text>
      <text x="0" y="25" text-anchor="middle" class="text-muted">/100</text>
    </g>
    <text x="820" y="235" text-anchor="middle" class="text-sm" fill="#22c55e" font-weight="600">GOOD</text>

    <!-- Quick metrics -->
    <g transform="translate(710, 260)">
      <text x="0" y="0" class="heading-sm">Quick Metrics</text>

      <!-- Readability -->
      <g transform="translate(0, 25)">
        <circle cx="8" cy="-4" r="6" fill="#22c55e"/>
        <text x="22" y="0" class="text-sm">Readability: 68 (Good)</text>
      </g>

      <!-- Title length -->
      <g transform="translate(0, 50)">
        <circle cx="8" cy="-4" r="6" fill="#22c55e"/>
        <text x="22" y="0" class="text-sm">Title: 22 chars (Optimal)</text>
      </g>

      <!-- Meta description -->
      <g transform="translate(0, 75)">
        <circle cx="8" cy="-4" r="6" fill="#eab308"/>
        <text x="22" y="0" class="text-sm">Meta: 142 chars (Short)</text>
      </g>

      <!-- Keyword density -->
      <g transform="translate(0, 100)">
        <circle cx="8" cy="-4" r="6" fill="#22c55e"/>
        <text x="22" y="0" class="text-sm">Keyword: 2.4% (Optimal)</text>
      </g>

      <!-- Passive voice -->
      <g transform="translate(0, 125)">
        <circle cx="8" cy="-4" r="6" fill="#22c55e"/>
        <text x="22" y="0" class="text-sm">Passive: 8% (&lt;10%)</text>
      </g>

      <!-- Headings -->
      <g transform="translate(0, 150)">
        <circle cx="8" cy="-4" r="6" fill="#22c55e"/>
        <text x="22" y="0" class="text-sm">Headings: Valid hierarchy</text>
      </g>
    </g>

    <!-- Suggestions -->
    <g transform="translate(710, 445)">
      <text x="0" y="0" class="heading-sm">Suggestions</text>

      <rect x="0" y="15" width="220" height="55" rx="6" fill="#f5f0e6" stroke="#eab308" stroke-width="1"/>
      <text x="10" y="35" class="text-sm">Add 10-20 more characters to</text>
      <text x="10" y="52" class="text-sm">meta description (142→155)</text>

      <rect x="0" y="80" width="220" height="55" rx="6" fill="#f5f0e6" stroke="#b8a080" stroke-width="1"/>
      <text x="10" y="100" class="text-sm">Consider adding an image with</text>
      <text x="10" y="117" class="text-sm">alt text for better engagement</text>
    </g>

    <!-- Terminal output button -->
    <rect x="710" y="610" width="220" height="36" rx="6" fill="#dcc8a8" stroke="#b8a080" stroke-width="1"/>
    <text x="820" y="633" text-anchor="middle" class="text-sm">📋 Show Terminal Output</text>

    <!-- Save button -->
    <rect x="710" y="656" width="220" height="36" rx="6" fill="#22c55e"/>
    <text x="820" y="679" text-anchor="middle" fill="#fff" font-family="system-ui, sans-serif" font-size="13" font-weight="600">Save Changes</text>
  </g>

  <!-- MOBILE SECTION -->
  <text x="980" y="52" class="label-mobile">MOBILE</text>
  <g id="mobile-view" transform="translate(980, 60)">
    <!-- Phone frame -->
    <rect x="0" y="0" width="360" height="700" rx="24" fill="#c8b898" stroke="#a08860" stroke-width="2"/>
    <rect x="10" y="10" width="340" height="680" rx="16" fill="#e8d4b8"/>

    <!-- Status bar -->
    <rect x="10" y="10" width="340" height="28" rx="16" fill="#dcc8a8"/>
    <text x="30" y="28" class="text-sm">9:41</text>
    <text x="320" y="28" class="text-sm" text-anchor="end">📶 🔋</text>

    <!-- Mobile header -->
    <rect x="10" y="38" width="340" height="50" fill="#dcc8a8"/>
    <text x="30" y="52" class="text-sm">←</text>
    <text x="180" y="68" text-anchor="middle" class="heading-sm">Edit Post</text>
    <text x="330" y="68" text-anchor="end" class="text-sm" fill="#8b5cf6">Save</text>

    <!-- Tab switcher -->
    <g transform="translate(20, 98)">
      <rect x="0" y="0" width="150" height="32" rx="6" fill="#8b5cf6"/>
      <text x="75" y="21" text-anchor="middle" fill="#fff" font-family="system-ui, sans-serif" font-size="12" font-weight="600">Editor</text>
      <rect x="160" y="0" width="150" height="32" rx="6" fill="#dcc8a8" stroke="#b8a080" stroke-width="1"/>
      <text x="235" y="21" text-anchor="middle" class="text-sm">SEO Panel</text>
    </g>

    <!-- Score badge -->
    <g transform="translate(260, 140)">
      <rect x="0" y="0" width="80" height="28" rx="14" fill="#22c55e"/>
      <text x="40" y="19" text-anchor="middle" fill="#fff" font-family="system-ui, sans-serif" font-size="12" font-weight="600">82/100</text>
    </g>

    <!-- Mobile toolbar -->
    <rect x="20" y="178" width="320" height="36" rx="6" fill="#f5f0e6" stroke="#b8a080" stroke-width="1"/>
    <text x="40" y="201" class="text-sm" font-weight="bold">B</text>
    <text x="75" y="201" class="text-sm" font-style="italic">I</text>
    <text x="110" y="201" class="text-sm">H1</text>
    <text x="145" y="201" class="text-sm">H2</text>
    <text x="180" y="201" class="text-sm">🔗</text>
    <text x="215" y="201" class="text-sm">📷</text>
    <text x="305" y="201" class="text-sm" text-anchor="end">⋮</text>

    <!-- Mobile content area -->
    <rect x="20" y="224" width="320" height="400" rx="6" fill="#f5f0e6" stroke="#b8a080" stroke-width="1"/>
    <text x="30" y="250" class="text-md"># Getting Started Guide</text>
    <text x="30" y="280" class="text-sm">Welcome to our comprehensive</text>
    <text x="30" y="300" class="text-sm">guide for getting started with</text>
    <text x="30" y="320" class="text-sm">the platform. This tutorial</text>
    <text x="30" y="340" class="text-sm">covers all the basics you</text>
    <text x="30" y="360" class="text-sm">need to know.</text>
    <text x="30" y="400" class="text-md">## Installation</text>
    <text x="30" y="430" class="text-sm">First, ensure you have</text>
    <text x="30" y="450" class="text-sm">Node.js installed on your</text>
    <text x="30" y="470" class="text-sm">system. Then run:</text>
    <rect x="30" y="485" width="300" height="26" rx="4" fill="#dcc8a8"/>
    <text x="40" y="503" class="code" font-size="10">npm install @scripthammer/core</text>

    <!-- Mobile word count -->
    <rect x="20" y="634" width="320" height="24" rx="4" fill="#dcc8a8"/>
    <text x="30" y="651" class="text-muted">1,247 words • 5 min read</text>

    <!-- Mobile nav bar -->
    <rect x="10" y="658" width="340" height="32" fill="#dcc8a8" rx="0 0 16 16"/>
    <text x="85" y="678" text-anchor="middle" class="text-muted">📝 Posts</text>
    <text x="180" y="678" text-anchor="middle" class="text-sm" fill="#8b5cf6">✏️ Editor</text>
    <text x="275" y="678" text-anchor="middle" class="text-muted">📊 SEO</text>
  </g>

  <!-- Annotations -->
  <g id="annotations">
    <rect x="40" y="740" width="120" height="35" rx="4" fill="#e8d4b8" stroke="#8b5cf6" stroke-width="1"/>
    <text x="100" y="755" text-anchor="middle" class="annotation">FR-004</text>
    <text x="100" y="770" text-anchor="middle" class="text-muted">Post selection</text>

    <rect x="350" y="740" width="140" height="35" rx="4" fill="#e8d4b8" stroke="#8b5cf6" stroke-width="1"/>
    <text x="420" y="755" text-anchor="middle" class="annotation">FR-002, FR-006</text>
    <text x="420" y="770" text-anchor="middle" class="text-muted">Autosave editing</text>

    <rect x="760" y="740" width="130" height="35" rx="4" fill="#e8d4b8" stroke="#8b5cf6" stroke-width="1"/>
    <text x="825" y="755" text-anchor="middle" class="annotation">FR-017-020</text>
    <text x="825" y="770" text-anchor="middle" class="text-muted">Live SEO metrics</text>
  </g>
</svg>