<svg xmlns="http://www.w3.org/2000/svg" viewBox="0 0 1400 800" width="1400" height="800">
  <!-- ============================================================
       GENERATED BY: /wireframe skill
       SOURCE: features/polish/029-seo-editorial-assistant/spec.md
       DATE: 2025-12-31
       DO NOT MANUALLY EDIT - Regenerate with /wireframe command
       ============================================================ -->
  <defs>
    <linearGradient id="bgGrad" x1="0%" y1="0%" x2="100%" y2="100%">
      <stop offset="0%" style="stop-color:#0f172a"/>
      <stop offset="100%" style="stop-color:#1e293b"/>
    </linearGradient>
    <linearGradient id="accentGrad" x1="0%" y1="0%" x2="100%" y2="0%">
      <stop offset="0%" style="stop-color:#8b5cf6"/>
      <stop offset="100%" style="stop-color:#d946ef"/>
    </linearGradient>
    <style>
      .heading-lg { fill: #ffffff; font-family: system-ui, sans-serif; font-size: 20px; font-weight: bold; }
      .heading { fill: #ffffff; font-family: system-ui, sans-serif; font-size: 14px; font-weight: bold; }
      .text-md { fill: #cbd5e1; font-family: system-ui, sans-serif; font-size: 12px; }
      .text-sm { fill: #94a3b8; font-family: system-ui, sans-serif; font-size: 10px; }
      .text-muted { fill: #64748b; font-family: system-ui, sans-serif; font-size: 10px; }
      .annotation { fill: #8b5cf6; font-family: monospace; font-size: 10px; }
      .label-desktop { fill: #8b5cf6; font-family: monospace; font-size: 11px; font-weight: bold; }
      .label-mobile { fill: #d946ef; font-family: monospace; font-size: 11px; font-weight: bold; }
    </style>
  </defs>

  <!-- Background -->
  <rect width="1400" height="800" fill="url(#bgGrad)"/>

  <!-- Dot grid pattern -->
  <g opacity="0.05">
    <pattern id="dots" width="30" height="30" patternUnits="userSpaceOnUse">
      <circle cx="15" cy="15" r="1" fill="#fff"/>
    </pattern>
    <rect width="1400" height="800" fill="url(#dots)"/>
  </g>

  <!-- Accent line top -->
  <rect x="0" y="0" width="1400" height="3" fill="url(#accentGrad)"/>

  <!-- Title -->
  <text x="700" y="28" text-anchor="middle" font-family="system-ui, sans-serif" font-size="14" font-weight="600" fill="#64748b" letter-spacing="1">SEO SCORE STATES - TRAFFIC LIGHT INDICATORS</text>

  <!-- STATE 1: RED (Poor) - Score 0-49 -->
  <g id="state-red" transform="translate(40, 60)">
    <rect x="0" y="0" width="420" height="340" rx="8" fill="#1e293b" stroke="#ef4444" stroke-width="2"/>

    <!-- Header -->
    <rect x="0" y="0" width="420" height="40" rx="8" fill="#ef4444" opacity="0.2"/>
    <rect x="0" y="32" width="420" height="8" fill="#1e293b"/>
    <circle cx="25" cy="20" r="10" fill="#ef4444"/>
    <text x="45" y="26" class="heading">POOR (0-49)</text>
    <text x="380" y="26" text-anchor="end" class="text-sm">Needs Work</text>

    <!-- Score Display -->
    <rect x="20" y="55" width="380" height="90" rx="6" fill="#0f172a" stroke="#ef4444" stroke-width="1"/>
    <text x="40" y="80" class="text-sm">OVERALL SCORE</text>
    <text x="40" y="125" fill="#ef4444" font-family="system-ui, sans-serif" font-size="42" font-weight="bold">32</text>
    <text x="100" y="125" fill="#ef4444" font-family="system-ui, sans-serif" font-size="18">/100</text>

    <!-- Traffic light visualization -->
    <g transform="translate(320, 70)">
      <rect x="0" y="0" width="60" height="60" rx="8" fill="#334155"/>
      <circle cx="30" cy="30" r="22" fill="#ef4444" opacity="0.3"/>
      <circle cx="30" cy="30" r="16" fill="#ef4444"/>
      <text x="30" y="36" text-anchor="middle" fill="#fff" font-family="system-ui, sans-serif" font-size="14" font-weight="bold">!</text>
    </g>

    <!-- Critical Issues -->
    <text x="30" y="170" class="heading">Critical Issues (5)</text>

    <rect x="20" y="180" width="380" height="36" rx="4" fill="#0f172a"/>
    <circle cx="38" cy="198" r="6" fill="#ef4444"/>
    <text x="52" y="194" class="text-md">Missing meta description</text>
    <text x="52" y="208" class="text-muted">Required for search results</text>

    <rect x="20" y="222" width="380" height="36" rx="4" fill="#0f172a"/>
    <circle cx="38" cy="240" r="6" fill="#ef4444"/>
    <text x="52" y="236" class="text-md">Title too long (85 chars)</text>
    <text x="52" y="250" class="text-muted">Reduce to 50-60 characters</text>

    <rect x="20" y="264" width="380" height="36" rx="4" fill="#0f172a"/>
    <circle cx="38" cy="282" r="6" fill="#ef4444"/>
    <text x="52" y="278" class="text-md">No focus keyword found</text>
    <text x="52" y="292" class="text-muted">Add focusKeyword to frontmatter</text>

    <!-- Action button -->
    <rect x="20" y="310" width="380" height="20" rx="4" fill="#ef4444" opacity="0.2"/>
    <text x="210" y="324" text-anchor="middle" fill="#ef4444" font-family="system-ui, sans-serif" font-size="10">Fix critical issues to improve ranking</text>
  </g>

  <!-- STATE 2: YELLOW (Needs Improvement) - Score 50-69 -->
  <g id="state-yellow" transform="translate(490, 60)">
    <rect x="0" y="0" width="420" height="340" rx="8" fill="#1e293b" stroke="#eab308" stroke-width="2"/>

    <!-- Header -->
    <rect x="0" y="0" width="420" height="40" rx="8" fill="#eab308" opacity="0.2"/>
    <rect x="0" y="32" width="420" height="8" fill="#1e293b"/>
    <circle cx="25" cy="20" r="10" fill="#eab308"/>
    <text x="45" y="26" class="heading">NEEDS IMPROVEMENT (50-69)</text>
    <text x="380" y="26" text-anchor="end" class="text-sm">Almost There</text>

    <!-- Score Display -->
    <rect x="20" y="55" width="380" height="90" rx="6" fill="#0f172a" stroke="#eab308" stroke-width="1"/>
    <text x="40" y="80" class="text-sm">OVERALL SCORE</text>
    <text x="40" y="125" fill="#eab308" font-family="system-ui, sans-serif" font-size="42" font-weight="bold">58</text>
    <text x="100" y="125" fill="#eab308" font-family="system-ui, sans-serif" font-size="18">/100</text>

    <!-- Traffic light visualization -->
    <g transform="translate(320, 70)">
      <rect x="0" y="0" width="60" height="60" rx="8" fill="#334155"/>
      <circle cx="30" cy="30" r="22" fill="#eab308" opacity="0.3"/>
      <circle cx="30" cy="30" r="16" fill="#eab308"/>
      <text x="30" y="36" text-anchor="middle" fill="#000" font-family="system-ui, sans-serif" font-size="14" font-weight="bold">~</text>
    </g>

    <!-- Warnings -->
    <text x="30" y="170" class="heading">Warnings (3)</text>

    <rect x="20" y="180" width="380" height="36" rx="4" fill="#0f172a"/>
    <circle cx="38" cy="198" r="6" fill="#eab308"/>
    <text x="52" y="194" class="text-md">Passive voice at 15%</text>
    <text x="52" y="208" class="text-muted">Target: below 10%</text>

    <rect x="20" y="222" width="380" height="36" rx="4" fill="#0f172a"/>
    <circle cx="38" cy="240" r="6" fill="#eab308"/>
    <text x="52" y="236" class="text-md">Long paragraphs detected</text>
    <text x="52" y="250" class="text-muted">Break into 3-5 sentences each</text>

    <rect x="20" y="264" width="380" height="36" rx="4" fill="#0f172a"/>
    <circle cx="38" cy="282" r="6" fill="#eab308"/>
    <text x="52" y="278" class="text-md">Keyword density low (1.2%)</text>
    <text x="52" y="292" class="text-muted">Target: 2-3%</text>

    <!-- Action button -->
    <rect x="20" y="310" width="380" height="20" rx="4" fill="#eab308" opacity="0.2"/>
    <text x="210" y="324" text-anchor="middle" fill="#eab308" font-family="system-ui, sans-serif" font-size="10">Address warnings for better visibility</text>
  </g>

  <!-- STATE 3: GREEN (Optimized) - Score 70-100 -->
  <g id="state-green" transform="translate(940, 60)">
    <rect x="0" y="0" width="420" height="340" rx="8" fill="#1e293b" stroke="#22c55e" stroke-width="2"/>

    <!-- Header -->
    <rect x="0" y="0" width="420" height="40" rx="8" fill="#22c55e" opacity="0.2"/>
    <rect x="0" y="32" width="420" height="8" fill="#1e293b"/>
    <circle cx="25" cy="20" r="10" fill="#22c55e"/>
    <text x="45" y="26" class="heading">OPTIMIZED (70-100)</text>
    <text x="380" y="26" text-anchor="end" class="text-sm">Ready to Publish</text>

    <!-- Score Display -->
    <rect x="20" y="55" width="380" height="90" rx="6" fill="#0f172a" stroke="#22c55e" stroke-width="1"/>
    <text x="40" y="80" class="text-sm">OVERALL SCORE</text>
    <text x="40" y="125" fill="#22c55e" font-family="system-ui, sans-serif" font-size="42" font-weight="bold">86</text>
    <text x="100" y="125" fill="#22c55e" font-family="system-ui, sans-serif" font-size="18">/100</text>

    <!-- Traffic light visualization -->
    <g transform="translate(320, 70)">
      <rect x="0" y="0" width="60" height="60" rx="8" fill="#334155"/>
      <circle cx="30" cy="30" r="22" fill="#22c55e" opacity="0.3"/>
      <circle cx="30" cy="30" r="16" fill="#22c55e"/>
      <text x="30" y="36" text-anchor="middle" fill="#fff" font-family="system-ui, sans-serif" font-size="14" font-weight="bold">✓</text>
    </g>

    <!-- Passed Checks -->
    <text x="30" y="170" class="heading">All Checks Passed (8)</text>

    <rect x="20" y="180" width="380" height="36" rx="4" fill="#0f172a"/>
    <circle cx="38" cy="198" r="6" fill="#22c55e"/>
    <text x="52" y="194" class="text-md">Readability score: 67</text>
    <text x="380" y="198" text-anchor="end" fill="#22c55e" font-family="system-ui, sans-serif" font-size="12">✓</text>

    <rect x="20" y="222" width="380" height="36" rx="4" fill="#0f172a"/>
    <circle cx="38" cy="240" r="6" fill="#22c55e"/>
    <text x="52" y="236" class="text-md">Title length: 54 characters</text>
    <text x="380" y="240" text-anchor="end" fill="#22c55e" font-family="system-ui, sans-serif" font-size="12">✓</text>

    <rect x="20" y="264" width="380" height="36" rx="4" fill="#0f172a"/>
    <circle cx="38" cy="282" r="6" fill="#22c55e"/>
    <text x="52" y="278" class="text-md">Keyword density: 2.4%</text>
    <text x="380" y="282" text-anchor="end" fill="#22c55e" font-family="system-ui, sans-serif" font-size="12">✓</text>

    <!-- Action button -->
    <rect x="20" y="310" width="380" height="20" rx="4" fill="#22c55e" opacity="0.2"/>
    <text x="210" y="324" text-anchor="middle" fill="#22c55e" font-family="system-ui, sans-serif" font-size="10">Content is optimized for search engines</text>
  </g>

  <!-- Score Transition Flow -->
  <g id="transition-flow" transform="translate(40, 430)">
    <rect x="0" y="0" width="1320" height="160" rx="8" fill="#1e293b" stroke="#475569" stroke-width="1"/>

    <text x="660" y="30" text-anchor="middle" class="heading">Score Transition Flow</text>

    <!-- Flow diagram -->
    <g transform="translate(100, 60)">
      <!-- State circles -->
      <circle cx="0" cy="40" r="35" fill="#ef4444" opacity="0.3"/>
      <circle cx="0" cy="40" r="28" fill="#ef4444"/>
      <text x="0" y="36" text-anchor="middle" fill="#fff" font-family="system-ui, sans-serif" font-size="12" font-weight="bold">POOR</text>
      <text x="0" y="50" text-anchor="middle" fill="#fff" font-family="system-ui, sans-serif" font-size="10">0-49</text>

      <!-- Arrow 1 -->
      <line x1="45" y1="40" x2="155" y2="40" stroke="#475569" stroke-width="2" stroke-dasharray="4,2"/>
      <polygon points="155,35 165,40 155,45" fill="#475569"/>
      <text x="100" y="25" text-anchor="middle" class="text-muted">Fix critical</text>

      <circle cx="200" cy="40" r="35" fill="#eab308" opacity="0.3"/>
      <circle cx="200" cy="40" r="28" fill="#eab308"/>
      <text x="200" y="36" text-anchor="middle" fill="#000" font-family="system-ui, sans-serif" font-size="11" font-weight="bold">IMPROVE</text>
      <text x="200" y="50" text-anchor="middle" fill="#000" font-family="system-ui, sans-serif" font-size="10">50-69</text>

      <!-- Arrow 2 -->
      <line x1="245" y1="40" x2="355" y2="40" stroke="#475569" stroke-width="2" stroke-dasharray="4,2"/>
      <polygon points="355,35 365,40 355,45" fill="#475569"/>
      <text x="300" y="25" text-anchor="middle" class="text-muted">Address warnings</text>

      <circle cx="400" cy="40" r="35" fill="#22c55e" opacity="0.3"/>
      <circle cx="400" cy="40" r="28" fill="#22c55e"/>
      <text x="400" y="36" text-anchor="middle" fill="#fff" font-family="system-ui, sans-serif" font-size="10" font-weight="bold">OPTIMIZED</text>
      <text x="400" y="50" text-anchor="middle" fill="#fff" font-family="system-ui, sans-serif" font-size="10">70-100</text>
    </g>

    <!-- Update timing note -->
    <rect x="620" y="55" width="660" height="80" rx="6" fill="#0f172a"/>
    <text x="640" y="80" class="heading">Real-time Updates</text>
    <text x="640" y="100" class="text-md">• Score updates within 500ms of typing (debounced)</text>
    <text x="640" y="116" class="text-md">• Traffic light indicator transitions smoothly</text>
    <text x="640" y="132" class="text-md">• Suggestions list re-prioritizes automatically</text>
  </g>

  <!-- Score Breakdown Formula -->
  <g id="formula" transform="translate(40, 610)">
    <rect x="0" y="0" width="1320" height="150" rx="8" fill="#1e293b" stroke="#475569" stroke-width="1"/>

    <text x="660" y="30" text-anchor="middle" class="heading">Score Calculation Breakdown</text>

    <!-- Metric weights -->
    <g transform="translate(40, 50)">
      <rect x="0" y="0" width="150" height="80" rx="6" fill="#0f172a"/>
      <text x="75" y="22" text-anchor="middle" class="text-sm">Readability</text>
      <text x="75" y="50" text-anchor="middle" fill="#8b5cf6" font-family="system-ui, sans-serif" font-size="24" font-weight="bold">20%</text>
      <text x="75" y="70" text-anchor="middle" class="text-muted">Flesch 60-70</text>
    </g>

    <g transform="translate(210, 50)">
      <rect x="0" y="0" width="150" height="80" rx="6" fill="#0f172a"/>
      <text x="75" y="22" text-anchor="middle" class="text-sm">Title/Meta</text>
      <text x="75" y="50" text-anchor="middle" fill="#8b5cf6" font-family="system-ui, sans-serif" font-size="24" font-weight="bold">25%</text>
      <text x="75" y="70" text-anchor="middle" class="text-muted">Length optimal</text>
    </g>

    <g transform="translate(380, 50)">
      <rect x="0" y="0" width="150" height="80" rx="6" fill="#0f172a"/>
      <text x="75" y="22" text-anchor="middle" class="text-sm">Keywords</text>
      <text x="75" y="50" text-anchor="middle" fill="#8b5cf6" font-family="system-ui, sans-serif" font-size="24" font-weight="bold">20%</text>
      <text x="75" y="70" text-anchor="middle" class="text-muted">Density 2-3%</text>
    </g>

    <g transform="translate(550, 50)">
      <rect x="0" y="0" width="150" height="80" rx="6" fill="#0f172a"/>
      <text x="75" y="22" text-anchor="middle" class="text-sm">Structure</text>
      <text x="75" y="50" text-anchor="middle" fill="#8b5cf6" font-family="system-ui, sans-serif" font-size="24" font-weight="bold">15%</text>
      <text x="75" y="70" text-anchor="middle" class="text-muted">H1→H2→H3</text>
    </g>

    <g transform="translate(720, 50)">
      <rect x="0" y="0" width="150" height="80" rx="6" fill="#0f172a"/>
      <text x="75" y="22" text-anchor="middle" class="text-sm">Sentences</text>
      <text x="75" y="50" text-anchor="middle" fill="#8b5cf6" font-family="system-ui, sans-serif" font-size="24" font-weight="bold">10%</text>
      <text x="75" y="70" text-anchor="middle" class="text-muted">15-20 words</text>
    </g>

    <g transform="translate(890, 50)">
      <rect x="0" y="0" width="150" height="80" rx="6" fill="#0f172a"/>
      <text x="75" y="22" text-anchor="middle" class="text-sm">Passive Voice</text>
      <text x="75" y="50" text-anchor="middle" fill="#8b5cf6" font-family="system-ui, sans-serif" font-size="24" font-weight="bold">10%</text>
      <text x="75" y="70" text-anchor="middle" class="text-muted">&lt;10%</text>
    </g>

    <!-- Total -->
    <g transform="translate(1100, 50)">
      <rect x="0" y="0" width="150" height="80" rx="6" fill="#8b5cf6" opacity="0.2" stroke="#8b5cf6" stroke-width="2"/>
      <text x="75" y="22" text-anchor="middle" class="text-sm">TOTAL</text>
      <text x="75" y="50" text-anchor="middle" fill="#8b5cf6" font-family="system-ui, sans-serif" font-size="24" font-weight="bold">100%</text>
      <text x="75" y="70" text-anchor="middle" class="text-muted">Combined</text>
    </g>
  </g>
</svg>