<svg xmlns="http://www.w3.org/2000/svg" viewBox="0 0 1400 800" width="1400" height="800">
  <!-- ============================================================
       GENERATED BY: /wireframe skill
       SOURCE: features/polish/029-seo-editorial-assistant/spec.md
       DATE: 2026-01-01
       THEME: Light (UX/Frontend) - v3 True Parchment
       DO NOT MANUALLY EDIT - Regenerate with /wireframe command
       ============================================================ -->
  <defs>
    <linearGradient id="bgGrad" x1="0%" y1="0%" x2="100%" y2="100%">
      <stop offset="0%" style="stop-color:#c7ddf5"/>
      <stop offset="100%" style="stop-color:#b8d4f0"/>
    </linearGradient>
    <linearGradient id="accentGrad" x1="0%" y1="0%" x2="100%" y2="0%">
      <stop offset="0%" style="stop-color:#8b5cf6"/>
      <stop offset="100%" style="stop-color:#d946ef"/>
    </linearGradient>
    <style>
      .heading-lg { fill: #1a1a2e; font-family: system-ui, sans-serif; font-size: 24px; font-weight: 800; }
      .heading { fill: #1a1a2e; font-family: system-ui, sans-serif; font-size: 16px; font-weight: 700; }
      .heading-sm { fill: #1a1a2e; font-family: system-ui, sans-serif; font-size: 14px; font-weight: 700; }
      .text-md { fill: #2d3748; font-family: system-ui, sans-serif; font-size: 14px; font-weight: 500; }
      .text-sm { fill: #4a5568; font-family: system-ui, sans-serif; font-size: 12px; font-weight: 500; }
      .text-muted { fill: #5a6577; font-family: system-ui, sans-serif; font-size: 11px; font-weight: 500; }
      .annotation { fill: #8b5cf6; font-family: monospace; font-size: 12px; font-weight: 600; }
      .label-desktop { fill: #8b5cf6; font-family: monospace; font-size: 13px; font-weight: bold; }
      .label-mobile { fill: #d946ef; font-family: monospace; font-size: 13px; font-weight: bold; }
      .score-good { fill: #22c55e; }
      .score-warn { fill: #eab308; }
      .score-bad { fill: #ef4444; }
    </style>
  </defs>

  <!-- Background -->
  <rect width="1400" height="800" fill="url(#bgGrad)"/>

  <!-- Dot grid pattern -->
  <g opacity="0.35">
    <pattern id="dots" width="30" height="30" patternUnits="userSpaceOnUse">
      <circle cx="15" cy="15" r="1" fill="#6b8cba"/>
    </pattern>
    <rect width="1400" height="800" fill="url(#dots)"/>
  </g>

  <!-- Accent line top -->
  <rect x="0" y="0" width="1400" height="3" fill="url(#accentGrad)"/>

  <!-- Title -->
  <text x="700" y="28" text-anchor="middle" font-family="system-ui, sans-serif" font-size="14" font-weight="600" fill="#5a6577" letter-spacing="1">SEO EDITORIAL ASSISTANT — SEO SCORE DETAIL &amp; SUGGESTIONS</text>

  <!-- DESKTOP SECTION -->
  <text x="40" y="52" class="label-desktop">DESKTOP — SEO PANEL EXPANDED</text>
  <g id="desktop-view">
    <!-- Main SEO Panel -->
    <rect x="40" y="60" width="900" height="680" rx="8" fill="#e8d4b8" stroke="#b8a080" stroke-width="1"/>

    <!-- Header -->
    <rect x="40" y="60" width="900" height="50" rx="8" fill="#dcc8a8"/>
    <text x="60" y="90" class="heading">SEO Analysis: Getting Started Guide</text>
    <rect x="820" y="70" width="100" height="30" rx="15" fill="#22c55e"/>
    <text x="870" y="90" text-anchor="middle" fill="#fff" font-family="system-ui, sans-serif" font-size="13" font-weight="600">82/100</text>

    <!-- Score breakdown section -->
    <g transform="translate(60, 130)">
      <text x="0" y="0" class="heading">Score Breakdown</text>

      <!-- Score circle -->
      <g transform="translate(70, 90)">
        <circle cx="0" cy="0" r="60" fill="none" stroke="#dcc8a8" stroke-width="10"/>
        <circle cx="0" cy="0" r="60" fill="none" stroke="#22c55e" stroke-width="10"
                stroke-dasharray="310" stroke-dashoffset="56" transform="rotate(-90)"/>
        <text x="0" y="10" text-anchor="middle" class="heading-lg" font-size="32" fill="#22c55e">82</text>
        <text x="0" y="30" text-anchor="middle" class="text-muted">GOOD</text>
      </g>

      <!-- Score legend -->
      <g transform="translate(160, 40)">
        <rect x="0" y="0" width="15" height="15" rx="3" fill="#22c55e"/>
        <text x="22" y="12" class="text-sm">70-100: Good</text>

        <rect x="0" y="25" width="15" height="15" rx="3" fill="#eab308"/>
        <text x="22" y="37" class="text-sm">40-69: Needs Work</text>

        <rect x="0" y="50" width="15" height="15" rx="3" fill="#ef4444"/>
        <text x="22" y="62" class="text-sm">0-39: Poor</text>
      </g>
    </g>

    <!-- Metrics Grid -->
    <g transform="translate(300, 130)">
      <text x="0" y="0" class="heading">Detailed Metrics</text>

      <!-- Row 1 -->
      <g transform="translate(0, 25)">
        <!-- Readability -->
        <rect x="0" y="0" width="280" height="70" rx="6" fill="#f5f0e6" stroke="#22c55e" stroke-width="2"/>
        <text x="15" y="25" class="heading-sm">Flesch Readability</text>
        <text x="15" y="45" class="text-md" fill="#22c55e" font-weight="700">68 / 100</text>
        <text x="15" y="62" class="text-muted">Target: 60-70 ✓</text>
        <circle cx="255" cy="35" r="12" fill="#22c55e"/>
        <text x="255" y="40" text-anchor="middle" fill="#fff" font-size="14">✓</text>

        <!-- Sentence length -->
        <rect x="300" y="0" width="280" height="70" rx="6" fill="#f5f0e6" stroke="#22c55e" stroke-width="2"/>
        <text x="315" y="25" class="heading-sm">Avg Sentence Length</text>
        <text x="315" y="45" class="text-md" fill="#22c55e" font-weight="700">17 words</text>
        <text x="315" y="62" class="text-muted">Target: 15-20 ✓</text>
        <circle cx="555" cy="35" r="12" fill="#22c55e"/>
        <text x="555" y="40" text-anchor="middle" fill="#fff" font-size="14">✓</text>
      </g>

      <!-- Row 2 -->
      <g transform="translate(0, 110)">
        <!-- Title length -->
        <rect x="0" y="0" width="280" height="70" rx="6" fill="#f5f0e6" stroke="#22c55e" stroke-width="2"/>
        <text x="15" y="25" class="heading-sm">Title Length</text>
        <text x="15" y="45" class="text-md" fill="#22c55e" font-weight="700">22 characters</text>
        <text x="15" y="62" class="text-muted">Optimal: 50-60 ✓</text>
        <circle cx="255" cy="35" r="12" fill="#22c55e"/>
        <text x="255" y="40" text-anchor="middle" fill="#fff" font-size="14">✓</text>

        <!-- Meta description -->
        <rect x="300" y="0" width="280" height="70" rx="6" fill="#f5f0e6" stroke="#eab308" stroke-width="2"/>
        <text x="315" y="25" class="heading-sm">Meta Description</text>
        <text x="315" y="45" class="text-md" fill="#eab308" font-weight="700">142 characters</text>
        <text x="315" y="62" class="text-muted">Optimal: 150-160 ⚠</text>
        <circle cx="555" cy="35" r="12" fill="#eab308"/>
        <text x="555" y="40" text-anchor="middle" fill="#fff" font-size="14">!</text>
      </g>

      <!-- Row 3 -->
      <g transform="translate(0, 195)">
        <!-- Keyword density -->
        <rect x="0" y="0" width="280" height="70" rx="6" fill="#f5f0e6" stroke="#22c55e" stroke-width="2"/>
        <text x="15" y="25" class="heading-sm">Keyword Density</text>
        <text x="15" y="45" class="text-md" fill="#22c55e" font-weight="700">2.4%</text>
        <text x="15" y="62" class="text-muted">Target: 2-3% ✓</text>
        <circle cx="255" cy="35" r="12" fill="#22c55e"/>
        <text x="255" y="40" text-anchor="middle" fill="#fff" font-size="14">✓</text>

        <!-- Passive voice -->
        <rect x="300" y="0" width="280" height="70" rx="6" fill="#f5f0e6" stroke="#22c55e" stroke-width="2"/>
        <text x="315" y="25" class="heading-sm">Passive Voice</text>
        <text x="315" y="45" class="text-md" fill="#22c55e" font-weight="700">8%</text>
        <text x="315" y="62" class="text-muted">Target: &lt;10% ✓</text>
        <circle cx="555" cy="35" r="12" fill="#22c55e"/>
        <text x="555" y="40" text-anchor="middle" fill="#fff" font-size="14">✓</text>
      </g>

      <!-- Row 4 -->
      <g transform="translate(0, 280)">
        <!-- Heading hierarchy -->
        <rect x="0" y="0" width="280" height="70" rx="6" fill="#f5f0e6" stroke="#22c55e" stroke-width="2"/>
        <text x="15" y="25" class="heading-sm">Heading Hierarchy</text>
        <text x="15" y="45" class="text-md" fill="#22c55e" font-weight="700">Valid</text>
        <text x="15" y="62" class="text-muted">H1 → H2 → H3 ✓</text>
        <circle cx="255" cy="35" r="12" fill="#22c55e"/>
        <text x="255" y="40" text-anchor="middle" fill="#fff" font-size="14">✓</text>

        <!-- Word count -->
        <rect x="300" y="0" width="280" height="70" rx="6" fill="#f5f0e6" stroke="#22c55e" stroke-width="2"/>
        <text x="315" y="25" class="heading-sm">Word Count</text>
        <text x="315" y="45" class="text-md" fill="#22c55e" font-weight="700">1,247 words</text>
        <text x="315" y="62" class="text-muted">Minimum: 300 ✓</text>
        <circle cx="555" cy="35" r="12" fill="#22c55e"/>
        <text x="555" y="40" text-anchor="middle" fill="#fff" font-size="14">✓</text>
      </g>
    </g>

    <!-- Suggestions Panel -->
    <g transform="translate(60, 485)">
      <text x="0" y="0" class="heading">Improvement Suggestions</text>
      <text x="200" y="0" class="text-muted">(1 item needs attention)</text>

      <!-- Suggestion card -->
      <rect x="0" y="20" width="860" height="80" rx="6" fill="#f5f0e6" stroke="#eab308" stroke-width="2"/>
      <rect x="0" y="20" width="6" height="80" rx="3" fill="#eab308"/>
      <text x="25" y="45" class="heading-sm">Lengthen Meta Description</text>
      <text x="25" y="65" class="text-sm">Your meta description is 142 characters. Add 10-20 more characters for optimal</text>
      <text x="25" y="82" class="text-sm">search result display (target: 150-160 characters).</text>
      <rect x="720" y="40" width="120" height="32" rx="6" fill="#eab308"/>
      <text x="780" y="61" text-anchor="middle" fill="#fff" font-family="system-ui, sans-serif" font-size="12" font-weight="600">Fix This →</text>

      <!-- Optional suggestion -->
      <rect x="0" y="110" width="860" height="80" rx="6" fill="#f5f0e6" stroke="#b8a080" stroke-width="1"/>
      <text x="25" y="135" class="heading-sm" fill="#5a6577">Optional: Add Visual Content</text>
      <text x="25" y="155" class="text-sm" fill="#5a6577">Consider adding an image with alt text to improve engagement. Articles with</text>
      <text x="25" y="172" class="text-sm" fill="#5a6577">images receive 94% more views on average.</text>
      <rect x="720" y="130" width="120" height="32" rx="6" fill="#dcc8a8" stroke="#b8a080" stroke-width="1"/>
      <text x="780" y="151" text-anchor="middle" class="text-sm">Learn More</text>
    </g>

    <!-- Focus keyword display -->
    <g transform="translate(60, 620)">
      <text x="0" y="0" class="heading-sm">Focus Keyword</text>
      <rect x="0" y="10" width="200" height="32" rx="6" fill="#f5f0e6" stroke="#8b5cf6" stroke-width="1"/>
      <text x="15" y="31" class="text-md" fill="#8b5cf6">"getting started"</text>
      <circle cx="180" cy="26" r="8" fill="#22c55e"/>
      <text x="220" y="31" class="text-sm">✓ Found in title, H1, first paragraph</text>
    </g>
  </g>

  <!-- MOBILE SECTION -->
  <text x="980" y="52" class="label-mobile">MOBILE — SEO TAB</text>
  <g id="mobile-view" transform="translate(980, 60)">
    <!-- Phone frame -->
    <rect x="0" y="0" width="360" height="700" rx="24" fill="#c8b898" stroke="#a08860" stroke-width="2"/>
    <rect x="10" y="10" width="340" height="680" rx="16" fill="#e8d4b8"/>

    <!-- Status bar -->
    <rect x="10" y="10" width="340" height="28" rx="16" fill="#dcc8a8"/>
    <text x="30" y="28" class="text-sm">9:41</text>
    <text x="320" y="28" class="text-sm" text-anchor="end">📶 🔋</text>

    <!-- Header -->
    <rect x="10" y="38" width="340" height="50" fill="#dcc8a8"/>
    <text x="30" y="68" class="text-sm">←</text>
    <text x="180" y="68" text-anchor="middle" class="heading-sm">SEO Analysis</text>

    <!-- Tab switcher -->
    <g transform="translate(20, 98)">
      <rect x="0" y="0" width="150" height="32" rx="6" fill="#dcc8a8" stroke="#b8a080" stroke-width="1"/>
      <text x="75" y="21" text-anchor="middle" class="text-sm">Editor</text>
      <rect x="160" y="0" width="150" height="32" rx="6" fill="#8b5cf6"/>
      <text x="235" y="21" text-anchor="middle" fill="#fff" font-family="system-ui, sans-serif" font-size="12" font-weight="600">SEO Panel</text>
    </g>

    <!-- Score circle -->
    <g transform="translate(180, 200)">
      <circle cx="0" cy="0" r="50" fill="none" stroke="#dcc8a8" stroke-width="8"/>
      <circle cx="0" cy="0" r="50" fill="none" stroke="#22c55e" stroke-width="8"
              stroke-dasharray="258" stroke-dashoffset="46" transform="rotate(-90)"/>
      <text x="0" y="8" text-anchor="middle" class="heading-lg" fill="#22c55e">82</text>
      <text x="0" y="25" text-anchor="middle" class="text-muted">/100</text>
    </g>
    <text x="180" y="270" text-anchor="middle" class="text-sm" fill="#22c55e" font-weight="600">GOOD</text>

    <!-- Metrics list -->
    <g transform="translate(20, 290)">
      <text x="0" y="0" class="heading-sm">Metrics</text>

      <g transform="translate(0, 20)">
        <rect x="0" y="0" width="320" height="40" rx="6" fill="#f5f0e6" stroke="#b8a080" stroke-width="1"/>
        <circle cx="20" cy="20" r="8" fill="#22c55e"/>
        <text x="38" y="25" class="text-sm">Readability: 68 (Good)</text>
      </g>

      <g transform="translate(0, 65)">
        <rect x="0" y="0" width="320" height="40" rx="6" fill="#f5f0e6" stroke="#b8a080" stroke-width="1"/>
        <circle cx="20" cy="20" r="8" fill="#22c55e"/>
        <text x="38" y="25" class="text-sm">Title: 22 chars (Optimal)</text>
      </g>

      <g transform="translate(0, 110)">
        <rect x="0" y="0" width="320" height="40" rx="6" fill="#f5f0e6" stroke="#eab308" stroke-width="2"/>
        <circle cx="20" cy="20" r="8" fill="#eab308"/>
        <text x="38" y="25" class="text-sm">Meta: 142 chars (Short)</text>
      </g>

      <g transform="translate(0, 155)">
        <rect x="0" y="0" width="320" height="40" rx="6" fill="#f5f0e6" stroke="#b8a080" stroke-width="1"/>
        <circle cx="20" cy="20" r="8" fill="#22c55e"/>
        <text x="38" y="25" class="text-sm">Keyword: 2.4% (Optimal)</text>
      </g>
    </g>

    <!-- Suggestion card -->
    <g transform="translate(20, 510)">
      <text x="0" y="0" class="heading-sm">Suggestions (1)</text>
      <rect x="0" y="15" width="320" height="65" rx="6" fill="#f5f0e6" stroke="#eab308" stroke-width="2"/>
      <rect x="0" y="15" width="5" height="65" rx="2" fill="#eab308"/>
      <text x="15" y="38" class="text-sm" font-weight="600">Lengthen Meta Description</text>
      <text x="15" y="55" class="text-muted">Add 10-20 more characters</text>
      <rect x="230" y="35" width="75" height="28" rx="6" fill="#eab308"/>
      <text x="267" y="54" text-anchor="middle" fill="#fff" font-family="system-ui, sans-serif" font-size="11" font-weight="600">Fix</text>
    </g>

    <!-- Terminal button -->
    <rect x="20" y="600" width="320" height="40" rx="6" fill="#dcc8a8" stroke="#b8a080" stroke-width="1"/>
    <text x="180" y="625" text-anchor="middle" class="text-sm">📋 Copy Terminal Output</text>

    <!-- Mobile nav bar -->
    <rect x="10" y="658" width="340" height="32" fill="#dcc8a8" rx="0 0 16 16"/>
    <text x="85" y="678" text-anchor="middle" class="text-muted">📝 Posts</text>
    <text x="180" y="678" text-anchor="middle" class="text-muted">✏️ Editor</text>
    <text x="275" y="678" text-anchor="middle" class="text-sm" fill="#8b5cf6">📊 SEO</text>
  </g>

  <!-- Annotations -->
  <g id="annotations">
    <rect x="60" y="740" width="130" height="35" rx="4" fill="#e8d4b8" stroke="#8b5cf6" stroke-width="1"/>
    <text x="125" y="755" text-anchor="middle" class="annotation">FR-017</text>
    <text x="125" y="770" text-anchor="middle" class="text-muted">Score 0-100</text>

    <rect x="350" y="740" width="150" height="35" rx="4" fill="#e8d4b8" stroke="#8b5cf6" stroke-width="1"/>
    <text x="425" y="755" text-anchor="middle" class="annotation">FR-007-016</text>
    <text x="425" y="770" text-anchor="middle" class="text-muted">All SEO metrics</text>

    <rect x="700" y="740" width="150" height="35" rx="4" fill="#e8d4b8" stroke="#8b5cf6" stroke-width="1"/>
    <text x="775" y="755" text-anchor="middle" class="annotation">FR-018-019</text>
    <text x="775" y="770" text-anchor="middle" class="text-muted">Traffic light + tips</text>
  </g>
</svg>