<svg xmlns="http://www.w3.org/2000/svg" viewBox="0 0 1400 800" width="1400" height="800">
  <!-- ============================================================
       GENERATED BY: /wireframe skill
       SOURCE: features/polish/029-seo-editorial-assistant/spec.md
       DATE: 2026-01-01
       THEME: Light (UX/Frontend) - v3 True Parchment
       DO NOT MANUALLY EDIT - Regenerate with /wireframe command
       ============================================================ -->
  <defs>
    <linearGradient id="bgGrad" x1="0%" y1="0%" x2="100%" y2="100%">
      <stop offset="0%" style="stop-color:#c7ddf5"/>
      <stop offset="100%" style="stop-color:#b8d4f0"/>
    </linearGradient>
    <linearGradient id="accentGrad" x1="0%" y1="0%" x2="100%" y2="0%">
      <stop offset="0%" style="stop-color:#8b5cf6"/>
      <stop offset="100%" style="stop-color:#d946ef"/>
    </linearGradient>
    <style>
      .heading-lg { fill: #1a1a2e; font-family: system-ui, sans-serif; font-size: 24px; font-weight: 800; }
      .heading { fill: #1a1a2e; font-family: system-ui, sans-serif; font-size: 16px; font-weight: 700; }
      .heading-sm { fill: #1a1a2e; font-family: system-ui, sans-serif; font-size: 14px; font-weight: 700; }
      .text-md { fill: #2d3748; font-family: system-ui, sans-serif; font-size: 14px; font-weight: 500; }
      .text-sm { fill: #4a5568; font-family: system-ui, sans-serif; font-size: 12px; font-weight: 500; }
      .text-muted { fill: #5a6577; font-family: system-ui, sans-serif; font-size: 11px; font-weight: 500; }
      .annotation { fill: #8b5cf6; font-family: monospace; font-size: 12px; font-weight: 600; }
      .label-desktop { fill: #8b5cf6; font-family: monospace; font-size: 13px; font-weight: bold; }
      .label-mobile { fill: #d946ef; font-family: monospace; font-size: 13px; font-weight: bold; }
      .code { fill: #4a5568; font-family: monospace; font-size: 11px; }
    </style>
  </defs>

  <!-- Background -->
  <rect width="1400" height="800" fill="url(#bgGrad)"/>

  <!-- Dot grid pattern -->
  <g opacity="0.35">
    <pattern id="dots" width="30" height="30" patternUnits="userSpaceOnUse">
      <circle cx="15" cy="15" r="1" fill="#6b8cba"/>
    </pattern>
    <rect width="1400" height="800" fill="url(#dots)"/>
  </g>

  <!-- Accent line top -->
  <rect x="0" y="0" width="1400" height="3" fill="url(#accentGrad)"/>

  <!-- Title -->
  <text x="700" y="28" text-anchor="middle" font-family="system-ui, sans-serif" font-size="14" font-weight="600" fill="#5a6577" letter-spacing="1">SEO EDITORIAL ASSISTANT — EXPORT &amp; IMPORT WORKFLOW</text>

  <!-- EXPORT SECTION (Left side) -->
  <text x="40" y="52" class="label-desktop">EXPORT — SELECT &amp; BUNDLE</text>
  <g id="export-section">
    <!-- Export panel -->
    <rect x="40" y="60" width="440" height="680" rx="8" fill="#e8d4b8" stroke="#b8a080" stroke-width="1"/>

    <!-- Header -->
    <rect x="40" y="60" width="440" height="50" rx="8" fill="#dcc8a8"/>
    <text x="60" y="90" class="heading">Export Posts</text>
    <text x="380" y="90" class="text-muted" text-anchor="end">3 selected</text>

    <!-- Select all -->
    <g transform="translate(50, 125)">
      <rect x="0" y="0" width="22" height="22" rx="4" fill="#8b5cf6"/>
      <text x="11" y="16" text-anchor="middle" fill="#fff" font-size="14">−</text>
      <text x="35" y="16" class="text-md">Select All</text>
    </g>

    <!-- Post list with checkboxes -->
    <g transform="translate(50, 165)">
      <!-- Post 1 - Selected -->
      <rect x="0" y="0" width="420" height="70" rx="6" fill="#f5f0e6" stroke="#8b5cf6" stroke-width="2"/>
      <rect x="10" y="24" width="22" height="22" rx="4" fill="#8b5cf6"/>
      <text x="21" y="40" text-anchor="middle" fill="#fff" font-size="14">✓</text>
      <text x="45" y="30" class="heading-sm">Getting Started Guide</text>
      <text x="45" y="50" class="text-muted">Score: 82 • 1,247 words • Modified 2h ago</text>
      <circle cx="395" cy="35" r="10" fill="#22c55e"/>

      <!-- Post 2 - Selected -->
      <rect x="0" y="80" width="420" height="70" rx="6" fill="#f5f0e6" stroke="#8b5cf6" stroke-width="2"/>
      <rect x="10" y="104" width="22" height="22" rx="4" fill="#8b5cf6"/>
      <text x="21" y="120" text-anchor="middle" fill="#fff" font-size="14">✓</text>
      <text x="45" y="110" class="heading-sm">API Documentation</text>
      <text x="45" y="130" class="text-muted">Score: 65 • 2,340 words • Modified 1d ago</text>
      <circle cx="395" cy="115" r="10" fill="#eab308"/>

      <!-- Post 3 - Not selected -->
      <rect x="0" y="160" width="420" height="70" rx="6" fill="#f5f0e6" stroke="#b8a080" stroke-width="1"/>
      <rect x="10" y="184" width="22" height="22" rx="4" fill="#f5f0e6" stroke="#b8a080" stroke-width="1"/>
      <text x="45" y="190" class="heading-sm">Performance Tips</text>
      <text x="45" y="210" class="text-muted">Score: 45 • 890 words • Modified 3d ago</text>
      <circle cx="395" cy="195" r="10" fill="#ef4444"/>

      <!-- Post 4 - Selected -->
      <rect x="0" y="240" width="420" height="70" rx="6" fill="#f5f0e6" stroke="#8b5cf6" stroke-width="2"/>
      <rect x="10" y="264" width="22" height="22" rx="4" fill="#8b5cf6"/>
      <text x="21" y="280" text-anchor="middle" fill="#fff" font-size="14">✓</text>
      <text x="45" y="270" class="heading-sm">Security Best Practices</text>
      <text x="45" y="290" class="text-muted">Score: 78 • 1,560 words • Modified 5d ago</text>
      <circle cx="395" cy="275" r="10" fill="#22c55e"/>
    </g>

    <!-- Export options -->
    <g transform="translate(50, 510)">
      <text x="0" y="0" class="heading-sm">Export Options</text>

      <rect x="0" y="15" width="420" height="80" rx="6" fill="#f5f0e6" stroke="#b8a080" stroke-width="1"/>

      <g transform="translate(15, 35)">
        <rect x="0" y="0" width="18" height="18" rx="4" fill="#8b5cf6"/>
        <text x="9" y="14" text-anchor="middle" fill="#fff" font-size="12">✓</text>
        <text x="28" y="14" class="text-sm">Include SEO reports (JSON + TXT)</text>
      </g>

      <g transform="translate(15, 60)">
        <rect x="0" y="0" width="18" height="18" rx="4" fill="#8b5cf6"/>
        <text x="9" y="14" text-anchor="middle" fill="#fff" font-size="12">✓</text>
        <text x="28" y="14" class="text-sm">Generate summary.md</text>
      </g>
    </g>

    <!-- ZIP preview -->
    <g transform="translate(50, 610)">
      <text x="0" y="0" class="heading-sm">Bundle Preview</text>
      <rect x="0" y="15" width="420" height="80" rx="6" fill="#dcc8a8"/>
      <text x="15" y="38" class="code">📦 scripthammer-export-2026-01-01.zip</text>
      <text x="25" y="55" class="code">├── posts/ (3 files)</text>
      <text x="25" y="70" class="code">├── seo-reports/ (3 JSON, 3 TXT)</text>
      <text x="25" y="85" class="code">├── manifest.json, summary.md</text>
    </g>

    <!-- Export button -->
    <rect x="50" y="700" width="420" height="36" rx="6" fill="#8b5cf6"/>
    <text x="260" y="723" text-anchor="middle" fill="#fff" font-family="system-ui, sans-serif" font-size="14" font-weight="600">⬇ Download ZIP Bundle</text>
  </g>

  <!-- IMPORT SECTION (Right side) -->
  <text x="520" y="52" class="label-desktop">IMPORT — REVIEW &amp; MERGE</text>
  <g id="import-section">
    <!-- Import panel -->
    <rect x="500" y="60" width="440" height="680" rx="8" fill="#e8d4b8" stroke="#b8a080" stroke-width="1"/>

    <!-- Header -->
    <rect x="500" y="60" width="440" height="50" rx="8" fill="#dcc8a8"/>
    <text x="520" y="90" class="heading">Import Bundle</text>

    <!-- Upload zone -->
    <g transform="translate(520, 125)">
      <rect x="0" y="0" width="400" height="100" rx="8" fill="#f5f0e6" stroke="#8b5cf6" stroke-width="2" stroke-dasharray="8,4"/>
      <text x="200" y="40" text-anchor="middle" class="text-md" fill="#8b5cf6">📤 Drop ZIP file here</text>
      <text x="200" y="60" text-anchor="middle" class="text-muted">or click to browse</text>
      <rect x="140" y="70" width="120" height="24" rx="4" fill="#dcc8a8"/>
      <text x="200" y="86" text-anchor="middle" class="text-sm">Browse Files</text>
    </g>

    <!-- Validation status -->
    <g transform="translate(520, 240)">
      <rect x="0" y="0" width="400" height="50" rx="6" fill="#22c55e" opacity="0.15" stroke="#22c55e" stroke-width="1"/>
      <text x="15" y="20" class="text-md" fill="#22c55e" font-weight="600">✓ Bundle validated successfully</text>
      <text x="15" y="38" class="text-sm">3 posts, 6 SEO reports, valid manifest</text>
    </g>

    <!-- Diff section -->
    <g transform="translate(520, 305)">
      <text x="0" y="0" class="heading-sm">Changes to Review</text>

      <!-- Conflict item -->
      <rect x="0" y="15" width="400" height="100" rx="6" fill="#f5f0e6" stroke="#eab308" stroke-width="2"/>
      <rect x="0" y="15" width="6" height="100" rx="3" fill="#eab308"/>
      <text x="20" y="38" class="heading-sm">🔀 getting-started-guide.md</text>
      <text x="20" y="58" class="text-muted">File exists with different content</text>

      <rect x="20" y="70" width="110" height="28" rx="4" fill="#22c55e"/>
      <text x="75" y="89" text-anchor="middle" fill="#fff" font-family="system-ui, sans-serif" font-size="11" font-weight="600">Use Import</text>

      <rect x="140" y="70" width="110" height="28" rx="4" fill="#dcc8a8" stroke="#b8a080" stroke-width="1"/>
      <text x="195" y="89" text-anchor="middle" class="text-sm">Keep Existing</text>

      <rect x="260" y="70" width="100" height="28" rx="4" fill="#dcc8a8" stroke="#b8a080" stroke-width="1"/>
      <text x="310" y="89" text-anchor="middle" class="text-sm">View Diff</text>

      <!-- New file -->
      <rect x="0" y="125" width="400" height="55" rx="6" fill="#f5f0e6" stroke="#22c55e" stroke-width="1"/>
      <rect x="0" y="125" width="6" height="55" rx="3" fill="#22c55e"/>
      <text x="20" y="148" class="heading-sm">➕ security-best-practices.md</text>
      <text x="20" y="168" class="text-muted">New file - will be created</text>

      <!-- Updated file -->
      <rect x="0" y="190" width="400" height="55" rx="6" fill="#f5f0e6" stroke="#8b5cf6" stroke-width="1"/>
      <rect x="0" y="190" width="6" height="55" rx="3" fill="#8b5cf6"/>
      <text x="20" y="213" class="heading-sm">📝 api-documentation.md</text>
      <text x="20" y="233" class="text-muted">Modified - 12 lines changed</text>
    </g>

    <!-- Diff viewer modal hint -->
    <g transform="translate(520, 565)">
      <rect x="0" y="0" width="400" height="120" rx="6" fill="#dcc8a8" stroke="#b8a080" stroke-width="1"/>
      <text x="15" y="20" class="heading-sm">Diff Preview</text>
      <rect x="10" y="35" width="380" height="75" rx="4" fill="#f5f0e6"/>
      <text x="20" y="55" class="code" fill="#ef4444">- This tutorial covers the basics</text>
      <text x="20" y="72" class="code" fill="#22c55e">+ This comprehensive guide covers</text>
      <text x="20" y="89" class="code" fill="#22c55e">+ all the fundamentals you need</text>
      <text x="20" y="103" class="text-muted">... +10 more lines</text>
    </g>

    <!-- Import actions -->
    <g transform="translate(520, 700)">
      <rect x="0" y="0" width="190" height="36" rx="6" fill="#dcc8a8" stroke="#b8a080" stroke-width="1"/>
      <text x="95" y="23" text-anchor="middle" class="text-sm">Cancel</text>

      <rect x="210" y="0" width="190" height="36" rx="6" fill="#22c55e"/>
      <text x="305" y="23" text-anchor="middle" fill="#fff" font-family="system-ui, sans-serif" font-size="14" font-weight="600">Apply Changes</text>
    </g>
  </g>

  <!-- MOBILE SECTION -->
  <text x="980" y="52" class="label-mobile">MOBILE — EXPORT</text>
  <g id="mobile-view" transform="translate(980, 60)">
    <!-- Phone frame -->
    <rect x="0" y="0" width="360" height="700" rx="24" fill="#c8b898" stroke="#a08860" stroke-width="2"/>
    <rect x="10" y="10" width="340" height="680" rx="16" fill="#e8d4b8"/>

    <!-- Status bar -->
    <rect x="10" y="10" width="340" height="28" rx="16" fill="#dcc8a8"/>
    <text x="30" y="28" class="text-sm">9:41</text>
    <text x="320" y="28" class="text-sm" text-anchor="end">📶 🔋</text>

    <!-- Header -->
    <rect x="10" y="38" width="340" height="50" fill="#dcc8a8"/>
    <text x="30" y="68" class="text-sm">←</text>
    <text x="180" y="68" text-anchor="middle" class="heading-sm">Export Posts</text>
    <text x="330" y="68" text-anchor="end" class="text-muted">2</text>

    <!-- Post selection list -->
    <g transform="translate(20, 100)">
      <rect x="0" y="0" width="320" height="65" rx="6" fill="#f5f0e6" stroke="#8b5cf6" stroke-width="2"/>
      <rect x="10" y="22" width="20" height="20" rx="4" fill="#8b5cf6"/>
      <text x="20" y="37" text-anchor="middle" fill="#fff" font-size="12">✓</text>
      <text x="42" y="28" class="text-sm" font-weight="600">Getting Started Guide</text>
      <text x="42" y="48" class="text-muted">82/100 • 1,247 words</text>
      <circle cx="295" cy="32" r="8" fill="#22c55e"/>

      <rect x="0" y="75" width="320" height="65" rx="6" fill="#f5f0e6" stroke="#8b5cf6" stroke-width="2"/>
      <rect x="10" y="97" width="20" height="20" rx="4" fill="#8b5cf6"/>
      <text x="20" y="112" text-anchor="middle" fill="#fff" font-size="12">✓</text>
      <text x="42" y="103" class="text-sm" font-weight="600">API Documentation</text>
      <text x="42" y="123" class="text-muted">65/100 • 2,340 words</text>
      <circle cx="295" cy="107" r="8" fill="#eab308"/>

      <rect x="0" y="150" width="320" height="65" rx="6" fill="#f5f0e6" stroke="#b8a080" stroke-width="1"/>
      <rect x="10" y="172" width="20" height="20" rx="4" fill="#f5f0e6" stroke="#b8a080" stroke-width="1"/>
      <text x="42" y="178" class="text-sm" font-weight="600">Performance Tips</text>
      <text x="42" y="198" class="text-muted">45/100 • 890 words</text>
      <circle cx="295" cy="182" r="8" fill="#ef4444"/>
    </g>

    <!-- Options -->
    <g transform="translate(20, 340)">
      <text x="0" y="0" class="heading-sm">Options</text>
      <rect x="0" y="15" width="320" height="70" rx="6" fill="#f5f0e6" stroke="#b8a080" stroke-width="1"/>

      <g transform="translate(10, 32)">
        <rect x="0" y="0" width="16" height="16" rx="3" fill="#8b5cf6"/>
        <text x="8" y="12" text-anchor="middle" fill="#fff" font-size="10">✓</text>
        <text x="24" y="12" class="text-sm">Include SEO reports</text>
      </g>
      <g transform="translate(10, 55)">
        <rect x="0" y="0" width="16" height="16" rx="3" fill="#8b5cf6"/>
        <text x="8" y="12" text-anchor="middle" fill="#fff" font-size="10">✓</text>
        <text x="24" y="12" class="text-sm">Generate summary.md</text>
      </g>
    </g>

    <!-- Bundle preview -->
    <g transform="translate(20, 445)">
      <text x="0" y="0" class="heading-sm">Bundle</text>
      <rect x="0" y="15" width="320" height="70" rx="6" fill="#dcc8a8"/>
      <text x="15" y="38" class="code">📦 export-2026-01-01.zip</text>
      <text x="15" y="55" class="text-muted">2 posts, 4 SEO reports</text>
      <text x="15" y="72" class="text-muted">~124 KB estimated</text>
    </g>

    <!-- Export button -->
    <rect x="20" y="545" width="320" height="44" rx="6" fill="#8b5cf6"/>
    <text x="180" y="572" text-anchor="middle" fill="#fff" font-family="system-ui, sans-serif" font-size="14" font-weight="600">⬇ Download ZIP</text>

    <!-- Import link -->
    <text x="180" y="615" text-anchor="middle" class="text-sm" fill="#8b5cf6" text-decoration="underline">Import a bundle instead</text>

    <!-- Mobile nav bar -->
    <rect x="10" y="658" width="340" height="32" fill="#dcc8a8" rx="0 0 16 16"/>
    <text x="85" y="678" text-anchor="middle" class="text-sm" fill="#8b5cf6">📦 Export</text>
    <text x="180" y="678" text-anchor="middle" class="text-muted">📥 Import</text>
    <text x="275" y="678" text-anchor="middle" class="text-muted">⚙️ Settings</text>
  </g>

  <!-- Annotations -->
  <g id="annotations">
    <rect x="100" y="745" width="120" height="35" rx="4" fill="#e8d4b8" stroke="#8b5cf6" stroke-width="1"/>
    <text x="160" y="760" text-anchor="middle" class="annotation">FR-021-025</text>
    <text x="160" y="775" text-anchor="middle" class="text-muted">Export system</text>

    <rect x="600" y="745" width="120" height="35" rx="4" fill="#e8d4b8" stroke="#8b5cf6" stroke-width="1"/>
    <text x="660" y="760" text-anchor="middle" class="annotation">FR-026-030</text>
    <text x="660" y="775" text-anchor="middle" class="text-muted">Import system</text>
  </g>
</svg>