<svg xmlns="http://www.w3.org/2000/svg" viewBox="0 0 1400 800" width="1400" height="800">
  <!-- ============================================================
       GENERATED BY: /wireframe skill
       SOURCE: features/polish/029-seo-editorial-assistant/spec.md
       DATE: 2025-12-31
       DO NOT MANUALLY EDIT - Regenerate with /wireframe command
       ============================================================ -->
  <defs>
    <linearGradient id="bgGrad" x1="0%" y1="0%" x2="100%" y2="100%">
      <stop offset="0%" style="stop-color:#0f172a"/>
      <stop offset="100%" style="stop-color:#1e293b"/>
    </linearGradient>
    <linearGradient id="accentGrad" x1="0%" y1="0%" x2="100%" y2="0%">
      <stop offset="0%" style="stop-color:#8b5cf6"/>
      <stop offset="100%" style="stop-color:#d946ef"/>
    </linearGradient>
    <style>
      .heading-lg { fill: #ffffff; font-family: system-ui, sans-serif; font-size: 20px; font-weight: bold; }
      .heading { fill: #ffffff; font-family: system-ui, sans-serif; font-size: 14px; font-weight: bold; }
      .text-md { fill: #cbd5e1; font-family: system-ui, sans-serif; font-size: 12px; }
      .text-sm { fill: #94a3b8; font-family: system-ui, sans-serif; font-size: 10px; }
      .text-muted { fill: #64748b; font-family: system-ui, sans-serif; font-size: 10px; }
      .annotation { fill: #8b5cf6; font-family: monospace; font-size: 10px; }
      .label-desktop { fill: #8b5cf6; font-family: monospace; font-size: 11px; font-weight: bold; }
      .label-mobile { fill: #d946ef; font-family: monospace; font-size: 11px; font-weight: bold; }
      .code { fill: #94a3b8; font-family: monospace; font-size: 10px; }
    </style>
  </defs>

  <!-- Background -->
  <rect width="1400" height="800" fill="url(#bgGrad)"/>

  <!-- Dot grid pattern -->
  <g opacity="0.05">
    <pattern id="dots" width="30" height="30" patternUnits="userSpaceOnUse">
      <circle cx="15" cy="15" r="1" fill="#fff"/>
    </pattern>
    <rect width="1400" height="800" fill="url(#dots)"/>
  </g>

  <!-- Accent line top -->
  <rect x="0" y="0" width="1400" height="3" fill="url(#accentGrad)"/>

  <!-- Title -->
  <text x="700" y="28" text-anchor="middle" font-family="system-ui, sans-serif" font-size="14" font-weight="600" fill="#64748b" letter-spacing="1">EXPORT FLOW - POST SELECTION &amp; ZIP BUNDLE</text>

  <!-- STEP 1: Post Selection Grid -->
  <g id="step1-selection" transform="translate(40, 60)">
    <rect x="0" y="0" width="640" height="460" rx="8" fill="#1e293b" stroke="#475569" stroke-width="1"/>

    <!-- Header -->
    <rect x="0" y="0" width="640" height="50" rx="8" fill="#334155"/>
    <rect x="0" y="42" width="640" height="8" fill="#1e293b"/>
    <text x="20" y="32" class="heading">Step 1: Select Posts to Export</text>
    <text x="620" y="32" text-anchor="end" class="text-sm">3 of 8 selected</text>

    <!-- Search/Filter bar -->
    <rect x="20" y="65" width="400" height="36" rx="6" fill="#0f172a" stroke="#475569" stroke-width="1"/>
    <text x="40" y="88" class="text-muted">🔍 Search posts...</text>

    <!-- Filter buttons -->
    <rect x="440" y="65" width="80" height="36" rx="6" fill="#475569"/>
    <text x="480" y="88" text-anchor="middle" class="text-sm">All (8)</text>
    <rect x="530" y="65" width="90" height="36" rx="6" fill="#8b5cf6"/>
    <text x="575" y="88" text-anchor="middle" fill="#fff" font-family="system-ui, sans-serif" font-size="11">Modified</text>

    <!-- Post grid -->
    <!-- Post 1 - Selected -->
    <rect x="20" y="115" width="295" height="100" rx="6" fill="#0f172a" stroke="#8b5cf6" stroke-width="2"/>
    <rect x="30" y="125" width="18" height="18" rx="4" fill="#8b5cf6"/>
    <text x="39" y="138" text-anchor="middle" fill="#fff" font-family="system-ui, sans-serif" font-size="12">✓</text>
    <text x="58" y="138" class="heading">Getting Started with Next.js</text>
    <text x="58" y="156" class="text-sm">Modified: Dec 30, 2025</text>
    <text x="58" y="172" class="text-muted">Word count: 1,240 | SEO: 78</text>
    <rect x="250" y="185" width="55" height="22" rx="11" fill="#22c55e" opacity="0.2"/>
    <circle cx="262" cy="196" r="6" fill="#22c55e"/>
    <text x="290" y="200" text-anchor="end" fill="#22c55e" font-family="system-ui, sans-serif" font-size="10">78</text>

    <!-- Post 2 - Selected -->
    <rect x="325" y="115" width="295" height="100" rx="6" fill="#0f172a" stroke="#8b5cf6" stroke-width="2"/>
    <rect x="335" y="125" width="18" height="18" rx="4" fill="#8b5cf6"/>
    <text x="344" y="138" text-anchor="middle" fill="#fff" font-family="system-ui, sans-serif" font-size="12">✓</text>
    <text x="363" y="138" class="heading">React Server Components</text>
    <text x="363" y="156" class="text-sm">Modified: Dec 28, 2025</text>
    <text x="363" y="172" class="text-muted">Word count: 890 | SEO: 65</text>
    <rect x="555" y="185" width="55" height="22" rx="11" fill="#eab308" opacity="0.2"/>
    <circle cx="567" cy="196" r="6" fill="#eab308"/>
    <text x="595" y="200" text-anchor="end" fill="#eab308" font-family="system-ui, sans-serif" font-size="10">65</text>

    <!-- Post 3 - Not selected -->
    <rect x="20" y="225" width="295" height="100" rx="6" fill="#0f172a" stroke="#475569" stroke-width="1"/>
    <rect x="30" y="235" width="18" height="18" rx="4" fill="#475569" stroke="#64748b" stroke-width="1"/>
    <text x="58" y="248" class="heading">TypeScript Best Practices</text>
    <text x="58" y="266" class="text-sm">Modified: Dec 25, 2025</text>
    <text x="58" y="282" class="text-muted">Word count: 2,100 | SEO: 82</text>
    <rect x="250" y="295" width="55" height="22" rx="11" fill="#22c55e" opacity="0.2"/>
    <circle cx="262" cy="306" r="6" fill="#22c55e"/>
    <text x="290" y="310" text-anchor="end" fill="#22c55e" font-family="system-ui, sans-serif" font-size="10">82</text>

    <!-- Post 4 - Selected -->
    <rect x="325" y="225" width="295" height="100" rx="6" fill="#0f172a" stroke="#8b5cf6" stroke-width="2"/>
    <rect x="335" y="235" width="18" height="18" rx="4" fill="#8b5cf6"/>
    <text x="344" y="248" text-anchor="middle" fill="#fff" font-family="system-ui, sans-serif" font-size="12">✓</text>
    <text x="363" y="248" class="heading">Supabase Authentication</text>
    <text x="363" y="266" class="text-sm">Modified: Dec 29, 2025</text>
    <text x="363" y="282" class="text-muted">Word count: 1,500 | SEO: 42</text>
    <rect x="555" y="295" width="55" height="22" rx="11" fill="#ef4444" opacity="0.2"/>
    <circle cx="567" cy="306" r="6" fill="#ef4444"/>
    <text x="595" y="310" text-anchor="end" fill="#ef4444" font-family="system-ui, sans-serif" font-size="10">42</text>

    <!-- Post 5, 6, 7, 8 - partial view -->
    <rect x="20" y="335" width="295" height="40" rx="6" fill="#0f172a" stroke="#475569" stroke-width="1"/>
    <rect x="30" y="345" width="18" height="18" rx="4" fill="#475569" stroke="#64748b" stroke-width="1"/>
    <text x="58" y="358" class="text-md">Tailwind CSS Workflow...</text>

    <rect x="325" y="335" width="295" height="40" rx="6" fill="#0f172a" stroke="#475569" stroke-width="1"/>
    <rect x="335" y="345" width="18" height="18" rx="4" fill="#475569" stroke="#64748b" stroke-width="1"/>
    <text x="363" y="358" class="text-md">Testing Strategies...</text>

    <!-- Scroll indicator -->
    <text x="320" y="400" text-anchor="middle" class="text-muted">↓ 2 more posts below</text>

    <!-- Action buttons -->
    <rect x="20" y="415" width="120" height="36" rx="6" fill="#475569"/>
    <text x="80" y="438" text-anchor="middle" class="text-md">Select All</text>

    <rect x="150" y="415" width="120" height="36" rx="6" fill="#475569"/>
    <text x="210" y="438" text-anchor="middle" class="text-md">Clear Selection</text>

    <rect x="500" y="415" width="120" height="36" rx="6" fill="#8b5cf6"/>
    <text x="560" y="438" text-anchor="middle" fill="#fff" font-family="system-ui, sans-serif" font-size="12" font-weight="600">Export (3)</text>
  </g>

  <!-- STEP 2: Export Confirmation Modal -->
  <g id="step2-modal" transform="translate(720, 60)">
    <rect x="0" y="0" width="340" height="280" rx="8" fill="#1e293b" stroke="#8b5cf6" stroke-width="2"/>

    <!-- Modal header -->
    <rect x="0" y="0" width="340" height="44" rx="8" fill="#334155"/>
    <rect x="0" y="36" width="340" height="8" fill="#1e293b"/>
    <text x="170" y="28" text-anchor="middle" class="heading">Export Confirmation</text>

    <!-- Content -->
    <text x="20" y="70" class="text-md">You are about to export:</text>

    <rect x="20" y="85" width="300" height="80" rx="4" fill="#0f172a"/>
    <text x="35" y="105" class="text-sm">• getting-started-with-nextjs.md</text>
    <text x="35" y="121" class="text-sm">• react-server-components.md</text>
    <text x="35" y="137" class="text-sm">• supabase-authentication.md</text>
    <text x="35" y="155" class="text-muted">3 posts, ~3,630 words total</text>

    <!-- Bundle contents preview -->
    <text x="20" y="185" class="text-md">ZIP bundle will contain:</text>
    <rect x="20" y="195" width="300" height="40" rx="4" fill="#0f172a"/>
    <text x="35" y="212" class="code">📁 posts/  📁 seo-reports/</text>
    <text x="35" y="226" class="code">📄 manifest.json  📄 summary.md</text>

    <!-- Buttons -->
    <rect x="20" y="245" width="140" height="28" rx="6" fill="#475569"/>
    <text x="90" y="264" text-anchor="middle" class="text-md">Cancel</text>

    <rect x="180" y="245" width="140" height="28" rx="6" fill="#8b5cf6"/>
    <text x="250" y="264" text-anchor="middle" fill="#fff" font-family="system-ui, sans-serif" font-size="12" font-weight="600">Download ZIP</text>
  </g>

  <!-- STEP 3: ZIP Structure Preview -->
  <g id="step3-structure" transform="translate(720, 360)">
    <rect x="0" y="0" width="340" height="380" rx="8" fill="#1e293b" stroke="#475569" stroke-width="1"/>

    <!-- Header -->
    <rect x="0" y="0" width="340" height="40" rx="8" fill="#334155"/>
    <rect x="0" y="32" width="340" height="8" fill="#1e293b"/>
    <text x="170" y="26" text-anchor="middle" class="heading">ZIP Bundle Structure</text>

    <!-- File tree -->
    <rect x="15" y="50" width="310" height="320" rx="4" fill="#0f172a"/>

    <text x="25" y="75" fill="#8b5cf6" font-family="monospace" font-size="11" font-weight="bold">📦 blog-export-2025-12-31.zip</text>

    <text x="35" y="100" class="code">├── 📁 posts/</text>
    <text x="55" y="118" class="code">│   ├── getting-started-with-nextjs.md</text>
    <text x="55" y="134" class="code">│   ├── react-server-components.md</text>
    <text x="55" y="150" class="code">│   └── supabase-authentication.md</text>

    <text x="35" y="175" class="code">├── 📁 seo-reports/</text>
    <text x="55" y="193" class="code">│   ├── getting-started-with-nextjs.json</text>
    <text x="55" y="209" class="code">│   ├── getting-started-with-nextjs.txt</text>
    <text x="55" y="225" class="code">│   ├── react-server-components.json</text>
    <text x="55" y="241" class="code">│   ├── react-server-components.txt</text>
    <text x="55" y="257" class="code">│   ├── supabase-authentication.json</text>
    <text x="55" y="273" class="code">│   └── supabase-authentication.txt</text>

    <text x="35" y="298" class="code">├── 📄 manifest.json</text>
    <text x="55" y="314" class="text-muted">│   (bundle metadata, scores)</text>

    <text x="35" y="339" class="code">└── 📄 summary.md</text>
    <text x="55" y="355" class="text-muted">    (human-readable overview)</text>
  </g>

  <!-- Manifest.json Preview -->
  <g id="manifest-preview" transform="translate(40, 540)">
    <rect x="0" y="0" width="330" height="220" rx="8" fill="#1e293b" stroke="#475569" stroke-width="1"/>

    <rect x="0" y="0" width="330" height="36" rx="8" fill="#334155"/>
    <rect x="0" y="28" width="330" height="8" fill="#1e293b"/>
    <text x="165" y="24" text-anchor="middle" class="heading">manifest.json</text>

    <rect x="10" y="46" width="310" height="164" rx="4" fill="#0f172a"/>
    <text x="20" y="66" class="code">{</text>
    <text x="30" y="82" class="code">"exportDate": "2025-12-31T14:30:00Z",</text>
    <text x="30" y="98" class="code">"postCount": 3,</text>
    <text x="30" y="114" class="code">"posts": [</text>
    <text x="40" y="130" class="code">{ "slug": "getting-started...",</text>
    <text x="50" y="146" class="code">"seoScore": 78, "modified": true },</text>
    <text x="40" y="162" class="code">{ "slug": "react-server...",</text>
    <text x="50" y="178" class="code">"seoScore": 65, "modified": true }</text>
    <text x="30" y="194" class="code">],</text>
    <text x="30" y="206" class="code">"avgSeoScore": 62</text>
  </g>

  <!-- Summary.md Preview -->
  <g id="summary-preview" transform="translate(390, 540)">
    <rect x="0" y="0" width="290" height="220" rx="8" fill="#1e293b" stroke="#475569" stroke-width="1"/>

    <rect x="0" y="0" width="290" height="36" rx="8" fill="#334155"/>
    <rect x="0" y="28" width="290" height="8" fill="#1e293b"/>
    <text x="145" y="24" text-anchor="middle" class="heading">summary.md</text>

    <rect x="10" y="46" width="270" height="164" rx="4" fill="#0f172a"/>
    <text x="20" y="66" class="code"># Export Summary</text>
    <text x="20" y="86" class="code">**Date:** Dec 31, 2025</text>
    <text x="20" y="102" class="code">**Posts:** 3</text>
    <text x="20" y="122" class="code">## Posts Included</text>
    <text x="20" y="142" class="code">| Post | SEO | Status |</text>
    <text x="20" y="158" class="code">|------|-----|--------|</text>
    <text x="20" y="174" class="code">| Getting Started | 78 | ✅ |</text>
    <text x="20" y="190" class="code">| React Server | 65 | ⚠️ |</text>
    <text x="20" y="206" class="code">| Supabase Auth | 42 | ❌ |</text>
  </g>

  <!-- Flow arrows -->
  <g id="flow-arrows">
    <line x1="680" y1="290" x2="710" y2="200" stroke="#8b5cf6" stroke-width="2" stroke-dasharray="4,2"/>
    <polygon points="710,195 715,205 705,205" fill="#8b5cf6"/>

    <line x1="890" y1="340" x2="890" y2="350" stroke="#475569" stroke-width="2" stroke-dasharray="4,2"/>
    <polygon points="885,350 890,360 895,350" fill="#475569"/>
  </g>
</svg>