<svg xmlns="http://www.w3.org/2000/svg" viewBox="0 0 1400 800" width="1400" height="800">
  <!-- ============================================================
       GENERATED BY: /wireframe skill
       SOURCE: features/polish/029-seo-editorial-assistant/spec.md
       DATE: 2025-12-31
       DO NOT MANUALLY EDIT - Regenerate with /wireframe command
       ============================================================ -->
  <defs>
    <linearGradient id="bgGrad" x1="0%" y1="0%" x2="100%" y2="100%">
      <stop offset="0%" style="stop-color:#0f172a"/>
      <stop offset="100%" style="stop-color:#1e293b"/>
    </linearGradient>
    <linearGradient id="accentGrad" x1="0%" y1="0%" x2="100%" y2="0%">
      <stop offset="0%" style="stop-color:#8b5cf6"/>
      <stop offset="100%" style="stop-color:#d946ef"/>
    </linearGradient>
    <style>
      .heading-lg { fill: #ffffff; font-family: system-ui, sans-serif; font-size: 20px; font-weight: bold; }
      .heading { fill: #ffffff; font-family: system-ui, sans-serif; font-size: 14px; font-weight: bold; }
      .text-md { fill: #cbd5e1; font-family: system-ui, sans-serif; font-size: 12px; }
      .text-sm { fill: #94a3b8; font-family: system-ui, sans-serif; font-size: 10px; }
      .text-muted { fill: #64748b; font-family: system-ui, sans-serif; font-size: 10px; }
      .annotation { fill: #8b5cf6; font-family: monospace; font-size: 10px; }
      .label-desktop { fill: #8b5cf6; font-family: monospace; font-size: 11px; font-weight: bold; }
      .label-mobile { fill: #d946ef; font-family: monospace; font-size: 11px; font-weight: bold; }
      .code { fill: #94a3b8; font-family: monospace; font-size: 10px; }
      .code-added { fill: #22c55e; font-family: monospace; font-size: 10px; }
      .code-removed { fill: #ef4444; font-family: monospace; font-size: 10px; }
    </style>
  </defs>

  <!-- Background -->
  <rect width="1400" height="800" fill="url(#bgGrad)"/>

  <!-- Dot grid pattern -->
  <g opacity="0.05">
    <pattern id="dots" width="30" height="30" patternUnits="userSpaceOnUse">
      <circle cx="15" cy="15" r="1" fill="#fff"/>
    </pattern>
    <rect width="1400" height="800" fill="url(#dots)"/>
  </g>

  <!-- Accent line top -->
  <rect x="0" y="0" width="1400" height="3" fill="url(#accentGrad)"/>

  <!-- Title -->
  <text x="700" y="28" text-anchor="middle" font-family="system-ui, sans-serif" font-size="14" font-weight="600" fill="#64748b" letter-spacing="1">IMPORT FLOW - CLI COMMAND &amp; CONFLICT RESOLUTION</text>

  <!-- CLI Import Command -->
  <g id="cli-command" transform="translate(40, 50)">
    <rect x="0" y="0" width="660" height="200" rx="8" fill="#1e293b" stroke="#475569" stroke-width="1"/>

    <!-- Header -->
    <rect x="0" y="0" width="660" height="40" rx="8" fill="#334155"/>
    <rect x="0" y="32" width="660" height="8" fill="#1e293b"/>
    <circle cx="20" cy="20" r="6" fill="#ef4444"/>
    <circle cx="40" cy="20" r="6" fill="#eab308"/>
    <circle cx="60" cy="20" r="6" fill="#22c55e"/>
    <text x="90" y="26" class="heading">Terminal - Import Script</text>

    <!-- Terminal content -->
    <rect x="15" y="50" width="630" height="140" rx="4" fill="#0f172a"/>

    <text x="25" y="72" fill="#22c55e" font-family="monospace" font-size="11">$</text>
    <text x="40" y="72" class="code">npx scripthammer-import blog-export-2025-12-31.zip</text>

    <text x="25" y="94" fill="#8b5cf6" font-family="monospace" font-size="11">ℹ</text>
    <text x="40" y="94" class="code">Validating ZIP structure...</text>
    <text x="260" y="94" fill="#22c55e" font-family="monospace" font-size="11">✓ Valid</text>

    <text x="25" y="112" fill="#8b5cf6" font-family="monospace" font-size="11">ℹ</text>
    <text x="40" y="112" class="code">Found 3 posts in bundle</text>

    <text x="25" y="134" fill="#eab308" font-family="monospace" font-size="11">⚠</text>
    <text x="40" y="134" fill="#eab308" font-family="monospace" font-size="11">Conflicts detected: 2 files differ from local versions</text>

    <text x="25" y="156" class="code">   • getting-started-with-nextjs.md (modified title)</text>
    <text x="25" y="174" class="code">   • supabase-authentication.md (new content sections)</text>
  </g>

  <!-- Validation Status -->
  <g id="validation" transform="translate(720, 50)">
    <rect x="0" y="0" width="340" height="200" rx="8" fill="#1e293b" stroke="#22c55e" stroke-width="2"/>

    <!-- Header -->
    <rect x="0" y="0" width="340" height="40" rx="8" fill="#22c55e" opacity="0.2"/>
    <rect x="0" y="32" width="340" height="8" fill="#1e293b"/>
    <circle cx="25" cy="20" r="10" fill="#22c55e"/>
    <text x="25" y="25" text-anchor="middle" fill="#fff" font-family="system-ui, sans-serif" font-size="12" font-weight="bold">✓</text>
    <text x="45" y="26" class="heading">Bundle Validation Passed</text>

    <!-- Checklist -->
    <rect x="15" y="50" width="310" height="140" rx="4" fill="#0f172a"/>

    <text x="30" y="75" fill="#22c55e" font-family="system-ui, sans-serif" font-size="12">✓</text>
    <text x="50" y="75" class="text-md">manifest.json present and valid</text>

    <text x="30" y="98" fill="#22c55e" font-family="system-ui, sans-serif" font-size="12">✓</text>
    <text x="50" y="98" class="text-md">posts/ directory contains 3 files</text>

    <text x="30" y="121" fill="#22c55e" font-family="system-ui, sans-serif" font-size="12">✓</text>
    <text x="50" y="121" class="text-md">seo-reports/ directory contains 6 files</text>

    <text x="30" y="144" fill="#22c55e" font-family="system-ui, sans-serif" font-size="12">✓</text>
    <text x="50" y="144" class="text-md">All markdown files have valid frontmatter</text>

    <text x="30" y="167" fill="#22c55e" font-family="system-ui, sans-serif" font-size="12">✓</text>
    <text x="50" y="167" class="text-md">No files outside /blog directory</text>
  </g>

  <!-- Invalid Bundle Error State -->
  <g id="error-state" transform="translate(1080, 50)">
    <rect x="0" y="0" width="280" height="200" rx="8" fill="#1e293b" stroke="#ef4444" stroke-width="2"/>

    <!-- Header -->
    <rect x="0" y="0" width="280" height="40" rx="8" fill="#ef4444" opacity="0.2"/>
    <rect x="0" y="32" width="280" height="8" fill="#1e293b"/>
    <circle cx="25" cy="20" r="10" fill="#ef4444"/>
    <text x="25" y="25" text-anchor="middle" fill="#fff" font-family="system-ui, sans-serif" font-size="12" font-weight="bold">✗</text>
    <text x="45" y="26" class="heading">Invalid Bundle</text>

    <!-- Error message -->
    <rect x="15" y="50" width="250" height="140" rx="4" fill="#0f172a"/>

    <text x="25" y="75" fill="#ef4444" font-family="system-ui, sans-serif" font-size="12">✗</text>
    <text x="45" y="75" class="text-md">manifest.json missing</text>

    <text x="25" y="100" class="text-muted">Expected structure:</text>
    <text x="25" y="118" class="code">├── posts/</text>
    <text x="25" y="134" class="code">├── seo-reports/</text>
    <text x="25" y="150" class="code">├── manifest.json ← missing</text>
    <text x="25" y="166" class="code">└── summary.md</text>

    <text x="25" y="185" class="text-muted">Import aborted.</text>
  </g>

  <!-- Diff View - Side by Side -->
  <g id="diff-view" transform="translate(40, 270)">
    <rect x="0" y="0" width="1020" height="490" rx="8" fill="#1e293b" stroke="#eab308" stroke-width="2"/>

    <!-- Header -->
    <rect x="0" y="0" width="1020" height="50" rx="8" fill="#eab308" opacity="0.2"/>
    <rect x="0" y="42" width="1020" height="8" fill="#1e293b"/>
    <text x="20" y="32" class="heading">Conflict Resolution: getting-started-with-nextjs.md</text>
    <text x="1000" y="32" text-anchor="end" class="text-sm">File 1 of 2</text>

    <!-- Navigation -->
    <rect x="700" y="12" width="80" height="26" rx="4" fill="#475569"/>
    <text x="740" y="30" text-anchor="middle" class="text-sm">← Previous</text>
    <rect x="790" y="12" width="80" height="26" rx="4" fill="#475569"/>
    <text x="830" y="30" text-anchor="middle" class="text-sm">Next →</text>

    <!-- Split pane: Local vs Imported -->
    <!-- Local (Current) -->
    <rect x="20" y="60" width="480" height="340" rx="6" fill="#0f172a" stroke="#475569" stroke-width="1"/>
    <rect x="20" y="60" width="480" height="30" rx="6" fill="#334155"/>
    <rect x="20" y="84" width="480" height="6" fill="#0f172a"/>
    <text x="260" y="80" text-anchor="middle" class="text-sm">LOCAL (Current Version)</text>

    <!-- Local content -->
    <text x="35" y="110" class="code">---</text>
    <text x="35" y="126" class="code">title: "Getting Started with Next.js 15"</text>
    <text x="35" y="142" class="code">description: "A comprehensive guide..."</text>
    <text x="35" y="158" class="code">focusKeyword: "Next.js 15"</text>
    <text x="35" y="174" class="code">date: "2025-01-15"</text>
    <text x="35" y="190" class="code">---</text>
    <text x="35" y="214" class="code"># Getting Started with Next.js 15</text>
    <text x="35" y="238" class="code">Next.js 15 introduces revolutionary</text>
    <text x="35" y="254" class="code">features for modern web development.</text>
    <rect x="30" y="268" width="460" height="18" fill="#ef4444" opacity="0.2"/>
    <text x="35" y="282" class="code-removed">- This guide walks you through setup.</text>
    <text x="35" y="306" class="code">## Why Choose Next.js 15?</text>
    <text x="35" y="330" class="code">The latest version brings significant</text>
    <text x="35" y="346" class="code">improvements in performance...</text>

    <!-- Line numbers -->
    <text x="40" y="110" class="text-muted">1</text>
    <text x="40" y="126" class="text-muted">2</text>
    <text x="40" y="142" class="text-muted">3</text>
    <text x="40" y="158" class="text-muted">4</text>
    <text x="40" y="174" class="text-muted">5</text>
    <text x="40" y="190" class="text-muted">6</text>
    <text x="40" y="214" class="text-muted">8</text>
    <text x="35" y="238" class="text-muted">10</text>
    <text x="35" y="254" class="text-muted">11</text>
    <text x="35" y="282" class="text-muted">12</text>
    <text x="35" y="306" class="text-muted">14</text>

    <!-- Imported -->
    <rect x="520" y="60" width="480" height="340" rx="6" fill="#0f172a" stroke="#8b5cf6" stroke-width="1"/>
    <rect x="520" y="60" width="480" height="30" rx="6" fill="#8b5cf6" opacity="0.3"/>
    <rect x="520" y="84" width="480" height="6" fill="#0f172a"/>
    <text x="760" y="80" text-anchor="middle" class="text-sm">IMPORTED (From Bundle)</text>

    <!-- Imported content -->
    <text x="535" y="110" class="code">---</text>
    <rect x="530" y="114" width="460" height="18" fill="#22c55e" opacity="0.2"/>
    <text x="535" y="126" class="code-added">title: "Next.js 15: The Complete Guide"</text>
    <text x="535" y="142" class="code">description: "A comprehensive guide..."</text>
    <text x="535" y="158" class="code">focusKeyword: "Next.js 15"</text>
    <text x="535" y="174" class="code">date: "2025-01-15"</text>
    <text x="535" y="190" class="code">---</text>
    <rect x="530" y="198" width="460" height="18" fill="#22c55e" opacity="0.2"/>
    <text x="535" y="214" class="code-added"># Next.js 15: The Complete Guide</text>
    <text x="535" y="238" class="code">Next.js 15 introduces revolutionary</text>
    <text x="535" y="254" class="code">features for modern web development.</text>
    <rect x="530" y="268" width="460" height="34" fill="#22c55e" opacity="0.2"/>
    <text x="535" y="282" class="code-added">+ This comprehensive guide walks you</text>
    <text x="535" y="298" class="code-added">+ through the entire setup process.</text>
    <text x="535" y="322" class="code">## Why Choose Next.js 15?</text>
    <text x="535" y="346" class="code">The latest version brings significant</text>

    <!-- Change summary -->
    <rect x="20" y="410" width="980" height="70" rx="4" fill="#0f172a"/>
    <text x="40" y="432" class="heading">Changes Summary</text>
    <text x="40" y="452" class="text-sm">
      <tspan fill="#22c55e">+3 lines added</tspan>
      <tspan fill="#ef4444" dx="20">-1 line removed</tspan>
      <tspan fill="#94a3b8" dx="20">Title changed from 34 to 31 characters (improved SEO)</tspan>
    </text>
    <text x="40" y="470" class="text-muted">SEO Score: 78 → 82 (improved)</text>
  </g>

  <!-- Conflict Actions -->
  <g id="conflict-actions" transform="translate(1080, 270)">
    <rect x="0" y="0" width="280" height="490" rx="8" fill="#1e293b" stroke="#475569" stroke-width="1"/>

    <!-- Header -->
    <rect x="0" y="0" width="280" height="40" rx="8" fill="#334155"/>
    <rect x="0" y="32" width="280" height="8" fill="#1e293b"/>
    <text x="140" y="26" text-anchor="middle" class="heading">Resolution Actions</text>

    <!-- Action buttons -->
    <rect x="20" y="55" width="240" height="70" rx="6" fill="#0f172a" stroke="#475569" stroke-width="1"/>
    <text x="140" y="80" text-anchor="middle" class="heading">Keep Local</text>
    <text x="140" y="100" text-anchor="middle" class="text-muted">Discard imported changes</text>
    <text x="140" y="115" text-anchor="middle" class="text-muted">for this file</text>

    <rect x="20" y="135" width="240" height="70" rx="6" fill="#8b5cf6" opacity="0.3" stroke="#8b5cf6" stroke-width="2"/>
    <text x="140" y="160" text-anchor="middle" fill="#fff" font-family="system-ui, sans-serif" font-size="14" font-weight="bold">Use Imported</text>
    <text x="140" y="180" text-anchor="middle" class="text-muted">Replace local with</text>
    <text x="140" y="195" text-anchor="middle" class="text-muted">imported version</text>

    <rect x="20" y="215" width="240" height="70" rx="6" fill="#0f172a" stroke="#475569" stroke-width="1"/>
    <text x="140" y="240" text-anchor="middle" class="heading">Merge Manually</text>
    <text x="140" y="260" text-anchor="middle" class="text-muted">Open in editor to</text>
    <text x="140" y="275" text-anchor="middle" class="text-muted">combine changes</text>

    <!-- Apply to all -->
    <rect x="20" y="300" width="240" height="50" rx="4" fill="#0f172a"/>
    <rect x="30" y="315" width="18" height="18" rx="4" fill="#475569" stroke="#64748b" stroke-width="1"/>
    <text x="58" y="328" class="text-md">Apply to all conflicts</text>

    <!-- Progress -->
    <text x="140" y="380" text-anchor="middle" class="heading">Import Progress</text>
    <rect x="20" y="395" width="240" height="8" rx="4" fill="#334155"/>
    <rect x="20" y="395" width="120" height="8" rx="4" fill="#8b5cf6"/>
    <text x="140" y="420" text-anchor="middle" class="text-sm">1 of 2 conflicts resolved</text>

    <!-- Final actions -->
    <rect x="20" y="445" width="110" height="36" rx="6" fill="#475569"/>
    <text x="75" y="468" text-anchor="middle" class="text-md">Cancel</text>

    <rect x="150" y="445" width="110" height="36" rx="6" fill="#22c55e"/>
    <text x="205" y="468" text-anchor="middle" fill="#fff" font-family="system-ui, sans-serif" font-size="12" font-weight="600">Apply All</text>
  </g>
</svg>