<svg xmlns="http://www.w3.org/2000/svg" viewBox="0 0 1400 800" width="1400" height="800">
  <!-- ============================================================
       GENERATED BY: /wireframe skill
       SOURCE: features/polish/029-seo-editorial-assistant/spec.md
       DATE: 2026-01-01
       THEME: Light (UX/Frontend) - v3 True Parchment
       DO NOT MANUALLY EDIT - Regenerate with /wireframe command
       ============================================================ -->
  <defs>
    <linearGradient id="bgGrad" x1="0%" y1="0%" x2="100%" y2="100%">
      <stop offset="0%" style="stop-color:#c7ddf5"/>
      <stop offset="100%" style="stop-color:#b8d4f0"/>
    </linearGradient>
    <linearGradient id="accentGrad" x1="0%" y1="0%" x2="100%" y2="0%">
      <stop offset="0%" style="stop-color:#8b5cf6"/>
      <stop offset="100%" style="stop-color:#d946ef"/>
    </linearGradient>
    <style>
      .heading-lg { fill: #1a1a2e; font-family: system-ui, sans-serif; font-size: 24px; font-weight: 800; }
      .heading { fill: #1a1a2e; font-family: system-ui, sans-serif; font-size: 16px; font-weight: 700; }
      .heading-sm { fill: #1a1a2e; font-family: system-ui, sans-serif; font-size: 14px; font-weight: 700; }
      .text-md { fill: #2d3748; font-family: system-ui, sans-serif; font-size: 14px; font-weight: 500; }
      .text-sm { fill: #4a5568; font-family: system-ui, sans-serif; font-size: 12px; font-weight: 500; }
      .text-muted { fill: #5a6577; font-family: system-ui, sans-serif; font-size: 11px; font-weight: 500; }
      .annotation { fill: #8b5cf6; font-family: monospace; font-size: 12px; font-weight: 600; }
      .label-desktop { fill: #8b5cf6; font-family: monospace; font-size: 13px; font-weight: bold; }
      .label-mobile { fill: #d946ef; font-family: monospace; font-size: 13px; font-weight: bold; }
      .code { fill: #e8e8e8; font-family: 'SF Mono', 'Fira Code', monospace; font-size: 12px; }
      .code-dim { fill: #888; font-family: 'SF Mono', 'Fira Code', monospace; font-size: 12px; }
      .code-green { fill: #4ade80; font-family: 'SF Mono', 'Fira Code', monospace; font-size: 12px; }
      .code-yellow { fill: #facc15; font-family: 'SF Mono', 'Fira Code', monospace; font-size: 12px; }
      .code-cyan { fill: #22d3ee; font-family: 'SF Mono', 'Fira Code', monospace; font-size: 12px; }
      .code-magenta { fill: #e879f9; font-family: 'SF Mono', 'Fira Code', monospace; font-size: 12px; }
    </style>
  </defs>

  <!-- Background -->
  <rect width="1400" height="800" fill="url(#bgGrad)"/>

  <!-- Dot grid pattern -->
  <g opacity="0.35">
    <pattern id="dots" width="30" height="30" patternUnits="userSpaceOnUse">
      <circle cx="15" cy="15" r="1" fill="#6b8cba"/>
    </pattern>
    <rect width="1400" height="800" fill="url(#dots)"/>
  </g>

  <!-- Accent line top -->
  <rect x="0" y="0" width="1400" height="3" fill="url(#accentGrad)"/>

  <!-- Title -->
  <text x="700" y="28" text-anchor="middle" font-family="system-ui, sans-serif" font-size="14" font-weight="600" fill="#5a6577" letter-spacing="1">SEO EDITORIAL ASSISTANT — TERMINAL-FRIENDLY OUTPUT</text>

  <!-- DESKTOP SECTION -->
  <text x="40" y="52" class="label-desktop">DESKTOP — TERMINAL OUTPUT MODAL</text>
  <g id="desktop-view">
    <!-- Modal backdrop (semi-transparent) -->
    <rect x="40" y="60" width="900" height="680" rx="8" fill="#e8d4b8" stroke="#b8a080" stroke-width="1" opacity="0.95"/>

    <!-- Modal container -->
    <rect x="80" y="90" width="820" height="620" rx="12" fill="#1a1a2e" stroke="#475569" stroke-width="2"/>

    <!-- Terminal title bar -->
    <rect x="80" y="90" width="820" height="40" rx="12" fill="#2d3748"/>
    <circle cx="105" cy="110" r="7" fill="#ef4444"/>
    <circle cx="128" cy="110" r="7" fill="#eab308"/>
    <circle cx="151" cy="110" r="7" fill="#22c55e"/>
    <text x="490" y="115" text-anchor="middle" fill="#94a3b8" font-family="system-ui, sans-serif" font-size="13">SEO Report — getting-started-guide.md</text>

    <!-- Copy button -->
    <rect x="800" y="98" width="85" height="26" rx="4" fill="#8b5cf6"/>
    <text x="842" y="116" text-anchor="middle" fill="#fff" font-family="system-ui, sans-serif" font-size="12" font-weight="600">📋 Copy</text>

    <!-- Terminal content -->
    <g transform="translate(100, 150)">
      <!-- Header -->
      <text x="0" y="0" class="code-cyan">┌──────────────────────────────────────────────────────────────┐</text>
      <text x="0" y="18" class="code-cyan">│</text>
      <text x="20" y="18" class="code" font-weight="bold">SEO ANALYSIS REPORT</text>
      <text x="280" y="18" class="code-dim">getting-started-guide.md</text>
      <text x="765" y="18" class="code-cyan">│</text>
      <text x="0" y="36" class="code-cyan">├──────────────────────────────────────────────────────────────┤</text>

      <!-- Overall score -->
      <text x="0" y="56" class="code-cyan">│</text>
      <text x="20" y="56" class="code">Overall Score:</text>
      <text x="150" y="56" class="code-green" font-weight="bold">82/100 [████████░░] GOOD</text>
      <text x="765" y="56" class="code-cyan">│</text>

      <text x="0" y="76" class="code-cyan">├──────────────────────────────────────────────────────────────┤</text>

      <!-- Metrics section -->
      <text x="0" y="96" class="code-cyan">│</text>
      <text x="20" y="96" class="code-magenta">METRICS</text>
      <text x="765" y="96" class="code-cyan">│</text>

      <text x="0" y="116" class="code-cyan">│</text>
      <text x="20" y="116" class="code">  readability:</text>
      <text x="180" y="116" class="code-green">68</text>
      <text x="220" y="116" class="code-dim">(target: 60-70)</text>
      <text x="400" y="116" class="code-green">✓ PASS</text>
      <text x="765" y="116" class="code-cyan">│</text>

      <text x="0" y="136" class="code-cyan">│</text>
      <text x="20" y="136" class="code">  sentence_avg:</text>
      <text x="180" y="136" class="code-green">17 words</text>
      <text x="280" y="136" class="code-dim">(target: 15-20)</text>
      <text x="400" y="136" class="code-green">✓ PASS</text>
      <text x="765" y="136" class="code-cyan">│</text>

      <text x="0" y="156" class="code-cyan">│</text>
      <text x="20" y="156" class="code">  title_length:</text>
      <text x="180" y="156" class="code-green">22 chars</text>
      <text x="280" y="156" class="code-dim">(optimal: 50-60)</text>
      <text x="400" y="156" class="code-green">✓ PASS</text>
      <text x="765" y="156" class="code-cyan">│</text>

      <text x="0" y="176" class="code-cyan">│</text>
      <text x="20" y="176" class="code">  meta_desc:</text>
      <text x="180" y="176" class="code-yellow">142 chars</text>
      <text x="280" y="176" class="code-dim">(optimal: 150-160)</text>
      <text x="400" y="176" class="code-yellow">⚠ WARN</text>
      <text x="765" y="176" class="code-cyan">│</text>

      <text x="0" y="196" class="code-cyan">│</text>
      <text x="20" y="196" class="code">  keyword_density:</text>
      <text x="180" y="196" class="code-green">2.4%</text>
      <text x="220" y="196" class="code-dim">(target: 2-3%)</text>
      <text x="400" y="196" class="code-green">✓ PASS</text>
      <text x="765" y="196" class="code-cyan">│</text>

      <text x="0" y="216" class="code-cyan">│</text>
      <text x="20" y="216" class="code">  passive_voice:</text>
      <text x="180" y="216" class="code-green">8%</text>
      <text x="220" y="216" class="code-dim">(target: &lt;10%)</text>
      <text x="400" y="216" class="code-green">✓ PASS</text>
      <text x="765" y="216" class="code-cyan">│</text>

      <text x="0" y="236" class="code-cyan">│</text>
      <text x="20" y="236" class="code">  heading_hierarchy:</text>
      <text x="200" y="236" class="code-green">valid</text>
      <text x="260" y="236" class="code-dim">(H1→H2→H3)</text>
      <text x="400" y="236" class="code-green">✓ PASS</text>
      <text x="765" y="236" class="code-cyan">│</text>

      <text x="0" y="256" class="code-cyan">│</text>
      <text x="20" y="256" class="code">  word_count:</text>
      <text x="180" y="256" class="code-green">1247</text>
      <text x="220" y="256" class="code-dim">(min: 300)</text>
      <text x="400" y="256" class="code-green">✓ PASS</text>
      <text x="765" y="256" class="code-cyan">│</text>

      <text x="0" y="276" class="code-cyan">├──────────────────────────────────────────────────────────────┤</text>

      <!-- Suggestions -->
      <text x="0" y="296" class="code-cyan">│</text>
      <text x="20" y="296" class="code-magenta">SUGGESTIONS (1)</text>
      <text x="765" y="296" class="code-cyan">│</text>

      <text x="0" y="316" class="code-cyan">│</text>
      <text x="20" y="316" class="code-yellow">[WARN]</text>
      <text x="80" y="316" class="code">Meta description too short</text>
      <text x="765" y="316" class="code-cyan">│</text>

      <text x="0" y="336" class="code-cyan">│</text>
      <text x="80" y="336" class="code-dim">Add 10-20 more characters (current: 142, target: 150-160)</text>
      <text x="765" y="336" class="code-cyan">│</text>

      <text x="0" y="356" class="code-cyan">├──────────────────────────────────────────────────────────────┤</text>

      <!-- Focus keyword -->
      <text x="0" y="376" class="code-cyan">│</text>
      <text x="20" y="376" class="code-magenta">FOCUS KEYWORD:</text>
      <text x="160" y="376" class="code">"getting started"</text>
      <text x="765" y="376" class="code-cyan">│</text>

      <text x="0" y="396" class="code-cyan">│</text>
      <text x="20" y="396" class="code">  in_title:</text>
      <text x="130" y="396" class="code-green">yes</text>
      <text x="200" y="396" class="code">in_h1:</text>
      <text x="270" y="396" class="code-green">yes</text>
      <text x="340" y="396" class="code">in_first_para:</text>
      <text x="470" y="396" class="code-green">yes</text>
      <text x="765" y="396" class="code-cyan">│</text>

      <text x="0" y="416" class="code-cyan">└──────────────────────────────────────────────────────────────┘</text>

      <!-- JSON hint -->
      <text x="0" y="450" class="code-dim"># JSON format also available: --format json</text>
      <text x="0" y="470" class="code-dim"># For CI/CD: seo-report --check --min-score 70</text>
    </g>

    <!-- Modal actions -->
    <g transform="translate(640, 660)">
      <rect x="0" y="0" width="120" height="36" rx="6" fill="#334155"/>
      <text x="60" y="23" text-anchor="middle" fill="#94a3b8" font-family="system-ui, sans-serif" font-size="13">Close</text>

      <rect x="135" y="0" width="120" height="36" rx="6" fill="#8b5cf6"/>
      <text x="195" y="23" text-anchor="middle" fill="#fff" font-family="system-ui, sans-serif" font-size="13" font-weight="600">Copy All</text>
    </g>
  </g>

  <!-- MOBILE SECTION -->
  <text x="980" y="52" class="label-mobile">MOBILE — OUTPUT VIEW</text>
  <g id="mobile-view" transform="translate(980, 60)">
    <!-- Phone frame -->
    <rect x="0" y="0" width="360" height="700" rx="24" fill="#c8b898" stroke="#a08860" stroke-width="2"/>
    <rect x="10" y="10" width="340" height="680" rx="16" fill="#e8d4b8"/>

    <!-- Status bar -->
    <rect x="10" y="10" width="340" height="28" rx="16" fill="#dcc8a8"/>
    <text x="30" y="28" class="text-sm">9:41</text>
    <text x="320" y="28" class="text-sm" text-anchor="end">📶 🔋</text>

    <!-- Header -->
    <rect x="10" y="38" width="340" height="50" fill="#dcc8a8"/>
    <text x="30" y="68" class="text-sm">←</text>
    <text x="180" y="68" text-anchor="middle" class="heading-sm">Terminal Output</text>

    <!-- Copy button -->
    <rect x="270" y="52" width="65" height="26" rx="4" fill="#8b5cf6"/>
    <text x="302" y="70" text-anchor="middle" fill="#fff" font-family="system-ui, sans-serif" font-size="11" font-weight="600">Copy</text>

    <!-- Terminal content (mobile) -->
    <rect x="15" y="95" width="330" height="545" rx="8" fill="#1a1a2e"/>

    <g transform="translate(25, 115)">
      <text x="0" y="0" class="code-cyan" font-size="10">┌────────────────────────────┐</text>
      <text x="0" y="14" class="code-cyan" font-size="10">│</text>
      <text x="12" y="14" class="code" font-size="10" font-weight="bold">SEO REPORT</text>
      <text x="295" y="14" class="code-cyan" font-size="10">│</text>
      <text x="0" y="28" class="code-cyan" font-size="10">├────────────────────────────┤</text>

      <text x="0" y="44" class="code-cyan" font-size="10">│</text>
      <text x="12" y="44" class="code" font-size="10">Score:</text>
      <text x="60" y="44" class="code-green" font-size="10" font-weight="bold">82/100</text>
      <text x="120" y="44" class="code-green" font-size="10">GOOD</text>
      <text x="295" y="44" class="code-cyan" font-size="10">│</text>

      <text x="0" y="60" class="code-cyan" font-size="10">├────────────────────────────┤</text>

      <text x="0" y="76" class="code-cyan" font-size="10">│</text>
      <text x="12" y="76" class="code" font-size="10">readability:</text>
      <text x="100" y="76" class="code-green" font-size="10">68 ✓</text>
      <text x="295" y="76" class="code-cyan" font-size="10">│</text>

      <text x="0" y="92" class="code-cyan" font-size="10">│</text>
      <text x="12" y="92" class="code" font-size="10">sentence_avg:</text>
      <text x="110" y="92" class="code-green" font-size="10">17w ✓</text>
      <text x="295" y="92" class="code-cyan" font-size="10">│</text>

      <text x="0" y="108" class="code-cyan" font-size="10">│</text>
      <text x="12" y="108" class="code" font-size="10">title:</text>
      <text x="60" y="108" class="code-green" font-size="10">22ch ✓</text>
      <text x="295" y="108" class="code-cyan" font-size="10">│</text>

      <text x="0" y="124" class="code-cyan" font-size="10">│</text>
      <text x="12" y="124" class="code" font-size="10">meta_desc:</text>
      <text x="90" y="124" class="code-yellow" font-size="10">142ch ⚠</text>
      <text x="295" y="124" class="code-cyan" font-size="10">│</text>

      <text x="0" y="140" class="code-cyan" font-size="10">│</text>
      <text x="12" y="140" class="code" font-size="10">keyword:</text>
      <text x="80" y="140" class="code-green" font-size="10">2.4% ✓</text>
      <text x="295" y="140" class="code-cyan" font-size="10">│</text>

      <text x="0" y="156" class="code-cyan" font-size="10">│</text>
      <text x="12" y="156" class="code" font-size="10">passive:</text>
      <text x="80" y="156" class="code-green" font-size="10">8% ✓</text>
      <text x="295" y="156" class="code-cyan" font-size="10">│</text>

      <text x="0" y="172" class="code-cyan" font-size="10">│</text>
      <text x="12" y="172" class="code" font-size="10">headings:</text>
      <text x="90" y="172" class="code-green" font-size="10">valid ✓</text>
      <text x="295" y="172" class="code-cyan" font-size="10">│</text>

      <text x="0" y="188" class="code-cyan" font-size="10">│</text>
      <text x="12" y="188" class="code" font-size="10">words:</text>
      <text x="60" y="188" class="code-green" font-size="10">1247 ✓</text>
      <text x="295" y="188" class="code-cyan" font-size="10">│</text>

      <text x="0" y="204" class="code-cyan" font-size="10">├────────────────────────────┤</text>

      <text x="0" y="220" class="code-cyan" font-size="10">│</text>
      <text x="12" y="220" class="code-magenta" font-size="10">SUGGESTIONS (1)</text>
      <text x="295" y="220" class="code-cyan" font-size="10">│</text>

      <text x="0" y="236" class="code-cyan" font-size="10">│</text>
      <text x="12" y="236" class="code-yellow" font-size="10">[WARN]</text>
      <text x="60" y="236" class="code" font-size="10">meta too short</text>
      <text x="295" y="236" class="code-cyan" font-size="10">│</text>

      <text x="0" y="252" class="code-cyan" font-size="10">│</text>
      <text x="12" y="252" class="code-dim" font-size="10">Add 10-20 more chars</text>
      <text x="295" y="252" class="code-cyan" font-size="10">│</text>

      <text x="0" y="268" class="code-cyan" font-size="10">├────────────────────────────┤</text>

      <text x="0" y="284" class="code-cyan" font-size="10">│</text>
      <text x="12" y="284" class="code-magenta" font-size="10">KEYWORD:</text>
      <text x="80" y="284" class="code" font-size="10">"getting started"</text>
      <text x="295" y="284" class="code-cyan" font-size="10">│</text>

      <text x="0" y="300" class="code-cyan" font-size="10">│</text>
      <text x="12" y="300" class="code" font-size="10">title:</text>
      <text x="55" y="300" class="code-green" font-size="10">✓</text>
      <text x="75" y="300" class="code" font-size="10">h1:</text>
      <text x="100" y="300" class="code-green" font-size="10">✓</text>
      <text x="120" y="300" class="code" font-size="10">intro:</text>
      <text x="160" y="300" class="code-green" font-size="10">✓</text>
      <text x="295" y="300" class="code-cyan" font-size="10">│</text>

      <text x="0" y="316" class="code-cyan" font-size="10">└────────────────────────────┘</text>
    </g>

    <!-- Mobile nav bar -->
    <rect x="10" y="658" width="340" height="32" fill="#dcc8a8" rx="0 0 16 16"/>
    <text x="85" y="678" text-anchor="middle" class="text-muted">📝 Editor</text>
    <text x="180" y="678" text-anchor="middle" class="text-muted">📊 SEO</text>
    <text x="275" y="678" text-anchor="middle" class="text-sm" fill="#8b5cf6">📋 Output</text>
  </g>

  <!-- Annotations -->
  <g id="annotations">
    <rect x="100" y="745" width="130" height="35" rx="4" fill="#e8d4b8" stroke="#8b5cf6" stroke-width="1"/>
    <text x="165" y="760" text-anchor="middle" class="annotation">FR-031-032</text>
    <text x="165" y="775" text-anchor="middle" class="text-muted">Terminal output</text>

    <rect x="400" y="745" width="150" height="35" rx="4" fill="#e8d4b8" stroke="#8b5cf6" stroke-width="1"/>
    <text x="475" y="760" text-anchor="middle" class="annotation">NFR-001</text>
    <text x="475" y="775" text-anchor="middle" class="text-muted">Parseable format</text>

    <rect x="700" y="745" width="150" height="35" rx="4" fill="#e8d4b8" stroke="#8b5cf6" stroke-width="1"/>
    <text x="775" y="760" text-anchor="middle" class="annotation">User Story 5</text>
    <text x="775" y="775" text-anchor="middle" class="text-muted">CI/CD ready</text>
  </g>
</svg>