<svg xmlns="http://www.w3.org/2000/svg" viewBox="0 0 1400 800" width="1400" height="800">
  <!-- ============================================================
       GENERATED BY: /wireframe skill
       SOURCE: features/polish/029-seo-editorial-assistant/spec.md
       DATE: 2025-12-31
       DO NOT MANUALLY EDIT - Regenerate with /wireframe command
       ============================================================ -->
  <defs>
    <linearGradient id="bgGrad" x1="0%" y1="0%" x2="100%" y2="100%">
      <stop offset="0%" style="stop-color:#0f172a"/>
      <stop offset="100%" style="stop-color:#1e293b"/>
    </linearGradient>
    <linearGradient id="accentGrad" x1="0%" y1="0%" x2="100%" y2="0%">
      <stop offset="0%" style="stop-color:#8b5cf6"/>
      <stop offset="100%" style="stop-color:#d946ef"/>
    </linearGradient>
    <style>
      .heading-lg { fill: #ffffff; font-family: system-ui, sans-serif; font-size: 20px; font-weight: bold; }
      .heading { fill: #ffffff; font-family: system-ui, sans-serif; font-size: 14px; font-weight: bold; }
      .text-md { fill: #cbd5e1; font-family: system-ui, sans-serif; font-size: 12px; }
      .text-sm { fill: #94a3b8; font-family: system-ui, sans-serif; font-size: 10px; }
      .text-muted { fill: #64748b; font-family: system-ui, sans-serif; font-size: 10px; }
      .annotation { fill: #8b5cf6; font-family: monospace; font-size: 10px; }
      .label-desktop { fill: #8b5cf6; font-family: monospace; font-size: 11px; font-weight: bold; }
      .label-mobile { fill: #d946ef; font-family: monospace; font-size: 11px; font-weight: bold; }
      .code { fill: #94a3b8; font-family: monospace; font-size: 11px; }
      .code-key { fill: #8b5cf6; font-family: monospace; font-size: 11px; }
      .code-value { fill: #22c55e; font-family: monospace; font-size: 11px; }
      .code-string { fill: #eab308; font-family: monospace; font-size: 11px; }
    </style>
  </defs>

  <!-- Background -->
  <rect width="1400" height="800" fill="url(#bgGrad)"/>

  <!-- Dot grid pattern -->
  <g opacity="0.05">
    <pattern id="dots" width="30" height="30" patternUnits="userSpaceOnUse">
      <circle cx="15" cy="15" r="1" fill="#fff"/>
    </pattern>
    <rect width="1400" height="800" fill="url(#dots)"/>
  </g>

  <!-- Accent line top -->
  <rect x="0" y="0" width="1400" height="3" fill="url(#accentGrad)"/>

  <!-- Title -->
  <text x="700" y="28" text-anchor="middle" font-family="system-ui, sans-serif" font-size="14" font-weight="600" fill="#64748b" letter-spacing="1">TERMINAL OUTPUT - COPYABLE SEO ANALYSIS</text>

  <!-- UI Panel with Terminal Output Button -->
  <g id="seo-panel-with-button" transform="translate(40, 50)">
    <rect x="0" y="0" width="400" height="300" rx="8" fill="#1e293b" stroke="#475569" stroke-width="1"/>

    <!-- Header -->
    <rect x="0" y="0" width="400" height="40" rx="8" fill="#334155"/>
    <rect x="0" y="32" width="400" height="8" fill="#1e293b"/>
    <text x="20" y="26" class="heading">SEO Analysis Panel</text>

    <!-- Score summary -->
    <rect x="20" y="55" width="360" height="60" rx="6" fill="#0f172a" stroke="#22c55e" stroke-width="1"/>
    <text x="40" y="78" class="text-sm">OVERALL SCORE</text>
    <text x="40" y="102" fill="#22c55e" font-family="system-ui, sans-serif" font-size="28" font-weight="bold">78</text>
    <text x="80" y="102" fill="#22c55e" font-family="system-ui, sans-serif" font-size="14">/100</text>
    <circle cx="340" cy="85" r="18" fill="#22c55e"/>
    <text x="340" y="91" text-anchor="middle" fill="#fff" font-family="system-ui, sans-serif" font-size="14" font-weight="bold">✓</text>

    <!-- Quick metrics -->
    <rect x="20" y="125" width="175" height="40" rx="4" fill="#0f172a"/>
    <text x="35" y="145" class="text-sm">Readability: 65</text>
    <text x="35" y="160" class="text-muted">Target: 60-70</text>

    <rect x="205" y="125" width="175" height="40" rx="4" fill="#0f172a"/>
    <text x="220" y="145" class="text-sm">Keywords: 2.4%</text>
    <text x="220" y="160" class="text-muted">Target: 2-3%</text>

    <rect x="20" y="175" width="175" height="40" rx="4" fill="#0f172a"/>
    <text x="35" y="195" class="text-sm">Title: 54 chars</text>
    <text x="35" y="210" class="text-muted">Target: 50-60</text>

    <rect x="205" y="175" width="175" height="40" rx="4" fill="#0f172a"/>
    <text x="220" y="195" class="text-sm">Passive: 8%</text>
    <text x="220" y="210" class="text-muted">Target: &lt;10%</text>

    <!-- Terminal Output Button - Highlighted -->
    <rect x="20" y="230" width="360" height="50" rx="6" fill="#8b5cf6" opacity="0.2" stroke="#8b5cf6" stroke-width="2"/>
    <text x="60" y="260" fill="#8b5cf6" font-family="system-ui, sans-serif" font-size="16">⌨</text>
    <text x="90" y="260" fill="#fff" font-family="system-ui, sans-serif" font-size="14" font-weight="600">Show Terminal Output</text>
    <text x="300" y="260" class="text-muted">Ctrl+Shift+T</text>
  </g>

  <!-- Arrow indicating click -->
  <g transform="translate(450, 160)">
    <line x1="0" y1="0" x2="50" y2="0" stroke="#8b5cf6" stroke-width="2" stroke-dasharray="4,2"/>
    <polygon points="50,-5 60,0 50,5" fill="#8b5cf6"/>
    <text x="25" y="20" text-anchor="middle" class="annotation">Click</text>
  </g>

  <!-- Terminal Output Modal -->
  <g id="terminal-modal" transform="translate(520, 50)">
    <rect x="0" y="0" width="840" height="500" rx="8" fill="#1e293b" stroke="#8b5cf6" stroke-width="2"/>

    <!-- Header with copy button -->
    <rect x="0" y="0" width="840" height="44" rx="8" fill="#334155"/>
    <rect x="0" y="36" width="840" height="8" fill="#1e293b"/>
    <circle cx="20" cy="22" r="6" fill="#ef4444"/>
    <circle cx="40" cy="22" r="6" fill="#eab308"/>
    <circle cx="60" cy="22" r="6" fill="#22c55e"/>
    <text x="85" y="28" class="heading">Terminal-Friendly SEO Output</text>

    <rect x="650" y="10" width="80" height="26" rx="4" fill="#8b5cf6"/>
    <text x="690" y="28" text-anchor="middle" fill="#fff" font-family="system-ui, sans-serif" font-size="11" font-weight="600">📋 Copy</text>

    <rect x="740" y="10" width="80" height="26" rx="4" fill="#475569"/>
    <text x="780" y="28" text-anchor="middle" class="text-sm">Close</text>

    <!-- Terminal content -->
    <rect x="15" y="55" width="810" height="430" rx="4" fill="#0f172a"/>

    <!-- Structured output -->
    <text x="30" y="80" class="code"># SEO Analysis Report</text>
    <text x="30" y="100" class="code"># Generated: 2025-12-31T14:30:00Z</text>
    <text x="30" y="120" class="code"># Post: getting-started-with-nextjs.md</text>
    <text x="30" y="140" class="code">---</text>

    <text x="30" y="165" class="code-key">OVERALL_SCORE</text>
    <text x="170" y="165" class="code">=</text>
    <text x="185" y="165" class="code-value">78</text>

    <text x="30" y="185" class="code-key">STATUS</text>
    <text x="170" y="185" class="code">=</text>
    <text x="185" y="185" class="code-string">"OPTIMIZED"</text>

    <text x="30" y="210" class="code">---</text>
    <text x="30" y="230" class="code"># Metrics</text>

    <text x="30" y="255" class="code-key">READABILITY_SCORE</text>
    <text x="200" y="255" class="code">=</text>
    <text x="215" y="255" class="code-value">65</text>
    <text x="250" y="255" class="text-muted"># Flesch score (target: 60-70)</text>

    <text x="30" y="275" class="code-key">SENTENCE_LENGTH_AVG</text>
    <text x="200" y="275" class="code">=</text>
    <text x="215" y="275" class="code-value">16</text>
    <text x="250" y="275" class="text-muted"># words (target: 15-20)</text>

    <text x="30" y="295" class="code-key">PASSIVE_VOICE_PCT</text>
    <text x="200" y="295" class="code">=</text>
    <text x="215" y="295" class="code-value">8</text>
    <text x="250" y="295" class="text-muted"># percent (target: &lt;10)</text>

    <text x="30" y="315" class="code-key">KEYWORD_DENSITY</text>
    <text x="200" y="315" class="code">=</text>
    <text x="215" y="315" class="code-value">2.4</text>
    <text x="260" y="315" class="text-muted"># percent (target: 2-3)</text>

    <text x="30" y="335" class="code-key">TITLE_LENGTH</text>
    <text x="200" y="335" class="code">=</text>
    <text x="215" y="335" class="code-value">54</text>
    <text x="250" y="335" class="text-muted"># chars (target: 50-60)</text>

    <text x="30" y="355" class="code-key">META_DESC_LENGTH</text>
    <text x="200" y="355" class="code">=</text>
    <text x="215" y="355" class="code-value">156</text>
    <text x="260" y="355" class="text-muted"># chars (target: 150-160)</text>

    <text x="30" y="375" class="code-key">WORD_COUNT</text>
    <text x="200" y="375" class="code">=</text>
    <text x="215" y="375" class="code-value">1240</text>
    <text x="270" y="375" class="text-muted"># words (min: 300)</text>

    <text x="30" y="395" class="code-key">HEADING_HIERARCHY</text>
    <text x="200" y="395" class="code">=</text>
    <text x="215" y="395" class="code-string">"VALID"</text>
    <text x="290" y="395" class="text-muted"># H1→H2→H3</text>

    <text x="30" y="420" class="code">---</text>
    <text x="30" y="440" class="code"># Suggestions (1)</text>
    <text x="30" y="460" class="code-key">SUGGESTION_1</text>
    <text x="140" y="460" class="code">=</text>
    <text x="155" y="460" class="code-string">"Consider adding more internal links"</text>
  </g>

  <!-- Use Cases Panel -->
  <g id="use-cases" transform="translate(40, 370)">
    <rect x="0" y="0" width="460" height="390" rx="8" fill="#1e293b" stroke="#475569" stroke-width="1"/>

    <!-- Header -->
    <rect x="0" y="0" width="460" height="40" rx="8" fill="#334155"/>
    <rect x="0" y="32" width="460" height="8" fill="#1e293b"/>
    <text x="230" y="26" text-anchor="middle" class="heading">Terminal Output Use Cases</text>

    <!-- Use case 1: grep -->
    <rect x="20" y="55" width="420" height="90" rx="6" fill="#0f172a"/>
    <text x="35" y="78" class="heading">1. Quick Score Check with grep</text>
    <rect x="35" y="88" width="390" height="45" rx="4" fill="#334155"/>
    <text x="45" y="108" fill="#22c55e" font-family="monospace" font-size="10">$</text>
    <text x="60" y="108" class="code">seo-report.txt | grep OVERALL_SCORE</text>
    <text x="45" y="126" class="code">OVERALL_SCORE=78</text>

    <!-- Use case 2: CI/CD -->
    <rect x="20" y="155" width="420" height="100" rx="6" fill="#0f172a"/>
    <text x="35" y="178" class="heading">2. CI/CD Quality Gate</text>
    <rect x="35" y="188" width="390" height="55" rx="4" fill="#334155"/>
    <text x="45" y="208" fill="#22c55e" font-family="monospace" font-size="10">$</text>
    <text x="60" y="208" class="code">SCORE=$(grep OVERALL_SCORE report.txt | cut -d= -f2)</text>
    <text x="45" y="226" fill="#22c55e" font-family="monospace" font-size="10">$</text>
    <text x="60" y="226" class="code">[ "$SCORE" -ge 70 ] || exit 1</text>

    <!-- Use case 3: jq JSON -->
    <rect x="20" y="265" width="420" height="110" rx="6" fill="#0f172a"/>
    <text x="35" y="288" class="heading">3. JSON Processing with jq</text>
    <text x="35" y="306" class="text-muted">Also available in JSON format:</text>
    <rect x="35" y="315" width="390" height="50" rx="4" fill="#334155"/>
    <text x="45" y="335" fill="#22c55e" font-family="monospace" font-size="10">$</text>
    <text x="60" y="335" class="code">jq '.metrics.readability' seo-report.json</text>
    <text x="45" y="353" class="code-value">65</text>
  </g>

  <!-- JSON Alternative Output -->
  <g id="json-output" transform="translate(520, 570)">
    <rect x="0" y="0" width="840" height="190" rx="8" fill="#1e293b" stroke="#475569" stroke-width="1"/>

    <!-- Header -->
    <rect x="0" y="0" width="840" height="36" rx="8" fill="#334155"/>
    <rect x="0" y="28" width="840" height="8" fill="#1e293b"/>
    <text x="20" y="24" class="heading">Alternative: JSON Format (seo-report.json)</text>
    <rect x="730" y="6" width="90" height="24" rx="4" fill="#475569"/>
    <text x="775" y="23" text-anchor="middle" class="text-sm">📋 Copy JSON</text>

    <!-- JSON content -->
    <rect x="15" y="45" width="810" height="135" rx="4" fill="#0f172a"/>
    <text x="30" y="68" class="code">{</text>
    <text x="45" y="86" class="code-key">"slug"</text>
    <text x="90" y="86" class="code">:</text>
    <text x="100" y="86" class="code-string">"getting-started-with-nextjs"</text>
    <text x="330" y="86" class="code">,</text>

    <text x="45" y="104" class="code-key">"overallScore"</text>
    <text x="145" y="104" class="code">:</text>
    <text x="155" y="104" class="code-value">78</text>
    <text x="175" y="104" class="code">,</text>

    <text x="45" y="122" class="code-key">"status"</text>
    <text x="105" y="122" class="code">:</text>
    <text x="115" y="122" class="code-string">"OPTIMIZED"</text>
    <text x="200" y="122" class="code">,</text>

    <text x="45" y="140" class="code-key">"metrics"</text>
    <text x="110" y="140" class="code">: {</text>
    <text x="140" y="140" class="code-key">"readability"</text>
    <text x="225" y="140" class="code">:</text>
    <text x="235" y="140" class="code-value">65</text>
    <text x="255" y="140" class="code">,</text>
    <text x="265" y="140" class="code-key">"passiveVoice"</text>
    <text x="365" y="140" class="code">:</text>
    <text x="375" y="140" class="code-value">8</text>
    <text x="390" y="140" class="code">,</text>
    <text x="400" y="140" class="code-key">"keywordDensity"</text>
    <text x="515" y="140" class="code">:</text>
    <text x="525" y="140" class="code-value">2.4</text>
    <text x="555" y="140" class="code">, ... },</text>

    <text x="45" y="158" class="code-key">"suggestions"</text>
    <text x="135" y="158" class="code">: [</text>
    <text x="155" y="158" class="code-string">"Consider adding more internal links"</text>
    <text x="410" y="158" class="code">]</text>

    <text x="30" y="176" class="code">}</text>
  </g>
</svg>