<svg xmlns="http://www.w3.org/2000/svg" viewBox="0 0 1400 800" width="1400" height="800">
  <!-- ============================================================
       GENERATED BY: /wireframe skill
       SOURCE: features/foundation/001-wcag-aa-compliance/spec.md
       DATE: 2025-12-31
       THEME: Light (UX/Frontend)
       DO NOT MANUALLY EDIT - Regenerate with /wireframe command
       ============================================================ -->
  <defs>
    <linearGradient id="bgGrad" x1="0%" y1="0%" x2="100%" y2="100%">
      <stop offset="0%" style="stop-color:#ffffff"/>
      <stop offset="100%" style="stop-color:#f0f4f8"/>
    </linearGradient>
    <linearGradient id="accentGrad" x1="0%" y1="0%" x2="100%" y2="0%">
      <stop offset="0%" style="stop-color:#8b5cf6"/>
      <stop offset="100%" style="stop-color:#d946ef"/>
    </linearGradient>
    <linearGradient id="successGrad" x1="0%" y1="0%" x2="0%" y2="100%">
      <stop offset="0%" style="stop-color:#22c55e"/>
      <stop offset="100%" style="stop-color:#16a34a"/>
    </linearGradient>
    <style>
      .heading-lg { fill: #1f2937; font-family: system-ui, sans-serif; font-size: 20px; font-weight: bold; }
      .heading { fill: #1f2937; font-family: system-ui, sans-serif; font-size: 14px; font-weight: bold; }
      .heading-sm { fill: #1f2937; font-family: system-ui, sans-serif; font-size: 12px; font-weight: bold; }
      .text-md { fill: #374151; font-family: system-ui, sans-serif; font-size: 12px; }
      .text-sm { fill: #6b7280; font-family: system-ui, sans-serif; font-size: 10px; }
      .text-muted { fill: #9ca3af; font-family: system-ui, sans-serif; font-size: 10px; }
      .annotation { fill: #8b5cf6; font-family: monospace; font-size: 10px; }
      .label-desktop { fill: #8b5cf6; font-family: monospace; font-size: 11px; font-weight: bold; }
      .label-mobile { fill: #d946ef; font-family: monospace; font-size: 11px; font-weight: bold; }
      .score-lg { fill: #22c55e; font-family: system-ui, sans-serif; font-size: 48px; font-weight: bold; }
      .score-md { fill: #22c55e; font-family: system-ui, sans-serif; font-size: 24px; font-weight: bold; }
      .error-text { fill: #ef4444; font-family: system-ui, sans-serif; font-size: 10px; font-weight: bold; }
      .warning-text { fill: #eab308; font-family: system-ui, sans-serif; font-size: 10px; font-weight: bold; }
      .success-text { fill: #22c55e; font-family: system-ui, sans-serif; font-size: 10px; font-weight: bold; }
    </style>
  </defs>

  <!-- Background -->
  <rect width="1400" height="800" fill="url(#bgGrad)"/>

  <!-- Dot grid pattern -->
  <g opacity="0.4">
    <pattern id="dots" width="30" height="30" patternUnits="userSpaceOnUse">
      <circle cx="15" cy="15" r="1" fill="#a5b4fc"/>
    </pattern>
    <rect width="1400" height="800" fill="url(#dots)"/>
  </g>

  <!-- Accent line top -->
  <rect x="0" y="0" width="1400" height="3" fill="url(#accentGrad)"/>

  <!-- Title -->
  <text x="700" y="28" text-anchor="middle" font-family="system-ui, sans-serif" font-size="14" font-weight="600" fill="#9ca3af" letter-spacing="1">ACCESSIBILITY DASHBOARD</text>

  <!-- DESKTOP SECTION -->
  <text x="40" y="52" class="label-desktop">DESKTOP</text>

  <g id="desktop-view">
    <!-- Main container -->
    <rect x="40" y="60" width="900" height="700" rx="8" fill="#ffffff" stroke="#e5e7eb" stroke-width="1"/>

    <!-- Header bar -->
    <rect x="40" y="60" width="900" height="50" rx="8" fill="#f9fafb"/>
    <rect x="40" y="102" width="900" height="8" fill="#ffffff"/>
    <text x="60" y="92" class="heading-lg">Accessibility Dashboard</text>
    <text x="860" y="88" class="text-sm">Last scan: 2 min ago</text>

    <!-- Overall Score Card -->
    <rect x="60" y="130" width="200" height="140" rx="8" fill="#f0fdf4" stroke="#22c55e" stroke-width="2"/>
    <text x="160" y="160" text-anchor="middle" class="heading">Overall Score</text>
    <text x="160" y="220" text-anchor="middle" class="score-lg">94</text>
    <text x="160" y="245" text-anchor="middle" class="text-sm">WCAG AAA Compliant</text>

    <!-- Stats Cards Row -->
    <g id="stats-cards">
      <!-- Pages Tested -->
      <rect x="280" y="130" width="130" height="65" rx="6" fill="#ffffff" stroke="#e5e7eb"/>
      <text x="345" y="155" text-anchor="middle" class="text-muted">Pages Tested</text>
      <text x="345" y="180" text-anchor="middle" class="heading-lg">24</text>

      <!-- Critical Issues -->
      <rect x="420" y="130" width="130" height="65" rx="6" fill="#fef2f2" stroke="#fecaca"/>
      <text x="485" y="155" text-anchor="middle" class="text-muted">Critical</text>
      <text x="485" y="180" text-anchor="middle" font-family="system-ui" font-size="20" font-weight="bold" fill="#ef4444">0</text>

      <!-- Warnings -->
      <rect x="560" y="130" width="130" height="65" rx="6" fill="#fefce8" stroke="#fef08a"/>
      <text x="625" y="155" text-anchor="middle" class="text-muted">Warnings</text>
      <text x="625" y="180" text-anchor="middle" font-family="system-ui" font-size="20" font-weight="bold" fill="#eab308">3</text>

      <!-- Notices -->
      <rect x="700" y="130" width="130" height="65" rx="6" fill="#eff6ff" stroke="#bfdbfe"/>
      <text x="765" y="155" text-anchor="middle" class="text-muted">Notices</text>
      <text x="765" y="180" text-anchor="middle" font-family="system-ui" font-size="20" font-weight="bold" fill="#3b82f6">12</text>
    </g>

    <!-- Trend Chart -->
    <rect x="280" y="205" width="550" height="65" rx="6" fill="#ffffff" stroke="#e5e7eb"/>
    <text x="300" y="225" class="heading-sm">90-Day Trend</text>
    <!-- Simplified trend line -->
    <polyline points="300,255 350,250 400,252 450,248 500,245 550,250 600,242 650,238 700,240 750,235 800,232"
              fill="none" stroke="#22c55e" stroke-width="2"/>
    <circle cx="800" cy="232" r="4" fill="#22c55e"/>

    <!-- Per-Page Breakdown -->
    <rect x="60" y="285" width="400" height="460" rx="8" fill="#ffffff" stroke="#e5e7eb"/>
    <text x="80" y="315" class="heading">Per-Page Compliance</text>

    <!-- Page list items -->
    <g id="page-list">
      <!-- Page 1 - Passing -->
      <rect x="75" y="335" width="370" height="50" rx="6" fill="#f9fafb"/>
      <text x="95" y="355" class="text-md">/home</text>
      <text x="95" y="372" class="text-sm">Last tested: Today 10:42 AM</text>
      <rect x="380" y="347" width="50" height="24" rx="12" fill="#dcfce7"/>
      <text x="405" y="364" text-anchor="middle" class="success-text">100</text>

      <!-- Page 2 - Passing -->
      <rect x="75" y="395" width="370" height="50" rx="6" fill="#f9fafb"/>
      <text x="95" y="415" class="text-md">/dashboard</text>
      <text x="95" y="432" class="text-sm">Last tested: Today 10:42 AM</text>
      <rect x="380" y="407" width="50" height="24" rx="12" fill="#dcfce7"/>
      <text x="405" y="424" text-anchor="middle" class="success-text">98</text>

      <!-- Page 3 - Warning -->
      <rect x="75" y="455" width="370" height="50" rx="6" fill="#fffbeb" stroke="#fef08a"/>
      <text x="95" y="475" class="text-md">/settings</text>
      <text x="95" y="492" class="text-sm">2 warnings • Contrast issues</text>
      <rect x="380" y="467" width="50" height="24" rx="12" fill="#fef9c3"/>
      <text x="405" y="484" text-anchor="middle" class="warning-text">87</text>

      <!-- Page 4 - Passing -->
      <rect x="75" y="515" width="370" height="50" rx="6" fill="#f9fafb"/>
      <text x="95" y="535" class="text-md">/profile</text>
      <text x="95" y="552" class="text-sm">Last tested: Today 10:42 AM</text>
      <rect x="380" y="527" width="50" height="24" rx="12" fill="#dcfce7"/>
      <text x="405" y="544" text-anchor="middle" class="success-text">96</text>

      <!-- Page 5 - Passing -->
      <rect x="75" y="575" width="370" height="50" rx="6" fill="#f9fafb"/>
      <text x="95" y="595" class="text-md">/messages</text>
      <text x="95" y="612" class="text-sm">Last tested: Today 10:42 AM</text>
      <rect x="380" y="587" width="50" height="24" rx="12" fill="#dcfce7"/>
      <text x="405" y="604" text-anchor="middle" class="success-text">95</text>

      <!-- More pages indicator -->
      <text x="260" y="660" text-anchor="middle" class="text-muted">+ 19 more pages</text>
      <rect x="200" y="675" width="120" height="32" rx="6" fill="#ffffff" stroke="#8b5cf6"/>
      <text x="260" y="696" text-anchor="middle" fill="#8b5cf6" font-family="system-ui" font-size="12">View All</text>
    </g>

    <!-- Issue Details Panel -->
    <rect x="480" y="285" width="440" height="460" rx="8" fill="#ffffff" stroke="#e5e7eb"/>
    <text x="500" y="315" class="heading">Issue Details: /settings</text>

    <!-- Issue cards -->
    <g id="issue-details">
      <!-- Warning Issue 1 -->
      <rect x="495" y="335" width="410" height="90" rx="6" fill="#fffbeb" stroke="#fef08a"/>
      <rect x="495" y="335" width="4" height="90" rx="2" fill="#eab308"/>
      <text x="515" y="358" class="warning-text">WARNING</text>
      <text x="575" y="358" class="heading-sm">Insufficient Contrast Ratio</text>
      <text x="515" y="378" class="text-sm">Element: .settings-label</text>
      <text x="515" y="395" class="text-sm">Current: 6.2:1 • Required: 7:1 (AAA)</text>
      <rect x="515" y="405" width="100" height="12" rx="2" fill="#fef3c7"/>
      <text x="520" y="414" font-family="monospace" font-size="8" fill="#92400e">color: #6b7280</text>

      <!-- Warning Issue 2 -->
      <rect x="495" y="435" width="410" height="90" rx="6" fill="#fffbeb" stroke="#fef08a"/>
      <rect x="495" y="435" width="4" height="90" rx="2" fill="#eab308"/>
      <text x="515" y="458" class="warning-text">WARNING</text>
      <text x="575" y="458" class="heading-sm">Touch Target Too Small</text>
      <text x="515" y="478" class="text-sm">Element: .toggle-switch</text>
      <text x="515" y="495" class="text-sm">Current: 36×20px • Required: 44×44px</text>
      <rect x="515" y="505" width="120" height="12" rx="2" fill="#fef3c7"/>
      <text x="520" y="514" font-family="monospace" font-size="8" fill="#92400e">min-height: 44px</text>

      <!-- Remediation box -->
      <rect x="495" y="540" width="410" height="100" rx="6" fill="#f0fdf4" stroke="#86efac"/>
      <text x="515" y="565" class="heading-sm" fill="#166534">Remediation Guide</text>
      <text x="515" y="585" class="text-sm">1. Update .settings-label color to #4b5563</text>
      <text x="515" y="602" class="text-sm">2. Add min-height: 44px to .toggle-switch</text>
      <text x="515" y="619" class="text-sm">3. Re-run accessibility scan to verify</text>

      <!-- Action buttons -->
      <rect x="495" y="655" width="100" height="36" rx="6" fill="#8b5cf6"/>
      <text x="545" y="678" text-anchor="middle" fill="#ffffff" font-family="system-ui" font-size="12" font-weight="bold">Fix Now</text>
      <rect x="605" y="655" width="100" height="36" rx="6" fill="#ffffff" stroke="#e5e7eb"/>
      <text x="655" y="678" text-anchor="middle" class="text-md">Ignore</text>
      <rect x="715" y="655" width="100" height="36" rx="6" fill="#ffffff" stroke="#e5e7eb"/>
      <text x="765" y="678" text-anchor="middle" class="text-md">Export</text>
    </g>
  </g>

  <!-- MOBILE SECTION -->
  <text x="980" y="52" class="label-mobile">MOBILE</text>

  <g id="mobile-view" transform="translate(980, 60)">
    <!-- Phone frame -->
    <rect x="0" y="0" width="360" height="700" rx="24" fill="#ffffff" stroke="#e5e7eb" stroke-width="2"/>
    <!-- Screen area -->
    <rect x="10" y="10" width="340" height="680" rx="16" fill="#f3f4f6"/>
    <!-- Status bar -->
    <rect x="10" y="10" width="340" height="28" rx="16" fill="#ffffff"/>
    <text x="30" y="28" class="text-sm">9:41</text>
    <circle cx="310" cy="24" r="8" fill="none" stroke="#6b7280" stroke-width="1.5"/>
    <rect x="306" y="20" width="8" height="8" rx="1" fill="#6b7280"/>

    <!-- Mobile Header -->
    <rect x="10" y="38" width="340" height="50" fill="#ffffff"/>
    <text x="180" y="70" text-anchor="middle" class="heading">Accessibility</text>

    <!-- Overall Score - Mobile -->
    <rect x="25" y="100" width="310" height="100" rx="12" fill="#f0fdf4" stroke="#22c55e" stroke-width="2"/>
    <text x="180" y="130" text-anchor="middle" class="heading">Overall Score</text>
    <text x="180" y="175" text-anchor="middle" class="score-md">94</text>
    <text x="180" y="195" text-anchor="middle" class="text-muted">WCAG AAA Compliant</text>

    <!-- Stats Row - Mobile -->
    <g id="mobile-stats">
      <rect x="25" y="215" width="95" height="55" rx="8" fill="#fef2f2"/>
      <text x="72" y="235" text-anchor="middle" class="text-muted">Critical</text>
      <text x="72" y="258" text-anchor="middle" font-family="system-ui" font-size="16" font-weight="bold" fill="#ef4444">0</text>

      <rect x="130" y="215" width="95" height="55" rx="8" fill="#fefce8"/>
      <text x="177" y="235" text-anchor="middle" class="text-muted">Warnings</text>
      <text x="177" y="258" text-anchor="middle" font-family="system-ui" font-size="16" font-weight="bold" fill="#eab308">3</text>

      <rect x="235" y="215" width="100" height="55" rx="8" fill="#eff6ff"/>
      <text x="285" y="235" text-anchor="middle" class="text-muted">Notices</text>
      <text x="285" y="258" text-anchor="middle" font-family="system-ui" font-size="16" font-weight="bold" fill="#3b82f6">12</text>
    </g>

    <!-- Page List - Mobile -->
    <text x="25" y="300" class="heading-sm">Pages</text>

    <!-- Page items -->
    <rect x="25" y="315" width="310" height="50" rx="8" fill="#ffffff"/>
    <text x="45" y="340" class="text-md">/home</text>
    <text x="45" y="355" class="text-muted">Passing</text>
    <rect x="280" y="330" width="40" height="20" rx="10" fill="#dcfce7"/>
    <text x="300" y="344" text-anchor="middle" class="success-text">100</text>

    <rect x="25" y="375" width="310" height="50" rx="8" fill="#ffffff"/>
    <text x="45" y="400" class="text-md">/dashboard</text>
    <text x="45" y="415" class="text-muted">Passing</text>
    <rect x="280" y="390" width="40" height="20" rx="10" fill="#dcfce7"/>
    <text x="300" y="404" text-anchor="middle" class="success-text">98</text>

    <rect x="25" y="435" width="310" height="50" rx="8" fill="#fffbeb" stroke="#fef08a"/>
    <text x="45" y="460" class="text-md">/settings</text>
    <text x="45" y="475" class="text-muted">2 warnings</text>
    <rect x="280" y="450" width="40" height="20" rx="10" fill="#fef9c3"/>
    <text x="300" y="464" text-anchor="middle" class="warning-text">87</text>

    <rect x="25" y="495" width="310" height="50" rx="8" fill="#ffffff"/>
    <text x="45" y="520" class="text-md">/profile</text>
    <text x="45" y="535" class="text-muted">Passing</text>
    <rect x="280" y="510" width="40" height="20" rx="10" fill="#dcfce7"/>
    <text x="300" y="524" text-anchor="middle" class="success-text">96</text>

    <rect x="25" y="555" width="310" height="50" rx="8" fill="#ffffff"/>
    <text x="45" y="580" class="text-md">/messages</text>
    <text x="45" y="595" class="text-muted">Passing</text>
    <rect x="280" y="570" width="40" height="20" rx="10" fill="#dcfce7"/>
    <text x="300" y="584" text-anchor="middle" class="success-text">95</text>

    <!-- View All Button -->
    <rect x="25" y="620" width="310" height="44" rx="8" fill="#8b5cf6"/>
    <text x="180" y="648" text-anchor="middle" fill="#ffffff" font-family="system-ui" font-size="14" font-weight="bold">View All Pages</text>

    <!-- Bottom nav hint -->
    <rect x="140" y="675" width="80" height="5" rx="2" fill="#9ca3af"/>
  </g>

  <!-- Annotations -->
  <g id="annotations">
    <rect x="60" y="755" width="120" height="30" rx="4" fill="#ffffff" stroke="#8b5cf6"/>
    <text x="120" y="775" text-anchor="middle" class="annotation">SC-001, FR-033</text>

    <rect x="280" y="755" width="140" height="30" rx="4" fill="#ffffff" stroke="#8b5cf6"/>
    <text x="350" y="775" text-anchor="middle" class="annotation">FR-034: 90-day trend</text>

    <rect x="500" y="755" width="160" height="30" rx="4" fill="#ffffff" stroke="#8b5cf6"/>
    <text x="580" y="775" text-anchor="middle" class="annotation">FR-004: Remediation</text>
  </g>
</svg>