<svg xmlns="http://www.w3.org/2000/svg" viewBox="0 0 1400 800" width="1400" height="800">
  <!-- ============================================================
       GENERATED BY: /wireframe skill
       SOURCE: features/foundation/001-wcag-aa-compliance/spec.md
       DATE: 2025-12-31
       THEME: Dark (Backend/Architecture)
       DO NOT MANUALLY EDIT - Regenerate with /wireframe command
       ============================================================ -->
  <defs>
    <linearGradient id="bgGrad" x1="0%" y1="0%" x2="100%" y2="100%">
      <stop offset="0%" style="stop-color:#0f172a"/>
      <stop offset="100%" style="stop-color:#1e293b"/>
    </linearGradient>
    <linearGradient id="accentGrad" x1="0%" y1="0%" x2="100%" y2="0%">
      <stop offset="0%" style="stop-color:#8b5cf6"/>
      <stop offset="100%" style="stop-color:#d946ef"/>
    </linearGradient>
    <linearGradient id="successGrad" x1="0%" y1="0%" x2="100%" y2="0%">
      <stop offset="0%" style="stop-color:#22c55e"/>
      <stop offset="100%" style="stop-color:#16a34a"/>
    </linearGradient>
    <linearGradient id="errorGrad" x1="0%" y1="0%" x2="100%" y2="0%">
      <stop offset="0%" style="stop-color:#ef4444"/>
      <stop offset="100%" style="stop-color:#dc2626"/>
    </linearGradient>
    <style>
      .heading-lg { fill: #ffffff; font-family: system-ui, sans-serif; font-size: 20px; font-weight: bold; }
      .heading { fill: #ffffff; font-family: system-ui, sans-serif; font-size: 14px; font-weight: bold; }
      .text-md { fill: #cbd5e1; font-family: system-ui, sans-serif; font-size: 12px; }
      .text-sm { fill: #94a3b8; font-family: system-ui, sans-serif; font-size: 10px; }
      .text-muted { fill: #8494a8; font-family: system-ui, sans-serif; font-size: 10px; }
      .annotation { fill: #6d28d9; font-family: monospace; font-size: 10px; }
      .label { fill: #8b5cf6; font-family: monospace; font-size: 11px; font-weight: bold; }
    </style>
    <marker id="arrowhead" markerWidth="10" markerHeight="7" refX="9" refY="3.5" orient="auto">
      <polygon points="0 0, 10 3.5, 0 7" fill="#8b5cf6"/>
    </marker>
    <marker id="arrowSuccess" markerWidth="10" markerHeight="7" refX="9" refY="3.5" orient="auto">
      <polygon points="0 0, 10 3.5, 0 7" fill="#22c55e"/>
    </marker>
    <marker id="arrowError" markerWidth="10" markerHeight="7" refX="9" refY="3.5" orient="auto">
      <polygon points="0 0, 10 3.5, 0 7" fill="#ef4444"/>
    </marker>
  </defs>

  <!-- Background -->
  <rect width="1400" height="800" fill="url(#bgGrad)"/>

  <!-- Dot grid pattern -->
  <g opacity="0.05">
    <pattern id="dots" width="30" height="30" patternUnits="userSpaceOnUse">
      <circle cx="15" cy="15" r="1" fill="#fff"/>
    </pattern>
    <rect width="1400" height="800" fill="url(#dots)"/>
  </g>

  <!-- Accent line top -->
  <rect x="0" y="0" width="1400" height="3" fill="url(#accentGrad)"/>

  <!-- Title -->
  <text x="700" y="32" text-anchor="middle" class="heading-lg">WCAG AAA ACCESSIBILITY TESTING PIPELINE</text>
  <text x="700" y="52" text-anchor="middle" class="text-muted">CI/CD Integration with Pa11y + axe-core • Automated Enforcement</text>

  <!-- ========== ROW 1: Source & Trigger ========== -->

  <!-- Git Push -->
  <g transform="translate(60, 100)">
    <rect x="0" y="0" width="140" height="80" rx="8" fill="#1e293b" stroke="#475569" stroke-width="2"/>
    <text x="70" y="25" text-anchor="middle" class="heading">Git Push</text>
    <text x="70" y="45" text-anchor="middle" class="text-sm">PR / Main Branch</text>
    <text x="70" y="62" text-anchor="middle" class="text-muted">Trigger Event</text>
  </g>

  <!-- Arrow to CI -->
  <line x1="200" y1="140" x2="280" y2="140" stroke="#8b5cf6" stroke-width="2" marker-end="url(#arrowhead)"/>

  <!-- GitHub Actions -->
  <g transform="translate(290, 100)">
    <rect x="0" y="0" width="160" height="80" rx="8" fill="#334155" stroke="#8b5cf6" stroke-width="2"/>
    <text x="80" y="25" text-anchor="middle" class="heading">GitHub Actions</text>
    <text x="80" y="45" text-anchor="middle" class="text-sm">CI/CD Pipeline</text>
    <text x="80" y="62" text-anchor="middle" class="annotation">workflow.yml</text>
  </g>

  <!-- Arrow to Test Stage -->
  <line x1="450" y1="140" x2="530" y2="140" stroke="#8b5cf6" stroke-width="2" marker-end="url(#arrowhead)"/>

  <!-- ========== ROW 1: Test Stage ========== -->

  <!-- Test Orchestration Box -->
  <g transform="translate(540, 80)">
    <rect x="0" y="0" width="340" height="120" rx="8" fill="#1e293b" stroke="#475569" stroke-width="2"/>
    <text x="170" y="25" text-anchor="middle" class="label">ACCESSIBILITY TEST SUITE</text>

    <!-- Pa11y -->
    <g transform="translate(20, 40)">
      <rect x="0" y="0" width="90" height="60" rx="6" fill="#334155" stroke="#8b5cf6" stroke-width="1"/>
      <text x="45" y="25" text-anchor="middle" class="heading">Pa11y</text>
      <text x="45" y="45" text-anchor="middle" class="text-muted">Full Page</text>
    </g>

    <!-- axe-core -->
    <g transform="translate(125, 40)">
      <rect x="0" y="0" width="90" height="60" rx="6" fill="#334155" stroke="#8b5cf6" stroke-width="1"/>
      <text x="45" y="25" text-anchor="middle" class="heading">axe-core</text>
      <text x="45" y="45" text-anchor="middle" class="text-muted">Component</text>
    </g>

    <!-- Lighthouse -->
    <g transform="translate(230, 40)">
      <rect x="0" y="0" width="90" height="60" rx="6" fill="#334155" stroke="#8b5cf6" stroke-width="1"/>
      <text x="45" y="25" text-anchor="middle" class="heading">Lighthouse</text>
      <text x="45" y="45" text-anchor="middle" class="text-muted">Audit</text>
    </g>
  </g>

  <!-- Arrow to Decision -->
  <line x1="880" y1="140" x2="960" y2="140" stroke="#8b5cf6" stroke-width="2" marker-end="url(#arrowhead)"/>

  <!-- Decision Diamond -->
  <g transform="translate(970, 90)">
    <polygon points="70,0 140,50 70,100 0,50" fill="#334155" stroke="#d946ef" stroke-width="2"/>
    <text x="70" y="45" text-anchor="middle" class="heading">WCAG</text>
    <text x="70" y="60" text-anchor="middle" class="heading">AAA?</text>
  </g>

  <!-- Pass Arrow (down-right) -->
  <path d="M 1110 140 L 1180 140 L 1180 250" stroke="#22c55e" stroke-width="2" fill="none" marker-end="url(#arrowSuccess)"/>
  <text x="1150" y="130" class="text-sm" fill="#22c55e">PASS</text>

  <!-- Fail Arrow (down-left) -->
  <path d="M 1040 190 L 1040 250" stroke="#ef4444" stroke-width="2" fill="none" marker-end="url(#arrowError)"/>
  <text x="1050" y="225" class="text-sm" fill="#ef4444">FAIL</text>

  <!-- ========== ROW 2: Test Criteria ========== -->

  <g transform="translate(60, 220)">
    <rect x="0" y="0" width="820" height="140" rx="8" fill="#1e293b" stroke="#475569" stroke-width="2"/>
    <text x="410" y="25" text-anchor="middle" class="label">WCAG 2.1 AAA TEST CRITERIA</text>

    <!-- Contrast Tests -->
    <g transform="translate(20, 40)">
      <rect x="0" y="0" width="180" height="80" rx="6" fill="#334155" stroke="#475569" stroke-width="1"/>
      <text x="90" y="22" text-anchor="middle" class="heading">Contrast Ratio</text>
      <text x="90" y="42" text-anchor="middle" class="text-sm">Normal text: 7:1</text>
      <text x="90" y="58" text-anchor="middle" class="text-sm">Large text: 4.5:1</text>
      <text x="90" y="74" text-anchor="middle" class="text-muted">32 themes tested</text>
    </g>

    <!-- Touch Targets -->
    <g transform="translate(220, 40)">
      <rect x="0" y="0" width="180" height="80" rx="6" fill="#334155" stroke="#475569" stroke-width="1"/>
      <text x="90" y="22" text-anchor="middle" class="heading">Touch Targets</text>
      <text x="90" y="42" text-anchor="middle" class="text-sm">Min: 44×44 CSS px</text>
      <text x="90" y="58" text-anchor="middle" class="text-sm">Button spacing</text>
      <text x="90" y="74" text-anchor="middle" class="text-muted">Motor accessibility</text>
    </g>

    <!-- Keyboard Nav -->
    <g transform="translate(420, 40)">
      <rect x="0" y="0" width="180" height="80" rx="6" fill="#334155" stroke="#475569" stroke-width="1"/>
      <text x="90" y="22" text-anchor="middle" class="heading">Keyboard Nav</text>
      <text x="90" y="42" text-anchor="middle" class="text-sm">Tab order logical</text>
      <text x="90" y="58" text-anchor="middle" class="text-sm">Focus visible 2px+</text>
      <text x="90" y="74" text-anchor="middle" class="text-muted">No focus traps</text>
    </g>

    <!-- ARIA / Screen Reader -->
    <g transform="translate(620, 40)">
      <rect x="0" y="0" width="180" height="80" rx="6" fill="#334155" stroke="#475569" stroke-width="1"/>
      <text x="90" y="22" text-anchor="middle" class="heading">Screen Reader</text>
      <text x="90" y="42" text-anchor="middle" class="text-sm">ARIA landmarks</text>
      <text x="90" y="58" text-anchor="middle" class="text-sm">Live regions</text>
      <text x="90" y="74" text-anchor="middle" class="text-muted">Alt text verified</text>
    </g>
  </g>

  <!-- ========== ROW 2: Outcomes ========== -->

  <!-- Fail Block -->
  <g transform="translate(970, 260)">
    <rect x="0" y="0" width="140" height="100" rx="8" fill="#1e293b" stroke="#ef4444" stroke-width="2"/>
    <text x="70" y="25" text-anchor="middle" class="heading" fill="#ef4444">BUILD FAILED</text>
    <text x="70" y="48" text-anchor="middle" class="text-sm">Block merge</text>
    <text x="70" y="65" text-anchor="middle" class="text-sm">Show violations</text>
    <text x="70" y="82" text-anchor="middle" class="text-muted">Fix required</text>
  </g>

  <!-- Pass Block -->
  <g transform="translate(1140, 260)">
    <rect x="0" y="0" width="140" height="100" rx="8" fill="#1e293b" stroke="#22c55e" stroke-width="2"/>
    <text x="70" y="25" text-anchor="middle" class="heading" fill="#22c55e">BUILD PASSED</text>
    <text x="70" y="48" text-anchor="middle" class="text-sm">Allow merge</text>
    <text x="70" y="65" text-anchor="middle" class="text-sm">Deploy ready</text>
    <text x="70" y="82" text-anchor="middle" class="text-muted">Continue flow</text>
  </g>

  <!-- ========== ROW 3: Report Generation ========== -->

  <g transform="translate(60, 400)">
    <rect x="0" y="0" width="560" height="140" rx="8" fill="#1e293b" stroke="#475569" stroke-width="2"/>
    <text x="280" y="25" text-anchor="middle" class="label">VIOLATION REPORT GENERATION</text>

    <!-- Report Card -->
    <g transform="translate(20, 40)">
      <rect x="0" y="0" width="160" height="80" rx="6" fill="#334155" stroke="#d946ef" stroke-width="1"/>
      <text x="80" y="22" text-anchor="middle" class="heading">JSON Report</text>
      <text x="80" y="42" text-anchor="middle" class="text-sm">Element selectors</text>
      <text x="80" y="58" text-anchor="middle" class="text-sm">Rule violations</text>
      <text x="80" y="74" text-anchor="middle" class="text-muted">Severity levels</text>
    </g>

    <!-- Remediation Guide -->
    <g transform="translate(200, 40)">
      <rect x="0" y="0" width="160" height="80" rx="6" fill="#334155" stroke="#d946ef" stroke-width="1"/>
      <text x="80" y="22" text-anchor="middle" class="heading">Remediation</text>
      <text x="80" y="42" text-anchor="middle" class="text-sm">Fix suggestions</text>
      <text x="80" y="58" text-anchor="middle" class="text-sm">Code examples</text>
      <text x="80" y="74" text-anchor="middle" class="text-muted">WCAG reference</text>
    </g>

    <!-- HTML Summary -->
    <g transform="translate(380, 40)">
      <rect x="0" y="0" width="160" height="80" rx="6" fill="#334155" stroke="#d946ef" stroke-width="1"/>
      <text x="80" y="22" text-anchor="middle" class="heading">HTML Summary</text>
      <text x="80" y="42" text-anchor="middle" class="text-sm">Visual report</text>
      <text x="80" y="58" text-anchor="middle" class="text-sm">Screenshots</text>
      <text x="80" y="74" text-anchor="middle" class="text-muted">CI artifact</text>
    </g>
  </g>

  <!-- Arrow to Database -->
  <line x1="620" y1="470" x2="700" y2="470" stroke="#8b5cf6" stroke-width="2" marker-end="url(#arrowhead)"/>

  <!-- ========== ROW 3: Data Storage ========== -->

  <g transform="translate(710, 400)">
    <rect x="0" y="0" width="280" height="140" rx="8" fill="#1e293b" stroke="#475569" stroke-width="2"/>
    <text x="140" y="25" text-anchor="middle" class="label">HISTORICAL DATA STORAGE</text>

    <!-- Database icon -->
    <g transform="translate(20, 45)">
      <ellipse cx="50" cy="10" rx="40" ry="10" fill="#334155" stroke="#8b5cf6" stroke-width="1"/>
      <rect x="10" y="10" width="80" height="50" fill="#334155"/>
      <ellipse cx="50" cy="60" rx="40" ry="10" fill="#334155" stroke="#8b5cf6" stroke-width="1"/>
      <line x1="10" y1="10" x2="10" y2="60" stroke="#8b5cf6" stroke-width="1"/>
      <line x1="90" y1="10" x2="90" y2="60" stroke="#8b5cf6" stroke-width="1"/>
      <text x="50" y="40" text-anchor="middle" class="text-sm">Supabase</text>
    </g>

    <!-- Data points -->
    <g transform="translate(130, 50)">
      <text x="0" y="0" class="text-sm">• Scores per page</text>
      <text x="0" y="18" class="text-sm">• Violation history</text>
      <text x="0" y="36" class="text-sm">• Trend data (90d)</text>
      <text x="0" y="54" class="text-sm">• Build metadata</text>
    </g>
  </g>

  <!-- Arrow to Dashboard -->
  <line x1="990" y1="470" x2="1070" y2="470" stroke="#8b5cf6" stroke-width="2" marker-end="url(#arrowhead)"/>

  <!-- Dashboard Link -->
  <g transform="translate(1080, 400)">
    <rect x="0" y="0" width="200" height="140" rx="8" fill="#334155" stroke="#8b5cf6" stroke-width="2"/>
    <text x="100" y="25" text-anchor="middle" class="label">A11Y DASHBOARD</text>
    <text x="100" y="55" text-anchor="middle" class="text-sm">Real-time scores</text>
    <text x="100" y="75" text-anchor="middle" class="text-sm">Trend visualization</text>
    <text x="100" y="95" text-anchor="middle" class="text-sm">Issue drill-down</text>
    <text x="100" y="120" text-anchor="middle" class="annotation">→ See Dashboard Wireframe</text>
  </g>

  <!-- ========== ROW 4: Exception Handling ========== -->

  <g transform="translate(60, 580)">
    <rect x="0" y="0" width="400" height="120" rx="8" fill="#1e293b" stroke="#eab308" stroke-width="2"/>
    <text x="200" y="25" text-anchor="middle" class="label" fill="#eab308">EXCEPTION HANDLING</text>

    <g transform="translate(20, 45)">
      <text x="0" y="0" class="text-sm">• Configurable ignore list (.a11yrc)</text>
      <text x="0" y="20" class="text-sm">• Third-party component exceptions</text>
      <text x="0" y="40" class="text-sm">• Documented known issues</text>
      <text x="0" y="60" class="text-sm">• ARIA wrapper workarounds</text>
    </g>
  </g>

  <!-- ========== ROW 4: Dev Loop ========== -->

  <g transform="translate(500, 580)">
    <rect x="0" y="0" width="400" height="120" rx="8" fill="#1e293b" stroke="#8b5cf6" stroke-width="2"/>
    <text x="200" y="25" text-anchor="middle" class="label">DEV FEEDBACK LOOP</text>

    <g transform="translate(20, 45)">
      <text x="0" y="0" class="text-sm">• Console warnings in dev mode</text>
      <text x="0" y="20" class="text-sm">• Storybook a11y addon panel</text>
      <text x="0" y="40" class="text-sm">• File watcher with status</text>
      <text x="0" y="60" class="text-muted">Response time &lt; 2 seconds</text>
    </g>

    <text x="340" y="100" class="annotation">→ See Dev Tooling Wireframe</text>
  </g>

  <!-- ========== ROW 4: Metrics ========== -->

  <g transform="translate(940, 580)">
    <rect x="0" y="0" width="340" height="120" rx="8" fill="#1e293b" stroke="#22c55e" stroke-width="2"/>
    <text x="170" y="25" text-anchor="middle" class="label" fill="#22c55e">SUCCESS METRICS</text>

    <g transform="translate(20, 45)">
      <text x="0" y="0" class="text-sm">✓ 100% pages pass AAA automated</text>
      <text x="0" y="20" class="text-sm">✓ 95%+ regressions caught pre-merge</text>
      <text x="0" y="40" class="text-sm">✓ 7:1 contrast all text verified</text>
      <text x="0" y="60" class="text-sm">✓ 44×44px all touch targets</text>
    </g>
  </g>

  <!-- Footer -->
  <text x="700" y="780" text-anchor="middle" class="text-muted">WCAG 2.1 AAA Compliance • Feature 001 • ScriptHammer</text>
</svg>
