<svg xmlns="http://www.w3.org/2000/svg" viewBox="0 0 1400 800" width="1400" height="800">
  <!-- ============================================================
       GENERATED BY: /wireframe skill
       SOURCE: features/foundation/001-wcag-aa-compliance/spec.md
       DATE: 2025-12-30
       DO NOT MANUALLY EDIT - Regenerate with /wireframe command
       ============================================================ -->
  <defs>
    <linearGradient id="bgGrad" x1="0%" y1="0%" x2="100%" y2="100%">
      <stop offset="0%" style="stop-color:#0f172a"/>
      <stop offset="100%" style="stop-color:#1e293b"/>
    </linearGradient>
    <linearGradient id="accentGrad" x1="0%" y1="0%" x2="100%" y2="0%">
      <stop offset="0%" style="stop-color:#8b5cf6"/>
      <stop offset="100%" style="stop-color:#d946ef"/>
    </linearGradient>
    <linearGradient id="successGrad" x1="0%" y1="0%" x2="0%" y2="100%">
      <stop offset="0%" style="stop-color:#22c55e"/>
      <stop offset="100%" style="stop-color:#16a34a"/>
    </linearGradient>
    <style>
      .heading-lg { fill: #ffffff; font-family: system-ui, sans-serif; font-size: 20px; font-weight: bold; }
      .heading { fill: #ffffff; font-family: system-ui, sans-serif; font-size: 14px; font-weight: bold; }
      .text-md { fill: #cbd5e1; font-family: system-ui, sans-serif; font-size: 12px; }
      .text-sm { fill: #94a3b8; font-family: system-ui, sans-serif; font-size: 10px; }
      .text-muted { fill: #64748b; font-family: system-ui, sans-serif; font-size: 10px; }
      .annotation { fill: #8b5cf6; font-family: monospace; font-size: 10px; }
      .label-desktop { fill: #8b5cf6; font-family: monospace; font-size: 11px; font-weight: bold; }
      .label-mobile { fill: #d946ef; font-family: monospace; font-size: 11px; font-weight: bold; }
      .score-lg { fill: #22c55e; font-family: system-ui, sans-serif; font-size: 48px; font-weight: bold; }
      .score-md { fill: #22c55e; font-family: system-ui, sans-serif; font-size: 24px; font-weight: bold; }
    </style>
  </defs>

  <!-- Background -->
  <rect width="1400" height="800" fill="url(#bgGrad)"/>

  <!-- Dot grid pattern -->
  <g opacity="0.05">
    <pattern id="dots" width="30" height="30" patternUnits="userSpaceOnUse">
      <circle cx="15" cy="15" r="1" fill="#fff"/>
    </pattern>
    <rect width="1400" height="800" fill="url(#dots)"/>
  </g>

  <!-- Accent line top -->
  <rect x="0" y="0" width="1400" height="3" fill="url(#accentGrad)"/>

  <!-- Title -->
  <text x="700" y="28" text-anchor="middle" font-family="system-ui, sans-serif" font-size="14" font-weight="600" fill="#64748b" letter-spacing="1">ACCESSIBILITY DASHBOARD</text>

  <!-- DESKTOP SECTION -->
  <text x="40" y="52" class="label-desktop">DESKTOP</text>

  <!-- Desktop Header -->
  <g id="desktop-header">
    <rect x="40" y="60" width="900" height="50" rx="8" fill="#1e293b"/>
    <text x="60" y="90" class="heading">♿ Accessibility Dashboard</text>
    <text x="860" y="90" class="text-sm" text-anchor="end">Last scan: 2 min ago</text>
  </g>

  <!-- Desktop Sidebar -->
  <g id="desktop-sidebar">
    <rect x="40" y="120" width="200" height="620" rx="8" fill="#1e293b"/>

    <!-- Overall Score -->
    <rect x="50" y="130" width="180" height="120" rx="6" fill="#334155"/>
    <text x="140" y="160" text-anchor="middle" class="text-sm">Overall Score</text>
    <text x="140" y="215" text-anchor="middle" class="score-lg">94</text>
    <text x="140" y="240" text-anchor="middle" class="text-muted">WCAG AAA</text>

    <!-- Navigation -->
    <text x="60" y="280" class="text-muted">NAVIGATION</text>

    <rect x="50" y="295" width="180" height="36" rx="6" fill="#8b5cf6"/>
    <text x="70" y="318" fill="#fff" font-size="12">📊 Overview</text>

    <rect x="50" y="340" width="180" height="36" rx="6" fill="transparent"/>
    <text x="70" y="363" class="text-md">📄 Pages</text>

    <rect x="50" y="385" width="180" height="36" rx="6" fill="transparent"/>
    <text x="70" y="408" class="text-md">⚠️ Issues</text>

    <rect x="50" y="430" width="180" height="36" rx="6" fill="transparent"/>
    <text x="70" y="453" class="text-md">📈 Trends</text>

    <rect x="50" y="475" width="180" height="36" rx="6" fill="transparent"/>
    <text x="70" y="498" class="text-md">⚙️ Settings</text>

    <!-- Quick Stats -->
    <text x="60" y="550" class="text-muted">QUICK STATS</text>
    <text x="60" y="575" class="text-sm">Pages Scanned</text>
    <text x="220" y="575" text-anchor="end" class="heading">24</text>
    <text x="60" y="600" class="text-sm">Total Issues</text>
    <text x="220" y="600" text-anchor="end" fill="#eab308" font-weight="bold" font-size="14">12</text>
    <text x="60" y="625" class="text-sm">Critical</text>
    <text x="220" y="625" text-anchor="end" fill="#ef4444" font-weight="bold" font-size="14">0</text>
    <text x="60" y="650" class="text-sm">Build Status</text>
    <text x="220" y="650" text-anchor="end" fill="#22c55e" font-weight="bold" font-size="14">✓ Pass</text>
  </g>

  <!-- Desktop Main Content -->
  <g id="desktop-main">
    <rect x="250" y="120" width="440" height="620" rx="8" fill="#1e293b"/>

    <!-- Trend Chart -->
    <text x="270" y="150" class="heading">Compliance Trend (90 days)</text>
    <rect x="270" y="165" width="400" height="150" rx="6" fill="#334155"/>

    <!-- Chart axes -->
    <line x1="290" y1="290" x2="650" y2="290" stroke="#475569" stroke-width="1"/>
    <line x1="290" y1="180" x2="290" y2="290" stroke="#475569" stroke-width="1"/>

    <!-- Chart line (trend) -->
    <polyline points="290,280 350,275 410,260 470,250 530,240 590,230 650,220"
              fill="none" stroke="#22c55e" stroke-width="2"/>

    <!-- Data points -->
    <circle cx="290" cy="280" r="4" fill="#22c55e"/>
    <circle cx="350" cy="275" r="4" fill="#22c55e"/>
    <circle cx="410" cy="260" r="4" fill="#22c55e"/>
    <circle cx="470" cy="250" r="4" fill="#22c55e"/>
    <circle cx="530" cy="240" r="4" fill="#22c55e"/>
    <circle cx="590" cy="230" r="4" fill="#22c55e"/>
    <circle cx="650" cy="220" r="4" fill="#22c55e"/>

    <!-- Y-axis labels -->
    <text x="280" y="185" text-anchor="end" class="text-muted">100</text>
    <text x="280" y="240" text-anchor="end" class="text-muted">75</text>
    <text x="280" y="295" text-anchor="end" class="text-muted">50</text>

    <!-- Per-Page Breakdown -->
    <text x="270" y="345" class="heading">Per-Page Scores</text>

    <!-- Page list items -->
    <g transform="translate(270, 360)">
      <rect width="400" height="50" rx="6" fill="#334155"/>
      <text x="15" y="20" class="text-md">/home</text>
      <text x="15" y="38" class="text-muted">0 issues</text>
      <text x="360" y="30" text-anchor="end" fill="#22c55e" font-weight="bold" font-size="16">100</text>
    </g>

    <g transform="translate(270, 420)">
      <rect width="400" height="50" rx="6" fill="#334155"/>
      <text x="15" y="20" class="text-md">/dashboard</text>
      <text x="15" y="38" class="text-muted">2 warnings</text>
      <text x="360" y="30" text-anchor="end" fill="#22c55e" font-weight="bold" font-size="16">96</text>
    </g>

    <g transform="translate(270, 480)">
      <rect width="400" height="50" rx="6" fill="#334155"/>
      <text x="15" y="20" class="text-md">/settings</text>
      <text x="15" y="38" class="text-muted">3 warnings</text>
      <text x="360" y="30" text-anchor="end" fill="#eab308" font-weight="bold" font-size="16">92</text>
    </g>

    <g transform="translate(270, 540)">
      <rect width="400" height="50" rx="6" fill="#334155"/>
      <text x="15" y="20" class="text-md">/messages</text>
      <text x="15" y="38" class="text-muted">4 warnings</text>
      <text x="360" y="30" text-anchor="end" fill="#eab308" font-weight="bold" font-size="16">88</text>
    </g>

    <g transform="translate(270, 600)">
      <rect width="400" height="50" rx="6" fill="#334155"/>
      <text x="15" y="20" class="text-md">/profile</text>
      <text x="15" y="38" class="text-muted">3 warnings</text>
      <text x="360" y="30" text-anchor="end" fill="#eab308" font-weight="bold" font-size="16">90</text>
    </g>
  </g>

  <!-- Desktop Detail Panel -->
  <g id="desktop-detail">
    <rect x="700" y="120" width="240" height="620" rx="8" fill="#1e293b"/>

    <text x="720" y="150" class="heading">Issue Details</text>

    <!-- Issue card 1 -->
    <rect x="710" y="165" width="220" height="100" rx="6" fill="#334155" stroke="#eab308" stroke-width="2"/>
    <rect x="710" y="165" width="220" height="24" rx="6" fill="#eab308" opacity="0.2"/>
    <text x="725" y="182" fill="#eab308" font-size="11" font-weight="bold">⚠ WARNING</text>
    <text x="725" y="205" class="text-sm">Color contrast ratio</text>
    <text x="725" y="220" class="text-muted">4.2:1 (needs 7:1)</text>
    <text x="725" y="245" class="text-muted">Element: .btn-secondary</text>
    <text x="725" y="258" fill="#8b5cf6" font-size="10">Fix: Darken text color →</text>

    <!-- Issue card 2 -->
    <rect x="710" y="280" width="220" height="100" rx="6" fill="#334155" stroke="#eab308" stroke-width="2"/>
    <rect x="710" y="280" width="220" height="24" rx="6" fill="#eab308" opacity="0.2"/>
    <text x="725" y="297" fill="#eab308" font-size="11" font-weight="bold">⚠ WARNING</text>
    <text x="725" y="320" class="text-sm">Touch target too small</text>
    <text x="725" y="335" class="text-muted">32×32px (needs 44×44)</text>
    <text x="725" y="360" class="text-muted">Element: .icon-btn</text>
    <text x="725" y="373" fill="#8b5cf6" font-size="10">Fix: Add padding →</text>

    <!-- Issue card 3 -->
    <rect x="710" y="395" width="220" height="100" rx="6" fill="#334155" stroke="#94a3b8" stroke-width="1"/>
    <rect x="710" y="395" width="220" height="24" rx="6" fill="#94a3b8" opacity="0.2"/>
    <text x="725" y="412" fill="#94a3b8" font-size="11" font-weight="bold">ℹ NOTICE</text>
    <text x="725" y="435" class="text-sm">Missing skip link</text>
    <text x="725" y="450" class="text-muted">Keyboard nav optimization</text>
    <text x="725" y="475" class="text-muted">Element: &lt;body&gt;</text>
    <text x="725" y="488" fill="#8b5cf6" font-size="10">Fix: Add skip to main →</text>

    <!-- Compliance badges -->
    <text x="720" y="530" class="heading">Compliance</text>
    <g transform="translate(710, 545)">
      <rect width="100" height="28" rx="14" fill="#22c55e" opacity="0.2" stroke="#22c55e" stroke-width="1"/>
      <text x="50" y="18" text-anchor="middle" fill="#22c55e" font-size="11">✓ WCAG A</text>
    </g>
    <g transform="translate(820, 545)">
      <rect width="100" height="28" rx="14" fill="#22c55e" opacity="0.2" stroke="#22c55e" stroke-width="1"/>
      <text x="50" y="18" text-anchor="middle" fill="#22c55e" font-size="11">✓ WCAG AA</text>
    </g>
    <g transform="translate(710, 580)">
      <rect width="100" height="28" rx="14" fill="#eab308" opacity="0.2" stroke="#eab308" stroke-width="1"/>
      <text x="50" y="18" text-anchor="middle" fill="#eab308" font-size="11">~ WCAG AAA</text>
    </g>

    <!-- Action buttons -->
    <rect x="710" y="630" width="220" height="40" rx="6" fill="#8b5cf6"/>
    <text x="820" y="655" text-anchor="middle" fill="#fff" font-size="12" font-weight="bold">Run Full Scan</text>

    <rect x="710" y="680" width="220" height="40" rx="6" fill="transparent" stroke="#475569" stroke-width="1"/>
    <text x="820" y="705" text-anchor="middle" class="text-md">Export Report</text>
  </g>

  <!-- MOBILE SECTION -->
  <text x="980" y="52" class="label-mobile">MOBILE</text>
  <g id="mobile-view" transform="translate(980, 60)">
    <!-- Phone frame -->
    <rect x="0" y="0" width="360" height="700" rx="24" fill="#1e293b" stroke="#475569" stroke-width="2"/>
    <rect x="10" y="10" width="340" height="680" rx="16" fill="#0f172a"/>

    <!-- Status bar -->
    <rect x="10" y="10" width="340" height="28" rx="16" fill="#1e293b"/>
    <text x="30" y="28" class="text-sm">9:41</text>
    <text x="320" y="28" text-anchor="end" class="text-sm">100%</text>

    <!-- Mobile header -->
    <rect x="20" y="48" width="320" height="44" rx="8" fill="#1e293b"/>
    <text x="35" y="75" class="heading">♿ A11y Dashboard</text>
    <rect x="300" y="58" width="30" height="24" rx="4" fill="#334155"/>
    <text x="315" y="75" text-anchor="middle" class="text-sm">☰</text>

    <!-- Score card -->
    <rect x="20" y="102" width="320" height="100" rx="8" fill="#1e293b"/>
    <text x="170" y="130" text-anchor="middle" class="text-sm">Overall Score</text>
    <text x="170" y="175" text-anchor="middle" class="score-md">94</text>
    <text x="170" y="195" text-anchor="middle" class="text-muted">WCAG AAA Compliant</text>

    <!-- Quick stats row -->
    <g transform="translate(20, 212)">
      <rect width="100" height="60" rx="6" fill="#1e293b"/>
      <text x="50" y="25" text-anchor="middle" class="text-muted">Pages</text>
      <text x="50" y="48" text-anchor="middle" fill="#fff" font-size="18" font-weight="bold">24</text>
    </g>
    <g transform="translate(130, 212)">
      <rect width="100" height="60" rx="6" fill="#1e293b"/>
      <text x="50" y="25" text-anchor="middle" class="text-muted">Issues</text>
      <text x="50" y="48" text-anchor="middle" fill="#eab308" font-size="18" font-weight="bold">12</text>
    </g>
    <g transform="translate(240, 212)">
      <rect width="100" height="60" rx="6" fill="#1e293b"/>
      <text x="50" y="25" text-anchor="middle" class="text-muted">Critical</text>
      <text x="50" y="48" text-anchor="middle" fill="#22c55e" font-size="18" font-weight="bold">0</text>
    </g>

    <!-- Issue list -->
    <text x="30" y="300" class="heading">Recent Issues</text>

    <g transform="translate(20, 310)">
      <rect width="320" height="70" rx="6" fill="#1e293b"/>
      <rect width="4" height="70" rx="2" fill="#eab308"/>
      <text x="20" y="25" class="text-md">Contrast ratio warning</text>
      <text x="20" y="45" class="text-muted">/settings • .btn-secondary</text>
      <text x="20" y="60" fill="#8b5cf6" font-size="10">Tap to view fix →</text>
    </g>

    <g transform="translate(20, 390)">
      <rect width="320" height="70" rx="6" fill="#1e293b"/>
      <rect width="4" height="70" rx="2" fill="#eab308"/>
      <text x="20" y="25" class="text-md">Touch target too small</text>
      <text x="20" y="45" class="text-muted">/messages • .icon-btn</text>
      <text x="20" y="60" fill="#8b5cf6" font-size="10">Tap to view fix →</text>
    </g>

    <g transform="translate(20, 470)">
      <rect width="320" height="70" rx="6" fill="#1e293b"/>
      <rect width="4" height="70" rx="2" fill="#94a3b8"/>
      <text x="20" y="25" class="text-md">Missing skip link</text>
      <text x="20" y="45" class="text-muted">/home • &lt;body&gt;</text>
      <text x="20" y="60" fill="#8b5cf6" font-size="10">Tap to view fix →</text>
    </g>

    <!-- Bottom nav -->
    <rect x="10" y="620" width="340" height="60" rx="16" fill="#1e293b"/>
    <g transform="translate(40, 635)">
      <text x="0" y="12" fill="#8b5cf6" font-size="20">📊</text>
      <text x="0" y="32" fill="#8b5cf6" font-size="9">Overview</text>
    </g>
    <g transform="translate(120, 635)">
      <text x="0" y="12" fill="#64748b" font-size="20">📄</text>
      <text x="0" y="32" class="text-muted">Pages</text>
    </g>
    <g transform="translate(200, 635)">
      <text x="0" y="12" fill="#64748b" font-size="20">⚠️</text>
      <text x="0" y="32" class="text-muted">Issues</text>
    </g>
    <g transform="translate(280, 635)">
      <text x="0" y="12" fill="#64748b" font-size="20">📈</text>
      <text x="0" y="32" class="text-muted">Trends</text>
    </g>
  </g>
</svg>
