<svg xmlns="http://www.w3.org/2000/svg" viewBox="0 0 1400 800" width="1400" height="800">
  <!-- ============================================================
       GENERATED BY: /wireframe skill
       SOURCE: features/foundation/001-wcag-aa-compliance/spec.md
       DATE: 2026-01-01
       THEME: Light (UX/Frontend) - v5 AAA Compliant
       REGENERATED WITH FEEDBACK: features/foundation/001-wcag-aa-compliance/WIREFRAME_ISSUES.md
       Fixed: Enhanced Issue History (FR-032), column alignment
       ============================================================ -->
  <defs>
    <linearGradient id="bgGrad" x1="0%" y1="0%" x2="100%" y2="100%">
      <stop offset="0%" style="stop-color:#c7ddf5"/>
      <stop offset="100%" style="stop-color:#b8d4f0"/>
    </linearGradient>
    <linearGradient id="accentGrad" x1="0%" y1="0%" x2="100%" y2="0%">
      <stop offset="0%" style="stop-color:#8b5cf6"/>
      <stop offset="100%" style="stop-color:#d946ef"/>
    </linearGradient>
    <linearGradient id="scoreGrad" x1="0%" y1="0%" x2="0%" y2="100%">
      <stop offset="0%" style="stop-color:#22c55e"/>
      <stop offset="100%" style="stop-color:#16a34a"/>
    </linearGradient>
    <style>
      /* AAA Compliant: All text achieves 7:1+ contrast on backgrounds */
      .heading-lg { fill: #111827; font-family: system-ui, sans-serif; font-size: 24px; font-weight: 800; }
      .heading { fill: #111827; font-family: system-ui, sans-serif; font-size: 16px; font-weight: 700; }
      .heading-sm { fill: #111827; font-family: system-ui, sans-serif; font-size: 14px; font-weight: 700; }
      .text-md { fill: #1f2937; font-family: system-ui, sans-serif; font-size: 14px; font-weight: 500; }
      .text-sm { fill: #1f2937; font-family: system-ui, sans-serif; font-size: 12px; font-weight: 500; }
      .text-muted { fill: #374151; font-family: system-ui, sans-serif; font-size: 11px; font-weight: 500; }
      .annotation { fill: #5b21b6; font-family: monospace; font-size: 12px; font-weight: 600; }
      .label-desktop { fill: #6d28d9; font-family: monospace; font-size: 13px; font-weight: bold; }
      .label-mobile { fill: #a21caf; font-family: monospace; font-size: 13px; font-weight: bold; }
      .score-lg { fill: #166534; font-family: system-ui, sans-serif; font-size: 48px; font-weight: 800; }
      .score-md { fill: #166534; font-family: system-ui, sans-serif; font-size: 24px; font-weight: 700; }
    </style>
  </defs>

  <!-- Background -->
  <rect width="1400" height="800" fill="url(#bgGrad)"/>

  <!-- Dot grid pattern -->
  <g opacity="0.35">
    <pattern id="dots" width="30" height="30" patternUnits="userSpaceOnUse">
      <circle cx="15" cy="15" r="1" fill="#6b8cba"/>
    </pattern>
    <rect width="1400" height="800" fill="url(#dots)"/>
  </g>

  <!-- Accent line top -->
  <rect x="0" y="0" width="1400" height="3" fill="url(#accentGrad)"/>

  <!-- Title -->
  <text x="700" y="28" text-anchor="middle" font-family="system-ui, sans-serif" font-size="14" font-weight="600" fill="#374151" letter-spacing="1">ACCESSIBILITY COMPLIANCE DASHBOARD</text>

  <!-- DESKTOP SECTION -->
  <text x="40" y="52" class="label-desktop">DESKTOP</text>

  <g id="desktop-view">
    <!-- Sidebar -->
    <rect x="40" y="60" width="200" height="680" rx="8" fill="#e8d4b8" stroke="#b8a080" stroke-width="1"/>

    <!-- Logo area -->
    <rect x="55" y="75" width="170" height="40" rx="6" fill="#dcc8a8"/>
    <text x="140" y="100" text-anchor="middle" class="heading-sm">ScriptHammer</text>

    <!-- Nav items - 44px height for touch targets -->
    <rect x="55" y="130" width="170" height="44" rx="6" fill="#8b5cf6"/>
    <text x="140" y="157" text-anchor="middle" fill="#fff" font-family="system-ui" font-size="13" font-weight="600">Accessibility</text>

    <rect x="55" y="182" width="170" height="44" rx="6" fill="transparent"/>
    <text x="70" y="209" class="text-sm">Performance</text>
    <rect x="55" y="234" width="170" height="44" rx="6" fill="transparent"/>
    <text x="70" y="261" class="text-sm">SEO</text>
    <rect x="55" y="286" width="170" height="44" rx="6" fill="transparent"/>
    <text x="70" y="313" class="text-sm">Best Practices</text>

    <line x1="55" y1="345" x2="225" y2="345" stroke="#b8a080" stroke-width="1"/>

    <text x="70" y="375" class="text-muted">QUICK FILTERS</text>
    <rect x="55" y="390" width="170" height="44" rx="6" fill="transparent"/>
    <text x="70" y="417" class="text-sm">⚠ Errors Only</text>
    <rect x="55" y="442" width="170" height="44" rx="6" fill="transparent"/>
    <text x="70" y="469" class="text-sm">⚡ Warnings</text>

    <line x1="55" y1="500" x2="225" y2="500" stroke="#b8a080" stroke-width="1"/>

    <text x="70" y="530" class="text-muted">WCAG LEVEL</text>
    <!-- WCAG Level buttons - NOW 44px height minimum -->
    <rect x="55" y="545" width="54" height="44" rx="6" fill="#22c55e"/>
    <text x="82" y="572" text-anchor="middle" fill="#fff" font-size="12" font-weight="600">AAA</text>
    <rect x="117" y="545" width="50" height="44" rx="6" fill="#dcc8a8" stroke="#b8a080"/>
    <text x="142" y="572" text-anchor="middle" class="text-sm">AA</text>
    <rect x="175" y="545" width="50" height="44" rx="6" fill="#dcc8a8" stroke="#b8a080"/>
    <text x="200" y="572" text-anchor="middle" class="text-sm">A</text>

    <!-- Focus indicator annotation -->
    <rect x="55" y="610" width="170" height="60" rx="6" fill="#f5f0e6" stroke="#8b5cf6" stroke-width="2" stroke-dasharray="4,2"/>
    <text x="140" y="635" text-anchor="middle" class="annotation">FR-011: Focus visible</text>
    <text x="140" y="655" text-anchor="middle" class="text-muted">2px outline indicator</text>

    <!-- Main Content Area -->
    <rect x="250" y="60" width="440" height="680" rx="8" fill="#e8d4b8" stroke="#b8a080" stroke-width="1"/>

    <!-- Overall Score Card -->
    <rect x="265" y="75" width="200" height="150" rx="8" fill="#f5f0e6" stroke="#22c55e" stroke-width="2"/>
    <text x="365" y="100" text-anchor="middle" class="heading-sm">Overall Score</text>
    <text x="365" y="165" text-anchor="middle" class="score-lg">98</text>
    <text x="365" y="190" text-anchor="middle" class="text-sm" fill="#166534">AAA Compliant</text>

    <!-- Score Ring Visual -->
    <circle cx="365" cy="140" r="55" fill="none" stroke="#dcc8a8" stroke-width="10"/>
    <circle cx="365" cy="140" r="55" fill="none" stroke="#22c55e" stroke-width="10" stroke-dasharray="339 346" stroke-linecap="round" transform="rotate(-90 365 140)"/>

    <!-- Trend Card - NOW 90-DAY per SC-010 -->
    <rect x="475" y="75" width="200" height="150" rx="8" fill="#f5f0e6" stroke="#b8a080" stroke-width="1"/>
    <text x="575" y="100" text-anchor="middle" class="heading-sm">90-Day Trend</text>
    <text x="575" y="116" text-anchor="middle" class="annotation">SC-010</text>

    <!-- Mini trend chart -->
    <polyline points="495,180 520,165 545,170 570,155 595,145 620,150 645,130" fill="none" stroke="#8b5cf6" stroke-width="2"/>
    <text x="575" y="210" text-anchor="middle" class="text-sm" fill="#166534">↑ +12% improvement</text>

    <!-- Per-Page Breakdown -->
    <text x="265" y="250" class="heading-sm">Page-by-Page Breakdown</text>

    <!-- Table Header - FIXED alignment -->
    <rect x="265" y="265" width="410" height="30" rx="4" fill="#dcc8a8"/>
    <text x="285" y="285" class="text-muted">PAGE</text>
    <text x="450" y="285" class="text-muted">SCORE</text>
    <text x="520" y="285" class="text-muted">ISSUES</text>
    <text x="600" y="285" class="text-muted">STATUS</text>

    <!-- Table Rows - 44px height for touch targets, FIXED alignment -->
    <rect x="265" y="300" width="410" height="44" rx="0" fill="#f5f0e6"/>
    <text x="285" y="328" class="text-sm">/home</text>
    <text x="460" y="328" class="text-sm" fill="#166534">100</text>
    <text x="530" y="328" class="text-sm">0</text>
    <circle cx="615" cy="322" r="10" fill="#22c55e"/>
    <text x="615" y="326" text-anchor="middle" fill="#fff" font-size="12">✓</text>

    <rect x="265" y="348" width="410" height="44" rx="0" fill="#e8d4b8"/>
    <text x="285" y="376" class="text-sm">/dashboard</text>
    <text x="460" y="376" class="text-sm" fill="#166534">98</text>
    <text x="530" y="376" class="text-sm">2</text>
    <circle cx="615" cy="370" r="10" fill="#eab308"/>
    <text x="615" y="374" text-anchor="middle" fill="#fff" font-size="12">!</text>

    <rect x="265" y="396" width="410" height="44" rx="0" fill="#f5f0e6"/>
    <text x="285" y="424" class="text-sm">/settings</text>
    <text x="460" y="424" class="text-sm" fill="#166534">100</text>
    <text x="530" y="424" class="text-sm">0</text>
    <circle cx="615" cy="418" r="10" fill="#22c55e"/>
    <text x="615" y="422" text-anchor="middle" fill="#fff" font-size="12">✓</text>

    <rect x="265" y="444" width="410" height="44" rx="0" fill="#e8d4b8"/>
    <text x="285" y="472" class="text-sm">/blog</text>
    <text x="460" y="472" class="text-sm" fill="#166534">95</text>
    <text x="530" y="472" class="text-sm">3</text>
    <circle cx="615" cy="466" r="10" fill="#eab308"/>
    <text x="615" y="470" text-anchor="middle" fill="#fff" font-size="12">!</text>

    <!-- Issue Categories -->
    <text x="265" y="515" class="heading-sm">Issue Categories</text>

    <rect x="265" y="530" width="130" height="70" rx="6" fill="#f5f0e6" stroke="#ef4444" stroke-width="2"/>
    <text x="330" y="555" text-anchor="middle" class="text-muted">ERRORS</text>
    <text x="330" y="585" text-anchor="middle" font-family="system-ui" font-size="28" font-weight="700" fill="#dc2626">0</text>

    <rect x="405" y="530" width="130" height="70" rx="6" fill="#f5f0e6" stroke="#eab308" stroke-width="2"/>
    <text x="470" y="555" text-anchor="middle" class="text-muted">WARNINGS</text>
    <text x="470" y="585" text-anchor="middle" font-family="system-ui" font-size="28" font-weight="700" fill="#ca8a04">5</text>

    <rect x="545" y="530" width="130" height="70" rx="6" fill="#f5f0e6" stroke="#3b82f6" stroke-width="2"/>
    <text x="610" y="555" text-anchor="middle" class="text-muted">NOTICES</text>
    <text x="610" y="585" text-anchor="middle" font-family="system-ui" font-size="28" font-weight="700" fill="#2563eb">12</text>

    <!-- Last Run Info -->
    <rect x="265" y="625" width="410" height="50" rx="6" fill="#dcc8a8"/>
    <text x="285" y="650" class="text-sm">Last CI Run: Jan 1, 2026 14:32 UTC</text>
    <text x="285" y="667" class="text-muted">Build #1247 • Branch: main • Duration: 45s</text>

    <!-- Detail Panel - REDESIGNED with Enhanced History -->
    <rect x="700" y="60" width="240" height="680" rx="8" fill="#e8d4b8" stroke="#b8a080" stroke-width="1"/>

    <text x="715" y="90" class="heading-sm">Selected Issue Details</text>

    <!-- Issue Card - Compressed -->
    <rect x="715" y="105" width="210" height="120" rx="6" fill="#f5f0e6" stroke="#eab308" stroke-width="2"/>
    <rect x="715" y="105" width="210" height="25" rx="6" fill="#eab308"/>
    <text x="725" y="122" fill="#422006" font-family="system-ui" font-size="12" font-weight="600">Warning: Low Contrast</text>

    <text x="725" y="147" class="text-muted">Element:</text>
    <text x="725" y="162" class="annotation">.btn-secondary</text>

    <text x="725" y="182" class="text-muted">Contrast: 6.2:1 (need 7:1)</text>
    <text x="725" y="198" class="text-muted">WCAG: 1.4.6 Enhanced</text>

    <!-- Remediation - Compressed -->
    <text x="715" y="240" class="heading-sm">Remediation</text>
    <rect x="715" y="255" width="210" height="75" rx="6" fill="#f5f0e6"/>
    <text x="725" y="275" class="text-sm">Increase text darkness or</text>
    <text x="725" y="292" class="text-sm">lighten background color.</text>
    <text x="725" y="315" class="annotation">Fix: color: #374151</text>

    <!-- Code Location -->
    <text x="715" y="350" class="heading-sm">Code Location</text>
    <rect x="715" y="365" width="210" height="50" rx="6" fill="#1e293b"/>
    <text x="725" y="385" fill="#94a3b8" font-family="monospace" font-size="10">src/components/</text>
    <text x="725" y="400" fill="#a78bfa" font-family="monospace" font-size="10">Button.tsx:42</text>

    <!-- Action Buttons - 44px height -->
    <rect x="715" y="425" width="100" height="44" rx="6" fill="#8b5cf6"/>
    <text x="765" y="452" text-anchor="middle" fill="#fff" font-family="system-ui" font-size="12" font-weight="600">View Code</text>

    <rect x="825" y="425" width="100" height="44" rx="6" fill="#dcc8a8" stroke="#b8a080"/>
    <text x="875" y="452" text-anchor="middle" class="text-sm">Dismiss</text>

    <!-- ENHANCED Issue History - FR-032 -->
    <text x="715" y="495" class="heading-sm">Issue History</text>
    <text x="860" y="495" class="annotation">FR-032</text>

    <rect x="715" y="510" width="210" height="110" rx="6" fill="#f5f0e6" stroke="#8b5cf6" stroke-width="1"/>

    <!-- First detected -->
    <text x="725" y="532" class="text-muted">First detected:</text>
    <text x="825" y="532" class="text-sm">Dec 28, 2025</text>

    <!-- Occurrences -->
    <text x="725" y="552" class="text-muted">Occurrences:</text>
    <text x="825" y="552" class="text-sm">3 builds</text>

    <!-- Trend sparkline -->
    <text x="725" y="572" class="text-muted">Trend:</text>
    <rect x="785" y="562" width="120" height="20" rx="3" fill="#dcc8a8"/>
    <polyline points="795,575 810,570 825,572 840,568 855,573 870,570 885,572 895,569" fill="none" stroke="#eab308" stroke-width="2"/>

    <!-- Related issues -->
    <text x="725" y="608" class="text-muted">Related issues:</text>
    <text x="830" y="608" class="text-sm">1 similar</text>

    <!-- Export - 44px height -->
    <rect x="715" y="635" width="210" height="44" rx="6" fill="#dcc8a8" stroke="#b8a080"/>
    <text x="820" y="662" text-anchor="middle" class="text-sm">↓ Export Full Report</text>

    <!-- 90-day annotation -->
    <rect x="715" y="690" width="210" height="40" rx="6" fill="#f5f0e6" stroke="#22c55e" stroke-width="1"/>
    <text x="820" y="710" text-anchor="middle" class="annotation">90+ days historical data</text>
    <text x="820" y="724" text-anchor="middle" class="text-muted">SC-010 compliant</text>
  </g>

  <!-- MOBILE SECTION -->
  <text x="980" y="52" class="label-mobile">MOBILE</text>

  <g id="mobile-view" transform="translate(980, 60)">
    <!-- Phone frame -->
    <rect x="0" y="0" width="360" height="700" rx="24" fill="#c8b898" stroke="#a08860" stroke-width="2"/>
    <rect x="10" y="10" width="340" height="680" rx="16" fill="#e8d4b8"/>

    <!-- Status bar -->
    <rect x="10" y="10" width="340" height="28" rx="16" fill="#dcc8a8"/>
    <text x="30" y="28" class="text-sm">9:41</text>
    <text x="310" y="28" text-anchor="end" class="text-sm">100%</text>

    <!-- Header -->
    <rect x="10" y="38" width="340" height="50" fill="#8b5cf6"/>
    <text x="30" y="68" fill="#fff" font-family="system-ui" font-size="16" font-weight="700">Accessibility</text>
    <rect x="280" y="48" width="54" height="30" rx="4" fill="rgba(255,255,255,0.2)"/>
    <text x="307" y="68" text-anchor="middle" fill="#fff" font-size="11">AAA</text>

    <!-- Score Card -->
    <rect x="25" y="100" width="150" height="100" rx="8" fill="#f5f0e6" stroke="#22c55e" stroke-width="2"/>
    <text x="100" y="125" text-anchor="middle" class="text-muted">Score</text>
    <text x="100" y="170" text-anchor="middle" class="score-md">98</text>
    <text x="100" y="190" text-anchor="middle" font-size="10" fill="#166534">AAA</text>

    <!-- Quick Stats -->
    <rect x="185" y="100" width="150" height="100" rx="8" fill="#f5f0e6"/>
    <text x="260" y="125" text-anchor="middle" class="text-muted">Issues</text>
    <rect x="200" y="138" width="44" height="44" rx="4" fill="#ef4444"/>
    <text x="222" y="166" text-anchor="middle" fill="#fff" font-size="16" font-weight="700">0</text>
    <rect x="254" y="138" width="44" height="44" rx="4" fill="#eab308"/>
    <text x="276" y="166" text-anchor="middle" fill="#fff" font-size="16" font-weight="700">5</text>
    <text x="260" y="195" text-anchor="middle" font-size="9" class="text-muted">ERR | WARN</text>

    <!-- Recent Issues List -->
    <text x="25" y="225" class="heading-sm">Recent Issues</text>

    <!-- Issue cards with 44px+ touch targets -->
    <rect x="25" y="240" width="310" height="70" rx="8" fill="#f5f0e6" stroke="#eab308" stroke-width="1"/>
    <rect x="25" y="240" width="6" height="70" rx="3" fill="#eab308"/>
    <text x="45" y="262" class="text-sm" font-weight="600">Low Contrast Warning</text>
    <text x="45" y="280" class="text-muted">.btn-secondary • 6.2:1 ratio</text>
    <text x="45" y="298" class="text-muted">/dashboard</text>
    <!-- Arrow touch target 44x44 -->
    <rect x="276" y="253" width="44" height="44" rx="4" fill="transparent"/>
    <text x="298" y="280" text-anchor="middle" class="annotation">→</text>

    <rect x="25" y="320" width="310" height="70" rx="8" fill="#f5f0e6" stroke="#eab308" stroke-width="1"/>
    <rect x="25" y="320" width="6" height="70" rx="3" fill="#eab308"/>
    <text x="45" y="342" class="text-sm" font-weight="600">Missing Alt Text</text>
    <text x="45" y="360" class="text-muted">img.hero-banner</text>
    <text x="45" y="378" class="text-muted">/blog</text>
    <rect x="276" y="333" width="44" height="44" rx="4" fill="transparent"/>
    <text x="298" y="360" text-anchor="middle" class="annotation">→</text>

    <rect x="25" y="400" width="310" height="70" rx="8" fill="#f5f0e6" stroke="#3b82f6" stroke-width="1"/>
    <rect x="25" y="400" width="6" height="70" rx="3" fill="#3b82f6"/>
    <text x="45" y="422" class="text-sm" font-weight="600">Consider Skip Link</text>
    <text x="45" y="440" class="text-muted">main navigation • notice</text>
    <text x="45" y="458" class="text-muted">/blog</text>
    <rect x="276" y="413" width="44" height="44" rx="4" fill="transparent"/>
    <text x="298" y="440" text-anchor="middle" class="annotation">→</text>

    <!-- Trend Mini - NOW 90-DAY per SC-010 -->
    <text x="25" y="500" class="heading-sm">90-Day Trend</text>
    <rect x="25" y="515" width="310" height="80" rx="8" fill="#f5f0e6"/>
    <polyline points="45,570 85,555 125,560 165,550 205,545 245,540 285,530 315,525" fill="none" stroke="#8b5cf6" stroke-width="2"/>
    <text x="180" y="585" text-anchor="middle" class="text-sm" fill="#166534">↑ Improving</text>

    <!-- Bottom Nav - NOW 100px height with 44px touch targets -->
    <rect x="10" y="600" width="340" height="90" rx="16" fill="#dcc8a8"/>
    <g transform="translate(50, 615)">
      <circle cx="0" cy="22" r="22" fill="#8b5cf6"/>
      <text x="0" y="60" text-anchor="middle" class="text-muted">A11y</text>
    </g>
    <g transform="translate(135, 615)">
      <circle cx="0" cy="22" r="22" fill="#dcc8a8" stroke="#b8a080" stroke-width="2"/>
      <text x="0" y="60" text-anchor="middle" class="text-muted">Perf</text>
    </g>
    <g transform="translate(220, 615)">
      <circle cx="0" cy="22" r="22" fill="#dcc8a8" stroke="#b8a080" stroke-width="2"/>
      <text x="0" y="60" text-anchor="middle" class="text-muted">SEO</text>
    </g>
    <g transform="translate(305, 615)">
      <circle cx="0" cy="22" r="22" fill="#dcc8a8" stroke="#b8a080" stroke-width="2"/>
      <text x="0" y="60" text-anchor="middle" class="text-muted">More</text>
    </g>
  </g>

  <!-- Footer -->
  <text x="700" y="780" text-anchor="middle" class="text-muted">Accessibility Dashboard • Feature 001 • ScriptHammer</text>
</svg>
