<svg xmlns="http://www.w3.org/2000/svg" viewBox="0 0 1920 1080" width="1920" height="1080">
  <!-- ============================================================
       GENERATED BY: /wireframe skill
       SOURCE: features/foundation/001-wcag-aa-compliance/spec.md
       DATE: 2026-01-05
       THEME: Light (UX/Frontend) - v3 True Parchment
       DO NOT MANUALLY EDIT - Regenerate with /wireframe command
       ============================================================ -->
  <defs>
    <!-- v3 True Parchment - Deeper sky blue background -->
    <linearGradient id="bgGrad" x1="0%" y1="0%" x2="100%" y2="100%">
      <stop offset="0%" style="stop-color:#c7ddf5"/>
      <stop offset="100%" style="stop-color:#b8d4f0"/>
    </linearGradient>
    <linearGradient id="accentGrad" x1="0%" y1="0%" x2="100%" y2="0%">
      <stop offset="0%" style="stop-color:#8b5cf6"/>
      <stop offset="100%" style="stop-color:#d946ef"/>
    </linearGradient>
    <style>
      /* Typography - v4 LARGER for readability, WCAG AA compliant */
      .heading-lg { fill: #1a1a2e; font-family: system-ui, sans-serif; font-size: 28px; font-weight: 800; }
      .heading { fill: #1a1a2e; font-family: system-ui, sans-serif; font-size: 20px; font-weight: 700; }
      .heading-sm { fill: #1a1a2e; font-family: system-ui, sans-serif; font-size: 16px; font-weight: 600; }
      .text-md { fill: #2d3748; font-family: system-ui, sans-serif; font-size: 16px; font-weight: 500; }
      .text-sm { fill: #374151; font-family: system-ui, sans-serif; font-size: 14px; font-weight: 500; }
      .text-muted { fill: #4b5563; font-family: system-ui, sans-serif; font-size: 13px; font-weight: 500; }
      .annotation { fill: #6d28d9; font-family: system-ui, sans-serif; font-size: 14px; font-weight: 700; }
      /* Layout labels */
      .label-desktop { fill: #8b5cf6; font-family: system-ui, sans-serif; font-size: 15px; font-weight: bold; }
      .label-mobile { fill: #d946ef; font-family: system-ui, sans-serif; font-size: 15px; font-weight: bold; }
      /* Requirements Legend styles */
      .legend-header { fill: #6d28d9; font-family: system-ui, sans-serif; font-size: 15px; font-weight: bold; }
      .legend-text { fill: #374151; font-family: system-ui, sans-serif; font-size: 13px; }
      /* Tag styling - colorblind-friendly */
      .tag-base { font-family: system-ui, sans-serif; font-size: 14px; font-weight: bold; }
      .fr-tag { fill: #2563eb; }
      .sc-tag { fill: #ea580c; }
      /* Button and badge */
      .btn-text { fill: #ffffff; font-family: system-ui, sans-serif; font-size: 14px; font-weight: 600; }
      .badge { fill: #ffffff; font-family: system-ui, sans-serif; font-size: 11px; font-weight: bold; }
      /* Score display */
      .score-large { fill: #22c55e; font-family: system-ui, sans-serif; font-size: 48px; font-weight: 800; }
      .score-label { fill: #374151; font-family: system-ui, sans-serif; font-size: 14px; font-weight: 600; }
    </style>
  </defs>

  <!-- Background - deeper sky blue -->
  <rect width="1920" height="1080" fill="url(#bgGrad)"/>

  <!-- Dot grid pattern - blue-tinted -->
  <g opacity="0.35">
    <pattern id="dots" width="30" height="30" patternUnits="userSpaceOnUse">
      <circle cx="15" cy="15" r="1" fill="#6b8cba"/>
    </pattern>
    <rect width="1920" height="1080" fill="url(#dots)"/>
  </g>

  <!-- Accent line top -->
  <rect x="0" y="0" width="1920" height="3" fill="url(#accentGrad)"/>

  <!-- Title -->
  <text x="700" y="32" text-anchor="middle" class="heading-lg">ACCESSIBILITY COMPLIANCE DASHBOARD</text>

  <!-- DESKTOP SECTION -->
  <text x="40" y="56" class="label-desktop">DESKTOP</text>
  <g id="desktop-view">
    <!-- Desktop background container -->
    <rect x="40" y="65" width="1400" height="620" rx="8" fill="#e8d4b8" stroke="#b8a080"/>

    <!-- Header Bar -->
    <rect x="50" y="75" width="1380" height="50" rx="6" fill="#dcc8a8" stroke="#b8a080"/>
    <text x="70" y="107" class="heading">Accessibility Dashboard</text>
    <text x="1260" y="107" class="text-sm">Last scan: 2 min ago</text>
    <!-- Refresh button (44x44) -->
    <a href="https://github.com/TortoiseWolfe/ScriptHammer/blob/main/features/foundation/001-wcag-aa-compliance/spec.md#functional-requirements" target="_blank">
      <g transform="translate(1350, 80)">
        <rect width="70" height="44" rx="6" fill="#8b5cf6"/>
        <text x="35" y="28" text-anchor="middle" class="btn-text">Refresh</text>
      </g>
    </a>

    <!-- Left Column: Overall Score + Page Scores -->
    <g transform="translate(50, 135)">
      <!-- Overall Compliance Score -->
      <a href="https://github.com/TortoiseWolfe/ScriptHammer/blob/main/features/foundation/001-wcag-aa-compliance/spec.md#functional-requirements" target="_blank">
        <rect width="440" height="170" rx="8" fill="#f5f0e6" stroke="#b8a080"/>
        <text x="220" y="30" text-anchor="middle" class="heading-sm">OVERALL COMPLIANCE</text>
        <text x="220" y="95" text-anchor="middle" class="score-large">94%</text>
        <text x="220" y="120" text-anchor="middle" class="score-label">WCAG AAA Score</text>
        <rect x="70" y="135" width="300" height="20" rx="10" fill="#dcc8a8"/>
        <rect x="70" y="135" width="282" height="20" rx="10" fill="#22c55e"/>
        <text x="375" y="30" text-anchor="end" class="tag-base fr-tag">FR-033</text>
      </a>

      <!-- Per-Page Breakdown -->
      <a href="https://github.com/TortoiseWolfe/ScriptHammer/blob/main/features/foundation/001-wcag-aa-compliance/spec.md#functional-requirements" target="_blank">
        <g transform="translate(0, 180)">
          <rect width="440" height="360" rx="8" fill="#f5f0e6" stroke="#b8a080"/>
          <text x="15" y="25" class="heading-sm">PAGE SCORES</text>
          <text x="375" y="25" text-anchor="end" class="tag-base fr-tag">FR-033</text>

          <!-- Page list (44px row height for touch) -->
          <g transform="translate(10, 40)">
            <rect width="420" height="44" rx="4" fill="#dcc8a8"/>
            <text x="15" y="28" class="text-sm">/home</text>
            <rect x="320" y="10" width="80" height="24" rx="12" fill="#22c55e"/>
            <text x="360" y="27" text-anchor="middle" class="badge">100%</text>
          </g>

          <g transform="translate(10, 90)">
            <rect width="420" height="44" rx="4" fill="transparent" stroke="#b8a080"/>
            <text x="15" y="28" class="text-sm">/dashboard</text>
            <rect x="320" y="10" width="80" height="24" rx="12" fill="#22c55e"/>
            <text x="360" y="27" text-anchor="middle" class="badge">98%</text>
          </g>

          <g transform="translate(10, 140)">
            <rect width="420" height="44" rx="4" fill="transparent" stroke="#b8a080"/>
            <text x="15" y="28" class="text-sm">/settings</text>
            <rect x="320" y="10" width="80" height="24" rx="12" fill="#22c55e"/>
            <text x="360" y="27" text-anchor="middle" class="badge">96%</text>
          </g>

          <g transform="translate(10, 190)">
            <rect width="420" height="44" rx="4" fill="transparent" stroke="#b8a080"/>
            <text x="15" y="28" class="text-sm">/profile</text>
            <rect x="320" y="10" width="80" height="24" rx="12" fill="#eab308"/>
            <text x="360" y="27" text-anchor="middle" class="badge" fill="#000">88%</text>
          </g>

          <g transform="translate(10, 240)">
            <rect width="420" height="44" rx="4" fill="transparent" stroke="#b8a080"/>
            <text x="15" y="28" class="text-sm">/chat</text>
            <rect x="320" y="10" width="80" height="24" rx="12" fill="#eab308"/>
            <text x="360" y="27" text-anchor="middle" class="badge" fill="#000">85%</text>
          </g>

          <g transform="translate(10, 290)">
            <rect width="420" height="44" rx="4" fill="transparent" stroke="#b8a080"/>
            <text x="15" y="28" class="text-sm">/login</text>
            <rect x="320" y="10" width="80" height="24" rx="12" fill="#22c55e"/>
            <text x="360" y="27" text-anchor="middle" class="badge">100%</text>
          </g>
        </g>
      </a>
    </g>

    <!-- Center Column: Trend Chart -->
    <g transform="translate(500, 135)">
      <a href="https://github.com/TortoiseWolfe/ScriptHammer/blob/main/features/foundation/001-wcag-aa-compliance/spec.md#functional-requirements" target="_blank">
        <rect width="480" height="260" rx="8" fill="#f5f0e6" stroke="#b8a080"/>
        <text x="15" y="25" class="heading-sm">COMPLIANCE TREND (90 Days)</text>
        <text x="420" y="25" text-anchor="end" class="tag-base fr-tag">FR-034</text>
        <text x="420" y="45" text-anchor="end" class="tag-base sc-tag">SC-010</text>

        <!-- Chart area -->
        <rect x="50" y="60" width="400" height="150" rx="4" fill="#dcc8a8"/>

        <!-- Trend line (mock) -->
        <polyline points="60,180 100,175 150,170 200,160 250,155 300,140 350,130 400,125 440,120"
                  fill="none" stroke="#22c55e" stroke-width="3"/>

        <!-- Y-axis labels -->
        <text x="45" y="75" text-anchor="end" class="text-muted">100%</text>
        <text x="45" y="135" text-anchor="end" class="text-muted">75%</text>
        <text x="45" y="195" text-anchor="end" class="text-muted">50%</text>

        <!-- X-axis labels -->
        <text x="60" y="225" class="text-muted">Oct</text>
        <text x="200" y="225" class="text-muted">Nov</text>
        <text x="350" y="225" class="text-muted">Dec</text>
        <text x="440" y="225" text-anchor="end" class="text-muted">Jan</text>
      </a>

      <!-- Severity Summary -->
      <a href="https://github.com/TortoiseWolfe/ScriptHammer/blob/main/features/foundation/001-wcag-aa-compliance/spec.md#functional-requirements" target="_blank">
        <g transform="translate(0, 275)">
          <rect width="480" height="115" rx="8" fill="#f5f0e6" stroke="#b8a080"/>
          <text x="15" y="25" class="heading-sm">ISSUE SEVERITY</text>
          <text x="420" y="25" text-anchor="end" class="tag-base fr-tag">FR-035</text>

          <!-- Severity counts -->
          <g transform="translate(30, 45)">
            <rect width="130" height="55" rx="6" fill="#dc2626"/>
            <text x="65" y="25" text-anchor="middle" class="badge">ERRORS</text>
            <text x="65" y="48" text-anchor="middle" fill="#fff" font-size="20" font-weight="bold" font-family="system-ui">3</text>
          </g>

          <g transform="translate(175, 45)">
            <rect width="130" height="55" rx="6" fill="#eab308"/>
            <text x="65" y="25" text-anchor="middle" class="badge" fill="#000">WARNINGS</text>
            <text x="65" y="48" text-anchor="middle" fill="#000" font-size="20" font-weight="bold" font-family="system-ui">12</text>
          </g>

          <g transform="translate(320, 45)">
            <rect width="130" height="55" rx="6" fill="#3b82f6"/>
            <text x="65" y="25" text-anchor="middle" class="badge">NOTICES</text>
            <text x="65" y="48" text-anchor="middle" fill="#fff" font-size="20" font-weight="bold" font-family="system-ui">28</text>
          </g>
        </g>
      </a>
    </g>

    <!-- Right Column: Issue Details -->
    <g transform="translate(990, 135)">
      <a href="https://github.com/TortoiseWolfe/ScriptHammer/blob/main/features/foundation/001-wcag-aa-compliance/spec.md#functional-requirements" target="_blank">
        <rect width="430" height="530" rx="8" fill="#f5f0e6" stroke="#b8a080"/>
        <text x="15" y="25" class="heading-sm">ISSUE DETAILS</text>
        <text x="370" y="25" text-anchor="end" class="tag-base fr-tag">FR-004</text>

        <!-- Filter tabs (44px height) -->
        <g transform="translate(10, 40)">
          <rect width="100" height="44" rx="6" fill="#8b5cf6"/>
          <text x="50" y="28" text-anchor="middle" class="btn-text">All</text>
          <rect x="110" width="100" height="44" rx="6" fill="#dcc8a8" stroke="#b8a080"/>
          <text x="160" y="28" text-anchor="middle" class="text-sm">Errors</text>
          <rect x="220" width="100" height="44" rx="6" fill="#dcc8a8" stroke="#b8a080"/>
          <text x="270" y="28" text-anchor="middle" class="text-sm">Warnings</text>
          <rect x="330" width="90" height="44" rx="6" fill="#dcc8a8" stroke="#b8a080"/>
          <text x="375" y="28" text-anchor="middle" class="text-sm">Notices</text>
        </g>

        <!-- Issue cards -->
        <g transform="translate(10, 95)">
          <rect width="410" height="100" rx="6" fill="#dcc8a8" stroke="#dc2626" stroke-width="2"/>
          <rect x="10" y="10" width="55" height="20" rx="4" fill="#dc2626"/>
          <text x="37" y="24" text-anchor="middle" class="badge">ERROR</text>
          <text x="75" y="24" class="text-sm" fill="#dc2626">Missing alt text</text>
          <text x="10" y="48" class="text-muted">/profile &gt; img.avatar</text>
          <text x="10" y="68" class="text-muted">WCAG 1.1.1: Non-text Content (AAA)</text>
          <rect x="10" y="75" width="120" height="20" rx="4" fill="#8b5cf6"/>
          <text x="70" y="89" text-anchor="middle" class="badge">View Fix →</text>
        </g>

        <g transform="translate(10, 205)">
          <rect width="410" height="100" rx="6" fill="#dcc8a8" stroke="#eab308" stroke-width="2"/>
          <rect x="10" y="10" width="70" height="20" rx="4" fill="#eab308"/>
          <text x="45" y="24" text-anchor="middle" class="badge" fill="#000">WARNING</text>
          <text x="90" y="24" class="text-sm" fill="#b45309">Low contrast link</text>
          <text x="10" y="48" class="text-muted">/chat &gt; a.timestamp</text>
          <text x="10" y="68" class="text-muted">WCAG 1.4.6: Contrast (AAA) - 5.2:1</text>
          <rect x="10" y="75" width="120" height="20" rx="4" fill="#8b5cf6"/>
          <text x="70" y="89" text-anchor="middle" class="badge">View Fix →</text>
        </g>

        <g transform="translate(10, 315)">
          <rect width="410" height="100" rx="6" fill="#dcc8a8" stroke="#3b82f6" stroke-width="2"/>
          <rect x="10" y="10" width="60" height="20" rx="4" fill="#3b82f6"/>
          <text x="40" y="24" text-anchor="middle" class="badge">NOTICE</text>
          <text x="80" y="24" class="text-sm" fill="#1d4ed8">Consider skip link</text>
          <text x="10" y="48" class="text-muted">/settings &gt; nav.sidebar</text>
          <text x="10" y="68" class="text-muted">WCAG 2.4.1: Bypass Blocks (AAA)</text>
          <rect x="10" y="75" width="120" height="20" rx="4" fill="#8b5cf6"/>
          <text x="70" y="89" text-anchor="middle" class="badge">View Fix →</text>
        </g>

        <!-- Pagination (44px buttons) -->
        <g transform="translate(10, 425)">
          <rect width="44" height="44" rx="6" fill="#dcc8a8" stroke="#b8a080"/>
          <text x="22" y="28" text-anchor="middle" class="text-sm">←</text>
          <text x="130" y="28" text-anchor="middle" class="text-sm">Page 1 of 5</text>
          <rect x="220" width="44" height="44" rx="6" fill="#dcc8a8" stroke="#b8a080"/>
          <text x="242" y="28" text-anchor="middle" class="text-sm">→</text>
        </g>
      </a>
    </g>
  </g>

  <!-- MOBILE SECTION -->
  <text x="1500" y="56" class="label-mobile">MOBILE</text>
  <g id="mobile-view" transform="translate(1500, 65)">
    <!-- Phone frame: 360x700, rx=24 -->
    <rect x="0" y="0" width="360" height="700" rx="24" fill="#c8b898" stroke="#a08860" stroke-width="2"/>
    <!-- Screen area -->
    <rect x="10" y="10" width="340" height="680" rx="16" fill="#e8d4b8"/>
    <!-- Status bar -->
    <rect x="10" y="10" width="340" height="28" rx="16" fill="#dcc8a8"/>
    <text x="30" y="28" class="text-sm">9:41</text>
    <text x="310" y="28" text-anchor="end" class="text-sm">📶 🔋</text>

    <!-- Mobile Header -->
    <rect x="15" y="45" width="330" height="44" rx="6" fill="#8b5cf6"/>
    <text x="170" y="73" text-anchor="middle" class="btn-text">A11y Dashboard</text>

    <!-- Mobile Score Card -->
    <g transform="translate(15, 100)">
      <rect width="330" height="100" rx="8" fill="#f5f0e6" stroke="#b8a080"/>
      <text x="165" y="25" text-anchor="middle" class="heading-sm">Overall Score</text>
      <text x="165" y="65" text-anchor="middle" fill="#22c55e" font-size="36" font-weight="800" font-family="system-ui">94%</text>
      <text x="165" y="85" text-anchor="middle" class="text-muted">WCAG AAA</text>
    </g>

    <!-- Mobile Severity Summary -->
    <g transform="translate(15, 210)">
      <rect width="330" height="80" rx="8" fill="#f5f0e6" stroke="#b8a080"/>
      <text x="15" y="22" class="text-sm">Issues by Severity</text>

      <g transform="translate(15, 35)">
        <rect width="90" height="35" rx="4" fill="#dc2626"/>
        <text x="45" y="23" text-anchor="middle" class="badge">3 Errors</text>
      </g>
      <g transform="translate(115, 35)">
        <rect width="100" height="35" rx="4" fill="#eab308"/>
        <text x="50" y="23" text-anchor="middle" class="badge" fill="#000">12 Warn</text>
      </g>
      <g transform="translate(225, 35)">
        <rect width="90" height="35" rx="4" fill="#3b82f6"/>
        <text x="45" y="23" text-anchor="middle" class="badge">28 Info</text>
      </g>
    </g>

    <!-- Mobile Page List -->
    <g transform="translate(15, 300)">
      <rect width="330" height="280" rx="8" fill="#f5f0e6" stroke="#b8a080"/>
      <text x="15" y="22" class="text-sm">Page Scores</text>

      <!-- List items (44px each) -->
      <g transform="translate(10, 35)">
        <rect width="310" height="44" rx="4" fill="#dcc8a8"/>
        <text x="15" y="28" class="text-sm">/home</text>
        <rect x="240" y="10" width="60" height="24" rx="12" fill="#22c55e"/>
        <text x="270" y="27" text-anchor="middle" class="badge">100%</text>
      </g>

      <g transform="translate(10, 85)">
        <rect width="310" height="44" rx="4" fill="transparent" stroke="#b8a080"/>
        <text x="15" y="28" class="text-sm">/dashboard</text>
        <rect x="240" y="10" width="60" height="24" rx="12" fill="#22c55e"/>
        <text x="270" y="27" text-anchor="middle" class="badge">98%</text>
      </g>

      <g transform="translate(10, 135)">
        <rect width="310" height="44" rx="4" fill="transparent" stroke="#b8a080"/>
        <text x="15" y="28" class="text-sm">/profile</text>
        <rect x="240" y="10" width="60" height="24" rx="12" fill="#eab308"/>
        <text x="270" y="27" text-anchor="middle" class="badge" fill="#000">88%</text>
      </g>

      <g transform="translate(10, 185)">
        <rect width="310" height="44" rx="4" fill="transparent" stroke="#b8a080"/>
        <text x="15" y="28" class="text-sm">/chat</text>
        <rect x="240" y="10" width="60" height="24" rx="12" fill="#eab308"/>
        <text x="270" y="27" text-anchor="middle" class="badge" fill="#000">85%</text>
      </g>

      <g transform="translate(10, 235)">
        <rect width="310" height="30" rx="4" fill="transparent"/>
        <text x="155" y="20" text-anchor="middle" class="text-muted">View all pages →</text>
      </g>
    </g>

    <!-- Mobile Bottom Nav (44px height) -->
    <g transform="translate(10, 595)">
      <rect width="340" height="80" rx="16" fill="#dcc8a8"/>
      <g transform="translate(30, 15)">
        <rect width="80" height="50" rx="6" fill="#8b5cf6"/>
        <text x="40" y="32" text-anchor="middle" class="badge">Score</text>
      </g>
      <g transform="translate(130, 15)">
        <rect width="80" height="50" rx="6" fill="transparent"/>
        <text x="40" y="32" text-anchor="middle" class="text-muted">Issues</text>
      </g>
      <g transform="translate(230, 15)">
        <rect width="80" height="50" rx="6" fill="transparent"/>
        <text x="40" y="32" text-anchor="middle" class="text-muted">Trend</text>
      </g>
    </g>
  </g>

  <!-- REQUIREMENTS LEGEND -->
  <g id="requirements-legend" transform="translate(40, 780)">
    <rect width="1400" height="75" rx="6" fill="#dcc8a8" stroke="#b8a080"/>
    <text x="20" y="22" class="legend-header">REQUIREMENTS KEY</text>

    <!-- Row 1 -->
    <g transform="translate(20, 42)">
      <a href="https://github.com/TortoiseWolfe/ScriptHammer/blob/main/features/foundation/001-wcag-aa-compliance/spec.md#functional-requirements" target="_blank">
        <text x="0" y="0" class="tag-base fr-tag">FR-032:</text>
        <text x="55" y="0" class="legend-text">Persist scores for history</text>
      </a>
      <a href="https://github.com/TortoiseWolfe/ScriptHammer/blob/main/features/foundation/001-wcag-aa-compliance/spec.md#functional-requirements" target="_blank">
        <text x="250" y="0" class="tag-base fr-tag">FR-033:</text>
        <text x="305" y="0" class="legend-text">Overall + per-page scores</text>
      </a>
      <a href="https://github.com/TortoiseWolfe/ScriptHammer/blob/main/features/foundation/001-wcag-aa-compliance/spec.md#functional-requirements" target="_blank">
        <text x="520" y="0" class="tag-base fr-tag">FR-034:</text>
        <text x="575" y="0" class="legend-text">Trend data over time</text>
      </a>
      <a href="https://github.com/TortoiseWolfe/ScriptHammer/blob/main/features/foundation/001-wcag-aa-compliance/spec.md#functional-requirements" target="_blank">
        <text x="770" y="0" class="tag-base fr-tag">FR-035:</text>
        <text x="825" y="0" class="legend-text">Categorize by severity</text>
      </a>
      <a href="https://github.com/TortoiseWolfe/ScriptHammer/blob/main/features/foundation/001-wcag-aa-compliance/spec.md#functional-requirements" target="_blank">
        <text x="1020" y="0" class="tag-base fr-tag">FR-004:</text>
        <text x="1075" y="0" class="legend-text">Remediation guidance</text>
      </a>
    </g>

    <!-- Row 2 -->
    <g transform="translate(20, 62)">
      <a href="https://github.com/TortoiseWolfe/ScriptHammer/blob/main/features/foundation/001-wcag-aa-compliance/spec.md#success-criteria-mandatory" target="_blank">
        <text x="0" y="0" class="tag-base sc-tag">SC-010:</text>
        <text x="55" y="0" class="legend-text">90-day historical data</text>
      </a>
    </g>
  </g>

  <!-- Footer -->
  <text x="60" y="1060" text-anchor="start" class="text-muted">001:02 | A11y Dashboard | ScriptHammer</text>
</svg>
