<svg xmlns="http://www.w3.org/2000/svg" viewBox="0 0 1400 800" width="1400" height="800">
  <!-- ============================================================
       GENERATED BY: /wireframe skill
       SOURCE: features/foundation/001-wcag-aa-compliance/spec.md
       DATE: 2026-01-04
       THEME: Light (UX/Frontend) - Dashboard UI
       REGENERATED WITH FEEDBACK: 02-a11y-dashboard.issues.md (Pass 8)
       DO NOT MANUALLY EDIT - Regenerate with /wireframe command
       ============================================================ -->
  <defs>
    <linearGradient id="bgGrad" x1="0%" y1="0%" x2="100%" y2="100%">
      <stop offset="0%" style="stop-color:#c7ddf5"/>
      <stop offset="100%" style="stop-color:#b8d4f0"/>
    </linearGradient>
    <linearGradient id="accentGrad" x1="0%" y1="0%" x2="100%" y2="0%">
      <stop offset="0%" style="stop-color:#8b5cf6"/>
      <stop offset="100%" style="stop-color:#d946ef"/>
    </linearGradient>
    <style>
      /* Typography */
      .heading-lg { fill: #1a1a2e; font-family: system-ui, sans-serif; font-size: 28px; font-weight: 800; }
      .heading { fill: #1a1a2e; font-family: system-ui, sans-serif; font-size: 20px; font-weight: 700; }
      .heading-sm { fill: #1a1a2e; font-family: system-ui, sans-serif; font-size: 16px; font-weight: 700; }
      .text-md { fill: #2d3748; font-family: system-ui, sans-serif; font-size: 16px; font-weight: 500; }
      .text-sm { fill: #374151; font-family: system-ui, sans-serif; font-size: 14px; font-weight: 500; }
      .text-muted { fill: #4b5563; font-family: system-ui, sans-serif; font-size: 13px; font-weight: 500; }
      .score-lg { fill: #1a1a2e; font-family: system-ui, sans-serif; font-size: 36px; font-weight: 800; }
      /* Labels */
      .label-desktop { fill: #8b5cf6; font-family: system-ui, sans-serif; font-size: 15px; font-weight: bold; }
      .label-mobile { fill: #d946ef; font-family: system-ui, sans-serif; font-size: 15px; font-weight: bold; }
      /* Tags */
      .tag-base { font-family: system-ui, sans-serif; font-size: 14px; font-weight: bold; }
      .fr-tag { fill: #2563eb; }
      .sc-tag { fill: #ea580c; }
      /* Legend */
      .legend-header { fill: #6d28d9; font-family: system-ui, sans-serif; font-size: 15px; font-weight: bold; }
      .legend-text { fill: #374151; font-family: system-ui, sans-serif; font-size: 13px; }
      /* Status - WCAG AA compliant on parchment */
      .success { fill: #166534; font-weight: bold; }
      .warning { fill: #854d0e; font-weight: bold; }
      .error { fill: #991b1b; font-weight: bold; }
      .notice { fill: #1e40af; font-weight: bold; }
      /* Buttons */
      .btn-text { fill: #ffffff; font-family: system-ui, sans-serif; font-size: 14px; font-weight: 600; }
      .btn-text-dark { fill: #451a03; font-family: system-ui, sans-serif; font-size: 14px; font-weight: 600; }
    </style>
  </defs>

  <!-- Background -->
  <rect width="1400" height="800" fill="url(#bgGrad)"/>

  <!-- Dot grid -->
  <g opacity="0.35">
    <pattern id="dots" width="30" height="30" patternUnits="userSpaceOnUse">
      <circle cx="15" cy="15" r="1" fill="#6b8cba"/>
    </pattern>
    <rect width="1400" height="800" fill="url(#dots)"/>
  </g>

  <!-- Accent line -->
  <rect x="0" y="0" width="1400" height="3" fill="url(#accentGrad)"/>

  <!-- Title -->
  <text x="700" y="28" text-anchor="middle" font-family="system-ui, sans-serif" font-size="18" font-weight="700" fill="#4b5563" letter-spacing="1">ACCESSIBILITY DASHBOARD</text>

  <!-- DESKTOP SECTION -->
  <text x="40" y="52" class="label-desktop">DESKTOP</text>
  <g id="desktop-view">
    <!-- Desktop background panel (consistent with 002 wireframes) -->
    <rect x="40" y="60" width="900" height="560" rx="8" fill="#e8d4b8" stroke="#b8a080"/>

    <!-- Row 1: Score Cards (y=70, h=90) -->
    <g id="score-cards" transform="translate(50, 70)">
      <!-- Overall Score -->
      <rect x="0" y="0" width="280" height="90" rx="8" fill="#dcc8a8" stroke="#b8a080"/>
      <text x="15" y="22" class="heading-sm">Overall Score</text>
      <text x="15" y="68" class="score-lg">91%</text>
      <g transform="translate(100, 45)">
        <text x="0" y="0" class="success">✓ +8%</text>
        <text x="0" y="15" class="text-muted">(90 days)</text>
      </g>
      <text x="190" y="20" class="tag-base fr-tag">FR-033</text>
      <text x="245" y="20" class="tag-base sc-tag">SC-001</text>

      <!-- Pages Passing -->
      <rect x="290" y="0" width="280" height="90" rx="8" fill="#dcc8a8" stroke="#b8a080"/>
      <text x="305" y="22" class="heading-sm">Pages Passing</text>
      <text x="305" y="68" class="score-lg">40</text>
      <text x="365" y="63" class="text-md">/ 44</text>
      <text x="485" y="20" class="tag-base fr-tag">FR-033</text>

      <!-- Issues by Severity -->
      <rect x="580" y="0" width="300" height="90" rx="8" fill="#dcc8a8" stroke="#b8a080"/>
      <text x="595" y="22" class="heading-sm">Issues by Severity</text>
      <text x="800" y="20" class="tag-base fr-tag">FR-035</text>
      <g transform="translate(595, 35)">
        <rect x="0" y="0" width="80" height="44" rx="6" fill="#fee2e2" stroke="#991b1b" stroke-width="2"/>
        <text x="40" y="18" text-anchor="middle" class="text-sm">✗ Errors</text>
        <text x="40" y="36" text-anchor="middle" class="error">0</text>
        <rect x="90" y="0" width="90" height="44" rx="6" fill="#fef3c7" stroke="#854d0e" stroke-width="2"/>
        <text x="135" y="18" text-anchor="middle" class="text-sm">⚠ Warns</text>
        <text x="135" y="36" text-anchor="middle" class="warning">6</text>
        <rect x="190" y="0" width="85" height="44" rx="6" fill="#dbeafe" stroke="#1e40af" stroke-width="2"/>
        <text x="232" y="18" text-anchor="middle" class="text-sm">ℹ Notes</text>
        <text x="232" y="36" text-anchor="middle" class="notice">18</text>
      </g>
    </g>

    <!-- Row 2: Trend Chart (y=170, h=130) -->
    <g id="trend-chart" transform="translate(50, 170)">
      <rect x="0" y="0" width="880" height="130" rx="8" fill="#dcc8a8" stroke="#b8a080"/>
      <text x="15" y="22" class="heading-sm">90-Day Compliance Trend</text>
      <text x="260" y="20" class="tag-base fr-tag">FR-034</text>
      <text x="320" y="20" class="tag-base sc-tag">SC-010</text>
      <text x="385" y="20" class="tag-base fr-tag">FR-032</text>
      <!-- Chart area -->
      <rect x="15" y="35" width="850" height="85" rx="4" fill="#f5f0e6"/>
      <text x="30" y="50" class="text-muted">100%</text>
      <text x="30" y="75" class="text-muted">75%</text>
      <text x="30" y="100" class="text-muted">50%</text>
      <text x="80" y="115" class="text-muted">Oct</text>
      <text x="340" y="115" class="text-muted">Nov</text>
      <text x="600" y="115" class="text-muted">Dec</text>
      <text x="830" y="115" class="text-muted">Jan</text>
      <!-- Trend line -->
      <polyline points="80,90 240,82 400,70 560,62 720,55 850,48" fill="none" stroke="#8b5cf6" stroke-width="3" stroke-linecap="round"/>
      <circle cx="80" cy="90" r="4" fill="#8b5cf6"/>
      <circle cx="240" cy="82" r="4" fill="#8b5cf6"/>
      <circle cx="400" cy="70" r="4" fill="#8b5cf6"/>
      <circle cx="560" cy="62" r="4" fill="#8b5cf6"/>
      <circle cx="720" cy="55" r="4" fill="#8b5cf6"/>
      <circle cx="850" cy="48" r="6" fill="#166534"/>
      <text x="850" y="52" text-anchor="middle" fill="#fff" font-size="8" font-weight="bold">✓</text>
      <text x="850" y="40" text-anchor="middle" class="success">91%</text>
    </g>

    <!-- Row 3: Per-Page Table + Active Issues (y=310, h=150) -->
    <g id="page-table" transform="translate(50, 310)">
      <rect x="0" y="0" width="430" height="150" rx="8" fill="#dcc8a8" stroke="#b8a080"/>
      <text x="15" y="22" class="heading-sm">Per-Page Compliance</text>
      <text x="280" y="20" class="tag-base fr-tag">FR-033</text>
      <!-- Header -->
      <rect x="10" y="35" width="410" height="24" rx="4" fill="#e8d4b8"/>
      <text x="20" y="52" class="text-sm" font-weight="bold">Page</text>
      <text x="140" y="52" class="text-sm" font-weight="bold">Score</text>
      <text x="220" y="52" class="text-sm" font-weight="bold">Issues</text>
      <text x="320" y="52" class="text-sm" font-weight="bold">Action</text>
      <!-- Row 1 -->
      <g transform="translate(10, 62)">
        <rect x="0" y="0" width="410" height="44" rx="4" fill="#f5f0e6"/>
        <text x="10" y="28" class="text-sm">/blog</text>
        <text x="140" y="28" class="text-sm">78%</text>
        <text x="220" y="28" class="warning">8</text>
        <rect x="300" y="2" width="100" height="40" rx="6" fill="#fef3c7" stroke="#854d0e"/>
        <text x="350" y="27" text-anchor="middle" class="btn-text-dark">Review</text>
      </g>
      <!-- Row 2 -->
      <g transform="translate(10, 108)">
        <rect x="0" y="0" width="410" height="38" rx="4" fill="#e8d4b8"/>
        <text x="10" y="24" class="text-sm">/settings</text>
        <text x="140" y="24" class="text-sm">82%</text>
        <text x="220" y="24" class="warning">7</text>
        <text x="350" y="24" text-anchor="middle" class="text-muted">...</text>
      </g>
    </g>

    <!-- Active Issues (right of table) -->
    <g id="active-issues" transform="translate(490, 310)">
      <rect x="0" y="0" width="440" height="150" rx="8" fill="#dcc8a8" stroke="#b8a080"/>
      <text x="15" y="22" class="heading-sm">Active Issues</text>
      <text x="280" y="20" class="tag-base fr-tag">FR-004</text>
      <text x="340" y="20" class="tag-base fr-tag">FR-035</text>
      <text x="15" y="38" class="text-muted">Showing 2 of 24</text>
      <!-- Issue 1 -->
      <g transform="translate(10, 48)">
        <rect x="0" y="0" width="420" height="44" rx="6" fill="#fef3c7" stroke="#854d0e"/>
        <rect x="8" y="12" width="6" height="20" rx="2" fill="#854d0e"/>
        <text x="22" y="20" class="text-sm" font-weight="bold">Low contrast text</text>
        <text x="22" y="36" class="text-muted">/blog - .subtitle</text>
        <rect x="310" y="2" width="100" height="40" rx="6" fill="#8b5cf6"/>
        <text x="360" y="27" text-anchor="middle" class="btn-text">View Fix</text>
      </g>
      <!-- Issue 2 -->
      <g transform="translate(10, 98)">
        <rect x="0" y="0" width="420" height="44" rx="6" fill="#fef3c7" stroke="#854d0e"/>
        <rect x="8" y="12" width="6" height="20" rx="2" fill="#854d0e"/>
        <text x="22" y="20" class="text-sm" font-weight="bold">Missing alt text</text>
        <text x="22" y="36" class="text-muted">/settings - img.avatar</text>
        <rect x="310" y="2" width="100" height="40" rx="6" fill="#8b5cf6"/>
        <text x="360" y="27" text-anchor="middle" class="btn-text">View Fix</text>
      </g>
    </g>

    <!-- Row 4: US9 Coverage (y=470, h=90) -->
    <g id="us9-box" transform="translate(50, 470)">
      <rect x="0" y="0" width="880" height="90" rx="8" fill="#f5f0e6" stroke="#b8a080" stroke-dasharray="4,2"/>
      <text x="15" y="22" class="heading-sm" fill="#6d28d9">User Story 9 Coverage</text>
      <g transform="translate(15, 40)">
        <text x="0" y="0" class="text-sm">US9.1: Overall compliance score</text>
        <text x="260" y="0" class="success">✓ Score Cards</text>
        <text x="0" y="20" class="text-sm">US9.2: Per-page breakdown</text>
        <text x="260" y="20" class="success">✓ Per-Page Table</text>
        <text x="450" y="0" class="text-sm">US9.3: Compliance over time</text>
        <text x="710" y="0" class="success">✓ Trend Chart</text>
        <text x="450" y="20" class="text-sm">US9.4: Drill down to fixes</text>
        <text x="710" y="20" class="success">✓ Active Issues</text>
      </g>
    </g>
  </g>

  <!-- MOBILE SECTION -->
  <text x="980" y="52" class="label-mobile">MOBILE</text>
  <g id="mobile-view" transform="translate(980, 60)">
    <!-- Phone frame: 360x700 (standard) - darker tan -->
    <rect x="0" y="0" width="360" height="700" rx="24" fill="#c8b898" stroke="#a08860" stroke-width="2"/>
    <!-- Screen area: 340x680 (standard) - true parchment -->
    <rect x="10" y="10" width="340" height="680" rx="16" fill="#e8d4b8"/>
    <!-- Status bar - darker parchment -->
    <rect x="10" y="10" width="340" height="28" rx="16" fill="#dcc8a8"/>
    <text x="30" y="28" class="text-sm">9:41</text>
    <text x="310" y="28" text-anchor="end" class="text-sm">📶 🔋</text>

    <!-- Header -->
    <text x="170" y="58" text-anchor="middle" class="heading">A11y Dashboard</text>

    <!-- Score Card (y=70, h=100) -->
    <g transform="translate(20, 70)">
      <rect x="0" y="0" width="300" height="100" rx="8" fill="#dcc8a8" stroke="#b8a080"/>
      <text x="150" y="25" text-anchor="middle" class="heading-sm">Overall Score</text>
      <text x="150" y="70" text-anchor="middle" class="score-lg">91%</text>
      <text x="150" y="90" text-anchor="middle" class="success">✓ ↑8% (90 days)</text>
    </g>

    <!-- Quick Stats (y=180, h=80) -->
    <g transform="translate(20, 180)">
      <rect x="0" y="0" width="300" height="80" rx="8" fill="#dcc8a8" stroke="#b8a080"/>
      <text x="150" y="22" text-anchor="middle" class="heading-sm">40/44 pages passing</text>
      <g transform="translate(10, 35)">
        <rect x="0" y="0" width="85" height="28" rx="4" fill="#fee2e2" stroke="#991b1b"/>
        <text x="42" y="19" text-anchor="middle" class="error" font-size="11">✗ 0 Err</text>
        <rect x="95" y="0" width="95" height="28" rx="4" fill="#fef3c7" stroke="#854d0e"/>
        <text x="142" y="19" text-anchor="middle" class="warning" font-size="11">⚠ 6 Warn</text>
        <rect x="200" y="0" width="85" height="28" rx="4" fill="#dbeafe" stroke="#1e40af"/>
        <text x="242" y="19" text-anchor="middle" class="notice" font-size="11">ℹ 18 Note</text>
      </g>
    </g>

    <!-- Top Issues (y=270, h=210) -->
    <g transform="translate(20, 270)">
      <rect x="0" y="0" width="300" height="210" rx="8" fill="#dcc8a8" stroke="#b8a080"/>
      <text x="15" y="22" class="heading-sm">Top Issues</text>
      <text x="230" y="22" class="text-muted">3 of 24</text>
      <!-- Issue 1 -->
      <g transform="translate(10, 35)">
        <rect x="0" y="0" width="280" height="50" rx="6" fill="#fef3c7" stroke="#854d0e"/>
        <rect x="8" y="14" width="5" height="22" rx="2" fill="#854d0e"/>
        <text x="20" y="22" class="text-sm" font-weight="bold">Low contrast text</text>
        <text x="20" y="40" class="text-muted">/blog</text>
        <text x="265" y="30" class="text-sm" fill="#8b5cf6" font-weight="bold">→</text>
      </g>
      <!-- Issue 2 -->
      <g transform="translate(10, 92)">
        <rect x="0" y="0" width="280" height="50" rx="6" fill="#fef3c7" stroke="#854d0e"/>
        <rect x="8" y="14" width="5" height="22" rx="2" fill="#854d0e"/>
        <text x="20" y="22" class="text-sm" font-weight="bold">Missing alt text</text>
        <text x="20" y="40" class="text-muted">/settings</text>
        <text x="265" y="30" class="text-sm" fill="#8b5cf6" font-weight="bold">→</text>
      </g>
      <!-- Issue 3 -->
      <g transform="translate(10, 149)">
        <rect x="0" y="0" width="280" height="50" rx="6" fill="#dbeafe" stroke="#1e40af"/>
        <rect x="8" y="14" width="5" height="22" rx="2" fill="#1e40af"/>
        <text x="20" y="22" class="text-sm" font-weight="bold">Touch target small</text>
        <text x="20" y="40" class="text-muted">/checkout</text>
        <text x="265" y="30" class="text-sm" fill="#8b5cf6" font-weight="bold">→</text>
      </g>
    </g>

    <!-- CTA Button (y=490, h=44) -->
    <g transform="translate(20, 490)">
      <rect x="0" y="0" width="300" height="44" rx="8" fill="#8b5cf6"/>
      <text x="150" y="28" text-anchor="middle" class="btn-text">View Full Report</text>
    </g>

    <!-- Bottom nav hint -->
    <rect x="130" y="660" width="100" height="5" rx="2.5" fill="#a08860"/>
  </g>

  <!-- Requirements Legend (y=690) -->
  <g id="requirements-legend" transform="translate(40, 690)">
    <rect x="0" y="0" width="900" height="75" rx="6" fill="#dcc8a8" stroke="#b8a080"/>
    <text x="20" y="18" class="legend-header">REQUIREMENTS KEY</text>
    <!-- Row 1: FR codes -->
    <g transform="translate(20, 38)">
      <text x="0" class="tag-base fr-tag">FR-004:</text>
      <text x="55" class="legend-text">Detailed reports</text>
      <text x="180" class="tag-base fr-tag">FR-032:</text>
      <text x="240" class="legend-text">Historical tracking</text>
      <text x="380" class="tag-base fr-tag">FR-033:</text>
      <text x="440" class="legend-text">Per-page scores</text>
      <text x="560" class="tag-base fr-tag">FR-034:</text>
      <text x="620" class="legend-text">Trend data</text>
    </g>
    <!-- Row 2: FR-035 + SC codes -->
    <g transform="translate(20, 60)">
      <text x="0" class="tag-base fr-tag">FR-035:</text>
      <text x="55" class="legend-text">Severity</text>
      <text x="130" class="tag-base sc-tag">SC-001:</text>
      <text x="185" class="legend-text">100% AAA pass</text>
      <text x="310" class="tag-base sc-tag">SC-010:</text>
      <text x="365" class="legend-text">90-day history</text>
    </g>
  </g>

  <!-- Footer -->
  <text x="60" y="780" text-anchor="start" fill="#94a3b8" font-family="system-ui, sans-serif" font-size="10">001:02 | A11y Dashboard | ScriptHammer</text>
</svg>
