<svg xmlns="http://www.w3.org/2000/svg" viewBox="0 0 1400 800" width="1400" height="800">
  <!-- ============================================================
       GENERATED BY: /wireframe skill
       SOURCE: features/foundation/001-wcag-aa-compliance/spec.md
       DATE: 2026-01-01
       THEME: Light (UX/Frontend) - v3 True Parchment
       REGENERATED WITH FEEDBACK: features/foundation/001-wcag-aa-compliance/WIREFRAME_ISSUES.md
       DO NOT MANUALLY EDIT - Regenerate with /wireframe command
       ============================================================ -->
  <defs>
    <linearGradient id="bgGrad" x1="0%" y1="0%" x2="100%" y2="100%">
      <stop offset="0%" style="stop-color:#c7ddf5"/>
      <stop offset="100%" style="stop-color:#b8d4f0"/>
    </linearGradient>
    <linearGradient id="accentGrad" x1="0%" y1="0%" x2="100%" y2="0%">
      <stop offset="0%" style="stop-color:#8b5cf6"/>
      <stop offset="100%" style="stop-color:#d946ef"/>
    </linearGradient>
    <style>
      .heading-lg { fill: #1a1a2e; font-family: system-ui, sans-serif; font-size: 24px; font-weight: 800; }
      .heading { fill: #1a1a2e; font-family: system-ui, sans-serif; font-size: 16px; font-weight: 700; }
      .text-md { fill: #2d3748; font-family: system-ui, sans-serif; font-size: 14px; font-weight: 500; }
      .text-sm { fill: #374151; font-family: system-ui, sans-serif; font-size: 12px; font-weight: 500; }
      .text-muted { fill: #4b5563; font-family: system-ui, sans-serif; font-size: 11px; font-weight: 500; }
      .annotation { fill: #6d28d9; font-family: monospace; font-size: 12px; font-weight: 600; }
      .label-desktop { fill: #8b5cf6; font-family: monospace; font-size: 13px; font-weight: bold; }
      .label-mobile { fill: #d946ef; font-family: monospace; font-size: 13px; font-weight: bold; }
      .score-large { fill: #22c55e; font-family: system-ui, sans-serif; font-size: 48px; font-weight: bold; }
      .score-label { fill: #4b5563; font-family: system-ui, sans-serif; font-size: 14px; }
    </style>
  </defs>

  <!-- Background -->
  <rect width="1400" height="800" fill="url(#bgGrad)"/>

  <!-- Dot grid pattern -->
  <g opacity="0.35">
    <pattern id="dots" width="30" height="30" patternUnits="userSpaceOnUse">
      <circle cx="15" cy="15" r="1" fill="#6b8cba"/>
    </pattern>
    <rect width="1400" height="800" fill="url(#dots)"/>
  </g>

  <!-- Accent line top -->
  <rect x="0" y="0" width="1400" height="3" fill="url(#accentGrad)"/>

  <!-- Title -->
  <text x="700" y="28" text-anchor="middle" font-family="system-ui, sans-serif" font-size="14" font-weight="600" fill="#4b5563" letter-spacing="1">ACCESSIBILITY DASHBOARD</text>

  <!-- DESKTOP SECTION (left) -->
  <text x="40" y="52" class="label-desktop">DESKTOP</text>

  <!-- Desktop container: x=40, y=60, width=900, height=700 → RIGHT=940, BOTTOM=760 -->
  <rect x="40" y="60" width="900" height="700" rx="8" fill="#e8d4b8" stroke="#b8a080" stroke-width="1"/>

  <!-- Header bar: x=50, y=70, w=880, h=50 → RIGHT=930, BOTTOM=120 -->
  <rect x="50" y="70" width="880" height="50" rx="6" fill="#dcc8a8"/>
  <text x="70" y="102" class="heading-lg">Accessibility Dashboard</text>
  <text x="700" y="102" class="annotation">FR-032, FR-033, FR-034</text>

  <!-- ========== Row 1: Score Card + 90-Day Trend (y=130-310) ========== -->

  <!-- Score Card: x=50, y=130, w=280, h=180 → RIGHT=330, BOTTOM=310 -->
  <rect x="50" y="130" width="280" height="180" rx="6" fill="#f5f0e6" stroke="#b8a080"/>
  <text x="70" y="158" class="heading">Overall Compliance Score</text>
  <text x="190" y="235" text-anchor="middle" class="score-large">94</text>
  <text x="190" y="262" text-anchor="middle" class="score-label">/100 AAA</text>
  <text x="70" y="295" class="text-sm">SC-001: 100% pages pass</text>

  <!-- 90-Day Trend Chart: x=340, y=130, w=590, h=180 → RIGHT=930, BOTTOM=310 -->
  <!-- Gap from Score Card: 340 - 330 = 10px ✓ -->
  <rect x="340" y="130" width="590" height="180" rx="6" fill="#f5f0e6" stroke="#b8a080"/>
  <text x="360" y="158" class="heading">90-Day Compliance Trend</text>
  <text x="860" y="158" class="annotation">SC-010</text>
  <!-- Chart area -->
  <rect x="360" y="175" width="550" height="115" rx="4" fill="#dcc8a8"/>
  <!-- Trend line -->
  <polyline points="380,270 450,265 520,250 590,245 660,230 730,220 800,210 870,200"
            fill="none" stroke="#22c55e" stroke-width="3"/>
  <!-- Data points -->
  <circle cx="380" cy="270" r="4" fill="#22c55e"/>
  <circle cx="520" cy="250" r="4" fill="#22c55e"/>
  <circle cx="660" cy="230" r="4" fill="#22c55e"/>
  <circle cx="800" cy="210" r="4" fill="#22c55e"/>
  <circle cx="870" cy="200" r="4" fill="#22c55e"/>
  <!-- X-axis labels -->
  <text x="380" y="300" class="text-muted">Dec</text>
  <text x="520" y="300" class="text-muted">Jan</text>
  <text x="660" y="300" class="text-muted">Feb</text>
  <text x="800" y="300" class="text-muted">Mar</text>

  <!-- ========== Row 2: Per-Page + Issue Categories (y=320-520) ========== -->

  <!-- Per-Page Compliance: x=50, y=320, w=440, h=200 → RIGHT=490, BOTTOM=520 -->
  <rect x="50" y="320" width="440" height="200" rx="6" fill="#f5f0e6" stroke="#b8a080"/>
  <text x="70" y="350" class="heading">Per-Page Compliance</text>
  <text x="420" y="350" class="annotation">FR-033</text>
  <!-- Table header -->
  <rect x="60" y="365" width="420" height="28" rx="4" fill="#dcc8a8"/>
  <text x="80" y="384" class="text-sm">Page</text>
  <text x="280" y="384" class="text-sm">Score</text>
  <text x="360" y="384" class="text-sm">Issues</text>
  <text x="420" y="384" class="text-sm">Status</text>
  <!-- Table rows -->
  <text x="80" y="412" class="text-md">/home</text>
  <text x="290" y="412" class="text-md">100</text>
  <text x="370" y="412" class="text-md">0</text>
  <circle cx="435" cy="408" r="6" fill="#22c55e"/>

  <text x="80" y="437" class="text-md">/about</text>
  <text x="290" y="437" class="text-md">98</text>
  <text x="370" y="437" class="text-md">1</text>
  <circle cx="435" cy="433" r="6" fill="#22c55e"/>

  <text x="80" y="462" class="text-md">/settings</text>
  <text x="290" y="462" class="text-md">92</text>
  <text x="370" y="462" class="text-md">3</text>
  <circle cx="435" cy="458" r="6" fill="#eab308"/>

  <text x="80" y="487" class="text-md">/profile</text>
  <text x="290" y="487" class="text-md">88</text>
  <text x="370" y="487" class="text-md">5</text>
  <circle cx="435" cy="483" r="6" fill="#ef4444"/>

  <text x="80" y="512" class="text-md">/dashboard</text>
  <text x="290" y="512" class="text-md">95</text>
  <text x="370" y="512" class="text-md">2</text>
  <circle cx="435" cy="508" r="6" fill="#22c55e"/>

  <!-- Issue Categories: x=500, y=320, w=430, h=200 → RIGHT=930, BOTTOM=520 -->
  <!-- Gap from Per-Page: 500 - 490 = 10px ✓ -->
  <rect x="500" y="320" width="430" height="200" rx="6" fill="#f5f0e6" stroke="#b8a080"/>
  <text x="520" y="350" class="heading">Issue Categories</text>
  <text x="860" y="350" class="annotation">FR-035</text>
  <!-- Category bars -->
  <text x="520" y="385" class="text-sm">Contrast (7:1)</text>
  <rect x="620" y="372" width="180" height="18" rx="4" fill="#ef4444"/>
  <text x="810" y="386" class="text-sm">12</text>

  <text x="520" y="415" class="text-sm">Touch Targets</text>
  <rect x="620" y="402" width="120" height="18" rx="4" fill="#eab308"/>
  <text x="750" y="416" class="text-sm">8</text>

  <text x="520" y="445" class="text-sm">Alt Text</text>
  <rect x="620" y="432" width="90" height="18" rx="4" fill="#eab308"/>
  <text x="720" y="446" class="text-sm">6</text>

  <text x="520" y="475" class="text-sm">Focus Order</text>
  <rect x="620" y="462" width="60" height="18" rx="4" fill="#3b82f6"/>
  <text x="690" y="476" class="text-sm">4</text>

  <text x="520" y="505" class="text-sm">ARIA Labels</text>
  <rect x="620" y="492" width="45" height="18" rx="4" fill="#3b82f6"/>
  <text x="675" y="506" class="text-sm">3</text>

  <!-- ========== Row 3: Issue Details + History (y=530-750) ========== -->

  <!-- Issue Details: x=50, y=530, w=540, h=220 → RIGHT=590, BOTTOM=750 -->
  <rect x="50" y="530" width="540" height="220" rx="6" fill="#f5f0e6" stroke="#b8a080"/>
  <text x="70" y="560" class="heading">Issue Details</text>
  <text x="520" y="560" class="annotation">FR-004</text>
  <!-- Issue item -->
  <rect x="60" y="575" width="520" height="90" rx="4" fill="#dcc8a8" stroke="#ef4444" stroke-width="2"/>
  <circle cx="85" cy="605" r="10" fill="#ef4444"/>
  <text x="110" y="600" class="text-md">Contrast ratio 4.2:1 (requires 7:1)</text>
  <text x="110" y="622" class="text-sm">Element: .sidebar-text @ /settings</text>
  <text x="110" y="644" class="text-muted">Fix: Change color from #6b7280 to #9ca3af</text>

  <!-- Action buttons - 44px height each ✓ -->
  <rect x="60" y="680" width="160" height="44" rx="6" fill="#8b5cf6"/>
  <text x="140" y="708" text-anchor="middle" fill="#fff" font-family="system-ui" font-size="14" font-weight="600">View Remediation</text>

  <rect x="240" y="680" width="140" height="44" rx="6" fill="#dcc8a8" stroke="#8b5cf6" stroke-width="2"/>
  <text x="310" y="708" text-anchor="middle" fill="#6d28d9" font-family="system-ui" font-size="14" font-weight="600">Export Report</text>

  <!-- Issue History: x=600, y=530, w=330, h=220 → RIGHT=930, BOTTOM=750 -->
  <!-- Gap from Issue Details: 600 - 590 = 10px ✓ -->
  <rect x="600" y="530" width="330" height="220" rx="6" fill="#f5f0e6" stroke="#b8a080"/>
  <text x="620" y="560" class="heading">Issue History</text>
  <text x="860" y="560" class="annotation">FR-032</text>
  <!-- History list -->
  <text x="620" y="595" class="text-sm">Mar 15: Resolved 3 contrast issues</text>
  <text x="620" y="620" class="text-sm">Mar 12: Fixed touch target sizing</text>
  <text x="620" y="645" class="text-sm">Mar 10: Added missing alt text</text>
  <text x="620" y="670" class="text-sm">Mar 08: ARIA labels updated</text>
  <text x="620" y="695" class="text-sm">Mar 05: Focus order corrected</text>
  <text x="620" y="720" class="text-sm">Mar 01: Initial audit completed</text>

  <!-- MOBILE SECTION (right) -->
  <text x="980" y="52" class="label-mobile">MOBILE</text>

  <!-- Phone frame: x=980, y=60, w=360, h=700 → RIGHT=1340, BOTTOM=760 -->
  <!-- Gap from Desktop: 980 - 940 = 40px ✓ -->
  <rect x="980" y="60" width="360" height="700" rx="24" fill="#c8b898" stroke="#a08860" stroke-width="2"/>
  <rect x="990" y="70" width="340" height="680" rx="16" fill="#e8d4b8"/>

  <!-- Status bar -->
  <rect x="990" y="70" width="340" height="28" rx="16" fill="#dcc8a8"/>
  <text x="1010" y="88" class="text-sm">9:41</text>

  <!-- Mobile header - 44px ✓ -->
  <rect x="1000" y="108" width="320" height="44" rx="6" fill="#dcc8a8"/>
  <text x="1020" y="138" class="heading">Dashboard</text>

  <!-- Mobile score card: x=1000, y=162, w=320, h=90 → RIGHT=1320, BOTTOM=252 -->
  <rect x="1000" y="162" width="320" height="90" rx="6" fill="#f5f0e6" stroke="#b8a080"/>
  <text x="1160" y="205" text-anchor="middle" font-family="system-ui" font-size="36" font-weight="bold" fill="#22c55e">94</text>
  <text x="1160" y="230" text-anchor="middle" class="score-label">/100 AAA</text>

  <!-- Mobile trend mini chart: x=1000, y=262, w=320, h=70 → RIGHT=1320, BOTTOM=332 -->
  <rect x="1000" y="262" width="320" height="70" rx="6" fill="#f5f0e6" stroke="#b8a080"/>
  <text x="1020" y="286" class="text-sm">90-Day Trend</text>
  <polyline points="1020,315 1080,312 1140,305 1200,300 1260,295 1300,290"
            fill="none" stroke="#22c55e" stroke-width="2"/>

  <!-- Mobile issues list: x=1000, y=342, w=320, h=220 → RIGHT=1320, BOTTOM=562 -->
  <rect x="1000" y="342" width="320" height="220" rx="6" fill="#f5f0e6" stroke="#b8a080"/>
  <text x="1020" y="370" class="heading">Recent Issues</text>

  <!-- Issue items - 56px each ✓ -->
  <rect x="1010" y="385" width="300" height="56" rx="4" fill="#dcc8a8"/>
  <circle cx="1032" cy="413" r="8" fill="#ef4444"/>
  <text x="1055" y="408" class="text-sm">Contrast: 4.2:1</text>
  <text x="1055" y="426" class="text-muted">/settings • .sidebar-text</text>

  <rect x="1010" y="451" width="300" height="56" rx="4" fill="#dcc8a8"/>
  <circle cx="1032" cy="479" r="8" fill="#eab308"/>
  <text x="1055" y="474" class="text-sm">Touch target: 32×32</text>
  <text x="1055" y="492" class="text-muted">/profile • .edit-btn</text>

  <rect x="1010" y="517" width="300" height="44" rx="4" fill="#dcc8a8"/>
  <circle cx="1032" cy="539" r="8" fill="#3b82f6"/>
  <text x="1055" y="544" class="text-sm">Missing alt text</text>

  <!-- Mobile action button - 44px ✓ -->
  <rect x="1000" y="582" width="320" height="44" rx="6" fill="#8b5cf6"/>
  <text x="1160" y="610" text-anchor="middle" fill="#fff" font-family="system-ui" font-size="14" font-weight="600">View All Issues</text>

  <!-- Mobile bottom navigation - 44px ✓ -->
  <rect x="1000" y="696" width="320" height="44" rx="6" fill="#dcc8a8"/>
  <text x="1060" y="724" text-anchor="middle" class="text-sm">Overview</text>
  <text x="1160" y="724" text-anchor="middle" class="text-sm">Issues</text>
  <text x="1260" y="724" text-anchor="middle" class="text-sm">History</text>

  <!-- Footer Signature -->
  <text x="60" y="780" text-anchor="start" class="text-muted">001:02 | WCAG Accessibility Dashboard | ScriptHammer</text>
</svg>
