<svg xmlns="http://www.w3.org/2000/svg" viewBox="0 0 1400 800" width="1400" height="800">
  <!-- ============================================================
       GENERATED BY: /wireframe skill
       SOURCE: features/foundation/001-wcag-aa-compliance/spec.md
       DATE: 2025-12-31
       THEME: Dark (Backend/Architecture)
       DO NOT MANUALLY EDIT - Regenerate with /wireframe command
       ============================================================ -->
  <defs>
    <linearGradient id="bgGrad" x1="0%" y1="0%" x2="100%" y2="100%">
      <stop offset="0%" style="stop-color:#0f172a"/>
      <stop offset="100%" style="stop-color:#1e293b"/>
    </linearGradient>
    <linearGradient id="accentGrad" x1="0%" y1="0%" x2="100%" y2="0%">
      <stop offset="0%" style="stop-color:#8b5cf6"/>
      <stop offset="100%" style="stop-color:#d946ef"/>
    </linearGradient>
    <linearGradient id="successGrad" x1="0%" y1="0%" x2="0%" y2="100%">
      <stop offset="0%" style="stop-color:#22c55e"/>
      <stop offset="100%" style="stop-color:#16a34a"/>
    </linearGradient>
    <linearGradient id="errorGrad" x1="0%" y1="0%" x2="0%" y2="100%">
      <stop offset="0%" style="stop-color:#ef4444"/>
      <stop offset="100%" style="stop-color:#dc2626"/>
    </linearGradient>
    <marker id="arrowhead" markerWidth="10" markerHeight="7" refX="9" refY="3.5" orient="auto">
      <polygon points="0 0, 10 3.5, 0 7" fill="#8b5cf6"/>
    </marker>
    <marker id="arrowhead-success" markerWidth="10" markerHeight="7" refX="9" refY="3.5" orient="auto">
      <polygon points="0 0, 10 3.5, 0 7" fill="#22c55e"/>
    </marker>
    <marker id="arrowhead-error" markerWidth="10" markerHeight="7" refX="9" refY="3.5" orient="auto">
      <polygon points="0 0, 10 3.5, 0 7" fill="#ef4444"/>
    </marker>
    <style>
      .heading-lg { fill: #ffffff; font-family: system-ui, sans-serif; font-size: 20px; font-weight: bold; }
      .heading { fill: #ffffff; font-family: system-ui, sans-serif; font-size: 14px; font-weight: bold; }
      .heading-sm { fill: #ffffff; font-family: system-ui, sans-serif; font-size: 12px; font-weight: bold; }
      .text-md { fill: #cbd5e1; font-family: system-ui, sans-serif; font-size: 12px; }
      .text-sm { fill: #94a3b8; font-family: system-ui, sans-serif; font-size: 10px; }
      .text-muted { fill: #64748b; font-family: system-ui, sans-serif; font-size: 10px; }
      .annotation { fill: #8b5cf6; font-family: monospace; font-size: 10px; }
      .code { fill: #a5b4fc; font-family: monospace; font-size: 10px; }
      .success { fill: #22c55e; }
      .error { fill: #ef4444; }
      .warning { fill: #eab308; }
    </style>
  </defs>

  <!-- Background -->
  <rect width="1400" height="800" fill="url(#bgGrad)"/>

  <!-- Dot grid pattern -->
  <g opacity="0.05">
    <pattern id="dots" width="30" height="30" patternUnits="userSpaceOnUse">
      <circle cx="15" cy="15" r="1" fill="#fff"/>
    </pattern>
    <rect width="1400" height="800" fill="url(#dots)"/>
  </g>

  <!-- Accent line top -->
  <rect x="0" y="0" width="1400" height="3" fill="url(#accentGrad)"/>

  <!-- Title -->
  <text x="700" y="32" text-anchor="middle" font-family="system-ui, sans-serif" font-size="16" font-weight="600" fill="#64748b" letter-spacing="1">WCAG AAA TESTING PIPELINE</text>

  <!-- ==================== LAYER LABELS ==================== -->
  <text x="40" y="80" class="text-muted">DEVELOPMENT</text>
  <line x1="140" y1="76" x2="1360" y2="76" stroke="#334155" stroke-width="1" stroke-dasharray="4,4"/>

  <text x="40" y="310" class="text-muted">CI/CD PIPELINE</text>
  <line x1="160" y1="306" x2="1360" y2="306" stroke="#334155" stroke-width="1" stroke-dasharray="4,4"/>

  <text x="40" y="560" class="text-muted">REPORTING</text>
  <line x1="130" y1="556" x2="1360" y2="556" stroke="#334155" stroke-width="1" stroke-dasharray="4,4"/>

  <!-- ==================== DEVELOPMENT LAYER ==================== -->

  <!-- Developer Box -->
  <rect x="60" y="110" width="140" height="140" rx="8" fill="#1e293b" stroke="#475569"/>
  <text x="130" y="140" text-anchor="middle" class="heading">Developer</text>
  <rect x="85" y="155" width="90" height="30" rx="4" fill="#334155"/>
  <text x="130" y="175" text-anchor="middle" class="code">npm run dev</text>
  <rect x="85" y="195" width="90" height="30" rx="4" fill="#334155"/>
  <text x="130" y="215" text-anchor="middle" class="code">git commit</text>

  <!-- Real-time Feedback Box -->
  <rect x="260" y="110" width="180" height="140" rx="8" fill="#1e293b" stroke="#8b5cf6" stroke-width="2"/>
  <text x="350" y="140" text-anchor="middle" class="heading" fill="#8b5cf6">Real-time Feedback</text>
  <text x="280" y="165" class="text-sm">Console warnings on save</text>
  <text x="280" y="182" class="text-sm">Storybook a11y panel</text>
  <text x="280" y="199" class="text-sm">File watcher reports</text>
  <rect x="280" y="210" width="140" height="24" rx="4" fill="#fef3c7"/>
  <text x="350" y="227" text-anchor="middle" font-family="monospace" font-size="9" fill="#92400e">⚠ 2 contrast issues</text>

  <!-- IDE / Code Box -->
  <rect x="500" y="110" width="180" height="140" rx="8" fill="#1e293b" stroke="#475569"/>
  <text x="590" y="140" text-anchor="middle" class="heading">Code Editor</text>
  <rect x="515" y="155" width="150" height="80" rx="4" fill="#0f172a"/>
  <text x="525" y="175" class="code">&lt;img src="..."</text>
  <text x="540" y="192" class="code">alt=""</text>
  <line x1="540" y1="196" x2="580" y2="196" stroke="#ef4444" stroke-width="2"/>
  <text x="525" y="209" class="code">/&gt;</text>
  <text x="525" y="226" font-family="monospace" font-size="9" fill="#ef4444">↑ Missing alt text</text>

  <!-- Storybook Box -->
  <rect x="740" y="110" width="180" height="140" rx="8" fill="#1e293b" stroke="#475569"/>
  <text x="830" y="140" text-anchor="middle" class="heading">Storybook</text>
  <rect x="760" y="155" width="70" height="80" rx="4" fill="#334155"/>
  <text x="795" y="200" text-anchor="middle" class="text-muted">Preview</text>
  <rect x="840" y="155" width="60" height="80" rx="4" fill="#334155"/>
  <text x="870" y="175" text-anchor="middle" class="text-sm">A11y</text>
  <circle cx="870" cy="195" r="12" fill="#22c55e"/>
  <text x="870" y="200" text-anchor="middle" fill="#fff" font-size="10" font-weight="bold">✓</text>
  <text x="870" y="225" text-anchor="middle" class="text-muted">0 issues</text>

  <!-- ==================== CI/CD PIPELINE LAYER ==================== -->

  <!-- Git Push -->
  <rect x="60" y="340" width="100" height="60" rx="8" fill="#334155" stroke="#475569"/>
  <text x="110" y="365" text-anchor="middle" class="heading-sm">Git Push</text>
  <text x="110" y="385" text-anchor="middle" class="code">→ main</text>

  <!-- GitHub Actions -->
  <rect x="200" y="340" width="120" height="60" rx="8" fill="#1e293b" stroke="#475569"/>
  <text x="260" y="365" text-anchor="middle" class="heading-sm">GitHub</text>
  <text x="260" y="385" text-anchor="middle" class="text-sm">Actions Trigger</text>

  <!-- Build Stage -->
  <rect x="360" y="330" width="140" height="80" rx="8" fill="#1e293b" stroke="#475569"/>
  <text x="430" y="355" text-anchor="middle" class="heading">Build</text>
  <text x="380" y="375" class="text-sm">• npm install</text>
  <text x="380" y="392" class="text-sm">• next build</text>

  <!-- A11y Test Stage -->
  <rect x="540" y="330" width="180" height="80" rx="8" fill="#1e293b" stroke="#8b5cf6" stroke-width="2"/>
  <text x="630" y="355" text-anchor="middle" class="heading" fill="#8b5cf6">A11y Testing</text>
  <text x="560" y="375" class="text-sm">• Pa11y (WCAG AAA)</text>
  <text x="560" y="392" class="text-sm">• axe-core (all rules)</text>

  <!-- Decision Diamond -->
  <polygon points="800,370 850,340 900,370 850,400" fill="#1e293b" stroke="#475569" stroke-width="2"/>
  <text x="850" y="375" text-anchor="middle" class="heading-sm">Pass?</text>

  <!-- Success Path -->
  <rect x="950" y="330" width="120" height="80" rx="8" fill="#1e293b" stroke="#22c55e" stroke-width="2"/>
  <text x="1010" y="360" text-anchor="middle" class="heading success">Deploy</text>
  <text x="970" y="380" class="text-sm success">✓ Production</text>
  <text x="970" y="397" class="text-sm success">✓ Store results</text>

  <!-- Fail Path Box -->
  <rect x="780" y="440" width="140" height="70" rx="8" fill="#1e293b" stroke="#ef4444" stroke-width="2"/>
  <text x="850" y="465" text-anchor="middle" class="heading error">Block Merge</text>
  <text x="800" y="485" class="text-sm error">✗ PR blocked</text>
  <text x="800" y="502" class="text-sm error">✗ Notify dev</text>

  <!-- ==================== REPORTING LAYER ==================== -->

  <!-- Violation Report -->
  <rect x="60" y="590" width="280" height="160" rx="8" fill="#1e293b" stroke="#475569"/>
  <text x="200" y="620" text-anchor="middle" class="heading">Violation Report</text>
  <rect x="80" y="635" width="240" height="100" rx="4" fill="#0f172a"/>
  <text x="95" y="655" class="code">Page: /settings</text>
  <text x="95" y="672" class="code">Rule: color-contrast-enhanced</text>
  <text x="95" y="689" class="code">Element: .settings-label</text>
  <text x="95" y="706" class="code">Impact: serious</text>
  <text x="95" y="723" class="code">Fix: Use #4b5563</text>

  <!-- Historical Storage -->
  <rect x="380" y="590" width="180" height="160" rx="8" fill="#1e293b" stroke="#475569"/>
  <text x="470" y="620" text-anchor="middle" class="heading">Data Storage</text>
  <rect x="400" y="640" width="140" height="30" rx="4" fill="#334155"/>
  <text x="470" y="660" text-anchor="middle" class="text-sm">Supabase DB</text>
  <rect x="400" y="680" width="140" height="30" rx="4" fill="#334155"/>
  <text x="470" y="700" text-anchor="middle" class="text-sm">90-day retention</text>
  <rect x="400" y="720" width="140" height="20" rx="4" fill="#334155"/>
  <text x="470" y="735" text-anchor="middle" class="text-muted">FR-032, FR-034</text>

  <!-- Dashboard Feed -->
  <rect x="600" y="590" width="180" height="160" rx="8" fill="#1e293b" stroke="#8b5cf6"/>
  <text x="690" y="620" text-anchor="middle" class="heading" fill="#8b5cf6">Dashboard</text>
  <rect x="620" y="640" width="60" height="50" rx="4" fill="#334155"/>
  <text x="650" y="660" text-anchor="middle" class="text-muted">Score</text>
  <text x="650" y="680" text-anchor="middle" class="success" font-size="16" font-weight="bold">94</text>
  <rect x="690" y="640" width="70" height="50" rx="4" fill="#334155"/>
  <text x="725" y="660" text-anchor="middle" class="text-muted">Trend</text>
  <polyline points="700,680 715,675 730,678 745,670" fill="none" stroke="#22c55e" stroke-width="2"/>
  <rect x="620" y="700" width="140" height="40" rx="4" fill="#334155"/>
  <text x="690" y="720" text-anchor="middle" class="text-sm">Per-page breakdown</text>
  <text x="690" y="735" text-anchor="middle" class="text-muted">FR-033</text>

  <!-- WCAG Criteria Reference -->
  <rect x="820" y="590" width="220" height="160" rx="8" fill="#1e293b" stroke="#475569"/>
  <text x="930" y="620" text-anchor="middle" class="heading">WCAG AAA Criteria</text>
  <g transform="translate(840, 635)">
    <rect x="0" y="0" width="180" height="22" rx="3" fill="#334155"/>
    <text x="10" y="15" class="text-sm">1.4.6 Contrast 7:1</text>
    <circle cx="165" cy="11" r="6" fill="#22c55e"/>

    <rect x="0" y="28" width="180" height="22" rx="3" fill="#334155"/>
    <text x="10" y="43" class="text-sm">2.1.1 Keyboard</text>
    <circle cx="165" cy="39" r="6" fill="#22c55e"/>

    <rect x="0" y="56" width="180" height="22" rx="3" fill="#334155"/>
    <text x="10" y="71" class="text-sm">2.5.5 Target Size 44px</text>
    <circle cx="165" cy="67" r="6" fill="#eab308"/>

    <rect x="0" y="84" width="180" height="22" rx="3" fill="#334155"/>
    <text x="10" y="99" class="text-sm">3.1.5 Reading Level</text>
    <circle cx="165" cy="95" r="6" fill="#22c55e"/>
  </g>

  <!-- GitHub PR Comment -->
  <rect x="1080" y="590" width="260" height="160" rx="8" fill="#1e293b" stroke="#475569"/>
  <text x="1210" y="620" text-anchor="middle" class="heading">PR Comment</text>
  <rect x="1100" y="635" width="220" height="100" rx="4" fill="#0f172a"/>
  <text x="1115" y="655" class="code" fill="#64748b">## A11y Report</text>
  <text x="1115" y="672" class="code success">✓ 23 pages passed</text>
  <text x="1115" y="689" class="code warning">⚠ 1 page with warnings</text>
  <text x="1115" y="706" class="code">Score: 94/100</text>
  <text x="1115" y="723" class="code" fill="#8b5cf6">[View Details →]</text>

  <!-- ==================== FLOW ARROWS ==================== -->

  <!-- Dev to Realtime -->
  <line x1="200" y1="180" x2="255" y2="180" stroke="#8b5cf6" stroke-width="2" marker-end="url(#arrowhead)"/>

  <!-- Realtime to IDE -->
  <line x1="440" y1="180" x2="495" y2="180" stroke="#8b5cf6" stroke-width="2" marker-end="url(#arrowhead)"/>

  <!-- IDE to Storybook -->
  <line x1="680" y1="180" x2="735" y2="180" stroke="#8b5cf6" stroke-width="2" marker-end="url(#arrowhead)"/>

  <!-- Dev to Git Push -->
  <line x1="130" y1="250" x2="130" y2="335" stroke="#94a3b8" stroke-width="2" marker-end="url(#arrowhead)"/>

  <!-- Git Push to GitHub -->
  <line x1="160" y1="370" x2="195" y2="370" stroke="#94a3b8" stroke-width="2" marker-end="url(#arrowhead)"/>

  <!-- GitHub to Build -->
  <line x1="320" y1="370" x2="355" y2="370" stroke="#94a3b8" stroke-width="2" marker-end="url(#arrowhead)"/>

  <!-- Build to A11y -->
  <line x1="500" y1="370" x2="535" y2="370" stroke="#94a3b8" stroke-width="2" marker-end="url(#arrowhead)"/>

  <!-- A11y to Decision -->
  <line x1="720" y1="370" x2="795" y2="370" stroke="#8b5cf6" stroke-width="2" marker-end="url(#arrowhead)"/>

  <!-- Decision to Deploy (success) -->
  <line x1="900" y1="370" x2="945" y2="370" stroke="#22c55e" stroke-width="2" marker-end="url(#arrowhead-success)"/>
  <text x="920" y="355" class="text-sm success">YES</text>

  <!-- Decision to Block (fail) -->
  <line x1="850" y1="400" x2="850" y2="435" stroke="#ef4444" stroke-width="2" marker-end="url(#arrowhead-error)"/>
  <text x="865" y="420" class="text-sm error">NO</text>

  <!-- Block to Report -->
  <path d="M780,475 L200,475 L200,585" fill="none" stroke="#ef4444" stroke-width="2" marker-end="url(#arrowhead-error)"/>

  <!-- Deploy to Storage -->
  <line x1="1010" y1="410" x2="470" y2="585" stroke="#22c55e" stroke-width="1.5" stroke-dasharray="4,2" marker-end="url(#arrowhead-success)"/>

  <!-- Storage to Dashboard -->
  <line x1="560" y1="670" x2="595" y2="670" stroke="#8b5cf6" stroke-width="2" marker-end="url(#arrowhead)"/>

  <!-- A11y Test to PR Comment -->
  <path d="M630,410 L630,520 L1210,520 L1210,585" fill="none" stroke="#8b5cf6" stroke-width="1.5" stroke-dasharray="4,2" marker-end="url(#arrowhead)"/>

  <!-- ==================== LEGEND ==================== -->
  <rect x="1100" y="330" width="240" height="110" rx="8" fill="#1e293b" stroke="#475569"/>
  <text x="1220" y="355" text-anchor="middle" class="heading-sm">Legend</text>
  <line x1="1120" y1="375" x2="1160" y2="375" stroke="#22c55e" stroke-width="2"/>
  <text x="1170" y="380" class="text-sm">Success path</text>
  <line x1="1120" y1="395" x2="1160" y2="395" stroke="#ef4444" stroke-width="2"/>
  <text x="1170" y="400" class="text-sm">Failure path</text>
  <line x1="1120" y1="415" x2="1160" y2="415" stroke="#8b5cf6" stroke-width="2"/>
  <text x="1170" y="420" class="text-sm">Data/feedback flow</text>
  <rect x="1120" y="425" width="16" height="10" rx="2" fill="none" stroke="#8b5cf6" stroke-width="2"/>
  <text x="1145" y="433" class="text-sm">Key component</text>

  <!-- FR References -->
  <text x="60" y="775" class="annotation">FR-001, FR-002: CI enforcement</text>
  <text x="300" y="775" class="annotation">FR-028-031: Dev tooling</text>
  <text x="540" y="775" class="annotation">FR-003, FR-004: AAA testing + reports</text>
  <text x="820" y="775" class="annotation">FR-032-035: Dashboard + storage</text>
</svg>