<svg xmlns="http://www.w3.org/2000/svg" viewBox="0 0 1400 800" width="1400" height="800">
  <!-- ============================================================
       GENERATED BY: /wireframe skill
       SOURCE: features/foundation/001-wcag-aa-compliance/spec.md
       DATE: 2025-12-31
       THEME: Light (UX/Frontend) - v3 True Parchment
       DO NOT MANUALLY EDIT - Regenerate with /wireframe command
       ============================================================ -->
  <defs>
    <linearGradient id="bgGrad" x1="0%" y1="0%" x2="100%" y2="100%">
      <stop offset="0%" style="stop-color:#c7ddf5"/>
      <stop offset="100%" style="stop-color:#b8d4f0"/>
    </linearGradient>
    <linearGradient id="accentGrad" x1="0%" y1="0%" x2="100%" y2="0%">
      <stop offset="0%" style="stop-color:#8b5cf6"/>
      <stop offset="100%" style="stop-color:#d946ef"/>
    </linearGradient>
    <style>
      .heading-lg { fill: #1a1a2e; font-family: system-ui, sans-serif; font-size: 24px; font-weight: 800; }
      .heading { fill: #1a1a2e; font-family: system-ui, sans-serif; font-size: 16px; font-weight: 700; }
      .heading-sm { fill: #1a1a2e; font-family: system-ui, sans-serif; font-size: 14px; font-weight: 700; }
      .text-md { fill: #2d3748; font-family: system-ui, sans-serif; font-size: 14px; font-weight: 500; }
      .text-sm { fill: #374151; font-family: system-ui, sans-serif; font-size: 12px; font-weight: 500; }
      .text-muted { fill: #4b5563; font-family: system-ui, sans-serif; font-size: 11px; font-weight: 500; }
      .annotation { fill: #6d28d9; font-family: monospace; font-size: 12px; font-weight: 600; }
      .label-desktop { fill: #8b5cf6; font-family: monospace; font-size: 13px; font-weight: bold; }
      .label-mobile { fill: #d946ef; font-family: monospace; font-size: 13px; font-weight: bold; }
      .code { fill: #e2e8f0; font-family: 'Monaco', 'Consolas', monospace; font-size: 11px; }
      .code-keyword { fill: #c084fc; font-family: 'Monaco', 'Consolas', monospace; font-size: 11px; }
      .code-string { fill: #86efac; font-family: 'Monaco', 'Consolas', monospace; font-size: 11px; }
      .code-comment { fill: #64748b; font-family: 'Monaco', 'Consolas', monospace; font-size: 11px; }
    </style>
  </defs>

  <!-- Background -->
  <rect width="1400" height="800" fill="url(#bgGrad)"/>

  <!-- Dot grid pattern -->
  <g opacity="0.35">
    <pattern id="dots" width="30" height="30" patternUnits="userSpaceOnUse">
      <circle cx="15" cy="15" r="1" fill="#6b8cba"/>
    </pattern>
    <rect width="1400" height="800" fill="url(#dots)"/>
  </g>

  <!-- Accent line top -->
  <rect x="0" y="0" width="1400" height="3" fill="url(#accentGrad)"/>

  <!-- Title -->
  <text x="700" y="28" text-anchor="middle" font-family="system-ui, sans-serif" font-size="14" font-weight="600" fill="#4b5563" letter-spacing="1">DEVELOPER ACCESSIBILITY FEEDBACK TOOLING</text>

  <!-- DESKTOP SECTION -->
  <text x="40" y="52" class="label-desktop">DESKTOP - IDE + BROWSER DEV TOOLS</text>

  <g id="desktop-view">
    <!-- IDE Panel (left side) -->
    <rect x="40" y="60" width="450" height="680" rx="8" fill="#1e293b" stroke="#475569" stroke-width="2"/>

    <!-- IDE Title Bar -->
    <rect x="40" y="60" width="450" height="32" rx="8" fill="#0f172a"/>
    <circle cx="60" cy="76" r="6" fill="#ef4444"/>
    <circle cx="80" cy="76" r="6" fill="#eab308"/>
    <circle cx="100" cy="76" r="6" fill="#22c55e"/>
    <text x="240" y="80" text-anchor="middle" fill="#94a3b8" font-family="system-ui" font-size="12">Button.tsx - VS Code</text>

    <!-- File tabs -->
    <rect x="40" y="92" width="450" height="28" fill="#1e293b"/>
    <rect x="50" y="96" width="100" height="20" rx="4" fill="#334155"/>
    <text x="100" y="110" text-anchor="middle" fill="#fff" font-size="10">Button.tsx</text>
    <text x="180" y="110" fill="#64748b" font-size="10">index.tsx</text>
    <text x="260" y="110" fill="#64748b" font-size="10">styles.css</text>

    <!-- Code Editor Area -->
    <rect x="50" y="125" width="430" height="320" rx="4" fill="#0f172a"/>

    <!-- Line numbers -->
    <text x="60" y="145" class="code-comment">38</text>
    <text x="60" y="165" class="code-comment">39</text>
    <text x="60" y="185" class="code-comment">40</text>
    <text x="60" y="205" class="code-comment">41</text>
    <text x="60" y="225" class="code-comment">42</text>
    <text x="60" y="245" class="code-comment">43</text>
    <text x="60" y="265" class="code-comment">44</text>
    <text x="60" y="285" class="code-comment">45</text>
    <text x="60" y="305" class="code-comment">46</text>
    <text x="60" y="325" class="code-comment">47</text>
    <text x="60" y="345" class="code-comment">48</text>
    <text x="60" y="365" class="code-comment">49</text>
    <text x="60" y="385" class="code-comment">50</text>
    <text x="60" y="405" class="code-comment">51</text>
    <text x="60" y="425" class="code-comment">52</text>

    <!-- Code content -->
    <text x="90" y="145" class="code-keyword">export</text><text x="130" y="145" class="code"> </text><text x="137" y="145" class="code-keyword">function</text><text x="190" y="145" class="code"> Button({</text>
    <text x="90" y="165" class="code">  variant = </text><text x="180" y="165" class="code-string">'primary'</text><text x="240" y="165" class="code">,</text>
    <text x="90" y="185" class="code">  children,</text>
    <text x="90" y="205" class="code">  ...props</text>
    <text x="90" y="225" class="code">}) {</text>

    <!-- Highlighted error line -->
    <rect x="85" y="231" width="390" height="18" fill="rgba(239, 68, 68, 0.2)"/>
    <text x="90" y="245" class="code">  </text><text x="102" y="245" class="code-keyword">const</text><text x="137" y="245" class="code"> className = </text><text x="230" y="245" class="code-string">'btn-secondary'</text><text x="330" y="245" class="code">;</text>
    <!-- Squiggly underline -->
    <path d="M230,250 q3,-3 6,0 t6,0 t6,0 t6,0 t6,0 t6,0 t6,0 t6,0 t6,0 t6,0 t6,0 t6,0 t6,0" stroke="#eab308" stroke-width="1.5" fill="none"/>

    <text x="90" y="265" class="code">  </text>
    <text x="90" y="285" class="code">  </text><text x="102" y="285" class="code-keyword">return</text><text x="145" y="285" class="code"> (</text>
    <text x="90" y="305" class="code">    &lt;</text><text x="102" y="305" class="code-keyword">button</text>
    <text x="90" y="325" class="code">      className={className}</text>
    <text x="90" y="345" class="code">      {...props}</text>
    <text x="90" y="365" class="code">    &gt;</text>
    <text x="90" y="385" class="code">      {children}</text>
    <text x="90" y="405" class="code">    &lt;/</text><text x="110" y="405" class="code-keyword">button</text><text x="155" y="405" class="code">&gt;</text>
    <text x="90" y="425" class="code">  );</text>

    <!-- Warning hover tooltip -->
    <rect x="200" y="252" width="270" height="80" rx="6" fill="#1e293b" stroke="#eab308" stroke-width="2"/>
    <polygon points="250,252 260,242 270,252" fill="#1e293b" stroke="#eab308" stroke-width="2"/>
    <rect x="252" y="251" width="16" height="3" fill="#1e293b"/>
    <text x="215" y="272" fill="#eab308" font-size="11" font-weight="600">⚠ A11y Warning</text>
    <text x="215" y="292" fill="#cbd5e1" font-size="10">Contrast ratio 6.2:1 does not meet</text>
    <text x="215" y="308" fill="#cbd5e1" font-size="10">WCAG AAA requirement (7:1).</text>
    <text x="215" y="326" fill="#8b5cf6" font-size="10">Quick fix: Use 'btn-secondary-aaa'</text>

    <!-- Terminal Panel -->
    <rect x="50" y="455" width="430" height="140" rx="4" fill="#0f172a"/>
    <rect x="50" y="455" width="430" height="24" fill="#1e293b"/>
    <text x="65" y="471" fill="#94a3b8" font-size="10">PROBLEMS</text>
    <text x="140" y="471" fill="#64748b" font-size="10">OUTPUT</text>
    <text x="200" y="471" fill="#64748b" font-size="10">TERMINAL</text>
    <rect x="260" y="459" width="80" height="16" rx="3" fill="#334155"/>
    <text x="300" y="471" text-anchor="middle" fill="#8b5cf6" font-size="10">A11Y WATCH</text>

    <!-- A11y watcher output -->
    <text x="60" y="498" fill="#eab308" font-size="10">⚠ [a11y-watch] 1 warning found</text>
    <text x="60" y="516" fill="#94a3b8" font-size="10">  Button.tsx:42 - Contrast ratio insufficient</text>
    <text x="60" y="534" fill="#94a3b8" font-size="10">  Current: 6.2:1 | Required: 7:1 (AAA)</text>
    <text x="60" y="552" fill="#8b5cf6" font-size="10">  Suggestion: color: #374151</text>
    <text x="60" y="578" fill="#22c55e" font-size="10">✓ [a11y-watch] Watching for changes...</text>

    <!-- Status bar -->
    <rect x="40" y="608" width="450" height="24" rx="0" fill="#334155"/>
    <text x="55" y="623" fill="#22c55e" font-size="10">✓ 0 errors</text>
    <text x="130" y="623" fill="#eab308" font-size="10">⚠ 1 warning</text>
    <text x="220" y="623" fill="#8b5cf6" font-size="10">A11y: Active</text>
    <text x="420" y="623" fill="#64748b" font-size="10">Ln 42, Col 12</text>

    <!-- Feedback latency annotation -->
    <rect x="50" y="640" width="180" height="40" rx="6" fill="#e8d4b8" stroke="#8b5cf6" stroke-width="1"/>
    <text x="140" y="658" text-anchor="middle" class="annotation">Response: &lt;2s</text>
    <text x="140" y="673" text-anchor="middle" class="text-muted">Real-time feedback</text>

    <!-- ========== BROWSER SECTION (right side) ========== -->

    <!-- Storybook Panel -->
    <rect x="500" y="60" width="440" height="370" rx="8" fill="#e8d4b8" stroke="#b8a080" stroke-width="2"/>

    <!-- Storybook Header -->
    <rect x="500" y="60" width="440" height="36" rx="8" fill="#ff4785"/>
    <text x="720" y="84" text-anchor="middle" fill="#fff" font-family="system-ui" font-size="14" font-weight="700">Storybook</text>

    <!-- Sidebar -->
    <rect x="510" y="106" width="140" height="314" rx="4" fill="#dcc8a8"/>
    <text x="525" y="128" class="text-muted">COMPONENTS</text>
    <text x="535" y="150" class="text-sm">▼ Button</text>
    <rect x="530" y="158" width="110" height="22" rx="3" fill="#8b5cf6"/>
    <text x="545" y="174" fill="#fff" font-size="10">Primary</text>
    <text x="545" y="196" class="text-sm">Secondary</text>
    <text x="545" y="216" class="text-sm">Outline</text>
    <text x="535" y="248" class="text-sm">▶ Card</text>
    <text x="535" y="270" class="text-sm">▶ Input</text>
    <text x="535" y="292" class="text-sm">▶ Modal</text>

    <!-- Preview Area -->
    <rect x="660" y="106" width="270" height="160" rx="4" fill="#f5f0e6"/>
    <text x="795" y="130" text-anchor="middle" class="text-muted">Component Preview</text>
    <rect x="745" y="160" width="100" height="40" rx="6" fill="#8b5cf6"/>
    <text x="795" y="185" text-anchor="middle" fill="#fff" font-size="12" font-weight="600">Primary</text>

    <!-- Addon Panel Tabs -->
    <rect x="660" y="276" width="270" height="28" fill="#dcc8a8" rx="4"/>
    <text x="685" y="294" class="text-sm">Controls</text>
    <text x="745" y="294" class="text-sm">Actions</text>
    <rect x="800" y="280" width="90" height="20" rx="3" fill="#8b5cf6"/>
    <text x="845" y="294" text-anchor="middle" fill="#fff" font-size="10" font-weight="600">Accessibility</text>

    <!-- Accessibility Addon Panel -->
    <rect x="660" y="310" width="270" height="110" rx="4" fill="#f5f0e6"/>

    <rect x="670" y="320" width="250" height="28" rx="4" fill="#22c55e"/>
    <text x="680" y="338" fill="#fff" font-size="11" font-weight="600">✓ 4 Passing Rules</text>

    <rect x="670" y="355" width="250" height="28" rx="4" fill="#eab308"/>
    <text x="680" y="373" fill="#fff" font-size="11" font-weight="600">⚠ 1 Incomplete (contrast)</text>

    <rect x="670" y="390" width="250" height="22" rx="4" fill="#dcc8a8"/>
    <text x="680" y="405" class="text-sm">Run: 0.12s | axe-core 4.8</text>

    <!-- Console Panel -->
    <rect x="500" y="440" width="440" height="200" rx="8" fill="#1e293b" stroke="#475569" stroke-width="2"/>

    <rect x="500" y="440" width="440" height="28" fill="#0f172a" rx="8"/>
    <text x="520" y="458" fill="#94a3b8" font-size="11">Console</text>
    <text x="590" y="458" fill="#64748b" font-size="11">Network</text>
    <rect x="650" y="444" width="80" height="18" rx="3" fill="#334155"/>
    <text x="690" y="458" text-anchor="middle" fill="#8b5cf6" font-size="11">Accessibility</text>

    <!-- Console output -->
    <text x="515" y="485" fill="#eab308" font-size="10">⚠ [axe-core] Moderate: Elements must meet minimum color contrast</text>
    <text x="530" y="503" fill="#94a3b8" font-size="10">Element: button.btn-secondary</text>
    <text x="530" y="521" fill="#94a3b8" font-size="10">Contrast ratio: 6.2:1</text>
    <text x="530" y="539" fill="#94a3b8" font-size="10">Expected: 7:1 (AAA level)</text>
    <text x="530" y="557" fill="#8b5cf6" font-size="10">Fix: Change color from #6b7280 to #374151</text>
    <text x="530" y="575" fill="#64748b" font-size="10">Learn more: https://dequeuniversity.com/rules/...</text>

    <text x="515" y="605" fill="#22c55e" font-size="10">✓ [axe-core] 4 rules passed</text>
    <text x="515" y="623" fill="#3b82f6" font-size="10">ℹ [axe-core] 3 rules need review (color-contrast-enhanced)</text>

    <!-- File Watcher Terminal -->
    <rect x="500" y="650" width="440" height="90" rx="8" fill="#e8d4b8" stroke="#b8a080" stroke-width="2"/>
    <text x="520" y="675" class="heading-sm">File Watcher Status</text>

    <rect x="515" y="690" width="410" height="40" rx="4" fill="#0f172a"/>
    <text x="525" y="708" fill="#22c55e" font-size="10">$ npm run a11y:watch</text>
    <text x="525" y="724" fill="#94a3b8" font-size="10">Watching src/**/*.tsx for accessibility changes...</text>
  </g>

  <!-- MOBILE SECTION -->
  <text x="980" y="52" class="label-mobile">MOBILE - ISSUE LIST</text>

  <g id="mobile-view" transform="translate(980, 60)">
    <!-- Phone frame -->
    <rect x="0" y="0" width="360" height="700" rx="24" fill="#c8b898" stroke="#a08860" stroke-width="2"/>
    <rect x="10" y="10" width="340" height="680" rx="16" fill="#e8d4b8"/>

    <!-- Status bar -->
    <rect x="10" y="10" width="340" height="28" rx="16" fill="#dcc8a8"/>
    <text x="30" y="28" class="text-sm">9:41</text>
    <text x="310" y="28" text-anchor="end" class="text-sm">100%</text>

    <!-- Header -->
    <rect x="10" y="38" width="340" height="50" fill="#8b5cf6"/>
    <text x="25" y="55" fill="rgba(255,255,255,0.8)" font-size="10">←</text>
    <text x="60" y="68" fill="#fff" font-family="system-ui" font-size="16" font-weight="700">Dev A11y Issues</text>

    <!-- Summary Card -->
    <rect x="25" y="100" width="310" height="80" rx="8" fill="#f5f0e6"/>
    <text x="40" y="125" class="heading-sm">Current Session</text>
    <rect x="40" y="135" width="50" height="32" rx="4" fill="#22c55e"/>
    <text x="65" y="157" text-anchor="middle" fill="#fff" font-size="14" font-weight="700">0</text>
    <text x="100" y="157" class="text-muted">Errors</text>

    <rect x="160" y="135" width="50" height="32" rx="4" fill="#eab308"/>
    <text x="185" y="157" text-anchor="middle" fill="#fff" font-size="14" font-weight="700">2</text>
    <text x="220" y="157" class="text-muted">Warnings</text>

    <rect x="280" y="135" width="50" height="32" rx="4" fill="#3b82f6"/>
    <text x="305" y="157" text-anchor="middle" fill="#fff" font-size="14" font-weight="700">3</text>
    <text x="260" y="172" class="text-muted">Notices</text>

    <!-- Issue List -->
    <text x="25" y="210" class="heading-sm">Active Issues</text>

    <!-- Issue 1 -->
    <rect x="25" y="225" width="310" height="90" rx="8" fill="#f5f0e6" stroke="#eab308" stroke-width="1"/>
    <rect x="25" y="225" width="6" height="90" rx="3" fill="#eab308"/>
    <text x="45" y="248" class="text-sm" font-weight="600">Low Contrast: btn-secondary</text>
    <text x="45" y="268" fill="#8b5cf6" font-family="monospace" font-size="10">Button.tsx:42</text>
    <text x="45" y="288" class="text-muted">Ratio: 6.2:1 → Need: 7:1</text>
    <rect x="45" y="298" width="80" height="14" rx="3" fill="#8b5cf6"/>
    <text x="85" y="309" text-anchor="middle" fill="#fff" font-size="9">Quick Fix</text>

    <!-- Issue 2 -->
    <rect x="25" y="325" width="310" height="90" rx="8" fill="#f5f0e6" stroke="#eab308" stroke-width="1"/>
    <rect x="25" y="325" width="6" height="90" rx="3" fill="#eab308"/>
    <text x="45" y="348" class="text-sm" font-weight="600">Focus Indicator: icon-btn</text>
    <text x="45" y="368" fill="#8b5cf6" font-family="monospace" font-size="10">IconButton.tsx:28</text>
    <text x="45" y="388" class="text-muted">Focus ring less than 2px</text>
    <rect x="45" y="398" width="80" height="14" rx="3" fill="#8b5cf6"/>
    <text x="85" y="409" text-anchor="middle" fill="#fff" font-size="9">Quick Fix</text>

    <!-- Issue 3 -->
    <rect x="25" y="425" width="310" height="70" rx="8" fill="#f5f0e6" stroke="#3b82f6" stroke-width="1"/>
    <rect x="25" y="425" width="6" height="70" rx="3" fill="#3b82f6"/>
    <text x="45" y="448" class="text-sm" font-weight="600">Missing aria-label</text>
    <text x="45" y="468" fill="#8b5cf6" font-family="monospace" font-size="10">SearchInput.tsx:15</text>
    <text x="45" y="488" class="text-muted">Notice: Consider adding label</text>

    <!-- Remediation Section -->
    <text x="25" y="525" class="heading-sm">Selected: Low Contrast</text>

    <rect x="25" y="540" width="310" height="120" rx="8" fill="#f5f0e6"/>
    <text x="40" y="565" class="text-muted">SUGGESTED FIX</text>
    <rect x="40" y="575" width="280" height="40" rx="4" fill="#0f172a"/>
    <text x="55" y="593" fill="#c084fc" font-family="monospace" font-size="10">color:</text>
    <text x="100" y="593" fill="#86efac" font-family="monospace" font-size="10">#374151</text>
    <text x="160" y="593" fill="#64748b" font-family="monospace" font-size="10">/* 7.2:1 */</text>

    <rect x="40" y="625" width="130" height="28" rx="6" fill="#8b5cf6"/>
    <text x="105" y="644" text-anchor="middle" fill="#fff" font-size="11" font-weight="600">Copy to Clipboard</text>

    <!-- Bottom Nav -->
    <rect x="10" y="610" width="340" height="80" rx="16" fill="#dcc8a8"/>
    <g transform="translate(65, 630)">
      <circle cx="0" cy="15" r="12" fill="#8b5cf6"/>
      <text x="0" y="45" text-anchor="middle" class="text-muted">Issues</text>
    </g>
    <g transform="translate(180, 630)">
      <circle cx="0" cy="15" r="12" fill="#dcc8a8" stroke="#b8a080"/>
      <text x="0" y="45" text-anchor="middle" class="text-muted">History</text>
    </g>
    <g transform="translate(295, 630)">
      <circle cx="0" cy="15" r="12" fill="#dcc8a8" stroke="#b8a080"/>
      <text x="0" y="45" text-anchor="middle" class="text-muted">Settings</text>
    </g>
  </g>

  <!-- Footer -->
  <text x="700" y="780" text-anchor="middle" class="text-muted">Developer Feedback Tooling • Feature 001 • ScriptHammer</text>
</svg>
