<svg xmlns="http://www.w3.org/2000/svg" viewBox="0 0 1400 800" width="1400" height="800">
  <!-- ============================================================
       GENERATED BY: /wireframe skill
       SOURCE: features/foundation/001-wcag-aa-compliance/spec.md
       DATE: 2026-01-01
       THEME: Light (UX/Frontend) - v4 AAA Compliant
       REGENERATED: Fixed layout cramping, touch targets (44×44px)
       ============================================================ -->
  <defs>
    <linearGradient id="bgGrad" x1="0%" y1="0%" x2="100%" y2="100%">
      <stop offset="0%" style="stop-color:#c7ddf5"/>
      <stop offset="100%" style="stop-color:#b8d4f0"/>
    </linearGradient>
    <linearGradient id="accentGrad" x1="0%" y1="0%" x2="100%" y2="0%">
      <stop offset="0%" style="stop-color:#8b5cf6"/>
      <stop offset="100%" style="stop-color:#d946ef"/>
    </linearGradient>
    <style>
      /* AAA Compliant: All text achieves 7:1+ contrast on backgrounds */
      .heading-lg { fill: #111827; font-family: system-ui, sans-serif; font-size: 24px; font-weight: 800; }
      .heading { fill: #111827; font-family: system-ui, sans-serif; font-size: 16px; font-weight: 700; }
      .heading-sm { fill: #111827; font-family: system-ui, sans-serif; font-size: 14px; font-weight: 700; }
      .text-md { fill: #1f2937; font-family: system-ui, sans-serif; font-size: 14px; font-weight: 500; }
      .text-sm { fill: #1f2937; font-family: system-ui, sans-serif; font-size: 12px; font-weight: 500; }
      .text-muted { fill: #374151; font-family: system-ui, sans-serif; font-size: 11px; font-weight: 500; }
      .annotation { fill: #5b21b6; font-family: monospace; font-size: 12px; font-weight: 600; }
      .label-desktop { fill: #6d28d9; font-family: monospace; font-size: 13px; font-weight: bold; }
      .label-mobile { fill: #a21caf; font-family: monospace; font-size: 13px; font-weight: bold; }
      .code { fill: #e2e8f0; font-family: 'Monaco', 'Consolas', monospace; font-size: 11px; }
      .code-keyword { fill: #c084fc; font-family: 'Monaco', 'Consolas', monospace; font-size: 11px; }
      .code-string { fill: #86efac; font-family: 'Monaco', 'Consolas', monospace; font-size: 11px; }
      .code-comment { fill: #64748b; font-family: 'Monaco', 'Consolas', monospace; font-size: 11px; }
    </style>
  </defs>

  <!-- Background -->
  <rect width="1400" height="800" fill="url(#bgGrad)"/>

  <!-- Dot grid pattern -->
  <g opacity="0.35">
    <pattern id="dots" width="30" height="30" patternUnits="userSpaceOnUse">
      <circle cx="15" cy="15" r="1" fill="#6b8cba"/>
    </pattern>
    <rect width="1400" height="800" fill="url(#dots)"/>
  </g>

  <!-- Accent line top -->
  <rect x="0" y="0" width="1400" height="3" fill="url(#accentGrad)"/>

  <!-- Title -->
  <text x="700" y="28" text-anchor="middle" font-family="system-ui, sans-serif" font-size="14" font-weight="600" fill="#374151" letter-spacing="1">DEVELOPER ACCESSIBILITY FEEDBACK TOOLING</text>

  <!-- DESKTOP SECTION -->
  <text x="40" y="52" class="label-desktop">DESKTOP - IDE + BROWSER DEV TOOLS</text>

  <g id="desktop-view">
    <!-- IDE Panel (left side) - REDUCED to 400px -->
    <rect x="40" y="60" width="400" height="680" rx="8" fill="#1e293b" stroke="#475569" stroke-width="2"/>

    <!-- IDE Title Bar -->
    <rect x="40" y="60" width="400" height="32" rx="8" fill="#0f172a"/>
    <circle cx="60" cy="76" r="6" fill="#ef4444"/>
    <circle cx="80" cy="76" r="6" fill="#eab308"/>
    <circle cx="100" cy="76" r="6" fill="#22c55e"/>
    <text x="240" y="80" text-anchor="middle" fill="#94a3b8" font-family="system-ui" font-size="12">Button.tsx - VS Code</text>

    <!-- File tabs -->
    <rect x="40" y="92" width="400" height="28" fill="#1e293b"/>
    <rect x="50" y="96" width="100" height="20" rx="4" fill="#334155"/>
    <text x="100" y="110" text-anchor="middle" fill="#fff" font-size="10">Button.tsx</text>
    <text x="170" y="110" fill="#64748b" font-size="10">index.tsx</text>
    <text x="240" y="110" fill="#64748b" font-size="10">styles.css</text>

    <!-- Code Editor Area -->
    <rect x="50" y="125" width="380" height="290" rx="4" fill="#0f172a"/>

    <!-- Line numbers -->
    <text x="60" y="145" class="code-comment">38</text>
    <text x="60" y="163" class="code-comment">39</text>
    <text x="60" y="181" class="code-comment">40</text>
    <text x="60" y="199" class="code-comment">41</text>
    <text x="60" y="217" class="code-comment">42</text>
    <text x="60" y="235" class="code-comment">43</text>
    <text x="60" y="253" class="code-comment">44</text>
    <text x="60" y="271" class="code-comment">45</text>
    <text x="60" y="289" class="code-comment">46</text>
    <text x="60" y="307" class="code-comment">47</text>
    <text x="60" y="325" class="code-comment">48</text>
    <text x="60" y="343" class="code-comment">49</text>
    <text x="60" y="361" class="code-comment">50</text>
    <text x="60" y="379" class="code-comment">51</text>
    <text x="60" y="397" class="code-comment">52</text>

    <!-- Code content -->
    <text x="90" y="145" class="code-keyword">export</text><text x="130" y="145" class="code"> </text><text x="137" y="145" class="code-keyword">function</text><text x="190" y="145" class="code"> Button({</text>
    <text x="90" y="163" class="code">  variant = </text><text x="175" y="163" class="code-string">'primary'</text><text x="230" y="163" class="code">,</text>
    <text x="90" y="181" class="code">  children,</text>
    <text x="90" y="199" class="code">  ...props</text>
    <text x="90" y="217" class="code">}) {</text>

    <!-- Highlighted error line -->
    <rect x="85" y="222" width="340" height="18" fill="rgba(239, 68, 68, 0.2)"/>
    <text x="90" y="235" class="code">  </text><text x="102" y="235" class="code-keyword">const</text><text x="137" y="235" class="code"> className = </text><text x="220" y="235" class="code-string">'btn-secondary'</text><text x="315" y="235" class="code">;</text>
    <!-- Squiggly underline -->
    <path d="M220,240 q3,-3 6,0 t6,0 t6,0 t6,0 t6,0 t6,0 t6,0 t6,0 t6,0 t6,0 t6,0 t6,0" stroke="#eab308" stroke-width="1.5" fill="none"/>

    <text x="90" y="253" class="code">  </text>
    <text x="90" y="271" class="code">  </text><text x="102" y="271" class="code-keyword">return</text><text x="145" y="271" class="code"> (</text>
    <text x="90" y="289" class="code">    &lt;</text><text x="102" y="289" class="code-keyword">button</text>
    <text x="90" y="307" class="code">      className={className}</text>
    <text x="90" y="325" class="code">      {...props}</text>
    <text x="90" y="343" class="code">    &gt;</text>
    <text x="90" y="361" class="code">      {children}</text>
    <text x="90" y="379" class="code">    &lt;/</text><text x="110" y="379" class="code-keyword">button</text><text x="155" y="379" class="code">&gt;</text>
    <text x="90" y="397" class="code">  );</text>

    <!-- Warning hover tooltip -->
    <rect x="190" y="244" width="230" height="75" rx="6" fill="#1e293b" stroke="#eab308" stroke-width="2"/>
    <polygon points="230,244 240,234 250,244" fill="#1e293b" stroke="#eab308" stroke-width="2"/>
    <rect x="232" y="243" width="16" height="3" fill="#1e293b"/>
    <text x="200" y="262" fill="#eab308" font-size="10" font-weight="600">⚠ A11y Warning</text>
    <text x="200" y="278" fill="#cbd5e1" font-size="9">Contrast ratio 6.2:1 does not meet</text>
    <text x="200" y="292" fill="#cbd5e1" font-size="9">WCAG AAA requirement (7:1).</text>
    <text x="200" y="310" fill="#8b5cf6" font-size="9">Quick fix: Use 'btn-secondary-aaa'</text>

    <!-- Terminal Panel -->
    <rect x="50" y="425" width="380" height="130" rx="4" fill="#0f172a"/>
    <rect x="50" y="425" width="380" height="24" fill="#1e293b"/>
    <text x="65" y="441" fill="#94a3b8" font-size="10">PROBLEMS</text>
    <text x="135" y="441" fill="#64748b" font-size="10">OUTPUT</text>
    <text x="190" y="441" fill="#64748b" font-size="10">TERMINAL</text>
    <rect x="255" y="429" width="75" height="16" rx="3" fill="#334155"/>
    <text x="292" y="441" text-anchor="middle" fill="#8b5cf6" font-size="10">A11Y WATCH</text>

    <!-- A11y watcher output -->
    <text x="60" y="463" fill="#eab308" font-size="10">⚠ [a11y-watch] 1 warning found</text>
    <text x="60" y="479" fill="#94a3b8" font-size="10">  Button.tsx:42 - Contrast ratio insufficient</text>
    <text x="60" y="495" fill="#94a3b8" font-size="10">  Current: 6.2:1 | Required: 7:1 (AAA)</text>
    <text x="60" y="511" fill="#8b5cf6" font-size="10">  Suggestion: color: #374151</text>
    <text x="60" y="535" fill="#22c55e" font-size="10">✓ [a11y-watch] Watching for changes...</text>

    <!-- Status bar -->
    <rect x="40" y="565" width="400" height="24" rx="0" fill="#334155"/>
    <text x="55" y="580" fill="#22c55e" font-size="10">✓ 0 errors</text>
    <text x="120" y="580" fill="#eab308" font-size="10">⚠ 1 warning</text>
    <text x="200" y="580" fill="#8b5cf6" font-size="10">A11y: Active</text>
    <text x="370" y="580" fill="#64748b" font-size="10">Ln 42, Col 12</text>

    <!-- Feedback latency annotation - SC-009 -->
    <rect x="50" y="600" width="180" height="50" rx="6" fill="#e8d4b8" stroke="#8b5cf6" stroke-width="2"/>
    <text x="140" y="622" text-anchor="middle" class="annotation">SC-009: &lt;2s Response</text>
    <text x="140" y="640" text-anchor="middle" class="text-muted">Real-time feedback</text>

    <!-- ========== BROWSER SECTION (middle) - REDUCED to 380px ========== -->

    <!-- Storybook Panel -->
    <rect x="460" y="60" width="380" height="340" rx="8" fill="#e8d4b8" stroke="#b8a080" stroke-width="2"/>

    <!-- Storybook Header -->
    <rect x="460" y="60" width="380" height="36" rx="8" fill="#ff4785"/>
    <text x="650" y="84" text-anchor="middle" fill="#fff" font-family="system-ui" font-size="14" font-weight="700">Storybook</text>

    <!-- Sidebar -->
    <rect x="470" y="106" width="130" height="284" rx="4" fill="#dcc8a8"/>
    <text x="485" y="128" class="text-muted">COMPONENTS</text>
    <text x="495" y="150" class="text-sm">▼ Button</text>
    <rect x="490" y="158" width="100" height="22" rx="3" fill="#8b5cf6"/>
    <text x="505" y="174" fill="#fff" font-size="10">Primary</text>
    <text x="505" y="196" class="text-sm">Secondary</text>
    <text x="505" y="216" class="text-sm">Outline</text>
    <text x="495" y="248" class="text-sm">▶ Card</text>
    <text x="495" y="270" class="text-sm">▶ Input</text>
    <text x="495" y="292" class="text-sm">▶ Modal</text>

    <!-- Preview Area -->
    <rect x="610" y="106" width="220" height="140" rx="4" fill="#f5f0e6"/>
    <text x="720" y="130" text-anchor="middle" class="text-muted">Component Preview</text>
    <rect x="680" y="150" width="80" height="40" rx="6" fill="#8b5cf6"/>
    <text x="720" y="175" text-anchor="middle" fill="#fff" font-size="12" font-weight="600">Primary</text>

    <!-- Addon Panel Tabs -->
    <rect x="610" y="256" width="220" height="28" fill="#dcc8a8" rx="4"/>
    <text x="630" y="274" class="text-sm">Controls</text>
    <text x="690" y="274" class="text-sm">Actions</text>
    <rect x="750" y="260" width="70" height="20" rx="3" fill="#8b5cf6"/>
    <text x="785" y="274" text-anchor="middle" fill="#fff" font-size="9" font-weight="600">Accessibility</text>

    <!-- Accessibility Addon Panel - FR-029 -->
    <rect x="610" y="290" width="220" height="100" rx="4" fill="#f5f0e6"/>
    <text x="620" y="306" class="annotation">FR-029</text>

    <rect x="620" y="312" width="200" height="24" rx="4" fill="#22c55e"/>
    <text x="630" y="328" fill="#fff" font-size="10" font-weight="600">✓ 4 Passing Rules</text>

    <rect x="620" y="342" width="200" height="24" rx="4" fill="#eab308"/>
    <text x="630" y="358" fill="#fff" font-size="10" font-weight="600">⚠ 1 Incomplete (contrast)</text>

    <rect x="620" y="372" width="200" height="16" rx="4" fill="#dcc8a8"/>
    <text x="630" y="384" class="text-muted">Run: 0.12s | axe-core 4.8</text>

    <!-- Console Panel -->
    <rect x="460" y="410" width="380" height="180" rx="8" fill="#1e293b" stroke="#475569" stroke-width="2"/>

    <rect x="460" y="410" width="380" height="28" fill="#0f172a" rx="8"/>
    <text x="480" y="428" fill="#94a3b8" font-size="11">Console</text>
    <text x="540" y="428" fill="#64748b" font-size="11">Network</text>
    <rect x="600" y="414" width="70" height="18" rx="3" fill="#334155"/>
    <text x="635" y="428" text-anchor="middle" fill="#8b5cf6" font-size="10">Accessibility</text>

    <!-- Console output -->
    <text x="475" y="455" fill="#eab308" font-size="9">⚠ [axe-core] Moderate: Elements must meet minimum color contrast</text>
    <text x="490" y="471" fill="#94a3b8" font-size="9">Element: button.btn-secondary</text>
    <text x="490" y="487" fill="#94a3b8" font-size="9">Contrast ratio: 6.2:1</text>
    <text x="490" y="503" fill="#94a3b8" font-size="9">Expected: 7:1 (AAA level)</text>
    <text x="490" y="519" fill="#8b5cf6" font-size="9">Fix: Change color from #6b7280 to #374151</text>
    <text x="490" y="535" fill="#64748b" font-size="9">Learn more: https://dequeuniversity.com/rules/...</text>

    <text x="475" y="560" fill="#22c55e" font-size="9">✓ [axe-core] 4 rules passed</text>
    <text x="475" y="576" fill="#3b82f6" font-size="9">ℹ [axe-core] 3 rules need review (color-contrast-enhanced)</text>

    <!-- File Watcher Terminal - FR-030 -->
    <rect x="460" y="600" width="380" height="90" rx="8" fill="#e8d4b8" stroke="#b8a080" stroke-width="2"/>
    <text x="480" y="625" class="heading-sm">File Watcher Status</text>
    <text x="760" y="625" class="annotation">FR-030</text>

    <rect x="475" y="640" width="350" height="40" rx="4" fill="#0f172a"/>
    <text x="485" y="658" fill="#22c55e" font-size="10">$ npm run a11y:watch</text>
    <text x="485" y="674" fill="#94a3b8" font-size="10">Watching src/**/*.tsx for accessibility changes...</text>
  </g>

  <!-- MOBILE SECTION - NOW at x=860 with proper margins -->
  <text x="860" y="52" class="label-mobile">MOBILE - ISSUE LIST</text>

  <g id="mobile-view" transform="translate(860, 60)">
    <!-- Phone frame - 480px available (1400-860-60 margin) -->
    <rect x="0" y="0" width="480" height="700" rx="24" fill="#c8b898" stroke="#a08860" stroke-width="2"/>
    <rect x="10" y="10" width="460" height="680" rx="16" fill="#e8d4b8"/>

    <!-- Status bar -->
    <rect x="10" y="10" width="460" height="28" rx="16" fill="#dcc8a8"/>
    <text x="30" y="28" class="text-sm">9:41</text>
    <text x="430" y="28" text-anchor="end" class="text-sm">100%</text>

    <!-- Header -->
    <rect x="10" y="38" width="460" height="50" fill="#8b5cf6"/>
    <text x="25" y="55" fill="rgba(255,255,255,0.8)" font-size="12">←</text>
    <text x="60" y="68" fill="#fff" font-family="system-ui" font-size="16" font-weight="700">Dev A11y Issues</text>

    <!-- Summary Card -->
    <rect x="25" y="100" width="430" height="80" rx="8" fill="#f5f0e6"/>
    <text x="40" y="125" class="heading-sm">Current Session</text>
    <rect x="40" y="138" width="60" height="32" rx="4" fill="#22c55e"/>
    <text x="70" y="160" text-anchor="middle" fill="#fff" font-size="14" font-weight="700">0</text>
    <text x="115" y="160" class="text-muted">Errors</text>

    <rect x="180" y="138" width="60" height="32" rx="4" fill="#eab308"/>
    <text x="210" y="160" text-anchor="middle" fill="#fff" font-size="14" font-weight="700">2</text>
    <text x="255" y="160" class="text-muted">Warnings</text>

    <rect x="330" y="138" width="60" height="32" rx="4" fill="#3b82f6"/>
    <text x="360" y="160" text-anchor="middle" fill="#fff" font-size="14" font-weight="700">3</text>
    <text x="405" y="160" class="text-muted">Notices</text>

    <!-- Issue List -->
    <text x="25" y="210" class="heading-sm">Active Issues</text>

    <!-- Issue 1 - 90px height for touch target -->
    <rect x="25" y="225" width="430" height="90" rx="8" fill="#f5f0e6" stroke="#eab308" stroke-width="1"/>
    <rect x="25" y="225" width="6" height="90" rx="3" fill="#eab308"/>
    <text x="45" y="250" class="text-sm" font-weight="600">Low Contrast: btn-secondary</text>
    <text x="45" y="272" fill="#5b21b6" font-family="monospace" font-size="11">Button.tsx:42</text>
    <text x="45" y="294" class="text-muted">Ratio: 6.2:1 → Need: 7:1</text>
    <rect x="300" y="255" width="100" height="44" rx="6" fill="#8b5cf6"/>
    <text x="350" y="282" text-anchor="middle" fill="#fff" font-size="11">Quick Fix</text>

    <!-- Issue 2 -->
    <rect x="25" y="325" width="430" height="90" rx="8" fill="#f5f0e6" stroke="#eab308" stroke-width="1"/>
    <rect x="25" y="325" width="6" height="90" rx="3" fill="#eab308"/>
    <text x="45" y="350" class="text-sm" font-weight="600">Focus Indicator: icon-btn</text>
    <text x="45" y="372" fill="#5b21b6" font-family="monospace" font-size="11">IconButton.tsx:28</text>
    <text x="45" y="394" class="text-muted">Focus ring less than 2px</text>
    <rect x="300" y="355" width="100" height="44" rx="6" fill="#8b5cf6"/>
    <text x="350" y="382" text-anchor="middle" fill="#fff" font-size="11">Quick Fix</text>

    <!-- Issue 3 -->
    <rect x="25" y="425" width="430" height="70" rx="8" fill="#f5f0e6" stroke="#3b82f6" stroke-width="1"/>
    <rect x="25" y="425" width="6" height="70" rx="3" fill="#3b82f6"/>
    <text x="45" y="450" class="text-sm" font-weight="600">Missing aria-label</text>
    <text x="45" y="472" fill="#5b21b6" font-family="monospace" font-size="11">SearchInput.tsx:15</text>
    <text x="300" y="465" class="text-muted">Notice</text>

    <!-- Remediation Section -->
    <text x="25" y="525" class="heading-sm">Selected: Low Contrast</text>

    <rect x="25" y="540" width="430" height="110" rx="8" fill="#f5f0e6"/>
    <text x="40" y="565" class="text-muted">SUGGESTED FIX</text>
    <rect x="40" y="575" width="395" height="35" rx="4" fill="#0f172a"/>
    <text x="55" y="598" fill="#c084fc" font-family="monospace" font-size="11">color:</text>
    <text x="110" y="598" fill="#86efac" font-family="monospace" font-size="11">#374151</text>
    <text x="180" y="598" fill="#64748b" font-family="monospace" font-size="11">/* 7.2:1 ratio */</text>

    <rect x="40" y="620" width="150" height="44" rx="6" fill="#8b5cf6"/>
    <text x="115" y="647" text-anchor="middle" fill="#fff" font-size="12" font-weight="600">Copy to Clipboard</text>

    <!-- Bottom Nav - 100px height with 44px touch targets -->
    <rect x="10" y="600" width="460" height="90" rx="16" fill="#dcc8a8"/>
    <g transform="translate(85, 615)">
      <circle cx="0" cy="22" r="22" fill="#8b5cf6"/>
      <text x="0" y="60" text-anchor="middle" class="text-muted">Issues</text>
    </g>
    <g transform="translate(235, 615)">
      <circle cx="0" cy="22" r="22" fill="#dcc8a8" stroke="#b8a080" stroke-width="2"/>
      <text x="0" y="60" text-anchor="middle" class="text-muted">History</text>
    </g>
    <g transform="translate(385, 615)">
      <circle cx="0" cy="22" r="22" fill="#dcc8a8" stroke="#b8a080" stroke-width="2"/>
      <text x="0" y="60" text-anchor="middle" class="text-muted">Settings</text>
    </g>
  </g>

  <!-- Footer -->
  <text x="700" y="780" text-anchor="middle" class="text-muted">Developer Feedback Tooling • Feature 001 • ScriptHammer</text>
</svg>
