<svg xmlns="http://www.w3.org/2000/svg" viewBox="0 0 1400 800" width="1400" height="800">
  <!-- ============================================================
       GENERATED BY: /wireframe skill
       SOURCE: features/core-features/010-unified-blog-content/spec.md
       DATE: 2025-12-31
       DO NOT MANUALLY EDIT - Regenerate with /wireframe command
       ============================================================ -->
  <defs>
    <linearGradient id="bgGrad" x1="0%" y1="0%" x2="100%" y2="100%">
      <stop offset="0%" style="stop-color:#0f172a"/>
      <stop offset="100%" style="stop-color:#1e293b"/>
    </linearGradient>
    <linearGradient id="accentGrad" x1="0%" y1="0%" x2="100%" y2="0%">
      <stop offset="0%" style="stop-color:#8b5cf6"/>
      <stop offset="100%" style="stop-color:#d946ef"/>
    </linearGradient>
    <style>
      .heading-lg { fill: #ffffff; font-family: system-ui, sans-serif; font-size: 20px; font-weight: bold; }
      .heading { fill: #ffffff; font-family: system-ui, sans-serif; font-size: 14px; font-weight: bold; }
      .text-md { fill: #cbd5e1; font-family: system-ui, sans-serif; font-size: 12px; }
      .text-sm { fill: #94a3b8; font-family: system-ui, sans-serif; font-size: 10px; }
      .text-muted { fill: #64748b; font-family: system-ui, sans-serif; font-size: 10px; }
      .annotation { fill: #8b5cf6; font-family: monospace; font-size: 10px; }
      .label-desktop { fill: #8b5cf6; font-family: monospace; font-size: 11px; font-weight: bold; }
      .label-mobile { fill: #d946ef; font-family: monospace; font-size: 11px; font-weight: bold; }
    </style>
  </defs>

  <!-- Background -->
  <rect width="1400" height="800" fill="url(#bgGrad)"/>

  <!-- Dot grid pattern -->
  <g opacity="0.05">
    <pattern id="dots" width="30" height="30" patternUnits="userSpaceOnUse">
      <circle cx="15" cy="15" r="1" fill="#fff"/>
    </pattern>
    <rect width="1400" height="800" fill="url(#dots)"/>
  </g>

  <!-- Accent line top -->
  <rect x="0" y="0" width="1400" height="3" fill="url(#accentGrad)"/>

  <!-- Title -->
  <text x="700" y="28" text-anchor="middle" font-family="system-ui, sans-serif" font-size="14" font-weight="600" fill="#64748b" letter-spacing="1">BLOG LISTING &amp; POST VIEW (FR-010, FR-011, FR-013)</text>

  <!-- BLOG LISTING (left side) -->
  <text x="40" y="52" class="label-desktop">BLOG LISTING</text>
  <g id="blog-listing">
    <rect x="40" y="60" width="420" height="700" rx="8" fill="#0f172a" stroke="#475569" stroke-width="1"/>

    <!-- Header -->
    <rect x="40" y="60" width="420" height="50" rx="8" fill="#1e293b"/>
    <text x="70" y="90" class="heading-lg">Blog</text>
    <rect x="350" y="75" width="90" height="28" rx="6" fill="#334155"/>
    <text x="395" y="93" text-anchor="middle" class="text-sm">🔍 Search</text>

    <!-- Tag filters -->
    <g transform="translate(50, 125)">
      <rect x="0" y="0" width="60" height="24" rx="12" fill="#8b5cf6"/>
      <text x="30" y="16" text-anchor="middle" fill="#fff" font-size="10">All</text>
      <rect x="70" y="0" width="80" height="24" rx="12" fill="#334155"/>
      <text x="110" y="16" text-anchor="middle" class="text-sm">JavaScript</text>
      <rect x="160" y="0" width="60" height="24" rx="12" fill="#334155"/>
      <text x="190" y="16" text-anchor="middle" class="text-sm">React</text>
      <rect x="230" y="0" width="80" height="24" rx="12" fill="#334155"/>
      <text x="270" y="16" text-anchor="middle" class="text-sm">TypeScript</text>
    </g>

    <!-- Post cards -->
    <g transform="translate(50, 165)">
      <!-- Post 1 -->
      <rect x="0" y="0" width="400" height="120" rx="8" fill="#1e293b" stroke="#8b5cf6" stroke-width="2"/>
      <text x="15" y="30" class="heading">Building Accessible Forms with React</text>
      <text x="15" y="50" class="text-muted">Dec 28, 2025 • Jane Doe • 8 min read</text>
      <text x="15" y="75" class="text-md">Learn how to create forms that work for</text>
      <text x="15" y="92" class="text-md">everyone, including keyboard and screen...</text>
      <rect x="15" y="100" width="50" height="16" rx="8" fill="#334155"/>
      <text x="40" y="112" text-anchor="middle" class="text-muted">a11y</text>
      <rect x="70" y="100" width="50" height="16" rx="8" fill="#334155"/>
      <text x="95" y="112" text-anchor="middle" class="text-muted">React</text>

      <!-- Post 2 -->
      <rect x="0" y="135" width="400" height="120" rx="8" fill="#1e293b"/>
      <text x="15" y="165" class="heading">TypeScript 5.4 New Features</text>
      <text x="15" y="185" class="text-muted">Dec 25, 2025 • John Smith • 5 min read</text>
      <text x="15" y="210" class="text-md">Exploring the latest additions to TypeScript</text>
      <text x="15" y="227" class="text-md">including NoInfer and improved narrowing...</text>
      <rect x="15" y="235" width="70" height="16" rx="8" fill="#334155"/>
      <text x="50" y="247" text-anchor="middle" class="text-muted">TypeScript</text>

      <!-- Post 3 -->
      <rect x="0" y="270" width="400" height="120" rx="8" fill="#1e293b"/>
      <text x="15" y="300" class="heading">Supabase Edge Functions Guide</text>
      <text x="15" y="320" class="text-muted">Dec 20, 2025 • Jane Doe • 12 min read</text>
      <text x="15" y="345" class="text-md">Deploy serverless functions at the edge</text>
      <text x="15" y="362" class="text-md">with Supabase for low-latency APIs...</text>
      <rect x="15" y="370" width="60" height="16" rx="8" fill="#334155"/>
      <text x="45" y="382" text-anchor="middle" class="text-muted">Supabase</text>

      <!-- Draft indicator -->
      <rect x="0" y="405" width="400" height="120" rx="8" fill="#1e293b" stroke="#eab308" stroke-width="1" stroke-dasharray="4,2"/>
      <rect x="340" y="415" width="50" height="20" rx="4" fill="#422006"/>
      <text x="365" y="429" text-anchor="middle" fill="#eab308" font-size="9">DRAFT</text>
      <text x="15" y="435" class="heading" fill="#94a3b8">Next.js 15 App Router Deep Dive</text>
      <text x="15" y="455" class="text-muted">Dec 18, 2025 • John Smith</text>
      <text x="15" y="480" class="text-md" fill="#64748b">Work in progress - not yet published</text>
    </g>
  </g>

  <!-- POST VIEW (right side) -->
  <text x="490" y="52" class="label-desktop">POST VIEW WITH TOC</text>
  <g id="post-view">
    <rect x="490" y="60" width="870" height="700" rx="8" fill="#0f172a" stroke="#475569" stroke-width="1"/>

    <!-- Header -->
    <rect x="490" y="60" width="870" height="50" rx="8" fill="#1e293b"/>
    <text x="510" y="90" class="text-sm">← Back to Blog</text>

    <!-- Main content area -->
    <rect x="500" y="120" width="600" height="630" rx="6" fill="#1e293b"/>

    <!-- Article header -->
    <text x="520" y="155" fill="#fff" font-size="22" font-weight="bold">Building Accessible Forms</text>
    <text x="520" y="180" fill="#fff" font-size="22" font-weight="bold">with React</text>
    <text x="520" y="210" class="text-muted">December 28, 2025 • Jane Doe • 8 min read</text>

    <!-- Tags -->
    <rect x="520" y="225" width="40" height="18" rx="9" fill="#8b5cf6"/>
    <text x="540" y="238" text-anchor="middle" fill="#fff" font-size="9">a11y</text>
    <rect x="565" y="225" width="45" height="18" rx="9" fill="#334155"/>
    <text x="588" y="238" text-anchor="middle" class="text-sm">React</text>
    <rect x="615" y="225" width="50" height="18" rx="9" fill="#334155"/>
    <text x="640" y="238" text-anchor="middle" class="text-sm">Forms</text>

    <!-- Article content -->
    <text x="520" y="275" fill="#fff" font-size="16" font-weight="bold">Introduction</text>
    <rect x="520" y="285" width="560" height="10" rx="2" fill="#475569"/>
    <rect x="520" y="300" width="540" height="10" rx="2" fill="#475569"/>
    <rect x="520" y="315" width="520" height="10" rx="2" fill="#475569"/>

    <!-- Code block with syntax highlighting -->
    <text x="520" y="355" fill="#fff" font-size="16" font-weight="bold">Form Validation Example</text>
    <rect x="520" y="365" width="560" height="120" rx="6" fill="#0f172a" stroke="#475569" stroke-width="1"/>
    <text x="535" y="390" fill="#d946ef" font-family="monospace" font-size="10">const</text>
    <text x="570" y="390" fill="#8b5cf6" font-family="monospace" font-size="10">validateForm</text>
    <text x="660" y="390" fill="#cbd5e1" font-family="monospace" font-size="10">= (data) =&gt; {'{'}</text>
    <text x="545" y="410" fill="#d946ef" font-family="monospace" font-size="10">if</text>
    <text x="565" y="410" fill="#cbd5e1" font-family="monospace" font-size="10">(!data.email) {'{'}</text>
    <text x="555" y="430" fill="#d946ef" font-family="monospace" font-size="10">return</text>
    <text x="600" y="430" fill="#22c55e" font-family="monospace" font-size="10">'Email required'</text>
    <text x="545" y="450" fill="#cbd5e1" font-family="monospace" font-size="10">{'}'}</text>
    <text x="545" y="470" fill="#d946ef" font-family="monospace" font-size="10">return</text>
    <text x="590" y="470" fill="#8b5cf6" font-family="monospace" font-size="10">null</text>
    <text x="535" y="475" fill="#cbd5e1" font-family="monospace" font-size="10">{'}'}</text>

    <!-- More content -->
    <text x="520" y="515" fill="#fff" font-size="16" font-weight="bold">ARIA Labels</text>
    <rect x="520" y="525" width="560" height="10" rx="2" fill="#475569"/>
    <rect x="520" y="540" width="530" height="10" rx="2" fill="#475569"/>

    <!-- Table of Contents sidebar -->
    <rect x="1110" y="120" width="240" height="350" rx="6" fill="#1e293b" stroke="#8b5cf6" stroke-width="1"/>
    <text x="1130" y="150" class="heading">Table of Contents</text>
    <text x="1130" y="150" class="annotation" dx="130">showToc: true</text>

    <rect x="1120" y="165" width="4" height="20" rx="2" fill="#8b5cf6"/>
    <text x="1135" y="180" fill="#8b5cf6" font-size="11">Introduction</text>

    <text x="1135" y="210" class="text-md">Form Validation Example</text>
    <text x="1135" y="240" class="text-md">ARIA Labels</text>
    <text x="1135" y="270" class="text-md">Error Handling</text>
    <text x="1135" y="300" class="text-md">Focus Management</text>
    <text x="1135" y="330" class="text-md">Testing Accessibility</text>
    <text x="1135" y="360" class="text-md">Conclusion</text>

    <!-- Progress indicator -->
    <rect x="1120" y="380" width="220" height="6" rx="3" fill="#334155"/>
    <rect x="1120" y="380" width="80" height="6" rx="3" fill="#8b5cf6"/>
    <text x="1130" y="410" class="text-muted">25% complete</text>

    <!-- Hot reload indicator -->
    <rect x="1110" y="490" width="240" height="60" rx="6" fill="#1e3a5f" stroke="#3b82f6" stroke-width="1"/>
    <text x="1130" y="515" fill="#60a5fa" font-size="11" font-weight="bold">🔄 Hot Reload Active</text>
    <text x="1130" y="535" class="text-muted">Changes reflect in &lt;2s (FR-016)</text>
  </g>

  <!-- Annotations -->
  <rect x="40" y="770" width="400" height="25" rx="4" fill="#1e293b" stroke="#8b5cf6" stroke-width="1"/>
  <text x="60" y="787" class="annotation">FR-010: Syntax highlighting | FR-011: TOC from headings | FR-013: MDX support</text>
</svg>
