<svg xmlns="http://www.w3.org/2000/svg" viewBox="0 0 1400 800" width="1400" height="800">
  <!-- ============================================================
       GENERATED BY: /wireframe skill
       SOURCE: features/core-features/010-unified-blog-content/spec.md
       DATE: 2026-01-01
       THEME: Light (UX/Frontend) - v3 True Parchment
       DO NOT MANUALLY EDIT - Regenerate with /wireframe command
       ============================================================ -->
  <defs>
    <linearGradient id="bgGrad" x1="0%" y1="0%" x2="100%" y2="100%">
      <stop offset="0%" style="stop-color:#c7ddf5"/>
      <stop offset="100%" style="stop-color:#b8d4f0"/>
    </linearGradient>
    <linearGradient id="accentGrad" x1="0%" y1="0%" x2="100%" y2="0%">
      <stop offset="0%" style="stop-color:#8b5cf6"/>
      <stop offset="100%" style="stop-color:#d946ef"/>
    </linearGradient>
    <style>
      .heading-lg { fill: #1a1a2e; font-family: system-ui, sans-serif; font-size: 24px; font-weight: 800; }
      .heading { fill: #1a1a2e; font-family: system-ui, sans-serif; font-size: 16px; font-weight: 700; }
      .text-md { fill: #2d3748; font-family: system-ui, sans-serif; font-size: 14px; font-weight: 500; }
      .text-sm { fill: #374151; font-family: system-ui, sans-serif; font-size: 12px; font-weight: 500; }
      .text-muted { fill: #4b5563; font-family: system-ui, sans-serif; font-size: 11px; font-weight: 500; }
      .annotation { fill: #6d28d9; font-family: monospace; font-size: 12px; font-weight: 600; }
      .label-desktop { fill: #8b5cf6; font-family: monospace; font-size: 13px; font-weight: bold; }
      .label-mobile { fill: #d946ef; font-family: monospace; font-size: 13px; font-weight: bold; }
    </style>
  </defs>

  <!-- Background -->
  <rect width="1400" height="800" fill="url(#bgGrad)"/>

  <!-- Dot grid pattern -->
  <g opacity="0.35">
    <pattern id="dots" width="30" height="30" patternUnits="userSpaceOnUse">
      <circle cx="15" cy="15" r="1" fill="#6b8cba"/>
    </pattern>
    <rect width="1400" height="800" fill="url(#dots)"/>
  </g>

  <!-- Accent line top -->
  <rect x="0" y="0" width="1400" height="3" fill="url(#accentGrad)"/>

  <!-- Title -->
  <text x="700" y="28" text-anchor="middle" font-family="system-ui, sans-serif" font-size="14" font-weight="600" fill="#4b5563" letter-spacing="1">BLOG LIST + POST VIEW</text>

  <!-- DESKTOP SECTION -->
  <text x="40" y="52" class="label-desktop">DESKTOP</text>
  <g id="desktop-view">
    <!-- Main container -->
    <rect x="40" y="60" width="900" height="700" rx="8" fill="#e8d4b8" stroke="#b8a080" stroke-width="1"/>

    <!-- Header bar -->
    <rect x="40" y="60" width="900" height="50" rx="8" fill="#dcc8a8"/>
    <text x="60" y="92" class="heading">ScriptHammer Blog</text>
    <rect x="840" y="75" width="80" height="28" rx="6" fill="#8b5cf6"/>
    <text x="880" y="94" text-anchor="middle" font-family="system-ui, sans-serif" font-size="12" font-weight="600" fill="#fff">+ New Post</text>

    <!-- Sidebar - Categories/Tags -->
    <rect x="50" y="120" width="180" height="630" rx="6" fill="#dcc8a8" stroke="#b8a080" stroke-width="1"/>
    <text x="70" y="148" class="heading">Categories</text>

    <!-- Category items -->
    <rect x="60" y="160" width="160" height="32" rx="4" fill="#e8d4b8"/>
    <text x="75" y="181" class="text-md">📁 All Posts (24)</text>
    <rect x="60" y="198" width="160" height="32" rx="4" fill="#f5f0e6"/>
    <text x="75" y="219" class="text-md">💻 Development (12)</text>
    <rect x="60" y="236" width="160" height="32" rx="4" fill="#f5f0e6"/>
    <text x="75" y="257" class="text-md">🎨 Design (6)</text>
    <rect x="60" y="274" width="160" height="32" rx="4" fill="#f5f0e6"/>
    <text x="75" y="295" class="text-md">📚 Tutorials (6)</text>

    <text x="70" y="340" class="heading">Tags</text>
    <g transform="translate(60, 355)">
      <rect x="0" y="0" width="60" height="22" rx="11" fill="#8b5cf6" opacity="0.2"/>
      <text x="30" y="15" text-anchor="middle" class="text-sm" fill="#8b5cf6">React</text>
      <rect x="65" y="0" width="80" height="22" rx="11" fill="#8b5cf6" opacity="0.2"/>
      <text x="105" y="15" text-anchor="middle" class="text-sm" fill="#8b5cf6">TypeScript</text>
      <rect x="0" y="28" width="55" height="22" rx="11" fill="#8b5cf6" opacity="0.2"/>
      <text x="28" y="43" text-anchor="middle" class="text-sm" fill="#8b5cf6">Next.js</text>
      <rect x="60" y="28" width="70" height="22" rx="11" fill="#8b5cf6" opacity="0.2"/>
      <text x="95" y="43" text-anchor="middle" class="text-sm" fill="#8b5cf6">Supabase</text>
    </g>

    <!-- Main content - Blog list -->
    <rect x="240" y="120" width="460" height="630" rx="6" fill="#f5f0e6" stroke="#b8a080" stroke-width="1"/>
    <text x="260" y="148" class="heading">Recent Posts</text>

    <!-- Blog post cards -->
    <g transform="translate(250, 160)">
      <!-- Post 1 -->
      <rect x="0" y="0" width="440" height="100" rx="6" fill="#e8d4b8" stroke="#b8a080" stroke-width="1"/>
      <text x="15" y="28" class="heading">Building Offline-First Apps</text>
      <text x="15" y="50" class="text-sm">Learn how to create resilient applications that work...</text>
      <text x="15" y="72" class="text-muted">Jan 1, 2026 • 8 min read</text>
      <rect x="15" y="78" width="60" height="18" rx="9" fill="#22c55e" opacity="0.2"/>
      <text x="45" y="91" text-anchor="middle" font-size="10" fill="#22c55e">Published</text>
      <rect x="380" y="10" width="50" height="28" rx="4" fill="#8b5cf6" opacity="0.1"/>
      <text x="405" y="29" text-anchor="middle" class="text-sm" fill="#8b5cf6">Edit</text>
    </g>

    <g transform="translate(250, 270)">
      <!-- Post 2 -->
      <rect x="0" y="0" width="440" height="100" rx="6" fill="#e8d4b8" stroke="#b8a080" stroke-width="1"/>
      <text x="15" y="28" class="heading">MDX Component Patterns</text>
      <text x="15" y="50" class="text-sm">Advanced patterns for creating reusable MDX...</text>
      <text x="15" y="72" class="text-muted">Dec 28, 2025 • 12 min read</text>
      <rect x="15" y="78" width="50" height="18" rx="9" fill="#eab308" opacity="0.2"/>
      <text x="40" y="91" text-anchor="middle" font-size="10" fill="#eab308">Draft</text>
      <rect x="380" y="10" width="50" height="28" rx="4" fill="#8b5cf6" opacity="0.1"/>
      <text x="405" y="29" text-anchor="middle" class="text-sm" fill="#8b5cf6">Edit</text>
    </g>

    <g transform="translate(250, 380)">
      <!-- Post 3 -->
      <rect x="0" y="0" width="440" height="100" rx="6" fill="#e8d4b8" stroke="#b8a080" stroke-width="1"/>
      <text x="15" y="28" class="heading">Syntax Highlighting Guide</text>
      <text x="15" y="50" class="text-sm">How to set up beautiful code highlighting in your...</text>
      <text x="15" y="72" class="text-muted">Dec 25, 2025 • 5 min read</text>
      <rect x="15" y="78" width="60" height="18" rx="9" fill="#22c55e" opacity="0.2"/>
      <text x="45" y="91" text-anchor="middle" font-size="10" fill="#22c55e">Published</text>
      <rect x="380" y="10" width="50" height="28" rx="4" fill="#8b5cf6" opacity="0.1"/>
      <text x="405" y="29" text-anchor="middle" class="text-sm" fill="#8b5cf6">Edit</text>
    </g>

    <!-- Detail panel - Post preview -->
    <rect x="710" y="120" width="220" height="630" rx="6" fill="#dcc8a8" stroke="#b8a080" stroke-width="1"/>
    <text x="730" y="148" class="heading">Post Preview</text>

    <rect x="720" y="160" width="200" height="120" rx="4" fill="#94a3b8" opacity="0.3"/>
    <text x="820" y="225" text-anchor="middle" class="text-muted">Featured Image</text>

    <text x="730" y="300" class="text-md" font-weight="600">Building Offline-First Apps</text>
    <text x="730" y="322" class="text-sm">By: Jane Doe</text>
    <text x="730" y="344" class="text-sm">Date: Jan 1, 2026</text>

    <text x="730" y="380" class="text-muted">TABLE OF CONTENTS</text>
    <text x="730" y="402" class="text-sm">• Introduction</text>
    <text x="730" y="422" class="text-sm">• Service Workers</text>
    <text x="730" y="442" class="text-sm">• IndexedDB Storage</text>
    <text x="730" y="462" class="text-sm">• Sync Strategies</text>

    <rect x="730" y="490" width="180" height="36" rx="6" fill="#8b5cf6"/>
    <text x="820" y="514" text-anchor="middle" font-family="system-ui, sans-serif" font-size="13" font-weight="600" fill="#fff">Open Full View</text>
  </g>

  <!-- MOBILE SECTION -->
  <text x="980" y="52" class="label-mobile">MOBILE</text>
  <g id="mobile-view" transform="translate(980, 60)">
    <!-- Phone frame -->
    <rect x="0" y="0" width="360" height="700" rx="24" fill="#c8b898" stroke="#a08860" stroke-width="2"/>
    <rect x="10" y="10" width="340" height="680" rx="16" fill="#e8d4b8"/>

    <!-- Status bar -->
    <rect x="10" y="10" width="340" height="28" rx="16" fill="#dcc8a8"/>
    <text x="30" y="28" class="text-sm">9:41</text>
    <text x="320" y="28" text-anchor="end" class="text-sm">📶 🔋</text>

    <!-- Header -->
    <rect x="10" y="38" width="340" height="50" fill="#dcc8a8"/>
    <text x="30" y="70" class="heading">Blog</text>
    <rect x="280" y="48" width="55" height="30" rx="6" fill="#8b5cf6"/>
    <text x="308" y="68" text-anchor="middle" font-size="11" font-weight="600" fill="#fff">+ New</text>

    <!-- Category pills (horizontal scroll) -->
    <g transform="translate(20, 100)">
      <rect x="0" y="0" width="50" height="26" rx="13" fill="#8b5cf6"/>
      <text x="25" y="17" text-anchor="middle" font-size="11" fill="#fff">All</text>
      <rect x="55" y="0" width="70" height="26" rx="13" fill="#f5f0e6" stroke="#b8a080"/>
      <text x="90" y="17" text-anchor="middle" font-size="11" fill="#374151">Dev</text>
      <rect x="130" y="0" width="70" height="26" rx="13" fill="#f5f0e6" stroke="#b8a080"/>
      <text x="165" y="17" text-anchor="middle" font-size="11" fill="#374151">Design</text>
      <rect x="205" y="0" width="70" height="26" rx="13" fill="#f5f0e6" stroke="#b8a080"/>
      <text x="240" y="17" text-anchor="middle" font-size="11" fill="#374151">Tutorials</text>
    </g>

    <!-- Mobile blog cards -->
    <g transform="translate(20, 140)">
      <!-- Post 1 -->
      <rect x="0" y="0" width="310" height="90" rx="8" fill="#f5f0e6" stroke="#b8a080" stroke-width="1"/>
      <text x="15" y="25" class="text-md" font-weight="600">Building Offline-First Apps</text>
      <text x="15" y="45" class="text-sm">Learn how to create resilient apps...</text>
      <text x="15" y="68" class="text-muted">Jan 1 • 8 min</text>
      <circle cx="285" cy="45" r="4" fill="#22c55e"/>
    </g>

    <g transform="translate(20, 240)">
      <!-- Post 2 -->
      <rect x="0" y="0" width="310" height="90" rx="8" fill="#f5f0e6" stroke="#b8a080" stroke-width="1"/>
      <text x="15" y="25" class="text-md" font-weight="600">MDX Component Patterns</text>
      <text x="15" y="45" class="text-sm">Advanced patterns for reusable MDX...</text>
      <text x="15" y="68" class="text-muted">Dec 28 • 12 min</text>
      <circle cx="285" cy="45" r="4" fill="#eab308"/>
    </g>

    <g transform="translate(20, 340)">
      <!-- Post 3 -->
      <rect x="0" y="0" width="310" height="90" rx="8" fill="#f5f0e6" stroke="#b8a080" stroke-width="1"/>
      <text x="15" y="25" class="text-md" font-weight="600">Syntax Highlighting Guide</text>
      <text x="15" y="45" class="text-sm">Set up beautiful code highlighting...</text>
      <text x="15" y="68" class="text-muted">Dec 25 • 5 min</text>
      <circle cx="285" cy="45" r="4" fill="#22c55e"/>
    </g>

    <g transform="translate(20, 440)">
      <!-- Post 4 -->
      <rect x="0" y="0" width="310" height="90" rx="8" fill="#f5f0e6" stroke="#b8a080" stroke-width="1"/>
      <text x="15" y="25" class="text-md" font-weight="600">Table of Contents Setup</text>
      <text x="15" y="45" class="text-sm">Auto-generate navigation for posts...</text>
      <text x="15" y="68" class="text-muted">Dec 20 • 6 min</text>
      <circle cx="285" cy="45" r="4" fill="#22c55e"/>
    </g>

    <!-- Bottom nav -->
    <rect x="10" y="640" width="340" height="50" rx="0" fill="#dcc8a8"/>
    <g transform="translate(50, 652)">
      <text x="0" y="22" text-anchor="middle" class="text-sm" fill="#8b5cf6">🏠</text>
      <text x="90" y="22" text-anchor="middle" class="text-sm">📝</text>
      <text x="180" y="22" text-anchor="middle" class="text-sm">🔍</text>
      <text x="270" y="22" text-anchor="middle" class="text-sm">⚙️</text>
    </g>
  </g>

  <!-- Annotations -->
  <g id="annotations">
    <rect x="5" y="170" width="30" height="60" rx="4" fill="#e8d4b8" stroke="#8b5cf6" stroke-width="1"/>
    <text x="20" y="195" text-anchor="middle" class="annotation">FR</text>
    <text x="20" y="210" text-anchor="middle" class="annotation">001</text>
    <text x="20" y="225" text-anchor="middle" class="text-muted">single</text>
    <text x="20" y="237" text-anchor="middle" class="text-muted">source</text>
  </g>
</svg>
