<svg xmlns="http://www.w3.org/2000/svg" viewBox="0 0 1400 800" width="1400" height="800">
  <!-- ============================================================
       GENERATED BY: /wireframe skill
       SOURCE: features/core-features/010-unified-blog-content/spec.md
       DATE: 2025-12-31
       DO NOT MANUALLY EDIT - Regenerate with /wireframe command
       ============================================================ -->
  <defs>
    <linearGradient id="bgGrad" x1="0%" y1="0%" x2="100%" y2="100%">
      <stop offset="0%" style="stop-color:#0f172a"/>
      <stop offset="100%" style="stop-color:#1e293b"/>
    </linearGradient>
    <linearGradient id="accentGrad" x1="0%" y1="0%" x2="100%" y2="0%">
      <stop offset="0%" style="stop-color:#8b5cf6"/>
      <stop offset="100%" style="stop-color:#d946ef"/>
    </linearGradient>
    <style>
      .heading-lg { fill: #ffffff; font-family: system-ui, sans-serif; font-size: 20px; font-weight: bold; }
      .heading { fill: #ffffff; font-family: system-ui, sans-serif; font-size: 14px; font-weight: bold; }
      .text-md { fill: #cbd5e1; font-family: system-ui, sans-serif; font-size: 12px; }
      .text-sm { fill: #94a3b8; font-family: system-ui, sans-serif; font-size: 10px; }
      .text-muted { fill: #64748b; font-family: system-ui, sans-serif; font-size: 10px; }
      .annotation { fill: #8b5cf6; font-family: monospace; font-size: 10px; }
      .label-desktop { fill: #8b5cf6; font-family: monospace; font-size: 11px; font-weight: bold; }
      .label-mobile { fill: #d946ef; font-family: monospace; font-size: 11px; font-weight: bold; }
    </style>
  </defs>

  <!-- Background -->
  <rect width="1400" height="800" fill="url(#bgGrad)"/>

  <!-- Dot grid pattern -->
  <g opacity="0.05">
    <pattern id="dots" width="30" height="30" patternUnits="userSpaceOnUse">
      <circle cx="15" cy="15" r="1" fill="#fff"/>
    </pattern>
    <rect width="1400" height="800" fill="url(#dots)"/>
  </g>

  <!-- Accent line top -->
  <rect x="0" y="0" width="1400" height="3" fill="url(#accentGrad)"/>

  <!-- Title -->
  <text x="700" y="28" text-anchor="middle" font-family="system-ui, sans-serif" font-size="14" font-weight="600" fill="#64748b" letter-spacing="1">OFFLINE EDITING &amp; SYNC (FR-004, FR-005, FR-006)</text>

  <!-- ONLINE STATE (left) -->
  <text x="40" y="52" class="label-desktop">ONLINE - EDITING</text>
  <g id="online-editor">
    <rect x="40" y="60" width="620" height="350" rx="8" fill="#0f172a" stroke="#475569" stroke-width="1"/>

    <!-- Header with online status -->
    <rect x="40" y="60" width="620" height="45" rx="8" fill="#1e293b"/>
    <text x="60" y="88" class="text-sm">← Back</text>
    <text x="350" y="88" text-anchor="middle" class="heading">Edit Post</text>

    <!-- Online indicator -->
    <circle cx="580" cy="82" r="6" fill="#22c55e"/>
    <text x="595" y="86" class="text-sm" fill="#22c55e">Online</text>

    <!-- Editor -->
    <rect x="50" y="115" width="600" height="285" rx="6" fill="#1e293b"/>

    <!-- Frontmatter section -->
    <rect x="60" y="125" width="580" height="80" rx="4" fill="#0f172a" stroke="#475569" stroke-width="1"/>
    <text x="75" y="145" fill="#64748b" font-family="monospace" font-size="10">---</text>
    <text x="75" y="160" fill="#8b5cf6" font-family="monospace" font-size="10">title:</text>
    <text x="115" y="160" fill="#22c55e" font-family="monospace" font-size="10">"Building Accessible Forms"</text>
    <text x="75" y="175" fill="#8b5cf6" font-family="monospace" font-size="10">author:</text>
    <text x="125" y="175" fill="#22c55e" font-family="monospace" font-size="10">"jane-doe"</text>
    <text x="75" y="190" fill="#8b5cf6" font-family="monospace" font-size="10">showToc:</text>
    <text x="135" y="190" fill="#d946ef" font-family="monospace" font-size="10">true</text>
    <text x="170" y="190" fill="#64748b" font-family="monospace" font-size="10">---</text>

    <!-- Content area -->
    <text x="60" y="230" fill="#fff" font-family="monospace" font-size="11"># Introduction</text>
    <rect x="60" y="240" width="400" height="10" rx="2" fill="#475569"/>
    <rect x="60" y="255" width="380" height="10" rx="2" fill="#475569"/>
    <text x="60" y="285" fill="#fff" font-family="monospace" font-size="11">## Form Validation|</text>
    <rect x="190" y="275" width="2" height="14" fill="#8b5cf6">
      <animate attributeName="opacity" values="1;0;1" dur="1s" repeatCount="indefinite"/>
    </rect>

    <!-- Toolbar -->
    <rect x="60" y="310" width="580" height="35" rx="4" fill="#334155"/>
    <text x="80" y="332" class="text-md" font-weight="bold">B</text>
    <text x="110" y="332" class="text-md" font-style="italic">I</text>
    <text x="140" y="332" class="text-md" style="text-decoration:underline">U</text>
    <text x="170" y="332" class="text-muted">|</text>
    <text x="190" y="332" class="text-md">H1</text>
    <text x="220" y="332" class="text-md">H2</text>
    <text x="250" y="332" class="text-muted">|</text>
    <text x="270" y="332" class="text-md">📷</text>
    <text x="300" y="332" class="text-md">🔗</text>
    <text x="330" y="332" class="text-md">&lt;/&gt;</text>

    <!-- Auto-save indicator -->
    <text x="520" y="332" class="text-sm" fill="#22c55e">✓ Saved</text>

    <!-- Last sync info -->
    <rect x="60" y="355" width="580" height="30" rx="4" fill="#0f172a"/>
    <text x="75" y="375" class="text-muted">Last synced: 2 seconds ago</text>
    <text x="400" y="375" class="text-muted">Local storage: 1.2 MB used</text>
  </g>

  <!-- OFFLINE STATE (right) -->
  <text x="700" y="52" class="label-mobile" fill="#eab308">OFFLINE - EDITING CONTINUES</text>
  <g id="offline-editor">
    <rect x="700" y="60" width="620" height="350" rx="8" fill="#0f172a" stroke="#eab308" stroke-width="2"/>

    <!-- Header with offline status -->
    <rect x="700" y="60" width="620" height="45" rx="8" fill="#422006"/>
    <text x="720" y="88" class="text-sm">← Back</text>
    <text x="1010" y="88" text-anchor="middle" class="heading">Edit Post (Offline)</text>

    <!-- Offline indicator -->
    <circle cx="1240" cy="82" r="6" fill="#eab308"/>
    <text x="1255" y="86" class="text-sm" fill="#eab308">Offline</text>

    <!-- Editor continues working -->
    <rect x="710" y="115" width="600" height="285" rx="6" fill="#1e293b"/>

    <!-- Same frontmatter -->
    <rect x="720" y="125" width="580" height="80" rx="4" fill="#0f172a" stroke="#475569" stroke-width="1"/>
    <text x="735" y="145" fill="#64748b" font-family="monospace" font-size="10">---</text>
    <text x="735" y="160" fill="#8b5cf6" font-family="monospace" font-size="10">title:</text>
    <text x="775" y="160" fill="#22c55e" font-family="monospace" font-size="10">"Building Accessible Forms"</text>
    <text x="735" y="175" fill="#8b5cf6" font-family="monospace" font-size="10">author:</text>
    <text x="785" y="175" fill="#22c55e" font-family="monospace" font-size="10">"jane-doe"</text>
    <text x="735" y="190" fill="#64748b" font-family="monospace" font-size="10">---</text>

    <!-- Content with new edits highlighted -->
    <text x="720" y="230" fill="#fff" font-family="monospace" font-size="11"># Introduction</text>
    <rect x="720" y="240" width="400" height="10" rx="2" fill="#475569"/>
    <rect x="720" y="255" width="380" height="10" rx="2" fill="#475569"/>
    <text x="720" y="285" fill="#fff" font-family="monospace" font-size="11">## Form Validation</text>
    <rect x="720" y="295" width="450" height="12" rx="2" fill="#422006" stroke="#eab308" stroke-width="1"/>
    <text x="730" y="305" fill="#eab308" font-family="monospace" font-size="10">New paragraph added while offline...</text>

    <!-- Toolbar -->
    <rect x="720" y="310" width="580" height="35" rx="4" fill="#334155"/>
    <text x="740" y="332" class="text-md" font-weight="bold">B</text>
    <text x="770" y="332" class="text-md" font-style="italic">I</text>

    <!-- Queued indicator -->
    <text x="1150" y="332" class="text-sm" fill="#eab308">⏳ Queued</text>

    <!-- Offline queue info -->
    <rect x="720" y="355" width="580" height="30" rx="4" fill="#422006"/>
    <text x="735" y="375" fill="#eab308" font-size="10">📴 Offline - Changes saved locally (3 pending edits)</text>
  </g>

  <!-- SYNC QUEUE PANEL -->
  <text x="40" y="435" class="heading-lg">Sync Queue (FR-005)</text>
  <g transform="translate(40, 455)">
    <rect x="0" y="0" width="620" height="300" rx="8" fill="#1e293b" stroke="#475569" stroke-width="1"/>

    <text x="20" y="30" class="heading">Pending Sync Operations</text>

    <!-- Queue items -->
    <rect x="20" y="50" width="580" height="50" rx="6" fill="#0f172a"/>
    <circle cx="45" cy="75" r="12" fill="#422006"/>
    <text x="45" y="80" text-anchor="middle" fill="#eab308" font-size="10">1</text>
    <text x="70" y="70" class="text-md">Building Accessible Forms</text>
    <text x="70" y="88" class="text-muted">Modified: 3 paragraphs added</text>
    <text x="500" y="80" class="text-sm" fill="#eab308">Pending</text>

    <rect x="20" y="110" width="580" height="50" rx="6" fill="#0f172a"/>
    <circle cx="45" cy="135" r="12" fill="#422006"/>
    <text x="45" y="140" text-anchor="middle" fill="#eab308" font-size="10">2</text>
    <text x="70" y="130" class="text-md">TypeScript 5.4 Features</text>
    <text x="70" y="148" class="text-muted">Modified: Title updated</text>
    <text x="500" y="140" class="text-sm" fill="#eab308">Pending</text>

    <rect x="20" y="170" width="580" height="50" rx="6" fill="#0f172a"/>
    <circle cx="45" cy="195" r="12" fill="#14532d"/>
    <text x="45" y="200" text-anchor="middle" fill="#22c55e" font-size="10">✓</text>
    <text x="70" y="190" class="text-md">Supabase Edge Functions</text>
    <text x="70" y="208" class="text-muted">Synced: 5 minutes ago</text>
    <text x="500" y="200" class="text-sm" fill="#22c55e">Synced</text>

    <!-- Sync status -->
    <rect x="20" y="240" width="580" height="45" rx="6" fill="#1e3a5f" stroke="#3b82f6" stroke-width="1"/>
    <text x="40" y="268" fill="#60a5fa" font-size="12" font-weight="bold">🔄 Waiting for connection...</text>
    <text x="400" y="268" class="text-sm">2 items will sync automatically</text>
  </g>

  <!-- RECONNECTION SYNC -->
  <text x="700" y="435" class="heading-lg">Auto-Sync on Reconnect (FR-006)</text>
  <g transform="translate(700, 455)">
    <rect x="0" y="0" width="620" height="300" rx="8" fill="#1e293b" stroke="#22c55e" stroke-width="2"/>

    <text x="20" y="30" class="heading" fill="#22c55e">✓ Connection Restored - Syncing</text>

    <!-- Progress -->
    <rect x="20" y="50" width="580" height="8" rx="4" fill="#334155"/>
    <rect x="20" y="50" width="400" height="8" rx="4" fill="#22c55e"/>
    <text x="20" y="75" class="text-sm">Syncing 2 of 3 changes...</text>

    <!-- Sync log -->
    <rect x="20" y="95" width="580" height="150" rx="6" fill="#0f172a"/>
    <text x="35" y="120" fill="#22c55e" font-family="monospace" font-size="10">✓ 14:32:01 - Synced "Supabase Edge Functions"</text>
    <text x="35" y="140" fill="#22c55e" font-family="monospace" font-size="10">✓ 14:32:03 - Synced "TypeScript 5.4 Features"</text>
    <text x="35" y="160" fill="#8b5cf6" font-family="monospace" font-size="10">⏳ 14:32:04 - Syncing "Building Accessible Forms"...</text>
    <g transform="translate(35, 175)">
      <circle cx="8" cy="8" r="6" fill="none" stroke="#334155" stroke-width="2"/>
      <path d="M 8 2 A 6 6 0 0 1 14 8" fill="none" stroke="#8b5cf6" stroke-width="2" stroke-linecap="round">
        <animateTransform attributeName="transform" type="rotate" from="0 8 8" to="360 8 8" dur="1s" repeatCount="indefinite"/>
      </path>
    </g>

    <!-- Success summary -->
    <rect x="20" y="255" width="580" height="35" rx="6" fill="#14532d"/>
    <text x="40" y="278" fill="#22c55e" font-size="12" font-weight="bold">🎉 All changes synced successfully!</text>
    <text x="420" y="278" class="text-sm" fill="#86efac">100% data integrity verified</text>
  </g>

  <!-- Annotation -->
  <rect x="40" y="770" width="550" height="25" rx="4" fill="#1e293b" stroke="#8b5cf6" stroke-width="1"/>
  <text x="60" y="787" class="annotation">FR-004: Offline editing via IndexedDB | FR-005: Queue changes | FR-006: Auto-sync on reconnect</text>
</svg>
