<svg xmlns="http://www.w3.org/2000/svg" viewBox="0 0 1400 800" width="1400" height="800">
  <!-- ============================================================
       GENERATED BY: /wireframe skill
       SOURCE: features/core-features/010-unified-blog-content/spec.md
       DATE: 2026-01-01
       THEME: Light (UX/Frontend) - v3 True Parchment
       DO NOT MANUALLY EDIT - Regenerate with /wireframe command
       ============================================================ -->
  <defs>
    <linearGradient id="bgGrad" x1="0%" y1="0%" x2="100%" y2="100%">
      <stop offset="0%" style="stop-color:#c7ddf5"/>
      <stop offset="100%" style="stop-color:#b8d4f0"/>
    </linearGradient>
    <linearGradient id="accentGrad" x1="0%" y1="0%" x2="100%" y2="0%">
      <stop offset="0%" style="stop-color:#8b5cf6"/>
      <stop offset="100%" style="stop-color:#d946ef"/>
    </linearGradient>
    <style>
      .heading-lg { fill: #1a1a2e; font-family: system-ui, sans-serif; font-size: 24px; font-weight: 800; }
      .heading { fill: #1a1a2e; font-family: system-ui, sans-serif; font-size: 16px; font-weight: 700; }
      .text-md { fill: #2d3748; font-family: system-ui, sans-serif; font-size: 14px; font-weight: 500; }
      .text-sm { fill: #4a5568; font-family: system-ui, sans-serif; font-size: 12px; font-weight: 500; }
      .text-muted { fill: #5a6577; font-family: system-ui, sans-serif; font-size: 11px; font-weight: 500; }
      .annotation { fill: #8b5cf6; font-family: monospace; font-size: 12px; font-weight: 600; }
      .label-desktop { fill: #8b5cf6; font-family: monospace; font-size: 13px; font-weight: bold; }
      .label-mobile { fill: #d946ef; font-family: monospace; font-size: 13px; font-weight: bold; }
      .code { fill: #2d3748; font-family: 'Fira Code', monospace; font-size: 11px; }
    </style>
  </defs>

  <!-- Background -->
  <rect width="1400" height="800" fill="url(#bgGrad)"/>

  <!-- Dot grid pattern -->
  <g opacity="0.35">
    <pattern id="dots" width="30" height="30" patternUnits="userSpaceOnUse">
      <circle cx="15" cy="15" r="1" fill="#6b8cba"/>
    </pattern>
    <rect width="1400" height="800" fill="url(#dots)"/>
  </g>

  <!-- Accent line top -->
  <rect x="0" y="0" width="1400" height="3" fill="url(#accentGrad)"/>

  <!-- Title -->
  <text x="700" y="28" text-anchor="middle" font-family="system-ui, sans-serif" font-size="14" font-weight="600" fill="#5a6577" letter-spacing="1">OFFLINE EDITOR + SYNC STATUS</text>

  <!-- DESKTOP SECTION -->
  <text x="40" y="52" class="label-desktop">DESKTOP - OFFLINE MODE</text>
  <g id="desktop-view">
    <!-- Main container -->
    <rect x="40" y="60" width="900" height="700" rx="8" fill="#e8d4b8" stroke="#b8a080" stroke-width="1"/>

    <!-- Offline banner -->
    <rect x="40" y="60" width="900" height="36" rx="8" fill="#eab308" opacity="0.2"/>
    <text x="470" y="84" text-anchor="middle" class="text-md" fill="#92400e">⚠️ You're offline - Changes will sync when you reconnect</text>

    <!-- Editor header -->
    <rect x="40" y="96" width="900" height="50" fill="#dcc8a8"/>
    <text x="60" y="128" class="heading">Edit: Building Offline-First Apps</text>

    <!-- Sync status indicator -->
    <g transform="translate(780, 106)">
      <rect x="0" y="0" width="140" height="32" rx="16" fill="#f5f0e6" stroke="#eab308" stroke-width="2"/>
      <circle cx="20" cy="16" r="6" fill="#eab308"/>
      <text x="80" y="21" text-anchor="middle" class="text-sm" fill="#92400e">3 changes queued</text>
    </g>

    <!-- Left panel - Markdown editor -->
    <rect x="50" y="156" width="440" height="594" rx="6" fill="#f5f0e6" stroke="#b8a080" stroke-width="1"/>
    <rect x="50" y="156" width="440" height="36" rx="6" fill="#dcc8a8"/>
    <text x="70" y="180" class="text-md" font-weight="600">Markdown</text>

    <!-- Toolbar -->
    <g transform="translate(280, 162)">
      <rect x="0" y="0" width="28" height="24" rx="4" fill="#e8d4b8"/>
      <text x="14" y="17" text-anchor="middle" font-weight="bold" font-size="14" fill="#4a5568">B</text>
      <rect x="32" y="0" width="28" height="24" rx="4" fill="#e8d4b8"/>
      <text x="46" y="17" text-anchor="middle" font-style="italic" font-size="14" fill="#4a5568">I</text>
      <rect x="64" y="0" width="28" height="24" rx="4" fill="#e8d4b8"/>
      <text x="78" y="17" text-anchor="middle" font-size="12" fill="#4a5568">🔗</text>
      <rect x="96" y="0" width="28" height="24" rx="4" fill="#e8d4b8"/>
      <text x="110" y="17" text-anchor="middle" font-size="12" fill="#4a5568">📷</text>
      <rect x="128" y="0" width="28" height="24" rx="4" fill="#e8d4b8"/>
      <text x="142" y="17" text-anchor="middle" font-size="11" fill="#4a5568">&lt;/&gt;</text>
    </g>

    <!-- Editor content -->
    <g transform="translate(60, 200)">
      <text x="0" y="20" class="code" fill="#8b5cf6">---</text>
      <text x="0" y="38" class="code"><tspan fill="#d946ef">title:</tspan> Building Offline-First Apps</text>
      <text x="0" y="56" class="code"><tspan fill="#d946ef">slug:</tspan> offline-first-apps</text>
      <text x="0" y="74" class="code"><tspan fill="#d946ef">author:</tspan> Jane Doe</text>
      <text x="0" y="92" class="code"><tspan fill="#d946ef">date:</tspan> 2026-01-01</text>
      <text x="0" y="110" class="code"><tspan fill="#d946ef">showToc:</tspan> true</text>
      <text x="0" y="128" class="code" fill="#8b5cf6">---</text>
      <text x="0" y="160" class="code" fill="#8b5cf6"># Introduction</text>
      <text x="0" y="182" class="code">Building applications that work</text>
      <text x="0" y="200" class="code">offline requires careful planning...</text>
      <text x="0" y="232" class="code" fill="#8b5cf6">## Service Workers</text>
      <text x="0" y="254" class="code">The foundation of offline</text>
      <text x="0" y="272" class="code">capability is the service worker.</text>
      <text x="0" y="304" class="code" fill="#22c55e">```typescript</text>
      <text x="0" y="322" class="code">navigator.serviceWorker.register(</text>
      <text x="0" y="340" class="code">  '/sw.js'</text>
      <text x="0" y="358" class="code">)</text>
      <text x="0" y="376" class="code" fill="#22c55e">```</text>
    </g>

    <!-- Right panel - Live preview -->
    <rect x="500" y="156" width="430" height="594" rx="6" fill="#fff" stroke="#b8a080" stroke-width="1"/>
    <rect x="500" y="156" width="430" height="36" rx="6" fill="#dcc8a8"/>
    <text x="520" y="180" class="text-md" font-weight="600">Preview</text>
    <text x="880" y="180" text-anchor="end" class="text-muted">Hot reload: 0.3s</text>

    <!-- Preview content -->
    <g transform="translate(520, 200)">
      <text x="0" y="20" class="heading-lg">Building Offline-First Apps</text>
      <text x="0" y="48" class="text-muted">By Jane Doe • Jan 1, 2026 • 8 min read</text>

      <!-- TOC box -->
      <rect x="0" y="65" width="180" height="90" rx="4" fill="#f5f0e6" stroke="#b8a080"/>
      <text x="10" y="85" class="text-sm" font-weight="600">Table of Contents</text>
      <text x="10" y="105" class="text-sm" fill="#8b5cf6">1. Introduction</text>
      <text x="10" y="123" class="text-sm" fill="#8b5cf6">2. Service Workers</text>
      <text x="10" y="141" class="text-sm" fill="#8b5cf6">3. IndexedDB Storage</text>

      <text x="0" y="180" class="heading">Introduction</text>
      <text x="0" y="205" class="text-md">Building applications that work offline</text>
      <text x="0" y="225" class="text-md">requires careful planning...</text>

      <text x="0" y="260" class="heading">Service Workers</text>
      <text x="0" y="285" class="text-md">The foundation of offline capability is</text>
      <text x="0" y="305" class="text-md">the service worker.</text>

      <!-- Code block preview -->
      <rect x="0" y="325" width="390" height="75" rx="4" fill="#1e293b"/>
      <text x="15" y="350" font-family="'Fira Code', monospace" font-size="11" fill="#22c55e">navigator.serviceWorker.register(</text>
      <text x="15" y="370" font-family="'Fira Code', monospace" font-size="11" fill="#cbd5e1">  '/sw.js'</text>
      <text x="15" y="390" font-family="'Fira Code', monospace" font-size="11" fill="#22c55e">)</text>
    </g>

    <!-- Bottom action bar -->
    <rect x="40" y="710" width="900" height="50" rx="0" fill="#dcc8a8"/>
    <rect x="60" y="720" width="100" height="32" rx="6" fill="#f5f0e6" stroke="#b8a080"/>
    <text x="110" y="741" text-anchor="middle" class="text-sm">Cancel</text>
    <rect x="170" y="720" width="100" height="32" rx="6" fill="#f5f0e6" stroke="#b8a080"/>
    <text x="220" y="741" text-anchor="middle" class="text-sm">Save Draft</text>
    <rect x="780" y="720" width="140" height="32" rx="6" fill="#22c55e"/>
    <text x="850" y="741" text-anchor="middle" font-weight="600" fill="#fff">Publish ✓</text>
  </g>

  <!-- MOBILE SECTION -->
  <text x="980" y="52" class="label-mobile">MOBILE - SYNC UI</text>
  <g id="mobile-view" transform="translate(980, 60)">
    <!-- Phone frame -->
    <rect x="0" y="0" width="360" height="700" rx="24" fill="#c8b898" stroke="#a08860" stroke-width="2"/>
    <rect x="10" y="10" width="340" height="680" rx="16" fill="#e8d4b8"/>

    <!-- Status bar -->
    <rect x="10" y="10" width="340" height="28" rx="16" fill="#dcc8a8"/>
    <text x="30" y="28" class="text-sm">9:41</text>
    <text x="320" y="28" text-anchor="end" class="text-sm">⚡ 🔋</text>

    <!-- Offline banner -->
    <rect x="10" y="38" width="340" height="32" fill="#eab308" opacity="0.2"/>
    <text x="180" y="58" text-anchor="middle" class="text-sm" fill="#92400e">📴 Offline Mode</text>

    <!-- Header with back -->
    <rect x="10" y="70" width="340" height="50" fill="#dcc8a8"/>
    <text x="30" y="100" class="text-md">← Back</text>
    <text x="180" y="100" text-anchor="middle" class="heading">Edit Post</text>

    <!-- Sync queue card -->
    <rect x="20" y="130" width="320" height="100" rx="8" fill="#f5f0e6" stroke="#eab308" stroke-width="2"/>
    <text x="40" y="155" class="text-md" font-weight="600">📤 Pending Changes</text>

    <g transform="translate(40, 165)">
      <rect x="0" y="0" width="12" height="12" rx="2" fill="#eab308"/>
      <text x="20" y="10" class="text-sm">Title updated</text>
      <text x="260" y="10" text-anchor="end" class="text-muted">2m ago</text>
    </g>
    <g transform="translate(40, 185)">
      <rect x="0" y="0" width="12" height="12" rx="2" fill="#eab308"/>
      <text x="20" y="10" class="text-sm">Added code block</text>
      <text x="260" y="10" text-anchor="end" class="text-muted">5m ago</text>
    </g>
    <g transform="translate(40, 205)">
      <rect x="0" y="0" width="12" height="12" rx="2" fill="#eab308"/>
      <text x="20" y="10" class="text-sm">Fixed typo in intro</text>
      <text x="260" y="10" text-anchor="end" class="text-muted">8m ago</text>
    </g>

    <!-- Editor area (simplified) -->
    <rect x="20" y="245" width="320" height="320" rx="8" fill="#f5f0e6" stroke="#b8a080"/>
    <text x="35" y="275" class="code" fill="#8b5cf6"># Introduction</text>
    <text x="35" y="300" class="code">Building applications that</text>
    <text x="35" y="320" class="code">work offline requires</text>
    <text x="35" y="340" class="code">careful planning and the</text>
    <text x="35" y="360" class="code">right architecture...</text>

    <!-- Keyboard hint -->
    <rect x="20" y="520" width="320" height="40" rx="4" fill="#dcc8a8"/>
    <text x="180" y="545" text-anchor="middle" class="text-muted">Tap to edit • Auto-save enabled</text>

    <!-- Action buttons -->
    <g transform="translate(20, 575)">
      <rect x="0" y="0" width="155" height="44" rx="8" fill="#f5f0e6" stroke="#b8a080"/>
      <text x="78" y="28" text-anchor="middle" class="text-md">Preview</text>
      <rect x="165" y="0" width="155" height="44" rx="8" fill="#22c55e"/>
      <text x="243" y="28" text-anchor="middle" font-weight="600" fill="#fff">Save ✓</text>
    </g>

    <!-- Storage indicator -->
    <rect x="20" y="630" width="320" height="50" rx="8" fill="#dcc8a8"/>
    <text x="35" y="652" class="text-sm">💾 Local Storage</text>
    <rect x="35" y="662" width="200" height="8" rx="4" fill="#e8d4b8"/>
    <rect x="35" y="662" width="60" height="8" rx="4" fill="#8b5cf6"/>
    <text x="270" y="672" class="text-muted">2.1 MB / 50 MB</text>
  </g>

  <!-- Annotations -->
  <g id="annotations">
    <rect x="5" y="100" width="30" height="50" rx="4" fill="#e8d4b8" stroke="#8b5cf6" stroke-width="1"/>
    <text x="20" y="120" text-anchor="middle" class="annotation">FR</text>
    <text x="20" y="135" text-anchor="middle" class="annotation">004</text>
    <text x="20" y="148" text-anchor="middle" class="text-muted">offline</text>

    <rect x="5" y="160" width="30" height="50" rx="4" fill="#e8d4b8" stroke="#8b5cf6" stroke-width="1"/>
    <text x="20" y="180" text-anchor="middle" class="annotation">FR</text>
    <text x="20" y="195" text-anchor="middle" class="annotation">005</text>
    <text x="20" y="208" text-anchor="middle" class="text-muted">queue</text>
  </g>
</svg>
