<svg xmlns="http://www.w3.org/2000/svg" viewBox="0 0 1400 800" width="1400" height="800">
  <!-- ============================================================
       GENERATED BY: /wireframe skill
       SOURCE: features/core-features/010-unified-blog-content/spec.md
       DATE: 2026-01-01
       THEME: Light (UX/Frontend) - v3 True Parchment
       DO NOT MANUALLY EDIT - Regenerate with /wireframe command
       ============================================================ -->
  <defs>
    <linearGradient id="bgGrad" x1="0%" y1="0%" x2="100%" y2="100%">
      <stop offset="0%" style="stop-color:#c7ddf5"/>
      <stop offset="100%" style="stop-color:#b8d4f0"/>
    </linearGradient>
    <linearGradient id="accentGrad" x1="0%" y1="0%" x2="100%" y2="0%">
      <stop offset="0%" style="stop-color:#8b5cf6"/>
      <stop offset="100%" style="stop-color:#d946ef"/>
    </linearGradient>
    <style>
      .heading-lg { fill: #1a1a2e; font-family: system-ui, sans-serif; font-size: 24px; font-weight: 800; }
      .heading { fill: #1a1a2e; font-family: system-ui, sans-serif; font-size: 16px; font-weight: 700; }
      .text-md { fill: #2d3748; font-family: system-ui, sans-serif; font-size: 14px; font-weight: 500; }
      .text-sm { fill: #374151; font-family: system-ui, sans-serif; font-size: 12px; font-weight: 500; }
      .text-muted { fill: #4b5563; font-family: system-ui, sans-serif; font-size: 11px; font-weight: 500; }
      .annotation { fill: #6d28d9; font-family: monospace; font-size: 12px; font-weight: 600; }
      .label-desktop { fill: #8b5cf6; font-family: monospace; font-size: 13px; font-weight: bold; }
      .label-mobile { fill: #d946ef; font-family: monospace; font-size: 13px; font-weight: bold; }
      .code { fill: #2d3748; font-family: 'Fira Code', monospace; font-size: 11px; }
      .diff-add { fill: #166534; }
      .diff-remove { fill: #991b1b; }
    </style>
  </defs>

  <!-- Background -->
  <rect width="1400" height="800" fill="url(#bgGrad)"/>

  <!-- Dot grid pattern -->
  <g opacity="0.35">
    <pattern id="dots" width="30" height="30" patternUnits="userSpaceOnUse">
      <circle cx="15" cy="15" r="1" fill="#6b8cba"/>
    </pattern>
    <rect width="1400" height="800" fill="url(#dots)"/>
  </g>

  <!-- Accent line top -->
  <rect x="0" y="0" width="1400" height="3" fill="url(#accentGrad)"/>

  <!-- Title -->
  <text x="700" y="28" text-anchor="middle" font-family="system-ui, sans-serif" font-size="14" font-weight="600" fill="#4b5563" letter-spacing="1">THREE-WAY MERGE - CONFLICT RESOLUTION</text>

  <!-- DESKTOP SECTION -->
  <text x="40" y="52" class="label-desktop">DESKTOP - CONFLICT DETECTED</text>
  <g id="desktop-view">
    <!-- Modal overlay hint -->
    <rect x="40" y="60" width="900" height="700" rx="8" fill="#1a1a2e" opacity="0.3"/>

    <!-- Modal container -->
    <rect x="60" y="80" width="860" height="660" rx="12" fill="#e8d4b8" stroke="#ef4444" stroke-width="2"/>

    <!-- Modal header -->
    <rect x="60" y="80" width="860" height="50" rx="12" fill="#ef4444" opacity="0.1"/>
    <text x="90" y="112" class="heading" fill="#991b1b">⚠️ Merge Conflict Detected</text>
    <text x="870" y="112" text-anchor="end" class="text-md" fill="#991b1b">✕</text>

    <!-- Info banner -->
    <rect x="80" y="140" width="820" height="40" rx="6" fill="#f5f0e6" stroke="#b8a080"/>
    <text x="100" y="165" class="text-md">Post: "Building Offline-First Apps" was modified in multiple places. Choose which version to keep or merge manually.</text>

    <!-- Three-way comparison -->
    <g transform="translate(80, 195)">
      <!-- BASE version -->
      <rect x="0" y="0" width="260" height="380" rx="6" fill="#f5f0e6" stroke="#b8a080" stroke-width="1"/>
      <rect x="0" y="0" width="260" height="36" rx="6" fill="#dcc8a8"/>
      <text x="130" y="24" text-anchor="middle" class="heading">📜 Base Version</text>
      <text x="130" y="50" text-anchor="middle" class="text-muted">Last sync: Dec 31, 11:00 AM</text>

      <g transform="translate(15, 70)">
        <text x="0" y="0" class="code" fill="#8b5cf6"># Introduction</text>
        <text x="0" y="22" class="code">Building applications that</text>
        <text x="0" y="44" class="code">work offline requires</text>
        <text x="0" y="66" class="code">careful planning.</text>
        <text x="0" y="100" class="code" fill="#8b5cf6">## Service Workers</text>
        <text x="0" y="122" class="code">The foundation of</text>
        <text x="0" y="144" class="code">offline capability.</text>
        <text x="0" y="178" class="code" fill="#8b5cf6">## IndexedDB</text>
        <text x="0" y="200" class="code">Store data locally</text>
        <text x="0" y="222" class="code">for offline access.</text>
      </g>

      <!-- LOCAL version -->
      <rect x="280" y="0" width="260" height="380" rx="6" fill="#f5f0e6" stroke="#8b5cf6" stroke-width="2"/>
      <rect x="280" y="0" width="260" height="36" rx="6" fill="#8b5cf6" opacity="0.2"/>
      <text x="410" y="24" text-anchor="middle" class="heading" fill="#8b5cf6">💻 Your Version</text>
      <text x="410" y="50" text-anchor="middle" class="text-muted">Your device: Dec 31, 2:30 PM</text>

      <g transform="translate(295, 70)">
        <text x="0" y="0" class="code" fill="#8b5cf6"># Introduction</text>
        <text x="0" y="22" class="code">Building applications that</text>
        <text x="0" y="44" class="code">work offline requires</text>
        <rect x="-5" y="54" width="235" height="18" fill="#22c55e" opacity="0.2"/>
        <text x="0" y="66" class="code diff-add">+ careful planning and</text>
        <rect x="-5" y="76" width="235" height="18" fill="#22c55e" opacity="0.2"/>
        <text x="0" y="88" class="code diff-add">+ the right architecture.</text>
        <text x="0" y="120" class="code" fill="#8b5cf6">## Service Workers</text>
        <text x="0" y="142" class="code">The foundation of</text>
        <text x="0" y="164" class="code">offline capability.</text>
        <rect x="-5" y="184" width="235" height="18" fill="#22c55e" opacity="0.2"/>
        <text x="0" y="198" class="code diff-add">+ Essential for PWA.</text>
        <text x="0" y="230" class="code" fill="#8b5cf6">## IndexedDB</text>
        <text x="0" y="252" class="code">Store data locally</text>
        <text x="0" y="274" class="code">for offline access.</text>
      </g>

      <!-- REMOTE version -->
      <rect x="560" y="0" width="260" height="380" rx="6" fill="#f5f0e6" stroke="#d946ef" stroke-width="2"/>
      <rect x="560" y="0" width="260" height="36" rx="6" fill="#d946ef" opacity="0.2"/>
      <text x="690" y="24" text-anchor="middle" class="heading" fill="#d946ef">☁️ Server Version</text>
      <text x="690" y="50" text-anchor="middle" class="text-muted">From: Desktop - Dec 31, 2:15 PM</text>

      <g transform="translate(575, 70)">
        <text x="0" y="0" class="code" fill="#8b5cf6"># Introduction</text>
        <text x="0" y="22" class="code">Building applications that</text>
        <text x="0" y="44" class="code">work offline requires</text>
        <text x="0" y="66" class="code">careful planning.</text>
        <text x="0" y="100" class="code" fill="#8b5cf6">## Service Workers</text>
        <rect x="-5" y="110" width="235" height="18" fill="#22c55e" opacity="0.2"/>
        <text x="0" y="122" class="code diff-add">+ A key technology for</text>
        <rect x="-5" y="132" width="235" height="18" fill="#22c55e" opacity="0.2"/>
        <text x="0" y="144" class="code diff-add">+ modern web apps.</text>
        <text x="0" y="178" class="code" fill="#8b5cf6">## IndexedDB</text>
        <text x="0" y="200" class="code">Store data locally</text>
        <rect x="-5" y="210" width="235" height="18" fill="#ef4444" opacity="0.2"/>
        <text x="0" y="222" class="code diff-remove">- for offline access.</text>
        <rect x="-5" y="232" width="235" height="18" fill="#22c55e" opacity="0.2"/>
        <text x="0" y="244" class="code diff-add">+ for persistent storage.</text>
      </g>
    </g>

    <!-- Resolution options -->
    <rect x="80" y="590" width="820" height="130" rx="6" fill="#dcc8a8"/>
    <text x="100" y="620" class="heading">Resolution Options</text>

    <g transform="translate(100, 635)">
      <rect x="0" y="0" width="180" height="70" rx="6" fill="#8b5cf6" opacity="0.1" stroke="#8b5cf6"/>
      <text x="90" y="28" text-anchor="middle" class="text-md" fill="#8b5cf6">Use Your Version</text>
      <text x="90" y="50" text-anchor="middle" class="text-muted">Keep all local changes</text>

      <rect x="200" y="0" width="180" height="70" rx="6" fill="#d946ef" opacity="0.1" stroke="#d946ef"/>
      <text x="290" y="28" text-anchor="middle" class="text-md" fill="#d946ef">Use Server Version</text>
      <text x="290" y="50" text-anchor="middle" class="text-muted">Discard local changes</text>

      <rect x="400" y="0" width="180" height="70" rx="6" fill="#22c55e" opacity="0.1" stroke="#22c55e"/>
      <text x="490" y="28" text-anchor="middle" class="text-md" fill="#166534">Auto Merge</text>
      <text x="490" y="50" text-anchor="middle" class="text-muted">Combine both (if possible)</text>

      <rect x="600" y="0" width="180" height="70" rx="6" fill="#eab308" opacity="0.1" stroke="#eab308"/>
      <text x="690" y="28" text-anchor="middle" class="text-md" fill="#92400e">Manual Merge</text>
      <text x="690" y="50" text-anchor="middle" class="text-muted">Edit merged result</text>
    </g>
  </g>

  <!-- MOBILE SECTION -->
  <text x="980" y="52" class="label-mobile">MOBILE - CONFLICT UI</text>
  <g id="mobile-view" transform="translate(980, 60)">
    <!-- Phone frame -->
    <rect x="0" y="0" width="360" height="700" rx="24" fill="#c8b898" stroke="#a08860" stroke-width="2"/>
    <rect x="10" y="10" width="340" height="680" rx="16" fill="#e8d4b8"/>

    <!-- Status bar -->
    <rect x="10" y="10" width="340" height="28" rx="16" fill="#ef4444" opacity="0.3"/>
    <text x="30" y="28" class="text-sm">9:41</text>
    <text x="180" y="28" text-anchor="middle" class="text-sm" fill="#991b1b">⚠️ Conflict</text>
    <text x="320" y="28" text-anchor="end" class="text-sm">📶 🔋</text>

    <!-- Header -->
    <rect x="10" y="38" width="340" height="50" fill="#ef4444" opacity="0.1"/>
    <text x="30" y="70" class="text-md">← Cancel</text>
    <text x="180" y="70" text-anchor="middle" class="heading" fill="#991b1b">Resolve Conflict</text>

    <!-- Post info -->
    <rect x="20" y="100" width="320" height="60" rx="8" fill="#f5f0e6" stroke="#b8a080"/>
    <text x="40" y="125" class="text-md" font-weight="600">Building Offline-First Apps</text>
    <text x="40" y="145" class="text-muted">2 conflicting sections detected</text>

    <!-- Diff summary cards -->
    <text x="30" y="185" class="heading">Differences Found</text>

    <!-- Conflict 1 -->
    <rect x="20" y="200" width="320" height="80" rx="8" fill="#f5f0e6" stroke="#eab308" stroke-width="2"/>
    <rect x="20" y="200" width="320" height="30" rx="8" fill="#eab308" opacity="0.2"/>
    <text x="40" y="222" class="text-sm" font-weight="600">Section: Introduction</text>
    <text x="40" y="250" class="text-sm diff-add">+ You added: "the right architecture"</text>
    <text x="40" y="270" class="text-muted">Server has no changes here</text>

    <!-- Conflict 2 -->
    <rect x="20" y="295" width="320" height="95" rx="8" fill="#f5f0e6" stroke="#ef4444" stroke-width="2"/>
    <rect x="20" y="295" width="320" height="30" rx="8" fill="#ef4444" opacity="0.2"/>
    <text x="40" y="317" class="text-sm" font-weight="600">Section: Service Workers</text>
    <text x="40" y="345" class="text-sm diff-add">+ You: "Essential for PWA"</text>
    <text x="40" y="365" class="text-sm diff-add" fill="#d946ef">+ Server: "A key technology..."</text>
    <text x="40" y="382" class="text-muted">Both versions added content</text>

    <!-- Quick actions -->
    <text x="30" y="420" class="heading">Quick Resolution</text>

    <rect x="20" y="435" width="155" height="50" rx="8" fill="#8b5cf6" opacity="0.1" stroke="#8b5cf6"/>
    <text x="98" y="465" text-anchor="middle" class="text-md" fill="#8b5cf6">Use Mine</text>

    <rect x="185" y="435" width="155" height="50" rx="8" fill="#d946ef" opacity="0.1" stroke="#d946ef"/>
    <text x="263" y="465" text-anchor="middle" class="text-md" fill="#d946ef">Use Server</text>

    <!-- View full diff button -->
    <rect x="20" y="500" width="320" height="50" rx="8" fill="#f5f0e6" stroke="#b8a080"/>
    <text x="180" y="530" text-anchor="middle" class="text-md">📋 View Full Comparison</text>

    <!-- Manual merge button -->
    <rect x="20" y="565" width="320" height="50" rx="8" fill="#22c55e"/>
    <text x="180" y="595" text-anchor="middle" font-weight="600" fill="#fff">✏️ Merge Manually</text>

    <!-- Help text -->
    <rect x="20" y="630" width="320" height="50" rx="8" fill="#dcc8a8"/>
    <text x="180" y="652" text-anchor="middle" class="text-muted">Keyboard: ← for yours, → for server</text>
    <text x="180" y="670" text-anchor="middle" class="text-muted">Accessible via Tab + Enter</text>
  </g>

  <!-- Annotations -->
  <g id="annotations">
    <rect x="5" y="200" width="30" height="50" rx="4" fill="#e8d4b8" stroke="#8b5cf6" stroke-width="1"/>
    <text x="20" y="220" text-anchor="middle" class="annotation">FR</text>
    <text x="20" y="235" text-anchor="middle" class="annotation">018</text>
    <text x="20" y="248" text-anchor="middle" class="text-muted">merge</text>

    <rect x="5" y="260" width="30" height="50" rx="4" fill="#e8d4b8" stroke="#8b5cf6" stroke-width="1"/>
    <text x="20" y="280" text-anchor="middle" class="annotation">NFR</text>
    <text x="20" y="295" text-anchor="middle" class="annotation">009</text>
    <text x="20" y="308" text-anchor="middle" class="text-muted">a11y</text>
  </g>
</svg>
