<svg xmlns="http://www.w3.org/2000/svg" viewBox="0 0 1400 800" width="1400" height="800">
  <!-- ============================================================
       GENERATED BY: /wireframe skill
       SOURCE: features/core-features/010-unified-blog-content/spec.md
       DATE: 2025-12-31
       DO NOT MANUALLY EDIT - Regenerate with /wireframe command
       ============================================================ -->
  <defs>
    <linearGradient id="bgGrad" x1="0%" y1="0%" x2="100%" y2="100%">
      <stop offset="0%" style="stop-color:#0f172a"/>
      <stop offset="100%" style="stop-color:#1e293b"/>
    </linearGradient>
    <linearGradient id="accentGrad" x1="0%" y1="0%" x2="100%" y2="0%">
      <stop offset="0%" style="stop-color:#8b5cf6"/>
      <stop offset="100%" style="stop-color:#d946ef"/>
    </linearGradient>
    <style>
      .heading-lg { fill: #ffffff; font-family: system-ui, sans-serif; font-size: 20px; font-weight: bold; }
      .heading { fill: #ffffff; font-family: system-ui, sans-serif; font-size: 14px; font-weight: bold; }
      .text-md { fill: #cbd5e1; font-family: system-ui, sans-serif; font-size: 12px; }
      .text-sm { fill: #94a3b8; font-family: system-ui, sans-serif; font-size: 10px; }
      .text-muted { fill: #64748b; font-family: system-ui, sans-serif; font-size: 10px; }
      .annotation { fill: #8b5cf6; font-family: monospace; font-size: 10px; }
      .label-desktop { fill: #8b5cf6; font-family: monospace; font-size: 11px; font-weight: bold; }
      .label-mobile { fill: #d946ef; font-family: monospace; font-size: 11px; font-weight: bold; }
    </style>
  </defs>

  <!-- Background -->
  <rect width="1400" height="800" fill="url(#bgGrad)"/>

  <!-- Dot grid pattern -->
  <g opacity="0.05">
    <pattern id="dots" width="30" height="30" patternUnits="userSpaceOnUse">
      <circle cx="15" cy="15" r="1" fill="#fff"/>
    </pattern>
    <rect width="1400" height="800" fill="url(#dots)"/>
  </g>

  <!-- Accent line top -->
  <rect x="0" y="0" width="1400" height="3" fill="url(#accentGrad)"/>

  <!-- Title -->
  <text x="700" y="28" text-anchor="middle" font-family="system-ui, sans-serif" font-size="14" font-weight="600" fill="#64748b" letter-spacing="1">CONTENT MIGRATION DASHBOARD (FR-021, FR-022, FR-023, FR-024)</text>

  <!-- MAIN DASHBOARD HEADER -->
  <rect x="40" y="45" width="1320" height="60" rx="8" fill="#1e293b" stroke="#475569" stroke-width="1"/>
  <text x="60" y="82" class="heading-lg">Content Migration Dashboard</text>
  <text x="350" y="82" class="text-muted">v_001 → ScriptHammer v2</text>

  <!-- Status badges -->
  <rect x="950" y="60" width="120" height="30" rx="6" fill="#14532d"/>
  <text x="1010" y="80" text-anchor="middle" fill="#22c55e" font-size="11" font-weight="bold">24 Complete</text>

  <rect x="1080" y="60" width="100" height="30" rx="6" fill="#422006"/>
  <text x="1130" y="80" text-anchor="middle" fill="#eab308" font-size="11" font-weight="bold">3 Pending</text>

  <rect x="1190" y="60" width="80" height="30" rx="6" fill="#7f1d1d"/>
  <text x="1230" y="80" text-anchor="middle" fill="#ef4444" font-size="11" font-weight="bold">2 Failed</text>

  <!-- LEFT COLUMN: MIGRATION QUEUE -->
  <text x="40" y="130" class="heading">Migration Queue</text>
  <g transform="translate(40, 145)">
    <rect x="0" y="0" width="420" height="400" rx="8" fill="#1e293b" stroke="#475569" stroke-width="1"/>

    <!-- Search/filter -->
    <rect x="15" y="15" width="300" height="32" rx="6" fill="#0f172a" stroke="#475569" stroke-width="1"/>
    <text x="30" y="36" class="text-muted">🔍 Search posts...</text>
    <rect x="325" y="15" width="80" height="32" rx="6" fill="#334155"/>
    <text x="365" y="36" text-anchor="middle" class="text-sm">Filter ▾</text>

    <!-- Queue items -->
    <!-- Success item -->
    <rect x="15" y="60" width="390" height="55" rx="6" fill="#0f172a" stroke="#22c55e" stroke-width="1"/>
    <circle cx="35" cy="88" r="12" fill="#14532d"/>
    <text x="35" y="93" text-anchor="middle" fill="#22c55e" font-size="12">✓</text>
    <text x="55" y="80" class="text-md">Building Accessible Forms</text>
    <text x="55" y="98" class="text-muted">docs/specs/001 → features/foundation/001</text>
    <text x="350" y="88" class="text-sm" fill="#22c55e">Migrated</text>

    <!-- Success item 2 -->
    <rect x="15" y="125" width="390" height="55" rx="6" fill="#0f172a" stroke="#22c55e" stroke-width="1"/>
    <circle cx="35" cy="153" r="12" fill="#14532d"/>
    <text x="35" y="158" text-anchor="middle" fill="#22c55e" font-size="12">✓</text>
    <text x="55" y="145" class="text-md">TypeScript 5.4 Features</text>
    <text x="55" y="163" class="text-muted">docs/specs/002 → features/foundation/002</text>
    <text x="350" y="153" class="text-sm" fill="#22c55e">Migrated</text>

    <!-- Pending item -->
    <rect x="15" y="190" width="390" height="55" rx="6" fill="#0f172a" stroke="#eab308" stroke-width="1"/>
    <circle cx="35" cy="218" r="12" fill="#422006"/>
    <text x="35" y="223" text-anchor="middle" fill="#eab308" font-size="12">⏳</text>
    <text x="55" y="210" class="text-md">Supabase Edge Functions</text>
    <text x="55" y="228" class="text-muted">docs/specs/003 → features/core-features/007</text>
    <text x="350" y="218" class="text-sm" fill="#eab308">Pending</text>

    <!-- Error item -->
    <rect x="15" y="255" width="390" height="55" rx="6" fill="#0f172a" stroke="#ef4444" stroke-width="2"/>
    <circle cx="35" cy="283" r="12" fill="#7f1d1d"/>
    <text x="35" y="288" text-anchor="middle" fill="#ef4444" font-size="12">✕</text>
    <text x="55" y="275" class="text-md">Next.js 15 App Router</text>
    <text x="55" y="293" class="text-muted">Invalid frontmatter: missing 'author'</text>
    <text x="350" y="283" class="text-sm" fill="#ef4444">Failed</text>

    <!-- Another pending -->
    <rect x="15" y="320" width="390" height="55" rx="6" fill="#0f172a" stroke="#eab308" stroke-width="1"/>
    <circle cx="35" cy="348" r="12" fill="#422006"/>
    <text x="35" y="353" text-anchor="middle" fill="#eab308" font-size="12">⏳</text>
    <text x="55" y="340" class="text-md">React Server Components</text>
    <text x="55" y="358" class="text-muted">docs/specs/005 → features/core-features/009</text>
    <text x="350" y="348" class="text-sm" fill="#eab308">Pending</text>
  </g>

  <!-- CENTER COLUMN: VALIDATION ERRORS -->
  <text x="480" y="130" class="heading" fill="#ef4444">⚠ Validation Errors (FR-022)</text>
  <g transform="translate(480, 145)">
    <rect x="0" y="0" width="440" height="400" rx="8" fill="#1e293b" stroke="#ef4444" stroke-width="1"/>

    <!-- Error 1 -->
    <rect x="15" y="15" width="410" height="120" rx="6" fill="#7f1d1d" stroke="#ef4444" stroke-width="1"/>
    <text x="30" y="40" fill="#ef4444" font-size="12" font-weight="bold">Next.js 15 App Router</text>
    <text x="30" y="60" class="text-sm">Source: docs/specs/004-nextjs-app-router.md</text>

    <rect x="25" y="70" width="390" height="55" rx="4" fill="#0f172a"/>
    <text x="35" y="90" fill="#ef4444" font-family="monospace" font-size="10">Error: Missing required frontmatter field</text>
    <text x="35" y="105" fill="#fca5a5" font-family="monospace" font-size="10">  → 'author' is required but was not found</text>
    <text x="35" y="120" fill="#64748b" font-family="monospace" font-size="10">  at line 3, column 1</text>

    <!-- Error 2 -->
    <rect x="15" y="145" width="410" height="120" rx="6" fill="#7f1d1d" stroke="#ef4444" stroke-width="1"/>
    <text x="30" y="170" fill="#ef4444" font-size="12" font-weight="bold">Tailwind CSS Migration</text>
    <text x="30" y="190" class="text-sm">Source: docs/specs/008-tailwind-migration.md</text>

    <rect x="25" y="200" width="390" height="55" rx="4" fill="#0f172a"/>
    <text x="35" y="220" fill="#ef4444" font-family="monospace" font-size="10">Error: Invalid date format</text>
    <text x="35" y="235" fill="#fca5a5" font-family="monospace" font-size="10">  → 'publishDate' expected ISO 8601</text>
    <text x="35" y="250" fill="#64748b" font-family="monospace" font-size="10">  got: "Dec 15, 2025"</text>

    <!-- Fix actions -->
    <rect x="15" y="280" width="200" height="40" rx="6" fill="#8b5cf6"/>
    <text x="115" y="305" text-anchor="middle" fill="#fff" font-size="12" font-weight="bold">Fix All Errors</text>

    <rect x="225" y="280" width="200" height="40" rx="6" fill="transparent" stroke="#475569" stroke-width="1"/>
    <text x="325" y="305" text-anchor="middle" class="text-md">Skip Failed Items</text>

    <!-- Quick fix suggestions -->
    <text x="15" y="345" class="heading">Quick Fixes</text>
    <text x="15" y="365" class="text-sm" fill="#22c55e">• Add "author: anonymous" to 2 files</text>
    <text x="15" y="385" class="text-sm" fill="#22c55e">• Convert date formats to ISO 8601</text>
  </g>

  <!-- RIGHT COLUMN: MIGRATION REPORT -->
  <text x="940" y="130" class="heading">Migration Report (FR-024)</text>
  <g transform="translate(940, 145)">
    <rect x="0" y="0" width="400" height="400" rx="8" fill="#1e293b" stroke="#475569" stroke-width="1"/>

    <!-- Stats grid -->
    <g transform="translate(15, 15)">
      <rect x="0" y="0" width="180" height="70" rx="6" fill="#0f172a"/>
      <text x="15" y="30" class="text-muted">Total Posts</text>
      <text x="15" y="55" fill="#fff" font-size="24" font-weight="bold">29</text>

      <rect x="190" y="0" width="180" height="70" rx="6" fill="#0f172a"/>
      <text x="205" y="30" class="text-muted">Success Rate</text>
      <text x="205" y="55" fill="#22c55e" font-size="24" font-weight="bold">82.7%</text>
    </g>

    <!-- Progress breakdown -->
    <text x="15" y="115" class="heading">Progress</text>
    <rect x="15" y="125" width="370" height="12" rx="6" fill="#334155"/>
    <rect x="15" y="125" width="305" height="12" rx="6" fill="#22c55e"/>
    <rect x="320" y="125" width="38" height="12" rx="0" fill="#eab308"/>
    <rect x="358" y="125" width="27" height="12" rx="6" fill="#ef4444"/>

    <!-- Legend -->
    <g transform="translate(15, 150)">
      <rect x="0" y="0" width="12" height="12" rx="2" fill="#22c55e"/>
      <text x="20" y="10" class="text-sm">24 Migrated</text>
      <rect x="100" y="0" width="12" height="12" rx="2" fill="#eab308"/>
      <text x="120" y="10" class="text-sm">3 Pending</text>
      <rect x="190" y="0" width="12" height="12" rx="2" fill="#ef4444"/>
      <text x="210" y="10" class="text-sm">2 Failed</text>
    </g>

    <!-- Detailed breakdown -->
    <text x="15" y="195" class="heading">By Category</text>
    <g transform="translate(15, 210)">
      <text x="0" y="0" class="text-sm">Foundation (001-006)</text>
      <text x="300" y="0" class="text-sm" fill="#22c55e">6/6 ✓</text>

      <text x="0" y="25" class="text-sm">Core Features (007-012)</text>
      <text x="300" y="25" class="text-sm" fill="#eab308">4/6</text>

      <text x="0" y="50" class="text-sm">Auth/OAuth (013-016)</text>
      <text x="300" y="50" class="text-sm" fill="#22c55e">4/4 ✓</text>

      <text x="0" y="75" class="text-sm">Enhancements (017-021)</text>
      <text x="300" y="75" class="text-sm" fill="#22c55e">5/5 ✓</text>

      <text x="0" y="100" class="text-sm">Integrations (022-026)</text>
      <text x="300" y="100" class="text-sm" fill="#ef4444">3/5</text>
    </g>

    <!-- Export options -->
    <rect x="15" y="335" width="180" height="40" rx="6" fill="#334155"/>
    <text x="105" y="360" text-anchor="middle" class="text-md">📄 Export CSV</text>

    <rect x="205" y="335" width="180" height="40" rx="6" fill="#334155"/>
    <text x="295" y="360" text-anchor="middle" class="text-md">📊 Full Report</text>
  </g>

  <!-- BOTTOM: MIGRATION ACTIONS -->
  <rect x="40" y="560" width="1320" height="110" rx="8" fill="#1e293b" stroke="#8b5cf6" stroke-width="1"/>
  <text x="60" y="590" class="heading">Migration Actions</text>

  <!-- Source/destination paths -->
  <g transform="translate(60, 605)">
    <text x="0" y="15" class="text-muted">Source:</text>
    <rect x="60" y="0" width="400" height="28" rx="4" fill="#0f172a" stroke="#475569" stroke-width="1"/>
    <text x="75" y="19" fill="#cbd5e1" font-family="monospace" font-size="11">ScriptHammer_v_001/docs/specs/</text>

    <text x="480" y="15" class="text-muted">Destination:</text>
    <rect x="560" y="0" width="400" height="28" rx="4" fill="#0f172a" stroke="#475569" stroke-width="1"/>
    <text x="575" y="19" fill="#cbd5e1" font-family="monospace" font-size="11">ScriptHammer/features/</text>
  </g>

  <!-- Action buttons -->
  <g transform="translate(60, 640)">
    <rect x="0" y="0" width="160" height="40" rx="6" fill="#8b5cf6"/>
    <text x="80" y="25" text-anchor="middle" fill="#fff" font-size="12" font-weight="bold">▶ Run Migration</text>

    <rect x="180" y="0" width="160" height="40" rx="6" fill="transparent" stroke="#475569" stroke-width="1"/>
    <text x="260" y="25" text-anchor="middle" class="text-md">⏸ Pause</text>

    <rect x="360" y="0" width="160" height="40" rx="6" fill="transparent" stroke="#475569" stroke-width="1"/>
    <text x="440" y="25" text-anchor="middle" class="text-md">🔄 Retry Failed</text>

    <rect x="540" y="0" width="160" height="40" rx="6" fill="transparent" stroke="#ef4444" stroke-width="1"/>
    <text x="620" y="25" text-anchor="middle" fill="#ef4444" font-size="12">✕ Cancel All</text>
  </g>

  <!-- Annotation -->
  <rect x="40" y="770" width="700" height="25" rx="4" fill="#1e293b" stroke="#8b5cf6" stroke-width="1"/>
  <text x="60" y="787" class="annotation">FR-021: Frontmatter validation | FR-022: Error reporting | FR-023: Batch processing | FR-024: Migration reports</text>
</svg>
