<svg xmlns="http://www.w3.org/2000/svg" viewBox="0 0 1400 800" width="1400" height="800">
  <!-- ============================================================
       GENERATED BY: /wireframe skill
       SOURCE: features/core-features/010-unified-blog-content/spec.md
       DATE: 2026-01-01
       THEME: Dark (Backend/Architecture)
       DO NOT MANUALLY EDIT - Regenerate with /wireframe command
       ============================================================ -->
  <defs>
    <linearGradient id="bgGrad" x1="0%" y1="0%" x2="100%" y2="100%">
      <stop offset="0%" style="stop-color:#0f172a"/>
      <stop offset="100%" style="stop-color:#1e293b"/>
    </linearGradient>
    <linearGradient id="accentGrad" x1="0%" y1="0%" x2="100%" y2="0%">
      <stop offset="0%" style="stop-color:#8b5cf6"/>
      <stop offset="100%" style="stop-color:#d946ef"/>
    </linearGradient>
    <linearGradient id="successGrad" x1="0%" y1="0%" x2="100%" y2="0%">
      <stop offset="0%" style="stop-color:#22c55e"/>
      <stop offset="100%" style="stop-color:#16a34a"/>
    </linearGradient>
    <style>
      .heading-lg { fill: #ffffff; font-family: system-ui, sans-serif; font-size: 20px; font-weight: bold; }
      .heading { fill: #ffffff; font-family: system-ui, sans-serif; font-size: 14px; font-weight: bold; }
      .text-md { fill: #cbd5e1; font-family: system-ui, sans-serif; font-size: 12px; }
      .text-sm { fill: #94a3b8; font-family: system-ui, sans-serif; font-size: 10px; }
      .text-muted { fill: #8494a8; font-family: system-ui, sans-serif; font-size: 10px; }
      .annotation { fill: #6d28d9; font-family: monospace; font-size: 10px; }
      .code { fill: #22c55e; font-family: 'Fira Code', monospace; font-size: 10px; }
    </style>
  </defs>

  <!-- Background -->
  <rect width="1400" height="800" fill="url(#bgGrad)"/>

  <!-- Dot grid pattern -->
  <g opacity="0.05">
    <pattern id="dots" width="30" height="30" patternUnits="userSpaceOnUse">
      <circle cx="15" cy="15" r="1" fill="#fff"/>
    </pattern>
    <rect width="1400" height="800" fill="url(#dots)"/>
  </g>

  <!-- Accent line top -->
  <rect x="0" y="0" width="1400" height="3" fill="url(#accentGrad)"/>

  <!-- Title -->
  <text x="700" y="28" text-anchor="middle" font-family="system-ui, sans-serif" font-size="14" font-weight="600" fill="#8494a8" letter-spacing="1">CONTENT MIGRATION PIPELINE</text>

  <!-- Header stats -->
  <g transform="translate(40, 45)">
    <rect x="0" y="0" width="200" height="60" rx="8" fill="#1e293b" stroke="#475569"/>
    <text x="20" y="25" class="text-muted">Total Posts</text>
    <text x="20" y="48" class="heading-lg">57</text>
    <text x="150" y="48" class="text-sm" fill="#8b5cf6">📄</text>

    <rect x="220" y="0" width="200" height="60" rx="8" fill="#1e293b" stroke="#475569"/>
    <text x="240" y="25" class="text-muted">Migrated</text>
    <text x="240" y="48" class="heading-lg" fill="#22c55e">52</text>
    <text x="370" y="48" class="text-sm" fill="#22c55e">✓</text>

    <rect x="440" y="0" width="200" height="60" rx="8" fill="#1e293b" stroke="#475569"/>
    <text x="460" y="25" class="text-muted">In Progress</text>
    <text x="460" y="48" class="heading-lg" fill="#eab308">3</text>
    <text x="590" y="48" class="text-sm" fill="#eab308">⏳</text>

    <rect x="660" y="0" width="200" height="60" rx="8" fill="#1e293b" stroke="#475569"/>
    <text x="680" y="25" class="text-muted">Failed</text>
    <text x="680" y="48" class="heading-lg" fill="#ef4444">2</text>
    <text x="810" y="48" class="text-sm" fill="#ef4444">✕</text>

    <!-- Progress bar -->
    <rect x="880" y="0" width="480" height="60" rx="8" fill="#1e293b" stroke="#475569"/>
    <text x="900" y="25" class="text-muted">Migration Progress</text>
    <rect x="900" y="35" width="440" height="16" rx="4" fill="#334155"/>
    <rect x="900" y="35" width="401" height="16" rx="4" fill="url(#successGrad)"/>
    <text x="1320" y="48" class="text-md" fill="#22c55e">91%</text>
  </g>

  <!-- Pipeline visualization -->
  <g transform="translate(40, 130)">
    <!-- Stage 1: Source -->
    <rect x="0" y="0" width="200" height="280" rx="8" fill="#1e293b" stroke="#8b5cf6" stroke-width="2"/>
    <rect x="0" y="0" width="200" height="40" rx="8" fill="#8b5cf6" opacity="0.2"/>
    <text x="100" y="26" text-anchor="middle" class="heading">📁 Source</text>
    <text x="100" y="55" text-anchor="middle" class="text-muted">Original MD Files</text>

    <g transform="translate(15, 75)">
      <rect x="0" y="0" width="170" height="30" rx="4" fill="#334155"/>
      <text x="10" y="20" class="code">posts/offline-first.md</text>
      <rect x="0" y="35" width="170" height="30" rx="4" fill="#334155"/>
      <text x="10" y="55" class="code">posts/mdx-patterns.md</text>
      <rect x="0" y="70" width="170" height="30" rx="4" fill="#334155"/>
      <text x="10" y="90" class="code">posts/syntax-hl.md</text>
      <rect x="0" y="105" width="170" height="30" rx="4" fill="#334155"/>
      <text x="10" y="125" class="code">posts/toc-guide.md</text>
      <text x="85" y="160" text-anchor="middle" class="text-muted">... 53 more files</text>
    </g>

    <!-- Arrow 1 -->
    <g transform="translate(205, 120)">
      <line x1="0" y1="0" x2="50" y2="0" stroke="#8b5cf6" stroke-width="2" marker-end="url(#arrow)"/>
    </g>

    <!-- Stage 2: Validate -->
    <rect x="260" y="0" width="200" height="280" rx="8" fill="#1e293b" stroke="#eab308" stroke-width="2"/>
    <rect x="260" y="0" width="200" height="40" rx="8" fill="#eab308" opacity="0.2"/>
    <text x="360" y="26" text-anchor="middle" class="heading">🔍 Validate</text>
    <text x="360" y="55" text-anchor="middle" class="text-muted">Frontmatter Schema</text>

    <g transform="translate(275, 75)">
      <rect x="0" y="0" width="170" height="45" rx="4" fill="#334155"/>
      <text x="10" y="18" class="text-sm">Required Fields:</text>
      <text x="10" y="35" class="code">title, slug, author, date</text>

      <rect x="0" y="55" width="170" height="60" rx="4" fill="#334155"/>
      <text x="10" y="73" class="text-sm">Optional Fields:</text>
      <text x="10" y="90" class="code">tags, categories</text>
      <text x="10" y="105" class="code">showToc, draft, excerpt</text>

      <rect x="0" y="125" width="170" height="30" rx="4" fill="#22c55e" opacity="0.2" stroke="#22c55e"/>
      <text x="85" y="145" text-anchor="middle" class="text-md" fill="#22c55e">✓ 55 Valid</text>

      <rect x="0" y="160" width="170" height="30" rx="4" fill="#ef4444" opacity="0.2" stroke="#ef4444"/>
      <text x="85" y="180" text-anchor="middle" class="text-md" fill="#ef4444">✕ 2 Invalid</text>
    </g>

    <!-- Arrow 2 -->
    <g transform="translate(465, 120)">
      <line x1="0" y1="0" x2="50" y2="0" stroke="#eab308" stroke-width="2"/>
    </g>

    <!-- Stage 3: Transform -->
    <rect x="520" y="0" width="200" height="280" rx="8" fill="#1e293b" stroke="#d946ef" stroke-width="2"/>
    <rect x="520" y="0" width="200" height="40" rx="8" fill="#d946ef" opacity="0.2"/>
    <text x="620" y="26" text-anchor="middle" class="heading">⚙️ Transform</text>
    <text x="620" y="55" text-anchor="middle" class="text-muted">Process Content</text>

    <g transform="translate(535, 75)">
      <rect x="0" y="0" width="170" height="35" rx="4" fill="#334155"/>
      <text x="85" y="22" text-anchor="middle" class="text-md">Parse MDX/MD</text>

      <rect x="0" y="45" width="170" height="35" rx="4" fill="#334155"/>
      <text x="85" y="67" text-anchor="middle" class="text-md">Syntax Highlighting</text>

      <rect x="0" y="90" width="170" height="35" rx="4" fill="#334155"/>
      <text x="85" y="112" text-anchor="middle" class="text-md">Generate TOC</text>

      <rect x="0" y="135" width="170" height="35" rx="4" fill="#334155"/>
      <text x="85" y="157" text-anchor="middle" class="text-md">Preserve Slugs</text>

      <rect x="0" y="180" width="170" height="35" rx="4" fill="#334155"/>
      <text x="85" y="202" text-anchor="middle" class="text-md">Cache Results</text>
    </g>

    <!-- Arrow 3 -->
    <g transform="translate(725, 120)">
      <line x1="0" y1="0" x2="50" y2="0" stroke="#d946ef" stroke-width="2"/>
    </g>

    <!-- Stage 4: Load -->
    <rect x="780" y="0" width="200" height="280" rx="8" fill="#1e293b" stroke="#22c55e" stroke-width="2"/>
    <rect x="780" y="0" width="200" height="40" rx="8" fill="#22c55e" opacity="0.2"/>
    <text x="880" y="26" text-anchor="middle" class="heading">💾 Load</text>
    <text x="880" y="55" text-anchor="middle" class="text-muted">Supabase Storage</text>

    <g transform="translate(795, 75)">
      <rect x="0" y="0" width="170" height="55" rx="4" fill="#334155"/>
      <text x="10" y="20" class="text-sm">blog_posts table</text>
      <text x="10" y="38" class="code">id, content, metadata</text>
      <text x="10" y="50" class="code">created_at, updated_at</text>

      <rect x="0" y="65" width="170" height="40" rx="4" fill="#334155"/>
      <text x="10" y="85" class="text-sm">content_cache table</text>
      <text x="10" y="98" class="code">hash, html, toc_json</text>

      <rect x="0" y="115" width="170" height="40" rx="4" fill="#334155"/>
      <text x="10" y="135" class="text-sm">migration_log table</text>
      <text x="10" y="148" class="code">file, status, error</text>

      <rect x="0" y="165" width="170" height="30" rx="4" fill="#22c55e" opacity="0.2" stroke="#22c55e"/>
      <text x="85" y="185" text-anchor="middle" class="text-md" fill="#22c55e">✓ 52 Loaded</text>
    </g>

    <!-- Stage 5: Verify -->
    <rect x="1000" y="0" width="200" height="280" rx="8" fill="#1e293b" stroke="#475569" stroke-width="2"/>
    <rect x="1000" y="0" width="200" height="40" rx="8" fill="#475569"/>
    <text x="1100" y="26" text-anchor="middle" class="heading">✅ Verify</text>
    <text x="1100" y="55" text-anchor="middle" class="text-muted">URL Integrity Check</text>

    <g transform="translate(1015, 75)">
      <rect x="0" y="0" width="170" height="50" rx="4" fill="#22c55e" opacity="0.1" stroke="#22c55e"/>
      <text x="85" y="22" text-anchor="middle" class="text-sm" fill="#22c55e">URL Slugs</text>
      <text x="85" y="40" text-anchor="middle" class="text-md" fill="#22c55e">52/52 preserved</text>

      <rect x="0" y="60" width="170" height="50" rx="4" fill="#22c55e" opacity="0.1" stroke="#22c55e"/>
      <text x="85" y="82" text-anchor="middle" class="text-sm" fill="#22c55e">Metadata</text>
      <text x="85" y="100" text-anchor="middle" class="text-md" fill="#22c55e">100% intact</text>

      <rect x="0" y="120" width="170" height="50" rx="4" fill="#22c55e" opacity="0.1" stroke="#22c55e"/>
      <text x="85" y="142" text-anchor="middle" class="text-sm" fill="#22c55e">Content Hash</text>
      <text x="85" y="160" text-anchor="middle" class="text-md" fill="#22c55e">All verified</text>

      <rect x="0" y="180" width="170" height="30" rx="4" fill="#8b5cf6"/>
      <text x="85" y="200" text-anchor="middle" class="text-md" fill="#fff">View Report</text>
    </g>
  </g>

  <!-- Failed items log -->
  <g transform="translate(40, 430)">
    <rect x="0" y="0" width="600" height="170" rx="8" fill="#1e293b" stroke="#ef4444" stroke-width="2"/>
    <rect x="0" y="0" width="600" height="35" rx="8" fill="#ef4444" opacity="0.2"/>
    <text x="20" y="24" class="heading" fill="#ef4444">⚠️ Migration Errors (2)</text>

    <g transform="translate(15, 50)">
      <rect x="0" y="0" width="570" height="50" rx="4" fill="#334155"/>
      <text x="10" y="20" class="text-md">posts/broken-frontmatter.md</text>
      <text x="10" y="38" class="text-sm" fill="#ef4444">Error: Missing required field 'date' in frontmatter</text>
      <rect x="490" y="10" width="65" height="28" rx="4" fill="#eab308"/>
      <text x="523" y="29" text-anchor="middle" class="text-sm" fill="#1a1a2e">Retry</text>

      <rect x="0" y="60" width="570" height="50" rx="4" fill="#334155"/>
      <text x="10" y="80" class="text-md">posts/invalid-yaml.md</text>
      <text x="10" y="98" class="text-sm" fill="#ef4444">Error: YAML parse error at line 5 - unexpected indent</text>
      <rect x="490" y="70" width="65" height="28" rx="4" fill="#eab308"/>
      <text x="523" y="89" text-anchor="middle" class="text-sm" fill="#1a1a2e">Fix</text>
    </g>
  </g>

  <!-- Migration actions -->
  <g transform="translate(660, 430)">
    <rect x="0" y="0" width="300" height="170" rx="8" fill="#1e293b" stroke="#475569"/>
    <text x="20" y="30" class="heading">Migration Controls</text>

    <rect x="20" y="50" width="260" height="40" rx="6" fill="#22c55e"/>
    <text x="150" y="76" text-anchor="middle" class="text-md" fill="#fff">▶ Resume Migration</text>

    <rect x="20" y="100" width="125" height="40" rx="6" fill="#334155" stroke="#475569"/>
    <text x="83" y="126" text-anchor="middle" class="text-md">⏸ Pause</text>

    <rect x="155" y="100" width="125" height="40" rx="6" fill="#334155" stroke="#475569"/>
    <text x="218" y="126" text-anchor="middle" class="text-md">🔄 Restart</text>
  </g>

  <!-- Performance metrics -->
  <g transform="translate(980, 430)">
    <rect x="0" y="0" width="380" height="170" rx="8" fill="#1e293b" stroke="#475569"/>
    <text x="20" y="30" class="heading">Performance Metrics</text>

    <g transform="translate(20, 50)">
      <text x="0" y="15" class="text-muted">Avg Processing Time</text>
      <text x="180" y="15" class="text-md" fill="#22c55e">0.8s per post</text>

      <text x="0" y="40" class="text-muted">Full Build Time</text>
      <text x="180" y="40" class="text-md" fill="#22c55e">24.3s (100 posts)</text>

      <text x="0" y="65" class="text-muted">Incremental Build</text>
      <text x="180" y="65" class="text-md" fill="#22c55e">2.1s (single post)</text>

      <text x="0" y="90" class="text-muted">Cache Hit Rate</text>
      <text x="180" y="90" class="text-md" fill="#22c55e">94%</text>

      <text x="0" y="115" class="text-muted">Hot Reload Latency</text>
      <text x="180" y="115" class="text-md" fill="#22c55e">0.3s</text>
    </g>
  </g>

  <!-- Timeline -->
  <g transform="translate(40, 620)">
    <rect x="0" y="0" width="1320" height="150" rx="8" fill="#1e293b" stroke="#475569"/>
    <text x="20" y="28" class="heading">Migration Timeline</text>

    <!-- Timeline bar -->
    <line x1="40" y1="70" x2="1280" y2="70" stroke="#475569" stroke-width="2"/>

    <!-- Timeline events -->
    <g transform="translate(80, 55)">
      <circle cx="0" cy="15" r="8" fill="#22c55e"/>
      <text x="0" y="45" text-anchor="middle" class="text-sm">Started</text>
      <text x="0" y="60" text-anchor="middle" class="text-muted">2:30 PM</text>
    </g>

    <g transform="translate(300, 55)">
      <circle cx="0" cy="15" r="8" fill="#22c55e"/>
      <text x="0" y="45" text-anchor="middle" class="text-sm">Validation</text>
      <text x="0" y="60" text-anchor="middle" class="text-muted">2:31 PM</text>
    </g>

    <g transform="translate(520, 55)">
      <circle cx="0" cy="15" r="8" fill="#22c55e"/>
      <text x="0" y="45" text-anchor="middle" class="text-sm">Transform</text>
      <text x="0" y="60" text-anchor="middle" class="text-muted">2:32 PM</text>
    </g>

    <g transform="translate(740, 55)">
      <circle cx="0" cy="15" r="8" fill="#eab308"/>
      <text x="0" y="45" text-anchor="middle" class="text-sm" fill="#eab308">Loading...</text>
      <text x="0" y="60" text-anchor="middle" class="text-muted">2:35 PM</text>
    </g>

    <g transform="translate(960, 55)">
      <circle cx="0" cy="15" r="8" fill="#475569"/>
      <text x="0" y="45" text-anchor="middle" class="text-muted">Verify</text>
      <text x="0" y="60" text-anchor="middle" class="text-muted">Pending</text>
    </g>

    <g transform="translate(1180, 55)">
      <circle cx="0" cy="15" r="8" fill="#475569"/>
      <text x="0" y="45" text-anchor="middle" class="text-muted">Complete</text>
      <text x="0" y="60" text-anchor="middle" class="text-muted">~2:40 PM</text>
    </g>
  </g>
</svg>
