<svg xmlns="http://www.w3.org/2000/svg" viewBox="0 0 1400 800" width="1400" height="800">
  <!-- ============================================================
       GENERATED BY: /wireframe skill
       SOURCE: features/core-features/010-unified-blog-content/spec.md
       DATE: 2026-01-01
       THEME: Dark (Backend/Architecture)
       DO NOT MANUALLY EDIT - Regenerate with /wireframe command
       ============================================================ -->
  <defs>
    <linearGradient id="bgGrad" x1="0%" y1="0%" x2="100%" y2="100%">
      <stop offset="0%" style="stop-color:#0f172a"/>
      <stop offset="100%" style="stop-color:#1e293b"/>
    </linearGradient>
    <linearGradient id="accentGrad" x1="0%" y1="0%" x2="100%" y2="0%">
      <stop offset="0%" style="stop-color:#8b5cf6"/>
      <stop offset="100%" style="stop-color:#d946ef"/>
    </linearGradient>
    <marker id="arrow" markerWidth="10" markerHeight="10" refX="9" refY="3" orient="auto" markerUnits="strokeWidth">
      <path d="M0,0 L0,6 L9,3 z" fill="#8b5cf6"/>
    </marker>
    <marker id="arrowGreen" markerWidth="10" markerHeight="10" refX="9" refY="3" orient="auto" markerUnits="strokeWidth">
      <path d="M0,0 L0,6 L9,3 z" fill="#22c55e"/>
    </marker>
    <marker id="arrowYellow" markerWidth="10" markerHeight="10" refX="9" refY="3" orient="auto" markerUnits="strokeWidth">
      <path d="M0,0 L0,6 L9,3 z" fill="#eab308"/>
    </marker>
    <style>
      .heading-lg { fill: #ffffff; font-family: system-ui, sans-serif; font-size: 20px; font-weight: bold; }
      .heading { fill: #ffffff; font-family: system-ui, sans-serif; font-size: 14px; font-weight: bold; }
      .text-md { fill: #cbd5e1; font-family: system-ui, sans-serif; font-size: 12px; }
      .text-sm { fill: #94a3b8; font-family: system-ui, sans-serif; font-size: 10px; }
      .text-muted { fill: #8494a8; font-family: system-ui, sans-serif; font-size: 10px; }
      .annotation { fill: #6d28d9; font-family: monospace; font-size: 10px; }
    </style>
  </defs>

  <!-- Background -->
  <rect width="1400" height="800" fill="url(#bgGrad)"/>

  <!-- Dot grid pattern -->
  <g opacity="0.05">
    <pattern id="dots" width="30" height="30" patternUnits="userSpaceOnUse">
      <circle cx="15" cy="15" r="1" fill="#fff"/>
    </pattern>
    <rect width="1400" height="800" fill="url(#dots)"/>
  </g>

  <!-- Accent line top -->
  <rect x="0" y="0" width="1400" height="3" fill="url(#accentGrad)"/>

  <!-- Title -->
  <text x="700" y="28" text-anchor="middle" font-family="system-ui, sans-serif" font-size="14" font-weight="600" fill="#8494a8" letter-spacing="1">OFFLINE-FIRST CONTENT SYNC ARCHITECTURE</text>

  <!-- Legend -->
  <g transform="translate(1100, 40)">
    <rect x="0" y="0" width="260" height="80" rx="6" fill="#1e293b" stroke="#475569"/>
    <text x="15" y="22" class="text-sm">Legend:</text>
    <line x1="15" y1="38" x2="55" y2="38" stroke="#22c55e" stroke-width="2" marker-end="url(#arrowGreen)"/>
    <text x="70" y="42" class="text-sm">Online sync</text>
    <line x1="15" y1="58" x2="55" y2="58" stroke="#eab308" stroke-width="2" stroke-dasharray="4,2" marker-end="url(#arrowYellow)"/>
    <text x="70" y="62" class="text-sm">Offline queue</text>
    <line x1="140" y1="38" x2="180" y2="38" stroke="#ef4444" stroke-width="2"/>
    <text x="195" y="42" class="text-sm">Conflict</text>
  </g>

  <!-- Client Layer -->
  <g transform="translate(40, 130)">
    <text x="0" y="0" class="heading-lg" fill="#8b5cf6">CLIENT LAYER</text>

    <!-- Browser -->
    <rect x="0" y="20" width="380" height="280" rx="8" fill="#1e293b" stroke="#8b5cf6" stroke-width="2"/>
    <rect x="0" y="20" width="380" height="35" rx="8" fill="#8b5cf6" opacity="0.2"/>
    <text x="190" y="45" text-anchor="middle" class="heading">🌐 Browser</text>

    <!-- React App -->
    <rect x="15" y="70" width="160" height="100" rx="6" fill="#334155" stroke="#8b5cf6"/>
    <text x="95" y="95" text-anchor="middle" class="text-md" fill="#8b5cf6">React App</text>
    <text x="95" y="115" text-anchor="middle" class="text-sm">Blog Editor</text>
    <text x="95" y="135" text-anchor="middle" class="text-sm">Markdown Parser</text>
    <text x="95" y="155" text-anchor="middle" class="text-sm">Live Preview</text>

    <!-- Service Worker -->
    <rect x="190" y="70" width="175" height="100" rx="6" fill="#334155" stroke="#d946ef"/>
    <text x="278" y="95" text-anchor="middle" class="text-md" fill="#d946ef">Service Worker</text>
    <text x="278" y="115" text-anchor="middle" class="text-sm">Request Intercept</text>
    <text x="278" y="135" text-anchor="middle" class="text-sm">Cache Strategy</text>
    <text x="278" y="155" text-anchor="middle" class="text-sm">Background Sync</text>

    <!-- IndexedDB -->
    <rect x="15" y="185" width="160" height="100" rx="6" fill="#334155" stroke="#22c55e"/>
    <text x="95" y="210" text-anchor="middle" class="text-md" fill="#22c55e">IndexedDB</text>
    <text x="95" y="235" text-anchor="middle" class="text-sm">posts (offline cache)</text>
    <text x="95" y="255" text-anchor="middle" class="text-sm">sync_queue</text>
    <text x="95" y="275" text-anchor="middle" class="text-sm">content_versions</text>

    <!-- Sync Queue -->
    <rect x="190" y="185" width="175" height="100" rx="6" fill="#334155" stroke="#eab308"/>
    <text x="278" y="210" text-anchor="middle" class="text-md" fill="#eab308">Sync Queue</text>
    <text x="278" y="235" text-anchor="middle" class="text-sm">Pending: 3 changes</text>
    <text x="278" y="255" text-anchor="middle" class="text-sm">State: waiting</text>
    <text x="278" y="275" text-anchor="middle" class="text-sm">Retry: exponential</text>
  </g>

  <!-- Sync Layer -->
  <g transform="translate(480, 130)">
    <text x="0" y="0" class="heading-lg" fill="#d946ef">SYNC LAYER</text>

    <rect x="0" y="20" width="320" height="280" rx="8" fill="#1e293b" stroke="#d946ef" stroke-width="2"/>
    <rect x="0" y="20" width="320" height="35" rx="8" fill="#d946ef" opacity="0.2"/>
    <text x="160" y="45" text-anchor="middle" class="heading">🔄 Sync Engine</text>

    <!-- Conflict Detector -->
    <rect x="15" y="70" width="140" height="90" rx="6" fill="#334155" stroke="#ef4444"/>
    <text x="85" y="95" text-anchor="middle" class="text-md" fill="#ef4444">Conflict Detector</text>
    <text x="85" y="115" text-anchor="middle" class="text-sm">Version compare</text>
    <text x="85" y="135" text-anchor="middle" class="text-sm">Hash validation</text>
    <text x="85" y="150" text-anchor="middle" class="text-sm">Timestamp check</text>

    <!-- Merge Engine -->
    <rect x="165" y="70" width="140" height="90" rx="6" fill="#334155" stroke="#8b5cf6"/>
    <text x="235" y="95" text-anchor="middle" class="text-md" fill="#8b5cf6">Merge Engine</text>
    <text x="235" y="115" text-anchor="middle" class="text-sm">Three-way diff</text>
    <text x="235" y="135" text-anchor="middle" class="text-sm">Auto-merge</text>
    <text x="235" y="150" text-anchor="middle" class="text-sm">Manual resolve</text>

    <!-- State Machine -->
    <rect x="15" y="175" width="290" height="110" rx="6" fill="#334155" stroke="#475569"/>
    <text x="160" y="200" text-anchor="middle" class="heading">State Machine</text>

    <g transform="translate(30, 215)">
      <rect x="0" y="0" width="60" height="25" rx="4" fill="#22c55e" opacity="0.3"/>
      <text x="30" y="17" text-anchor="middle" class="text-sm" fill="#22c55e">synced</text>

      <line x1="65" y1="12" x2="85" y2="12" stroke="#475569" stroke-width="1"/>

      <rect x="90" y="0" width="60" height="25" rx="4" fill="#8b5cf6" opacity="0.3"/>
      <text x="120" y="17" text-anchor="middle" class="text-sm" fill="#8b5cf6">pending</text>

      <line x1="155" y1="12" x2="175" y2="12" stroke="#475569" stroke-width="1"/>

      <rect x="180" y="0" width="60" height="25" rx="4" fill="#eab308" opacity="0.3"/>
      <text x="210" y="17" text-anchor="middle" class="text-sm" fill="#eab308">syncing</text>
    </g>

    <g transform="translate(75, 250)">
      <rect x="0" y="0" width="60" height="25" rx="4" fill="#ef4444" opacity="0.3"/>
      <text x="30" y="17" text-anchor="middle" class="text-sm" fill="#ef4444">conflict</text>

      <line x1="65" y1="12" x2="85" y2="12" stroke="#475569" stroke-width="1"/>

      <rect x="90" y="0" width="70" height="25" rx="4" fill="#22c55e" opacity="0.3"/>
      <text x="125" y="17" text-anchor="middle" class="text-sm" fill="#22c55e">resolved</text>
    </g>
  </g>

  <!-- Server Layer -->
  <g transform="translate(860, 130)">
    <text x="0" y="0" class="heading-lg" fill="#22c55e">SERVER LAYER</text>

    <rect x="0" y="20" width="500" height="280" rx="8" fill="#1e293b" stroke="#22c55e" stroke-width="2"/>
    <rect x="0" y="20" width="500" height="35" rx="8" fill="#22c55e" opacity="0.2"/>
    <text x="250" y="45" text-anchor="middle" class="heading">☁️ Supabase Backend</text>

    <!-- Edge Functions -->
    <rect x="15" y="70" width="150" height="100" rx="6" fill="#334155" stroke="#d946ef"/>
    <text x="90" y="95" text-anchor="middle" class="text-md" fill="#d946ef">Edge Functions</text>
    <text x="90" y="120" text-anchor="middle" class="text-sm">/api/sync</text>
    <text x="90" y="140" text-anchor="middle" class="text-sm">/api/resolve</text>
    <text x="90" y="160" text-anchor="middle" class="text-sm">/api/migrate</text>

    <!-- PostgreSQL -->
    <rect x="175" y="70" width="150" height="100" rx="6" fill="#334155" stroke="#8b5cf6"/>
    <text x="250" y="95" text-anchor="middle" class="text-md" fill="#8b5cf6">PostgreSQL</text>
    <text x="250" y="120" text-anchor="middle" class="text-sm">blog_posts</text>
    <text x="250" y="140" text-anchor="middle" class="text-sm">content_versions</text>
    <text x="250" y="160" text-anchor="middle" class="text-sm">sync_log</text>

    <!-- Realtime -->
    <rect x="335" y="70" width="150" height="100" rx="6" fill="#334155" stroke="#22c55e"/>
    <text x="410" y="95" text-anchor="middle" class="text-md" fill="#22c55e">Realtime</text>
    <text x="410" y="120" text-anchor="middle" class="text-sm">WebSocket</text>
    <text x="410" y="140" text-anchor="middle" class="text-sm">Presence</text>
    <text x="410" y="160" text-anchor="middle" class="text-sm">Broadcasts</text>

    <!-- RLS Policies -->
    <rect x="15" y="185" width="230" height="100" rx="6" fill="#334155" stroke="#eab308"/>
    <text x="130" y="210" text-anchor="middle" class="text-md" fill="#eab308">RLS Policies</text>
    <text x="130" y="235" text-anchor="middle" class="text-sm">SELECT: auth.uid() = author_id</text>
    <text x="130" y="255" text-anchor="middle" class="text-sm">UPDATE: own posts only</text>
    <text x="130" y="275" text-anchor="middle" class="text-sm">DELETE: admin or author</text>

    <!-- Storage -->
    <rect x="255" y="185" width="230" height="100" rx="6" fill="#334155" stroke="#475569"/>
    <text x="370" y="210" text-anchor="middle" class="text-md">Storage Buckets</text>
    <text x="370" y="235" text-anchor="middle" class="text-sm">blog-images/</text>
    <text x="370" y="255" text-anchor="middle" class="text-sm">content-cache/</text>
    <text x="370" y="275" text-anchor="middle" class="text-sm">migration-backups/</text>
  </g>

  <!-- Connection arrows -->
  <g id="connections">
    <!-- React to IndexedDB -->
    <path d="M95,300 L95,315" stroke="#8b5cf6" stroke-width="2" fill="none" marker-end="url(#arrow)"/>

    <!-- React to Service Worker -->
    <path d="M175,200 L230,200" stroke="#8b5cf6" stroke-width="2" fill="none" marker-end="url(#arrow)"/>

    <!-- Service Worker to Sync Queue -->
    <path d="M318,300 L318,315" stroke="#eab308" stroke-width="2" stroke-dasharray="4,2" fill="none" marker-end="url(#arrowYellow)"/>

    <!-- Client to Sync Layer -->
    <path d="M420,290 L480,290" stroke="#22c55e" stroke-width="2" fill="none" marker-end="url(#arrowGreen)"/>

    <!-- Sync Layer to Server -->
    <path d="M800,290 L860,290" stroke="#22c55e" stroke-width="2" fill="none" marker-end="url(#arrowGreen)"/>

    <!-- Offline queue indicator -->
    <path d="M420,350 Q450,380 480,350" stroke="#eab308" stroke-width="2" stroke-dasharray="4,2" fill="none" marker-end="url(#arrowYellow)"/>
  </g>

  <!-- Data Flow Section -->
  <g transform="translate(40, 450)">
    <text x="0" y="0" class="heading-lg">DATA FLOW SCENARIOS</text>

    <!-- Online Edit -->
    <rect x="0" y="20" width="420" height="130" rx="8" fill="#1e293b" stroke="#22c55e"/>
    <rect x="0" y="20" width="420" height="30" rx="8" fill="#22c55e" opacity="0.2"/>
    <text x="20" y="42" class="heading" fill="#22c55e">✓ Online Edit Flow</text>

    <g transform="translate(20, 60)">
      <rect x="0" y="0" width="70" height="35" rx="4" fill="#334155"/>
      <text x="35" y="22" text-anchor="middle" class="text-sm">Edit</text>
      <line x1="75" y1="17" x2="95" y2="17" stroke="#22c55e" stroke-width="2" marker-end="url(#arrowGreen)"/>

      <rect x="100" y="0" width="70" height="35" rx="4" fill="#334155"/>
      <text x="135" y="22" text-anchor="middle" class="text-sm">Save</text>
      <line x1="175" y1="17" x2="195" y2="17" stroke="#22c55e" stroke-width="2" marker-end="url(#arrowGreen)"/>

      <rect x="200" y="0" width="70" height="35" rx="4" fill="#334155"/>
      <text x="235" y="22" text-anchor="middle" class="text-sm">Sync</text>
      <line x1="275" y1="17" x2="295" y2="17" stroke="#22c55e" stroke-width="2" marker-end="url(#arrowGreen)"/>

      <rect x="300" y="0" width="90" height="35" rx="4" fill="#22c55e" opacity="0.3"/>
      <text x="345" y="22" text-anchor="middle" class="text-sm" fill="#22c55e">Confirmed</text>
    </g>

    <text x="20" y="115" class="text-muted">Latency: &lt;500ms | Realtime broadcast to other clients</text>

    <!-- Offline Edit -->
    <rect x="440" y="20" width="420" height="130" rx="8" fill="#1e293b" stroke="#eab308"/>
    <rect x="440" y="20" width="420" height="30" rx="8" fill="#eab308" opacity="0.2"/>
    <text x="460" y="42" class="heading" fill="#eab308">📴 Offline Edit Flow</text>

    <g transform="translate(460, 60)">
      <rect x="0" y="0" width="60" height="35" rx="4" fill="#334155"/>
      <text x="30" y="22" text-anchor="middle" class="text-sm">Edit</text>
      <line x1="65" y1="17" x2="85" y2="17" stroke="#eab308" stroke-width="2" stroke-dasharray="4,2" marker-end="url(#arrowYellow)"/>

      <rect x="90" y="0" width="70" height="35" rx="4" fill="#334155"/>
      <text x="125" y="22" text-anchor="middle" class="text-sm">IndexedDB</text>
      <line x1="165" y1="17" x2="185" y2="17" stroke="#eab308" stroke-width="2" stroke-dasharray="4,2" marker-end="url(#arrowYellow)"/>

      <rect x="190" y="0" width="60" height="35" rx="4" fill="#eab308" opacity="0.3"/>
      <text x="220" y="22" text-anchor="middle" class="text-sm" fill="#eab308">Queue</text>
      <line x1="255" y1="17" x2="275" y2="17" stroke="#22c55e" stroke-width="2" marker-end="url(#arrowGreen)"/>

      <rect x="280" y="0" width="95" height="35" rx="4" fill="#22c55e" opacity="0.3"/>
      <text x="328" y="22" text-anchor="middle" class="text-sm" fill="#22c55e">→ Online Sync</text>
    </g>

    <text x="460" y="115" class="text-muted">Auto-queue on save | Sync on reconnect | 100% data integrity</text>

    <!-- Conflict Flow -->
    <rect x="880" y="20" width="480" height="130" rx="8" fill="#1e293b" stroke="#ef4444"/>
    <rect x="880" y="20" width="480" height="30" rx="8" fill="#ef4444" opacity="0.2"/>
    <text x="900" y="42" class="heading" fill="#ef4444">⚠️ Conflict Resolution Flow</text>

    <g transform="translate(900, 60)">
      <rect x="0" y="0" width="80" height="35" rx="4" fill="#ef4444" opacity="0.3"/>
      <text x="40" y="22" text-anchor="middle" class="text-sm" fill="#ef4444">Conflict</text>
      <line x1="85" y1="17" x2="105" y2="17" stroke="#ef4444" stroke-width="2"/>

      <rect x="110" y="0" width="100" height="35" rx="4" fill="#334155"/>
      <text x="160" y="22" text-anchor="middle" class="text-sm">Three-way UI</text>
      <line x1="215" y1="17" x2="235" y2="17" stroke="#8b5cf6" stroke-width="2" marker-end="url(#arrow)"/>

      <rect x="240" y="0" width="90" height="35" rx="4" fill="#334155"/>
      <text x="285" y="22" text-anchor="middle" class="text-sm">User Choice</text>
      <line x1="335" y1="17" x2="355" y2="17" stroke="#22c55e" stroke-width="2" marker-end="url(#arrowGreen)"/>

      <rect x="360" y="0" width="95" height="35" rx="4" fill="#22c55e" opacity="0.3"/>
      <text x="408" y="22" text-anchor="middle" class="text-sm" fill="#22c55e">Resolved</text>
    </g>

    <text x="900" y="115" class="text-muted">Shows base + local + remote | Visual diff | Keyboard accessible</text>
  </g>

  <!-- Key Entities -->
  <g transform="translate(40, 610)">
    <text x="0" y="0" class="heading-lg">KEY ENTITIES (from spec)</text>

    <rect x="0" y="20" width="260" height="150" rx="8" fill="#1e293b" stroke="#8b5cf6"/>
    <text x="20" y="48" class="heading" fill="#8b5cf6">Blog Post</text>
    <text x="20" y="70" class="text-sm">• content: markdown/MDX</text>
    <text x="20" y="88" class="text-sm">• title, slug, author, date</text>
    <text x="20" y="106" class="text-sm">• tags[], categories[]</text>
    <text x="20" y="124" class="text-sm">• showToc, draft, excerpt</text>
    <text x="20" y="142" class="text-sm">• created_at, updated_at</text>
    <text x="20" y="160" class="text-muted">Required: title, slug, author, date</text>

    <rect x="280" y="20" width="260" height="150" rx="8" fill="#1e293b" stroke="#eab308"/>
    <text x="300" y="48" class="heading" fill="#eab308">Sync Queue</text>
    <text x="300" y="70" class="text-sm">• post_id: uuid</text>
    <text x="300" y="88" class="text-sm">• change_type: create|update|delete</text>
    <text x="300" y="106" class="text-sm">• content_diff: json</text>
    <text x="300" y="124" class="text-sm">• timestamp: iso8601</text>
    <text x="300" y="142" class="text-sm">• status: pending|syncing|synced</text>
    <text x="300" y="160" class="text-muted">Exponential backoff on retry</text>

    <rect x="560" y="20" width="260" height="150" rx="8" fill="#1e293b" stroke="#d946ef"/>
    <text x="580" y="48" class="heading" fill="#d946ef">Content Version</text>
    <text x="580" y="70" class="text-sm">• version_id: uuid</text>
    <text x="580" y="88" class="text-sm">• post_id: fk → blog_posts</text>
    <text x="580" y="106" class="text-sm">• content_hash: sha256</text>
    <text x="580" y="124" class="text-sm">• type: base|local|remote</text>
    <text x="580" y="142" class="text-sm">• snapshot: json</text>
    <text x="580" y="160" class="text-muted">Used for three-way merge</text>

    <rect x="840" y="20" width="260" height="150" rx="8" fill="#1e293b" stroke="#22c55e"/>
    <text x="860" y="48" class="heading" fill="#22c55e">Processing Cache</text>
    <text x="860" y="70" class="text-sm">• cache_key: content_hash</text>
    <text x="860" y="88" class="text-sm">• html: rendered output</text>
    <text x="860" y="106" class="text-sm">• toc_json: headings tree</text>
    <text x="860" y="124" class="text-sm">• syntax_hl: code blocks</text>
    <text x="860" y="142" class="text-sm">• expires_at: timestamp</text>
    <text x="860" y="160" class="text-muted">94% cache hit rate target</text>

    <rect x="1120" y="20" width="240" height="150" rx="8" fill="#1e293b" stroke="#475569"/>
    <text x="1140" y="48" class="heading">Performance Targets</text>
    <text x="1140" y="72" class="text-sm" fill="#22c55e">✓ Hot reload: &lt;2s</text>
    <text x="1140" y="92" class="text-sm" fill="#22c55e">✓ Incremental: &lt;5s</text>
    <text x="1140" y="112" class="text-sm" fill="#22c55e">✓ Full build: &lt;30s (100 posts)</text>
    <text x="1140" y="132" class="text-sm" fill="#22c55e">✓ Sync integrity: 100%</text>
    <text x="1140" y="152" class="text-sm" fill="#22c55e">✓ Conflict detection: 100%</text>
  </g>
</svg>
