<svg xmlns="http://www.w3.org/2000/svg" viewBox="0 0 1400 800" width="1400" height="800">
  <!-- ============================================================
       GENERATED BY: /wireframe skill
       SOURCE: features/core-features/008-on-the-account/spec.md
       DATE: 2026-01-01
       THEME: Light (UX/Frontend) - v3 True Parchment
       DO NOT MANUALLY EDIT - Regenerate with /wireframe command
       ============================================================ -->
  <defs>
    <linearGradient id="bgGrad" x1="0%" y1="0%" x2="100%" y2="100%">
      <stop offset="0%" style="stop-color:#c7ddf5"/>
      <stop offset="100%" style="stop-color:#b8d4f0"/>
    </linearGradient>
    <linearGradient id="accentGrad" x1="0%" y1="0%" x2="100%" y2="0%">
      <stop offset="0%" style="stop-color:#8b5cf6"/>
      <stop offset="100%" style="stop-color:#d946ef"/>
    </linearGradient>
    <style>
      .heading-lg { fill: #1a1a2e; font-family: system-ui, sans-serif; font-size: 24px; font-weight: 800; }
      .heading { fill: #1a1a2e; font-family: system-ui, sans-serif; font-size: 16px; font-weight: 700; }
      .text-md { fill: #2d3748; font-family: system-ui, sans-serif; font-size: 14px; font-weight: 500; }
      .text-sm { fill: #4a5568; font-family: system-ui, sans-serif; font-size: 12px; font-weight: 500; }
      .text-muted { fill: #5a6577; font-family: system-ui, sans-serif; font-size: 11px; font-weight: 500; }
      .annotation { fill: #8b5cf6; font-family: monospace; font-size: 12px; font-weight: 600; }
      .label-desktop { fill: #8b5cf6; font-family: monospace; font-size: 13px; font-weight: bold; }
      .label-mobile { fill: #d946ef; font-family: monospace; font-size: 13px; font-weight: bold; }
      .spec-label { fill: #22c55e; font-family: monospace; font-size: 10px; font-weight: 600; }
    </style>
  </defs>

  <!-- Background -->
  <rect width="1400" height="800" fill="url(#bgGrad)"/>

  <!-- Dot grid pattern -->
  <g opacity="0.35">
    <pattern id="dots" width="30" height="30" patternUnits="userSpaceOnUse">
      <circle cx="15" cy="15" r="1" fill="#6b8cba"/>
    </pattern>
    <rect width="1400" height="800" fill="url(#dots)"/>
  </g>

  <!-- Accent line top -->
  <rect x="0" y="0" width="1400" height="3" fill="url(#accentGrad)"/>

  <!-- Title -->
  <text x="700" y="28" text-anchor="middle" font-family="system-ui, sans-serif" font-size="14" font-weight="600" fill="#5a6577" letter-spacing="1">ACCOUNT SETTINGS — AVATAR UPLOAD SECTION</text>

  <!-- DESKTOP SECTION -->
  <text x="40" y="52" class="label-desktop">DESKTOP</text>
  <g id="desktop-view">
    <!-- Main container -->
    <rect x="40" y="60" width="900" height="700" rx="8" fill="#e8d4b8" stroke="#b8a080" stroke-width="1"/>

    <!-- Header -->
    <rect x="50" y="70" width="880" height="50" rx="6" fill="#dcc8a8" stroke="#b8a080"/>
    <rect x="60" y="80" width="100" height="30" rx="4" fill="#8b5cf6"/>
    <text x="110" y="100" text-anchor="middle" fill="#fff" font-size="12" font-weight="bold">YourApp</text>
    <text x="200" y="100" class="text-md">Home</text>
    <text x="260" y="100" class="text-md">Messages</text>
    <text x="340" y="100" class="text-md">Settings</text>

    <!-- User menu (right side) -->
    <circle cx="880" cy="95" r="18" fill="#8b5cf6"/>
    <text x="880" y="100" text-anchor="middle" fill="#fff" font-size="12" font-weight="bold">JD</text>

    <!-- Settings sidebar -->
    <rect x="50" y="130" width="200" height="620" rx="6" fill="#dcc8a8" stroke="#b8a080"/>
    <text x="70" y="160" class="heading">Settings</text>

    <rect x="60" y="175" width="180" height="40" rx="4" fill="#8b5cf6" opacity="0.2" stroke="#8b5cf6"/>
    <text x="80" y="200" class="text-md" fill="#8b5cf6">👤 Account</text>

    <rect x="60" y="225" width="180" height="40" rx="4" fill="#e8d4b8"/>
    <text x="80" y="250" class="text-md">🔔 Notifications</text>

    <rect x="60" y="275" width="180" height="40" rx="4" fill="#e8d4b8"/>
    <text x="80" y="300" class="text-md">🔒 Privacy</text>

    <rect x="60" y="325" width="180" height="40" rx="4" fill="#e8d4b8"/>
    <text x="80" y="350" class="text-md">🎨 Appearance</text>

    <!-- Main content area -->
    <g id="account-settings" transform="translate(265, 130)">
      <rect x="0" y="0" width="665" height="620" rx="6" fill="#f5f0e6" stroke="#b8a080"/>

      <text x="20" y="35" class="heading-lg">Account Settings</text>
      <text x="20" y="55" class="text-muted">Manage your profile and preferences</text>

      <!-- Avatar Section -->
      <rect x="20" y="75" width="625" height="200" rx="6" fill="#e8d4b8" stroke="#b8a080"/>
      <text x="40" y="105" class="heading">Profile Picture</text>

      <!-- Default avatar state (initials) -->
      <g id="default-avatar" transform="translate(40, 120)">
        <circle cx="50" cy="50" r="50" fill="#8b5cf6"/>
        <text x="50" y="60" text-anchor="middle" fill="#fff" font-size="28" font-weight="bold">JD</text>

        <!-- Upload button -->
        <rect x="120" y="15" width="140" height="40" rx="6" fill="#8b5cf6"/>
        <text x="190" y="40" text-anchor="middle" fill="#fff" font-size="12" font-weight="bold">Upload Avatar</text>

        <!-- Remove button (disabled for default) -->
        <rect x="270" y="15" width="130" height="40" rx="6" fill="#dcc8a8" stroke="#b8a080"/>
        <text x="335" y="40" text-anchor="middle" class="text-muted">Remove</text>

        <!-- Helper text -->
        <text x="120" y="80" class="text-sm">JPEG, PNG, or WebP • Max 5MB</text>
        <text x="120" y="98" class="text-sm">Minimum 200×200 pixels</text>
      </g>

      <!-- Annotation for avatar section -->
      <rect x="430" y="130" width="200" height="55" rx="4" fill="#e8d4b8" stroke="#8b5cf6" stroke-width="1"/>
      <text x="530" y="150" text-anchor="middle" class="annotation">FR-001, FR-019</text>
      <text x="530" y="170" text-anchor="middle" class="spec-label">Default = initials</text>

      <!-- Profile Info Section -->
      <rect x="20" y="290" width="625" height="180" rx="6" fill="#e8d4b8" stroke="#b8a080"/>
      <text x="40" y="320" class="heading">Profile Information</text>

      <!-- Name field -->
      <text x="40" y="355" class="text-sm">Display Name</text>
      <rect x="40" y="365" width="280" height="36" rx="6" fill="#f5f0e6" stroke="#b8a080"/>
      <text x="55" y="388" class="text-md">John Doe</text>

      <!-- Email field -->
      <text x="340" y="355" class="text-sm">Email Address</text>
      <rect x="340" y="365" width="280" height="36" rx="6" fill="#f5f0e6" stroke="#b8a080"/>
      <text x="355" y="388" class="text-md">john@example.com</text>

      <!-- Save button -->
      <rect x="520" y="420" width="100" height="36" rx="6" fill="#8b5cf6"/>
      <text x="570" y="443" text-anchor="middle" fill="#fff" font-size="12" font-weight="bold">Save</text>

      <!-- Danger Zone -->
      <rect x="20" y="485" width="625" height="110" rx="6" fill="#ef4444" opacity="0.1" stroke="#ef4444"/>
      <text x="40" y="515" class="heading" fill="#ef4444">Danger Zone</text>
      <text x="40" y="540" class="text-sm">Once you delete your account, there is no going back.</text>

      <rect x="40" y="555" width="150" height="32" rx="6" fill="#ef4444"/>
      <text x="115" y="576" text-anchor="middle" fill="#fff" font-size="11" font-weight="bold">Delete Account</text>
    </g>
  </g>

  <!-- MOBILE SECTION -->
  <text x="980" y="52" class="label-mobile">MOBILE</text>
  <g id="mobile-view" transform="translate(980, 60)">
    <!-- Phone frame -->
    <rect x="0" y="0" width="360" height="700" rx="24" fill="#c8b898" stroke="#a08860" stroke-width="2"/>
    <rect x="10" y="10" width="340" height="680" rx="16" fill="#e8d4b8"/>

    <!-- Status bar -->
    <rect x="10" y="10" width="340" height="28" rx="16" fill="#dcc8a8"/>
    <text x="30" y="28" class="text-sm">9:41</text>
    <text x="300" y="28" class="text-sm">📶 🔋</text>

    <!-- Header -->
    <rect x="20" y="48" width="320" height="44" rx="6" fill="#dcc8a8" stroke="#b8a080"/>
    <rect x="30" y="55" width="28" height="28" rx="4" fill="#8b5cf6"/>
    <text x="44" y="74" text-anchor="middle" fill="#fff" font-size="10">←</text>
    <text x="180" y="75" text-anchor="middle" class="heading">Account</text>

    <!-- Avatar section -->
    <g transform="translate(20, 105)">
      <rect x="0" y="0" width="320" height="170" rx="6" fill="#f5f0e6" stroke="#b8a080"/>
      <text x="15" y="28" class="heading">Profile Picture</text>

      <!-- Avatar centered -->
      <circle cx="160" cy="75" r="40" fill="#8b5cf6"/>
      <text x="160" y="85" text-anchor="middle" fill="#fff" font-size="22" font-weight="bold">JD</text>

      <!-- Buttons row -->
      <rect x="50" y="125" width="100" height="32" rx="6" fill="#8b5cf6"/>
      <text x="100" y="146" text-anchor="middle" fill="#fff" font-size="10" font-weight="bold">Upload</text>

      <rect x="165" y="125" width="100" height="32" rx="6" fill="#dcc8a8" stroke="#b8a080"/>
      <text x="215" y="146" text-anchor="middle" class="text-muted">Remove</text>
    </g>

    <!-- File requirements -->
    <g transform="translate(20, 285)">
      <rect x="0" y="0" width="320" height="45" rx="4" fill="#dcc8a8"/>
      <text x="160" y="18" text-anchor="middle" class="text-sm">JPEG, PNG, WebP • Max 5MB</text>
      <text x="160" y="35" text-anchor="middle" class="text-sm">Min 200×200px</text>
    </g>

    <!-- Profile form -->
    <g transform="translate(20, 345)">
      <rect x="0" y="0" width="320" height="180" rx="6" fill="#f5f0e6" stroke="#b8a080"/>
      <text x="15" y="28" class="heading">Profile Info</text>

      <text x="15" y="55" class="text-sm">Display Name</text>
      <rect x="15" y="65" width="290" height="36" rx="6" fill="#e8d4b8" stroke="#b8a080"/>
      <text x="30" y="88" class="text-md">John Doe</text>

      <text x="15" y="120" class="text-sm">Email</text>
      <rect x="15" y="130" width="290" height="36" rx="6" fill="#e8d4b8" stroke="#b8a080"/>
      <text x="30" y="153" class="text-md">john@example.com</text>
    </g>

    <!-- Save button -->
    <rect x="20" y="540" width="320" height="44" rx="6" fill="#8b5cf6"/>
    <text x="180" y="567" text-anchor="middle" fill="#fff" font-size="14" font-weight="bold">Save Changes</text>

    <!-- Delete section -->
    <rect x="20" y="600" width="320" height="70" rx="6" fill="#ef4444" opacity="0.1" stroke="#ef4444"/>
    <text x="180" y="625" text-anchor="middle" class="text-sm" fill="#ef4444">Danger Zone</text>
    <rect x="100" y="638" width="160" height="26" rx="4" fill="#ef4444"/>
    <text x="180" y="655" text-anchor="middle" fill="#fff" font-size="10">Delete Account</text>
  </g>

  <!-- AVATAR WITH CUSTOM IMAGE (variation) -->
  <g id="custom-avatar-variation" transform="translate(40, 520)">
    <rect x="0" y="0" width="440" height="120" rx="6" fill="#f5f0e6" stroke="#8b5cf6" stroke-width="2"/>
    <text x="220" y="25" text-anchor="middle" class="annotation">VARIATION: Custom Avatar Uploaded</text>

    <!-- Avatar with image placeholder -->
    <circle cx="70" cy="75" r="35" fill="#dcc8a8" stroke="#8b5cf6" stroke-width="2"/>
    <text x="70" y="80" text-anchor="middle" class="text-sm">📷</text>

    <!-- Buttons -->
    <rect x="120" y="55" width="100" height="32" rx="6" fill="#8b5cf6"/>
    <text x="170" y="76" text-anchor="middle" fill="#fff" font-size="10" font-weight="bold">Change</text>

    <rect x="230" y="55" width="100" height="32" rx="6" fill="#ef4444" opacity="0.8"/>
    <text x="280" y="76" text-anchor="middle" fill="#fff" font-size="10" font-weight="bold">Remove</text>

    <text x="350" y="70" class="spec-label">FR-021</text>
    <text x="350" y="85" class="text-muted">FR-013, FR-014</text>
  </g>

  <!-- REQUIREMENTS SUMMARY -->
  <g id="requirements" transform="translate(500, 520)">
    <rect x="0" y="0" width="440" height="120" rx="6" fill="#e8d4b8" stroke="#b8a080"/>
    <text x="220" y="25" text-anchor="middle" class="heading">Upload Requirements</text>

    <g transform="translate(20, 40)">
      <rect x="0" y="0" width="130" height="30" rx="4" fill="#f5f0e6"/>
      <text x="65" y="20" text-anchor="middle" class="spec-label">FR-002</text>
      <text x="65" y="35" class="text-muted">JPEG/PNG/WebP</text>

      <rect x="145" y="0" width="130" height="30" rx="4" fill="#f5f0e6"/>
      <text x="210" y="20" text-anchor="middle" class="spec-label">FR-003</text>
      <text x="210" y="35" class="text-muted">Max 5MB</text>

      <rect x="290" y="0" width="130" height="30" rx="4" fill="#f5f0e6"/>
      <text x="355" y="20" text-anchor="middle" class="spec-label">FR-007</text>
      <text x="355" y="35" class="text-muted">Min 200×200</text>
    </g>

    <g transform="translate(20, 80)">
      <rect x="0" y="0" width="200" height="25" rx="4" fill="#22c55e" opacity="0.15"/>
      <text x="100" y="17" text-anchor="middle" class="spec-label">FR-023 to FR-027: A11y</text>

      <rect x="220" y="0" width="200" height="25" rx="4" fill="#22c55e" opacity="0.15"/>
      <text x="320" y="17" text-anchor="middle" class="spec-label">NFR-003: WCAG 2.1 AA</text>
    </g>
  </g>

  <!-- Accessibility annotations -->
  <g id="a11y-callout" transform="translate(40, 660)">
    <rect x="0" y="0" width="900" height="100" rx="6" fill="#22c55e" opacity="0.1" stroke="#22c55e" stroke-width="2"/>
    <text x="450" y="25" text-anchor="middle" class="heading" fill="#22c55e">Accessibility Requirements</text>

    <g transform="translate(20, 40)">
      <rect x="0" y="0" width="200" height="45" rx="4" fill="#e8d4b8"/>
      <text x="15" y="18" class="spec-label">FR-023</text>
      <text x="15" y="35" class="text-md">Keyboard navigable</text>

      <rect x="220" y="0" width="200" height="45" rx="4" fill="#e8d4b8"/>
      <text x="235" y="18" class="spec-label">FR-024</text>
      <text x="235" y="35" class="text-md">Screen reader status</text>

      <rect x="440" y="0" width="200" height="45" rx="4" fill="#e8d4b8"/>
      <text x="455" y="18" class="spec-label">FR-026</text>
      <text x="455" y="35" class="text-md">Visible focus indicators</text>

      <rect x="660" y="0" width="200" height="45" rx="4" fill="#e8d4b8"/>
      <text x="675" y="18" class="spec-label">NFR-004</text>
      <text x="675" y="35" class="text-md">44×44px touch targets</text>
    </g>
  </g>

  <!-- Leader lines -->
  <g id="leader-lines">
  </g>
</svg>
