<svg xmlns="http://www.w3.org/2000/svg" viewBox="0 0 1400 800" width="1400" height="800">
  <!-- ============================================================
       GENERATED BY: /wireframe skill
       SOURCE: features/core-features/008-on-the-account/spec.md
       DATE: 2025-12-31
       DO NOT MANUALLY EDIT - Regenerate with /wireframe command
       ============================================================ -->
  <defs>
    <linearGradient id="bgGrad" x1="0%" y1="0%" x2="100%" y2="100%">
      <stop offset="0%" style="stop-color:#0f172a"/>
      <stop offset="100%" style="stop-color:#1e293b"/>
    </linearGradient>
    <linearGradient id="accentGrad" x1="0%" y1="0%" x2="100%" y2="0%">
      <stop offset="0%" style="stop-color:#8b5cf6"/>
      <stop offset="100%" style="stop-color:#d946ef"/>
    </linearGradient>
    <style>
      .heading-lg { fill: #ffffff; font-family: system-ui, sans-serif; font-size: 20px; font-weight: bold; }
      .heading { fill: #ffffff; font-family: system-ui, sans-serif; font-size: 14px; font-weight: bold; }
      .text-md { fill: #cbd5e1; font-family: system-ui, sans-serif; font-size: 12px; }
      .text-sm { fill: #94a3b8; font-family: system-ui, sans-serif; font-size: 10px; }
      .text-muted { fill: #64748b; font-family: system-ui, sans-serif; font-size: 10px; }
      .annotation { fill: #8b5cf6; font-family: monospace; font-size: 10px; }
      .label-desktop { fill: #8b5cf6; font-family: monospace; font-size: 11px; font-weight: bold; }
      .label-mobile { fill: #d946ef; font-family: monospace; font-size: 11px; font-weight: bold; }
    </style>
  </defs>

  <!-- Background -->
  <rect width="1400" height="800" fill="url(#bgGrad)"/>

  <!-- Dot grid pattern -->
  <g opacity="0.05">
    <pattern id="dots" width="30" height="30" patternUnits="userSpaceOnUse">
      <circle cx="15" cy="15" r="1" fill="#fff"/>
    </pattern>
    <rect width="1400" height="800" fill="url(#dots)"/>
  </g>

  <!-- Accent line top -->
  <rect x="0" y="0" width="1400" height="3" fill="url(#accentGrad)"/>

  <!-- Title -->
  <text x="700" y="28" text-anchor="middle" font-family="system-ui, sans-serif" font-size="14" font-weight="600" fill="#64748b" letter-spacing="1">ACCOUNT SETTINGS - AVATAR UPLOAD (FR-001, FR-019, FR-020)</text>

  <!-- DESKTOP SECTION -->
  <text x="40" y="52" class="label-desktop">DESKTOP - ACCOUNT SETTINGS</text>
  <g id="desktop-view">
    <!-- Main container -->
    <rect x="40" y="60" width="900" height="700" rx="8" fill="#0f172a" stroke="#475569" stroke-width="1"/>

    <!-- Header -->
    <rect x="40" y="60" width="900" height="50" rx="8" fill="#1e293b"/>
    <circle cx="80" cy="85" r="16" fill="#8b5cf6"/>
    <text x="80" y="90" text-anchor="middle" fill="#fff" font-size="10" font-weight="bold">SH</text>
    <text x="110" y="90" class="heading">ScriptHammer</text>
    <text x="850" y="90" class="text-sm">jane.doe@example.com ▾</text>

    <!-- Sidebar -->
    <rect x="50" y="120" width="180" height="630" rx="6" fill="#1e293b"/>
    <text x="65" y="150" class="text-sm" fill="#64748b">SETTINGS</text>
    <rect x="55" y="165" width="170" height="36" rx="4" fill="#334155"/>
    <text x="70" y="188" class="text-md" fill="#8b5cf6">👤 Profile</text>
    <text x="70" y="220" class="text-md">🔒 Security</text>
    <text x="70" y="252" class="text-md">🔔 Notifications</text>
    <text x="70" y="284" class="text-md">🎨 Appearance</text>
    <text x="70" y="316" class="text-md">💳 Billing</text>

    <!-- Main content area -->
    <rect x="240" y="120" width="690" height="630" rx="6" fill="#1e293b"/>

    <!-- Page title -->
    <text x="270" y="155" class="heading-lg">Profile Settings</text>
    <text x="270" y="175" class="text-muted">Manage your profile information and avatar</text>

    <!-- Avatar section -->
    <rect x="260" y="200" width="650" height="200" rx="8" fill="#0f172a" stroke="#475569" stroke-width="1"/>
    <text x="280" y="230" class="heading">Profile Picture</text>

    <!-- Default avatar (initials) -->
    <circle cx="340" cy="310" r="50" fill="#334155" stroke="#475569" stroke-width="2"/>
    <text x="340" y="320" text-anchor="middle" fill="#8b5cf6" font-size="28" font-weight="bold">JD</text>
    <text x="280" y="385" class="text-muted">Default: User initials</text>

    <!-- OR divider -->
    <line x1="420" y1="260" x2="420" y2="380" stroke="#475569" stroke-width="1"/>
    <text x="420" y="320" text-anchor="middle" class="text-muted">OR</text>

    <!-- Custom avatar example -->
    <circle cx="520" cy="310" r="50" fill="#475569" stroke="#8b5cf6" stroke-width="2"/>
    <text x="520" y="315" text-anchor="middle" class="text-muted">📷</text>
    <text x="460" y="385" class="text-muted">Custom avatar uploaded</text>

    <!-- Upload button -->
    <rect x="620" y="280" width="160" height="40" rx="6" fill="#8b5cf6"/>
    <text x="700" y="305" text-anchor="middle" fill="#fff" font-size="12" font-weight="bold">Upload Avatar</text>

    <!-- Remove button (shown when avatar exists) -->
    <rect x="620" y="330" width="160" height="36" rx="6" fill="transparent" stroke="#ef4444" stroke-width="1"/>
    <text x="700" y="353" text-anchor="middle" fill="#ef4444" font-size="11">Remove Avatar</text>

    <!-- File requirements -->
    <text x="620" y="385" class="text-muted">JPEG, PNG, WebP • Max 5MB</text>

    <!-- Other profile fields -->
    <rect x="260" y="420" width="650" height="320" rx="8" fill="#0f172a" stroke="#475569" stroke-width="1"/>
    <text x="280" y="455" class="heading">Account Information</text>

    <!-- Display name -->
    <text x="280" y="490" class="text-sm">Display Name</text>
    <rect x="280" y="500" width="300" height="36" rx="6" fill="#334155" stroke="#475569" stroke-width="1"/>
    <text x="295" y="523" class="text-md">Jane Doe</text>

    <!-- Email -->
    <text x="280" y="560" class="text-sm">Email Address</text>
    <rect x="280" y="570" width="300" height="36" rx="6" fill="#334155" stroke="#475569" stroke-width="1"/>
    <text x="295" y="593" class="text-md">jane.doe@example.com</text>

    <!-- Bio -->
    <text x="280" y="630" class="text-sm">Bio</text>
    <rect x="280" y="640" width="600" height="70" rx="6" fill="#334155" stroke="#475569" stroke-width="1"/>
    <text x="295" y="665" class="text-md">Software developer passionate about</text>
    <text x="295" y="685" class="text-md">accessible web experiences.</text>

    <!-- Save button -->
    <rect x="760" y="560" width="120" height="40" rx="6" fill="#8b5cf6"/>
    <text x="820" y="585" text-anchor="middle" fill="#fff" font-size="12" font-weight="bold">Save Changes</text>
  </g>

  <!-- MOBILE SECTION -->
  <text x="980" y="52" class="label-mobile">MOBILE (390px)</text>
  <g id="mobile-view" transform="translate(980, 60)">
    <!-- Phone frame -->
    <rect x="0" y="0" width="360" height="700" rx="24" fill="#1e293b" stroke="#475569" stroke-width="2"/>
    <rect x="10" y="10" width="340" height="680" rx="16" fill="#0f172a"/>

    <!-- Status bar -->
    <rect x="10" y="10" width="340" height="28" rx="16" fill="#1e293b"/>
    <text x="30" y="28" class="text-sm">9:41</text>
    <text x="300" y="28" class="text-sm">📶 🔋</text>

    <!-- Header -->
    <rect x="10" y="38" width="340" height="44" fill="#1e293b"/>
    <text x="30" y="66" class="text-sm">← Back</text>
    <text x="180" y="66" text-anchor="middle" class="heading">Profile</text>

    <!-- Avatar section -->
    <g transform="translate(10, 90)">
      <!-- Avatar centered -->
      <circle cx="170" cy="60" r="50" fill="#334155" stroke="#475569" stroke-width="2"/>
      <text x="170" y="70" text-anchor="middle" fill="#8b5cf6" font-size="28" font-weight="bold">JD</text>

      <!-- Upload button below avatar -->
      <rect x="85" y="130" width="170" height="40" rx="6" fill="#8b5cf6"/>
      <text x="170" y="155" text-anchor="middle" fill="#fff" font-size="12" font-weight="bold">Upload Avatar</text>

      <!-- File requirements -->
      <text x="170" y="190" text-anchor="middle" class="text-muted">JPEG, PNG, WebP • Max 5MB</text>

      <!-- Form fields -->
      <text x="15" y="230" class="text-sm">Display Name</text>
      <rect x="15" y="240" width="310" height="40" rx="6" fill="#334155" stroke="#475569" stroke-width="1"/>
      <text x="30" y="265" class="text-md">Jane Doe</text>

      <text x="15" y="305" class="text-sm">Email Address</text>
      <rect x="15" y="315" width="310" height="40" rx="6" fill="#334155" stroke="#475569" stroke-width="1"/>
      <text x="30" y="340" class="text-md">jane.doe@example.com</text>

      <text x="15" y="380" class="text-sm">Bio</text>
      <rect x="15" y="390" width="310" height="80" rx="6" fill="#334155" stroke="#475569" stroke-width="1"/>
      <text x="30" y="415" class="text-md">Software developer passionate</text>
      <text x="30" y="435" class="text-md">about accessible web experiences.</text>

      <!-- Save button -->
      <rect x="15" y="490" width="310" height="44" rx="6" fill="#8b5cf6"/>
      <text x="170" y="517" text-anchor="middle" fill="#fff" font-size="14" font-weight="bold">Save Changes</text>
    </g>
  </g>

  <!-- Annotation boxes -->
  <rect x="40" y="770" width="400" height="25" rx="4" fill="#1e293b" stroke="#8b5cf6" stroke-width="1"/>
  <text x="60" y="787" class="annotation">FR-001: Upload button on Account Settings | FR-019: Default initials avatar</text>

  <rect x="460" y="770" width="350" height="25" rx="4" fill="#1e293b" stroke="#8b5cf6" stroke-width="1"/>
  <text x="480" y="787" class="annotation">FR-020: Consistent avatar display across all pages</text>
</svg>
