<svg xmlns="http://www.w3.org/2000/svg" viewBox="0 0 1400 800" width="1400" height="800">
  <!-- ============================================================
       GENERATED BY: /wireframe skill
       SOURCE: features/core-features/008-on-the-account/spec.md
       DATE: 2025-12-31
       DO NOT MANUALLY EDIT - Regenerate with /wireframe command
       ============================================================ -->
  <defs>
    <linearGradient id="bgGrad" x1="0%" y1="0%" x2="100%" y2="100%">
      <stop offset="0%" style="stop-color:#0f172a"/>
      <stop offset="100%" style="stop-color:#1e293b"/>
    </linearGradient>
    <linearGradient id="accentGrad" x1="0%" y1="0%" x2="100%" y2="0%">
      <stop offset="0%" style="stop-color:#8b5cf6"/>
      <stop offset="100%" style="stop-color:#d946ef"/>
    </linearGradient>
    <style>
      .heading-lg { fill: #ffffff; font-family: system-ui, sans-serif; font-size: 20px; font-weight: bold; }
      .heading { fill: #ffffff; font-family: system-ui, sans-serif; font-size: 14px; font-weight: bold; }
      .text-md { fill: #cbd5e1; font-family: system-ui, sans-serif; font-size: 12px; }
      .text-sm { fill: #94a3b8; font-family: system-ui, sans-serif; font-size: 10px; }
      .text-muted { fill: #64748b; font-family: system-ui, sans-serif; font-size: 10px; }
      .annotation { fill: #8b5cf6; font-family: monospace; font-size: 10px; }
      .label-desktop { fill: #8b5cf6; font-family: monospace; font-size: 11px; font-weight: bold; }
      .label-mobile { fill: #d946ef; font-family: monospace; font-size: 11px; font-weight: bold; }
    </style>
  </defs>

  <!-- Background -->
  <rect width="1400" height="800" fill="url(#bgGrad)"/>

  <!-- Dot grid pattern -->
  <g opacity="0.05">
    <pattern id="dots" width="30" height="30" patternUnits="userSpaceOnUse">
      <circle cx="15" cy="15" r="1" fill="#fff"/>
    </pattern>
    <rect width="1400" height="800" fill="url(#dots)"/>
  </g>

  <!-- Accent line top -->
  <rect x="0" y="0" width="1400" height="3" fill="url(#accentGrad)"/>

  <!-- Title -->
  <text x="700" y="28" text-anchor="middle" font-family="system-ui, sans-serif" font-size="14" font-weight="600" fill="#64748b" letter-spacing="1">AVATAR CROP INTERFACE (FR-006, FR-007, FR-008, FR-009)</text>

  <!-- DESKTOP CROP MODAL -->
  <text x="40" y="52" class="label-desktop">DESKTOP - CROP MODAL</text>
  <g id="desktop-view">
    <!-- Backdrop overlay -->
    <rect x="40" y="60" width="900" height="700" rx="8" fill="#0f172a" opacity="0.9"/>

    <!-- Modal container -->
    <rect x="100" y="100" width="780" height="620" rx="12" fill="#1e293b" stroke="#475569" stroke-width="1"/>

    <!-- Modal header -->
    <rect x="100" y="100" width="780" height="50" rx="12" fill="#334155"/>
    <text x="130" y="130" class="heading-lg">Crop Your Avatar</text>
    <text x="840" y="130" fill="#94a3b8" font-size="18" style="cursor:pointer">✕</text>

    <!-- Crop area -->
    <rect x="130" y="170" width="400" height="400" rx="8" fill="#0f172a" stroke="#475569" stroke-width="1"/>

    <!-- Simulated image with crop overlay -->
    <rect x="140" y="180" width="380" height="380" fill="#475569"/>
    <text x="330" y="370" text-anchor="middle" class="text-muted">Original Image</text>

    <!-- Circular crop mask visualization -->
    <circle cx="330" cy="370" r="150" fill="none" stroke="#8b5cf6" stroke-width="3" stroke-dasharray="8,4"/>

    <!-- Corner handles -->
    <rect x="175" y="215" width="12" height="12" fill="#8b5cf6" rx="2"/>
    <rect x="473" y="215" width="12" height="12" fill="#8b5cf6" rx="2"/>
    <rect x="175" y="513" width="12" height="12" fill="#8b5cf6" rx="2"/>
    <rect x="473" y="513" width="12" height="12" fill="#8b5cf6" rx="2"/>

    <!-- Crop controls -->
    <text x="130" y="600" class="text-sm">Drag to position • Corners to resize</text>
    <text x="130" y="620" class="text-muted">Minimum: 200×200px</text>

    <!-- Preview section -->
    <rect x="560" y="170" width="290" height="280" rx="8" fill="#0f172a" stroke="#475569" stroke-width="1"/>
    <text x="580" y="200" class="heading">Preview</text>

    <!-- Large preview -->
    <text x="580" y="230" class="text-muted">Profile (large)</text>
    <circle cx="650" cy="300" r="50" fill="#475569" stroke="#8b5cf6" stroke-width="2"/>
    <text x="650" y="305" text-anchor="middle" class="text-muted">100px</text>

    <!-- Small preview -->
    <text x="740" y="230" class="text-muted">Comments (small)</text>
    <circle cx="770" cy="290" r="24" fill="#475569" stroke="#8b5cf6" stroke-width="1"/>
    <text x="770" y="295" text-anchor="middle" class="text-muted" font-size="8">48px</text>

    <!-- How it will look in context -->
    <rect x="580" y="360" width="250" height="70" rx="6" fill="#334155"/>
    <circle cx="610" cy="395" r="20" fill="#475569"/>
    <text x="640" y="390" class="text-md" fill="#fff">Jane Doe</text>
    <text x="640" y="408" class="text-muted">Posted a comment...</text>

    <!-- Zoom slider -->
    <rect x="560" y="470" width="290" height="60" rx="8" fill="#0f172a" stroke="#475569" stroke-width="1"/>
    <text x="580" y="495" class="text-sm">Zoom</text>
    <rect x="580" y="505" width="200" height="8" rx="4" fill="#334155"/>
    <rect x="580" y="505" width="100" height="8" rx="4" fill="#8b5cf6"/>
    <circle cx="680" cy="509" r="8" fill="#fff"/>
    <text x="800" y="512" class="text-md">100%</text>

    <!-- Action buttons -->
    <rect x="560" y="560" width="130" height="44" rx="6" fill="transparent" stroke="#475569" stroke-width="1"/>
    <text x="625" y="587" text-anchor="middle" class="text-md">Cancel</text>

    <rect x="700" y="560" width="150" height="44" rx="6" fill="#8b5cf6"/>
    <text x="775" y="587" text-anchor="middle" fill="#fff" font-size="13" font-weight="bold">Save Avatar</text>

    <!-- Keyboard hint -->
    <text x="560" y="630" class="text-muted">Tab/Arrows for keyboard navigation (FR-025)</text>
  </g>

  <!-- MOBILE CROP -->
  <text x="980" y="52" class="label-mobile">MOBILE CROP</text>
  <g id="mobile-view" transform="translate(980, 60)">
    <!-- Phone frame -->
    <rect x="0" y="0" width="360" height="700" rx="24" fill="#1e293b" stroke="#475569" stroke-width="2"/>
    <rect x="10" y="10" width="340" height="680" rx="16" fill="#0f172a"/>

    <!-- Status bar -->
    <rect x="10" y="10" width="340" height="28" rx="16" fill="#1e293b"/>
    <text x="30" y="28" class="text-sm">9:41</text>
    <text x="300" y="28" class="text-sm">📶 🔋</text>

    <!-- Header -->
    <rect x="10" y="38" width="340" height="44" fill="#1e293b"/>
    <text x="30" y="66" fill="#ef4444" font-size="12">Cancel</text>
    <text x="180" y="66" text-anchor="middle" class="heading">Crop Avatar</text>
    <text x="320" y="66" fill="#8b5cf6" font-size="12">Save</text>

    <!-- Crop area - full width -->
    <rect x="20" y="92" width="320" height="320" fill="#475569"/>

    <!-- Circular crop overlay -->
    <circle cx="180" cy="252" r="140" fill="none" stroke="#8b5cf6" stroke-width="3" stroke-dasharray="8,4"/>

    <!-- Corner handles -->
    <rect x="35" y="107" width="16" height="16" fill="#8b5cf6" rx="2"/>
    <rect x="309" y="107" width="16" height="16" fill="#8b5cf6" rx="2"/>
    <rect x="35" y="391" width="16" height="16" fill="#8b5cf6" rx="2"/>
    <rect x="309" y="391" width="16" height="16" fill="#8b5cf6" rx="2"/>

    <!-- Instruction -->
    <text x="180" y="440" text-anchor="middle" class="text-sm">Pinch to zoom • Drag to position</text>

    <!-- Zoom slider -->
    <rect x="30" y="460" width="300" height="40" rx="6" fill="#1e293b"/>
    <text x="50" y="485" class="text-muted">🔍</text>
    <rect x="80" y="477" width="200" height="6" rx="3" fill="#334155"/>
    <rect x="80" y="477" width="100" height="6" rx="3" fill="#8b5cf6"/>
    <circle cx="180" cy="480" r="10" fill="#fff"/>
    <text x="300" y="485" class="text-sm">100%</text>

    <!-- Preview -->
    <rect x="30" y="520" width="300" height="100" rx="8" fill="#1e293b"/>
    <text x="50" y="545" class="text-sm">Preview</text>
    <circle cx="70" cy="585" r="30" fill="#475569" stroke="#8b5cf6" stroke-width="2"/>
    <circle cx="150" cy="585" r="20" fill="#475569" stroke="#8b5cf6" stroke-width="1"/>
    <text x="200" y="575" class="text-muted">Large</text>
    <text x="200" y="595" class="text-muted">Small</text>

    <!-- Bottom action -->
    <rect x="30" y="640" width="300" height="44" rx="6" fill="#8b5cf6"/>
    <text x="180" y="667" text-anchor="middle" fill="#fff" font-size="14" font-weight="bold">Save Avatar</text>
  </g>

  <!-- Annotation boxes -->
  <rect x="40" y="770" width="350" height="25" rx="4" fill="#1e293b" stroke="#8b5cf6" stroke-width="1"/>
  <text x="60" y="787" class="annotation">FR-006: Crop interface | FR-007: Min 200×200px selection</text>

  <rect x="410" y="770" width="360" height="25" rx="4" fill="#1e293b" stroke="#8b5cf6" stroke-width="1"/>
  <text x="430" y="787" class="annotation">FR-008: Output 800×800 WebP | FR-009: Client-side processing</text>
</svg>
