<svg xmlns="http://www.w3.org/2000/svg" viewBox="0 0 1400 800" width="1400" height="800">
  <!-- ============================================================
       GENERATED BY: /wireframe skill
       SOURCE: features/core-features/008-on-the-account/spec.md
       DATE: 2026-01-01
       THEME: Light (UX/Frontend) - v3 True Parchment
       DO NOT MANUALLY EDIT - Regenerate with /wireframe command
       ============================================================ -->
  <defs>
    <linearGradient id="bgGrad" x1="0%" y1="0%" x2="100%" y2="100%">
      <stop offset="0%" style="stop-color:#c7ddf5"/>
      <stop offset="100%" style="stop-color:#b8d4f0"/>
    </linearGradient>
    <linearGradient id="accentGrad" x1="0%" y1="0%" x2="100%" y2="0%">
      <stop offset="0%" style="stop-color:#8b5cf6"/>
      <stop offset="100%" style="stop-color:#d946ef"/>
    </linearGradient>
    <style>
      .heading-lg { fill: #1a1a2e; font-family: system-ui, sans-serif; font-size: 24px; font-weight: 800; }
      .heading { fill: #1a1a2e; font-family: system-ui, sans-serif; font-size: 16px; font-weight: 700; }
      .text-md { fill: #2d3748; font-family: system-ui, sans-serif; font-size: 14px; font-weight: 500; }
      .text-sm { fill: #4a5568; font-family: system-ui, sans-serif; font-size: 12px; font-weight: 500; }
      .text-muted { fill: #5a6577; font-family: system-ui, sans-serif; font-size: 11px; font-weight: 500; }
      .annotation { fill: #8b5cf6; font-family: monospace; font-size: 12px; font-weight: 600; }
      .label-desktop { fill: #8b5cf6; font-family: monospace; font-size: 13px; font-weight: bold; }
      .label-mobile { fill: #d946ef; font-family: monospace; font-size: 13px; font-weight: bold; }
      .spec-label { fill: #22c55e; font-family: monospace; font-size: 10px; font-weight: 600; }
    </style>
  </defs>

  <!-- Background -->
  <rect width="1400" height="800" fill="url(#bgGrad)"/>

  <!-- Dot grid pattern -->
  <g opacity="0.35">
    <pattern id="dots" width="30" height="30" patternUnits="userSpaceOnUse">
      <circle cx="15" cy="15" r="1" fill="#6b8cba"/>
    </pattern>
    <rect width="1400" height="800" fill="url(#dots)"/>
  </g>

  <!-- Accent line top -->
  <rect x="0" y="0" width="1400" height="3" fill="url(#accentGrad)"/>

  <!-- Title -->
  <text x="700" y="28" text-anchor="middle" font-family="system-ui, sans-serif" font-size="14" font-weight="600" fill="#5a6577" letter-spacing="1">CROP INTERFACE — IMAGE POSITIONING &amp; FRAMING</text>

  <!-- DESKTOP CROP MODAL -->
  <text x="40" y="52" class="label-desktop">DESKTOP — CROP MODAL</text>
  <g id="desktop-modal">
    <!-- Modal backdrop -->
    <rect x="40" y="60" width="900" height="700" rx="8" fill="#1a1a2e" opacity="0.6"/>

    <!-- Modal container -->
    <rect x="100" y="100" width="780" height="620" rx="12" fill="#e8d4b8" stroke="#b8a080" stroke-width="2"/>

    <!-- Modal header -->
    <rect x="110" y="110" width="760" height="50" rx="8" fill="#dcc8a8"/>
    <text x="130" y="142" class="heading-lg">Crop Your Avatar</text>

    <!-- Close button -->
    <rect x="820" y="120" width="36" height="30" rx="6" fill="#dcc8a8" stroke="#b8a080"/>
    <text x="838" y="140" text-anchor="middle" class="text-md">✕</text>

    <!-- Image preview area -->
    <rect x="130" y="175" width="520" height="400" rx="8" fill="#1a1a2e"/>

    <!-- Image placeholder -->
    <rect x="160" y="200" width="460" height="350" rx="4" fill="#475569"/>
    <text x="390" y="380" text-anchor="middle" fill="#94a3b8" font-size="14">Your uploaded image</text>

    <!-- Crop selection overlay -->
    <rect x="200" y="240" width="280" height="280" rx="0" fill="none" stroke="#8b5cf6" stroke-width="3" stroke-dasharray="10,5"/>

    <!-- Corner handles -->
    <rect x="192" y="232" width="16" height="16" rx="2" fill="#8b5cf6"/>
    <rect x="472" y="232" width="16" height="16" rx="2" fill="#8b5cf6"/>
    <rect x="192" y="512" width="16" height="16" rx="2" fill="#8b5cf6"/>
    <rect x="472" y="512" width="16" height="16" rx="2" fill="#8b5cf6"/>

    <!-- Crop dimension indicator -->
    <rect x="280" y="530" width="120" height="25" rx="4" fill="#8b5cf6"/>
    <text x="340" y="548" text-anchor="middle" fill="#fff" font-size="11">280 × 280 px</text>

    <!-- Controls panel -->
    <g id="crop-controls" transform="translate(670, 175)">
      <rect x="0" y="0" width="200" height="400" rx="8" fill="#f5f0e6" stroke="#b8a080"/>

      <text x="100" y="30" text-anchor="middle" class="heading">Controls</text>

      <!-- Zoom control -->
      <text x="20" y="60" class="text-sm">Zoom</text>
      <rect x="20" y="70" width="160" height="8" rx="4" fill="#dcc8a8"/>
      <rect x="20" y="70" width="80" height="8" rx="4" fill="#8b5cf6"/>
      <circle cx="100" cy="74" r="10" fill="#8b5cf6" stroke="#fff" stroke-width="2"/>

      <!-- Rotation control -->
      <text x="20" y="110" class="text-sm">Rotation</text>
      <rect x="20" y="120" width="160" height="8" rx="4" fill="#dcc8a8"/>
      <rect x="20" y="120" width="80" height="8" rx="4" fill="#8b5cf6"/>
      <circle cx="100" cy="124" r="10" fill="#8b5cf6" stroke="#fff" stroke-width="2"/>

      <!-- Aspect ratio -->
      <text x="20" y="165" class="text-sm">Aspect Ratio</text>
      <rect x="20" y="180" width="70" height="32" rx="6" fill="#8b5cf6"/>
      <text x="55" y="200" text-anchor="middle" fill="#fff" font-size="10">1:1</text>
      <rect x="100" y="180" width="80" height="32" rx="6" fill="#dcc8a8" stroke="#b8a080"/>
      <text x="140" y="200" text-anchor="middle" class="text-sm">Free</text>

      <!-- Preview -->
      <text x="20" y="240" class="text-sm">Preview</text>
      <circle cx="100" cy="300" r="50" fill="#dcc8a8" stroke="#8b5cf6" stroke-width="2"/>
      <text x="100" y="305" text-anchor="middle" class="text-muted">Preview</text>

      <!-- Min size warning -->
      <rect x="20" y="365" width="160" height="25" rx="4" fill="#22c55e" opacity="0.2"/>
      <text x="100" y="382" text-anchor="middle" class="spec-label">Min 200×200</text>
    </g>

    <!-- Keyboard hints -->
    <rect x="130" y="590" width="520" height="35" rx="4" fill="#dcc8a8"/>
    <text x="390" y="612" text-anchor="middle" class="text-sm">Arrow keys to nudge • +/- to zoom • Shift+drag for constrained</text>

    <!-- Action buttons -->
    <g id="modal-actions" transform="translate(670, 590)">
      <rect x="0" y="0" width="95" height="40" rx="6" fill="#dcc8a8" stroke="#b8a080"/>
      <text x="48" y="25" text-anchor="middle" class="text-md">Cancel</text>

      <rect x="105" y="0" width="95" height="40" rx="6" fill="#8b5cf6"/>
      <text x="152" y="25" text-anchor="middle" fill="#fff" font-size="12" font-weight="bold">Save</text>
    </g>

    <!-- Annotations -->
    <rect x="130" y="645" width="200" height="40" rx="4" fill="#e8d4b8" stroke="#8b5cf6" stroke-width="1"/>
    <text x="230" y="665" text-anchor="middle" class="annotation">FR-006, FR-025</text>
    <text x="230" y="680" text-anchor="middle" class="text-muted">Keyboard crop controls</text>

    <rect x="670" y="645" width="200" height="40" rx="4" fill="#e8d4b8" stroke="#8b5cf6" stroke-width="1"/>
    <text x="770" y="665" text-anchor="middle" class="annotation">FR-007, FR-008</text>
    <text x="770" y="680" text-anchor="middle" class="text-muted">Min 200px, output 800px</text>
  </g>

  <!-- MOBILE CROP VIEW -->
  <text x="980" y="52" class="label-mobile">MOBILE</text>
  <g id="mobile-view" transform="translate(980, 60)">
    <!-- Phone frame -->
    <rect x="0" y="0" width="360" height="700" rx="24" fill="#c8b898" stroke="#a08860" stroke-width="2"/>
    <rect x="10" y="10" width="340" height="680" rx="16" fill="#e8d4b8"/>

    <!-- Status bar -->
    <rect x="10" y="10" width="340" height="28" rx="16" fill="#dcc8a8"/>
    <text x="30" y="28" class="text-sm">9:41</text>
    <text x="300" y="28" class="text-sm">📶 🔋</text>

    <!-- Header -->
    <rect x="20" y="48" width="320" height="44" rx="6" fill="#dcc8a8" stroke="#b8a080"/>
    <text x="35" y="75" class="text-md">Cancel</text>
    <text x="180" y="75" text-anchor="middle" class="heading">Crop</text>
    <rect x="265" y="55" width="60" height="30" rx="4" fill="#8b5cf6"/>
    <text x="295" y="75" text-anchor="middle" fill="#fff" font-size="11" font-weight="bold">Save</text>

    <!-- Image area -->
    <rect x="20" y="105" width="320" height="320" rx="8" fill="#1a1a2e"/>

    <!-- Image placeholder -->
    <rect x="30" y="115" width="300" height="300" rx="4" fill="#475569"/>

    <!-- Crop overlay - circular for avatar -->
    <circle cx="180" cy="265" r="120" fill="none" stroke="#8b5cf6" stroke-width="3" stroke-dasharray="8,4"/>

    <!-- Touch handles -->
    <circle cx="60" cy="145" r="12" fill="#8b5cf6" stroke="#fff" stroke-width="2"/>
    <circle cx="300" cy="145" r="12" fill="#8b5cf6" stroke="#fff" stroke-width="2"/>
    <circle cx="60" cy="385" r="12" fill="#8b5cf6" stroke="#fff" stroke-width="2"/>
    <circle cx="300" cy="385" r="12" fill="#8b5cf6" stroke="#fff" stroke-width="2"/>

    <!-- Preview circle indicator -->
    <text x="180" y="270" text-anchor="middle" fill="#fff" font-size="11" opacity="0.7">Drag to position</text>

    <!-- Controls -->
    <g transform="translate(20, 440)">
      <rect x="0" y="0" width="320" height="100" rx="6" fill="#f5f0e6" stroke="#b8a080"/>

      <!-- Zoom slider -->
      <text x="15" y="25" class="text-sm">Zoom</text>
      <text x="40" y="25" class="text-md">−</text>
      <rect x="60" y="15" width="200" height="8" rx="4" fill="#dcc8a8"/>
      <rect x="60" y="15" width="100" height="8" rx="4" fill="#8b5cf6"/>
      <circle cx="160" cy="19" r="10" fill="#8b5cf6" stroke="#fff" stroke-width="2"/>
      <text x="275" y="25" class="text-md">+</text>

      <!-- Rotate buttons -->
      <text x="15" y="60" class="text-sm">Rotate</text>
      <rect x="70" y="45" width="50" height="32" rx="6" fill="#dcc8a8" stroke="#b8a080"/>
      <text x="95" y="66" text-anchor="middle" class="text-md">↺</text>
      <rect x="130" y="45" width="50" height="32" rx="6" fill="#dcc8a8" stroke="#b8a080"/>
      <text x="155" y="66" text-anchor="middle" class="text-md">↻</text>

      <!-- Reset -->
      <rect x="200" y="45" width="100" height="32" rx="6" fill="#dcc8a8" stroke="#b8a080"/>
      <text x="250" y="66" text-anchor="middle" class="text-sm">Reset</text>
    </g>

    <!-- Size indicator -->
    <rect x="120" y="550" width="120" height="28" rx="4" fill="#8b5cf6"/>
    <text x="180" y="569" text-anchor="middle" fill="#fff" font-size="10">240 × 240 px</text>

    <!-- Minimum size warning if too small -->
    <rect x="70" y="590" width="220" height="35" rx="4" fill="#22c55e" opacity="0.15" stroke="#22c55e"/>
    <text x="180" y="612" text-anchor="middle" class="spec-label">✓ Meets min 200×200</text>

    <!-- Touch hint -->
    <rect x="20" y="640" width="320" height="35" rx="4" fill="#dcc8a8"/>
    <text x="180" y="662" text-anchor="middle" class="text-sm">Pinch to zoom • Drag to position</text>
  </g>

  <!-- Processing info -->
  <g id="processing-info" transform="translate(40, 470)">
    <rect x="0" y="0" width="450" height="100" rx="6" fill="#e8d4b8" stroke="#8b5cf6" stroke-width="2"/>
    <text x="225" y="25" text-anchor="middle" class="heading">Client-Side Processing (FR-008, FR-009)</text>

    <g transform="translate(20, 40)">
      <rect x="0" y="0" width="100" height="45" rx="4" fill="#f5f0e6"/>
      <text x="50" y="18" text-anchor="middle" class="text-sm">Input</text>
      <text x="50" y="35" text-anchor="middle" class="text-muted">Any size</text>

      <text x="115" y="25" class="text-md">→</text>

      <rect x="135" y="0" width="100" height="45" rx="4" fill="#f5f0e6"/>
      <text x="185" y="18" text-anchor="middle" class="text-sm">Crop</text>
      <text x="185" y="35" text-anchor="middle" class="text-muted">≥200×200</text>

      <text x="250" y="25" class="text-md">→</text>

      <rect x="270" y="0" width="100" height="45" rx="4" fill="#8b5cf6" opacity="0.2" stroke="#8b5cf6"/>
      <text x="320" y="18" text-anchor="middle" class="text-sm">Output</text>
      <text x="320" y="35" text-anchor="middle" class="annotation">800×800 WebP</text>
    </g>
  </g>

  <!-- Keyboard navigation -->
  <g id="keyboard-nav" transform="translate(510, 470)">
    <rect x="0" y="0" width="430" height="100" rx="6" fill="#22c55e" opacity="0.1" stroke="#22c55e" stroke-width="2"/>
    <text x="215" y="25" text-anchor="middle" class="heading" fill="#22c55e">Keyboard Controls (FR-025)</text>

    <g transform="translate(20, 40)">
      <rect x="0" y="0" width="95" height="45" rx="4" fill="#e8d4b8"/>
      <text x="48" y="18" text-anchor="middle" class="text-sm">Arrow Keys</text>
      <text x="48" y="35" text-anchor="middle" class="text-muted">Nudge crop</text>

      <rect x="110" y="0" width="95" height="45" rx="4" fill="#e8d4b8"/>
      <text x="158" y="18" text-anchor="middle" class="text-sm">+/−</text>
      <text x="158" y="35" text-anchor="middle" class="text-muted">Zoom in/out</text>

      <rect x="220" y="0" width="95" height="45" rx="4" fill="#e8d4b8"/>
      <text x="268" y="18" text-anchor="middle" class="text-sm">Enter</text>
      <text x="268" y="35" text-anchor="middle" class="text-muted">Confirm</text>

      <rect x="330" y="0" width="80" height="45" rx="4" fill="#e8d4b8"/>
      <text x="370" y="18" text-anchor="middle" class="text-sm">Esc</text>
      <text x="370" y="35" text-anchor="middle" class="text-muted">Cancel</text>
    </g>
  </g>

  <!-- Requirements summary -->
  <g id="requirements" transform="translate(40, 590)">
    <rect x="0" y="0" width="900" height="70" rx="6" fill="#f5f0e6" stroke="#b8a080"/>
    <text x="450" y="25" text-anchor="middle" class="heading">Crop Interface Requirements</text>

    <g transform="translate(20, 40)">
      <rect x="0" y="0" width="140" height="22" rx="4" fill="#e8d4b8"/>
      <text x="70" y="15" text-anchor="middle" class="spec-label">FR-006: Crop UI</text>

      <rect x="155" y="0" width="140" height="22" rx="4" fill="#e8d4b8"/>
      <text x="225" y="15" text-anchor="middle" class="spec-label">FR-007: Min 200px</text>

      <rect x="310" y="0" width="140" height="22" rx="4" fill="#e8d4b8"/>
      <text x="380" y="15" text-anchor="middle" class="spec-label">FR-008: 800px out</text>

      <rect x="465" y="0" width="140" height="22" rx="4" fill="#e8d4b8"/>
      <text x="535" y="15" text-anchor="middle" class="spec-label">FR-009: Client-side</text>

      <rect x="620" y="0" width="140" height="22" rx="4" fill="#e8d4b8"/>
      <text x="690" y="15" text-anchor="middle" class="spec-label">FR-025: Keyboard</text>

      <rect x="775" y="0" width="100" height="22" rx="4" fill="#22c55e" opacity="0.3"/>
      <text x="825" y="15" text-anchor="middle" class="spec-label">US-1</text>
    </g>
  </g>

  <!-- Leader lines -->
  <g id="leader-lines">
  </g>
</svg>
