<svg xmlns="http://www.w3.org/2000/svg" viewBox="0 0 1400 800" width="1400" height="800">
  <!-- ============================================================
       GENERATED BY: /wireframe skill
       SOURCE: features/core-features/008-on-the-account/spec.md
       DATE: 2026-01-01
       THEME: Light (UX/Frontend) - v3 True Parchment
       DO NOT MANUALLY EDIT - Regenerate with /wireframe command
       ============================================================ -->
  <defs>
    <linearGradient id="bgGrad" x1="0%" y1="0%" x2="100%" y2="100%">
      <stop offset="0%" style="stop-color:#c7ddf5"/>
      <stop offset="100%" style="stop-color:#b8d4f0"/>
    </linearGradient>
    <linearGradient id="accentGrad" x1="0%" y1="0%" x2="100%" y2="0%">
      <stop offset="0%" style="stop-color:#8b5cf6"/>
      <stop offset="100%" style="stop-color:#d946ef"/>
    </linearGradient>
    <style>
      .heading-lg { fill: #1a1a2e; font-family: system-ui, sans-serif; font-size: 24px; font-weight: 800; }
      .heading { fill: #1a1a2e; font-family: system-ui, sans-serif; font-size: 16px; font-weight: 700; }
      .text-md { fill: #2d3748; font-family: system-ui, sans-serif; font-size: 14px; font-weight: 500; }
      .text-sm { fill: #374151; font-family: system-ui, sans-serif; font-size: 12px; font-weight: 500; }
      .text-muted { fill: #4b5563; font-family: system-ui, sans-serif; font-size: 11px; font-weight: 500; }
      .annotation { fill: #6d28d9; font-family: monospace; font-size: 12px; font-weight: 600; }
      .label-desktop { fill: #8b5cf6; font-family: monospace; font-size: 13px; font-weight: bold; }
      .spec-label { fill: #22c55e; font-family: monospace; font-size: 10px; font-weight: 600; }
      .error-label { fill: #ef4444; font-family: monospace; font-size: 10px; font-weight: 600; }
    </style>
  </defs>

  <!-- Background -->
  <rect width="1400" height="800" fill="url(#bgGrad)"/>

  <!-- Dot grid pattern -->
  <g opacity="0.35">
    <pattern id="dots" width="30" height="30" patternUnits="userSpaceOnUse">
      <circle cx="15" cy="15" r="1" fill="#6b8cba"/>
    </pattern>
    <rect width="1400" height="800" fill="url(#dots)"/>
  </g>

  <!-- Accent line top -->
  <rect x="0" y="0" width="1400" height="3" fill="url(#accentGrad)"/>

  <!-- Title -->
  <text x="700" y="28" text-anchor="middle" font-family="system-ui, sans-serif" font-size="14" font-weight="600" fill="#4b5563" letter-spacing="1">UPLOAD STATES — PROGRESS, SUCCESS, ERROR FEEDBACK</text>

  <!-- STATE 1: UPLOADING (PROGRESS) -->
  <text x="40" y="55" class="label-desktop">STATE: UPLOADING</text>
  <g id="uploading-state" transform="translate(40, 70)">
    <rect x="0" y="0" width="420" height="200" rx="8" fill="#e8d4b8" stroke="#8b5cf6" stroke-width="2"/>

    <text x="210" y="30" text-anchor="middle" class="heading">Uploading avatar...</text>

    <!-- Avatar with spinner overlay -->
    <g transform="translate(160, 50)">
      <circle cx="50" cy="50" r="50" fill="#dcc8a8"/>
      <circle cx="50" cy="50" r="50" fill="none" stroke="#8b5cf6" stroke-width="4" stroke-dasharray="80 200" stroke-linecap="round">
        <animateTransform attributeName="transform" type="rotate" from="0 50 50" to="360 50 50" dur="1s" repeatCount="indefinite"/>
      </circle>
      <text x="50" y="55" text-anchor="middle" class="text-md">65%</text>
    </g>

    <!-- Progress bar -->
    <rect x="40" y="160" width="340" height="10" rx="5" fill="#dcc8a8"/>
    <rect x="40" y="160" width="221" height="10" rx="5" fill="#8b5cf6"/>

    <text x="210" y="185" text-anchor="middle" class="text-muted">Uploading profile.jpg (65%)</text>
  </g>

  <!-- Annotation -->
  <rect x="40" y="280" width="180" height="40" rx="4" fill="#e8d4b8" stroke="#8b5cf6" stroke-width="1"/>
  <text x="130" y="300" text-anchor="middle" class="annotation">FR-016</text>
  <text x="130" y="315" text-anchor="middle" class="text-muted">Progress indicator</text>

  <!-- STATE 2: SUCCESS -->
  <text x="490" y="55" class="label-desktop">STATE: SUCCESS</text>
  <g id="success-state" transform="translate(490, 70)">
    <rect x="0" y="0" width="420" height="200" rx="8" fill="#22c55e" opacity="0.15" stroke="#22c55e" stroke-width="2"/>

    <text x="210" y="30" text-anchor="middle" class="heading" fill="#22c55e">Avatar updated!</text>

    <!-- Avatar with checkmark -->
    <g transform="translate(160, 50)">
      <circle cx="50" cy="50" r="50" fill="#dcc8a8" stroke="#22c55e" stroke-width="3"/>
      <text x="50" y="55" text-anchor="middle" class="text-muted">📷</text>

      <!-- Success badge -->
      <circle cx="85" cy="85" r="18" fill="#22c55e"/>
      <text x="85" y="92" text-anchor="middle" fill="#fff" font-size="18">✓</text>
    </g>

    <!-- Success message -->
    <rect x="40" y="155" width="340" height="35" rx="6" fill="#22c55e" opacity="0.2"/>
    <text x="210" y="178" text-anchor="middle" class="text-md" fill="#166534">Your profile picture has been saved</text>
  </g>

  <!-- Annotation -->
  <rect x="490" y="280" width="180" height="40" rx="4" fill="#e8d4b8" stroke="#22c55e" stroke-width="1"/>
  <text x="580" y="300" text-anchor="middle" class="spec-label">FR-015</text>
  <text x="580" y="315" text-anchor="middle" class="text-muted">Immediate display</text>

  <!-- STATE 3: ERROR - NETWORK -->
  <text x="940" y="55" class="label-desktop">STATE: NETWORK ERROR</text>
  <g id="error-network" transform="translate(940, 70)">
    <rect x="0" y="0" width="420" height="200" rx="8" fill="#ef4444" opacity="0.1" stroke="#ef4444" stroke-width="2"/>

    <text x="210" y="30" text-anchor="middle" class="heading" fill="#ef4444">Upload failed</text>

    <!-- Avatar with error -->
    <g transform="translate(160, 50)">
      <circle cx="50" cy="50" r="50" fill="#dcc8a8" stroke="#ef4444" stroke-width="3"/>
      <text x="50" y="55" text-anchor="middle" class="text-muted">📷</text>

      <!-- Error badge -->
      <circle cx="85" cy="85" r="18" fill="#ef4444"/>
      <text x="85" y="92" text-anchor="middle" fill="#fff" font-size="18">!</text>
    </g>

    <!-- Error message -->
    <rect x="40" y="145" width="340" height="45" rx="6" fill="#ef4444" opacity="0.15"/>
    <text x="210" y="165" text-anchor="middle" class="text-md" fill="#dc2626">Check your connection and try again</text>

    <!-- Retry button -->
    <rect x="150" y="185" width="120" height="32" rx="6" fill="#ef4444"/>
    <text x="210" y="206" text-anchor="middle" fill="#fff" font-size="12" font-weight="bold">Retry Upload</text>
  </g>

  <!-- Annotation -->
  <rect x="940" y="280" width="180" height="40" rx="4" fill="#e8d4b8" stroke="#ef4444" stroke-width="1"/>
  <text x="1030" y="300" text-anchor="middle" class="error-label">FR-017, FR-018</text>
  <text x="1030" y="315" text-anchor="middle" class="text-muted">Error + retry</text>

  <!-- VALIDATION ERRORS ROW -->
  <text x="40" y="350" class="label-desktop">VALIDATION ERRORS (Edge Cases)</text>

  <!-- Error: Invalid file type -->
  <g id="error-filetype" transform="translate(40, 365)">
    <rect x="0" y="0" width="300" height="140" rx="8" fill="#e8d4b8" stroke="#ef4444" stroke-width="2"/>

    <text x="150" y="25" text-anchor="middle" class="heading" fill="#ef4444">Invalid File Type</text>

    <rect x="20" y="40" width="260" height="50" rx="6" fill="#ef4444" opacity="0.1"/>
    <text x="150" y="60" text-anchor="middle" class="text-sm" fill="#dc2626">Please upload a JPEG, PNG,</text>
    <text x="150" y="78" text-anchor="middle" class="text-sm" fill="#dc2626">or WebP image</text>

    <rect x="90" y="100" width="120" height="30" rx="6" fill="#dcc8a8" stroke="#b8a080"/>
    <text x="150" y="120" text-anchor="middle" class="text-sm">Choose File</text>

    <text x="150" y="138" text-anchor="middle" class="error-label">FR-002</text>
  </g>

  <!-- Error: File too large -->
  <g id="error-size" transform="translate(360, 365)">
    <rect x="0" y="0" width="300" height="140" rx="8" fill="#e8d4b8" stroke="#ef4444" stroke-width="2"/>

    <text x="150" y="25" text-anchor="middle" class="heading" fill="#ef4444">File Too Large</text>

    <rect x="20" y="40" width="260" height="50" rx="6" fill="#ef4444" opacity="0.1"/>
    <text x="150" y="60" text-anchor="middle" class="text-sm" fill="#dc2626">Image must be under 5MB.</text>
    <text x="150" y="78" text-anchor="middle" class="text-sm" fill="#dc2626">Your file: 8.2MB</text>

    <rect x="90" y="100" width="120" height="30" rx="6" fill="#dcc8a8" stroke="#b8a080"/>
    <text x="150" y="120" text-anchor="middle" class="text-sm">Choose File</text>

    <text x="150" y="138" text-anchor="middle" class="error-label">FR-003</text>
  </g>

  <!-- Error: Image too small -->
  <g id="error-dimensions" transform="translate(680, 365)">
    <rect x="0" y="0" width="300" height="140" rx="8" fill="#e8d4b8" stroke="#ef4444" stroke-width="2"/>

    <text x="150" y="25" text-anchor="middle" class="heading" fill="#ef4444">Image Too Small</text>

    <rect x="20" y="40" width="260" height="50" rx="6" fill="#ef4444" opacity="0.1"/>
    <text x="150" y="60" text-anchor="middle" class="text-sm" fill="#dc2626">Image must be at least</text>
    <text x="150" y="78" text-anchor="middle" class="text-sm" fill="#dc2626">200×200 pixels (yours: 150×150)</text>

    <rect x="90" y="100" width="120" height="30" rx="6" fill="#dcc8a8" stroke="#b8a080"/>
    <text x="150" y="120" text-anchor="middle" class="text-sm">Choose File</text>

    <text x="150" y="138" text-anchor="middle" class="error-label">Edge Case</text>
  </g>

  <!-- Error: Corrupt file -->
  <g id="error-corrupt" transform="translate(1000, 365)">
    <rect x="0" y="0" width="300" height="140" rx="8" fill="#e8d4b8" stroke="#ef4444" stroke-width="2"/>

    <text x="150" y="25" text-anchor="middle" class="heading" fill="#ef4444">Invalid Image</text>

    <rect x="20" y="40" width="260" height="50" rx="6" fill="#ef4444" opacity="0.1"/>
    <text x="150" y="60" text-anchor="middle" class="text-sm" fill="#dc2626">File could not be processed.</text>
    <text x="150" y="78" text-anchor="middle" class="text-sm" fill="#dc2626">Please try a different image.</text>

    <rect x="90" y="100" width="120" height="30" rx="6" fill="#dcc8a8" stroke="#b8a080"/>
    <text x="150" y="120" text-anchor="middle" class="text-sm">Choose File</text>

    <text x="150" y="138" text-anchor="middle" class="error-label">FR-004, FR-005</text>
  </g>

  <!-- SCREEN READER ANNOUNCEMENTS -->
  <text x="40" y="530" class="label-desktop">ARIA LIVE REGION ANNOUNCEMENTS (FR-024, FR-027)</text>
  <g id="aria-announcements" transform="translate(40, 545)">
    <rect x="0" y="0" width="620" height="110" rx="8" fill="#22c55e" opacity="0.1" stroke="#22c55e" stroke-width="2"/>

    <text x="310" y="25" text-anchor="middle" class="heading" fill="#22c55e">Screen Reader Announcements</text>

    <g transform="translate(20, 40)">
      <rect x="0" y="0" width="140" height="55" rx="4" fill="#e8d4b8"/>
      <text x="70" y="18" text-anchor="middle" class="text-sm">Uploading...</text>
      <text x="70" y="35" text-anchor="middle" class="text-muted">"Uploading avatar,</text>
      <text x="70" y="48" text-anchor="middle" class="text-muted">65 percent"</text>

      <rect x="160" y="0" width="140" height="55" rx="4" fill="#e8d4b8"/>
      <text x="230" y="18" text-anchor="middle" class="text-sm">Success</text>
      <text x="230" y="35" text-anchor="middle" class="text-muted">"Avatar updated</text>
      <text x="230" y="48" text-anchor="middle" class="text-muted">successfully"</text>

      <rect x="320" y="0" width="140" height="55" rx="4" fill="#e8d4b8"/>
      <text x="390" y="18" text-anchor="middle" class="text-sm">Error</text>
      <text x="390" y="35" text-anchor="middle" class="text-muted">"Upload failed.</text>
      <text x="390" y="48" text-anchor="middle" class="text-muted">Retry available"</text>

      <rect x="480" y="0" width="120" height="55" rx="4" fill="#e8d4b8"/>
      <text x="540" y="18" text-anchor="middle" class="text-sm">Validation</text>
      <text x="540" y="35" text-anchor="middle" class="text-muted">"Error: File</text>
      <text x="540" y="48" text-anchor="middle" class="text-muted">too large"</text>
    </g>
  </g>

  <!-- REMOVE AVATAR FLOW -->
  <text x="700" y="530" class="label-desktop">REMOVE AVATAR (US-3)</text>
  <g id="remove-flow" transform="translate(700, 545)">
    <rect x="0" y="0" width="340" height="110" rx="8" fill="#e8d4b8" stroke="#b8a080"/>

    <text x="170" y="25" text-anchor="middle" class="heading">Remove Avatar Confirmation</text>

    <rect x="20" y="40" width="300" height="25" rx="4" fill="#eab308" opacity="0.2"/>
    <text x="170" y="58" text-anchor="middle" class="text-sm" fill="#92400e">Remove your profile picture?</text>

    <!-- Buttons -->
    <rect x="60" y="75" width="100" height="28" rx="6" fill="#dcc8a8" stroke="#b8a080"/>
    <text x="110" y="94" text-anchor="middle" class="text-sm">Cancel</text>

    <rect x="175" y="75" width="100" height="28" rx="6" fill="#ef4444"/>
    <text x="225" y="94" text-anchor="middle" fill="#fff" font-size="11" font-weight="bold">Remove</text>
  </g>

  <!-- Storage flow annotation -->
  <g id="storage-flow" transform="translate(1060, 545)">
    <rect x="0" y="0" width="300" height="110" rx="8" fill="#e8d4b8" stroke="#8b5cf6" stroke-width="2"/>

    <text x="150" y="25" text-anchor="middle" class="heading">Storage Actions</text>

    <g transform="translate(20, 40)">
      <rect x="0" y="0" width="120" height="25" rx="4" fill="#f5f0e6"/>
      <text x="60" y="17" text-anchor="middle" class="spec-label">FR-013</text>

      <rect x="140" y="0" width="120" height="25" rx="4" fill="#f5f0e6"/>
      <text x="200" y="17" text-anchor="middle" class="spec-label">FR-014</text>
    </g>

    <text x="20" y="83" class="text-sm">Replace: Delete old file first</text>
    <text x="20" y="100" class="text-sm">Remove: Delete + clear URL</text>
  </g>

  <!-- Success criteria summary -->
  <g id="success-criteria" transform="translate(40, 675)">
    <rect x="0" y="0" width="1320" height="90" rx="8" fill="#f5f0e6" stroke="#22c55e" stroke-width="2"/>
    <text x="660" y="25" text-anchor="middle" class="heading" fill="#22c55e">Success Criteria</text>

    <g transform="translate(20, 40)">
      <rect x="0" y="0" width="200" height="35" rx="4" fill="#e8d4b8"/>
      <text x="15" y="15" class="spec-label">SC-001</text>
      <text x="15" y="30" class="text-md">&lt;5s upload flow</text>

      <rect x="220" y="0" width="200" height="35" rx="4" fill="#e8d4b8"/>
      <text x="235" y="15" class="spec-label">SC-002</text>
      <text x="235" y="30" class="text-md">100% valid uploads</text>

      <rect x="440" y="0" width="200" height="35" rx="4" fill="#e8d4b8"/>
      <text x="455" y="15" class="spec-label">SC-003</text>
      <text x="455" y="30" class="text-md">100% invalid rejected</text>

      <rect x="660" y="0" width="200" height="35" rx="4" fill="#e8d4b8"/>
      <text x="675" y="15" class="spec-label">SC-004</text>
      <text x="675" y="30" class="text-md">WCAG 2.1 AA pass</text>

      <rect x="880" y="0" width="200" height="35" rx="4" fill="#e8d4b8"/>
      <text x="895" y="15" class="spec-label">SC-005</text>
      <text x="895" y="30" class="text-md">Consistent display</text>

      <rect x="1100" y="0" width="200" height="35" rx="4" fill="#e8d4b8"/>
      <text x="1115" y="15" class="spec-label">SC-006</text>
      <text x="1115" y="30" class="text-md">90% first-try success</text>
    </g>
  </g>

  <!-- Leader lines -->
  <g id="leader-lines">
  </g>
</svg>
