<svg xmlns="http://www.w3.org/2000/svg" viewBox="0 0 1400 800" width="1400" height="800">
  <!-- ============================================================
       GENERATED BY: /wireframe skill
       SOURCE: features/payments/041-paypal-subscriptions/spec.md
       DATE: 2026-01-01
       THEME: Light (UX/Frontend) - v3 True Parchment
       DO NOT MANUALLY EDIT - Regenerate with /wireframe command
       ============================================================ -->
  <defs>
    <linearGradient id="bgGrad" x1="0%" y1="0%" x2="100%" y2="100%">
      <stop offset="0%" style="stop-color:#c7ddf5"/>
      <stop offset="100%" style="stop-color:#b8d4f0"/>
    </linearGradient>
    <linearGradient id="accentGrad" x1="0%" y1="0%" x2="100%" y2="0%">
      <stop offset="0%" style="stop-color:#8b5cf6"/>
      <stop offset="100%" style="stop-color:#d946ef"/>
    </linearGradient>
    <style>
      .heading-lg { fill: #1a1a2e; font-family: system-ui, sans-serif; font-size: 24px; font-weight: 800; }
      .heading { fill: #1a1a2e; font-family: system-ui, sans-serif; font-size: 16px; font-weight: 700; }
      .text-md { fill: #2d3748; font-family: system-ui, sans-serif; font-size: 14px; font-weight: 500; }
      .text-sm { fill: #374151; font-family: system-ui, sans-serif; font-size: 12px; font-weight: 500; }
      .text-muted { fill: #4b5563; font-family: system-ui, sans-serif; font-size: 11px; font-weight: 500; }
      .annotation { fill: #6d28d9; font-family: monospace; font-size: 12px; font-weight: 600; }
      .label-desktop { fill: #8b5cf6; font-family: monospace; font-size: 13px; font-weight: bold; }
      .label-mobile { fill: #d946ef; font-family: monospace; font-size: 13px; font-weight: bold; }
      .status-active { fill: #22c55e; }
      .status-paused { fill: #eab308; }
      .status-cancelled { fill: #ef4444; }
      .paypal-blue { fill: #003087; }
    </style>
  </defs>

  <!-- Background -->
  <rect width="1400" height="800" fill="url(#bgGrad)"/>

  <!-- Dot grid pattern -->
  <g opacity="0.35">
    <pattern id="dots" width="30" height="30" patternUnits="userSpaceOnUse">
      <circle cx="15" cy="15" r="1" fill="#6b8cba"/>
    </pattern>
    <rect width="1400" height="800" fill="url(#dots)"/>
  </g>

  <!-- Accent line top -->
  <rect x="0" y="0" width="1400" height="3" fill="url(#accentGrad)"/>

  <!-- Title -->
  <text x="700" y="28" text-anchor="middle" font-family="system-ui, sans-serif" font-size="14" font-weight="600" fill="#4b5563" letter-spacing="1">PAYPAL SUBSCRIPTION DASHBOARD</text>

  <!-- DESKTOP SECTION -->
  <text x="40" y="52" class="label-desktop">DESKTOP</text>
  <g id="desktop-view">
    <!-- Main container panel -->
    <rect x="40" y="60" width="900" height="680" rx="12" fill="#e8d4b8" stroke="#b8a080" stroke-width="1"/>

    <!-- Header -->
    <rect x="40" y="60" width="900" height="60" rx="12" fill="#dcc8a8"/>
    <rect x="40" y="108" width="900" height="12" fill="#dcc8a8"/>
    <text x="70" y="98" class="heading-lg">My PayPal Subscriptions</text>

    <!-- Sync status -->
    <text x="860" y="90" text-anchor="end" class="text-muted">Last synced: 2 min ago</text>
    <circle cx="880" cy="86" r="5" fill="#22c55e"/>

    <!-- Link to PayPal -->
    <rect x="710" y="100" width="180" height="28" rx="4" fill="#003087"/>
    <text x="800" y="118" text-anchor="middle" fill="#fff" font-size="11" font-weight="600">Manage on PayPal →</text>

    <!-- Subscription Card 1 - Active -->
    <g transform="translate(60, 140)">
      <rect x="0" y="0" width="410" height="180" rx="8" fill="#f5f0e6" stroke="#b8a080" stroke-width="1"/>

      <!-- Status badge -->
      <rect x="320" y="15" width="70" height="24" rx="12" fill="#dcfce7" stroke="#22c55e"/>
      <circle cx="335" cy="27" r="4" fill="#22c55e"/>
      <text x="375" y="32" text-anchor="middle" class="text-sm" fill="#166534">Active</text>

      <!-- Plan info -->
      <text x="20" y="35" class="heading">Pro Monthly Plan</text>
      <text x="20" y="55" class="text-muted">ID: I-BW452GLLEP1G</text>

      <!-- Billing info box -->
      <rect x="20" y="70" width="180" height="80" rx="6" fill="#e8d4b8"/>
      <text x="30" y="90" class="text-sm" fill="#4b5563">Billing Frequency</text>
      <text x="30" y="108" class="text-md">Monthly</text>
      <text x="30" y="130" class="text-sm" fill="#4b5563">Next Billing</text>
      <text x="30" y="148" class="text-md">Jan 15, 2026</text>

      <!-- Amount box -->
      <rect x="210" y="70" width="180" height="80" rx="6" fill="#e8d4b8"/>
      <text x="220" y="90" class="text-sm" fill="#4b5563">Amount</text>
      <text x="220" y="115" font-size="22" font-weight="700" fill="#1a1a2e" font-family="system-ui">$29.99</text>
      <text x="220" y="135" class="text-muted">incl. $2.99 tax</text>
      <text x="220" y="148" class="text-muted">PayPal: j***@email.com</text>

      <!-- Action buttons -->
      <rect x="20" y="160" width="80" height="32" rx="6" fill="#8b5cf6"/>
      <text x="60" y="181" text-anchor="middle" fill="#fff" font-size="12" font-weight="600">Pause</text>
      <rect x="110" y="160" width="80" height="32" rx="6" fill="none" stroke="#ef4444" stroke-width="2"/>
      <text x="150" y="181" text-anchor="middle" fill="#ef4444" font-size="12" font-weight="600">Cancel</text>
    </g>

    <!-- Subscription Card 2 - Paused -->
    <g transform="translate(490, 140)">
      <rect x="0" y="0" width="410" height="180" rx="8" fill="#f5f0e6" stroke="#b8a080" stroke-width="1"/>

      <!-- Status badge -->
      <rect x="320" y="15" width="70" height="24" rx="12" fill="#fef9c3" stroke="#eab308"/>
      <circle cx="335" cy="27" r="4" fill="#eab308"/>
      <text x="375" y="32" text-anchor="middle" class="text-sm" fill="#854d0e">Paused</text>

      <!-- Plan info -->
      <text x="20" y="35" class="heading">Enterprise Yearly</text>
      <text x="20" y="55" class="text-muted">ID: I-L8MN4XQWTP2K</text>

      <!-- Billing info box -->
      <rect x="20" y="70" width="180" height="80" rx="6" fill="#e8d4b8"/>
      <text x="30" y="90" class="text-sm" fill="#4b5563">Billing Frequency</text>
      <text x="30" y="108" class="text-md">Yearly</text>
      <text x="30" y="130" class="text-sm" fill="#4b5563">Resumes On</text>
      <text x="30" y="148" class="text-md" fill="#eab308">Mar 1, 2026</text>

      <!-- Amount box -->
      <rect x="210" y="70" width="180" height="80" rx="6" fill="#e8d4b8"/>
      <text x="220" y="90" class="text-sm" fill="#4b5563">Amount</text>
      <text x="220" y="115" font-size="22" font-weight="700" fill="#1a1a2e" font-family="system-ui">$299.99</text>
      <text x="220" y="135" class="text-muted">incl. $24.99 tax</text>
      <text x="220" y="148" class="text-muted">PayPal: j***@email.com</text>

      <!-- Action buttons -->
      <rect x="20" y="160" width="100" height="32" rx="6" fill="#22c55e"/>
      <text x="70" y="181" text-anchor="middle" fill="#fff" font-size="12" font-weight="600">Resume Now</text>
      <rect x="130" y="160" width="80" height="32" rx="6" fill="none" stroke="#ef4444" stroke-width="2"/>
      <text x="170" y="181" text-anchor="middle" fill="#ef4444" font-size="12" font-weight="600">Cancel</text>
    </g>

    <!-- Subscription Card 3 - Cancelled (greyed) -->
    <g transform="translate(60, 340)">
      <rect x="0" y="0" width="410" height="140" rx="8" fill="#f5f0e6" stroke="#b8a080" stroke-width="1" opacity="0.7"/>

      <!-- Status badge -->
      <rect x="300" y="15" width="90" height="24" rx="12" fill="#fee2e2" stroke="#ef4444"/>
      <circle cx="315" cy="27" r="4" fill="#ef4444"/>
      <text x="360" y="32" text-anchor="middle" class="text-sm" fill="#991b1b">Cancelled</text>

      <!-- Plan info -->
      <text x="20" y="35" class="heading" opacity="0.6">Basic Monthly Plan</text>
      <text x="20" y="55" class="text-muted" opacity="0.6">ID: I-9KP3RTZW5S7J</text>

      <!-- Service end info -->
      <rect x="20" y="70" width="240" height="50" rx="6" fill="#fee2e2"/>
      <text x="30" y="92" class="text-sm" fill="#991b1b">Service ends on</text>
      <text x="30" y="112" class="text-md" fill="#991b1b">Feb 28, 2026</text>

      <!-- Resubscribe link -->
      <rect x="280" y="85" width="110" height="32" rx="6" fill="#8b5cf6"/>
      <text x="335" y="106" text-anchor="middle" fill="#fff" font-size="12" font-weight="600">Resubscribe</text>
    </g>

    <!-- Empty State Section (shows when no subscriptions) -->
    <g transform="translate(490, 340)">
      <rect x="0" y="0" width="410" height="180" rx="8" fill="#f5f0e6" stroke="#b8a080" stroke-width="1" stroke-dasharray="8,4"/>

      <!-- Empty icon -->
      <circle cx="205" cy="60" r="30" fill="#dcc8a8"/>
      <text x="205" y="70" text-anchor="middle" font-size="30">📭</text>

      <text x="205" y="110" text-anchor="middle" class="heading" fill="#4b5563">No Active Subscriptions</text>
      <text x="205" y="130" text-anchor="middle" class="text-sm">You don't have any PayPal subscriptions yet.</text>

      <rect x="130" y="145" width="150" height="32" rx="6" fill="#8b5cf6"/>
      <text x="205" y="166" text-anchor="middle" fill="#fff" font-size="12" font-weight="600">Browse Plans</text>
    </g>

    <!-- Loading State indicator -->
    <g transform="translate(60, 540)">
      <rect x="0" y="0" width="840" height="70" rx="8" fill="#f5f0e6" stroke="#b8a080" stroke-width="1"/>
      <text x="20" y="25" class="text-sm" fill="#4b5563">Loading State Example:</text>

      <!-- Skeleton elements -->
      <rect x="20" y="40" width="150" height="16" rx="4" fill="#dcc8a8"/>
      <rect x="180" y="40" width="100" height="16" rx="4" fill="#dcc8a8"/>
      <rect x="290" y="40" width="200" height="16" rx="4" fill="#dcc8a8"/>
      <rect x="500" y="40" width="80" height="16" rx="4" fill="#dcc8a8"/>
      <rect x="590" y="40" width="120" height="16" rx="4" fill="#dcc8a8"/>

      <!-- Spinner -->
      <circle cx="770" cy="48" r="12" fill="none" stroke="#8b5cf6" stroke-width="3" stroke-dasharray="40,20"/>
      <text x="800" y="52" class="text-muted">Syncing...</text>
    </g>

    <!-- Billing History Link -->
    <g transform="translate(60, 620)">
      <rect x="0" y="0" width="840" height="50" rx="8" fill="#dcc8a8"/>
      <text x="20" y="32" class="text-md">Need billing history?</text>
      <text x="200" y="32" fill="#003087" font-size="14" font-weight="600" text-decoration="underline">View all transactions on PayPal →</text>
    </g>
  </g>

  <!-- MOBILE SECTION -->
  <text x="980" y="52" class="label-mobile">MOBILE</text>
  <g id="mobile-view" transform="translate(980, 60)">
    <!-- Phone frame -->
    <rect x="0" y="0" width="360" height="700" rx="24" fill="#c8b898" stroke="#a08860" stroke-width="2"/>
    <!-- Screen area -->
    <rect x="10" y="10" width="340" height="680" rx="16" fill="#e8d4b8"/>

    <!-- Status bar -->
    <rect x="10" y="10" width="340" height="28" rx="16" fill="#dcc8a8"/>
    <text x="30" y="28" class="text-sm">9:41</text>
    <text x="310" y="28" class="text-sm">📶 🔋</text>

    <!-- Header -->
    <rect x="20" y="48" width="320" height="50" rx="8" fill="#dcc8a8"/>
    <text x="30" y="70" font-size="12" fill="#4b5563">← Back</text>
    <text x="180" y="82" text-anchor="middle" class="heading">Subscriptions</text>

    <!-- Sync indicator -->
    <circle cx="300" cy="73" r="4" fill="#22c55e"/>
    <text x="315" y="77" class="text-muted">Synced</text>

    <!-- Mobile Card 1 - Active -->
    <g transform="translate(20, 108)">
      <rect x="0" y="0" width="320" height="160" rx="8" fill="#f5f0e6" stroke="#b8a080"/>

      <!-- Header row -->
      <text x="15" y="25" font-size="14" font-weight="700" fill="#1a1a2e">Pro Monthly</text>
      <rect x="230" y="10" width="70" height="22" rx="11" fill="#dcfce7" stroke="#22c55e"/>
      <text x="265" y="25" text-anchor="middle" font-size="10" fill="#166534">Active</text>

      <!-- Price -->
      <text x="15" y="50" font-size="20" font-weight="700" fill="#1a1a2e">$29.99</text>
      <text x="85" y="50" class="text-muted">/month</text>

      <!-- Details -->
      <text x="15" y="75" class="text-sm" fill="#4b5563">Next billing: Jan 15, 2026</text>
      <text x="15" y="92" class="text-muted">ID: I-BW452...EP1G</text>

      <!-- Divider -->
      <line x1="15" y1="105" x2="305" y2="105" stroke="#b8a080"/>

      <!-- Actions -->
      <rect x="15" y="115" width="90" height="32" rx="6" fill="#8b5cf6"/>
      <text x="60" y="136" text-anchor="middle" fill="#fff" font-size="11" font-weight="600">Pause</text>

      <rect x="115" y="115" width="90" height="32" rx="6" fill="none" stroke="#ef4444" stroke-width="1.5"/>
      <text x="160" y="136" text-anchor="middle" fill="#ef4444" font-size="11" font-weight="600">Cancel</text>

      <text x="280" y="136" fill="#003087" font-size="11" font-weight="600">Details →</text>
    </g>

    <!-- Mobile Card 2 - Paused -->
    <g transform="translate(20, 278)">
      <rect x="0" y="0" width="320" height="130" rx="8" fill="#f5f0e6" stroke="#b8a080"/>

      <!-- Header row -->
      <text x="15" y="25" font-size="14" font-weight="700" fill="#1a1a2e">Enterprise Yearly</text>
      <rect x="225" y="10" width="75" height="22" rx="11" fill="#fef9c3" stroke="#eab308"/>
      <text x="262" y="25" text-anchor="middle" font-size="10" fill="#854d0e">Paused</text>

      <!-- Price -->
      <text x="15" y="50" font-size="20" font-weight="700" fill="#1a1a2e">$299.99</text>
      <text x="105" y="50" class="text-muted">/year</text>

      <!-- Details -->
      <text x="15" y="75" class="text-sm" fill="#eab308">Resumes: Mar 1, 2026</text>

      <!-- Divider -->
      <line x1="15" y1="88" x2="305" y2="88" stroke="#b8a080"/>

      <!-- Actions -->
      <rect x="15" y="98" width="120" height="24" rx="6" fill="#22c55e"/>
      <text x="75" y="114" text-anchor="middle" fill="#fff" font-size="11" font-weight="600">Resume Now</text>
    </g>

    <!-- Mobile Card 3 - Cancelled (compact) -->
    <g transform="translate(20, 418)">
      <rect x="0" y="0" width="320" height="90" rx="8" fill="#f5f0e6" stroke="#b8a080" opacity="0.7"/>

      <text x="15" y="25" font-size="14" font-weight="700" fill="#1a1a2e" opacity="0.6">Basic Monthly</text>
      <rect x="220" y="10" width="80" height="22" rx="11" fill="#fee2e2" stroke="#ef4444"/>
      <text x="260" y="25" text-anchor="middle" font-size="10" fill="#991b1b">Cancelled</text>

      <text x="15" y="50" class="text-sm" fill="#991b1b">Ends: Feb 28, 2026</text>

      <rect x="15" y="60" width="100" height="24" rx="6" fill="#8b5cf6"/>
      <text x="65" y="76" text-anchor="middle" fill="#fff" font-size="11" font-weight="600">Resubscribe</text>
    </g>

    <!-- PayPal link -->
    <g transform="translate(20, 518)">
      <rect x="0" y="0" width="320" height="44" rx="8" fill="#003087"/>
      <text x="160" y="27" text-anchor="middle" fill="#fff" font-size="12" font-weight="600">Manage on PayPal →</text>
    </g>

    <!-- Bottom nav hint -->
    <rect x="130" y="660" width="100" height="5" rx="2" fill="#a08860"/>
  </g>

  <!-- Annotation boxes -->
  <g class="annotation-box" transform="translate(55, 695)">
    <rect x="0" y="0" width="280" height="40" rx="4" fill="#e8d4b8" stroke="#8b5cf6" stroke-width="1"/>
    <text x="10" y="18" class="annotation">FR-001-006: Subscription list display</text>
    <text x="10" y="32" class="text-muted">Shows plan, status, ID, empty state</text>
  </g>

  <g class="annotation-box" transform="translate(360, 695)">
    <rect x="0" y="0" width="280" height="40" rx="4" fill="#e8d4b8" stroke="#8b5cf6" stroke-width="1"/>
    <text x="10" y="18" class="annotation">FR-019-024: Billing cycle info</text>
    <text x="10" y="32" class="text-muted">Frequency, next date, amount, PayPal email</text>
  </g>

  <g class="annotation-box" transform="translate(665, 695)">
    <rect x="0" y="0" width="260" height="40" rx="4" fill="#e8d4b8" stroke="#8b5cf6" stroke-width="1"/>
    <text x="10" y="18" class="annotation">FR-025-028: Data sync</text>
    <text x="10" y="32" class="text-muted">Last synced indicator, cached data</text>
  </g>
</svg>