<svg xmlns="http://www.w3.org/2000/svg" viewBox="0 0 1400 800" width="1400" height="800">
  <!-- ============================================================
       GENERATED BY: /wireframe skill
       SOURCE: features/payments/041-paypal-subscriptions/spec.md
       DATE: 2025-12-31
       DO NOT MANUALLY EDIT - Regenerate with /wireframe command
       ============================================================ -->
  <defs>
    <linearGradient id="bgGrad" x1="0%" y1="0%" x2="100%" y2="100%">
      <stop offset="0%" style="stop-color:#0f172a"/>
      <stop offset="100%" style="stop-color:#1e293b"/>
    </linearGradient>
    <linearGradient id="accentGrad" x1="0%" y1="0%" x2="100%" y2="0%">
      <stop offset="0%" style="stop-color:#8b5cf6"/>
      <stop offset="100%" style="stop-color:#d946ef"/>
    </linearGradient>
    <linearGradient id="paypalGrad" x1="0%" y1="0%" x2="100%" y2="0%">
      <stop offset="0%" style="stop-color:#003087"/>
      <stop offset="100%" style="stop-color:#009cde"/>
    </linearGradient>
    <style>
      .heading-lg { fill: #ffffff; font-family: system-ui, sans-serif; font-size: 20px; font-weight: bold; }
      .heading { fill: #ffffff; font-family: system-ui, sans-serif; font-size: 14px; font-weight: bold; }
      .text-md { fill: #cbd5e1; font-family: system-ui, sans-serif; font-size: 12px; }
      .text-sm { fill: #94a3b8; font-family: system-ui, sans-serif; font-size: 10px; }
      .text-muted { fill: #64748b; font-family: system-ui, sans-serif; font-size: 10px; }
      .annotation { fill: #8b5cf6; font-family: monospace; font-size: 10px; }
      .label-desktop { fill: #8b5cf6; font-family: monospace; font-size: 11px; font-weight: bold; }
      .label-mobile { fill: #d946ef; font-family: monospace; font-size: 11px; font-weight: bold; }
      .status-active { fill: #22c55e; }
      .status-paused { fill: #eab308; }
      .status-cancelled { fill: #ef4444; }
    </style>
  </defs>

  <!-- Background -->
  <rect width="1400" height="800" fill="url(#bgGrad)"/>

  <!-- Dot grid pattern -->
  <g opacity="0.05">
    <pattern id="dots" width="30" height="30" patternUnits="userSpaceOnUse">
      <circle cx="15" cy="15" r="1" fill="#fff"/>
    </pattern>
    <rect width="1400" height="800" fill="url(#dots)"/>
  </g>

  <!-- Accent line top -->
  <rect x="0" y="0" width="1400" height="3" fill="url(#accentGrad)"/>

  <!-- Title -->
  <text x="700" y="28" text-anchor="middle" font-family="system-ui, sans-serif" font-size="14" font-weight="600" fill="#64748b" letter-spacing="1">PAYPAL SUBSCRIPTIONS - DASHBOARD</text>

  <!-- DESKTOP SECTION -->
  <text x="40" y="52" class="label-desktop">DESKTOP</text>

  <!-- Desktop Header -->
  <rect x="40" y="60" width="900" height="50" rx="8" fill="#1e293b"/>
  <text x="60" y="92" class="heading-lg">My Subscriptions</text>
  <text x="380" y="90" class="text-sm">Last synced: 2 min ago</text>
  <!-- Sync button -->
  <rect x="520" y="72" width="80" height="28" rx="6" fill="#334155" stroke="#475569" stroke-width="1"/>
  <text x="560" y="91" text-anchor="middle" class="text-sm" fill="#cbd5e1">Sync</text>
  <!-- PayPal Portal Link -->
  <rect x="820" y="72" width="100" height="28" rx="6" fill="url(#paypalGrad)"/>
  <text x="870" y="91" text-anchor="middle" class="text-sm" fill="#fff">PayPal Portal</text>

  <!-- Subscription Card 1 - Active -->
  <g id="sub-card-active">
    <rect x="40" y="125" width="900" height="120" rx="8" fill="#1e293b" stroke="#475569" stroke-width="1"/>
    <!-- Status indicator bar -->
    <rect x="40" y="125" width="4" height="120" rx="2" fill="#22c55e"/>
    <!-- Plan icon placeholder -->
    <circle cx="80" cy="185" r="24" fill="#334155"/>
    <text x="80" y="190" text-anchor="middle" class="heading" fill="#8b5cf6">PRO</text>

    <!-- Plan details -->
    <text x="120" y="155" class="heading">ScriptHammer Pro Plan</text>
    <text x="120" y="175" class="text-md">$19.99/month</text>
    <text x="120" y="195" class="text-sm">Next billing: Jan 15, 2025</text>
    <text x="120" y="215" class="text-muted">ID: SUB-8F2K4M9P</text>

    <!-- Status badge -->
    <rect x="350" y="145" width="60" height="22" rx="11" fill="#22c55e" fill-opacity="0.2" stroke="#22c55e" stroke-width="1"/>
    <text x="380" y="160" text-anchor="middle" class="text-sm status-active">Active</text>

    <!-- Action buttons -->
    <rect x="760" y="155" width="80" height="32" rx="6" fill="#334155" stroke="#475569" stroke-width="1"/>
    <text x="800" y="176" text-anchor="middle" class="text-sm" fill="#eab308">Pause</text>
    <rect x="850" y="155" width="80" height="32" rx="6" fill="#334155" stroke="#ef4444" stroke-width="1"/>
    <text x="890" y="176" text-anchor="middle" class="text-sm" fill="#ef4444">Cancel</text>

    <!-- Expand indicator -->
    <text x="900" y="235" text-anchor="middle" class="text-muted">Click for details</text>
  </g>

  <!-- Subscription Card 2 - Paused -->
  <g id="sub-card-paused">
    <rect x="40" y="260" width="900" height="120" rx="8" fill="#1e293b" stroke="#475569" stroke-width="1"/>
    <!-- Status indicator bar -->
    <rect x="40" y="260" width="4" height="120" rx="2" fill="#eab308"/>
    <!-- Plan icon placeholder -->
    <circle cx="80" cy="320" r="24" fill="#334155"/>
    <text x="80" y="325" text-anchor="middle" class="text-md" fill="#eab308">ENT</text>

    <!-- Plan details -->
    <text x="120" y="290" class="heading">Enterprise Add-on</text>
    <text x="120" y="310" class="text-md">$49.99/month</text>
    <text x="120" y="330" class="text-sm" fill="#eab308">Paused until Feb 28, 2025</text>
    <text x="120" y="350" class="text-muted">ID: SUB-3N7L2Q8X</text>

    <!-- Status badge -->
    <rect x="350" y="280" width="60" height="22" rx="11" fill="#eab308" fill-opacity="0.2" stroke="#eab308" stroke-width="1"/>
    <text x="380" y="295" text-anchor="middle" class="text-sm status-paused">Paused</text>

    <!-- Action buttons -->
    <rect x="760" y="290" width="80" height="32" rx="6" fill="#8b5cf6"/>
    <text x="800" y="311" text-anchor="middle" class="text-sm" fill="#fff">Resume</text>
    <rect x="850" y="290" width="80" height="32" rx="6" fill="#334155" stroke="#ef4444" stroke-width="1"/>
    <text x="890" y="311" text-anchor="middle" class="text-sm" fill="#ef4444">Cancel</text>
  </g>

  <!-- Subscription Card 3 - Cancelled -->
  <g id="sub-card-cancelled">
    <rect x="40" y="395" width="900" height="100" rx="8" fill="#1e293b" stroke="#475569" stroke-width="1" opacity="0.7"/>
    <!-- Status indicator bar -->
    <rect x="40" y="395" width="4" height="100" rx="2" fill="#ef4444"/>
    <!-- Plan icon placeholder -->
    <circle cx="80" cy="445" r="24" fill="#334155" opacity="0.5"/>
    <text x="80" y="450" text-anchor="middle" class="text-md" fill="#64748b">STD</text>

    <!-- Plan details -->
    <text x="120" y="420" class="heading" fill="#94a3b8">Standard Plan</text>
    <text x="120" y="440" class="text-md" fill="#64748b">$9.99/month</text>
    <text x="120" y="460" class="text-sm" fill="#ef4444">Access ends: Dec 31, 2024</text>
    <text x="120" y="480" class="text-muted">ID: SUB-5R1W9T6Y</text>

    <!-- Status badge -->
    <rect x="350" y="410" width="72" height="22" rx="11" fill="#ef4444" fill-opacity="0.2" stroke="#ef4444" stroke-width="1"/>
    <text x="386" y="425" text-anchor="middle" class="text-sm status-cancelled">Cancelled</text>

    <!-- Resubscribe link -->
    <rect x="820" y="420" width="100" height="32" rx="6" fill="#8b5cf6"/>
    <text x="870" y="441" text-anchor="middle" class="text-sm" fill="#fff">Resubscribe</text>
  </g>

  <!-- Summary footer -->
  <rect x="40" y="520" width="900" height="60" rx="8" fill="#334155" stroke="#475569" stroke-width="1"/>
  <text x="60" y="555" class="text-md">Total monthly: $69.98</text>
  <text x="300" y="555" class="text-muted">2 active subscriptions</text>

  <!-- MOBILE SECTION -->
  <text x="980" y="52" class="label-mobile">MOBILE</text>
  <g id="mobile-view" transform="translate(980, 60)">
    <!-- Phone frame -->
    <rect x="0" y="0" width="360" height="700" rx="24" fill="#1e293b" stroke="#475569" stroke-width="2"/>
    <rect x="10" y="10" width="340" height="680" rx="16" fill="#0f172a"/>

    <!-- Status bar -->
    <rect x="10" y="10" width="340" height="28" rx="16" fill="#1e293b"/>
    <text x="30" y="28" class="text-sm">9:41</text>
    <text x="300" y="28" class="text-sm">100%</text>

    <!-- Header -->
    <rect x="20" y="48" width="320" height="50" rx="8" fill="#1e293b"/>
    <text x="35" y="78" class="heading">My Subscriptions</text>
    <circle cx="310" cy="73" r="14" fill="#334155"/>
    <text x="310" y="78" text-anchor="middle" class="text-sm" fill="#8b5cf6">...</text>

    <!-- Mobile Card 1 - Active -->
    <rect x="20" y="108" width="320" height="100" rx="8" fill="#1e293b" stroke="#22c55e" stroke-width="2"/>
    <text x="35" y="133" class="heading">Pro Plan</text>
    <rect x="270" y="118" width="55" height="18" rx="9" fill="#22c55e" fill-opacity="0.2"/>
    <text x="297" y="131" text-anchor="middle" class="text-sm" fill="#22c55e">Active</text>
    <text x="35" y="155" class="text-md">$19.99/mo</text>
    <text x="35" y="175" class="text-sm">Next: Jan 15, 2025</text>
    <text x="35" y="195" class="text-muted">ID: SUB-8F2K...9P</text>

    <!-- Mobile Card 2 - Paused -->
    <rect x="20" y="218" width="320" height="100" rx="8" fill="#1e293b" stroke="#eab308" stroke-width="2"/>
    <text x="35" y="243" class="heading">Enterprise Add-on</text>
    <rect x="260" y="228" width="65" height="18" rx="9" fill="#eab308" fill-opacity="0.2"/>
    <text x="292" y="241" text-anchor="middle" class="text-sm" fill="#eab308">Paused</text>
    <text x="35" y="265" class="text-md">$49.99/mo</text>
    <text x="35" y="285" class="text-sm" fill="#eab308">Resume: Feb 28</text>
    <text x="35" y="305" class="text-muted">ID: SUB-3N7L...8X</text>

    <!-- Mobile Card 3 - Cancelled (compact) -->
    <rect x="20" y="328" width="320" height="80" rx="8" fill="#1e293b" stroke="#475569" stroke-width="1" opacity="0.7"/>
    <text x="35" y="353" class="heading" fill="#94a3b8">Standard Plan</text>
    <rect x="248" y="338" width="77" height="18" rx="9" fill="#ef4444" fill-opacity="0.2"/>
    <text x="286" y="351" text-anchor="middle" class="text-sm" fill="#ef4444">Cancelled</text>
    <text x="35" y="373" class="text-md" fill="#64748b">$9.99/mo</text>
    <text x="35" y="393" class="text-sm" fill="#ef4444">Ends: Dec 31</text>

    <!-- Summary bar -->
    <rect x="20" y="420" width="320" height="44" rx="8" fill="#334155"/>
    <text x="35" y="447" class="text-md">Monthly: $69.98</text>
    <text x="280" y="447" text-anchor="end" class="text-sm">2 active</text>

    <!-- Empty State (annotation showing alternate state) -->
    <rect x="20" y="480" width="320" height="180" rx="8" fill="#1e293b" stroke="#475569" stroke-dasharray="4,4"/>
    <text x="180" y="510" text-anchor="middle" class="text-muted">EMPTY STATE VIEW</text>
    <!-- Empty state illustration placeholder -->
    <circle cx="180" cy="560" r="30" fill="#334155"/>
    <text x="180" y="565" text-anchor="middle" class="heading" fill="#64748b">0</text>
    <text x="180" y="610" text-anchor="middle" class="text-md" fill="#94a3b8">No subscriptions yet</text>
    <rect x="110" y="625" width="140" height="32" rx="6" fill="#8b5cf6"/>
    <text x="180" y="646" text-anchor="middle" class="text-sm" fill="#fff">Browse Plans</text>

    <!-- Bottom nav hint -->
    <rect x="140" y="670" width="80" height="4" rx="2" fill="#475569"/>
  </g>

  <!-- Annotations -->
  <g id="annotations">
    <!-- Desktop annotations -->
    <rect x="40" y="600" width="200" height="70" rx="4" fill="#1e293b" stroke="#8b5cf6" stroke-width="1"/>
    <text x="50" y="620" class="annotation">STATUS INDICATORS</text>
    <circle cx="60" cy="640" r="6" fill="#22c55e"/>
    <text x="75" y="644" class="text-sm">Active</text>
    <circle cx="130" cy="640" r="6" fill="#eab308"/>
    <text x="145" y="644" class="text-sm">Paused</text>
    <circle cx="200" cy="640" r="6" fill="#ef4444"/>
    <text x="215" y="644" class="text-sm">Cancelled</text>

    <!-- Actions annotation -->
    <rect x="260" y="600" width="180" height="70" rx="4" fill="#1e293b" stroke="#8b5cf6" stroke-width="1"/>
    <text x="270" y="620" class="annotation">ACTIONS BY STATE</text>
    <text x="270" y="640" class="text-sm">Active: Pause, Cancel</text>
    <text x="270" y="655" class="text-sm">Paused: Resume, Cancel</text>
    <text x="270" y="670" class="text-sm">Cancelled: Resubscribe</text>

    <!-- FR refs -->
    <rect x="460" y="600" width="180" height="70" rx="4" fill="#1e293b" stroke="#8b5cf6" stroke-width="1"/>
    <text x="470" y="620" class="annotation">REQUIREMENTS</text>
    <text x="470" y="640" class="text-muted">FR-001: Fetch subscriptions</text>
    <text x="470" y="655" class="text-muted">FR-002: Show plan name</text>
    <text x="470" y="670" class="text-muted">FR-003: Status indicator</text>
  </g>
</svg>