<svg xmlns="http://www.w3.org/2000/svg" viewBox="0 0 1400 800" width="1400" height="800">
  <!-- ============================================================
       GENERATED BY: /wireframe skill
       SOURCE: features/payments/041-paypal-subscriptions/spec.md
       DATE: 2025-12-31
       DO NOT MANUALLY EDIT - Regenerate with /wireframe command
       ============================================================ -->
  <defs>
    <linearGradient id="bgGrad" x1="0%" y1="0%" x2="100%" y2="100%">
      <stop offset="0%" style="stop-color:#0f172a"/>
      <stop offset="100%" style="stop-color:#1e293b"/>
    </linearGradient>
    <linearGradient id="accentGrad" x1="0%" y1="0%" x2="100%" y2="0%">
      <stop offset="0%" style="stop-color:#8b5cf6"/>
      <stop offset="100%" style="stop-color:#d946ef"/>
    </linearGradient>
    <linearGradient id="paypalGrad" x1="0%" y1="0%" x2="100%" y2="0%">
      <stop offset="0%" style="stop-color:#003087"/>
      <stop offset="100%" style="stop-color:#009cde"/>
    </linearGradient>
    <style>
      .heading-lg { fill: #ffffff; font-family: system-ui, sans-serif; font-size: 20px; font-weight: bold; }
      .heading { fill: #ffffff; font-family: system-ui, sans-serif; font-size: 14px; font-weight: bold; }
      .text-md { fill: #cbd5e1; font-family: system-ui, sans-serif; font-size: 12px; }
      .text-sm { fill: #94a3b8; font-family: system-ui, sans-serif; font-size: 10px; }
      .text-muted { fill: #64748b; font-family: system-ui, sans-serif; font-size: 10px; }
      .annotation { fill: #8b5cf6; font-family: monospace; font-size: 10px; }
      .label-desktop { fill: #8b5cf6; font-family: monospace; font-size: 11px; font-weight: bold; }
      .label-mobile { fill: #d946ef; font-family: monospace; font-size: 11px; font-weight: bold; }
    </style>
  </defs>

  <!-- Background -->
  <rect width="1400" height="800" fill="url(#bgGrad)"/>

  <!-- Dot grid pattern -->
  <g opacity="0.05">
    <pattern id="dots" width="30" height="30" patternUnits="userSpaceOnUse">
      <circle cx="15" cy="15" r="1" fill="#fff"/>
    </pattern>
    <rect width="1400" height="800" fill="url(#dots)"/>
  </g>

  <!-- Accent line top -->
  <rect x="0" y="0" width="1400" height="3" fill="url(#accentGrad)"/>

  <!-- Title -->
  <text x="700" y="28" text-anchor="middle" font-family="system-ui, sans-serif" font-size="14" font-weight="600" fill="#64748b" letter-spacing="1">PAYPAL SUBSCRIPTIONS - DETAIL VIEW</text>

  <!-- DESKTOP SECTION -->
  <text x="40" y="52" class="label-desktop">DESKTOP - EXPANDED CARD</text>

  <!-- Back navigation -->
  <rect x="40" y="60" width="100" height="32" rx="6" fill="#334155"/>
  <text x="90" y="81" text-anchor="middle" class="text-sm" fill="#cbd5e1">Back to List</text>

  <!-- Main expanded card -->
  <rect x="40" y="105" width="900" height="480" rx="12" fill="#1e293b" stroke="#22c55e" stroke-width="2"/>

  <!-- Card header -->
  <rect x="40" y="105" width="900" height="80" rx="12" fill="#334155"/>
  <rect x="40" y="165" width="900" height="20" fill="#334155"/>

  <!-- Plan icon and name -->
  <circle cx="95" cy="145" r="30" fill="#1e293b" stroke="#8b5cf6" stroke-width="2"/>
  <text x="95" y="152" text-anchor="middle" class="heading-lg" fill="#8b5cf6">PRO</text>

  <text x="145" y="135" class="heading-lg">ScriptHammer Pro Plan</text>
  <text x="145" y="160" class="text-md">Professional development tools and features</text>

  <!-- Status badge -->
  <rect x="820" y="125" width="80" height="28" rx="14" fill="#22c55e" fill-opacity="0.2" stroke="#22c55e" stroke-width="1"/>
  <text x="860" y="144" text-anchor="middle" class="text-md" fill="#22c55e">Active</text>

  <!-- Billing Cycle Section -->
  <text x="60" y="215" class="heading">Billing Cycle</text>

  <!-- Billing info grid -->
  <g transform="translate(60, 230)">
    <!-- Frequency -->
    <rect x="0" y="0" width="200" height="60" rx="6" fill="#334155"/>
    <text x="15" y="22" class="text-muted">FREQUENCY</text>
    <text x="15" y="45" class="heading">Monthly</text>

    <!-- Next billing -->
    <rect x="220" y="0" width="200" height="60" rx="6" fill="#334155"/>
    <text x="235" y="22" class="text-muted">NEXT BILLING DATE</text>
    <text x="235" y="45" class="heading">January 15, 2025</text>

    <!-- Days until -->
    <rect x="440" y="0" width="200" height="60" rx="6" fill="#334155"/>
    <text x="455" y="22" class="text-muted">DAYS UNTIL RENEWAL</text>
    <text x="455" y="45" class="heading">15 days</text>

    <!-- Start date -->
    <rect x="660" y="0" width="200" height="60" rx="6" fill="#334155"/>
    <text x="675" y="22" class="text-muted">SUBSCRIBED SINCE</text>
    <text x="675" y="45" class="heading">Mar 10, 2024</text>
  </g>

  <!-- Amount Breakdown Section -->
  <text x="60" y="335" class="heading">Amount Breakdown</text>

  <g transform="translate(60, 350)">
    <rect x="0" y="0" width="420" height="120" rx="6" fill="#334155"/>

    <!-- Line items -->
    <text x="15" y="30" class="text-md">Base Price</text>
    <text x="390" y="30" text-anchor="end" class="text-md">$17.99</text>

    <text x="15" y="55" class="text-md">Tax (11.5%)</text>
    <text x="390" y="55" text-anchor="end" class="text-md">$2.00</text>

    <!-- Divider -->
    <line x1="15" y1="75" x2="405" y2="75" stroke="#475569" stroke-width="1"/>

    <!-- Total -->
    <text x="15" y="100" class="heading">Total</text>
    <text x="390" y="100" text-anchor="end" class="heading-lg" fill="#8b5cf6">$19.99</text>
  </g>

  <!-- Payment Method Section -->
  <text x="500" y="335" class="heading">Payment Method</text>

  <g transform="translate(500, 350)">
    <rect x="0" y="0" width="420" height="60" rx="6" fill="#334155"/>

    <!-- PayPal icon placeholder -->
    <rect x="15" y="15" width="60" height="30" rx="4" fill="url(#paypalGrad)"/>
    <text x="45" y="35" text-anchor="middle" class="text-sm" fill="#fff">PayPal</text>

    <text x="90" y="30" class="text-md">j***@email.com</text>
    <text x="90" y="48" class="text-muted">PayPal Account</text>
  </g>

  <!-- Subscription ID -->
  <text x="500" y="430" class="heading">Reference</text>
  <rect x="500" y="445" width="420" height="40" rx="6" fill="#334155"/>
  <text x="515" y="470" class="text-md" fill="#94a3b8">Subscription ID:</text>
  <text x="620" y="470" class="text-md" font-family="monospace">SUB-8F2K4M9P3X7L</text>
  <!-- Copy button -->
  <rect x="850" y="450" width="55" height="28" rx="4" fill="#475569"/>
  <text x="877" y="469" text-anchor="middle" class="text-sm" fill="#cbd5e1">Copy</text>

  <!-- Action Buttons -->
  <g transform="translate(60, 510)">
    <rect x="0" y="0" width="140" height="44" rx="6" fill="#eab308" fill-opacity="0.2" stroke="#eab308" stroke-width="1"/>
    <text x="70" y="28" text-anchor="middle" class="heading" fill="#eab308">Pause</text>

    <rect x="160" y="0" width="140" height="44" rx="6" fill="#ef4444" fill-opacity="0.2" stroke="#ef4444" stroke-width="1"/>
    <text x="230" y="28" text-anchor="middle" class="heading" fill="#ef4444">Cancel</text>

    <rect x="700" y="0" width="180" height="44" rx="6" fill="url(#paypalGrad)"/>
    <text x="790" y="28" text-anchor="middle" class="heading" fill="#fff">View in PayPal</text>
  </g>

  <!-- Billing History Link -->
  <text x="60" y="580" class="text-md" fill="#8b5cf6" text-decoration="underline">View billing history (opens PayPal)</text>

  <!-- MOBILE SECTION -->
  <text x="980" y="52" class="label-mobile">MOBILE</text>
  <g id="mobile-view" transform="translate(980, 60)">
    <!-- Phone frame -->
    <rect x="0" y="0" width="360" height="700" rx="24" fill="#1e293b" stroke="#475569" stroke-width="2"/>
    <rect x="10" y="10" width="340" height="680" rx="16" fill="#0f172a"/>

    <!-- Status bar -->
    <rect x="10" y="10" width="340" height="28" rx="16" fill="#1e293b"/>
    <text x="30" y="28" class="text-sm">9:41</text>
    <text x="300" y="28" class="text-sm">100%</text>

    <!-- Header with back -->
    <rect x="20" y="48" width="320" height="44" rx="8" fill="#1e293b"/>
    <text x="35" y="76" class="text-md" fill="#8b5cf6">Back</text>
    <text x="180" y="76" text-anchor="middle" class="heading">Subscription Details</text>

    <!-- Plan header -->
    <rect x="20" y="102" width="320" height="70" rx="8" fill="#334155"/>
    <circle cx="55" cy="137" r="20" fill="#1e293b" stroke="#8b5cf6" stroke-width="2"/>
    <text x="55" y="142" text-anchor="middle" class="heading" fill="#8b5cf6">PRO</text>
    <text x="85" y="128" class="heading">Pro Plan</text>
    <text x="85" y="148" class="text-sm">Professional features</text>
    <rect x="270" y="122" width="55" height="20" rx="10" fill="#22c55e" fill-opacity="0.2"/>
    <text x="297" y="136" text-anchor="middle" class="text-sm" fill="#22c55e">Active</text>

    <!-- Billing cycle section -->
    <text x="30" y="195" class="text-muted">BILLING CYCLE</text>
    <rect x="20" y="205" width="320" height="80" rx="8" fill="#1e293b"/>
    <text x="35" y="230" class="text-sm" fill="#64748b">Frequency</text>
    <text x="300" y="230" text-anchor="end" class="text-md">Monthly</text>
    <text x="35" y="255" class="text-sm" fill="#64748b">Next billing</text>
    <text x="300" y="255" text-anchor="end" class="text-md">Jan 15, 2025</text>
    <text x="35" y="275" class="text-sm" fill="#64748b">Started</text>
    <text x="300" y="275" text-anchor="end" class="text-md">Mar 10, 2024</text>

    <!-- Amount section -->
    <text x="30" y="310" class="text-muted">AMOUNT</text>
    <rect x="20" y="320" width="320" height="90" rx="8" fill="#1e293b"/>
    <text x="35" y="345" class="text-sm" fill="#64748b">Base price</text>
    <text x="300" y="345" text-anchor="end" class="text-md">$17.99</text>
    <text x="35" y="368" class="text-sm" fill="#64748b">Tax</text>
    <text x="300" y="368" text-anchor="end" class="text-md">$2.00</text>
    <line x1="35" y1="380" x2="305" y2="380" stroke="#475569" stroke-width="1"/>
    <text x="35" y="400" class="heading">Total</text>
    <text x="300" y="400" text-anchor="end" class="heading" fill="#8b5cf6">$19.99</text>

    <!-- Payment method -->
    <text x="30" y="435" class="text-muted">PAYMENT</text>
    <rect x="20" y="445" width="320" height="44" rx="8" fill="#1e293b"/>
    <rect x="30" y="455" width="50" height="24" rx="4" fill="url(#paypalGrad)"/>
    <text x="55" y="471" text-anchor="middle" class="text-sm" fill="#fff">PP</text>
    <text x="95" y="472" class="text-md">j***@email.com</text>

    <!-- Reference ID -->
    <text x="30" y="515" class="text-muted">REFERENCE ID</text>
    <rect x="20" y="525" width="320" height="32" rx="8" fill="#1e293b"/>
    <text x="35" y="546" class="text-sm" font-family="monospace">SUB-8F2K4M9P3X7L</text>
    <text x="300" y="546" text-anchor="end" class="text-sm" fill="#8b5cf6">Copy</text>

    <!-- Action buttons -->
    <rect x="20" y="575" width="155" height="40" rx="6" fill="#eab308" fill-opacity="0.2" stroke="#eab308" stroke-width="1"/>
    <text x="97" y="600" text-anchor="middle" class="text-md" fill="#eab308">Pause</text>

    <rect x="185" y="575" width="155" height="40" rx="6" fill="#ef4444" fill-opacity="0.2" stroke="#ef4444" stroke-width="1"/>
    <text x="262" y="600" text-anchor="middle" class="text-md" fill="#ef4444">Cancel</text>

    <!-- PayPal link -->
    <rect x="20" y="625" width="320" height="40" rx="6" fill="url(#paypalGrad)"/>
    <text x="180" y="650" text-anchor="middle" class="text-md" fill="#fff">View in PayPal</text>

    <!-- Bottom nav hint -->
    <rect x="140" y="675" width="80" height="4" rx="2" fill="#475569"/>
  </g>

  <!-- Annotations -->
  <g id="annotations">
    <rect x="40" y="620" width="280" height="80" rx="4" fill="#1e293b" stroke="#8b5cf6" stroke-width="1"/>
    <text x="50" y="640" class="annotation">REQUIREMENTS COVERED</text>
    <text x="50" y="660" class="text-muted">FR-019: Billing frequency</text>
    <text x="50" y="675" class="text-muted">FR-020: Next billing date</text>
    <text x="50" y="690" class="text-muted">FR-021/022: Amount breakdown</text>

    <rect x="340" y="620" width="200" height="80" rx="4" fill="#1e293b" stroke="#8b5cf6" stroke-width="1"/>
    <text x="350" y="640" class="annotation">DATA SOURCE</text>
    <text x="350" y="660" class="text-muted">Cached subscription data</text>
    <text x="350" y="675" class="text-muted">synced via PayPal API</text>
    <text x="350" y="690" class="text-muted">FR-025, FR-026, FR-027</text>
  </g>
</svg>