<svg xmlns="http://www.w3.org/2000/svg" viewBox="0 0 1400 800" width="1400" height="800">
  <!-- ============================================================
       GENERATED BY: /wireframe skill
       SOURCE: features/payments/041-paypal-subscriptions/spec.md
       DATE: 2026-01-01
       THEME: Light (UX/Frontend) - v3 True Parchment
       DO NOT MANUALLY EDIT - Regenerate with /wireframe command
       ============================================================ -->
  <defs>
    <linearGradient id="bgGrad" x1="0%" y1="0%" x2="100%" y2="100%">
      <stop offset="0%" style="stop-color:#c7ddf5"/>
      <stop offset="100%" style="stop-color:#b8d4f0"/>
    </linearGradient>
    <linearGradient id="accentGrad" x1="0%" y1="0%" x2="100%" y2="0%">
      <stop offset="0%" style="stop-color:#8b5cf6"/>
      <stop offset="100%" style="stop-color:#d946ef"/>
    </linearGradient>
    <style>
      .heading-lg { fill: #1a1a2e; font-family: system-ui, sans-serif; font-size: 24px; font-weight: 800; }
      .heading { fill: #1a1a2e; font-family: system-ui, sans-serif; font-size: 16px; font-weight: 700; }
      .text-md { fill: #2d3748; font-family: system-ui, sans-serif; font-size: 14px; font-weight: 500; }
      .text-sm { fill: #374151; font-family: system-ui, sans-serif; font-size: 12px; font-weight: 500; }
      .text-muted { fill: #4b5563; font-family: system-ui, sans-serif; font-size: 11px; font-weight: 500; }
      .annotation { fill: #6d28d9; font-family: monospace; font-size: 12px; font-weight: 600; }
      .label-desktop { fill: #8b5cf6; font-family: monospace; font-size: 13px; font-weight: bold; }
      .label-mobile { fill: #d946ef; font-family: monospace; font-size: 13px; font-weight: bold; }
    </style>
  </defs>

  <!-- Background -->
  <rect width="1400" height="800" fill="url(#bgGrad)"/>

  <!-- Dot grid pattern -->
  <g opacity="0.35">
    <pattern id="dots" width="30" height="30" patternUnits="userSpaceOnUse">
      <circle cx="15" cy="15" r="1" fill="#6b8cba"/>
    </pattern>
    <rect width="1400" height="800" fill="url(#dots)"/>
  </g>

  <!-- Accent line top -->
  <rect x="0" y="0" width="1400" height="3" fill="url(#accentGrad)"/>

  <!-- Title -->
  <text x="700" y="28" text-anchor="middle" font-family="system-ui, sans-serif" font-size="14" font-weight="600" fill="#4b5563" letter-spacing="1">SUBSCRIPTION ACTIONS - CANCEL &amp; PAUSE DIALOGS</text>

  <!-- DESKTOP SECTION -->
  <text x="40" y="52" class="label-desktop">DESKTOP DIALOGS</text>
  <g id="desktop-view">

    <!-- Cancel Dialog -->
    <g transform="translate(40, 70)">
      <text x="0" y="0" class="heading" fill="#ef4444">Cancel Subscription Dialog</text>

      <!-- Modal backdrop indication -->
      <rect x="0" y="15" width="420" height="340" rx="12" fill="#1a1a2e" opacity="0.1"/>

      <!-- Modal -->
      <rect x="10" y="25" width="400" height="320" rx="12" fill="#f5f0e6" stroke="#b8a080" stroke-width="2"/>

      <!-- Modal header -->
      <rect x="10" y="25" width="400" height="50" rx="12" fill="#fee2e2"/>
      <rect x="10" y="63" width="400" height="12" fill="#fee2e2"/>
      <text x="30" y="58" class="heading" fill="#991b1b">⚠️ Cancel Subscription?</text>
      <text x="380" y="55" font-size="18" fill="#991b1b" cursor="pointer">✕</text>

      <!-- Plan being cancelled -->
      <rect x="30" y="90" width="360" height="60" rx="8" fill="#e8d4b8"/>
      <text x="45" y="115" class="text-md">Pro Monthly Plan</text>
      <text x="45" y="135" class="text-sm" fill="#4b5563">$29.99/month • Next billing: Jan 15, 2026</text>

      <!-- Warning content -->
      <g transform="translate(30, 165)">
        <text x="0" y="0" class="text-md" font-weight="600">What happens when you cancel:</text>

        <circle cx="10" cy="25" r="4" fill="#ef4444"/>
        <text x="25" y="30" class="text-sm">Your subscription will remain active until Feb 14, 2026</text>

        <circle cx="10" cy="50" r="4" fill="#ef4444"/>
        <text x="25" y="55" class="text-sm">You won't be charged again after this date</text>

        <circle cx="10" cy="75" r="4" fill="#ef4444"/>
        <text x="25" y="80" class="text-sm">No refund for the current billing period</text>

        <circle cx="10" cy="100" r="4" fill="#22c55e"/>
        <text x="25" y="105" class="text-sm">You can resubscribe anytime</text>
      </g>

      <!-- Buttons -->
      <rect x="30" y="295" width="170" height="40" rx="6" fill="none" stroke="#b8a080" stroke-width="2"/>
      <text x="115" y="320" text-anchor="middle" class="text-md">Keep Subscription</text>

      <rect x="210" y="295" width="180" height="40" rx="6" fill="#ef4444"/>
      <text x="300" y="320" text-anchor="middle" fill="#fff" font-size="14" font-weight="600">Cancel Subscription</text>
    </g>

    <!-- Pause Dialog -->
    <g transform="translate(480, 70)">
      <text x="0" y="0" class="heading" fill="#8b5cf6">Pause Subscription Dialog</text>

      <!-- Modal backdrop indication -->
      <rect x="0" y="15" width="420" height="340" rx="12" fill="#1a1a2e" opacity="0.1"/>

      <!-- Modal -->
      <rect x="10" y="25" width="400" height="320" rx="12" fill="#f5f0e6" stroke="#b8a080" stroke-width="2"/>

      <!-- Modal header -->
      <rect x="10" y="25" width="400" height="50" rx="12" fill="#dcc8a8"/>
      <rect x="10" y="63" width="400" height="12" fill="#dcc8a8"/>
      <text x="30" y="58" class="heading">⏸️ Pause Subscription</text>
      <text x="380" y="55" font-size="18" fill="#4b5563" cursor="pointer">✕</text>

      <!-- Plan being paused -->
      <rect x="30" y="90" width="360" height="50" rx="8" fill="#e8d4b8"/>
      <text x="45" y="115" class="text-md">Pro Monthly Plan</text>
      <text x="45" y="130" class="text-sm" fill="#4b5563">$29.99/month</text>

      <!-- Duration selector -->
      <text x="30" y="165" class="text-md" font-weight="600">How long do you want to pause?</text>

      <!-- Radio options -->
      <g transform="translate(30, 180)">
        <!-- Option 1 -->
        <rect x="0" y="0" width="170" height="50" rx="8" fill="#e8d4b8" stroke="#8b5cf6" stroke-width="2"/>
        <circle cx="20" cy="25" r="8" fill="none" stroke="#8b5cf6" stroke-width="2"/>
        <circle cx="20" cy="25" r="4" fill="#8b5cf6"/>
        <text x="40" y="22" class="text-md" font-weight="600">1 Month</text>
        <text x="40" y="38" class="text-muted">Resume: Feb 1, 2026</text>

        <!-- Option 2 -->
        <rect x="180" y="0" width="170" height="50" rx="8" fill="#f5f0e6" stroke="#b8a080"/>
        <circle cx="200" cy="25" r="8" fill="none" stroke="#b8a080" stroke-width="2"/>
        <text x="220" y="22" class="text-md" font-weight="600">3 Months</text>
        <text x="220" y="38" class="text-muted">Resume: Apr 1, 2026</text>
      </g>

      <!-- Info note -->
      <rect x="30" y="245" width="360" height="40" rx="6" fill="#fef9c3"/>
      <text x="45" y="265" class="text-sm" fill="#854d0e">ℹ️ You won't be charged while paused. Resume anytime.</text>
      <text x="45" y="280" class="text-sm" fill="#854d0e">Max pause: 3 months per year.</text>

      <!-- Buttons -->
      <rect x="30" y="295" width="120" height="40" rx="6" fill="none" stroke="#b8a080" stroke-width="2"/>
      <text x="90" y="320" text-anchor="middle" class="text-md">Cancel</text>

      <rect x="160" y="295" width="200" height="40" rx="6" fill="#8b5cf6"/>
      <text x="260" y="320" text-anchor="middle" fill="#fff" font-size="14" font-weight="600">Pause for 1 Month</text>
    </g>

    <!-- Processing States -->
    <g transform="translate(40, 430)">
      <text x="0" y="0" class="heading">Processing &amp; Error States</text>

      <!-- Processing state -->
      <rect x="0" y="15" width="280" height="100" rx="8" fill="#f5f0e6" stroke="#b8a080"/>
      <text x="20" y="40" class="text-md" font-weight="600">Processing...</text>

      <!-- Spinner -->
      <circle cx="140" cy="75" r="16" fill="none" stroke="#e8d4b8" stroke-width="4"/>
      <path d="M 140 59 A 16 16 0 0 1 156 75" fill="none" stroke="#8b5cf6" stroke-width="4" stroke-linecap="round"/>
      <text x="140" y="105" text-anchor="middle" class="text-sm">Cancelling subscription...</text>

      <!-- Error state -->
      <rect x="300" y="15" width="280" height="100" rx="8" fill="#fee2e2" stroke="#ef4444"/>
      <text x="320" y="40" class="text-md" fill="#991b1b" font-weight="600">❌ Cancellation Failed</text>
      <text x="320" y="62" class="text-sm" fill="#991b1b">Unable to connect to PayPal.</text>
      <text x="320" y="78" class="text-sm" fill="#991b1b">Please try again.</text>

      <rect x="320" y="90" width="100" height="28" rx="6" fill="#ef4444"/>
      <text x="370" y="108" text-anchor="middle" fill="#fff" font-size="12" font-weight="600">Retry</text>

      <!-- Success state -->
      <rect x="600" y="15" width="280" height="100" rx="8" fill="#dcfce7" stroke="#22c55e"/>
      <text x="620" y="40" class="text-md" fill="#166534" font-weight="600">✓ Subscription Cancelled</text>
      <text x="620" y="62" class="text-sm" fill="#166534">Your Pro Monthly plan has been</text>
      <text x="620" y="78" class="text-sm" fill="#166534">cancelled. Service ends Feb 14, 2026.</text>

      <rect x="620" y="90" width="100" height="28" rx="6" fill="#22c55e"/>
      <text x="670" y="108" text-anchor="middle" fill="#fff" font-size="12" font-weight="600">Done</text>
    </g>

    <!-- Pause not supported state -->
    <g transform="translate(40, 550)">
      <text x="0" y="0" class="heading">Pause Not Supported State</text>

      <rect x="0" y="15" width="400" height="80" rx="8" fill="#f5f0e6" stroke="#b8a080"/>
      <text x="20" y="45" class="text-md" font-weight="600">⏸️ Pause Not Available</text>
      <text x="20" y="68" class="text-sm">This plan doesn't support pausing. You can cancel</text>
      <text x="20" y="85" class="text-sm">and resubscribe later instead.</text>

      <rect x="300" y="45" width="80" height="32" rx="6" fill="none" stroke="#ef4444" stroke-width="2"/>
      <text x="340" y="66" text-anchor="middle" fill="#ef4444" font-size="12" font-weight="600">Cancel</text>
    </g>
  </g>

  <!-- MOBILE SECTION -->
  <text x="980" y="52" class="label-mobile">MOBILE</text>
  <g id="mobile-view" transform="translate(980, 60)">
    <!-- Phone frame -->
    <rect x="0" y="0" width="360" height="700" rx="24" fill="#c8b898" stroke="#a08860" stroke-width="2"/>
    <!-- Screen area -->
    <rect x="10" y="10" width="340" height="680" rx="16" fill="#e8d4b8"/>

    <!-- Status bar -->
    <rect x="10" y="10" width="340" height="28" rx="16" fill="#dcc8a8"/>
    <text x="30" y="28" class="text-sm">9:41</text>
    <text x="310" y="28" class="text-sm">📶 🔋</text>

    <!-- Modal overlay simulation -->
    <rect x="10" y="38" width="340" height="652" rx="0" fill="#1a1a2e" opacity="0.5"/>

    <!-- Bottom sheet modal -->
    <rect x="10" y="200" width="340" height="490" rx="16" fill="#f5f0e6"/>

    <!-- Drag handle -->
    <rect x="155" y="210" width="50" height="4" rx="2" fill="#b8a080"/>

    <!-- Modal header -->
    <text x="30" y="245" font-size="18" font-weight="700" fill="#991b1b">⚠️ Cancel Subscription?</text>

    <!-- Plan info -->
    <rect x="30" y="260" width="300" height="50" rx="8" fill="#e8d4b8"/>
    <text x="45" y="285" class="text-md">Pro Monthly Plan</text>
    <text x="45" y="302" class="text-muted">$29.99/month</text>

    <!-- Warning list -->
    <g transform="translate(30, 325)">
      <text x="0" y="0" class="text-sm" font-weight="600">What happens:</text>

      <text x="0" y="25" class="text-sm">• Active until Feb 14, 2026</text>
      <text x="0" y="45" class="text-sm">• No more charges</text>
      <text x="0" y="65" class="text-sm">• No refund for current period</text>
      <text x="0" y="85" class="text-sm" fill="#22c55e">• Can resubscribe anytime</text>
    </g>

    <!-- Checkbox confirmation -->
    <g transform="translate(30, 430)">
      <rect x="0" y="0" width="20" height="20" rx="4" fill="none" stroke="#b8a080" stroke-width="2"/>
      <text x="30" y="15" class="text-sm">I understand I won't get a refund</text>
    </g>

    <!-- Buttons - full width stacked -->
    <rect x="30" y="470" width="300" height="44" rx="8" fill="#ef4444"/>
    <text x="180" y="498" text-anchor="middle" fill="#fff" font-size="14" font-weight="600">Cancel Subscription</text>

    <rect x="30" y="524" width="300" height="44" rx="8" fill="none" stroke="#b8a080" stroke-width="2"/>
    <text x="180" y="552" text-anchor="middle" class="text-md">Keep Subscription</text>

    <!-- Service end reminder -->
    <rect x="30" y="580" width="300" height="55" rx="8" fill="#fef9c3"/>
    <text x="45" y="602" class="text-sm" fill="#854d0e">ℹ️ Your access continues until</text>
    <text x="45" y="620" class="text-sm" fill="#854d0e" font-weight="600">Feb 14, 2026</text>

    <!-- Home indicator -->
    <rect x="130" y="660" width="100" height="5" rx="2" fill="#a08860"/>
  </g>

  <!-- Annotations -->
  <g class="annotation-box" transform="translate(40, 650)">
    <rect x="0" y="0" width="290" height="50" rx="4" fill="#e8d4b8" stroke="#8b5cf6" stroke-width="1"/>
    <text x="10" y="18" class="annotation">FR-007-012: Cancel flow</text>
    <text x="10" y="32" class="text-muted">Confirmation, implications, end date</text>
    <text x="10" y="46" class="text-muted">Error handling with retry</text>
  </g>

  <g class="annotation-box" transform="translate(350, 650)">
    <rect x="0" y="0" width="290" height="50" rx="4" fill="#e8d4b8" stroke="#8b5cf6" stroke-width="1"/>
    <text x="10" y="18" class="annotation">FR-013-018: Pause/Resume flow</text>
    <text x="10" y="32" class="text-muted">Duration options, resume date</text>
    <text x="10" y="46" class="text-muted">Not-supported state handling</text>
  </g>

  <g class="annotation-box" transform="translate(660, 650)">
    <rect x="0" y="0" width="260" height="50" rx="4" fill="#e8d4b8" stroke="#8b5cf6" stroke-width="1"/>
    <text x="10" y="18" class="annotation">NFR-010-012: UX Requirements</text>
    <text x="10" y="32" class="text-muted">Loading states, mobile-friendly</text>
    <text x="10" y="46" class="text-muted">User-friendly errors</text>
  </g>
</svg>