<svg xmlns="http://www.w3.org/2000/svg" viewBox="0 0 1400 800" width="1400" height="800">
  <!-- ============================================================
       GENERATED BY: /wireframe skill
       SOURCE: features/payments/041-paypal-subscriptions/spec.md
       DATE: 2025-12-31
       DO NOT MANUALLY EDIT - Regenerate with /wireframe command
       ============================================================ -->
  <defs>
    <linearGradient id="bgGrad" x1="0%" y1="0%" x2="100%" y2="100%">
      <stop offset="0%" style="stop-color:#0f172a"/>
      <stop offset="100%" style="stop-color:#1e293b"/>
    </linearGradient>
    <linearGradient id="accentGrad" x1="0%" y1="0%" x2="100%" y2="0%">
      <stop offset="0%" style="stop-color:#8b5cf6"/>
      <stop offset="100%" style="stop-color:#d946ef"/>
    </linearGradient>
    <style>
      .heading-lg { fill: #ffffff; font-family: system-ui, sans-serif; font-size: 20px; font-weight: bold; }
      .heading { fill: #ffffff; font-family: system-ui, sans-serif; font-size: 14px; font-weight: bold; }
      .text-md { fill: #cbd5e1; font-family: system-ui, sans-serif; font-size: 12px; }
      .text-sm { fill: #94a3b8; font-family: system-ui, sans-serif; font-size: 10px; }
      .text-muted { fill: #64748b; font-family: system-ui, sans-serif; font-size: 10px; }
      .annotation { fill: #8b5cf6; font-family: monospace; font-size: 10px; }
      .label-desktop { fill: #8b5cf6; font-family: monospace; font-size: 11px; font-weight: bold; }
      .label-mobile { fill: #d946ef; font-family: monospace; font-size: 11px; font-weight: bold; }
    </style>
  </defs>

  <!-- Background -->
  <rect width="1400" height="800" fill="url(#bgGrad)"/>

  <!-- Dot grid pattern -->
  <g opacity="0.05">
    <pattern id="dots" width="30" height="30" patternUnits="userSpaceOnUse">
      <circle cx="15" cy="15" r="1" fill="#fff"/>
    </pattern>
    <rect width="1400" height="800" fill="url(#dots)"/>
  </g>

  <!-- Accent line top -->
  <rect x="0" y="0" width="1400" height="3" fill="url(#accentGrad)"/>

  <!-- Title -->
  <text x="700" y="28" text-anchor="middle" font-family="system-ui, sans-serif" font-size="14" font-weight="600" fill="#64748b" letter-spacing="1">PAYPAL SUBSCRIPTIONS - CANCEL FLOW</text>

  <!-- DESKTOP SECTION -->
  <text x="40" y="52" class="label-desktop">DESKTOP - CANCEL CONFIRMATION DIALOG</text>

  <!-- Backdrop (dimmed) -->
  <rect x="40" y="60" width="900" height="530" rx="8" fill="#0f172a" opacity="0.7"/>

  <!-- Dialog box -->
  <rect x="200" y="120" width="520" height="400" rx="12" fill="#1e293b" stroke="#ef4444" stroke-width="2"/>

  <!-- Dialog header -->
  <rect x="200" y="120" width="520" height="60" rx="12" fill="#ef4444" fill-opacity="0.1"/>
  <rect x="200" y="168" width="520" height="12" fill="#ef4444" fill-opacity="0.1"/>

  <!-- Warning icon -->
  <circle cx="460" cy="150" r="20" fill="#ef4444" fill-opacity="0.2" stroke="#ef4444" stroke-width="2"/>
  <text x="460" y="158" text-anchor="middle" class="heading-lg" fill="#ef4444">!</text>

  <!-- Dialog title -->
  <text x="460" y="210" text-anchor="middle" class="heading-lg">Cancel Subscription?</text>

  <!-- Plan name -->
  <rect x="320" y="225" width="280" height="30" rx="6" fill="#334155"/>
  <text x="460" y="245" text-anchor="middle" class="text-md">ScriptHammer Pro Plan - $19.99/mo</text>

  <!-- Implications section -->
  <text x="230" y="285" class="heading" fill="#eab308">What happens when you cancel:</text>

  <g transform="translate(230, 300)">
    <!-- Bullet points -->
    <circle cx="10" cy="8" r="3" fill="#94a3b8"/>
    <text x="25" y="12" class="text-md">You'll keep access until January 15, 2025</text>

    <circle cx="10" cy="35" r="3" fill="#94a3b8"/>
    <text x="25" y="39" class="text-md">No charges after your current billing period</text>

    <circle cx="10" cy="62" r="3" fill="#94a3b8"/>
    <text x="25" y="66" class="text-md">You can resubscribe anytime</text>

    <circle cx="10" cy="89" r="3" fill="#ef4444"/>
    <text x="25" y="93" class="text-md" fill="#ef4444">No partial refunds available</text>
  </g>

  <!-- Action buttons -->
  <rect x="230" y="430" width="200" height="44" rx="6" fill="#334155" stroke="#475569" stroke-width="1"/>
  <text x="330" y="458" text-anchor="middle" class="heading" fill="#cbd5e1">Keep Subscription</text>

  <rect x="450" y="430" width="240" height="44" rx="6" fill="#ef4444"/>
  <text x="570" y="458" text-anchor="middle" class="heading" fill="#fff">Cancel Subscription</text>

  <!-- Close X -->
  <text x="690" y="145" text-anchor="middle" class="heading" fill="#64748b" cursor="pointer">X</text>

  <!-- SUCCESS STATE (below) -->
  <text x="40" y="620" class="label-desktop">SUCCESS STATE</text>

  <rect x="40" y="635" width="400" height="120" rx="8" fill="#1e293b" stroke="#22c55e" stroke-width="2"/>

  <!-- Success icon -->
  <circle cx="90" cy="695" r="24" fill="#22c55e" fill-opacity="0.2"/>
  <text x="90" y="702" text-anchor="middle" class="heading-lg" fill="#22c55e">OK</text>

  <text x="130" y="675" class="heading">Subscription Cancelled</text>
  <text x="130" y="700" class="text-md">Your Pro Plan access ends Jan 15, 2025</text>
  <text x="130" y="720" class="text-sm" fill="#8b5cf6">Want to come back? Resubscribe anytime</text>

  <!-- ERROR STATE -->
  <text x="460" y="620" class="label-desktop">ERROR STATE</text>

  <rect x="460" y="635" width="400" height="120" rx="8" fill="#1e293b" stroke="#ef4444" stroke-width="2"/>

  <!-- Error icon -->
  <circle cx="510" cy="695" r="24" fill="#ef4444" fill-opacity="0.2"/>
  <text x="510" y="702" text-anchor="middle" class="heading-lg" fill="#ef4444">X</text>

  <text x="550" y="675" class="heading" fill="#ef4444">Cancellation Failed</text>
  <text x="550" y="700" class="text-md">Unable to process your request</text>
  <rect x="550" y="710" width="80" height="28" rx="6" fill="#334155" stroke="#475569" stroke-width="1"/>
  <text x="590" y="729" text-anchor="middle" class="text-sm" fill="#cbd5e1">Retry</text>
  <rect x="640" y="710" width="100" height="28" rx="6" fill="#334155"/>
  <text x="690" y="729" text-anchor="middle" class="text-sm" fill="#8b5cf6">Contact Support</text>

  <!-- MOBILE SECTION -->
  <text x="980" y="52" class="label-mobile">MOBILE</text>
  <g id="mobile-view" transform="translate(980, 60)">
    <!-- Phone frame -->
    <rect x="0" y="0" width="360" height="700" rx="24" fill="#1e293b" stroke="#475569" stroke-width="2"/>
    <rect x="10" y="10" width="340" height="680" rx="16" fill="#0f172a"/>

    <!-- Status bar -->
    <rect x="10" y="10" width="340" height="28" rx="16" fill="#1e293b"/>
    <text x="30" y="28" class="text-sm">9:41</text>
    <text x="300" y="28" class="text-sm">100%</text>

    <!-- Dimmed backdrop content -->
    <rect x="20" y="48" width="320" height="120" rx="8" fill="#1e293b" opacity="0.3"/>
    <rect x="20" y="178" width="320" height="80" rx="8" fill="#1e293b" opacity="0.3"/>

    <!-- Bottom sheet dialog -->
    <rect x="10" y="280" width="340" height="390" rx="16" fill="#1e293b" stroke="#ef4444" stroke-width="2"/>

    <!-- Drag handle -->
    <rect x="155" y="290" width="50" height="4" rx="2" fill="#475569"/>

    <!-- Warning icon -->
    <circle cx="180" cy="340" r="24" fill="#ef4444" fill-opacity="0.2" stroke="#ef4444" stroke-width="2"/>
    <text x="180" y="348" text-anchor="middle" class="heading-lg" fill="#ef4444">!</text>

    <!-- Title -->
    <text x="180" y="385" text-anchor="middle" class="heading-lg">Cancel Subscription?</text>

    <!-- Plan pill -->
    <rect x="80" y="395" width="200" height="26" rx="6" fill="#334155"/>
    <text x="180" y="413" text-anchor="middle" class="text-sm">Pro Plan - $19.99/mo</text>

    <!-- Implications -->
    <text x="30" y="450" class="text-sm" fill="#eab308">What happens:</text>

    <g transform="translate(30, 460)">
      <circle cx="8" cy="10" r="2" fill="#94a3b8"/>
      <text x="18" y="14" class="text-sm">Keep access until Jan 15, 2025</text>

      <circle cx="8" cy="32" r="2" fill="#94a3b8"/>
      <text x="18" y="36" class="text-sm">No more charges after current period</text>

      <circle cx="8" cy="54" r="2" fill="#94a3b8"/>
      <text x="18" y="58" class="text-sm">Resubscribe anytime</text>

      <circle cx="8" cy="76" r="2" fill="#ef4444"/>
      <text x="18" y="80" class="text-sm" fill="#ef4444">No partial refunds</text>
    </g>

    <!-- Buttons -->
    <rect x="25" y="570" width="300" height="44" rx="6" fill="#ef4444"/>
    <text x="175" y="598" text-anchor="middle" class="heading" fill="#fff">Cancel Subscription</text>

    <rect x="25" y="622" width="300" height="40" rx="6" fill="#334155"/>
    <text x="175" y="648" text-anchor="middle" class="text-md" fill="#cbd5e1">Keep Subscription</text>

    <!-- Bottom nav hint -->
    <rect x="140" y="675" width="80" height="4" rx="2" fill="#475569"/>
  </g>

  <!-- Annotations -->
  <g id="annotations">
    <rect x="40" y="760" width="260" height="35" rx="4" fill="#1e293b" stroke="#8b5cf6" stroke-width="1"/>
    <text x="50" y="782" class="annotation">FR-007: Confirm before cancel | FR-008: Show implications</text>
  </g>
</svg>