<svg xmlns="http://www.w3.org/2000/svg" viewBox="0 0 1400 800" width="1400" height="800">
  <!-- ============================================================
       GENERATED BY: /wireframe skill
       SOURCE: features/payments/041-paypal-subscriptions/spec.md
       DATE: 2026-01-01
       THEME: Dark (Backend/Architecture)
       DO NOT MANUALLY EDIT - Regenerate with /wireframe command
       ============================================================ -->
  <defs>
    <linearGradient id="bgGrad" x1="0%" y1="0%" x2="100%" y2="100%">
      <stop offset="0%" style="stop-color:#0f172a"/>
      <stop offset="100%" style="stop-color:#1e293b"/>
    </linearGradient>
    <linearGradient id="accentGrad" x1="0%" y1="0%" x2="100%" y2="0%">
      <stop offset="0%" style="stop-color:#8b5cf6"/>
      <stop offset="100%" style="stop-color:#d946ef"/>
    </linearGradient>
    <linearGradient id="paypalGrad" x1="0%" y1="0%" x2="100%" y2="100%">
      <stop offset="0%" style="stop-color:#003087"/>
      <stop offset="100%" style="stop-color:#009cde"/>
    </linearGradient>
    <style>
      .heading-lg { fill: #ffffff; font-family: system-ui, sans-serif; font-size: 20px; font-weight: bold; }
      .heading { fill: #ffffff; font-family: system-ui, sans-serif; font-size: 14px; font-weight: bold; }
      .text-md { fill: #cbd5e1; font-family: system-ui, sans-serif; font-size: 12px; }
      .text-sm { fill: #94a3b8; font-family: system-ui, sans-serif; font-size: 10px; }
      .text-muted { fill: #8494a8; font-family: system-ui, sans-serif; font-size: 10px; }
      .annotation { fill: #8b5cf6; font-family: monospace; font-size: 10px; }
      .code { fill: #22c55e; font-family: monospace; font-size: 10px; }
    </style>
    <!-- Arrow marker -->
    <marker id="arrowhead" markerWidth="10" markerHeight="7" refX="9" refY="3.5" orient="auto">
      <polygon points="0 0, 10 3.5, 0 7" fill="#8b5cf6"/>
    </marker>
    <marker id="arrowhead-green" markerWidth="10" markerHeight="7" refX="9" refY="3.5" orient="auto">
      <polygon points="0 0, 10 3.5, 0 7" fill="#22c55e"/>
    </marker>
    <marker id="arrowhead-yellow" markerWidth="10" markerHeight="7" refX="9" refY="3.5" orient="auto">
      <polygon points="0 0, 10 3.5, 0 7" fill="#eab308"/>
    </marker>
  </defs>

  <!-- Background -->
  <rect width="1400" height="800" fill="url(#bgGrad)"/>

  <!-- Dot grid pattern -->
  <g opacity="0.05">
    <pattern id="dots" width="30" height="30" patternUnits="userSpaceOnUse">
      <circle cx="15" cy="15" r="1" fill="#fff"/>
    </pattern>
    <rect width="1400" height="800" fill="url(#dots)"/>
  </g>

  <!-- Accent line top -->
  <rect x="0" y="0" width="1400" height="3" fill="url(#accentGrad)"/>

  <!-- Title -->
  <text x="700" y="28" text-anchor="middle" font-family="system-ui, sans-serif" font-size="14" font-weight="600" fill="#8494a8" letter-spacing="1">PAYPAL SUBSCRIPTION MANAGEMENT - ARCHITECTURE</text>

  <!-- ==================== CLIENT LAYER ==================== -->
  <g transform="translate(40, 50)">
    <text x="0" y="0" class="heading-lg">Client Layer (Browser)</text>

    <!-- React Component Box -->
    <rect x="0" y="20" width="300" height="180" rx="8" fill="#1e293b" stroke="#475569"/>
    <text x="15" y="45" class="heading">SubscriptionsPage.tsx</text>

    <rect x="15" y="60" width="270" height="130" rx="4" fill="#334155"/>
    <text x="25" y="80" class="code">const { data, loading } = useQuery(</text>
    <text x="25" y="95" class="code">  getSubscriptions</text>
    <text x="25" y="110" class="code">);</text>
    <text x="25" y="130" class="text-sm">• Subscription list display</text>
    <text x="25" y="145" class="text-sm">• Cancel/Pause dialogs</text>
    <text x="25" y="160" class="text-sm">• Loading &amp; error states</text>
    <text x="25" y="175" class="text-sm">• Mobile-responsive cards</text>

    <!-- Local Cache Box -->
    <rect x="320" y="20" width="200" height="180" rx="8" fill="#1e293b" stroke="#eab308"/>
    <text x="335" y="45" class="heading" fill="#eab308">🗄️ Local Cache</text>

    <rect x="335" y="60" width="170" height="130" rx="4" fill="#334155"/>
    <text x="345" y="80" class="text-sm">IndexedDB / LocalStorage</text>
    <text x="345" y="100" class="text-md" fill="#fff">Cached Data:</text>
    <text x="345" y="118" class="text-sm">• subscription_list</text>
    <text x="345" y="133" class="text-sm">• last_sync_time</text>
    <text x="345" y="148" class="text-sm">• subscription_details</text>
    <text x="345" y="168" class="text-muted">TTL: 5 minutes (NFR-003)</text>
  </g>

  <!-- ==================== SECURITY BOUNDARY ==================== -->
  <g transform="translate(40, 260)">
    <!-- Security line -->
    <rect x="0" y="0" width="560" height="4" fill="url(#accentGrad)" rx="2"/>
    <rect x="200" y="-12" width="160" height="24" rx="4" fill="#0f172a"/>
    <text x="280" y="5" text-anchor="middle" class="heading" fill="#d946ef">🔒 SECURITY BOUNDARY</text>

    <text x="0" y="30" class="text-muted">NFR-004: API credentials NEVER exposed to browser</text>
    <text x="0" y="45" class="text-muted">NFR-005: All PayPal calls via authenticated server function</text>
  </g>

  <!-- ==================== SERVER LAYER ==================== -->
  <g transform="translate(40, 330)">
    <text x="0" y="0" class="heading-lg">Server Layer (Supabase Edge Functions)</text>

    <!-- Edge Function Box -->
    <rect x="0" y="20" width="520" height="200" rx="8" fill="#1e293b" stroke="#22c55e"/>
    <text x="15" y="45" class="heading" fill="#22c55e">⚡ Edge Function: paypal-subscriptions</text>

    <!-- Endpoints -->
    <g transform="translate(15, 60)">
      <rect x="0" y="0" width="240" height="150" rx="4" fill="#334155"/>
      <text x="10" y="20" class="text-md" fill="#fff">Endpoints:</text>

      <text x="10" y="42" class="code">GET /subscriptions</text>
      <text x="180" y="42" class="text-sm">→ List all</text>

      <text x="10" y="62" class="code">POST /cancel</text>
      <text x="180" y="62" class="text-sm">→ Cancel sub</text>

      <text x="10" y="82" class="code">POST /pause</text>
      <text x="180" y="82" class="text-sm">→ Pause sub</text>

      <text x="10" y="102" class="code">POST /resume</text>
      <text x="180" y="102" class="text-sm">→ Resume sub</text>

      <text x="10" y="122" class="code">POST /sync</text>
      <text x="180" y="122" class="text-sm">→ Force sync</text>

      <text x="10" y="142" class="text-muted">Auth: JWT required (user.id)</text>
    </g>

    <!-- Validation box -->
    <g transform="translate(265, 60)">
      <rect x="0" y="0" width="240" height="150" rx="4" fill="#334155"/>
      <text x="10" y="20" class="text-md" fill="#fff">Security Checks:</text>

      <text x="10" y="42" class="text-sm">✓ Validate JWT token</text>
      <text x="10" y="60" class="text-sm">✓ Extract user_id from token</text>
      <text x="10" y="78" class="text-sm">✓ Verify subscription ownership</text>
      <text x="10" y="96" class="text-sm">✓ Rate limit: 10 req/min</text>
      <text x="10" y="114" class="text-sm">✓ Sanitize inputs</text>

      <text x="10" y="140" class="annotation">NFR-006: Users only see own data</text>
    </g>
  </g>

  <!-- ==================== DATABASE LAYER ==================== -->
  <g transform="translate(40, 555)">
    <text x="0" y="0" class="heading-lg">Database Layer (Supabase PostgreSQL)</text>

    <!-- Subscriptions table -->
    <rect x="0" y="20" width="260" height="180" rx="8" fill="#1e293b" stroke="#8b5cf6"/>
    <text x="15" y="45" class="heading">📊 user_subscriptions</text>

    <rect x="15" y="60" width="230" height="130" rx="4" fill="#334155"/>
    <text x="25" y="80" class="code">id: uuid (PK)</text>
    <text x="25" y="95" class="code">user_id: uuid (FK → auth.users)</text>
    <text x="25" y="110" class="code">paypal_subscription_id: text</text>
    <text x="25" y="125" class="code">plan_id: text</text>
    <text x="25" y="140" class="code">status: enum</text>
    <text x="25" y="155" class="code">billing_info: jsonb</text>
    <text x="25" y="170" class="code">last_synced_at: timestamptz</text>

    <!-- RLS Policy box -->
    <rect x="280" y="20" width="240" height="180" rx="8" fill="#1e293b" stroke="#d946ef"/>
    <text x="295" y="45" class="heading" fill="#d946ef">🛡️ RLS Policies (042)</text>

    <rect x="295" y="60" width="210" height="130" rx="4" fill="#334155"/>
    <text x="305" y="82" class="text-md" fill="#fff">SELECT Policy:</text>
    <text x="305" y="100" class="code">user_id = auth.uid()</text>

    <text x="305" y="125" class="text-md" fill="#fff">UPDATE Policy:</text>
    <text x="305" y="143" class="code">user_id = auth.uid()</text>

    <text x="305" y="168" class="text-muted">No direct INSERT/DELETE</text>
    <text x="305" y="183" class="text-muted">(managed by server)</text>
  </g>

  <!-- ==================== PAYPAL EXTERNAL SERVICE ==================== -->
  <g transform="translate(620, 50)">
    <text x="0" y="0" class="heading-lg">External Service</text>

    <!-- PayPal API Box -->
    <rect x="0" y="20" width="340" height="280" rx="12" fill="url(#paypalGrad)"/>
    <text x="170" y="55" text-anchor="middle" font-size="24" font-weight="bold" fill="#fff">PayPal</text>
    <text x="170" y="75" text-anchor="middle" class="text-md" fill="#fff">Subscriptions API v1</text>

    <rect x="20" y="95" width="300" height="190" rx="8" fill="#002060"/>

    <text x="35" y="120" class="text-md" fill="#fff">API Endpoints:</text>

    <text x="35" y="145" class="code" fill="#00d4ff">GET /v1/billing/subscriptions/{id}</text>
    <text x="35" y="165" class="code" fill="#00d4ff">POST /v1/billing/subscriptions/{id}/cancel</text>
    <text x="35" y="185" class="code" fill="#00d4ff">POST /v1/billing/subscriptions/{id}/suspend</text>
    <text x="35" y="205" class="code" fill="#00d4ff">POST /v1/billing/subscriptions/{id}/activate</text>

    <text x="35" y="235" class="text-sm" fill="#94a3b8">Authentication: OAuth 2.0 Client Credentials</text>
    <text x="35" y="252" class="text-sm" fill="#94a3b8">Rate Limit: 30 req/sec (NFR-007)</text>
    <text x="35" y="269" class="text-sm" fill="#94a3b8">Credentials: ENV PAYPAL_CLIENT_ID/SECRET</text>
  </g>

  <!-- ==================== DATA FLOW ARROWS ==================== -->
  <g id="data-flows">
    <!-- Client to Cache (bidirectional) -->
    <line x1="300" y1="160" x2="320" y2="160" stroke="#eab308" stroke-width="2" marker-end="url(#arrowhead-yellow)"/>
    <line x1="320" y1="140" x2="300" y2="140" stroke="#eab308" stroke-width="2" marker-end="url(#arrowhead-yellow)"/>
    <text x="280" y="120" class="text-muted">read/write</text>

    <!-- Client to Server -->
    <line x1="200" y1="250" x2="200" y2="350" stroke="#8b5cf6" stroke-width="2" marker-end="url(#arrowhead)"/>
    <text x="210" y="300" class="annotation">HTTPS + JWT</text>

    <!-- Server to Database -->
    <line x1="200" y1="550" x2="200" y2="575" stroke="#8b5cf6" stroke-width="2" marker-end="url(#arrowhead)"/>
    <text x="210" y="565" class="annotation">SQL + RLS</text>

    <!-- Server to PayPal -->
    <line x1="560" y1="430" x2="620" y2="200" stroke="#22c55e" stroke-width="2" marker-end="url(#arrowhead-green)"/>
    <text x="580" y="310" class="code" transform="rotate(-50, 580, 310)">OAuth + REST</text>

    <!-- Cache sync from Server -->
    <line x1="400" y1="350" x2="400" y2="250" stroke="#eab308" stroke-width="2" stroke-dasharray="5,3" marker-end="url(#arrowhead-yellow)"/>
    <text x="410" y="300" class="text-muted">sync</text>
  </g>

  <!-- ==================== FLOW SEQUENCE ==================== -->
  <g transform="translate(620, 350)">
    <rect x="0" y="0" width="340" height="200" rx="8" fill="#1e293b" stroke="#475569"/>
    <text x="170" y="25" text-anchor="middle" class="heading">📋 Request Flow Sequence</text>

    <g transform="translate(20, 45)">
      <circle cx="10" cy="10" r="12" fill="#8b5cf6"/>
      <text x="10" y="15" text-anchor="middle" fill="#fff" font-size="11" font-weight="bold">1</text>
      <text x="30" y="15" class="text-sm">User clicks "Cancel Subscription"</text>

      <circle cx="10" cy="45" r="12" fill="#8b5cf6"/>
      <text x="10" y="50" text-anchor="middle" fill="#fff" font-size="11" font-weight="bold">2</text>
      <text x="30" y="50" class="text-sm">React sends POST /cancel + JWT</text>

      <circle cx="10" cy="80" r="12" fill="#22c55e"/>
      <text x="10" y="85" text-anchor="middle" fill="#fff" font-size="11" font-weight="bold">3</text>
      <text x="30" y="85" class="text-sm">Edge Function validates ownership</text>

      <circle cx="10" cy="115" r="12" fill="#003087"/>
      <text x="10" y="120" text-anchor="middle" fill="#fff" font-size="11" font-weight="bold">4</text>
      <text x="30" y="120" class="text-sm">Calls PayPal API with credentials</text>

      <circle cx="10" cy="150" r="12" fill="#8b5cf6"/>
      <text x="10" y="155" text-anchor="middle" fill="#fff" font-size="11" font-weight="bold">5</text>
      <text x="30" y="155" class="text-sm">Updates DB + returns to client</text>
    </g>
  </g>

  <!-- ==================== LEGEND ==================== -->
  <g transform="translate(620, 570)">
    <rect x="0" y="0" width="340" height="180" rx="8" fill="#1e293b" stroke="#475569"/>
    <text x="170" y="25" text-anchor="middle" class="heading">Legend</text>

    <g transform="translate(20, 45)">
      <rect x="0" y="0" width="40" height="16" rx="4" fill="#8b5cf6"/>
      <text x="50" y="12" class="text-sm">Client ↔ Server communication</text>

      <rect x="0" y="30" width="40" height="16" rx="4" fill="#22c55e"/>
      <text x="50" y="42" class="text-sm">Server → External API calls</text>

      <rect x="0" y="60" width="40" height="16" rx="4" fill="#eab308"/>
      <text x="50" y="72" class="text-sm">Cache read/write operations</text>

      <rect x="0" y="90" width="40" height="16" rx="4" fill="#d946ef"/>
      <text x="50" y="102" class="text-sm">RLS security enforcement</text>
    </g>

    <g transform="translate(20, 140)">
      <text x="0" y="0" class="text-muted">Dependencies: 024-Payment Integration, 042-Payment RLS, 003-Auth</text>
      <text x="0" y="15" class="text-muted">Static export: All server logic via Supabase Edge Functions</text>
    </g>
  </g>

  <!-- ==================== REQUIREMENTS MAPPING ==================== -->
  <g transform="translate(1000, 50)">
    <rect x="0" y="0" width="360" height="700" rx="8" fill="#1e293b" stroke="#475569"/>
    <text x="180" y="28" text-anchor="middle" class="heading-lg">Requirements Mapping</text>

    <!-- FR Section -->
    <g transform="translate(20, 50)">
      <text x="0" y="0" class="heading" fill="#8b5cf6">Functional Requirements</text>

      <text x="0" y="25" class="text-sm">FR-001-006: Subscription display</text>
      <text x="250" y="25" class="code">→ React</text>

      <text x="0" y="45" class="text-sm">FR-007-012: Cancel flow</text>
      <text x="250" y="45" class="code">→ Edge Fn</text>

      <text x="0" y="65" class="text-sm">FR-013-018: Pause/Resume</text>
      <text x="250" y="65" class="code">→ Edge Fn</text>

      <text x="0" y="85" class="text-sm">FR-019-024: Billing info</text>
      <text x="250" y="85" class="code">→ PayPal</text>

      <text x="0" y="105" class="text-sm">FR-025-028: Data sync</text>
      <text x="250" y="105" class="code">→ Cache</text>
    </g>

    <!-- NFR Section -->
    <g transform="translate(20, 180)">
      <text x="0" y="0" class="heading" fill="#22c55e">Non-Functional Requirements</text>

      <text x="0" y="25" class="text-sm">NFR-001: 3s page load</text>
      <text x="200" y="25" class="code">→ Local cache</text>

      <text x="0" y="45" class="text-sm">NFR-002: 10s action completion</text>
      <text x="200" y="45" class="code">→ Edge Fn</text>

      <text x="0" y="65" class="text-sm">NFR-003: 5min cache refresh</text>
      <text x="200" y="65" class="code">→ TTL logic</text>

      <text x="0" y="85" class="text-sm">NFR-004: Credentials hidden</text>
      <text x="200" y="85" class="code">→ Server-side</text>

      <text x="0" y="105" class="text-sm">NFR-005: Authenticated calls</text>
      <text x="200" y="105" class="code">→ JWT + OAuth</text>

      <text x="0" y="125" class="text-sm">NFR-006: User data isolation</text>
      <text x="200" y="125" class="code">→ RLS</text>

      <text x="0" y="145" class="text-sm">NFR-007: Rate limit handling</text>
      <text x="200" y="145" class="code">→ Retry logic</text>

      <text x="0" y="165" class="text-sm">NFR-008: Offline fallback</text>
      <text x="200" y="165" class="code">→ Cached data</text>

      <text x="0" y="185" class="text-sm">NFR-009: Stale data indicator</text>
      <text x="200" y="185" class="code">→ UI badge</text>
    </g>

    <!-- Edge Cases -->
    <g transform="translate(20, 390)">
      <text x="0" y="0" class="heading" fill="#eab308">Edge Case Handling</text>

      <text x="0" y="25" class="text-sm">• Grace period subscriptions</text>
      <text x="200" y="25" class="code">→ status enum</text>

      <text x="0" y="45" class="text-sm">• API unavailable</text>
      <text x="200" y="45" class="code">→ cache fallback</text>

      <text x="0" y="65" class="text-sm">• Cache outdated</text>
      <text x="200" y="65" class="code">→ sync indicator</text>

      <text x="0" y="85" class="text-sm">• Rate limit hit</text>
      <text x="200" y="85" class="code">→ retry + backoff</text>

      <text x="0" y="105" class="text-sm">• Pause not supported</text>
      <text x="200" y="105" class="code">→ plan config</text>
    </g>

    <!-- Success Criteria -->
    <g transform="translate(20, 520)">
      <text x="0" y="0" class="heading" fill="#d946ef">Success Criteria</text>

      <text x="0" y="25" class="text-sm">SC-001: Display all subscriptions</text>
      <text x="260" y="25" class="annotation">✓</text>

      <text x="0" y="45" class="text-sm">SC-002: Cancel flow works</text>
      <text x="260" y="45" class="annotation">✓</text>

      <text x="0" y="65" class="text-sm">SC-003: Pause/Resume works</text>
      <text x="260" y="65" class="annotation">✓</text>

      <text x="0" y="85" class="text-sm">SC-004: Billing info accurate</text>
      <text x="260" y="85" class="annotation">✓</text>

      <text x="0" y="105" class="text-sm">SC-005: &lt;10s action time</text>
      <text x="260" y="105" class="annotation">✓</text>

      <text x="0" y="125" class="text-sm">SC-006: Data isolation verified</text>
      <text x="260" y="125" class="annotation">✓</text>

      <text x="0" y="145" class="text-sm">SC-007: Graceful API errors</text>
      <text x="260" y="145" class="annotation">✓</text>

      <text x="0" y="165" class="text-sm">SC-008: Mobile-friendly</text>
      <text x="260" y="165" class="annotation">✓</text>
    </g>
  </g>
</svg>