<svg xmlns="http://www.w3.org/2000/svg" viewBox="0 0 1400 800" width="1400" height="800">
  <!-- ============================================================
       GENERATED BY: /wireframe skill
       SOURCE: features/payments/041-paypal-subscriptions/spec.md
       DATE: 2025-12-31
       DO NOT MANUALLY EDIT - Regenerate with /wireframe command
       ============================================================ -->
  <defs>
    <linearGradient id="bgGrad" x1="0%" y1="0%" x2="100%" y2="100%">
      <stop offset="0%" style="stop-color:#0f172a"/>
      <stop offset="100%" style="stop-color:#1e293b"/>
    </linearGradient>
    <linearGradient id="accentGrad" x1="0%" y1="0%" x2="100%" y2="0%">
      <stop offset="0%" style="stop-color:#8b5cf6"/>
      <stop offset="100%" style="stop-color:#d946ef"/>
    </linearGradient>
    <style>
      .heading-lg { fill: #ffffff; font-family: system-ui, sans-serif; font-size: 20px; font-weight: bold; }
      .heading { fill: #ffffff; font-family: system-ui, sans-serif; font-size: 14px; font-weight: bold; }
      .text-md { fill: #cbd5e1; font-family: system-ui, sans-serif; font-size: 12px; }
      .text-sm { fill: #94a3b8; font-family: system-ui, sans-serif; font-size: 10px; }
      .text-muted { fill: #64748b; font-family: system-ui, sans-serif; font-size: 10px; }
      .annotation { fill: #8b5cf6; font-family: monospace; font-size: 10px; }
      .label-desktop { fill: #8b5cf6; font-family: monospace; font-size: 11px; font-weight: bold; }
      .label-mobile { fill: #d946ef; font-family: monospace; font-size: 11px; font-weight: bold; }
    </style>
  </defs>

  <!-- Background -->
  <rect width="1400" height="800" fill="url(#bgGrad)"/>

  <!-- Dot grid pattern -->
  <g opacity="0.05">
    <pattern id="dots" width="30" height="30" patternUnits="userSpaceOnUse">
      <circle cx="15" cy="15" r="1" fill="#fff"/>
    </pattern>
    <rect width="1400" height="800" fill="url(#dots)"/>
  </g>

  <!-- Accent line top -->
  <rect x="0" y="0" width="1400" height="3" fill="url(#accentGrad)"/>

  <!-- Title -->
  <text x="700" y="28" text-anchor="middle" font-family="system-ui, sans-serif" font-size="14" font-weight="600" fill="#64748b" letter-spacing="1">PAYPAL SUBSCRIPTIONS - PAUSE/RESUME FLOW</text>

  <!-- DESKTOP SECTION - PAUSE DIALOG -->
  <text x="40" y="52" class="label-desktop">PAUSE SUBSCRIPTION DIALOG</text>

  <!-- Backdrop -->
  <rect x="40" y="60" width="440" height="360" rx="8" fill="#0f172a" opacity="0.5"/>

  <!-- Dialog -->
  <rect x="60" y="80" width="400" height="320" rx="12" fill="#1e293b" stroke="#eab308" stroke-width="2"/>

  <!-- Dialog header -->
  <rect x="60" y="80" width="400" height="50" rx="12" fill="#eab308" fill-opacity="0.1"/>
  <rect x="60" y="118" width="400" height="12" fill="#eab308" fill-opacity="0.1"/>

  <!-- Pause icon -->
  <circle cx="260" cy="105" r="16" fill="#eab308" fill-opacity="0.2"/>
  <rect x="253" y="95" width="4" height="20" rx="1" fill="#eab308"/>
  <rect x="263" y="95" width="4" height="20" rx="1" fill="#eab308"/>

  <text x="260" y="160" text-anchor="middle" class="heading-lg">Pause Subscription</text>
  <text x="260" y="180" text-anchor="middle" class="text-md">Pro Plan - $19.99/mo</text>

  <!-- Duration selection -->
  <text x="85" y="210" class="heading" fill="#eab308">How long to pause?</text>

  <!-- Duration options -->
  <g transform="translate(85, 225)">
    <!-- 1 month option (selected) -->
    <rect x="0" y="0" width="150" height="50" rx="6" fill="#eab308" fill-opacity="0.2" stroke="#eab308" stroke-width="2"/>
    <text x="75" y="22" text-anchor="middle" class="heading" fill="#eab308">1 Month</text>
    <text x="75" y="40" text-anchor="middle" class="text-sm" fill="#eab308">Resume: Feb 15</text>

    <!-- 3 months option -->
    <rect x="165" y="0" width="150" height="50" rx="6" fill="#334155" stroke="#475569" stroke-width="1"/>
    <text x="240" y="22" text-anchor="middle" class="heading" fill="#cbd5e1">3 Months</text>
    <text x="240" y="40" text-anchor="middle" class="text-sm">Resume: Apr 15</text>
  </g>

  <!-- Info note -->
  <rect x="85" y="290" width="290" height="32" rx="4" fill="#334155"/>
  <text x="100" y="310" class="text-sm">Billing resumes automatically on resume date</text>

  <!-- Buttons -->
  <rect x="85" y="340" width="130" height="40" rx="6" fill="#334155"/>
  <text x="150" y="366" text-anchor="middle" class="text-md" fill="#cbd5e1">Cancel</text>

  <rect x="230" y="340" width="130" height="40" rx="6" fill="#eab308"/>
  <text x="295" y="366" text-anchor="middle" class="heading" fill="#1e293b">Pause</text>

  <!-- DESKTOP SECTION - PAUSED STATE -->
  <text x="500" y="52" class="label-desktop">PAUSED SUBSCRIPTION CARD</text>

  <rect x="500" y="60" width="440" height="160" rx="8" fill="#1e293b" stroke="#eab308" stroke-width="2"/>

  <!-- Status bar -->
  <rect x="500" y="60" width="4" height="160" rx="2" fill="#eab308"/>

  <!-- Plan info -->
  <circle cx="545" cy="140" r="24" fill="#334155"/>
  <rect x="538" y="132" width="4" height="16" rx="1" fill="#eab308"/>
  <rect x="548" y="132" width="4" height="16" rx="1" fill="#eab308"/>

  <text x="585" y="105" class="heading">ScriptHammer Pro Plan</text>
  <text x="585" y="125" class="text-md">$19.99/month</text>

  <!-- Paused status -->
  <rect x="585" y="140" width="80" height="24" rx="12" fill="#eab308" fill-opacity="0.2" stroke="#eab308" stroke-width="1"/>
  <text x="625" y="157" text-anchor="middle" class="text-sm" fill="#eab308">Paused</text>

  <!-- Resume info -->
  <rect x="585" y="175" width="280" height="30" rx="4" fill="#334155"/>
  <text x="600" y="195" class="text-sm">Resumes automatically:</text>
  <text x="720" y="195" class="heading" fill="#eab308">February 15, 2025</text>

  <!-- Resume button -->
  <rect x="850" y="100" width="80" height="36" rx="6" fill="#8b5cf6"/>
  <text x="890" y="124" text-anchor="middle" class="heading" fill="#fff">Resume</text>

  <!-- DESKTOP SECTION - RESUME CONFIRMATION -->
  <text x="500" y="245" class="label-desktop">RESUME CONFIRMATION</text>

  <rect x="500" y="260" width="440" height="180" rx="8" fill="#1e293b" stroke="#8b5cf6" stroke-width="2"/>

  <text x="720" y="300" text-anchor="middle" class="heading-lg">Resume Subscription?</text>
  <text x="720" y="325" text-anchor="middle" class="text-md">Pro Plan - $19.99/mo</text>

  <!-- Resume info -->
  <g transform="translate(530, 340)">
    <circle cx="8" cy="10" r="3" fill="#22c55e"/>
    <text x="20" y="14" class="text-md">Billing resumes immediately</text>

    <circle cx="8" cy="35" r="3" fill="#22c55e"/>
    <text x="20" y="39" class="text-md">Next charge: Today ($19.99)</text>

    <circle cx="8" cy="60" r="3" fill="#22c55e"/>
    <text x="20" y="64" class="text-md">Full access restored instantly</text>
  </g>

  <!-- Buttons -->
  <rect x="560" y="410" width="130" height="40" rx="6" fill="#334155"/>
  <text x="625" y="436" text-anchor="middle" class="text-md" fill="#cbd5e1">Keep Paused</text>

  <rect x="710" y="410" width="130" height="40" rx="6" fill="#8b5cf6"/>
  <text x="775" y="436" text-anchor="middle" class="heading" fill="#fff">Resume Now</text>

  <!-- DESKTOP SECTION - LOADING STATE -->
  <text x="40" y="445" class="label-desktop">LOADING STATE</text>

  <rect x="40" y="460" width="200" height="80" rx="8" fill="#1e293b" stroke="#475569" stroke-width="1"/>

  <!-- Loading spinner -->
  <g transform="translate(100, 500)">
    <circle cx="0" cy="0" r="16" fill="none" stroke="#334155" stroke-width="2"/>
    <path d="M 0 -16 A 16 16 0 0 1 16 0" fill="none" stroke="#8b5cf6" stroke-width="2" stroke-linecap="round">
      <animateTransform attributeName="transform" type="rotate" from="0" to="360" dur="1s" repeatCount="indefinite"/>
    </path>
  </g>
  <text x="130" y="505" class="text-md">Processing...</text>

  <!-- DESKTOP SECTION - PAUSE DISABLED STATE -->
  <text x="260" y="445" class="label-desktop">PAUSE DISABLED</text>

  <rect x="260" y="460" width="280" height="80" rx="8" fill="#1e293b" stroke="#475569" stroke-width="1"/>
  <rect x="275" y="475" width="90" height="32" rx="6" fill="#334155" opacity="0.5" stroke="#475569"/>
  <text x="320" y="496" text-anchor="middle" class="text-md" fill="#64748b">Pause</text>
  <text x="275" y="525" class="text-sm" fill="#64748b">This plan doesn't support pausing</text>

  <!-- MOBILE SECTION -->
  <text x="980" y="52" class="label-mobile">MOBILE - PAUSE FLOW</text>
  <g id="mobile-view" transform="translate(980, 60)">
    <!-- Phone frame -->
    <rect x="0" y="0" width="360" height="700" rx="24" fill="#1e293b" stroke="#475569" stroke-width="2"/>
    <rect x="10" y="10" width="340" height="680" rx="16" fill="#0f172a"/>

    <!-- Status bar -->
    <rect x="10" y="10" width="340" height="28" rx="16" fill="#1e293b"/>
    <text x="30" y="28" class="text-sm">9:41</text>

    <!-- Dimmed background content -->
    <rect x="20" y="48" width="320" height="100" rx="8" fill="#1e293b" opacity="0.3"/>

    <!-- Bottom sheet - Pause Dialog -->
    <rect x="10" y="170" width="340" height="380" rx="16" fill="#1e293b" stroke="#eab308" stroke-width="2"/>

    <!-- Drag handle -->
    <rect x="155" y="180" width="50" height="4" rx="2" fill="#475569"/>

    <!-- Pause icon -->
    <circle cx="180" cy="220" r="20" fill="#eab308" fill-opacity="0.2"/>
    <rect x="172" y="210" width="5" height="20" rx="1" fill="#eab308"/>
    <rect x="183" y="210" width="5" height="20" rx="1" fill="#eab308"/>

    <text x="180" y="265" text-anchor="middle" class="heading-lg">Pause Subscription</text>
    <text x="180" y="285" text-anchor="middle" class="text-md">Pro Plan</text>

    <!-- Duration options -->
    <text x="30" y="315" class="text-sm" fill="#eab308">Pause duration:</text>

    <!-- 1 month (selected) -->
    <rect x="25" y="325" width="145" height="55" rx="6" fill="#eab308" fill-opacity="0.2" stroke="#eab308" stroke-width="2"/>
    <text x="97" y="348" text-anchor="middle" class="heading" fill="#eab308">1 Month</text>
    <text x="97" y="368" text-anchor="middle" class="text-sm" fill="#eab308">Feb 15</text>

    <!-- 3 months -->
    <rect x="180" y="325" width="145" height="55" rx="6" fill="#334155" stroke="#475569"/>
    <text x="252" y="348" text-anchor="middle" class="heading" fill="#cbd5e1">3 Months</text>
    <text x="252" y="368" text-anchor="middle" class="text-sm">Apr 15</text>

    <!-- Info -->
    <rect x="25" y="395" width="300" height="30" rx="4" fill="#334155"/>
    <text x="35" y="414" class="text-sm">Auto-resumes on selected date</text>

    <!-- Buttons -->
    <rect x="25" y="440" width="300" height="44" rx="6" fill="#eab308"/>
    <text x="175" y="468" text-anchor="middle" class="heading" fill="#1e293b">Pause Subscription</text>

    <rect x="25" y="495" width="300" height="40" rx="6" fill="#334155"/>
    <text x="175" y="521" text-anchor="middle" class="text-md" fill="#cbd5e1">Cancel</text>

    <!-- Paused state indicator below -->
    <text x="30" y="560" class="text-muted">AFTER PAUSE:</text>
    <rect x="25" y="570" width="300" height="70" rx="8" fill="#334155" stroke="#eab308" stroke-width="1"/>
    <rect x="25" y="570" width="4" height="70" rx="2" fill="#eab308"/>
    <text x="45" y="595" class="heading">Pro Plan</text>
    <rect x="210" y="580" width="55" height="18" rx="9" fill="#eab308" fill-opacity="0.2"/>
    <text x="237" y="593" text-anchor="middle" class="text-sm" fill="#eab308">Paused</text>
    <text x="45" y="618" class="text-sm" fill="#eab308">Resume: Feb 15</text>
    <rect x="260" y="600" width="60" height="28" rx="6" fill="#8b5cf6"/>
    <text x="290" y="619" text-anchor="middle" class="text-sm" fill="#fff">Resume</text>

    <!-- Bottom nav -->
    <rect x="140" y="675" width="80" height="4" rx="2" fill="#475569"/>
  </g>

  <!-- Annotations -->
  <g id="annotations">
    <rect x="40" y="560" width="240" height="70" rx="4" fill="#1e293b" stroke="#8b5cf6" stroke-width="1"/>
    <text x="50" y="580" class="annotation">REQUIREMENTS</text>
    <text x="50" y="600" class="text-muted">FR-013: Check pause support</text>
    <text x="50" y="615" class="text-muted">FR-014: Duration options</text>
    <text x="50" y="630" class="text-muted">FR-016/17: Resume date + button</text>

    <rect x="300" y="560" width="200" height="70" rx="4" fill="#1e293b" stroke="#8b5cf6" stroke-width="1"/>
    <text x="310" y="580" class="annotation">EDGE CASES</text>
    <text x="310" y="600" class="text-muted">Plan may not support pause</text>
    <text x="310" y="615" class="text-muted">Pause limit may be reached</text>
    <text x="310" y="630" class="text-muted">Loading states for API calls</text>
  </g>
</svg>