<svg xmlns="http://www.w3.org/2000/svg" viewBox="0 0 1400 800" width="1400" height="800">
  <!-- ============================================================
       GENERATED BY: /wireframe skill
       SOURCE: features/payments/040-payment-retry-ui/spec.md
       DATE: 2026-01-01
       THEME: Light (UX/Frontend) - v3 True Parchment
       DO NOT MANUALLY EDIT - Regenerate with /wireframe command
       ============================================================ -->
  <defs>
    <linearGradient id="bgGrad" x1="0%" y1="0%" x2="100%" y2="100%">
      <stop offset="0%" style="stop-color:#c7ddf5"/>
      <stop offset="100%" style="stop-color:#b8d4f0"/>
    </linearGradient>
    <linearGradient id="accentGrad" x1="0%" y1="0%" x2="100%" y2="0%">
      <stop offset="0%" style="stop-color:#8b5cf6"/>
      <stop offset="100%" style="stop-color:#d946ef"/>
    </linearGradient>
    <style>
      .heading-lg { fill: #1a1a2e; font-family: system-ui, sans-serif; font-size: 24px; font-weight: 800; }
      .heading { fill: #1a1a2e; font-family: system-ui, sans-serif; font-size: 16px; font-weight: 700; }
      .text-md { fill: #2d3748; font-family: system-ui, sans-serif; font-size: 14px; font-weight: 500; }
      .text-sm { fill: #374151; font-family: system-ui, sans-serif; font-size: 12px; font-weight: 500; }
      .text-muted { fill: #4b5563; font-family: system-ui, sans-serif; font-size: 11px; font-weight: 500; }
      .annotation { fill: #6d28d9; font-family: monospace; font-size: 12px; font-weight: 600; }
      .label-desktop { fill: #8b5cf6; font-family: monospace; font-size: 13px; font-weight: bold; }
      .label-mobile { fill: #d946ef; font-family: monospace; font-size: 13px; font-weight: bold; }
      .error-text { fill: #dc2626; font-family: system-ui, sans-serif; font-size: 14px; font-weight: 600; }
      .error-code { fill: #7f1d1d; font-family: monospace; font-size: 10px; }
    </style>
  </defs>

  <!-- Background -->
  <rect width="1400" height="800" fill="url(#bgGrad)"/>

  <!-- Dot grid pattern -->
  <g opacity="0.35">
    <pattern id="dots" width="30" height="30" patternUnits="userSpaceOnUse">
      <circle cx="15" cy="15" r="1" fill="#6b8cba"/>
    </pattern>
    <rect width="1400" height="800" fill="url(#dots)"/>
  </g>

  <!-- Accent line top -->
  <rect x="0" y="0" width="1400" height="3" fill="url(#accentGrad)"/>

  <!-- Title -->
  <text x="700" y="28" text-anchor="middle" font-family="system-ui, sans-serif" font-size="14" font-weight="600" fill="#4b5563" letter-spacing="1">PAYMENT ERROR DISPLAY — ERROR TYPES &amp; MESSAGES</text>

  <!-- DESKTOP SECTION -->
  <text x="40" y="52" class="label-desktop">DESKTOP — ERROR TYPE CATALOG</text>

  <g id="desktop-view">
    <!-- Main error display panel -->
    <rect x="40" y="60" width="900" height="680" rx="12" fill="#e8d4b8" stroke="#b8a080" stroke-width="1"/>

    <!-- Header -->
    <rect x="40" y="60" width="900" height="50" rx="12" fill="#dcc8a8"/>
    <rect x="40" y="95" width="900" height="15" fill="#dcc8a8"/>
    <text x="490" y="92" text-anchor="middle" class="heading-lg">Payment Error Types</text>

    <!-- Error Type Grid - 2 columns x 4 rows -->
    <!-- Row 1 -->
    <!-- Card Declined -->
    <g transform="translate(60, 130)">
      <rect width="420" height="120" rx="8" fill="#fef2f2" stroke="#fca5a5" stroke-width="2"/>
      <circle cx="25" cy="25" r="16" fill="#ef4444"/>
      <text x="25" y="30" text-anchor="middle" fill="#fff" font-size="16" font-weight="bold">✕</text>
      <text x="50" y="28" class="heading">Card Declined</text>
      <text x="50" y="48" class="text-sm">Your card was declined by the issuing bank.</text>
      <text x="50" y="68" class="text-muted">Suggested Action:</text>
      <text x="50" y="84" class="text-sm">Try a different card or contact your bank.</text>
      <rect x="290" y="75" width="110" height="32" rx="6" fill="#8b5cf6"/>
      <text x="345" y="96" text-anchor="middle" fill="#fff" font-size="12" font-weight="600">Update Card</text>
      <text x="20" y="110" class="error-code">ERR_CARD_DECLINED</text>
    </g>

    <!-- Insufficient Funds -->
    <g transform="translate(500, 130)">
      <rect width="420" height="120" rx="8" fill="#fefce8" stroke="#fde047" stroke-width="2"/>
      <circle cx="25" cy="25" r="16" fill="#eab308"/>
      <text x="25" y="30" text-anchor="middle" fill="#fff" font-size="16" font-weight="bold">$</text>
      <text x="50" y="28" class="heading">Insufficient Funds</text>
      <text x="50" y="48" class="text-sm">Your account has insufficient funds.</text>
      <text x="50" y="68" class="text-muted">Suggested Action:</text>
      <text x="50" y="84" class="text-sm">Add funds or use a different payment method.</text>
      <rect x="290" y="75" width="110" height="32" rx="6" fill="#8b5cf6"/>
      <text x="345" y="96" text-anchor="middle" fill="#fff" font-size="12" font-weight="600">Change Method</text>
      <text x="20" y="110" class="error-code">ERR_INSUFFICIENT_FUNDS</text>
    </g>

    <!-- Row 2 -->
    <!-- Expired Card -->
    <g transform="translate(60, 265)">
      <rect width="420" height="120" rx="8" fill="#fef2f2" stroke="#fca5a5" stroke-width="2"/>
      <circle cx="25" cy="25" r="16" fill="#ef4444"/>
      <text x="25" y="30" text-anchor="middle" fill="#fff" font-size="14" font-weight="bold">⏰</text>
      <text x="50" y="28" class="heading">Card Expired</text>
      <text x="50" y="48" class="text-sm">Your card has expired.</text>
      <text x="50" y="68" class="text-muted">Suggested Action:</text>
      <text x="50" y="84" class="text-sm">Update your card with new expiry date.</text>
      <rect x="290" y="75" width="110" height="32" rx="6" fill="#8b5cf6"/>
      <text x="345" y="96" text-anchor="middle" fill="#fff" font-size="12" font-weight="600">Update Card</text>
      <text x="20" y="110" class="error-code">ERR_CARD_EXPIRED</text>
    </g>

    <!-- Invalid Card -->
    <g transform="translate(500, 265)">
      <rect width="420" height="120" rx="8" fill="#fef2f2" stroke="#fca5a5" stroke-width="2"/>
      <circle cx="25" cy="25" r="16" fill="#ef4444"/>
      <text x="25" y="30" text-anchor="middle" fill="#fff" font-size="14" font-weight="bold">?</text>
      <text x="50" y="28" class="heading">Invalid Card</text>
      <text x="50" y="48" class="text-sm">Card number or details are invalid.</text>
      <text x="50" y="68" class="text-muted">Suggested Action:</text>
      <text x="50" y="84" class="text-sm">Check card details and try again.</text>
      <rect x="290" y="75" width="110" height="32" rx="6" fill="#8b5cf6"/>
      <text x="345" y="96" text-anchor="middle" fill="#fff" font-size="12" font-weight="600">Re-enter Card</text>
      <text x="20" y="110" class="error-code">ERR_INVALID_CARD</text>
    </g>

    <!-- Row 3 -->
    <!-- Processing Error -->
    <g transform="translate(60, 400)">
      <rect width="420" height="120" rx="8" fill="#f0f9ff" stroke="#7dd3fc" stroke-width="2"/>
      <circle cx="25" cy="25" r="16" fill="#0ea5e9"/>
      <text x="25" y="30" text-anchor="middle" fill="#fff" font-size="14" font-weight="bold">⚙</text>
      <text x="50" y="28" class="heading">Processing Error</text>
      <text x="50" y="48" class="text-sm">A temporary error occurred during processing.</text>
      <text x="50" y="68" class="text-muted">Suggested Action:</text>
      <text x="50" y="84" class="text-sm">Wait a moment and try again.</text>
      <rect x="290" y="75" width="110" height="32" rx="6" fill="#22c55e"/>
      <text x="345" y="96" text-anchor="middle" fill="#fff" font-size="12" font-weight="600">Retry Now</text>
      <text x="20" y="110" class="error-code">ERR_PROCESSING</text>
    </g>

    <!-- Network Error -->
    <g transform="translate(500, 400)">
      <rect width="420" height="120" rx="8" fill="#f0f9ff" stroke="#7dd3fc" stroke-width="2"/>
      <circle cx="25" cy="25" r="16" fill="#0ea5e9"/>
      <text x="25" y="30" text-anchor="middle" fill="#fff" font-size="14" font-weight="bold">📡</text>
      <text x="50" y="28" class="heading">Network Error</text>
      <text x="50" y="48" class="text-sm">Connection to payment provider failed.</text>
      <text x="50" y="68" class="text-muted">Suggested Action:</text>
      <text x="50" y="84" class="text-sm">Check connection and retry.</text>
      <rect x="290" y="75" width="110" height="32" rx="6" fill="#22c55e"/>
      <text x="345" y="96" text-anchor="middle" fill="#fff" font-size="12" font-weight="600">Retry Now</text>
      <text x="20" y="110" class="error-code">ERR_NETWORK</text>
    </g>

    <!-- Row 4 -->
    <!-- Auth Required -->
    <g transform="translate(60, 535)">
      <rect width="420" height="120" rx="8" fill="#fefce8" stroke="#fde047" stroke-width="2"/>
      <circle cx="25" cy="25" r="16" fill="#eab308"/>
      <text x="25" y="30" text-anchor="middle" fill="#fff" font-size="14" font-weight="bold">🔐</text>
      <text x="50" y="28" class="heading">Authentication Required</text>
      <text x="50" y="48" class="text-sm">Additional verification needed (3D Secure).</text>
      <text x="50" y="68" class="text-muted">Suggested Action:</text>
      <text x="50" y="84" class="text-sm">Complete bank verification to proceed.</text>
      <rect x="290" y="75" width="110" height="32" rx="6" fill="#8b5cf6"/>
      <text x="345" y="96" text-anchor="middle" fill="#fff" font-size="12" font-weight="600">Authenticate</text>
      <text x="20" y="110" class="error-code">ERR_AUTH_REQUIRED</text>
    </g>

    <!-- Limit Exceeded -->
    <g transform="translate(500, 535)">
      <rect width="420" height="120" rx="8" fill="#fef2f2" stroke="#fca5a5" stroke-width="2"/>
      <circle cx="25" cy="25" r="16" fill="#ef4444"/>
      <text x="25" y="30" text-anchor="middle" fill="#fff" font-size="14" font-weight="bold">⚠</text>
      <text x="50" y="28" class="heading">Limit Exceeded</text>
      <text x="50" y="48" class="text-sm">Transaction exceeds your card limit.</text>
      <text x="50" y="68" class="text-muted">Suggested Action:</text>
      <text x="50" y="84" class="text-sm">Use a different card or split payment.</text>
      <rect x="290" y="75" width="110" height="32" rx="6" fill="#8b5cf6"/>
      <text x="345" y="96" text-anchor="middle" fill="#fff" font-size="12" font-weight="600">Change Method</text>
      <text x="20" y="110" class="error-code">ERR_LIMIT_EXCEEDED</text>
    </g>

    <!-- Legend -->
    <g transform="translate(60, 680)">
      <text x="0" y="15" class="text-muted">Error Severity:</text>
      <rect x="100" y="2" width="16" height="16" rx="3" fill="#ef4444"/>
      <text x="122" y="15" class="text-sm">Critical (card issue)</text>
      <rect x="240" y="2" width="16" height="16" rx="3" fill="#eab308"/>
      <text x="262" y="15" class="text-sm">Warning (action needed)</text>
      <rect x="400" y="2" width="16" height="16" rx="3" fill="#0ea5e9"/>
      <text x="422" y="15" class="text-sm">Info (temporary)</text>
    </g>
  </g>

  <!-- MOBILE SECTION -->
  <text x="980" y="52" class="label-mobile">MOBILE — ERROR CARD</text>

  <g id="mobile-view" transform="translate(980, 60)">
    <!-- Phone frame -->
    <rect x="0" y="0" width="360" height="700" rx="24" fill="#c8b898" stroke="#a08860" stroke-width="2"/>
    <rect x="10" y="10" width="340" height="680" rx="16" fill="#e8d4b8"/>

    <!-- Status bar -->
    <rect x="10" y="10" width="340" height="28" rx="16" fill="#dcc8a8"/>
    <text x="30" y="28" class="text-sm">9:41</text>
    <text x="310" y="28" class="text-sm">📶 🔋</text>

    <!-- Header -->
    <rect x="20" y="48" width="320" height="44" rx="8" fill="#dcc8a8"/>
    <text x="40" y="76" class="heading">← Payment Failed</text>

    <!-- Error card - Declined -->
    <g transform="translate(20, 105)">
      <rect width="320" height="180" rx="12" fill="#fef2f2" stroke="#fca5a5" stroke-width="2"/>

      <!-- Error icon -->
      <circle cx="160" cy="40" r="24" fill="#ef4444"/>
      <text x="160" y="48" text-anchor="middle" fill="#fff" font-size="24" font-weight="bold">✕</text>

      <!-- Error message -->
      <text x="160" y="85" text-anchor="middle" class="heading">Card Declined</text>
      <text x="160" y="108" text-anchor="middle" class="text-sm">Your card was declined by</text>
      <text x="160" y="124" text-anchor="middle" class="text-sm">the issuing bank.</text>

      <!-- Action buttons -->
      <rect x="15" y="140" width="140" height="28" rx="6" fill="#8b5cf6"/>
      <text x="85" y="159" text-anchor="middle" fill="#fff" font-size="11" font-weight="600">Update Card</text>

      <rect x="165" y="140" width="140" height="28" rx="6" fill="none" stroke="#8b5cf6" stroke-width="2"/>
      <text x="235" y="159" text-anchor="middle" fill="#8b5cf6" font-size="11" font-weight="600">Try Again</text>
    </g>

    <!-- Transaction reference -->
    <g transform="translate(20, 300)">
      <rect width="320" height="60" rx="8" fill="#f5f0e6" stroke="#b8a080" stroke-width="1"/>
      <text x="15" y="22" class="text-muted">Transaction Reference</text>
      <text x="15" y="44" class="text-sm" font-family="monospace">TXN-2026-0101-ABCD-1234</text>
    </g>

    <!-- Suggested actions -->
    <g transform="translate(20, 375)">
      <text x="0" y="16" class="heading">What you can do:</text>

      <rect y="30" width="320" height="44" rx="8" fill="#f5f0e6"/>
      <text x="15" y="56" class="text-sm">1. Try a different payment method</text>

      <rect y="82" width="320" height="44" rx="8" fill="#f5f0e6"/>
      <text x="15" y="108" class="text-sm">2. Contact your bank about the decline</text>

      <rect y="134" width="320" height="44" rx="8" fill="#f5f0e6"/>
      <text x="15" y="160" class="text-sm">3. Check card details are correct</text>
    </g>

    <!-- Support link -->
    <g transform="translate(20, 575)">
      <rect width="320" height="48" rx="8" fill="#dcc8a8"/>
      <text x="160" y="30" text-anchor="middle" class="text-md" fill="#6d28d9">Need help? Contact Support</text>
    </g>

    <!-- Bottom nav hint -->
    <rect x="130" y="660" width="100" height="5" rx="2" fill="#b8a080"/>
  </g>

  <!-- Annotations -->
  <g id="leader-lines">
    <line x1="940" y1="200" x2="980" y2="200" stroke="#8b5cf6" stroke-width="1" stroke-dasharray="4,2"/>
  </g>
</svg>