<svg xmlns="http://www.w3.org/2000/svg" viewBox="0 0 1400 800" width="1400" height="800">
  <!-- ============================================================
       GENERATED BY: /wireframe skill
       SOURCE: features/payments/040-payment-retry-ui/spec.md
       DATE: 2025-12-31
       DO NOT MANUALLY EDIT - Regenerate with /wireframe command
       ============================================================ -->
  <defs>
    <linearGradient id="bgGrad" x1="0%" y1="0%" x2="100%" y2="100%">
      <stop offset="0%" style="stop-color:#0f172a"/>
      <stop offset="100%" style="stop-color:#1e293b"/>
    </linearGradient>
    <linearGradient id="accentGrad" x1="0%" y1="0%" x2="100%" y2="0%">
      <stop offset="0%" style="stop-color:#8b5cf6"/>
      <stop offset="100%" style="stop-color:#d946ef"/>
    </linearGradient>
    <style>
      .heading-lg { fill: #ffffff; font-family: system-ui, sans-serif; font-size: 20px; font-weight: bold; }
      .heading { fill: #ffffff; font-family: system-ui, sans-serif; font-size: 14px; font-weight: bold; }
      .text-md { fill: #cbd5e1; font-family: system-ui, sans-serif; font-size: 12px; }
      .text-sm { fill: #94a3b8; font-family: system-ui, sans-serif; font-size: 10px; }
      .text-muted { fill: #64748b; font-family: system-ui, sans-serif; font-size: 10px; }
      .annotation { fill: #8b5cf6; font-family: monospace; font-size: 10px; }
      .label-desktop { fill: #8b5cf6; font-family: monospace; font-size: 11px; font-weight: bold; }
      .label-mobile { fill: #d946ef; font-family: monospace; font-size: 11px; font-weight: bold; }
    </style>
  </defs>

  <!-- Background -->
  <rect width="1400" height="800" fill="url(#bgGrad)"/>

  <!-- Dot grid pattern -->
  <g opacity="0.05">
    <pattern id="dots" width="30" height="30" patternUnits="userSpaceOnUse">
      <circle cx="15" cy="15" r="1" fill="#fff"/>
    </pattern>
    <rect width="1400" height="800" fill="url(#dots)"/>
  </g>

  <!-- Accent line top -->
  <rect x="0" y="0" width="1400" height="3" fill="url(#accentGrad)"/>

  <!-- Title -->
  <text x="700" y="28" text-anchor="middle" font-family="system-ui, sans-serif" font-size="14" font-weight="600" fill="#64748b" letter-spacing="1">PAYMENT ERROR DISPLAY</text>

  <!-- DESKTOP SECTION -->
  <text x="40" y="52" class="label-desktop">DESKTOP</text>
  <g id="desktop-view">
    <!-- Main container - centered error card -->
    <rect x="150" y="80" width="700" height="600" rx="12" fill="#1e293b" stroke="#475569" stroke-width="1"/>

    <!-- Header with back button -->
    <rect x="150" y="80" width="700" height="60" rx="12" fill="#334155"/>
    <rect x="150" y="128" width="700" height="12" fill="#334155"/>
    <text x="180" y="118" class="text-md" fill="#94a3b8">< Back to Checkout</text>
    <text x="500" y="118" text-anchor="middle" class="heading">Payment Failed</text>

    <!-- Error icon -->
    <circle cx="500" cy="200" r="40" fill="none" stroke="#ef4444" stroke-width="3"/>
    <text x="500" y="213" text-anchor="middle" font-family="system-ui, sans-serif" font-size="36" fill="#ef4444">!</text>

    <!-- Error message -->
    <text x="500" y="270" text-anchor="middle" class="heading-lg" fill="#ef4444">Card Declined</text>
    <text x="500" y="295" text-anchor="middle" class="text-md">Your card was declined by your bank.</text>
    <text x="500" y="315" text-anchor="middle" class="text-md">This may be due to insufficient funds or card restrictions.</text>

    <!-- Transaction reference -->
    <rect x="350" y="340" width="300" height="32" rx="4" fill="#0f172a" stroke="#475569" stroke-width="1"/>
    <text x="500" y="360" text-anchor="middle" class="text-sm">Transaction ID: TXN-2025-ABC123</text>

    <!-- Suggested actions -->
    <text x="200" y="410" class="heading">Suggested Actions</text>
    <rect x="200" y="425" width="600" height="80" rx="6" fill="#0f172a" stroke="#475569" stroke-width="1"/>
    <text x="220" y="450" class="text-md">1. Check your card balance and available credit</text>
    <text x="220" y="470" class="text-md">2. Ensure your card is not expired or blocked</text>
    <text x="220" y="490" class="text-md">3. Contact your bank if the issue persists</text>

    <!-- Action buttons -->
    <rect x="200" y="530" width="180" height="44" rx="6" fill="#8b5cf6"/>
    <text x="290" y="558" text-anchor="middle" class="heading">Retry Payment</text>

    <rect x="400" y="530" width="200" height="44" rx="6" fill="none" stroke="#8b5cf6" stroke-width="2"/>
    <text x="500" y="558" text-anchor="middle" fill="#8b5cf6" font-family="system-ui, sans-serif" font-size="14px" font-weight="bold">Update Payment Method</text>

    <rect x="620" y="530" width="180" height="44" rx="6" fill="none" stroke="#475569" stroke-width="1"/>
    <text x="710" y="558" text-anchor="middle" class="text-md">Contact Support</text>

    <!-- Retry counter -->
    <text x="200" y="605" class="text-sm">Retry attempts: 1 of 3</text>
    <rect x="200" y="615" width="100" height="4" rx="2" fill="#334155"/>
    <rect x="200" y="615" width="33" height="4" rx="2" fill="#8b5cf6"/>

    <!-- Error type badges -->
    <text x="200" y="660" class="text-muted">Error Type:</text>
    <rect x="270" y="645" width="100" height="22" rx="11" fill="#7f1d1d"/>
    <text x="320" y="660" text-anchor="middle" class="text-sm" fill="#fca5a5">card_declined</text>
  </g>

  <!-- MOBILE SECTION -->
  <text x="980" y="52" class="label-mobile">MOBILE</text>
  <g id="mobile-view" transform="translate(980, 60)">
    <!-- Phone frame -->
    <rect x="0" y="0" width="360" height="700" rx="24" fill="#1e293b" stroke="#475569" stroke-width="2"/>
    <rect x="10" y="10" width="340" height="680" rx="16" fill="#0f172a"/>

    <!-- Status bar -->
    <rect x="10" y="10" width="340" height="28" rx="16" fill="#1e293b"/>
    <text x="30" y="28" class="text-sm">9:41</text>
    <text x="320" y="28" text-anchor="end" class="text-sm">100%</text>

    <!-- Header -->
    <rect x="10" y="38" width="340" height="50" fill="#1e293b"/>
    <text x="30" y="68" class="text-md" fill="#94a3b8">< Back</text>
    <text x="180" y="68" text-anchor="middle" class="heading">Payment Failed</text>

    <!-- Error icon -->
    <circle cx="180" cy="140" r="32" fill="none" stroke="#ef4444" stroke-width="3"/>
    <text x="180" y="150" text-anchor="middle" font-family="system-ui, sans-serif" font-size="28" fill="#ef4444">!</text>

    <!-- Error message -->
    <text x="180" y="200" text-anchor="middle" class="heading" fill="#ef4444">Card Declined</text>
    <text x="180" y="220" text-anchor="middle" class="text-sm">Your card was declined by your bank.</text>
    <text x="180" y="238" text-anchor="middle" class="text-sm">Check balance or card restrictions.</text>

    <!-- Transaction ID -->
    <rect x="30" y="260" width="300" height="28" rx="4" fill="#1e293b" stroke="#475569" stroke-width="1"/>
    <text x="180" y="278" text-anchor="middle" class="text-muted">TXN-2025-ABC123</text>

    <!-- Suggested actions -->
    <text x="30" y="315" class="text-sm" fill="#fff">Suggested Actions</text>
    <rect x="30" y="325" width="300" height="70" rx="6" fill="#1e293b" stroke="#475569" stroke-width="1"/>
    <text x="45" y="345" class="text-sm">1. Check card balance</text>
    <text x="45" y="365" class="text-sm">2. Verify card not expired</text>
    <text x="45" y="385" class="text-sm">3. Contact your bank</text>

    <!-- Action buttons - stacked -->
    <rect x="30" y="415" width="300" height="44" rx="6" fill="#8b5cf6"/>
    <text x="180" y="443" text-anchor="middle" class="heading">Retry Payment</text>

    <rect x="30" y="470" width="300" height="44" rx="6" fill="none" stroke="#8b5cf6" stroke-width="2"/>
    <text x="180" y="498" text-anchor="middle" fill="#8b5cf6" font-family="system-ui, sans-serif" font-size="14px" font-weight="bold">Update Payment Method</text>

    <rect x="30" y="525" width="300" height="40" rx="6" fill="none" stroke="#475569" stroke-width="1"/>
    <text x="180" y="550" text-anchor="middle" class="text-md">Contact Support</text>

    <!-- Retry counter -->
    <text x="30" y="595" class="text-muted">Retry attempts: 1 of 3</text>
    <rect x="30" y="605" width="100" height="4" rx="2" fill="#334155"/>
    <rect x="30" y="605" width="33" height="4" rx="2" fill="#8b5cf6"/>

    <!-- Error badge -->
    <rect x="30" y="625" width="90" height="20" rx="10" fill="#7f1d1d"/>
    <text x="75" y="638" text-anchor="middle" class="text-muted" fill="#fca5a5">card_declined</text>
  </g>

  <!-- Annotations -->
  <g class="annotations">
    <!-- Error icon annotation -->
    <rect x="870" y="100" width="90" height="50" rx="4" fill="#1e293b" stroke="#8b5cf6" stroke-width="1"/>
    <text x="915" y="120" text-anchor="middle" class="annotation">Error Icon</text>
    <text x="915" y="135" text-anchor="middle" class="text-muted">Clear visual</text>
    <text x="915" y="148" text-anchor="middle" class="text-muted">indicator</text>

    <!-- Error types annotation -->
    <rect x="870" y="170" width="90" height="65" rx="4" fill="#1e293b" stroke="#8b5cf6" stroke-width="1"/>
    <text x="915" y="188" text-anchor="middle" class="annotation">8 Error Types</text>
    <text x="915" y="203" text-anchor="middle" class="text-muted">declined</text>
    <text x="915" y="216" text-anchor="middle" class="text-muted">expired</text>
    <text x="915" y="229" text-anchor="middle" class="text-muted">network...</text>

    <!-- Retry button annotation -->
    <rect x="870" y="260" width="90" height="50" rx="4" fill="#1e293b" stroke="#22c55e" stroke-width="1"/>
    <text x="915" y="280" text-anchor="middle" class="annotation" fill="#22c55e">Retry Btn</text>
    <text x="915" y="295" text-anchor="middle" class="text-muted">Primary CTA</text>

    <!-- Update method annotation -->
    <rect x="870" y="330" width="90" height="50" rx="4" fill="#1e293b" stroke="#eab308" stroke-width="1"/>
    <text x="915" y="350" text-anchor="middle" class="annotation" fill="#eab308">Update Card</text>
    <text x="915" y="365" text-anchor="middle" class="text-muted">Secondary</text>

    <!-- Retry limit annotation -->
    <rect x="870" y="400" width="90" height="50" rx="4" fill="#1e293b" stroke="#ef4444" stroke-width="1"/>
    <text x="915" y="420" text-anchor="middle" class="annotation" fill="#ef4444">Max 3 Retry</text>
    <text x="915" y="435" text-anchor="middle" class="text-muted">FR-009</text>
  </g>

  <!-- Leader lines -->
  <g id="leader-lines">
    <line x1="460" y1="200" x2="870" y2="125" stroke="#8b5cf6" stroke-width="1" stroke-dasharray="4,2"/>
    <line x1="800" y1="660" x2="870" y2="210" stroke="#8b5cf6" stroke-width="1" stroke-dasharray="4,2"/>
    <line x1="290" y1="530" x2="870" y2="285" stroke="#22c55e" stroke-width="1" stroke-dasharray="4,2"/>
    <line x1="500" y1="530" x2="870" y2="355" stroke="#eab308" stroke-width="1" stroke-dasharray="4,2"/>
    <line x1="300" y1="617" x2="870" y2="425" stroke="#ef4444" stroke-width="1" stroke-dasharray="4,2"/>
  </g>
</svg>
