<svg xmlns="http://www.w3.org/2000/svg" viewBox="0 0 1400 800" width="1400" height="800">
  <!-- ============================================================
       GENERATED BY: /wireframe skill
       SOURCE: features/payments/040-payment-retry-ui/spec.md
       DATE: 2026-01-01
       THEME: Light (UX/Frontend) - v3 True Parchment
       DO NOT MANUALLY EDIT - Regenerate with /wireframe command
       ============================================================ -->
  <defs>
    <linearGradient id="bgGrad" x1="0%" y1="0%" x2="100%" y2="100%">
      <stop offset="0%" style="stop-color:#c7ddf5"/>
      <stop offset="100%" style="stop-color:#b8d4f0"/>
    </linearGradient>
    <linearGradient id="accentGrad" x1="0%" y1="0%" x2="100%" y2="0%">
      <stop offset="0%" style="stop-color:#8b5cf6"/>
      <stop offset="100%" style="stop-color:#d946ef"/>
    </linearGradient>
    <style>
      .heading-lg { fill: #1a1a2e; font-family: system-ui, sans-serif; font-size: 24px; font-weight: 800; }
      .heading { fill: #1a1a2e; font-family: system-ui, sans-serif; font-size: 16px; font-weight: 700; }
      .text-md { fill: #2d3748; font-family: system-ui, sans-serif; font-size: 14px; font-weight: 500; }
      .text-sm { fill: #374151; font-family: system-ui, sans-serif; font-size: 12px; font-weight: 500; }
      .text-muted { fill: #4b5563; font-family: system-ui, sans-serif; font-size: 11px; font-weight: 500; }
      .annotation { fill: #6d28d9; font-family: monospace; font-size: 12px; font-weight: 600; }
      .label-desktop { fill: #8b5cf6; font-family: monospace; font-size: 13px; font-weight: bold; }
      .label-mobile { fill: #d946ef; font-family: monospace; font-size: 13px; font-weight: bold; }
    </style>
  </defs>

  <!-- Background -->
  <rect width="1400" height="800" fill="url(#bgGrad)"/>

  <!-- Dot grid pattern -->
  <g opacity="0.35">
    <pattern id="dots" width="30" height="30" patternUnits="userSpaceOnUse">
      <circle cx="15" cy="15" r="1" fill="#6b8cba"/>
    </pattern>
    <rect width="1400" height="800" fill="url(#dots)"/>
  </g>

  <!-- Accent line top -->
  <rect x="0" y="0" width="1400" height="3" fill="url(#accentGrad)"/>

  <!-- Title -->
  <text x="700" y="28" text-anchor="middle" font-family="system-ui, sans-serif" font-size="14" font-weight="600" fill="#4b5563" letter-spacing="1">PAYMENT RETRY &amp; UPDATE FLOW — STATES &amp; FORMS</text>

  <!-- DESKTOP SECTION -->
  <text x="40" y="52" class="label-desktop">DESKTOP — RETRY FLOW STATES</text>

  <g id="desktop-view">
    <!-- Main panel -->
    <rect x="40" y="60" width="900" height="680" rx="12" fill="#e8d4b8" stroke="#b8a080" stroke-width="1"/>

    <!-- Header -->
    <rect x="40" y="60" width="900" height="50" rx="12" fill="#dcc8a8"/>
    <rect x="40" y="95" width="900" height="15" fill="#dcc8a8"/>
    <text x="490" y="92" text-anchor="middle" class="heading-lg">Retry Payment Flow</text>

    <!-- State 1: Initial Error with Retry -->
    <g transform="translate(60, 125)">
      <text x="0" y="16" class="annotation">STATE 1: RETRY AVAILABLE</text>
      <rect y="25" width="400" height="190" rx="8" fill="#f5f0e6" stroke="#b8a080" stroke-width="1"/>

      <!-- Error banner -->
      <rect x="15" y="40" width="370" height="50" rx="6" fill="#fef2f2" stroke="#fca5a5" stroke-width="1"/>
      <circle cx="40" cy="65" r="14" fill="#ef4444"/>
      <text x="40" y="70" text-anchor="middle" fill="#fff" font-size="14" font-weight="bold">!</text>
      <text x="65" y="60" class="text-md" fill="#dc2626">Payment Failed</text>
      <text x="65" y="78" class="text-sm">Network error - please try again</text>

      <!-- Retry info -->
      <text x="15" y="115" class="text-muted">Attempt 1 of 3</text>
      <rect x="15" y="125" width="100" height="8" rx="4" fill="#dcc8a8"/>
      <rect x="15" y="125" width="33" height="8" rx="4" fill="#8b5cf6"/>

      <!-- Retry button -->
      <rect x="15" y="145" width="370" height="44" rx="8" fill="#22c55e"/>
      <text x="200" y="173" text-anchor="middle" fill="#fff" font-size="14" font-weight="600">↻ Retry Payment</text>

      <!-- Secondary action -->
      <text x="200" y="202" text-anchor="middle" class="text-sm" fill="#6d28d9">or update payment method</text>
    </g>

    <!-- State 2: Retry Processing -->
    <g transform="translate(480, 125)">
      <text x="0" y="16" class="annotation">STATE 2: PROCESSING</text>
      <rect y="25" width="400" height="190" rx="8" fill="#f5f0e6" stroke="#b8a080" stroke-width="1"/>

      <!-- Processing indicator -->
      <rect x="15" y="40" width="370" height="80" rx="6" fill="#f0f9ff" stroke="#7dd3fc" stroke-width="1"/>

      <!-- Spinner placeholder -->
      <circle cx="200" cy="70" r="20" fill="none" stroke="#8b5cf6" stroke-width="3" stroke-dasharray="40,20"/>
      <text x="200" y="110" text-anchor="middle" class="text-md">Processing payment...</text>

      <!-- Disabled retry button -->
      <rect x="15" y="135" width="370" height="44" rx="8" fill="#9ca3af"/>
      <text x="200" y="163" text-anchor="middle" fill="#fff" font-size="14" font-weight="600">Processing...</text>

      <!-- Cancel option -->
      <text x="200" y="198" text-anchor="middle" class="text-sm" fill="#6d28d9">Cancel</text>
    </g>

    <!-- State 3: Retry Success -->
    <g transform="translate(60, 335)">
      <text x="0" y="16" class="annotation">STATE 3: SUCCESS</text>
      <rect y="25" width="400" height="190" rx="8" fill="#f5f0e6" stroke="#b8a080" stroke-width="1"/>

      <!-- Success banner -->
      <rect x="15" y="40" width="370" height="80" rx="6" fill="#f0fdf4" stroke="#86efac" stroke-width="2"/>
      <circle cx="200" cy="70" r="20" fill="#22c55e"/>
      <text x="200" y="77" text-anchor="middle" fill="#fff" font-size="18" font-weight="bold">✓</text>
      <text x="200" y="110" text-anchor="middle" class="heading" fill="#166534">Payment Successful!</text>

      <!-- Continue button -->
      <rect x="15" y="135" width="370" height="44" rx="8" fill="#8b5cf6"/>
      <text x="200" y="163" text-anchor="middle" fill="#fff" font-size="14" font-weight="600">Continue to Receipt →</text>

      <!-- Transaction details -->
      <text x="200" y="198" text-anchor="middle" class="text-muted">Transaction ID: TXN-2026-0101-EFGH</text>
    </g>

    <!-- State 4: Max Retries Reached -->
    <g transform="translate(480, 335)">
      <text x="0" y="16" class="annotation">STATE 4: RETRIES EXHAUSTED</text>
      <rect y="25" width="400" height="190" rx="8" fill="#f5f0e6" stroke="#b8a080" stroke-width="1"/>

      <!-- Error banner -->
      <rect x="15" y="40" width="370" height="60" rx="6" fill="#fef2f2" stroke="#fca5a5" stroke-width="2"/>
      <text x="200" y="65" text-anchor="middle" class="heading" fill="#dc2626">Retry Limit Reached</text>
      <text x="200" y="85" text-anchor="middle" class="text-sm">You've used all 3 retry attempts</text>

      <!-- Alternative actions -->
      <rect x="15" y="115" width="175" height="36" rx="6" fill="#8b5cf6"/>
      <text x="102" y="138" text-anchor="middle" fill="#fff" font-size="12" font-weight="600">Update Card</text>

      <rect x="200" y="115" width="185" height="36" rx="6" fill="none" stroke="#8b5cf6" stroke-width="2"/>
      <text x="292" y="138" text-anchor="middle" fill="#8b5cf6" font-size="12" font-weight="600">Try Another Method</text>

      <!-- Support link -->
      <rect x="15" y="165" width="370" height="36" rx="6" fill="#dcc8a8"/>
      <text x="200" y="188" text-anchor="middle" class="text-md" fill="#6d28d9">Contact Support</text>
    </g>

    <!-- Payment Method Update Form -->
    <g transform="translate(60, 545)">
      <text x="0" y="16" class="annotation">UPDATE PAYMENT METHOD FORM</text>
      <rect y="25" width="820" height="160" rx="8" fill="#f5f0e6" stroke="#8b5cf6" stroke-width="2"/>

      <!-- Form header -->
      <text x="20" y="55" class="heading">Update Payment Method</text>

      <!-- Current method -->
      <rect x="20" y="70" width="250" height="50" rx="6" fill="#dcc8a8"/>
      <text x="35" y="90" class="text-muted">Current Method</text>
      <text x="35" y="110" class="text-md">•••• •••• •••• 4242  |  Exp: 12/25</text>

      <!-- Card number input -->
      <text x="290" y="90" class="text-muted">New Card Number</text>
      <rect x="290" y="95" width="240" height="36" rx="6" fill="#fff" stroke="#b8a080" stroke-width="1"/>
      <text x="305" y="119" class="text-sm" fill="#9ca3af">1234 5678 9012 3456</text>

      <!-- Expiry -->
      <text x="545" y="90" class="text-muted">Expiry</text>
      <rect x="545" y="95" width="80" height="36" rx="6" fill="#fff" stroke="#b8a080" stroke-width="1"/>
      <text x="560" y="119" class="text-sm" fill="#9ca3af">MM/YY</text>

      <!-- CVC -->
      <text x="640" y="90" class="text-muted">CVC</text>
      <rect x="640" y="95" width="60" height="36" rx="6" fill="#fff" stroke="#b8a080" stroke-width="1"/>
      <text x="655" y="119" class="text-sm" fill="#9ca3af">123</text>

      <!-- Submit button -->
      <rect x="720" y="95" width="80" height="36" rx="6" fill="#8b5cf6"/>
      <text x="760" y="119" text-anchor="middle" fill="#fff" font-size="12" font-weight="600">Save</text>

      <!-- Info text -->
      <text x="20" y="165" class="text-muted">After saving, your payment will be automatically retried with the new card.</text>
    </g>
  </g>

  <!-- MOBILE SECTION -->
  <text x="980" y="52" class="label-mobile">MOBILE — RETRY STATES</text>

  <g id="mobile-view" transform="translate(980, 60)">
    <!-- Phone frame -->
    <rect x="0" y="0" width="360" height="700" rx="24" fill="#c8b898" stroke="#a08860" stroke-width="2"/>
    <rect x="10" y="10" width="340" height="680" rx="16" fill="#e8d4b8"/>

    <!-- Status bar -->
    <rect x="10" y="10" width="340" height="28" rx="16" fill="#dcc8a8"/>
    <text x="30" y="28" class="text-sm">9:41</text>
    <text x="310" y="28" class="text-sm">📶 🔋</text>

    <!-- Header -->
    <rect x="20" y="48" width="320" height="44" rx="8" fill="#dcc8a8"/>
    <text x="40" y="76" class="heading">← Retry Payment</text>

    <!-- Error card -->
    <g transform="translate(20, 105)">
      <rect width="320" height="100" rx="8" fill="#fef2f2" stroke="#fca5a5" stroke-width="2"/>
      <circle cx="35" cy="35" r="18" fill="#ef4444"/>
      <text x="35" y="41" text-anchor="middle" fill="#fff" font-size="14" font-weight="bold">!</text>
      <text x="65" y="30" class="heading" fill="#dc2626">Payment Failed</text>
      <text x="65" y="48" class="text-sm">Network error occurred</text>

      <!-- Attempt counter -->
      <text x="15" y="75" class="text-muted">Retry attempts: 1 of 3</text>
      <rect x="150" y="65" width="155" height="8" rx="4" fill="#dcc8a8"/>
      <rect x="150" y="65" width="52" height="8" rx="4" fill="#8b5cf6"/>
    </g>

    <!-- Retry button -->
    <g transform="translate(20, 220)">
      <rect width="320" height="48" rx="8" fill="#22c55e"/>
      <text x="160" y="30" text-anchor="middle" fill="#fff" font-size="14" font-weight="600">↻ Retry Payment</text>
    </g>

    <!-- OR divider -->
    <g transform="translate(20, 285)">
      <line x1="0" y1="10" x2="140" y2="10" stroke="#b8a080" stroke-width="1"/>
      <text x="160" y="14" text-anchor="middle" class="text-muted">or</text>
      <line x1="180" y1="10" x2="320" y2="10" stroke="#b8a080" stroke-width="1"/>
    </g>

    <!-- Update card option -->
    <g transform="translate(20, 310)">
      <rect width="320" height="48" rx="8" fill="#8b5cf6"/>
      <text x="160" y="30" text-anchor="middle" fill="#fff" font-size="14" font-weight="600">Update Payment Method</text>
    </g>

    <!-- Alternative method -->
    <g transform="translate(20, 375)">
      <rect width="320" height="48" rx="8" fill="none" stroke="#8b5cf6" stroke-width="2"/>
      <text x="160" y="30" text-anchor="middle" fill="#8b5cf6" font-size="14" font-weight="600">Use Different Method</text>
    </g>

    <!-- Cooling period notice (for rate limiting) -->
    <g transform="translate(20, 440)">
      <rect width="320" height="70" rx="8" fill="#f0f9ff" stroke="#7dd3fc" stroke-width="1"/>
      <text x="160" y="25" text-anchor="middle" class="text-muted">Cooling period active</text>
      <text x="160" y="50" text-anchor="middle" class="heading" fill="#0ea5e9">Retry available in 0:45</text>
    </g>

    <!-- Transaction ref -->
    <g transform="translate(20, 530)">
      <text x="0" y="16" class="text-muted">Transaction Reference</text>
      <text x="0" y="36" class="text-sm" font-family="monospace">TXN-2026-0101-ABCD-1234</text>
    </g>

    <!-- Help link -->
    <g transform="translate(20, 590)">
      <rect width="320" height="44" rx="8" fill="#dcc8a8"/>
      <text x="160" y="28" text-anchor="middle" class="text-md" fill="#6d28d9">Need help? Contact Support</text>
    </g>

    <!-- Bottom nav hint -->
    <rect x="130" y="660" width="100" height="5" rx="2" fill="#b8a080"/>
  </g>

  <!-- Annotations -->
  <g id="leader-lines">
    <line x1="940" y1="300" x2="980" y2="300" stroke="#8b5cf6" stroke-width="1" stroke-dasharray="4,2"/>
  </g>
</svg>