<svg xmlns="http://www.w3.org/2000/svg" viewBox="0 0 1400 800" width="1400" height="800">
  <!-- ============================================================
       GENERATED BY: /wireframe skill
       SOURCE: features/payments/040-payment-retry-ui/spec.md
       DATE: 2025-12-31
       DO NOT MANUALLY EDIT - Regenerate with /wireframe command
       ============================================================ -->
  <defs>
    <linearGradient id="bgGrad" x1="0%" y1="0%" x2="100%" y2="100%">
      <stop offset="0%" style="stop-color:#0f172a"/>
      <stop offset="100%" style="stop-color:#1e293b"/>
    </linearGradient>
    <linearGradient id="accentGrad" x1="0%" y1="0%" x2="100%" y2="0%">
      <stop offset="0%" style="stop-color:#8b5cf6"/>
      <stop offset="100%" style="stop-color:#d946ef"/>
    </linearGradient>
    <style>
      .heading-lg { fill: #ffffff; font-family: system-ui, sans-serif; font-size: 20px; font-weight: bold; }
      .heading { fill: #ffffff; font-family: system-ui, sans-serif; font-size: 14px; font-weight: bold; }
      .text-md { fill: #cbd5e1; font-family: system-ui, sans-serif; font-size: 12px; }
      .text-sm { fill: #94a3b8; font-family: system-ui, sans-serif; font-size: 10px; }
      .text-muted { fill: #64748b; font-family: system-ui, sans-serif; font-size: 10px; }
      .annotation { fill: #8b5cf6; font-family: monospace; font-size: 10px; }
      .label-desktop { fill: #8b5cf6; font-family: monospace; font-size: 11px; font-weight: bold; }
      .label-mobile { fill: #d946ef; font-family: monospace; font-size: 11px; font-weight: bold; }
    </style>
  </defs>

  <!-- Background -->
  <rect width="1400" height="800" fill="url(#bgGrad)"/>

  <!-- Dot grid pattern -->
  <g opacity="0.05">
    <pattern id="dots" width="30" height="30" patternUnits="userSpaceOnUse">
      <circle cx="15" cy="15" r="1" fill="#fff"/>
    </pattern>
    <rect width="1400" height="800" fill="url(#dots)"/>
  </g>

  <!-- Accent line top -->
  <rect x="0" y="0" width="1400" height="3" fill="url(#accentGrad)"/>

  <!-- Title -->
  <text x="700" y="28" text-anchor="middle" font-family="system-ui, sans-serif" font-size="14" font-weight="600" fill="#64748b" letter-spacing="1">UPDATE PAYMENT METHOD</text>

  <!-- DESKTOP SECTION -->
  <text x="40" y="52" class="label-desktop">DESKTOP</text>
  <g id="desktop-view">
    <!-- Main container -->
    <rect x="150" y="80" width="700" height="620" rx="12" fill="#1e293b" stroke="#475569" stroke-width="1"/>

    <!-- Header -->
    <rect x="150" y="80" width="700" height="60" rx="12" fill="#334155"/>
    <rect x="150" y="128" width="700" height="12" fill="#334155"/>
    <text x="180" y="118" class="text-md" fill="#94a3b8">< Back to Error</text>
    <text x="500" y="118" text-anchor="middle" class="heading">Update Payment Method</text>

    <!-- Current payment method section -->
    <text x="200" y="175" class="heading">Current Payment Method</text>
    <rect x="200" y="190" width="600" height="80" rx="8" fill="#0f172a" stroke="#ef4444" stroke-width="1"/>

    <!-- Card icon -->
    <rect x="220" y="210" width="50" height="35" rx="4" fill="#334155" stroke="#475569" stroke-width="1"/>
    <text x="245" y="232" text-anchor="middle" class="text-sm" fill="#fff">VISA</text>

    <!-- Card details (masked) -->
    <text x="290" y="225" class="text-md" fill="#fff">**** **** **** 4242</text>
    <text x="290" y="245" class="text-sm">Expires: 12/24</text>
    <rect x="290" y="253" width="60" height="16" rx="8" fill="#7f1d1d"/>
    <text x="320" y="264" text-anchor="middle" class="text-muted" fill="#fca5a5">EXPIRED</text>

    <!-- Declined badge -->
    <rect x="700" y="218" width="80" height="24" rx="4" fill="#7f1d1d"/>
    <text x="740" y="234" text-anchor="middle" class="text-sm" fill="#fca5a5">Declined</text>

    <!-- New payment method section -->
    <text x="200" y="305" class="heading">New Payment Method</text>

    <!-- Card number input -->
    <text x="200" y="335" class="text-sm">Card Number</text>
    <rect x="200" y="345" width="600" height="44" rx="6" fill="#0f172a" stroke="#475569" stroke-width="1"/>
    <text x="220" y="373" class="text-md">1234 5678 9012 3456</text>
    <rect x="740" y="358" width="40" height="20" rx="2" fill="#334155"/>
    <text x="760" y="372" text-anchor="middle" class="text-muted">VISA</text>

    <!-- Expiry and CVV row -->
    <g>
      <text x="200" y="415" class="text-sm">Expiry Date</text>
      <rect x="200" y="425" width="180" height="44" rx="6" fill="#0f172a" stroke="#475569" stroke-width="1"/>
      <text x="220" y="453" class="text-md">MM / YY</text>

      <text x="410" y="415" class="text-sm">CVV</text>
      <rect x="410" y="425" width="120" height="44" rx="6" fill="#0f172a" stroke="#475569" stroke-width="1"/>
      <text x="430" y="453" class="text-md">***</text>

      <text x="560" y="415" class="text-sm">ZIP Code</text>
      <rect x="560" y="425" width="240" height="44" rx="6" fill="#0f172a" stroke="#475569" stroke-width="1"/>
      <text x="580" y="453" class="text-md">10001</text>
    </g>

    <!-- Cardholder name -->
    <text x="200" y="500" class="text-sm">Cardholder Name</text>
    <rect x="200" y="510" width="600" height="44" rx="6" fill="#0f172a" stroke="#475569" stroke-width="1"/>
    <text x="220" y="538" class="text-md">John Doe</text>

    <!-- Save card checkbox -->
    <rect x="200" y="575" width="20" height="20" rx="4" fill="#8b5cf6"/>
    <text x="204" y="590" fill="#fff" font-size="14">✓</text>
    <text x="235" y="589" class="text-md">Save this card for future payments</text>

    <!-- Action buttons -->
    <rect x="200" y="620" width="200" height="48" rx="6" fill="#8b5cf6"/>
    <text x="300" y="650" text-anchor="middle" class="heading">Save & Retry Payment</text>

    <rect x="420" y="620" width="150" height="48" rx="6" fill="none" stroke="#475569" stroke-width="1"/>
    <text x="495" y="650" text-anchor="middle" class="text-md">Cancel</text>

    <!-- Security note -->
    <rect x="600" y="625" width="200" height="38" rx="6" fill="#0f172a" stroke="#475569" stroke-width="1"/>
    <text x="620" y="645" class="text-muted">🔒 Secured by Stripe</text>
    <text x="620" y="658" class="text-muted">PCI-DSS Compliant</text>
  </g>

  <!-- MOBILE SECTION -->
  <text x="980" y="52" class="label-mobile">MOBILE</text>
  <g id="mobile-view" transform="translate(980, 60)">
    <!-- Phone frame -->
    <rect x="0" y="0" width="360" height="700" rx="24" fill="#1e293b" stroke="#475569" stroke-width="2"/>
    <rect x="10" y="10" width="340" height="680" rx="16" fill="#0f172a"/>

    <!-- Status bar -->
    <rect x="10" y="10" width="340" height="28" rx="16" fill="#1e293b"/>
    <text x="30" y="28" class="text-sm">9:41</text>
    <text x="320" y="28" text-anchor="end" class="text-sm">100%</text>

    <!-- Header -->
    <rect x="10" y="38" width="340" height="50" fill="#1e293b"/>
    <text x="30" y="68" class="text-md" fill="#94a3b8">< Back</text>
    <text x="180" y="68" text-anchor="middle" class="heading">Update Card</text>

    <!-- Current method -->
    <text x="30" y="110" class="text-sm" fill="#fff">Current Card</text>
    <rect x="30" y="120" width="300" height="60" rx="6" fill="#1e293b" stroke="#ef4444" stroke-width="1"/>
    <rect x="45" y="135" width="40" height="28" rx="3" fill="#334155"/>
    <text x="65" y="153" text-anchor="middle" class="text-muted">VISA</text>
    <text x="100" y="148" class="text-sm" fill="#fff">**** 4242</text>
    <text x="100" y="165" class="text-muted">Exp: 12/24</text>
    <rect x="270" y="140" width="50" height="18" rx="9" fill="#7f1d1d"/>
    <text x="295" y="153" text-anchor="middle" class="text-muted" fill="#fca5a5">Failed</text>

    <!-- New card form -->
    <text x="30" y="210" class="text-sm" fill="#fff">New Card</text>

    <!-- Card number -->
    <text x="30" y="235" class="text-muted">Card Number</text>
    <rect x="30" y="245" width="300" height="40" rx="6" fill="#1e293b" stroke="#475569" stroke-width="1"/>
    <text x="45" y="270" class="text-md">1234 5678 9012 3456</text>

    <!-- Expiry / CVV row -->
    <text x="30" y="305" class="text-muted">Expiry</text>
    <rect x="30" y="315" width="140" height="40" rx="6" fill="#1e293b" stroke="#475569" stroke-width="1"/>
    <text x="45" y="340" class="text-md">MM / YY</text>

    <text x="190" y="305" class="text-muted">CVV</text>
    <rect x="190" y="315" width="140" height="40" rx="6" fill="#1e293b" stroke="#475569" stroke-width="1"/>
    <text x="205" y="340" class="text-md">***</text>

    <!-- ZIP -->
    <text x="30" y="375" class="text-muted">ZIP Code</text>
    <rect x="30" y="385" width="300" height="40" rx="6" fill="#1e293b" stroke="#475569" stroke-width="1"/>
    <text x="45" y="410" class="text-md">10001</text>

    <!-- Name -->
    <text x="30" y="445" class="text-muted">Cardholder Name</text>
    <rect x="30" y="455" width="300" height="40" rx="6" fill="#1e293b" stroke="#475569" stroke-width="1"/>
    <text x="45" y="480" class="text-md">John Doe</text>

    <!-- Save checkbox -->
    <rect x="30" y="515" width="18" height="18" rx="4" fill="#8b5cf6"/>
    <text x="34" y="528" fill="#fff" font-size="12">✓</text>
    <text x="55" y="528" class="text-sm">Save for future payments</text>

    <!-- Buttons -->
    <rect x="30" y="555" width="300" height="44" rx="6" fill="#8b5cf6"/>
    <text x="180" y="583" text-anchor="middle" class="heading">Save & Retry</text>

    <rect x="30" y="610" width="300" height="40" rx="6" fill="none" stroke="#475569" stroke-width="1"/>
    <text x="180" y="635" text-anchor="middle" class="text-md">Cancel</text>

    <!-- Security badge -->
    <text x="180" y="670" text-anchor="middle" class="text-muted">🔒 Secured by Stripe</text>
  </g>

  <!-- Annotations -->
  <g class="annotations">
    <!-- Masked card annotation -->
    <rect x="870" y="100" width="90" height="50" rx="4" fill="#1e293b" stroke="#8b5cf6" stroke-width="1"/>
    <text x="915" y="118" text-anchor="middle" class="annotation">Masked Data</text>
    <text x="915" y="133" text-anchor="middle" class="text-muted">Last 4 only</text>
    <text x="915" y="146" text-anchor="middle" class="text-muted">NFR-005</text>

    <!-- Validation annotation -->
    <rect x="870" y="170" width="90" height="50" rx="4" fill="#1e293b" stroke="#22c55e" stroke-width="1"/>
    <text x="915" y="188" text-anchor="middle" class="annotation" fill="#22c55e">Validation</text>
    <text x="915" y="203" text-anchor="middle" class="text-muted">FR-013</text>
    <text x="915" y="216" text-anchor="middle" class="text-muted">Pre-save</text>

    <!-- Auto-retry annotation -->
    <rect x="870" y="240" width="90" height="50" rx="4" fill="#1e293b" stroke="#eab308" stroke-width="1"/>
    <text x="915" y="258" text-anchor="middle" class="annotation" fill="#eab308">Auto Retry</text>
    <text x="915" y="273" text-anchor="middle" class="text-muted">FR-015</text>
    <text x="915" y="286" text-anchor="middle" class="text-muted">On save</text>

    <!-- Save to profile annotation -->
    <rect x="870" y="310" width="90" height="50" rx="4" fill="#1e293b" stroke="#d946ef" stroke-width="1"/>
    <text x="915" y="328" text-anchor="middle" class="annotation" fill="#d946ef">Save Card</text>
    <text x="915" y="343" text-anchor="middle" class="text-muted">FR-014</text>
    <text x="915" y="356" text-anchor="middle" class="text-muted">Profile</text>
  </g>

  <!-- Leader lines -->
  <g id="leader-lines">
    <line x1="350" y1="230" x2="870" y2="125" stroke="#8b5cf6" stroke-width="1" stroke-dasharray="4,2"/>
    <line x1="800" y1="370" x2="870" y2="195" stroke="#22c55e" stroke-width="1" stroke-dasharray="4,2"/>
    <line x1="400" y1="620" x2="870" y2="265" stroke="#eab308" stroke-width="1" stroke-dasharray="4,2"/>
    <line x1="220" y1="585" x2="870" y2="335" stroke="#d946ef" stroke-width="1" stroke-dasharray="4,2"/>
  </g>
</svg>
