<svg xmlns="http://www.w3.org/2000/svg" viewBox="0 0 1400 800" width="1400" height="800">
  <!-- ============================================================
       GENERATED BY: /wireframe skill
       SOURCE: features/payments/040-payment-retry-ui/spec.md
       DATE: 2025-12-31
       DO NOT MANUALLY EDIT - Regenerate with /wireframe command
       ============================================================ -->
  <defs>
    <linearGradient id="bgGrad" x1="0%" y1="0%" x2="100%" y2="100%">
      <stop offset="0%" style="stop-color:#0f172a"/>
      <stop offset="100%" style="stop-color:#1e293b"/>
    </linearGradient>
    <linearGradient id="accentGrad" x1="0%" y1="0%" x2="100%" y2="0%">
      <stop offset="0%" style="stop-color:#8b5cf6"/>
      <stop offset="100%" style="stop-color:#d946ef"/>
    </linearGradient>
    <style>
      .heading-lg { fill: #ffffff; font-family: system-ui, sans-serif; font-size: 20px; font-weight: bold; }
      .heading { fill: #ffffff; font-family: system-ui, sans-serif; font-size: 14px; font-weight: bold; }
      .text-md { fill: #cbd5e1; font-family: system-ui, sans-serif; font-size: 12px; }
      .text-sm { fill: #94a3b8; font-family: system-ui, sans-serif; font-size: 10px; }
      .text-muted { fill: #64748b; font-family: system-ui, sans-serif; font-size: 10px; }
      .annotation { fill: #8b5cf6; font-family: monospace; font-size: 10px; }
      .label-desktop { fill: #8b5cf6; font-family: monospace; font-size: 11px; font-weight: bold; }
      .label-mobile { fill: #d946ef; font-family: monospace; font-size: 11px; font-weight: bold; }
    </style>
  </defs>

  <!-- Background -->
  <rect width="1400" height="800" fill="url(#bgGrad)"/>

  <!-- Dot grid pattern -->
  <g opacity="0.05">
    <pattern id="dots" width="30" height="30" patternUnits="userSpaceOnUse">
      <circle cx="15" cy="15" r="1" fill="#fff"/>
    </pattern>
    <rect width="1400" height="800" fill="url(#dots)"/>
  </g>

  <!-- Accent line top -->
  <rect x="0" y="0" width="1400" height="3" fill="url(#accentGrad)"/>

  <!-- Title -->
  <text x="700" y="28" text-anchor="middle" font-family="system-ui, sans-serif" font-size="14" font-weight="600" fill="#64748b" letter-spacing="1">GUIDED RECOVERY WIZARD</text>

  <!-- DESKTOP SECTION -->
  <text x="40" y="52" class="label-desktop">DESKTOP</text>
  <g id="desktop-view">
    <!-- Main container -->
    <rect x="150" y="80" width="700" height="620" rx="12" fill="#1e293b" stroke="#475569" stroke-width="1"/>

    <!-- Header -->
    <rect x="150" y="80" width="700" height="60" rx="12" fill="#334155"/>
    <rect x="150" y="128" width="700" height="12" fill="#334155"/>
    <text x="180" y="118" class="text-md" fill="#94a3b8">< Exit Recovery</text>
    <text x="500" y="118" text-anchor="middle" class="heading">Payment Recovery</text>

    <!-- Progress indicator -->
    <g id="progress-steps">
      <text x="500" y="165" text-anchor="middle" class="text-sm">Step 2 of 4</text>

      <!-- Step circles -->
      <circle cx="300" cy="195" r="16" fill="#22c55e"/>
      <text x="300" y="200" text-anchor="middle" fill="#fff" font-size="12" font-weight="bold">✓</text>
      <text x="300" y="225" text-anchor="middle" class="text-muted">Retry</text>

      <line x1="316" y1="195" x2="384" y2="195" stroke="#8b5cf6" stroke-width="2"/>

      <circle cx="400" cy="195" r="16" fill="#8b5cf6" stroke="#8b5cf6" stroke-width="2"/>
      <text x="400" y="200" text-anchor="middle" fill="#fff" font-size="12" font-weight="bold">2</text>
      <text x="400" y="225" text-anchor="middle" class="text-sm" fill="#fff">Update Card</text>

      <line x1="416" y1="195" x2="484" y2="195" stroke="#475569" stroke-width="2"/>

      <circle cx="500" cy="195" r="16" fill="none" stroke="#475569" stroke-width="2"/>
      <text x="500" y="200" text-anchor="middle" class="text-muted" font-size="12">3</text>
      <text x="500" y="225" text-anchor="middle" class="text-muted">Alt Method</text>

      <line x1="516" y1="195" x2="584" y2="195" stroke="#475569" stroke-width="2"/>

      <circle cx="600" cy="195" r="16" fill="none" stroke="#475569" stroke-width="2"/>
      <text x="600" y="200" text-anchor="middle" class="text-muted" font-size="12">4</text>
      <text x="600" y="225" text-anchor="middle" class="text-muted">Support</text>
    </g>

    <!-- Current step content -->
    <rect x="200" y="250" width="600" height="300" rx="8" fill="#0f172a" stroke="#8b5cf6" stroke-width="2"/>

    <text x="500" y="290" text-anchor="middle" class="heading-lg">Update Your Payment Method</text>
    <text x="500" y="315" text-anchor="middle" class="text-md">Your card was declined. Try a different card or payment method.</text>

    <!-- Recovery options -->
    <rect x="230" y="345" width="540" height="60" rx="6" fill="#1e293b" stroke="#8b5cf6" stroke-width="1"/>
    <circle cx="260" cy="375" r="12" fill="#8b5cf6"/>
    <text x="260" y="380" text-anchor="middle" fill="#fff" font-size="14">●</text>
    <text x="290" y="370" class="heading">Use a different credit/debit card</text>
    <text x="290" y="390" class="text-sm">Enter new card details</text>
    <text x="740" y="380" text-anchor="end" class="text-md" fill="#8b5cf6">Recommended</text>

    <rect x="230" y="415" width="540" height="60" rx="6" fill="#1e293b" stroke="#475569" stroke-width="1"/>
    <circle cx="260" cy="445" r="12" fill="none" stroke="#475569" stroke-width="2"/>
    <text x="290" y="440" class="heading">Pay with PayPal</text>
    <text x="290" y="460" class="text-sm">You'll be redirected to PayPal</text>

    <rect x="230" y="485" width="540" height="60" rx="6" fill="#1e293b" stroke="#475569" stroke-width="1"/>
    <circle cx="260" cy="515" r="12" fill="none" stroke="#475569" stroke-width="2"/>
    <text x="290" y="510" class="heading">Bank transfer</text>
    <text x="290" y="530" class="text-sm">Manual transfer (takes 1-3 business days)</text>

    <!-- Action buttons -->
    <rect x="200" y="580" width="200" height="48" rx="6" fill="#8b5cf6"/>
    <text x="300" y="610" text-anchor="middle" class="heading">Continue</text>

    <rect x="420" y="580" width="150" height="48" rx="6" fill="none" stroke="#475569" stroke-width="1"/>
    <text x="495" y="610" text-anchor="middle" class="text-md">Skip to Support</text>

    <!-- Timer/cooldown -->
    <rect x="590" y="580" width="210" height="48" rx="6" fill="#0f172a" stroke="#475569" stroke-width="1"/>
    <text x="610" y="600" class="text-muted">Next retry available in:</text>
    <text x="610" y="618" class="text-md" fill="#eab308">02:45</text>

    <!-- Help link -->
    <text x="500" y="670" text-anchor="middle" class="text-sm" fill="#8b5cf6">Need help? Chat with our support team</text>
  </g>

  <!-- MOBILE SECTION -->
  <text x="980" y="52" class="label-mobile">MOBILE</text>
  <g id="mobile-view" transform="translate(980, 60)">
    <!-- Phone frame -->
    <rect x="0" y="0" width="360" height="700" rx="24" fill="#1e293b" stroke="#475569" stroke-width="2"/>
    <rect x="10" y="10" width="340" height="680" rx="16" fill="#0f172a"/>

    <!-- Status bar -->
    <rect x="10" y="10" width="340" height="28" rx="16" fill="#1e293b"/>
    <text x="30" y="28" class="text-sm">9:41</text>
    <text x="320" y="28" text-anchor="end" class="text-sm">100%</text>

    <!-- Header -->
    <rect x="10" y="38" width="340" height="50" fill="#1e293b"/>
    <text x="30" y="68" class="text-md" fill="#94a3b8">< Exit</text>
    <text x="180" y="68" text-anchor="middle" class="heading">Recovery</text>

    <!-- Mobile progress indicator -->
    <rect x="30" y="100" width="300" height="6" rx="3" fill="#334155"/>
    <rect x="30" y="100" width="150" height="6" rx="3" fill="#8b5cf6"/>
    <text x="180" y="125" text-anchor="middle" class="text-sm">Step 2 of 4: Update Card</text>

    <!-- Step icons (compact) -->
    <g transform="translate(30, 140)">
      <circle cx="30" cy="15" r="10" fill="#22c55e"/>
      <text x="30" y="19" text-anchor="middle" fill="#fff" font-size="10">✓</text>

      <line x1="40" y1="15" x2="110" y2="15" stroke="#8b5cf6" stroke-width="2"/>

      <circle cx="120" cy="15" r="10" fill="#8b5cf6"/>
      <text x="120" y="19" text-anchor="middle" fill="#fff" font-size="10">2</text>

      <line x1="130" y1="15" x2="200" y2="15" stroke="#475569" stroke-width="2"/>

      <circle cx="210" cy="15" r="10" fill="none" stroke="#475569" stroke-width="2"/>
      <text x="210" y="19" text-anchor="middle" class="text-muted" font-size="10">3</text>

      <line x1="220" y1="15" x2="260" y2="15" stroke="#475569" stroke-width="2"/>

      <circle cx="270" cy="15" r="10" fill="none" stroke="#475569" stroke-width="2"/>
      <text x="270" y="19" text-anchor="middle" class="text-muted" font-size="10">4</text>
    </g>

    <!-- Current step title -->
    <text x="180" y="195" text-anchor="middle" class="heading">Update Payment Method</text>
    <text x="180" y="215" text-anchor="middle" class="text-sm">Choose how to complete payment</text>

    <!-- Recovery options -->
    <rect x="30" y="235" width="300" height="55" rx="6" fill="#1e293b" stroke="#8b5cf6" stroke-width="2"/>
    <circle cx="52" cy="262" r="8" fill="#8b5cf6"/>
    <text x="70" y="257" class="text-sm" fill="#fff">Different card</text>
    <text x="70" y="273" class="text-muted">Recommended</text>

    <rect x="30" y="300" width="300" height="55" rx="6" fill="#1e293b" stroke="#475569" stroke-width="1"/>
    <circle cx="52" cy="327" r="8" fill="none" stroke="#475569" stroke-width="2"/>
    <text x="70" y="322" class="text-sm" fill="#fff">PayPal</text>
    <text x="70" y="338" class="text-muted">Redirect to PayPal</text>

    <rect x="30" y="365" width="300" height="55" rx="6" fill="#1e293b" stroke="#475569" stroke-width="1"/>
    <circle cx="52" cy="392" r="8" fill="none" stroke="#475569" stroke-width="2"/>
    <text x="70" y="387" class="text-sm" fill="#fff">Bank transfer</text>
    <text x="70" y="403" class="text-muted">1-3 business days</text>

    <!-- Cooldown timer -->
    <rect x="30" y="435" width="300" height="40" rx="6" fill="#1e293b" stroke="#eab308" stroke-width="1"/>
    <text x="180" y="460" text-anchor="middle" class="text-sm" fill="#eab308">Retry available in 02:45</text>

    <!-- Buttons -->
    <rect x="30" y="495" width="300" height="44" rx="6" fill="#8b5cf6"/>
    <text x="180" y="523" text-anchor="middle" class="heading">Continue</text>

    <rect x="30" y="550" width="300" height="40" rx="6" fill="none" stroke="#475569" stroke-width="1"/>
    <text x="180" y="575" text-anchor="middle" class="text-md">Skip to Support</text>

    <!-- Help -->
    <text x="180" y="620" text-anchor="middle" class="text-sm" fill="#8b5cf6">Chat with support</text>
  </g>

  <!-- Annotations -->
  <g class="annotations">
    <!-- Progress steps annotation -->
    <rect x="870" y="100" width="90" height="50" rx="4" fill="#1e293b" stroke="#8b5cf6" stroke-width="1"/>
    <text x="915" y="118" text-anchor="middle" class="annotation">Progress</text>
    <text x="915" y="133" text-anchor="middle" class="text-muted">NFR-004</text>
    <text x="915" y="146" text-anchor="middle" class="text-muted">4 steps</text>

    <!-- Priority order annotation -->
    <rect x="870" y="170" width="90" height="50" rx="4" fill="#1e293b" stroke="#22c55e" stroke-width="1"/>
    <text x="915" y="188" text-anchor="middle" class="annotation" fill="#22c55e">Priority</text>
    <text x="915" y="203" text-anchor="middle" class="text-muted">FR-017</text>
    <text x="915" y="216" text-anchor="middle" class="text-muted">Simple first</text>

    <!-- Cooldown annotation -->
    <rect x="870" y="240" width="90" height="50" rx="4" fill="#1e293b" stroke="#eab308" stroke-width="1"/>
    <text x="915" y="258" text-anchor="middle" class="annotation" fill="#eab308">Cooldown</text>
    <text x="915" y="273" text-anchor="middle" class="text-muted">FR-010</text>
    <text x="915" y="286" text-anchor="middle" class="text-muted">Rate limit</text>

    <!-- Alt methods annotation -->
    <rect x="870" y="310" width="90" height="50" rx="4" fill="#1e293b" stroke="#d946ef" stroke-width="1"/>
    <text x="915" y="328" text-anchor="middle" class="annotation" fill="#d946ef">Alt Methods</text>
    <text x="915" y="343" text-anchor="middle" class="text-muted">FR-018</text>
    <text x="915" y="356" text-anchor="middle" class="text-muted">Fallbacks</text>

    <!-- Escalation annotation -->
    <rect x="870" y="380" width="90" height="50" rx="4" fill="#1e293b" stroke="#ef4444" stroke-width="1"/>
    <text x="915" y="398" text-anchor="middle" class="annotation" fill="#ef4444">Escalation</text>
    <text x="915" y="413" text-anchor="middle" class="text-muted">FR-019</text>
    <text x="915" y="426" text-anchor="middle" class="text-muted">Support path</text>
  </g>

  <!-- Leader lines -->
  <g id="leader-lines">
    <line x1="620" y1="195" x2="870" y2="125" stroke="#8b5cf6" stroke-width="1" stroke-dasharray="4,2"/>
    <line x1="770" y1="375" x2="870" y2="195" stroke="#22c55e" stroke-width="1" stroke-dasharray="4,2"/>
    <line x1="800" y1="600" x2="870" y2="265" stroke="#eab308" stroke-width="1" stroke-dasharray="4,2"/>
    <line x1="770" y1="485" x2="870" y2="335" stroke="#d946ef" stroke-width="1" stroke-dasharray="4,2"/>
    <line x1="570" y1="596" x2="870" y2="405" stroke="#ef4444" stroke-width="1" stroke-dasharray="4,2"/>
  </g>
</svg>
