<svg xmlns="http://www.w3.org/2000/svg" viewBox="0 0 1400 800" width="1400" height="800">
  <!-- ============================================================
       GENERATED BY: /wireframe skill
       SOURCE: features/payments/040-payment-retry-ui/spec.md
       DATE: 2026-01-01
       THEME: Light (UX/Frontend) - v3 True Parchment
       DO NOT MANUALLY EDIT - Regenerate with /wireframe command
       ============================================================ -->
  <defs>
    <linearGradient id="bgGrad" x1="0%" y1="0%" x2="100%" y2="100%">
      <stop offset="0%" style="stop-color:#c7ddf5"/>
      <stop offset="100%" style="stop-color:#b8d4f0"/>
    </linearGradient>
    <linearGradient id="accentGrad" x1="0%" y1="0%" x2="100%" y2="0%">
      <stop offset="0%" style="stop-color:#8b5cf6"/>
      <stop offset="100%" style="stop-color:#d946ef"/>
    </linearGradient>
    <style>
      .heading-lg { fill: #1a1a2e; font-family: system-ui, sans-serif; font-size: 24px; font-weight: 800; }
      .heading { fill: #1a1a2e; font-family: system-ui, sans-serif; font-size: 16px; font-weight: 700; }
      .text-md { fill: #2d3748; font-family: system-ui, sans-serif; font-size: 14px; font-weight: 500; }
      .text-sm { fill: #374151; font-family: system-ui, sans-serif; font-size: 12px; font-weight: 500; }
      .text-muted { fill: #4b5563; font-family: system-ui, sans-serif; font-size: 11px; font-weight: 500; }
      .annotation { fill: #6d28d9; font-family: monospace; font-size: 12px; font-weight: 600; }
      .label-desktop { fill: #8b5cf6; font-family: monospace; font-size: 13px; font-weight: bold; }
      .label-mobile { fill: #d946ef; font-family: monospace; font-size: 13px; font-weight: bold; }
      .step-active { fill: #8b5cf6; }
      .step-complete { fill: #22c55e; }
      .step-pending { fill: #9ca3af; }
    </style>
  </defs>

  <!-- Background -->
  <rect width="1400" height="800" fill="url(#bgGrad)"/>

  <!-- Dot grid pattern -->
  <g opacity="0.35">
    <pattern id="dots" width="30" height="30" patternUnits="userSpaceOnUse">
      <circle cx="15" cy="15" r="1" fill="#6b8cba"/>
    </pattern>
    <rect width="1400" height="800" fill="url(#dots)"/>
  </g>

  <!-- Accent line top -->
  <rect x="0" y="0" width="1400" height="3" fill="url(#accentGrad)"/>

  <!-- Title -->
  <text x="700" y="28" text-anchor="middle" font-family="system-ui, sans-serif" font-size="14" font-weight="600" fill="#4b5563" letter-spacing="1">GUIDED RECOVERY WIZARD — STEP-BY-STEP RESOLUTION</text>

  <!-- DESKTOP SECTION -->
  <text x="40" y="52" class="label-desktop">DESKTOP — RECOVERY WIZARD FLOW</text>

  <g id="desktop-view">
    <!-- Main panel -->
    <rect x="40" y="60" width="900" height="680" rx="12" fill="#e8d4b8" stroke="#b8a080" stroke-width="1"/>

    <!-- Header -->
    <rect x="40" y="60" width="900" height="50" rx="12" fill="#dcc8a8"/>
    <rect x="40" y="95" width="900" height="15" fill="#dcc8a8"/>
    <text x="490" y="92" text-anchor="middle" class="heading-lg">Payment Recovery Wizard</text>

    <!-- Progress stepper -->
    <g transform="translate(60, 125)">
      <text x="0" y="16" class="annotation">PROGRESS INDICATOR (FR-004)</text>

      <!-- Step 1: Retry -->
      <circle cx="50" cy="50" r="18" class="step-complete"/>
      <text x="50" y="56" text-anchor="middle" fill="#fff" font-size="14" font-weight="bold">✓</text>
      <text x="50" y="85" text-anchor="middle" class="text-sm">Retry</text>

      <!-- Connector 1 -->
      <rect x="68" y="47" width="100" height="6" rx="3" fill="#22c55e"/>

      <!-- Step 2: Update Card -->
      <circle cx="200" cy="50" r="18" class="step-active"/>
      <text x="200" y="56" text-anchor="middle" fill="#fff" font-size="14" font-weight="bold">2</text>
      <text x="200" y="85" text-anchor="middle" class="text-sm">Update Card</text>

      <!-- Connector 2 -->
      <rect x="218" y="47" width="100" height="6" rx="3" fill="#dcc8a8"/>

      <!-- Step 3: Alternate Method -->
      <circle cx="350" cy="50" r="18" class="step-pending"/>
      <text x="350" y="56" text-anchor="middle" fill="#fff" font-size="14" font-weight="bold">3</text>
      <text x="350" y="85" text-anchor="middle" class="text-sm">Alt Method</text>

      <!-- Connector 3 -->
      <rect x="368" y="47" width="100" height="6" rx="3" fill="#dcc8a8"/>

      <!-- Step 4: Support -->
      <circle cx="500" cy="50" r="18" class="step-pending"/>
      <text x="500" y="56" text-anchor="middle" fill="#fff" font-size="14" font-weight="bold">4</text>
      <text x="500" y="85" text-anchor="middle" class="text-sm">Support</text>
    </g>

    <!-- Current Step Detail Panel -->
    <g transform="translate(60, 225)">
      <text x="0" y="16" class="annotation">STEP 2: UPDATE CARD (CURRENT)</text>
      <rect y="25" width="560" height="250" rx="8" fill="#f5f0e6" stroke="#8b5cf6" stroke-width="2"/>

      <!-- Step header -->
      <rect x="15" y="40" width="530" height="50" rx="6" fill="#8b5cf6" opacity="0.1"/>
      <text x="30" y="65" class="heading">Step 2: Update Your Payment Card</text>
      <text x="30" y="82" class="text-sm">Your card was declined. Try updating to a new card.</text>

      <!-- Current card display -->
      <g transform="translate(15, 105)">
        <rect width="250" height="60" rx="6" fill="#dcc8a8"/>
        <text x="15" y="20" class="text-muted">Current Card (Declined)</text>
        <text x="15" y="42" class="text-md">Visa •••• 4242</text>
        <text x="180" y="42" class="text-sm">Exp: 12/25</text>
      </g>

      <!-- New card form -->
      <g transform="translate(15, 175)">
        <text x="0" y="16" class="text-muted">Enter New Card Details</text>
        <rect y="25" width="320" height="36" rx="6" fill="#fff" stroke="#b8a080" stroke-width="1"/>
        <text x="15" y="50" class="text-sm" fill="#9ca3af">Card Number</text>

        <rect x="335" y="25" width="90" height="36" rx="6" fill="#fff" stroke="#b8a080" stroke-width="1"/>
        <text x="350" y="50" class="text-sm" fill="#9ca3af">MM/YY</text>

        <rect x="440" y="25" width="70" height="36" rx="6" fill="#fff" stroke="#b8a080" stroke-width="1"/>
        <text x="455" y="50" class="text-sm" fill="#9ca3af">CVC</text>
      </g>

      <!-- Action buttons -->
      <rect x="15" y="235" width="160" height="40" rx="6" fill="#8b5cf6"/>
      <text x="95" y="261" text-anchor="middle" fill="#fff" font-size="14" font-weight="600">Save &amp; Retry</text>

      <rect x="190" y="235" width="120" height="40" rx="6" fill="none" stroke="#8b5cf6" stroke-width="2"/>
      <text x="250" y="261" text-anchor="middle" fill="#8b5cf6" font-size="14" font-weight="600">Skip Step</text>
    </g>

    <!-- Resolution Priority Panel -->
    <g transform="translate(640, 225)">
      <text x="0" y="16" class="annotation">RESOLUTION PRIORITY (FR-017)</text>
      <rect y="25" width="280" height="250" rx="8" fill="#f5f0e6" stroke="#b8a080" stroke-width="1"/>

      <text x="15" y="55" class="heading">Resolution Order</text>
      <text x="15" y="75" class="text-muted">Sorted by likelihood of success</text>

      <!-- Priority list -->
      <g transform="translate(15, 90)">
        <!-- Item 1 - Completed -->
        <rect width="250" height="36" rx="6" fill="#f0fdf4" stroke="#86efac" stroke-width="1"/>
        <text x="15" y="23" class="text-sm" fill="#166534">✓ 1. Retry Payment</text>
        <text x="220" y="23" class="text-muted">Done</text>
      </g>

      <g transform="translate(15, 135)">
        <!-- Item 2 - Active -->
        <rect width="250" height="36" rx="6" fill="#8b5cf6" opacity="0.2" stroke="#8b5cf6" stroke-width="2"/>
        <text x="15" y="23" class="text-md">→ 2. Update Card</text>
        <text x="200" y="23" class="text-muted" fill="#8b5cf6">Active</text>
      </g>

      <g transform="translate(15, 180)">
        <!-- Item 3 - Pending -->
        <rect width="250" height="36" rx="6" fill="#dcc8a8"/>
        <text x="15" y="23" class="text-sm">3. Try Alternate Method</text>
      </g>

      <g transform="translate(15, 225)">
        <!-- Item 4 - Pending -->
        <rect width="250" height="36" rx="6" fill="#dcc8a8"/>
        <text x="15" y="23" class="text-sm">4. Contact Support</text>
      </g>
    </g>

    <!-- Escalation Path (Final Step) -->
    <g transform="translate(60, 500)">
      <text x="0" y="16" class="annotation">STEP 4: SUPPORT ESCALATION (FR-019)</text>
      <rect y="25" width="860" height="180" rx="8" fill="#f5f0e6" stroke="#b8a080" stroke-width="1"/>

      <!-- Exhausted message -->
      <rect x="15" y="40" width="830" height="50" rx="6" fill="#fef2f2" stroke="#fca5a5" stroke-width="1"/>
      <text x="30" y="62" class="heading" fill="#dc2626">All Automated Options Exhausted</text>
      <text x="30" y="82" class="text-sm">We couldn't process your payment. Please contact support for assistance.</text>

      <!-- Support options -->
      <g transform="translate(15, 105)">
        <rect width="200" height="80" rx="6" fill="#dcc8a8"/>
        <text x="15" y="25" class="text-muted">Live Chat</text>
        <text x="15" y="48" class="text-md">Available Now</text>
        <rect x="15" y="55" width="80" height="20" rx="4" fill="#22c55e"/>
        <text x="55" y="69" text-anchor="middle" fill="#fff" font-size="10" font-weight="600">Online</text>
      </g>

      <g transform="translate(230, 105)">
        <rect width="200" height="80" rx="6" fill="#dcc8a8"/>
        <text x="15" y="25" class="text-muted">Email Support</text>
        <text x="15" y="48" class="text-md">24-48 hour response</text>
        <text x="15" y="68" class="text-sm" fill="#6d28d9">support@example.com</text>
      </g>

      <g transform="translate(445, 105)">
        <rect width="200" height="80" rx="6" fill="#dcc8a8"/>
        <text x="15" y="25" class="text-muted">Phone Support</text>
        <text x="15" y="48" class="text-md">Mon-Fri 9AM-5PM</text>
        <text x="15" y="68" class="text-sm">1-800-EXAMPLE</text>
      </g>

      <g transform="translate(660, 105)">
        <rect width="200" height="80" rx="6" fill="#dcc8a8"/>
        <text x="15" y="25" class="text-muted">Transaction Info</text>
        <text x="15" y="48" class="text-sm" font-family="monospace">TXN-2026-0101</text>
        <rect x="15" y="55" width="60" height="20" rx="4" fill="#8b5cf6"/>
        <text x="45" y="69" text-anchor="middle" fill="#fff" font-size="10" font-weight="600">Copy</text>
      </g>
    </g>
  </g>

  <!-- MOBILE SECTION -->
  <text x="980" y="52" class="label-mobile">MOBILE — WIZARD STEP</text>

  <g id="mobile-view" transform="translate(980, 60)">
    <!-- Phone frame -->
    <rect x="0" y="0" width="360" height="700" rx="24" fill="#c8b898" stroke="#a08860" stroke-width="2"/>
    <rect x="10" y="10" width="340" height="680" rx="16" fill="#e8d4b8"/>

    <!-- Status bar -->
    <rect x="10" y="10" width="340" height="28" rx="16" fill="#dcc8a8"/>
    <text x="30" y="28" class="text-sm">9:41</text>
    <text x="310" y="28" class="text-sm">📶 🔋</text>

    <!-- Header with back -->
    <rect x="20" y="48" width="320" height="44" rx="8" fill="#dcc8a8"/>
    <text x="40" y="76" class="heading">← Recovery Wizard</text>

    <!-- Progress dots -->
    <g transform="translate(20, 105)">
      <circle cx="70" cy="12" r="8" fill="#22c55e"/>
      <text x="70" y="16" text-anchor="middle" fill="#fff" font-size="10">✓</text>

      <rect x="78" y="10" width="35" height="4" rx="2" fill="#22c55e"/>

      <circle cx="130" cy="12" r="8" fill="#8b5cf6"/>
      <text x="130" y="16" text-anchor="middle" fill="#fff" font-size="10">2</text>

      <rect x="138" y="10" width="35" height="4" rx="2" fill="#dcc8a8"/>

      <circle cx="190" cy="12" r="8" fill="#9ca3af"/>
      <text x="190" y="16" text-anchor="middle" fill="#fff" font-size="10">3</text>

      <rect x="198" y="10" width="35" height="4" rx="2" fill="#dcc8a8"/>

      <circle cx="250" cy="12" r="8" fill="#9ca3af"/>
      <text x="250" y="16" text-anchor="middle" fill="#fff" font-size="10">4</text>
    </g>

    <!-- Step title -->
    <g transform="translate(20, 140)">
      <text x="0" y="16" class="text-muted">Step 2 of 4</text>
      <text x="0" y="40" class="heading">Update Your Card</text>
      <text x="0" y="60" class="text-sm">Your card was declined. Enter new card details.</text>
    </g>

    <!-- Current card -->
    <g transform="translate(20, 215)">
      <rect width="320" height="55" rx="8" fill="#fef2f2" stroke="#fca5a5" stroke-width="1"/>
      <text x="15" y="22" class="text-muted">Current Card (Declined)</text>
      <text x="15" y="42" class="text-md">Visa •••• 4242  |  Exp: 12/25</text>
    </g>

    <!-- New card form -->
    <g transform="translate(20, 285)">
      <text x="0" y="16" class="text-muted">New Card Number</text>
      <rect y="22" width="320" height="40" rx="6" fill="#fff" stroke="#b8a080" stroke-width="1"/>
      <text x="15" y="48" class="text-sm" fill="#9ca3af">1234 5678 9012 3456</text>

      <g transform="translate(0, 75)">
        <text x="0" y="16" class="text-muted">Expiry</text>
        <rect y="22" width="150" height="40" rx="6" fill="#fff" stroke="#b8a080" stroke-width="1"/>
        <text x="15" y="48" class="text-sm" fill="#9ca3af">MM/YY</text>
      </g>

      <g transform="translate(170, 75)">
        <text x="0" y="16" class="text-muted">CVC</text>
        <rect y="22" width="150" height="40" rx="6" fill="#fff" stroke="#b8a080" stroke-width="1"/>
        <text x="15" y="48" class="text-sm" fill="#9ca3af">123</text>
      </g>
    </g>

    <!-- Actions -->
    <g transform="translate(20, 445)">
      <rect width="320" height="48" rx="8" fill="#8b5cf6"/>
      <text x="160" y="30" text-anchor="middle" fill="#fff" font-size="14" font-weight="600">Save &amp; Retry Payment</text>
    </g>

    <g transform="translate(20, 505)">
      <rect width="320" height="44" rx="8" fill="none" stroke="#8b5cf6" stroke-width="2"/>
      <text x="160" y="28" text-anchor="middle" fill="#8b5cf6" font-size="14" font-weight="600">Skip to Next Step</text>
    </g>

    <!-- Help text -->
    <g transform="translate(20, 570)">
      <rect width="320" height="60" rx="8" fill="#f0f9ff" stroke="#7dd3fc" stroke-width="1"/>
      <text x="160" y="22" text-anchor="middle" class="text-muted">Why am I seeing this?</text>
      <text x="160" y="42" text-anchor="middle" class="text-sm">Your bank declined the transaction.</text>
    </g>

    <!-- Bottom nav hint -->
    <rect x="130" y="660" width="100" height="5" rx="2" fill="#b8a080"/>
  </g>

  <!-- Annotations -->
  <g id="leader-lines">
    <line x1="940" y1="300" x2="980" y2="300" stroke="#8b5cf6" stroke-width="1" stroke-dasharray="4,2"/>
  </g>
</svg>