<svg xmlns="http://www.w3.org/2000/svg" viewBox="0 0 1400 800" width="1400" height="800">
  <!-- ============================================================
       GENERATED BY: /wireframe skill
       SOURCE: features/integrations/025-blog-social-features/spec.md
       DATE: 2025-12-31
       DO NOT MANUALLY EDIT - Regenerate with /wireframe command
       ============================================================ -->
  <defs>
    <linearGradient id="bgGrad" x1="0%" y1="0%" x2="100%" y2="100%">
      <stop offset="0%" style="stop-color:#0f172a"/>
      <stop offset="100%" style="stop-color:#1e293b"/>
    </linearGradient>
    <linearGradient id="accentGrad" x1="0%" y1="0%" x2="100%" y2="0%">
      <stop offset="0%" style="stop-color:#8b5cf6"/>
      <stop offset="100%" style="stop-color:#d946ef"/>
    </linearGradient>
    <style>
      .heading-lg { fill: #ffffff; font-family: system-ui, sans-serif; font-size: 20px; font-weight: bold; }
      .heading { fill: #ffffff; font-family: system-ui, sans-serif; font-size: 14px; font-weight: bold; }
      .text-md { fill: #cbd5e1; font-family: system-ui, sans-serif; font-size: 12px; }
      .text-sm { fill: #94a3b8; font-family: system-ui, sans-serif; font-size: 10px; }
      .text-muted { fill: #64748b; font-family: system-ui, sans-serif; font-size: 10px; }
      .annotation { fill: #8b5cf6; font-family: monospace; font-size: 10px; }
      .label-desktop { fill: #8b5cf6; font-family: monospace; font-size: 11px; font-weight: bold; }
      .label-mobile { fill: #d946ef; font-family: monospace; font-size: 11px; font-weight: bold; }
    </style>
  </defs>

  <!-- Background -->
  <rect width="1400" height="800" fill="url(#bgGrad)"/>

  <!-- Dot grid pattern -->
  <g opacity="0.05">
    <pattern id="dots" width="30" height="30" patternUnits="userSpaceOnUse">
      <circle cx="15" cy="15" r="1" fill="#fff"/>
    </pattern>
    <rect width="1400" height="800" fill="url(#dots)"/>
  </g>

  <!-- Accent line top -->
  <rect x="0" y="0" width="1400" height="3" fill="url(#accentGrad)"/>

  <!-- Title -->
  <text x="700" y="28" text-anchor="middle" font-family="system-ui, sans-serif" font-size="14" font-weight="600" fill="#64748b" letter-spacing="1">BLOG POST WITH SOCIAL SHARING &amp; AUTHOR PROFILE</text>

  <!-- DESKTOP SECTION -->
  <text x="40" y="52" class="label-desktop">DESKTOP</text>

  <!-- Desktop Header -->
  <rect x="40" y="60" width="900" height="50" rx="8" fill="#1e293b" stroke="#475569" stroke-width="1"/>
  <text x="60" y="90" class="heading">ScriptHammer Blog</text>
  <rect x="780" y="75" width="60" height="24" rx="4" fill="#334155"/>
  <text x="810" y="91" text-anchor="middle" class="text-sm">Login</text>
  <rect x="850" y="75" width="80" height="24" rx="4" fill="#8b5cf6"/>
  <text x="890" y="91" text-anchor="middle" fill="#fff" font-family="system-ui" font-size="11">Subscribe</text>

  <!-- Desktop Main Content -->
  <rect x="140" y="120" width="600" height="620" rx="8" fill="#1e293b" stroke="#475569" stroke-width="1"/>

  <!-- Featured Image -->
  <rect x="160" y="140" width="560" height="160" rx="6" fill="#334155"/>
  <text x="440" y="225" text-anchor="middle" class="text-muted">Featured Image (og:image source)</text>

  <!-- Post Title -->
  <text x="160" y="330" class="heading-lg">Building Accessible React Components</text>

  <!-- Post Meta -->
  <text x="160" y="355" class="text-sm">December 31, 2025 • 8 min read</text>

  <!-- Share Buttons Row -->
  <g id="share-buttons-desktop">
    <rect x="160" y="375" width="560" height="50" rx="6" fill="#0f172a" stroke="#475569" stroke-width="1"/>
    <text x="180" y="400" class="text-sm">Share:</text>

    <!-- Twitter/X -->
    <rect x="225" y="385" width="44" height="30" rx="6" fill="#334155" stroke="#475569" stroke-width="1"/>
    <text x="247" y="405" text-anchor="middle" class="text-sm">𝕏</text>

    <!-- LinkedIn -->
    <rect x="279" y="385" width="44" height="30" rx="6" fill="#334155" stroke="#475569" stroke-width="1"/>
    <text x="301" y="405" text-anchor="middle" class="text-sm">in</text>

    <!-- Facebook -->
    <rect x="333" y="385" width="44" height="30" rx="6" fill="#334155" stroke="#475569" stroke-width="1"/>
    <text x="355" y="405" text-anchor="middle" class="text-sm">f</text>

    <!-- Reddit -->
    <rect x="387" y="385" width="44" height="30" rx="6" fill="#334155" stroke="#475569" stroke-width="1"/>
    <text x="409" y="405" text-anchor="middle" class="text-sm">▲</text>

    <!-- Email -->
    <rect x="441" y="385" width="44" height="30" rx="6" fill="#334155" stroke="#475569" stroke-width="1"/>
    <text x="463" y="405" text-anchor="middle" class="text-sm">✉</text>

    <!-- Copy Link -->
    <rect x="495" y="385" width="80" height="30" rx="6" fill="#334155" stroke="#8b5cf6" stroke-width="1"/>
    <text x="535" y="405" text-anchor="middle" class="annotation">Copy Link</text>
  </g>

  <!-- Post Content -->
  <rect x="160" y="440" width="560" height="12" rx="2" fill="#475569"/>
  <rect x="160" y="460" width="520" height="12" rx="2" fill="#475569"/>
  <rect x="160" y="480" width="540" height="12" rx="2" fill="#475569"/>
  <rect x="160" y="500" width="480" height="12" rx="2" fill="#475569"/>
  <rect x="160" y="520" width="560" height="12" rx="2" fill="#475569"/>
  <rect x="160" y="540" width="400" height="12" rx="2" fill="#475569"/>

  <!-- Author Section -->
  <g id="author-section-desktop">
    <rect x="160" y="580" width="560" height="140" rx="8" fill="#0f172a" stroke="#8b5cf6" stroke-width="1"/>

    <!-- Author Avatar -->
    <circle cx="210" cy="650" r="40" fill="#334155" stroke="#8b5cf6" stroke-width="2"/>
    <text x="210" y="655" text-anchor="middle" fill="#8b5cf6" font-family="system-ui" font-size="18" font-weight="bold">JD</text>

    <!-- Author Info -->
    <text x="270" y="615" class="heading">Jane Developer</text>
    <text x="270" y="635" class="text-sm">Senior Frontend Engineer @ TechCorp</text>
    <rect x="270" y="650" width="400" height="24" rx="2" fill="transparent"/>
    <text x="270" y="665" class="text-muted">Passionate about accessibility, React, and building inclusive web experiences.</text>
    <text x="270" y="680" class="text-muted">Writing about frontend best practices since 2020.</text>

    <!-- Author Social Links -->
    <g id="author-social-links">
      <rect x="270" y="695" width="32" height="20" rx="4" fill="#334155"/>
      <text x="286" y="709" text-anchor="middle" class="text-sm">𝕏</text>

      <rect x="310" y="695" width="32" height="20" rx="4" fill="#334155"/>
      <text x="326" y="709" text-anchor="middle" class="text-sm">in</text>

      <rect x="350" y="695" width="32" height="20" rx="4" fill="#334155"/>
      <text x="366" y="709" text-anchor="middle" class="text-sm">GH</text>

      <rect x="390" y="695" width="50" height="20" rx="4" fill="#334155"/>
      <text x="415" y="709" text-anchor="middle" class="text-sm">Web</text>
    </g>
  </g>

  <!-- Desktop Annotations -->
  <g class="annotation-box">
    <rect x="760" y="375" width="120" height="50" rx="4" fill="#1e293b" stroke="#8b5cf6" stroke-width="1"/>
    <text x="820" y="395" text-anchor="middle" class="annotation">FR-001-005</text>
    <text x="820" y="410" text-anchor="middle" class="text-muted">Share buttons</text>
    <text x="820" y="422" text-anchor="middle" class="text-muted">44x44 touch targets</text>
  </g>

  <g class="annotation-box">
    <rect x="760" y="580" width="120" height="60" rx="4" fill="#1e293b" stroke="#8b5cf6" stroke-width="1"/>
    <text x="820" y="600" text-anchor="middle" class="annotation">FR-010-015</text>
    <text x="820" y="615" text-anchor="middle" class="text-muted">Author profile</text>
    <text x="820" y="627" text-anchor="middle" class="text-muted">Avatar + bio</text>
    <text x="820" y="639" text-anchor="middle" class="text-muted">Social links</text>
  </g>

  <!-- MOBILE SECTION -->
  <text x="980" y="52" class="label-mobile">MOBILE</text>
  <g id="mobile-view" transform="translate(980, 60)">
    <!-- Phone frame -->
    <rect x="0" y="0" width="360" height="700" rx="24" fill="#1e293b" stroke="#475569" stroke-width="2"/>
    <rect x="10" y="10" width="340" height="680" rx="16" fill="#0f172a"/>

    <!-- Status bar -->
    <rect x="10" y="10" width="340" height="28" rx="16" fill="#1e293b"/>
    <text x="30" y="28" class="text-sm">9:41</text>
    <text x="320" y="28" text-anchor="end" class="text-sm">📶 🔋</text>

    <!-- Mobile Header -->
    <rect x="20" y="48" width="320" height="40" rx="6" fill="#1e293b"/>
    <text x="40" y="73" fill="#fff" font-family="system-ui" font-size="12" font-weight="bold">ScriptHammer</text>
    <rect x="290" y="58" width="40" height="20" rx="4" fill="#8b5cf6"/>
    <text x="310" y="72" text-anchor="middle" fill="#fff" font-family="system-ui" font-size="9">Menu</text>

    <!-- Featured Image Mobile -->
    <rect x="20" y="98" width="320" height="100" rx="6" fill="#334155"/>
    <text x="180" y="153" text-anchor="middle" class="text-muted">Featured Image</text>

    <!-- Title Mobile -->
    <text x="20" y="220" fill="#fff" font-family="system-ui" font-size="14" font-weight="bold">Building Accessible</text>
    <text x="20" y="238" fill="#fff" font-family="system-ui" font-size="14" font-weight="bold">React Components</text>

    <!-- Meta Mobile -->
    <text x="20" y="260" class="text-muted">Dec 31, 2025 • 8 min read</text>

    <!-- Share Buttons Mobile (Horizontal scroll) -->
    <rect x="20" y="275" width="320" height="45" rx="6" fill="#1e293b" stroke="#475569" stroke-width="1"/>
    <text x="35" y="295" class="text-sm">Share:</text>

    <rect x="75" y="285" width="40" height="28" rx="6" fill="#334155"/>
    <text x="95" y="303" text-anchor="middle" class="text-sm">𝕏</text>

    <rect x="120" y="285" width="40" height="28" rx="6" fill="#334155"/>
    <text x="140" y="303" text-anchor="middle" class="text-sm">in</text>

    <rect x="165" y="285" width="40" height="28" rx="6" fill="#334155"/>
    <text x="185" y="303" text-anchor="middle" class="text-sm">f</text>

    <rect x="210" y="285" width="40" height="28" rx="6" fill="#334155"/>
    <text x="230" y="303" text-anchor="middle" class="text-sm">▲</text>

    <rect x="255" y="285" width="40" height="28" rx="6" fill="#334155"/>
    <text x="275" y="303" text-anchor="middle" class="text-sm">✉</text>

    <rect x="300" y="285" width="35" height="28" rx="6" fill="#334155" stroke="#8b5cf6" stroke-width="1"/>
    <text x="317" y="303" text-anchor="middle" class="text-sm">🔗</text>

    <!-- Content Mobile -->
    <rect x="20" y="335" width="320" height="10" rx="2" fill="#475569"/>
    <rect x="20" y="350" width="290" height="10" rx="2" fill="#475569"/>
    <rect x="20" y="365" width="310" height="10" rx="2" fill="#475569"/>
    <rect x="20" y="380" width="260" height="10" rx="2" fill="#475569"/>
    <rect x="20" y="395" width="300" height="10" rx="2" fill="#475569"/>

    <!-- Author Section Mobile -->
    <rect x="20" y="430" width="320" height="130" rx="8" fill="#1e293b" stroke="#8b5cf6" stroke-width="1"/>

    <!-- Author Avatar Mobile -->
    <circle cx="55" cy="480" r="25" fill="#334155" stroke="#8b5cf6" stroke-width="2"/>
    <text x="55" y="485" text-anchor="middle" fill="#8b5cf6" font-family="system-ui" font-size="14" font-weight="bold">JD</text>

    <!-- Author Info Mobile -->
    <text x="90" y="462" fill="#fff" font-family="system-ui" font-size="12" font-weight="bold">Jane Developer</text>
    <text x="90" y="478" class="text-muted">Sr. Frontend Engineer</text>
    <text x="90" y="494" class="text-muted">Accessibility &amp; React</text>

    <!-- Author Social Mobile -->
    <rect x="90" y="510" width="28" height="20" rx="4" fill="#334155"/>
    <text x="104" y="524" text-anchor="middle" class="text-sm">𝕏</text>

    <rect x="123" y="510" width="28" height="20" rx="4" fill="#334155"/>
    <text x="137" y="524" text-anchor="middle" class="text-sm">in</text>

    <rect x="156" y="510" width="28" height="20" rx="4" fill="#334155"/>
    <text x="170" y="524" text-anchor="middle" class="text-sm">GH</text>

    <!-- Read More Posts -->
    <rect x="20" y="575" width="320" height="100" rx="6" fill="#1e293b" stroke="#475569" stroke-width="1"/>
    <text x="35" y="598" fill="#fff" font-family="system-ui" font-size="11" font-weight="bold">More from Jane</text>

    <rect x="30" y="610" width="300" height="25" rx="4" fill="#334155"/>
    <text x="45" y="627" class="text-sm">Understanding ARIA Labels</text>

    <rect x="30" y="640" width="300" height="25" rx="4" fill="#334155"/>
    <text x="45" y="657" class="text-sm">CSS Grid for Layouts</text>
  </g>

  <!-- Legend -->
  <rect x="40" y="750" width="200" height="35" rx="4" fill="#1e293b" stroke="#475569" stroke-width="1"/>
  <circle cx="55" cy="767" r="6" fill="#22c55e"/>
  <text x="70" y="771" class="text-sm">ARIA labeled</text>
  <rect x="130" y="761" width="12" height="12" rx="2" fill="transparent" stroke="#8b5cf6" stroke-width="2"/>
  <text x="150" y="771" class="text-sm">Focus visible</text>

  <!-- Leader lines -->
  <g id="leader-lines">
    <line x1="760" y1="400" x2="575" y2="400" stroke="#8b5cf6" stroke-width="1" stroke-dasharray="4,2"/>
    <line x1="760" y1="620" x2="720" y2="650" stroke="#8b5cf6" stroke-width="1" stroke-dasharray="4,2"/>
  </g>
</svg>
