<svg xmlns="http://www.w3.org/2000/svg" viewBox="0 0 1400 800" width="1400" height="800">
  <!-- ============================================================
       GENERATED BY: /wireframe skill
       SOURCE: features/integrations/025-blog-social-features/spec.md
       DATE: 2026-01-01
       THEME: Light (UX/Frontend) - v3 True Parchment
       DO NOT MANUALLY EDIT - Regenerate with /wireframe command
       ============================================================ -->
  <defs>
    <linearGradient id="bgGrad" x1="0%" y1="0%" x2="100%" y2="100%">
      <stop offset="0%" style="stop-color:#c7ddf5"/>
      <stop offset="100%" style="stop-color:#b8d4f0"/>
    </linearGradient>
    <linearGradient id="accentGrad" x1="0%" y1="0%" x2="100%" y2="0%">
      <stop offset="0%" style="stop-color:#8b5cf6"/>
      <stop offset="100%" style="stop-color:#d946ef"/>
    </linearGradient>
    <style>
      .heading-lg { fill: #1a1a2e; font-family: system-ui, sans-serif; font-size: 24px; font-weight: 800; }
      .heading { fill: #1a1a2e; font-family: system-ui, sans-serif; font-size: 16px; font-weight: 700; }
      .text-md { fill: #2d3748; font-family: system-ui, sans-serif; font-size: 14px; font-weight: 500; }
      .text-sm { fill: #374151; font-family: system-ui, sans-serif; font-size: 12px; font-weight: 500; }
      .text-muted { fill: #4b5563; font-family: system-ui, sans-serif; font-size: 11px; font-weight: 500; }
      .annotation { fill: #6d28d9; font-family: monospace; font-size: 12px; font-weight: 600; }
      .label-desktop { fill: #8b5cf6; font-family: monospace; font-size: 13px; font-weight: bold; }
      .label-mobile { fill: #d946ef; font-family: monospace; font-size: 13px; font-weight: bold; }
    </style>
  </defs>

  <!-- Background -->
  <rect width="1400" height="800" fill="url(#bgGrad)"/>

  <!-- Dot grid pattern -->
  <g opacity="0.35">
    <pattern id="dots" width="30" height="30" patternUnits="userSpaceOnUse">
      <circle cx="15" cy="15" r="1" fill="#6b8cba"/>
    </pattern>
    <rect width="1400" height="800" fill="url(#dots)"/>
  </g>

  <!-- Accent line top -->
  <rect x="0" y="0" width="1400" height="3" fill="url(#accentGrad)"/>

  <!-- Title -->
  <text x="700" y="28" text-anchor="middle" font-family="system-ui, sans-serif" font-size="14" font-weight="600" fill="#4b5563" letter-spacing="1">025 - BLOG SOCIAL FEATURES - SHARE BUTTONS</text>

  <!-- DESKTOP SECTION -->
  <text x="40" y="52" class="label-desktop">DESKTOP</text>
  <g id="desktop-view">
    <!-- Blog post container -->
    <rect x="40" y="60" width="900" height="700" rx="12" fill="#e8d4b8" stroke="#b8a080" stroke-width="2"/>

    <!-- Post header -->
    <rect x="50" y="70" width="880" height="80" rx="8" fill="#dcc8a8"/>
    <text x="70" y="105" class="heading-lg">How to Build Accessible Web Apps</text>
    <text x="70" y="130" class="text-sm">Published: January 1, 2026 • 8 min read</text>

    <!-- Post content preview -->
    <rect x="50" y="160" width="880" height="200" rx="8" fill="#f5f0e6" stroke="#b8a080" stroke-width="1"/>
    <text x="70" y="190" class="text-md">Building accessible web applications is not just about compliance—</text>
    <text x="70" y="210" class="text-md">it's about creating inclusive experiences for everyone...</text>
    <text x="70" y="250" class="text-muted">[Blog post content continues...]</text>

    <!-- Share section -->
    <rect x="50" y="380" width="880" height="160" rx="8" fill="#f5f0e6" stroke="#8b5cf6" stroke-width="2"/>
    <text x="70" y="410" class="heading">Share this post</text>

    <!-- Share buttons row -->
    <g transform="translate(70, 430)">
      <!-- Twitter/X -->
      <g>
        <rect x="0" y="0" width="100" height="44" rx="8" fill="#1da1f2" stroke="#1a8cd8" stroke-width="1"/>
        <text x="50" y="17" text-anchor="middle" font-size="18" fill="#fff">𝕏</text>
        <text x="50" y="35" text-anchor="middle" class="text-sm" fill="#fff">Twitter</text>
      </g>

      <!-- LinkedIn -->
      <g transform="translate(120, 0)">
        <rect x="0" y="0" width="100" height="44" rx="8" fill="#0077b5" stroke="#006097" stroke-width="1"/>
        <text x="50" y="17" text-anchor="middle" font-size="16" fill="#fff">in</text>
        <text x="50" y="35" text-anchor="middle" class="text-sm" fill="#fff">LinkedIn</text>
      </g>

      <!-- Facebook -->
      <g transform="translate(240, 0)">
        <rect x="0" y="0" width="100" height="44" rx="8" fill="#1877f2" stroke="#1565c0" stroke-width="1"/>
        <text x="50" y="17" text-anchor="middle" font-size="18" fill="#fff">f</text>
        <text x="50" y="35" text-anchor="middle" class="text-sm" fill="#fff">Facebook</text>
      </g>

      <!-- Reddit -->
      <g transform="translate(360, 0)">
        <rect x="0" y="0" width="100" height="44" rx="8" fill="#ff4500" stroke="#e03d00" stroke-width="1"/>
        <text x="50" y="26" text-anchor="middle" font-size="14" fill="#fff">Reddit</text>
      </g>

      <!-- Email -->
      <g transform="translate(480, 0)">
        <rect x="0" y="0" width="100" height="44" rx="8" fill="#8b5cf6" stroke="#7c3aed" stroke-width="1"/>
        <text x="50" y="17" text-anchor="middle" font-size="16" fill="#fff">✉</text>
        <text x="50" y="35" text-anchor="middle" class="text-sm" fill="#fff">Email</text>
      </g>

      <!-- Copy Link -->
      <g transform="translate(600, 0)">
        <rect x="0" y="0" width="100" height="44" rx="8" fill="#dcc8a8" stroke="#b8a080" stroke-width="1"/>
        <text x="50" y="17" text-anchor="middle" font-size="14" fill="#2d3748">🔗</text>
        <text x="50" y="35" text-anchor="middle" class="text-sm">Copy Link</text>
      </g>
    </g>

    <!-- Accessibility note -->
    <text x="70" y="510" class="text-muted">All buttons: ARIA labels, 44px min touch target, keyboard focusable</text>
    <text x="70" y="525" class="text-muted">FR-022, FR-023, FR-024</text>

    <!-- Keyboard focus state example -->
    <g transform="translate(50, 550)">
      <rect x="0" y="0" width="400" height="100" rx="8" fill="#dcc8a8" stroke="#b8a080" stroke-width="1"/>
      <text x="20" y="25" class="heading">Accessibility States</text>

      <!-- Default -->
      <g transform="translate(20, 40)">
        <rect x="0" y="0" width="60" height="44" rx="8" fill="#1da1f2"/>
        <text x="30" y="26" text-anchor="middle" class="text-sm" fill="#fff">Default</text>
      </g>

      <!-- Hover -->
      <g transform="translate(100, 40)">
        <rect x="0" y="0" width="60" height="44" rx="8" fill="#1a8cd8"/>
        <text x="30" y="26" text-anchor="middle" class="text-sm" fill="#fff">Hover</text>
      </g>

      <!-- Focus -->
      <g transform="translate(180, 40)">
        <rect x="-3" y="-3" width="66" height="50" rx="10" fill="none" stroke="#8b5cf6" stroke-width="3"/>
        <rect x="0" y="0" width="60" height="44" rx="8" fill="#1da1f2"/>
        <text x="30" y="26" text-anchor="middle" class="text-sm" fill="#fff">Focus</text>
      </g>

      <!-- Active -->
      <g transform="translate(270, 40)">
        <rect x="0" y="0" width="60" height="44" rx="8" fill="#0d8ecf" stroke="#1da1f2" stroke-width="2"/>
        <text x="30" y="26" text-anchor="middle" class="text-sm" fill="#fff">Active</text>
      </g>
    </g>

    <!-- No JS fallback -->
    <g transform="translate(470, 550)">
      <rect x="0" y="0" width="460" height="100" rx="8" fill="#fef3c7" stroke="#eab308" stroke-width="1"/>
      <text x="20" y="25" class="heading" fill="#d97706">JavaScript Disabled Fallback</text>
      <text x="20" y="50" class="text-sm">Share buttons become direct links to platform share URLs</text>
      <text x="20" y="70" class="text-sm">"Copy Link" shows text input with URL for manual copy</text>
      <text x="20" y="90" class="text-muted">FR-005: Fallback copy-link functionality</text>
    </g>

    <!-- Requirements reference -->
    <rect x="50" y="670" width="880" height="80" rx="8" fill="#dcc8a8"/>
    <text x="70" y="700" class="annotation">REQUIREMENTS</text>
    <text x="70" y="720" class="text-sm">FR-001: Twitter, LinkedIn, Facebook, Reddit buttons</text>
    <text x="380" y="720" class="text-sm">FR-002: Email sharing option</text>
    <text x="600" y="720" class="text-sm">FR-003: Pre-populated share content</text>
    <text x="70" y="740" class="text-sm">FR-004: Native share URLs (no API keys)</text>
    <text x="380" y="740" class="text-sm">FR-016: Platform icons</text>
    <text x="600" y="740" class="text-sm">FR-017: Theme adaptation</text>
  </g>

  <!-- MOBILE SECTION -->
  <text x="980" y="52" class="label-mobile">MOBILE</text>
  <g id="mobile-view" transform="translate(980, 60)">
    <!-- Phone frame -->
    <rect x="0" y="0" width="360" height="700" rx="24" fill="#c8b898" stroke="#a08860" stroke-width="2"/>
    <!-- Screen area -->
    <rect x="10" y="10" width="340" height="680" rx="16" fill="#e8d4b8"/>
    <!-- Status bar -->
    <rect x="10" y="10" width="340" height="28" rx="16" fill="#dcc8a8"/>
    <text x="30" y="28" class="text-sm">9:41</text>
    <text x="330" y="28" text-anchor="end" class="text-sm">100%</text>

    <!-- Post header -->
    <rect x="20" y="48" width="320" height="70" rx="8" fill="#dcc8a8"/>
    <text x="35" y="75" class="heading">How to Build</text>
    <text x="35" y="95" class="heading">Accessible Web Apps</text>
    <text x="35" y="112" class="text-muted">Jan 1, 2026 • 8 min</text>

    <!-- Post content -->
    <rect x="20" y="128" width="320" height="120" rx="8" fill="#f5f0e6"/>
    <text x="35" y="155" class="text-sm">Building accessible web</text>
    <text x="35" y="172" class="text-sm">applications is not just</text>
    <text x="35" y="189" class="text-sm">about compliance—it's</text>
    <text x="35" y="206" class="text-sm">about creating inclusive</text>
    <text x="35" y="223" class="text-sm">experiences for everyone...</text>

    <!-- Share section -->
    <rect x="20" y="258" width="320" height="200" rx="8" fill="#f5f0e6" stroke="#8b5cf6" stroke-width="2"/>
    <text x="35" y="285" class="heading">Share this post</text>

    <!-- Mobile share buttons (2 rows) -->
    <g transform="translate(35, 300)">
      <!-- Row 1 -->
      <g>
        <!-- Twitter -->
        <rect x="0" y="0" width="90" height="44" rx="8" fill="#1da1f2"/>
        <text x="45" y="16" text-anchor="middle" font-size="14" fill="#fff">𝕏</text>
        <text x="45" y="34" text-anchor="middle" font-size="10" fill="#fff">Twitter</text>
      </g>

      <g transform="translate(100, 0)">
        <!-- LinkedIn -->
        <rect x="0" y="0" width="90" height="44" rx="8" fill="#0077b5"/>
        <text x="45" y="16" text-anchor="middle" font-size="14" fill="#fff">in</text>
        <text x="45" y="34" text-anchor="middle" font-size="10" fill="#fff">LinkedIn</text>
      </g>

      <g transform="translate(200, 0)">
        <!-- Facebook -->
        <rect x="0" y="0" width="90" height="44" rx="8" fill="#1877f2"/>
        <text x="45" y="16" text-anchor="middle" font-size="14" fill="#fff">f</text>
        <text x="45" y="34" text-anchor="middle" font-size="10" fill="#fff">Facebook</text>
      </g>
    </g>

    <g transform="translate(35, 354)">
      <!-- Row 2 -->
      <g>
        <!-- Reddit -->
        <rect x="0" y="0" width="90" height="44" rx="8" fill="#ff4500"/>
        <text x="45" y="28" text-anchor="middle" font-size="10" fill="#fff">Reddit</text>
      </g>

      <g transform="translate(100, 0)">
        <!-- Email -->
        <rect x="0" y="0" width="90" height="44" rx="8" fill="#8b5cf6"/>
        <text x="45" y="16" text-anchor="middle" font-size="12" fill="#fff">✉</text>
        <text x="45" y="34" text-anchor="middle" font-size="10" fill="#fff">Email</text>
      </g>

      <g transform="translate(200, 0)">
        <!-- Copy Link -->
        <rect x="0" y="0" width="90" height="44" rx="8" fill="#dcc8a8" stroke="#b8a080" stroke-width="1"/>
        <text x="45" y="16" text-anchor="middle" font-size="12">🔗</text>
        <text x="45" y="34" text-anchor="middle" font-size="10" fill="#374151">Copy</text>
      </g>
    </g>

    <!-- Copy success toast -->
    <rect x="60" y="420" width="220" height="36" rx="18" fill="#22c55e"/>
    <text x="170" y="443" text-anchor="middle" class="text-sm" fill="#fff">✓ Link copied to clipboard</text>

    <!-- Native share option -->
    <rect x="20" y="468" width="320" height="60" rx="8" fill="#dcc8a8"/>
    <text x="35" y="492" class="text-sm">Or use native share:</text>
    <rect x="200" y="478" width="130" height="36" rx="6" fill="#8b5cf6"/>
    <text x="265" y="502" text-anchor="middle" class="text-sm" fill="#fff">Share... ↗</text>

    <!-- A11y note -->
    <rect x="20" y="538" width="320" height="70" rx="8" fill="#dcc8a8"/>
    <text x="35" y="562" class="text-sm">Touch targets: 44×44px min</text>
    <text x="35" y="580" class="text-sm">Screen reader: Platform names</text>
    <text x="35" y="598" class="text-muted">SC-006: WCAG 2.1 AA</text>

    <!-- Dark mode preview -->
    <rect x="20" y="618" width="320" height="60" rx="8" fill="#1e293b"/>
    <text x="35" y="642" class="text-sm" fill="#94a3b8">Dark Mode Preview</text>
    <g transform="translate(35, 650)">
      <rect x="0" y="0" width="44" height="24" rx="6" fill="#1da1f2"/>
      <rect x="54" y="0" width="44" height="24" rx="6" fill="#0077b5"/>
      <rect x="108" y="0" width="44" height="24" rx="6" fill="#1877f2"/>
      <rect x="162" y="0" width="44" height="24" rx="6" fill="#ff4500"/>
      <rect x="216" y="0" width="44" height="24" rx="6" fill="#334155" stroke="#475569" stroke-width="1"/>
    </g>
  </g>
</svg>
