<svg xmlns="http://www.w3.org/2000/svg" viewBox="0 0 1400 800" width="1400" height="800">
  <!-- ============================================================
       GENERATED BY: /wireframe skill
       SOURCE: features/integrations/025-blog-social-features/spec.md
       DATE: 2026-01-01
       THEME: Light (UX/Frontend) - v3 True Parchment
       DO NOT MANUALLY EDIT - Regenerate with /wireframe command
       ============================================================ -->
  <defs>
    <linearGradient id="bgGrad" x1="0%" y1="0%" x2="100%" y2="100%">
      <stop offset="0%" style="stop-color:#c7ddf5"/>
      <stop offset="100%" style="stop-color:#b8d4f0"/>
    </linearGradient>
    <linearGradient id="accentGrad" x1="0%" y1="0%" x2="100%" y2="0%">
      <stop offset="0%" style="stop-color:#8b5cf6"/>
      <stop offset="100%" style="stop-color:#d946ef"/>
    </linearGradient>
    <style>
      .heading-lg { fill: #1a1a2e; font-family: system-ui, sans-serif; font-size: 24px; font-weight: 800; }
      .heading { fill: #1a1a2e; font-family: system-ui, sans-serif; font-size: 16px; font-weight: 700; }
      .text-md { fill: #2d3748; font-family: system-ui, sans-serif; font-size: 14px; font-weight: 500; }
      .text-sm { fill: #374151; font-family: system-ui, sans-serif; font-size: 12px; font-weight: 500; }
      .text-muted { fill: #4b5563; font-family: system-ui, sans-serif; font-size: 11px; font-weight: 500; }
      .annotation { fill: #6d28d9; font-family: monospace; font-size: 12px; font-weight: 600; }
      .label-desktop { fill: #8b5cf6; font-family: monospace; font-size: 13px; font-weight: bold; }
      .label-mobile { fill: #d946ef; font-family: monospace; font-size: 13px; font-weight: bold; }
    </style>
  </defs>

  <!-- Background -->
  <rect width="1400" height="800" fill="url(#bgGrad)"/>

  <!-- Dot grid pattern -->
  <g opacity="0.35">
    <pattern id="dots" width="30" height="30" patternUnits="userSpaceOnUse">
      <circle cx="15" cy="15" r="1" fill="#6b8cba"/>
    </pattern>
    <rect width="1400" height="800" fill="url(#dots)"/>
  </g>

  <!-- Accent line top -->
  <rect x="0" y="0" width="1400" height="3" fill="url(#accentGrad)"/>

  <!-- Title -->
  <text x="700" y="28" text-anchor="middle" font-family="system-ui, sans-serif" font-size="14" font-weight="600" fill="#4b5563" letter-spacing="1">025 - BLOG SOCIAL FEATURES - AUTHOR PROFILE</text>

  <!-- DESKTOP SECTION -->
  <text x="40" y="52" class="label-desktop">DESKTOP</text>
  <g id="desktop-view">
    <!-- Main container -->
    <rect x="40" y="60" width="900" height="700" rx="12" fill="#e8d4b8" stroke="#b8a080" stroke-width="2"/>

    <!-- Post content area (brief) -->
    <rect x="50" y="70" width="880" height="100" rx="8" fill="#f5f0e6" stroke="#b8a080" stroke-width="1"/>
    <text x="70" y="100" class="text-md">[End of blog post content...]</text>
    <text x="70" y="120" class="text-muted">...and that's how you build accessible web applications.</text>

    <!-- Author section - full with avatar -->
    <rect x="50" y="190" width="880" height="200" rx="12" fill="#f5f0e6" stroke="#8b5cf6" stroke-width="2"/>
    <text x="70" y="220" class="heading">About the Author</text>

    <!-- Avatar with image -->
    <circle cx="130" cy="300" r="50" fill="#dcc8a8" stroke="#b8a080" stroke-width="2"/>
    <circle cx="130" cy="300" r="48" fill="#8b5cf6"/>
    <text x="130" y="295" text-anchor="middle" font-size="28" fill="#fff">👤</text>
    <text x="130" y="315" text-anchor="middle" font-size="10" fill="#fff">Photo</text>

    <!-- Author info -->
    <g transform="translate(200, 250)">
      <text x="0" y="0" class="heading-lg">Sarah Chen</text>
      <text x="0" y="28" class="text-md">Senior Accessibility Engineer at TechCorp</text>
      <text x="0" y="55" class="text-sm">Sarah has been building accessible web experiences for over 10 years.</text>
      <text x="0" y="75" class="text-sm">She's passionate about inclusive design and speaks at conferences worldwide.</text>
    </g>

    <!-- Social links -->
    <g transform="translate(200, 340)">
      <text x="0" y="0" class="text-sm">Follow Sarah:</text>

      <!-- Twitter -->
      <g transform="translate(100, -12)">
        <rect x="0" y="0" width="36" height="36" rx="6" fill="#1da1f2"/>
        <text x="18" y="24" text-anchor="middle" font-size="14" fill="#fff">𝕏</text>
      </g>

      <!-- LinkedIn -->
      <g transform="translate(146, -12)">
        <rect x="0" y="0" width="36" height="36" rx="6" fill="#0077b5"/>
        <text x="18" y="24" text-anchor="middle" font-size="14" fill="#fff">in</text>
      </g>

      <!-- GitHub -->
      <g transform="translate(192, -12)">
        <rect x="0" y="0" width="36" height="36" rx="6" fill="#24292e"/>
        <text x="18" y="24" text-anchor="middle" font-size="14" fill="#fff">⌥</text>
      </g>

      <!-- Website -->
      <g transform="translate(238, -12)">
        <rect x="0" y="0" width="36" height="36" rx="6" fill="#8b5cf6"/>
        <text x="18" y="24" text-anchor="middle" font-size="14" fill="#fff">🌐</text>
      </g>

      <text x="290" y="18" class="text-muted">Opens in new tab ↗</text>
    </g>

    <!-- Variant: Author with initials fallback -->
    <rect x="50" y="410" width="420" height="150" rx="12" fill="#f5f0e6" stroke="#b8a080" stroke-width="1"/>
    <text x="70" y="435" class="annotation">VARIANT: NO AVATAR IMAGE</text>

    <!-- Initials avatar -->
    <circle cx="110" cy="495" r="35" fill="#8b5cf6"/>
    <text x="110" y="505" text-anchor="middle" font-size="24" font-weight="bold" fill="#fff">JD</text>

    <g transform="translate(160, 465)">
      <text x="0" y="0" class="heading">John Doe</text>
      <text x="0" y="22" class="text-sm">Frontend Developer</text>
      <text x="0" y="44" class="text-sm">Passionate about web performance</text>
    </g>
    <text x="70" y="550" class="text-muted">FR-018: Initials fallback when no image</text>

    <!-- Variant: No social links -->
    <rect x="490" y="410" width="440" height="150" rx="12" fill="#f5f0e6" stroke="#b8a080" stroke-width="1"/>
    <text x="510" y="435" class="annotation">VARIANT: NO SOCIAL LINKS</text>

    <!-- Avatar -->
    <circle cx="550" cy="495" r="35" fill="#dcc8a8"/>
    <text x="550" y="505" text-anchor="middle" font-size="24">📝</text>

    <g transform="translate(600, 465)">
      <text x="0" y="0" class="heading">Anonymous Author</text>
      <text x="0" y="22" class="text-sm">Contributing Writer</text>
      <text x="0" y="44" class="text-sm">Prefers to keep their online presence private.</text>
    </g>
    <text x="510" y="550" class="text-muted">FR-014: Graceful missing author info | FR-015: Hide social option</text>

    <!-- Author configuration section -->
    <rect x="50" y="580" width="880" height="170" rx="12" fill="#dcc8a8" stroke="#b8a080" stroke-width="1"/>
    <text x="70" y="610" class="heading">Author Profile Configuration (CMS/Settings)</text>

    <g transform="translate(70, 630)">
      <!-- Name field -->
      <text x="0" y="0" class="text-sm">Display Name:</text>
      <rect x="100" y="-15" width="200" height="28" rx="4" fill="#f5f0e6" stroke="#b8a080" stroke-width="1"/>
      <text x="110" y="5" class="text-md">Sarah Chen</text>

      <!-- Bio field -->
      <text x="320" y="0" class="text-sm">Bio:</text>
      <rect x="360" y="-15" width="400" height="28" rx="4" fill="#f5f0e6" stroke="#b8a080" stroke-width="1"/>
      <text x="370" y="5" class="text-md">Senior Accessibility Engineer...</text>
    </g>

    <g transform="translate(70, 670)">
      <!-- Avatar upload -->
      <text x="0" y="0" class="text-sm">Avatar:</text>
      <rect x="100" y="-15" width="100" height="28" rx="4" fill="#8b5cf6"/>
      <text x="150" y="5" text-anchor="middle" class="text-sm" fill="#fff">Upload</text>

      <!-- Social links -->
      <text x="220" y="0" class="text-sm">Social Links:</text>
      <rect x="320" y="-15" width="150" height="28" rx="4" fill="#f5f0e6" stroke="#b8a080" stroke-width="1"/>
      <text x="330" y="5" class="text-sm">@sarahchen</text>

      <text x="480" y="0" class="text-sm">Platform:</text>
      <rect x="540" y="-15" width="100" height="28" rx="4" fill="#f5f0e6" stroke="#b8a080" stroke-width="1"/>
      <text x="550" y="5" class="text-sm">Twitter ▼</text>

      <rect x="660" y="-15" width="80" height="28" rx="4" fill="#22c55e"/>
      <text x="700" y="5" text-anchor="middle" class="text-sm" fill="#fff">+ Add</text>
    </g>

    <g transform="translate(70, 710)">
      <!-- Show/hide toggle -->
      <text x="0" y="0" class="text-sm">Show social links:</text>
      <rect x="120" y="-12" width="44" height="22" rx="11" fill="#22c55e"/>
      <circle cx="152" cy="-1" r="9" fill="#fff"/>

      <text x="180" y="0" class="text-muted">FR-015: Authors can hide social section</text>
    </g>
  </g>

  <!-- MOBILE SECTION -->
  <text x="980" y="52" class="label-mobile">MOBILE</text>
  <g id="mobile-view" transform="translate(980, 60)">
    <!-- Phone frame -->
    <rect x="0" y="0" width="360" height="700" rx="24" fill="#c8b898" stroke="#a08860" stroke-width="2"/>
    <!-- Screen area -->
    <rect x="10" y="10" width="340" height="680" rx="16" fill="#e8d4b8"/>
    <!-- Status bar -->
    <rect x="10" y="10" width="340" height="28" rx="16" fill="#dcc8a8"/>
    <text x="30" y="28" class="text-sm">9:41</text>
    <text x="330" y="28" text-anchor="end" class="text-sm">100%</text>

    <!-- Post end -->
    <rect x="20" y="48" width="320" height="60" rx="8" fill="#f5f0e6"/>
    <text x="35" y="72" class="text-sm">[End of blog post...]</text>
    <text x="35" y="92" class="text-muted">...build accessible apps.</text>

    <!-- Author section (stacked layout) -->
    <rect x="20" y="118" width="320" height="250" rx="12" fill="#f5f0e6" stroke="#8b5cf6" stroke-width="2"/>
    <text x="35" y="145" class="heading">About the Author</text>

    <!-- Centered avatar -->
    <circle cx="180" cy="200" r="40" fill="#8b5cf6"/>
    <text x="180" y="205" text-anchor="middle" font-size="32" fill="#fff">👤</text>

    <!-- Author info (centered) -->
    <text x="180" y="260" text-anchor="middle" class="heading">Sarah Chen</text>
    <text x="180" y="280" text-anchor="middle" class="text-sm">Senior Accessibility Engineer</text>
    <text x="180" y="300" text-anchor="middle" class="text-muted">Passionate about inclusive design</text>

    <!-- Social links (horizontal) -->
    <g transform="translate(90, 320)">
      <rect x="0" y="0" width="44" height="44" rx="8" fill="#1da1f2"/>
      <text x="22" y="28" text-anchor="middle" font-size="18" fill="#fff">𝕏</text>

      <rect x="54" y="0" width="44" height="44" rx="8" fill="#0077b5"/>
      <text x="76" y="28" text-anchor="middle" font-size="16" fill="#fff">in</text>

      <rect x="108" y="0" width="44" height="44" rx="8" fill="#24292e"/>
      <text x="130" y="28" text-anchor="middle" font-size="16" fill="#fff">⌥</text>

      <rect x="162" y="0" width="44" height="44" rx="8" fill="#8b5cf6"/>
      <text x="184" y="28" text-anchor="middle" font-size="16" fill="#fff">🌐</text>
    </g>

    <!-- Variant: Initials -->
    <rect x="20" y="378" width="155" height="140" rx="8" fill="#f5f0e6" stroke="#b8a080" stroke-width="1"/>
    <text x="35" y="398" class="text-muted">Initials fallback</text>
    <circle cx="97" cy="450" r="30" fill="#d946ef"/>
    <text x="97" y="460" text-anchor="middle" font-size="20" font-weight="bold" fill="#fff">JD</text>
    <text x="97" y="495" text-anchor="middle" class="text-sm">John Doe</text>

    <!-- Variant: No social -->
    <rect x="185" y="378" width="155" height="140" rx="8" fill="#f5f0e6" stroke="#b8a080" stroke-width="1"/>
    <text x="200" y="398" class="text-muted">No social links</text>
    <circle cx="262" cy="450" r="30" fill="#dcc8a8"/>
    <text x="262" y="460" text-anchor="middle" font-size="20">📝</text>
    <text x="262" y="495" text-anchor="middle" class="text-sm">Anonymous</text>

    <!-- Requirements note -->
    <rect x="20" y="528" width="320" height="140" rx="8" fill="#dcc8a8"/>
    <text x="35" y="552" class="annotation">REQUIREMENTS</text>
    <text x="35" y="575" class="text-sm">FR-010: Name, bio, avatar</text>
    <text x="35" y="595" class="text-sm">FR-011: Social links when configured</text>
    <text x="35" y="615" class="text-sm">FR-012: Opens in new tab</text>
    <text x="35" y="635" class="text-sm">FR-013: URL validation</text>
    <text x="35" y="655" class="text-sm">FR-014: Graceful missing info</text>
  </g>
</svg>
