<svg xmlns="http://www.w3.org/2000/svg" viewBox="0 0 1400 800" width="1400" height="800">
  <!-- ============================================================
       GENERATED BY: /wireframe skill
       SOURCE: features/integrations/025-blog-social-features/spec.md
       DATE: 2025-12-31
       DO NOT MANUALLY EDIT - Regenerate with /wireframe command
       ============================================================ -->
  <defs>
    <linearGradient id="bgGrad" x1="0%" y1="0%" x2="100%" y2="100%">
      <stop offset="0%" style="stop-color:#0f172a"/>
      <stop offset="100%" style="stop-color:#1e293b"/>
    </linearGradient>
    <linearGradient id="accentGrad" x1="0%" y1="0%" x2="100%" y2="0%">
      <stop offset="0%" style="stop-color:#8b5cf6"/>
      <stop offset="100%" style="stop-color:#d946ef"/>
    </linearGradient>
    <linearGradient id="twitterGrad" x1="0%" y1="0%" x2="100%" y2="0%">
      <stop offset="0%" style="stop-color:#1da1f2"/>
      <stop offset="100%" style="stop-color:#0d8bd9"/>
    </linearGradient>
    <linearGradient id="linkedinGrad" x1="0%" y1="0%" x2="100%" y2="0%">
      <stop offset="0%" style="stop-color:#0077b5"/>
      <stop offset="100%" style="stop-color:#005582"/>
    </linearGradient>
    <linearGradient id="facebookGrad" x1="0%" y1="0%" x2="100%" y2="0%">
      <stop offset="0%" style="stop-color:#1877f2"/>
      <stop offset="100%" style="stop-color:#0d5fc2"/>
    </linearGradient>
    <style>
      .heading-lg { fill: #ffffff; font-family: system-ui, sans-serif; font-size: 20px; font-weight: bold; }
      .heading { fill: #ffffff; font-family: system-ui, sans-serif; font-size: 14px; font-weight: bold; }
      .text-md { fill: #cbd5e1; font-family: system-ui, sans-serif; font-size: 12px; }
      .text-sm { fill: #94a3b8; font-family: system-ui, sans-serif; font-size: 10px; }
      .text-muted { fill: #64748b; font-family: system-ui, sans-serif; font-size: 10px; }
      .annotation { fill: #8b5cf6; font-family: monospace; font-size: 10px; }
      .label-desktop { fill: #8b5cf6; font-family: monospace; font-size: 11px; font-weight: bold; }
      .label-mobile { fill: #d946ef; font-family: monospace; font-size: 11px; font-weight: bold; }
      .success { fill: #22c55e; }
      .warning { fill: #eab308; }
    </style>
  </defs>

  <!-- Background -->
  <rect width="1400" height="800" fill="url(#bgGrad)"/>

  <!-- Dot grid pattern -->
  <g opacity="0.05">
    <pattern id="dots" width="30" height="30" patternUnits="userSpaceOnUse">
      <circle cx="15" cy="15" r="1" fill="#fff"/>
    </pattern>
    <rect width="1400" height="800" fill="url(#dots)"/>
  </g>

  <!-- Accent line top -->
  <rect x="0" y="0" width="1400" height="3" fill="url(#accentGrad)"/>

  <!-- Title -->
  <text x="700" y="28" text-anchor="middle" font-family="system-ui, sans-serif" font-size="14" font-weight="600" fill="#64748b" letter-spacing="1">SOCIAL MEDIA PREVIEW CARDS - OPEN GRAPH &amp; TWITTER CARDS</text>

  <!-- Section: Twitter/X Card Preview -->
  <text x="60" y="60" class="label-desktop">TWITTER/X CARD PREVIEW</text>

  <g id="twitter-card" transform="translate(60, 75)">
    <!-- Card Container -->
    <rect x="0" y="0" width="500" height="280" rx="12" fill="#15202b" stroke="#38444d" stroke-width="1"/>

    <!-- Image Area -->
    <rect x="0" y="0" width="500" height="160" rx="12" fill="#334155"/>
    <rect x="0" y="150" width="500" height="20" fill="#15202b"/>
    <text x="250" y="85" text-anchor="middle" class="text-muted">og:image / twitter:image</text>
    <text x="250" y="100" text-anchor="middle" class="text-sm">1200 × 628 recommended</text>

    <!-- Card Content -->
    <text x="16" y="185" fill="#8899a6" font-family="system-ui" font-size="11">scripthammer.com</text>
    <text x="16" y="210" fill="#fff" font-family="system-ui" font-size="14" font-weight="bold">Building Accessible React Components</text>
    <text x="16" y="235" fill="#8899a6" font-family="system-ui" font-size="12">Learn how to create React components that work for everyone</text>
    <text x="16" y="255" fill="#8899a6" font-family="system-ui" font-size="12">with proper ARIA labels, keyboard navigation, and...</text>

    <!-- Twitter Badge -->
    <rect x="420" y="260" width="70" height="16" rx="8" fill="#1da1f2"/>
    <text x="455" y="271" text-anchor="middle" fill="#fff" font-family="system-ui" font-size="9" font-weight="bold">Summary</text>
  </g>

  <!-- Twitter Meta Tags -->
  <g id="twitter-meta" transform="translate(60, 370)">
    <rect x="0" y="0" width="500" height="120" rx="6" fill="#1e293b" stroke="#475569" stroke-width="1"/>
    <text x="15" y="20" class="annotation">&lt;meta&gt; Tags (FR-007)</text>

    <text x="15" y="45" fill="#22c55e" font-family="monospace" font-size="10">twitter:card = "summary_large_image"</text>
    <text x="15" y="60" fill="#22c55e" font-family="monospace" font-size="10">twitter:title = "Building Accessible React..."</text>
    <text x="15" y="75" fill="#22c55e" font-family="monospace" font-size="10">twitter:description = "Learn how to create..."</text>
    <text x="15" y="90" fill="#22c55e" font-family="monospace" font-size="10">twitter:image = "https://...featured.jpg"</text>
    <text x="15" y="105" fill="#94a3b8" font-family="monospace" font-size="10">twitter:site = "@scripthammer"</text>
  </g>

  <!-- Section: LinkedIn Preview -->
  <text x="600" y="60" class="label-desktop">LINKEDIN PREVIEW</text>

  <g id="linkedin-card" transform="translate(600, 75)">
    <!-- Card Container -->
    <rect x="0" y="0" width="380" height="280" rx="8" fill="#1e293b" stroke="#475569" stroke-width="1"/>

    <!-- Image Area -->
    <rect x="0" y="0" width="380" height="200" rx="8" fill="#334155"/>
    <rect x="0" y="192" width="380" height="16" fill="#1e293b"/>
    <text x="190" y="95" text-anchor="middle" class="text-muted">og:image</text>
    <text x="190" y="115" text-anchor="middle" class="text-sm">1200 × 627 optimal</text>

    <!-- Card Content -->
    <text x="12" y="225" fill="#fff" font-family="system-ui" font-size="13" font-weight="600">Building Accessible React Components</text>
    <text x="12" y="245" fill="#94a3b8" font-family="system-ui" font-size="11">scripthammer.com • 3 min read</text>

    <!-- LinkedIn Badge -->
    <rect x="310" y="255" width="60" height="18" rx="4" fill="#0077b5"/>
    <text x="340" y="268" text-anchor="middle" fill="#fff" font-family="system-ui" font-size="10" font-weight="bold">in</text>
  </g>

  <!-- Section: Facebook Preview -->
  <text x="1010" y="60" class="label-desktop">FACEBOOK PREVIEW</text>

  <g id="facebook-card" transform="translate(1010, 75)">
    <!-- Card Container -->
    <rect x="0" y="0" width="350" height="280" rx="4" fill="#242526" stroke="#3a3b3c" stroke-width="1"/>

    <!-- Image Area -->
    <rect x="0" y="0" width="350" height="185" rx="4" fill="#334155"/>
    <rect x="0" y="177" width="350" height="12" fill="#242526"/>
    <text x="175" y="90" text-anchor="middle" class="text-muted">og:image</text>
    <text x="175" y="105" text-anchor="middle" class="text-sm">1200 × 630</text>

    <!-- Card Content -->
    <text x="12" y="210" fill="#b0b3b8" font-family="system-ui" font-size="11" text-transform="uppercase">SCRIPTHAMMER.COM</text>
    <text x="12" y="235" fill="#e4e6eb" font-family="system-ui" font-size="14" font-weight="bold">Building Accessible React</text>
    <text x="12" y="255" fill="#e4e6eb" font-family="system-ui" font-size="14" font-weight="bold">Components</text>
    <text x="12" y="275" fill="#b0b3b8" font-family="system-ui" font-size="11">Learn how to create React...</text>
  </g>

  <!-- Open Graph Meta Tags -->
  <g id="og-meta" transform="translate(600, 370)">
    <rect x="0" y="0" width="380" height="120" rx="6" fill="#1e293b" stroke="#475569" stroke-width="1"/>
    <text x="15" y="20" class="annotation">&lt;meta&gt; Tags (FR-006)</text>

    <text x="15" y="45" fill="#22c55e" font-family="monospace" font-size="10">og:type = "article"</text>
    <text x="15" y="60" fill="#22c55e" font-family="monospace" font-size="10">og:title = "Building Accessible..."</text>
    <text x="15" y="75" fill="#22c55e" font-family="monospace" font-size="10">og:description = "Learn how to..."</text>
    <text x="15" y="90" fill="#22c55e" font-family="monospace" font-size="10">og:image = "https://...featured.jpg"</text>
    <text x="15" y="105" fill="#22c55e" font-family="monospace" font-size="10">og:url = "https://scripthammer.com/..."</text>
  </g>

  <!-- Section: Fallback Image -->
  <text x="60" y="520" class="label-mobile">FALLBACK: NO FEATURED IMAGE (FR-008)</text>

  <g id="fallback-preview" transform="translate(60, 535)">
    <!-- Card Container -->
    <rect x="0" y="0" width="350" height="200" rx="8" fill="#1e293b" stroke="#eab308" stroke-width="1" stroke-dasharray="4,2"/>

    <!-- Default Site Image -->
    <rect x="0" y="0" width="350" height="120" rx="8" fill="#334155"/>
    <rect x="0" y="112" width="350" height="16" fill="#1e293b"/>
    <text x="175" y="55" text-anchor="middle" class="text-muted">Site Default Image</text>
    <text x="175" y="75" text-anchor="middle" class="warning">When post has no featured image</text>

    <!-- Card Content -->
    <text x="12" y="145" fill="#fff" font-family="system-ui" font-size="13" font-weight="600">Post Title Without Image</text>
    <text x="12" y="165" fill="#94a3b8" font-family="system-ui" font-size="11">scripthammer.com</text>
    <text x="12" y="185" fill="#64748b" font-family="system-ui" font-size="10">Uses /images/og-default.png</text>
  </g>

  <!-- Section: Truncation Rules -->
  <text x="450" y="520" class="label-mobile">TRUNCATION RULES (FR-009)</text>

  <g id="truncation-rules" transform="translate(450, 535)">
    <rect x="0" y="0" width="300" height="200" rx="6" fill="#1e293b" stroke="#475569" stroke-width="1"/>

    <text x="15" y="25" class="heading">Character Limits</text>

    <!-- Title limits -->
    <text x="15" y="50" class="text-sm">og:title / twitter:title</text>
    <rect x="15" y="58" width="200" height="18" rx="4" fill="#334155"/>
    <text x="25" y="71" class="text-muted">Max 60-70 characters</text>
    <rect x="220" y="58" width="60" height="18" rx="4" fill="#22c55e" opacity="0.2"/>
    <text x="250" y="71" text-anchor="middle" class="success">✓ 60</text>

    <!-- Description limits -->
    <text x="15" y="100" class="text-sm">og:description / twitter:description</text>
    <rect x="15" y="108" width="200" height="18" rx="4" fill="#334155"/>
    <text x="25" y="121" class="text-muted">Max 155-160 characters</text>
    <rect x="220" y="108" width="60" height="18" rx="4" fill="#22c55e" opacity="0.2"/>
    <text x="250" y="121" text-anchor="middle" class="success">✓ 155</text>

    <!-- Image limits -->
    <text x="15" y="150" class="text-sm">og:image dimensions</text>
    <rect x="15" y="158" width="200" height="18" rx="4" fill="#334155"/>
    <text x="25" y="171" class="text-muted">1200 × 630 pixels</text>
    <rect x="220" y="158" width="60" height="18" rx="4" fill="#22c55e" opacity="0.2"/>
    <text x="250" y="171" text-anchor="middle" class="success">✓</text>
  </g>

  <!-- Section: Validation Tools -->
  <text x="790" y="520" class="label-mobile">VALIDATION TOOLS (SC-002, SC-003)</text>

  <g id="validation-tools" transform="translate(790, 535)">
    <rect x="0" y="0" width="320" height="200" rx="6" fill="#1e293b" stroke="#22c55e" stroke-width="1"/>

    <text x="15" y="25" class="heading">Test Your Metadata</text>

    <!-- Facebook Debugger -->
    <rect x="15" y="40" width="290" height="45" rx="6" fill="#334155"/>
    <text x="25" y="60" fill="#1877f2" font-family="system-ui" font-size="12" font-weight="bold">Facebook Sharing Debugger</text>
    <text x="25" y="77" class="text-muted">developers.facebook.com/tools/debug</text>

    <!-- LinkedIn Inspector -->
    <rect x="15" y="95" width="290" height="45" rx="6" fill="#334155"/>
    <text x="25" y="115" fill="#0077b5" font-family="system-ui" font-size="12" font-weight="bold">LinkedIn Post Inspector</text>
    <text x="25" y="132" class="text-muted">linkedin.com/post-inspector</text>

    <!-- Twitter Card Validator -->
    <rect x="15" y="150" width="290" height="45" rx="6" fill="#334155"/>
    <text x="25" y="170" fill="#1da1f2" font-family="system-ui" font-size="12" font-weight="bold">Twitter Card Validator</text>
    <text x="25" y="187" class="text-muted">cards-dev.twitter.com/validator</text>
  </g>

  <!-- Section: Build-Time Generation -->
  <text x="1130" y="520" class="label-mobile">BUILD PIPELINE</text>

  <g id="build-pipeline" transform="translate(1130, 535)">
    <rect x="0" y="0" width="230" height="200" rx="6" fill="#1e293b" stroke="#8b5cf6" stroke-width="1"/>

    <text x="15" y="25" class="annotation">NFR-002: &lt;100ms/post</text>

    <!-- Step 1 -->
    <rect x="15" y="40" width="200" height="35" rx="4" fill="#334155"/>
    <text x="25" y="55" class="text-sm">1. Read post frontmatter</text>
    <text x="25" y="70" class="text-muted">title, description, image</text>

    <!-- Step 2 -->
    <rect x="15" y="85" width="200" height="35" rx="4" fill="#334155"/>
    <text x="25" y="100" class="text-sm">2. Apply truncation</text>
    <text x="25" y="115" class="text-muted">Ellipsis at char limits</text>

    <!-- Step 3 -->
    <rect x="15" y="130" width="200" height="35" rx="4" fill="#334155"/>
    <text x="25" y="145" class="text-sm">3. Generate meta tags</text>
    <text x="25" y="160" class="text-muted">Inject into &lt;head&gt;</text>

    <!-- Step 4 -->
    <rect x="15" y="175" width="200" height="20" rx="4" fill="#22c55e" opacity="0.2"/>
    <text x="115" y="189" text-anchor="middle" class="success">✓ Static HTML output</text>
  </g>

  <!-- Legend -->
  <rect x="60" y="750" width="350" height="35" rx="4" fill="#1e293b" stroke="#475569" stroke-width="1"/>
  <rect x="75" y="762" width="12" height="12" rx="2" fill="#22c55e" opacity="0.3"/>
  <text x="95" y="772" class="text-sm">Valid metadata</text>
  <rect x="185" y="762" width="12" height="12" rx="2" fill="#eab308" opacity="0.3"/>
  <text x="205" y="772" class="text-sm">Fallback used</text>
  <rect x="295" y="762" width="12" height="12" rx="2" stroke="#8b5cf6" stroke-width="2" fill="transparent"/>
  <text x="315" y="772" class="text-sm">Build-time gen</text>
</svg>
