<svg xmlns="http://www.w3.org/2000/svg" viewBox="0 0 1400 800" width="1400" height="800">
  <!-- ============================================================
       GENERATED BY: /wireframe skill
       SOURCE: features/integrations/025-blog-social-features/spec.md
       DATE: 2026-01-01
       THEME: Dark (Backend/Architecture)
       DO NOT MANUALLY EDIT - Regenerate with /wireframe command
       ============================================================ -->
  <defs>
    <linearGradient id="bgGrad" x1="0%" y1="0%" x2="100%" y2="100%">
      <stop offset="0%" style="stop-color:#0f172a"/>
      <stop offset="100%" style="stop-color:#1e293b"/>
    </linearGradient>
    <linearGradient id="accentGrad" x1="0%" y1="0%" x2="100%" y2="0%">
      <stop offset="0%" style="stop-color:#8b5cf6"/>
      <stop offset="100%" style="stop-color:#d946ef"/>
    </linearGradient>
    <style>
      .heading-lg { fill: #ffffff; font-family: system-ui, sans-serif; font-size: 20px; font-weight: bold; }
      .heading { fill: #ffffff; font-family: system-ui, sans-serif; font-size: 14px; font-weight: bold; }
      .text-md { fill: #cbd5e1; font-family: system-ui, sans-serif; font-size: 12px; }
      .text-sm { fill: #94a3b8; font-family: system-ui, sans-serif; font-size: 10px; }
      .text-muted { fill: #8494a8; font-family: system-ui, sans-serif; font-size: 10px; }
      .annotation { fill: #6d28d9; font-family: monospace; font-size: 10px; }
      .code { fill: #fbbf24; font-family: monospace; font-size: 10px; }
      .label { fill: #94a3b8; font-family: monospace; font-size: 9px; text-transform: uppercase; letter-spacing: 1px; }
    </style>
    <marker id="arrowhead" markerWidth="10" markerHeight="7" refX="9" refY="3.5" orient="auto">
      <polygon points="0 0, 10 3.5, 0 7" fill="#8b5cf6"/>
    </marker>
  </defs>

  <!-- Background -->
  <rect width="1400" height="800" fill="url(#bgGrad)"/>

  <!-- Dot grid pattern -->
  <g opacity="0.05">
    <pattern id="dots" width="30" height="30" patternUnits="userSpaceOnUse">
      <circle cx="15" cy="15" r="1" fill="#fff"/>
    </pattern>
    <rect width="1400" height="800" fill="url(#dots)"/>
  </g>

  <!-- Accent line top -->
  <rect x="0" y="0" width="1400" height="3" fill="url(#accentGrad)"/>

  <!-- Title -->
  <text x="700" y="28" text-anchor="middle" font-family="system-ui, sans-serif" font-size="14" font-weight="600" fill="#8494a8" letter-spacing="1">025 - BLOG SOCIAL FEATURES - SOCIAL METADATA ARCHITECTURE</text>

  <!-- Build-time metadata generation -->
  <g id="build-process" transform="translate(40, 50)">
    <text x="0" y="15" class="label">BUILD-TIME METADATA GENERATION</text>

    <!-- Blog Post Source -->
    <rect x="0" y="30" width="200" height="120" rx="8" fill="#1e293b" stroke="#475569" stroke-width="1"/>
    <text x="100" y="55" text-anchor="middle" class="heading">Blog Post Source</text>
    <rect x="15" y="70" width="170" height="20" rx="4" fill="#334155"/>
    <text x="25" y="85" class="code">title: "How to Build..."</text>
    <rect x="15" y="95" width="170" height="20" rx="4" fill="#334155"/>
    <text x="25" y="110" class="code">description: "Building..."</text>
    <rect x="15" y="120" width="170" height="20" rx="4" fill="#334155"/>
    <text x="25" y="135" class="code">image: "/hero.jpg"</text>

    <!-- Arrow -->
    <line x1="200" y1="90" x2="250" y2="90" stroke="#8b5cf6" stroke-width="2" marker-end="url(#arrowhead)"/>

    <!-- Metadata Generator -->
    <rect x="260" y="30" width="200" height="120" rx="8" fill="#1e293b" stroke="#8b5cf6" stroke-width="2"/>
    <text x="360" y="55" text-anchor="middle" class="heading">Metadata Generator</text>
    <text x="275" y="80" class="text-sm">• Extract frontmatter</text>
    <text x="275" y="100" class="text-sm">• Truncate to limits</text>
    <text x="275" y="120" class="text-sm">• Generate OG + Twitter</text>
    <text x="275" y="140" class="text-sm">• NFR-002: &lt;100ms/post</text>

    <!-- Arrow -->
    <line x1="460" y1="90" x2="510" y2="90" stroke="#8b5cf6" stroke-width="2" marker-end="url(#arrowhead)"/>

    <!-- HTML Output -->
    <rect x="520" y="30" width="280" height="120" rx="8" fill="#1e293b" stroke="#475569" stroke-width="1"/>
    <text x="660" y="55" text-anchor="middle" class="heading">Generated &lt;head&gt;</text>
    <text x="535" y="75" class="code">&lt;meta property="og:title"...</text>
    <text x="535" y="92" class="code">&lt;meta property="og:description"...</text>
    <text x="535" y="109" class="code">&lt;meta property="og:image"...</text>
    <text x="535" y="126" class="code">&lt;meta name="twitter:card"...</text>
    <text x="535" y="143" class="text-muted">Static HTML output</text>
  </g>

  <!-- Open Graph Metadata -->
  <g id="og-metadata" transform="translate(40, 200)">
    <rect x="0" y="0" width="400" height="220" rx="8" fill="#1e293b" stroke="#475569" stroke-width="1"/>
    <rect x="0" y="0" width="400" height="35" rx="8" fill="#1877f2"/>
    <rect x="0" y="25" width="400" height="10" fill="#1877f2"/>
    <text x="20" y="25" class="heading" fill="#fff">Open Graph (Facebook/LinkedIn)</text>
    <text x="350" y="25" class="text-sm" fill="#fff">FR-006</text>

    <text x="20" y="60" class="code">&lt;meta property="og:title"</text>
    <text x="30" y="75" class="code">content="How to Build Accessible Web Apps" /&gt;</text>

    <text x="20" y="100" class="code">&lt;meta property="og:description"</text>
    <text x="30" y="115" class="code">content="Building accessible..." /&gt;</text>

    <text x="20" y="140" class="code">&lt;meta property="og:image"</text>
    <text x="30" y="155" class="code">content="https://site.com/hero.jpg" /&gt;</text>

    <text x="20" y="180" class="code">&lt;meta property="og:url"</text>
    <text x="30" y="195" class="code">content="https://site.com/posts/a11y" /&gt;</text>

    <text x="20" y="215" class="text-muted">SC-002: Validates with Facebook Debugger</text>
  </g>

  <!-- Twitter Card Metadata -->
  <g id="twitter-metadata" transform="translate(460, 200)">
    <rect x="0" y="0" width="400" height="220" rx="8" fill="#1e293b" stroke="#475569" stroke-width="1"/>
    <rect x="0" y="0" width="400" height="35" rx="8" fill="#1da1f2"/>
    <rect x="0" y="25" width="400" height="10" fill="#1da1f2"/>
    <text x="20" y="25" class="heading" fill="#fff">Twitter Card</text>
    <text x="350" y="25" class="text-sm" fill="#fff">FR-007</text>

    <text x="20" y="60" class="code">&lt;meta name="twitter:card"</text>
    <text x="30" y="75" class="code">content="summary_large_image" /&gt;</text>

    <text x="20" y="100" class="code">&lt;meta name="twitter:title"</text>
    <text x="30" y="115" class="code">content="How to Build Accessible Web Apps" /&gt;</text>

    <text x="20" y="140" class="code">&lt;meta name="twitter:description"</text>
    <text x="30" y="155" class="code">content="Building accessible..." /&gt;</text>

    <text x="20" y="180" class="code">&lt;meta name="twitter:image"</text>
    <text x="30" y="195" class="code">content="https://site.com/hero.jpg" /&gt;</text>

    <text x="20" y="215" class="text-muted">SC-003: Validates with Twitter Card Validator</text>
  </g>

  <!-- Social Platform Previews -->
  <g id="previews" transform="translate(880, 200)">
    <text x="0" y="0" class="label">PLATFORM PREVIEWS</text>

    <!-- Twitter preview -->
    <rect x="0" y="20" width="280" height="100" rx="8" fill="#15202b" stroke="#38444d" stroke-width="1"/>
    <rect x="10" y="30" width="120" height="80" rx="6" fill="#1e293b"/>
    <text x="70" y="75" text-anchor="middle" class="text-sm" fill="#94a3b8">🖼️</text>
    <text x="145" y="55" class="text-sm" fill="#fff">How to Build Access...</text>
    <text x="145" y="75" class="text-muted">Building accessible web...</text>
    <text x="145" y="95" class="text-muted">site.com</text>

    <!-- LinkedIn preview -->
    <rect x="0" y="130" width="280" height="90" rx="8" fill="#1b1f23" stroke="#38444d" stroke-width="1"/>
    <rect x="10" y="140" width="260" height="40" rx="4" fill="#1e293b"/>
    <text x="140" y="165" text-anchor="middle" class="text-sm" fill="#94a3b8">Featured Image</text>
    <text x="10" y="195" class="text-sm" fill="#fff">How to Build Accessible Web Apps</text>
    <text x="10" y="210" class="text-muted">site.com</text>
  </g>

  <!-- Fallback Image Logic -->
  <g id="fallback" transform="translate(40, 440)">
    <rect x="0" y="0" width="400" height="160" rx="8" fill="#1e293b" stroke="#eab308" stroke-width="1"/>
    <text x="200" y="25" text-anchor="middle" class="heading" fill="#eab308">Image Fallback Logic (FR-008)</text>

    <!-- Decision diamond -->
    <polygon points="200,50 250,80 200,110 150,80" fill="#334155" stroke="#475569" stroke-width="1"/>
    <text x="200" y="85" text-anchor="middle" class="text-sm">Has image?</text>

    <!-- Yes path -->
    <line x1="250" y1="80" x2="300" y2="80" stroke="#22c55e" stroke-width="2"/>
    <text x="270" y="70" class="text-sm" fill="#22c55e">Yes</text>
    <rect x="300" y="65" width="80" height="30" rx="4" fill="#334155"/>
    <text x="340" y="85" text-anchor="middle" class="text-sm">Use post image</text>

    <!-- No path -->
    <line x1="200" y1="110" x2="200" y2="140" stroke="#ef4444" stroke-width="2"/>
    <text x="215" y="125" class="text-sm" fill="#ef4444">No</text>
    <rect x="140" y="125" width="120" height="30" rx="4" fill="#334155" stroke="#eab308" stroke-width="1"/>
    <text x="200" y="145" text-anchor="middle" class="text-sm" fill="#eab308">Use default OG image</text>
  </g>

  <!-- Truncation Rules -->
  <g id="truncation" transform="translate(460, 440)">
    <rect x="0" y="0" width="400" height="160" rx="8" fill="#1e293b" stroke="#475569" stroke-width="1"/>
    <text x="200" y="25" text-anchor="middle" class="heading">Truncation Rules (FR-009)</text>

    <text x="20" y="55" class="text-md">Title limits:</text>
    <text x="120" y="55" class="code">Twitter: 70 chars</text>
    <text x="250" y="55" class="code">OG: 60 chars</text>

    <text x="20" y="85" class="text-md">Description:</text>
    <text x="120" y="85" class="code">Twitter: 200 chars</text>
    <text x="250" y="85" class="code">OG: 155 chars</text>

    <text x="20" y="115" class="text-md">Truncation:</text>
    <text x="120" y="115" class="text-sm">Add "..." at word boundary</text>

    <rect x="20" y="130" width="360" height="20" rx="4" fill="#334155"/>
    <text x="200" y="145" text-anchor="middle" class="code">"Building accessible web applications..."</text>
  </g>

  <!-- Privacy & Analytics -->
  <g id="analytics" transform="translate(880, 320)">
    <rect x="0" y="0" width="280" height="180" rx="8" fill="#1e293b" stroke="#475569" stroke-width="1"/>
    <text x="140" y="25" text-anchor="middle" class="heading">Analytics & Privacy</text>

    <rect x="20" y="45" width="240" height="50" rx="6" fill="#334155"/>
    <text x="140" y="65" text-anchor="middle" class="text-sm">Share Event Tracking</text>
    <text x="140" y="85" text-anchor="middle" class="text-muted">FR-019: Optional analytics</text>

    <rect x="20" y="105" width="240" height="55" rx="6" fill="#fef2f2" stroke="#ef4444" stroke-width="1"/>
    <text x="140" y="125" text-anchor="middle" class="text-sm" fill="#dc2626">Consent Required!</text>
    <text x="140" y="145" text-anchor="middle" class="text-muted" fill="#dc2626">FR-020, FR-021: No tracking</text>
    <text x="140" y="158" text-anchor="middle" class="text-muted" fill="#dc2626">without cookie consent</text>
  </g>

  <!-- Share URL Construction -->
  <g id="share-urls" transform="translate(40, 620)">
    <rect x="0" y="0" width="820" height="150" rx="8" fill="#1e293b" stroke="#8b5cf6" stroke-width="1"/>
    <text x="410" y="25" text-anchor="middle" class="heading">Share URL Construction (FR-004: No API Keys Required)</text>

    <g transform="translate(20, 45)">
      <!-- Twitter -->
      <rect x="0" y="0" width="380" height="40" rx="6" fill="#334155"/>
      <text x="10" y="18" class="text-sm" fill="#1da1f2">Twitter/X:</text>
      <text x="10" y="35" class="code">https://twitter.com/intent/tweet?text=TITLE&amp;url=URL</text>

      <!-- LinkedIn -->
      <rect x="400" y="0" width="380" height="40" rx="6" fill="#334155"/>
      <text x="410" y="18" class="text-sm" fill="#0077b5">LinkedIn:</text>
      <text x="410" y="35" class="code">https://linkedin.com/shareArticle?url=URL</text>
    </g>

    <g transform="translate(20, 95)">
      <!-- Facebook -->
      <rect x="0" y="0" width="380" height="40" rx="6" fill="#334155"/>
      <text x="10" y="18" class="text-sm" fill="#1877f2">Facebook:</text>
      <text x="10" y="35" class="code">https://facebook.com/sharer/sharer.php?u=URL</text>

      <!-- Reddit -->
      <rect x="400" y="0" width="380" height="40" rx="6" fill="#334155"/>
      <text x="410" y="18" class="text-sm" fill="#ff4500">Reddit:</text>
      <text x="410" y="35" class="code">https://reddit.com/submit?url=URL&amp;title=TITLE</text>
    </g>
  </g>

  <!-- Success Criteria -->
  <g id="success" transform="translate(880, 520)">
    <rect x="0" y="0" width="280" height="250" rx="8" fill="#1e293b" stroke="#22c55e" stroke-width="1"/>
    <text x="140" y="25" text-anchor="middle" class="annotation" fill="#22c55e">SUCCESS CRITERIA</text>

    <text x="20" y="50" class="text-sm">SC-001: 4 platforms + email ✓</text>
    <text x="20" y="75" class="text-sm">SC-002: OG validates ✓</text>
    <text x="20" y="100" class="text-sm">SC-003: Twitter Card validates ✓</text>
    <text x="20" y="125" class="text-sm">SC-004: Author profiles ✓</text>
    <text x="20" y="150" class="text-sm">SC-005: &lt;2s load time ✓</text>
    <text x="20" y="175" class="text-sm">SC-006: WCAG 2.1 AA ✓</text>
    <text x="20" y="200" class="text-sm">SC-007: Theme adaptation ✓</text>
    <text x="20" y="225" class="text-sm">SC-008: No broken URLs ✓</text>
    <text x="20" y="245" class="text-sm">SC-009: JS-off fallback ✓</text>
  </g>
</svg>
