<svg xmlns="http://www.w3.org/2000/svg" viewBox="0 0 1400 800" width="1400" height="800">
  <!-- ============================================================
       GENERATED BY: /wireframe skill
       SOURCE: features/enhancements/017-colorblind-mode/spec.md
       DATE: 2026-01-01
       THEME: Light (UX/Frontend) - v3 True Parchment
       DO NOT MANUALLY EDIT - Regenerate with /wireframe command
       ============================================================ -->
  <defs>
    <linearGradient id="bgGrad" x1="0%" y1="0%" x2="100%" y2="100%">
      <stop offset="0%" style="stop-color:#c7ddf5"/>
      <stop offset="100%" style="stop-color:#b8d4f0"/>
    </linearGradient>
    <linearGradient id="accentGrad" x1="0%" y1="0%" x2="100%" y2="0%">
      <stop offset="0%" style="stop-color:#8b5cf6"/>
      <stop offset="100%" style="stop-color:#d946ef"/>
    </linearGradient>
    <pattern id="stripes" patternUnits="userSpaceOnUse" width="6" height="6" patternTransform="rotate(45)">
      <line x1="0" y1="0" x2="0" y2="6" stroke="#fff" stroke-width="2" opacity="0.5"/>
    </pattern>
    <pattern id="dots-pattern" patternUnits="userSpaceOnUse" width="8" height="8">
      <circle cx="4" cy="4" r="1.5" fill="#fff" opacity="0.5"/>
    </pattern>
    <pattern id="hatching" patternUnits="userSpaceOnUse" width="8" height="8">
      <path d="M0,0 L8,8 M-2,6 L2,10 M6,-2 L10,2" stroke="#fff" stroke-width="1" opacity="0.5"/>
    </pattern>
    <style>
      .heading-lg { fill: #1a1a2e; font-family: system-ui, sans-serif; font-size: 24px; font-weight: 800; }
      .heading { fill: #1a1a2e; font-family: system-ui, sans-serif; font-size: 16px; font-weight: 700; }
      .text-md { fill: #2d3748; font-family: system-ui, sans-serif; font-size: 14px; font-weight: 500; }
      .text-sm { fill: #4a5568; font-family: system-ui, sans-serif; font-size: 12px; font-weight: 500; }
      .text-muted { fill: #5a6577; font-family: system-ui, sans-serif; font-size: 11px; font-weight: 500; }
      .annotation { fill: #8b5cf6; font-family: monospace; font-size: 12px; font-weight: 600; }
      .label-desktop { fill: #8b5cf6; font-family: monospace; font-size: 13px; font-weight: bold; }
      .label-mobile { fill: #d946ef; font-family: monospace; font-size: 13px; font-weight: bold; }
    </style>
  </defs>

  <!-- Background -->
  <rect width="1400" height="800" fill="url(#bgGrad)"/>

  <!-- Dot grid pattern -->
  <g opacity="0.35">
    <pattern id="dots" width="30" height="30" patternUnits="userSpaceOnUse">
      <circle cx="15" cy="15" r="1" fill="#6b8cba"/>
    </pattern>
    <rect width="1400" height="800" fill="url(#dots)"/>
  </g>

  <!-- Accent line top -->
  <rect x="0" y="0" width="1400" height="3" fill="url(#accentGrad)"/>

  <!-- Title -->
  <text x="700" y="28" text-anchor="middle" font-family="system-ui, sans-serif" font-size="14" font-weight="600" fill="#5a6577" letter-spacing="1">COLORBLIND MODE SETTINGS</text>

  <!-- DESKTOP SECTION -->
  <text x="40" y="52" class="label-desktop">DESKTOP - ACCESSIBILITY SETTINGS</text>
  <g id="desktop-view">
    <!-- Main container -->
    <rect x="40" y="60" width="900" height="700" rx="8" fill="#e8d4b8" stroke="#b8a080" stroke-width="1"/>

    <!-- Header -->
    <rect x="40" y="60" width="900" height="50" rx="8" fill="#dcc8a8"/>
    <text x="60" y="92" class="heading">Settings → Accessibility → Color Vision</text>

    <!-- Left sidebar - Settings nav -->
    <rect x="50" y="120" width="180" height="630" rx="6" fill="#dcc8a8"/>
    <text x="70" y="150" class="text-md" font-weight="600">Accessibility</text>

    <g transform="translate(60, 170)">
      <rect x="0" y="0" width="160" height="36" rx="4" fill="#8b5cf6" opacity="0.2"/>
      <text x="10" y="24" class="text-sm" fill="#8b5cf6">👁 Color Vision</text>
    </g>
    <g transform="translate(60, 215)">
      <rect x="0" y="0" width="160" height="36" rx="4" fill="#f5f0e6"/>
      <text x="10" y="24" class="text-sm">🔤 Font Size</text>
    </g>
    <g transform="translate(60, 260)">
      <rect x="0" y="0" width="160" height="36" rx="4" fill="#f5f0e6"/>
      <text x="10" y="24" class="text-sm">⌨️ Keyboard Nav</text>
    </g>
    <g transform="translate(60, 305)">
      <rect x="0" y="0" width="160" height="36" rx="4" fill="#f5f0e6"/>
      <text x="10" y="24" class="text-sm">🔊 Screen Reader</text>
    </g>

    <!-- Main content area -->
    <rect x="240" y="120" width="450" height="630" rx="6" fill="#f5f0e6" stroke="#b8a080"/>

    <!-- Color vision section header -->
    <g transform="translate(260, 140)">
      <text x="0" y="0" class="heading-lg">Color Vision Assistance</text>
      <text x="0" y="28" class="text-muted">Select your color vision type for optimized colors</text>
    </g>

    <!-- Enable toggle -->
    <g transform="translate(260, 190)">
      <rect x="0" y="0" width="410" height="50" rx="6" fill="#e8d4b8" stroke="#b8a080"/>
      <text x="15" y="32" class="text-md">Enable Color Vision Assistance</text>
      <!-- Toggle switch - ON -->
      <rect x="340" y="12" width="52" height="26" rx="13" fill="#22c55e"/>
      <circle cx="378" cy="25" r="10" fill="#fff"/>
    </g>

    <!-- Colorblind type selection -->
    <g transform="translate(260, 255)">
      <text x="0" y="0" class="heading">Select Your Type</text>

      <!-- Red-green types -->
      <text x="0" y="30" class="text-muted">Red-Green (Most Common)</text>

      <rect x="0" y="42" width="200" height="55" rx="4" fill="#8b5cf6" opacity="0.15" stroke="#8b5cf6" stroke-width="2"/>
      <text x="15" y="65" class="text-md" fill="#8b5cf6">Deuteranopia</text>
      <text x="15" y="85" class="text-muted">Green-blind • ~1% of males</text>

      <rect x="210" y="42" width="200" height="55" rx="4" fill="#f5f0e6" stroke="#b8a080"/>
      <text x="225" y="65" class="text-md">Deuteranomaly</text>
      <text x="225" y="85" class="text-muted">Green-weak • ~5% of males</text>

      <rect x="0" y="105" width="200" height="55" rx="4" fill="#f5f0e6" stroke="#b8a080"/>
      <text x="15" y="128" class="text-md">Protanopia</text>
      <text x="15" y="148" class="text-muted">Red-blind • ~1% of males</text>

      <rect x="210" y="105" width="200" height="55" rx="4" fill="#f5f0e6" stroke="#b8a080"/>
      <text x="225" y="128" class="text-md">Protanomaly</text>
      <text x="225" y="148" class="text-muted">Red-weak • ~1% of males</text>

      <!-- Blue-yellow types -->
      <text x="0" y="190" class="text-muted">Blue-Yellow (Less Common)</text>

      <rect x="0" y="202" width="200" height="55" rx="4" fill="#f5f0e6" stroke="#b8a080"/>
      <text x="15" y="225" class="text-md">Tritanopia</text>
      <text x="15" y="245" class="text-muted">Blue-blind • ~0.001%</text>

      <rect x="210" y="202" width="200" height="55" rx="4" fill="#f5f0e6" stroke="#b8a080"/>
      <text x="225" y="225" class="text-md">Tritanomaly</text>
      <text x="225" y="245" class="text-muted">Blue-weak • ~0.01%</text>

      <!-- Monochrome types -->
      <text x="0" y="287" class="text-muted">Monochrome Vision</text>

      <rect x="0" y="299" width="200" height="55" rx="4" fill="#f5f0e6" stroke="#b8a080"/>
      <text x="15" y="322" class="text-md">Achromatopsia</text>
      <text x="15" y="342" class="text-muted">Complete • ~0.003%</text>

      <rect x="210" y="299" width="200" height="55" rx="4" fill="#f5f0e6" stroke="#b8a080"/>
      <text x="225" y="322" class="text-md">Achromatomaly</text>
      <text x="225" y="342" class="text-muted">Partial • Rare</text>

      <!-- High contrast option -->
      <rect x="0" y="365" width="410" height="55" rx="4" fill="#1a1a2e" stroke="#1a1a2e"/>
      <text x="15" y="388" class="text-md" fill="#fff">⚡ High Contrast Mode</text>
      <text x="15" y="408" class="text-muted" fill="#94a3b8">Maximum distinction for all types</text>
    </g>

    <!-- Pattern overlays section -->
    <g transform="translate(260, 690)">
      <rect x="0" y="0" width="410" height="50" rx="6" fill="#e8d4b8" stroke="#b8a080"/>
      <text x="15" y="22" class="text-md">Enable Pattern Overlays</text>
      <text x="15" y="40" class="text-muted">Add stripes/dots for extra distinction</text>
      <!-- Toggle switch - OFF -->
      <rect x="340" y="12" width="52" height="26" rx="13" fill="#94a3b8"/>
      <circle cx="354" cy="25" r="10" fill="#fff"/>
    </g>

    <!-- Preview panel -->
    <rect x="700" y="120" width="230" height="630" rx="6" fill="#dcc8a8"/>
    <text x="720" y="150" class="heading">Live Preview</text>

    <!-- Preview status indicators -->
    <g transform="translate(720, 170)">
      <text x="0" y="0" class="text-sm">Status Indicators</text>

      <!-- Success -->
      <rect x="0" y="15" width="190" height="40" rx="4" fill="#22c55e"/>
      <text x="95" y="42" text-anchor="middle" class="text-md" fill="#fff">✓ Success</text>

      <!-- Error -->
      <rect x="0" y="65" width="190" height="40" rx="4" fill="#ef4444"/>
      <text x="95" y="92" text-anchor="middle" class="text-md" fill="#fff">✕ Error</text>

      <!-- Warning -->
      <rect x="0" y="115" width="190" height="40" rx="4" fill="#eab308"/>
      <text x="95" y="142" text-anchor="middle" class="text-md" fill="#1a1a2e">⚠ Warning</text>

      <!-- Info -->
      <rect x="0" y="165" width="190" height="40" rx="4" fill="#3b82f6"/>
      <text x="95" y="192" text-anchor="middle" class="text-md" fill="#fff">ℹ Info</text>
    </g>

    <!-- Preview with patterns -->
    <g transform="translate(720, 400)">
      <text x="0" y="0" class="text-sm">With Patterns Enabled</text>

      <!-- Success with stripes -->
      <rect x="0" y="15" width="190" height="40" rx="4" fill="#22c55e"/>
      <rect x="0" y="15" width="190" height="40" rx="4" fill="url(#stripes)"/>
      <text x="95" y="42" text-anchor="middle" class="text-md" fill="#fff">✓ Success</text>

      <!-- Error with dots -->
      <rect x="0" y="65" width="190" height="40" rx="4" fill="#ef4444"/>
      <rect x="0" y="65" width="190" height="40" rx="4" fill="url(#dots-pattern)"/>
      <text x="95" y="92" text-anchor="middle" class="text-md" fill="#fff">✕ Error</text>

      <!-- Warning with hatching -->
      <rect x="0" y="115" width="190" height="40" rx="4" fill="#eab308"/>
      <rect x="0" y="115" width="190" height="40" rx="4" fill="url(#hatching)"/>
      <text x="95" y="142" text-anchor="middle" class="text-md" fill="#1a1a2e">⚠ Warning</text>
    </g>

    <!-- Persistence note -->
    <g transform="translate(720, 580)">
      <rect x="0" y="0" width="190" height="60" rx="4" fill="#8b5cf6" opacity="0.1"/>
      <text x="95" y="22" text-anchor="middle" class="text-sm" fill="#8b5cf6">💾 Auto-saved</text>
      <text x="95" y="42" text-anchor="middle" class="text-muted">Persists across sessions</text>
    </g>
  </g>

  <!-- MOBILE SECTION -->
  <text x="980" y="52" class="label-mobile">MOBILE - SETTINGS</text>
  <g id="mobile-view" transform="translate(980, 60)">
    <!-- Phone frame -->
    <rect x="0" y="0" width="360" height="700" rx="24" fill="#c8b898" stroke="#a08860" stroke-width="2"/>
    <rect x="10" y="10" width="340" height="680" rx="16" fill="#e8d4b8"/>

    <!-- Status bar -->
    <rect x="10" y="10" width="340" height="28" rx="16" fill="#dcc8a8"/>
    <text x="30" y="28" class="text-sm">9:41</text>
    <text x="320" y="28" text-anchor="end" class="text-sm">📶 🔋</text>

    <!-- Header -->
    <rect x="10" y="38" width="340" height="50" fill="#dcc8a8"/>
    <text x="30" y="70" class="text-md">← Settings</text>
    <text x="180" y="70" text-anchor="middle" class="heading">Color Vision</text>

    <!-- Toggle -->
    <g transform="translate(20, 100)">
      <rect x="0" y="0" width="320" height="50" rx="8" fill="#f5f0e6" stroke="#b8a080"/>
      <text x="15" y="32" class="text-md">Enable Assistance</text>
      <rect x="255" y="12" width="50" height="26" rx="13" fill="#22c55e"/>
      <circle cx="291" cy="25" r="10" fill="#fff"/>
    </g>

    <!-- Type selector -->
    <g transform="translate(20, 165)">
      <text x="0" y="0" class="text-sm" fill="#5a6577">Your Type</text>

      <rect x="0" y="12" width="320" height="50" rx="8" fill="#8b5cf6" opacity="0.15" stroke="#8b5cf6"/>
      <text x="15" y="42" class="text-md" fill="#8b5cf6">Deuteranopia</text>
      <text x="290" y="42" text-anchor="end" class="text-sm" fill="#8b5cf6">▼</text>
    </g>

    <!-- Dropdown expanded (partial) -->
    <g transform="translate(20, 240)">
      <rect x="0" y="0" width="320" height="180" rx="8" fill="#f5f0e6" stroke="#b8a080"/>
      <rect x="0" y="0" width="320" height="40" rx="8" fill="#8b5cf6" opacity="0.2"/>
      <text x="15" y="27" class="text-sm" fill="#8b5cf6">✓ Deuteranopia</text>
      <rect x="0" y="40" width="320" height="1" fill="#b8a080"/>
      <text x="15" y="67" class="text-sm">Deuteranomaly</text>
      <rect x="0" y="80" width="320" height="1" fill="#b8a080"/>
      <text x="15" y="107" class="text-sm">Protanopia</text>
      <rect x="0" y="120" width="320" height="1" fill="#b8a080"/>
      <text x="15" y="147" class="text-sm">Protanomaly</text>
      <rect x="0" y="160" width="320" height="1" fill="#b8a080"/>
      <text x="15" y="177" class="text-sm" fill="#5a6577">... more options</text>
    </g>

    <!-- Pattern toggle -->
    <g transform="translate(20, 435)">
      <rect x="0" y="0" width="320" height="50" rx="8" fill="#f5f0e6" stroke="#b8a080"/>
      <text x="15" y="25" class="text-md">Pattern Overlays</text>
      <text x="15" y="42" class="text-muted">Extra visual distinction</text>
      <rect x="255" y="12" width="50" height="26" rx="13" fill="#94a3b8"/>
      <circle cx="269" cy="25" r="10" fill="#fff"/>
    </g>

    <!-- Preview section -->
    <g transform="translate(20, 500)">
      <text x="0" y="0" class="text-sm" fill="#5a6577">Preview</text>
      <g transform="translate(0, 15)">
        <rect x="0" y="0" width="75" height="35" rx="4" fill="#22c55e"/>
        <text x="38" y="23" text-anchor="middle" font-size="11" fill="#fff">Success</text>

        <rect x="82" y="0" width="75" height="35" rx="4" fill="#ef4444"/>
        <text x="120" y="23" text-anchor="middle" font-size="11" fill="#fff">Error</text>

        <rect x="164" y="0" width="75" height="35" rx="4" fill="#eab308"/>
        <text x="202" y="23" text-anchor="middle" font-size="11" fill="#1a1a2e">Warn</text>

        <rect x="246" y="0" width="74" height="35" rx="4" fill="#3b82f6"/>
        <text x="283" y="23" text-anchor="middle" font-size="11" fill="#fff">Info</text>
      </g>
    </g>

    <!-- Simulation mode link -->
    <g transform="translate(20, 580)">
      <rect x="0" y="0" width="320" height="45" rx="8" fill="#dcc8a8"/>
      <text x="160" y="28" text-anchor="middle" class="text-sm" fill="#8b5cf6">🔬 Developer: Simulation Mode →</text>
    </g>

    <!-- Save indicator -->
    <g transform="translate(20, 640)">
      <text x="160" y="20" text-anchor="middle" class="text-muted" fill="#22c55e">✓ Settings auto-saved</text>
    </g>
  </g>

  <!-- Annotations -->
  <g id="annotations">
    <rect x="5" y="255" width="30" height="55" rx="4" fill="#e8d4b8" stroke="#8b5cf6" stroke-width="1"/>
    <text x="20" y="273" text-anchor="middle" class="annotation">FR</text>
    <text x="20" y="288" text-anchor="middle" class="annotation">001</text>
    <text x="20" y="303" text-anchor="middle" class="text-muted">-009</text>

    <rect x="5" y="690" width="30" height="45" rx="4" fill="#e8d4b8" stroke="#8b5cf6" stroke-width="1"/>
    <text x="20" y="708" text-anchor="middle" class="annotation">FR</text>
    <text x="20" y="723" text-anchor="middle" class="annotation">017</text>
  </g>
</svg>
