<svg xmlns="http://www.w3.org/2000/svg" viewBox="0 0 1400 800" width="1400" height="800">
  <!-- ============================================================
       GENERATED BY: /wireframe skill
       SOURCE: features/enhancements/017-colorblind-mode/spec.md
       DATE: 2025-12-31
       DO NOT MANUALLY EDIT - Regenerate with /wireframe command
       ============================================================ -->
  <defs>
    <linearGradient id="bgGrad" x1="0%" y1="0%" x2="100%" y2="100%">
      <stop offset="0%" style="stop-color:#0f172a"/>
      <stop offset="100%" style="stop-color:#1e293b"/>
    </linearGradient>
    <linearGradient id="accentGrad" x1="0%" y1="0%" x2="100%" y2="0%">
      <stop offset="0%" style="stop-color:#8b5cf6"/>
      <stop offset="100%" style="stop-color:#d946ef"/>
    </linearGradient>
    <!-- Pattern definitions for colorblind-friendly indicators -->
    <pattern id="stripes" width="8" height="8" patternUnits="userSpaceOnUse" patternTransform="rotate(45)">
      <line x1="0" y1="0" x2="0" y2="8" stroke="#fff" stroke-width="2" opacity="0.3"/>
    </pattern>
    <pattern id="dots" width="8" height="8" patternUnits="userSpaceOnUse">
      <circle cx="4" cy="4" r="1.5" fill="#fff" opacity="0.4"/>
    </pattern>
    <pattern id="hatching" width="8" height="8" patternUnits="userSpaceOnUse">
      <path d="M0,0 L8,8 M8,0 L0,8" stroke="#fff" stroke-width="1" opacity="0.3"/>
    </pattern>
    <style>
      .heading-lg { fill: #ffffff; font-family: system-ui, sans-serif; font-size: 20px; font-weight: bold; }
      .heading { fill: #ffffff; font-family: system-ui, sans-serif; font-size: 14px; font-weight: bold; }
      .text-md { fill: #cbd5e1; font-family: system-ui, sans-serif; font-size: 12px; }
      .text-sm { fill: #94a3b8; font-family: system-ui, sans-serif; font-size: 10px; }
      .text-muted { fill: #64748b; font-family: system-ui, sans-serif; font-size: 10px; }
      .annotation { fill: #8b5cf6; font-family: monospace; font-size: 10px; }
      .label-desktop { fill: #8b5cf6; font-family: monospace; font-size: 11px; font-weight: bold; }
      .label-mobile { fill: #d946ef; font-family: monospace; font-size: 11px; font-weight: bold; }
    </style>
  </defs>

  <!-- Background -->
  <rect width="1400" height="800" fill="url(#bgGrad)"/>

  <!-- Dot grid pattern -->
  <g opacity="0.05">
    <pattern id="dotgrid" width="30" height="30" patternUnits="userSpaceOnUse">
      <circle cx="15" cy="15" r="1" fill="#fff"/>
    </pattern>
    <rect width="1400" height="800" fill="url(#dotgrid)"/>
  </g>

  <!-- Accent line top -->
  <rect x="0" y="0" width="1400" height="3" fill="url(#accentGrad)"/>

  <!-- Title -->
  <text x="700" y="28" text-anchor="middle" font-family="system-ui, sans-serif" font-size="14" font-weight="600" fill="#64748b" letter-spacing="1">017 - COLORBLIND MODE SETTINGS</text>

  <!-- DESKTOP SECTION (left) -->
  <text x="40" y="52" class="label-desktop">DESKTOP</text>
  <g id="desktop-view">
    <!-- Desktop frame -->
    <rect x="40" y="60" width="900" height="680" rx="8" fill="#1e293b" stroke="#475569" stroke-width="1"/>

    <!-- Settings Header -->
    <rect x="40" y="60" width="900" height="50" rx="8" fill="#334155"/>
    <text x="60" y="92" class="heading-lg">Accessibility Settings</text>
    <text x="860" y="90" class="text-sm" fill="#8b5cf6">← Back</text>

    <!-- Left sidebar - Settings nav -->
    <rect x="50" y="120" width="180" height="610" rx="6" fill="#0f172a"/>
    <text x="70" y="148" class="heading">Settings</text>

    <!-- Nav items -->
    <rect x="60" y="160" width="160" height="36" rx="6" fill="#334155"/>
    <text x="80" y="183" class="text-md">General</text>

    <rect x="60" y="204" width="160" height="36" rx="6" fill="#334155"/>
    <text x="80" y="227" class="text-md">Theme</text>

    <rect x="60" y="248" width="160" height="36" rx="6" fill="#8b5cf6"/>
    <text x="80" y="271" class="text-md" fill="#fff">Accessibility</text>

    <rect x="60" y="292" width="160" height="36" rx="6" fill="#334155"/>
    <text x="80" y="315" class="text-md">Privacy</text>

    <!-- Main content area -->
    <rect x="240" y="120" width="690" height="610" rx="6" fill="#0f172a"/>

    <!-- Section: Color Vision -->
    <text x="260" y="152" class="heading">Color Vision Assistance</text>
    <text x="260" y="172" class="text-sm">Adjust colors to improve visibility for color vision deficiencies</text>

    <!-- Toggle: Enable Colorblind Mode -->
    <rect x="260" y="190" width="650" height="50" rx="6" fill="#334155"/>
    <text x="280" y="218" class="text-md">Enable Colorblind Mode</text>
    <text x="280" y="233" class="text-muted">Adjust interface colors for color vision deficiencies</text>
    <!-- Toggle switch (on state) -->
    <rect x="840" y="203" width="50" height="26" rx="13" fill="#8b5cf6"/>
    <circle cx="877" cy="216" r="10" fill="#fff"/>

    <!-- Colorblind Type Selection -->
    <text x="260" y="268" class="heading">Select Your Type</text>

    <!-- Type grid - Row 1 -->
    <g id="type-grid">
      <!-- Protanopia -->
      <rect x="260" y="280" width="155" height="70" rx="6" fill="#8b5cf6" stroke="#8b5cf6" stroke-width="2"/>
      <text x="280" y="305" class="heading">Protanopia</text>
      <text x="280" y="322" class="text-sm" fill="#cbd5e1">Red-blind (~1% males)</text>
      <circle cx="395" cy="300" r="8" fill="#22c55e"/>
      <text x="385" y="340" class="text-muted" fill="#cbd5e1">Selected</text>

      <!-- Protanomaly -->
      <rect x="425" y="280" width="155" height="70" rx="6" fill="#334155" stroke="#475569" stroke-width="1"/>
      <text x="445" y="305" class="heading">Protanomaly</text>
      <text x="445" y="322" class="text-sm">Red-weak (~1% males)</text>

      <!-- Deuteranopia -->
      <rect x="590" y="280" width="155" height="70" rx="6" fill="#334155" stroke="#475569" stroke-width="1"/>
      <text x="610" y="305" class="heading">Deuteranopia</text>
      <text x="610" y="322" class="text-sm">Green-blind (~1% males)</text>

      <!-- Deuteranomaly -->
      <rect x="755" y="280" width="155" height="70" rx="6" fill="#334155" stroke="#475569" stroke-width="1"/>
      <text x="775" y="305" class="heading">Deuteranomaly</text>
      <text x="775" y="322" class="text-sm">Green-weak (~5% males)</text>
    </g>

    <!-- Type grid - Row 2 -->
    <g id="type-grid-row2">
      <!-- Tritanopia -->
      <rect x="260" y="360" width="155" height="70" rx="6" fill="#334155" stroke="#475569" stroke-width="1"/>
      <text x="280" y="385" class="heading">Tritanopia</text>
      <text x="280" y="402" class="text-sm">Blue-blind (~0.001%)</text>

      <!-- Tritanomaly -->
      <rect x="425" y="360" width="155" height="70" rx="6" fill="#334155" stroke="#475569" stroke-width="1"/>
      <text x="445" y="385" class="heading">Tritanomaly</text>
      <text x="445" y="402" class="text-sm">Blue-weak (~0.01%)</text>

      <!-- Achromatopsia -->
      <rect x="590" y="360" width="155" height="70" rx="6" fill="#334155" stroke="#475569" stroke-width="1"/>
      <text x="610" y="385" class="heading">Achromatopsia</text>
      <text x="610" y="402" class="text-sm">Monochrome (~0.003%)</text>

      <!-- Achromatomaly -->
      <rect x="755" y="360" width="155" height="70" rx="6" fill="#334155" stroke="#475569" stroke-width="1"/>
      <text x="775" y="385" class="heading">Achromatomaly</text>
      <text x="775" y="402" class="text-sm">Partial color (rare)</text>
    </g>

    <!-- High Contrast Option -->
    <rect x="260" y="440" width="650" height="50" rx="6" fill="#334155" stroke="#eab308" stroke-width="1"/>
    <text x="280" y="468" class="text-md">High Contrast Mode</text>
    <text x="280" y="483" class="text-muted">Maximum color distinction for severe cases</text>
    <rect x="840" y="453" width="50" height="26" rx="13" fill="#475569"/>
    <circle cx="853" cy="466" r="10" fill="#fff"/>

    <!-- Pattern Overlays Section -->
    <text x="260" y="520" class="heading">Pattern Overlays (P2)</text>
    <text x="260" y="538" class="text-sm">Add visual patterns to distinguish status indicators beyond color</text>

    <rect x="260" y="552" width="650" height="50" rx="6" fill="#334155"/>
    <text x="280" y="580" class="text-md">Enable Pattern Overlays</text>
    <text x="280" y="595" class="text-muted">Add stripes, dots, hatching to status indicators</text>
    <rect x="840" y="565" width="50" height="26" rx="13" fill="#8b5cf6"/>
    <circle cx="877" cy="578" r="10" fill="#fff"/>

    <!-- Preview Section -->
    <text x="260" y="635" class="heading">Live Preview</text>

    <!-- Status indicator previews with patterns -->
    <g id="preview-indicators">
      <!-- Success with dots -->
      <rect x="260" y="650" width="80" height="32" rx="6" fill="#22c55e"/>
      <rect x="260" y="650" width="80" height="32" rx="6" fill="url(#dots)"/>
      <text x="300" y="671" text-anchor="middle" class="text-sm" fill="#fff">Success</text>

      <!-- Error with stripes -->
      <rect x="350" y="650" width="80" height="32" rx="6" fill="#ef4444"/>
      <rect x="350" y="650" width="80" height="32" rx="6" fill="url(#stripes)"/>
      <text x="390" y="671" text-anchor="middle" class="text-sm" fill="#fff">Error</text>

      <!-- Warning with hatching -->
      <rect x="440" y="650" width="80" height="32" rx="6" fill="#eab308"/>
      <rect x="440" y="650" width="80" height="32" rx="6" fill="url(#hatching)"/>
      <text x="480" y="671" text-anchor="middle" class="text-sm" fill="#fff">Warning</text>

      <!-- Info solid -->
      <rect x="530" y="650" width="80" height="32" rx="6" fill="#3b82f6"/>
      <text x="570" y="671" text-anchor="middle" class="text-sm" fill="#fff">Info</text>
    </g>

    <!-- Persistence indicator -->
    <rect x="260" y="700" width="650" height="24" rx="4" fill="#22c55e" fill-opacity="0.2"/>
    <text x="280" y="717" class="text-sm" fill="#22c55e">✓ Preferences saved automatically (FR-013)</text>
  </g>

  <!-- MOBILE SECTION (right) -->
  <text x="980" y="52" class="label-mobile">MOBILE</text>
  <g id="mobile-view" transform="translate(980, 60)">
    <!-- Phone frame -->
    <rect x="0" y="0" width="360" height="700" rx="24" fill="#1e293b" stroke="#475569" stroke-width="2"/>
    <!-- Screen area -->
    <rect x="10" y="10" width="340" height="680" rx="16" fill="#0f172a"/>
    <!-- Status bar -->
    <rect x="10" y="10" width="340" height="28" rx="16" fill="#1e293b"/>
    <text x="30" y="28" class="text-sm">9:41</text>
    <text x="310" y="28" class="text-sm">100%</text>

    <!-- Mobile header -->
    <rect x="10" y="38" width="340" height="44" fill="#334155"/>
    <text x="30" y="65" class="text-sm" fill="#8b5cf6">← Back</text>
    <text x="180" y="67" text-anchor="middle" class="heading">Accessibility</text>

    <!-- Mobile content -->
    <!-- Toggle -->
    <rect x="20" y="92" width="320" height="56" rx="8" fill="#334155"/>
    <text x="40" y="118" class="text-md">Enable Colorblind Mode</text>
    <text x="40" y="136" class="text-muted">Adjust colors for your vision</text>
    <rect x="280" y="108" width="44" height="24" rx="12" fill="#8b5cf6"/>
    <circle cx="312" cy="120" r="9" fill="#fff"/>

    <!-- Type selection (scrollable list) -->
    <text x="30" y="172" class="heading">Select Type</text>

    <!-- Scrollable type cards -->
    <rect x="20" y="185" width="320" height="54" rx="8" fill="#8b5cf6" stroke="#8b5cf6" stroke-width="2"/>
    <text x="40" y="210" class="text-md" fill="#fff">Protanopia</text>
    <text x="40" y="227" class="text-muted" fill="#cbd5e1">Red-blind (~1% of males)</text>
    <circle cx="310" cy="212" r="8" fill="#22c55e"/>

    <rect x="20" y="247" width="320" height="54" rx="8" fill="#334155"/>
    <text x="40" y="272" class="text-md">Protanomaly</text>
    <text x="40" y="289" class="text-muted">Red-weak (~1% of males)</text>

    <rect x="20" y="309" width="320" height="54" rx="8" fill="#334155"/>
    <text x="40" y="334" class="text-md">Deuteranopia</text>
    <text x="40" y="351" class="text-muted">Green-blind (~1% of males)</text>

    <rect x="20" y="371" width="320" height="54" rx="8" fill="#334155"/>
    <text x="40" y="396" class="text-md">Deuteranomaly</text>
    <text x="40" y="413" class="text-muted">Green-weak (~5% of males)</text>

    <!-- More indicator -->
    <text x="180" y="445" text-anchor="middle" class="text-muted">Scroll for more types ▼</text>

    <!-- High contrast toggle -->
    <rect x="20" y="460" width="320" height="50" rx="8" fill="#334155" stroke="#eab308" stroke-width="1"/>
    <text x="40" y="488" class="text-md">High Contrast</text>
    <rect x="280" y="476" width="44" height="24" rx="12" fill="#475569"/>
    <circle cx="292" cy="488" r="9" fill="#fff"/>

    <!-- Patterns toggle -->
    <rect x="20" y="520" width="320" height="50" rx="8" fill="#334155"/>
    <text x="40" y="548" class="text-md">Pattern Overlays</text>
    <rect x="280" y="536" width="44" height="24" rx="12" fill="#8b5cf6"/>
    <circle cx="312" cy="548" r="9" fill="#fff"/>

    <!-- Mobile preview -->
    <text x="30" y="598" class="heading">Preview</text>
    <g id="mobile-preview">
      <rect x="20" y="610" width="75" height="28" rx="6" fill="#22c55e"/>
      <rect x="20" y="610" width="75" height="28" rx="6" fill="url(#dots)"/>
      <text x="57" y="629" text-anchor="middle" class="text-sm" fill="#fff">OK</text>

      <rect x="103" y="610" width="75" height="28" rx="6" fill="#ef4444"/>
      <rect x="103" y="610" width="75" height="28" rx="6" fill="url(#stripes)"/>
      <text x="140" y="629" text-anchor="middle" class="text-sm" fill="#fff">Error</text>

      <rect x="186" y="610" width="75" height="28" rx="6" fill="#eab308"/>
      <rect x="186" y="610" width="75" height="28" rx="6" fill="url(#hatching)"/>
      <text x="223" y="629" text-anchor="middle" class="text-sm" fill="#fff">Warn</text>

      <rect x="269" y="610" width="75" height="28" rx="6" fill="#3b82f6"/>
      <text x="306" y="629" text-anchor="middle" class="text-sm" fill="#fff">Info</text>
    </g>

    <!-- Save indicator -->
    <rect x="20" y="655" width="320" height="28" rx="6" fill="#22c55e" fill-opacity="0.2"/>
    <text x="180" y="674" text-anchor="middle" class="text-sm" fill="#22c55e">✓ Auto-saved</text>
  </g>

  <!-- Version badge -->
  <rect x="1280" y="770" width="110" height="22" rx="11" fill="#334155"/>
  <text x="1335" y="785" text-anchor="middle" class="text-muted">v1.0 · 2025-12-31</text>
</svg>