<svg xmlns="http://www.w3.org/2000/svg" viewBox="0 0 1400 800" width="1400" height="800">
  <!-- ============================================================
       GENERATED BY: /wireframe skill
       SOURCE: features/enhancements/017-colorblind-mode/spec.md
       DATE: 2026-01-01
       THEME: Light (UX/Frontend) - v3 True Parchment
       DO NOT MANUALLY EDIT - Regenerate with /wireframe command
       ============================================================ -->
  <defs>
    <linearGradient id="bgGrad" x1="0%" y1="0%" x2="100%" y2="100%">
      <stop offset="0%" style="stop-color:#c7ddf5"/>
      <stop offset="100%" style="stop-color:#b8d4f0"/>
    </linearGradient>
    <linearGradient id="accentGrad" x1="0%" y1="0%" x2="100%" y2="0%">
      <stop offset="0%" style="stop-color:#8b5cf6"/>
      <stop offset="100%" style="stop-color:#d946ef"/>
    </linearGradient>
    <!-- Pattern definitions for accessibility -->
    <pattern id="stripes-success" patternUnits="userSpaceOnUse" width="6" height="6" patternTransform="rotate(45)">
      <line x1="0" y1="0" x2="0" y2="6" stroke="#fff" stroke-width="2" opacity="0.4"/>
    </pattern>
    <pattern id="dots-error" patternUnits="userSpaceOnUse" width="6" height="6">
      <circle cx="3" cy="3" r="1.5" fill="#fff" opacity="0.4"/>
    </pattern>
    <pattern id="hatching-warning" patternUnits="userSpaceOnUse" width="6" height="6">
      <path d="M0,0 L6,6 M-1,5 L1,7 M5,-1 L7,1" stroke="#fff" stroke-width="1" opacity="0.4"/>
    </pattern>
    <pattern id="crosshatch-info" patternUnits="userSpaceOnUse" width="8" height="8">
      <path d="M0,0 L8,8 M8,0 L0,8" stroke="#fff" stroke-width="1" opacity="0.3"/>
    </pattern>
    <style>
      .heading-lg { fill: #1a1a2e; font-family: system-ui, sans-serif; font-size: 24px; font-weight: 800; }
      .heading { fill: #1a1a2e; font-family: system-ui, sans-serif; font-size: 16px; font-weight: 700; }
      .text-md { fill: #2d3748; font-family: system-ui, sans-serif; font-size: 14px; font-weight: 500; }
      .text-sm { fill: #374151; font-family: system-ui, sans-serif; font-size: 12px; font-weight: 500; }
      .text-muted { fill: #4b5563; font-family: system-ui, sans-serif; font-size: 11px; font-weight: 500; }
      .annotation { fill: #6d28d9; font-family: monospace; font-size: 12px; font-weight: 600; }
      .label-section { fill: #8b5cf6; font-family: monospace; font-size: 13px; font-weight: bold; }
    </style>
  </defs>

  <!-- Background -->
  <rect width="1400" height="800" fill="url(#bgGrad)"/>

  <!-- Dot grid pattern -->
  <g opacity="0.35">
    <pattern id="dots" width="30" height="30" patternUnits="userSpaceOnUse">
      <circle cx="15" cy="15" r="1" fill="#6b8cba"/>
    </pattern>
    <rect width="1400" height="800" fill="url(#dots)"/>
  </g>

  <!-- Accent line top -->
  <rect x="0" y="0" width="1400" height="3" fill="url(#accentGrad)"/>

  <!-- Title -->
  <text x="700" y="28" text-anchor="middle" font-family="system-ui, sans-serif" font-size="14" font-weight="600" fill="#4b5563" letter-spacing="1">STATUS INDICATOR COMPARISON - COLORBLIND MODES</text>

  <!-- Main container -->
  <rect x="40" y="50" width="1320" height="710" rx="8" fill="#e8d4b8" stroke="#b8a080" stroke-width="1"/>

  <!-- Header -->
  <g transform="translate(60, 70)">
    <text x="0" y="0" class="heading-lg">How Status Indicators Appear Across Colorblind Modes</text>
    <text x="0" y="28" class="text-muted">All indicators remain distinguishable with proper color adjustments and optional patterns</text>
  </g>

  <!-- Column headers -->
  <g transform="translate(60, 120)">
    <rect x="0" y="0" width="160" height="35" rx="4" fill="#dcc8a8"/>
    <text x="80" y="24" text-anchor="middle" class="heading">Vision Type</text>

    <rect x="170" y="0" width="120" height="35" rx="4" fill="#22c55e" opacity="0.3"/>
    <text x="230" y="24" text-anchor="middle" class="text-md">Success</text>

    <rect x="300" y="0" width="120" height="35" rx="4" fill="#ef4444" opacity="0.3"/>
    <text x="360" y="24" text-anchor="middle" class="text-md">Error</text>

    <rect x="430" y="0" width="120" height="35" rx="4" fill="#eab308" opacity="0.3"/>
    <text x="490" y="24" text-anchor="middle" class="text-md">Warning</text>

    <rect x="560" y="0" width="120" height="35" rx="4" fill="#3b82f6" opacity="0.3"/>
    <text x="620" y="24" text-anchor="middle" class="text-md">Info</text>

    <!-- With patterns column -->
    <rect x="700" y="0" width="580" height="35" rx="4" fill="#8b5cf6" opacity="0.1"/>
    <text x="990" y="24" text-anchor="middle" class="text-md" fill="#8b5cf6">With Pattern Overlays</text>
  </g>

  <!-- Row 1: Normal Vision -->
  <g transform="translate(60, 170)">
    <rect x="0" y="0" width="160" height="55" rx="4" fill="#f5f0e6"/>
    <text x="15" y="25" class="text-md">Normal Vision</text>
    <text x="15" y="45" class="text-muted">Reference baseline</text>

    <!-- Standard colors -->
    <rect x="170" y="5" width="120" height="45" rx="4" fill="#22c55e"/>
    <text x="230" y="35" text-anchor="middle" class="text-sm" fill="#fff">✓</text>

    <rect x="300" y="5" width="120" height="45" rx="4" fill="#ef4444"/>
    <text x="360" y="35" text-anchor="middle" class="text-sm" fill="#fff">✕</text>

    <rect x="430" y="5" width="120" height="45" rx="4" fill="#eab308"/>
    <text x="490" y="35" text-anchor="middle" class="text-sm" fill="#1a1a2e">⚠</text>

    <rect x="560" y="5" width="120" height="45" rx="4" fill="#3b82f6"/>
    <text x="620" y="35" text-anchor="middle" class="text-sm" fill="#fff">ℹ</text>

    <!-- With patterns -->
    <rect x="700" y="5" width="130" height="45" rx="4" fill="#22c55e"/>
    <rect x="700" y="5" width="130" height="45" rx="4" fill="url(#stripes-success)"/>
    <text x="765" y="35" text-anchor="middle" class="text-sm" fill="#fff">✓ Stripes</text>

    <rect x="840" y="5" width="130" height="45" rx="4" fill="#ef4444"/>
    <rect x="840" y="5" width="130" height="45" rx="4" fill="url(#dots-error)"/>
    <text x="905" y="35" text-anchor="middle" class="text-sm" fill="#fff">✕ Dots</text>

    <rect x="980" y="5" width="130" height="45" rx="4" fill="#eab308"/>
    <rect x="980" y="5" width="130" height="45" rx="4" fill="url(#hatching-warning)"/>
    <text x="1045" y="35" text-anchor="middle" class="text-sm" fill="#1a1a2e">⚠ Hatch</text>

    <rect x="1120" y="5" width="130" height="45" rx="4" fill="#3b82f6"/>
    <rect x="1120" y="5" width="130" height="45" rx="4" fill="url(#crosshatch-info)"/>
    <text x="1185" y="35" text-anchor="middle" class="text-sm" fill="#fff">ℹ Cross</text>
  </g>

  <!-- Row 2: Deuteranopia (Green-blind) - Most common -->
  <g transform="translate(60, 240)">
    <rect x="0" y="0" width="160" height="55" rx="4" fill="#8b5cf6" opacity="0.1" stroke="#8b5cf6"/>
    <text x="15" y="25" class="text-md" fill="#8b5cf6">Deuteranopia</text>
    <text x="15" y="45" class="text-muted">Green-blind ~5-6%</text>

    <!-- Adjusted colors (shifted to be distinguishable) -->
    <rect x="170" y="5" width="120" height="45" rx="4" fill="#0ea5e9"/>
    <text x="230" y="35" text-anchor="middle" class="text-sm" fill="#fff">✓</text>

    <rect x="300" y="5" width="120" height="45" rx="4" fill="#f97316"/>
    <text x="360" y="35" text-anchor="middle" class="text-sm" fill="#fff">✕</text>

    <rect x="430" y="5" width="120" height="45" rx="4" fill="#fbbf24"/>
    <text x="490" y="35" text-anchor="middle" class="text-sm" fill="#1a1a2e">⚠</text>

    <rect x="560" y="5" width="120" height="45" rx="4" fill="#6366f1"/>
    <text x="620" y="35" text-anchor="middle" class="text-sm" fill="#fff">ℹ</text>

    <!-- With patterns -->
    <rect x="700" y="5" width="130" height="45" rx="4" fill="#0ea5e9"/>
    <rect x="700" y="5" width="130" height="45" rx="4" fill="url(#stripes-success)"/>
    <text x="765" y="35" text-anchor="middle" class="text-sm" fill="#fff">✓</text>

    <rect x="840" y="5" width="130" height="45" rx="4" fill="#f97316"/>
    <rect x="840" y="5" width="130" height="45" rx="4" fill="url(#dots-error)"/>
    <text x="905" y="35" text-anchor="middle" class="text-sm" fill="#fff">✕</text>

    <rect x="980" y="5" width="130" height="45" rx="4" fill="#fbbf24"/>
    <rect x="980" y="5" width="130" height="45" rx="4" fill="url(#hatching-warning)"/>
    <text x="1045" y="35" text-anchor="middle" class="text-sm" fill="#1a1a2e">⚠</text>

    <rect x="1120" y="5" width="130" height="45" rx="4" fill="#6366f1"/>
    <rect x="1120" y="5" width="130" height="45" rx="4" fill="url(#crosshatch-info)"/>
    <text x="1185" y="35" text-anchor="middle" class="text-sm" fill="#fff">ℹ</text>
  </g>

  <!-- Row 3: Protanopia (Red-blind) -->
  <g transform="translate(60, 310)">
    <rect x="0" y="0" width="160" height="55" rx="4" fill="#f5f0e6"/>
    <text x="15" y="25" class="text-md">Protanopia</text>
    <text x="15" y="45" class="text-muted">Red-blind ~1%</text>

    <rect x="170" y="5" width="120" height="45" rx="4" fill="#14b8a6"/>
    <text x="230" y="35" text-anchor="middle" class="text-sm" fill="#fff">✓</text>

    <rect x="300" y="5" width="120" height="45" rx="4" fill="#f59e0b"/>
    <text x="360" y="35" text-anchor="middle" class="text-sm" fill="#fff">✕</text>

    <rect x="430" y="5" width="120" height="45" rx="4" fill="#fcd34d"/>
    <text x="490" y="35" text-anchor="middle" class="text-sm" fill="#1a1a2e">⚠</text>

    <rect x="560" y="5" width="120" height="45" rx="4" fill="#8b5cf6"/>
    <text x="620" y="35" text-anchor="middle" class="text-sm" fill="#fff">ℹ</text>

    <!-- With patterns -->
    <rect x="700" y="5" width="130" height="45" rx="4" fill="#14b8a6"/>
    <rect x="700" y="5" width="130" height="45" rx="4" fill="url(#stripes-success)"/>
    <text x="765" y="35" text-anchor="middle" class="text-sm" fill="#fff">✓</text>

    <rect x="840" y="5" width="130" height="45" rx="4" fill="#f59e0b"/>
    <rect x="840" y="5" width="130" height="45" rx="4" fill="url(#dots-error)"/>
    <text x="905" y="35" text-anchor="middle" class="text-sm" fill="#fff">✕</text>

    <rect x="980" y="5" width="130" height="45" rx="4" fill="#fcd34d"/>
    <rect x="980" y="5" width="130" height="45" rx="4" fill="url(#hatching-warning)"/>
    <text x="1045" y="35" text-anchor="middle" class="text-sm" fill="#1a1a2e">⚠</text>

    <rect x="1120" y="5" width="130" height="45" rx="4" fill="#8b5cf6"/>
    <rect x="1120" y="5" width="130" height="45" rx="4" fill="url(#crosshatch-info)"/>
    <text x="1185" y="35" text-anchor="middle" class="text-sm" fill="#fff">ℹ</text>
  </g>

  <!-- Row 4: Tritanopia (Blue-blind) -->
  <g transform="translate(60, 380)">
    <rect x="0" y="0" width="160" height="55" rx="4" fill="#f5f0e6"/>
    <text x="15" y="25" class="text-md">Tritanopia</text>
    <text x="15" y="45" class="text-muted">Blue-blind ~0.001%</text>

    <rect x="170" y="5" width="120" height="45" rx="4" fill="#22c55e"/>
    <text x="230" y="35" text-anchor="middle" class="text-sm" fill="#fff">✓</text>

    <rect x="300" y="5" width="120" height="45" rx="4" fill="#dc2626"/>
    <text x="360" y="35" text-anchor="middle" class="text-sm" fill="#fff">✕</text>

    <rect x="430" y="5" width="120" height="45" rx="4" fill="#f97316"/>
    <text x="490" y="35" text-anchor="middle" class="text-sm" fill="#fff">⚠</text>

    <rect x="560" y="5" width="120" height="45" rx="4" fill="#ec4899"/>
    <text x="620" y="35" text-anchor="middle" class="text-sm" fill="#fff">ℹ</text>

    <!-- With patterns -->
    <rect x="700" y="5" width="130" height="45" rx="4" fill="#22c55e"/>
    <rect x="700" y="5" width="130" height="45" rx="4" fill="url(#stripes-success)"/>
    <text x="765" y="35" text-anchor="middle" class="text-sm" fill="#fff">✓</text>

    <rect x="840" y="5" width="130" height="45" rx="4" fill="#dc2626"/>
    <rect x="840" y="5" width="130" height="45" rx="4" fill="url(#dots-error)"/>
    <text x="905" y="35" text-anchor="middle" class="text-sm" fill="#fff">✕</text>

    <rect x="980" y="5" width="130" height="45" rx="4" fill="#f97316"/>
    <rect x="980" y="5" width="130" height="45" rx="4" fill="url(#hatching-warning)"/>
    <text x="1045" y="35" text-anchor="middle" class="text-sm" fill="#fff">⚠</text>

    <rect x="1120" y="5" width="130" height="45" rx="4" fill="#ec4899"/>
    <rect x="1120" y="5" width="130" height="45" rx="4" fill="url(#crosshatch-info)"/>
    <text x="1185" y="35" text-anchor="middle" class="text-sm" fill="#fff">ℹ</text>
  </g>

  <!-- Row 5: Achromatopsia (Complete) -->
  <g transform="translate(60, 450)">
    <rect x="0" y="0" width="160" height="55" rx="4" fill="#f5f0e6"/>
    <text x="15" y="25" class="text-md">Achromatopsia</text>
    <text x="15" y="45" class="text-muted">Complete ~0.003%</text>

    <!-- Grayscale with varying lightness -->
    <rect x="170" y="5" width="120" height="45" rx="4" fill="#737373"/>
    <text x="230" y="35" text-anchor="middle" class="text-sm" fill="#fff">✓</text>

    <rect x="300" y="5" width="120" height="45" rx="4" fill="#262626"/>
    <text x="360" y="35" text-anchor="middle" class="text-sm" fill="#fff">✕</text>

    <rect x="430" y="5" width="120" height="45" rx="4" fill="#a3a3a3"/>
    <text x="490" y="35" text-anchor="middle" class="text-sm" fill="#1a1a2e">⚠</text>

    <rect x="560" y="5" width="120" height="45" rx="4" fill="#525252"/>
    <text x="620" y="35" text-anchor="middle" class="text-sm" fill="#fff">ℹ</text>

    <!-- With patterns - ESSENTIAL for this mode -->
    <rect x="700" y="5" width="130" height="45" rx="4" fill="#737373"/>
    <rect x="700" y="5" width="130" height="45" rx="4" fill="url(#stripes-success)"/>
    <text x="765" y="35" text-anchor="middle" class="text-sm" fill="#fff">✓</text>

    <rect x="840" y="5" width="130" height="45" rx="4" fill="#262626"/>
    <rect x="840" y="5" width="130" height="45" rx="4" fill="url(#dots-error)"/>
    <text x="905" y="35" text-anchor="middle" class="text-sm" fill="#fff">✕</text>

    <rect x="980" y="5" width="130" height="45" rx="4" fill="#a3a3a3"/>
    <rect x="980" y="5" width="130" height="45" rx="4" fill="url(#hatching-warning)"/>
    <text x="1045" y="35" text-anchor="middle" class="text-sm" fill="#1a1a2e">⚠</text>

    <rect x="1120" y="5" width="130" height="45" rx="4" fill="#525252"/>
    <rect x="1120" y="5" width="130" height="45" rx="4" fill="url(#crosshatch-info)"/>
    <text x="1185" y="35" text-anchor="middle" class="text-sm" fill="#fff">ℹ</text>
  </g>

  <!-- Row 6: High Contrast Mode -->
  <g transform="translate(60, 520)">
    <rect x="0" y="0" width="160" height="55" rx="4" fill="#1a1a2e"/>
    <text x="15" y="25" class="text-md" fill="#fff">⚡ High Contrast</text>
    <text x="15" y="45" class="text-muted" fill="#94a3b8">Maximum clarity</text>

    <!-- Maximum contrast colors -->
    <rect x="170" y="5" width="120" height="45" rx="4" fill="#00ff00" stroke="#000" stroke-width="2"/>
    <text x="230" y="35" text-anchor="middle" class="text-sm" fill="#000">✓</text>

    <rect x="300" y="5" width="120" height="45" rx="4" fill="#ff0000" stroke="#fff" stroke-width="2"/>
    <text x="360" y="35" text-anchor="middle" class="text-sm" fill="#fff">✕</text>

    <rect x="430" y="5" width="120" height="45" rx="4" fill="#ffff00" stroke="#000" stroke-width="2"/>
    <text x="490" y="35" text-anchor="middle" class="text-sm" fill="#000">⚠</text>

    <rect x="560" y="5" width="120" height="45" rx="4" fill="#0000ff" stroke="#fff" stroke-width="2"/>
    <text x="620" y="35" text-anchor="middle" class="text-sm" fill="#fff">ℹ</text>

    <!-- With patterns -->
    <rect x="700" y="5" width="130" height="45" rx="4" fill="#00ff00" stroke="#000" stroke-width="2"/>
    <rect x="700" y="5" width="130" height="45" rx="4" fill="url(#stripes-success)"/>
    <text x="765" y="35" text-anchor="middle" class="text-sm" fill="#000">✓</text>

    <rect x="840" y="5" width="130" height="45" rx="4" fill="#ff0000" stroke="#fff" stroke-width="2"/>
    <rect x="840" y="5" width="130" height="45" rx="4" fill="url(#dots-error)"/>
    <text x="905" y="35" text-anchor="middle" class="text-sm" fill="#fff">✕</text>

    <rect x="980" y="5" width="130" height="45" rx="4" fill="#ffff00" stroke="#000" stroke-width="2"/>
    <rect x="980" y="5" width="130" height="45" rx="4" fill="url(#hatching-warning)"/>
    <text x="1045" y="35" text-anchor="middle" class="text-sm" fill="#000">⚠</text>

    <rect x="1120" y="5" width="130" height="45" rx="4" fill="#0000ff" stroke="#fff" stroke-width="2"/>
    <rect x="1120" y="5" width="130" height="45" rx="4" fill="url(#crosshatch-info)"/>
    <text x="1185" y="35" text-anchor="middle" class="text-sm" fill="#fff">ℹ</text>
  </g>

  <!-- Pattern legend -->
  <g transform="translate(60, 600)">
    <rect x="0" y="0" width="620" height="130" rx="8" fill="#dcc8a8"/>
    <text x="20" y="30" class="heading">Pattern Overlay Legend (FR-017)</text>

    <g transform="translate(20, 50)">
      <rect x="0" y="0" width="130" height="35" rx="4" fill="#94a3b8"/>
      <rect x="0" y="0" width="130" height="35" rx="4" fill="url(#stripes-success)"/>
      <text x="145" y="24" class="text-sm">Diagonal stripes = Success</text>
    </g>

    <g transform="translate(20, 90)">
      <rect x="0" y="0" width="130" height="35" rx="4" fill="#94a3b8"/>
      <rect x="0" y="0" width="130" height="35" rx="4" fill="url(#dots-error)"/>
      <text x="145" y="24" class="text-sm">Dots = Error</text>
    </g>

    <g transform="translate(350, 50)">
      <rect x="0" y="0" width="130" height="35" rx="4" fill="#94a3b8"/>
      <rect x="0" y="0" width="130" height="35" rx="4" fill="url(#hatching-warning)"/>
      <text x="145" y="24" class="text-sm">Hatching = Warning</text>
    </g>

    <g transform="translate(350, 90)">
      <rect x="0" y="0" width="130" height="35" rx="4" fill="#94a3b8"/>
      <rect x="0" y="0" width="130" height="35" rx="4" fill="url(#crosshatch-info)"/>
      <text x="145" y="24" class="text-sm">Crosshatch = Info</text>
    </g>
  </g>

  <!-- Success criteria -->
  <g transform="translate(700, 600)">
    <rect x="0" y="0" width="650" height="130" rx="8" fill="#22c55e" opacity="0.1" stroke="#22c55e"/>
    <text x="20" y="30" class="heading" fill="#166534">✓ Success Criteria Validation</text>

    <g transform="translate(20, 50)">
      <text x="0" y="0" class="text-sm" fill="#166534">SC-001: All 8 colorblind types + high contrast supported</text>
      <text x="0" y="22" class="text-sm" fill="#166534">SC-002: Success/Error/Warning/Info distinguishable in all modes</text>
      <text x="0" y="44" class="text-sm" fill="#166534">SC-003: Works with all themes (color adjustments adapt)</text>
      <text x="0" y="66" class="text-sm" fill="#166534">FR-014: All status indicators clearly distinguishable</text>
      <text x="0" y="88" class="text-sm" fill="#166534">FR-017: Pattern overlays provide non-color distinction</text>
    </g>
  </g>

  <!-- Annotations -->
  <g id="annotations">
    <rect x="5" y="240" width="50" height="35" rx="4" fill="#e8d4b8" stroke="#8b5cf6" stroke-width="1"/>
    <text x="30" y="262" text-anchor="middle" class="annotation">Most</text>
    <text x="30" y="274" text-anchor="middle" class="text-muted">common</text>
  </g>
</svg>
