<svg xmlns="http://www.w3.org/2000/svg" viewBox="0 0 1400 800" width="1400" height="800">
  <!-- ============================================================
       GENERATED BY: /wireframe skill
       SOURCE: features/enhancements/017-colorblind-mode/spec.md
       DATE: 2025-12-31
       DO NOT MANUALLY EDIT - Regenerate with /wireframe command
       ============================================================ -->
  <defs>
    <linearGradient id="bgGrad" x1="0%" y1="0%" x2="100%" y2="100%">
      <stop offset="0%" style="stop-color:#0f172a"/>
      <stop offset="100%" style="stop-color:#1e293b"/>
    </linearGradient>
    <linearGradient id="accentGrad" x1="0%" y1="0%" x2="100%" y2="0%">
      <stop offset="0%" style="stop-color:#8b5cf6"/>
      <stop offset="100%" style="stop-color:#d946ef"/>
    </linearGradient>
    <!-- Pattern definitions -->
    <pattern id="stripes" width="8" height="8" patternUnits="userSpaceOnUse" patternTransform="rotate(45)">
      <line x1="0" y1="0" x2="0" y2="8" stroke="#fff" stroke-width="2" opacity="0.3"/>
    </pattern>
    <pattern id="dots" width="8" height="8" patternUnits="userSpaceOnUse">
      <circle cx="4" cy="4" r="1.5" fill="#fff" opacity="0.4"/>
    </pattern>
    <pattern id="hatching" width="8" height="8" patternUnits="userSpaceOnUse">
      <path d="M0,0 L8,8 M8,0 L0,8" stroke="#fff" stroke-width="1" opacity="0.3"/>
    </pattern>
    <pattern id="diamonds" width="10" height="10" patternUnits="userSpaceOnUse">
      <path d="M5,0 L10,5 L5,10 L0,5 Z" fill="none" stroke="#fff" stroke-width="1" opacity="0.3"/>
    </pattern>
    <style>
      .heading-lg { fill: #ffffff; font-family: system-ui, sans-serif; font-size: 20px; font-weight: bold; }
      .heading { fill: #ffffff; font-family: system-ui, sans-serif; font-size: 14px; font-weight: bold; }
      .text-md { fill: #cbd5e1; font-family: system-ui, sans-serif; font-size: 12px; }
      .text-sm { fill: #94a3b8; font-family: system-ui, sans-serif; font-size: 10px; }
      .text-muted { fill: #64748b; font-family: system-ui, sans-serif; font-size: 10px; }
      .annotation { fill: #8b5cf6; font-family: monospace; font-size: 10px; }
      .label-section { fill: #d946ef; font-family: monospace; font-size: 11px; font-weight: bold; }
      .code { fill: #22c55e; font-family: monospace; font-size: 9px; }
    </style>
  </defs>

  <!-- Background -->
  <rect width="1400" height="800" fill="url(#bgGrad)"/>

  <!-- Dot grid pattern -->
  <g opacity="0.05">
    <pattern id="dotgrid" width="30" height="30" patternUnits="userSpaceOnUse">
      <circle cx="15" cy="15" r="1" fill="#fff"/>
    </pattern>
    <rect width="1400" height="800" fill="url(#dotgrid)"/>
  </g>

  <!-- Accent line top -->
  <rect x="0" y="0" width="1400" height="3" fill="url(#accentGrad)"/>

  <!-- Title -->
  <text x="700" y="28" text-anchor="middle" font-family="system-ui, sans-serif" font-size="14" font-weight="600" fill="#64748b" letter-spacing="1">017 - COLORBLIND MODE: STATUS INDICATORS &amp; SIMULATION</text>

  <!-- LEFT SECTION: Status Indicators with Patterns -->
  <g id="status-indicators" transform="translate(40, 60)">
    <text x="0" y="0" class="label-section">STATUS INDICATORS (FR-014, FR-017)</text>

    <!-- Section header -->
    <rect x="0" y="15" width="620" height="360" rx="8" fill="#1e293b" stroke="#475569" stroke-width="1"/>
    <text x="20" y="45" class="heading">Pattern Overlays for Color-Independent Recognition</text>
    <text x="20" y="65" class="text-sm">Each status uses both color AND a unique pattern for distinguishability</text>

    <!-- Row headers -->
    <text x="140" y="100" text-anchor="middle" class="text-md">Color Only</text>
    <text x="280" y="100" text-anchor="middle" class="text-md">With Pattern</text>
    <text x="440" y="100" text-anchor="middle" class="text-md">Pattern Only</text>
    <text x="570" y="100" text-anchor="middle" class="text-muted">Pattern</text>

    <!-- SUCCESS row -->
    <text x="20" y="140" class="heading" fill="#22c55e">Success</text>
    <text x="20" y="155" class="text-muted">Dots pattern</text>
    <!-- Color only -->
    <rect x="100" y="115" width="80" height="36" rx="6" fill="#22c55e"/>
    <text x="140" y="138" text-anchor="middle" class="text-sm" fill="#fff">Success</text>
    <!-- With pattern -->
    <rect x="240" y="115" width="80" height="36" rx="6" fill="#22c55e"/>
    <rect x="240" y="115" width="80" height="36" rx="6" fill="url(#dots)"/>
    <text x="280" y="138" text-anchor="middle" class="text-sm" fill="#fff">Success</text>
    <!-- Pattern only (grayscale) -->
    <rect x="400" y="115" width="80" height="36" rx="6" fill="#6b7280"/>
    <rect x="400" y="115" width="80" height="36" rx="6" fill="url(#dots)"/>
    <text x="440" y="138" text-anchor="middle" class="text-sm" fill="#fff">Success</text>
    <!-- Pattern description -->
    <circle cx="520" cy="133" r="3" fill="#fff" opacity="0.6"/>
    <circle cx="532" cy="133" r="3" fill="#fff" opacity="0.6"/>
    <circle cx="544" cy="133" r="3" fill="#fff" opacity="0.6"/>
    <text x="560" y="137" class="text-muted">●●●</text>

    <!-- ERROR row -->
    <text x="20" y="200" class="heading" fill="#ef4444">Error</text>
    <text x="20" y="215" class="text-muted">Stripes pattern</text>
    <!-- Color only -->
    <rect x="100" y="175" width="80" height="36" rx="6" fill="#ef4444"/>
    <text x="140" y="198" text-anchor="middle" class="text-sm" fill="#fff">Error</text>
    <!-- With pattern -->
    <rect x="240" y="175" width="80" height="36" rx="6" fill="#ef4444"/>
    <rect x="240" y="175" width="80" height="36" rx="6" fill="url(#stripes)"/>
    <text x="280" y="198" text-anchor="middle" class="text-sm" fill="#fff">Error</text>
    <!-- Pattern only (grayscale) -->
    <rect x="400" y="175" width="80" height="36" rx="6" fill="#6b7280"/>
    <rect x="400" y="175" width="80" height="36" rx="6" fill="url(#stripes)"/>
    <text x="440" y="198" text-anchor="middle" class="text-sm" fill="#fff">Error</text>
    <!-- Pattern description -->
    <text x="560" y="197" class="text-muted">/ / /</text>

    <!-- WARNING row -->
    <text x="20" y="260" class="heading" fill="#eab308">Warning</text>
    <text x="20" y="275" class="text-muted">Hatching pattern</text>
    <!-- Color only -->
    <rect x="100" y="235" width="80" height="36" rx="6" fill="#eab308"/>
    <text x="140" y="258" text-anchor="middle" class="text-sm" fill="#fff">Warning</text>
    <!-- With pattern -->
    <rect x="240" y="235" width="80" height="36" rx="6" fill="#eab308"/>
    <rect x="240" y="235" width="80" height="36" rx="6" fill="url(#hatching)"/>
    <text x="280" y="258" text-anchor="middle" class="text-sm" fill="#fff">Warning</text>
    <!-- Pattern only (grayscale) -->
    <rect x="400" y="235" width="80" height="36" rx="6" fill="#6b7280"/>
    <rect x="400" y="235" width="80" height="36" rx="6" fill="url(#hatching)"/>
    <text x="440" y="258" text-anchor="middle" class="text-sm" fill="#fff">Warning</text>
    <!-- Pattern description -->
    <text x="560" y="257" class="text-muted">X X X</text>

    <!-- INFO row -->
    <text x="20" y="320" class="heading" fill="#3b82f6">Info</text>
    <text x="20" y="335" class="text-muted">Diamonds pattern</text>
    <!-- Color only -->
    <rect x="100" y="295" width="80" height="36" rx="6" fill="#3b82f6"/>
    <text x="140" y="318" text-anchor="middle" class="text-sm" fill="#fff">Info</text>
    <!-- With pattern -->
    <rect x="240" y="295" width="80" height="36" rx="6" fill="#3b82f6"/>
    <rect x="240" y="295" width="80" height="36" rx="6" fill="url(#diamonds)"/>
    <text x="280" y="318" text-anchor="middle" class="text-sm" fill="#fff">Info</text>
    <!-- Pattern only (grayscale) -->
    <rect x="400" y="295" width="80" height="36" rx="6" fill="#6b7280"/>
    <rect x="400" y="295" width="80" height="36" rx="6" fill="url(#diamonds)"/>
    <text x="440" y="318" text-anchor="middle" class="text-sm" fill="#fff">Info</text>
    <!-- Pattern description -->
    <text x="560" y="317" class="text-muted">◇ ◇ ◇</text>

    <!-- Requirement callout -->
    <rect x="10" y="345" width="600" height="22" rx="4" fill="#8b5cf6" fill-opacity="0.2"/>
    <text x="20" y="360" class="annotation">FR-014: All status indicators distinguishable without relying on color alone</text>
  </g>

  <!-- RIGHT SECTION: Simulation Mode -->
  <g id="simulation-mode" transform="translate(700, 60)">
    <text x="0" y="0" class="label-section">SIMULATION MODE (FR-018, FR-019)</text>

    <!-- Main panel -->
    <rect x="0" y="15" width="660" height="360" rx="8" fill="#1e293b" stroke="#d946ef" stroke-width="2"/>
    <text x="20" y="45" class="heading">Developer Simulation Tool</text>
    <text x="20" y="65" class="text-sm">Test how your interface appears to users with different color vision</text>

    <!-- Simulation toggle -->
    <rect x="20" y="85" width="620" height="44" rx="6" fill="#334155"/>
    <text x="40" y="110" class="text-md">Enable Simulation Mode</text>
    <text x="40" y="125" class="text-muted">Applies CSS filter to show simulated view</text>
    <rect x="560" y="97" width="60" height="26" rx="13" fill="#d946ef"/>
    <circle cx="607" cy="110" r="10" fill="#fff"/>

    <!-- Type selector dropdown -->
    <text x="20" y="155" class="heading">Simulate Type</text>
    <rect x="20" y="165" width="300" height="36" rx="6" fill="#0f172a" stroke="#475569" stroke-width="1"/>
    <text x="40" y="188" class="text-md">Deuteranopia (Green-blind)</text>
    <text x="290" y="188" class="text-sm">▼</text>

    <!-- Quick switch buttons -->
    <text x="340" y="155" class="text-muted">Quick Switch:</text>
    <rect x="340" y="165" width="65" height="28" rx="4" fill="#334155"/>
    <text x="372" y="184" text-anchor="middle" class="text-sm">Proto</text>
    <rect x="410" y="165" width="65" height="28" rx="4" fill="#d946ef"/>
    <text x="442" y="184" text-anchor="middle" class="text-sm" fill="#fff">Deut</text>
    <rect x="480" y="165" width="65" height="28" rx="4" fill="#334155"/>
    <text x="512" y="184" text-anchor="middle" class="text-sm">Trit</text>
    <rect x="550" y="165" width="65" height="28" rx="4" fill="#334155"/>
    <text x="582" y="184" text-anchor="middle" class="text-sm">Mono</text>

    <!-- Preview area -->
    <text x="20" y="225" class="heading">Simulated Preview</text>

    <!-- Sample UI in simulated colors (deuteranopia simulation) -->
    <rect x="20" y="240" width="300" height="120" rx="6" fill="#0f172a" stroke="#475569" stroke-width="1"/>
    <text x="40" y="265" class="text-md" fill="#8b7355">Sample Dashboard</text>
    <!-- Simulated colors for deuteranopia -->
    <rect x="40" y="280" width="60" height="24" rx="4" fill="#8b7355"/>
    <text x="70" y="297" text-anchor="middle" class="text-sm" fill="#fff">OK</text>
    <rect x="110" y="280" width="60" height="24" rx="4" fill="#9b6b47"/>
    <text x="140" y="297" text-anchor="middle" class="text-sm" fill="#fff">Error</text>
    <rect x="180" y="280" width="60" height="24" rx="4" fill="#a89050"/>
    <text x="210" y="297" text-anchor="middle" class="text-sm" fill="#fff">Warn</text>
    <rect x="250" y="280" width="60" height="24" rx="4" fill="#5577aa"/>
    <text x="280" y="297" text-anchor="middle" class="text-sm" fill="#fff">Info</text>
    <text x="40" y="340" class="text-muted">↑ How it appears with Deuteranopia</text>

    <!-- Normal view comparison -->
    <rect x="340" y="240" width="300" height="120" rx="6" fill="#0f172a" stroke="#475569" stroke-width="1"/>
    <text x="360" y="265" class="text-md">Normal Vision</text>
    <!-- Normal colors -->
    <rect x="360" y="280" width="60" height="24" rx="4" fill="#22c55e"/>
    <text x="390" y="297" text-anchor="middle" class="text-sm" fill="#fff">OK</text>
    <rect x="430" y="280" width="60" height="24" rx="4" fill="#ef4444"/>
    <text x="460" y="297" text-anchor="middle" class="text-sm" fill="#fff">Error</text>
    <rect x="500" y="280" width="60" height="24" rx="4" fill="#eab308"/>
    <text x="530" y="297" text-anchor="middle" class="text-sm" fill="#fff">Warn</text>
    <rect x="570" y="280" width="60" height="24" rx="4" fill="#3b82f6"/>
    <text x="600" y="297" text-anchor="middle" class="text-sm" fill="#fff">Info</text>
    <text x="360" y="340" class="text-muted">↑ Standard view (reference)</text>
  </g>

  <!-- BOTTOM LEFT: Requirements Summary -->
  <g id="requirements" transform="translate(40, 450)">
    <text x="0" y="0" class="label-section">REQUIREMENTS MAPPING</text>

    <rect x="0" y="15" width="400" height="290" rx="8" fill="#1e293b" stroke="#475569" stroke-width="1"/>

    <!-- Type support -->
    <text x="20" y="45" class="heading">Colorblind Types (FR-001 to FR-009)</text>
    <g transform="translate(20, 55)">
      <rect x="0" y="0" width="170" height="20" rx="4" fill="#22c55e" fill-opacity="0.2"/>
      <text x="10" y="14" class="text-sm" fill="#22c55e">✓ Protanopia</text>
      <rect x="180" y="0" width="170" height="20" rx="4" fill="#22c55e" fill-opacity="0.2"/>
      <text x="190" y="14" class="text-sm" fill="#22c55e">✓ Protanomaly</text>
    </g>
    <g transform="translate(20, 80)">
      <rect x="0" y="0" width="170" height="20" rx="4" fill="#22c55e" fill-opacity="0.2"/>
      <text x="10" y="14" class="text-sm" fill="#22c55e">✓ Deuteranopia</text>
      <rect x="180" y="0" width="170" height="20" rx="4" fill="#22c55e" fill-opacity="0.2"/>
      <text x="190" y="14" class="text-sm" fill="#22c55e">✓ Deuteranomaly</text>
    </g>
    <g transform="translate(20, 105)">
      <rect x="0" y="0" width="170" height="20" rx="4" fill="#22c55e" fill-opacity="0.2"/>
      <text x="10" y="14" class="text-sm" fill="#22c55e">✓ Tritanopia</text>
      <rect x="180" y="0" width="170" height="20" rx="4" fill="#22c55e" fill-opacity="0.2"/>
      <text x="190" y="14" class="text-sm" fill="#22c55e">✓ Tritanomaly</text>
    </g>
    <g transform="translate(20, 130)">
      <rect x="0" y="0" width="170" height="20" rx="4" fill="#22c55e" fill-opacity="0.2"/>
      <text x="10" y="14" class="text-sm" fill="#22c55e">✓ Achromatopsia</text>
      <rect x="180" y="0" width="170" height="20" rx="4" fill="#22c55e" fill-opacity="0.2"/>
      <text x="190" y="14" class="text-sm" fill="#22c55e">✓ Achromatomaly</text>
    </g>
    <g transform="translate(20, 155)">
      <rect x="0" y="0" width="170" height="20" rx="4" fill="#eab308" fill-opacity="0.2"/>
      <text x="10" y="14" class="text-sm" fill="#eab308">✓ High Contrast</text>
    </g>

    <!-- UI Requirements -->
    <text x="20" y="200" class="heading">UI Requirements</text>
    <text x="30" y="220" class="text-sm">FR-010: Accessible toggle in settings</text>
    <text x="30" y="238" class="text-sm">FR-011: Clear descriptions for each type</text>
    <text x="30" y="256" class="text-sm">FR-012: Immediate changes (no reload)</text>
    <text x="30" y="274" class="text-sm">FR-013: Persist preferences across sessions</text>
    <text x="30" y="292" class="text-sm">FR-016: Works with all application themes</text>
  </g>

  <!-- BOTTOM CENTER: Success Criteria -->
  <g id="success-criteria" transform="translate(460, 450)">
    <text x="0" y="0" class="label-section">SUCCESS CRITERIA</text>

    <rect x="0" y="15" width="440" height="290" rx="8" fill="#1e293b" stroke="#475569" stroke-width="1"/>

    <g transform="translate(20, 40)">
      <circle cx="8" cy="4" r="6" fill="#22c55e"/>
      <text x="24" y="8" class="text-md">SC-001: All 9 modes supported</text>
    </g>
    <g transform="translate(20, 70)">
      <circle cx="8" cy="4" r="6" fill="#22c55e"/>
      <text x="24" y="8" class="text-md">SC-002: All status states distinguishable</text>
    </g>
    <g transform="translate(20, 100)">
      <circle cx="8" cy="4" r="6" fill="#22c55e"/>
      <text x="24" y="8" class="text-md">SC-003: 100% theme compatibility</text>
    </g>
    <g transform="translate(20, 130)">
      <circle cx="8" cy="4" r="6" fill="#22c55e"/>
      <text x="24" y="8" class="text-md">SC-004: Preferences persist correctly</text>
    </g>
    <g transform="translate(20, 160)">
      <circle cx="8" cy="4" r="6" fill="#22c55e"/>
      <text x="24" y="8" class="text-md">SC-005: Instant color adjustments</text>
    </g>
    <g transform="translate(20, 190)">
      <circle cx="8" cy="4" r="6" fill="#8b5cf6"/>
      <text x="24" y="8" class="text-md">SC-006: 95% user satisfaction target</text>
    </g>

    <!-- Implementation note -->
    <rect x="20" y="220" width="400" height="70" rx="6" fill="#0f172a"/>
    <text x="40" y="245" class="code">// CSS filter approach for simulation</text>
    <text x="40" y="260" class="code">filter: url(#colorblind-deuteranopia);</text>
    <text x="40" y="275" class="code">// Preferences stored in localStorage/Supabase</text>
  </g>

  <!-- BOTTOM RIGHT: Edge Cases -->
  <g id="edge-cases" transform="translate(920, 450)">
    <text x="0" y="0" class="label-section">EDGE CASES</text>

    <rect x="0" y="15" width="440" height="290" rx="8" fill="#1e293b" stroke="#eab308" stroke-width="1"/>

    <g transform="translate(20, 40)">
      <text x="0" y="8" class="text-sm" fill="#eab308">Multiple conditions?</text>
      <text x="170" y="8" class="text-sm">→ Use high contrast mode</text>
    </g>
    <g transform="translate(20, 65)">
      <text x="0" y="8" class="text-sm" fill="#eab308">Conflicts with custom theme?</text>
      <text x="170" y="8" class="text-sm">→ Accessibility takes priority</text>
    </g>
    <g transform="translate(20, 90)">
      <text x="0" y="8" class="text-sm" fill="#eab308">External images?</text>
      <text x="170" y="8" class="text-sm">→ Not modified (UI only)</text>
    </g>
    <g transform="translate(20, 115)">
      <text x="0" y="8" class="text-sm" fill="#eab308">Pattern conflicts?</text>
      <text x="170" y="8" class="text-sm">→ Designed to complement</text>
    </g>
    <g transform="translate(20, 140)">
      <text x="0" y="8" class="text-sm" fill="#eab308">Limited color device?</text>
      <text x="170" y="8" class="text-sm">→ Graceful degradation</text>
    </g>

    <!-- Dependencies -->
    <text x="20" y="180" class="heading">Dependencies</text>
    <text x="30" y="200" class="text-sm">• Theme system for multi-theme support</text>
    <text x="30" y="218" class="text-sm">• WCAG AAA compliance (Feature 001)</text>

    <!-- Prevalence stats -->
    <text x="20" y="250" class="heading">Target Users</text>
    <text x="30" y="270" class="text-md" fill="#8b5cf6">~8% of males</text>
    <text x="140" y="270" class="text-sm">have color vision deficiency</text>
    <text x="30" y="290" class="text-md" fill="#d946ef">~0.5% of females</text>
    <text x="160" y="290" class="text-sm">have color vision deficiency</text>
  </g>

  <!-- Version badge -->
  <rect x="1280" y="770" width="110" height="22" rx="11" fill="#334155"/>
  <text x="1335" y="785" text-anchor="middle" class="text-muted">v1.0 · 2025-12-31</text>
</svg>