<svg xmlns="http://www.w3.org/2000/svg" viewBox="0 0 1400 800" width="1400" height="800">
  <!-- ============================================================
       GENERATED BY: /wireframe skill
       SOURCE: features/enhancements/021-geolocation-map/spec.md
       DATE: 2026-01-01
       THEME: Light (UX/Frontend) - v3 True Parchment
       DO NOT MANUALLY EDIT - Regenerate with /wireframe command
       ============================================================ -->
  <defs>
    <linearGradient id="bgGrad" x1="0%" y1="0%" x2="100%" y2="100%">
      <stop offset="0%" style="stop-color:#c7ddf5"/>
      <stop offset="100%" style="stop-color:#b8d4f0"/>
    </linearGradient>
    <linearGradient id="accentGrad" x1="0%" y1="0%" x2="100%" y2="0%">
      <stop offset="0%" style="stop-color:#8b5cf6"/>
      <stop offset="100%" style="stop-color:#d946ef"/>
    </linearGradient>
    <linearGradient id="mapGrad" x1="0%" y1="0%" x2="100%" y2="100%">
      <stop offset="0%" style="stop-color:#e8f4ea"/>
      <stop offset="100%" style="stop-color:#d4e8d8"/>
    </linearGradient>
    <style>
      .heading-lg { fill: #1a1a2e; font-family: system-ui, sans-serif; font-size: 24px; font-weight: 800; }
      .heading { fill: #1a1a2e; font-family: system-ui, sans-serif; font-size: 16px; font-weight: 700; }
      .text-md { fill: #2d3748; font-family: system-ui, sans-serif; font-size: 14px; font-weight: 500; }
      .text-sm { fill: #374151; font-family: system-ui, sans-serif; font-size: 12px; font-weight: 500; }
      .text-muted { fill: #4b5563; font-family: system-ui, sans-serif; font-size: 11px; font-weight: 500; }
      .annotation { fill: #6d28d9; font-family: monospace; font-size: 12px; font-weight: 600; }
      .label-desktop { fill: #8b5cf6; font-family: monospace; font-size: 13px; font-weight: bold; }
      .label-mobile { fill: #d946ef; font-family: monospace; font-size: 13px; font-weight: bold; }
    </style>
  </defs>

  <!-- Background -->
  <rect width="1400" height="800" fill="url(#bgGrad)"/>

  <!-- Dot grid pattern -->
  <g opacity="0.35">
    <pattern id="dots" width="30" height="30" patternUnits="userSpaceOnUse">
      <circle cx="15" cy="15" r="1" fill="#6b8cba"/>
    </pattern>
    <rect width="1400" height="800" fill="url(#dots)"/>
  </g>

  <!-- Accent line top -->
  <rect x="0" y="0" width="1400" height="3" fill="url(#accentGrad)"/>

  <!-- Title -->
  <text x="700" y="28" text-anchor="middle" font-family="system-ui, sans-serif" font-size="14" font-weight="600" fill="#4b5563" letter-spacing="1">021 - GEOLOCATION MAP - MAIN INTERFACE</text>

  <!-- DESKTOP SECTION -->
  <text x="40" y="52" class="label-desktop">DESKTOP</text>
  <g id="desktop-view">
    <!-- Map container -->
    <rect x="40" y="60" width="900" height="680" rx="12" fill="#e8d4b8" stroke="#b8a080" stroke-width="2"/>

    <!-- Page header -->
    <rect x="50" y="70" width="880" height="50" rx="8" fill="#dcc8a8"/>
    <text x="70" y="102" class="heading">Interactive Map</text>
    <text x="800" y="100" text-anchor="end" class="text-sm">Explore locations</text>

    <!-- Map area -->
    <rect x="50" y="130" width="880" height="540" rx="8" fill="url(#mapGrad)" stroke="#b8a080" stroke-width="1"/>

    <!-- Map grid lines (cartographic) -->
    <g stroke="#a8c8b0" stroke-width="0.5" opacity="0.5">
      <line x1="50" y1="230" x2="930" y2="230"/>
      <line x1="50" y1="330" x2="930" y2="330"/>
      <line x1="50" y1="430" x2="930" y2="430"/>
      <line x1="50" y1="530" x2="930" y2="530"/>
      <line x1="150" y1="130" x2="150" y2="670"/>
      <line x1="270" y1="130" x2="270" y2="670"/>
      <line x1="390" y1="130" x2="390" y2="670"/>
      <line x1="510" y1="130" x2="510" y2="670"/>
      <line x1="630" y1="130" x2="630" y2="670"/>
      <line x1="750" y1="130" x2="750" y2="670"/>
      <line x1="870" y1="130" x2="870" y2="670"/>
    </g>

    <!-- Zoom controls (top-right of map) -->
    <g transform="translate(890, 150)">
      <rect x="0" y="0" width="40" height="90" rx="6" fill="#e8d4b8" stroke="#b8a080" stroke-width="1"/>
      <rect x="5" y="5" width="30" height="38" rx="4" fill="#f5f0e6" stroke="#b8a080" stroke-width="1"/>
      <text x="20" y="30" text-anchor="middle" class="heading">+</text>
      <rect x="5" y="47" width="30" height="38" rx="4" fill="#f5f0e6" stroke="#b8a080" stroke-width="1"/>
      <text x="20" y="72" text-anchor="middle" class="heading">−</text>
    </g>

    <!-- Location button (below zoom) -->
    <g transform="translate(890, 255)">
      <rect x="0" y="0" width="40" height="40" rx="6" fill="#8b5cf6" stroke="#7c3aed" stroke-width="1"/>
      <circle cx="20" cy="20" r="8" fill="none" stroke="#fff" stroke-width="2"/>
      <circle cx="20" cy="20" r="3" fill="#fff"/>
    </g>

    <!-- Custom markers on map -->
    <!-- Marker 1 -->
    <g transform="translate(250, 280)">
      <path d="M0,-25 C-15,-25 -20,-10 -20,0 C-20,15 0,30 0,30 C0,30 20,15 20,0 C20,-10 15,-25 0,-25" fill="#8b5cf6" stroke="#7c3aed" stroke-width="2"/>
      <circle cx="0" cy="-5" r="6" fill="#fff"/>
    </g>

    <!-- Marker 2 -->
    <g transform="translate(480, 380)">
      <path d="M0,-25 C-15,-25 -20,-10 -20,0 C-20,15 0,30 0,30 C0,30 20,15 20,0 C20,-10 15,-25 0,-25" fill="#d946ef" stroke="#c026d3" stroke-width="2"/>
      <circle cx="0" cy="-5" r="6" fill="#fff"/>
    </g>

    <!-- Marker 3 -->
    <g transform="translate(680, 500)">
      <path d="M0,-25 C-15,-25 -20,-10 -20,0 C-20,15 0,30 0,30 C0,30 20,15 20,0 C20,-10 15,-25 0,-25" fill="#22c55e" stroke="#16a34a" stroke-width="2"/>
      <circle cx="0" cy="-5" r="6" fill="#fff"/>
    </g>

    <!-- Open popup for Marker 2 -->
    <g transform="translate(480, 290)">
      <rect x="-100" y="0" width="200" height="80" rx="8" fill="#f5f0e6" stroke="#b8a080" stroke-width="1"/>
      <polygon points="-5,80 0,90 5,80" fill="#f5f0e6" stroke="#b8a080" stroke-width="1"/>
      <text x="0" y="25" text-anchor="middle" class="heading">Central Park</text>
      <text x="0" y="45" text-anchor="middle" class="text-sm">Popular destination</text>
      <text x="0" y="65" text-anchor="middle" class="text-muted">Click for details</text>
    </g>

    <!-- User location marker (blue pulsing dot) -->
    <g transform="translate(600, 420)">
      <circle cx="0" cy="0" r="20" fill="#3b82f6" opacity="0.2"/>
      <circle cx="0" cy="0" r="12" fill="#3b82f6" opacity="0.3"/>
      <circle cx="0" cy="0" r="8" fill="#3b82f6" stroke="#fff" stroke-width="2"/>
    </g>

    <!-- Scale bar -->
    <g transform="translate(60, 650)">
      <rect x="0" y="0" width="100" height="4" fill="#2d3748"/>
      <line x1="0" y1="-3" x2="0" y2="7" stroke="#2d3748" stroke-width="2"/>
      <line x1="100" y1="-3" x2="100" y2="7" stroke="#2d3748" stroke-width="2"/>
      <text x="50" y="20" text-anchor="middle" class="text-sm">500m</text>
    </g>

    <!-- Attribution -->
    <text x="920" y="660" text-anchor="end" class="text-muted">OpenStreetMap</text>

    <!-- Footer with keyboard hint -->
    <rect x="50" y="680" width="880" height="50" rx="8" fill="#dcc8a8"/>
    <text x="70" y="710" class="text-sm">Keyboard: Arrow keys to pan | +/- to zoom | Tab to markers</text>
    <text x="920" y="710" text-anchor="end" class="text-muted">FR-019: Full keyboard support</text>
  </g>

  <!-- MOBILE SECTION -->
  <text x="980" y="52" class="label-mobile">MOBILE</text>
  <g id="mobile-view" transform="translate(980, 60)">
    <!-- Phone frame -->
    <rect x="0" y="0" width="360" height="700" rx="24" fill="#c8b898" stroke="#a08860" stroke-width="2"/>
    <!-- Screen area -->
    <rect x="10" y="10" width="340" height="680" rx="16" fill="#e8d4b8"/>
    <!-- Status bar -->
    <rect x="10" y="10" width="340" height="28" rx="16" fill="#dcc8a8"/>
    <text x="30" y="28" class="text-sm">9:41</text>
    <text x="330" y="28" text-anchor="end" class="text-sm">100%</text>

    <!-- Header -->
    <rect x="20" y="48" width="320" height="44" rx="8" fill="#dcc8a8"/>
    <text x="40" y="76" class="heading">Map</text>

    <!-- Map area (full width on mobile) -->
    <rect x="20" y="102" width="320" height="520" rx="8" fill="url(#mapGrad)" stroke="#b8a080" stroke-width="1"/>

    <!-- Mobile map grid -->
    <g stroke="#a8c8b0" stroke-width="0.5" opacity="0.5">
      <line x1="20" y1="202" x2="340" y2="202"/>
      <line x1="20" y1="302" x2="340" y2="302"/>
      <line x1="20" y1="402" x2="340" y2="402"/>
      <line x1="20" y1="502" x2="340" y2="502"/>
      <line x1="100" y1="102" x2="100" y2="622"/>
      <line x1="180" y1="102" x2="180" y2="622"/>
      <line x1="260" y1="102" x2="260" y2="622"/>
    </g>

    <!-- Mobile zoom controls -->
    <g transform="translate(300, 120)">
      <rect x="0" y="0" width="36" height="80" rx="6" fill="#e8d4b8" stroke="#b8a080" stroke-width="1"/>
      <rect x="4" y="4" width="28" height="34" rx="4" fill="#f5f0e6"/>
      <text x="18" y="26" text-anchor="middle" class="heading">+</text>
      <rect x="4" y="42" width="28" height="34" rx="4" fill="#f5f0e6"/>
      <text x="18" y="64" text-anchor="middle" class="heading">−</text>
    </g>

    <!-- Mobile location button (FAB style) -->
    <g transform="translate(280, 570)">
      <circle cx="24" cy="24" r="24" fill="#8b5cf6" stroke="#7c3aed" stroke-width="1"/>
      <circle cx="24" cy="24" r="8" fill="none" stroke="#fff" stroke-width="2"/>
      <circle cx="24" cy="24" r="3" fill="#fff"/>
    </g>

    <!-- Mobile markers -->
    <g transform="translate(120, 280)">
      <path d="M0,-18 C-10,-18 -14,-7 -14,0 C-14,10 0,22 0,22 C0,22 14,10 14,0 C14,-7 10,-18 0,-18" fill="#8b5cf6" stroke="#7c3aed" stroke-width="1.5"/>
      <circle cx="0" cy="-4" r="4" fill="#fff"/>
    </g>

    <g transform="translate(200, 380)">
      <path d="M0,-18 C-10,-18 -14,-7 -14,0 C-14,10 0,22 0,22 C0,22 14,10 14,0 C14,-7 10,-18 0,-18" fill="#d946ef" stroke="#c026d3" stroke-width="1.5"/>
      <circle cx="0" cy="-4" r="4" fill="#fff"/>
    </g>

    <!-- User location on mobile -->
    <g transform="translate(180, 320)">
      <circle cx="0" cy="0" r="14" fill="#3b82f6" opacity="0.2"/>
      <circle cx="0" cy="0" r="8" fill="#3b82f6" opacity="0.3"/>
      <circle cx="0" cy="0" r="5" fill="#3b82f6" stroke="#fff" stroke-width="2"/>
    </g>

    <!-- Bottom nav hint -->
    <rect x="20" y="632" width="320" height="48" rx="8" fill="#dcc8a8"/>
    <text x="180" y="662" text-anchor="middle" class="text-sm">Pinch to zoom • Drag to pan</text>
  </g>

  <!-- Annotations -->
  <g id="annotations">
    <!-- Zoom control annotation -->
    <rect x="40" y="720" width="180" height="60" rx="6" fill="#e8d4b8" stroke="#8b5cf6" stroke-width="1"/>
    <text x="130" y="742" text-anchor="middle" class="annotation">FR-003</text>
    <text x="130" y="760" text-anchor="middle" class="text-muted">Zoom controls +</text>
    <text x="130" y="775" text-anchor="middle" class="text-muted">gesture support</text>

    <!-- Location button annotation -->
    <rect x="240" y="720" width="180" height="60" rx="6" fill="#e8d4b8" stroke="#8b5cf6" stroke-width="1"/>
    <text x="330" y="742" text-anchor="middle" class="annotation">FR-006</text>
    <text x="330" y="760" text-anchor="middle" class="text-muted">User-initiated</text>
    <text x="330" y="775" text-anchor="middle" class="text-muted">location request</text>

    <!-- Markers annotation -->
    <rect x="440" y="720" width="180" height="60" rx="6" fill="#e8d4b8" stroke="#8b5cf6" stroke-width="1"/>
    <text x="530" y="742" text-anchor="middle" class="annotation">FR-015, FR-016</text>
    <text x="530" y="760" text-anchor="middle" class="text-muted">Custom markers</text>
    <text x="530" y="775" text-anchor="middle" class="text-muted">with popups</text>

    <!-- User location annotation -->
    <rect x="640" y="720" width="180" height="60" rx="6" fill="#e8d4b8" stroke="#8b5cf6" stroke-width="1"/>
    <text x="730" y="742" text-anchor="middle" class="annotation">FR-008</text>
    <text x="730" y="760" text-anchor="middle" class="text-muted">User location</text>
    <text x="730" y="775" text-anchor="middle" class="text-muted">marker + accuracy</text>
  </g>
</svg>
