<!--
  GENERATED BY: /wireframe skill
  SOURCE: features/enhancements/021-geolocation-map/spec.md
  DATE: 2025-12-31
  DO NOT MANUALLY EDIT - Regenerate with /wireframe command
-->
<svg viewBox="0 0 1400 800" xmlns="http://www.w3.org/2000/svg">
  <defs>
    <linearGradient id="bgGrad" x1="0%" y1="0%" x2="100%" y2="100%">
      <stop offset="0%" style="stop-color:#0f172a"/>
      <stop offset="100%" style="stop-color:#1e293b"/>
    </linearGradient>
    <linearGradient id="mapGrad" x1="0%" y1="0%" x2="100%" y2="100%">
      <stop offset="0%" style="stop-color:#1e3a5f"/>
      <stop offset="100%" style="stop-color:#0f2744"/>
    </linearGradient>
    <filter id="glow">
      <feGaussianBlur stdDeviation="2" result="blur"/>
      <feMerge><feMergeNode in="blur"/><feMergeNode in="SourceGraphic"/></feMerge>
    </filter>
    <!-- Marker icon -->
    <symbol id="marker" viewBox="0 0 24 36">
      <path d="M12 0C5.4 0 0 5.4 0 12c0 9 12 24 12 24s12-15 12-24c0-6.6-5.4-12-12-12z" fill="#8b5cf6"/>
      <circle cx="12" cy="12" r="5" fill="#fff"/>
    </symbol>
    <symbol id="userMarker" viewBox="0 0 24 24">
      <circle cx="12" cy="12" r="10" fill="#3b82f6" stroke="#fff" stroke-width="3"/>
      <circle cx="12" cy="12" r="4" fill="#fff"/>
    </symbol>
  </defs>

  <!-- Background -->
  <rect width="1400" height="800" fill="url(#bgGrad)"/>

  <!-- Title -->
  <text x="700" y="35" fill="#fff" font-family="system-ui, sans-serif" font-size="20" font-weight="600" text-anchor="middle">021 - Geolocation Map: Interactive Map Interface</text>

  <!-- ==================== DESKTOP (Left Side) ==================== -->
  <text x="480" y="70" fill="#94a3b8" font-family="system-ui, sans-serif" font-size="14" text-anchor="middle">Desktop View (1200px)</text>

  <!-- Desktop Browser Frame -->
  <rect x="40" y="85" width="880" height="580" rx="8" fill="#1e293b" stroke="#475569" stroke-width="1"/>

  <!-- Browser Chrome -->
  <rect x="40" y="85" width="880" height="32" rx="8" fill="#334155"/>
  <rect x="40" y="109" width="880" height="8" fill="#334155"/>
  <circle cx="60" cy="101" r="6" fill="#ef4444"/>
  <circle cx="80" cy="101" r="6" fill="#f59e0b"/>
  <circle cx="100" cy="101" r="6" fill="#22c55e"/>
  <rect x="130" y="93" width="400" height="16" rx="8" fill="#1e293b"/>
  <text x="330" y="105" fill="#64748b" font-family="system-ui, sans-serif" font-size="10" text-anchor="middle">scripthammer.com/map</text>

  <!-- Page Header -->
  <rect x="50" y="125" width="860" height="50" fill="#1e293b"/>
  <text x="70" y="155" fill="#fff" font-family="system-ui, sans-serif" font-size="16" font-weight="600">ScriptHammer</text>
  <text x="200" y="155" fill="#94a3b8" font-family="system-ui, sans-serif" font-size="12">Map</text>
  <text x="250" y="155" fill="#94a3b8" font-family="system-ui, sans-serif" font-size="12">Features</text>
  <text x="310" y="155" fill="#94a3b8" font-family="system-ui, sans-serif" font-size="12">About</text>

  <!-- Map Container -->
  <rect x="60" y="185" width="700" height="460" rx="4" fill="url(#mapGrad)" stroke="#475569"/>

  <!-- Map Grid Lines (simulating tile grid) -->
  <g stroke="#334155" stroke-width="0.5" opacity="0.5">
    <line x1="60" y1="300" x2="760" y2="300"/>
    <line x1="60" y1="415" x2="760" y2="415"/>
    <line x1="60" y1="530" x2="760" y2="530"/>
    <line x1="235" y1="185" x2="235" y2="645"/>
    <line x1="410" y1="185" x2="410" y2="645"/>
    <line x1="585" y1="185" x2="585" y2="645"/>
  </g>

  <!-- Map Roads (decorative) -->
  <path d="M100 415 Q250 350 410 400 T700 380" stroke="#475569" stroke-width="3" fill="none"/>
  <path d="M235 200 L235 640" stroke="#475569" stroke-width="4"/>
  <path d="M300 280 L550 480" stroke="#475569" stroke-width="2"/>

  <!-- Map Labels -->
  <text x="320" y="320" fill="#64748b" font-family="system-ui, sans-serif" font-size="11">Downtown</text>
  <text x="550" y="500" fill="#64748b" font-family="system-ui, sans-serif" font-size="11">Industrial</text>
  <text x="150" y="550" fill="#64748b" font-family="system-ui, sans-serif" font-size="11">Riverside</text>

  <!-- Custom Markers (POIs) -->
  <use href="#marker" x="280" y="340" width="24" height="36"/>
  <use href="#marker" x="420" y="380" width="24" height="36"/>
  <use href="#marker" x="180" y="450" width="24" height="36"/>
  <use href="#marker" x="620" y="320" width="24" height="36"/>

  <!-- User Location Marker -->
  <use href="#userMarker" x="388" y="398" width="24" height="24"/>
  <!-- Accuracy radius -->
  <circle cx="400" cy="410" r="35" fill="#3b82f6" fill-opacity="0.15" stroke="#3b82f6" stroke-width="1" stroke-dasharray="4,2"/>

  <!-- Active Marker Popup -->
  <g transform="translate(268, 280)">
    <rect x="0" y="0" width="160" height="50" rx="4" fill="#334155" stroke="#475569"/>
    <polygon points="20,50 30,60 40,50" fill="#334155"/>
    <text x="10" y="18" fill="#fff" font-family="system-ui, sans-serif" font-size="12" font-weight="600">City Hall</text>
    <text x="10" y="35" fill="#94a3b8" font-family="system-ui, sans-serif" font-size="10">123 Main St • Open Now</text>
    <text x="130" y="18" fill="#64748b" font-family="system-ui, sans-serif" font-size="14" cursor="pointer">×</text>
  </g>

  <!-- Zoom Controls -->
  <g transform="translate(720, 200)">
    <rect x="0" y="0" width="32" height="70" rx="4" fill="#334155" stroke="#475569"/>
    <text x="16" y="24" fill="#fff" font-family="system-ui, sans-serif" font-size="18" text-anchor="middle" font-weight="600">+</text>
    <line x1="4" y1="35" x2="28" y2="35" stroke="#475569"/>
    <text x="16" y="58" fill="#fff" font-family="system-ui, sans-serif" font-size="18" text-anchor="middle" font-weight="600">−</text>
  </g>

  <!-- Location Button (granted state) -->
  <g transform="translate(720, 285)">
    <rect x="0" y="0" width="32" height="32" rx="4" fill="#3b82f6" stroke="#60a5fa"/>
    <circle cx="16" cy="16" r="6" fill="none" stroke="#fff" stroke-width="2"/>
    <circle cx="16" cy="16" r="2" fill="#fff"/>
    <line x1="16" y1="6" x2="16" y2="10" stroke="#fff" stroke-width="2"/>
    <line x1="16" y1="22" x2="16" y2="26" stroke="#fff" stroke-width="2"/>
    <line x1="6" y1="16" x2="10" y2="16" stroke="#fff" stroke-width="2"/>
    <line x1="22" y1="16" x2="26" y2="16" stroke="#fff" stroke-width="2"/>
  </g>

  <!-- Sidebar Panel -->
  <rect x="770" y="185" width="140" height="460" rx="4" fill="#1e293b" stroke="#475569"/>
  <text x="840" y="210" fill="#fff" font-family="system-ui, sans-serif" font-size="13" font-weight="600" text-anchor="middle">Locations</text>

  <!-- Sidebar List Items -->
  <g transform="translate(780, 225)">
    <rect x="0" y="0" width="120" height="45" rx="4" fill="#334155"/>
    <circle cx="18" cy="22" r="8" fill="#8b5cf6"/>
    <text x="35" y="18" fill="#fff" font-family="system-ui, sans-serif" font-size="11" font-weight="500">City Hall</text>
    <text x="35" y="32" fill="#94a3b8" font-family="system-ui, sans-serif" font-size="9">Government</text>
  </g>
  <g transform="translate(780, 280)">
    <rect x="0" y="0" width="120" height="45" rx="4" fill="#1e293b" stroke="#475569"/>
    <circle cx="18" cy="22" r="8" fill="#8b5cf6"/>
    <text x="35" y="18" fill="#fff" font-family="system-ui, sans-serif" font-size="11" font-weight="500">Library</text>
    <text x="35" y="32" fill="#94a3b8" font-family="system-ui, sans-serif" font-size="9">Education</text>
  </g>
  <g transform="translate(780, 335)">
    <rect x="0" y="0" width="120" height="45" rx="4" fill="#1e293b" stroke="#475569"/>
    <circle cx="18" cy="22" r="8" fill="#8b5cf6"/>
    <text x="35" y="18" fill="#fff" font-family="system-ui, sans-serif" font-size="11" font-weight="500">Park</text>
    <text x="35" y="32" fill="#94a3b8" font-family="system-ui, sans-serif" font-size="9">Recreation</text>
  </g>
  <g transform="translate(780, 390)">
    <rect x="0" y="0" width="120" height="45" rx="4" fill="#1e293b" stroke="#475569"/>
    <circle cx="18" cy="22" r="8" fill="#8b5cf6"/>
    <text x="35" y="18" fill="#fff" font-family="system-ui, sans-serif" font-size="11" font-weight="500">Museum</text>
    <text x="35" y="32" fill="#94a3b8" font-family="system-ui, sans-serif" font-size="9">Culture</text>
  </g>

  <!-- Your Location Section -->
  <rect x="780" y="460" width="120" height="50" rx="4" fill="#1e3a5f"/>
  <text x="840" y="480" fill="#3b82f6" font-family="system-ui, sans-serif" font-size="10" text-anchor="middle">Your Location</text>
  <text x="840" y="498" fill="#fff" font-family="system-ui, sans-serif" font-size="11" text-anchor="middle" font-weight="500">Centered ✓</text>

  <!-- Scale Bar -->
  <g transform="translate(80, 610)">
    <line x1="0" y1="0" x2="100" y2="0" stroke="#94a3b8" stroke-width="2"/>
    <line x1="0" y1="-5" x2="0" y2="5" stroke="#94a3b8" stroke-width="2"/>
    <line x1="100" y1="-5" x2="100" y2="5" stroke="#94a3b8" stroke-width="2"/>
    <text x="50" y="15" fill="#64748b" font-family="system-ui, sans-serif" font-size="10" text-anchor="middle">500m</text>
  </g>

  <!-- Attribution -->
  <text x="740" y="630" fill="#475569" font-family="system-ui, sans-serif" font-size="9" text-anchor="end">© OpenStreetMap contributors</text>

  <!-- ==================== MOBILE (Right Side) ==================== -->
  <text x="1120" y="70" fill="#94a3b8" font-family="system-ui, sans-serif" font-size="14" text-anchor="middle">Mobile View (375px)</text>

  <!-- Mobile Phone Frame -->
  <rect x="940" y="85" width="360" height="700" rx="24" fill="#1e293b" stroke="#475569" stroke-width="2"/>

  <!-- Mobile Status Bar -->
  <rect x="950" y="95" width="340" height="24" rx="0" fill="#0f172a"/>
  <text x="970" y="112" fill="#fff" font-family="system-ui, sans-serif" font-size="11">9:41</text>
  <text x="1260" y="112" fill="#fff" font-family="system-ui, sans-serif" font-size="11" text-anchor="end">100%</text>

  <!-- Mobile Map (Full Screen) -->
  <rect x="950" y="119" width="340" height="550" fill="url(#mapGrad)"/>

  <!-- Mobile Map Grid -->
  <g stroke="#334155" stroke-width="0.5" opacity="0.5">
    <line x1="950" y1="250" x2="1290" y2="250"/>
    <line x1="950" y1="380" x2="1290" y2="380"/>
    <line x1="950" y1="510" x2="1290" y2="510"/>
    <line x1="1063" y1="119" x2="1063" y2="669"/>
    <line x1="1177" y1="119" x2="1177" y2="669"/>
  </g>

  <!-- Mobile Roads -->
  <path d="M980 380 Q1063 320 1177 360 T1280 350" stroke="#475569" stroke-width="2" fill="none"/>
  <path d="M1063 130 L1063 660" stroke="#475569" stroke-width="3"/>

  <!-- Mobile Labels -->
  <text x="1030" y="300" fill="#64748b" font-family="system-ui, sans-serif" font-size="10">Downtown</text>
  <text x="1180" y="480" fill="#64748b" font-family="system-ui, sans-serif" font-size="10">East Side</text>

  <!-- Mobile Markers -->
  <use href="#marker" x="1010" y="320" width="20" height="30"/>
  <use href="#marker" x="1140" y="380" width="20" height="30"/>
  <use href="#marker" x="1200" y="270" width="20" height="30"/>

  <!-- Mobile User Location -->
  <use href="#userMarker" x="1088" y="358" width="24" height="24"/>
  <circle cx="1100" cy="370" r="28" fill="#3b82f6" fill-opacity="0.15" stroke="#3b82f6" stroke-width="1" stroke-dasharray="3,2"/>

  <!-- Mobile Zoom Controls -->
  <g transform="translate(1250, 180)">
    <rect x="0" y="0" width="28" height="60" rx="4" fill="#334155" stroke="#475569"/>
    <text x="14" y="22" fill="#fff" font-family="system-ui, sans-serif" font-size="16" text-anchor="middle" font-weight="600">+</text>
    <line x1="4" y1="30" x2="24" y2="30" stroke="#475569"/>
    <text x="14" y="50" fill="#fff" font-family="system-ui, sans-serif" font-size="16" text-anchor="middle" font-weight="600">−</text>
  </g>

  <!-- Mobile Location FAB -->
  <g transform="translate(1250, 255)">
    <circle cx="14" cy="14" r="22" fill="#3b82f6" stroke="#60a5fa" stroke-width="2"/>
    <circle cx="14" cy="14" r="6" fill="none" stroke="#fff" stroke-width="2"/>
    <circle cx="14" cy="14" r="2" fill="#fff"/>
    <line x1="14" y1="4" x2="14" y2="8" stroke="#fff" stroke-width="2"/>
    <line x1="14" y1="20" x2="14" y2="24" stroke="#fff" stroke-width="2"/>
    <line x1="4" y1="14" x2="8" y2="14" stroke="#fff" stroke-width="2"/>
    <line x1="20" y1="14" x2="24" y2="14" stroke="#fff" stroke-width="2"/>
  </g>

  <!-- Mobile Bottom Popup (marker selected) -->
  <rect x="960" y="580" width="320" height="80" rx="12" fill="#334155"/>
  <rect x="1100" y="586" width="40" height="4" rx="2" fill="#475569"/>
  <use href="#marker" x="975" y="600" width="20" height="30"/>
  <text x="1010" y="612" fill="#fff" font-family="system-ui, sans-serif" font-size="13" font-weight="600">City Hall</text>
  <text x="1010" y="630" fill="#94a3b8" font-family="system-ui, sans-serif" font-size="11">123 Main Street</text>
  <text x="1010" y="648" fill="#22c55e" font-family="system-ui, sans-serif" font-size="10">Open • Closes 5pm</text>
  <rect x="1220" y="605" width="50" height="30" rx="4" fill="#8b5cf6"/>
  <text x="1245" y="625" fill="#fff" font-family="system-ui, sans-serif" font-size="11" text-anchor="middle">Go</text>

  <!-- Mobile Bottom Nav Bar -->
  <rect x="950" y="669" width="340" height="56" fill="#1e293b" stroke="#475569" stroke-width="1"/>
  <g transform="translate(990, 680)">
    <rect x="0" y="0" width="50" height="35" rx="4" fill="#334155"/>
    <text x="25" y="20" fill="#8b5cf6" font-family="system-ui, sans-serif" font-size="10" text-anchor="middle">🗺️</text>
    <text x="25" y="32" fill="#8b5cf6" font-family="system-ui, sans-serif" font-size="9" text-anchor="middle">Map</text>
  </g>
  <g transform="translate(1070, 680)">
    <text x="25" y="20" fill="#64748b" font-family="system-ui, sans-serif" font-size="10" text-anchor="middle">📍</text>
    <text x="25" y="32" fill="#64748b" font-family="system-ui, sans-serif" font-size="9" text-anchor="middle">Places</text>
  </g>
  <g transform="translate(1150, 680)">
    <text x="25" y="20" fill="#64748b" font-family="system-ui, sans-serif" font-size="10" text-anchor="middle">⚙️</text>
    <text x="25" y="32" fill="#64748b" font-family="system-ui, sans-serif" font-size="9" text-anchor="middle">Settings</text>
  </g>
  <g transform="translate(1230, 680)">
    <text x="25" y="20" fill="#64748b" font-family="system-ui, sans-serif" font-size="10" text-anchor="middle">ℹ️</text>
    <text x="25" y="32" fill="#64748b" font-family="system-ui, sans-serif" font-size="9" text-anchor="middle">About</text>
  </g>

  <!-- Pinch gesture hint -->
  <text x="1120" y="545" fill="#64748b" font-family="system-ui, sans-serif" font-size="10" text-anchor="middle" opacity="0.7">Pinch to zoom • Drag to pan</text>

  <!-- Legend -->
  <g transform="translate(40, 690)">
    <text x="0" y="0" fill="#94a3b8" font-family="system-ui, sans-serif" font-size="11" font-weight="600">Legend:</text>
    <use href="#marker" x="70" y="-18" width="16" height="24"/>
    <text x="95" y="0" fill="#94a3b8" font-family="system-ui, sans-serif" font-size="10">POI Marker</text>
    <use href="#userMarker" x="175" y="-12" width="16" height="16"/>
    <text x="200" y="0" fill="#94a3b8" font-family="system-ui, sans-serif" font-size="10">Your Location</text>
    <circle cx="290" cy="-4" r="8" fill="#3b82f6" fill-opacity="0.3" stroke="#3b82f6" stroke-dasharray="2,1"/>
    <text x="305" y="0" fill="#94a3b8" font-family="system-ui, sans-serif" font-size="10">Accuracy Radius</text>
  </g>

  <!-- Feature Callouts -->
  <g transform="translate(40, 730)">
    <text x="0" y="0" fill="#8b5cf6" font-family="system-ui, sans-serif" font-size="11">FR-001-005</text>
    <text x="75" y="0" fill="#64748b" font-family="system-ui, sans-serif" font-size="10">Interactive map without location permission required</text>
  </g>
  <g transform="translate(40, 750)">
    <text x="0" y="0" fill="#8b5cf6" font-family="system-ui, sans-serif" font-size="11">FR-006-009</text>
    <text x="75" y="0" fill="#64748b" font-family="system-ui, sans-serif" font-size="10">User-initiated location, centering on permission grant</text>
  </g>
  <g transform="translate(40, 770)">
    <text x="0" y="0" fill="#8b5cf6" font-family="system-ui, sans-serif" font-size="11">FR-015-018</text>
    <text x="75" y="0" fill="#64748b" font-family="system-ui, sans-serif" font-size="10">Custom markers with popup content and styling</text>
  </g>

  <!-- Watermark -->
  <text x="1380" y="790" fill="#475569" font-family="system-ui, sans-serif" font-size="9" text-anchor="end">ScriptHammer Wireframe</text>
</svg>
