<!--
  GENERATED BY: /wireframe skill
  SOURCE: features/enhancements/021-geolocation-map/spec.md
  DATE: 2025-12-31
  DO NOT MANUALLY EDIT - Regenerate with /wireframe command
-->
<svg viewBox="0 0 1400 800" xmlns="http://www.w3.org/2000/svg">
  <defs>
    <linearGradient id="bgGrad" x1="0%" y1="0%" x2="100%" y2="100%">
      <stop offset="0%" style="stop-color:#0f172a"/>
      <stop offset="100%" style="stop-color:#1e293b"/>
    </linearGradient>
    <filter id="glow">
      <feGaussianBlur stdDeviation="2" result="blur"/>
      <feMerge><feMergeNode in="blur"/><feMergeNode in="SourceGraphic"/></feMerge>
    </filter>
    <marker id="arrowhead" markerWidth="10" markerHeight="7" refX="9" refY="3.5" orient="auto">
      <polygon points="0 0, 10 3.5, 0 7" fill="#8b5cf6"/>
    </marker>
  </defs>

  <!-- Background -->
  <rect width="1400" height="800" fill="url(#bgGrad)"/>

  <!-- Title -->
  <text x="700" y="35" fill="#fff" font-family="system-ui, sans-serif" font-size="20" font-weight="600" text-anchor="middle">021 - Geolocation Map: Permission Flow &amp; States</text>

  <!-- ==================== STATE MACHINE DIAGRAM (Top) ==================== -->
  <text x="700" y="70" fill="#94a3b8" font-family="system-ui, sans-serif" font-size="14" text-anchor="middle">Permission State Machine (FR-011 to FR-014)</text>

  <!-- State: Not Requested -->
  <g transform="translate(100, 100)">
    <rect x="0" y="0" width="180" height="80" rx="8" fill="#1e293b" stroke="#8b5cf6" stroke-width="2"/>
    <circle cx="15" cy="15" r="8" fill="#8b5cf6"/>
    <text x="90" y="35" fill="#fff" font-family="system-ui, sans-serif" font-size="13" font-weight="600" text-anchor="middle">NOT_REQUESTED</text>
    <text x="90" y="55" fill="#94a3b8" font-family="system-ui, sans-serif" font-size="10" text-anchor="middle">Initial state</text>
    <text x="90" y="68" fill="#64748b" font-family="system-ui, sans-serif" font-size="9" text-anchor="middle">Location button: "Show My Location"</text>
  </g>

  <!-- Arrow: Not Requested -> Requesting -->
  <line x1="280" y1="140" x2="370" y2="140" stroke="#8b5cf6" stroke-width="2" marker-end="url(#arrowhead)"/>
  <text x="325" y="130" fill="#d946ef" font-family="system-ui, sans-serif" font-size="9" text-anchor="middle">User clicks button</text>

  <!-- State: Requesting (browser dialog) -->
  <g transform="translate(380, 100)">
    <rect x="0" y="0" width="180" height="80" rx="8" fill="#1e293b" stroke="#f59e0b" stroke-width="2" stroke-dasharray="5,3"/>
    <text x="90" y="35" fill="#fff" font-family="system-ui, sans-serif" font-size="13" font-weight="600" text-anchor="middle">REQUESTING</text>
    <text x="90" y="55" fill="#f59e0b" font-family="system-ui, sans-serif" font-size="10" text-anchor="middle">Browser dialog shown</text>
    <text x="90" y="68" fill="#64748b" font-family="system-ui, sans-serif" font-size="9" text-anchor="middle">Awaiting user decision...</text>
  </g>

  <!-- Arrow: Requesting -> Granted -->
  <path d="M560 120 Q620 100 660 100 L750 100" stroke="#22c55e" stroke-width="2" fill="none" marker-end="url(#arrowhead)"/>
  <text x="660" y="90" fill="#22c55e" font-family="system-ui, sans-serif" font-size="9">Allow</text>

  <!-- Arrow: Requesting -> Denied -->
  <path d="M560 160 Q620 180 660 180 L750 180" stroke="#ef4444" stroke-width="2" fill="none" marker-end="url(#arrowhead)"/>
  <text x="660" y="195" fill="#ef4444" font-family="system-ui, sans-serif" font-size="9">Deny</text>

  <!-- State: Granted -->
  <g transform="translate(760, 70)">
    <rect x="0" y="0" width="180" height="60" rx="8" fill="#1e293b" stroke="#22c55e" stroke-width="2"/>
    <text x="90" y="25" fill="#fff" font-family="system-ui, sans-serif" font-size="13" font-weight="600" text-anchor="middle">GRANTED</text>
    <text x="90" y="45" fill="#22c55e" font-family="system-ui, sans-serif" font-size="10" text-anchor="middle">Location available</text>
  </g>

  <!-- State: Denied -->
  <g transform="translate(760, 150)">
    <rect x="0" y="0" width="180" height="60" rx="8" fill="#1e293b" stroke="#ef4444" stroke-width="2"/>
    <text x="90" y="25" fill="#fff" font-family="system-ui, sans-serif" font-size="13" font-weight="600" text-anchor="middle">DENIED</text>
    <text x="90" y="45" fill="#ef4444" font-family="system-ui, sans-serif" font-size="10" text-anchor="middle">Location blocked</text>
  </g>

  <!-- Arrow: Granted -> loop (location updates) -->
  <path d="M940 100 Q1000 100 1000 50 Q1000 10 940 10 L820 10 Q760 10 760 50 L760 70" stroke="#22c55e" stroke-width="1" fill="none" marker-end="url(#arrowhead)" stroke-dasharray="4,2"/>
  <text x="880" y="25" fill="#22c55e" font-family="system-ui, sans-serif" font-size="8" text-anchor="middle">Periodic updates</text>

  <!-- Arrow: Denied -> blocked info -->
  <path d="M940 180 Q1020 180 1020 240" stroke="#64748b" stroke-width="1" fill="none" marker-end="url(#arrowhead)"/>
  <text x="1080" y="230" fill="#64748b" font-family="system-ui, sans-serif" font-size="9" text-anchor="middle">Show help</text>

  <!-- Browser Setting Help Box -->
  <g transform="translate(960, 245)">
    <rect x="0" y="0" width="160" height="50" rx="4" fill="#1e293b" stroke="#475569"/>
    <text x="80" y="20" fill="#94a3b8" font-family="system-ui, sans-serif" font-size="9" text-anchor="middle">Browser Settings Help</text>
    <text x="80" y="35" fill="#64748b" font-family="system-ui, sans-serif" font-size="8" text-anchor="middle">Link to enable location</text>
  </g>

  <!-- ==================== UI STATES (Bottom 3/4) ==================== -->
  <line x1="40" y1="240" x2="1360" y2="240" stroke="#334155" stroke-width="1"/>

  <!-- State 1: Not Requested -->
  <text x="225" y="270" fill="#fff" font-family="system-ui, sans-serif" font-size="14" font-weight="600" text-anchor="middle">State: Not Requested</text>

  <!-- Mini map panel -->
  <g transform="translate(60, 290)">
    <rect x="0" y="0" width="330" height="260" rx="8" fill="#1e293b" stroke="#475569"/>

    <!-- Map area -->
    <rect x="10" y="10" width="230" height="200" rx="4" fill="#0f2744"/>
    <path d="M30 110 Q80 80 140 100 T220 90" stroke="#334155" stroke-width="2" fill="none"/>
    <path d="M120 20 L120 200" stroke="#334155" stroke-width="2"/>
    <text x="120" y="120" fill="#475569" font-family="system-ui, sans-serif" font-size="10" text-anchor="middle">Default View</text>

    <!-- Location Button (inactive/prompt state) -->
    <g transform="translate(200, 20)">
      <rect x="0" y="0" width="30" height="30" rx="4" fill="#334155" stroke="#475569"/>
      <circle cx="15" cy="15" r="6" fill="none" stroke="#94a3b8" stroke-width="1.5"/>
      <circle cx="15" cy="15" r="2" fill="#94a3b8"/>
      <line x1="15" y1="6" x2="15" y2="9" stroke="#94a3b8" stroke-width="1.5"/>
      <line x1="15" y1="21" x2="15" y2="24" stroke="#94a3b8" stroke-width="1.5"/>
      <line x1="6" y1="15" x2="9" y2="15" stroke="#94a3b8" stroke-width="1.5"/>
      <line x1="21" y1="15" x2="24" y2="15" stroke="#94a3b8" stroke-width="1.5"/>
    </g>

    <!-- Tooltip -->
    <g transform="translate(135, 55)">
      <rect x="0" y="0" width="110" height="24" rx="4" fill="#334155" stroke="#475569"/>
      <text x="55" y="16" fill="#94a3b8" font-family="system-ui, sans-serif" font-size="9" text-anchor="middle">Show My Location</text>
    </g>

    <!-- Status bar -->
    <rect x="10" y="220" width="230" height="30" rx="4" fill="#0f172a"/>
    <circle cx="25" cy="235" r="5" fill="#475569"/>
    <text x="38" y="239" fill="#64748b" font-family="system-ui, sans-serif" font-size="10">Location: Not shared</text>

    <!-- Feature label -->
    <text x="170" y="480" fill="#8b5cf6" font-family="system-ui, sans-serif" font-size="9" text-anchor="middle">FR-006: User-initiated only</text>
  </g>

  <!-- State 2: Browser Dialog (Requesting) -->
  <text x="700" y="270" fill="#fff" font-family="system-ui, sans-serif" font-size="14" font-weight="600" text-anchor="middle">State: Browser Dialog</text>

  <g transform="translate(530, 290)">
    <rect x="0" y="0" width="330" height="260" rx="8" fill="#1e293b" stroke="#475569"/>

    <!-- Map area (dimmed) -->
    <rect x="10" y="10" width="230" height="200" rx="4" fill="#0f2744" opacity="0.5"/>
    <path d="M30 110 Q80 80 140 100 T220 90" stroke="#334155" stroke-width="2" fill="none" opacity="0.5"/>

    <!-- Location Button (highlighted) -->
    <g transform="translate(200, 20)">
      <rect x="0" y="0" width="30" height="30" rx="4" fill="#334155" stroke="#8b5cf6" stroke-width="2"/>
      <circle cx="15" cy="15" r="6" fill="none" stroke="#8b5cf6" stroke-width="1.5"/>
      <circle cx="15" cy="15" r="2" fill="#8b5cf6"/>
    </g>

    <!-- Browser Permission Dialog -->
    <g transform="translate(40, 60)">
      <rect x="0" y="0" width="200" height="90" rx="8" fill="#334155" stroke="#f59e0b" stroke-width="2"/>
      <text x="100" y="20" fill="#fff" font-family="system-ui, sans-serif" font-size="11" font-weight="600" text-anchor="middle">scripthammer.com wants to</text>
      <text x="100" y="36" fill="#94a3b8" font-family="system-ui, sans-serif" font-size="10" text-anchor="middle">Know your location</text>

      <!-- Buttons -->
      <rect x="15" y="55" width="80" height="26" rx="4" fill="#475569"/>
      <text x="55" y="72" fill="#fff" font-family="system-ui, sans-serif" font-size="10" text-anchor="middle">Block</text>
      <rect x="105" y="55" width="80" height="26" rx="4" fill="#3b82f6"/>
      <text x="145" y="72" fill="#fff" font-family="system-ui, sans-serif" font-size="10" text-anchor="middle">Allow</text>
    </g>

    <!-- Dimmed overlay indicator -->
    <rect x="10" y="10" width="230" height="200" rx="4" fill="#0f172a" opacity="0.4"/>

    <!-- Status bar -->
    <rect x="10" y="220" width="230" height="30" rx="4" fill="#0f172a"/>
    <circle cx="25" cy="235" r="5" fill="#f59e0b"/>
    <text x="38" y="239" fill="#f59e0b" font-family="system-ui, sans-serif" font-size="10">Awaiting permission...</text>

    <!-- Feature label -->
    <text x="170" y="480" fill="#8b5cf6" font-family="system-ui, sans-serif" font-size="9" text-anchor="middle">FR-007: Native browser dialog</text>
  </g>

  <!-- State 3: Granted -->
  <text x="1175" y="270" fill="#fff" font-family="system-ui, sans-serif" font-size="14" font-weight="600" text-anchor="middle">State: Granted</text>

  <g transform="translate(1000, 290)">
    <rect x="0" y="0" width="330" height="260" rx="8" fill="#1e293b" stroke="#475569"/>

    <!-- Map area centered on user -->
    <rect x="10" y="10" width="230" height="200" rx="4" fill="#0f2744"/>
    <path d="M30 110 Q80 80 140 100 T220 90" stroke="#334155" stroke-width="2" fill="none"/>
    <path d="M120 20 L120 200" stroke="#334155" stroke-width="2"/>

    <!-- User location marker (centered) -->
    <circle cx="120" cy="105" r="20" fill="#3b82f6" fill-opacity="0.15" stroke="#3b82f6" stroke-dasharray="3,2"/>
    <circle cx="120" cy="105" r="8" fill="#3b82f6" stroke="#fff" stroke-width="2"/>
    <circle cx="120" cy="105" r="3" fill="#fff"/>

    <!-- Location Button (active) -->
    <g transform="translate(200, 20)">
      <rect x="0" y="0" width="30" height="30" rx="4" fill="#3b82f6"/>
      <circle cx="15" cy="15" r="6" fill="none" stroke="#fff" stroke-width="1.5"/>
      <circle cx="15" cy="15" r="2" fill="#fff"/>
      <line x1="15" y1="6" x2="15" y2="9" stroke="#fff" stroke-width="1.5"/>
      <line x1="15" y1="21" x2="15" y2="24" stroke="#fff" stroke-width="1.5"/>
      <line x1="6" y1="15" x2="9" y2="15" stroke="#fff" stroke-width="1.5"/>
      <line x1="21" y1="15" x2="24" y2="15" stroke="#fff" stroke-width="1.5"/>
    </g>

    <!-- Status bar -->
    <rect x="10" y="220" width="230" height="30" rx="4" fill="#0f172a"/>
    <circle cx="25" cy="235" r="5" fill="#22c55e"/>
    <text x="38" y="239" fill="#22c55e" font-family="system-ui, sans-serif" font-size="10">Location: Active</text>
    <text x="155" y="239" fill="#64748b" font-family="system-ui, sans-serif" font-size="9">±15m accuracy</text>

    <!-- Feature label -->
    <text x="170" y="480" fill="#8b5cf6" font-family="system-ui, sans-serif" font-size="9" text-anchor="middle">FR-008/009: Marker + Center</text>
  </g>

  <!-- ==================== DENIED STATE (Bottom Row) ==================== -->
  <line x1="40" y1="570" x2="1360" y2="570" stroke="#334155" stroke-width="1"/>

  <text x="300" y="600" fill="#fff" font-family="system-ui, sans-serif" font-size="14" font-weight="600" text-anchor="middle">State: Denied - Map Still Functional</text>

  <g transform="translate(60, 620)">
    <rect x="0" y="0" width="480" height="150" rx="8" fill="#1e293b" stroke="#475569"/>

    <!-- Map area (still works) -->
    <rect x="10" y="10" width="330" height="130" rx="4" fill="#0f2744"/>
    <path d="M30 70 Q100 40 200 60 T320 50" stroke="#334155" stroke-width="2" fill="none"/>
    <text x="170" y="80" fill="#475569" font-family="system-ui, sans-serif" font-size="10" text-anchor="middle">Map fully functional</text>

    <!-- POI Markers still work -->
    <circle cx="100" cy="50" r="6" fill="#8b5cf6"/>
    <circle cx="200" cy="70" r="6" fill="#8b5cf6"/>
    <circle cx="280" cy="45" r="6" fill="#8b5cf6"/>

    <!-- Location Button (disabled) -->
    <g transform="translate(300, 15)">
      <rect x="0" y="0" width="30" height="30" rx="4" fill="#1e293b" stroke="#ef4444" stroke-dasharray="3,2"/>
      <circle cx="15" cy="15" r="6" fill="none" stroke="#64748b" stroke-width="1.5"/>
      <circle cx="15" cy="15" r="2" fill="#64748b"/>
      <line x1="8" y1="8" x2="22" y2="22" stroke="#ef4444" stroke-width="2"/>
    </g>

    <!-- Help panel -->
    <rect x="350" y="10" width="120" height="130" rx="4" fill="#0f172a" stroke="#ef4444"/>
    <text x="410" y="35" fill="#ef4444" font-family="system-ui, sans-serif" font-size="10" font-weight="600" text-anchor="middle">Location Blocked</text>
    <text x="410" y="55" fill="#94a3b8" font-family="system-ui, sans-serif" font-size="8" text-anchor="middle">You've blocked location</text>
    <text x="410" y="68" fill="#94a3b8" font-family="system-ui, sans-serif" font-size="8" text-anchor="middle">access for this site.</text>
    <text x="410" y="90" fill="#64748b" font-family="system-ui, sans-serif" font-size="8" text-anchor="middle">To enable, click the</text>
    <text x="410" y="103" fill="#64748b" font-family="system-ui, sans-serif" font-size="8" text-anchor="middle">🔒 in your browser</text>
    <text x="410" y="116" fill="#64748b" font-family="system-ui, sans-serif" font-size="8" text-anchor="middle">address bar.</text>
    <rect x="365" y="122" width="90" height="14" rx="2" fill="#334155"/>
    <text x="410" y="132" fill="#94a3b8" font-family="system-ui, sans-serif" font-size="8" text-anchor="middle">Learn more →</text>
  </g>

  <!-- Feature Labels for Denied State -->
  <g transform="translate(560, 630)">
    <text x="0" y="0" fill="#8b5cf6" font-family="system-ui, sans-serif" font-size="11">FR-010</text>
    <text x="55" y="0" fill="#64748b" font-family="system-ui, sans-serif" font-size="10">Graceful degradation - all non-location features work</text>
  </g>
  <g transform="translate(560, 655)">
    <text x="0" y="0" fill="#8b5cf6" font-family="system-ui, sans-serif" font-size="11">FR-012</text>
    <text x="55" y="0" fill="#64748b" font-family="system-ui, sans-serif" font-size="10">Appropriate UI for denied state (disabled button + reason)</text>
  </g>
  <g transform="translate(560, 680)">
    <text x="0" y="0" fill="#8b5cf6" font-family="system-ui, sans-serif" font-size="11">FR-013</text>
    <text x="55" y="0" fill="#64748b" font-family="system-ui, sans-serif" font-size="10">Permission state persisted across sessions</text>
  </g>
  <g transform="translate(560, 705)">
    <text x="0" y="0" fill="#8b5cf6" font-family="system-ui, sans-serif" font-size="11">FR-014</text>
    <text x="55" y="0" fill="#64748b" font-family="system-ui, sans-serif" font-size="10">Guidance for re-enabling (browser settings help)</text>
  </g>

  <!-- Edge Cases Box -->
  <g transform="translate(950, 620)">
    <rect x="0" y="0" width="400" height="150" rx="8" fill="#1e293b" stroke="#475569"/>
    <text x="200" y="25" fill="#fff" font-family="system-ui, sans-serif" font-size="12" font-weight="600" text-anchor="middle">Edge Case Handling</text>

    <g transform="translate(15, 45)">
      <circle cx="8" cy="6" r="4" fill="#f59e0b"/>
      <text x="20" y="10" fill="#94a3b8" font-family="system-ui, sans-serif" font-size="10">Slow connection: Progressive tile loading with skeleton</text>
    </g>
    <g transform="translate(15, 70)">
      <circle cx="8" cy="6" r="4" fill="#f59e0b"/>
      <text x="20" y="10" fill="#94a3b8" font-family="system-ui, sans-serif" font-size="10">No geolocation API: Location button hidden</text>
    </g>
    <g transform="translate(15, 95)">
      <circle cx="8" cy="6" r="4" fill="#f59e0b"/>
      <text x="20" y="10" fill="#94a3b8" font-family="system-ui, sans-serif" font-size="10">Poor GPS accuracy: Show accuracy radius indicator</text>
    </g>
    <g transform="translate(15, 120)">
      <circle cx="8" cy="6" r="4" fill="#f59e0b"/>
      <text x="20" y="10" fill="#94a3b8" font-family="system-ui, sans-serif" font-size="10">Timeout: Friendly error, retry option available</text>
    </g>
  </g>

  <!-- Watermark -->
  <text x="1380" y="790" fill="#475569" font-family="system-ui, sans-serif" font-size="9" text-anchor="end">ScriptHammer Wireframe</text>
</svg>
