<svg xmlns="http://www.w3.org/2000/svg" viewBox="0 0 1400 800" width="1400" height="800">
  <!-- ============================================================
       GENERATED BY: /wireframe skill
       SOURCE: features/enhancements/021-geolocation-map/spec.md
       DATE: 2026-01-01
       THEME: Light (UX/Frontend) - v3 True Parchment
       DO NOT MANUALLY EDIT - Regenerate with /wireframe command
       ============================================================ -->
  <defs>
    <linearGradient id="bgGrad" x1="0%" y1="0%" x2="100%" y2="100%">
      <stop offset="0%" style="stop-color:#c7ddf5"/>
      <stop offset="100%" style="stop-color:#b8d4f0"/>
    </linearGradient>
    <linearGradient id="accentGrad" x1="0%" y1="0%" x2="100%" y2="0%">
      <stop offset="0%" style="stop-color:#8b5cf6"/>
      <stop offset="100%" style="stop-color:#d946ef"/>
    </linearGradient>
    <linearGradient id="mapGrad" x1="0%" y1="0%" x2="100%" y2="100%">
      <stop offset="0%" style="stop-color:#e8f4ea"/>
      <stop offset="100%" style="stop-color:#d4e8d8"/>
    </linearGradient>
    <style>
      .heading-lg { fill: #1a1a2e; font-family: system-ui, sans-serif; font-size: 24px; font-weight: 800; }
      .heading { fill: #1a1a2e; font-family: system-ui, sans-serif; font-size: 16px; font-weight: 700; }
      .text-md { fill: #2d3748; font-family: system-ui, sans-serif; font-size: 14px; font-weight: 500; }
      .text-sm { fill: #374151; font-family: system-ui, sans-serif; font-size: 12px; font-weight: 500; }
      .text-muted { fill: #4b5563; font-family: system-ui, sans-serif; font-size: 11px; font-weight: 500; }
      .annotation { fill: #6d28d9; font-family: monospace; font-size: 12px; font-weight: 600; }
      .label-desktop { fill: #8b5cf6; font-family: monospace; font-size: 13px; font-weight: bold; }
      .label-mobile { fill: #d946ef; font-family: monospace; font-size: 13px; font-weight: bold; }
      .state-label { fill: #8b5cf6; font-family: monospace; font-size: 11px; font-weight: bold; text-transform: uppercase; }
    </style>
  </defs>

  <!-- Background -->
  <rect width="1400" height="800" fill="url(#bgGrad)"/>

  <!-- Dot grid pattern -->
  <g opacity="0.35">
    <pattern id="dots" width="30" height="30" patternUnits="userSpaceOnUse">
      <circle cx="15" cy="15" r="1" fill="#6b8cba"/>
    </pattern>
    <rect width="1400" height="800" fill="url(#dots)"/>
  </g>

  <!-- Accent line top -->
  <rect x="0" y="0" width="1400" height="3" fill="url(#accentGrad)"/>

  <!-- Title -->
  <text x="700" y="28" text-anchor="middle" font-family="system-ui, sans-serif" font-size="14" font-weight="600" fill="#4b5563" letter-spacing="1">021 - GEOLOCATION MAP - PERMISSION STATES</text>

  <!-- STATE 1: Not Requested (Default) -->
  <g id="state-not-requested" transform="translate(40, 50)">
    <text x="0" y="15" class="state-label">STATE 1: NOT YET REQUESTED</text>

    <!-- Mini map container -->
    <rect x="0" y="25" width="300" height="200" rx="8" fill="#e8d4b8" stroke="#b8a080" stroke-width="1"/>
    <rect x="10" y="35" width="280" height="150" rx="6" fill="url(#mapGrad)" stroke="#b8a080" stroke-width="1"/>

    <!-- Map grid -->
    <g stroke="#a8c8b0" stroke-width="0.5" opacity="0.5">
      <line x1="10" y1="85" x2="290" y2="85"/>
      <line x1="10" y1="135" x2="290" y2="135"/>
      <line x1="100" y1="35" x2="100" y2="185"/>
      <line x1="200" y1="35" x2="200" y2="185"/>
    </g>

    <!-- Location button - active state -->
    <g transform="translate(255, 50)">
      <rect x="0" y="0" width="32" height="32" rx="6" fill="#8b5cf6" stroke="#7c3aed" stroke-width="1"/>
      <circle cx="16" cy="16" r="6" fill="none" stroke="#fff" stroke-width="2"/>
      <circle cx="16" cy="16" r="2" fill="#fff"/>
    </g>

    <!-- Caption -->
    <text x="150" y="210" text-anchor="middle" class="text-sm">Map works without location</text>
    <text x="150" y="225" text-anchor="middle" class="text-muted">Click button to request</text>
  </g>

  <!-- Arrow 1 to 2 -->
  <g transform="translate(350, 140)">
    <line x1="0" y1="0" x2="30" y2="0" stroke="#8b5cf6" stroke-width="2" marker-end="url(#arrowhead)"/>
    <text x="15" y="-10" text-anchor="middle" class="text-muted">click</text>
  </g>

  <!-- STATE 2: Permission Prompt -->
  <g id="state-prompt" transform="translate(390, 50)">
    <text x="0" y="15" class="state-label">STATE 2: BROWSER PROMPT</text>

    <!-- Mini map container (dimmed) -->
    <rect x="0" y="25" width="300" height="200" rx="8" fill="#e8d4b8" stroke="#b8a080" stroke-width="1" opacity="0.5"/>
    <rect x="10" y="35" width="280" height="150" rx="6" fill="url(#mapGrad)" stroke="#b8a080" stroke-width="1" opacity="0.5"/>

    <!-- Browser permission dialog overlay -->
    <rect x="30" y="55" width="240" height="100" rx="8" fill="#f5f0e6" stroke="#2d3748" stroke-width="2"/>

    <!-- Dialog icon -->
    <circle cx="60" cy="90" r="15" fill="#e8d4b8" stroke="#b8a080" stroke-width="1"/>
    <circle cx="60" cy="90" r="6" fill="none" stroke="#8b5cf6" stroke-width="2"/>
    <circle cx="60" cy="90" r="2" fill="#8b5cf6"/>

    <!-- Dialog text -->
    <text x="85" y="85" class="text-sm">example.com wants to</text>
    <text x="85" y="102" class="text-sm">know your location</text>

    <!-- Dialog buttons -->
    <rect x="140" y="115" width="55" height="28" rx="4" fill="#8b5cf6"/>
    <text x="167" y="134" text-anchor="middle" class="text-sm" fill="#fff">Allow</text>
    <rect x="205" y="115" width="55" height="28" rx="4" fill="#dcc8a8" stroke="#b8a080" stroke-width="1"/>
    <text x="232" y="134" text-anchor="middle" class="text-sm">Block</text>

    <!-- Caption -->
    <text x="150" y="210" text-anchor="middle" class="text-sm">Native browser dialog</text>
    <text x="150" y="225" text-anchor="middle" class="text-muted">FR-007: System prompt</text>
  </g>

  <!-- Arrow 2 to 3a (Allow) -->
  <g transform="translate(700, 100)">
    <path d="M0,0 Q30,-30 60,-30" fill="none" stroke="#22c55e" stroke-width="2"/>
    <polygon points="58,-35 65,-30 58,-25" fill="#22c55e"/>
    <text x="30" y="-40" text-anchor="middle" class="text-sm" fill="#22c55e">Allow</text>
  </g>

  <!-- Arrow 2 to 3b (Block) -->
  <g transform="translate(700, 180)">
    <path d="M0,0 Q30,30 60,30" fill="none" stroke="#ef4444" stroke-width="2"/>
    <polygon points="58,25 65,30 58,35" fill="#ef4444"/>
    <text x="30" y="50" text-anchor="middle" class="text-sm" fill="#ef4444">Block</text>
  </g>

  <!-- STATE 3a: Permission Granted -->
  <g id="state-granted" transform="translate(770, 50)">
    <text x="0" y="15" class="state-label" fill="#22c55e">STATE 3A: GRANTED</text>

    <!-- Mini map container -->
    <rect x="0" y="25" width="300" height="200" rx="8" fill="#e8d4b8" stroke="#22c55e" stroke-width="2"/>
    <rect x="10" y="35" width="280" height="150" rx="6" fill="url(#mapGrad)" stroke="#b8a080" stroke-width="1"/>

    <!-- User location with accuracy ring -->
    <g transform="translate(150, 110)">
      <circle cx="0" cy="0" r="30" fill="#3b82f6" opacity="0.15" stroke="#3b82f6" stroke-width="1" stroke-dasharray="4,2"/>
      <circle cx="0" cy="0" r="15" fill="#3b82f6" opacity="0.25"/>
      <circle cx="0" cy="0" r="8" fill="#3b82f6" stroke="#fff" stroke-width="2"/>
    </g>

    <!-- Location button - success state -->
    <g transform="translate(255, 50)">
      <rect x="0" y="0" width="32" height="32" rx="6" fill="#22c55e" stroke="#16a34a" stroke-width="1"/>
      <circle cx="16" cy="16" r="6" fill="none" stroke="#fff" stroke-width="2"/>
      <circle cx="16" cy="16" r="2" fill="#fff"/>
    </g>

    <!-- Caption -->
    <text x="150" y="210" text-anchor="middle" class="text-sm" fill="#22c55e">Location obtained</text>
    <text x="150" y="225" text-anchor="middle" class="text-muted">FR-008, FR-009</text>
  </g>

  <!-- STATE 3b: Permission Denied -->
  <g id="state-denied" transform="translate(770, 280)">
    <text x="0" y="15" class="state-label" fill="#ef4444">STATE 3B: DENIED</text>

    <!-- Mini map container -->
    <rect x="0" y="25" width="300" height="200" rx="8" fill="#e8d4b8" stroke="#b8a080" stroke-width="1"/>
    <rect x="10" y="35" width="280" height="150" rx="6" fill="url(#mapGrad)" stroke="#b8a080" stroke-width="1"/>

    <!-- Map still works - show markers -->
    <g transform="translate(100, 100)">
      <path d="M0,-15 C-8,-15 -12,-5 -12,0 C-12,8 0,15 0,15 C0,15 12,8 12,0 C12,-5 8,-15 0,-15" fill="#8b5cf6" stroke="#7c3aed" stroke-width="1"/>
    </g>
    <g transform="translate(200, 130)">
      <path d="M0,-15 C-8,-15 -12,-5 -12,0 C-12,8 0,15 0,15 C0,15 12,8 12,0 C12,-5 8,-15 0,-15" fill="#d946ef" stroke="#c026d3" stroke-width="1"/>
    </g>

    <!-- Location button - disabled state -->
    <g transform="translate(255, 50)">
      <rect x="0" y="0" width="32" height="32" rx="6" fill="#dcc8a8" stroke="#b8a080" stroke-width="1"/>
      <circle cx="16" cy="16" r="6" fill="none" stroke="#9ca3af" stroke-width="2"/>
      <line x1="10" y1="10" x2="22" y2="22" stroke="#9ca3af" stroke-width="2"/>
    </g>

    <!-- Caption -->
    <text x="150" y="210" text-anchor="middle" class="text-sm">Map still works</text>
    <text x="150" y="225" text-anchor="middle" class="text-muted">FR-010: Graceful handling</text>
  </g>

  <!-- STATE 4: Help Dialog (for blocked permission) -->
  <g id="state-help" transform="translate(40, 320)">
    <text x="0" y="15" class="state-label">STATE 4: HELP DIALOG (WHEN BLOCKED)</text>

    <!-- Dialog box -->
    <rect x="0" y="30" width="320" height="200" rx="12" fill="#f5f0e6" stroke="#b8a080" stroke-width="2"/>

    <!-- Dialog header -->
    <rect x="10" y="40" width="300" height="40" rx="8" fill="#dcc8a8"/>
    <text x="25" y="67" class="heading">Location Blocked</text>

    <!-- Dialog content -->
    <text x="20" y="105" class="text-md">To enable location access:</text>

    <text x="35" y="130" class="text-sm">1. Click the lock icon in browser bar</text>
    <text x="35" y="150" class="text-sm">2. Find "Location" permission</text>
    <text x="35" y="170" class="text-sm">3. Change to "Allow"</text>
    <text x="35" y="190" class="text-sm">4. Refresh this page</text>

    <!-- Close button -->
    <rect x="110" y="200" width="100" height="32" rx="6" fill="#8b5cf6"/>
    <text x="160" y="222" text-anchor="middle" class="text-sm" fill="#fff">Got it</text>

    <!-- Caption -->
    <text x="160" y="255" text-anchor="middle" class="text-muted">FR-014: Re-enable guidance</text>
  </g>

  <!-- MOBILE: Permission States -->
  <text x="980" y="52" class="label-mobile">MOBILE STATES</text>
  <g id="mobile-states" transform="translate(420, 320)">
    <!-- Mobile Not Requested -->
    <g transform="translate(0, 0)">
      <text x="75" y="15" text-anchor="middle" class="text-muted">Default</text>
      <rect x="0" y="25" width="150" height="200" rx="16" fill="#c8b898" stroke="#a08860" stroke-width="1"/>
      <rect x="8" y="33" width="134" height="184" rx="12" fill="#e8d4b8"/>
      <rect x="8" y="33" width="134" height="20" rx="12" fill="#dcc8a8"/>
      <rect x="16" y="60" width="118" height="120" rx="6" fill="url(#mapGrad)"/>

      <!-- FAB active -->
      <circle cx="115" cy="165" r="16" fill="#8b5cf6"/>
      <circle cx="115" cy="165" r="5" fill="none" stroke="#fff" stroke-width="1.5"/>
      <circle cx="115" cy="165" r="2" fill="#fff"/>
    </g>

    <!-- Mobile Granted -->
    <g transform="translate(170, 0)">
      <text x="75" y="15" text-anchor="middle" class="text-muted" fill="#22c55e">Granted</text>
      <rect x="0" y="25" width="150" height="200" rx="16" fill="#c8b898" stroke="#a08860" stroke-width="1"/>
      <rect x="8" y="33" width="134" height="184" rx="12" fill="#e8d4b8"/>
      <rect x="8" y="33" width="134" height="20" rx="12" fill="#dcc8a8"/>
      <rect x="16" y="60" width="118" height="120" rx="6" fill="url(#mapGrad)"/>

      <!-- User location -->
      <circle cx="75" cy="120" r="20" fill="#3b82f6" opacity="0.2"/>
      <circle cx="75" cy="120" r="8" fill="#3b82f6" stroke="#fff" stroke-width="2"/>

      <!-- FAB success -->
      <circle cx="115" cy="165" r="16" fill="#22c55e"/>
      <circle cx="115" cy="165" r="5" fill="none" stroke="#fff" stroke-width="1.5"/>
    </g>

    <!-- Mobile Denied -->
    <g transform="translate(340, 0)">
      <text x="75" y="15" text-anchor="middle" class="text-muted" fill="#ef4444">Denied</text>
      <rect x="0" y="25" width="150" height="200" rx="16" fill="#c8b898" stroke="#a08860" stroke-width="1"/>
      <rect x="8" y="33" width="134" height="184" rx="12" fill="#e8d4b8"/>
      <rect x="8" y="33" width="134" height="20" rx="12" fill="#dcc8a8"/>
      <rect x="16" y="60" width="118" height="120" rx="6" fill="url(#mapGrad)"/>

      <!-- Markers still work -->
      <g transform="translate(60, 110)">
        <path d="M0,-12 C-6,-12 -9,-4 -9,0 C-9,6 0,12 0,12 C0,12 9,6 9,0 C9,-4 6,-12 0,-12" fill="#8b5cf6"/>
      </g>
      <g transform="translate(90, 130)">
        <path d="M0,-12 C-6,-12 -9,-4 -9,0 C-9,6 0,12 0,12 C0,12 9,6 9,0 C9,-4 6,-12 0,-12" fill="#d946ef"/>
      </g>

      <!-- FAB disabled -->
      <circle cx="115" cy="165" r="16" fill="#dcc8a8" stroke="#b8a080" stroke-width="1"/>
      <line x1="108" y1="158" x2="122" y2="172" stroke="#9ca3af" stroke-width="2"/>
    </g>
  </g>

  <!-- Permission State Flow Diagram -->
  <g id="flow-diagram" transform="translate(40, 560)">
    <rect x="0" y="0" width="650" height="180" rx="8" fill="#e8d4b8" stroke="#8b5cf6" stroke-width="1"/>
    <text x="325" y="25" text-anchor="middle" class="annotation">PERMISSION STATE MACHINE (FR-011, FR-012, FR-013)</text>

    <!-- States -->
    <rect x="30" y="50" width="120" height="50" rx="8" fill="#f5f0e6" stroke="#b8a080" stroke-width="1"/>
    <text x="90" y="80" text-anchor="middle" class="text-sm">not_requested</text>

    <rect x="200" y="50" width="100" height="50" rx="8" fill="#f5f0e6" stroke="#eab308" stroke-width="2"/>
    <text x="250" y="80" text-anchor="middle" class="text-sm">prompt</text>

    <rect x="360" y="40" width="100" height="40" rx="8" fill="#dcfce7" stroke="#22c55e" stroke-width="2"/>
    <text x="410" y="65" text-anchor="middle" class="text-sm">granted</text>

    <rect x="360" y="95" width="100" height="40" rx="8" fill="#fef2f2" stroke="#ef4444" stroke-width="2"/>
    <text x="410" y="120" text-anchor="middle" class="text-sm">denied</text>

    <!-- Arrows -->
    <line x1="150" y1="75" x2="195" y2="75" stroke="#8b5cf6" stroke-width="2" marker-end="url(#arrowhead)"/>
    <text x="172" y="68" class="text-muted">click</text>

    <path d="M300,65 Q330,50 355,60" fill="none" stroke="#22c55e" stroke-width="2" marker-end="url(#arrowheadGreen)"/>
    <text x="327" y="45" class="text-muted" fill="#22c55e">allow</text>

    <path d="M300,85 Q330,100 355,115" fill="none" stroke="#ef4444" stroke-width="2" marker-end="url(#arrowheadRed)"/>
    <text x="327" y="110" class="text-muted" fill="#ef4444">block</text>

    <!-- Persistence note -->
    <rect x="500" y="50" width="130" height="70" rx="6" fill="#dcc8a8"/>
    <text x="565" y="75" text-anchor="middle" class="text-sm">State persisted</text>
    <text x="565" y="92" text-anchor="middle" class="text-sm">across sessions</text>
    <text x="565" y="110" text-anchor="middle" class="text-muted">localStorage</text>

    <!-- Notes -->
    <text x="30" y="160" class="text-muted">* Denied state shows help dialog on button click</text>
    <text x="30" y="175" class="text-muted">* Map functionality works in ALL states (FR-001, FR-010)</text>
  </g>

  <!-- Markers for arrows -->
  <defs>
    <marker id="arrowhead" markerWidth="10" markerHeight="7" refX="9" refY="3.5" orient="auto">
      <polygon points="0 0, 10 3.5, 0 7" fill="#8b5cf6"/>
    </marker>
    <marker id="arrowheadGreen" markerWidth="10" markerHeight="7" refX="9" refY="3.5" orient="auto">
      <polygon points="0 0, 10 3.5, 0 7" fill="#22c55e"/>
    </marker>
    <marker id="arrowheadRed" markerWidth="10" markerHeight="7" refX="9" refY="3.5" orient="auto">
      <polygon points="0 0, 10 3.5, 0 7" fill="#ef4444"/>
    </marker>
  </defs>
</svg>
