<!--
  GENERATED BY: /wireframe skill
  SOURCE: features/enhancements/021-geolocation-map/spec.md
  DATE: 2025-12-31
  DO NOT MANUALLY EDIT - Regenerate with /wireframe command
-->
<svg viewBox="0 0 1400 800" xmlns="http://www.w3.org/2000/svg">
  <defs>
    <linearGradient id="bgGrad" x1="0%" y1="0%" x2="100%" y2="100%">
      <stop offset="0%" style="stop-color:#0f172a"/>
      <stop offset="100%" style="stop-color:#1e293b"/>
    </linearGradient>
    <linearGradient id="mapGrad" x1="0%" y1="0%" x2="100%" y2="100%">
      <stop offset="0%" style="stop-color:#1e3a5f"/>
      <stop offset="100%" style="stop-color:#0f2744"/>
    </linearGradient>
    <filter id="focusGlow">
      <feGaussianBlur stdDeviation="3" result="blur"/>
      <feMerge><feMergeNode in="blur"/><feMergeNode in="SourceGraphic"/></feMerge>
    </filter>
  </defs>

  <!-- Background -->
  <rect width="1400" height="800" fill="url(#bgGrad)"/>

  <!-- Title -->
  <text x="700" y="35" fill="#fff" font-family="system-ui, sans-serif" font-size="20" font-weight="600" text-anchor="middle">021 - Geolocation Map: Keyboard Accessibility (FR-019 to FR-022)</text>

  <!-- ==================== LEFT: Map with Focus States ==================== -->
  <text x="330" y="70" fill="#94a3b8" font-family="system-ui, sans-serif" font-size="14" text-anchor="middle">Focus Management &amp; Keyboard Navigation</text>

  <!-- Map Container with Focus Ring -->
  <g transform="translate(40, 90)">
    <rect x="0" y="0" width="580" height="400" rx="8" fill="#1e293b" stroke="#475569"/>

    <!-- Map Area -->
    <rect x="10" y="10" width="440" height="340" rx="4" fill="url(#mapGrad)"/>

    <!-- Focus ring (3px solid, high contrast) -->
    <rect x="8" y="8" width="444" height="344" rx="6" fill="none" stroke="#8b5cf6" stroke-width="3" filter="url(#focusGlow)"/>

    <!-- Map Grid -->
    <g stroke="#334155" stroke-width="0.5" opacity="0.5">
      <line x1="10" y1="125" x2="450" y2="125"/>
      <line x1="10" y1="240" x2="450" y2="240"/>
      <line x1="120" y1="10" x2="120" y2="350"/>
      <line x1="230" y1="10" x2="230" y2="350"/>
      <line x1="340" y1="10" x2="340" y2="350"/>
    </g>

    <!-- Roads -->
    <path d="M50 180 Q150 140 230 170 T400 160" stroke="#475569" stroke-width="2" fill="none"/>
    <path d="M230 20 L230 340" stroke="#475569" stroke-width="3"/>

    <!-- Markers with Tab Order -->
    <!-- Marker 1 (Tab index 1 - focused) -->
    <g transform="translate(100, 130)">
      <rect x="-20" y="-25" width="40" height="50" rx="4" fill="none" stroke="#8b5cf6" stroke-width="2" stroke-dasharray="4,2" filter="url(#focusGlow)"/>
      <path d="M0 0C0-10.5-7.5-18-12-18-16.5-18-24-10.5-24 0c0 13.5 12 27 12 27s12-13.5 12-27z" fill="#8b5cf6" transform="translate(12, -9)"/>
      <circle cx="0" cy="-9" r="4" fill="#fff"/>
      <text x="0" y="30" fill="#8b5cf6" font-family="system-ui, sans-serif" font-size="9" text-anchor="middle" font-weight="600">[1] Focused</text>
    </g>

    <!-- Marker 2 -->
    <g transform="translate(230, 200)">
      <path d="M0 0C0-10.5-7.5-18-12-18-16.5-18-24-10.5-24 0c0 13.5 12 27 12 27s12-13.5 12-27z" fill="#8b5cf6" transform="translate(12, -9)" opacity="0.6"/>
      <circle cx="0" cy="-9" r="4" fill="#fff" opacity="0.6"/>
      <text x="0" y="30" fill="#64748b" font-family="system-ui, sans-serif" font-size="9" text-anchor="middle">[2]</text>
    </g>

    <!-- Marker 3 -->
    <g transform="translate(350, 110)">
      <path d="M0 0C0-10.5-7.5-18-12-18-16.5-18-24-10.5-24 0c0 13.5 12 27 12 27s12-13.5 12-27z" fill="#8b5cf6" transform="translate(12, -9)" opacity="0.6"/>
      <circle cx="0" cy="-9" r="4" fill="#fff" opacity="0.6"/>
      <text x="0" y="30" fill="#64748b" font-family="system-ui, sans-serif" font-size="9" text-anchor="middle">[3]</text>
    </g>

    <!-- Marker 4 -->
    <g transform="translate(180, 280)">
      <path d="M0 0C0-10.5-7.5-18-12-18-16.5-18-24-10.5-24 0c0 13.5 12 27 12 27s12-13.5 12-27z" fill="#8b5cf6" transform="translate(12, -9)" opacity="0.6"/>
      <circle cx="0" cy="-9" r="4" fill="#fff" opacity="0.6"/>
      <text x="0" y="30" fill="#64748b" font-family="system-ui, sans-serif" font-size="9" text-anchor="middle">[4]</text>
    </g>

    <!-- Active Popup for focused marker -->
    <g transform="translate(60, 60)">
      <rect x="0" y="0" width="140" height="55" rx="4" fill="#334155" stroke="#8b5cf6" stroke-width="2"/>
      <polygon points="30,55 40,65 50,55" fill="#334155" stroke="#8b5cf6" stroke-width="2"/>
      <polygon points="32,55 40,62 48,55" fill="#334155"/>
      <text x="10" y="18" fill="#fff" font-family="system-ui, sans-serif" font-size="11" font-weight="600">City Hall</text>
      <text x="10" y="33" fill="#94a3b8" font-family="system-ui, sans-serif" font-size="9">123 Main Street</text>
      <text x="10" y="46" fill="#64748b" font-family="system-ui, sans-serif" font-size="8">Press Enter for details</text>
    </g>

    <!-- Zoom Controls (focusable) -->
    <g transform="translate(410, 20)">
      <rect x="0" y="0" width="32" height="70" rx="4" fill="#334155" stroke="#475569"/>
      <text x="16" y="24" fill="#fff" font-family="system-ui, sans-serif" font-size="18" text-anchor="middle">+</text>
      <line x1="4" y1="35" x2="28" y2="35" stroke="#475569"/>
      <text x="16" y="58" fill="#fff" font-family="system-ui, sans-serif" font-size="18" text-anchor="middle">−</text>
      <text x="48" y="20" fill="#64748b" font-family="system-ui, sans-serif" font-size="8">[5]</text>
      <text x="48" y="55" fill="#64748b" font-family="system-ui, sans-serif" font-size="8">[6]</text>
    </g>

    <!-- Location Button (focusable) -->
    <g transform="translate(410, 100)">
      <rect x="0" y="0" width="32" height="32" rx="4" fill="#334155" stroke="#475569"/>
      <circle cx="16" cy="16" r="6" fill="none" stroke="#94a3b8" stroke-width="1.5"/>
      <circle cx="16" cy="16" r="2" fill="#94a3b8"/>
      <text x="48" y="22" fill="#64748b" font-family="system-ui, sans-serif" font-size="8">[7]</text>
    </g>

    <!-- Screen Reader Status -->
    <rect x="10" y="360" width="560" height="28" rx="4" fill="#0f172a" stroke="#475569"/>
    <text x="20" y="378" fill="#8b5cf6" font-family="system-ui, sans-serif" font-size="10">🔊 Screen Reader:</text>
    <text x="120" y="378" fill="#94a3b8" font-family="system-ui, sans-serif" font-size="10">"City Hall marker, 1 of 4. Press Enter to open details, Tab for next marker."</text>

    <!-- Tab Order Legend -->
    <g transform="translate(465, 20)">
      <rect x="0" y="0" width="105" height="130" rx="4" fill="#0f172a" stroke="#475569"/>
      <text x="52" y="20" fill="#fff" font-family="system-ui, sans-serif" font-size="10" font-weight="600" text-anchor="middle">Tab Order</text>
      <text x="10" y="40" fill="#64748b" font-family="system-ui, sans-serif" font-size="9">[1-4] Markers</text>
      <text x="10" y="55" fill="#64748b" font-family="system-ui, sans-serif" font-size="9">[5] Zoom In</text>
      <text x="10" y="70" fill="#64748b" font-family="system-ui, sans-serif" font-size="9">[6] Zoom Out</text>
      <text x="10" y="85" fill="#64748b" font-family="system-ui, sans-serif" font-size="9">[7] My Location</text>
      <text x="10" y="105" fill="#8b5cf6" font-family="system-ui, sans-serif" font-size="8">Tab: Next item</text>
      <text x="10" y="118" fill="#8b5cf6" font-family="system-ui, sans-serif" font-size="8">Shift+Tab: Prev</text>
    </g>
  </g>

  <!-- ==================== RIGHT: Keyboard Shortcuts ==================== -->
  <text x="1040" y="70" fill="#94a3b8" font-family="system-ui, sans-serif" font-size="14" text-anchor="middle">Keyboard Shortcuts Reference</text>

  <!-- Keyboard Reference Panel -->
  <g transform="translate(680, 90)">
    <rect x="0" y="0" width="680" height="400" rx="8" fill="#1e293b" stroke="#475569"/>

    <!-- Map Navigation -->
    <text x="20" y="30" fill="#fff" font-family="system-ui, sans-serif" font-size="12" font-weight="600">Map Navigation (when map focused)</text>

    <g transform="translate(20, 50)">
      <!-- Arrow keys -->
      <rect x="50" y="0" width="40" height="30" rx="4" fill="#334155" stroke="#475569"/>
      <text x="70" y="20" fill="#fff" font-family="system-ui, sans-serif" font-size="12" text-anchor="middle">↑</text>

      <rect x="0" y="35" width="40" height="30" rx="4" fill="#334155" stroke="#475569"/>
      <text x="20" y="55" fill="#fff" font-family="system-ui, sans-serif" font-size="12" text-anchor="middle">←</text>

      <rect x="50" y="35" width="40" height="30" rx="4" fill="#334155" stroke="#475569"/>
      <text x="70" y="55" fill="#fff" font-family="system-ui, sans-serif" font-size="12" text-anchor="middle">↓</text>

      <rect x="100" y="35" width="40" height="30" rx="4" fill="#334155" stroke="#475569"/>
      <text x="120" y="55" fill="#fff" font-family="system-ui, sans-serif" font-size="12" text-anchor="middle">→</text>

      <text x="160" y="22" fill="#94a3b8" font-family="system-ui, sans-serif" font-size="11">Pan map in direction</text>
      <text x="160" y="55" fill="#64748b" font-family="system-ui, sans-serif" font-size="9">Hold Shift for faster pan</text>
    </g>

    <g transform="translate(20, 130)">
      <!-- Plus/Minus keys -->
      <rect x="0" y="0" width="40" height="30" rx="4" fill="#334155" stroke="#475569"/>
      <text x="20" y="20" fill="#fff" font-family="system-ui, sans-serif" font-size="14" text-anchor="middle">+</text>

      <rect x="50" y="0" width="40" height="30" rx="4" fill="#334155" stroke="#475569"/>
      <text x="70" y="20" fill="#fff" font-family="system-ui, sans-serif" font-size="14" text-anchor="middle">−</text>

      <text x="110" y="22" fill="#94a3b8" font-family="system-ui, sans-serif" font-size="11">Zoom in / Zoom out</text>
    </g>

    <line x1="20" y1="180" x2="320" y2="180" stroke="#475569"/>

    <!-- Marker Navigation -->
    <text x="20" y="200" fill="#fff" font-family="system-ui, sans-serif" font-size="12" font-weight="600">Marker Navigation</text>

    <g transform="translate(20, 220)">
      <rect x="0" y="0" width="50" height="30" rx="4" fill="#334155" stroke="#475569"/>
      <text x="25" y="20" fill="#fff" font-family="system-ui, sans-serif" font-size="10" text-anchor="middle">Tab</text>
      <text x="70" y="22" fill="#94a3b8" font-family="system-ui, sans-serif" font-size="11">Move to next marker</text>
    </g>

    <g transform="translate(20, 260)">
      <rect x="0" y="0" width="50" height="30" rx="4" fill="#334155" stroke="#475569"/>
      <text x="25" y="14" fill="#fff" font-family="system-ui, sans-serif" font-size="8" text-anchor="middle">Shift</text>
      <text x="25" y="24" fill="#fff" font-family="system-ui, sans-serif" font-size="8" text-anchor="middle">+Tab</text>
      <text x="70" y="22" fill="#94a3b8" font-family="system-ui, sans-serif" font-size="11">Move to previous marker</text>
    </g>

    <g transform="translate(20, 300)">
      <rect x="0" y="0" width="60" height="30" rx="4" fill="#334155" stroke="#475569"/>
      <text x="30" y="20" fill="#fff" font-family="system-ui, sans-serif" font-size="10" text-anchor="middle">Enter</text>
      <text x="80" y="22" fill="#94a3b8" font-family="system-ui, sans-serif" font-size="11">Open marker popup / Activate button</text>
    </g>

    <g transform="translate(20, 340)">
      <rect x="0" y="0" width="50" height="30" rx="4" fill="#334155" stroke="#475569"/>
      <text x="25" y="20" fill="#fff" font-family="system-ui, sans-serif" font-size="10" text-anchor="middle">Esc</text>
      <text x="70" y="22" fill="#94a3b8" font-family="system-ui, sans-serif" font-size="11">Close popup / Return to map</text>
    </g>

    <!-- Right Column: Additional Controls -->
    <line x1="340" y1="20" x2="340" y2="380" stroke="#475569"/>

    <text x="360" y="30" fill="#fff" font-family="system-ui, sans-serif" font-size="12" font-weight="600">Quick Actions</text>

    <g transform="translate(360, 50)">
      <rect x="0" y="0" width="30" height="30" rx="4" fill="#334155" stroke="#475569"/>
      <text x="15" y="20" fill="#fff" font-family="system-ui, sans-serif" font-size="12" text-anchor="middle">L</text>
      <text x="50" y="22" fill="#94a3b8" font-family="system-ui, sans-serif" font-size="11">Toggle my location</text>
    </g>

    <g transform="translate(360, 90)">
      <rect x="0" y="0" width="30" height="30" rx="4" fill="#334155" stroke="#475569"/>
      <text x="15" y="20" fill="#fff" font-family="system-ui, sans-serif" font-size="12" text-anchor="middle">R</text>
      <text x="50" y="22" fill="#94a3b8" font-family="system-ui, sans-serif" font-size="11">Reset view to default</text>
    </g>

    <g transform="translate(360, 130)">
      <rect x="0" y="0" width="30" height="30" rx="4" fill="#334155" stroke="#475569"/>
      <text x="15" y="20" fill="#fff" font-family="system-ui, sans-serif" font-size="12" text-anchor="middle">?</text>
      <text x="50" y="22" fill="#94a3b8" font-family="system-ui, sans-serif" font-size="11">Show keyboard help</text>
    </g>

    <line x1="360" y1="180" x2="660" y2="180" stroke="#475569"/>

    <!-- ARIA Announcements -->
    <text x="360" y="200" fill="#fff" font-family="system-ui, sans-serif" font-size="12" font-weight="600">Screen Reader Announcements</text>

    <g transform="translate(360, 220)">
      <circle cx="8" cy="8" r="4" fill="#22c55e"/>
      <text x="20" y="12" fill="#94a3b8" font-family="system-ui, sans-serif" font-size="10">Marker focus: Name + position</text>
    </g>

    <g transform="translate(360, 245)">
      <circle cx="8" cy="8" r="4" fill="#22c55e"/>
      <text x="20" y="12" fill="#94a3b8" font-family="system-ui, sans-serif" font-size="10">Zoom change: "Zoom level X"</text>
    </g>

    <g transform="translate(360, 270)">
      <circle cx="8" cy="8" r="4" fill="#22c55e"/>
      <text x="20" y="12" fill="#94a3b8" font-family="system-ui, sans-serif" font-size="10">Pan: "Map moved [direction]"</text>
    </g>

    <g transform="translate(360, 295)">
      <circle cx="8" cy="8" r="4" fill="#22c55e"/>
      <text x="20" y="12" fill="#94a3b8" font-family="system-ui, sans-serif" font-size="10">Location: "Centered on your location"</text>
    </g>

    <g transform="translate(360, 320)">
      <circle cx="8" cy="8" r="4" fill="#22c55e"/>
      <text x="20" y="12" fill="#94a3b8" font-family="system-ui, sans-serif" font-size="10">Popup: Content read automatically</text>
    </g>

    <!-- WCAG Badge -->
    <g transform="translate(520, 350)">
      <rect x="0" y="0" width="130" height="35" rx="4" fill="#0f172a" stroke="#22c55e"/>
      <text x="65" y="15" fill="#22c55e" font-family="system-ui, sans-serif" font-size="10" text-anchor="middle" font-weight="600">WCAG 2.1 AA</text>
      <text x="65" y="28" fill="#64748b" font-family="system-ui, sans-serif" font-size="8" text-anchor="middle">Compliant (FR-022)</text>
    </g>
  </g>

  <!-- ==================== BOTTOM: Focus Indicator Examples ==================== -->
  <line x1="40" y1="510" x2="1360" y2="510" stroke="#334155" stroke-width="1"/>

  <text x="700" y="540" fill="#fff" font-family="system-ui, sans-serif" font-size="14" font-weight="600" text-anchor="middle">Focus Indicator Standards (FR-020)</text>

  <!-- Example 1: Button Focus -->
  <g transform="translate(80, 560)">
    <text x="100" y="0" fill="#94a3b8" font-family="system-ui, sans-serif" font-size="11" text-anchor="middle">Button: Unfocused</text>
    <rect x="40" y="15" width="120" height="40" rx="4" fill="#334155" stroke="#475569"/>
    <text x="100" y="40" fill="#94a3b8" font-family="system-ui, sans-serif" font-size="11" text-anchor="middle">Zoom In</text>
  </g>

  <g transform="translate(280, 560)">
    <text x="100" y="0" fill="#94a3b8" font-family="system-ui, sans-serif" font-size="11" text-anchor="middle">Button: Focused</text>
    <rect x="40" y="15" width="120" height="40" rx="4" fill="#334155" stroke="#8b5cf6" stroke-width="3" filter="url(#focusGlow)"/>
    <text x="100" y="40" fill="#fff" font-family="system-ui, sans-serif" font-size="11" text-anchor="middle">Zoom In</text>
  </g>

  <!-- Example 2: Marker Focus -->
  <g transform="translate(500, 560)">
    <text x="60" y="0" fill="#94a3b8" font-family="system-ui, sans-serif" font-size="11" text-anchor="middle">Marker: Unfocused</text>
    <path d="M60 20 L60 60" stroke="#475569" stroke-width="1" opacity="0.5"/>
    <path d="M48 35C48 24.5 52.5 17 60 17C67.5 17 72 24.5 72 35c0 13.5-12 22-12 22s-12-8.5-12-22z" fill="#8b5cf6" opacity="0.6"/>
    <circle cx="60" cy="35" r="4" fill="#fff" opacity="0.6"/>
  </g>

  <g transform="translate(680, 560)">
    <text x="60" y="0" fill="#94a3b8" font-family="system-ui, sans-serif" font-size="11" text-anchor="middle">Marker: Focused</text>
    <rect x="35" y="10" width="50" height="55" rx="4" fill="none" stroke="#8b5cf6" stroke-width="2" stroke-dasharray="4,2" filter="url(#focusGlow)"/>
    <path d="M48 35C48 24.5 52.5 17 60 17C67.5 17 72 24.5 72 35c0 13.5-12 22-12 22s-12-8.5-12-22z" fill="#8b5cf6"/>
    <circle cx="60" cy="35" r="4" fill="#fff"/>
  </g>

  <!-- Example 3: Map Focus -->
  <g transform="translate(860, 560)">
    <text x="90" y="0" fill="#94a3b8" font-family="system-ui, sans-serif" font-size="11" text-anchor="middle">Map Area: Unfocused</text>
    <rect x="20" y="15" width="140" height="70" rx="4" fill="#0f2744" stroke="#475569"/>
    <text x="90" y="55" fill="#475569" font-family="system-ui, sans-serif" font-size="10" text-anchor="middle">Map Content</text>
  </g>

  <g transform="translate(1080, 560)">
    <text x="90" y="0" fill="#94a3b8" font-family="system-ui, sans-serif" font-size="11" text-anchor="middle">Map Area: Focused</text>
    <rect x="20" y="15" width="140" height="70" rx="4" fill="#0f2744" stroke="#8b5cf6" stroke-width="3" filter="url(#focusGlow)"/>
    <text x="90" y="55" fill="#64748b" font-family="system-ui, sans-serif" font-size="10" text-anchor="middle">Map Content</text>
  </g>

  <!-- Focus Ring Specs -->
  <g transform="translate(40, 680)">
    <rect x="0" y="0" width="1320" height="90" rx="8" fill="#0f172a" stroke="#475569"/>
    <text x="20" y="25" fill="#fff" font-family="system-ui, sans-serif" font-size="12" font-weight="600">Focus Indicator Requirements (WCAG 2.1 Success Criterion 2.4.7)</text>

    <g transform="translate(20, 45)">
      <circle cx="6" cy="6" r="4" fill="#8b5cf6"/>
      <text x="18" y="10" fill="#94a3b8" font-family="system-ui, sans-serif" font-size="10">Minimum 3px outline width</text>
    </g>

    <g transform="translate(250, 45)">
      <circle cx="6" cy="6" r="4" fill="#8b5cf6"/>
      <text x="18" y="10" fill="#94a3b8" font-family="system-ui, sans-serif" font-size="10">Contrast ratio ≥ 3:1 against adjacent colors</text>
    </g>

    <g transform="translate(540, 45)">
      <circle cx="6" cy="6" r="4" fill="#8b5cf6"/>
      <text x="18" y="10" fill="#94a3b8" font-family="system-ui, sans-serif" font-size="10">Visible in both light and dark themes</text>
    </g>

    <g transform="translate(810, 45)">
      <circle cx="6" cy="6" r="4" fill="#8b5cf6"/>
      <text x="18" y="10" fill="#94a3b8" font-family="system-ui, sans-serif" font-size="10">No reliance on color alone</text>
    </g>

    <g transform="translate(20, 70)">
      <circle cx="6" cy="6" r="4" fill="#8b5cf6"/>
      <text x="18" y="10" fill="#94a3b8" font-family="system-ui, sans-serif" font-size="10">Glow effect for enhanced visibility</text>
    </g>

    <g transform="translate(250, 70)">
      <circle cx="6" cy="6" r="4" fill="#8b5cf6"/>
      <text x="18" y="10" fill="#94a3b8" font-family="system-ui, sans-serif" font-size="10">Dashed outline for irregular shapes</text>
    </g>

    <g transform="translate(540, 70)">
      <circle cx="6" cy="6" r="4" fill="#8b5cf6"/>
      <text x="18" y="10" fill="#94a3b8" font-family="system-ui, sans-serif" font-size="10">Animated focus transitions (150ms)</text>
    </g>
  </g>

  <!-- Watermark -->
  <text x="1380" y="790" fill="#475569" font-family="system-ui, sans-serif" font-size="9" text-anchor="end">ScriptHammer Wireframe</text>
</svg>
