<svg xmlns="http://www.w3.org/2000/svg" viewBox="0 0 1400 800" width="1400" height="800">
  <!-- ============================================================
       GENERATED BY: /wireframe skill
       SOURCE: features/enhancements/021-geolocation-map/spec.md
       DATE: 2026-01-01
       THEME: Light (UX/Frontend) - v3 True Parchment
       DO NOT MANUALLY EDIT - Regenerate with /wireframe command
       ============================================================ -->
  <defs>
    <linearGradient id="bgGrad" x1="0%" y1="0%" x2="100%" y2="100%">
      <stop offset="0%" style="stop-color:#c7ddf5"/>
      <stop offset="100%" style="stop-color:#b8d4f0"/>
    </linearGradient>
    <linearGradient id="accentGrad" x1="0%" y1="0%" x2="100%" y2="0%">
      <stop offset="0%" style="stop-color:#8b5cf6"/>
      <stop offset="100%" style="stop-color:#d946ef"/>
    </linearGradient>
    <linearGradient id="mapGrad" x1="0%" y1="0%" x2="100%" y2="100%">
      <stop offset="0%" style="stop-color:#e8f4ea"/>
      <stop offset="100%" style="stop-color:#d4e8d8"/>
    </linearGradient>
    <style>
      .heading-lg { fill: #1a1a2e; font-family: system-ui, sans-serif; font-size: 24px; font-weight: 800; }
      .heading { fill: #1a1a2e; font-family: system-ui, sans-serif; font-size: 16px; font-weight: 700; }
      .text-md { fill: #2d3748; font-family: system-ui, sans-serif; font-size: 14px; font-weight: 500; }
      .text-sm { fill: #4a5568; font-family: system-ui, sans-serif; font-size: 12px; font-weight: 500; }
      .text-muted { fill: #5a6577; font-family: system-ui, sans-serif; font-size: 11px; font-weight: 500; }
      .annotation { fill: #8b5cf6; font-family: monospace; font-size: 12px; font-weight: 600; }
      .label-desktop { fill: #8b5cf6; font-family: monospace; font-size: 13px; font-weight: bold; }
      .label-mobile { fill: #d946ef; font-family: monospace; font-size: 13px; font-weight: bold; }
      .state-label { fill: #8b5cf6; font-family: monospace; font-size: 11px; font-weight: bold; text-transform: uppercase; }
    </style>
  </defs>

  <!-- Background -->
  <rect width="1400" height="800" fill="url(#bgGrad)"/>

  <!-- Dot grid pattern -->
  <g opacity="0.35">
    <pattern id="dots" width="30" height="30" patternUnits="userSpaceOnUse">
      <circle cx="15" cy="15" r="1" fill="#6b8cba"/>
    </pattern>
    <rect width="1400" height="800" fill="url(#dots)"/>
  </g>

  <!-- Accent line top -->
  <rect x="0" y="0" width="1400" height="3" fill="url(#accentGrad)"/>

  <!-- Title -->
  <text x="700" y="28" text-anchor="middle" font-family="system-ui, sans-serif" font-size="14" font-weight="600" fill="#5a6577" letter-spacing="1">021 - GEOLOCATION MAP - UI STATES &amp; ACCESSIBILITY</text>

  <!-- Row 1: Loading, Error, Offline States -->
  <text x="40" y="55" class="label-desktop">MAP LOADING STATES</text>

  <!-- Loading State -->
  <g id="state-loading" transform="translate(40, 70)">
    <text x="140" y="15" text-anchor="middle" class="state-label">LOADING</text>
    <rect x="0" y="25" width="280" height="180" rx="8" fill="#e8d4b8" stroke="#b8a080" stroke-width="1"/>

    <!-- Skeleton map -->
    <rect x="10" y="35" width="260" height="130" rx="6" fill="#dcc8a8">
      <animate attributeName="opacity" values="0.5;1;0.5" dur="1.5s" repeatCount="indefinite"/>
    </rect>

    <!-- Loading spinner -->
    <g transform="translate(140, 100)">
      <circle cx="0" cy="0" r="20" fill="none" stroke="#b8a080" stroke-width="3"/>
      <path d="M0,-20 A20,20 0 0,1 20,0" fill="none" stroke="#8b5cf6" stroke-width="3" stroke-linecap="round">
        <animateTransform attributeName="transform" type="rotate" from="0" to="360" dur="1s" repeatCount="indefinite"/>
      </path>
    </g>

    <text x="140" y="155" text-anchor="middle" class="text-sm">Loading map tiles...</text>
    <text x="140" y="195" text-anchor="middle" class="text-muted">Progressive tile loading</text>
  </g>

  <!-- Error State -->
  <g id="state-error" transform="translate(340, 70)">
    <text x="140" y="15" text-anchor="middle" class="state-label" fill="#ef4444">ERROR</text>
    <rect x="0" y="25" width="280" height="180" rx="8" fill="#e8d4b8" stroke="#ef4444" stroke-width="2"/>

    <!-- Error placeholder -->
    <rect x="10" y="35" width="260" height="130" rx="6" fill="#fef2f2"/>

    <!-- Error icon -->
    <g transform="translate(140, 85)">
      <circle cx="0" cy="0" r="25" fill="#fee2e2" stroke="#ef4444" stroke-width="2"/>
      <text x="0" y="8" text-anchor="middle" font-size="24" fill="#ef4444">!</text>
    </g>

    <text x="140" y="140" text-anchor="middle" class="text-sm" fill="#dc2626">Unable to load map</text>

    <!-- Retry button -->
    <rect x="90" y="170" width="100" height="30" rx="6" fill="#ef4444"/>
    <text x="140" y="190" text-anchor="middle" class="text-sm" fill="#fff">Retry</text>
  </g>

  <!-- Offline State -->
  <g id="state-offline" transform="translate(640, 70)">
    <text x="140" y="15" text-anchor="middle" class="state-label" fill="#eab308">OFFLINE</text>
    <rect x="0" y="25" width="280" height="180" rx="8" fill="#e8d4b8" stroke="#eab308" stroke-width="2"/>

    <!-- Cached map tiles -->
    <rect x="10" y="35" width="260" height="130" rx="6" fill="url(#mapGrad)" opacity="0.7"/>

    <!-- Cached overlay -->
    <rect x="10" y="35" width="260" height="25" rx="6" fill="#fef3c7"/>
    <text x="140" y="52" text-anchor="middle" class="text-sm">Offline - showing cached tiles</text>

    <!-- Some tiles missing -->
    <rect x="180" y="100" width="80" height="60" rx="4" fill="#dcc8a8" stroke="#b8a080" stroke-width="1" stroke-dasharray="4,2"/>
    <text x="220" y="135" text-anchor="middle" class="text-muted">?</text>

    <text x="140" y="195" text-anchor="middle" class="text-muted">GPS may still work</text>
  </g>

  <!-- Row 2: Marker & Popup States -->
  <text x="40" y="285" class="label-desktop">MARKER &amp; POPUP STATES</text>

  <!-- Marker Types -->
  <g id="marker-types" transform="translate(40, 300)">
    <text x="140" y="15" text-anchor="middle" class="state-label">MARKER VARIANTS</text>
    <rect x="0" y="25" width="280" height="180" rx="8" fill="#e8d4b8" stroke="#b8a080" stroke-width="1"/>
    <rect x="10" y="35" width="260" height="130" rx="6" fill="url(#mapGrad)"/>

    <!-- Standard marker -->
    <g transform="translate(50, 90)">
      <path d="M0,-22 C-12,-22 -16,-8 -16,0 C-16,12 0,26 0,26 C0,26 16,12 16,0 C16,-8 12,-22 0,-22" fill="#8b5cf6" stroke="#7c3aed" stroke-width="2"/>
      <circle cx="0" cy="-5" r="5" fill="#fff"/>
    </g>
    <text x="50" y="140" text-anchor="middle" class="text-muted">Default</text>

    <!-- POI marker -->
    <g transform="translate(120, 90)">
      <path d="M0,-22 C-12,-22 -16,-8 -16,0 C-16,12 0,26 0,26 C0,26 16,12 16,0 C16,-8 12,-22 0,-22" fill="#d946ef" stroke="#c026d3" stroke-width="2"/>
      <text x="0" y="0" text-anchor="middle" font-size="12" fill="#fff">★</text>
    </g>
    <text x="120" y="140" text-anchor="middle" class="text-muted">POI</text>

    <!-- User location marker -->
    <g transform="translate(190, 95)">
      <circle cx="0" cy="0" r="18" fill="#3b82f6" opacity="0.2"/>
      <circle cx="0" cy="0" r="10" fill="#3b82f6" opacity="0.3"/>
      <circle cx="0" cy="0" r="6" fill="#3b82f6" stroke="#fff" stroke-width="2"/>
    </g>
    <text x="190" y="140" text-anchor="middle" class="text-muted">User</text>

    <!-- Cluster marker -->
    <g transform="translate(240, 90)">
      <circle cx="0" cy="0" r="18" fill="#22c55e" stroke="#16a34a" stroke-width="2"/>
      <text x="0" y="5" text-anchor="middle" font-size="14" fill="#fff" font-weight="bold">5</text>
    </g>
    <text x="240" y="140" text-anchor="middle" class="text-muted">Cluster</text>

    <text x="140" y="195" text-anchor="middle" class="text-muted">FR-015, FR-018</text>
  </g>

  <!-- Popup States -->
  <g id="popup-states" transform="translate(340, 300)">
    <text x="140" y="15" text-anchor="middle" class="state-label">POPUP INTERACTION</text>
    <rect x="0" y="25" width="280" height="180" rx="8" fill="#e8d4b8" stroke="#b8a080" stroke-width="1"/>
    <rect x="10" y="35" width="260" height="130" rx="6" fill="url(#mapGrad)"/>

    <!-- Marker with open popup -->
    <g transform="translate(140, 120)">
      <path d="M0,-18 C-10,-18 -14,-7 -14,0 C-14,10 0,20 0,20 C0,20 14,10 14,0 C14,-7 10,-18 0,-18" fill="#8b5cf6" stroke="#7c3aed" stroke-width="2"/>
    </g>

    <!-- Popup -->
    <g transform="translate(140, 35)">
      <rect x="-90" y="0" width="180" height="70" rx="8" fill="#f5f0e6" stroke="#b8a080" stroke-width="1"/>
      <polygon points="-5,70 0,80 5,70" fill="#f5f0e6" stroke="#b8a080" stroke-width="1"/>

      <!-- Close button -->
      <circle cx="75" cy="15" r="10" fill="#dcc8a8"/>
      <text x="75" y="20" text-anchor="middle" class="text-sm">×</text>

      <text x="0" y="25" text-anchor="middle" class="heading">Location Name</text>
      <text x="0" y="45" text-anchor="middle" class="text-sm">Description text here</text>
      <text x="0" y="60" text-anchor="middle" class="text-muted">Click for details →</text>
    </g>

    <text x="140" y="195" text-anchor="middle" class="text-muted">FR-016: Popup content</text>
  </g>

  <!-- Accuracy Indicator -->
  <g id="accuracy" transform="translate(640, 300)">
    <text x="140" y="15" text-anchor="middle" class="state-label">LOCATION ACCURACY</text>
    <rect x="0" y="25" width="280" height="180" rx="8" fill="#e8d4b8" stroke="#b8a080" stroke-width="1"/>
    <rect x="10" y="35" width="260" height="130" rx="6" fill="url(#mapGrad)"/>

    <!-- High accuracy -->
    <g transform="translate(70, 100)">
      <circle cx="0" cy="0" r="10" fill="#3b82f6" opacity="0.2" stroke="#3b82f6" stroke-width="1"/>
      <circle cx="0" cy="0" r="5" fill="#3b82f6" stroke="#fff" stroke-width="2"/>
    </g>
    <text x="70" y="135" text-anchor="middle" class="text-muted" fill="#22c55e">High</text>
    <text x="70" y="148" text-anchor="middle" class="text-muted">±5m</text>

    <!-- Medium accuracy -->
    <g transform="translate(140, 100)">
      <circle cx="0" cy="0" r="25" fill="#3b82f6" opacity="0.15" stroke="#3b82f6" stroke-width="1" stroke-dasharray="4,2"/>
      <circle cx="0" cy="0" r="5" fill="#3b82f6" stroke="#fff" stroke-width="2"/>
    </g>
    <text x="140" y="135" text-anchor="middle" class="text-muted" fill="#eab308">Medium</text>
    <text x="140" y="148" text-anchor="middle" class="text-muted">±50m</text>

    <!-- Low accuracy -->
    <g transform="translate(210, 100)">
      <circle cx="0" cy="0" r="40" fill="#3b82f6" opacity="0.1" stroke="#ef4444" stroke-width="1" stroke-dasharray="4,2"/>
      <circle cx="0" cy="0" r="5" fill="#3b82f6" stroke="#fff" stroke-width="2"/>
    </g>
    <text x="210" y="148" text-anchor="middle" class="text-muted" fill="#ef4444">Low ±500m</text>

    <text x="140" y="195" text-anchor="middle" class="text-muted">Edge case: GPS accuracy</text>
  </g>

  <!-- Row 3: Accessibility Features -->
  <text x="40" y="515" class="label-desktop">ACCESSIBILITY (FR-019 - FR-022)</text>

  <!-- Keyboard Navigation -->
  <g id="keyboard-nav" transform="translate(40, 530)">
    <text x="200" y="15" text-anchor="middle" class="state-label">KEYBOARD NAVIGATION</text>
    <rect x="0" y="25" width="400" height="200" rx="8" fill="#e8d4b8" stroke="#8b5cf6" stroke-width="2"/>

    <!-- Map with focus ring -->
    <rect x="10" y="35" width="250" height="150" rx="6" fill="url(#mapGrad)" stroke="#8b5cf6" stroke-width="3"/>

    <!-- Focus indicator -->
    <rect x="6" y="31" width="258" height="158" rx="8" fill="none" stroke="#8b5cf6" stroke-width="2" stroke-dasharray="4,2"/>

    <!-- Keyboard hints -->
    <g transform="translate(280, 50)">
      <text x="0" y="0" class="text-sm">Arrow keys: Pan</text>
      <text x="0" y="20" class="text-sm">+/- keys: Zoom</text>
      <text x="0" y="40" class="text-sm">Tab: Next marker</text>
      <text x="0" y="60" class="text-sm">Enter: Open popup</text>
      <text x="0" y="80" class="text-sm">Esc: Close popup</text>
    </g>

    <!-- Focused marker -->
    <g transform="translate(130, 110)">
      <rect x="-20" y="-35" width="40" height="50" rx="4" fill="none" stroke="#8b5cf6" stroke-width="2"/>
      <path d="M0,-22 C-12,-22 -16,-8 -16,0 C-16,12 0,26 0,26 C0,26 16,12 16,0 C16,-8 12,-22 0,-22" fill="#8b5cf6" stroke="#7c3aed" stroke-width="2"/>
      <circle cx="0" cy="-5" r="5" fill="#fff"/>
    </g>

    <text x="200" y="210" text-anchor="middle" class="text-muted">FR-019, FR-020: Visible focus indicators</text>
  </g>

  <!-- Screen Reader Support -->
  <g id="screen-reader" transform="translate(460, 530)">
    <text x="200" y="15" text-anchor="middle" class="state-label">SCREEN READER ANNOUNCEMENTS</text>
    <rect x="0" y="25" width="400" height="200" rx="8" fill="#e8d4b8" stroke="#b8a080" stroke-width="1"/>

    <!-- Announcement examples -->
    <rect x="20" y="50" width="360" height="40" rx="6" fill="#f5f0e6" stroke="#b8a080" stroke-width="1"/>
    <text x="30" y="70" class="text-sm">"Interactive map, 5 markers"</text>
    <text x="30" y="85" class="text-muted">On focus</text>

    <rect x="20" y="100" width="360" height="40" rx="6" fill="#f5f0e6" stroke="#b8a080" stroke-width="1"/>
    <text x="30" y="120" class="text-sm">"Central Park marker, 2 of 5"</text>
    <text x="30" y="135" class="text-muted">On marker focus</text>

    <rect x="20" y="150" width="360" height="40" rx="6" fill="#dcfce7" stroke="#22c55e" stroke-width="1"/>
    <text x="30" y="170" class="text-sm">"Your location found, accuracy 10 meters"</text>
    <text x="30" y="185" class="text-muted">On location acquired</text>

    <text x="200" y="210" text-anchor="middle" class="text-muted">FR-021: Screen reader announcements</text>
  </g>

  <!-- Responsive viewport sizes -->
  <g id="responsive" transform="translate(880, 530)">
    <text x="240" y="15" text-anchor="middle" class="state-label">RESPONSIVE (320px - 2560px)</text>
    <rect x="0" y="25" width="480" height="200" rx="8" fill="#e8d4b8" stroke="#b8a080" stroke-width="1"/>

    <!-- Mobile -->
    <g transform="translate(30, 50)">
      <rect x="0" y="0" width="60" height="100" rx="6" fill="#f5f0e6" stroke="#b8a080" stroke-width="1"/>
      <rect x="5" y="5" width="50" height="70" fill="url(#mapGrad)"/>
      <circle cx="40" cy="85" r="8" fill="#8b5cf6"/>
      <text x="30" y="120" text-anchor="middle" class="text-muted">320px</text>
    </g>

    <!-- Tablet -->
    <g transform="translate(120, 50)">
      <rect x="0" y="0" width="100" height="80" rx="6" fill="#f5f0e6" stroke="#b8a080" stroke-width="1"/>
      <rect x="5" y="5" width="90" height="55" fill="url(#mapGrad)"/>
      <circle cx="80" cy="70" r="8" fill="#8b5cf6"/>
      <text x="50" y="105" text-anchor="middle" class="text-muted">768px</text>
    </g>

    <!-- Desktop -->
    <g transform="translate(250, 50)">
      <rect x="0" y="0" width="140" height="80" rx="6" fill="#f5f0e6" stroke="#b8a080" stroke-width="1"/>
      <rect x="5" y="5" width="130" height="55" fill="url(#mapGrad)"/>
      <rect x="110" y="15" width="20" height="40" rx="4" fill="#dcc8a8"/>
      <text x="70" y="105" text-anchor="middle" class="text-muted">1280px</text>
    </g>

    <!-- Wide -->
    <g transform="translate(420, 50)">
      <rect x="0" y="0" width="50" height="80" rx="6" fill="#f5f0e6" stroke="#b8a080" stroke-width="1"/>
      <text x="25" y="45" text-anchor="middle" class="text-sm">...</text>
      <text x="25" y="105" text-anchor="middle" class="text-muted">2560px</text>
    </g>

    <text x="240" y="160" text-anchor="middle" class="text-sm">Full-bleed map on all viewports</text>
    <text x="240" y="180" text-anchor="middle" class="text-sm">Touch gestures on mobile</text>
    <text x="240" y="200" text-anchor="middle" class="text-muted">FR-005, SC-007</text>
  </g>
</svg>
