<svg xmlns="http://www.w3.org/2000/svg" viewBox="0 0 1400 800" width="1400" height="800">
  <!-- ============================================================
       GENERATED BY: /wireframe skill
       SOURCE: features/auth-oauth/013-oauth-messaging-password/spec.md
       DATE: 2026-01-01
       THEME: Light (UX/Frontend) - v3 True Parchment
       DO NOT MANUALLY EDIT - Regenerate with /wireframe command
       ============================================================ -->
  <defs>
    <linearGradient id="bgGrad" x1="0%" y1="0%" x2="100%" y2="100%">
      <stop offset="0%" style="stop-color:#c7ddf5"/>
      <stop offset="100%" style="stop-color:#b8d4f0"/>
    </linearGradient>
    <linearGradient id="accentGrad" x1="0%" y1="0%" x2="100%" y2="0%">
      <stop offset="0%" style="stop-color:#8b5cf6"/>
      <stop offset="100%" style="stop-color:#d946ef"/>
    </linearGradient>
    <style>
      .heading-lg { fill: #1a1a2e; font-family: system-ui, sans-serif; font-size: 24px; font-weight: 800; }
      .heading { fill: #1a1a2e; font-family: system-ui, sans-serif; font-size: 16px; font-weight: 700; }
      .text-md { fill: #2d3748; font-family: system-ui, sans-serif; font-size: 14px; font-weight: 500; }
      .text-sm { fill: #4a5568; font-family: system-ui, sans-serif; font-size: 12px; font-weight: 500; }
      .text-muted { fill: #5a6577; font-family: system-ui, sans-serif; font-size: 11px; font-weight: 500; }
      .annotation { fill: #8b5cf6; font-family: monospace; font-size: 12px; font-weight: 600; }
      .label-desktop { fill: #8b5cf6; font-family: monospace; font-size: 13px; font-weight: bold; }
      .label-mobile { fill: #d946ef; font-family: monospace; font-size: 13px; font-weight: bold; }
    </style>
  </defs>

  <!-- Background -->
  <rect width="1400" height="800" fill="url(#bgGrad)"/>

  <!-- Dot grid pattern -->
  <g opacity="0.35">
    <pattern id="dots" width="30" height="30" patternUnits="userSpaceOnUse">
      <circle cx="15" cy="15" r="1" fill="#6b8cba"/>
    </pattern>
    <rect width="1400" height="800" fill="url(#dots)"/>
  </g>

  <!-- Accent line top -->
  <rect x="0" y="0" width="1400" height="3" fill="url(#accentGrad)"/>

  <!-- Title -->
  <text x="700" y="28" text-anchor="middle" font-family="system-ui, sans-serif" font-size="14" font-weight="600" fill="#5a6577" letter-spacing="1">OAUTH USER - CREATE MESSAGING PASSWORD (SETUP MODE)</text>

  <!-- DESKTOP SECTION -->
  <text x="40" y="52" class="label-desktop">DESKTOP - NEW OAUTH USER</text>
  <g id="desktop-view">
    <!-- Background messaging app (dimmed) -->
    <rect x="40" y="60" width="900" height="700" rx="8" fill="#e8d4b8" stroke="#b8a080" stroke-width="1"/>
    <rect x="40" y="60" width="900" height="50" rx="8" fill="#dcc8a8"/>
    <text x="60" y="92" class="heading" opacity="0.5">Messages</text>
    <rect x="40" y="110" width="900" height="650" fill="#1a1a2e" opacity="0.4"/>

    <!-- Modal overlay -->
    <rect x="200" y="140" width="540" height="520" rx="12" fill="#e8d4b8" stroke="#b8a080" stroke-width="2"/>

    <!-- Modal header -->
    <g transform="translate(220, 160)">
      <!-- Lock icon -->
      <circle cx="250" cy="30" r="28" fill="#8b5cf6" opacity="0.1"/>
      <text x="250" y="38" text-anchor="middle" font-size="24">🔐</text>

      <text x="250" y="80" text-anchor="middle" class="heading-lg">Create a Messaging Password</text>

      <!-- OAuth provider badge -->
      <rect x="160" y="95" width="180" height="28" rx="14" fill="#f5f0e6" stroke="#b8a080"/>
      <text x="250" y="114" text-anchor="middle" class="text-sm">Signed in with Google</text>
    </g>

    <!-- Explanation text -->
    <g transform="translate(240, 285)">
      <rect x="0" y="0" width="460" height="60" rx="6" fill="#8b5cf6" opacity="0.1"/>
      <text x="230" y="22" text-anchor="middle" class="text-sm" fill="#8b5cf6">Your messages are encrypted for privacy.</text>
      <text x="230" y="42" text-anchor="middle" class="text-sm" fill="#8b5cf6">Create a separate password to protect your messages.</text>
    </g>

    <!-- Form fields -->
    <g transform="translate(240, 360)">
      <!-- Password field -->
      <text x="0" y="0" class="text-sm">Messaging Password</text>
      <rect x="0" y="10" width="460" height="44" rx="6" fill="#f5f0e6" stroke="#b8a080"/>
      <text x="15" y="38" class="text-md" fill="#94a3b8">••••••••••••</text>
      <text x="430" y="38" class="text-sm">👁</text>

      <!-- Password strength indicator -->
      <rect x="0" y="62" width="460" height="6" rx="3" fill="#dcc8a8"/>
      <rect x="0" y="62" width="280" height="6" rx="3" fill="#22c55e"/>
      <text x="0" y="82" class="text-muted" fill="#22c55e">Strong password</text>

      <!-- Confirm password field -->
      <text x="0" y="110" class="text-sm">Confirm Password</text>
      <rect x="0" y="120" width="460" height="44" rx="6" fill="#f5f0e6" stroke="#b8a080"/>
      <text x="15" y="148" class="text-md" fill="#94a3b8">••••••••••••</text>
      <text x="430" y="148" class="text-sm">👁</text>

      <!-- Match indicator -->
      <text x="0" y="182" class="text-muted" fill="#22c55e">✓ Passwords match</text>
    </g>

    <!-- Warning message -->
    <g transform="translate(240, 565)">
      <rect x="0" y="0" width="460" height="40" rx="6" fill="#eab308" opacity="0.1" stroke="#eab308"/>
      <text x="230" y="25" text-anchor="middle" class="text-sm" fill="#92400e">⚠️ Remember this password - encrypted messages can't be recovered without it</text>
    </g>

    <!-- Buttons -->
    <g transform="translate(240, 620)">
      <rect x="0" y="0" width="140" height="44" rx="6" fill="#f5f0e6" stroke="#b8a080"/>
      <text x="70" y="28" text-anchor="middle" class="text-md">Cancel</text>

      <rect x="320" y="0" width="140" height="44" rx="6" fill="#8b5cf6"/>
      <text x="390" y="28" text-anchor="middle" font-weight="600" fill="#fff">Create Password</text>
    </g>
  </g>

  <!-- MOBILE SECTION -->
  <text x="980" y="52" class="label-mobile">MOBILE - SETUP MODE</text>
  <g id="mobile-view" transform="translate(980, 60)">
    <!-- Phone frame -->
    <rect x="0" y="0" width="360" height="700" rx="24" fill="#c8b898" stroke="#a08860" stroke-width="2"/>
    <rect x="10" y="10" width="340" height="680" rx="16" fill="#e8d4b8"/>

    <!-- Status bar -->
    <rect x="10" y="10" width="340" height="28" rx="16" fill="#dcc8a8"/>
    <text x="30" y="28" class="text-sm">9:41</text>
    <text x="320" y="28" text-anchor="end" class="text-sm">📶 🔋</text>

    <!-- Dimmed background -->
    <rect x="10" y="38" width="340" height="50" fill="#dcc8a8"/>
    <text x="30" y="70" class="heading" opacity="0.4">Messages</text>
    <rect x="10" y="88" width="340" height="602" fill="#1a1a2e" opacity="0.3" rx="0"/>

    <!-- Modal sheet (bottom) -->
    <rect x="10" y="100" width="340" height="590" rx="16" fill="#e8d4b8"/>

    <!-- Modal content -->
    <g transform="translate(30, 120)">
      <!-- Icon and title -->
      <circle cx="150" cy="25" r="24" fill="#8b5cf6" opacity="0.1"/>
      <text x="150" y="33" text-anchor="middle" font-size="20">🔐</text>

      <text x="150" y="75" text-anchor="middle" class="heading">Create Messaging Password</text>

      <!-- OAuth badge -->
      <rect x="45" y="90" width="210" height="26" rx="13" fill="#f5f0e6" stroke="#b8a080"/>
      <text x="150" y="108" text-anchor="middle" font-size="11" fill="#4a5568">Signed in with Google</text>

      <!-- Explanation -->
      <rect x="0" y="130" width="300" height="50" rx="6" fill="#8b5cf6" opacity="0.1"/>
      <text x="150" y="150" text-anchor="middle" font-size="11" fill="#8b5cf6">Create a separate password to</text>
      <text x="150" y="168" text-anchor="middle" font-size="11" fill="#8b5cf6">encrypt and protect your messages.</text>

      <!-- Password field -->
      <text x="0" y="205" class="text-sm">Messaging Password</text>
      <rect x="0" y="215" width="300" height="40" rx="6" fill="#f5f0e6" stroke="#b8a080"/>
      <text x="15" y="240" class="text-sm" fill="#94a3b8">••••••••••••</text>

      <!-- Strength bar -->
      <rect x="0" y="262" width="300" height="5" rx="2" fill="#dcc8a8"/>
      <rect x="0" y="262" width="200" height="5" rx="2" fill="#22c55e"/>
      <text x="0" y="280" font-size="10" fill="#22c55e">Strong</text>

      <!-- Confirm field -->
      <text x="0" y="305" class="text-sm">Confirm Password</text>
      <rect x="0" y="315" width="300" height="40" rx="6" fill="#f5f0e6" stroke="#b8a080"/>
      <text x="15" y="340" class="text-sm" fill="#94a3b8">••••••••••••</text>
      <text x="0" y="368" font-size="10" fill="#22c55e">✓ Match</text>

      <!-- Warning -->
      <rect x="0" y="385" width="300" height="35" rx="6" fill="#eab308" opacity="0.1" stroke="#eab308"/>
      <text x="150" y="408" text-anchor="middle" font-size="10" fill="#92400e">⚠️ Remember this - messages can't be recovered</text>

      <!-- Buttons -->
      <rect x="0" y="435" width="140" height="40" rx="6" fill="#f5f0e6" stroke="#b8a080"/>
      <text x="70" y="460" text-anchor="middle" class="text-sm">Cancel</text>

      <rect x="160" y="435" width="140" height="40" rx="6" fill="#8b5cf6"/>
      <text x="230" y="460" text-anchor="middle" font-weight="600" font-size="13" fill="#fff">Create</text>
    </g>
  </g>

  <!-- Annotations -->
  <g id="annotations">
    <rect x="5" y="160" width="30" height="45" rx="4" fill="#e8d4b8" stroke="#8b5cf6" stroke-width="1"/>
    <text x="20" y="178" text-anchor="middle" class="annotation">FR</text>
    <text x="20" y="193" text-anchor="middle" class="annotation">004</text>

    <rect x="5" y="360" width="30" height="45" rx="4" fill="#e8d4b8" stroke="#8b5cf6" stroke-width="1"/>
    <text x="20" y="378" text-anchor="middle" class="annotation">FR</text>
    <text x="20" y="393" text-anchor="middle" class="annotation">005</text>

    <rect x="5" y="440" width="30" height="45" rx="4" fill="#e8d4b8" stroke="#8b5cf6" stroke-width="1"/>
    <text x="20" y="458" text-anchor="middle" class="annotation">FR</text>
    <text x="20" y="473" text-anchor="middle" class="annotation">007</text>
  </g>
</svg>
