<svg xmlns="http://www.w3.org/2000/svg" viewBox="0 0 1400 800" width="1400" height="800">
  <!-- ============================================================
       GENERATED BY: /wireframe skill
       SOURCE: features/auth-oauth/013-oauth-messaging-password/spec.md
       DATE: 2025-12-31
       DO NOT MANUALLY EDIT - Regenerate with /wireframe command
       ============================================================ -->
  <defs>
    <linearGradient id="bgGrad" x1="0%" y1="0%" x2="100%" y2="100%">
      <stop offset="0%" style="stop-color:#0f172a"/>
      <stop offset="100%" style="stop-color:#1e293b"/>
    </linearGradient>
    <linearGradient id="accentGrad" x1="0%" y1="0%" x2="100%" y2="0%">
      <stop offset="0%" style="stop-color:#8b5cf6"/>
      <stop offset="100%" style="stop-color:#d946ef"/>
    </linearGradient>
    <style>
      .heading-lg { fill: #ffffff; font-family: system-ui, sans-serif; font-size: 20px; font-weight: bold; }
      .heading { fill: #ffffff; font-family: system-ui, sans-serif; font-size: 14px; font-weight: bold; }
      .text-md { fill: #cbd5e1; font-family: system-ui, sans-serif; font-size: 12px; }
      .text-sm { fill: #94a3b8; font-family: system-ui, sans-serif; font-size: 10px; }
      .text-muted { fill: #64748b; font-family: system-ui, sans-serif; font-size: 10px; }
      .annotation { fill: #8b5cf6; font-family: monospace; font-size: 10px; }
      .label-desktop { fill: #8b5cf6; font-family: monospace; font-size: 11px; font-weight: bold; }
      .label-mobile { fill: #d946ef; font-family: monospace; font-size: 11px; font-weight: bold; }
    </style>
  </defs>

  <!-- Background -->
  <rect width="1400" height="800" fill="url(#bgGrad)"/>

  <!-- Dot grid pattern -->
  <g opacity="0.05">
    <pattern id="dots" width="30" height="30" patternUnits="userSpaceOnUse">
      <circle cx="15" cy="15" r="1" fill="#fff"/>
    </pattern>
    <rect width="1400" height="800" fill="url(#dots)"/>
  </g>

  <!-- Accent line top -->
  <rect x="0" y="0" width="1400" height="3" fill="url(#accentGrad)"/>

  <!-- Title -->
  <text x="700" y="28" text-anchor="middle" font-family="system-ui, sans-serif" font-size="14" font-weight="600" fill="#64748b" letter-spacing="1">OAUTH USER - SETUP MODE (NEW USER WITHOUT KEYS)</text>

  <!-- DESKTOP SECTION -->
  <text x="40" y="52" class="label-desktop">DESKTOP</text>
  <g id="desktop-view">
    <!-- App background (dimmed) -->
    <rect x="40" y="60" width="900" height="680" rx="8" fill="#0f172a" opacity="0.8"/>

    <!-- Dimmed header -->
    <rect x="40" y="60" width="900" height="50" rx="8" fill="#1e293b" opacity="0.5"/>
    <text x="60" y="90" class="text-muted">ScriptHammer</text>

    <!-- Modal overlay -->
    <rect x="40" y="60" width="900" height="680" rx="8" fill="#000" opacity="0.6"/>

    <!-- Modal Dialog -->
    <rect x="240" y="140" width="500" height="480" rx="12" fill="#1e293b" stroke="#475569" stroke-width="1"/>

    <!-- Modal Header -->
    <rect x="240" y="140" width="500" height="60" rx="12" fill="#334155"/>
    <rect x="240" y="188" width="500" height="12" fill="#1e293b"/>

    <!-- Lock icon -->
    <circle cx="290" cy="170" r="18" fill="#8b5cf6" opacity="0.2"/>
    <text x="290" y="176" text-anchor="middle" font-size="18" fill="#8b5cf6">🔐</text>

    <text x="320" y="165" class="heading-lg">Create a Messaging Password</text>
    <text x="320" y="182" class="text-sm">Set up end-to-end encryption for your messages</text>

    <!-- Close button -->
    <circle cx="710" cy="170" r="14" fill="#334155" stroke="#475569" stroke-width="1"/>
    <text x="710" y="175" text-anchor="middle" fill="#94a3b8" font-size="14">×</text>

    <!-- OAuth Provider Badge -->
    <rect x="260" y="220" width="460" height="44" rx="6" fill="#0f172a" stroke="#475569" stroke-width="1"/>
    <circle cx="290" cy="242" r="14" fill="#4285f4"/>
    <text x="290" y="247" text-anchor="middle" fill="#fff" font-size="12">G</text>
    <text x="315" y="238" class="text-md" fill="#fff">Signed in as alex@gmail.com</text>
    <text x="315" y="254" class="text-sm">via Google OAuth</text>

    <!-- Info Box -->
    <rect x="260" y="280" width="460" height="60" rx="6" fill="#1e3a5f" stroke="#3b82f6" stroke-width="1"/>
    <text x="280" y="302" fill="#60a5fa" font-size="12" font-family="system-ui">ℹ️ Why a separate password?</text>
    <text x="280" y="320" class="text-sm">Your messages are encrypted with this password, not your</text>
    <text x="280" y="334" class="text-sm">Google login. This keeps your messages private even from us.</text>

    <!-- Password Field -->
    <text x="260" y="365" class="heading">Messaging Password</text>
    <rect x="260" y="375" width="460" height="44" rx="6" fill="#0f172a" stroke="#475569" stroke-width="1"/>
    <text x="280" y="402" class="text-muted">••••••••••••</text>
    <text x="690" y="402" fill="#64748b" font-size="14">👁</text>

    <!-- Password Strength -->
    <rect x="260" y="425" width="115" height="4" rx="2" fill="#22c55e"/>
    <rect x="380" y="425" width="115" height="4" rx="2" fill="#22c55e"/>
    <rect x="500" y="425" width="115" height="4" rx="2" fill="#22c55e"/>
    <rect x="620" y="425" width="100" height="4" rx="2" fill="#334155"/>
    <text x="260" y="445" class="text-sm" fill="#22c55e">Strong password</text>

    <!-- Confirm Password Field -->
    <text x="260" y="470" class="heading">Confirm Password</text>
    <rect x="260" y="480" width="460" height="44" rx="6" fill="#0f172a" stroke="#475569" stroke-width="1"/>
    <text x="280" y="507" class="text-muted">••••••••••••</text>
    <text x="690" y="507" fill="#64748b" font-size="14">👁</text>

    <!-- Match indicator -->
    <text x="260" y="545" class="text-sm" fill="#22c55e">✓ Passwords match</text>

    <!-- Create Button -->
    <rect x="260" y="560" width="460" height="44" rx="6" fill="url(#accentGrad)"/>
    <text x="490" y="588" text-anchor="middle" fill="#fff" font-weight="bold" font-size="14">Create Messaging Password</text>
  </g>

  <!-- MOBILE SECTION -->
  <text x="980" y="52" class="label-mobile">MOBILE</text>
  <g id="mobile-view" transform="translate(980, 60)">
    <!-- Phone frame -->
    <rect x="0" y="0" width="360" height="700" rx="24" fill="#1e293b" stroke="#475569" stroke-width="2"/>
    <rect x="10" y="10" width="340" height="680" rx="16" fill="#0f172a"/>

    <!-- Status bar -->
    <rect x="10" y="10" width="340" height="28" rx="16" fill="#1e293b"/>
    <text x="30" y="28" class="text-sm">9:41</text>
    <text x="300" y="28" class="text-sm">📶 🔋</text>

    <!-- Dimmed background -->
    <rect x="10" y="38" width="340" height="652" fill="#000" opacity="0.6"/>

    <!-- Modal (bottom sheet style) -->
    <rect x="10" y="120" width="340" height="570" rx="16" fill="#1e293b"/>

    <!-- Handle -->
    <rect x="155" y="130" width="50" height="4" rx="2" fill="#475569"/>

    <!-- Header -->
    <text x="30" y="165" class="heading-lg">Create a Messaging</text>
    <text x="30" y="190" class="heading-lg">Password</text>
    <text x="30" y="210" class="text-sm">Set up end-to-end encryption</text>

    <!-- OAuth Badge -->
    <rect x="20" y="230" width="320" height="40" rx="6" fill="#0f172a" stroke="#475569" stroke-width="1"/>
    <circle cx="45" cy="250" r="12" fill="#4285f4"/>
    <text x="45" y="254" text-anchor="middle" fill="#fff" font-size="10">G</text>
    <text x="65" y="254" class="text-sm" fill="#fff">alex@gmail.com via Google</text>

    <!-- Info Box -->
    <rect x="20" y="285" width="320" height="50" rx="6" fill="#1e3a5f" stroke="#3b82f6" stroke-width="1"/>
    <text x="35" y="305" fill="#60a5fa" font-size="10">ℹ️ Your messages are encrypted separately</text>
    <text x="35" y="320" class="text-muted">from your Google login for extra privacy.</text>

    <!-- Password Field -->
    <text x="20" y="360" class="heading">Messaging Password</text>
    <rect x="20" y="370" width="320" height="40" rx="6" fill="#0f172a" stroke="#475569" stroke-width="1"/>
    <text x="35" y="395" class="text-muted">••••••••••••</text>

    <!-- Strength indicator -->
    <rect x="20" y="415" width="80" height="3" rx="1" fill="#22c55e"/>
    <rect x="105" y="415" width="80" height="3" rx="1" fill="#22c55e"/>
    <rect x="190" y="415" width="80" height="3" rx="1" fill="#22c55e"/>
    <rect x="275" y="415" width="65" height="3" rx="1" fill="#334155"/>
    <text x="20" y="432" class="text-sm" fill="#22c55e">Strong</text>

    <!-- Confirm Field -->
    <text x="20" y="460" class="heading">Confirm Password</text>
    <rect x="20" y="470" width="320" height="40" rx="6" fill="#0f172a" stroke="#475569" stroke-width="1"/>
    <text x="35" y="495" class="text-muted">••••••••••••</text>

    <!-- Match -->
    <text x="20" y="530" class="text-sm" fill="#22c55e">✓ Passwords match</text>

    <!-- Button -->
    <rect x="20" y="550" width="320" height="44" rx="6" fill="url(#accentGrad)"/>
    <text x="180" y="578" text-anchor="middle" fill="#fff" font-weight="bold" font-size="13">Create Password</text>

    <!-- Cancel link -->
    <text x="180" y="620" text-anchor="middle" class="text-sm" fill="#8b5cf6">Cancel</text>
  </g>

  <!-- Annotations -->
  <g id="annotations">
    <!-- Desktop annotations -->
    <rect x="760" y="180" width="140" height="40" rx="4" fill="#1e293b" stroke="#8b5cf6" stroke-width="1"/>
    <text x="830" y="198" text-anchor="middle" class="annotation">OAuth Detection</text>
    <text x="830" y="212" text-anchor="middle" class="text-muted">FR-001, FR-003</text>

    <rect x="760" y="290" width="140" height="40" rx="4" fill="#1e293b" stroke="#8b5cf6" stroke-width="1"/>
    <text x="830" y="308" text-anchor="middle" class="annotation">Info Explainer</text>
    <text x="830" y="322" text-anchor="middle" class="text-muted">FR-008</text>

    <rect x="760" y="400" width="140" height="40" rx="4" fill="#1e293b" stroke="#8b5cf6" stroke-width="1"/>
    <text x="830" y="418" text-anchor="middle" class="annotation">Strength Meter</text>
    <text x="830" y="432" text-anchor="middle" class="text-muted">FR-007</text>

    <rect x="760" y="490" width="140" height="40" rx="4" fill="#1e293b" stroke="#8b5cf6" stroke-width="1"/>
    <text x="830" y="508" text-anchor="middle" class="annotation">Confirm Field</text>
    <text x="830" y="522" text-anchor="middle" class="text-muted">FR-005, FR-006</text>
  </g>

  <!-- Leader lines -->
  <g id="leader-lines">
    <line x1="760" y1="200" x2="720" y2="242" stroke="#8b5cf6" stroke-width="1" stroke-dasharray="4,2"/>
    <line x1="760" y1="310" x2="720" y2="310" stroke="#8b5cf6" stroke-width="1" stroke-dasharray="4,2"/>
    <line x1="760" y1="420" x2="720" y2="425" stroke="#8b5cf6" stroke-width="1" stroke-dasharray="4,2"/>
    <line x1="760" y1="510" x2="720" y2="502" stroke="#8b5cf6" stroke-width="1" stroke-dasharray="4,2"/>
  </g>
</svg>
