<svg xmlns="http://www.w3.org/2000/svg" viewBox="0 0 1400 800" width="1400" height="800">
  <!-- ============================================================
       GENERATED BY: /wireframe skill
       SOURCE: features/auth-oauth/013-oauth-messaging-password/spec.md
       DATE: 2026-01-01
       THEME: Light (UX/Frontend) - v3 True Parchment
       DO NOT MANUALLY EDIT - Regenerate with /wireframe command
       ============================================================ -->
  <defs>
    <linearGradient id="bgGrad" x1="0%" y1="0%" x2="100%" y2="100%">
      <stop offset="0%" style="stop-color:#c7ddf5"/>
      <stop offset="100%" style="stop-color:#b8d4f0"/>
    </linearGradient>
    <linearGradient id="accentGrad" x1="0%" y1="0%" x2="100%" y2="0%">
      <stop offset="0%" style="stop-color:#8b5cf6"/>
      <stop offset="100%" style="stop-color:#d946ef"/>
    </linearGradient>
    <style>
      .heading-lg { fill: #1a1a2e; font-family: system-ui, sans-serif; font-size: 24px; font-weight: 800; }
      .heading { fill: #1a1a2e; font-family: system-ui, sans-serif; font-size: 16px; font-weight: 700; }
      .text-md { fill: #2d3748; font-family: system-ui, sans-serif; font-size: 14px; font-weight: 500; }
      .text-sm { fill: #4a5568; font-family: system-ui, sans-serif; font-size: 12px; font-weight: 500; }
      .text-muted { fill: #5a6577; font-family: system-ui, sans-serif; font-size: 11px; font-weight: 500; }
      .annotation { fill: #8b5cf6; font-family: monospace; font-size: 12px; font-weight: 600; }
      .label-desktop { fill: #8b5cf6; font-family: monospace; font-size: 13px; font-weight: bold; }
      .label-mobile { fill: #d946ef; font-family: monospace; font-size: 13px; font-weight: bold; }
    </style>
  </defs>

  <!-- Background -->
  <rect width="1400" height="800" fill="url(#bgGrad)"/>

  <!-- Dot grid pattern -->
  <g opacity="0.35">
    <pattern id="dots" width="30" height="30" patternUnits="userSpaceOnUse">
      <circle cx="15" cy="15" r="1" fill="#6b8cba"/>
    </pattern>
    <rect width="1400" height="800" fill="url(#dots)"/>
  </g>

  <!-- Accent line top -->
  <rect x="0" y="0" width="1400" height="3" fill="url(#accentGrad)"/>

  <!-- Title -->
  <text x="700" y="28" text-anchor="middle" font-family="system-ui, sans-serif" font-size="14" font-weight="600" fill="#5a6577" letter-spacing="1">OAUTH USER - UNLOCK MESSAGES (RETURNING USER)</text>

  <!-- DESKTOP SECTION -->
  <text x="40" y="52" class="label-desktop">DESKTOP - RETURNING OAUTH USER</text>
  <g id="desktop-view">
    <!-- Background messaging app (dimmed) -->
    <rect x="40" y="60" width="900" height="700" rx="8" fill="#e8d4b8" stroke="#b8a080" stroke-width="1"/>
    <rect x="40" y="60" width="900" height="50" rx="8" fill="#dcc8a8"/>
    <text x="60" y="92" class="heading" opacity="0.5">Messages</text>

    <!-- Encrypted message preview (dimmed) -->
    <rect x="50" y="120" width="200" height="630" rx="6" fill="#dcc8a8" opacity="0.5"/>
    <g transform="translate(60, 140)" opacity="0.4">
      <rect x="0" y="0" width="180" height="60" rx="4" fill="#f5f0e6"/>
      <circle cx="25" cy="30" r="18" fill="#94a3b8"/>
      <text x="55" y="25" class="text-sm">Jane Doe</text>
      <text x="55" y="42" class="text-muted">🔒 Encrypted</text>
      <rect x="0" y="70" width="180" height="60" rx="4" fill="#f5f0e6"/>
      <circle cx="25" cy="100" r="18" fill="#94a3b8"/>
      <text x="55" y="95" class="text-sm">Team Chat</text>
      <text x="55" y="112" class="text-muted">🔒 Encrypted</text>
    </g>

    <!-- Dimmed overlay -->
    <rect x="40" y="110" width="900" height="650" fill="#1a1a2e" opacity="0.4"/>

    <!-- Modal -->
    <rect x="230" y="180" width="480" height="400" rx="12" fill="#e8d4b8" stroke="#b8a080" stroke-width="2"/>

    <!-- Modal header -->
    <g transform="translate(250, 200)">
      <!-- Lock icon -->
      <circle cx="220" cy="30" r="28" fill="#8b5cf6" opacity="0.1"/>
      <text x="220" y="38" text-anchor="middle" font-size="24">🔓</text>

      <text x="220" y="80" text-anchor="middle" class="heading-lg">Unlock Your Messages</text>

      <!-- OAuth provider badge with icon -->
      <rect x="115" y="95" width="210" height="32" rx="16" fill="#f5f0e6" stroke="#b8a080"/>
      <circle cx="140" cy="111" r="10" fill="#4285f4"/>
      <text x="153" y="108" font-size="8" fill="#fff">G</text>
      <text x="230" y="117" text-anchor="middle" class="text-sm">Signed in as jane@gmail.com</text>
    </g>

    <!-- Explanation -->
    <g transform="translate(270, 340)">
      <rect x="0" y="0" width="400" height="45" rx="6" fill="#8b5cf6" opacity="0.08"/>
      <text x="200" y="18" text-anchor="middle" class="text-sm" fill="#5a6577">Enter your messaging password to decrypt your messages.</text>
      <text x="200" y="36" text-anchor="middle" class="text-muted" fill="#5a6577">This is separate from your Google login.</text>
    </g>

    <!-- Single password field -->
    <g transform="translate(270, 400)">
      <text x="0" y="0" class="text-sm">Messaging Password</text>
      <rect x="0" y="10" width="400" height="44" rx="6" fill="#f5f0e6" stroke="#b8a080"/>
      <text x="15" y="38" class="text-md" fill="#94a3b8">Enter your messaging password</text>
      <text x="370" y="38" class="text-sm">👁</text>
    </g>

    <!-- Forgot password link -->
    <text x="470" y="475" text-anchor="middle" class="text-sm" fill="#8b5cf6">Forgot messaging password?</text>

    <!-- Buttons -->
    <g transform="translate(270, 495)">
      <rect x="0" y="0" width="120" height="44" rx="6" fill="#f5f0e6" stroke="#b8a080"/>
      <text x="60" y="28" text-anchor="middle" class="text-md">Cancel</text>

      <rect x="280" y="0" width="120" height="44" rx="6" fill="#8b5cf6"/>
      <text x="340" y="28" text-anchor="middle" font-weight="600" fill="#fff">Unlock</text>
    </g>
  </g>

  <!-- MOBILE SECTION -->
  <text x="980" y="52" class="label-mobile">MOBILE - UNLOCK MODE</text>
  <g id="mobile-view" transform="translate(980, 60)">
    <!-- Phone frame -->
    <rect x="0" y="0" width="360" height="700" rx="24" fill="#c8b898" stroke="#a08860" stroke-width="2"/>
    <rect x="10" y="10" width="340" height="680" rx="16" fill="#e8d4b8"/>

    <!-- Status bar -->
    <rect x="10" y="10" width="340" height="28" rx="16" fill="#dcc8a8"/>
    <text x="30" y="28" class="text-sm">9:41</text>
    <text x="320" y="28" text-anchor="end" class="text-sm">📶 🔋</text>

    <!-- Dimmed background -->
    <rect x="10" y="38" width="340" height="50" fill="#dcc8a8"/>
    <text x="30" y="70" class="heading" opacity="0.4">Messages</text>

    <!-- Encrypted message list (dimmed) -->
    <g transform="translate(20, 100)" opacity="0.3">
      <rect x="0" y="0" width="320" height="60" rx="6" fill="#f5f0e6"/>
      <circle cx="30" cy="30" r="20" fill="#94a3b8"/>
      <text x="60" y="25" class="text-sm">Jane Doe</text>
      <text x="60" y="45" class="text-muted">🔒 Encrypted message</text>
      <rect x="0" y="70" width="320" height="60" rx="6" fill="#f5f0e6"/>
      <circle cx="30" cy="100" r="20" fill="#94a3b8"/>
      <text x="60" y="95" class="text-sm">Team Chat</text>
      <text x="60" y="115" class="text-muted">🔒 Encrypted</text>
    </g>

    <!-- Overlay -->
    <rect x="10" y="88" width="340" height="602" fill="#1a1a2e" opacity="0.3" rx="0"/>

    <!-- Modal sheet -->
    <rect x="10" y="200" width="340" height="410" rx="16" fill="#e8d4b8"/>

    <!-- Modal content -->
    <g transform="translate(30, 220)">
      <!-- Icon and title -->
      <circle cx="150" cy="25" r="24" fill="#8b5cf6" opacity="0.1"/>
      <text x="150" y="33" text-anchor="middle" font-size="20">🔓</text>

      <text x="150" y="75" text-anchor="middle" class="heading">Unlock Messages</text>

      <!-- OAuth badge with icon -->
      <rect x="25" y="90" width="250" height="30" rx="15" fill="#f5f0e6" stroke="#b8a080"/>
      <circle cx="50" cy="105" r="9" fill="#4285f4"/>
      <text x="62" y="103" font-size="7" fill="#fff">G</text>
      <text x="150" y="110" text-anchor="middle" font-size="11" fill="#4a5568">jane@gmail.com</text>

      <!-- Explanation -->
      <rect x="0" y="135" width="300" height="40" rx="6" fill="#8b5cf6" opacity="0.08"/>
      <text x="150" y="152" text-anchor="middle" font-size="11" fill="#5a6577">Enter your messaging password.</text>
      <text x="150" y="168" text-anchor="middle" font-size="10" fill="#5a6577">Separate from Google login.</text>

      <!-- Password field -->
      <text x="0" y="200" class="text-sm">Messaging Password</text>
      <rect x="0" y="210" width="300" height="40" rx="6" fill="#f5f0e6" stroke="#b8a080"/>
      <text x="15" y="235" class="text-sm" fill="#94a3b8">••••••••••••</text>

      <!-- Forgot link -->
      <text x="150" y="275" text-anchor="middle" font-size="11" fill="#8b5cf6">Forgot password?</text>

      <!-- Buttons -->
      <rect x="0" y="295" width="140" height="40" rx="6" fill="#f5f0e6" stroke="#b8a080"/>
      <text x="70" y="320" text-anchor="middle" class="text-sm">Cancel</text>

      <rect x="160" y="295" width="140" height="40" rx="6" fill="#8b5cf6"/>
      <text x="230" y="320" text-anchor="middle" font-weight="600" font-size="13" fill="#fff">Unlock</text>
    </g>
  </g>

  <!-- Error state example (bottom right) -->
  <g transform="translate(980, 520)">
    <text x="0" y="0" class="label-mobile">ERROR STATE</text>
    <rect x="0" y="10" width="360" height="120" rx="8" fill="#e8d4b8" stroke="#ef4444" stroke-width="2"/>

    <g transform="translate(20, 30)">
      <text x="0" y="15" class="text-sm">Messaging Password</text>
      <rect x="0" y="25" width="320" height="40" rx="6" fill="#f5f0e6" stroke="#ef4444" stroke-width="2"/>
      <text x="15" y="50" class="text-sm" fill="#94a3b8">••••••••••••</text>

      <rect x="0" y="75" width="320" height="30" rx="4" fill="#ef4444" opacity="0.1"/>
      <text x="160" y="95" text-anchor="middle" class="text-sm" fill="#991b1b">❌ Incorrect password. Please try again.</text>
    </g>
  </g>

  <!-- Annotations -->
  <g id="annotations">
    <rect x="5" y="200" width="30" height="45" rx="4" fill="#e8d4b8" stroke="#8b5cf6" stroke-width="1"/>
    <text x="20" y="218" text-anchor="middle" class="annotation">FR</text>
    <text x="20" y="233" text-anchor="middle" class="annotation">009</text>

    <rect x="5" y="340" width="30" height="45" rx="4" fill="#e8d4b8" stroke="#8b5cf6" stroke-width="1"/>
    <text x="20" y="358" text-anchor="middle" class="annotation">FR</text>
    <text x="20" y="373" text-anchor="middle" class="annotation">011</text>

    <rect x="5" y="400" width="30" height="45" rx="4" fill="#e8d4b8" stroke="#8b5cf6" stroke-width="1"/>
    <text x="20" y="418" text-anchor="middle" class="annotation">FR</text>
    <text x="20" y="433" text-anchor="middle" class="annotation">012</text>
  </g>
</svg>
