<svg xmlns="http://www.w3.org/2000/svg" viewBox="0 0 1400 800" width="1400" height="800">
  <!-- ============================================================
       GENERATED BY: /wireframe skill
       SOURCE: features/auth-oauth/013-oauth-messaging-password/spec.md
       DATE: 2025-12-31
       DO NOT MANUALLY EDIT - Regenerate with /wireframe command
       ============================================================ -->
  <defs>
    <linearGradient id="bgGrad" x1="0%" y1="0%" x2="100%" y2="100%">
      <stop offset="0%" style="stop-color:#0f172a"/>
      <stop offset="100%" style="stop-color:#1e293b"/>
    </linearGradient>
    <linearGradient id="accentGrad" x1="0%" y1="0%" x2="100%" y2="0%">
      <stop offset="0%" style="stop-color:#8b5cf6"/>
      <stop offset="100%" style="stop-color:#d946ef"/>
    </linearGradient>
    <style>
      .heading-lg { fill: #ffffff; font-family: system-ui, sans-serif; font-size: 20px; font-weight: bold; }
      .heading { fill: #ffffff; font-family: system-ui, sans-serif; font-size: 14px; font-weight: bold; }
      .text-md { fill: #cbd5e1; font-family: system-ui, sans-serif; font-size: 12px; }
      .text-sm { fill: #94a3b8; font-family: system-ui, sans-serif; font-size: 10px; }
      .text-muted { fill: #64748b; font-family: system-ui, sans-serif; font-size: 10px; }
      .annotation { fill: #8b5cf6; font-family: monospace; font-size: 10px; }
      .label-desktop { fill: #8b5cf6; font-family: monospace; font-size: 11px; font-weight: bold; }
      .label-mobile { fill: #d946ef; font-family: monospace; font-size: 11px; font-weight: bold; }
    </style>
  </defs>

  <!-- Background -->
  <rect width="1400" height="800" fill="url(#bgGrad)"/>

  <!-- Dot grid pattern -->
  <g opacity="0.05">
    <pattern id="dots" width="30" height="30" patternUnits="userSpaceOnUse">
      <circle cx="15" cy="15" r="1" fill="#fff"/>
    </pattern>
    <rect width="1400" height="800" fill="url(#dots)"/>
  </g>

  <!-- Accent line top -->
  <rect x="0" y="0" width="1400" height="3" fill="url(#accentGrad)"/>

  <!-- Title -->
  <text x="700" y="28" text-anchor="middle" font-family="system-ui, sans-serif" font-size="14" font-weight="600" fill="#64748b" letter-spacing="1">OAUTH USER - UNLOCK MODE (RETURNING USER WITH KEYS)</text>

  <!-- DESKTOP SECTION -->
  <text x="40" y="52" class="label-desktop">DESKTOP</text>
  <g id="desktop-view">
    <!-- App background (dimmed) -->
    <rect x="40" y="60" width="900" height="680" rx="8" fill="#0f172a" opacity="0.8"/>

    <!-- Dimmed header -->
    <rect x="40" y="60" width="900" height="50" rx="8" fill="#1e293b" opacity="0.5"/>
    <text x="60" y="90" class="text-muted">ScriptHammer</text>

    <!-- Modal overlay -->
    <rect x="40" y="60" width="900" height="680" rx="8" fill="#000" opacity="0.6"/>

    <!-- Modal Dialog (smaller - simpler form) -->
    <rect x="280" y="180" width="420" height="380" rx="12" fill="#1e293b" stroke="#475569" stroke-width="1"/>

    <!-- Modal Header -->
    <rect x="280" y="180" width="420" height="60" rx="12" fill="#334155"/>
    <rect x="280" y="228" width="420" height="12" fill="#1e293b"/>

    <!-- Unlock icon -->
    <circle cx="325" cy="210" r="18" fill="#8b5cf6" opacity="0.2"/>
    <text x="325" y="216" text-anchor="middle" font-size="18" fill="#8b5cf6">🔓</text>

    <text x="355" y="205" class="heading-lg">Unlock Your Messages</text>
    <text x="355" y="222" class="text-sm">Enter your messaging password to decrypt</text>

    <!-- Close button -->
    <circle cx="670" cy="210" r="14" fill="#334155" stroke="#475569" stroke-width="1"/>
    <text x="670" y="215" text-anchor="middle" fill="#94a3b8" font-size="14">×</text>

    <!-- OAuth Provider Badge -->
    <rect x="300" y="260" width="380" height="44" rx="6" fill="#0f172a" stroke="#475569" stroke-width="1"/>
    <circle cx="330" cy="282" r="14" fill="#24292e"/>
    <text x="330" y="287" text-anchor="middle" fill="#fff" font-size="12">⬢</text>
    <text x="355" y="278" class="text-md" fill="#fff">alex.dev</text>
    <text x="355" y="294" class="text-sm">via GitHub OAuth</text>

    <!-- Clarification Box -->
    <rect x="300" y="320" width="380" height="50" rx="6" fill="#1e3a5f" stroke="#3b82f6" stroke-width="1"/>
    <text x="320" y="342" fill="#60a5fa" font-size="11" font-family="system-ui">⚠️ Not your GitHub password!</text>
    <text x="320" y="358" class="text-sm">Use the messaging password you created for encryption.</text>

    <!-- Single Password Field -->
    <text x="300" y="395" class="heading">Messaging Password</text>
    <rect x="300" y="405" width="380" height="44" rx="6" fill="#0f172a" stroke="#475569" stroke-width="1"/>
    <text x="320" y="432" class="text-muted">Enter your messaging password</text>
    <text x="650" y="432" fill="#64748b" font-size="14">👁</text>

    <!-- Unlock Button -->
    <rect x="300" y="470" width="380" height="44" rx="6" fill="url(#accentGrad)"/>
    <text x="490" y="498" text-anchor="middle" fill="#fff" font-weight="bold" font-size="14">Unlock Messages</text>

    <!-- Forgot link -->
    <text x="490" y="535" text-anchor="middle" class="text-sm" fill="#8b5cf6">Forgot your messaging password?</text>
  </g>

  <!-- MOBILE SECTION -->
  <text x="980" y="52" class="label-mobile">MOBILE</text>
  <g id="mobile-view" transform="translate(980, 60)">
    <!-- Phone frame -->
    <rect x="0" y="0" width="360" height="700" rx="24" fill="#1e293b" stroke="#475569" stroke-width="2"/>
    <rect x="10" y="10" width="340" height="680" rx="16" fill="#0f172a"/>

    <!-- Status bar -->
    <rect x="10" y="10" width="340" height="28" rx="16" fill="#1e293b"/>
    <text x="30" y="28" class="text-sm">9:41</text>
    <text x="300" y="28" class="text-sm">📶 🔋</text>

    <!-- Dimmed background -->
    <rect x="10" y="38" width="340" height="652" fill="#000" opacity="0.6"/>

    <!-- Modal (bottom sheet - compact) -->
    <rect x="10" y="220" width="340" height="430" rx="16" fill="#1e293b"/>

    <!-- Handle -->
    <rect x="155" y="230" width="50" height="4" rx="2" fill="#475569"/>

    <!-- Header -->
    <text x="30" y="270" class="heading-lg">Unlock Your Messages</text>
    <text x="30" y="290" class="text-sm">Enter your messaging password</text>

    <!-- OAuth Badge -->
    <rect x="20" y="310" width="320" height="40" rx="6" fill="#0f172a" stroke="#475569" stroke-width="1"/>
    <circle cx="45" cy="330" r="12" fill="#24292e"/>
    <text x="45" y="334" text-anchor="middle" fill="#fff" font-size="10">⬢</text>
    <text x="65" y="334" class="text-sm" fill="#fff">alex.dev via GitHub</text>

    <!-- Warning Box -->
    <rect x="20" y="365" width="320" height="40" rx="6" fill="#1e3a5f" stroke="#3b82f6" stroke-width="1"/>
    <text x="35" y="383" fill="#60a5fa" font-size="10">⚠️ Not your GitHub password!</text>
    <text x="35" y="398" class="text-muted">Use your messaging password.</text>

    <!-- Password Field -->
    <text x="20" y="430" class="heading">Messaging Password</text>
    <rect x="20" y="440" width="320" height="40" rx="6" fill="#0f172a" stroke="#475569" stroke-width="1"/>
    <text x="35" y="465" class="text-muted">Enter password</text>

    <!-- Button -->
    <rect x="20" y="500" width="320" height="44" rx="6" fill="url(#accentGrad)"/>
    <text x="180" y="528" text-anchor="middle" fill="#fff" font-weight="bold" font-size="13">Unlock Messages</text>

    <!-- Forgot link -->
    <text x="180" y="570" text-anchor="middle" class="text-sm" fill="#8b5cf6">Forgot password?</text>

    <!-- Cancel link -->
    <text x="180" y="600" text-anchor="middle" class="text-sm" fill="#64748b">Cancel</text>
  </g>

  <!-- Annotations -->
  <g id="annotations">
    <!-- Desktop annotations -->
    <rect x="720" y="220" width="140" height="40" rx="4" fill="#1e293b" stroke="#8b5cf6" stroke-width="1"/>
    <text x="790" y="238" text-anchor="middle" class="annotation">OAuth Badge</text>
    <text x="790" y="252" text-anchor="middle" class="text-muted">FR-012</text>

    <rect x="720" y="320" width="140" height="40" rx="4" fill="#1e293b" stroke="#8b5cf6" stroke-width="1"/>
    <text x="790" y="338" text-anchor="middle" class="annotation">Clarification</text>
    <text x="790" y="352" text-anchor="middle" class="text-muted">FR-011</text>

    <rect x="720" y="410" width="140" height="40" rx="4" fill="#1e293b" stroke="#8b5cf6" stroke-width="1"/>
    <text x="790" y="428" text-anchor="middle" class="annotation">Single Field</text>
    <text x="790" y="442" text-anchor="middle" class="text-muted">FR-009, FR-010</text>
  </g>

  <!-- Leader lines -->
  <g id="leader-lines">
    <line x1="720" y1="240" x2="680" y2="282" stroke="#8b5cf6" stroke-width="1" stroke-dasharray="4,2"/>
    <line x1="720" y1="340" x2="680" y2="345" stroke="#8b5cf6" stroke-width="1" stroke-dasharray="4,2"/>
    <line x1="720" y1="430" x2="680" y2="427" stroke="#8b5cf6" stroke-width="1" stroke-dasharray="4,2"/>
  </g>
</svg>
