<svg xmlns="http://www.w3.org/2000/svg" viewBox="0 0 1400 800" width="1400" height="800">
  <!-- ============================================================
       GENERATED BY: /wireframe skill
       SOURCE: features/auth-oauth/013-oauth-messaging-password/spec.md
       DATE: 2025-12-31
       DO NOT MANUALLY EDIT - Regenerate with /wireframe command
       ============================================================ -->
  <defs>
    <linearGradient id="bgGrad" x1="0%" y1="0%" x2="100%" y2="100%">
      <stop offset="0%" style="stop-color:#0f172a"/>
      <stop offset="100%" style="stop-color:#1e293b"/>
    </linearGradient>
    <linearGradient id="accentGrad" x1="0%" y1="0%" x2="100%" y2="0%">
      <stop offset="0%" style="stop-color:#8b5cf6"/>
      <stop offset="100%" style="stop-color:#d946ef"/>
    </linearGradient>
    <style>
      .heading-lg { fill: #ffffff; font-family: system-ui, sans-serif; font-size: 20px; font-weight: bold; }
      .heading { fill: #ffffff; font-family: system-ui, sans-serif; font-size: 14px; font-weight: bold; }
      .text-md { fill: #cbd5e1; font-family: system-ui, sans-serif; font-size: 12px; }
      .text-sm { fill: #94a3b8; font-family: system-ui, sans-serif; font-size: 10px; }
      .text-muted { fill: #64748b; font-family: system-ui, sans-serif; font-size: 10px; }
      .annotation { fill: #8b5cf6; font-family: monospace; font-size: 10px; }
      .label-desktop { fill: #8b5cf6; font-family: monospace; font-size: 11px; font-weight: bold; }
      .label-mobile { fill: #d946ef; font-family: monospace; font-size: 11px; font-weight: bold; }
    </style>
  </defs>

  <!-- Background -->
  <rect width="1400" height="800" fill="url(#bgGrad)"/>

  <!-- Dot grid pattern -->
  <g opacity="0.05">
    <pattern id="dots" width="30" height="30" patternUnits="userSpaceOnUse">
      <circle cx="15" cy="15" r="1" fill="#fff"/>
    </pattern>
    <rect width="1400" height="800" fill="url(#dots)"/>
  </g>

  <!-- Accent line top -->
  <rect x="0" y="0" width="1400" height="3" fill="url(#accentGrad)"/>

  <!-- Title -->
  <text x="700" y="28" text-anchor="middle" font-family="system-ui, sans-serif" font-size="14" font-weight="600" fill="#64748b" letter-spacing="1">VALIDATION STATES - ERROR HANDLING &amp; EDGE CASES</text>

  <!-- STATE 1: Password Mismatch (Top Left) -->
  <text x="40" y="52" class="label-desktop">PASSWORD MISMATCH</text>
  <g id="state-mismatch">
    <rect x="40" y="60" width="420" height="340" rx="8" fill="#1e293b" stroke="#475569" stroke-width="1"/>

    <!-- Header -->
    <rect x="40" y="60" width="420" height="45" rx="8" fill="#334155"/>
    <rect x="40" y="97" width="420" height="8" fill="#1e293b"/>
    <text x="60" y="88" class="heading">Create a Messaging Password</text>

    <!-- Password Field -->
    <text x="60" y="130" class="text-sm">Messaging Password</text>
    <rect x="60" y="140" width="380" height="36" rx="6" fill="#0f172a" stroke="#475569" stroke-width="1"/>
    <text x="75" y="163" class="text-muted">••••••••••••</text>

    <!-- Confirm Field - Error State -->
    <text x="60" y="200" class="text-sm">Confirm Password</text>
    <rect x="60" y="210" width="380" height="36" rx="6" fill="#0f172a" stroke="#ef4444" stroke-width="2"/>
    <text x="75" y="233" class="text-muted">••••••••</text>

    <!-- Error Message -->
    <text x="60" y="265" fill="#ef4444" font-size="11" font-family="system-ui">✕ Passwords do not match</text>

    <!-- Disabled Button -->
    <rect x="60" y="290" width="380" height="36" rx="6" fill="#334155" opacity="0.5"/>
    <text x="250" y="313" text-anchor="middle" fill="#64748b" font-size="12">Create Messaging Password</text>

    <!-- Annotation -->
    <rect x="60" y="340" width="160" height="30" rx="4" fill="#1e293b" stroke="#ef4444" stroke-width="1"/>
    <text x="140" y="360" text-anchor="middle" class="text-sm" fill="#ef4444">FR-006: Match validation</text>
  </g>

  <!-- STATE 2: Weak Password (Top Right) -->
  <text x="490" y="52" class="label-desktop">WEAK PASSWORD</text>
  <g id="state-weak">
    <rect x="490" y="60" width="420" height="340" rx="8" fill="#1e293b" stroke="#475569" stroke-width="1"/>

    <!-- Header -->
    <rect x="490" y="60" width="420" height="45" rx="8" fill="#334155"/>
    <rect x="490" y="97" width="420" height="8" fill="#1e293b"/>
    <text x="510" y="88" class="heading">Create a Messaging Password</text>

    <!-- Password Field - Weak -->
    <text x="510" y="130" class="text-sm">Messaging Password</text>
    <rect x="510" y="140" width="380" height="36" rx="6" fill="#0f172a" stroke="#eab308" stroke-width="2"/>
    <text x="525" y="163" class="text-muted">••••</text>

    <!-- Weak Strength Meter -->
    <rect x="510" y="182" width="95" height="4" rx="2" fill="#ef4444"/>
    <rect x="610" y="182" width="95" height="4" rx="2" fill="#334155"/>
    <rect x="710" y="182" width="95" height="4" rx="2" fill="#334155"/>
    <rect x="810" y="182" width="80" height="4" rx="2" fill="#334155"/>
    <text x="510" y="200" fill="#ef4444" font-size="10">Weak - add more characters</text>

    <!-- Confirm Field -->
    <text x="510" y="230" class="text-sm">Confirm Password</text>
    <rect x="510" y="240" width="380" height="36" rx="6" fill="#0f172a" stroke="#475569" stroke-width="1"/>
    <text x="525" y="263" class="text-muted">Enter to confirm</text>

    <!-- Warning Message -->
    <rect x="510" y="290" width="380" height="40" rx="6" fill="#422006" stroke="#eab308" stroke-width="1"/>
    <text x="530" y="313" fill="#fbbf24" font-size="10">⚠️ Stronger passwords protect your messages better.</text>
    <text x="530" y="325" class="text-muted">Use 12+ chars with mixed case, numbers, symbols.</text>

    <!-- Annotation -->
    <rect x="510" y="340" width="160" height="30" rx="4" fill="#1e293b" stroke="#eab308" stroke-width="1"/>
    <text x="590" y="360" text-anchor="middle" class="text-sm" fill="#eab308">FR-007: Strength feedback</text>
  </g>

  <!-- STATE 3: Forgot Password Warning (Bottom Left) -->
  <text x="40" y="420" class="label-mobile">FORGOT PASSWORD WARNING</text>
  <g id="state-forgot">
    <rect x="40" y="430" width="420" height="340" rx="8" fill="#1e293b" stroke="#475569" stroke-width="1"/>

    <!-- Warning Modal -->
    <rect x="60" y="450" width="380" height="300" rx="8" fill="#1e293b" stroke="#ef4444" stroke-width="2"/>

    <!-- Warning Icon -->
    <circle cx="250" cy="490" r="24" fill="#7f1d1d"/>
    <text x="250" y="498" text-anchor="middle" font-size="24" fill="#ef4444">⚠️</text>

    <!-- Warning Title -->
    <text x="250" y="535" text-anchor="middle" class="heading-lg" fill="#ef4444">Cannot Recover Password</text>

    <!-- Warning Text -->
    <text x="250" y="565" text-anchor="middle" class="text-md">Your messages are encrypted with your</text>
    <text x="250" y="585" text-anchor="middle" class="text-md">messaging password. Without it, your</text>
    <text x="250" y="605" text-anchor="middle" class="text-md">encrypted messages cannot be read.</text>

    <!-- Emphasis -->
    <rect x="80" y="620" width="340" height="40" rx="6" fill="#7f1d1d"/>
    <text x="250" y="645" text-anchor="middle" fill="#fca5a5" font-size="11">There is no password reset for encrypted messages.</text>

    <!-- Buttons -->
    <rect x="80" y="680" width="160" height="36" rx="6" fill="#334155"/>
    <text x="160" y="703" text-anchor="middle" class="text-sm" fill="#fff">I Understand</text>

    <rect x="260" y="680" width="160" height="36" rx="6" fill="url(#accentGrad)"/>
    <text x="340" y="703" text-anchor="middle" fill="#fff" font-size="11">Try Remembering</text>

    <!-- Annotation -->
    <rect x="60" y="730" width="200" height="30" rx="4" fill="#1e293b" stroke="#ef4444" stroke-width="1"/>
    <text x="160" y="750" text-anchor="middle" class="text-sm" fill="#ef4444">Edge Case: No recovery possible</text>
  </g>

  <!-- STATE 4: Loading/Processing (Bottom Right) -->
  <text x="490" y="420" class="label-mobile">LOADING STATES</text>
  <g id="state-loading">
    <rect x="490" y="430" width="420" height="340" rx="8" fill="#1e293b" stroke="#475569" stroke-width="1"/>

    <!-- Checking Keys State -->
    <rect x="510" y="450" width="180" height="140" rx="6" fill="#0f172a" stroke="#475569" stroke-width="1"/>
    <text x="600" y="475" text-anchor="middle" class="text-sm" fill="#8b5cf6">CHECKING KEYS</text>

    <!-- Animated spinner -->
    <g transform="translate(600, 520)">
      <circle cx="0" cy="0" r="16" fill="none" stroke="#334155" stroke-width="3"/>
      <path d="M 0 -16 A 16 16 0 0 1 16 0" fill="none" stroke="#8b5cf6" stroke-width="3" stroke-linecap="round">
        <animateTransform attributeName="transform" type="rotate" from="0" to="360" dur="1s" repeatCount="indefinite"/>
      </path>
    </g>
    <text x="600" y="560" text-anchor="middle" class="text-muted">Checking encryption status...</text>

    <!-- Creating Keys State -->
    <rect x="710" y="450" width="180" height="140" rx="6" fill="#0f172a" stroke="#475569" stroke-width="1"/>
    <text x="800" y="475" text-anchor="middle" class="text-sm" fill="#22c55e">CREATING KEYS</text>

    <!-- Animated spinner -->
    <g transform="translate(800, 520)">
      <circle cx="0" cy="0" r="16" fill="none" stroke="#334155" stroke-width="3"/>
      <path d="M 0 -16 A 16 16 0 0 1 16 0" fill="none" stroke="#22c55e" stroke-width="3" stroke-linecap="round">
        <animateTransform attributeName="transform" type="rotate" from="0" to="360" dur="1s" repeatCount="indefinite"/>
      </path>
    </g>
    <text x="800" y="560" text-anchor="middle" class="text-muted">Generating keys...</text>

    <!-- Unlocking State -->
    <rect x="510" y="610" width="180" height="140" rx="6" fill="#0f172a" stroke="#475569" stroke-width="1"/>
    <text x="600" y="635" text-anchor="middle" class="text-sm" fill="#d946ef">UNLOCKING</text>

    <!-- Animated spinner -->
    <g transform="translate(600, 680)">
      <circle cx="0" cy="0" r="16" fill="none" stroke="#334155" stroke-width="3"/>
      <path d="M 0 -16 A 16 16 0 0 1 16 0" fill="none" stroke="#d946ef" stroke-width="3" stroke-linecap="round">
        <animateTransform attributeName="transform" type="rotate" from="0" to="360" dur="1s" repeatCount="indefinite"/>
      </path>
    </g>
    <text x="600" y="720" text-anchor="middle" class="text-muted">Decrypting messages...</text>

    <!-- Error/Retry State -->
    <rect x="710" y="610" width="180" height="140" rx="6" fill="#0f172a" stroke="#ef4444" stroke-width="1"/>
    <text x="800" y="635" text-anchor="middle" class="text-sm" fill="#ef4444">ERROR - RETRY</text>

    <!-- Error icon -->
    <circle cx="800" cy="680" r="16" fill="#7f1d1d"/>
    <text x="800" y="686" text-anchor="middle" fill="#ef4444" font-size="16">!</text>
    <text x="800" y="710" text-anchor="middle" class="text-muted">Timeout - tap to retry</text>

    <!-- Retry button -->
    <rect x="745" y="720" width="110" height="24" rx="4" fill="#334155"/>
    <text x="800" y="737" text-anchor="middle" class="text-sm" fill="#fff">Retry</text>
  </g>

  <!-- Email/Password User Note -->
  <rect x="970" y="60" width="380" height="100" rx="8" fill="#1e293b" stroke="#22c55e" stroke-width="1"/>
  <text x="990" y="85" class="heading" fill="#22c55e">EMAIL/PASSWORD USERS</text>
  <text x="990" y="105" class="text-sm">Standard password prompt unchanged.</text>
  <text x="990" y="125" class="text-sm">No OAuth-specific messaging shown.</text>
  <text x="990" y="145" class="text-sm">FR-013, FR-014 compliance verified.</text>

  <!-- Accessibility Note -->
  <rect x="970" y="180" width="380" height="80" rx="8" fill="#1e293b" stroke="#8b5cf6" stroke-width="1"/>
  <text x="990" y="205" class="heading" fill="#8b5cf6">ACCESSIBILITY (FR-015, 16, 17)</text>
  <text x="990" y="225" class="text-sm">• All fields have aria-label attributes</text>
  <text x="990" y="245" class="text-sm">• Errors announced via aria-live regions</text>
</svg>
