<svg xmlns="http://www.w3.org/2000/svg" viewBox="0 0 1400 800" width="1400" height="800">
  <!-- ============================================================
       GENERATED BY: /wireframe skill
       SOURCE: features/auth-oauth/016-messaging-critical-fixes/spec.md
       DATE: 2025-12-31
       DO NOT MANUALLY EDIT - Regenerate with /wireframe command
       ============================================================ -->
  <defs>
    <linearGradient id="bgGrad" x1="0%" y1="0%" x2="100%" y2="100%">
      <stop offset="0%" style="stop-color:#0f172a"/>
      <stop offset="100%" style="stop-color:#1e293b"/>
    </linearGradient>
    <linearGradient id="accentGrad" x1="0%" y1="0%" x2="100%" y2="0%">
      <stop offset="0%" style="stop-color:#8b5cf6"/>
      <stop offset="100%" style="stop-color:#d946ef"/>
    </linearGradient>
    <style>
      .heading-lg { fill: #ffffff; font-family: system-ui, sans-serif; font-size: 20px; font-weight: bold; }
      .heading { fill: #ffffff; font-family: system-ui, sans-serif; font-size: 14px; font-weight: bold; }
      .text-md { fill: #cbd5e1; font-family: system-ui, sans-serif; font-size: 12px; }
      .text-sm { fill: #94a3b8; font-family: system-ui, sans-serif; font-size: 10px; }
      .text-muted { fill: #64748b; font-family: system-ui, sans-serif; font-size: 10px; }
      .annotation { fill: #8b5cf6; font-family: monospace; font-size: 10px; }
      .label-desktop { fill: #8b5cf6; font-family: monospace; font-size: 11px; font-weight: bold; }
      .label-mobile { fill: #d946ef; font-family: monospace; font-size: 11px; font-weight: bold; }
    </style>
  </defs>

  <!-- Background -->
  <rect width="1400" height="800" fill="url(#bgGrad)"/>

  <!-- Dot grid pattern -->
  <g opacity="0.05">
    <pattern id="dots" width="30" height="30" patternUnits="userSpaceOnUse">
      <circle cx="15" cy="15" r="1" fill="#fff"/>
    </pattern>
    <rect width="1400" height="800" fill="url(#dots)"/>
  </g>

  <!-- Accent line top -->
  <rect x="0" y="0" width="1400" height="3" fill="url(#accentGrad)"/>

  <!-- Title -->
  <text x="700" y="28" text-anchor="middle" font-family="system-ui, sans-serif" font-size="14" font-weight="600" fill="#64748b" letter-spacing="1">MESSAGE INPUT VISIBILITY &amp; DECRYPTION ERRORS</text>

  <!-- DESKTOP SECTION -->
  <text x="40" y="52" class="label-desktop">DESKTOP</text>
  <g id="desktop-view">
    <!-- Desktop container -->
    <rect x="40" y="60" width="900" height="680" rx="8" fill="#0f172a" stroke="#334155" stroke-width="1"/>

    <!-- Header bar -->
    <rect x="40" y="60" width="900" height="50" rx="8" fill="#1e293b"/>
    <rect x="40" y="102" width="900" height="8" fill="#1e293b"/>
    <!-- Logo -->
    <circle cx="75" cy="85" r="14" fill="#8b5cf6"/>
    <text x="75" y="90" text-anchor="middle" font-family="system-ui, sans-serif" font-size="12" font-weight="bold" fill="#fff">S</text>
    <text x="100" y="90" font-family="system-ui, sans-serif" font-size="14" font-weight="bold" fill="#fff">Messages</text>

    <!-- Conversation header with RESOLVED NAME (FR-016, FR-017) -->
    <rect x="250" y="120" width="440" height="50" rx="0" fill="#1e293b"/>
    <circle cx="280" cy="145" r="16" fill="#334155"/>
    <text x="280" y="150" text-anchor="middle" class="text-sm">SJ</text>
    <!-- Resolved display name - NOT "Unknown" -->
    <text x="305" y="140" font-family="system-ui, sans-serif" font-size="13" font-weight="600" fill="#fff">Sarah Johnson</text>
    <text x="305" y="155" class="text-sm">Online</text>

    <!-- Sidebar - conversation list -->
    <rect x="50" y="120" width="190" height="610" rx="6" fill="#1e293b"/>
    <text x="60" y="145" class="heading">Conversations</text>
    <!-- Conversation items with proper names -->
    <rect x="55" y="160" width="180" height="60" rx="4" fill="#8b5cf6" opacity="0.2"/>
    <circle cx="80" cy="190" r="14" fill="#334155"/>
    <text x="80" y="195" text-anchor="middle" class="text-sm">SJ</text>
    <text x="102" y="183" class="text-md" fill="#fff">Sarah Johnson</text>
    <text x="102" y="198" class="text-muted">Hey, did you see...</text>

    <rect x="55" y="230" width="180" height="60" rx="4" fill="transparent"/>
    <circle cx="80" cy="260" r="14" fill="#334155"/>
    <text x="80" y="265" text-anchor="middle" class="text-sm">MR</text>
    <text x="102" y="253" class="text-md">Mike Roberts</text>
    <text x="102" y="268" class="text-muted">Thanks for the...</text>

    <!-- Deleted user example (FR-018) -->
    <rect x="55" y="300" width="180" height="60" rx="4" fill="transparent"/>
    <circle cx="80" cy="330" r="14" fill="#475569"/>
    <text x="80" y="335" text-anchor="middle" class="text-muted">?</text>
    <text x="102" y="323" class="text-md" fill="#94a3b8">Deleted User</text>
    <text x="102" y="338" class="text-muted">This account was...</text>

    <!-- Messages area -->
    <rect x="250" y="170" width="440" height="460" rx="0" fill="#0f172a"/>

    <!-- Normal message -->
    <g transform="translate(260, 190)">
      <rect x="0" y="0" width="280" height="50" rx="8" fill="#334155"/>
      <text x="15" y="20" class="text-md">Hey! How's the project going?</text>
      <text x="15" y="38" class="text-muted">10:30 AM</text>
    </g>

    <!-- My message -->
    <g transform="translate(380, 260)">
      <rect x="0" y="0" width="240" height="50" rx="8" fill="#8b5cf6"/>
      <text x="15" y="20" class="text-md" fill="#fff">Great! Just finishing up the</text>
      <text x="15" y="38" class="text-muted" fill="#e0d4ff">10:32 AM ✓✓</text>
    </g>

    <!-- Decryption error message (FR-012, FR-013, FR-014, FR-015) -->
    <g transform="translate(260, 330)">
      <rect x="0" y="0" width="280" height="55" rx="8" fill="#334155" stroke="#ef4444" stroke-width="1" stroke-dasharray="4,2"/>
      <!-- Lock icon -->
      <g transform="translate(20, 18)">
        <rect x="-8" y="0" width="16" height="12" rx="2" fill="#ef4444" opacity="0.8"/>
        <path d="M-5 0 L-5 -5 A5 5 0 0 1 5 -5 L5 0" fill="none" stroke="#ef4444" stroke-width="2"/>
      </g>
      <text x="40" y="22" class="text-sm" fill="#ef4444">Encrypted with previous keys</text>
      <text x="40" y="38" class="text-muted">Cannot decrypt - keys were revoked</text>
    </g>

    <!-- Another decryption error (individual indicator per FR-015) -->
    <g transform="translate(260, 400)">
      <rect x="0" y="0" width="280" height="55" rx="8" fill="#334155" stroke="#ef4444" stroke-width="1" stroke-dasharray="4,2"/>
      <g transform="translate(20, 18)">
        <rect x="-8" y="0" width="16" height="12" rx="2" fill="#ef4444" opacity="0.8"/>
        <path d="M-5 0 L-5 -5 A5 5 0 0 1 5 -5 L5 0" fill="none" stroke="#ef4444" stroke-width="2"/>
      </g>
      <text x="40" y="22" class="text-sm" fill="#ef4444">Encrypted with previous keys</text>
      <text x="40" y="38" class="text-muted">Cannot decrypt - keys were revoked</text>
    </g>

    <!-- Normal message after errors -->
    <g transform="translate(380, 470)">
      <rect x="0" y="0" width="240" height="50" rx="8" fill="#8b5cf6"/>
      <text x="15" y="20" class="text-md" fill="#fff">I'll resend those files!</text>
      <text x="15" y="38" class="text-muted" fill="#e0d4ff">10:45 AM ✓✓</text>
    </g>

    <!-- Tooltip on hover (FR-014) -->
    <g transform="translate(540, 340)">
      <rect x="0" y="0" width="150" height="60" rx="6" fill="#1e293b" stroke="#475569" stroke-width="1"/>
      <polygon points="0,20 -8,25 0,30" fill="#1e293b"/>
      <text x="10" y="18" class="text-sm" fill="#fff">Why can't I read this?</text>
      <text x="10" y="34" class="text-muted">This message was encrypted</text>
      <text x="10" y="48" class="text-muted">before you reset your keys.</text>
    </g>

    <!-- FIXED MESSAGE INPUT (FR-001, FR-002, FR-003) -->
    <rect x="250" y="630" width="440" height="100" rx="0" fill="#1e293b"/>
    <rect x="260" y="645" width="350" height="40" rx="6" fill="#334155" stroke="#475569" stroke-width="1"/>
    <text x="275" y="670" class="text-muted">Type a message...</text>
    <!-- Send button -->
    <rect x="620" y="645" width="60" height="40" rx="6" fill="#8b5cf6"/>
    <text x="650" y="670" text-anchor="middle" class="text-md" fill="#fff">Send</text>
    <!-- Fixed indicator -->
    <rect x="250" y="630" width="440" height="3" fill="#22c55e"/>
  </g>

  <!-- MOBILE SECTION -->
  <text x="980" y="52" class="label-mobile">MOBILE</text>
  <g id="mobile-view" transform="translate(980, 60)">
    <!-- Phone frame -->
    <rect x="0" y="0" width="360" height="700" rx="24" fill="#1e293b" stroke="#475569" stroke-width="2"/>
    <!-- Screen area -->
    <rect x="10" y="10" width="340" height="680" rx="16" fill="#0f172a"/>
    <!-- Status bar -->
    <rect x="10" y="10" width="340" height="28" rx="16" fill="#1e293b"/>
    <text x="30" y="28" class="text-sm">9:41</text>
    <text x="320" y="28" text-anchor="end" class="text-sm">100%</text>

    <!-- Conversation header with resolved name -->
    <rect x="10" y="38" width="340" height="50" fill="#1e293b"/>
    <!-- Back arrow -->
    <text x="25" y="68" fill="#8b5cf6" font-family="system-ui, sans-serif" font-size="18">←</text>
    <circle cx="70" cy="63" r="16" fill="#334155"/>
    <text x="70" y="68" text-anchor="middle" class="text-sm">SJ</text>
    <text x="95" y="58" font-family="system-ui, sans-serif" font-size="12" font-weight="600" fill="#fff">Sarah Johnson</text>
    <text x="95" y="72" class="text-sm">Online</text>

    <!-- Messages area -->
    <!-- Normal message -->
    <g transform="translate(20, 100)">
      <rect x="0" y="0" width="220" height="45" rx="8" fill="#334155"/>
      <text x="12" y="18" class="text-sm" fill="#cbd5e1">Hey! How's the project?</text>
      <text x="12" y="34" class="text-muted">10:30 AM</text>
    </g>

    <!-- My message -->
    <g transform="translate(110, 160)">
      <rect x="0" y="0" width="200" height="45" rx="8" fill="#8b5cf6"/>
      <text x="12" y="18" class="text-sm" fill="#fff">Great! Almost done!</text>
      <text x="12" y="34" class="text-muted" fill="#e0d4ff">10:32 AM ✓✓</text>
    </g>

    <!-- Decryption error on mobile -->
    <g transform="translate(20, 220)">
      <rect x="0" y="0" width="220" height="50" rx="8" fill="#334155" stroke="#ef4444" stroke-width="1" stroke-dasharray="3,2"/>
      <g transform="translate(18, 16)">
        <rect x="-6" y="0" width="12" height="9" rx="2" fill="#ef4444" opacity="0.8"/>
        <path d="M-4 0 L-4 -4 A4 4 0 0 1 4 -4 L4 0" fill="none" stroke="#ef4444" stroke-width="1.5"/>
      </g>
      <text x="32" y="20" font-family="system-ui, sans-serif" font-size="9" fill="#ef4444">Encrypted with old keys</text>
      <text x="32" y="35" class="text-muted">Tap for info</text>
    </g>

    <!-- Another encrypted message -->
    <g transform="translate(20, 285)">
      <rect x="0" y="0" width="220" height="50" rx="8" fill="#334155" stroke="#ef4444" stroke-width="1" stroke-dasharray="3,2"/>
      <g transform="translate(18, 16)">
        <rect x="-6" y="0" width="12" height="9" rx="2" fill="#ef4444" opacity="0.8"/>
        <path d="M-4 0 L-4 -4 A4 4 0 0 1 4 -4 L4 0" fill="none" stroke="#ef4444" stroke-width="1.5"/>
      </g>
      <text x="32" y="20" font-family="system-ui, sans-serif" font-size="9" fill="#ef4444">Encrypted with old keys</text>
      <text x="32" y="35" class="text-muted">Tap for info</text>
    </g>

    <!-- Normal message -->
    <g transform="translate(110, 350)">
      <rect x="0" y="0" width="200" height="45" rx="8" fill="#8b5cf6"/>
      <text x="12" y="18" class="text-sm" fill="#fff">I'll resend those!</text>
      <text x="12" y="34" class="text-muted" fill="#e0d4ff">10:45 AM ✓✓</text>
    </g>

    <!-- Scroll indicator showing more messages -->
    <text x="180" y="420" text-anchor="middle" class="text-muted">↑ scroll for more ↑</text>

    <!-- FIXED MESSAGE INPUT - Always visible (FR-001, FR-002) -->
    <rect x="10" y="600" width="340" height="80" rx="0" fill="#1e293b"/>
    <!-- Green indicator showing fixed position -->
    <rect x="10" y="600" width="340" height="3" fill="#22c55e"/>
    <rect x="20" y="615" width="260" height="36" rx="6" fill="#334155" stroke="#475569" stroke-width="1"/>
    <text x="35" y="638" class="text-muted">Type a message...</text>
    <!-- Send button -->
    <circle cx="310" cy="633" r="18" fill="#8b5cf6"/>
    <text x="310" y="638" text-anchor="middle" fill="#fff" font-family="system-ui, sans-serif" font-size="14">→</text>

    <!-- Fixed position label -->
    <text x="180" y="670" text-anchor="middle" class="text-sm" fill="#22c55e">Input always visible</text>
  </g>

  <!-- Annotations -->
  <!-- FR-001/002 Input fixed -->
  <g class="annotation-box">
    <rect x="700" y="620" width="90" height="50" rx="4" fill="#1e293b" stroke="#22c55e" stroke-width="1"/>
    <text x="745" y="638" text-anchor="middle" fill="#22c55e" font-family="monospace" font-size="10">FR-001/002</text>
    <text x="745" y="653" text-anchor="middle" class="text-muted">Input fixed</text>
    <text x="745" y="665" text-anchor="middle" class="text-muted">at bottom</text>
  </g>

  <!-- FR-012-015 Decryption errors -->
  <g class="annotation-box">
    <rect x="700" y="330" width="90" height="55" rx="4" fill="#1e293b" stroke="#ef4444" stroke-width="1"/>
    <text x="745" y="348" text-anchor="middle" fill="#ef4444" font-family="monospace" font-size="10">FR-012-015</text>
    <text x="745" y="363" text-anchor="middle" class="text-muted">Lock icon</text>
    <text x="745" y="378" text-anchor="middle" class="text-muted">+ tooltip</text>
  </g>

  <!-- FR-016-019 Name resolution -->
  <g class="annotation-box">
    <rect x="700" y="115" width="90" height="55" rx="4" fill="#1e293b" stroke="#8b5cf6" stroke-width="1"/>
    <text x="745" y="133" text-anchor="middle" class="annotation">FR-016-019</text>
    <text x="745" y="148" text-anchor="middle" class="text-muted">Resolved name</text>
    <text x="745" y="163" text-anchor="middle" class="text-muted">not "Unknown"</text>
  </g>

  <!-- Leader lines -->
  <g id="leader-lines">
    <line x1="700" y1="645" x2="695" y2="660" stroke="#22c55e" stroke-width="1" stroke-dasharray="4,2"/>
    <line x1="700" y1="357" x2="695" y2="365" stroke="#ef4444" stroke-width="1" stroke-dasharray="4,2"/>
    <line x1="700" y1="142" x2="695" y2="145" stroke="#8b5cf6" stroke-width="1" stroke-dasharray="4,2"/>
  </g>
</svg>
