<svg xmlns="http://www.w3.org/2000/svg" viewBox="0 0 1600 800" width="1600" height="800">
  <!-- ============================================================
       GENERATED BY: /wireframe skill
       SOURCE: features/auth-oauth/016-messaging-critical-fixes/spec.md
       DATE: 2026-01-01
       THEME: Light (UX/Frontend) - v3 True Parchment
       DO NOT MANUALLY EDIT - Regenerate with /wireframe command
       ============================================================ -->
  <defs>
    <linearGradient id="bgGrad" x1="0%" y1="0%" x2="100%" y2="100%">
      <stop offset="0%" style="stop-color:#c7ddf5"/>
      <stop offset="100%" style="stop-color:#b8d4f0"/>
    </linearGradient>
    <linearGradient id="accentGrad" x1="0%" y1="0%" x2="100%" y2="0%">
      <stop offset="0%" style="stop-color:#8b5cf6"/>
      <stop offset="100%" style="stop-color:#d946ef"/>
    </linearGradient>
    <style>
      .heading-lg { fill: #1a1a2e; font-family: system-ui, sans-serif; font-size: 24px; font-weight: 800; }
      .heading { fill: #1a1a2e; font-family: system-ui, sans-serif; font-size: 16px; font-weight: 700; }
      .text-md { fill: #2d3748; font-family: system-ui, sans-serif; font-size: 14px; font-weight: 500; }
      .text-sm { fill: #4a5568; font-family: system-ui, sans-serif; font-size: 12px; font-weight: 500; }
      .text-muted { fill: #5a6577; font-family: system-ui, sans-serif; font-size: 11px; font-weight: 500; }
      .annotation { fill: #8b5cf6; font-family: monospace; font-size: 12px; font-weight: 600; }
      .label-viewport { fill: #d946ef; font-family: monospace; font-size: 11px; font-weight: bold; }
    </style>
  </defs>

  <!-- Background -->
  <rect width="1600" height="800" fill="url(#bgGrad)"/>

  <!-- Dot grid pattern -->
  <g opacity="0.35">
    <pattern id="dots" width="30" height="30" patternUnits="userSpaceOnUse">
      <circle cx="15" cy="15" r="1" fill="#6b8cba"/>
    </pattern>
    <rect width="1600" height="800" fill="url(#dots)"/>
  </g>

  <!-- Accent line top -->
  <rect x="0" y="0" width="1600" height="3" fill="url(#accentGrad)"/>

  <!-- Title -->
  <text x="800" y="28" text-anchor="middle" font-family="system-ui, sans-serif" font-size="14" font-weight="600" fill="#5a6577" letter-spacing="1">MESSAGE INPUT VISIBILITY - ALL VIEWPORT SIZES</text>

  <!-- MOBILE PORTRAIT (320px) -->
  <g transform="translate(40, 50)">
    <text x="90" y="0" text-anchor="middle" class="label-viewport">MOBILE 320px</text>
    <text x="90" y="15" text-anchor="middle" class="text-muted">Portrait</text>

    <!-- Phone frame -->
    <rect x="0" y="25" width="180" height="380" rx="16" fill="#c8b898" stroke="#a08860" stroke-width="2"/>
    <rect x="8" y="33" width="164" height="364" rx="12" fill="#e8d4b8"/>

    <!-- Status bar -->
    <rect x="8" y="33" width="164" height="20" rx="12" fill="#dcc8a8"/>
    <text x="22" y="47" font-size="8" fill="#4a5568">9:41</text>

    <!-- Header -->
    <rect x="8" y="53" width="164" height="35" fill="#dcc8a8"/>
    <text x="90" y="75" text-anchor="middle" class="text-sm">John Doe</text>

    <!-- Messages area -->
    <rect x="16" y="95" width="100" height="25" rx="6" fill="#8b5cf6"/>
    <text x="66" y="112" text-anchor="middle" font-size="8" fill="#fff">Hey there!</text>

    <rect x="64" y="130" width="100" height="25" rx="6" fill="#dcc8a8"/>
    <text x="114" y="147" text-anchor="middle" font-size="8" fill="#4a5568">Hi! How are you?</text>

    <rect x="16" y="165" width="80" height="25" rx="6" fill="#8b5cf6"/>
    <text x="56" y="182" text-anchor="middle" font-size="8" fill="#fff">Good!</text>

    <!-- Input area - FIXED AT BOTTOM -->
    <rect x="8" y="340" width="164" height="55" fill="#22c55e" opacity="0.2"/>
    <rect x="14" y="350" width="116" height="32" rx="8" fill="#f5f0e6" stroke="#b8a080"/>
    <text x="72" y="370" text-anchor="middle" font-size="9" fill="#8494a8">Type message...</text>
    <rect x="136" y="350" width="32" height="32" rx="8" fill="#8b5cf6"/>
    <text x="152" y="370" text-anchor="middle" font-size="12" fill="#fff">↑</text>

    <!-- Annotation -->
    <rect x="185" y="340" width="75" height="35" rx="4" fill="#e8d4b8" stroke="#22c55e"/>
    <text x="222" y="355" text-anchor="middle" class="annotation" fill="#22c55e">FR-001</text>
    <text x="222" y="368" text-anchor="middle" class="text-muted">Visible ✓</text>
  </g>

  <!-- MOBILE (375px) -->
  <g transform="translate(280, 50)">
    <text x="105" y="0" text-anchor="middle" class="label-viewport">MOBILE 375px</text>
    <text x="105" y="15" text-anchor="middle" class="text-muted">iPhone Standard</text>

    <!-- Phone frame -->
    <rect x="0" y="25" width="210" height="400" rx="20" fill="#c8b898" stroke="#a08860" stroke-width="2"/>
    <rect x="10" y="35" width="190" height="380" rx="14" fill="#e8d4b8"/>

    <!-- Status bar -->
    <rect x="10" y="35" width="190" height="22" rx="14" fill="#dcc8a8"/>
    <text x="28" y="50" font-size="9" fill="#4a5568">9:41</text>

    <!-- Header -->
    <rect x="10" y="57" width="190" height="40" fill="#dcc8a8"/>
    <text x="105" y="82" text-anchor="middle" class="heading">John Doe</text>

    <!-- Messages with scroll indicator -->
    <rect x="20" y="105" width="120" height="28" rx="8" fill="#8b5cf6"/>
    <text x="80" y="123" text-anchor="middle" font-size="10" fill="#fff">Good morning!</text>

    <rect x="70" y="143" width="120" height="28" rx="8" fill="#dcc8a8"/>
    <text x="130" y="161" text-anchor="middle" font-size="10" fill="#4a5568">Morning! :)</text>

    <rect x="20" y="181" width="100" height="28" rx="8" fill="#8b5cf6"/>
    <text x="70" y="199" text-anchor="middle" font-size="10" fill="#fff">Ready for call?</text>

    <!-- Scroll indicator -->
    <rect x="192" y="110" width="4" height="100" rx="2" fill="#b8a080"/>
    <rect x="192" y="110" width="4" height="40" rx="2" fill="#8b5cf6"/>

    <!-- Input area - FIXED -->
    <rect x="10" y="355" width="190" height="58" fill="#22c55e" opacity="0.2"/>
    <rect x="18" y="365" width="140" height="36" rx="10" fill="#f5f0e6" stroke="#b8a080"/>
    <text x="88" y="388" text-anchor="middle" font-size="10" fill="#8494a8">Message...</text>
    <rect x="164" y="365" width="36" height="36" rx="10" fill="#8b5cf6"/>
    <text x="182" y="388" text-anchor="middle" font-size="14" fill="#fff">↑</text>

    <!-- FR-002 annotation -->
    <text x="105" y="430" text-anchor="middle" class="annotation">FR-002: Fixed at bottom ✓</text>
  </g>

  <!-- MOBILE LANDSCAPE -->
  <g transform="translate(520, 50)">
    <text x="200" y="0" text-anchor="middle" class="label-viewport">MOBILE LANDSCAPE</text>
    <text x="200" y="15" text-anchor="middle" class="text-muted">667 x 375</text>

    <!-- Landscape frame -->
    <rect x="0" y="25" width="400" height="200" rx="16" fill="#c8b898" stroke="#a08860" stroke-width="2"/>
    <rect x="8" y="33" width="384" height="184" rx="12" fill="#e8d4b8"/>

    <!-- Status bar (side) -->
    <rect x="8" y="33" width="384" height="18" rx="12" fill="#dcc8a8"/>
    <text x="24" y="45" font-size="8" fill="#4a5568">9:41</text>
    <text x="200" y="45" text-anchor="middle" class="text-sm">John Doe</text>

    <!-- Messages area (compact) -->
    <rect x="16" y="60" width="100" height="22" rx="6" fill="#8b5cf6"/>
    <text x="66" y="75" text-anchor="middle" font-size="8" fill="#fff">Hey!</text>

    <rect x="130" y="60" width="110" height="22" rx="6" fill="#dcc8a8"/>
    <text x="185" y="75" text-anchor="middle" font-size="8" fill="#4a5568">What's up?</text>

    <rect x="16" y="90" width="140" height="22" rx="6" fill="#8b5cf6"/>
    <text x="86" y="105" text-anchor="middle" font-size="8" fill="#fff">Nothing much, you?</text>

    <!-- Input - reduced height but visible -->
    <rect x="8" y="165" width="384" height="50" fill="#22c55e" opacity="0.2"/>
    <rect x="16" y="175" width="340" height="30" rx="8" fill="#f5f0e6" stroke="#b8a080"/>
    <text x="186" y="194" text-anchor="middle" font-size="10" fill="#8494a8">Type message...</text>
    <rect x="360" y="175" width="30" height="30" rx="8" fill="#8b5cf6"/>
    <text x="375" y="194" text-anchor="middle" font-size="12" fill="#fff">↑</text>

    <!-- FR-003 annotation -->
    <text x="200" y="240" text-anchor="middle" class="annotation">FR-003: Portrait &amp; Landscape ✓</text>
  </g>

  <!-- TABLET -->
  <g transform="translate(960, 50)">
    <text x="150" y="0" text-anchor="middle" class="label-viewport">TABLET 768px</text>
    <text x="150" y="15" text-anchor="middle" class="text-muted">iPad Mini</text>

    <!-- Tablet frame -->
    <rect x="0" y="25" width="300" height="400" rx="12" fill="#c8b898" stroke="#a08860" stroke-width="2"/>
    <rect x="10" y="35" width="280" height="380" rx="8" fill="#e8d4b8"/>

    <!-- Header -->
    <rect x="10" y="35" width="280" height="50" fill="#dcc8a8" rx="8"/>
    <text x="150" y="68" text-anchor="middle" class="heading">John Doe</text>

    <!-- Messages -->
    <rect x="25" y="100" width="150" height="35" rx="8" fill="#8b5cf6"/>
    <text x="100" y="122" text-anchor="middle" class="text-sm" fill="#fff">Hey, how's the project?</text>

    <rect x="125" y="145" width="150" height="35" rx="8" fill="#dcc8a8"/>
    <text x="200" y="167" text-anchor="middle" class="text-sm">Going well!</text>

    <rect x="25" y="190" width="180" height="35" rx="8" fill="#8b5cf6"/>
    <text x="115" y="212" text-anchor="middle" class="text-sm" fill="#fff">Great, let's sync tomorrow</text>

    <rect x="80" y="235" width="195" height="35" rx="8" fill="#dcc8a8"/>
    <text x="177" y="257" text-anchor="middle" class="text-sm">Sounds good. 10am?</text>

    <!-- Input area -->
    <rect x="10" y="345" width="280" height="68" fill="#22c55e" opacity="0.2"/>
    <rect x="20" y="355" width="210" height="42" rx="10" fill="#f5f0e6" stroke="#b8a080"/>
    <text x="125" y="382" text-anchor="middle" class="text-sm" fill="#8494a8">Type a message...</text>
    <rect x="240" y="355" width="42" height="42" rx="10" fill="#8b5cf6"/>
    <text x="261" y="382" text-anchor="middle" font-size="16" fill="#fff">↑</text>
  </g>

  <!-- DESKTOP -->
  <g transform="translate(1290, 50)">
    <text x="140" y="0" text-anchor="middle" class="label-viewport">DESKTOP 1024+</text>
    <text x="140" y="15" text-anchor="middle" class="text-muted">Full Layout</text>

    <!-- Desktop frame -->
    <rect x="0" y="25" width="280" height="400" rx="8" fill="#dcc8a8" stroke="#b8a080" stroke-width="1"/>

    <!-- Sidebar hint -->
    <rect x="0" y="25" width="70" height="400" rx="8" fill="#c8b898"/>
    <text x="35" y="50" text-anchor="middle" font-size="8" fill="#5a6577">Chats</text>
    <rect x="8" y="60" width="54" height="35" rx="4" fill="#e8d4b8"/>
    <rect x="8" y="100" width="54" height="35" rx="4" fill="#e8d4b8"/>

    <!-- Chat area -->
    <rect x="75" y="30" width="200" height="35" fill="#e8d4b8"/>
    <text x="175" y="52" text-anchor="middle" class="text-sm">John Doe</text>

    <!-- Messages -->
    <rect x="85" y="75" width="120" height="28" rx="6" fill="#8b5cf6"/>
    <text x="145" y="93" text-anchor="middle" font-size="9" fill="#fff">Hey there!</text>

    <rect x="145" y="110" width="120" height="28" rx="6" fill="#e8d4b8"/>
    <text x="205" y="128" text-anchor="middle" font-size="9" fill="#4a5568">Hello!</text>

    <!-- Input area -->
    <rect x="75" y="365" width="200" height="55" fill="#22c55e" opacity="0.2"/>
    <rect x="85" y="375" width="145" height="36" rx="8" fill="#f5f0e6" stroke="#b8a080"/>
    <text x="157" y="398" text-anchor="middle" font-size="10" fill="#8494a8">Message...</text>
    <rect x="236" y="375" width="36" height="36" rx="8" fill="#8b5cf6"/>
    <text x="254" y="398" text-anchor="middle" font-size="14" fill="#fff">↑</text>
  </g>

  <!-- SCROLL BEHAVIOR DEMO -->
  <g transform="translate(40, 480)">
    <rect x="0" y="0" width="500" height="280" rx="8" fill="#e8d4b8" stroke="#b8a080"/>
    <text x="250" y="25" text-anchor="middle" class="heading">SCROLL BEHAVIOR</text>
    <text x="250" y="45" text-anchor="middle" class="text-muted">FR-002: Input fixed while messages scroll</text>

    <!-- Before scroll -->
    <g transform="translate(20, 60)">
      <text x="90" y="0" text-anchor="middle" class="annotation">Before Scroll</text>
      <rect x="0" y="10" width="180" height="180" rx="8" fill="#dcc8a8"/>

      <rect x="10" y="20" width="80" height="20" rx="4" fill="#8b5cf6"/>
      <rect x="10" y="50" width="100" height="20" rx="4" fill="#dcc8a8" stroke="#b8a080"/>
      <rect x="10" y="80" width="90" height="20" rx="4" fill="#8b5cf6"/>

      <!-- Input fixed -->
      <rect x="10" y="140" width="160" height="35" fill="#22c55e" opacity="0.3" rx="6"/>
      <rect x="15" y="147" width="120" height="22" rx="4" fill="#f5f0e6"/>
      <rect x="140" y="147" width="25" height="22" rx="4" fill="#8b5cf6"/>
    </g>

    <!-- Arrow -->
    <text x="230" y="150" text-anchor="middle" font-size="24" fill="#8b5cf6">→</text>
    <text x="230" y="170" text-anchor="middle" class="text-muted">scroll up</text>

    <!-- After scroll -->
    <g transform="translate(280, 60)">
      <text x="90" y="0" text-anchor="middle" class="annotation">After Scroll</text>
      <rect x="0" y="10" width="180" height="180" rx="8" fill="#dcc8a8"/>

      <!-- Older messages now visible -->
      <rect x="10" y="20" width="70" height="20" rx="4" fill="#dcc8a8" stroke="#b8a080"/>
      <rect x="10" y="50" width="100" height="20" rx="4" fill="#8b5cf6"/>
      <rect x="10" y="80" width="80" height="20" rx="4" fill="#dcc8a8" stroke="#b8a080"/>
      <rect x="10" y="110" width="90" height="20" rx="4" fill="#8b5cf6"/>

      <!-- Input STILL fixed -->
      <rect x="10" y="140" width="160" height="35" fill="#22c55e" opacity="0.3" rx="6"/>
      <rect x="15" y="147" width="120" height="22" rx="4" fill="#f5f0e6"/>
      <rect x="140" y="147" width="25" height="22" rx="4" fill="#8b5cf6"/>

      <!-- Highlight -->
      <text x="90" y="210" text-anchor="middle" class="text-sm" fill="#22c55e">Input stays fixed ✓</text>
    </g>
  </g>

  <!-- SUCCESS CRITERIA -->
  <g transform="translate(580, 480)">
    <rect x="0" y="0" width="980" height="280" rx="8" fill="#22c55e" opacity="0.1" stroke="#22c55e"/>
    <text x="490" y="30" text-anchor="middle" class="heading" fill="#22c55e">SUCCESS CRITERIA - SC-001</text>
    <text x="490" y="55" text-anchor="middle" class="text-md">Message input visible on 100% of viewport sizes tested</text>

    <!-- Viewport grid -->
    <g transform="translate(40, 80)">
      <rect x="0" y="0" width="140" height="60" rx="6" fill="#e8d4b8"/>
      <text x="70" y="25" text-anchor="middle" class="text-sm">320px</text>
      <text x="70" y="45" text-anchor="middle" class="code" fill="#22c55e">✓ Visible</text>
    </g>

    <g transform="translate(160, 80)">
      <rect x="0" y="0" width="140" height="60" rx="6" fill="#e8d4b8"/>
      <text x="70" y="25" text-anchor="middle" class="text-sm">375px</text>
      <text x="70" y="45" text-anchor="middle" class="code" fill="#22c55e">✓ Visible</text>
    </g>

    <g transform="translate(320, 80)">
      <rect x="0" y="0" width="140" height="60" rx="6" fill="#e8d4b8"/>
      <text x="70" y="25" text-anchor="middle" class="text-sm">390px</text>
      <text x="70" y="45" text-anchor="middle" class="code" fill="#22c55e">✓ Visible</text>
    </g>

    <g transform="translate(480, 80)">
      <rect x="0" y="0" width="140" height="60" rx="6" fill="#e8d4b8"/>
      <text x="70" y="25" text-anchor="middle" class="text-sm">428px</text>
      <text x="70" y="45" text-anchor="middle" class="code" fill="#22c55e">✓ Visible</text>
    </g>

    <g transform="translate(640, 80)">
      <rect x="0" y="0" width="140" height="60" rx="6" fill="#e8d4b8"/>
      <text x="70" y="25" text-anchor="middle" class="text-sm">768px</text>
      <text x="70" y="45" text-anchor="middle" class="code" fill="#22c55e">✓ Visible</text>
    </g>

    <g transform="translate(800, 80)">
      <rect x="0" y="0" width="140" height="60" rx="6" fill="#e8d4b8"/>
      <text x="70" y="25" text-anchor="middle" class="text-sm">1024+</text>
      <text x="70" y="45" text-anchor="middle" class="code" fill="#22c55e">✓ Visible</text>
    </g>

    <!-- Requirements list -->
    <g transform="translate(40, 160)">
      <text x="0" y="0" class="annotation">FR-001: All viewport sizes</text>
      <text x="250" y="0" class="annotation">FR-002: Fixed position</text>
      <text x="480" y="0" class="annotation">FR-003: Portrait &amp; landscape</text>
    </g>

    <!-- CSS note -->
    <g transform="translate(40, 200)">
      <rect x="0" y="0" width="900" height="55" rx="4" fill="#e8d4b8"/>
      <text x="20" y="20" class="annotation">CSS Pattern:</text>
      <text x="20" y="40" font-family="monospace" font-size="11" fill="#22c55e">.message-input { position: fixed; bottom: 0; width: 100%; z-index: 100; }</text>
    </g>
  </g>
</svg>
