<svg xmlns="http://www.w3.org/2000/svg" viewBox="0 0 1400 800" width="1400" height="800">
  <!-- ============================================================
       GENERATED BY: /wireframe skill
       SOURCE: features/auth-oauth/016-messaging-critical-fixes/spec.md
       DATE: 2025-12-31
       DO NOT MANUALLY EDIT - Regenerate with /wireframe command
       ============================================================ -->
  <defs>
    <linearGradient id="bgGrad" x1="0%" y1="0%" x2="100%" y2="100%">
      <stop offset="0%" style="stop-color:#0f172a"/>
      <stop offset="100%" style="stop-color:#1e293b"/>
    </linearGradient>
    <linearGradient id="accentGrad" x1="0%" y1="0%" x2="100%" y2="0%">
      <stop offset="0%" style="stop-color:#8b5cf6"/>
      <stop offset="100%" style="stop-color:#d946ef"/>
    </linearGradient>
    <linearGradient id="warningGrad" x1="0%" y1="0%" x2="100%" y2="0%">
      <stop offset="0%" style="stop-color:#eab308"/>
      <stop offset="100%" style="stop-color:#f59e0b"/>
    </linearGradient>
    <style>
      .heading-lg { fill: #ffffff; font-family: system-ui, sans-serif; font-size: 20px; font-weight: bold; }
      .heading { fill: #ffffff; font-family: system-ui, sans-serif; font-size: 14px; font-weight: bold; }
      .text-md { fill: #cbd5e1; font-family: system-ui, sans-serif; font-size: 12px; }
      .text-sm { fill: #94a3b8; font-family: system-ui, sans-serif; font-size: 10px; }
      .text-muted { fill: #64748b; font-family: system-ui, sans-serif; font-size: 10px; }
      .annotation { fill: #8b5cf6; font-family: monospace; font-size: 10px; }
      .label-desktop { fill: #8b5cf6; font-family: monospace; font-size: 11px; font-weight: bold; }
      .label-mobile { fill: #d946ef; font-family: monospace; font-size: 11px; font-weight: bold; }
    </style>
  </defs>

  <!-- Background -->
  <rect width="1400" height="800" fill="url(#bgGrad)"/>

  <!-- Dot grid pattern -->
  <g opacity="0.05">
    <pattern id="dots" width="30" height="30" patternUnits="userSpaceOnUse">
      <circle cx="15" cy="15" r="1" fill="#fff"/>
    </pattern>
    <rect width="1400" height="800" fill="url(#dots)"/>
  </g>

  <!-- Accent line top -->
  <rect x="0" y="0" width="1400" height="3" fill="url(#accentGrad)"/>

  <!-- Title -->
  <text x="700" y="28" text-anchor="middle" font-family="system-ui, sans-serif" font-size="14" font-weight="600" fill="#64748b" letter-spacing="1">OAUTH FULL-PAGE SETUP FLOW (NOT MODAL)</text>

  <!-- DESKTOP SECTION - Full Page Setup -->
  <text x="40" y="52" class="label-desktop">DESKTOP - SETUP PAGE</text>
  <g id="desktop-view">
    <!-- Full page container -->
    <rect x="40" y="60" width="900" height="680" rx="8" fill="#0f172a" stroke="#334155" stroke-width="1"/>

    <!-- Minimal header -->
    <rect x="40" y="60" width="900" height="50" rx="8" fill="#1e293b"/>
    <rect x="40" y="102" width="900" height="8" fill="#1e293b"/>
    <circle cx="75" cy="85" r="14" fill="#8b5cf6"/>
    <text x="75" y="90" text-anchor="middle" font-family="system-ui, sans-serif" font-size="12" font-weight="bold" fill="#fff">S</text>
    <text x="100" y="90" font-family="system-ui, sans-serif" font-size="14" font-weight="bold" fill="#fff">ScriptHammer</text>
    <!-- User info - OAuth badge -->
    <rect x="820" y="72" width="60" height="22" rx="11" fill="#334155"/>
    <text x="850" y="87" text-anchor="middle" class="text-sm">OAuth</text>

    <!-- Centered setup card -->
    <rect x="250" y="140" width="480" height="580" rx="12" fill="#1e293b" stroke="#475569" stroke-width="1"/>

    <!-- Lock/Key icon -->
    <g transform="translate(490, 180)">
      <circle cx="0" cy="0" r="30" fill="#8b5cf6" opacity="0.2"/>
      <rect x="-12" y="-4" width="24" height="18" rx="3" fill="#8b5cf6"/>
      <path d="M-8 -4 L-8 -12 A8 8 0 0 1 8 -12 L8 -4" fill="none" stroke="#8b5cf6" stroke-width="3"/>
      <circle cx="0" cy="5" r="3" fill="#1e293b"/>
    </g>

    <!-- Title -->
    <text x="490" y="240" text-anchor="middle" class="heading-lg">Set Up Encrypted Messaging</text>
    <text x="490" y="265" text-anchor="middle" class="text-md">Create a password to encrypt your messages.</text>
    <text x="490" y="285" text-anchor="middle" class="text-md">This is separate from your login password.</text>

    <!-- WARNING #1 - Above password field (FR-010) -->
    <rect x="280" y="310" width="420" height="45" rx="6" fill="#eab308" opacity="0.15" stroke="#eab308" stroke-width="1"/>
    <g transform="translate(300, 325)">
      <circle cx="8" cy="8" r="8" fill="#eab308"/>
      <text x="8" y="12" text-anchor="middle" font-family="system-ui, sans-serif" font-size="11" font-weight="bold" fill="#1e293b">!</text>
    </g>
    <text x="325" y="330" font-family="system-ui, sans-serif" font-size="11" font-weight="600" fill="#eab308">Save this password in your password manager!</text>
    <text x="325" y="345" class="text-sm" fill="#eab308">You cannot recover encrypted messages if you forget it.</text>

    <!-- Password field with password manager attributes -->
    <text x="290" y="385" class="text-sm">Messaging Password</text>
    <rect x="280" y="395" width="420" height="40" rx="6" fill="#334155" stroke="#475569" stroke-width="1"/>
    <text x="295" y="420" class="text-muted">••••••••••••</text>
    <!-- Eye icon -->
    <circle cx="670" cy="415" r="10" fill="transparent" stroke="#64748b" stroke-width="1"/>
    <circle cx="670" cy="415" r="3" fill="#64748b"/>

    <!-- Confirm password field -->
    <text x="290" y="455" class="text-sm">Confirm Password</text>
    <rect x="280" y="465" width="420" height="40" rx="6" fill="#334155" stroke="#475569" stroke-width="1"/>
    <text x="295" y="490" class="text-muted">••••••••••••</text>
    <circle cx="670" cy="485" r="10" fill="transparent" stroke="#64748b" stroke-width="1"/>
    <circle cx="670" cy="485" r="3" fill="#64748b"/>

    <!-- WARNING #2 - Below confirm field (FR-010) -->
    <rect x="280" y="520" width="420" height="45" rx="6" fill="#eab308" opacity="0.15" stroke="#eab308" stroke-width="1"/>
    <g transform="translate(300, 535)">
      <circle cx="8" cy="8" r="8" fill="#eab308"/>
      <text x="8" y="12" text-anchor="middle" font-family="system-ui, sans-serif" font-size="11" font-weight="bold" fill="#1e293b">!</text>
    </g>
    <text x="325" y="540" font-family="system-ui, sans-serif" font-size="11" font-weight="600" fill="#eab308">Did you save your password?</text>
    <text x="325" y="555" class="text-sm" fill="#eab308">There is NO password recovery for encrypted messages.</text>

    <!-- Password manager hint -->
    <rect x="280" y="580" width="420" height="30" rx="4" fill="#334155"/>
    <text x="490" y="600" text-anchor="middle" class="text-sm">Your password manager should offer to save this</text>

    <!-- Submit button -->
    <rect x="280" y="625" width="420" height="44" rx="6" fill="#8b5cf6"/>
    <text x="490" y="653" text-anchor="middle" font-family="system-ui, sans-serif" font-size="14" font-weight="600" fill="#fff">Create Encrypted Messaging</text>

    <!-- Form attributes annotation -->
    <rect x="280" y="680" width="420" height="30" rx="4" fill="#1e293b" stroke="#334155" stroke-width="1"/>
    <text x="490" y="700" text-anchor="middle" class="text-muted">form autocomplete="on" | input autocomplete="new-password"</text>
  </g>

  <!-- MOBILE SECTION - Success State with Warning #3 -->
  <text x="980" y="52" class="label-mobile">MOBILE - SUCCESS STATE</text>
  <g id="mobile-view" transform="translate(980, 60)">
    <!-- Phone frame -->
    <rect x="0" y="0" width="360" height="700" rx="24" fill="#1e293b" stroke="#475569" stroke-width="2"/>
    <!-- Screen area -->
    <rect x="10" y="10" width="340" height="680" rx="16" fill="#0f172a"/>
    <!-- Status bar -->
    <rect x="10" y="10" width="340" height="28" rx="16" fill="#1e293b"/>
    <text x="30" y="28" class="text-sm">9:41</text>
    <text x="320" y="28" text-anchor="end" class="text-sm">100%</text>

    <!-- Header -->
    <rect x="10" y="38" width="340" height="50" fill="#1e293b"/>
    <text x="180" y="68" text-anchor="middle" font-family="system-ui, sans-serif" font-size="14" font-weight="bold" fill="#fff">Setup Complete</text>

    <!-- Success icon -->
    <g transform="translate(180, 160)">
      <circle cx="0" cy="0" r="40" fill="#22c55e" opacity="0.2"/>
      <circle cx="0" cy="0" r="30" fill="#22c55e"/>
      <path d="M-12 0 L-4 8 L14 -10" fill="none" stroke="#fff" stroke-width="4" stroke-linecap="round" stroke-linejoin="round"/>
    </g>

    <!-- Success message -->
    <text x="180" y="230" text-anchor="middle" font-family="system-ui, sans-serif" font-size="16" font-weight="bold" fill="#fff">Messaging Ready!</text>
    <text x="180" y="255" text-anchor="middle" class="text-md">Your encrypted messaging is now set up.</text>

    <!-- WARNING #3 - After successful setup (FR-010) -->
    <rect x="25" y="285" width="310" height="90" rx="8" fill="#eab308" opacity="0.15" stroke="#eab308" stroke-width="2"/>
    <g transform="translate(45, 310)">
      <circle cx="12" cy="12" r="12" fill="#eab308"/>
      <text x="12" y="17" text-anchor="middle" font-family="system-ui, sans-serif" font-size="14" font-weight="bold" fill="#1e293b">!</text>
    </g>
    <text x="75" y="315" font-family="system-ui, sans-serif" font-size="12" font-weight="bold" fill="#eab308">Final Reminder</text>
    <text x="75" y="335" font-family="system-ui, sans-serif" font-size="10" fill="#eab308">Make sure your password is saved!</text>
    <text x="75" y="355" font-family="system-ui, sans-serif" font-size="10" fill="#eab308">If you lose it, your messages cannot</text>
    <text x="75" y="370" font-family="system-ui, sans-serif" font-size="10" fill="#eab308">be recovered.</text>

    <!-- Password manager confirmation -->
    <rect x="25" y="395" width="310" height="50" rx="6" fill="#334155"/>
    <rect x="35" y="410" width="20" height="20" rx="4" fill="#8b5cf6"/>
    <text x="45" y="424" text-anchor="middle" fill="#fff" font-family="system-ui, sans-serif" font-size="12">✓</text>
    <text x="65" y="422" class="text-sm">I have saved my messaging password</text>
    <text x="65" y="438" class="text-muted">in a password manager or secure location</text>

    <!-- Continue button -->
    <rect x="25" y="465" width="310" height="44" rx="6" fill="#8b5cf6"/>
    <text x="180" y="493" text-anchor="middle" font-family="system-ui, sans-serif" font-size="14" font-weight="600" fill="#fff">Continue to Messages</text>

    <!-- Difference from modal callout -->
    <rect x="25" y="540" width="310" height="70" rx="6" fill="#1e293b" stroke="#d946ef" stroke-width="1"/>
    <text x="180" y="560" text-anchor="middle" font-family="system-ui, sans-serif" font-size="11" font-weight="600" fill="#d946ef">Why a full page?</text>
    <text x="180" y="580" text-anchor="middle" class="text-sm">Full-page setup is harder to dismiss</text>
    <text x="180" y="595" text-anchor="middle" class="text-sm">accidentally and works better with</text>
    <text x="180" y="610" text-anchor="middle" class="text-sm">password managers than modals.</text>

    <!-- FR-005 indicator -->
    <rect x="25" y="630" width="310" height="30" rx="4" fill="#334155"/>
    <text x="180" y="650" text-anchor="middle" class="annotation">FR-005: Full-page setup, NOT modal</text>
  </g>

  <!-- Annotations -->
  <!-- Warning #1 annotation -->
  <g class="annotation-box">
    <rect x="710" y="305" width="90" height="45" rx="4" fill="#1e293b" stroke="#eab308" stroke-width="1"/>
    <text x="755" y="323" text-anchor="middle" fill="#eab308" font-family="monospace" font-size="10">WARNING 1</text>
    <text x="755" y="338" text-anchor="middle" class="text-muted">Above password</text>
  </g>

  <!-- Warning #2 annotation -->
  <g class="annotation-box">
    <rect x="710" y="515" width="90" height="45" rx="4" fill="#1e293b" stroke="#eab308" stroke-width="1"/>
    <text x="755" y="533" text-anchor="middle" fill="#eab308" font-family="monospace" font-size="10">WARNING 2</text>
    <text x="755" y="548" text-anchor="middle" class="text-muted">Below confirm</text>
  </g>

  <!-- Warning #3 annotation -->
  <g class="annotation-box">
    <rect x="1350" y="285" width="45" height="55" rx="4" fill="#1e293b" stroke="#eab308" stroke-width="1"/>
    <text x="1372" y="303" text-anchor="middle" fill="#eab308" font-family="monospace" font-size="9">WARN</text>
    <text x="1372" y="318" text-anchor="middle" fill="#eab308" font-family="monospace" font-size="9">3</text>
    <text x="1372" y="333" text-anchor="middle" class="text-muted">After</text>
  </g>

  <!-- Password manager annotation -->
  <g class="annotation-box">
    <rect x="710" y="395" width="90" height="55" rx="4" fill="#1e293b" stroke="#8b5cf6" stroke-width="1"/>
    <text x="755" y="413" text-anchor="middle" class="annotation">FR-009/011</text>
    <text x="755" y="428" text-anchor="middle" class="text-muted">Password mgr</text>
    <text x="755" y="443" text-anchor="middle" class="text-muted">attributes</text>
  </g>

  <!-- FR-005 Full page annotation -->
  <g class="annotation-box">
    <rect x="710" y="140" width="90" height="55" rx="4" fill="#1e293b" stroke="#d946ef" stroke-width="1"/>
    <text x="755" y="158" text-anchor="middle" fill="#d946ef" font-family="monospace" font-size="10">FR-005</text>
    <text x="755" y="173" text-anchor="middle" class="text-muted">Full PAGE</text>
    <text x="755" y="188" text-anchor="middle" class="text-muted">not modal</text>
  </g>

  <!-- Leader lines -->
  <g id="leader-lines">
    <line x1="710" y1="327" x2="705" y2="332" stroke="#eab308" stroke-width="1" stroke-dasharray="4,2"/>
    <line x1="710" y1="537" x2="705" y2="542" stroke="#eab308" stroke-width="1" stroke-dasharray="4,2"/>
    <line x1="710" y1="420" x2="705" y2="415" stroke="#8b5cf6" stroke-width="1" stroke-dasharray="4,2"/>
    <line x1="710" y1="167" x2="705" y2="250" stroke="#d946ef" stroke-width="1" stroke-dasharray="4,2"/>
    <line x1="1350" y1="310" x2="1340" y2="330" stroke="#eab308" stroke-width="1" stroke-dasharray="4,2"/>
  </g>
</svg>
