<svg xmlns="http://www.w3.org/2000/svg" viewBox="0 0 1400 800" width="1400" height="800">
  <!-- ============================================================
       GENERATED BY: /wireframe skill
       SOURCE: features/auth-oauth/016-messaging-critical-fixes/spec.md
       DATE: 2026-01-01
       THEME: Light (UX/Frontend) - v3 True Parchment
       DO NOT MANUALLY EDIT - Regenerate with /wireframe command
       ============================================================ -->
  <defs>
    <linearGradient id="bgGrad" x1="0%" y1="0%" x2="100%" y2="100%">
      <stop offset="0%" style="stop-color:#c7ddf5"/>
      <stop offset="100%" style="stop-color:#b8d4f0"/>
    </linearGradient>
    <linearGradient id="accentGrad" x1="0%" y1="0%" x2="100%" y2="0%">
      <stop offset="0%" style="stop-color:#8b5cf6"/>
      <stop offset="100%" style="stop-color:#d946ef"/>
    </linearGradient>
    <style>
      .heading-lg { fill: #1a1a2e; font-family: system-ui, sans-serif; font-size: 24px; font-weight: 800; }
      .heading { fill: #1a1a2e; font-family: system-ui, sans-serif; font-size: 16px; font-weight: 700; }
      .text-md { fill: #2d3748; font-family: system-ui, sans-serif; font-size: 14px; font-weight: 500; }
      .text-sm { fill: #4a5568; font-family: system-ui, sans-serif; font-size: 12px; font-weight: 500; }
      .text-muted { fill: #5a6577; font-family: system-ui, sans-serif; font-size: 11px; font-weight: 500; }
      .annotation { fill: #8b5cf6; font-family: monospace; font-size: 12px; font-weight: 600; }
      .label-desktop { fill: #8b5cf6; font-family: monospace; font-size: 13px; font-weight: bold; }
      .label-mobile { fill: #d946ef; font-family: monospace; font-size: 13px; font-weight: bold; }
      .warning { fill: #eab308; font-family: system-ui, sans-serif; font-size: 11px; font-weight: 600; }
    </style>
  </defs>

  <!-- Background -->
  <rect width="1400" height="800" fill="url(#bgGrad)"/>

  <!-- Dot grid pattern -->
  <g opacity="0.35">
    <pattern id="dots" width="30" height="30" patternUnits="userSpaceOnUse">
      <circle cx="15" cy="15" r="1" fill="#6b8cba"/>
    </pattern>
    <rect width="1400" height="800" fill="url(#dots)"/>
  </g>

  <!-- Accent line top -->
  <rect x="0" y="0" width="1400" height="3" fill="url(#accentGrad)"/>

  <!-- Title -->
  <text x="700" y="28" text-anchor="middle" font-family="system-ui, sans-serif" font-size="14" font-weight="600" fill="#5a6577" letter-spacing="1">OAUTH FULL-PAGE SETUP FLOW</text>

  <!-- DESKTOP SECTION -->
  <text x="40" y="52" class="label-desktop">DESKTOP - FULL PAGE SETUP</text>
  <g id="desktop-view">
    <!-- Main panel -->
    <rect x="40" y="60" width="900" height="680" rx="8" fill="#e8d4b8" stroke="#b8a080" stroke-width="1"/>

    <!-- Header -->
    <rect x="40" y="60" width="900" height="50" rx="8" fill="#dcc8a8"/>
    <text x="60" y="92" class="heading">ScriptHammer</text>
    <circle cx="900" cy="85" r="18" fill="#8b5cf6"/>
    <text x="900" y="90" text-anchor="middle" fill="#fff" font-size="12">JD</text>

    <!-- Centered setup card -->
    <g transform="translate(215, 140)">
      <rect x="0" y="0" width="510" height="540" rx="12" fill="#f5f0e6" stroke="#8b5cf6" stroke-width="2"/>

      <!-- Icon -->
      <circle cx="255" cy="60" r="40" fill="#8b5cf6" opacity="0.2"/>
      <text x="255" y="72" text-anchor="middle" font-size="36">🔐</text>

      <!-- Title -->
      <text x="255" y="130" text-anchor="middle" class="heading-lg">Set Up Encrypted Messaging</text>
      <text x="255" y="158" text-anchor="middle" class="text-md">Create a password to encrypt your messages</text>

      <!-- Warning 1: ABOVE password field -->
      <g transform="translate(40, 180)">
        <rect x="0" y="0" width="430" height="45" rx="6" fill="#eab308" opacity="0.2" stroke="#eab308"/>
        <text x="215" y="18" text-anchor="middle" class="warning">⚠️ SAVE THIS PASSWORD</text>
        <text x="215" y="35" text-anchor="middle" class="text-sm">This password cannot be recovered. Save it in your password manager.</text>
        <text x="400" y="15" class="annotation">FR-010 ①</text>
      </g>

      <!-- Password field -->
      <g transform="translate(40, 240)">
        <text x="0" y="0" class="text-sm">Messaging Password</text>
        <rect x="0" y="10" width="430" height="44" rx="8" fill="#fff" stroke="#b8a080" stroke-width="2"/>
        <text x="15" y="38" class="text-muted">••••••••••••</text>
        <text x="400" y="38" class="text-sm">👁️</text>
      </g>

      <!-- Confirm password field -->
      <g transform="translate(40, 320)">
        <text x="0" y="0" class="text-sm">Confirm Password</text>
        <rect x="0" y="10" width="430" height="44" rx="8" fill="#fff" stroke="#b8a080" stroke-width="2"/>
        <text x="15" y="38" class="text-muted">••••••••••••</text>
      </g>

      <!-- Warning 2: BELOW confirm field -->
      <g transform="translate(40, 390)">
        <rect x="0" y="0" width="430" height="35" rx="6" fill="#eab308" opacity="0.15"/>
        <text x="215" y="22" text-anchor="middle" class="text-sm" fill="#92400e">💾 Your password manager should prompt to save these credentials</text>
        <text x="400" y="10" class="annotation">FR-010 ②</text>
      </g>

      <!-- Submit button -->
      <rect x="40" y="445" width="430" height="50" rx="10" fill="#8b5cf6"/>
      <text x="255" y="478" text-anchor="middle" fill="#fff" font-size="16" font-weight="600">Set Up Encrypted Messaging</text>

      <!-- FR refs -->
      <text x="255" y="520" text-anchor="middle" class="annotation">FR-005: Full-page (not modal) • FR-006: Password + Confirm</text>
    </g>

    <!-- Password manager hint annotation (side) -->
    <g transform="translate(730, 300)">
      <rect x="0" y="0" width="180" height="100" rx="6" fill="#e8d4b8" stroke="#8b5cf6"/>
      <text x="90" y="20" text-anchor="middle" class="annotation">FR-009</text>
      <text x="90" y="40" text-anchor="middle" class="text-sm">Form attributes:</text>
      <text x="90" y="58" text-anchor="middle" font-family="monospace" font-size="9" fill="#22c55e">autocomplete="new-password"</text>
      <text x="90" y="75" text-anchor="middle" font-family="monospace" font-size="9" fill="#22c55e">name="messaging-password"</text>
      <text x="90" y="92" text-anchor="middle" class="text-muted">Password managers detect</text>
    </g>
  </g>

  <!-- MOBILE SECTION -->
  <text x="980" y="52" class="label-mobile">MOBILE</text>
  <g id="mobile-view" transform="translate(980, 60)">
    <!-- Phone frame -->
    <rect x="0" y="0" width="360" height="700" rx="24" fill="#c8b898" stroke="#a08860" stroke-width="2"/>
    <rect x="10" y="10" width="340" height="680" rx="16" fill="#e8d4b8"/>

    <!-- Status bar -->
    <rect x="10" y="10" width="340" height="28" rx="16" fill="#dcc8a8"/>
    <text x="30" y="28" class="text-sm">9:41</text>

    <!-- Header -->
    <rect x="10" y="38" width="340" height="45" fill="#dcc8a8"/>
    <text x="180" y="68" text-anchor="middle" class="heading">Messaging Setup</text>

    <!-- Mobile content -->
    <g transform="translate(10, 95)">
      <!-- Icon -->
      <circle cx="170" cy="35" r="30" fill="#8b5cf6" opacity="0.2"/>
      <text x="170" y="45" text-anchor="middle" font-size="28">🔐</text>

      <!-- Title -->
      <text x="170" y="90" text-anchor="middle" class="heading">Set Up Encrypted</text>
      <text x="170" y="110" text-anchor="middle" class="heading">Messaging</text>

      <!-- Warning 1 -->
      <rect x="15" y="125" width="310" height="40" rx="6" fill="#eab308" opacity="0.2" stroke="#eab308"/>
      <text x="170" y="143" text-anchor="middle" class="warning">⚠️ SAVE THIS PASSWORD</text>
      <text x="170" y="158" text-anchor="middle" font-size="9" fill="#5a6577">Cannot be recovered</text>

      <!-- Password field -->
      <text x="15" y="185" font-size="11" fill="#4a5568">Messaging Password</text>
      <rect x="15" y="195" width="310" height="40" rx="8" fill="#f5f0e6" stroke="#b8a080"/>
      <text x="30" y="220" class="text-muted">••••••••</text>

      <!-- Confirm field -->
      <text x="15" y="255" font-size="11" fill="#4a5568">Confirm Password</text>
      <rect x="15" y="265" width="310" height="40" rx="8" fill="#f5f0e6" stroke="#b8a080"/>
      <text x="30" y="290" class="text-muted">••••••••</text>

      <!-- Warning 2 -->
      <rect x="15" y="320" width="310" height="30" rx="4" fill="#eab308" opacity="0.15"/>
      <text x="170" y="340" text-anchor="middle" font-size="9" fill="#92400e">💾 Save in password manager</text>

      <!-- Submit -->
      <rect x="15" y="365" width="310" height="44" rx="10" fill="#8b5cf6"/>
      <text x="170" y="393" text-anchor="middle" fill="#fff" font-size="14" font-weight="600">Set Up Messaging</text>
    </g>

    <!-- Success state toast -->
    <g transform="translate(30, 530)">
      <rect x="0" y="0" width="280" height="75" rx="8" fill="#22c55e"/>
      <text x="140" y="22" text-anchor="middle" fill="#fff" font-size="14" font-weight="600">✓ Setup Complete!</text>
      <rect x="20" y="35" width="240" height="30" rx="4" fill="#fff" opacity="0.2"/>
      <text x="140" y="55" text-anchor="middle" fill="#fff" font-size="10">⚠️ Save your password securely</text>
      <text x="260" y="20" class="annotation" fill="#fff">FR-010 ③</text>
    </g>

    <!-- Bottom nav -->
    <rect x="10" y="640" width="340" height="50" rx="16" fill="#dcc8a8"/>
  </g>

  <!-- MODE COMPARISON -->
  <g transform="translate(40, 755)">
    <rect x="0" y="0" width="500" height="35" rx="6" fill="#8b5cf6" opacity="0.2"/>
    <text x="250" y="22" text-anchor="middle" class="annotation">FR-007: "Setup Mode" (no valid keys) = FULL PAGE</text>
  </g>

  <g transform="translate(560, 755)">
    <rect x="0" y="0" width="380" height="35" rx="6" fill="#dcc8a8"/>
    <text x="190" y="22" text-anchor="middle" class="text-md">FR-007: "Unlock Mode" (keys exist) = Modal</text>
  </g>

  <!-- FR-008 note -->
  <g transform="translate(960, 755)">
    <rect x="0" y="0" width="380" height="35" rx="6" fill="#ef4444" opacity="0.15" stroke="#ef4444"/>
    <text x="190" y="22" text-anchor="middle" class="text-sm" fill="#ef4444">FR-008: Revoked keys ≠ valid keys → Show setup</text>
  </g>
</svg>
