<svg xmlns="http://www.w3.org/2000/svg" viewBox="0 0 1400 800" width="1400" height="800">
  <!-- ============================================================
       GENERATED BY: /wireframe skill
       SOURCE: features/auth-oauth/016-messaging-critical-fixes/spec.md
       DATE: 2026-01-01
       THEME: Light (UX/Frontend) - v3 True Parchment
       DO NOT MANUALLY EDIT - Regenerate with /wireframe command
       ============================================================ -->
  <defs>
    <linearGradient id="bgGrad" x1="0%" y1="0%" x2="100%" y2="100%">
      <stop offset="0%" style="stop-color:#c7ddf5"/>
      <stop offset="100%" style="stop-color:#b8d4f0"/>
    </linearGradient>
    <linearGradient id="accentGrad" x1="0%" y1="0%" x2="100%" y2="0%">
      <stop offset="0%" style="stop-color:#8b5cf6"/>
      <stop offset="100%" style="stop-color:#d946ef"/>
    </linearGradient>
    <style>
      .heading-lg { fill: #1a1a2e; font-family: system-ui, sans-serif; font-size: 24px; font-weight: 800; }
      .heading { fill: #1a1a2e; font-family: system-ui, sans-serif; font-size: 16px; font-weight: 700; }
      .text-md { fill: #2d3748; font-family: system-ui, sans-serif; font-size: 14px; font-weight: 500; }
      .text-sm { fill: #374151; font-family: system-ui, sans-serif; font-size: 12px; font-weight: 500; }
      .text-muted { fill: #4b5563; font-family: system-ui, sans-serif; font-size: 11px; font-weight: 500; }
      .annotation { fill: #6d28d9; font-family: monospace; font-size: 12px; font-weight: 600; }
      .label-section { fill: #d946ef; font-family: monospace; font-size: 13px; font-weight: bold; }
    </style>
  </defs>

  <!-- Background -->
  <rect width="1400" height="800" fill="url(#bgGrad)"/>

  <!-- Dot grid pattern -->
  <g opacity="0.35">
    <pattern id="dots" width="30" height="30" patternUnits="userSpaceOnUse">
      <circle cx="15" cy="15" r="1" fill="#6b8cba"/>
    </pattern>
    <rect width="1400" height="800" fill="url(#dots)"/>
  </g>

  <!-- Accent line top -->
  <rect x="0" y="0" width="1400" height="3" fill="url(#accentGrad)"/>

  <!-- Title -->
  <text x="700" y="28" text-anchor="middle" font-family="system-ui, sans-serif" font-size="14" font-weight="600" fill="#4b5563" letter-spacing="1">DECRYPTION ERRORS &amp; PARTICIPANT NAME RESOLUTION</text>

  <!-- DECRYPTION ERROR UX Section -->
  <text x="40" y="55" class="label-section">DECRYPTION FAILURE STATES</text>

  <!-- Conversation view with error messages -->
  <g transform="translate(40, 70)">
    <rect x="0" y="0" width="450" height="420" rx="8" fill="#e8d4b8" stroke="#b8a080"/>

    <!-- Header -->
    <rect x="0" y="0" width="450" height="45" rx="8" fill="#dcc8a8"/>
    <text x="225" y="28" text-anchor="middle" class="heading">Jane Smith</text>

    <!-- Normal message -->
    <g transform="translate(20, 60)">
      <rect x="0" y="0" width="200" height="40" rx="8" fill="#8b5cf6"/>
      <text x="100" y="25" text-anchor="middle" fill="#fff" font-size="12">Hey, how's it going?</text>
    </g>

    <!-- Normal reply -->
    <g transform="translate(230, 110)">
      <rect x="0" y="0" width="200" height="40" rx="8" fill="#dcc8a8"/>
      <text x="100" y="25" text-anchor="middle" class="text-sm">Good! Just finished lunch</text>
    </g>

    <!-- ENCRYPTED MESSAGE - Can't decrypt -->
    <g transform="translate(20, 165)">
      <rect x="0" y="0" width="250" height="50" rx="8" fill="#f5f0e6" stroke="#b8a080" stroke-dasharray="4,2"/>

      <!-- Lock icon -->
      <circle cx="25" cy="25" r="15" fill="#8494a8" opacity="0.3"/>
      <text x="25" y="30" text-anchor="middle" font-size="14">🔒</text>

      <!-- Explanation text -->
      <text x="50" y="22" class="text-sm" fill="#8494a8">Encrypted with previous keys</text>
      <text x="50" y="38" class="text-muted">This message cannot be decrypted</text>

      <!-- FR ref -->
      <text x="270" y="20" class="annotation">FR-012, FR-013</text>
    </g>

    <!-- Another encrypted message -->
    <g transform="translate(180, 230)">
      <rect x="0" y="0" width="250" height="50" rx="8" fill="#f5f0e6" stroke="#b8a080" stroke-dasharray="4,2"/>
      <circle cx="25" cy="25" r="15" fill="#8494a8" opacity="0.3"/>
      <text x="25" y="30" text-anchor="middle" font-size="14">🔒</text>
      <text x="50" y="22" class="text-sm" fill="#8494a8">Encrypted with previous keys</text>
      <text x="50" y="38" class="text-muted">This message cannot be decrypted</text>
    </g>

    <!-- Normal message after -->
    <g transform="translate(20, 295)">
      <rect x="0" y="0" width="180" height="40" rx="8" fill="#8b5cf6"/>
      <text x="90" y="25" text-anchor="middle" fill="#fff" font-size="12">I'm back online now!</text>
    </g>

    <!-- Input -->
    <rect x="15" y="360" width="420" height="45" rx="8" fill="#f5f0e6" stroke="#b8a080"/>
    <text x="30" y="388" class="text-muted">Type a message...</text>

    <!-- FR-015 annotation -->
    <text x="225" y="440" text-anchor="middle" class="annotation">FR-015: Individual indicators per message ✓</text>
  </g>

  <!-- Tooltip detail -->
  <g transform="translate(510, 70)">
    <rect x="0" y="0" width="350" height="150" rx="8" fill="#e8d4b8" stroke="#8b5cf6"/>
    <text x="175" y="25" text-anchor="middle" class="heading">Hover/Focus Tooltip</text>
    <text x="175" y="45" text-anchor="middle" class="annotation">FR-014</text>

    <!-- Tooltip mockup -->
    <g transform="translate(30, 60)">
      <rect x="0" y="0" width="290" height="70" rx="6" fill="#1e293b"/>
      <polygon points="145,70 135,85 155,85" fill="#1e293b"/>

      <text x="145" y="22" text-anchor="middle" fill="#fff" font-size="11" font-weight="600">Message Encrypted with Old Keys</text>
      <text x="145" y="42" text-anchor="middle" fill="#94a3b8" font-size="10">This message was encrypted before you</text>
      <text x="145" y="56" text-anchor="middle" fill="#94a3b8" font-size="10">regenerated your encryption keys.</text>
    </g>
  </g>

  <!-- PARTICIPANT NAME RESOLUTION Section -->
  <text x="510" y="250" class="label-section">PARTICIPANT NAME RESOLUTION</text>

  <!-- Name resolution examples -->
  <g transform="translate(510, 270)">
    <rect x="0" y="0" width="350" height="220" rx="8" fill="#e8d4b8" stroke="#b8a080"/>
    <text x="175" y="25" text-anchor="middle" class="heading">Conversation Headers</text>

    <!-- Good: Display name -->
    <g transform="translate(20, 45)">
      <rect x="0" y="0" width="310" height="45" rx="6" fill="#22c55e" opacity="0.15" stroke="#22c55e"/>
      <circle cx="25" cy="22" r="15" fill="#8b5cf6"/>
      <text x="25" y="27" text-anchor="middle" fill="#fff" font-size="10">JS</text>
      <text x="55" y="20" class="heading">Jane Smith</text>
      <text x="55" y="35" class="text-muted">Display name shown</text>
      <text x="290" y="28" class="annotation">FR-016 ✓</text>
    </g>

    <!-- Good: Username fallback -->
    <g transform="translate(20, 100)">
      <rect x="0" y="0" width="310" height="45" rx="6" fill="#8b5cf6" opacity="0.15"/>
      <circle cx="25" cy="22" r="15" fill="#dcc8a8"/>
      <text x="25" y="27" text-anchor="middle" font-size="10">?</text>
      <text x="55" y="20" class="heading">@john_doe_42</text>
      <text x="55" y="35" class="text-muted">Username when no display name</text>
      <text x="290" y="28" class="annotation">FR-017</text>
    </g>

    <!-- Deleted user -->
    <g transform="translate(20, 155)">
      <rect x="0" y="0" width="310" height="45" rx="6" fill="#ef4444" opacity="0.15" stroke="#ef4444"/>
      <circle cx="25" cy="22" r="15" fill="#ef4444" opacity="0.3"/>
      <text x="25" y="27" text-anchor="middle" font-size="10">✕</text>
      <text x="55" y="20" class="heading" fill="#ef4444">Deleted User</text>
      <text x="55" y="35" class="text-muted">Account no longer exists</text>
      <text x="290" y="28" class="annotation">FR-018</text>
    </g>
  </g>

  <!-- EDGE CASE: Missing profile -->
  <g transform="translate(880, 70)">
    <rect x="0" y="0" width="480" height="150" rx="8" fill="#eab308" opacity="0.15" stroke="#eab308"/>
    <text x="240" y="28" text-anchor="middle" class="heading" fill="#92400e">Edge Case: Missing Profile Data</text>
    <text x="240" y="50" text-anchor="middle" class="annotation">FR-019</text>

    <!-- Unknown user example -->
    <g transform="translate(40, 65)">
      <rect x="0" y="0" width="400" height="60" rx="6" fill="#e8d4b8"/>
      <circle cx="30" cy="30" r="20" fill="#eab308" opacity="0.5"/>
      <text x="30" y="36" text-anchor="middle" font-size="14">⚠️</text>
      <text x="65" y="25" class="heading" fill="#92400e">Unknown User</text>
      <text x="65" y="45" class="text-sm" fill="#92400e">Profile data could not be loaded</text>
      <rect x="320" y="15" width="70" height="28" rx="4" fill="#eab308" opacity="0.3"/>
      <text x="355" y="34" text-anchor="middle" class="text-muted">Data issue</text>
    </g>
  </g>

  <!-- CONVERSATION-LEVEL BANNER (all undecryptable) -->
  <g transform="translate(880, 240)">
    <rect x="0" y="0" width="480" height="250" rx="8" fill="#e8d4b8" stroke="#b8a080"/>
    <text x="240" y="25" text-anchor="middle" class="heading">All Messages Undecryptable</text>
    <text x="240" y="45" text-anchor="middle" class="text-muted">Edge case: Show conversation-level banner</text>

    <!-- Mini conversation with banner -->
    <g transform="translate(40, 65)">
      <!-- Banner -->
      <rect x="0" y="0" width="400" height="50" rx="6" fill="#ef4444" opacity="0.15" stroke="#ef4444"/>
      <text x="200" y="20" text-anchor="middle" class="text-md" fill="#ef4444">🔒 Encrypted Conversation History</text>
      <text x="200" y="38" text-anchor="middle" class="text-sm" fill="#b91c1c">Messages encrypted with previous keys cannot be read</text>

      <!-- All locked messages -->
      <g transform="translate(0, 60)">
        <rect x="0" y="0" width="180" height="35" rx="6" fill="#f5f0e6" stroke="#b8a080" stroke-dasharray="3,2"/>
        <text x="20" y="22" font-size="12">🔒</text>
        <text x="40" y="23" class="text-muted">Encrypted message</text>
      </g>

      <g transform="translate(200, 100)">
        <rect x="0" y="0" width="200" height="35" rx="6" fill="#f5f0e6" stroke="#b8a080" stroke-dasharray="3,2"/>
        <text x="20" y="22" font-size="12">🔒</text>
        <text x="40" y="23" class="text-muted">Encrypted message</text>
      </g>

      <g transform="translate(20, 145)">
        <rect x="0" y="0" width="160" height="35" rx="6" fill="#f5f0e6" stroke="#b8a080" stroke-dasharray="3,2"/>
        <text x="20" y="22" font-size="12">🔒</text>
        <text x="40" y="23" class="text-muted">Encrypted message</text>
      </g>
    </g>
  </g>

  <!-- SUCCESS CRITERIA -->
  <g transform="translate(40, 510)">
    <rect x="0" y="0" width="1320" height="120" rx="8" fill="#22c55e" opacity="0.1" stroke="#22c55e"/>
    <text x="660" y="30" text-anchor="middle" class="heading" fill="#22c55e">SUCCESS CRITERIA</text>

    <!-- SC-004 -->
    <g transform="translate(40, 50)">
      <rect x="0" y="0" width="380" height="55" rx="6" fill="#e8d4b8"/>
      <text x="190" y="22" text-anchor="middle" class="annotation">SC-004</text>
      <text x="190" y="42" text-anchor="middle" class="text-sm">Decryption failures show user-friendly explanation</text>
      <text x="350" y="48" fill="#22c55e" font-size="14">✓</text>
    </g>

    <!-- SC-005 -->
    <g transform="translate(460, 50)">
      <rect x="0" y="0" width="380" height="55" rx="6" fill="#e8d4b8"/>
      <text x="190" y="22" text-anchor="middle" class="annotation">SC-005</text>
      <text x="190" y="42" text-anchor="middle" class="text-sm">Participant names resolve correctly (0% "Unknown")</text>
      <text x="350" y="48" fill="#22c55e" font-size="14">✓</text>
    </g>

    <!-- FR summary -->
    <g transform="translate(880, 50)">
      <rect x="0" y="0" width="380" height="55" rx="6" fill="#e8d4b8"/>
      <text x="190" y="22" text-anchor="middle" class="annotation">Requirements</text>
      <text x="190" y="42" text-anchor="middle" class="text-sm">FR-012 to FR-019: All addressed</text>
      <text x="350" y="48" fill="#22c55e" font-size="14">✓</text>
    </g>
  </g>

  <!-- COMPARISON: Bad vs Good -->
  <g transform="translate(40, 650)">
    <rect x="0" y="0" width="640" height="130" rx="8" fill="#ef4444" opacity="0.1" stroke="#ef4444"/>
    <text x="320" y="25" text-anchor="middle" class="heading" fill="#ef4444">❌ BAD: Raw Errors</text>

    <g transform="translate(20, 45)">
      <rect x="0" y="0" width="280" height="70" rx="6" fill="#e8d4b8"/>
      <text x="140" y="25" text-anchor="middle" class="text-sm" fill="#ef4444">Error: DECRYPTION_FAILED</text>
      <text x="140" y="45" text-anchor="middle" font-family="monospace" font-size="9" fill="#ef4444">at CryptoKey.decrypt (crypto.js:42)</text>
      <text x="140" y="60" text-anchor="middle" class="text-muted">Confusing for users!</text>
    </g>

    <g transform="translate(340, 45)">
      <rect x="0" y="0" width="280" height="70" rx="6" fill="#e8d4b8"/>
      <text x="140" y="25" text-anchor="middle" class="text-sm" fill="#ef4444">Unknown</text>
      <text x="140" y="45" text-anchor="middle" class="text-muted">Generic, unhelpful</text>
      <text x="140" y="60" text-anchor="middle" class="text-muted">No context provided</text>
    </g>
  </g>

  <g transform="translate(720, 650)">
    <rect x="0" y="0" width="640" height="130" rx="8" fill="#22c55e" opacity="0.1" stroke="#22c55e"/>
    <text x="320" y="25" text-anchor="middle" class="heading" fill="#22c55e">✓ GOOD: User-Friendly</text>

    <g transform="translate(20, 45)">
      <rect x="0" y="0" width="280" height="70" rx="6" fill="#e8d4b8"/>
      <text x="20" y="35" font-size="16">🔒</text>
      <text x="50" y="30" class="text-sm">Encrypted with previous keys</text>
      <text x="50" y="50" class="text-muted">Hover for more info</text>
    </g>

    <g transform="translate(340, 45)">
      <rect x="0" y="0" width="280" height="70" rx="6" fill="#e8d4b8"/>
      <text x="20" y="35" font-size="16">✕</text>
      <text x="50" y="30" class="text-sm" fill="#ef4444">Deleted User</text>
      <text x="50" y="50" class="text-muted">Clear explanation provided</text>
    </g>
  </g>
</svg>
