<svg xmlns="http://www.w3.org/2000/svg" viewBox="0 0 1400 800" width="1400" height="800">
  <!-- ============================================================
       GENERATED BY: /wireframe skill
       SOURCE: features/testing/031-standardize-test-users/spec.md
       DATE: 2025-12-31
       DO NOT MANUALLY EDIT - Regenerate with /wireframe command
       ============================================================ -->
  <defs>
    <linearGradient id="bgGrad" x1="0%" y1="0%" x2="100%" y2="100%">
      <stop offset="0%" style="stop-color:#0f172a"/>
      <stop offset="100%" style="stop-color:#1e293b"/>
    </linearGradient>
    <linearGradient id="accentGrad" x1="0%" y1="0%" x2="100%" y2="0%">
      <stop offset="0%" style="stop-color:#8b5cf6"/>
      <stop offset="100%" style="stop-color:#d946ef"/>
    </linearGradient>
    <linearGradient id="primaryGrad" x1="0%" y1="0%" x2="0%" y2="100%">
      <stop offset="0%" style="stop-color:#8b5cf6"/>
      <stop offset="100%" style="stop-color:#6d28d9"/>
    </linearGradient>
    <linearGradient id="tertiaryGrad" x1="0%" y1="0%" x2="0%" y2="100%">
      <stop offset="0%" style="stop-color:#22c55e"/>
      <stop offset="100%" style="stop-color:#16a34a"/>
    </linearGradient>
    <style>
      .heading-lg { fill: #ffffff; font-family: system-ui, sans-serif; font-size: 20px; font-weight: bold; }
      .heading { fill: #ffffff; font-family: system-ui, sans-serif; font-size: 14px; font-weight: bold; }
      .text-md { fill: #cbd5e1; font-family: system-ui, sans-serif; font-size: 12px; }
      .text-sm { fill: #94a3b8; font-family: system-ui, sans-serif; font-size: 10px; }
      .text-muted { fill: #64748b; font-family: system-ui, sans-serif; font-size: 10px; }
      .annotation { fill: #8b5cf6; font-family: monospace; font-size: 10px; }
      .code { fill: #94a3b8; font-family: monospace; font-size: 10px; }
      .code-highlight { fill: #22c55e; font-family: monospace; font-size: 10px; }
    </style>
  </defs>

  <!-- Background -->
  <rect width="1400" height="800" fill="url(#bgGrad)"/>

  <!-- Dot grid pattern -->
  <g opacity="0.05">
    <pattern id="dots" width="30" height="30" patternUnits="userSpaceOnUse">
      <circle cx="15" cy="15" r="1" fill="#fff"/>
    </pattern>
    <rect width="1400" height="800" fill="url(#dots)"/>
  </g>

  <!-- Accent line top -->
  <rect x="0" y="0" width="1400" height="3" fill="url(#accentGrad)"/>

  <!-- Title -->
  <text x="700" y="28" text-anchor="middle" font-family="system-ui, sans-serif" font-size="14" font-weight="600" fill="#64748b" letter-spacing="1">TEST USER ARCHITECTURE - STANDARDIZED CREDENTIALS</text>

  <!-- Section: Seeded Database -->
  <g id="database-section" transform="translate(40, 50)">
    <rect x="0" y="0" width="400" height="340" rx="8" fill="#1e293b" stroke="#475569" stroke-width="1"/>

    <!-- Header -->
    <rect x="0" y="0" width="400" height="40" rx="8" fill="#334155"/>
    <rect x="0" y="32" width="400" height="8" fill="#1e293b"/>
    <text x="20" y="26" class="heading">🗄️ Seeded Database</text>
    <text x="380" y="26" text-anchor="end" class="text-muted">Supabase Auth</text>

    <!-- PRIMARY User Entity -->
    <rect x="20" y="55" width="360" height="120" rx="6" fill="url(#primaryGrad)" opacity="0.15" stroke="#8b5cf6" stroke-width="2"/>
    <rect x="20" y="55" width="360" height="28" rx="6" fill="#8b5cf6" opacity="0.3"/>
    <rect x="20" y="77" width="360" height="6" fill="transparent"/>
    <circle cx="40" cy="69" r="10" fill="#8b5cf6"/>
    <text x="40" y="73" text-anchor="middle" fill="#fff" font-family="system-ui, sans-serif" font-size="10" font-weight="bold">P</text>
    <text x="60" y="73" class="heading">PRIMARY Test User</text>
    <text x="360" y="73" text-anchor="end" fill="#8b5cf6" font-family="system-ui, sans-serif" font-size="10">Main Actor</text>

    <text x="35" y="100" class="code">email:</text>
    <text x="85" y="100" class="code-highlight">primary@test.scripthammer.com</text>
    <text x="35" y="118" class="code">password:</text>
    <text x="95" y="118" class="code-highlight">TestPassword123!</text>
    <text x="35" y="136" class="code">email_confirmed:</text>
    <text x="135" y="136" class="code-highlight">true</text>
    <text x="35" y="154" class="code">role:</text>
    <text x="70" y="154" class="code-highlight">authenticated</text>

    <!-- TERTIARY User Entity -->
    <rect x="20" y="190" width="360" height="135" rx="6" fill="url(#tertiaryGrad)" opacity="0.15" stroke="#22c55e" stroke-width="2"/>
    <rect x="20" y="190" width="360" height="28" rx="6" fill="#22c55e" opacity="0.3"/>
    <rect x="20" y="212" width="360" height="6" fill="transparent"/>
    <circle cx="40" cy="204" r="10" fill="#22c55e"/>
    <text x="40" y="208" text-anchor="middle" fill="#fff" font-family="system-ui, sans-serif" font-size="10" font-weight="bold">T</text>
    <text x="60" y="208" class="heading">TERTIARY Test User</text>
    <text x="360" y="208" text-anchor="end" fill="#22c55e" font-family="system-ui, sans-serif" font-size="10">Second Actor</text>

    <text x="35" y="235" class="code">email:</text>
    <text x="85" y="235" class="code-highlight">tertiary@test.scripthammer.com</text>
    <text x="35" y="253" class="code">password:</text>
    <text x="95" y="253" class="code-highlight">TestPassword456!</text>
    <text x="35" y="271" class="code">username:</text>
    <text x="95" y="271" class="code-highlight">tertiary_tester</text>
    <text x="35" y="289" class="code">email_confirmed:</text>
    <text x="135" y="289" class="code-highlight">true</text>
    <text x="35" y="307" class="code">role:</text>
    <text x="70" y="307" class="code-highlight">authenticated</text>
  </g>

  <!-- Section: Form Selectors -->
  <g id="selectors-section" transform="translate(480, 50)">
    <rect x="0" y="0" width="400" height="180" rx="8" fill="#1e293b" stroke="#475569" stroke-width="1"/>

    <!-- Header -->
    <rect x="0" y="0" width="400" height="40" rx="8" fill="#334155"/>
    <rect x="0" y="32" width="400" height="8" fill="#1e293b"/>
    <text x="20" y="26" class="heading">🎯 Standardized Form Selectors</text>

    <!-- Selector mappings -->
    <rect x="20" y="55" width="360" height="110" rx="4" fill="#0f172a"/>

    <text x="35" y="78" class="text-md">Email Input:</text>
    <rect x="130" y="62" width="120" height="22" rx="4" fill="#334155" stroke="#8b5cf6" stroke-width="1"/>
    <text x="190" y="78" text-anchor="middle" fill="#8b5cf6" font-family="monospace" font-size="12">#email</text>

    <text x="35" y="110" class="text-md">Password Input:</text>
    <rect x="130" y="94" width="120" height="22" rx="4" fill="#334155" stroke="#8b5cf6" stroke-width="1"/>
    <text x="190" y="110" text-anchor="middle" fill="#8b5cf6" font-family="monospace" font-size="12">#password</text>

    <text x="35" y="142" class="text-md">Profile URL:</text>
    <rect x="130" y="126" width="200" height="22" rx="4" fill="#334155" stroke="#8b5cf6" stroke-width="1"/>
    <text x="230" y="142" text-anchor="middle" fill="#8b5cf6" font-family="monospace" font-size="11">/.*\/profile/</text>
  </g>

  <!-- Section: Test Files Scope -->
  <g id="test-files-section" transform="translate(480, 250)">
    <rect x="0" y="0" width="400" height="220" rx="8" fill="#1e293b" stroke="#475569" stroke-width="1"/>

    <!-- Header -->
    <rect x="0" y="0" width="400" height="40" rx="8" fill="#334155"/>
    <rect x="0" y="32" width="400" height="8" fill="#1e293b"/>
    <text x="20" y="26" class="heading">📁 Test Files (Scope: 4 Files)</text>

    <!-- File list -->
    <rect x="20" y="55" width="360" height="150" rx="4" fill="#0f172a"/>

    <!-- File 1 -->
    <rect x="30" y="65" width="340" height="28" rx="4" fill="#334155"/>
    <text x="45" y="83" fill="#eab308" font-family="monospace" font-size="11">📄 friend-requests.spec.ts</text>
    <rect x="300" y="71" width="60" height="16" rx="8" fill="#22c55e" opacity="0.2"/>
    <text x="330" y="83" text-anchor="middle" fill="#22c55e" font-family="system-ui, sans-serif" font-size="9">UPDATE</text>

    <!-- File 2 -->
    <rect x="30" y="98" width="340" height="28" rx="4" fill="#334155"/>
    <text x="45" y="116" fill="#eab308" font-family="monospace" font-size="11">📄 encrypted-messaging.spec.ts</text>
    <rect x="300" y="104" width="60" height="16" rx="8" fill="#22c55e" opacity="0.2"/>
    <text x="330" y="116" text-anchor="middle" fill="#22c55e" font-family="system-ui, sans-serif" font-size="9">UPDATE</text>

    <!-- File 3 -->
    <rect x="30" y="131" width="340" height="28" rx="4" fill="#334155"/>
    <text x="45" y="149" fill="#eab308" font-family="monospace" font-size="11">📄 offline-queue.spec.ts</text>
    <rect x="300" y="137" width="60" height="16" rx="8" fill="#22c55e" opacity="0.2"/>
    <text x="330" y="149" text-anchor="middle" fill="#22c55e" font-family="system-ui, sans-serif" font-size="9">UPDATE</text>

    <!-- File 4 -->
    <rect x="30" y="164" width="340" height="28" rx="4" fill="#334155"/>
    <text x="45" y="182" fill="#eab308" font-family="monospace" font-size="11">📄 gdpr-compliance.spec.ts</text>
    <rect x="300" y="170" width="60" height="16" rx="8" fill="#22c55e" opacity="0.2"/>
    <text x="330" y="182" text-anchor="middle" fill="#22c55e" font-family="system-ui, sans-serif" font-size="9">UPDATE</text>
  </g>

  <!-- Section: User Search Standard -->
  <g id="search-section" transform="translate(920, 50)">
    <rect x="0" y="0" width="440" height="180" rx="8" fill="#1e293b" stroke="#475569" stroke-width="1"/>

    <!-- Header -->
    <rect x="0" y="0" width="440" height="40" rx="8" fill="#334155"/>
    <rect x="0" y="32" width="440" height="8" fill="#1e293b"/>
    <text x="20" y="26" class="heading">🔍 User Search Standard</text>

    <!-- Before/After comparison -->
    <g transform="translate(20, 55)">
      <!-- Before -->
      <rect x="0" y="0" width="190" height="110" rx="4" fill="#ef4444" opacity="0.1" stroke="#ef4444" stroke-width="1"/>
      <text x="95" y="20" text-anchor="middle" fill="#ef4444" font-family="system-ui, sans-serif" font-size="11" font-weight="bold">❌ BEFORE (Wrong)</text>
      <rect x="10" y="35" width="170" height="60" rx="4" fill="#0f172a"/>
      <text x="20" y="55" class="code">// Search by email</text>
      <text x="20" y="72" fill="#ef4444" font-family="monospace" font-size="10">searchUser(user.email)</text>
      <text x="20" y="89" class="text-muted">// User-facing uses username</text>
    </g>

    <g transform="translate(230, 55)">
      <!-- After -->
      <rect x="0" y="0" width="190" height="110" rx="4" fill="#22c55e" opacity="0.1" stroke="#22c55e" stroke-width="1"/>
      <text x="95" y="20" text-anchor="middle" fill="#22c55e" font-family="system-ui, sans-serif" font-size="11" font-weight="bold">✓ AFTER (Correct)</text>
      <rect x="10" y="35" width="170" height="60" rx="4" fill="#0f172a"/>
      <text x="20" y="55" class="code">// Search by username</text>
      <text x="20" y="72" fill="#22c55e" font-family="monospace" font-size="10">searchUser(user.username)</text>
      <text x="20" y="89" class="text-muted">// Matches app behavior</text>
    </g>
  </g>

  <!-- Section: Error Handling -->
  <g id="error-section" transform="translate(920, 250)">
    <rect x="0" y="0" width="440" height="220" rx="8" fill="#1e293b" stroke="#475569" stroke-width="1"/>

    <!-- Header -->
    <rect x="0" y="0" width="440" height="40" rx="8" fill="#334155"/>
    <rect x="0" y="32" width="440" height="8" fill="#1e293b"/>
    <text x="20" y="26" class="heading">⚠️ Error Handling Scenarios</text>

    <!-- Error scenarios -->
    <rect x="20" y="55" width="400" height="150" rx="4" fill="#0f172a"/>

    <!-- Scenario 1 -->
    <rect x="30" y="65" width="380" height="38" rx="4" fill="#ef4444" opacity="0.1"/>
    <text x="45" y="82" fill="#ef4444" font-family="system-ui, sans-serif" font-size="11" font-weight="bold">Database Not Seeded</text>
    <text x="45" y="96" class="text-muted">→ Fail fast with "Missing seed data: PRIMARY, TERTIARY"</text>

    <!-- Scenario 2 -->
    <rect x="30" y="108" width="380" height="38" rx="4" fill="#eab308" opacity="0.1"/>
    <text x="45" y="125" fill="#eab308" font-family="system-ui, sans-serif" font-size="11" font-weight="bold">Credential Mismatch</text>
    <text x="45" y="139" class="text-muted">→ Authentication error with clear credential feedback</text>

    <!-- Scenario 3 -->
    <rect x="30" y="151" width="380" height="38" rx="4" fill="#8b5cf6" opacity="0.1"/>
    <text x="45" y="168" fill="#8b5cf6" font-family="system-ui, sans-serif" font-size="11" font-weight="bold">Selector Changed</text>
    <text x="45" y="182" class="text-muted">→ Element not found error pointing to specific selector</text>
  </g>

  <!-- Section: Requirements Summary -->
  <g id="requirements-section" transform="translate(40, 410)">
    <rect x="0" y="0" width="840" height="180" rx="8" fill="#1e293b" stroke="#475569" stroke-width="1"/>

    <!-- Header -->
    <rect x="0" y="0" width="840" height="40" rx="8" fill="#334155"/>
    <rect x="0" y="32" width="840" height="8" fill="#1e293b"/>
    <text x="20" y="26" class="heading">📋 Key Requirements (FR-001 to FR-018)</text>

    <!-- Requirements grid -->
    <g transform="translate(20, 55)">
      <!-- Column 1: User Standards -->
      <rect x="0" y="0" width="260" height="110" rx="4" fill="#0f172a"/>
      <text x="130" y="20" text-anchor="middle" fill="#8b5cf6" font-family="system-ui, sans-serif" font-size="11" font-weight="bold">User Standards</text>
      <text x="15" y="42" class="text-sm">✓ FR-001: PRIMARY uses seeded credentials</text>
      <text x="15" y="58" class="text-sm">✓ FR-002: TERTIARY uses seeded credentials</text>
      <text x="15" y="74" class="text-sm">✓ FR-003: TERTIARY has defined username</text>
      <text x="15" y="90" class="text-sm">✓ FR-004: Tests use only PRIMARY/TERTIARY</text>

      <!-- Column 2: Selector Standards -->
      <rect x="280" y="0" width="260" height="110" rx="4" fill="#0f172a"/>
      <text x="410" y="20" text-anchor="middle" fill="#8b5cf6" font-family="system-ui, sans-serif" font-size="11" font-weight="bold">Selector Standards</text>
      <text x="295" y="42" class="text-sm">✓ FR-006: Email uses #email</text>
      <text x="295" y="58" class="text-sm">✓ FR-007: Password uses #password</text>
      <text x="295" y="74" class="text-sm">✓ FR-008: Profile URL regex pattern</text>
      <text x="295" y="90" class="text-sm">✓ FR-010: Consistent across files</text>

      <!-- Column 3: NFR -->
      <rect x="560" y="0" width="260" height="110" rx="4" fill="#0f172a"/>
      <text x="690" y="20" text-anchor="middle" fill="#8b5cf6" font-family="system-ui, sans-serif" font-size="11" font-weight="bold">Non-Functional</text>
      <text x="575" y="42" class="text-sm">✓ NFR-001: All tests pass w/ seeded DB</text>
      <text x="575" y="58" class="text-sm">✓ NFR-002: No intermittent auth failures</text>
      <text x="575" y="74" class="text-sm">✓ NFR-004: Credentials in single location</text>
      <text x="575" y="90" class="text-sm">✓ NFR-007: Auth within 30s timeout</text>
    </g>
  </g>

  <!-- Section: Success Criteria -->
  <g id="success-section" transform="translate(40, 610)">
    <rect x="0" y="0" width="1320" height="150" rx="8" fill="#1e293b" stroke="#22c55e" stroke-width="2"/>

    <!-- Header -->
    <rect x="0" y="0" width="1320" height="40" rx="8" fill="#22c55e" opacity="0.2"/>
    <rect x="0" y="32" width="1320" height="8" fill="#1e293b"/>
    <text x="20" y="26" fill="#22c55e" font-family="system-ui, sans-serif" font-size="14" font-weight="bold">✅ Success Criteria (SC-001 to SC-006)</text>

    <!-- Success metrics -->
    <g transform="translate(30, 55)">
      <rect x="0" y="0" width="200" height="80" rx="6" fill="#0f172a"/>
      <text x="100" y="25" text-anchor="middle" class="heading">SC-001</text>
      <text x="100" y="45" text-anchor="middle" class="text-md">All 4 test files use</text>
      <text x="100" y="62" text-anchor="middle" fill="#8b5cf6" font-family="system-ui, sans-serif" font-size="12" font-weight="bold">PRIMARY + TERTIARY</text>
    </g>

    <g transform="translate(220, 55)">
      <rect x="0" y="0" width="200" height="80" rx="6" fill="#0f172a"/>
      <text x="100" y="25" text-anchor="middle" class="heading">SC-002</text>
      <text x="100" y="45" text-anchor="middle" class="text-md">Selectors match</text>
      <text x="100" y="62" text-anchor="middle" fill="#8b5cf6" font-family="system-ui, sans-serif" font-size="12" font-weight="bold">DOM Elements</text>
    </g>

    <g transform="translate(440, 55)">
      <rect x="0" y="0" width="200" height="80" rx="6" fill="#0f172a"/>
      <text x="100" y="25" text-anchor="middle" class="heading">SC-003</text>
      <text x="100" y="45" text-anchor="middle" class="text-md">All E2E tests</text>
      <text x="100" y="62" text-anchor="middle" fill="#22c55e" font-family="system-ui, sans-serif" font-size="12" font-weight="bold">PASS ✓</text>
    </g>

    <g transform="translate(660, 55)">
      <rect x="0" y="0" width="200" height="80" rx="6" fill="#0f172a"/>
      <text x="100" y="25" text-anchor="middle" class="heading">SC-004</text>
      <text x="100" y="45" text-anchor="middle" class="text-md">Zero ad-hoc</text>
      <text x="100" y="62" text-anchor="middle" fill="#ef4444" font-family="system-ui, sans-serif" font-size="12" font-weight="bold">user references</text>
    </g>

    <g transform="translate(880, 55)">
      <rect x="0" y="0" width="200" height="80" rx="6" fill="#0f172a"/>
      <text x="100" y="25" text-anchor="middle" class="heading">SC-005</text>
      <text x="100" y="45" text-anchor="middle" class="text-md">Search by</text>
      <text x="100" y="62" text-anchor="middle" fill="#8b5cf6" font-family="system-ui, sans-serif" font-size="12" font-weight="bold">username</text>
    </g>

    <g transform="translate(1100, 55)">
      <rect x="0" y="0" width="200" height="80" rx="6" fill="#0f172a"/>
      <text x="100" y="25" text-anchor="middle" class="heading">SC-006</text>
      <text x="100" y="45" text-anchor="middle" class="text-md">Clear error</text>
      <text x="100" y="62" text-anchor="middle" fill="#eab308" font-family="system-ui, sans-serif" font-size="12" font-weight="bold">messages</text>
    </g>
  </g>

  <!-- Connection arrows -->
  <g id="arrows">
    <!-- Database to Test Files -->
    <line x1="440" y1="220" x2="480" y2="320" stroke="#8b5cf6" stroke-width="2" stroke-dasharray="4,2"/>
    <polygon points="478,315 485,325 472,325" fill="#8b5cf6"/>

    <!-- Selectors to Test Files -->
    <line x1="680" y1="230" x2="680" y2="250" stroke="#8b5cf6" stroke-width="2" stroke-dasharray="4,2"/>
    <polygon points="675,248 680,258 685,248" fill="#8b5cf6"/>
  </g>
</svg>